<svg overflow="visible" style="display: block;" viewBox="0 0 475.246 55.7168" fill="none" xmlns="http://www.w3.org/2000/svg">
<g id="ANNOTATIONS">
<path id="Vector" d="M16.1251 47.5119C-7.39321 40.3859 -5.61125 22.7406 24.2762 19.2548C42.1839 17.1674 60.4799 17.8563 78.4758 16.1083C98.2714 14.1905 118.032 12.6018 138.145 11.4347C169.338 9.62496 200.707 8.50928 231.918 6.6738C262.564 4.87432 302.984 2.80234 338.871 1.10568C372.216 -0.467588 419.588 -1.537 449.934 6.46301C488.855 16.7252 479.08 35.1674 446.388 45.99C429.08 51.7175 404.291 50.7972 383.684 51.3679C367.699 51.8101 351.715 52.2522 335.73 52.6944C300.091 53.6867 264.558 54.6892 228.866 55.0029C195.167 55.2959 161.275 54.5504 127.612 55.2651C91.5317 56.0311 47.3887 56.9669 16.1251 47.5067V47.5119Z" fill="var(--fill-0, #F0B504)"/>
</g>
</svg>
