<svg width="313" height="165" viewBox="0 0 313 165" fill="none" xmlns="http://www.w3.org/2000/svg">
<g clip-path="url(#clip0_3416_12071)">
<path d="M270.47 68.4102C271.48 66.9302 272.41 65.3902 273.26 63.8102C273.68 63.0202 274.12 62.2402 274.53 61.4402C274.72 61.0602 274.91 60.6802 275.1 60.2902C275.35 59.7702 275.7 59.0402 275.81 58.7902C276.8 56.5902 277.72 54.7802 278.37 52.9402C279.02 51.1002 279.65 49.0902 280.2 47.1402C280.45 46.2602 280.68 45.3702 280.91 44.4802C281.45 42.3402 281.23 43.2602 281.11 43.7302C281.24 43.2202 281.37 42.7102 281.48 42.1902C281.59 41.6702 281.69 41.1502 281.79 40.6402C282.17 38.6602 282.5 36.6702 282.77 34.6802C283.31 30.6602 283.61 26.5902 283.67 22.5402C283.74 17.3302 283.41 12.0602 281.59 7.1202C280.63 4.5102 279.1 2.1502 276.53 0.9102C274.55 -0.0397997 272.03 -0.1198 269.88 0.1402C260.35 1.2902 254.02 8.8202 248.09 15.5902C242.61 21.8402 236.4 27.4402 229.5 32.1002C229.9 31.8302 228.73 32.6002 228.64 32.6602C228.25 32.9102 227.85 33.1702 227.46 33.4202C226.56 33.9902 225.64 34.5402 224.72 35.0802C222.93 36.1202 221.11 37.0902 219.26 38.0102C215.62 39.8002 211.85 41.3402 207.99 42.6002C203.94 43.9202 200.58 44.7402 196.48 45.3802C191.66 46.1402 186.79 46.6602 181.94 47.2902C171.73 48.6102 161.52 49.9302 151.31 51.2502C131.72 53.7802 112.1 56.2002 92.5601 59.1202C75.6701 61.6402 58.4001 64.8402 43.2901 73.1902C35.4801 77.5002 28.5301 83.1102 22.5601 89.7202C16.5901 96.3302 11.3001 103.88 6.46009 111.51C3.79009 115.71 1.15009 119.99 0.270088 124.98C-0.609912 129.97 0.540088 135.55 4.03009 139.35C7.52009 143.15 12.5501 142.73 17.1101 142.55C22.0901 142.35 27.0501 141.99 32.0201 141.62C36.9901 141.25 42.1101 140.85 47.1701 140.61C52.2301 140.37 56.9501 140.17 61.8301 139.6C71.6001 138.46 81.2901 136.8 91.0901 135.84C109.35 134.05 127.41 130.84 145.22 126.48C149.91 125.33 154.58 124.11 159.24 122.86C160.2 122.6 160.99 121.15 161.28 120.34C161.73 119.11 161.84 117.47 161.53 116.2C160.99 113.98 159.61 111.89 157.1 112.56C139.89 117.18 122.58 121 104.86 123.45C95.8801 124.69 86.8401 125.35 77.8701 126.63C68.4601 127.97 59.1201 129.49 49.6001 129.86C40.0801 130.23 30.2201 131.26 20.5201 131.81C18.2001 131.94 15.8701 132.07 13.5501 132.1C12.5901 132.11 11.3901 132.12 10.6001 131.98C10.4101 131.95 9.75009 131.77 9.43009 131.66C9.23009 131.59 9.04009 131.51 8.85009 131.42C8.58009 131.3 8.05009 130.92 8.55009 131.29C8.23009 131.06 7.96009 130.78 7.66009 130.54C7.22009 130.17 8.01009 131.09 7.72009 130.6C7.64009 130.46 7.52009 130.32 7.43009 130.19C6.93009 129.53 7.41009 130.27 7.49009 130.37C7.37009 130.22 7.27009 129.91 7.20009 129.75C7.13009 129.59 7.08009 129.43 7.02009 129.27C6.78009 128.72 7.23009 130.27 7.06009 129.36C7.02009 129.15 6.78009 127.8 6.92009 128.69C7.08009 129.71 6.88009 127.99 6.94009 128C6.99009 128.01 6.77009 129.37 6.92009 128.37C6.95009 128.18 6.97009 128 7.00009 127.81C7.02009 127.67 7.18009 126.76 7.06009 127.38C6.94009 128 7.24009 126.77 7.25009 126.76C7.41009 126.28 7.59009 125.8 7.78009 125.33C7.86009 125.13 7.95009 124.93 8.04009 124.73C7.96009 124.91 7.68009 125.44 8.10009 124.62C8.61009 123.64 9.15009 122.69 9.72009 121.74C10.8401 119.89 12.0101 118.07 13.1801 116.25C15.4801 112.69 17.8701 109.17 20.4201 105.78C21.8001 103.94 22.7901 102.68 24.0201 101.22C25.4001 99.5802 26.8301 97.9802 28.3201 96.4302C31.2301 93.4002 34.3701 90.5702 37.7301 88.0502C43.7701 83.5302 51.3301 79.8002 58.8301 77.1002C66.3301 74.4002 74.2501 72.5202 82.2901 71.0802C90.3301 69.6402 99.1701 68.5602 107.64 67.5002C117.44 66.2802 127.24 65.0202 137.04 63.7602C156.55 61.2502 176.11 58.9202 195.59 56.1202C211.7 53.8002 226.79 46.7702 239.36 36.5102C242.49 33.9602 245.45 31.2102 248.23 28.2802C251.2 25.1602 253.85 21.7702 256.77 18.6102C259.69 15.4502 262.62 12.8302 266.51 11.2002C268.33 10.4402 269.8 10.0702 271.79 10.0202C272.72 10.0002 273.61 10.0402 274.33 10.2602C274.47 10.3002 275.46 10.7102 275.14 10.5602C275.14 10.5602 275.63 10.9702 275.39 10.7302C275.18 10.5202 275.74 11.2302 275.8 11.3302C275.42 10.6902 275.99 11.8502 276.07 12.0502C276.15 12.2602 276.56 13.5402 276.35 12.8002C276.67 13.9602 276.88 15.1302 277.07 16.3202C277.1 16.5002 277.16 17.2802 277.08 16.3602C277.1 16.5902 277.12 16.8102 277.14 17.0402C277.18 17.5702 277.22 18.1002 277.24 18.6202C277.3 19.8302 277.31 21.0402 277.3 22.2502C277.3 23.1602 277.29 24.0702 277.26 24.9802C277.25 25.3902 277.23 25.8002 277.21 26.2002C277.21 26.3802 277.19 26.5502 277.18 26.7302C277.12 27.9202 277.24 25.9902 277.18 26.6902C277.04 28.5502 276.87 30.4102 276.63 32.2702C276.14 36.1202 275.43 39.9502 274.62 43.7402C274.41 44.7202 274.19 45.7002 273.95 46.6702C273.83 47.1402 273.95 46.6502 273.97 46.5802C273.9 46.8402 273.84 47.1002 273.77 47.3602C273.63 47.8802 273.49 48.3902 273.34 48.9102C273.27 49.1602 273.18 49.4202 273.11 49.6702C273.16 49.5002 272.74 51.1902 272.89 50.5902C272.99 50.1702 272.79 50.9702 272.77 51.0602C272.72 51.2502 272.66 51.4502 272.61 51.6402C272.33 52.6602 272.03 53.6802 271.7 54.6802C270.58 58.0702 269.27 60.9602 267.43 63.9902C266.64 65.2902 266.65 67.2402 267.54 68.5002C268.43 69.7602 269.7 69.5902 270.5 68.4302L270.47 68.4102Z" fill="#1D1D1B"/>
<path d="M214.29 105.16C213.4 104.39 213.36 104.42 214.18 105.26C214.46 105.54 214.79 105.7 215.16 105.74C215.98 106.01 216.62 105.99 217.44 105.78C218.35 105.54 219.26 105.26 220.16 105C222.04 104.45 223.93 103.92 225.76 103.22C227.59 102.52 229.55 101.77 231.4 100.96C233.25 100.15 235.07 99.09 236.92 98.18C244.21 94.6 251.36 90.03 256.25 83.43C257.7 81.47 257.53 77.75 256.06 75.84C255.44 75.03 254.63 74.3 253.53 74.33C252.43 74.36 251.72 75.16 251.08 75.96C251.77 75.1 250.82 76.24 250.69 76.39C250.39 76.74 250.09 77.09 249.78 77.43C249.15 78.12 248.5 78.79 247.82 79.43C246.51 80.67 245.12 81.82 243.68 82.9C243.29 83.19 242.89 83.48 242.49 83.77C242.29 83.91 242.09 84.05 241.88 84.19C242.18 83.99 242.14 84.01 241.76 84.27C240.92 84.82 240.07 85.36 239.21 85.88C237.58 86.86 235.91 87.84 234.2 88.66C230.66 90.34 226.96 91.81 223.32 93.26C221.59 93.95 219.9 94.75 218.18 95.47C217.31 95.84 216.36 96.14 215.53 96.58C214.94 96.89 214.42 97.36 213.98 97.85C213.53 98.29 213.21 98.81 213.01 99.41C213.16 99.33 213.18 99.27 213.07 99.24C211.43 100.62 211.8 104.94 214.27 105.15L214.29 105.16Z" fill="#1D1D1B"/>
<path d="M37.8501 80.8804C34.1901 76.2204 29.0701 73.1804 24.1701 69.9904C22.9601 69.2004 21.8601 68.2404 20.6901 67.3904C19.5201 66.5404 18.3301 65.8104 17.1301 65.0604C15.8601 64.2604 14.5801 63.4704 13.2901 62.7104C12.6901 62.3504 12.0901 62.0104 11.4701 61.6904C11.7301 61.8304 11.2801 61.5204 11.2901 61.5104C11.3001 61.4904 11.6701 62.4804 11.6501 62.3704L11.7001 64.5604L11.6001 65.0604L10.6701 66.5604C10.4901 66.7604 10.3501 66.6204 10.8801 66.5004C11.4101 66.3804 12.0001 66.2704 12.5601 66.1504C13.6801 65.9204 14.8001 65.6804 15.9201 65.4604C18.0001 65.0504 20.0801 64.6604 22.1601 64.2804C26.2901 63.5204 30.5901 62.8804 34.7901 62.8904C42.4801 62.8904 49.6001 65.8704 56.6701 68.7104C58.7401 69.5404 60.8001 70.3904 62.8701 71.2104C63.9001 71.6204 64.9301 72.0204 65.9701 72.4004C66.6401 72.6504 67.4201 72.9604 68.1501 72.9404C69.0401 72.9204 69.7501 72.2804 70.4201 71.7704C71.9901 70.6004 72.1601 67.2204 71.3201 65.6504C70.5601 64.2304 69.9601 63.0404 68.4101 62.3504C67.7501 62.0504 67.0201 61.8404 66.3401 61.5904C64.6801 60.9604 63.0301 60.3004 61.3801 59.6404C58.3601 58.4304 55.3401 57.2204 52.2501 56.2004C45.9301 54.1204 39.1901 52.6204 32.5101 53.3304C28.9001 53.7104 25.4201 54.8304 21.9201 55.7304C18.4201 56.6304 14.7501 57.3904 11.1501 58.1604C9.18009 58.5804 7.64009 58.9604 6.82009 61.0304C5.93009 63.2804 6.36009 65.9704 7.91009 67.8204C9.07009 69.2104 10.6601 69.9004 12.2501 70.7004C13.8401 71.5004 15.2401 72.2504 16.7201 73.0704C18.4101 74.0104 20.1701 74.8104 21.8601 75.7604C23.5501 76.7104 25.0501 77.8304 26.6201 78.8604C29.8301 80.9804 33.2601 83.1704 37.1301 83.7504C38.3701 83.9404 38.3001 81.4904 37.8301 80.8904L37.8501 80.8804Z" fill="#1D1D1B"/>
<path d="M18.4301 69.16C17.3001 69.95 16.2001 70.98 15.5701 72.22C14.2601 74.79 14.9201 78.14 16.3201 80.55C17.3301 82.29 19.0501 83.67 20.9401 84.35C22.8301 85.03 24.7601 84.92 26.6901 84.43C27.5801 84.21 28.4501 83.87 29.2201 83.36C29.7701 83 30.1101 82.63 30.5001 82.1C30.5501 82.03 30.7501 81.82 30.4901 82.1C30.1101 82.51 30.8401 81.67 30.8801 81.62C31.5601 80.75 31.8301 79.6 31.8201 78.51C31.8201 77.51 31.3601 76.02 30.2901 75.64C30.0901 75.56 29.8701 75.52 29.6501 75.51C28.9901 75.66 28.9101 75.68 29.4201 75.56C28.9201 75.67 28.8301 75.73 28.4501 75.93C28.0901 76.12 27.7201 76.19 27.3601 76.4C26.5901 76.86 25.7401 77.17 24.8701 77.38L25.5201 77.23C24.3201 77.5 23.1401 77.52 21.9201 77.32L22.5601 77.43C22.0301 77.33 21.5101 77.18 21.0101 76.97C20.8701 76.91 20.5101 76.64 20.3701 76.66C20.6501 76.84 20.7101 76.88 20.5501 76.77C20.5001 76.74 20.4501 76.71 20.4001 76.67C20.3001 76.6 20.2101 76.53 20.1201 76.46C19.9501 76.33 19.7201 76.01 19.5301 75.93C19.6401 75.98 19.8801 76.37 19.6501 76.06C19.5601 75.94 19.4801 75.83 19.4001 75.71C19.3401 75.62 19.1301 75.26 19.3701 75.68C19.6101 76.1 19.3801 75.68 19.3401 75.56C19.3401 75.54 19.2201 75.25 19.2201 75.24C19.2401 75.24 19.4501 76.12 19.3101 75.47C19.2901 75.36 19.2701 75.25 19.2501 75.14C19.1701 74.75 19.2901 75.93 19.3001 75.53C19.3001 75.28 19.3001 75.01 19.3001 74.76C19.3001 74.28 19.2101 73.8 19.1001 73.33C19.0701 73.22 19.0401 72.85 19.0901 73.33C19.1401 73.87 19.0901 73.34 19.0901 73.22C19.0801 72.97 19.0901 72.73 19.0901 72.48C19.0901 72.18 19.0401 72.87 19.0901 72.55C19.1101 72.43 19.1101 72.31 19.1301 72.19C19.1601 71.92 19.1501 71.94 19.2501 71.64C19.3401 71.36 19.4501 71.09 19.5701 70.82C19.8801 70.11 19.3901 68.47 18.4101 69.15L18.4301 69.16Z" fill="#1D1D1B"/>
<path d="M119.92 119.2C122.42 117.31 125.17 115.97 127.77 114.26C130.37 112.55 133.32 110.85 136.15 109.26C141.91 106.03 148.25 103.88 154.64 102.26C167.63 98.9701 181.25 97.5201 194.36 100.8C201.97 102.7 209.34 105.57 216.61 108.49C223.88 111.41 231.05 114.51 238.31 117.4C245.57 120.29 253.39 122.89 261.02 125.44C268.65 127.99 276.82 130.72 284.72 133.36C288.67 134.68 292.62 136 296.57 137.32C298.47 137.95 300.36 138.59 302.26 139.22C303.17 139.52 304.09 139.81 304.99 140.13C305.34 140.26 305.73 140.37 306.05 140.56C305.73 140.35 305.75 140.39 306.11 140.67C305.85 140.47 305.65 140.21 305.52 139.91L305.18 138.2C305.18 138.8 305.2 138.67 305.22 137.82L305.38 137.21C305.19 137.71 305.22 137.66 305.47 137.07C305.5 137.21 305.02 137.76 304.94 137.88C304.37 138.77 305.57 137.28 304.81 138.03C304.33 138.51 303.87 139 303.35 139.44C303.09 139.67 302.81 139.88 302.54 140.09C302.43 140.18 301.25 140.98 301.93 140.55C299.43 142.17 296.72 143.42 294 144.64C287.68 147.48 281.66 149.85 274.73 149.88C267.8 149.91 260.73 146.61 253.98 143.84C249.84 142.14 245.59 140.81 241.36 139.35C237.13 137.89 233.15 136.48 229.05 135.01C219.45 131.57 209.87 128.07 200.32 124.51C196.46 123.07 192.61 121.63 188.76 120.15C184.58 118.54 180.45 116.8 176.17 115.46C161.43 110.84 145.68 109.52 130.4 111.74C128.54 112.01 126.71 112.36 124.85 112.66C123.22 112.92 121.52 113.13 120.18 112.68C115.28 111.01 114.44 121.37 118.58 122.98C122.44 124.49 126.52 123.18 130.43 122.6C134.34 122.02 138.39 121.65 142.4 121.54C150.06 121.32 157.92 121.97 165.27 123.52C175.21 125.63 184.5 129.67 193.97 133.23C203.44 136.79 213.33 140.42 223.05 143.92C230.97 146.77 238.93 149.48 246.89 152.22C254.16 154.72 261.02 158.57 268.63 160.04C276.24 161.51 284.42 159.99 291.74 156.98C294.57 155.82 297.39 154.53 300.13 153.16C303.03 151.71 306.02 149.99 308.29 147.65C311.71 144.12 313.44 139.05 311.53 134.28C310.62 132.01 308.92 130.44 306.63 129.63C304.71 128.95 302.75 128.33 300.82 127.69C284.56 122.26 268.28 116.88 252.04 111.38C236.77 106.21 222.26 99.0401 207.02 93.7901C203.24 92.4901 199.42 91.2501 195.52 90.3301C191.62 89.4101 187.64 88.9601 183.58 89.0601C176.81 89.2201 170.02 89.9101 163.4 91.3201C156.78 92.7301 149.85 95.0901 143.52 98.1901C137.19 101.29 131.21 104.58 125.81 108.98C124.5 110.04 123.45 111.22 122.36 112.5C121.21 113.86 119.99 115.15 118.83 116.5C118.1 117.36 118.47 120.29 119.94 119.19L119.92 119.2Z" fill="#1D1D1B"/>
<path d="M245.36 75.8401C245.36 75.8401 244.84 75.5701 244.91 75.5501C244.98 75.5301 244.89 76.3801 245.01 76.3501C245.13 76.3201 245.06 76.1001 245.15 76.0201C245.62 75.5901 246.02 75.0901 246.53 74.6801C247.77 73.6801 249.23 72.8501 250.67 72.1801C252.11 71.5101 253.63 70.8101 255.17 70.9201C256.93 71.0401 258.81 70.6801 260.59 70.6601C264.63 70.6201 268.65 71.2501 272.61 71.9901C276.88 72.7801 281.17 73.5001 285.46 74.2201C289.06 74.8201 292.84 75.0201 295.88 76.0901C295.9 76.0901 296.4 76.3501 296.09 76.1701C295.76 75.9801 296.32 76.3501 296.39 76.4101C296.75 76.7001 296.32 76.2801 296.3 76.2701C296.46 76.3501 296.51 76.8301 296.38 76.3701C296.21 75.7801 296.08 75.3501 296.02 74.7201C295.96 74.0901 295.99 74.5501 295.99 74.7401L296.1 74.2601L295.98 74.5901C295.98 74.4901 296.32 74.0601 296.04 74.4201C295.93 74.5601 295.85 74.7301 295.75 74.8801C295.44 75.3701 295.85 74.8801 295.42 75.2701C294.79 75.8301 294.51 76.0601 293.75 76.4401C290.6 78.0201 287.08 77.8501 283.65 77.6901C279.46 77.5001 275.29 77.1401 271.12 76.6801C266.45 76.1701 261.8 75.5701 257.15 74.8801C254.91 74.5501 252.66 74.2201 250.43 73.8101C249.3 73.6001 248.17 73.3701 247.05 73.1401C245.68 72.8701 244.41 72.8601 243.02 72.8701C241.06 72.8901 240.24 75.3901 240.14 76.9501C240.03 78.6401 240.55 81.3201 242.44 81.9601C243.77 82.4101 245.02 82.8401 246.42 83.0001C247.63 83.1401 248.85 83.2501 250.07 83.3701C252.51 83.6101 254.94 83.9101 257.39 84.1501C262.36 84.6401 267.34 85.0201 272.32 85.3001C277.3 85.5801 281.87 85.9201 286.64 86.0201C290.82 86.1101 295.46 85.8401 298.76 82.9601C302.96 79.3001 303.63 72.2301 299.65 68.1801C298.22 66.7301 296.23 66.1401 294.29 65.7801C291.77 65.3201 289.23 64.9101 286.69 64.5601C281.8 63.8901 276.91 63.1801 272 62.6401C267.09 62.1001 262.39 61.6201 257.74 62.5801C256.54 62.8301 255.19 63.0101 254.14 63.6601C253.17 64.2701 252 64.5101 250.95 64.9701C248.8 65.8901 246.73 67.1401 245.1 68.8201C243.36 70.6001 241.62 72.8701 241.83 75.5001C241.97 77.3701 243.29 79.8101 245.45 79.6301C247.16 79.4901 246.97 76.1101 245.36 75.8801V75.8401Z" fill="#1D1D1B"/>
<path d="M169.11 117.49C168.01 117.33 166.88 117.3 165.76 117.28C164.4 117.25 163.34 117.68 162.2 118.4C159.82 119.91 157.83 121.56 156.7 124.22C154.23 130.05 156.46 137.53 161.8 140.94C165.89 143.55 170.55 144.04 175.07 142.24C179.59 140.44 182.75 136.92 183.64 132.32C184.2 129.39 183.83 126.15 182.48 123.48C181.36 121.26 178.91 118.72 176.23 118.84C174.49 118.92 174.26 121.69 174.83 122.86C175.4 124.03 175.95 124.87 176.97 125.6C177.3 125.84 177.65 126.07 177.98 126.32C178.1 126.42 178.22 126.51 178.34 126.62C178.4 126.68 178.87 127.2 178.53 126.78C179.04 127.42 179.14 127.7 179.28 128.25C179.34 128.48 179.38 128.72 179.43 128.95C179.48 129.18 179.47 129.76 179.45 129C179.45 129.17 179.45 129.35 179.47 129.53C179.52 130.33 179.61 128.88 179.47 129.65C179.36 130.24 179.48 129.64 179.51 129.54C179.45 129.73 179.38 129.91 179.33 130.1C179.28 130.29 179.01 130.76 179.35 130.13C179.28 130.27 179.21 130.4 179.13 130.53C179.04 130.68 178.5 131.43 178.71 131.18C179 130.83 178.5 131.4 178.49 131.41C178.33 131.58 178.16 131.74 177.99 131.9C177.72 132.14 177.45 132.36 177.16 132.56C176.79 132.83 177.73 132.26 177.06 132.61C176.92 132.69 176.78 132.77 176.64 132.85C175.92 133.24 175.16 133.57 174.38 133.82C174.06 133.92 173.74 134.01 173.41 134.1C174.02 133.95 172.83 134.19 172.67 134.21C171.89 134.32 171.09 134.38 170.3 134.37C169.93 134.37 169.56 134.35 169.19 134.32C169 134.3 168.78 134.25 168.59 134.25C168.13 134.25 169.29 134.43 168.57 134.25C167.69 134.02 166.83 133.79 166 133.44C165.57 133.26 165.16 133.05 164.76 132.83C164.18 132.52 164.6 132.73 164.72 132.81C164.51 132.67 164.3 132.52 164.1 132.37C163.74 132.1 163.39 131.8 163.06 131.49C162.92 131.35 162.78 131.21 162.64 131.06C163.24 131.69 162.64 131.04 162.51 130.88C162.36 130.69 162.23 130.48 162.08 130.28L162 130.16C161.77 129.78 161.79 129.83 162.07 130.32C161.98 130.24 161.88 129.92 161.82 129.78C161.76 129.62 161.62 128.83 161.69 129.48C161.77 130.19 161.67 129.24 161.64 129.14C161.51 128.57 161.86 129.02 161.67 129.42C161.7 129.35 161.67 128.9 161.65 128.78C161.58 127.77 161.48 129.6 161.64 128.72C161.64 128.67 161.78 127.68 161.68 128.34C161.59 128.94 161.81 127.98 161.86 127.84C161.95 127.6 162.04 127.36 162.14 127.13C162.2 126.99 162.6 126.2 162.27 126.8C162.8 125.81 163.2 125.27 163.95 124.62C164.85 123.85 165.81 123.22 166.68 122.41C167.55 121.6 168.44 121.11 169.49 120.67C170.69 120.16 170.42 117.69 169.13 117.5L169.11 117.49Z" fill="#1D1D1B"/>
<path d="M173.44 119.82C172.22 119.14 170.74 118.47 169.31 118.61C168.54 118.69 167.66 118.8 166.97 119.16C166.24 119.54 165.53 120.02 164.91 120.56C161.24 123.74 160.56 129.08 162.88 133.26C163.79 134.9 165.37 136.19 167.19 136.66C169.01 137.13 170.63 137 172.37 136.47C175.68 135.47 178.28 132.62 178.84 129.2C179.18 127.1 178.84 124.76 177.88 122.85C177.38 121.86 176.83 120.98 176.09 120.15C175.35 119.32 174.36 118.26 173.12 118.38C171.17 118.57 170.86 121.53 171.53 122.93C171.84 123.58 172.18 124.13 172.69 124.64C172.83 124.78 172.78 124.73 172.56 124.48L173.02 125C173.15 125.13 173.28 125.25 173.41 125.38L173.53 125.51C173.69 125.68 173.69 125.68 173.53 125.51C173.38 125.34 173.38 125.34 173.53 125.51L173.64 125.65C173.83 125.9 174.01 126.16 174.18 126.43C174.43 126.84 174.18 126.47 174.11 126.27C174.17 126.42 174.26 126.57 174.32 126.72C174.37 126.84 174.42 126.97 174.47 127.1C174.66 127.61 174.48 126.95 174.4 126.83C174.53 127.04 174.53 127.43 174.58 127.67C174.66 128.07 174.53 126.77 174.53 127.3C174.53 127.32 174.54 127.75 174.53 127.75C174.48 127.75 174.65 126.74 174.54 127.37C174.52 127.49 174.49 127.61 174.48 127.73C174.53 126.97 174.65 127.14 174.53 127.48C174.49 127.6 174.27 128.02 174.51 127.58C174.75 127.14 174.51 127.55 174.46 127.66C174.38 127.8 174.29 127.92 174.2 128.06C173.95 128.45 174.52 127.73 174.29 127.95C174.2 128.04 174.11 128.14 174.02 128.24C173.91 128.35 173.79 128.44 173.67 128.55C173.34 128.84 174 128.37 173.75 128.5C173.5 128.63 173.25 128.79 172.99 128.92C172.46 129.17 171.9 129.35 171.33 129.49L171.95 129.35C170.94 129.57 169.92 129.62 168.9 129.46L169.56 129.58C168.78 129.43 168.05 129.16 167.36 128.77L167.98 129.15C167.67 128.96 167.38 128.75 167.1 128.53C166.96 128.42 166.84 128.3 166.7 128.19C166.24 127.81 167.08 128.74 166.77 128.27C166.69 128.15 166.58 127.92 166.46 127.83C166.72 128.34 166.78 128.44 166.62 128.12L166.55 127.95C166.24 127.35 166.72 128.79 166.6 128.17C166.57 127.99 166.54 127.8 166.5 127.62C166.78 128.71 166.57 128.28 166.57 127.9C166.57 127.71 166.59 127.52 166.57 127.34C166.52 128.04 166.51 128.19 166.55 127.78L166.58 127.59C166.6 127.46 166.63 127.34 166.65 127.21L166.53 127.72C166.53 127.55 166.67 127.33 166.72 127.17C166.9 126.62 166.37 127.79 166.65 127.31C166.73 127.17 166.82 127.03 166.9 126.89C167.15 126.44 166.47 127.37 166.91 126.89C167.13 126.65 167.36 126.42 167.61 126.21C167.73 126.1 167.86 126 167.99 125.9C168.06 125.85 168.12 125.8 168.19 125.75C167.91 125.93 167.85 125.97 168.01 125.87C168.43 125.62 168.84 125.36 169.24 125.08C169.31 125.03 169.38 124.98 169.45 124.93C169.21 125.09 169.16 125.13 169.31 125.03C169.46 124.94 169.6 124.85 169.76 124.76C170.06 124.59 170.37 124.46 170.67 124.29C170.85 124.19 171.03 124.08 171.19 123.95C171.35 123.84 171.37 123.82 171.25 123.9C171.05 124.03 171.5 123.75 171.55 123.72C172.08 123.41 172.64 123.15 173.23 123.03C174.63 122.75 174.51 120.45 173.43 119.85L173.44 119.82Z" fill="#1D1D1B"/>
<path d="M216.64 136.23C215.78 136.27 214.64 136.17 213.87 136.56C212.87 137.08 212.1 138.54 211.5 139.49C210.27 141.44 209.42 143.8 209.1 146.08C208.31 151.69 210.23 157.86 214.83 161.4C218.8 164.46 223.91 165.07 228.39 162.72C232.61 160.51 235.57 156.5 236.19 151.75C236.5 149.39 236.47 146.84 235.96 144.5C235.66 143.09 235.22 141.81 234.25 140.73C234.23 140.71 233.53 139.9 234.11 140.57C233.85 140.28 233.61 139.95 233.31 139.7C232.78 139.25 232.2 138.98 231.51 139.14C229.68 139.56 229.1 142.14 229.92 143.69C230.18 144.19 230.44 144.68 230.77 145.14C231.37 145.99 230.57 144.96 230.86 145.25C231.01 145.4 231 145.67 230.95 145.34C230.93 145.22 230.52 144.55 230.76 144.86C230.83 144.95 231.25 146.52 231.1 146.07C231.13 146.16 231.19 146.46 231.24 146.5C231.05 146.34 231.06 145.75 231.18 146.39C231.21 146.55 231.24 146.7 231.27 146.86C231.39 147.43 231.08 147.16 231.27 146.7C231.18 146.91 231.33 147.44 231.34 147.68C231.35 148.12 231.11 148.84 231.37 147.87C231.27 148.23 231.3 148.65 231.24 149.02C231.2 149.3 231.13 149.58 231.09 149.86C231 150.46 231.15 149.51 231.19 149.47C231.11 149.53 231.15 149.73 231.09 149.81C231.09 149.8 230.97 150.09 230.98 150.12C230.86 149.6 231.41 149.36 231.19 149.67C230.92 150.04 230.7 150.45 230.42 150.82C230.87 150.21 230.21 151 230.05 151.17C229.75 151.48 229.44 151.78 229.12 152.07C228.83 152.33 228.52 152.57 228.21 152.79C227.77 153.11 228.87 152.45 228.07 152.87C227.85 152.98 227.65 153.11 227.43 153.22C226.69 153.6 225.92 153.88 225.12 154.12C225.75 153.93 224.7 154.19 224.53 154.22C224.05 154.28 223.57 154.31 223.08 154.31C222.69 154.31 222.3 154.27 221.92 154.23C221.74 154.21 221.35 154.06 221.93 154.23C221.74 154.17 221.55 154.13 221.36 154.08C220.49 153.84 219.68 153.51 218.88 153.09C218.28 152.78 218.83 153.05 218.94 153.13C218.78 153.02 218.62 152.91 218.46 152.8C218.11 152.54 217.77 152.26 217.45 151.96C217.31 151.83 217.18 151.68 217.03 151.55C216.61 151.18 217.49 152.14 217.15 151.69C216.85 151.31 216.55 150.93 216.27 150.53C216.05 150.22 215.85 149.89 215.65 149.57C215.34 149.07 216.02 150.37 215.8 149.83C215.71 149.61 215.6 149.39 215.51 149.17C215.44 148.99 215.37 148.81 215.31 148.63C215.12 148.13 215.47 148.4 215.42 148.99C215.45 148.63 215.17 147.94 215.08 147.59C214.96 147.09 215.28 147.28 215.1 147.98C215.15 147.78 215.06 147.46 215.05 147.26C215.03 146.81 215.03 146.36 215.03 145.91C215.03 145.73 215.05 145.54 215.03 145.35C215.01 144.84 214.93 146.26 215.03 145.46C215.08 144.97 215.16 144.48 215.24 143.99C215.34 143.35 215.25 143.87 215.22 144.01C215.3 143.72 215.39 143.43 215.48 143.14C215.51 143.03 215.73 142.66 215.51 143.04C215.66 142.8 215.83 142.58 215.99 142.34C216.57 141.47 216.64 140.37 217.33 139.59C218.02 138.81 218.23 136.12 216.64 136.2V136.23Z" fill="#1D1D1B"/>
<path d="M221.64 137.49C220.24 137.42 218.69 137.66 217.46 138.38C215.89 139.3 214.92 141.21 214.39 142.91C213.09 147.05 213.25 152.58 216.89 155.54C220.01 158.08 224.39 157.9 227.28 155.08C230.49 151.94 231.24 146.85 229.73 142.72C229 140.72 227.62 138.88 225.92 137.6C225.08 136.97 224.14 136.41 223.18 135.99C222.65 135.76 222.14 135.62 221.56 135.56C221.37 135.54 221.18 135.54 220.99 135.51C221.2 135.54 221.16 135.53 220.88 135.48C220.6 135.43 220.33 135.38 220.05 135.33C219.45 135.23 218.77 135.94 218.51 136.36C218.09 137.02 217.88 137.99 217.92 138.76C218 140.28 218.6 141.81 220.22 142.08C219.9 142.03 220.29 142.1 220.33 142.11C220.49 142.16 220.63 142.21 220.78 142.27C221.08 142.4 221.36 142.55 221.66 142.66C222.31 142.89 222.94 143.16 223.55 143.49C223.64 143.54 223.93 143.76 223.57 143.5C223.69 143.59 223.82 143.66 223.94 143.75C224.18 143.92 224.41 144.1 224.63 144.29C224.85 144.48 225.05 144.68 225.25 144.88C225.18 144.81 224.91 144.45 225.2 144.84C225.3 144.98 225.41 145.12 225.51 145.26C225.57 145.34 225.85 145.73 225.64 145.43C225.43 145.13 225.7 145.55 225.74 145.64C225.81 145.79 225.85 145.95 225.93 146.09C226.13 146.49 225.81 145.54 225.91 145.98C225.94 146.14 225.99 146.29 226.02 146.45C226.05 146.58 226.09 147.1 226.06 146.59C226.03 146.08 226.05 146.61 226.06 146.74C226.08 147.33 225.95 146.92 226.09 146.68C226.05 146.74 226.04 147.05 226.03 147.16C225.97 147.85 226.03 147.03 226.08 147.05C226.12 147.07 225.77 147.89 225.75 147.95C226 147.35 225.67 148.04 225.57 148.2C225.54 148.25 225.41 148.49 225.34 148.53C225.56 148.27 225.6 148.22 225.47 148.37C225.4 148.45 225.33 148.52 225.26 148.6C225.06 148.8 224.85 148.98 224.64 149.17C224.56 149.24 224.24 149.46 224.67 149.17C224.55 149.25 224.43 149.32 224.3 149.39C224.05 149.53 223.78 149.65 223.51 149.76C223.37 149.81 223.23 149.86 223.09 149.9C222.67 150.04 223.22 149.93 222.96 149.92C222.7 149.91 222.42 149.98 222.15 149.98C222.03 149.98 221.15 149.89 221.66 149.98C220.99 149.86 220.35 149.59 219.75 149.29C219.61 149.22 219.39 149 219.78 149.31C219.67 149.22 219.54 149.14 219.42 149.05C219.33 148.98 218.87 148.47 218.78 148.48L218.9 148.61C219.19 148.94 219.06 148.79 218.5 148.16C218.56 148.23 218.9 148.7 218.62 148.28C218.54 148.16 218.45 148.04 218.37 147.92C218.48 148.27 218.04 147.43 218.37 147.92C218.33 147.77 218.26 147.62 218.2 147.48C218.03 147.06 218.32 148.1 218.26 147.65C218.24 147.5 218.2 147.34 218.17 147.18C218.07 146.72 218.17 147.86 218.2 147.39C218.2 147.24 218.11 146.76 218.18 147.24C218.25 147.72 218.18 147.26 218.2 147.09C218.23 146.84 218.23 146.2 218.38 146C218.2 146.22 218.22 146.56 218.33 146.21C218.39 146.02 218.44 145.84 218.51 145.65C218.61 145.37 218.73 145.1 218.84 144.82C218.99 144.45 218.57 145.3 218.78 144.96C218.87 144.81 218.94 144.66 219.03 144.52C219.3 144.07 219.54 143.62 219.77 143.14C219.73 143.23 219.5 143.64 219.75 143.19C219.84 143.03 219.93 142.87 220.02 142.71C220.1 142.59 220.17 142.46 220.26 142.34C220.29 142.29 220.54 141.96 220.4 142.13C220.87 141.55 221.38 141.17 222.05 140.85C223.21 140.29 223.14 137.52 221.66 137.45L221.64 137.49Z" fill="#1D1D1B"/>
<path d="M12.1702 109.38L12.4702 109.68L11.9702 108.45C12.0702 110 13.3902 111.37 14.5502 112.32C15.7102 113.27 17.1402 113.69 18.3202 114.54C19.5002 115.39 20.5902 116.5 21.6602 117.51C22.7302 118.52 23.5502 119.39 24.3502 120.36C25.2202 121.44 26.0302 122.57 26.7602 123.75C26.9602 124.07 27.1502 124.4 27.3402 124.73C27.9702 125.79 27.0002 124.02 27.5502 125.1C27.8802 125.76 28.2302 126.41 28.5402 127.08C28.8302 127.69 29.1002 128.31 29.3402 128.93C29.4702 129.27 29.6002 129.62 29.7202 129.97C30.0902 130.96 29.6802 129.62 29.9002 130.56C30.1002 131.45 30.2802 132.33 30.4302 133.23L30.4902 133.67C30.4202 132.87 30.4502 133.16 30.6002 134.54C30.7102 135.16 30.9102 135.76 31.1102 136.36C31.8102 138.38 34.3902 139.32 35.5802 137.12C37.9702 132.72 36.2502 126.92 34.2502 122.67C32.7302 119.46 30.7002 116.69 28.2202 114.15C25.9802 111.85 23.4002 109.96 20.5302 108.53C19.1202 107.83 17.7402 106.81 16.2102 106.37C14.8302 105.98 12.6302 106.21 12.0702 107.71L12.8702 106.98L12.5202 107.05C11.5102 107.26 11.5602 108.78 12.1702 109.37V109.38Z" fill="#1D1D1B"/>
<path d="M23.9702 95.52C24.2902 96.31 24.5302 97.0701 25.1302 97.6901C25.5602 98.1401 26.0302 98.56 26.5302 98.95C27.6802 99.85 28.8702 100.62 30.1602 101.31C32.5702 102.61 35.0002 103.88 37.5302 104.91C42.4502 106.92 47.7802 107.9 53.0702 108.05C58.8602 108.21 64.6302 108.08 70.3702 107.35C73.2502 106.98 76.1102 106.45 78.9202 105.73C81.2102 105.15 83.3902 104.16 85.0602 102.43C89.3902 97.9701 89.0902 91.1901 87.7602 85.6201C87.3402 83.8501 86.2302 82.2001 84.2202 82.7101C80.2202 83.7301 76.3002 84.77 72.1902 85.27C68.0802 85.77 63.8002 85.9101 59.6502 85.4701C56.4502 85.1301 52.9102 84.03 49.7202 82.45C47.7502 81.48 47.1202 81.1 45.4902 79.95C44.8102 79.47 44.1602 78.9601 43.5202 78.4301C43.1902 78.1501 42.8702 77.8701 42.5102 77.6201C42.0402 77.2001 41.4902 76.99 40.8602 76.99C41.2302 77.06 41.2202 77.06 40.8402 76.99C37.3802 76.3 37.0702 81.0601 37.8302 83.3301C39.2502 87.5701 43.9502 90.43 47.8102 92.27C51.4202 93.98 55.3602 95.02 59.3302 95.42C63.6802 95.85 68.1302 95.5501 72.4302 94.8601C77.0102 94.1301 81.7402 93.0101 85.9302 90.9601L82.7002 89.0701C82.9802 89.7701 82.7602 89.1901 82.7202 89.0301C82.7902 89.3101 82.8502 89.5901 82.9002 89.8701C82.9402 90.0901 82.9702 90.3201 83.0102 90.5401C83.1302 91.1501 83.0102 89.7801 82.9902 90.3901C82.9902 90.7101 83.2002 91.57 83.0302 91.84C83.0502 91.8 83.1602 90.7701 83.0402 91.6201C83.0002 91.8701 82.9702 92.13 82.9302 92.38C82.8902 92.66 82.6502 93.3 82.9602 92.35C82.9002 92.54 82.8502 92.73 82.7802 92.92C82.7102 93.11 82.6502 93.2901 82.5702 93.4701C82.6402 93.3101 82.9802 92.8 82.5902 93.31C82.1802 93.85 82.6202 93.3601 82.6902 93.2601C82.5802 93.4101 82.4402 93.5401 82.3202 93.6901C81.9902 94.0701 81.6602 94.4501 81.2902 94.7901C81.1902 94.8801 80.2502 95.6001 80.7602 95.2601C80.3402 95.5401 79.8802 95.7701 79.4202 95.9801C78.3302 96.4701 77.1702 96.7601 76.0202 97.0401C73.6502 97.6401 71.2202 98.03 68.8002 98.34C63.6602 99.01 58.4502 99.26 53.2702 99.45C48.6002 99.62 44.1702 99.0601 39.6402 97.9101C37.0702 97.2501 34.4302 96.4601 32.0602 95.2501C30.8602 94.6401 29.6902 93.9701 28.4802 93.3701C27.9602 93.1101 27.4602 92.8501 26.9302 92.6201C26.1802 92.2901 25.7502 92.36 24.9902 92.49C23.6802 92.72 23.5202 94.5001 23.9302 95.5101L23.9702 95.52Z" fill="#1D1D1B"/>
<path d="M93.4501 84.0903C93.2201 86.4003 93.1201 88.7603 93.3601 91.1703C93.4901 92.4703 93.6301 93.7903 93.9201 95.0603C94.2301 96.4003 94.7201 97.7203 95.2201 99.0003C95.5201 99.7603 96.2801 100.76 97.2201 100.66C101.38 100.24 105.5 99.3303 109.54 98.2803C110.41 98.0503 110.96 96.6603 111.03 95.8803C111.29 93.0803 111.23 90.3103 110.67 87.5503C110.38 86.1403 109.97 84.7403 109.47 83.3903C109.03 82.1903 108.53 80.9903 107.67 80.0303C105.86 78.0103 102.77 78.5403 100.36 78.7503C99.1101 78.8603 97.8601 79.0003 96.6101 79.1903C95.2901 79.3903 93.7201 79.4903 92.5301 80.1003C90.3801 81.2003 90.4701 86.2503 93.2501 86.4403C94.3101 86.5103 95.4301 86.1503 96.4801 85.9803C97.5301 85.8103 98.5701 85.6803 99.6201 85.5803C100.67 85.4803 101.74 85.3903 102.8 85.3403C103.31 85.3203 103.83 85.2903 104.34 85.3103C104.41 85.3103 104.92 85.3603 104.65 85.3103C104.77 85.3303 104.89 85.3703 105.01 85.4103C105.16 85.4803 105.16 85.4603 105.01 85.3603L105.19 85.5003C105.01 85.2703 104.98 85.2303 105.09 85.3803C105.56 85.8403 104.98 85.4103 105.09 85.3303C105.06 85.3503 105.63 86.6303 105.68 86.7503C105.77 86.9803 105.85 87.2103 105.93 87.4403C105.95 87.5003 106.21 88.4103 106.04 87.7503C106.16 88.2203 106.29 88.6803 106.39 89.1503C106.5 89.6603 106.59 90.1803 106.67 90.7103C106.72 91.0703 106.82 91.2503 106.69 90.8103C106.76 91.0403 106.74 91.4203 106.75 91.6603C106.78 92.1303 106.79 92.6103 106.78 93.0803C106.78 93.3503 106.8 93.6703 106.75 93.9303C106.85 93.3403 106.75 93.8803 106.72 94.1703L108.21 91.7703C104.59 92.6303 100.79 93.1903 97.0601 93.7403L99.0601 95.4003C98.6501 94.4403 98.3101 93.4703 97.9601 92.4903C97.8001 92.0503 97.6201 91.6103 97.4701 91.1603C97.3901 90.9403 97.3201 90.7203 97.2501 90.5003C97.4201 91.0103 97.1501 90.1503 97.1501 90.1303C96.6201 88.2003 96.3401 86.4603 96.3001 84.5803C96.2801 83.8003 95.9201 82.6003 95.0101 82.4703C94.1001 82.3403 93.5601 83.2903 93.4801 84.0703L93.4501 84.0903Z" fill="#1D1D1B"/>
<path d="M127.24 77.8002C127.01 79.7002 127.02 81.7002 127.27 83.5902C127.44 84.9002 127.73 86.4402 128.8 87.3202C129.31 87.7402 129.83 87.9402 130.48 87.9802C130.98 88.0102 131.5 87.8302 131.97 87.7102C132.8 87.4902 133.63 87.2702 134.47 87.0502C135.31 86.8302 136.19 86.7002 136.91 86.2102C138.31 85.2602 138.54 83.4202 138.56 81.8602C138.57 80.9602 138.5 80.0702 138.36 79.1802C138.19 78.1102 137.8 77.0302 137.21 76.1102C136.53 75.0502 135.21 74.1502 133.92 74.6102L134.43 74.4902H134.3C134.47 74.5302 134.64 74.5602 134.81 74.5902C133.65 74.2302 132.51 74.3702 131.35 74.5902C130.78 74.6902 130.21 74.8302 129.64 74.9502C128.87 75.1102 128.12 75.2502 127.43 75.6502C126.55 76.1602 126.1 77.0502 125.92 78.0302C125.74 79.0102 125.91 80.2402 126.52 81.0402C126.96 81.6102 127.57 82.0502 128.32 81.9502C128.79 81.8902 129.3 81.8002 129.72 81.6002C130.78 81.1002 131.86 80.4402 133 80.1502L132.5 80.2702C133.02 80.1802 133.53 80.1402 134.05 80.2202L133.54 80.1302C133.68 80.1602 133.81 80.1902 133.94 80.2302L133.48 79.9502C133.2 79.6502 133.2 79.6402 133.48 79.9502C133.58 80.0702 133.69 80.1902 133.8 80.2902C133.9 80.3802 134 80.4702 134.09 80.5702L133.65 80.0802C133.78 80.2302 133.89 80.4002 134 80.5702C134.06 80.6602 134.13 80.7602 134.2 80.8502C134.41 81.1502 134 80.5202 134.01 80.4802C134.01 80.5102 134.13 80.7702 134.15 80.8002C134.31 81.1702 134.02 80.3502 134.02 80.3502C134.06 80.5702 134.12 80.7802 134.16 81.0002C134.2 81.2802 134.16 81.6502 134.11 80.5402C134.11 80.6402 134.13 80.7502 134.13 80.8502C134.14 81.0602 134.15 81.2602 134.15 81.4702C134.15 81.6802 134.15 81.8802 134.15 82.0802C134.15 82.4502 134.3 81.1402 134.18 81.6302L134.33 81.0702C134.6 80.5902 134.65 80.4602 134.48 80.7002L134.92 80.1602L134.82 80.2502L135.34 79.9002C135.01 80.1102 134.61 80.1802 134.24 80.2802C133.82 80.3902 133.41 80.5002 132.99 80.6102C132.14 80.8302 131.3 81.0602 130.45 81.2802L131.04 81.1502C130.78 81.2102 130.54 81.2502 130.28 81.2302L130.87 81.3402C130.74 81.3202 130.64 81.2902 130.53 81.2302L131.07 81.5602C131 81.5202 130.94 81.4702 130.88 81.4102L131.34 81.9302C131.1 81.6302 130.9 81.3202 130.71 80.9902C130.43 80.5202 131.18 81.8702 130.67 80.9202C130.59 80.7702 130.44 80.5502 130.37 80.3802C130.4 80.4602 130.62 80.8802 130.47 80.5702C130.42 80.4602 130.36 80.3502 130.31 80.2402C130.27 80.1502 130.23 80.0602 130.19 79.9702C130.11 79.7902 130.11 79.5602 130.19 80.0502C130.16 79.8202 130.07 79.5902 130.02 79.3602C129.97 79.1302 129.92 78.9002 129.89 78.6702C129.87 78.5702 129.86 78.4702 129.84 78.3602C129.76 77.8402 129.88 78.8102 129.83 78.2702C129.76 77.5402 129.52 76.5202 128.66 76.3602C127.86 76.2202 127.36 77.1302 127.28 77.8002H127.24Z" fill="#1D1D1B"/>
<path d="M139.21 77.3C139.57 78.49 139.95 79.68 140.23 80.89C140.36 81.46 140.48 82.02 140.62 82.59C140.91 83.74 141.44 85.1 142.66 85.55C143.5 85.86 144.17 85.67 145 85.46C145.54 85.32 146.07 85.16 146.6 84.98C147.65 84.61 148.66 84.14 149.63 83.59C150.97 82.82 151.49 80.84 151.08 79.4C150.73 78.17 150.39 76.94 150.02 75.72C149.54 74.1 148.86 72.32 147.21 71.57C145.78 70.92 144.27 71.72 142.93 72.22C142.31 72.45 141.68 72.66 141.07 72.89C140.74 73.01 140.44 73.18 140.11 73.3C139.43 73.56 139.03 73.98 138.59 74.55C137.96 75.36 137.93 76.74 138.12 77.69C138.29 78.5 138.77 79.62 139.65 79.9C140.2 80.08 140.66 80.06 141.21 79.88C141.46 79.8 141.69 79.69 141.94 79.62C142.44 79.47 142.91 79.26 143.39 79.06C144.31 78.68 145.25 78.25 146.22 77.99L145.63 78.12C145.88 78.07 146.12 78.04 146.38 78.07L145.79 77.96C145.99 78 146.17 78.07 146.35 78.17L145.81 77.84C145.93 77.93 146.04 78.02 146.14 78.13L145.68 77.61C145.79 77.74 146.09 78.25 145.82 77.74C145.55 77.23 145.82 77.74 145.87 77.89C145.91 77.98 145.94 78.08 145.97 78.17C146.12 78.56 145.83 77.7 145.83 77.71C145.89 77.94 145.96 78.17 146.03 78.4C146.3 79.36 146.58 80.32 146.85 81.28L148.3 77.09C146.78 77.96 145.15 78.61 143.44 79.02L144.03 78.89C143.78 78.95 143.56 78.98 143.31 78.96L143.9 79.07C143.81 79.06 143.72 79.03 143.63 78.98L144.17 79.31C144.01 79.2 143.87 79.07 143.74 78.94L144.19 79.44C143.09 78.19 142.15 76.83 141.21 75.45C140.87 74.96 140.2 74.73 139.73 75.2C139.23 75.7 139.02 76.63 139.22 77.3H139.21Z" fill="#1D1D1B"/>
<path d="M150.16 71.87C149.58 72.67 149.73 73.83 149.8 74.77C149.86 75.62 149.92 76.5 150.12 77.33C150.32 78.16 150.57 79 150.83 79.82C151.2 80.99 152.13 82.23 153.49 82.19C154.11 82.17 154.77 81.94 155.37 81.81C156.06 81.66 156.75 81.51 157.45 81.36C158.25 81.19 159.16 81.12 159.84 80.65C161.3 79.66 161.57 77.39 161.12 75.81C160.67 74.23 160.03 72.56 159.33 71.01C158.99 70.25 158.34 69.33 157.38 69.39C156.31 69.45 155.24 69.51 154.17 69.57C153.58 69.6 152.96 69.59 152.39 69.72C150.96 70.05 150.11 71.73 150.18 73.11C150.22 73.88 150.43 74.65 150.91 75.27C151.25 75.7 151.71 76.16 152.25 76.29C152.9 76.46 153.59 76.35 154.25 76.32C155.35 76.26 156.44 76.2 157.54 76.14L155.59 74.52C156.18 75.83 156.69 77.16 157.13 78.52L156.89 77.72C156.92 77.83 156.95 77.94 156.97 78.06L156.87 77.17V77.28C156.89 76.98 156.91 76.68 156.93 76.38V76.49C156.99 76.22 157.05 75.95 157.12 75.68L157.09 75.78L157.42 75.09L157.36 75.18L157.8 74.64L157.72 74.71L158.24 74.36C158.14 74.42 158.06 74.45 157.95 74.48L158.54 74.35C157.64 74.56 156.73 74.74 155.82 74.94C155.38 75.03 154.95 75.13 154.51 75.22C154.07 75.31 153.64 75.47 153.21 75.45L153.8 75.56C153.73 75.56 153.65 75.53 153.59 75.49L154.13 75.82C154.07 75.78 154.01 75.73 153.97 75.67L154.43 76.19C154.22 75.87 154.04 75.53 153.86 75.2L154.21 75.84C153.77 75.02 153.37 74.2 152.92 73.39C152.88 73.32 152.73 73.04 152.92 73.38C153.11 73.72 152.95 73.43 152.91 73.35C152.83 73.19 152.75 73.03 152.67 72.87C152.4 72.32 152.15 71.48 151.48 71.32C150.89 71.18 150.52 71.4 150.17 71.88L150.16 71.87Z" fill="#1D1D1B"/>
<path d="M185.55 64.9101C185.32 66.8101 185.33 68.8101 185.58 70.7001C185.75 72.0101 186.04 73.5501 187.11 74.4301C187.62 74.8501 188.14 75.0501 188.79 75.0901C189.29 75.1201 189.81 74.9401 190.28 74.8201C191.11 74.6001 191.94 74.3801 192.78 74.1601C193.62 73.9401 194.5 73.8101 195.22 73.3201C196.62 72.3701 196.85 70.5301 196.87 68.9701C196.88 68.0701 196.81 67.1801 196.67 66.2901C196.5 65.2201 196.11 64.1401 195.52 63.2201C194.84 62.1601 193.52 61.2601 192.23 61.7201L192.74 61.6001H192.61C192.78 61.6401 192.95 61.6701 193.12 61.7001C191.96 61.3401 190.82 61.4801 189.66 61.7001C189.09 61.8001 188.52 61.9401 187.95 62.0601C187.18 62.2201 186.43 62.3601 185.74 62.7601C184.86 63.2701 184.41 64.1601 184.23 65.1401C184.05 66.1201 184.22 67.3501 184.83 68.1501C185.27 68.7201 185.88 69.1601 186.63 69.0601C187.1 69.0001 187.61 68.9101 188.03 68.7101C189.09 68.2101 190.17 67.5501 191.31 67.2601L190.81 67.3801C191.33 67.2901 191.84 67.2501 192.36 67.3301L191.85 67.2401C191.99 67.2701 192.12 67.3001 192.25 67.3401L191.79 67.0601C191.51 66.7601 191.51 66.7501 191.79 67.0601C191.89 67.1801 192 67.3001 192.11 67.4001C192.21 67.4901 192.31 67.5801 192.4 67.6801L191.96 67.1901C192.09 67.3401 192.2 67.5101 192.31 67.6801C192.37 67.7701 192.44 67.8701 192.51 67.9601C192.72 68.2601 192.31 67.6301 192.32 67.5901C192.32 67.6201 192.44 67.8801 192.46 67.9101C192.62 68.2801 192.33 67.4601 192.33 67.4601C192.37 67.6801 192.43 67.8901 192.47 68.1101C192.51 68.3901 192.47 68.7601 192.42 67.6501C192.42 67.7501 192.44 67.8601 192.44 67.9601C192.45 68.1701 192.46 68.3701 192.46 68.5801C192.46 68.7901 192.46 68.9901 192.46 69.1901C192.46 69.5601 192.61 68.2501 192.49 68.7401L192.64 68.1801C192.91 67.7001 192.96 67.5701 192.79 67.8101L193.23 67.2701L193.13 67.3601L193.65 67.0101C193.32 67.2201 192.92 67.2901 192.55 67.3901C192.13 67.5001 191.72 67.6101 191.3 67.7201C190.45 67.9401 189.61 68.1701 188.76 68.3901L189.35 68.2601C189.09 68.3201 188.85 68.3601 188.59 68.3401L189.18 68.4501C189.05 68.4301 188.95 68.4001 188.84 68.3401L189.38 68.6701C189.31 68.6301 189.25 68.5801 189.19 68.5201L189.65 69.0401C189.41 68.7401 189.21 68.4301 189.02 68.1001C188.74 67.6301 189.49 68.9801 188.98 68.0301C188.9 67.8801 188.75 67.6601 188.68 67.4901C188.71 67.5701 188.93 67.9901 188.78 67.6801C188.73 67.5701 188.67 67.4601 188.62 67.3501C188.58 67.2601 188.54 67.1701 188.5 67.0801C188.42 66.9001 188.42 66.6701 188.5 67.1601C188.47 66.9301 188.38 66.7001 188.33 66.4701C188.28 66.2401 188.23 66.0101 188.2 65.7801C188.18 65.6801 188.17 65.5801 188.15 65.4701C188.07 64.9501 188.19 65.9201 188.14 65.3801C188.07 64.6501 187.83 63.6301 186.97 63.4701C186.17 63.3301 185.67 64.2401 185.59 64.9101H185.55Z" fill="#1D1D1B"/>
<path d="M197.52 64.4104C197.88 65.6004 198.26 66.7904 198.54 68.0004C198.67 68.5704 198.79 69.1304 198.93 69.7004C199.22 70.8504 199.75 72.2104 200.97 72.6604C201.81 72.9704 202.48 72.7804 203.31 72.5704C203.85 72.4304 204.38 72.2704 204.91 72.0904C205.96 71.7204 206.97 71.2504 207.94 70.7004C209.28 69.9304 209.8 67.9504 209.39 66.5104C209.04 65.2804 208.7 64.0504 208.33 62.8304C207.85 61.2104 207.17 59.4304 205.52 58.6804C204.09 58.0304 202.58 58.8304 201.24 59.3304C200.62 59.5604 199.99 59.7704 199.38 60.0004C199.05 60.1204 198.75 60.2904 198.42 60.4104C197.74 60.6704 197.34 61.0904 196.9 61.6604C196.27 62.4704 196.24 63.8504 196.43 64.8004C196.6 65.6104 197.08 66.7304 197.96 67.0104C198.51 67.1904 198.97 67.1704 199.52 66.9904C199.77 66.9104 200 66.8004 200.25 66.7304C200.75 66.5804 201.22 66.3704 201.7 66.1704C202.62 65.7904 203.56 65.3604 204.53 65.1004L203.94 65.2304C204.19 65.1804 204.43 65.1504 204.69 65.1804L204.1 65.0704C204.3 65.1104 204.48 65.1804 204.66 65.2804L204.12 64.9504C204.24 65.0404 204.35 65.1304 204.45 65.2404L203.99 64.7204C204.1 64.8504 204.4 65.3604 204.13 64.8504C203.86 64.3404 204.13 64.8504 204.18 65.0004C204.22 65.0904 204.25 65.1904 204.28 65.2804C204.43 65.6704 204.14 64.8104 204.14 64.8204C204.2 65.0504 204.27 65.2804 204.34 65.5104C204.61 66.4704 204.89 67.4304 205.16 68.3904L206.61 64.2004C205.09 65.0704 203.46 65.7204 201.75 66.1304L202.34 66.0004C202.09 66.0604 201.87 66.0904 201.62 66.0704L202.21 66.1804C202.12 66.1704 202.03 66.1404 201.94 66.0904L202.48 66.4204C202.32 66.3104 202.18 66.1804 202.05 66.0504L202.5 66.5504C201.4 65.3004 200.46 63.9404 199.52 62.5604C199.18 62.0704 198.51 61.8404 198.04 62.3104C197.54 62.8104 197.33 63.7404 197.53 64.4104H197.52Z" fill="#1D1D1B"/>
<path d="M208.47 58.9803C207.89 59.7803 208.04 60.9403 208.11 61.8803C208.17 62.7303 208.23 63.6103 208.43 64.4403C208.63 65.2703 208.88 66.1103 209.14 66.9303C209.51 68.1003 210.44 69.3404 211.8 69.3004C212.42 69.2804 213.08 69.0503 213.68 68.9203C214.37 68.7703 215.06 68.6203 215.76 68.4703C216.56 68.3003 217.47 68.2303 218.15 67.7603C219.61 66.7703 219.88 64.5003 219.43 62.9203C218.98 61.3403 218.34 59.6703 217.64 58.1203C217.3 57.3603 216.65 56.4403 215.69 56.5003C214.62 56.5603 213.55 56.6203 212.48 56.6803C211.89 56.7103 211.27 56.7003 210.7 56.8303C209.27 57.1603 208.42 58.8403 208.49 60.2203C208.53 60.9903 208.74 61.7603 209.22 62.3803C209.56 62.8103 210.02 63.2703 210.56 63.4003C211.21 63.5703 211.9 63.4603 212.56 63.4303C213.66 63.3703 214.75 63.3103 215.85 63.2503L213.9 61.6303C214.49 62.9403 215 64.2703 215.44 65.6303L215.2 64.8303C215.23 64.9403 215.26 65.0503 215.28 65.1703L215.18 64.2803V64.3903C215.2 64.0903 215.22 63.7903 215.24 63.4903V63.6003C215.3 63.3303 215.36 63.0603 215.43 62.7903L215.4 62.8903L215.73 62.2003L215.67 62.2903L216.11 61.7503L216.03 61.8203L216.55 61.4703C216.45 61.5303 216.37 61.5603 216.26 61.5903L216.85 61.4603C215.95 61.6703 215.04 61.8503 214.13 62.0503C213.69 62.1403 213.26 62.2403 212.82 62.3303C212.38 62.4203 211.95 62.5803 211.52 62.5603L212.11 62.6703C212.04 62.6703 211.96 62.6403 211.9 62.6003L212.44 62.9303C212.38 62.8903 212.32 62.8403 212.28 62.7803L212.74 63.3003C212.53 62.9803 212.35 62.6403 212.17 62.3103L212.52 62.9503C212.08 62.1303 211.68 61.3103 211.23 60.5003C211.19 60.4303 211.04 60.1503 211.23 60.4903C211.42 60.8303 211.26 60.5403 211.22 60.4603C211.14 60.3003 211.06 60.1403 210.98 59.9803C210.71 59.4303 210.46 58.5903 209.79 58.4303C209.2 58.2903 208.83 58.5103 208.48 58.9903L208.47 58.9803Z" fill="#1D1D1B"/>
<path d="M161.9 71.0503C161.72 71.8803 161.83 72.6703 161.94 73.5003C162.01 74.0803 162.11 74.6603 162.22 75.2403C162.55 76.8803 162.89 78.6903 164.11 79.9103C164.67 80.4703 165.52 80.8003 166.32 80.7303C167.03 80.6603 167.75 80.4103 168.44 80.2203C169.64 79.9003 170.84 79.5703 172.04 79.2503C172.63 79.0903 173.16 78.1703 173.33 77.6703C173.6 76.8403 173.69 75.9203 173.49 75.0603C172.91 72.5303 172.13 69.9003 170.9 67.6003C170.4 66.6703 169.53 65.7603 168.37 65.8803C167.62 65.9603 166.88 66.2703 166.16 66.4703C165.58 66.6303 164.99 66.7503 164.4 66.8903C163.56 67.0903 162.79 67.1903 162.15 67.8303L162.68 67.4703C162.59 67.5403 162.48 67.5803 162.37 67.6003C161.76 67.7803 161.28 68.6603 161.08 69.1803C160.8 69.9503 160.73 70.9903 160.92 71.7903C161.09 72.5003 161.38 73.3303 161.99 73.7803C162.54 74.1903 163.04 74.2803 163.71 74.0803L163.87 74.0303L163.28 74.1603H163.44C163.24 74.1203 163.04 74.0803 162.84 74.0503C163.2 74.1503 163.55 74.2303 163.92 74.1603C164.29 74.0903 164.65 73.9803 165.01 73.8503C165.45 73.6903 165.89 73.5303 166.34 73.3703C167.19 73.0603 168.05 72.7803 168.92 72.5303L168.33 72.6603C168.48 72.6303 168.6 72.6103 168.76 72.6203L168.17 72.5103C168.26 72.5203 168.34 72.5503 168.41 72.6003L167.87 72.2703C167.93 72.3103 167.99 72.3603 168.04 72.4203L167.58 71.9003C167.63 71.9603 167.67 72.0303 167.71 72.1003L167.35 71.4303C167.84 72.3803 168.22 73.4103 168.57 74.4203C168.65 74.6603 168.73 74.9103 168.81 75.1503C168.97 75.6603 168.76 75.0103 168.73 74.8603C168.77 75.0103 168.82 75.1603 168.86 75.3003C169.01 75.8403 169.15 76.3903 169.28 76.9403L170.73 72.7503C169.14 73.1803 167.56 73.6403 165.96 74.0303L166.55 73.9003C166.3 73.9503 166.07 73.9803 165.82 73.9603L166.41 74.0703C166.27 74.0403 166.15 74.0103 166.02 73.9503L166.56 74.2803C166.42 74.1903 166.31 74.1003 166.19 73.9803L166.65 74.5003C166.43 74.2303 166.2 73.9703 165.96 73.7203L166.42 74.2303C165.88 73.6203 165.44 72.9003 165.02 72.2003C164.94 72.0603 164.65 71.4703 164.91 72.0303C164.82 71.8303 164.71 71.6403 164.61 71.4503C164.46 71.1603 164.34 70.8503 164.16 70.5703C164.01 70.3303 163.81 70.1403 163.61 69.9503C163.31 69.6603 162.9 69.6803 162.57 69.8903C162.16 70.1503 162.02 70.6103 161.92 71.0603L161.9 71.0503Z" fill="#1D1D1B"/>
<path d="M172.93 69.7704C172.89 70.7504 172.93 71.6804 173.05 72.6604C173.1 73.0504 173.15 73.4404 173.21 73.8304C173.23 73.9404 173.25 74.0504 173.27 74.1604C173.22 73.6104 173.19 73.5004 173.18 73.8204C173.22 74.1704 173.25 74.5204 173.3 74.8604C173.36 75.1904 173.47 75.5104 173.61 75.8104C173.94 76.5404 174.61 77.5304 175.56 77.4304C177.15 77.2604 178.73 76.9504 180.28 76.5404C180.98 76.3504 181.68 76.1404 182.36 75.8904C182.79 75.7404 183.19 75.5704 183.52 75.2304C184.35 74.4104 184.64 73.1104 184.59 71.9904C184.54 70.8704 184.16 69.7504 183.81 68.6804C183.59 68.0104 183.34 67.3504 183.05 66.7104C182.58 65.6904 182.02 64.5404 180.91 64.1004C179.93 63.7104 178.93 64.1204 177.98 64.3904C177.16 64.6304 176.35 64.8604 175.53 65.1004C174.71 65.3404 173.81 65.5104 173 65.8304C172.4 66.0704 171.9 66.8304 171.71 67.4104C171.48 68.1104 171.42 68.8304 171.5 69.5704C171.57 70.2204 171.75 70.9604 172.16 71.4904C172.51 71.9404 173.11 72.5604 173.75 72.4404C174.94 72.2204 176.11 71.7904 177.27 71.4604C178.29 71.1704 179.3 70.8304 180.33 70.5804L179.74 70.7104C179.94 70.6704 180.12 70.6604 180.33 70.6904L179.74 70.5804C179.83 70.6004 179.91 70.6404 179.98 70.6904L179.44 70.3604C179.51 70.4004 179.57 70.4604 179.62 70.5204L179.16 70.0004C179.21 70.0604 179.26 70.1304 179.31 70.2004C179.05 69.7004 178.99 69.5904 179.12 69.8504C179.21 70.0404 179.3 70.2304 179.38 70.4204C179.53 70.7504 179.67 71.0904 179.79 71.4404C179.86 71.6404 179.93 71.8304 180 72.0304C180.08 72.2704 180.18 72.8104 179.94 71.8304C179.99 72.0304 180.05 72.2304 180.1 72.4404C180.42 73.6904 179.65 72.2704 180.35 70.7004L181.12 69.4704L181.05 69.5404L181.57 69.1904C181.06 69.4804 180.41 69.6304 179.85 69.8004C179.23 69.9904 178.61 70.1504 177.97 70.3004L178.56 70.1704C177.51 70.4104 176.44 70.5804 175.37 70.6904L177.32 72.3104C176.91 71.4104 176.49 70.9304 175.65 70.4904L176.14 70.7904C176.68 71.3804 176.1 70.6504 175.98 70.4704C175.84 70.2604 175.7 70.0404 175.57 69.8204C175.31 69.3904 175.02 68.9704 174.78 68.5204C174.54 68.0704 173.96 67.9204 173.54 68.2004C173.03 68.5504 172.91 69.2104 172.89 69.7804L172.93 69.7704Z" fill="#1D1D1B"/>
</g>
<defs>
<clipPath id="clip0_3416_12071">
<rect width="312.31" height="164.16" fill="white"/>
</clipPath>
</defs>
</svg>
