<svg width="233" height="250" viewBox="0 0 233 250" fill="none" xmlns="http://www.w3.org/2000/svg">
<g clip-path="url(#clip0_3416_11938)">
<path d="M212.85 128.68C212.85 129.97 212.83 131.26 212.78 132.55C212.77 132.9 212.75 133.25 212.74 133.6C212.74 133.81 212.68 135 212.74 133.8C212.71 134.49 212.65 135.19 212.59 135.88C212.37 138.51 212.05 141.14 211.63 143.75C211.52 144.42 211.4 145.1 211.28 145.77C211.31 145.62 211.44 144.93 211.29 145.7C211.22 146.03 211.16 146.37 211.09 146.7C210.82 148.03 210.52 149.35 210.2 150.67C209.58 153.18 208.87 155.66 208.06 158.11C208.07 158.07 207.72 159.11 207.89 158.61C208.06 158.11 207.7 159.14 207.72 159.1C207.5 159.73 207.27 160.36 207.04 160.98C206.57 162.23 206.08 163.47 205.56 164.69C204.62 166.93 203.59 169.14 202.49 171.31C200.29 175.64 197.84 179.64 194.84 183.81C183.13 200.07 166.58 212.54 147.75 219.39C128.92 226.24 106.25 227.16 86.19 221.49C67.11 216.1 49.72 204.72 37.03 189.51C33.8 185.64 30.87 181.53 28.25 177.23C25.86 173.3 23.54 168.71 21.63 164.07C21.16 162.94 20.72 161.8 20.29 160.66C20.1 160.14 19.91 159.61 19.72 159.09C19.69 159.01 19.33 157.96 19.59 158.74C19.46 158.37 19.34 158 19.22 157.63C18.44 155.23 17.75 152.79 17.16 150.34C16.87 149.13 16.6 147.92 16.35 146.7C16.28 146.37 16.22 146.03 16.15 145.7C15.92 144.57 16.3 146.57 16.1 145.43C15.98 144.76 15.87 144.08 15.76 143.41C15.35 140.8 15.04 138.17 14.83 135.53C14.8 135.18 14.78 134.84 14.75 134.49C14.75 134.44 14.68 133.3 14.72 134.04C14.76 134.78 14.7 133.64 14.7 133.59C14.68 133.24 14.67 132.89 14.66 132.54C14.61 131.13 14.58 129.72 14.59 128.32C14.59 127.03 14.62 125.74 14.68 124.45C14.69 124.1 14.71 123.75 14.73 123.4C14.73 123.18 14.76 122.51 14.72 123.55C14.75 122.74 14.83 121.93 14.9 121.12C15.13 118.49 15.45 115.86 15.88 113.26C15.97 112.7 16.07 112.14 16.17 111.58C15.99 112.6 16.19 111.47 16.22 111.32C16.27 111.04 16.33 110.76 16.39 110.49C16.65 109.22 16.94 107.95 17.25 106.69C17.87 104.18 18.58 101.7 19.39 99.2504C19.42 99.1704 19.78 98.1204 19.51 98.8904C19.62 98.5704 19.73 98.2604 19.84 97.9404C20.03 97.4204 20.22 96.8904 20.41 96.3704C20.88 95.1204 21.37 93.8804 21.89 92.6604C23.86 87.9804 26.13 83.5704 28.6 79.5604C39.08 62.5704 54.55 48.9904 72.76 40.7804C91.73 32.2304 113.3 29.9504 133.69 34.0304C153.31 37.9604 171.73 48.0404 185.61 62.4704C192.46 69.5904 198.39 77.9004 202.65 86.3404C203.8 88.6104 204.86 90.9204 205.83 93.2804C206.3 94.4104 206.74 95.5504 207.17 96.6904C207.4 97.3204 207.62 97.9504 207.85 98.5804C207.89 98.7004 208.08 99.2504 207.87 98.6204C208.01 99.0404 208.15 99.4704 208.29 99.8904C209.08 102.35 209.78 104.84 210.38 107.35C210.67 108.56 210.94 109.78 211.18 111C211.24 111.28 211.29 111.56 211.34 111.84C211.48 112.52 211.17 110.85 211.36 111.94C211.5 112.73 211.63 113.51 211.75 114.3C212.14 116.8 212.43 119.32 212.63 121.84C212.68 122.42 212.73 123 212.75 123.58C212.7 122.34 212.78 124.34 212.79 124.65C212.84 126 212.87 127.35 212.87 128.7C212.87 129.86 213.11 133.2 214.85 133.2C216.59 133.2 216.83 129.75 216.83 128.7C216.79 106.58 210.19 84.7004 197.41 66.5904C185.51 49.7304 168.5 36.5404 149.12 29.4204C129.74 22.3004 106.35 21.0404 85.55 27.0704C65.51 32.8704 47.62 44.7004 34.41 60.8504C20.76 77.5404 12.55 98.5004 10.97 119.98C9.38999 141.46 14.29 165.08 25.91 184.48C36.49 202.14 52.51 216.53 71.25 225.08C89.99 233.63 113.22 236.6 134.35 232.22C154.88 227.96 173.63 217.41 188.05 202.22C202.47 187.03 212.33 166.53 215.58 145.33C216.42 139.84 216.81 134.27 216.82 128.71C216.82 127.55 216.57 124.21 214.84 124.21C213.11 124.21 212.86 127.66 212.86 128.71L212.85 128.68Z" fill="#1D1D1B"/>
<path d="M64.1 21.3404C61.82 22.6504 59.85 24.3004 57.8 25.9404C55.75 27.5804 53.92 29.0504 51.98 30.6204C48.01 33.8304 44.18 37.1704 40.34 40.5304C32.63 47.2804 24.99 54.1204 17.38 60.9804C13.02 64.9104 8.68999 68.8704 4.36999 72.8504L8.58999 74.4204C8.50999 74.1804 8.42999 73.9404 8.34999 73.7004C8.32999 73.6304 8.12999 73.0304 8.28999 73.5304C8.42999 73.9804 8.08999 72.8204 8.02999 72.6304C7.75999 71.6604 7.51999 70.6804 7.30999 69.6904C7.12999 68.8304 6.95999 67.9604 6.81999 67.0904C6.73999 66.5904 6.65999 66.0904 6.59999 65.6004C6.56999 65.4104 6.54999 65.2204 6.52999 65.0404C6.43999 64.4504 6.60999 65.9004 6.52999 64.9804C6.34999 63.1004 6.23999 61.2204 6.22999 59.3404C6.22999 58.4604 6.22999 57.5904 6.26999 56.7104C6.26999 56.4704 6.33999 55.2404 6.30999 55.8504C6.26999 56.5204 6.31999 55.7204 6.32999 55.5504C6.34999 55.2404 6.37999 54.9304 6.40999 54.6204C6.57999 52.8304 6.81999 51.0504 7.14999 49.2804C7.31999 48.3704 7.49999 47.4704 7.70999 46.5704C7.74999 46.3904 7.79999 46.2104 7.83999 46.0304C7.98999 45.3704 7.63999 46.7804 7.80999 46.1204C7.93999 45.6504 8.05999 45.1804 8.18999 44.7104C8.67999 42.9704 9.24999 41.2504 9.89999 39.5704C10.2 38.7904 10.51 38.0304 10.85 37.2704C11.01 36.8904 11.19 36.5204 11.36 36.1404C11.7 35.4104 11.41 36.0504 11.34 36.1804C11.47 35.9204 11.6 35.6604 11.73 35.4004C12.51 33.8704 13.37 32.3804 14.3 30.9404C14.73 30.2804 15.17 29.6304 15.63 29.0004C15.86 28.6904 16.09 28.3704 16.33 28.0704C16.46 27.9004 16.6 27.7204 16.74 27.5504C16.52 27.8304 16.49 27.8404 16.74 27.5604C17.79 26.3304 18.88 25.1404 20.06 24.0404C20.6 23.5404 21.16 23.0504 21.73 22.5904C22.14 22.2604 22.56 21.9304 22.98 21.6104C23.14 21.4904 23.3 21.3804 23.46 21.2604C23.55 21.2004 24.17 20.7604 23.83 20.9904C30.11 16.7304 37.14 14.9804 44.62 15.3104C53.25 15.6904 61.34 19.2904 68.42 24.0504C70.23 25.2704 72.05 24.1904 72.7 22.2204C73.35 20.2504 73.23 17.1304 71.41 15.6704C58.31 5.18041 38.72 1.85041 23.84 10.4104C9.82999 18.4704 2.34999 34.6104 0.489988 50.1704C-0.680012 59.9704 0.219988 69.8904 3.42999 79.2404C4.02999 80.9704 6.07999 82.2804 7.64999 80.8104C15.15 73.7604 22.7 66.7504 30.37 59.8804C38.04 53.0104 45.73 46.5604 53.23 39.7004C55.34 37.7704 57.46 35.8404 59.59 33.9204C61.72 32.0004 64.1 30.0104 66.05 27.7504C67.1 26.5404 67.38 24.8504 66.89 23.3204C66.56 22.3004 65.45 20.5704 64.11 21.3404H64.1Z" fill="black"/>
<path d="M159.98 26.5602C165.51 31.6002 171.87 35.6502 177.93 40.0002C183.99 44.3502 189.46 48.7302 194.95 53.4502C200.44 58.1702 205.91 63.1302 211.14 68.2202C212.38 69.4302 213.61 70.6502 214.83 71.8702C216.14 73.1902 217.54 74.5802 219.36 75.1602C222.85 76.2802 225.81 74.2002 227.79 71.4602C229.77 68.7202 230.65 65.0302 231.35 61.6402C232.14 57.8102 232.58 53.9502 232.79 50.0502C233.2 42.2002 232.13 34.2302 229.43 26.8302C225.19 15.2002 215.71 4.54022 203.51 1.17022C196.35 -0.809778 188.9 -0.239778 181.93 2.21022C174.96 4.66022 168.37 8.98022 163.62 14.5202C162.01 16.4002 161.52 19.3102 162.58 21.6002C163.39 23.3602 165.45 25.1302 167.26 23.3402C169.4 21.2202 171.61 19.1802 174.06 17.4102C174.84 16.8502 175.99 16.1002 177.23 15.3902C178.6 14.6102 180.01 13.9002 181.45 13.2702C186.75 10.9802 192 9.94022 197.94 10.5402C200.46 10.7902 203.09 11.4902 205.75 12.6202C206.99 13.1502 208.18 13.7602 209.35 14.4302C209.43 14.4802 209.96 14.8102 209.46 14.5002C209.77 14.7002 210.08 14.9002 210.38 15.1002C210.99 15.5102 211.59 15.9502 212.17 16.4002C213.24 17.2302 214.27 18.1202 215.24 19.0602C215.77 19.5802 216.28 20.1202 216.79 20.6502C216.28 20.1202 216.72 20.5702 216.82 20.6802C217.14 21.0602 217.46 21.4402 217.77 21.8202C218.63 22.8902 219.43 24.0002 220.17 25.1402C220.51 25.6602 220.83 26.1902 221.15 26.7302C221.34 27.0502 221.52 27.3802 221.7 27.7002C221.15 26.7002 221.91 28.1302 222 28.3102C222.62 29.5802 223.17 30.8802 223.66 32.2102C223.92 32.9102 224.16 33.6102 224.37 34.3202C224.05 33.2702 224.46 34.6802 224.49 34.7902C224.61 35.2202 224.71 35.6502 224.82 36.0802C225.2 37.6602 225.5 39.2702 225.72 40.8802C225.75 41.0602 225.9 42.5402 225.78 41.2702C225.82 41.7102 225.87 42.1602 225.9 42.6002C225.97 43.4902 226.02 44.3802 226.04 45.2702C226.09 46.9102 226.04 48.5502 226 50.1902C225.95 51.6802 226.1 49.1102 225.98 50.6002C225.95 50.9002 225.93 51.2002 225.91 51.5002C225.82 52.5402 225.7 53.5902 225.56 54.6202C225.34 56.2502 225.06 57.8702 224.73 59.4802C224.58 60.2102 224.45 60.9502 224.25 61.6602C224.63 60.3302 224.28 61.4602 224.2 61.7102C224.09 62.0402 223.98 62.3602 223.85 62.6802C223.77 62.8702 223.26 63.8802 223.78 62.9002C223.62 63.2002 223.46 63.5002 223.28 63.7902C223.14 64.0202 222.93 64.2402 222.81 64.4802C222.57 64.9602 223.43 63.9402 222.74 64.5302C222.51 64.7302 222.29 64.9502 222.05 65.1502C222.68 64.6402 222.01 65.1502 221.82 65.2202C221.65 65.2902 221.46 65.3702 221.28 65.4102C222.05 65.2202 220.88 65.3502 220.68 65.3202C221.31 65.4302 220.19 65.0802 220.17 65.0702C220.58 65.2702 220.06 65.0102 219.99 64.9602C219.36 64.4902 218.81 63.9402 218.25 63.4002C216.97 62.1402 215.69 60.8802 214.39 59.6302C209.52 54.9702 204.51 50.4702 199.29 46.2102C193.38 41.3902 187.27 36.8102 181.08 32.3502C174.89 27.8902 168.55 23.3302 161.38 20.8602C160.15 20.4302 159.31 21.6502 159.05 22.6902C158.73 23.9802 158.94 25.5602 159.97 26.4902L159.98 26.5602Z" fill="black"/>
<path d="M110.6 59.6803C109.45 61.0203 109.03 62.4203 108.9 64.1603C108.82 65.2903 108.73 66.4203 108.65 67.5503C108.47 70.1103 108.47 72.6703 108.42 75.2403C108.32 79.6203 108.11 84.0003 107.86 88.3803C107.8 89.4503 107.74 90.5303 107.67 91.6003C107.65 91.8503 107.64 92.1003 107.62 92.3403C107.58 93.0403 107.64 92.0603 107.64 91.9903C107.6 92.6503 107.55 93.3003 107.51 93.9603C107.37 96.0903 107.21 98.2303 107.05 100.36C106.71 104.8 106.37 109.24 105.98 113.67C105.21 122.36 104.44 131.11 103.13 139.74C103.06 140.18 102.99 140.63 102.91 141.07C102.87 141.3 102.55 142.69 102.78 141.8C103.01 140.91 102.56 142.48 102.47 142.71C102.3 143.18 102.11 143.63 101.92 144.09C101.67 144.71 102.09 143.68 102.11 143.68C102.07 143.68 101.77 144.32 101.71 144.43C101.5 144.8 101.29 145.16 101.06 145.52C100.53 146.36 99.96 147.18 99.37 147.98C96.87 151.35 94.18 154.59 91.58 157.88C88.5 161.77 85.41 165.67 82.33 169.56C79.25 173.45 75.92 177.42 73.03 181.58C71.33 184.02 71.55 187.9 72.9 190.41C73.95 192.37 76.69 194.19 78.63 192C81.84 188.38 84.73 184.48 87.7 180.66C90.45 177.12 93.21 173.59 95.96 170.05C98.71 166.51 101.52 162.93 104.28 159.35C106.85 156.03 109.28 152.48 110.46 148.4C111.78 143.86 112.09 139.12 112.56 134.43C113.03 129.74 113.42 125.36 113.78 120.81C114.53 111.43 115.08 102.04 115.39 92.6403C115.56 87.6003 115.61 82.5603 115.74 77.5303C115.8 75.0503 115.87 72.5703 115.89 70.0903C115.9 68.7703 115.81 67.4503 115.74 66.1303C115.63 64.1403 115.68 61.9703 114.38 60.3303C113.52 59.2303 111.74 58.3303 110.59 59.6803H110.6Z" fill="#1D1D1B"/>
<path d="M62.1 219.68C62.06 219.9 61.93 220.14 61.83 220.33C61.78 220.41 62.15 220.17 62.01 220.2L60 218.53C60.27 219.32 60.67 220.12 61.33 220.67C61.63 220.94 61.98 221.12 62.36 221.21C62.03 220.95 62.03 220.96 62.36 221.22L62.15 212.53C58.5 216.82 55.43 221.59 52.29 226.25C50.78 228.49 49.23 230.68 47.66 232.87C46.9 233.93 46.14 234.98 45.38 236.04C44.31 237.52 43.64 239.19 42.89 240.85C42.03 242.76 42.33 245.96 43.63 247.65C44.72 249.06 46.66 249.9 48.13 248.42C52.08 244.42 54.59 239.09 57.65 234.4C60.71 229.71 63.81 225.22 66.35 220.33C67.15 218.79 67.44 217.14 67.08 215.42C66.84 214.26 66.06 212.25 64.69 211.96C63.98 211.81 63.39 211.67 62.69 211.82C61.38 212.11 60.49 212.89 60.07 214.22C59.91 214.75 59.76 215.29 59.72 215.84L60.72 213.74C59.07 214.88 58.23 217.02 58.38 218.99C58.46 220.03 58.85 221.61 60.09 221.79C61.33 221.97 61.93 220.69 62.12 219.67L62.1 219.68Z" fill="#1D1D1B"/>
<path d="M172.47 215.08C173.92 217.89 176.18 220.27 178.43 222.47C178.96 222.99 179.48 223.52 180 224.06C180.23 224.31 180.46 224.56 180.69 224.81C180.15 224.22 181.01 225.17 181.03 225.2C181.94 226.26 182.83 227.33 183.72 228.41C185.48 230.55 187.08 232.82 188.49 235.2C188.66 235.48 188.82 235.77 188.99 236.06C189.16 236.37 189.83 237.12 189.12 236.28C189.51 236.74 189.75 237.5 190.01 238.04C190.29 238.64 190.56 239.24 190.82 239.85C191.11 240.52 191.39 241.1 191.78 241.75C191.93 242 192.49 242.96 191.9 241.87C192.84 243.61 194.48 245.47 196.57 244.06C198.51 242.74 199.15 239.53 198.54 237.37C198.03 235.53 197.48 233.82 196.6 232.13C195.8 230.58 194.98 229.04 194.07 227.54C192.55 225.03 190.82 222.65 188.9 220.42C186.87 218.07 184.66 216.02 182.16 214.16C180.04 212.59 176.65 210.47 173.88 211.04C172.24 211.38 171.78 213.72 172.47 215.07V215.08Z" fill="#1D1D1B"/>
<path d="M204.32 132.62C204.3 133.23 204.27 133.85 204.24 134.46C204.24 134.61 204.22 134.75 204.22 134.9C204.22 134.93 204.26 134.24 204.24 134.56C204.24 134.63 204.24 134.71 204.23 134.78C204.21 135.08 204.19 135.39 204.17 135.69C204.08 136.87 203.97 138.05 203.84 139.23C203.71 140.41 203.55 141.57 203.38 142.73C203.29 143.29 203.2 143.86 203.11 144.42C203.06 144.7 203.01 144.98 202.96 145.26C202.95 145.33 202.93 145.4 202.92 145.47C202.87 145.72 203.03 144.88 202.97 145.23C202.94 145.4 202.91 145.57 202.87 145.73C202.44 147.98 201.92 150.21 201.31 152.41C201.01 153.52 200.68 154.62 200.34 155.72C200.17 156.27 199.99 156.81 199.81 157.35C199.79 157.42 199.77 157.48 199.74 157.55C199.93 156.99 199.84 157.24 199.8 157.37C199.76 157.49 199.72 157.61 199.68 157.73C199.58 158.02 199.48 158.31 199.37 158.6C197.85 162.84 196 166.97 193.86 170.94C193.59 171.45 193.31 171.95 193.02 172.46C192.99 172.51 192.97 172.56 192.94 172.6C192.79 172.86 193.1 172.32 193 172.5C192.93 172.62 192.86 172.74 192.79 172.86C192.65 173.11 192.5 173.36 192.35 173.61C191.78 174.58 191.19 175.54 190.58 176.48C189.38 178.36 188.1 180.19 186.77 181.98C184.09 185.55 181.15 188.93 177.99 192.08C177.6 192.46 177.21 192.85 176.82 193.22L177.06 192.99C175.04 194.93 172.93 196.78 170.74 198.52C168.55 200.26 166.27 201.92 163.93 203.47C161.59 205.02 159.15 206.47 156.67 207.8C154.19 209.13 151.61 210.36 149 211.47C146.39 212.58 143.71 213.56 141.01 214.43C140.66 214.54 140.32 214.65 139.97 214.76L140.23 214.68C136.84 215.71 133.39 216.55 129.91 217.19C126.43 217.83 122.78 218.29 119.19 218.52C115.6 218.75 111.82 218.79 108.14 218.6C104.46 218.41 100.84 218.02 97.23 217.41C93.62 216.8 90.2 216.01 86.75 215.02C86.33 214.9 85.91 214.77 85.49 214.64L85.75 214.72C83.01 213.88 80.31 212.92 77.66 211.83C75.01 210.74 72.48 209.56 69.98 208.26C67.48 206.96 65.04 205.54 62.68 204.01C60.32 202.48 58.04 200.87 55.83 199.14C53.62 197.41 51.51 195.6 49.47 193.69C49.22 193.46 48.97 193.22 48.73 192.98L48.97 193.21C45.6 189.98 42.47 186.49 39.63 182.79C38.2 180.93 36.84 179.01 35.56 177.04C34.93 176.08 34.32 175.1 33.73 174.12C33.42 173.6 33.12 173.08 32.82 172.56C32.79 172.51 32.77 172.46 32.74 172.42C32.58 172.15 32.93 172.76 32.78 172.49C32.71 172.37 32.65 172.25 32.58 172.13C32.43 171.87 32.29 171.6 32.14 171.34C29.88 167.21 27.94 162.91 26.35 158.48C26.26 158.22 26.16 157.96 26.07 157.7C26.02 157.57 25.98 157.44 25.93 157.31C25.9 157.23 25.88 157.15 25.85 157.07C26.05 157.66 25.94 157.34 25.9 157.21C25.71 156.64 25.52 156.08 25.35 155.51C24.99 154.38 24.66 153.25 24.35 152.11C23.72 149.79 23.18 147.44 22.74 145.07C22.71 144.92 22.67 144.69 22.79 145.36C22.77 145.28 22.76 145.19 22.74 145.11C22.71 144.97 22.69 144.83 22.67 144.69C22.62 144.38 22.56 144.08 22.51 143.77C22.41 143.18 22.32 142.6 22.24 142.01C22.06 140.8 21.91 139.59 21.78 138.37C21.65 137.15 21.55 135.92 21.47 134.69C21.47 134.63 21.47 134.58 21.46 134.52V134.43C21.44 134.2 21.45 134.32 21.47 134.77C21.47 134.63 21.45 134.48 21.45 134.34C21.43 134.02 21.42 133.71 21.4 133.39C21.37 132.77 21.35 132.15 21.34 131.53C21.31 130.3 21.31 129.06 21.34 127.82C21.35 127.19 21.37 126.56 21.39 125.93C21.4 125.62 21.42 125.32 21.43 125.01C21.43 124.86 21.44 124.72 21.45 124.57C21.46 124.35 21.5 123.67 21.45 124.56C21.6 122.11 21.84 119.67 22.19 117.24C22.36 116.02 22.56 114.81 22.78 113.61C22.84 113.27 22.69 114.11 22.73 113.85C22.74 113.78 22.76 113.71 22.77 113.64C22.8 113.5 22.82 113.36 22.85 113.22C22.91 112.91 22.97 112.61 23.03 112.3C23.16 111.69 23.29 111.08 23.42 110.47C23.95 108.14 24.57 105.83 25.28 103.55C25.45 102.99 25.64 102.43 25.82 101.88C25.85 101.79 26.03 101.27 25.9 101.63C25.77 101.99 25.96 101.47 25.99 101.38C26.09 101.09 26.19 100.8 26.3 100.51C26.7 99.4002 27.12 98.2902 27.56 97.2002C28.44 95.0102 29.41 92.8502 30.47 90.7302C31 89.6702 31.55 88.6202 32.11 87.5802C32.24 87.3402 32.38 87.1002 32.51 86.8602C32.58 86.7402 32.64 86.6202 32.71 86.5002C32.73 86.4602 32.87 86.2102 32.73 86.4602C32.59 86.7102 32.77 86.4002 32.79 86.3502C33.08 85.8502 33.37 85.3502 33.66 84.8602C34.87 82.8402 36.16 80.8702 37.52 78.9402C40.22 75.1402 43.2 71.5502 46.44 68.2102C47.23 67.4002 48.03 66.6002 48.85 65.8102L48.61 66.0402C50.63 64.1002 52.74 62.2502 54.93 60.5102C57.12 58.7702 59.4 57.1102 61.74 55.5602C64.08 54.0102 66.52 52.5602 69 51.2302C71.48 49.9002 74.06 48.6702 76.67 47.5602C79.28 46.4502 81.96 45.4702 84.66 44.6002C85.01 44.4902 85.35 44.3802 85.7 44.2702L85.44 44.3502C88.83 43.3202 92.28 42.4802 95.76 41.8402C99.24 41.2002 102.89 40.7402 106.48 40.5102C110.07 40.2802 113.85 40.2402 117.53 40.4302C121.21 40.6202 124.83 41.0102 128.44 41.6202C132.05 42.2302 135.47 43.0202 138.92 44.0102C139.34 44.1302 139.76 44.2602 140.18 44.3902L139.92 44.3102C142.66 45.1502 145.36 46.1102 148.01 47.2002C150.66 48.2902 153.19 49.4702 155.69 50.7702C158.19 52.0702 160.63 53.4902 162.99 55.0202C165.35 56.5502 167.63 58.1602 169.84 59.8902C172.05 61.6202 174.16 63.4302 176.2 65.3402C176.45 65.5702 176.7 65.8102 176.94 66.0502L176.7 65.8202C180.22 69.2002 183.47 72.8402 186.41 76.7302C187.89 78.6802 189.29 80.6902 190.6 82.7502C191.25 83.7602 191.88 84.7902 192.48 85.8302C192.63 86.0902 192.78 86.3502 192.93 86.6102C193.08 86.8702 192.77 86.3302 192.87 86.5102C192.9 86.5702 192.94 86.6302 192.97 86.6902C193.05 86.8302 193.13 86.9802 193.21 87.1202C193.52 87.6702 193.82 88.2202 194.11 88.7802C195.26 90.9402 196.31 93.1502 197.28 95.3902C197.76 96.5002 198.22 97.6302 198.65 98.7602C198.88 99.3502 199.1 99.9502 199.31 100.55C199.4 100.81 199.5 101.07 199.59 101.33C199.64 101.49 199.7 101.64 199.75 101.8C199.77 101.85 199.79 101.9 199.8 101.96C199.59 101.34 199.73 101.76 199.78 101.9C200.57 104.25 201.26 106.63 201.85 109.03C202.14 110.23 202.41 111.43 202.66 112.64C202.72 112.94 202.78 113.25 202.84 113.55C202.87 113.7 202.9 113.85 202.93 114.01C202.98 114.26 202.82 113.42 202.88 113.76C202.9 113.87 202.92 113.98 202.94 114.09C203.05 114.7 203.15 115.31 203.25 115.93C203.65 118.43 203.94 120.95 204.12 123.47C204.14 123.78 204.16 124.1 204.18 124.41C204.18 124.47 204.18 124.52 204.19 124.58C204.21 124.96 204.15 123.94 204.17 124.33C204.17 124.5 204.19 124.67 204.2 124.85C204.23 125.51 204.26 126.18 204.28 126.84C204.32 128.12 204.33 129.39 204.31 130.67C204.31 131.31 204.29 131.96 204.27 132.6C204.25 133.1 204.35 133.73 204.56 134.19C204.66 134.41 204.93 134.88 205.26 134.85C206.14 134.76 206.23 133.21 206.25 132.6C206.42 127.57 206.18 122.51 205.55 117.51C204.92 112.51 203.95 107.83 202.58 103.13C201.21 98.4302 199.55 94.0002 197.52 89.6502C195.49 85.3002 193.17 81.2202 190.54 77.2802C187.91 73.3402 185.12 69.8002 182.01 66.3902C178.9 62.9802 175.41 59.6702 171.77 56.7102C168.13 53.7502 164.34 51.1202 160.34 48.7602C156.34 46.4002 152.07 44.3002 147.71 42.5602C143.35 40.8202 138.59 39.3202 133.88 38.2302C129.17 37.1402 124.26 36.4102 119.38 36.0602C114.5 35.7102 109.5 35.7502 104.57 36.1702C99.64 36.5902 94.99 37.3702 90.31 38.5202C85.63 39.6702 81.12 41.1502 76.71 42.9802C72.3 44.8102 68.23 46.8802 64.23 49.3002C60.23 51.7202 56.49 54.3902 52.93 57.3502C49.37 60.3102 45.93 63.6302 42.8 67.1302C39.67 70.6302 36.91 74.2602 34.39 78.1302C31.87 82.0002 29.5 86.3002 27.54 90.6302C25.58 94.9602 23.91 99.6102 22.63 104.27C21.35 108.93 20.39 113.94 19.85 118.87C19.31 123.8 19.13 129.01 19.38 134.08C19.63 139.15 20.28 144.29 21.34 149.31C22.34 154.04 23.72 158.69 25.44 163.21C27.16 167.73 29.07 171.74 31.36 175.77C33.65 179.8 36.31 183.83 39.24 187.54C42.17 191.25 45.32 194.67 48.73 197.88C52.14 201.09 55.71 203.98 59.52 206.61C63.33 209.24 67.4 211.63 71.59 213.68C75.78 215.73 80.25 217.51 84.77 218.91C89.29 220.31 94.22 221.47 99.06 222.18C103.9 222.89 108.93 223.24 113.88 223.19C118.83 223.14 123.65 222.71 128.46 221.9C133.27 221.09 137.92 219.92 142.51 218.4C147.1 216.88 151.3 215.11 155.48 212.98C159.66 210.85 163.59 208.45 167.37 205.74C171.15 203.03 174.79 199.96 178.17 196.68C181.55 193.4 184.53 190.02 187.32 186.36C190.11 182.7 192.75 178.59 195.02 174.43C197.29 170.27 199.16 166.07 200.73 161.69C202.3 157.31 203.69 152.38 204.59 147.57C205.49 142.76 206.08 137.64 206.25 132.61C206.27 132.11 206.17 131.48 205.96 131.02C205.86 130.8 205.59 130.33 205.26 130.36C204.38 130.45 204.29 132 204.27 132.61L204.32 132.62Z" fill="#1D1D1B"/>
</g>
<defs>
<clipPath id="clip0_3416_11938">
<rect width="232.88" height="249.21" fill="white"/>
</clipPath>
</defs>
</svg>
