<svg width="235" height="289" viewBox="0 0 235 289" fill="none" xmlns="http://www.w3.org/2000/svg">
<g clip-path="url(#clip0_3416_10543)">
<path d="M102 78.2804C95.8201 75.6404 89.1301 73.8504 82.5501 72.5804C70.5101 70.2604 57.3701 69.9904 46.0301 75.3004C40.9501 77.6804 36.5601 81.4204 32.3901 85.1204C28.2201 88.8204 24.0801 92.9904 20.4301 97.3904C12.3101 107.19 6.21006 118.64 2.93006 130.96C-1.24994 146.67 -0.749939 163.32 3.04006 179.05C5.19006 187.95 8.26006 196.69 11.3301 205.31C13.9901 212.77 16.8901 220.15 20.0701 227.4C24.9901 238.62 30.5401 249.67 37.2401 259.94C39.4201 263.28 41.7301 266.54 44.3201 269.57C45.4301 270.86 46.6001 272.09 47.8301 273.26C48.3001 273.7 48.7801 274.13 49.2701 274.55C50.7001 275.76 51.3801 276.4 52.6001 277.65C56.6301 281.78 60.2001 286.41 66.0601 287.86C69.3001 288.66 72.6601 288.28 75.9001 287.7C78.9701 287.15 82.0101 286.47 85.0501 285.79C91.9501 284.24 98.8401 282.6 105.83 281.53C111.66 280.64 117.96 279.87 123.75 281.37C124.2 281.49 123.51 281.28 124.14 281.49C124.44 281.59 124.75 281.69 125.06 281.78C125.89 282.04 126.71 282.29 127.55 282.53C129 282.95 130.47 283.33 131.94 283.68C135.09 284.45 138.26 285.11 141.45 285.73C146.56 286.72 151.7 287.59 156.84 288.35C158.09 288.54 159.1 288.72 160.34 288.55C163.3 288.15 166.23 287.15 168.95 285.94C181.03 280.57 190.35 269.96 197.65 259.27C205.14 248.31 211.57 236.56 217.13 224.52C223.31 211.14 228.5 197.13 231.68 182.72C234.86 168.31 236.2 153.92 233.07 139.76C229.58 123.98 223.32 108.38 214.07 95.0804C207.18 85.1804 197.79 75.4604 185.72 72.4404C178.78 70.7004 171.19 71.5504 164.3 73.1504C157.41 74.7504 150.92 77.3404 144.23 79.4604C143.23 79.7804 141.78 80.1904 140.48 80.5004C139.18 80.8104 137.97 81.0304 136.69 81.1504C134.16 81.3804 131.59 81.0104 129.07 80.8004C122.91 80.2704 116.75 79.6704 110.59 79.0404C107.49 78.7304 104.39 78.4104 101.3 78.0704C100.45 77.9804 99.7401 79.2104 99.4801 79.7804C98.9201 80.9904 98.7001 82.6104 98.7301 83.9204C98.7601 85.5804 99.0001 89.5204 101.3 89.7704C110.5 90.7504 119.7 91.6904 128.92 92.4804C131.4 92.6904 133.95 93.0604 136.45 92.8704C139.16 92.6604 141.79 91.9204 144.38 91.1304C150.67 89.2104 156.78 86.7204 163.18 85.1304C170.1 83.4104 177.66 82.4304 184.71 83.9104C185.31 84.0304 185.89 84.1804 186.48 84.3404C186.97 84.4704 186.32 84.2804 186.81 84.4404C187.15 84.5504 187.48 84.6604 187.82 84.7804C189.06 85.2304 190.28 85.7604 191.46 86.3604C193.9 87.5904 196.19 89.1004 198.34 90.7904C199.54 91.7204 200.69 92.7104 201.8 93.7504C201.92 93.8604 202.04 93.9704 202.15 94.0804C202.55 94.4504 201.84 93.7804 202.24 94.1604C202.47 94.3904 202.71 94.6204 202.94 94.8504C203.53 95.4404 204.1 96.0404 204.67 96.6504C206.93 99.1004 209.02 101.72 210.95 104.43C211.95 105.84 212.92 107.28 213.84 108.75C214.31 109.5 214.78 110.26 215.23 111.02C215.46 111.41 215.69 111.79 215.91 112.18C215.92 112.2 216.24 112.76 216.03 112.4C215.81 112 216.3 112.88 216.34 112.96C218.15 116.24 219.8 119.6 221.29 123.04C222.09 124.88 222.85 126.74 223.56 128.62C223.88 129.47 224.2 130.33 224.51 131.19C224.6 131.46 224.7 131.72 224.79 131.99C224.81 132.05 225.04 132.72 224.87 132.2C224.68 131.64 224.97 132.49 225.01 132.62C225.1 132.89 225.19 133.16 225.28 133.43C226.56 137.35 227.66 141.34 228.57 145.36C228.65 145.7 228.72 146.05 228.79 146.39C228.87 146.8 229 147.99 228.79 146.33C228.88 147.04 229.03 147.74 229.13 148.45C229.34 149.95 229.49 151.45 229.6 152.96C229.7 154.27 229.55 151.84 229.6 152.84C229.61 153.16 229.63 153.48 229.64 153.8C229.67 154.61 229.68 155.42 229.69 156.23C229.69 157.83 229.65 159.43 229.57 161.03C229.52 162.1 229.66 159.75 229.58 160.82C229.55 161.21 229.52 161.61 229.49 162C229.42 162.85 229.34 163.71 229.25 164.56C229.08 166.18 228.87 167.79 228.63 169.4C228.51 170.22 228.38 171.03 228.24 171.85C228.17 172.26 228.09 172.67 228.02 173.08C227.92 173.68 228.11 172.55 228.12 172.56C228.18 172.79 227.99 173.22 227.95 173.44C227.63 175.1 227.27 176.76 226.89 178.4C226.09 181.83 225.17 185.23 224.16 188.59C223.65 190.27 223.12 191.94 222.57 193.61C222.49 193.85 222.41 194.09 222.33 194.33C222.3 194.42 222.09 195.03 222.29 194.45C222.49 193.87 222.28 194.48 222.25 194.57C222.17 194.81 222.09 195.05 222 195.28C221.69 196.17 221.37 197.06 221.05 197.95C218.63 204.61 215.88 211.15 212.88 217.57C211.41 220.71 209.88 223.81 208.28 226.88C207.52 228.34 206.75 229.8 205.96 231.25C205.57 231.96 205.18 232.67 204.79 233.38C204.6 233.73 204.4 234.08 204.2 234.43C204.07 234.66 203.46 235.74 203.88 234.99C200.95 240.1 197.85 245.12 194.5 249.96C190.21 256.17 185.31 262.11 179.76 266.8C175.92 270.05 171.67 272.9 167.03 274.87C166.2 275.22 165.36 275.55 164.51 275.84C164.22 275.94 163.22 276.23 164.04 276C163.69 276.1 163.34 276.2 162.99 276.29C162.03 276.54 161.05 276.74 160.06 276.86C158.8 277.01 157.62 276.74 156.36 276.55C151.21 275.78 146.08 274.91 140.97 273.91C137.85 273.3 134.73 272.64 131.64 271.88C128.55 271.12 126.48 270.35 123.66 269.61C118.04 268.15 111.87 268.91 106.21 269.75C99.3301 270.78 92.5401 272.38 85.7601 273.91C82.7801 274.58 79.8001 275.25 76.7901 275.81C73.6001 276.41 70.3201 276.9 67.0801 276.34C66.7401 276.28 66.4101 276.21 66.0801 276.13C65.9001 276.08 65.7101 276.04 65.5401 275.98C65.6001 276 65.8601 276.08 65.5701 275.98C64.9401 275.76 64.3301 275.5 63.7401 275.19C62.6601 274.62 61.6701 273.92 60.7401 273.13C60.5001 272.93 60.2701 272.72 60.0401 272.51C59.4701 272 60.1801 272.67 59.7701 272.26C59.3001 271.8 58.8401 271.33 58.3901 270.85C57.3701 269.78 56.3701 268.69 55.3401 267.63C53.4901 265.72 51.4801 264 49.5201 262.22C49.1101 261.85 49.6601 262.27 49.7501 262.45C49.6901 262.33 49.5001 262.21 49.4101 262.11C49.1601 261.85 48.9001 261.6 48.6501 261.34C48.1401 260.81 47.6501 260.26 47.1701 259.7C44.6401 256.78 42.3901 253.63 40.2701 250.42C38.9301 248.39 37.6401 246.32 36.4001 244.23C36.0901 243.71 35.7901 243.19 35.4901 242.67C35.3201 242.38 35.1601 242.1 34.9901 241.81C34.7601 241.42 35.1501 242.09 35.1601 242.1C35.0401 241.89 34.9201 241.68 34.8001 241.47C34.0901 240.21 33.3901 238.93 32.7101 237.66C26.0701 225.27 20.5501 212.28 15.7501 199.08C15.0201 197.06 14.3001 195.04 13.6001 193.01C13.5201 192.79 13.0701 191.45 13.3401 192.26C13.1901 191.83 13.0501 191.39 12.9001 190.96C12.5301 189.86 12.1701 188.76 11.8101 187.66C10.4301 183.42 9.06006 179.17 7.94006 174.85C7.43006 172.87 6.97006 170.88 6.58006 168.88C6.53006 168.6 6.46006 168.32 6.42006 168.04C6.42006 168.08 6.59006 169.01 6.49006 168.4C6.41006 167.92 6.32006 167.44 6.24006 166.95C6.07006 165.93 5.93006 164.91 5.79006 163.89C5.55006 162.04 5.39006 160.18 5.24006 158.31C5.18006 157.5 5.30006 159.5 5.26006 158.69C5.26006 158.5 5.24006 158.3 5.23006 158.11C5.21006 157.66 5.19006 157.21 5.18006 156.76C5.15006 155.81 5.14006 154.86 5.14006 153.9C5.14006 153.09 5.16006 152.28 5.18006 151.47C5.19006 151.04 5.21006 150.61 5.23006 150.18C5.24006 149.82 5.32006 149.05 5.20006 150.64C5.22006 150.4 5.23006 150.15 5.25006 149.91C5.37006 148.24 5.54006 146.57 5.76006 144.91C5.87006 144.1 5.99006 143.29 6.13006 142.48C6.17006 142.27 6.41006 140.9 6.24006 141.81C6.07006 142.72 6.37006 141.18 6.41006 140.98C6.73006 139.43 7.10006 137.88 7.52006 136.36C7.73006 135.61 7.94006 134.86 8.17006 134.11C8.28006 133.74 8.40006 133.37 8.52006 133C8.57006 132.84 8.63006 132.69 8.67006 132.53C8.85006 131.91 8.27006 133.66 8.64006 132.62C9.15006 131.19 9.68006 129.76 10.2601 128.36C11.4201 125.57 12.7301 122.85 14.1901 120.22C14.3001 120.02 14.8701 119.06 14.3601 119.91C14.5201 119.64 14.6701 119.37 14.8301 119.1C15.2201 118.43 15.6301 117.77 16.0401 117.12C16.8301 115.87 17.6401 114.64 18.4901 113.43C20.0901 111.14 21.8001 108.93 23.6101 106.79C25.4201 104.65 27.2501 102.65 29.2001 100.69C29.6701 100.22 30.1401 99.7504 30.6101 99.2904C30.7101 99.1904 30.8101 99.0904 30.9101 99.0004C30.8201 99.0904 30.4501 99.4404 30.9101 99.0004C31.1501 98.7804 31.3801 98.5504 31.6201 98.3304C32.5901 97.4204 33.5901 96.5304 34.5901 95.6504C38.7501 92.0304 43.0701 88.4604 48.1501 86.2104C53.6301 83.7904 59.7101 82.8204 65.8201 82.7004C71.9301 82.5804 77.4301 83.2304 83.1101 84.3604C85.5801 84.8504 88.0201 85.4304 90.4501 86.1004C90.9801 86.2504 91.5101 86.3904 92.0301 86.5504C92.2801 86.6204 92.5301 86.7004 92.7801 86.7704C92.8901 86.8004 92.9901 86.8304 93.1001 86.8604C93.5001 86.9804 92.4701 86.6604 93.1301 86.8704C94.0001 87.1404 94.8601 87.4204 95.7201 87.7104C97.3701 88.2704 99.0201 88.8504 100.62 89.5304C102.79 90.4604 103.63 86.9404 103.79 85.4404C103.95 83.9404 103.95 82.3704 103.53 80.9304C103.28 80.0704 102.9 78.6304 101.99 78.2404L102 78.2804Z" fill="#0D0802"/>
<path d="M71.7601 34.2104C69.7601 38.8504 67.6101 43.4305 65.3201 47.9305C67.9301 47.6305 70.4101 48.9805 72.6901 50.2905C76.1501 52.2805 79.6201 54.2605 83.0801 56.2505C86.4201 58.1705 89.8001 60.1104 92.5901 62.7604C97.4201 67.3404 100.15 73.6605 102.74 79.8005C103.02 80.4705 102.41 81.6604 102.05 81.0304" fill="#0D0802"/>
<path d="M70.2601 32.0403C68.9501 34.1503 68.0801 36.5103 67.0001 38.7403C65.9201 40.9703 64.7801 43.2403 63.6001 45.4503C62.9601 46.6503 62.7901 48.0503 63.2101 49.3603C63.5201 50.3203 64.2201 51.5303 65.4001 51.5003C67.3401 51.4403 69.0601 52.3003 70.7001 53.2803C72.6801 54.4703 74.6101 55.7203 76.5801 56.9203C80.3701 59.2303 84.3301 61.3903 87.9401 64.0003C91.2401 66.3803 93.4501 68.9003 95.5201 72.3703C95.7701 72.7903 96.0101 73.2103 96.2501 73.6403C95.9701 73.1303 96.5701 74.2603 96.6301 74.3803C97.0701 75.2503 97.4901 76.1403 97.9001 77.0303C98.3101 77.9203 98.7001 78.8203 99.0801 79.7303C99.2701 80.1803 99.4601 80.6303 99.6501 81.0803C99.7601 81.3403 99.8601 81.6003 99.9701 81.8503C99.3901 80.1003 99.6401 78.5803 100.7 77.3003L102.2 76.6403H102.06C102.57 76.8403 103.07 77.0403 103.58 77.2303L103.44 77.1303C101.91 76.0703 100.44 76.7803 99.6801 78.3803C98.7701 80.2903 99.0401 82.4403 100.05 84.2503C100.63 85.2803 101.79 85.9903 102.96 85.6603C104.48 85.2203 105.26 83.7503 105.62 82.3003C106.34 79.4403 105.22 77.0503 104.09 74.5003C102.49 70.9003 100.74 67.3003 98.4801 64.0603C96.2201 60.8203 93.2101 57.8503 89.7801 55.6003C86.1701 53.2303 82.3101 51.2703 78.5001 49.2303C76.3801 48.0903 74.2701 46.9203 72.1101 45.8803C69.9501 44.8403 67.6201 44.0703 65.2201 44.3803L67.0301 50.4303C68.2201 47.9803 69.4001 45.5203 70.5301 43.0403C71.6601 40.5603 72.8401 38.2803 73.5601 35.7603C73.9301 34.4603 73.9301 32.7903 72.9301 31.7503C72.0801 30.8603 70.9201 30.9803 70.2501 32.0603L70.2601 32.0403Z" fill="#1D1D1B"/>
<path d="M69.9901 36.4502C69.6801 34.6402 71.9901 33.3302 73.7701 33.7502C75.5601 34.1702 76.8901 35.6002 78.2801 36.7902C82.0201 39.9802 86.7701 41.7302 90.7801 44.5802C96.4001 48.5702 100.29 54.5002 103.86 60.4002C107.36 66.1802 110.69 72.0602 113.84 78.0302" fill="#0D0802"/>
<path d="M71.4501 37.7001C71.4201 37.7901 70.8101 38.4101 71.2601 38.0801C71.4301 37.9601 71.5001 37.8301 71.6501 37.6701C71.9601 37.3401 71.7201 37.5001 72.0101 37.3301C72.6801 36.9601 73.3001 36.9901 73.9901 37.2601C75.6701 37.9201 76.9401 39.6101 78.3701 40.6801C81.7001 43.1901 85.5501 44.8901 88.9601 47.2701C95.7201 52.0001 99.7901 59.5501 103.83 66.5401C106.48 71.1301 108.95 75.6601 111.36 80.3401C112.29 82.1401 114.07 83.4101 115.71 81.4901C117.35 79.5701 116.92 76.7901 115.84 74.8001C113.29 70.0901 110.63 65.4401 107.86 60.8601C105.38 56.7601 102.89 52.6401 99.8501 48.9301C96.8101 45.2201 93.3701 42.1101 89.2001 39.7101C87.2001 38.5601 85.1101 37.5901 83.1001 36.4501C81.0901 35.3101 79.5301 33.9401 77.8301 32.5101C75.9101 30.9001 73.4501 29.6001 70.9601 30.7301C68.0301 32.0601 67.3001 35.5801 68.8501 38.2501C69.6101 39.5601 71.0701 38.8201 71.4501 37.6701V37.7001Z" fill="#1D1D1B"/>
<path d="M111.44 70.8699C112.88 69.9399 114.09 68.7799 115.1 67.3899C115.88 66.3299 116.68 65.2799 117.51 64.2599L116.83 65.0999C117.17 64.6799 117.51 64.2699 117.86 63.8499L112.94 56.7499C112.5 57.8999 112.01 59.0299 111.48 60.1499L112 59.0599C110.76 61.6399 109.28 64.0699 107.62 66.3999L112.82 73.9099C114.07 71.7999 115.31 69.6799 116.56 67.5699C117.81 65.4599 117.82 62.6099 116.66 60.4799C116.26 59.7399 115.63 58.8499 114.77 58.5899C113.86 58.3099 112.71 58.4099 112.05 59.1999C110.99 60.4799 109.94 61.7499 108.88 63.0299C108.45 63.4299 108.13 63.8999 107.92 64.4399C107.6 65.0099 107.41 65.6299 107.33 66.2899C107.13 67.5699 107.24 69.2399 107.79 70.4399C108.23 71.3899 108.89 72.5399 109.97 72.8699C110.88 73.1499 112.03 73.0499 112.69 72.2599C113.75 70.9799 114.8 69.7099 115.86 68.4299L111.36 60.0599C110.11 62.1699 108.87 64.2899 107.62 66.3999C106.95 67.5399 106.64 68.9199 106.68 70.2399C106.71 71.4499 107.05 73.0399 107.81 74.0299C108.41 74.8099 109.28 75.6499 110.36 75.5499C111.44 75.4499 112.2 74.7899 112.83 73.9099C115.44 70.2499 117.51 66.1399 119.07 61.9299C119.47 60.8599 119.53 59.6799 119.4 58.5599C119.28 57.5399 119.01 56.3899 118.37 55.5499C117.95 54.9999 117.45 54.5199 116.81 54.2299C116.03 53.8799 114.71 54.1499 114.15 54.8299C112.96 56.2999 111.78 57.7799 110.67 59.3099C109.56 60.8399 108.58 62.6999 108.06 64.5699C107.61 66.1899 107.58 67.8699 108.4 69.3899C108.69 69.9399 109.04 70.3799 109.57 70.6999C110.07 71.0099 110.88 71.2299 111.43 70.8699H111.44Z" fill="#1D1D1B"/>
<path d="M116.97 62.1501C117.87 58.4801 118.22 54.7301 119.04 51.0401C119.78 47.6901 120.73 44.1101 122.01 40.7201C123.29 37.3301 124.91 34.2601 127.15 31.3001C129.39 28.3401 132.17 25.7801 134.96 23.3501C140.84 18.2401 146.84 12.9801 154.64 11.2001C162.44 9.42012 170.54 9.41012 178.35 10.1801C187.22 11.0601 196.05 13.4501 204.25 17.0701L202.49 8.24012C198.4 14.3201 194.28 20.3801 189.82 26.2001C189.27 26.9101 188.72 27.6201 188.17 28.3301C187.91 28.6601 187.66 28.9801 187.4 29.3001C187.1 29.6801 187.38 29.3201 187.44 29.2501C187.22 29.5201 187 29.7801 186.79 30.0501C185.65 31.4301 184.49 32.7901 183.31 34.1301C180.9 36.8401 178.38 39.4401 175.72 41.9001C170.21 46.9801 164.87 51.0201 158.09 54.0801C154.4 55.7501 151.02 56.6401 146.97 56.7501C142.67 56.8701 138.41 56.2201 134.14 55.7601C129.49 55.2601 124.75 54.9001 120.08 55.0401C115.99 55.1601 111.95 56.3001 109.74 60.0201C108.5 62.1101 108.39 65.4201 109.92 67.4101C111.36 69.2901 113.43 69.2701 114.77 67.2901C115.2 66.6601 114.32 67.5901 114.91 67.1401C115.07 67.0201 115.24 66.8701 115.39 66.7401C115.32 66.8001 114.86 67.0101 115.23 66.8601C115.95 66.5701 116.58 66.2001 117.34 65.9801C117.74 65.8601 117.31 65.9801 117.24 66.0001C117.41 65.9701 117.58 65.9401 117.75 65.9101C118.09 65.8601 118.44 65.8101 118.78 65.7801C119.58 65.7001 120.38 65.6801 121.19 65.6801C125.44 65.6801 129.7 65.9401 133.92 66.3901C138.14 66.8401 142.45 67.5201 146.75 67.4701C151.05 67.4201 155.12 66.5201 159 64.9101C165.96 62.0401 172.36 57.3801 177.97 52.4101C183.58 47.4401 188.54 41.7901 193.19 35.9001C198.33 29.3801 203 22.5101 207.62 15.6201C209.28 13.1401 208.89 8.12012 205.86 6.79012C190.15 -0.0798812 172.13 -1.90988 155.44 2.10012C151.29 3.10012 147.56 4.75012 143.98 7.07012C140.4 9.39012 137.15 12.1101 133.92 14.8701C130.69 17.6301 127.78 20.2901 125.18 23.4501C122.42 26.8001 120.23 30.4401 118.54 34.4401C116.75 38.6501 115.57 43.1101 114.83 47.6101C114.09 52.1101 113.34 56.8101 113.26 61.4801C113.24 62.5001 113.79 64.0801 114.96 64.2501C116.21 64.4301 116.73 63.1501 116.97 62.1501Z" fill="#0D0802"/>
<path d="M118.24 62.4801C120.87 59.5101 123.07 56.1601 125.7 53.1801C128.33 50.2001 131.07 47.2801 133.9 44.4801C136.73 41.6801 139.52 38.9601 142.48 36.3501C145.27 33.9001 147.89 31.7001 151.34 30.3201C155.53 28.6501 160.18 29.0101 164.59 29.2901C166.88 29.4301 167.81 25.9801 167.71 24.2701C167.6 22.2901 166.73 19.5101 164.34 19.4101C159.92 19.2201 155.51 19.1401 151.23 20.4501C147.4 21.6201 144.03 24.0601 141.04 26.6601C134.59 32.2601 128.86 38.8601 123.76 45.6801C122.34 47.5701 120.97 49.5001 119.6 51.4301C118.23 53.3601 116.7 55.4001 115.56 57.5501C114.89 58.8201 114.77 60.4601 115.5 61.7401C116.02 62.6501 117.29 63.5501 118.22 62.4901L118.24 62.4801Z" fill="#0D0802"/>
<path d="M173.62 106.15C175.45 107.18 177.37 108.5 179.14 109.92C179.99 110.6 180.83 111.31 181.63 112.05C182.06 112.44 182.49 112.84 182.89 113.26C183.12 113.5 183.34 113.74 183.56 113.99C183.22 113.6 183.68 114.13 183.8 114.27C185.38 116.12 186.78 118.08 188.17 120.07C188.8 120.98 189.41 121.91 189.99 122.85C190.3 123.35 190.6 123.86 190.89 124.37C191.02 124.6 191.15 124.83 191.28 125.05C191.94 126.21 190.79 124.1 191.4 125.27C192.47 127.34 193.47 129.46 194.35 131.62C194.79 132.69 195.2 133.78 195.58 134.88C195.77 135.41 195.94 135.95 196.11 136.49C196.58 137.91 195.89 135.68 196.14 136.58C196.26 137.02 196.39 137.46 196.51 137.91C197.23 140.57 197.79 143.27 198.21 145.99C198.31 146.67 198.41 147.35 198.5 148.04C198.54 148.34 198.59 148.65 198.61 148.95C198.5 147.42 198.54 148.31 198.57 148.65C198.72 150.17 198.86 151.7 198.94 153.22C199.11 156.28 199.12 159.36 199 162.42C198.97 163.18 198.97 163.96 198.89 164.72C199.06 163.13 198.92 164.24 198.89 164.64C198.86 165.02 198.83 165.41 198.8 165.79C198.66 167.47 198.47 169.15 198.26 170.82C198.05 172.49 198.16 174.18 198.8 175.7C199.24 176.74 200.18 178.19 201.36 178.55C204.2 179.42 206.07 176.45 206.37 173.99C209.22 151.01 206.37 124.37 188.77 107.51C184.66 103.57 180.04 100.11 174.95 97.5399C173.07 96.5899 171.63 99.2699 171.44 100.73C171.17 102.81 171.69 105.05 173.61 106.14L173.62 106.15Z" fill="#0D0802"/>
<path d="M162.44 20.39C152.35 23.12 143.31 28.75 136.28 36.48C134.93 37.97 134.66 40.13 135.23 42.02C135.62 43.31 137.04 45.44 138.71 44.49C149.43 38.4 160.28 32.54 171.33 27.07L168.85 18.9C162.08 24.89 155.3 30.86 148.51 36.83C147 38.16 146.89 40.77 147.43 42.55C147.82 43.85 149.32 46.13 151.02 45.1C159.98 39.69 168.94 34.28 177.91 28.88C179.81 27.73 180.42 25.14 179.92 23.06C179.56 21.59 178.07 18.74 176.05 19.88C164.3 26.51 153.17 34.31 142.95 43.12C141.29 44.55 141.19 47.44 141.77 49.35C142.21 50.8 143.81 53.2 145.69 52.13C159.08 44.48 172.54 36.68 186.98 31.16L184.16 21.86C175.59 28.1 167.01 34.35 158.44 40.59C157.38 41.36 156.24 42.09 155.22 42.93C153.04 44.73 152.77 48.05 153.77 50.59C154.91 53.48 157.43 54.31 160.22 53.5C165.27 52.04 170.23 50.18 175.22 48.52L172.35 39.06C170.94 40.37 169.47 41.61 167.93 42.76C166.39 43.91 165.5 44.5 163.77 45.52C160.52 47.44 157.07 49.02 153.49 50.23C152.64 50.52 151.79 50.78 150.93 51.03C150.19 51.24 149.04 51.54 148.65 51.62C147.78 51.81 146.9 51.98 146.02 52.13C145.55 52.21 145.07 52.28 144.59 52.35C144.39 52.38 144.18 52.38 143.98 52.42C143.44 52.53 143.73 52.3 143.82 52.6C143.92 52.93 144.51 53.42 144.67 53.76C144.68 53.78 144.87 54.74 144.81 54.22C144.65 52.88 144.77 54.99 144.77 54.02C144.77 53.85 144.77 53.67 144.77 53.5C144.72 52.94 144.74 53.99 144.73 54.03C144.84 53.78 144.97 52.96 144.95 52.68C144.95 52.73 144.66 53.59 144.87 53.1C144.96 52.89 145.02 52.66 145.1 52.45C145.16 52.28 145.61 51.38 145.34 51.86C145.05 52.37 145.67 51.3 145.77 51.14C146.02 50.73 146.29 50.33 146.58 49.94C146.69 49.79 146.8 49.65 146.91 49.5C147.3 48.99 146.53 49.94 146.96 49.45C147.29 49.07 147.63 48.69 147.98 48.33C148.65 47.64 149.35 46.98 150.07 46.35C151.6 45.01 153.23 43.8 154.9 42.63C155.69 42.08 156.22 40.49 156.33 39.61C156.47 38.51 156.41 37.43 156.09 36.37C155.67 34.98 154 32.42 152.16 33.58C146.77 36.97 141.1 40 135.59 43.19L138.34 52.26C142.45 47.69 146.95 43.5 151.8 39.71C153.52 38.36 153.56 35.26 153 33.4C152.53 31.84 150.99 29.62 149.04 30.59C140.9 34.61 132.95 39.01 125.21 43.75C123.55 44.77 122.78 46.78 122.89 48.7C122.94 49.57 123.1 50.43 123.41 51.25C123.69 51.99 124.57 53.35 125.46 53.53C137.32 55.94 149.24 55.67 160.98 52.74C161.86 52.52 162.67 51.1 162.92 50.35C163.27 49.29 163.36 48.21 163.24 47.1C163.05 45.41 162.02 42.62 159.85 42.77C154 43.17 148.19 44.47 142.73 46.59L144.75 56.35C157.67 50.58 171.21 44.31 181.02 33.8C183.84 30.77 186.36 27.44 188.37 23.81C189.49 21.78 189.57 19.19 188.47 17.14C187.52 15.38 185.84 14.65 184.14 15.94C175.73 22.31 167.66 29.12 159.96 36.34C158.22 37.97 157.97 41.21 158.94 43.3C159.84 45.26 161.61 46.51 163.54 45.01C170.97 39.22 178.4 33.42 185.83 27.63L182.26 18.97C176.78 23.79 171.3 28.61 165.81 33.43C164.12 34.92 164 37.83 164.6 39.81C165.02 41.2 166.75 43.88 168.61 42.66C176.9 37.24 184.42 30.82 190.91 23.31C192.45 21.53 192.81 19.13 192.13 16.89C191.6 15.13 190.16 13.26 188.1 14.03C181.1 16.62 174.39 19.94 168.08 23.92L170.13 33.84C176.01 29.98 182.13 26.51 188.48 23.47L185.59 13.94C183.95 15.94 182.66 18.04 181.9 20.54C181.14 23.04 181.42 26.85 184.16 28.23C185.91 29.11 187.89 29.51 189.85 29.47L187.18 20.54C185.91 22.48 184.57 24.37 183.16 26.2C182.4 27.19 182.49 27.08 181.66 28.07C180.92 28.96 180.15 29.83 179.38 30.69C176.36 34.02 173.09 37.09 169.6 39.93L173.9 47.93C178.58 41.82 183.28 35.72 187.99 29.63C190.11 26.88 191.6 24.96 193.95 22.36C196.3 19.76 198.69 17.49 201.42 15.45C202.95 14.31 203.23 11.33 202.82 9.64003C202.44 8.08003 201.41 5.89003 199.49 5.97003C178.27 6.81003 155.22 8.43004 138.65 23.37C134.58 27.04 131.09 31.46 128.66 36.39C127.61 38.52 127.4 40.98 128.56 43.14C129.37 44.64 131.45 46.02 132.94 44.36C138.86 37.72 144.98 31.26 151.3 25C152.74 23.58 153.18 21.05 152.72 19.13C152.53 18.34 152.24 17.56 151.79 16.87C151.39 16.25 150.23 15.22 149.36 15.42C140.41 17.47 132.23 21.85 125.65 28.31C122.41 31.5 119.53 35.15 117.26 39.09C114.4 44.06 110.53 51.35 114.26 56.8C115.86 59.13 118.96 59.8 121.38 58.37C124.03 56.8 125.09 53.88 125.93 51.08C126.55 49.01 127.31 46.99 128.2 45.03C128.26 44.89 128.59 44.19 128.32 44.75C128.01 45.41 128.52 44.35 128.54 44.32C128.75 43.89 128.98 43.47 129.2 43.05C129.71 42.1 130.25 41.17 130.82 40.26C131.39 39.35 131.98 38.45 132.61 37.57C132.89 37.18 133.17 36.79 133.46 36.41C133.6 36.22 133.75 36.03 133.9 35.84C134.06 35.63 134.58 34.98 134.12 35.55C135.48 33.87 136.95 32.28 138.5 30.78C140.05 29.28 141.7 27.86 143.41 26.55C145.31 25.09 146.07 24.58 148.14 23.36C152.26 20.91 156.7 18.99 161.33 17.71C163.43 17.13 165.31 16.75 167.83 16.44C170.35 16.13 172.73 16.03 175.19 16.1L174.07 6.24003C161.56 11.8 147.54 18.96 143.27 33.06C142.71 34.9 142.74 36.91 143.66 38.63C144.24 39.71 145.78 41.2 147.17 40.34C161.99 31.12 177.54 21.4 194.97 18.5L193.84 8.60003C181.81 13.73 169.78 18.85 157.76 23.98L159.77 33.73C170.66 29.02 180.86 22.76 190.05 15.26C191.78 13.85 191.85 10.78 191.26 8.86003C190.78 7.27003 189.22 5.03003 187.24 6.00003C180.91 9.11003 174.75 12.54 168.77 16.29L171.59 25.57C175.04 22.97 178.48 20.37 181.93 17.76C184.87 15.54 183.65 7.18003 179.11 8.46003C172.63 10.3 166.44 13.03 160.74 16.62L163.6 26.05C167.31 22.22 171.27 19.74 176.41 18.01L174.32 7.88003C170.41 9.58003 166.77 11.8 163.4 14.41C160.5 16.65 161.63 25.76 166.33 24.06C171.32 22.26 176.31 20.45 181.3 18.65L179.18 8.39003C171.61 13.42 164.05 18.45 156.48 23.48C154.34 24.9 153.57 27.69 154.17 30.17C154.65 32.17 156.17 34.78 158.62 33.83C164.75 31.45 171 29.39 177.35 27.66L174.36 17.81C168.39 22.52 162.42 27.24 156.44 31.95C154.82 33.22 154.5 36.31 154.94 38.16C155.3 39.64 156.5 42.42 158.5 42.09C162.64 41.39 166.64 40.17 170.38 38.25C174.36 36.2 173.46 25.89 168.19 27.63C166.95 28.04 165.71 28.44 164.48 28.85C163.47 29.19 162.69 30.55 162.36 31.46C161.9 32.73 161.78 34.44 162.1 35.75C162.62 37.91 164.13 40.39 166.69 39.52C167.93 39.1 169.16 38.67 170.39 38.25L168.2 27.63C165.03 29.32 161.56 30.59 158.24 31.17L160.3 41.31C166.26 36.57 172.23 31.84 178.19 27.1C181.23 24.68 180.06 15.92 175.2 17.25C168.85 19 162.61 21.08 156.48 23.48L158.62 33.83C166.18 28.77 173.74 23.71 181.3 18.65C183.42 17.23 184.18 14.48 183.59 12.02C183.1 10 181.63 7.50003 179.18 8.39003C174.19 10.21 169.21 12.03 164.22 13.85L167.15 23.5C169.97 21.31 172.94 19.55 176.41 18C180.38 16.23 179.23 6.17003 174.32 7.87003C168.89 9.76003 163.9 12.99 159.93 17.15C158.3 18.85 158.03 21.49 158.69 23.67C159.13 25.11 160.88 27.81 162.79 26.58C168.47 22.93 174.64 20.13 181.13 18.28L178.31 8.98003C174.87 11.59 171.42 14.19 167.98 16.8C166.21 18.14 166.2 21.36 166.76 23.22C167.19 24.65 168.9 27.27 170.79 26.08C176.76 22.32 182.92 18.88 189.25 15.76L186.44 6.50003C177.72 13.64 168.17 19.42 157.74 23.95C155.57 24.89 155.07 28.22 155.57 30.25C156.01 32.06 157.48 34.67 159.76 33.7C171.78 28.56 183.81 23.41 195.83 18.27C197.84 17.41 198.28 14.54 198.07 12.67C197.9 11.15 196.82 8.02003 194.7 8.37003C176.46 11.42 160.6 21.04 145.16 30.68L149.06 37.96C149.3 37.17 149.56 36.4 149.87 35.64C150 35.32 150.14 35 150.29 34.69C149.82 35.73 150.48 34.37 150.58 34.18C151.3 32.88 152.13 31.64 153.06 30.49C152.5 31.18 153.24 30.3 153.3 30.23C153.57 29.93 153.84 29.63 154.11 29.34C154.63 28.79 155.17 28.26 155.72 27.75C156.89 26.67 158.13 25.66 159.41 24.72C159.75 24.47 160.09 24.23 160.43 23.99C161.03 23.57 160.17 24.14 160.85 23.71C161.56 23.25 162.28 22.79 163 22.36C164.36 21.54 165.75 20.77 167.16 20.04C170.06 18.53 173.04 17.19 176.04 15.88C179.5 14.37 179.15 6.17003 174.92 6.02003C158.47 5.45003 142.1 13.19 131.35 25.52C128.6 28.67 126.12 32.07 124.14 35.75C122.02 39.7 120.56 43.79 119.2 48.04C119.13 48.26 118.81 48.75 119.23 48.06C119.09 48.28 118.98 48.53 118.81 48.73C119.11 48.37 118.73 48.54 118.74 48.69C118.74 48.66 119.48 48.18 118.76 48.61C118.59 48.71 118.15 48.73 118.79 48.65C118.59 48.67 118.4 48.67 118.19 48.68C118.45 48.67 118.7 48.97 118.26 48.67C118.96 49.15 118.98 49.51 119.24 50.41C119.55 51.46 119.48 51.5 119.48 52.4C119.48 53 119.52 52.29 119.6 52.08C119.76 51.61 119.94 51.15 120.13 50.7C120.32 50.25 120.5 49.8 120.7 49.35C120.8 49.13 120.9 48.91 121 48.68C121.23 48.17 120.65 49.37 121.05 48.59C122 46.74 123.03 44.95 124.21 43.23C124.76 42.42 125.35 41.64 125.94 40.87C126.03 40.75 126.44 40.26 125.96 40.84C126.12 40.65 126.27 40.46 126.43 40.28C126.79 39.86 127.15 39.45 127.52 39.04C129.08 37.32 130.77 35.72 132.57 34.25C133.47 33.51 134.4 32.82 135.34 32.14C135.42 32.09 135.93 31.74 135.45 32.06C135.7 31.89 135.96 31.72 136.22 31.56C136.68 31.26 137.15 30.97 137.62 30.69C141.62 28.32 145.96 26.58 150.49 25.53L147.65 16.15C141.34 22.43 135.23 28.91 129.32 35.57L133.6 43.53C134.6 41.49 135.76 39.55 137.1 37.72C137.4 37.32 137.7 36.92 138.01 36.52C137.55 37.1 138.06 36.46 138.18 36.32C138.34 36.13 138.51 35.94 138.67 35.75C139.46 34.85 140.28 33.99 141.14 33.16C142.73 31.62 144.43 30.2 146.22 28.9C147.68 27.84 149.56 26.65 151.57 25.56C160.54 20.69 170.54 18.47 180.62 17.39C186.97 16.71 193.35 16.44 199.72 16.2L197.79 6.72003C192.09 10.98 187.63 16.59 183.3 22.18C178.5 28.37 173.72 34.58 168.91 40.77C167.53 42.55 167.82 45.71 168.81 47.55C169.8 49.39 171.51 50.13 173.21 48.77C180.59 42.86 187 35.76 192.23 27.89C193.31 26.27 193.35 23.9 192.8 22.12C192.36 20.68 191.29 18.94 189.56 18.96C188.14 18.98 187.06 18.7 185.72 18.04L187.98 25.73C188.1 25.33 188.23 24.95 188.37 24.56C188.78 23.39 187.93 25.22 188.55 24.15C188.96 23.43 189.42 22.76 189.94 22.11C191.18 20.57 191.11 17.45 190.32 15.73C189.66 14.3 188.14 12.54 186.37 13.41C180.04 16.51 173.92 20.03 168.06 23.94C166.01 25.31 165.27 27.98 165.85 30.35C166.21 31.85 167.95 35.24 170.11 33.86C176.41 29.82 183.1 26.48 190.11 23.87L187.29 14.59C181.28 21.57 174.11 27.98 166.58 32.92L169.38 42.15C174.86 37.32 180.33 32.48 185.81 27.65C187.59 26.08 187.77 22.73 186.83 20.69C185.89 18.65 184.16 17.48 182.24 18.98C174.81 24.78 167.38 30.56 159.95 36.35L163.52 45.02C171.22 37.8 179.29 31 187.7 24.63L183.47 16.76C182.65 18.24 181.76 19.67 180.78 21.05C180.31 21.71 179.83 22.35 179.33 22.98C179.76 22.43 179.05 23.31 178.92 23.46C178.64 23.79 178.35 24.12 178.06 24.44C175.81 26.93 173.32 29.2 170.68 31.26C167.87 33.45 165.79 34.82 162.67 36.67C159.55 38.52 156.62 40.06 153.51 41.59C149.95 43.34 146.34 44.98 142.73 46.59C140.57 47.55 140.06 50.85 140.55 52.9C141.01 54.78 142.43 57.25 144.74 56.35C149.69 54.43 154.8 53.3 160.1 52.94L158.97 42.97C148.62 45.55 137.45 45.8 127 43.71L127.24 53.48C134.97 48.71 142.92 44.29 151.05 40.24L148.28 31.12C143.44 34.92 138.95 39.13 134.84 43.72C133.32 45.42 133 47.84 133.65 49.99C134.09 51.44 135.71 53.88 137.59 52.79C143.1 49.58 148.53 46.16 154.16 43.17L152.18 33.6C148.39 36.12 144.85 38.8 142 42.39C138.77 46.46 137.43 51.54 138.19 56.68C138.64 59.73 140.44 63.01 143.88 63.04C146.15 63.06 148.68 62.28 150.86 61.75C155.2 60.69 159.41 59.09 163.36 57.02C167.96 54.6 172.26 51.56 176.06 48.02C177.76 46.43 177.93 43.56 177.3 41.48C176.74 39.64 175.31 37.85 173.19 38.56C170.22 39.56 167.26 40.55 164.29 41.55C162.89 42.02 161.48 42.49 160.08 42.97C159.69 43.1 159.3 43.23 158.91 43.36C158.69 43.43 157.75 43.58 158.55 43.52C158.35 43.54 158.15 43.54 157.95 43.56C157.6 43.53 157.56 43.53 157.85 43.56C158.69 43.6 159.25 44.17 159.55 45.27L160.08 47.87V47.62C159.56 49.12 159.03 50.63 158.51 52.13C168.28 44.98 178.05 37.83 187.82 30.68C189.61 29.37 189.6 26.08 189.04 24.25C188.48 22.42 187.06 20.59 185 21.38C170.5 26.96 157.09 34.75 143.77 42.66L146.5 51.67C156.2 43.04 166.7 35.42 177.96 28.94L176.1 19.93C167.16 25.43 158.21 30.92 149.27 36.41L151.78 44.68C158.54 38.66 165.3 32.65 172.08 26.65C173.57 25.33 173.68 22.76 173.15 21C172.73 19.6 171.35 17.61 169.6 18.48C158.54 23.96 147.64 29.78 137.02 36.07L139.45 44.08C146.03 36.6 154.58 30.99 164.02 27.81C165.72 27.24 165.97 24.48 165.67 23.04C165.34 21.44 164.26 19.96 162.5 20.43L162.44 20.39Z" fill="#0D0802"/>
<path d="M122.5 34.4C119.75 38.49 116.96 42.55 114.72 46.95L111.34 53.57L109.54 57.1C108.5 59.13 107.97 60.8 108.33 63.12C108.51 64.28 109.5 66.08 110.91 65.97C112.91 65.82 113.55 63.97 114.29 62.4L116.01 58.77C117.08 56.5 118.16 54.23 119.23 51.96C121.5 47.16 123.19 42.1 124.93 37.09C125.25 36.17 125.17 34.9 124.47 34.16C123.83 33.49 123.02 33.62 122.51 34.39L122.5 34.4Z" fill="black"/>
<path d="M71.8701 41.0001C71.5601 42.9701 73.8401 44.8201 75.7101 44.1201C75.5601 41.7901 75.4001 39.4501 75.2501 37.1201C76.9901 41.2601 79.7601 44.9701 83.2201 47.8301C80.0001 45.1301 76.7701 42.4401 73.5501 39.7401C80.8601 46.0901 87.9901 52.6501 94.9201 59.4101C91.1601 55.6501 87.3901 51.8901 83.6301 48.1301C89.1201 56.4001 95.4701 64.1001 102.56 71.0501C100.97 66.8001 98.5101 62.8701 95.3801 59.5901C100.79 64.3301 105.19 70.2201 108.2 76.7501C108.94 75.4201 108.63 73.5801 107.48 72.5701C105.82 74.1301 106.37 77.3501 108.45 78.2701" fill="#0D0802"/>
<path d="M69.0401 39.89C68.7401 42.54 69.2901 45.41 71.3601 47.27C72.8801 48.64 74.6701 49.02 76.6101 48.44C78.1501 47.98 78.7601 45.4 78.6701 44.05C78.5201 41.72 78.3401 39.39 78.2701 37.05L72.7101 39.51C74.7201 44.31 77.7901 48.61 81.7501 52L84.7101 43.67C81.5001 40.92 78.3001 38.18 75.0901 35.43C73.3401 33.93 71.2901 35.48 70.6901 37.32C69.9701 39.51 70.2001 42.44 72.0201 44.07C79.2901 50.55 86.3301 57.26 93.2701 64.08C95.0701 65.85 97.4201 63.91 98.0301 62.04C98.8501 59.54 98.4801 56.66 96.5901 54.76C92.8301 50.97 89.0801 47.19 85.3201 43.4C83.6801 41.75 81.5301 43.28 80.7501 44.91C79.7001 47.12 79.8501 49.99 81.2001 52.04C86.8801 60.67 93.4901 68.66 100.82 75.94C102.23 77.34 104.39 76.46 105.26 74.95C106.46 72.9 106.49 70.33 105.67 68.14C103.76 63.06 100.83 58.58 97.1401 54.63L93.6101 64.55C94.8801 65.68 96.0701 66.88 97.2501 68.1C97.9801 68.87 96.9701 67.75 97.6001 68.49C97.8701 68.81 98.1501 69.13 98.4201 69.46C99.0001 70.17 99.5701 70.89 100.12 71.63C101.13 72.99 102.07 74.41 102.94 75.86C103.16 76.22 103.37 76.59 103.58 76.95C103.69 77.13 103.79 77.32 103.89 77.5C103.64 77.03 103.6 76.95 103.77 77.28C104.19 78.1 104.6 78.91 104.99 79.75C105.58 81.01 106.38 82.18 107.83 82.44C109.08 82.66 110.41 81.95 110.98 80.77C113.1 76.37 112.88 71.1 109.27 67.53C108.23 66.5 106.43 66.58 105.44 67.62C101.19 72.06 101.83 80.95 107.58 83.86C108.52 84.34 109.78 83.85 110.49 83.21C111.4 82.38 112 80.9 112.15 79.71C112.48 77.11 111.86 73.95 109.33 72.67C109.81 73 109.88 73.03 109.52 72.76C109.96 73.31 110.04 73.39 109.74 72.99L110.08 73.64C109.87 73.11 109.92 73.28 110.22 74.17C110.3 75.17 110.33 75.44 110.31 74.97C110.31 74.5 110.29 74.77 110.26 75.78C110.19 76.32 110.01 76.81 109.73 77.27C110 76.86 109.93 76.94 109.52 77.51L105.69 77.6C104.41 76.34 104.72 74.16 105.42 72.72L111.41 73.74C108.01 66.44 103.23 59.92 97.1501 54.61C95.1501 52.87 92.7701 54.68 92.0901 56.78C91.2101 59.48 91.6401 62.46 93.6201 64.53C93.8201 64.73 94.0101 64.94 94.2001 65.15C93.9001 64.81 93.9201 64.83 94.2701 65.24C94.6301 65.68 94.9901 66.11 95.3401 66.56C95.9401 67.35 96.5101 68.16 97.0401 69C97.3401 69.48 97.6301 69.97 97.9101 70.46C98.4401 71.37 97.6201 69.78 98.1001 70.83C98.5801 71.88 99.0501 72.88 99.4601 73.94L104.31 66.14C102.59 64.47 100.91 62.75 99.2701 60.99C98.8601 60.55 98.4601 60.11 98.0501 59.66C97.9201 59.52 97.5901 59.16 97.9101 59.51C97.7101 59.29 97.5101 59.06 97.3101 58.83C96.4701 57.87 95.6401 56.9 94.8201 55.92C91.7001 52.17 88.7801 48.25 86.0601 44.2L81.9401 52.85C85.7101 56.58 89.4901 60.31 93.2601 64.05L96.5801 54.73C89.6401 48.05 82.4301 41.64 75.0801 35.41L72.0101 44.04C75.2501 46.69 78.5001 49.33 81.7401 51.98C83.4501 53.38 85.4001 51.98 85.9901 50.16C86.6501 48.13 86.5101 45.12 84.7001 43.65C81.5801 41.1 79.2601 38.04 77.7901 34.73C77.2101 33.41 75.9101 32.02 74.3301 32.7C72.7501 33.38 72.0701 35.66 72.2201 37.18C72.4601 39.51 72.5901 41.84 72.7401 44.18L74.8001 39.79C75.3301 39.63 74.3101 39.73 74.8701 39.82C74.7201 39.78 74.5801 39.73 74.4401 39.67C74.2301 39.57 74.2501 39.59 74.4801 39.73L74.2401 39.53C74.4901 39.85 74.5001 39.84 74.2601 39.51C74.5001 39.96 74.7101 42 74.7701 40.92C74.8701 39.35 73.8901 36.88 72.1401 36.63C70.3901 36.38 69.2001 38.31 69.0201 39.89H69.0401Z" fill="black"/>
</g>
<defs>
<clipPath id="clip0_3416_10543">
<rect width="234.84" height="288.63" fill="white"/>
</clipPath>
</defs>
</svg>
