<svg width="214" height="195" viewBox="0 0 214 195" fill="none" xmlns="http://www.w3.org/2000/svg">
<g clip-path="url(#clip0_3416_9983)">
<mask id="mask0_3416_9983" style="mask-type:luminance" maskUnits="userSpaceOnUse" x="0" y="0" width="214" height="195">
<path d="M213.39 0H0V194.79H213.39V0Z" fill="white"/>
</mask>
<g mask="url(#mask0_3416_9983)">
<path d="M140.75 193.27C117 202.44 103.86 167.44 126.49 156.75C129.49 155.33 132.5 153.91 135.51 152.48C129.28 150.29 123.82 148.31 118.9 146.47C60.65 132.95 13.22 60.0702 0.189985 10.0502C-1.95002 1.82017 14.41 -4.11983 18.09 3.56017C32.34 33.3002 51.17 61.9402 75.65 84.2802C88.14 95.6802 102.36 105.54 118.25 111.56C129.53 115.84 152.16 124.97 163.94 120.42C163.42 118.75 162.86 117.06 162.55 115.56C160.58 105.95 159.98 94.0902 162.5 84.5502C163.96 78.9702 169.38 76.8402 174.24 79.9502C185.98 87.4702 193.93 100.13 200.1 112.31C206.62 125.16 215.88 135.01 212.76 150.48C209.87 164.78 197.47 171.28 185.09 176.15C170.34 181.95 155.53 187.58 140.75 193.29" fill="black"/>
</g>
</g>
<defs>
<clipPath id="clip0_3416_9983">
<rect width="213.39" height="194.79" fill="white"/>
</clipPath>
</defs>
</svg>
