<svg width="130" height="217" viewBox="0 0 130 217" fill="none" xmlns="http://www.w3.org/2000/svg">
<g clip-path="url(#clip0_3416_9996)">
<path d="M128.02 144.34C127.8 144.21 127.57 144.15 127.31 144.18C118.65 144.06 109.98 143.97 101.32 143.9C100.79 107.28 97.49 70.75 97.16 34.12C97.07 23.84 97.22 13.57 97.79 3.29998C97.85 2.27998 97.13 0.429978 95.85 0.499978C73.98 1.83998 52.11 3.17998 30.24 4.52998C28.89 4.60998 28.43 6.32998 28.44 7.41998C28.75 43.66 29.3 79.9 29.43 116.13C29.46 125.69 29.46 135.25 29.43 144.81C20.39 145.04 11.34 145.33 2.30996 145.85C0.399962 145.96 0.0199618 149.22 1.02996 150.75C0.569962 152.06 0.619962 153.99 1.48996 154.84C20.52 173.46 37.76 193.81 53.26 215.46C53.79 216.2 54.81 216.58 55.53 215.85C78.44 192.49 102.62 170.38 128.03 149.75C129.74 149.08 129.71 145.17 128.01 144.33L128.02 144.34ZM54.7 209.83C39.69 189.03 23.05 169.43 4.80996 151.41C13.33 150.96 21.86 150.69 30.39 150.47C31.23 150.45 31.78 149.8 32.04 148.94C32.67 148.57 33.16 147.76 33.17 146.5C33.33 110.26 32.88 74.02 32.49 37.78C32.39 28.55 32.3 19.33 32.22 10.1C52.79 8.83998 73.35 7.57998 93.92 6.30998C92.14 42.68 95.12 79.14 96.71 115.46C97.16 125.69 97.51 135.92 97.63 146.16C97.48 147.74 98.14 149.55 99.57 149.56C106.42 149.61 113.26 149.69 120.11 149.77C97.29 168.65 75.48 188.72 54.7 209.83Z" fill="black" stroke="black" stroke-miterlimit="10"/>
</g>
<defs>
<clipPath id="clip0_3416_9996">
<rect width="129.82" height="216.75" fill="white"/>
</clipPath>
</defs>
</svg>
