<svg width="184" height="285" viewBox="0 0 184 285" fill="none" xmlns="http://www.w3.org/2000/svg">
<g clip-path="url(#clip0_3416_9990)">
<path d="M103.64 13.0699C104.92 12.8999 106.2 12.7999 107.49 12.7799C108.9 12.7599 110.28 12.6699 111.7 12.6199C114.39 12.5199 117.12 12.7199 119.76 13.2399C124.94 14.2599 129.98 16.2599 134.72 19.1299C137.19 20.6199 139.51 22.3199 141.76 24.1199C142.84 24.9799 143.9 25.8799 144.91 26.8199C144.31 26.2699 144.8 26.7199 144.91 26.8399C145.18 27.0999 145.46 27.3599 145.73 27.6299C146.36 28.2499 146.98 28.8799 147.58 29.5299C149.48 31.5599 151.26 33.7099 152.89 35.9599C153.7 37.0799 154.48 38.2299 155.21 39.3999C155.39 39.6899 155.68 40.0399 155.8 40.3599C155.32 39.0399 155.6 40.0199 155.81 40.3999C156.18 41.0499 156.54 41.6999 156.88 42.3599C158.39 45.2399 159.66 48.2199 160.83 51.2399C161.39 52.6899 160.31 49.7199 160.81 51.1799C160.95 51.5899 161.09 51.9899 161.23 52.3999C161.46 53.0799 161.68 53.7599 161.89 54.4499C162.4 56.0899 162.86 57.7499 163.28 59.4199C163.47 60.1899 163.65 60.9499 163.83 61.7299C163.96 62.2899 164.17 63.4899 163.72 61.1499C163.8 61.5699 163.89 61.9899 163.98 62.4099C164.31 64.0899 164.6 65.7899 164.85 67.4799C165.08 69.0399 165.27 70.6099 165.42 72.1799C165.46 72.5399 165.49 72.8999 165.52 73.2499C165.63 74.4099 165.33 70.7799 165.45 72.4099C165.52 73.4099 165.59 74.4099 165.64 75.4199C165.8 78.6599 165.81 81.8999 165.73 85.1499C165.7 86.3299 165.84 82.6099 165.76 84.2699C165.74 84.6999 165.72 85.1299 165.7 85.5699C165.66 86.3599 165.61 87.1599 165.56 87.9499C165.45 89.6099 165.3 91.2599 165.13 92.9199C164.96 94.5799 164.77 96.0799 164.56 97.6599C164.44 98.5199 164.31 99.3799 164.19 100.24C163.94 101.9 164.55 98.0899 164.27 99.7399C164.2 100.17 164.13 100.59 164.05 101.02C163.48 104.27 162.82 107.51 162.06 110.72C161.64 112.51 161.2 114.3 160.72 116.08C160.5 116.9 160.27 117.72 160.03 118.54C159.91 118.95 159.79 119.36 159.67 119.77C159.59 120.04 159.51 120.31 159.42 120.59C159.81 119.35 159.88 119.11 159.63 119.89C158.54 123.26 157.32 126.58 155.87 129.82C155.47 130.72 155.05 131.61 154.61 132.5C154.49 132.75 154.36 133 154.23 133.26C154.1 133.51 153.97 133.76 153.84 134.01C153.51 134.64 153.58 134.51 154.05 133.62C153.88 133.68 153.53 134.56 153.44 134.72C153.2 135.15 152.95 135.57 152.7 135.99C152.23 136.77 151.75 137.55 151.25 138.31C149.29 141.3 147.06 144.12 144.56 146.68L145.53 145.69C140.52 150.73 134.48 154.68 127.73 156.95L128.84 156.58C122.64 158.6 115.92 159.12 109.59 157.36L110.73 157.68C106.32 156.39 102.32 154.05 98.94 150.95L99.99 151.92C98.77 150.77 97.63 149.54 96.61 148.21C96.1 147.55 95.65 146.86 95.18 146.17C94.43 145.05 95.99 147.66 95.36 146.47C95.14 146.05 94.91 145.64 94.7 145.22C94.36 144.54 94.07 143.84 93.78 143.13C93.55 142.53 93.69 142.92 94.2 144.29C94.12 144.07 94.05 143.85 93.98 143.63C93.88 143.3 93.78 142.96 93.69 142.63C93.63 142.41 93.57 142.18 93.52 141.95C93.32 141.05 93.41 141.5 93.8 143.28C93.75 142.94 93.68 142.59 93.63 142.25C93.34 140.19 93.74 144.25 93.69 143.32C93.67 142.91 93.66 142.51 93.65 142.1C93.6 140.51 93.47 144.85 93.6 143.34C93.64 142.87 93.69 142.4 93.73 141.93C93.88 140.43 93.22 144.41 93.59 142.82C93.7 142.37 93.78 141.92 93.9 141.47C94.36 139.7 93.27 143.2 93.78 141.8C93.92 141.43 94.04 141.06 94.19 140.7C94.53 139.84 94.95 139.04 95.33 138.2C94.45 140.17 95.18 138.5 95.45 138.05C95.65 137.71 95.86 137.37 96.08 137.04C96.59 136.26 97.13 135.5 97.69 134.76C98.83 133.27 100.08 131.87 101.39 130.52L100.38 131.55C107.62 124.23 116.61 118.66 126.36 115.37L125.22 115.75C134.07 112.82 143.68 111.79 152.76 114.26L151.6 113.93C156.76 115.39 161.5 117.96 165.48 121.56L164.42 120.59C166.43 122.44 168.2 124.52 169.71 126.8C169.9 127.08 170.08 127.37 170.26 127.66C170.98 128.77 169.4 126.13 170.04 127.29C170.37 127.88 170.71 128.48 171.01 129.08C171.63 130.3 172.19 131.55 172.68 132.82L172.8 133.14C173.09 133.91 172.96 133.57 172.42 132.1C172.52 132.43 172.65 132.75 172.75 133.08C172.96 133.74 173.16 134.4 173.35 135.07C173.54 135.74 173.71 136.41 173.86 137.09C173.91 137.32 173.96 137.54 174.01 137.77C173.24 134.39 173.71 136.31 173.84 137.09C174.09 138.47 174.26 139.87 174.41 141.26C174.58 142.89 174.2 138.35 174.3 139.98C174.32 140.21 174.33 140.45 174.34 140.68C174.39 141.5 174.41 142.33 174.42 143.16C174.42 143.87 174.42 144.58 174.41 145.29L174.48 143.3C174.48 143.54 174.46 143.77 174.45 144.01C174.43 144.36 174.41 144.72 174.39 145.07C174.29 146.49 174.15 147.9 173.95 149.31L173.9 149.66C173.76 150.59 173.83 150.13 174.13 148.26C174.07 148.61 174.01 148.96 173.95 149.31C173.82 150 173.68 150.7 173.53 151.39C173.23 152.76 172.86 154.12 172.47 155.47C172.08 156.82 173.17 153.31 172.7 154.71C172.59 155.05 172.47 155.39 172.36 155.73C172.11 156.45 171.85 157.16 171.58 157.87C171.04 159.28 170.46 160.68 169.84 162.05C169.27 163.31 168.65 164.54 168.03 165.77C167.41 167 168.9 164.2 168.2 165.45C168.02 165.78 167.84 166.11 167.65 166.43C167.22 167.19 166.78 167.95 166.32 168.7C162.78 174.5 158.5 179.82 153.74 184.66L154.82 183.57C144.09 194.39 131.1 202.71 117.17 208.78C112.57 210.78 107.88 212.56 103.13 214.16L104.38 213.74C86.11 219.85 67.14 223.21 48.23 226.67C46.47 226.99 45.56 228.44 44.9 229.99C43.91 232.3 43.57 235.37 43.68 237.84C43.79 240.31 44.06 243.29 45.29 245.63C45.91 246.81 47.11 249.09 48.78 248.79C71.17 244.69 93.74 240.27 114.93 231.73C133.38 224.3 150.32 213.28 163.2 197.98C176.54 182.14 184.45 161.5 183.2 140.66C182.54 129.67 179.91 118.74 173.65 109.55C168.32 101.72 160.35 96.4599 151.22 94.1999C142.09 91.9399 133.31 93.1099 124.88 95.8799C115.76 98.8699 107.35 103.55 100.2 109.97C96.29 113.48 92.59 117.41 90.03 122.04C86.51 128.39 84.76 135.38 84.96 142.66C85.28 154.33 90.39 165.51 100.02 172.32C107.84 177.85 117.89 179.12 127.04 176.61C137.18 173.82 145.8 167.64 152.34 159.46C159.52 150.48 163.87 139.63 167.06 128.69C170.17 118.03 172.12 106.91 173.01 95.8499C174.89 72.6099 172.08 47.8099 159.73 27.5699C150.62 12.4899 133.96 -0.430058 115.6 0.00994224C113.48 0.0599422 111.38 0.319942 109.3 0.719942C107.08 1.14994 104.82 2.41994 102.84 3.49994C101.3 4.34994 101.33 7.47994 101.45 8.87994C101.53 9.89994 102 13.2699 103.64 13.0499V13.0699Z" fill="black"/>
<path d="M41.71 194.86C37.21 201.62 32.73 208.39 28.29 215.19C24.43 221.11 20.95 227.26 16.7 232.92C14.27 236.16 11.76 239.3 8.91997 242.19L9.83997 241.26C7.61997 243.49 5.24997 245.54 2.68997 247.38C-0.0900302 249.37 -0.14003 254.4 0.10997 257.36C0.24997 259.06 0.51997 260.99 1.31997 262.52C1.87997 263.59 2.72997 265.16 4.16997 265.1C13.45 264.67 22.62 266.31 31.53 268.8L30.46 268.5C38.21 270.69 45.76 273.47 53.34 276.16C60.92 278.85 69.14 281.76 77.03 284.56C80.19 285.68 81.3 281.39 81.66 279.09C81.97 277.13 82.05 275.03 81.72 273.06C81.41 271.23 81.01 269 79.73 267.58C73.27 260.38 66.83 253.15 60.96 245.46C58.04 241.64 55.27 237.71 52.72 233.63C52.43 233.16 52.14 232.69 51.85 232.22C51.36 231.43 52.67 233.63 51.96 232.4C51.82 232.16 51.68 231.92 51.54 231.69C50.92 230.62 50.32 229.53 49.73 228.44C48.63 226.38 47.6 224.29 46.65 222.16C46.12 220.97 45.62 219.77 45.14 218.56C45.04 218.3 44.94 218.05 44.84 217.79C44.24 216.21 45.21 218.86 44.95 218.11C44.75 217.53 44.54 216.95 44.34 216.36C43.47 213.74 42.74 211.08 42.15 208.38C40.12 212.18 38.09 215.99 36.06 219.79C37.03 221.61 37.91 223.47 38.72 225.37C39.12 226.32 39.51 227.29 39.88 228.25C39.98 228.52 40.64 230.3 40.12 228.87C39.6 227.44 40.34 229.5 40.46 229.84C41.85 233.86 43.05 237.95 44.27 242.02C46.76 250.33 49.31 258.86 53.68 266.41C56.43 271.16 59.58 275.25 63.67 278.93C64.24 272.92 64.82 266.91 65.39 260.9C55.6 256 46.56 249.72 38.5 242.32L39.51 243.25C34.98 239.06 30.78 234.53 26.95 229.69L24.17 247.17C25.72 248.31 27.2 249.53 28.61 250.83L27.59 249.89C29.8 251.95 31.82 254.19 33.63 256.61C34.04 257.16 34.44 257.72 34.83 258.28C35.22 258.84 35.65 259.94 36.17 260.35C35.8 260.05 35.46 259.13 36.02 260.11C36.19 260.41 36.36 260.71 36.52 261.01C36.91 261.73 37.29 262.47 37.65 263.21L41.35 247.01C35.8 244.83 30.5 242.07 25.56 238.72C23.96 237.64 22.59 239.3 21.92 240.54C20.69 242.85 20.37 245.59 20.44 248.17C20.47 249.31 20.5 250.45 20.53 251.6L24.52 241.82C17.76 243.51 11.12 245.71 4.68997 248.37C3.34997 248.92 2.52997 251.77 2.26997 252.89C1.71997 255.21 1.62997 258.03 2.02997 260.38C2.45997 262.94 3.72997 268.56 7.40997 267.03C10.3 265.83 13.24 264.72 16.2 263.71L15.08 264.08C18.35 262.99 21.66 262.01 25 261.17C28.69 260.23 29.07 254.38 28.99 251.39C28.96 250.25 28.92 249.11 28.89 247.96L23.78 257.42C28.72 260.75 34.01 263.5 39.57 265.63C40.66 266.05 41.45 265.94 42.3 265.08C43.33 264.03 43.91 262.51 44.21 261.09C45 257.39 44.97 252.89 43.27 249.44C39.22 241.23 33.36 234.13 25.93 228.76C24.81 227.95 23.38 228.88 22.75 229.8C21.82 231.16 21.42 232.79 21.16 234.39C20.84 236.41 20.76 238.57 21.1 240.59C21.44 242.61 21.89 244.66 23.15 246.23C34.09 259.88 48.01 271.13 63.66 278.94C67.06 280.64 68.34 274.44 68.51 272.31C68.82 268.39 68.47 263.69 65.39 260.91C65.21 260.75 65.03 260.59 64.86 260.42L65.86 261.34C64.39 259.96 63.03 258.48 61.78 256.9C61.2 256.16 60.65 255.41 60.12 254.64C59.86 254.25 59.6 253.86 59.35 253.47C59.22 253.27 59.1 253.07 58.98 252.88C58.39 251.94 59.6 253.95 59.21 253.26C58.25 251.57 57.35 249.85 56.54 248.08C55.73 246.31 55.06 244.29 54.23 242.44C54.23 242.44 54.93 244.4 54.54 243.29C54.46 243.06 54.38 242.83 54.3 242.61C54.14 242.15 53.98 241.69 53.82 241.23C53.49 240.25 53.16 239.26 52.85 238.28C52.23 236.35 51.65 234.41 51.06 232.47C49.89 228.57 48.74 224.67 47.42 220.82C45.75 215.93 43.92 211.09 41.48 206.52C41 205.62 39.93 203.69 38.55 203.87C37.36 204.02 36.67 204.93 36.14 205.92C34.21 209.55 34.54 214.06 35.39 217.93C39.81 238.12 51.77 255.53 64.94 271.05C68.56 275.32 72.29 279.49 76.03 283.65L78.73 266.67C68.92 263.2 59.12 259.69 49.29 256.27C39.46 252.85 30.2 249.77 20.28 248.08C14.81 247.15 9.25997 246.73 3.71997 247.03C4.20997 252.94 4.70997 258.85 5.19997 264.75C20.12 253.88 28.53 236.56 36.96 220.67C37.68 219.31 38.4 217.96 39.12 216.6C38.99 216.85 38.69 217.42 39.29 216.28C39.56 215.78 39.81 215.28 40.07 214.78L41.14 212.72C42.52 210.05 43.91 207.38 45.3 204.72C45.92 203.53 46.06 201.51 46 200.23C45.94 198.95 45.76 197.64 45.31 196.41C44.78 194.94 43.12 192.74 41.71 194.87V194.86Z" fill="black"/>
<path d="M36.17 225.41C35.99 227.35 35.81 229.27 35.75 231.22C35.71 232.4 36.15 235.84 37.88 235.8C39.61 235.76 39.75 232.2 39.79 231.12L39.83 229.89C39.83 229.81 39.86 228.88 39.85 229.3C39.82 230.11 39.89 228 39.9 227.67C39.9 227.26 39.92 226.85 39.93 226.44C39.96 224.88 40 223.32 40.03 221.75C40.06 220.45 39.59 216.64 37.67 216.68C35.75 216.72 35.6 220.67 35.56 221.86C35.6 220.72 35.51 222.67 35.5 222.87C35.47 223.35 35.44 223.82 35.4 224.3C35.31 225.41 35.17 226.51 35.02 227.62C34.87 228.73 35.12 227.21 34.92 228.23C34.8 228.85 34.68 229.47 34.55 230.09C34.45 230.55 34.33 231.02 34.23 231.48C34.09 232.02 34.07 232.09 34.19 231.71C34.1 231.99 34 232.27 33.9 232.55L38.16 236.4C37.99 232.35 37.59 228.3 37.3 224.26C37.18 222.63 37.03 220.13 35.62 219.02C34.47 218.11 33.32 218.97 32.9 220.28C31.74 223.9 30.58 227.51 29.41 231.13L33.92 235.2C33.84 233.76 33.75 232.32 33.67 230.87C33.59 229.42 33.43 227.95 32.8 226.67C32.47 226 31.82 224.95 30.91 224.97C28.6 225.03 28.47 229.62 28.45 231C28.42 233.09 28.39 235.17 28.36 237.26C28.34 238.81 28.8 242.75 30.79 243.14C32.78 243.53 33.46 240.1 33.58 238.74C33.67 237.67 33.78 236.6 33.93 235.53C33.96 235.33 34.09 233.81 33.98 235.16C34.02 234.63 34.17 234.09 34.28 233.57C34.48 232.59 34.7 231.62 34.95 230.65C35.07 230.2 35.19 229.76 35.31 229.32C35.39 229.02 35.48 228.73 35.57 228.44C35.41 228.95 35.42 228.93 35.6 228.37L30.94 224.16C30.94 228.89 30.94 233.62 30.94 238.35C30.94 240.04 31.27 242.3 32.41 243.65C33.3 244.71 34.29 244.63 35.13 243.58C37.11 241.11 38.39 238.08 39.01 234.99L34.78 236.35C34.96 236.77 35.12 237.2 35.3 237.62C34.88 236.63 35.43 237.99 35.46 238.1C35.72 238.9 35.95 239.71 36.16 240.52C36.32 241.15 36.42 241.35 36.2 240.6C36.32 241.03 36.38 241.52 36.45 241.95C36.52 242.38 36.59 242.86 36.64 243.31C36.69 243.7 36.8 245.15 36.68 243.47C36.81 245.24 36.97 247.95 38.5 249.15C39.83 250.19 40.88 249.14 41.46 247.78C42.04 246.42 42.64 244.98 43.23 243.58L38.57 240.92C39.22 245.44 40.79 249.7 43.4 253.45C44.61 255.19 46.19 253.75 46.76 252.37C48.99 246.89 48.21 240.1 45.4 234.96C44.38 233.1 43.16 231.4 41.98 229.65C41.75 229.31 41.53 228.96 41.3 228.62C41.02 228.17 41.01 228.16 41.27 228.58C41.14 228.34 41.01 228.11 40.88 227.87C40.86 227.83 40.35 226.79 40.37 226.78C40.61 227.48 40.63 227.54 40.45 226.96C40.37 226.7 40.31 226.44 40.25 226.18L35.46 232.93C38.39 242.05 42.56 250.64 48 258.53C49.23 260.32 50.91 258.86 51.47 257.41C52.41 255 52.54 251.85 51.72 249.38C49.26 241.9 45.16 235.41 39.25 230.19C38.66 229.67 37.81 230.16 37.37 230.57C36.65 231.24 36.25 232.4 36.05 233.32C35.51 235.85 35.5 239.01 36.7 241.37C37.52 242.98 38.35 244.59 39.2 246.19C39.59 246.93 40.26 248.1 41.28 248.07C42.3 248.04 42.97 246.85 43.27 246.09C44.34 243.33 44.36 239.47 43.04 236.77C42.24 235.13 41.4 233.5 40.57 231.87L38.02 243.05C39.83 244.63 42.04 247.19 43.63 249.57C43.82 249.85 44 250.14 44.19 250.42C44.92 251.54 43.77 249.63 44.42 250.8C44.78 251.45 45.14 252.11 45.47 252.78C45.8 253.45 46.11 254.13 46.4 254.82C46.45 254.93 46.9 255.86 46.85 255.96L46.64 255.4C46.73 255.66 46.82 255.91 46.9 256.17L50.63 247.02C50.03 246.16 49.45 245.3 48.88 244.42C48.56 243.92 48.24 243.41 47.92 242.9C47.84 242.76 47.19 241.67 47.6 242.38C46.54 240.58 45.55 238.74 44.62 236.87C43.69 235 42.83 233.09 42.04 231.16C41.87 230.75 41.7 230.33 41.54 229.91C41.46 229.69 40.76 227.89 41.23 229.13C40.86 228.15 40.54 227.16 40.22 226.16C39.92 225.23 39.41 223.7 38.43 223.18C37.58 222.73 36.74 223.15 36.24 223.9C34.53 226.4 34.77 230.13 35.43 232.91C36.29 236.51 38.3 239.51 40.4 242.48C40.83 243.09 41.25 243.7 41.66 244.32C41.23 243.66 41.78 244.54 41.89 244.75C42.05 245.06 42.2 245.37 42.34 245.68C42.76 246.64 42.6 245.79 42.38 245.73C42.44 245.92 42.5 246.12 42.55 246.32C42.66 246.76 42.62 246.58 42.43 245.77C42.38 244.79 42.36 244.55 42.38 245.05C42.39 245.55 42.4 245.31 42.41 244.33C42.43 244.08 42.96 242.4 42.57 243.41L45.93 242.33C45.72 242.04 45.53 241.73 45.32 241.45C44.91 240.9 45.56 241.94 45.24 241.33C44.92 240.72 44.58 240.07 44.3 239.4C44.25 239.29 43.95 238.43 44.15 239.03C44.37 239.72 44.02 238.57 43.99 238.44C43.96 238.34 43.85 237.64 43.77 237.61C43.91 238.34 43.95 238.49 43.87 238.06C43.83 237.85 43.8 237.64 43.77 237.42C43.56 236.07 43.12 233.81 41.74 233.07C40.45 232.38 39.54 233.71 39.11 234.75C38.53 236.16 37.94 237.58 37.35 238.99L42.13 243.3C41.69 237.79 40.57 232.51 38.38 227.42C37.97 226.46 37.19 225.46 36.06 225.77C34.93 226.08 34.35 227.75 34.15 228.78C34.1 229.03 33.61 230.71 34.02 229.54C33.86 230 33.67 230.45 33.48 230.9C33.35 231.17 33.37 231.15 33.53 230.85C33.39 231.09 33.25 231.33 33.1 231.57C32.8 232.04 32.47 232.49 32.12 232.93L36.31 238.17C36.29 233.44 36.27 228.71 36.26 223.98C36.26 222.31 35.9 219.55 34.48 218.43C33.26 217.47 32.04 218.37 31.59 219.77C29.93 224.93 28.79 230.2 28.39 235.61L33.61 237.09C33.61 235.01 33.63 232.92 33.64 230.84L28.43 230.97C28.53 232.41 28.63 233.85 28.73 235.3C28.84 236.93 29.03 240.03 30.77 240.96C32.51 241.89 33.28 239.28 33.62 238.17C34.75 234.5 35.88 230.82 37 227.15L32.23 224.35C32.61 228.88 32.86 233.45 33.38 237.97C33.51 239.15 34.1 241.64 35.51 241.92C36.92 242.2 37.64 240.3 37.87 239.19C39.09 233.4 40.05 227.67 40.01 221.73L35.54 221.84C35.59 224.96 35.65 228.08 35.74 231.2L39.78 231.1C39.72 229.17 39.49 227.24 39.31 225.31C39.24 224.54 38.77 222.57 37.66 222.6C36.55 222.63 36.22 224.61 36.15 225.39L36.17 225.41Z" fill="black"/>
</g>
<defs>
<clipPath id="clip0_3416_9990">
<rect width="183.39" height="284.74" fill="white"/>
</clipPath>
</defs>
</svg>
