<svg width="193" height="204" viewBox="0 0 193 204" fill="none" xmlns="http://www.w3.org/2000/svg">
<g clip-path="url(#clip0_3416_9977)">
<path fill-rule="evenodd" clip-rule="evenodd" d="M82.67 76.9501C87.21 80.5901 90.99 90.0101 89.22 94.9601C80.24 101.22 68.75 91.0501 64.66 82.6801C44.57 71.5801 18.65 69.4001 0 54.0301C0.75 50.0501 -0.46 46.8601 2.46 42.5701C25.07 39.3801 50.55 26.6001 70.4 13.1001C75.82 9.42007 85.74 0.250068 90.04 0.0100683C99.63 -0.529932 108.79 19.8201 93.31 21.2901C93.33 25.9601 92.68 26.2401 93.31 30.3001C127.5 26.2201 159.55 23.2801 185.81 37.6701C186.82 96.8401 184.21 145.36 192.36 198.92C176.68 211.62 167.28 195.23 172.72 176.82C167.75 138.53 169.84 94.2201 165.35 48.3101C144.72 42.5801 116.97 45.7001 91.68 48.3101C91.32 61.6601 93.01 69.8001 94.14 82.6901C89.73 81.3701 86.11 79.2601 82.68 76.9601L82.67 76.9501ZM62.21 64.6801C63.91 61.2701 57.75 61.6101 57.3 63.0401C59.7 62.8301 59.82 64.8901 62.21 64.6801Z" fill="black"/>
</g>
<defs>
<clipPath id="clip0_3416_9977">
<rect width="192.36" height="203.41" fill="white"/>
</clipPath>
</defs>
</svg>
