<svg width="236" height="234" viewBox="0 0 236 234" fill="none" xmlns="http://www.w3.org/2000/svg">
<g clip-path="url(#clip0_3416_9974)">
<path fill-rule="evenodd" clip-rule="evenodd" d="M117.31 113.95C118.48 114.67 118.28 112.8 118.46 115.49C134.71 96.8902 142.03 73.7702 158.93 55.5002C155.1 46.2402 148.42 42.6302 144.22 34.0902C147 26.4502 156.75 26.8802 164.07 24.3802C176.17 20.2402 188.61 12.3802 201.64 8.21022C204.68 7.24022 207.68 7.39022 210.5 5.94022C213.84 4.22022 215.5 0.440225 218.8 0.0202245C220.87 -0.239775 223.19 2.02022 226.09 2.75022C229.04 3.49022 232.11 3.06022 234.73 5.67022C234.37 8.38022 236.85 10.5202 235.27 13.1702C233.54 14.0502 232.89 12.8002 231.04 13.9202C229.93 18.7102 227.83 20.1902 225.03 24.8502C224.82 25.2002 225.78 26.2202 225.6 26.5802C225.42 26.9502 224.02 26.7702 223.87 27.1502C223.63 27.7402 224.15 29.3902 224.44 28.8802C224.01 29.6302 222.43 30.1002 222.32 30.2202C219.44 33.2302 216.59 38.7702 215.15 41.5302C214.96 41.8902 216.31 41.9102 216.5 41.7302C216.23 42.8802 214.25 43.1602 213.41 44.0202C212.89 45.9102 216.32 44.3002 214.56 45.5602C209.19 49.9902 205.76 58.8902 200.04 65.6802C200.5 66.0402 200.95 66.4202 201.19 67.2202C200.62 67.3902 200.51 66.6602 200.23 66.2502C196.68 71.1902 193.25 77.0002 189.96 83.7002C187.4 82.7902 186.67 86.1202 183.79 86.3602C178.31 86.8302 173.58 80.7702 170.19 76.1002C165.73 77.2202 167.7 81.5902 162.66 82.4102C163.77 86.0402 156.43 92.0002 152.21 97.3602C151.39 98.3902 149.39 102.37 148.14 104.46C145.28 109.21 138.22 115.71 133.44 122.08C124.96 133.4 120.53 142.85 108 134.27C107.65 132 107.98 130.08 108.61 128.31C104.26 110.19 108.61 93.9602 102.51 76.5602C104.19 76.4502 103.23 75.0002 103.67 74.2602C101.78 76.4002 102.17 75.4402 102.71 73.2902C99.15 75.9102 103.43 78.0702 102.1 81.1702C99.56 79.3502 101.01 82.2802 100.94 83.4702C94.51 85.5102 93.87 93.8002 92.21 99.7702C93.54 100.49 94.42 98.8502 93.95 97.2802C96.27 97.8702 92.77 99.5302 93.93 101.13C91.66 99.9502 91.02 100.16 89.89 102.46C91.55 102.78 90.63 103.5 91.61 103.81C88.62 104.38 86.87 108.9 85.99 112.05C88.06 112.69 86.48 107.84 90.04 108.8C88.95 110.91 88.91 109.95 88.29 113.21C86.72 113.73 84.79 111.67 84.82 114.35C85.77 115.96 85.87 113.39 87.13 113.59C86.46 117.45 82.59 122.85 78.99 127.78C79.83 128.39 79.86 127.22 81.1 128.37C80.27 132.99 77.03 135.01 77.21 137.97C74.31 138.27 74.24 140 73.16 141.22C74.11 142.83 74.21 140.26 75.47 140.46C74.42 145.39 73 150.13 68.87 153.5C69.4 154.28 69.53 153.03 70.6 152.93C68.83 161.67 63.88 168.8 65.86 179.44C60.84 182.64 55.95 183.91 52.2 180.72C47.11 163.16 49.5 147.47 45.51 131.08C45.97 130.51 45.67 129.56 46.86 129.36C43.84 126.41 46.74 123.36 44.78 121.08C41.58 122.38 44.67 125.16 40.91 126.83C43.26 126.65 42.51 126.67 42.44 129.53C41.87 129.7 41.76 128.97 41.48 128.56C40.04 134.42 38.32 140.13 33.91 144.48C34.95 145.94 35.36 149.18 32.54 150.05C35.45 150.51 32.1 153.25 30.02 154.08C30.34 154.73 31.23 154.22 31.94 154.08C30.22 160.04 27.83 168.42 24.36 171.93C26.61 175.11 25.04 180.22 21.24 181.91C21.73 183.44 22.97 185.35 20.45 185.37C20.83 186.52 22.27 185.59 22.36 187.3C21.8 187.15 21.22 187.01 20.44 187.3C22.09 191.67 20.7 194.5 18.47 196.9C16.86 208.46 13.59 219.17 12.35 230.91C8.07004 233.94 3.40004 233.84 0.43004 231.62C-1.00996 225.15 1.57004 217.55 3.81004 208.75C6.06004 199.9 7.80004 191.82 10.46 184.17C12.32 178.82 13.69 173.56 15.15 169.19C16 166.65 18.38 164.57 19.22 162.09C22.37 152.83 23.31 142.44 27.82 133.67C29.74 129.94 30.62 126.03 32.11 121.38C33.61 116.71 37.09 112.79 38.71 108.34C41.97 99.3902 43.8 90.1502 48.83 82.6202C50.72 82.1602 53.82 82.8102 55.75 82.2702C57.52 84.5302 58.27 85.4802 60.72 87.6802C52.37 108.15 56.88 131.8 58.5 151.12C73.44 118.85 86.15 85.4402 102.03 53.6402C105.31 52.5402 107.94 53.4402 111.64 53.6902C115.33 60.6702 117.59 73.1502 114.02 78.5102C114.46 79.2402 115.62 78.5102 116.52 78.3302C117.76 85.3302 115.09 89.0002 115.1 93.5102C115.5 94.3002 116.89 93.1502 117.21 94.1002C118 97.7802 115.12 97.4502 116.6 101.98C117.13 101.93 117.07 101.58 116.99 101.21C118.43 105.65 117.3 110.54 117.31 113.9V113.95ZM115.55 79.3302C113.98 79.4002 113.91 82.6002 115.34 82.6002C115.22 81.4202 116.65 81.0102 115.55 79.3302ZM165.33 41.8802C164.04 39.4602 164.96 38.1602 164.01 35.9102C163.27 36.5002 160.8 36.2102 161.31 37.4402C163.27 37.6902 163.49 41.3802 165.33 41.8802Z" fill="black"/>
</g>
<defs>
<clipPath id="clip0_3416_9974">
<rect width="235.8" height="233.28" fill="white"/>
</clipPath>
</defs>
</svg>
