<svg width="236" height="116" viewBox="0 0 236 116" fill="none" xmlns="http://www.w3.org/2000/svg">
<g clip-path="url(#clip0_3416_9980)">
<path fill-rule="evenodd" clip-rule="evenodd" d="M1.07003 52.8201C30.06 47.7801 56.26 31.0601 83.54 12.0501C89.83 7.66009 100.81 0.0700866 103.93 8.65576e-05C110.41 -0.139913 116.05 6.96009 115.98 11.1201C115.85 18.6301 106.31 18.9601 103.93 25.9501C84.66 32.9301 71.74 46.2701 52.97 53.7501C91.63 49.1901 131.25 44.4601 171.58 42.6301C189.27 41.8201 204.16 41.7401 218.84 37.0701C223.47 38.5001 223.57 38.9701 229.96 38.9201C237.52 45.2801 238.11 58.0901 229.03 63.9401C217.67 63.2501 199.27 56.6001 188.26 65.8001C147.47 62.1301 109.74 65.7201 67.8 73.2101C77.4 79.9901 99.58 86.1201 111.35 93.5901C116.04 96.5701 127.63 111.37 115.98 114.9C111.11 116.37 103.92 108.54 98.37 105.63C92.31 102.46 85.15 99.8801 79.84 97.2901C66.98 91.0101 51.46 80.9301 36.29 80.6101C33.24 80.5401 29.01 80.3301 23.32 77.8301C16.61 74.8801 13.69 71.4001 5.71003 70.4201C3.53003 65.0801 -2.40997 61.0401 1.08003 52.8201H1.07003Z" fill="black"/>
</g>
<defs>
<clipPath id="clip0_3416_9980">
<rect width="235.72" height="115.09" fill="white"/>
</clipPath>
</defs>
</svg>
