<svg width="299" height="310" viewBox="0 0 299 310" fill="none" xmlns="http://www.w3.org/2000/svg">
<g clip-path="url(#clip0_3416_10256)">
<path d="M50.4699 246.01C51.8499 249.07 53.4699 252.02 55.1299 254.93C58.7899 261.36 62.8699 267.55 67.5899 273.25C72.6999 279.41 78.5699 284.83 85.3399 289.11C92.1099 293.39 99.4799 296.85 106.94 299.82C114.4 302.79 122.28 305.37 130.19 307.25C136.24 308.69 142.61 309.97 148.87 309.66C154.54 309.38 160.19 307.61 165.53 305.8C172.67 303.37 179.6 300.33 186.31 296.9C200.37 289.71 214.05 280.71 223.88 268.16C235.17 253.76 243.24 236.25 246.24 218.16C246.9 214.17 247.25 210.1 247.21 206.05C247.15 201.24 246.44 196.45 245.78 191.69C244.67 183.69 243.32 175.71 241.73 167.79C241.29 165.58 240.79 163.8 239.54 161.9C237.82 159.28 235.16 157.19 232.27 156.02C226.74 153.78 220.66 154.17 214.97 155.57C210.22 156.74 205.64 158.53 201.22 160.63C197.34 162.47 193.49 164.52 190.06 167.12C185.31 170.72 181.97 175.31 181.98 181.48C181.98 185.41 183.27 189.13 186.3 191.68C186.6 191.93 186.91 192.17 187.24 192.36L185.58 188.59C185.83 190 186 191.44 186.15 192.87C186.22 193.56 186.29 194.25 186.34 194.94C186.37 195.29 186.39 195.64 186.42 195.99C186.43 196.21 186.44 196.43 186.46 196.65C186.31 194.77 186.41 195.68 186.43 196.12C186.52 198.04 186.57 199.97 186.53 201.9C186.51 202.91 186.46 203.91 186.42 204.92C186.5 203.01 186.42 204.71 186.39 205.18C186.34 205.85 186.27 206.52 186.2 207.18C186.08 208.24 185.93 209.3 185.75 210.35C185.72 210.54 185.67 210.74 185.65 210.93C185.82 209.44 185.74 210.45 185.67 210.79C185.55 211.37 185.42 211.94 185.29 212.51C185.04 213.56 184.73 214.59 184.41 215.62C184.09 216.65 184.77 214.67 184.41 215.63C184.31 215.9 184.21 216.18 184.1 216.45C183.89 216.99 183.67 217.53 183.43 218.05C183.21 218.53 182.98 219.01 182.74 219.48C182.63 219.69 182.51 219.9 182.4 220.11C182.85 219.26 182.4 220.11 182.31 220.26C181.72 221.23 181.07 222.17 180.35 223.05C178.79 224.96 177.22 226.26 175.08 228.14C172.94 230.02 170.58 231.98 168.19 233.72C164 236.76 159.38 239.49 154.37 240.91C143.43 244.02 131.7 240.91 122.3 234.93C120.15 233.56 118.11 232.02 116.19 230.34C115.72 229.93 115.26 229.5 114.8 229.07C115.23 229.48 114.9 229.17 114.81 229.08C114.58 228.85 114.34 228.62 114.11 228.38C113.43 227.69 112.78 226.98 112.15 226.26C110.94 224.87 109.74 223.41 108.8 221.82L109.65 223.76C109.01 220.83 107.46 217.82 105.55 215.53C101.76 211 96.3099 209.22 90.5099 209.55C83.7799 209.93 77.0799 212.03 70.8699 214.57C68.1099 215.7 65.3999 216.96 62.8099 218.43C60.9099 219.51 59.0299 220.68 57.5099 222.26C56.4199 223.39 55.4099 224.6 54.3299 225.75C53.1399 227.01 51.9499 228.3 51.0499 229.79C48.1299 234.65 47.9799 240.94 50.4699 246.02C50.7699 246.64 51.3199 247.6 52.1499 247.6C52.9799 247.6 53.5699 246.64 53.8299 246.02C54.7499 243.82 54.8999 240.58 53.8299 238.38C53.6499 238.02 53.4999 237.65 53.3399 237.28C53.3599 237.33 53.5499 237.98 53.4299 237.5C53.2899 236.94 53.4899 237.95 53.4899 237.95C53.3599 236.95 53.4899 239.08 53.4899 238.12C53.4899 238.3 53.4999 239.39 53.3099 239.65C53.3499 239.59 53.3899 239.08 53.4599 239.08C53.5399 239.08 53.0699 239.92 53.3399 239.48C53.4099 239.36 53.4699 239.2 53.5199 239.07C53.7599 238.43 53.2399 239.43 53.6199 238.85C53.9999 238.27 54.3999 237.72 54.8299 237.19C55.7599 236.05 56.7999 235.01 57.8099 233.93C58.2899 233.42 58.7699 232.9 59.2199 232.37C59.3899 232.17 59.5599 231.98 59.7299 231.78C60.0999 231.33 59.5399 231.92 59.6199 231.87C60.2699 231.46 60.8399 230.88 61.4699 230.44C62.3499 229.84 63.2699 229.29 64.1999 228.77C66.5099 227.47 68.9099 226.33 71.3499 225.31C76.8699 222.98 82.7099 221.14 88.6899 220.5C91.4699 220.2 94.3699 220.13 97.0899 220.91C97.8899 221.14 99.1499 221.7 100.05 222.24C100.49 222.5 100.91 222.78 101.31 223.09C101.5 223.24 101.7 223.39 101.88 223.54C101.98 223.62 102.65 224.24 102.38 223.98C102.1 223.7 102.58 224.2 102.65 224.28C102.8 224.44 102.95 224.61 103.09 224.78C103.39 225.13 103.67 225.49 103.93 225.86C104.17 226.2 104.36 226.6 104.62 226.93C104.77 227.12 104.18 226.1 104.5 226.72C104.59 226.9 104.69 227.07 104.78 227.25C105.06 227.81 105.28 228.39 105.52 228.97C105.81 229.7 105.15 227.69 105.38 228.56C105.42 228.7 105.46 228.85 105.5 228.99C106.09 230.96 107.29 232.56 108.56 234.16C115.22 242.52 124.46 248.48 134.71 251.39C140.91 253.15 147.43 253.51 153.69 251.89C159.95 250.27 165.21 247.31 170.2 243.58C172.86 241.6 175.38 239.45 177.84 237.22C180 235.26 182.18 233.32 183.85 230.9C186.98 226.38 188.85 221.03 189.89 215.67C191.66 206.53 191.7 197.05 190.49 187.83C190.21 185.72 190.03 183.12 188.26 181.8C188.09 181.68 187.92 181.56 187.76 181.43C187.66 181.35 187.57 181.27 187.47 181.19C186.99 180.81 187.5 181.19 187.65 181.38C187.44 181.11 187.16 180.88 186.95 180.6C186.84 180.46 186.74 180.32 186.64 180.17C186.09 179.43 186.88 180.72 186.74 180.38C186.67 180.21 186.58 180.03 186.49 179.86C186.06 178.97 186.83 180.89 186.62 180.25C186.27 179.2 186.78 181.39 186.71 180.77C186.6 179.81 186.71 182.49 186.75 181.38C186.77 180.7 186.62 183.03 186.69 182.35C186.7 182.23 186.71 182.11 186.74 181.99C186.72 182.07 186.38 183.5 186.6 182.78C186.65 182.62 186.72 182.43 186.74 182.27C186.72 182.45 186.26 183.47 186.56 182.83C186.62 182.7 186.67 182.56 186.74 182.42C186.81 182.28 186.89 182.15 186.95 182C187.15 181.52 186.42 182.82 186.84 182.2C187.3 181.51 187.77 180.85 188.33 180.24C188.47 180.08 188.62 179.92 188.77 179.76C188.85 179.68 189.33 179.19 189.05 179.47C188.77 179.75 189.3 179.24 189.38 179.16C189.64 178.93 189.9 178.71 190.16 178.49C192.3 176.71 194.67 175.21 197.09 173.85C203.18 170.43 209.8 167.43 216.67 166.01C220.93 165.13 225.4 164.85 229.65 165.97C229.74 165.99 230.31 166.17 229.98 166.06C229.65 165.95 230.26 166.16 230.38 166.2C230.74 166.33 231.1 166.47 231.46 166.63C232.11 166.91 232.74 167.24 233.35 167.6C233.87 167.91 234.37 168.26 234.85 168.64C235.08 168.82 235.29 169.01 235.51 169.2C236.1 169.7 235.04 168.68 235.61 169.3C236.18 169.92 236.75 170.57 237.22 171.29C237.31 171.43 237.39 171.57 237.48 171.71C237.78 172.14 236.94 170.64 237.23 171.28C237.31 171.45 237.39 171.63 237.48 171.78C237.82 172.37 237.09 170.97 237.18 170.87C237.13 170.92 237.31 171.49 237.33 171.56C237.64 173.05 237.93 174.54 238.22 176.04C238.33 176.61 238.43 177.19 238.54 177.76C238.55 177.81 238.33 176.63 238.43 177.19C238.46 177.34 238.48 177.49 238.51 177.63C238.58 177.99 238.64 178.35 238.71 178.71C238.98 180.2 239.24 181.69 239.49 183.18C240.08 186.68 240.62 190.18 241.12 193.7C241.62 197.22 242.17 201.02 242.47 204.69C242.56 205.76 242.45 204.07 242.46 204.44C242.47 204.81 242.49 205.14 242.5 205.49C242.52 206.15 242.52 206.82 242.5 207.48C242.5 208.11 242.45 208.74 242.44 209.36C242.43 209.98 242.49 208.67 242.48 208.72C242.46 208.88 242.46 209.04 242.45 209.2C242.42 209.63 242.38 210.06 242.34 210.5C242.21 211.89 242.03 213.27 241.82 214.65C241.77 214.99 241.71 215.33 241.65 215.67C241.62 215.84 241.59 216.01 241.56 216.18C241.45 216.86 241.75 215.23 241.61 215.92C241.46 216.67 241.31 217.42 241.15 218.16C240.48 221.21 239.64 224.22 238.66 227.18C238.6 227.36 238.54 227.54 238.48 227.72C238.5 227.66 238.72 227.04 238.55 227.53C238.4 227.95 238.26 228.37 238.11 228.79C237.83 229.57 237.54 230.36 237.24 231.13C236.63 232.71 235.98 234.27 235.3 235.82C233.94 238.92 232.43 241.96 230.8 244.92C229.48 247.33 227.53 250.49 225.69 253.18C223.73 256.06 221.63 258.85 219.39 261.51C215.84 265.74 212.26 268.93 207.78 272.37C202.98 276.07 197.89 279.38 192.64 282.41C182.78 288.1 172.29 293 161.4 296.36C157.97 297.42 153.67 298.52 149.76 298.84C145.52 299.18 141.2 298.62 137.02 297.89C125.39 295.86 114 292.04 103.19 287.32C92.3799 282.6 82.1699 276.95 74.2499 268.69C70.0799 264.34 66.3899 259.54 63.0399 254.54C61.6099 252.4 60.2499 250.22 58.9399 248.01C58.6699 247.55 58.3999 247.08 58.1299 246.61C57.6499 245.78 58.3599 247.03 58.0399 246.45C57.8999 246.2 57.7599 245.95 57.6199 245.7C57.1699 244.89 56.7299 244.08 56.2899 243.26C55.4399 241.66 54.6099 240.05 53.8599 238.39C53.5799 237.77 52.9999 236.81 52.1799 236.81C51.3599 236.81 50.7599 237.77 50.4999 238.39C49.5499 240.64 49.4799 243.77 50.4999 246.03L50.4699 246.01Z" fill="black"/>
<path d="M103.24 224.94L102.66 222.65C102.17 221.68 101.99 220.69 102.12 219.66C102.18 218.57 102.19 218.75 102.16 218.99C102.13 219.23 102.51 217.29 102.37 217.84C102.31 218.08 102.96 216.45 102.62 217.08C102.48 217.35 102.36 217.63 102.22 217.9C101.87 218.61 102.76 217.01 102.36 217.66C102.24 217.86 102.12 218.05 102 218.25C101.7 218.73 101.39 219.19 101.06 219.65C100.27 220.77 99.42 221.84 98.53 222.88C98 223.49 97.46 224.09 96.91 224.67C96.64 224.96 96.36 225.24 96.08 225.52C95.91 225.69 95.74 225.85 95.57 226.02C95.21 226.38 95.98 225.64 95.46 226.12C92.43 228.93 89.11 231.39 85.48 233.36C81.16 235.7 76.92 237.18 72.17 237.94C65.49 239.02 58.67 238.46 52.13 236.79C51.39 236.6 50.64 237.95 50.45 238.37C49.94 239.49 49.73 240.98 49.75 242.19C49.79 243.99 50.01 247.05 52.13 247.59C63.76 250.56 75.99 249.57 86.63 243.84C93.37 240.2 99.52 234.79 103.83 228.43C106.36 224.7 108.29 219.95 105.63 215.62C104.33 213.52 102.68 216.33 102.38 217.56C101.8 219.99 101.9 222.78 103.23 224.95L103.24 224.94Z" fill="black"/>
<path d="M187.24 192.36C189.68 193.96 193.07 194.55 195.91 194.76C204.32 195.39 212.8 192.24 220.03 188.22C227.26 184.2 233.77 178.97 239.81 173.33C241.52 171.73 241.79 168.91 241.47 166.69C241.31 165.59 241.09 164.35 240.38 163.46C240 162.98 239.16 162.35 238.55 162.92C233.13 167.98 227.34 172.7 220.98 176.53C218.57 177.98 216.08 179.31 213.5 180.44C212.4 180.92 211.29 181.37 210.16 181.78C209.63 181.97 209.1 182.15 208.57 182.32C208.46 182.35 207.88 182.54 208.25 182.42C207.98 182.5 207.71 182.58 207.44 182.65C204.08 183.59 200.58 184.12 197.08 184.01C195.82 183.97 194.56 183.84 193.32 183.62C192.82 183.53 192.32 183.42 191.83 183.29C191.61 183.23 191.39 183.17 191.17 183.11C190.74 183 191.56 183.25 191.43 183.19C191.32 183.14 191.19 183.12 191.08 183.08C190.21 182.77 189.3 182.45 188.52 181.94C186.65 180.71 185.71 184.63 185.6 185.71C185.4 187.63 185.36 191.11 187.26 192.35L187.24 192.36Z" fill="black"/>
<path d="M84.01 254.76C85.21 257.44 87.1899 259.52 89.1299 261.69L91.3799 264.21C91.7899 264.67 92.21 265.14 92.62 265.6C92.62 265.6 93.5299 266.61 93.0899 266.12C96.2099 269.64 99.32 273.07 103.28 275.68C111.18 280.89 120.28 284.38 129.74 285.23C130.97 285.34 132.21 284.11 132.79 283.2C133.62 281.89 134.04 279.98 133.96 278.45C133.8 275.56 132.63 272.29 129.41 271.88C124.93 271.32 121.79 270.86 117.33 269.52C113.33 268.32 109.38 267.04 105.77 264.89C106.32 265.21 105.31 264.59 105.21 264.53C104.72 264.21 104.24 263.87 103.77 263.52C102.93 262.9 102.13 262.24 101.34 261.56C99.7799 260.19 98.2799 258.72 96.8799 257.19C95.3899 255.57 93.94 253.91 92.48 252.27C91.02 250.63 89.4499 248.69 87.3399 247.72C85.9599 247.08 84.65 248.38 84.12 249.49C83.38 251.05 83.29 253.15 84.01 254.74V254.76Z" fill="black"/>
<path d="M152.82 281.57C154.19 282.17 155.29 281.96 156.71 281.77L160.09 281.31C162.1 281.04 164.12 280.87 166.12 280.57C167.82 280.31 169.54 279.92 171.12 279.21C173.48 278.14 174.87 276.3 175.86 273.96C176.85 271.62 176.34 268.41 174.71 266.58C173.3 265 170.81 265.06 169.78 267.15C169.64 267.42 169.4 267.7 169.29 267.97C169.57 267.26 169.87 267.27 169.41 267.75C169.21 267.96 169.02 268.16 168.8 268.35C168.71 268.43 168.61 268.51 168.51 268.58C168.16 268.83 168.25 268.78 168.77 268.41C168.62 268.35 167.34 269.08 167.15 269.14C166.58 269.34 165.99 269.5 165.4 269.65L166.36 269.43C164.27 269.91 162.13 270.19 160.01 270.48L156.44 270.97C155.82 271.05 155.18 271.11 154.56 271.23C154.13 271.31 153.66 271.38 153.25 271.53C152.84 271.68 152.22 272.25 151.82 272.55C150.46 273.58 150.22 276.02 150.39 277.52C150.57 279.09 151.26 280.89 152.82 281.58V281.57Z" fill="black"/>
<path d="M218.38 201.28C218.41 203.51 218.29 205.73 218.22 207.96C218.21 208.46 218.18 208.97 218.16 209.47C218.12 210.32 218.29 209.22 218.19 209.12C218.23 209.15 218.13 209.88 218.14 209.85C218.06 210.87 217.95 211.89 217.77 212.9C217.61 213.83 217.43 214.75 217.22 215.67C217.17 215.9 217.11 216.12 217.06 216.35C216.89 217.09 217.37 215.16 217.18 215.88C217.05 216.37 216.91 216.86 216.78 217.35C216.61 217.96 216.45 218.58 216.3 219.2C216.69 217.57 216.53 218.32 216.43 218.68C216.31 219.12 216.19 219.56 216.06 220C215.77 220.98 215.46 221.95 215.12 222.92C214.82 223.77 214.5 224.62 214.15 225.46C213.98 225.88 213.8 226.29 213.62 226.71C213.53 226.92 213.44 227.12 213.34 227.33C213.24 227.54 212.79 228.45 213.23 227.58C213.67 226.71 213.06 227.92 212.96 228.12C212.76 228.52 212.55 228.93 212.34 229.33C211.86 230.23 211.35 231.13 210.83 232.01C209.85 233.65 208.8 235.25 207.68 236.8C207.13 237.57 206.56 238.33 205.98 239.08C205.69 239.46 205.39 239.83 205.09 240.21C204.63 240.79 205.78 239.38 205.3 239.95C205.11 240.18 204.91 240.42 204.72 240.65C201.58 244.4 198.27 247.99 194.77 251.41C192.42 253.71 192.02 258.07 193.36 260.99C194.47 263.41 197.22 265.72 199.69 263.34C212.46 250.98 223.69 235.36 225 217.07C225.2 214.24 225.37 211.4 225.35 208.56C225.33 205.72 224.93 202.75 224.47 199.88C224.21 198.27 222.85 196.09 220.96 196.55C219.07 197.01 218.34 199.52 218.36 201.29L218.38 201.28Z" fill="black"/>
<path d="M25.4699 29.0604C19.0099 35.3304 13.4799 42.8004 9.07995 50.6304C2.37995 62.5404 0.489947 76.0404 0.0699474 89.5204C-0.140053 96.1704 0.0999475 102.86 0.849947 109.48C1.46995 115.02 2.42995 120.63 4.43995 125.85C6.07995 130.1 8.84995 133.98 11.6399 137.55C15.3899 142.34 19.5799 146.76 23.9799 150.96C32.9399 159.5 43.1899 167.57 55.0199 171.65C68.6199 176.34 83.8999 178.14 98.0999 175.32C101.12 174.72 104.12 173.89 106.98 172.74C110.43 171.36 113.72 169.5 116.99 167.76C122.03 165.07 127.01 162.26 131.89 159.29C136.46 156.51 137.86 150.27 137.81 145.28C137.75 139.18 135.55 133.52 132.16 128.51C129.95 125.25 127.29 122.33 124.47 119.59C122.03 117.23 119.5 114.91 116.64 113.07C113.78 111.23 110.12 109.52 106.77 110.95C104.85 111.77 103.53 113.77 102.83 115.67C102.42 116.79 102.22 117.64 102.01 118.81L103.67 115.04C101.15 116.49 98.4499 117.69 95.7499 118.75C90.5499 120.79 84.9499 122.3 79.1999 122.19C76.3499 122.13 73.66 121.68 71.16 120.47C68.19 119.03 65.2699 117.39 62.4899 115.61C61.1599 114.76 59.8499 113.85 58.5999 112.88C58.0099 112.43 57.4399 111.96 56.8799 111.47C56.6399 111.26 56.4099 111.06 56.1799 110.85C56.0299 110.71 55.8699 110.57 55.7199 110.43C55.9499 110.65 55.7199 110.43 55.6199 110.33C54.5699 109.28 53.5899 108.17 52.6999 106.98C52.2999 106.45 51.9299 105.91 51.5699 105.35C51.4999 105.25 50.9499 104.35 51.1699 104.72C51.4199 105.14 51.0899 104.57 51.0299 104.47C50.9299 104.29 50.8399 104.1 50.7399 103.92C50.4099 103.27 50.0999 102.6 49.8299 101.92C49.7099 101.62 49.4599 101.2 49.4299 100.87C49.4299 100.87 49.6699 101.69 49.5399 101.2C49.4699 100.94 49.3699 100.68 49.2999 100.42C49.0899 99.7204 48.9199 99.0104 48.7699 98.3004C48.5099 97.0604 48.8499 98.9704 48.7199 98.0504C48.6499 97.5804 48.5799 97.1004 48.5199 96.6304C48.4699 96.2004 48.4299 95.7704 48.3899 95.3504C48.3899 95.3104 48.3699 94.7904 48.3499 94.7904C48.3999 94.8004 48.3899 96.1204 48.3699 94.9204C48.3499 93.9404 48.3499 92.9704 48.3899 91.9904C48.4299 90.8904 48.4299 92.1504 48.3799 92.2204C48.4399 92.1504 48.4199 91.7304 48.4299 91.6304C48.4699 91.1804 48.5199 90.7204 48.5699 90.2704C48.6199 89.8204 48.6899 89.3904 48.7599 88.9504C48.7699 88.8704 48.8899 88.4604 48.8499 88.4004C48.7299 89.0304 48.7099 89.1604 48.7799 88.7904C48.7999 88.6704 48.8299 88.5504 48.8499 88.4404C49.0199 87.6404 49.2099 86.8504 49.4199 86.0604C49.5099 85.7404 49.5999 85.4204 49.6999 85.1004C49.7599 84.8904 49.8299 84.6804 49.8899 84.4804C49.9299 84.3604 50.1699 83.6704 49.9599 84.2704C49.7299 84.9004 50.1299 83.8104 50.1899 83.6504C50.3099 83.3304 50.4399 83.0104 50.5699 82.6904C50.8299 82.0504 51.1099 81.4204 51.3999 80.7904C51.6499 80.2704 51.8999 79.7504 52.1699 79.2404C52.2799 79.0404 52.3899 78.8404 52.4899 78.6404C52.7699 78.1004 52.0599 79.3504 52.5299 78.5704C52.9299 77.9004 53.3499 77.2404 53.7899 76.5904C53.9999 76.2904 54.2899 75.9904 54.4699 75.6704C54.5299 75.5704 53.5599 76.4304 54.3499 75.8704C55.7799 74.8504 57.0799 73.4704 58.0299 72.0004C62.5699 65.0504 61.6499 56.0004 57.9099 48.9204C54.6699 42.8004 50.1799 37.3704 45.0499 32.7304C43.5899 31.4104 41.9999 29.9704 40.1499 29.2004C37.2399 27.9904 33.6899 25.8504 30.4399 26.2604C28.3699 26.5204 26.8899 27.6504 25.4699 29.1004C24.7799 29.8004 24.4899 31.4404 24.3799 32.3304C24.2199 33.6304 24.2499 35.2204 24.6199 36.4904C25.0999 38.1304 26.1999 40.1304 27.8699 38.4304C29.3699 36.9004 31.3899 36.7704 33.3599 37.3704C35.3299 37.9704 37.4499 38.9104 39.3199 39.8104C40.5699 40.4204 41.6899 41.3404 42.7399 42.2304C44.3799 43.6204 45.1999 44.4404 46.7099 46.0504C48.3299 47.7904 49.8599 49.6104 51.2699 51.5204C51.9599 52.4404 52.6099 53.3904 53.2399 54.3504C53.5599 54.8504 53.8699 55.3604 54.1799 55.8704C54.2399 55.9704 54.5299 56.5004 54.2199 55.9404C54.3899 56.2404 54.5499 56.5504 54.7099 56.8604C55.2199 57.8504 55.6599 58.8604 56.0699 59.9004C56.1399 60.0804 56.2299 60.5704 56.0699 59.8604C56.1399 60.1604 56.2199 60.4804 56.3199 60.7804C56.5499 61.5004 56.1799 59.5804 56.3199 60.7204C56.3499 60.8904 56.3699 61.0604 56.3799 61.2304C56.4199 61.6604 56.4099 61.4504 56.3499 60.6204C56.2999 60.8204 56.3399 61.2004 56.3499 61.4104C56.3999 62.1404 56.4999 59.9804 56.3499 61.0304C56.2299 61.8704 56.4199 60.6604 56.4499 60.6004C56.3599 60.7904 56.3299 61.0804 56.2899 61.2804C56.1699 61.8404 55.8899 61.6804 56.3799 61.0904C56.2999 61.1804 56.2399 61.4504 56.1899 61.5804C56.0599 61.8904 55.2799 63.2004 55.8899 62.2804C55.4999 62.8604 55.1199 63.4404 54.6699 63.9804C54.4799 64.2004 54.2799 64.4104 54.0899 64.6204C54.0299 64.6904 53.5999 65.1004 53.9999 64.7104C54.3999 64.3204 53.9099 64.7904 53.8199 64.8604C53.2699 65.3204 52.6199 65.7104 52.1399 66.2604C50.9299 67.6404 50.0099 69.4004 49.1299 70.9904C44.2199 79.9504 42.4799 91.0604 44.1599 101.11C44.9999 106.15 46.6299 110.95 49.4999 115.21C51.8999 118.78 55.1599 121.78 58.6299 124.29C62.0999 126.8 66.2399 129.27 70.3099 131.1C74.3799 132.93 78.47 133.26 82.66 132.87C89.77 132.21 96.8199 129.65 103.15 126.42C103.7 126.14 104.3 125.87 104.82 125.53C106.07 124.7 106.33 123.06 106.58 121.7C106.18 123.83 106.26 123.29 106.38 122.81C106.41 122.67 106.47 122.53 106.5 122.39C106.32 123.28 106.05 123.58 106.37 122.83C106.62 122.25 106.96 122.12 106.26 122.94C106.45 122.71 106.61 122.42 106.79 122.18C106.87 122.07 107.01 121.98 107.07 121.87C106.98 122.03 106.42 122.38 106.9 122.05C107.2 121.84 107.49 121.65 107.82 121.47C107.97 121.39 108.14 121.36 108.28 121.28C107.62 121.66 108.01 121.34 108.33 121.29C108.8 121.22 109.26 121.19 109.74 121.21C110.25 121.24 110.75 121.34 111.25 121.46C111.94 121.62 111.01 121.33 111.7 121.61C112.03 121.74 112.36 121.87 112.68 122.02C114.36 122.78 115.91 123.81 117.38 124.92C121.77 128.23 125.76 132.32 128.98 136.77C129.62 137.65 130.2 138.56 130.78 139.48C131.36 140.4 130.45 138.84 130.96 139.78C131.06 139.97 131.16 140.15 131.26 140.34C131.51 140.83 131.76 141.32 131.98 141.83C132.15 142.21 132.31 142.6 132.47 143C132.93 144.19 132.26 142.23 132.61 143.39C132.73 143.78 132.83 144.17 132.93 144.56C132.97 144.71 132.99 144.86 133.03 145.01C133.25 145.88 132.86 143.78 132.95 144.6C132.99 144.95 133.03 145.3 133.08 145.65C133.17 146.32 133.04 143.96 133.05 145.4C133.05 145.97 132.78 147.07 133.09 145.07C133.05 145.35 133.03 145.64 132.99 145.93C132.86 147 133.33 144.59 133.05 145.59C132.98 145.83 132.92 146.08 132.86 146.32C132.63 147.2 133.29 145.24 132.98 145.97C132.88 146.19 132.8 146.42 132.7 146.64C132.62 146.83 132.52 147.01 132.43 147.19C132.12 147.86 132.53 146.99 132.61 146.89C132.4 147.16 132.25 147.47 132.05 147.74C131.81 148.07 131.48 148.34 131.25 148.67C131.63 148.13 131.93 148.09 131.31 148.48C130.4 149.07 129.46 149.61 128.52 150.16C124.44 152.59 120.3 154.92 116.1 157.16C111.61 159.56 107.07 162.18 102.14 163.58C97.5399 164.88 92.7599 165.52 87.9899 165.74C77.1099 166.24 65.9299 164.69 55.6599 161.06C47.0199 158 39.3099 152.7 32.2999 146.89C25.2899 141.08 19.1599 134.94 13.6499 127.8C12.5299 126.34 11.4499 124.85 10.4499 123.32C10.0299 122.68 9.64995 122.01 9.23995 121.36C8.95995 120.91 9.68995 122.2 9.32995 121.51C9.25995 121.38 9.18995 121.25 9.11995 121.12C8.91995 120.75 8.72995 120.38 8.54995 120C8.28995 119.46 8.04995 118.91 7.82995 118.36C7.78995 118.25 7.55995 117.36 7.44995 117.31C7.66995 117.39 7.78995 118.4 7.55995 117.62C7.47995 117.35 7.38995 117.08 7.30995 116.8C7.08995 116.05 6.89995 115.3 6.71995 114.55C6.60995 114.1 6.50995 113.66 6.41995 113.21C6.37995 113.03 6.33995 112.84 6.29995 112.66C6.26995 112.5 6.02995 111.25 6.19995 112.17C6.36995 113.09 6.18995 112.08 6.15995 111.94C6.12995 111.74 6.08995 111.54 6.05995 111.35C5.97995 110.84 5.89995 110.34 5.81995 109.83C5.66995 108.77 5.52995 107.71 5.40995 106.65C5.28995 105.59 5.17995 104.43 5.08995 103.32C5.03995 102.75 4.99995 102.18 4.95995 101.6C4.93995 101.37 4.92995 101.14 4.90995 100.91C5.03995 102.53 4.92995 101.26 4.90995 100.94C4.65995 96.1204 4.68995 91.2904 4.92995 86.4704C4.97995 85.4604 4.87995 86.7604 4.90995 86.8204C4.81995 86.6404 4.95995 86.1304 4.96995 85.9204C5.00995 85.3804 5.04995 84.8404 5.08995 84.3004C5.19995 83.0004 5.31995 81.7004 5.47995 80.4104C5.59995 79.3804 5.73995 78.3504 5.88995 77.3204C5.96995 76.7604 6.05995 76.2004 6.14995 75.6504C6.18995 75.4304 6.21995 75.2104 6.25995 74.9904C6.29995 74.7704 6.33995 74.5504 6.37995 74.3404C6.24995 75.0404 6.21995 75.2004 6.28995 74.8204C6.73995 72.8404 7.12995 70.8604 7.70995 68.9104C7.85995 68.3904 8.02995 67.8704 8.19995 67.3504C7.90995 68.2104 8.19995 67.4004 8.26995 67.1804C8.37995 66.8804 8.48995 66.5804 8.60995 66.2804C9.06995 65.0904 9.57995 63.9104 10.1299 62.7504C10.6799 61.5904 11.2599 60.4504 11.8699 59.3204C11.9899 59.1004 12.1199 58.8704 12.2399 58.6504C12.8299 57.5804 12.0599 58.9604 12.4199 58.3404C12.7799 57.7204 13.1199 57.1504 13.4899 56.5604C14.7599 54.5104 16.1099 52.5104 17.5399 50.5604C19.7899 47.4804 22.1999 44.5304 24.7599 41.7004C25.7699 40.5904 26.7899 39.4804 27.8699 38.4404C28.5599 37.7704 28.8499 36.0704 28.9599 35.2104C29.1199 33.9104 29.0899 32.3204 28.7199 31.0504C28.2299 29.3604 27.1599 27.4704 25.4699 29.1104V29.0604Z" fill="black"/>
<path d="M55.9 62.2003C56.08 61.9803 56.71 61.3503 56.96 61.5203C56.93 61.5003 56.82 61.5403 56.79 61.5303C56.59 61.4803 56.33 61.5103 56.12 61.4803C55.43 61.4003 54.75 61.2403 54.08 61.0703C53.84 61.0103 53.6 60.9503 53.36 60.8803C53.16 60.8303 52.4 60.5803 53.22 60.8403C52.65 60.6603 52.08 60.4703 51.51 60.2603C50.3 59.8203 49.12 59.3103 47.96 58.7503C45.07 57.3503 42.34 55.6003 39.89 53.5303C39.53 53.2203 39.17 52.9103 38.82 52.5903C38.7 52.4803 38.58 52.3703 38.47 52.2603C37.87 51.7103 38.9 52.7203 38.34 52.1303C37.65 51.4003 36.95 50.6903 36.3 49.9203C35.03 48.4303 33.93 46.8303 32.91 45.1603C32.41 44.3503 33.28 45.8803 32.84 45.0303C32.69 44.7403 32.53 44.4503 32.38 44.1503C32.09 43.5903 31.82 43.0203 31.57 42.4503C31.32 41.8803 31.1 41.3603 30.88 40.8003C30.77 40.5203 30.67 40.2303 30.56 39.9503C30.19 38.9503 30.85 40.9003 30.53 39.8703C30.12 38.5303 29.75 37.1803 29.46 35.8103L29.39 35.4803C29.29 34.9403 29.3 35.0403 29.44 35.7703C29.3 35.5403 29.31 35.0103 29.28 34.7503C29.16 33.9303 29.06 33.1003 28.98 32.2803C28.86 31.0803 27.98 27.4203 26.06 28.5103C24.14 29.6003 24.23 33.3903 24.4 35.1503C25.41 45.5903 29.49 55.4703 37.22 62.6803C41.82 66.9703 47.45 70.0403 53.51 71.7103C54.99 72.1203 57.16 72.9403 58.32 71.5203C59.81 69.7103 59.8 66.2703 59.17 64.1303C58.75 62.6803 57.48 60.3003 55.92 62.1903L55.9 62.2003Z" fill="black"/>
<path d="M102.24 117.51C101.32 121.38 101.69 125.66 102.73 129.46C104.71 136.72 109.38 142.69 114.95 147.61C119.97 152.05 125.74 155.57 131.68 158.62C134.8 160.22 135.89 149.72 132.94 148.21C127.84 145.59 122.89 142.63 118.41 139.05C115.25 136.52 112.78 134.16 110.3 130.73C109.87 130.14 109.46 129.53 109.07 128.91C108.9 128.64 108.61 128.3 108.51 127.98C108.79 128.88 108.75 128.42 108.58 128.1C108.49 127.92 108.39 127.75 108.3 127.57C108.01 127.01 107.74 126.44 107.49 125.86C107.38 125.59 107.26 125.32 107.16 125.05C106.86 124.28 106.95 124.39 107.16 125.13C107.02 124.67 106.87 124.21 106.75 123.74C106.69 123.51 106.64 123.28 106.59 123.05C106.56 122.92 106.54 122.79 106.51 122.65C106.36 121.99 106.74 124.12 106.66 123.43C106.61 123.04 106.54 122.65 106.5 122.26C106.48 122.08 106.48 121.91 106.45 121.73C106.41 121.38 106.5 123.57 106.5 122.54C106.5 122.23 106.5 121.91 106.5 121.6C106.5 120.88 106.33 123.43 106.44 122.58C106.45 122.48 106.46 122.38 106.47 122.28C106.49 122.13 106.52 121.99 106.53 121.84C106.57 121.38 106.18 123.57 106.33 122.95C106.86 120.72 107 117.47 105.48 115.56C103.96 113.65 102.57 116.05 102.23 117.5L102.24 117.51Z" fill="black"/>
<path d="M25.5099 61.2003C23.3299 62.1303 21.9699 65.4803 20.9199 67.4703C19.0399 71.0203 17.2599 74.5903 16.2799 78.5103C14.2899 86.4303 14.1199 95.2803 16.1799 103.21C16.5499 104.62 17.1099 106.18 18.2899 107.15C19.1899 107.88 20.5799 108.3 21.6799 107.74C24.4899 106.31 25.1599 102.25 24.5399 99.4603C24.1599 97.7603 23.7699 96.0503 23.4899 94.3303C23.4299 93.9403 23.3699 93.5503 23.3099 93.1603C23.2799 92.9303 23.2499 92.6903 23.2199 92.4503L23.3099 93.2203C23.4399 92.4603 23.1499 91.3703 23.0999 90.6003C22.9799 88.9403 22.9199 87.2803 22.9299 85.6103C22.9499 84.0603 22.7799 86.8703 22.9499 85.3103C22.9899 84.9203 23.0299 84.5303 23.0799 84.1403C23.1899 83.2803 23.3399 82.4403 23.4999 81.6003C23.6799 80.6003 23.3599 81.9603 23.5399 81.3603C23.6499 80.9903 23.7499 80.6103 23.8699 80.2403C24.1299 79.4303 24.4199 78.6303 24.7399 77.8403C24.8899 77.4803 25.0299 77.1203 25.1899 76.7703C24.8299 77.5603 25.4699 76.2503 25.4799 76.2203C25.8299 75.5403 26.1899 74.8603 26.5599 74.1803C27.2599 72.8903 27.9099 71.5803 28.5399 70.2503C29.2499 68.7603 29.4999 67.4003 29.5899 65.7203C29.6999 63.7603 28.0599 60.1203 25.5099 61.2103V61.2003Z" fill="black"/>
<path d="M24.9 118.83C24.91 119.99 25.05 121.26 25.56 122.32C25.74 122.69 25.95 123.06 26.14 123.43L27.35 125.75C28.11 127.2 28.81 128.68 29.57 130.13C30.02 130.99 30.47 131.86 31 132.67C31.53 133.48 32.17 134.17 32.82 134.88C33.24 135.34 33.68 135.74 34.2 136.08C35.28 136.78 36.3 137.1 37.6 137.14C38.69 137.17 39.69 136.23 40.22 135.39C40.94 134.27 41.29 132.62 41.22 131.31C41.15 130 40.88 128.4 40.02 127.28L39.24 126.4C38.69 125.92 38.05 125.67 37.32 125.66C37.2 125.65 37.09 125.63 36.97 125.61L37.98 125.79C37.29 125.64 36.6 125.33 36 124.97L36.91 125.52C36.47 125.24 36.11 124.9 35.76 124.52L36.52 125.38C35.4 124.09 34.61 122.56 33.79 121.07L34.37 122.15C33.77 121.01 33.18 119.86 32.58 118.72C31.65 116.94 30.9 114.73 28.89 113.96C27.77 113.53 26.77 114.05 26.08 114.92C25.18 116.03 24.88 117.43 24.9 118.84V118.83Z" fill="black"/>
<path d="M100.87 144.64C96.84 145.84 93.29 146.94 89.22 147.16C85.42 147.37 81.65 147.55 77.86 147.07C77.46 147.02 77.06 146.96 76.66 146.9C76.39 146.86 76.12 146.82 75.86 146.77C76.36 146.86 76.35 146.86 75.83 146.76C74.89 146.56 73.96 146.36 73.03 146.12C71.11 145.63 69.22 145.03 67.36 144.36C63.32 142.89 59.35 141.22 55.47 139.38C54.31 138.83 52.84 139.38 51.96 140.17C50.86 141.17 50.14 142.96 49.96 144.39C49.57 147.48 50.29 151.4 53.37 152.89C61.23 156.69 69.42 159.65 78.2 160.26C82.38 160.55 86.56 160.28 90.59 159.06C92.53 158.48 94.45 157.77 96.36 157.08C98.66 156.24 100.7 155.09 102.77 153.79C104.68 152.59 105.33 150.03 104.81 147.88C104.35 145.96 103.09 143.99 100.88 144.65L100.87 144.64Z" fill="black"/>
<path d="M176.62 111.4C182.38 116.77 189.19 121.39 196.26 124.82C206.52 129.8 217.83 130.77 229.08 130.4C234.56 130.22 240.06 129.71 245.46 128.71C249.6 127.95 253.94 126.98 257.7 125.03C261.46 123.08 264.45 120.48 267.41 117.78C271.5 114.05 275.32 110.02 278.85 105.76C286.22 96.8502 292.5 86.9002 295.43 75.6202C298.9 62.3002 299.47 47.5202 296 34.1302C295.26 31.2902 294.32 28.4502 293.05 25.8002C291.56 22.6902 289.7 19.7302 287.92 16.7702C285.34 12.4702 282.66 8.2302 279.84 4.0902C277.76 1.0302 273.95 -0.269797 270.31 0.0502031C265.75 0.460203 261.58 2.9702 258.14 5.8302C253.2 9.9402 248.55 15.0602 245.59 20.8102C242.79 26.2502 241.68 37.0702 249.22 39.1902C249.48 39.2602 249.74 39.3402 250.01 39.3702L248.81 38.6302C248.91 38.7902 249.01 38.9502 249.11 39.1202C249.22 39.3002 249.33 39.4902 249.44 39.6802C249.51 39.8002 249.58 39.9102 249.64 40.0302C250 40.6402 249.23 39.2902 249.51 39.8002C250.4 41.4302 251.25 43.0802 252.02 44.7702C252.5 45.8502 252.95 46.9402 253.37 48.0402C253.48 48.3202 253.58 48.6002 253.68 48.8802C253.73 49.0102 253.81 49.1702 253.83 49.3102C253.83 49.3102 253.56 48.4602 253.7 48.9402C253.89 49.5802 254.11 50.2202 254.29 50.8702C254.46 51.4802 254.62 52.0902 254.76 52.7002C254.83 53.0102 254.89 53.3202 254.96 53.6302C255.09 54.2502 254.75 53.7002 254.9 53.2702C254.85 53.4002 254.98 53.7502 255 53.9002C255.1 54.5302 255.16 55.1502 255.23 55.7802C255.34 56.7602 255.21 54.6202 255.23 55.6002C255.23 55.9702 255.25 56.3302 255.25 56.6902C255.25 56.9102 255.2 58.0102 255.25 57.0602C255.3 56.1102 255.23 57.2002 255.2 57.4202C255.17 57.7302 255.11 58.0302 255.07 58.3302C255.02 58.8602 255.17 57.8002 255.17 57.7902C255.08 57.9002 255.07 58.2502 255.03 58.3902C254.96 58.6902 254.87 58.9802 254.79 59.2702C254.56 60.0702 255.1 58.5702 254.76 59.3302C254.46 60.0102 254.17 60.6902 253.86 61.3602C253.25 62.6802 252.62 63.9802 251.95 65.2702C251.64 65.8702 251.32 66.4602 250.99 67.0502C251.3 66.4902 250.93 67.1502 250.81 67.3502C250.62 67.6802 250.42 68.0002 250.22 68.3302C248.84 70.5402 247.28 72.6302 245.46 74.4902C245.35 74.6002 245.25 74.7102 245.14 74.8102C245.19 74.7602 245.42 74.5502 245.16 74.7902C244.94 74.9902 244.71 75.2002 244.48 75.3902C243.98 75.8202 243.47 76.2202 242.94 76.6102C241.91 77.3602 240.82 78.0202 239.68 78.5902C234.29 81.2902 227.83 81.6802 221.95 80.7302C217.84 80.0702 213.84 78.6602 210.27 76.4002C210.03 76.2502 209.75 75.9802 209.49 75.8802C209.79 75.9902 210.28 76.6802 209.68 75.9702C208.59 74.6702 207.23 73.5002 205.73 72.7002C200.38 69.8702 194.78 72.1402 190.15 75.3102C185.52 78.4802 181.11 82.6502 177.77 87.2402C177.1 88.1602 176.49 89.1302 175.97 90.1402C175.83 90.4102 175.71 90.6802 175.6 90.9602C175.41 91.4702 175.25 92.0002 175.08 92.5302C175.35 91.7102 175 92.7302 174.89 93.0202C173.31 97.2302 172.05 101.58 173.28 106.09C173.87 108.26 174.96 109.92 176.63 111.41C177.24 111.95 178.1 111.31 178.46 110.87C179.12 110.05 179.45 108.65 179.55 107.64C179.78 105.42 179.67 102.59 177.89 101C177.78 100.9 177.67 100.78 177.57 100.67C177.61 100.72 176.89 99.7502 177.2 100.2C177.46 100.57 177.1 99.5402 177.24 100.26C177.33 100.7 177.47 101.12 177.5 101.57C177.51 101.7 177.43 103.31 177.51 102.61C177.59 101.91 177.14 103.82 177.51 102.77C177.58 102.56 177.64 102.32 177.7 102.11C177.54 102.69 177.57 102.49 177.73 102.03C178.18 100.8 178.65 99.5902 179.06 98.3502C179.14 98.1202 179.24 97.8802 179.29 97.6402C178.88 99.4502 178.9 98.6302 179.05 98.3602C179.15 98.1802 179.38 97.8302 179.41 97.6402C179.34 98.1902 178.98 98.3302 179.22 97.9902C179.3 97.8802 179.37 97.7502 179.44 97.6402C179.63 97.3502 179.82 97.0702 180.02 96.7902C180.49 96.1302 180.98 95.5002 181.5 94.8802C182.7 93.4202 184 92.0302 185.35 90.7102C187.96 88.1702 191.45 85.4002 194.95 83.6202C196.66 82.7602 198.39 82.1602 200.32 82.1502C202.04 82.1502 203.13 82.4202 204.56 83.2002C205.11 83.5002 205.64 83.8502 206.14 84.2402C206.34 84.4002 206.53 84.5702 206.73 84.7302C207.37 85.2702 206.37 84.3002 206.86 84.8602C207.28 85.3402 207.68 85.8902 208.17 86.2802C209.35 87.2202 210.81 87.9102 212.16 88.5502C219.57 92.0102 228.35 93.0802 236.25 90.7902C243.71 88.6302 249.18 83.4102 253.1 76.8402C255.31 73.1302 257.46 69.1602 258.77 65.0402C260.19 60.6002 260.25 55.6202 259.55 51.0402C258.47 43.9502 255.77 37.2402 252.21 31.0502C251.59 29.9702 251.17 28.9002 249.86 28.5702C249.75 28.5402 249.64 28.5202 249.53 28.5002C248.86 28.3502 250.06 28.7502 249.58 28.5202C249.16 28.3202 248.73 28.1702 248.34 27.9002C248.23 27.8202 248.12 27.7302 248.01 27.6502C247.47 27.3002 248.36 28.1102 248.19 27.8402C248.07 27.6502 247.8 27.2302 247.63 27.1102C247.84 27.2702 248.13 28.0902 247.86 27.4602C247.63 26.9202 248.25 28.7902 248.04 28.0002C247.81 27.1402 248.25 29.3402 248.16 28.6602C248.09 28.1002 248.18 30.4702 248.21 29.2502C248.16 31.2902 248.13 30.4102 248.21 29.8902C248.3 29.2302 247.88 31.4102 248.18 30.2102C248.48 29.0102 247.89 30.8402 248.15 30.2302C248.29 29.9102 248.41 29.5902 248.55 29.2702C248.71 28.9202 248.89 28.5802 249.06 28.2302C249.14 28.0702 249.41 27.6202 248.99 28.3402C249.09 28.1702 249.19 28.0002 249.29 27.8302C249.81 26.9702 250.39 26.1402 250.98 25.3302C253.86 21.4302 257.25 17.7502 261.17 14.8702C262.61 13.8102 264.14 12.8602 265.77 12.1202C267.25 11.4402 267.81 11.2402 269.38 10.9902C270.45 10.8202 271.55 10.7702 272.63 10.9002C273.07 10.9502 273.51 11.0302 273.94 11.1302C274.03 11.1502 274.7 11.3502 274.24 11.2102C273.78 11.0702 274.5 11.3102 274.61 11.3602C275.58 11.7402 276.33 12.3002 277.16 12.8902C277.53 13.1502 276.63 12.1702 276.75 12.5002C276.79 12.6002 276.89 12.7002 276.94 12.7802C277.43 13.5502 277.97 14.2902 278.48 15.0502C280.74 18.4402 282.92 21.8902 285.03 25.3702C287.32 29.1602 289.59 32.9002 291.13 37.0702C290.78 36.1302 291.19 37.2702 291.29 37.5902C291.43 38.0302 291.56 38.4802 291.68 38.9302C291.97 39.9702 292.22 41.0202 292.44 42.0802C292.49 42.3002 292.57 42.5702 292.59 42.8002C292.5 41.7002 292.51 42.3302 292.55 42.6102C292.64 43.1702 292.74 43.7302 292.82 44.2902C292.99 45.4402 293.13 46.6002 293.23 47.7502C293.29 48.3402 293.33 48.9302 293.37 49.5302C293.39 49.8502 293.55 50.5002 293.36 49.2902C293.4 49.5402 293.39 49.8502 293.4 50.0902C293.45 51.3102 293.47 52.5402 293.46 53.7602C293.46 54.8702 293.41 55.9702 293.37 57.0702C293.32 58.4402 293.44 56.2302 293.37 57.0902C293.35 57.3702 293.33 57.6502 293.31 57.9302C293.26 58.6302 293.19 59.3302 293.12 60.0302C293 61.2202 292.84 62.4102 292.67 63.6002C292.59 64.1602 292.49 64.7202 292.4 65.2702C292.37 65.4702 292.23 66.2302 292.41 65.2302C292.33 65.6502 292.25 66.0602 292.16 66.4802C291.68 68.8202 291.09 71.1402 290.37 73.4302C290.31 73.6202 290.25 73.9202 290.15 74.1202C290.62 73.1402 290.28 73.7402 290.18 74.0302C290.04 74.4202 289.9 74.8102 289.75 75.1902C289.4 76.0902 289.02 76.9702 288.62 77.8402C288.22 78.7102 287.81 79.5402 287.38 80.3802C287.17 80.7802 286.96 81.1902 286.74 81.5802C286.63 81.7802 286.52 81.9802 286.41 82.1802C286.39 82.2202 285.83 83.2002 286.21 82.5402C284.09 86.1802 281.72 89.6602 279.15 93.0102C276.58 96.3602 273.86 99.5402 270.97 102.58C268.39 105.3 266.21 107.4 263.27 109.84C261.13 111.62 258.87 113.34 256.39 114.63C253.68 116.04 251.34 116.65 248.46 117.3C240.57 119.09 232.36 119.73 224.28 119.67C216.2 119.61 208.25 118.94 200.87 115.93C193.49 112.92 186.99 108.58 180.96 103.66C179.9 102.8 178.85 101.92 177.85 100.99C177.25 100.44 176.37 101.1 176.02 101.53C175.36 102.35 175.03 103.75 174.93 104.76C174.7 107.02 174.83 109.76 176.59 111.4H176.62Z" fill="black"/>
<path d="M204.46 83.1201C203.38 82.3001 203.01 80.7001 202.86 79.5301C202.94 80.1501 202.78 77.6901 202.79 78.3201C202.79 79.3401 202.98 76.4501 202.83 77.6301C202.79 77.9001 202.76 78.1801 202.72 78.4501C202.59 79.3401 202.9 77.5501 202.85 77.7501C202.8 77.9701 202.76 78.1901 202.71 78.4001C202.51 79.3101 202.25 80.1901 201.98 81.0801C201.68 82.0601 202.38 79.9801 202.03 80.9501C201.93 81.2301 201.83 81.5101 201.72 81.7801C201.49 82.3701 201.25 82.9501 200.99 83.5201C200.73 84.0901 200.48 84.6101 200.21 85.1501C200.05 85.4601 199.88 85.7701 199.72 86.0801C199.6 86.3101 199.52 86.6601 199.89 85.8001C199.81 85.9901 199.66 86.1901 199.56 86.3601C198.79 87.6401 197.94 88.8601 197 90.0201C196.52 90.6201 196.01 91.2001 195.49 91.7701C195.26 92.0101 195.03 92.2501 194.8 92.4901C194.73 92.5601 194.11 93.1401 194.64 92.6501C194.45 92.8301 194.26 93.0001 194.07 93.1701C192.8 94.3101 191.43 95.3301 189.98 96.2401C186.08 98.6901 181.79 100.11 177.26 100.79C175.18 101.1 174.85 104.57 174.88 106.19C174.91 107.48 175.03 108.82 175.58 110.01C175.85 110.6 176.45 111.71 177.26 111.59C185.93 110.3 193.77 106.29 199.32 99.4401C203.04 94.8601 205.73 89.1601 206.92 83.3701C207.25 81.7801 207.48 80.2501 207.53 78.6201C207.59 76.6801 207.38 73.9601 205.72 72.6901C205.07 72.2001 204.29 72.7401 203.89 73.2301C203.23 74.0501 202.9 75.4501 202.8 76.4601C202.59 78.5301 202.61 81.6901 204.46 83.1001V83.1201Z" fill="black"/>
<path d="M250 39.3601C252.14 39.7601 254.55 39.0501 256.54 38.3701C262.23 36.4301 266.89 31.9501 270.52 27.3101C274.15 22.6701 277.17 17.1201 279.66 11.6101C280.67 9.37014 280.68 6.21014 279.66 3.97014C279.35 3.30014 278.83 2.39014 277.98 2.39014C277.13 2.39014 276.59 3.33014 276.3 3.97014C274.12 8.81014 272.06 12.6901 268.93 16.9201C267.8 18.4501 266.58 19.9201 265.27 21.2901C264.98 21.5901 264.69 21.8801 264.4 22.1701C264.31 22.2601 263.98 22.5901 264.4 22.1701C264.24 22.3201 264.09 22.4601 263.93 22.6101C263.36 23.1301 262.77 23.6301 262.16 24.1001C260.25 25.6001 258.14 26.8701 255.87 27.7301C255.66 27.8101 255.44 27.8801 255.23 27.9601C254.57 28.1901 255.37 27.9401 255.11 28.0001C254.69 28.1001 254.28 28.2201 253.86 28.3101C253.23 28.4401 252.6 28.5301 251.96 28.5801C251.32 28.6301 250.65 28.6501 250.02 28.5301C249.26 28.3901 248.56 29.6401 248.34 30.1101C247.83 31.2301 247.62 32.7201 247.64 33.9301C247.67 35.6001 247.89 38.9401 250.02 39.3301L250 39.3601Z" fill="black"/>
<path d="M202.78 111.85C204.05 113.12 206.04 113.42 207.74 113.77C209.31 114.09 210.89 114.39 212.45 114.73C215.78 115.46 219.09 116.17 222.52 116C228.73 115.7 235.22 114.14 240.54 110.84C243.23 109.17 244.12 105.55 243.4 102.56C242.89 100.45 240.77 96.4303 237.9 98.0303C235.32 99.4603 232.75 100.89 229.99 101.97C227.23 103.05 224.73 104.06 222 104.41C219.27 104.76 216.29 104.63 213.61 104.18C212.03 103.92 210.46 103.53 208.89 103.21C207.17 102.87 204.97 102.2 203.32 103.05C200.24 104.63 200.65 109.7 202.78 111.84V111.85Z" fill="black"/>
<path d="M251.33 105.9C252.16 106.18 252.97 106.33 253.79 105.9C254.14 105.72 254.47 105.5 254.8 105.3L256.83 104.11C258.05 103.39 259.3 102.74 260.52 102.03C261.74 101.32 262.88 100.55 263.85 99.5604C264.7 98.6904 265.49 97.6204 265.9 96.4604C266.38 95.0904 266.57 93.6904 266.56 92.2404C266.54 90.1204 265.52 87.1104 263.16 86.6904C260.8 86.2704 259.27 88.9204 259.13 90.9004C259.11 91.1504 259.08 91.3804 259.02 91.6204L259.37 90.2304C259.26 90.6004 259.12 90.9604 258.96 91.3104L259.52 90.1304C259.36 90.4504 259.18 90.7504 258.97 91.0404L259.7 90.1404C259.02 90.9404 258.18 91.5904 257.31 92.1804L258.16 91.6104C256.94 92.4204 255.69 93.1704 254.42 93.9104L252.48 95.0504C252.17 95.2304 251.86 95.4104 251.56 95.5904C250.86 96.0204 250.34 96.5104 249.9 97.2004C249.62 97.6504 249.43 98.1804 249.21 98.6604C248.6 99.9804 248.75 101.72 249.15 103.07C249.49 104.18 250.13 105.48 251.33 105.88V105.9Z" fill="black"/>
<path d="M272.16 34.05C272.96 36.05 273.64 38.09 274.35 40.12C274.49 40.52 274.62 40.92 274.76 41.32C274.85 41.59 274.93 41.86 275.02 42.13C274.82 41.47 274.81 41.44 274.97 42.02C275.16 42.99 275.39 43.95 275.56 44.92C275.9 46.86 276.21 48.81 276.47 50.76C276.51 51.04 276.54 51.31 276.58 51.59C276.47 50.57 276.45 50.42 276.52 51.12C276.56 51.54 276.6 51.95 276.63 52.37C276.71 53.41 276.76 54.45 276.78 55.5C276.8 56.55 276.8 57.59 276.76 58.63C276.75 59.04 276.66 59.48 276.71 59.88C276.78 58.78 276.8 58.6 276.74 59.33C276.72 59.61 276.7 59.88 276.67 60.16C276.49 62.09 276.22 64.01 275.85 65.92C275.66 66.87 275.44 67.82 275.22 68.76C275.16 69.03 275.09 69.3 275.03 69.57C275.29 68.56 275.32 68.4 275.14 69.1C275.03 69.5 274.92 69.91 274.8 70.31C274.21 72.32 273.5 74.28 272.7 76.21C272.05 77.76 272.03 79.98 272.37 81.59C272.66 82.95 273.39 84.83 274.58 85.71C277.33 87.75 279.66 85.69 280.78 83.05C284.52 74.28 286.02 64.58 285.43 55.07C284.84 45.56 282.25 36.08 276.93 28.15C275.89 26.59 274.01 26.42 272.82 27.88C271.47 29.54 271.4 32.12 272.17 34.04L272.16 34.05Z" fill="black"/>
</g>
<defs>
<clipPath id="clip0_3416_10256">
<rect width="298.33" height="309.71" fill="white"/>
</clipPath>
</defs>
</svg>
