<svg width="233" height="279" viewBox="0 0 233 279" fill="none" xmlns="http://www.w3.org/2000/svg">
<g clip-path="url(#clip0_3416_12126)">
<path d="M163.94 5.86008C162.49 7.86008 161.03 9.86008 159.58 11.8701C155.62 17.3201 151.67 22.7701 147.71 28.2101C141.88 36.2401 136.05 44.2701 130.21 52.3001C123.1 62.0901 115.99 71.8801 108.87 81.6701C101.06 92.4301 93.24 103.18 85.43 113.94C77.62 124.7 69.66 135.65 61.77 146.51C54.44 156.6 47.11 166.69 39.78 176.78C33.58 185.31 27.39 193.84 21.19 202.37C16.73 208.51 12.28 214.64 7.82 220.78C5.7 223.7 3.54 226.59 1.46 229.53C1.37 229.66 1.28 229.78 1.19 229.9C0.0200019 231.51 -0.179998 234.09 0.100002 236C0.220002 236.81 0.390002 237.63 0.710002 238.38C0.910002 238.85 1.64 240.1 2.39 239.96C9.21 238.68 16.02 237.4 22.84 236.13C23.81 235.95 24.77 235.77 25.74 235.59L23.69 232.92C25.39 239.73 27.1 246.54 28.8 253.35C28.97 254.03 29.7 256.29 30.85 256.02C38.08 254.32 45.3 252.62 52.53 250.92C53.57 250.67 54.62 250.43 55.66 250.18L53.28 244.78C52.85 253.07 52.43 261.36 52 269.65C51.94 270.85 51.88 272.04 51.82 273.24C51.75 274.69 52.05 276.72 53 277.9C53.72 278.79 54.69 278.86 55.4 277.9C57.25 275.41 59.11 272.91 60.96 270.42C65.92 263.75 70.88 257.08 75.84 250.41C83.11 240.64 90.39 230.86 97.67 221.09C106.34 209.45 115.01 197.82 123.68 186.19C132.99 173.71 142.3 161.23 151.62 148.76C160.63 136.71 169.64 124.66 178.67 112.62C186.59 102.06 194.52 91.5101 202.47 80.9701C208.49 73.0001 214.51 65.0301 220.58 57.1001C223.77 52.9301 226.91 48.7001 230.29 44.6801C230.46 44.4801 230.64 44.2801 230.81 44.0801C231.1 43.7501 231.29 43.2701 230.58 44.2701C230.99 43.6901 231.6 43.4101 231.95 42.6501C233.04 40.3001 233.16 36.2101 231.48 34.0901C231.01 33.5001 230.54 33.3101 229.82 33.2101C227.41 32.8901 224.76 33.3301 222.35 33.5201C218.82 33.8001 215.29 34.1401 211.76 34.5001C210.07 34.6701 208.39 34.8501 206.7 35.0401L208.99 41.8801C210.05 35.0801 211.12 28.2701 212.18 21.4701L212.64 18.5301C212.9 16.8601 212.74 14.8301 212.03 13.2801C211.68 12.5201 210.75 11.1301 209.72 11.8901C204.19 15.9301 198.66 19.9701 193.13 24.0101C192.33 24.5901 191.54 25.1701 190.74 25.7501L193.66 29.5201C192.38 22.0701 191.11 14.6201 189.83 7.17008C189.65 6.10008 189.46 5.04008 189.28 3.97008C189.11 3.00008 188.96 2.01008 188.43 1.16008C188.17 0.75008 187.63 -0.14992 186.99 8.04607e-05C180.61 1.49008 174.24 2.98008 167.86 4.46008L165.1 5.10008C163.03 5.58008 162.69 8.75008 162.72 10.5001C162.75 11.7901 162.87 13.1301 163.42 14.3201C163.67 14.8701 164.32 16.0801 165.1 15.9001C171.48 14.4101 177.85 12.9201 184.23 11.4401L186.99 10.8001L184.7 6.84008C185.98 14.2901 187.25 21.7401 188.53 29.1901C188.71 30.2601 188.9 31.3201 189.08 32.3901C189.24 33.3101 190.14 37.5301 192 36.1601C197.53 32.1201 203.06 28.0801 208.59 24.0401C209.39 23.4601 210.18 22.8801 210.98 22.3001L208.06 15.6601C207 22.4601 205.93 29.2701 204.87 36.0701L204.41 39.0101C204.17 40.5601 204.33 42.2401 204.84 43.7201C205.09 44.4501 205.66 45.9601 206.71 45.8501C213.41 45.1101 220.14 44.3401 226.87 44.0301C227.62 44.0001 228.38 43.9601 229.14 43.9801C229.38 43.9801 229.62 44.0201 229.86 44.0201C229.91 44.0201 230.06 44.0801 230.1 44.0601C229.59 44.3501 228.61 42.5601 228.62 42.5901L227.92 38.7701V38.7901C228.03 37.8801 228.14 36.9701 228.25 36.0601C228.76 34.1701 230.29 33.0801 229.31 33.8701C229.01 34.1201 228.73 34.4201 228.46 34.7101C228.1 35.1001 227.76 35.5201 227.43 35.9301C226.18 37.4501 224.97 39.0101 223.76 40.5601C219.38 46.1801 215.06 51.8601 210.75 57.5401C204.37 65.9501 198.01 74.3801 191.66 82.8101C183.95 93.0501 176.26 103.31 168.57 113.57C160.16 124.79 151.76 136.03 143.37 147.26C134.98 158.49 126.44 169.93 117.99 181.27C110.11 191.84 102.23 202.41 94.36 212.98C87.71 221.91 81.06 230.84 74.41 239.78C69.63 246.2 64.85 252.63 60.08 259.05C57.82 262.09 55.48 265.09 53.29 268.19C53.2 268.32 53.1 268.44 53.01 268.57L56.59 273.23C57.02 264.94 57.44 256.65 57.87 248.36C57.93 247.16 57.99 245.97 58.05 244.77C58.11 243.57 57.85 242.04 57.35 240.95C57.1 240.4 56.45 239.18 55.67 239.37C48.44 241.07 41.22 242.77 33.99 244.47C32.95 244.72 31.9 244.96 30.86 245.21L32.91 247.88C31.21 241.07 29.5 234.26 27.8 227.45C27.62 226.73 26.92 224.56 25.75 224.78C18.93 226.06 12.12 227.34 5.3 228.61C4.33 228.79 3.37 228.97 2.4 229.15L3.6 239.21C5.05 237.21 6.51 235.21 7.96 233.2C11.92 227.75 15.87 222.3 19.83 216.86C25.66 208.83 31.49 200.8 37.33 192.77C44.44 182.98 51.55 173.19 58.67 163.4C66.48 152.64 74.3 141.89 82.11 131.13C89.92 120.37 97.88 109.42 105.77 98.5601C113.1 88.4701 120.43 78.3801 127.76 68.2901C133.96 59.7601 140.15 51.2301 146.35 42.7001L159.72 24.2901C161.84 21.3701 163.99 18.4801 166.08 15.5401C166.17 15.4101 166.26 15.2901 166.35 15.1701C167.76 13.2301 167.85 10.0201 167.2 7.78008C166.81 6.45008 165.42 3.82008 163.95 5.84008L163.94 5.86008Z" fill="#1D1D1B"/>
</g>
<defs>
<clipPath id="clip0_3416_12126">
<rect width="232.79" height="278.6" fill="white"/>
</clipPath>
</defs>
</svg>
