<svg width="291" height="271" viewBox="0 0 291 271" fill="none" xmlns="http://www.w3.org/2000/svg">
<g clip-path="url(#clip0_3416_12144)">
<path d="M18.71 268.509C19.06 268.579 19.4 268.699 19.75 268.779C19.78 268.779 20.05 268.909 20.05 268.909L19.55 268.609C20.27 269.219 19.88 268.479 18.4 266.389L18.35 264.159C18.35 264.159 19.52 261.749 19.46 261.819C19.29 261.989 20.07 261.409 19.97 261.479C19.89 261.539 19.78 261.559 19.68 261.599C19.29 261.759 20.11 261.569 19.99 261.539C19.87 261.509 19.68 261.589 19.56 261.589C19.27 261.589 18.98 261.559 18.69 261.579C18.24 261.599 18.93 261.639 18.92 261.619C18.89 261.579 18.55 261.479 18.49 261.479C18.17 261.459 19.07 261.929 18.72 261.619C18.93 261.809 19.09 262.049 19.24 262.319C19.65 263.099 19.82 263.939 19.77 264.819C19.75 265.229 19.7 265.619 19.56 266.009C19.77 265.409 19.14 266.629 19.4 266.299C20.55 264.829 21.33 262.839 22.02 261.129C23.49 257.469 24.26 253.529 24.86 249.639C25.51 245.489 25.97 241.319 26.32 237.129C27.7 220.689 27.24 203.539 20.09 188.339C16.59 180.909 11.71 174.089 5.21001 168.989L1.86001 178.399C9.74001 184.249 17.18 190.679 24.1 197.639C31.02 204.599 36.69 211.279 42.57 219.369C43.37 220.469 44.16 221.559 44.92 222.689C45.31 223.269 45.69 223.859 46.05 224.459C46.19 224.699 46.34 224.949 46.47 225.189C46.14 224.599 46.41 225.089 46.57 225.419C46.84 225.979 47.07 226.559 47.29 227.139C47.66 228.089 47.33 227.129 47.26 227.019C47.33 227.129 47.59 228.029 47.51 228.189L47.44 227.529L47.46 227.919C47.46 228.419 47.46 228.429 47.49 227.969C47.53 227.509 47.53 227.519 47.47 228.019C47.19 228.259 47.77 228.999 47.54 227.849C47.59 228.129 47.2 228.729 47.1 228.959L53.69 232.969C56.45 212.659 59.95 192.449 64.17 172.389L57.14 171.119C58.33 187.399 61.47 203.399 66.52 218.919C67.89 223.139 69.42 227.319 71.09 231.429C71.61 232.709 72.72 234.089 74.25 234.059C75.78 234.029 76.81 232.589 77.28 231.279C78.31 228.389 79.43 225.529 80.63 222.699C81.21 221.349 81.8 220.009 82.42 218.669C82.56 218.369 82.7 218.059 82.84 217.759C82.95 217.529 83.35 216.709 82.91 217.619C83.29 216.839 83.67 216.059 84.06 215.279C86.79 209.849 89.84 204.589 93.19 199.519C94.81 197.069 96.5 194.669 98.26 192.309C99.14 191.129 100.03 189.969 100.95 188.819C101.2 188.509 101.45 188.189 101.7 187.879C101.19 188.509 101.75 187.819 101.87 187.669C102.42 186.999 102.98 186.329 103.54 185.669C107.43 181.089 111.58 176.739 115.98 172.639C120.96 167.999 126.26 163.699 131.82 159.769L127.21 151.189C114.42 171.249 104.75 193.949 103.76 217.979C103.48 224.719 104.03 231.499 105.33 238.119C105.62 239.599 106.47 241.399 107.99 241.969C109.43 242.509 110.79 241.669 111.53 240.439C112.18 239.359 112.88 238.299 113.64 237.279C113.82 237.029 114.66 235.979 114.08 236.679C114.56 236.089 115.06 235.519 115.58 234.959C117.21 233.189 119 231.579 120.93 230.129C121.23 229.899 121.54 229.679 121.85 229.459C121.95 229.389 122.49 229.019 121.92 229.399C122.44 229.049 122.98 228.709 123.52 228.379C124.6 227.729 125.72 227.119 126.86 226.569C129.08 225.499 131.4 224.629 133.79 223.989C134.1 223.909 134.4 223.829 134.71 223.749C134.13 223.889 134.75 223.749 134.84 223.719C135.46 223.589 136.08 223.469 136.71 223.369C137.92 223.179 139.15 222.999 140.39 223.059L140.74 223.099C140.38 223.039 140.33 223.049 140.59 223.129C140.93 223.619 140.08 222.359 140.71 223.199C140.28 222.629 139.94 222.149 139.79 221.449C140.05 222.679 139.79 220.429 139.81 221.259C139.84 222.659 139.86 224.069 139.91 225.469C140.1 231.959 140.95 238.759 144.55 244.329C147.72 249.249 153.75 253.429 159.84 252.179C162.43 251.649 163.55 248.909 163.42 246.429C163.32 244.549 162.25 240.519 159.57 240.859C154.91 241.449 150.26 242.039 145.6 242.639C134.42 244.059 123.24 245.479 112.06 246.909C98.54 248.629 85.01 250.349 71.49 252.069C59.81 253.559 48.12 254.989 36.43 256.439C30.77 257.139 25.08 257.729 19.44 258.539C19.36 258.549 19.29 258.559 19.21 258.569C16.47 258.919 15.33 262.149 15.47 264.589C15.58 266.549 16.69 270.779 19.5 270.419C24.16 269.819 28.81 269.189 33.47 268.569C44.65 267.089 55.83 265.589 67.01 264.149C80.53 262.409 94.06 260.669 107.58 258.929C119.27 257.429 130.95 255.919 142.64 254.419C148.29 253.689 154 253.139 159.63 252.229C159.71 252.219 159.78 252.209 159.86 252.199L159.58 240.879C158.41 241.119 157.2 241.199 156.02 240.989C156.7 241.109 156.09 240.989 155.97 240.949C155.63 240.829 155.28 240.749 154.95 240.629C154.32 240.399 153.74 240.089 153.15 239.789C152.56 239.489 153.87 240.339 152.96 239.649C152.76 239.499 152.56 239.359 152.36 239.209C151.87 238.829 151.42 238.399 150.96 237.979C150.09 237.179 151.29 238.439 150.84 237.879C150.64 237.639 150.44 237.399 150.25 237.149C150.1 236.949 149.96 236.749 149.81 236.539C149.73 236.429 148.95 235.199 149.34 235.839C149.77 236.539 149.12 235.379 149.12 235.359C148.97 235.029 148.83 234.699 148.7 234.369C148.57 234.039 148.45 233.699 148.33 233.359C147.98 232.389 148.29 233.319 148.36 233.469C148.07 232.879 148 232.029 147.87 231.379C147.8 231.029 147.74 230.669 147.68 230.319C147.63 229.999 147.34 228.379 147.6 229.879C147.11 227.069 147.39 224.129 147.23 221.289C146.99 217.149 145.41 212.639 140.81 211.919C138.2 211.519 135.38 212.269 132.85 212.879C127.65 214.119 122.92 216.419 118.52 219.429C113.51 222.869 109.28 227.449 106.15 232.649L112.35 234.969C112.1 233.689 111.87 232.409 111.68 231.119C111.58 230.409 111.45 229.689 111.4 228.979C111.41 229.149 111.53 230.219 111.43 229.179C111.39 228.749 111.35 228.319 111.31 227.889C111.08 225.179 111 222.459 111.04 219.739C111.05 219.099 111.07 218.449 111.1 217.809C111.11 217.449 111.13 217.099 111.15 216.739C111.18 216.139 110.92 216.279 111.13 216.939C110.98 216.469 111.24 215.489 111.28 215.009C111.35 214.219 111.43 213.439 111.52 212.659C111.83 209.949 112.27 207.249 112.81 204.569C113.07 203.289 113.36 202.029 113.65 200.759C113.7 200.539 113.88 199.759 113.63 200.829C113.7 200.549 113.77 200.269 113.85 199.989C114.05 199.219 114.26 198.449 114.48 197.679C115.24 195.019 116.09 192.379 117.03 189.769C117.97 187.159 118.95 184.689 120.02 182.199C120.57 180.919 121.14 179.639 121.73 178.369C121.88 178.039 122.04 177.699 122.2 177.369C122.27 177.219 122.61 176.529 122.23 177.309C122.55 176.649 122.87 175.989 123.2 175.329C126.02 169.689 129.16 164.219 132.54 158.899C133.87 156.809 133.79 153.769 132.65 151.629C131.59 149.659 129.82 148.979 127.93 150.319C107.71 164.659 90.99 184.039 79.62 206.059C76.31 212.479 73.39 219.109 70.97 225.919L77.16 225.769C75.35 221.289 73.69 216.759 72.22 212.159C72.03 211.569 71.85 210.969 71.66 210.379C71.48 209.799 71.48 209.779 71.64 210.329C71.55 210.029 71.46 209.729 71.37 209.429C71.02 208.229 70.68 207.039 70.35 205.829C69.71 203.499 69.12 201.159 68.57 198.809C67.47 194.109 66.56 189.359 65.82 184.589C65.45 182.199 65.12 179.809 64.86 177.409C65.01 178.759 64.79 176.759 64.77 176.529C64.71 175.909 64.65 175.289 64.59 174.669C64.48 173.429 64.38 172.189 64.28 170.939C64.14 168.989 63.4 166.019 61.06 165.689C58.72 165.359 57.65 167.769 57.25 169.669C53.03 189.729 49.55 209.939 46.79 230.259C46.49 232.449 46.95 235.339 49 236.589C51.05 237.839 52.58 235.999 53.38 234.269C56.22 228.139 53.73 221.129 50.33 215.809C47.56 211.469 44.31 207.379 41.07 203.389C34.33 195.099 26.95 187.319 18.98 180.199C14.57 176.259 9.97001 172.529 5.22001 168.999C3.24001 167.529 1.11001 168.929 0.420007 171.059C-0.319993 173.319 -0.189993 176.789 1.87001 178.409C3.41001 179.619 4.87001 180.919 6.23001 182.329C6.55001 182.659 6.85001 182.989 7.16001 183.319C7.62001 183.809 6.77001 182.839 7.20001 183.369C7.32001 183.519 7.45001 183.669 7.58001 183.809C8.25001 184.609 8.89001 185.419 9.51001 186.259C10.63 187.779 11.66 189.369 12.6 191.009C12.77 191.299 13.3 192.289 12.87 191.479C13.11 191.939 13.36 192.409 13.59 192.879C14.03 193.759 14.44 194.659 14.83 195.559C15.62 197.369 16.31 199.219 16.92 201.099C16.98 201.289 17.04 201.479 17.1 201.669C17.39 202.579 17.12 201.669 17.06 201.519C17.23 201.939 17.32 202.409 17.44 202.849C17.7 203.799 17.94 204.759 18.16 205.719C18.64 207.849 19.02 209.989 19.32 212.149C19.35 212.379 19.57 214.289 19.45 213.129C19.5 213.609 19.55 214.089 19.59 214.569C19.71 215.849 19.8 217.139 19.86 218.429C19.98 220.849 20.01 223.269 19.98 225.689C19.96 226.819 19.93 227.949 19.89 229.089C19.87 229.659 19.84 230.219 19.81 230.789C19.79 231.109 19.78 231.439 19.76 231.759C19.75 231.969 19.67 233.099 19.75 232.049C19.42 236.779 18.91 241.499 18.45 246.219C18.24 248.379 18 250.539 17.61 252.679C17.52 253.179 17.42 253.669 17.31 254.159C17.26 254.369 17.21 254.579 17.17 254.789C17.01 255.499 17.36 254.199 17.14 254.899C16.81 255.929 16.52 256.959 16.12 257.959C15.67 259.099 15.51 259.249 14.94 260.429C14.54 261.269 14.25 262.089 14.09 263.029C13.76 265.059 14.22 267.699 15.88 269.089C17.39 270.349 19.81 270.479 21.56 269.599C23.9 268.409 24.22 265.119 23.33 262.919C22.57 261.049 21.04 260.609 19.23 260.379C17.42 260.149 16.73 262.819 16.66 264.019C16.57 265.369 17.01 268.149 18.71 268.499V268.509Z" fill="#1D1D1B"/>
<path d="M288.94 104.34C288.25 103.64 287.36 102.57 286.55 101.36C285.67 100.05 284.77 98.7495 284.02 97.3595C284.54 98.3095 283.92 97.1395 283.86 97.0095C283.74 96.7695 283.63 96.5295 283.52 96.2895C283.18 95.5695 282.86 94.8395 282.56 94.0995C282 92.7395 281.5 91.3495 281.03 89.9595C280.9 89.5795 280.78 89.1995 280.66 88.8095C280.59 88.5995 280.19 87.2995 280.57 88.5595C280.4 88.0095 280.23 87.4495 280.06 86.8995C279.66 85.6095 280.37 87.9495 279.99 86.6595C279.45 84.8195 278.9 82.9895 278.38 81.1395C277.42 77.7595 276.52 74.3695 275.66 70.9595C272.15 57.0295 269.46 42.8895 267.61 28.6495C267.48 27.6195 267.35 26.5895 267.22 25.5595C267.17 25.1595 267.12 24.7695 267.08 24.3695C267.05 24.1495 266.83 22.1395 266.97 23.4195C266.76 21.5195 266.56 19.6095 266.38 17.6995C265.98 13.5695 265.66 9.42954 265.4 5.28954C265.29 3.45954 264.64 0.889538 262.67 0.149538C260.7 -0.590462 259.41 1.18954 258.73 2.72954C250.3 21.6795 242.85 41.0695 236.46 60.8095C234.64 66.4295 232.91 72.0695 231.26 77.7395L236.8 76.5095C223.97 58.7995 204.08 47.0995 182.51 43.8595C176.62 42.9695 170.63 42.7895 164.7 43.3195C162.74 43.4995 161.61 45.5995 161.38 47.3695C161.12 49.4195 161.46 52.0295 163.16 53.4295C169.83 58.9395 176.44 64.5695 182.43 70.8195C183.15 71.5795 183.86 72.3395 184.57 73.1095C185.13 73.7295 184.73 73.2895 184.61 73.1595C184.78 73.3495 184.95 73.5495 185.13 73.7495C185.56 74.2395 185.98 74.7295 186.4 75.2295C187.77 76.8495 189.08 78.5195 190.32 80.2495C191.56 81.9795 192.7 83.6995 193.77 85.4995C194.03 85.9295 194.28 86.3695 194.53 86.8095C194.65 87.0295 194.77 87.2495 194.9 87.4695C194.82 87.3295 194.45 86.5995 194.85 87.3895C195.33 88.3395 195.81 89.2895 196.25 90.2595C196.74 91.3395 197.19 92.4395 197.61 93.5595C197.81 94.0895 197.99 94.6195 198.17 95.1495C198.25 95.3895 198.32 95.6295 198.4 95.8695C198.63 96.5595 198.06 94.6495 198.4 95.8495C199.04 98.1795 199.55 100.53 199.86 102.93L204.06 96.1795C187.14 91.7295 169.09 95.4195 154.84 105.4C151 108.09 147.53 111.27 144.52 114.85C143.12 116.52 142.52 118.82 143.04 120.99C143.41 122.51 144.56 125.13 146.56 124.87C150.18 124.4 153.83 124.32 157.47 124.65C158.39 124.73 159.31 124.84 160.23 124.97C160.66 125.03 161.08 125.1 161.51 125.17C161.94 125.24 161.55 125.17 161.47 125.17C161.77 125.23 162.08 125.29 162.38 125.35C164.14 125.71 165.87 126.16 167.58 126.7C171.12 127.81 174.55 129.29 177.78 131.1C178.16 131.31 178.53 131.53 178.91 131.75C179.29 131.97 178.91 131.75 178.84 131.71C179.05 131.84 179.26 131.97 179.47 132.1C180.25 132.6 181.02 133.11 181.78 133.65C183.29 134.72 184.75 135.87 186.13 137.1C186.87 137.75 187.59 138.43 188.29 139.12C188.68 139.51 189.07 139.91 189.45 140.31C189.63 140.5 190.52 141.51 189.96 140.85C191.34 142.44 192.62 144.1 193.79 145.85C194.55 146.98 195.93 147.76 197.27 147.15C219.1 137.3 241.33 128.32 263.89 120.26C270.25 117.99 276.64 115.8 283.04 113.66C284.06 113.32 284.84 111.95 285.17 111.04C285.64 109.76 285.75 108.05 285.43 106.73C284.9 104.56 283.4 102.08 280.82 102.94C258.09 110.54 235.69 119.14 213.67 128.59C207.46 131.25 201.28 133.99 195.13 136.79L198.61 138.09C189.64 124.82 175.03 116.13 159.2 114.07C154.91 113.51 150.56 113.51 146.27 114.07L148.31 124.09C150.89 121.02 153.79 118.25 156.99 115.83C157.38 115.53 157.78 115.24 158.18 114.95C158.38 114.81 158.58 114.67 158.78 114.52C159.3 114.16 158.34 114.81 158.86 114.46C159.73 113.88 160.62 113.32 161.52 112.79C163.22 111.79 164.97 110.88 166.76 110.06C168.55 109.24 170.51 108.47 172.44 107.82C173.32 107.53 174.2 107.25 175.09 107C175.56 106.87 176.04 106.74 176.52 106.61C176.76 106.55 177 106.49 177.24 106.43C177.85 106.28 177.2 106.43 177.56 106.36C181.48 105.52 185.47 105.05 189.48 105.03C191.69 105.03 193.91 105.14 196.11 105.4C196.72 105.47 197.33 105.56 197.94 105.65C198.18 105.69 198.43 105.73 198.67 105.77C198.17 105.69 198.8 105.79 199 105.83C200.15 106.05 201.29 106.32 202.42 106.62C206.26 107.63 206.96 102.49 206.62 99.8695C204.19 81.1995 191.6 66.2195 178.14 53.9795C174.36 50.5495 170.46 47.2595 166.53 44.0095L164.99 54.1095C170.1 53.6495 175.25 53.7195 180.35 54.3195C185.18 54.8895 189.78 55.9095 194.78 57.5595C199.78 59.2095 204.27 61.1895 208.7 63.6595C209.25 63.9695 209.8 64.2795 210.35 64.5995C210.57 64.7295 210.79 64.8595 211 64.9895C210.35 64.5995 211.41 65.2495 211.44 65.2595C212.51 65.9295 213.57 66.6295 214.61 67.3595C216.69 68.8095 218.7 70.3595 220.63 71.9995C222.85 73.8895 224.96 75.8995 226.94 78.0295C227.11 78.2195 227.28 78.3995 227.45 78.5895C227.78 78.9595 227.79 78.9695 227.47 78.6095C227.6 78.7495 227.72 78.8995 227.85 79.0395C228.31 79.5695 228.76 80.0995 229.2 80.6395C230.17 81.8195 231.09 83.0195 231.98 84.2595C233.75 86.6995 236.71 85.8095 237.52 83.0295C243.32 63.1095 250.16 43.4995 258.03 24.3095C260.27 18.8495 262.59 13.4195 264.99 8.02954L258.32 5.46954C259.26 20.5995 261.09 35.6895 263.82 50.6095C266.55 65.5295 269.91 79.8795 274.57 94.0095C276.86 100.97 279.96 108.14 286 112.63C287.75 113.93 289.62 112.69 290.23 110.82C290.96 108.59 290.62 106.03 288.95 104.33L288.94 104.34Z" fill="#1D1D1B"/>
</g>
<defs>
<clipPath id="clip0_3416_12144">
<rect width="290.59" height="270.46" fill="white"/>
</clipPath>
</defs>
</svg>
