<svg width="168" height="162" viewBox="0 0 168 162" fill="none" xmlns="http://www.w3.org/2000/svg">
<g clip-path="url(#clip0_3416_11030)">
<path d="M152.25 49.92C152.22 50.77 152.34 51.66 152.17 52.48C150.41 60.82 148.19 69.01 144.19 76.62C141.82 81.13 139.44 85.61 136.7 89.91C135.95 91.09 135.34 92.37 134.48 93.47C131.59 97.21 128.69 100.96 125.1 104.09C124.9 104.26 124.7 104.43 124.52 104.62C122.37 107.08 119.83 109.09 117.28 111.1C113.08 114.41 108.9 117.74 104.69 121.04C103.8 121.74 102.86 122.45 101.86 122.95C99.3399 124.19 96.9999 125.75 94.5999 127.18C89.4399 130.22 84.0699 132.76 78.1999 134.16C76.7499 134.5 75.1999 134.65 73.8899 135.28C71.0999 136.64 68.2099 137.48 65.1599 137.87C63.9599 138.02 62.7899 138.29 61.5399 138.33C60.1699 138.37 58.8099 138.86 57.4499 139.16C55.1399 139.67 52.8299 140.18 50.5299 140.7C48.6799 140.26 46.8899 140.82 45.0699 141.04C43.5099 141.23 41.9399 141.32 40.3999 141.7C39.8199 141.84 39.1799 141.81 38.5699 141.77C36.4699 141.65 34.3699 141.36 32.2799 141.4C30.2999 141.43 28.5199 140.65 26.6299 140.33C26.0699 140.23 25.5699 139.76 25.0999 139.49C25.0499 138.69 25.0699 138 24.9299 137.34C24.8599 136.96 24.5899 136.54 23.9599 136.8C23.9399 137.53 23.9199 138.28 23.8999 138.77C22.9699 138.97 22.2399 139.13 21.3799 139.32C21.0799 137.83 21.1999 136.21 21.2299 134.53C21.7899 134.27 22.2399 134.02 22.7299 133.84C25.7199 132.77 28.8599 132.4 31.9799 131.91C33.4399 131.68 34.8899 131.28 36.3199 130.89C40.1299 129.86 43.8899 128.68 47.7399 127.8C49.6399 127.37 51.4899 126.9 53.2099 126.01C55.2699 124.96 57.4199 124.3 59.6899 123.91C62.4499 123.43 65.2099 122.87 67.5999 121.24C68.4699 120.65 69.4199 120.18 70.3599 119.71C75.5399 117.14 80.7399 114.61 85.8999 112.01C86.9899 111.47 88.0099 110.77 89.0099 110.07C90.8799 108.78 92.7099 107.41 94.5699 106.1C96.4899 104.73 98.4399 103.39 100.37 102.04C102.53 100.54 104.61 98.91 106.86 97.56C110.11 95.6 112.91 93.09 115.8 90.68C117.47 89.29 118.97 87.67 120.61 86.23C124.15 83.1 127.74 80 131.33 76.91C132.52 75.88 133.82 74.98 135.02 73.95C136.67 72.51 138.3 71.04 139.86 69.51C141.05 68.35 142.28 67.18 143.2 65.81C146.45 61.02 149.72 56.25 151.76 50.76C151.88 50.45 152.15 50.18 152.35 49.9L152.26 49.92H152.25ZM21.5599 140.87C21.5299 143.09 22.2699 144.6 24.0599 145.64C27.4599 147.63 30.7299 149.86 34.1899 151.73C38.1199 153.86 42.1599 155.76 46.2199 157.61C47.7099 158.28 49.4099 158.54 51.0199 158.96C56.3099 160.32 61.7099 160.89 67.1199 161.32C69.3799 161.5 71.6799 161.26 73.9499 161.18C74.9199 161.15 75.8799 160.95 76.8399 161.02C81.5399 161.39 86.0699 160.22 90.6499 159.57C94.1299 159.07 97.4399 157.93 100.77 156.87C104.05 155.83 107.19 154.5 110.26 153.02C112.62 151.88 114.97 150.64 117.13 149.15C122.82 145.21 128.19 140.86 133.04 135.88C134.93 133.94 137.05 132.22 138.81 130.14C141.75 126.66 144.88 123.35 147.39 119.52C148.4 117.98 149.58 116.56 150.7 115.1C153.05 112.02 155.1 108.77 156.61 105.19C157.53 103.02 158.65 100.92 159.65 98.77C161.28 95.27 162.61 91.65 163.78 87.98C163.99 87.31 164.12 86.61 164.23 85.92C164.44 84.54 164.69 83.2 165.27 81.89C165.76 80.79 165.98 79.55 166.16 78.34C166.82 73.93 167.54 69.49 167.43 65.03C167.37 62.51 167.36 59.97 166.88 57.44C166.47 55.22 166.56 52.91 166.35 50.65C166.19 48.91 166.02 47.16 165.64 45.46C164.67 41.01 163.72 36.55 162.51 32.16C161.59 28.87 160.29 25.7 159.12 22.49C158.94 22.01 158.54 21.61 158.29 21.16C157.45 19.62 156.05 19.32 154.49 19.45C153.62 19.52 152.77 19.8 151.91 19.95C150.8 20.15 149.67 20.28 148.56 20.53C147.63 20.74 146.64 20.91 145.82 21.36C144.69 21.98 144.01 23.08 144.12 24.41C144.22 25.63 144.35 26.89 144.8 28C146.02 31 147.41 33.93 148.72 36.89C148.9 37.28 149.03 37.71 149.22 38.09C150.21 40.12 150.87 42.31 152.59 43.96C153.87 45.19 153.86 47 153.89 48.66C153.95 51.31 153.46 53.89 152.94 56.47C152.6 58.11 152.27 59.74 151.91 61.37C150.63 67.12 148.78 72.68 146.08 77.93C145.52 79.02 145.02 80.14 144.49 81.25C143.03 84.34 141.21 87.22 139.49 90.18C137.51 93.61 135.28 96.84 132.83 99.93C132.29 100.61 131.72 101.28 131.09 101.88C128.72 104.21 126.35 106.54 123.93 108.82C120.49 112.06 116.78 115 112.94 117.77C111.39 118.89 109.98 120.22 108.44 121.37C106.69 122.68 104.91 123.96 103.06 125.14C100.78 126.6 98.4599 128.04 96.0699 129.33C92.7599 131.13 89.4499 132.96 85.9899 134.43C83.5099 135.49 80.8099 136.07 78.1699 136.72C76.1199 137.23 74.1099 137.76 72.2399 138.79C71.5599 139.16 70.7999 139.46 70.0399 139.62C67.8099 140.08 65.5699 140.68 63.3099 140.79C61.0199 140.9 58.8799 141.45 56.6999 142.04C54.1099 142.75 51.4399 143.51 48.6599 142.94C48.4999 142.9 48.3099 142.92 48.1399 142.94C45.8099 143.3 43.4799 143.74 41.1399 144.02C39.5899 144.21 37.9899 144.34 36.4399 144.22C33.9099 144.03 31.3899 143.95 28.8799 143.51C26.3299 143.06 24.1399 141.78 21.5199 140.82M151.45 43.72C149.11 44.03 146.83 44.5 145.25 46.55C144.29 47.79 143.34 49.05 142.44 50.33C141.08 52.26 139.85 54.29 138.4 56.16C136.43 58.73 134.77 61.56 132.39 63.79C128.87 67.07 125.22 70.22 121.71 73.52C118.44 76.59 114.84 79.22 111.36 82.03C109.46 83.56 107.31 84.79 105.32 86.22C101.92 88.68 98.5099 91.14 95.1999 93.72C91.3899 96.69 87.4599 99.43 83.1899 101.72C79.4899 103.71 75.7899 105.73 72.1099 107.77C69.8799 109 67.5799 110.03 65.1199 110.72C61.1399 111.83 57.4199 113.56 53.7499 115.46C51.2699 116.75 48.6299 117.74 46.0299 118.79C44.0799 119.58 42.0599 120.2 40.1199 121.01C38.8399 121.54 37.6299 122.26 36.3899 122.93C35.2399 123.55 34.0299 124.11 32.9599 124.85C31.3499 125.98 29.5499 126.57 27.7399 127.26C26.2099 127.84 24.8499 128.88 23.4499 129.77C23.1899 129.94 23.0699 130.32 22.7399 130.83C23.2799 130.8 23.5899 130.82 23.8799 130.76C26.1899 130.31 28.4999 129.75 30.8299 129.43C32.8399 129.15 34.7899 128.71 36.6999 128.06C40.5299 126.77 44.4599 125.91 48.3799 124.98C49.9099 124.62 51.4099 124.06 52.8099 123.36C54.6499 122.45 56.5399 121.87 58.5499 121.56C61.9699 121.03 65.1699 119.94 68.0899 118.06C68.8199 117.58 69.6399 117.25 70.4299 116.86C75.0899 114.64 79.7899 112.49 84.3999 110.17C86.1899 109.28 87.8399 108.08 89.4799 106.92C94.3899 103.4 99.1399 99.65 104.19 96.34C107.89 93.93 111.24 91.18 114.51 88.27C117.84 85.3 121.2 82.36 124.44 79.29C126.87 76.99 129.57 75.06 132.13 72.95C134.7 70.82 137.18 68.6 139.56 66.27C140.87 64.99 141.95 63.46 142.99 61.95C144.84 59.29 146.53 56.52 148.39 53.86C150.04 51.51 150.89 48.86 151.55 46.13C151.74 45.36 151.89 44.59 151.45 43.72Z" fill="#1D1D1B"/>
<path d="M66.1299 36.5598C66.0999 36.3598 65.7399 36.2298 65.5799 36.0198C64.8799 35.1198 64.2099 34.2098 63.6499 33.4698C64.4299 32.9298 64.8699 32.6198 65.2999 32.3198C64.8799 31.9898 64.4899 31.5998 64.0299 31.3398C63.7799 31.1998 63.3899 31.3598 63.0899 31.2798C62.5799 31.1298 61.9699 31.0298 61.6299 30.6798C58.0899 27.0698 53.6699 25.1698 48.8399 24.2398C42.9599 23.0998 37.0999 23.4898 31.3499 25.1798C22.4199 27.7998 15.4599 32.9698 11.2599 41.4298C9.0199 45.9198 8.0199 50.7798 8.0699 55.8198C8.2099 70.1498 12.3699 82.6498 24.7099 91.2598C29.2599 94.4398 34.3299 96.2998 39.8899 96.6698C45.6599 97.0598 50.8599 95.2698 55.6899 92.2498C61.5599 88.5898 66.0199 83.6198 69.3899 77.6298C71.6899 73.5398 73.0799 69.1398 73.5099 64.4498C74.0799 58.3598 72.3899 52.7198 70.3799 47.0698C69.1099 43.5098 66.6699 40.4198 66.1399 36.5698M52.6899 52.4098C53.0099 54.4798 52.3199 56.2398 50.5599 57.4198C49.4799 58.1498 49.1599 58.6898 50.1499 59.8398C51.7899 61.7398 53.2799 63.7898 54.7299 65.8398C55.0199 66.2498 54.9099 66.9598 54.9899 67.5198C54.5299 67.2898 53.9199 67.1698 53.6299 66.7998C51.9599 64.6998 50.2899 62.5998 48.7699 60.3998C47.4399 58.4698 47.6299 57.8498 49.4899 56.5298C52.6799 54.2698 52.6599 51.1398 49.4299 48.8998C49.2299 48.7598 49.0399 48.5898 48.8499 48.4298C51.0499 48.8898 52.3299 50.2698 52.6699 52.3998M46.6899 51.2898C46.5899 52.1198 46.6899 52.6698 46.4599 52.9298C45.1599 54.3898 43.7999 55.8098 42.4199 57.2098C41.4799 58.1698 40.4799 59.0498 39.1999 60.2598C42.4999 61.0998 45.6699 61.1298 47.7899 63.4998C47.7399 63.7198 47.6899 63.9298 47.6499 64.1498C46.8999 64.0898 46.1199 64.1698 45.4299 63.9498C43.8999 63.4898 42.4399 62.8098 40.9199 62.3398C39.2699 61.8398 38.6199 62.5398 38.3499 64.2498C38.0999 65.9098 37.4899 67.5198 36.9099 69.1098C36.7999 69.4298 36.1199 69.6998 35.7199 69.6798C35.4899 69.6798 35.0899 69.0398 35.1099 68.6998C35.1599 67.8398 35.2899 66.9498 35.5899 66.1498C36.5599 63.5798 36.0499 61.1998 33.9399 59.4898C32.8399 58.5998 31.6099 57.8598 30.4499 57.0198C30.1899 56.8398 29.9999 56.5498 29.7799 56.3098C29.8799 56.1698 29.9799 56.0298 30.0699 55.8998C31.2099 56.3698 32.4199 56.7298 33.4899 57.3098C34.5399 57.8898 35.4599 58.6898 36.6699 59.5698C38.3799 55.0898 43.3099 54.6098 46.6899 51.2798M34.4799 76.6298C31.4399 76.1898 28.8999 73.7198 29.3999 69.5898C29.6399 67.5898 29.5099 65.5398 29.4699 63.5098C29.4499 62.4198 28.7199 61.8998 27.6799 61.6598C25.3799 61.1198 23.3999 59.9898 22.4599 57.7498C21.6199 55.7498 21.6399 53.6798 23.1099 51.8398C24.6899 49.8598 26.7899 49.5998 29.0599 50.0498C30.3499 50.3198 31.6099 50.7598 32.8999 51.0598C36.6199 51.9298 39.0399 50.9098 40.9799 47.6598C41.6199 46.5898 42.1999 45.4698 42.8199 44.3798C41.5099 49.2898 39.0499 52.2198 35.3799 52.1698C33.3799 52.1398 31.3799 51.5398 29.3899 51.1098C26.3299 50.4498 24.0399 51.4398 23.2899 53.8298C22.4999 56.3298 23.9599 59.3998 26.8299 59.9698C30.3599 60.6698 31.2299 62.7298 31.0499 65.8298C30.9699 67.2498 31.0099 68.6798 30.8699 70.0998C30.6699 72.0698 31.3199 73.5898 33.0499 74.5198C34.7699 75.4598 36.6099 75.5098 38.1799 74.2798C39.3199 73.3898 40.1799 72.1498 41.2099 71.1098C41.5399 70.7898 42.0199 70.6298 42.4399 70.3998C42.4399 70.8398 42.5799 71.3298 42.4399 71.7098C41.2399 74.9098 37.7999 77.0998 34.4899 76.6198M62.3099 85.1898C61.7099 86.0498 61.1699 86.9798 60.4799 87.7698C54.4799 94.6298 41.1599 97.5198 32.7899 93.8098C32.5999 93.7298 32.4299 93.5898 32.1999 93.2298C43.9199 96.7598 53.7799 93.8398 61.8199 84.6398C61.9799 84.8198 62.1399 85.0098 62.3099 85.1898Z" fill="black"/>
<path d="M83.2 56.8402C81.45 46.9002 77.47 37.8002 72.03 29.3302C67.17 21.7602 60.02 17.8002 51.32 16.6802C47.11 16.1302 42.77 16.0802 38.53 16.3502C25.84 17.1602 15.33 22.3502 7.61001 32.6702C2.56001 39.4202 0.190015 47.1602 0.0100148 55.5002C-0.179985 63.8902 1.65001 71.9502 5.22001 79.5702C9.58001 88.8902 15.55 96.6002 24.1 99.2202C36.68 104.12 44.73 104.43 54.91 101.72C66.38 98.6602 74.69 91.5202 79.81 80.8102C83.46 73.2102 84.67 65.1602 83.2 56.8402ZM72.14 80.8102C67.9 87.9202 62.3 93.5702 54.77 97.1002C46.64 100.92 38.36 101.13 27.1 96.6302C21.32 94.4702 15.74 87.8702 11.53 79.9802C7.28001 72.0502 5.34001 63.4602 5.70001 54.4902C6.19001 42.0502 11.98 32.6402 22.67 26.2502C28.99 22.4702 35.82 20.5402 43.18 20.7302C50.83 20.9302 58.03 22.8002 64.08 27.7602C66.79 29.9802 68.59 33.0002 69.87 36.2302C72.03 41.7002 74.39 47.1302 76.08 52.7602C79.06 62.6202 77.4 72.0002 72.13 80.8102" fill="black"/>
<g style="mix-blend-mode:darken">
<mask id="mask0_3416_11030" style="mask-type:luminance" maskUnits="userSpaceOnUse" x="87" y="0" width="50" height="48">
<path d="M136.64 0H87.25V47.18H136.64V0Z" fill="white"/>
</mask>
<g mask="url(#mask0_3416_11030)">
<mask id="mask1_3416_11030" style="mask-type:luminance" maskUnits="userSpaceOnUse" x="87" y="0" width="50" height="48">
<path d="M136.64 0H87.25V47.18H136.64V0Z" fill="white"/>
</mask>
<g mask="url(#mask1_3416_11030)">
<path d="M135.72 28.8001C130.56 29.0801 124.81 32.9402 119.84 35.2202C113.95 37.8902 107.43 39.4102 102.41 44.1102C101.01 45.4202 101.7 47.3702 103.42 47.1702C109.71 46.4302 115.33 42.1102 121.13 39.1702C126.05 36.6802 132.38 34.7201 136.34 30.6301C136.97 29.9701 136.53 28.7601 135.72 28.8001ZM119.46 7.54015C118.11 8.65015 116.15 10.0702 115.47 11.8002C113.72 16.2402 109.54 19.4102 106.43 22.8102C102.19 27.4502 95.6199 33.1602 94.9999 39.5402C94.9199 40.3602 95.5099 40.7902 96.2699 40.5202C101.72 38.5502 105.12 32.1202 108.31 27.3402C110.59 23.9102 112.63 20.3502 114.95 16.9202C117.13 13.6902 119.52 12.4902 121.22 8.88015C121.79 7.68015 120.47 6.70015 119.46 7.53015M94.6599 0.380151C91.7399 4.38015 90.5999 10.8802 89.4399 15.5202C88.3899 19.7302 85.4499 26.5502 88.7999 29.5202C89.0399 29.7302 89.4699 29.7502 89.7899 29.5802C93.8499 27.3902 93.9499 21.5602 94.6099 17.6802C95.4899 12.4702 97.3799 5.24015 96.0599 0.470151C95.8999 -0.119849 95.0499 -0.159849 94.6599 0.380151Z" fill="#1D1D1B"/>
</g>
</g>
</g>
</g>
<defs>
<clipPath id="clip0_3416_11030">
<rect width="167.45" height="161.38" fill="white"/>
</clipPath>
</defs>
</svg>
