<svg width="161" height="296" viewBox="0 0 161 296" fill="none" xmlns="http://www.w3.org/2000/svg">
<g clip-path="url(#clip0_3416_10433)">
<path d="M22.49 6.80995H125.8C127.18 6.80995 128.66 6.95995 130.04 6.80995C130.1 6.80995 130.16 6.80995 130.22 6.80995L128.74 3.42995C128.48 10.0199 128.21 16.5999 127.93 23.1899C127.3 38.0799 126.65 52.9599 125.96 67.8399C125.22 83.7199 124.45 99.5899 123.53 115.46C123.51 115.89 123.48 116.32 123.46 116.74C123.45 116.95 123.4 117.72 123.46 116.69C123.45 116.9 123.44 117.11 123.42 117.32C123.37 118.14 123.32 118.96 123.27 119.78C123.17 121.34 123.08 122.9 122.98 124.45C122.8 127.23 122.61 130.01 122.4 132.78C122.14 136.28 121.89 139.8 121.38 143.28C121.36 143.39 121.34 143.51 121.32 143.62C121.25 144.11 121.55 142.64 121.41 143.14C121.37 143.3 121.34 143.47 121.3 143.63C121.05 144.62 120.77 145.6 120.51 146.58C120.15 147.95 119.78 149.31 119.37 150.67C119.17 151.35 118.95 152.02 118.73 152.69C118.69 152.82 118.46 153.47 118.71 152.77C118.64 152.96 118.58 153.15 118.51 153.35C118.35 153.81 118.18 154.26 118.01 154.71C115.39 161.58 111.49 167.96 104.91 172.03C101.01 174.44 96.6 175.71 92.05 176.07C89.04 176.31 86.04 176.1 83.03 175.99C79.77 175.87 76.51 175.77 73.26 175.64C68.05 175.43 62.82 175.2 57.66 174.43C53.78 173.85 49.84 172.97 46.42 170.96C44.97 170.11 43.78 169.15 42.8 168.01C41.51 166.5 41.1 165.66 40.39 163.92C40.35 163.83 40.1 163.11 40.31 163.73C40.23 163.5 40.16 163.27 40.1 163.04C39.96 162.56 39.84 162.08 39.73 161.6C39.68 161.4 39.65 161.19 39.6 160.98C39.75 161.93 39.47 160.42 39.6 160.98C39.44 159.98 39.31 158.99 39.2 157.98C39.06 156.73 38.96 155.48 38.86 154.23C38.81 153.59 38.77 152.96 38.73 152.32C38.71 152.04 38.59 150.73 38.7 151.94C38.66 151.5 38.65 151.05 38.63 150.61C38.45 147.18 38.33 143.75 38.23 140.32C37.77 123.29 37.88 106.25 38.07 89.2199C38.2 77.7099 38.39 66.2099 38.67 54.6999C38.74 51.7599 38.6 48.8299 38.38 45.8999C37.6 35.7699 35.5 25.6399 31.79 16.1699C29.62 10.6199 26.8 5.29995 23.25 0.499946C22.35 -0.720054 21.44 0.859946 21.22 1.70995C20.85 3.09995 20.85 5.10995 21.75 6.32995C25.36 11.2099 28.1 16.6199 30.21 22.2999C31.18 24.9199 31.99 27.6099 32.69 30.3299C32.99 31.5099 33.27 32.6899 33.53 33.8699C33.67 34.4899 33.8 35.1199 33.92 35.7499C33.98 36.0599 34.04 36.3599 34.1 36.6699C33.99 36.1099 34.21 37.2599 34.22 37.3699C34.62 39.6499 34.94 41.9399 35.19 44.2299C35.28 45.0899 35.37 45.9599 35.44 46.8199C35.48 47.2499 35.51 47.6799 35.54 48.0999C35.55 48.2999 35.57 48.4999 35.58 48.6999C35.58 48.8299 35.6 48.9599 35.61 49.0899C35.63 49.4599 35.63 49.3399 35.59 48.7499C35.81 49.2099 35.66 50.1999 35.68 50.7099C35.7 51.2199 35.71 51.6999 35.72 52.1899C35.72 52.6299 35.73 53.0599 35.72 53.4999C35.58 62.4199 35.34 71.3399 35.21 80.2599C34.96 97.5099 34.81 114.76 35.08 132.01C35.2 139.37 35.38 146.74 35.86 154.09C36.22 159.64 36.53 165.68 39.22 170.67C43.21 178.07 51.27 180.33 59.09 181.34C64.53 182.04 70.03 182.24 75.5 182.44C78.71 182.56 81.91 182.66 85.12 182.79C88.08 182.9 91.02 182.99 93.97 182.59C102.71 181.41 110.13 176.63 115.06 169.36C119 163.54 121.27 156.86 123.05 150.12C123.85 147.1 124.42 144.2 124.73 141.09C125.2 136.27 125.52 131.44 125.83 126.61C126.82 111.31 127.59 95.9999 128.33 80.6899C129.1 64.7799 129.81 48.8699 130.49 32.9599C130.89 23.5499 131.29 14.1399 131.66 4.72995C131.68 4.28995 131.7 3.84995 131.71 3.40995C131.74 2.56995 131.49 0.0299457 130.23 0.0299457H26.92C25.53 0.0299457 24.06 -0.100054 22.68 0.0299457C22.62 0.0299457 22.56 0.0299457 22.5 0.0299457C20.42 0.0299457 20.4 6.77995 22.5 6.77995L22.49 6.80995Z" fill="black"/>
<path d="M54.33 59.5498C52.68 73.6498 51.27 87.7898 50.65 101.98C50.03 116.17 49.96 130.08 50.42 144.13C50.68 152.01 51.06 159.9 51.73 167.76C51.86 169.3 52.52 171.84 54.52 171.79C56.41 171.74 57.22 169.14 57.11 167.62C55.14 140.04 54.75 112.47 56.57 84.8598C57.09 76.9598 57.72 69.0898 58.64 61.2298C58.8 59.8398 58.52 57.6898 56.99 57.1198C55.46 56.5498 54.47 58.3198 54.32 59.5398L54.33 59.5498Z" fill="black"/>
<path d="M48.01 156.43C49.1 156.77 50.32 156.72 51.46 156.73C52.6 156.74 53.69 156.68 54.8 156.73C55.91 156.78 56.94 156.88 58.01 157.04C58.96 157.18 59.82 157.36 60.95 157.64C62.47 158.02 63.44 156.59 63.62 155.22C63.73 154.36 63.7 153.42 63.33 152.63C63.07 152.06 62.63 151.27 61.97 151.11C59.65 150.56 57.27 150.21 54.89 150.12C53.78 150.08 52.65 150.06 51.55 150.16C50.97 150.22 50.39 150.36 49.83 150.49C49.14 150.65 48.49 150.76 47.89 151.14C47 151.71 46.58 152.76 46.63 153.82C46.68 154.72 47.01 156.12 48.02 156.43H48.01Z" fill="black"/>
<path d="M45.9 113.17C47.39 113.73 48.91 113.77 50.49 113.94C51.95 114.1 53.41 114.29 54.86 114.46C56.31 114.63 57.78 114.81 59.24 115.04C60.7 115.27 62.19 115.7 63.62 115.68C65.26 115.66 65.93 113.59 66.02 112.29C66.11 110.99 65.69 108.45 64.11 108.12C62.53 107.79 60.97 107.85 59.4 107.8C57.94 107.75 56.49 107.65 55.03 107.54C53.57 107.43 52.12 107.33 50.66 107.21C49.2 107.09 47.76 106.82 46.29 107.07C43.81 107.51 43.6 112.29 45.9 113.16V113.17Z" fill="black"/>
<path d="M48.97 91.99C49.84 92.11 50.65 91.92 51.51 91.8C52.37 91.68 53.22 91.55 54.09 91.48C55.82 91.34 57.56 91.37 59.28 91.57C60.78 91.75 62.36 92.35 63.87 92.83C65.38 93.31 66.54 92.1 67.02 90.72C67.36 89.75 67.42 88.68 67.17 87.69C67.04 87.15 66.84 86.61 66.53 86.14C66.43 85.98 65.59 85.04 66.24 85.81C65.82 85.32 65.36 84.84 64.65 84.86C64.02 84.88 63.41 85.36 63.11 85.89C62.36 87.17 62.19 89.45 63.23 90.66L63.34 90.79L62.63 88.42C62.55 87.37 62.94 86.54 63.83 85.93L65.09 85.9C62.33 85.13 59.39 84.71 56.52 84.66C55.17 84.64 53.82 84.71 52.49 84.89C51.72 84.99 50.96 85.15 50.2 85.35C49.28 85.59 48.61 85.9 47.85 86.48C46.96 87.15 46.8 88.88 47.03 89.86C47.28 90.91 47.83 91.84 48.97 92V91.99Z" fill="black"/>
<path d="M48.46 75.1598C51.47 74.8298 54.52 74.7298 57.54 74.6198C59.06 74.5598 60.59 74.5698 62.11 74.6298C62.81 74.6598 63.52 74.7098 64.22 74.7598C65 74.8198 65.92 75.1098 66.67 75.0198C69.45 74.6798 69.52 69.2998 67.1 68.3798C66.27 68.0698 65.29 68.1298 64.41 68.0498C63.59 67.9798 62.77 67.9198 61.95 67.8898C60.43 67.8198 58.9 67.8198 57.38 67.8798C54.1 68.0098 50.98 68.7098 47.84 69.6598C46.7 69.9998 46.49 71.8498 46.59 72.7798C46.69 73.7098 47.27 75.2998 48.46 75.1698V75.1598Z" fill="black"/>
<path d="M44.69 140.78C46.33 141.05 48.11 140.94 49.77 140.91C51.43 140.88 53.17 140.85 54.87 140.91C58.18 141.04 61.49 141.41 64.75 142.05C66.28 142.35 67.23 141.06 67.42 139.63C67.57 138.49 67.33 135.81 65.77 135.52C62.18 134.84 58.56 134.41 54.91 134.3C53.15 134.25 51.37 134.23 49.62 134.35C47.87 134.47 45.77 134.71 44.09 135.41C42.01 136.27 42.56 140.43 44.7 140.78H44.69Z" fill="black"/>
<path d="M94.55 71.2698C94.55 71.5798 94.51 71.8798 94.42 72.1898L86.56 99.2299C86.47 99.5399 86.21 99.6698 85.86 99.6698C84.51 99.6698 81.84 97.5699 81.84 95.4799C81.84 95.3099 81.88 95.0899 81.93 94.9099C83.5 89.3999 85.03 84.0298 86.6 78.6998L86.69 78.2598C86.69 78.1298 86.6 78.0898 86.47 78.0898C86.25 78.0898 85.99 78.1298 85.68 78.1298C84.24 78.1298 83.23 77.6098 83.23 77.0398C83.23 76.7798 83.32 76.5998 83.54 76.3798C85.77 74.3298 87.73 71.9198 89.48 68.0298C89.61 67.7198 89.83 67.5898 90.18 67.5898C91.58 67.5898 94.55 69.8198 94.55 71.2598V71.2698Z" fill="#1D1D1B"/>
<path d="M97.96 94.1696C97.96 94.3896 98.09 94.5196 98.35 94.5196C98.44 94.5196 98.66 94.4796 98.83 94.4296C101.76 93.7696 104.6 92.4196 106.08 91.6796C106.25 91.5896 106.39 91.5496 106.52 91.5496C107.57 91.5496 108.36 93.3396 108.36 94.9996C108.36 95.8696 108.19 96.6596 107.75 97.0096C106.7 97.8796 101.11 100.11 97.48 100.11C94.86 100.11 92.06 96.0896 92.06 94.0396C92.06 93.7296 92.1 93.4296 92.15 93.2496L99.1 68.0396C99.19 67.7296 99.45 67.5996 99.8 67.5996C101.2 67.5996 104.17 69.6996 104.17 72.2796C104.17 72.5896 104.13 72.8896 104.04 73.1996C102.07 80.0196 99.93 87.0496 98.01 93.8696C97.97 94.0396 97.97 94.0896 97.97 94.1796L97.96 94.1696Z" fill="#1D1D1B"/>
<path d="M132.98 24.6298C133.99 24.6598 134.91 24.8798 135.9 24.9998C136.79 25.0998 137.65 25.1198 138.53 25.3098C140.44 25.7398 142.31 26.4598 143.99 27.4898C147.13 29.4098 149.9 32.6298 151.4 35.7398C152.41 37.8298 153.11 39.8498 153.62 42.0198C153.87 43.0798 154.07 44.1498 154.23 45.2198C154.32 45.7998 154.4 46.3698 154.47 46.9498C154.49 47.0898 154.55 47.7898 154.6 48.3298C155 53.1598 154.91 58.0298 154.83 62.8698C154.67 73.4598 154.29 84.1898 153.51 94.4398C153.11 99.7098 152.62 104.97 152.05 110.23C151.76 112.86 151.45 115.48 151.12 118.1C150.99 119.16 150.85 120.22 150.68 121.27C150.6 121.78 150.51 122.29 150.4 122.8C150.36 123 150.04 124.32 150.21 123.68C150.04 124.3 149.86 124.91 149.64 125.51C149.56 125.73 149.12 126.78 149.31 126.39C148.87 127.3 148.21 128.29 147.72 128.8C146.02 130.55 143.81 131.51 141.52 132.27C138.98 133.11 136.38 133.69 133.73 134.06C130.86 134.47 127.98 134.46 125.1 134.71C121.41 135.03 121.78 142.36 125.3 142.82C130.68 143.53 136.6 142.28 141.75 140.77C146.51 139.38 150.9 136.95 153.25 132.38C155.6 127.81 156.15 122.75 156.75 117.73C157.43 111.99 158.01 106.23 158.49 100.47C159.45 88.8398 160.1 77.1398 160.13 65.4698C160.16 54.9398 160.53 43.6098 156.24 33.7498C154.18 28.9998 150.91 24.8398 146.59 21.9598C144.53 20.5898 142.31 19.4398 139.89 18.8698C138.66 18.5798 137.35 18.3698 136.09 18.3998C134.83 18.4298 133.51 18.9798 132.38 19.4498C130.55 20.2198 130.75 24.5698 132.97 24.6398L132.98 24.6298Z" fill="#1D1D1B"/>
<path d="M127.37 125.48C133.92 125.01 138.74 119.87 141.45 114.24C144.65 107.6 145.67 99.95 146.45 92.7C147.27 84.96 147.56 77.17 147.61 69.39C147.63 65.48 147.59 61.57 147.54 57.67C147.49 53.77 147.57 50.09 146.95 46.37C145.79 39.36 140.84 32.31 133.79 30.22C129.92 29.08 129.4 36.91 132.55 38.16C135 39.13 137.04 40.3 138.85 42.3C140.25 43.84 141.27 45.88 141.69 47.76C142.32 50.65 142.27 53.72 142.4 57.06C142.53 60.56 142.66 64.06 142.73 67.56C142.88 74.4 142.9 81.26 142.33 88.08C141.81 94.45 141.18 101.13 139.09 107.2C137 113.27 132.88 117.98 126.7 119.7C124.58 120.29 124.96 125.66 127.36 125.49L127.37 125.48Z" fill="#1D1D1B"/>
<path d="M36.52 159.38C34.97 158.93 33.39 158.54 31.77 158.45C30.39 158.37 28.82 158.25 27.54 158.86C26.12 159.53 25.27 161.07 24.41 162.31C23.55 163.55 22.67 164.86 21.83 166.15C18.46 171.29 15.36 176.63 12.65 182.16C11.81 183.87 11.82 185.3 11.76 187.08C11.69 189.18 11.59 191.28 11.47 193.38C11.43 194.05 11.39 194.72 11.35 195.39C11.34 195.58 11.33 195.76 11.32 195.95C11.41 194.95 11.35 195.44 11.34 195.66C11.31 196.13 11.28 196.6 11.25 197.07C11.13 198.77 11 200.48 10.86 202.18C10.54 205.94 10.17 209.7 9.72 213.46C9.22 217.61 8.63 221.75 7.91 225.87C7.55 227.93 7.16 229.99 6.73 232.03C6.54 232.93 6.34 233.84 6.13 234.74C6.02 235.23 5.9 235.73 5.78 236.22C5.78 236.22 5.54 237.19 5.68 236.64C5.8 236.17 5.52 237.24 5.5 237.34C4.47 241.25 3.25 245.13 1.59 248.82C1.5 249.01 1.41 249.19 1.33 249.38C1.22 249.61 1.26 249.53 1.44 249.15C1.37 249.3 1.3 249.44 1.23 249.58C0.780002 250.5 0.580002 251.33 0.560002 252.37C0.550002 252.93 0.560002 253.5 0.560002 254.07V258.21C0.560002 259.7 1.38 261.99 3.18 262C6.7 262.03 10.22 262.06 13.74 262.09C22.26 262.16 30.79 262.22 39.31 262.28C49.79 262.35 60.27 262.41 70.76 262.45C80.15 262.49 89.54 262.51 98.94 262.48C104.18 262.46 109.47 262.59 114.7 262.25C115.22 262.22 115.84 262.19 116.31 261.98C116.54 261.88 116.75 261.72 116.94 261.55C116.94 261.55 117.45 260.92 117.46 260.91C117.52 260.82 116.97 261.5 117 261.48C117.12 261.4 117.23 261.22 117.34 261.12C117.76 260.69 118.18 260.27 118.6 259.85C122 256.5 125.46 253.21 128.91 249.91C131.73 247.22 134.62 244.58 137.39 241.84C139.13 240.12 138.91 237.97 138.85 235.78C138.67 228.28 138.5 220.78 138.32 213.28C138.08 202.95 137.83 192.63 137.59 182.3C137.43 175.64 137.34 168.98 137.08 162.32C137.08 162.18 137.08 162.04 137.06 161.9C137.06 161.84 137.06 161.78 137.06 161.72C136.93 159.7 136.89 160.84 137.06 161.59C137.04 161.51 137.06 161.41 137.06 161.32C137.02 159.8 136.22 157.31 134.32 157.35C132.42 157.39 131.74 159.96 131.77 161.44C131.77 161.48 131.77 161.53 131.77 161.57C131.79 161.95 131.73 162.46 131.84 160.71C131.81 161.14 131.78 161.57 131.77 162C131.77 162.5 131.78 163 131.79 163.5C131.81 165.36 131.87 167.22 131.91 169.08C132.06 175.19 132.22 181.3 132.37 187.41C132.72 201.19 133.06 214.97 133.41 228.74C133.49 231.88 133.57 235.03 133.65 238.17L134.87 234.67C131.58 237.81 128.29 240.95 125 244.1C122.64 246.36 120.29 248.62 117.95 250.9C116.69 252.13 115.35 253.33 114.19 254.66C112.76 256.29 114.44 254.44 114.69 254.34C115.62 253.95 115.47 254.21 115.13 254.22C114.83 254.22 114.53 254.27 114.23 254.29C113.11 254.35 111.99 254.38 110.88 254.4C106.84 254.49 102.79 254.51 98.75 254.54C86.42 254.61 74.09 254.59 61.76 254.56C49.43 254.53 36.24 254.47 23.48 254.41C18.97 254.39 14.46 254.36 9.95 254.33C7.74 254.32 5.49 254.17 3.29 254.29C3.19 254.29 3.1 254.29 3 254.29L5.63 258.08C5.63 256.12 5.63 254.16 5.63 252.19L4.96 254.93C10.03 244.69 12.16 233.06 13.72 221.84C15.14 211.67 15.94 201.42 16.38 191.17C16.47 189.12 16.55 187.08 16.58 185.03L15.95 187.59C18.44 182.42 21.16 177.37 24.17 172.48C24.9 171.29 25.65 170.11 26.41 168.95C27.11 167.89 27.81 166.44 28.73 165.56C29.42 164.9 30.87 165.17 31.74 165.22C33.22 165.29 34.7 165.36 36.16 165.55C37.46 165.72 38.05 163.7 38.1 162.8C38.16 161.7 37.84 159.79 36.55 159.42L36.52 159.38Z" fill="#1D1D1B"/>
<path d="M122.86 159.82C124.14 161.75 126.54 161.51 128.6 161.94C129.52 162.13 130.42 162.4 131.34 162.62C132.26 162.84 133.27 162.84 134.07 163.24L132.96 162.3L133.15 162.54L132.47 160.89L132.53 161.18L132.48 159.17C132.55 158.64 132.97 158.16 132.42 158.9C132.2 159.19 131.98 159.48 131.76 159.78C131.37 160.31 130.98 160.84 130.6 161.38C129.79 162.51 129.01 163.66 128.26 164.83C126.75 167.16 125.35 169.56 124.06 172.02C121.34 177.2 118.75 182.8 117.41 188.52C117.04 190.08 117.61 192.55 119.11 193.37C120.61 194.19 121.9 193.03 122.47 191.59C123.23 189.68 123.77 187.68 124.5 185.76C125.23 183.84 126.04 181.93 126.88 180.05C128.43 176.58 130.33 173.05 132.39 169.71C133.44 168.01 134.54 166.35 135.7 164.72C137.31 162.45 138.2 159.29 136.32 156.87C134.9 155.04 131.78 155.37 129.68 155.23C127.58 155.09 124.7 153.86 123.12 155.48C122.05 156.58 122.04 158.56 122.86 159.79V159.82Z" fill="#1D1D1B"/>
<path d="M17.69 190.39C19.13 191.02 20.67 191.68 22.23 191.89C23.79 192.1 25.59 192.13 27.25 192.11C30.34 192.08 33.41 191.72 36.47 191.31C42.93 190.45 49.31 189.67 55.84 189.99C62.37 190.31 69.1 191.42 75.72 192.15C82.34 192.88 89.02 193.14 95.68 193.4C103.2 193.69 110.73 193.99 118.25 194.28C120.53 194.37 121.45 191.03 121.36 189.28C121.26 187.35 120.38 184.49 118.01 184.44C111.31 184.29 104.6 184.14 97.9 183.99C91.2 183.84 84.56 183.77 77.92 183.23C71.28 182.69 65.02 181.82 58.53 181.5C55.14 181.33 51.74 181.31 48.36 181.59C45.22 181.85 42.13 182.49 39.05 183.12C35.53 183.84 32.02 184.61 28.45 185.01C26.79 185.19 25.1 185.33 23.43 185.24C21.63 185.15 19.83 185.24 18.03 185.12C16.91 185.04 16.41 186.65 16.36 187.48C16.3 188.54 16.61 189.91 17.69 190.38V190.39Z" fill="#1D1D1B"/>
<path d="M121.98 189.08C121.98 189.08 121.69 188.14 121.8 188.59C121.84 188.75 121.64 187.53 121.72 188.16C121.76 188.51 121.81 188.86 121.85 189.22C121.98 190.4 122 191.59 122.13 192.76C122.01 191.69 122.13 192.79 122.15 193.21C122.17 193.63 122.19 194.06 122.21 194.48C122.25 195.42 122.28 196.36 122.3 197.3C122.35 199.5 122.36 201.71 122.33 203.91C122.29 206.47 122.2 209.03 122.06 211.58C122.06 211.62 122.03 212.13 122.06 211.76C122.08 211.35 122.04 212.01 122.04 212.1C122.02 212.42 122 212.74 121.98 213.05C121.93 213.75 121.88 214.45 121.82 215.15C121.7 216.59 121.57 218.02 121.42 219.45C120.77 225.56 119.88 231.14 118.46 236.97C116.84 243.62 114.62 250.07 111.41 256.14C110.71 257.46 110.8 259.58 111.41 260.91C112.02 262.24 112.9 262.07 113.51 260.91C119.62 249.34 122.53 236.18 124.06 223.27C125.26 213.14 125.66 202.84 125.11 192.65C125.02 190.94 124.92 189.23 124.74 187.52C124.63 186.46 124.54 185.29 124.09 184.31C123.54 183.12 122.54 183.11 121.99 184.31C121.37 185.67 121.36 187.72 121.99 189.08H121.98Z" fill="#1D1D1B"/>
<path d="M1.78 256.42C1.08 259.95 0.610002 263.54 0.330002 267.13C-0.159998 273.44 -0.349998 280.2 1.58 286.31C2.42 288.97 3.67 291.63 5.94 293.36C7.33 294.41 9.02 294.79 10.71 294.98C14.24 295.37 17.82 295.39 21.37 295.43C33.25 295.57 45.14 295.26 57.01 294.92C69.64 294.56 82.26 294.1 94.89 293.59C99.43 293.41 103.98 293.21 108.52 293.01C110.74 292.91 113 292.94 115.21 292.71C115.31 292.7 115.41 292.71 115.51 292.7C116.81 292.64 117 290.16 117 289.32V258.12C117 257.22 116.82 254.79 115.51 254.74C114.2 254.69 114.02 257.37 114.02 258.12C114.02 267.22 114.02 276.33 114.02 285.43V289.32L115.51 285.94C110.12 286.19 104.73 286.42 99.33 286.65C87.36 287.15 75.39 287.6 63.41 287.97C51.43 288.34 39.06 288.68 26.88 288.69C22.6 288.69 18.31 288.69 14.04 288.46C12.71 288.39 11.37 288.31 10.04 288.13C9.32 288.03 8.74 287.93 8.14 287.67C7.66 287.46 7.2 287.2 6.78 286.89C6.18 286.45 6.27 286.52 5.8 285.96C5.45 285.54 5.13 285.08 4.86 284.6C5.13 285.06 4.78 284.42 4.71 284.28C4.55 283.95 4.41 283.62 4.27 283.28C4.21 283.12 4.15 282.96 4.09 282.8C4.12 282.88 4.26 283.38 4.12 282.89C4.03 282.58 3.93 282.28 3.85 281.97C3.77 281.66 3.69 281.34 3.61 281.02C3.56 280.78 3.36 279.66 3.5 280.51C3.39 279.83 3.28 279.14 3.21 278.45C3.17 278.14 3.14 277.83 3.12 277.51C3.1 277.31 3.09 277.12 3.07 276.92C3.07 276.81 3.01 275.98 3.04 276.53C3.07 277.05 3.02 275.95 3.01 275.78C3 275.46 2.99 275.14 2.99 274.82C2.98 274.02 2.99 273.22 2.99 272.42C3.01 271.71 3.03 271 3.07 270.29C3.07 270.14 3.09 269.98 3.09 269.83C3.05 270.69 3.06 270.23 3.08 270.04C3.11 269.63 3.14 269.21 3.17 268.8C3.27 267.52 3.4 266.24 3.55 264.97C3.76 263.24 4.02 261.51 4.31 259.79C4.47 258.89 4.14 260.65 4.31 259.81C4.59 258.43 4.78 256.36 3.78 255.19C2.83 254.09 1.94 255.42 1.75 256.4L1.78 256.42Z" fill="#1D1D1B"/>
<path d="M119.19 284.59V284.57C119.31 285.07 119.44 285.56 119.56 286.06C119.72 287.08 119.55 288.14 119.22 289.1C119.24 289.05 119.27 288.99 119.29 288.94C119.51 288.43 118.93 289.47 119.31 288.9C119.59 288.48 119.87 288.06 120.16 287.64C121.06 286.38 122.01 285.17 122.96 283.96C125.5 280.74 128.13 277.59 130.76 274.45C132.98 271.81 135.21 269.18 137.45 266.57C138.82 264.97 139.68 263.97 139.64 261.58C139.54 256.42 139.28 251.26 139.1 246.1C138.82 237.89 138.53 229.68 138.25 221.48C138.08 216.51 137.93 211.53 137.73 206.56C137.73 206.48 137.73 206.4 137.73 206.32C137.7 205.41 137.57 202.99 136.25 202.94C134.93 202.89 134.74 205.57 134.77 206.32C134.99 212.61 135.21 218.9 135.43 225.19C135.78 235.16 136.12 245.13 136.47 255.1C136.55 257.39 136.63 259.67 136.71 261.96L137.45 259.05C131.2 266.28 124.81 273.51 119.13 281.21C117.29 283.71 115.96 286.11 117.11 289.37C117.56 290.66 118.7 290.48 119.21 289.37C119.88 287.9 119.73 286.08 119.21 284.6L119.19 284.59Z" fill="#1D1D1B"/>
<path d="M103.59 205.34C102.56 204.54 101.26 204.16 99.96 204.37C98.4 204.62 97.24 205.49 96.31 206.73C95.21 208.2 94.82 210.05 94.77 211.85C94.72 213.65 95.23 215.71 96.34 217.16C97.14 218.2 98.19 219.07 99.44 219.49C100.69 219.91 101.92 219.9 103.21 219.55C105.72 218.87 107.61 216.32 108.27 213.9C108.8 211.97 108.96 209.92 108.46 207.96C108.18 206.86 107.83 205.98 107.24 205.01C106.84 204.34 106.28 203.69 105.66 203.23C104.56 202.42 103.16 201.82 101.77 201.98C101.09 202.06 100.41 202.22 99.82 202.58C98.85 203.17 98.3 203.75 97.61 204.66C95.65 207.24 94.91 211.11 95.75 214.23C96.23 216 97.07 217.83 98.64 218.9C99.81 219.7 101.15 220.21 102.6 220.13C106.37 219.92 108.69 216.46 109.36 213.05C109.84 210.6 109.43 207.88 108.1 205.76C107.52 204.83 106.7 204.13 105.73 203.64C104.76 203.15 103.68 203.26 102.68 203.61C101.86 203.9 101.18 205.01 100.93 205.76C100.62 206.72 100.53 207.7 100.64 208.7C100.74 209.59 100.98 210.59 101.53 211.32C102.05 211.99 102.77 212.68 103.7 212.61C103.88 212.6 104.05 212.61 104.23 212.63L103.41 212.48C103.76 212.56 104.1 212.69 104.41 212.86L103.66 212.4C103.89 212.55 104.09 212.72 104.28 212.92L103.63 212.2C103.75 212.35 103.85 212.5 103.94 212.66L103.43 211.72C103.52 211.89 103.59 212.06 103.65 212.24L103.31 211.12C103.38 211.35 103.42 211.58 103.45 211.82L103.31 210.57C103.33 210.81 103.34 211.04 103.33 211.28L103.41 210.02C103.39 210.33 103.34 210.63 103.26 210.93L103.54 209.8C103.46 210.09 103.35 210.37 103.23 210.65L103.69 209.69C103.52 210.04 103.31 210.37 103.06 210.67L103.67 209.92C103.39 210.25 103.08 210.54 102.72 210.78L103.45 210.29C103.05 210.55 102.63 210.73 102.17 210.85L102.98 210.66C102.44 210.77 101.9 210.78 101.35 210.69L102.17 210.84C101.71 210.75 101.29 210.59 100.89 210.36L101.64 210.81C101.35 210.63 101.1 210.43 100.87 210.18L101.51 210.9C101.34 210.7 101.19 210.5 101.06 210.27L101.56 211.2C101.44 210.97 101.34 210.74 101.26 210.49L101.6 211.6C101.53 211.35 101.48 211.1 101.45 210.84L101.59 212.08C101.56 211.82 101.56 211.56 101.57 211.3L101.49 212.54C101.51 212.18 101.57 211.83 101.65 211.48L101.37 212.6C101.48 212.16 101.64 211.74 101.83 211.33L101.38 212.28C101.6 211.83 101.87 211.41 102.18 211.01L101.58 211.75C101.85 211.43 102.15 211.14 102.49 210.9L101.78 211.38C102.08 211.19 102.39 211.05 102.74 210.97L101.94 211.15C102.32 211.08 102.7 211.07 103.08 211.13L102.28 210.99C102.71 211.07 103.1 211.21 103.48 211.43L102.76 210.99C103.06 211.17 103.32 211.39 103.55 211.65L102.94 210.97C103.12 211.18 103.27 211.4 103.41 211.63L102.93 210.74C103.08 211.02 103.2 211.31 103.29 211.62L102.97 210.57C103.04 210.84 103.1 211.1 103.13 211.38L103 210.22C103.03 210.54 103.04 210.86 103.02 211.19L103.09 210.03C103.06 210.34 103.01 210.65 102.94 210.96L103.2 209.92C103.11 210.26 102.99 210.59 102.85 210.91L103.27 210.03C103.08 210.43 102.85 210.8 102.58 211.15L103.13 210.47C102.8 210.88 102.42 211.23 101.98 211.53L102.62 211.09C102.19 211.37 101.73 211.57 101.22 211.69L101.94 211.52C101.38 211.64 100.82 211.64 100.25 211.54L100.96 211.67C100.48 211.57 100.04 211.41 99.62 211.17L100.26 211.56C99.95 211.37 99.68 211.15 99.43 210.89L99.98 211.5C99.79 211.28 99.63 211.05 99.49 210.8L99.92 211.59C99.81 211.37 99.72 211.14 99.65 210.91L99.93 211.84C99.87 211.6 99.82 211.36 99.79 211.11L99.91 212.15C99.89 211.9 99.89 211.65 99.9 211.4L99.83 212.44C99.86 212.06 99.92 211.69 100.01 211.32L99.78 212.24C99.86 211.93 99.97 211.63 100.1 211.34L99.74 212.1C99.9 211.77 100.09 211.46 100.32 211.18L99.85 211.76C100.09 211.48 100.35 211.24 100.65 211.03L100.11 211.4C100.46 211.18 100.83 211.03 101.23 210.93L100.64 211.07C100.95 211.03 101.25 211.03 101.56 211.07L100.97 210.96C101.32 211.03 101.64 211.14 101.94 211.33L101.41 211.01L101.52 211.08C102.04 211.44 102.58 211.64 103.2 211.37C103.82 211.1 104.27 210.41 104.46 209.82C104.72 209.01 104.82 208.1 104.62 207.27C104.45 206.57 104.17 205.78 103.57 205.32L103.59 205.34Z" fill="#1D1D1B"/>
<path d="M86.67 205.23C85.92 204.8 85.03 204.58 84.17 204.54C83.12 204.49 82.11 204.98 81.31 205.63C80.32 206.44 79.73 207.69 79.43 208.9C79 210.6 79.11 212.46 79.78 214.09C80.61 216.1 82.37 217.9 84.55 218.35C85.77 218.6 86.75 218.58 87.96 218.25C88.85 218 89.73 217.46 90.37 216.79C92.47 214.6 93.13 211.33 92.55 208.41C92.22 206.78 91.47 205.4 90.35 204.19C89.73 203.52 88.89 202.97 88.03 202.67C85.96 201.93 83.7 202.47 82.16 204.04C79.81 206.44 79.03 209.89 79.5 213.14C79.77 214.95 80.65 216.52 81.9 217.83C82.62 218.58 83.66 219.19 84.67 219.44C86.06 219.78 87.32 219.79 88.67 219.28C89.33 219.03 89.95 218.66 90.5 218.22C90.82 217.97 91.08 217.71 91.33 217.39C91.96 216.61 92.21 215.73 92.39 214.76L92.15 215.71C92.2 215.57 92.24 215.43 92.28 215.28C92.6 214.19 92.65 213.14 92.32 212.04C92.22 211.62 92.05 211.24 91.8 210.88C91.53 210.47 91.17 210.17 90.72 209.97C90.4 209.91 90.07 209.85 89.75 209.79L90.44 209.91C90.01 209.66 89.5 209.61 89.02 209.72C88.71 209.79 88.44 209.89 88.14 209.99C87.75 210.12 87.36 210.26 86.96 210.36L87.76 210.18C87.01 210.34 86.24 210.42 85.48 210.3L86.3 210.45C85.78 210.35 85.29 210.16 84.83 209.89L85.57 210.34C85.23 210.12 84.92 209.87 84.65 209.57L85.29 210.28C85.11 210.06 84.95 209.84 84.82 209.59L85.32 210.52C85.23 210.34 85.16 210.16 85.1 209.96L85.44 211.06C85.39 210.87 85.35 210.69 85.32 210.5L85.46 211.73C85.44 211.49 85.43 211.25 85.44 211.01L85.36 212.25C85.38 211.96 85.43 211.68 85.5 211.39L85.22 212.51C85.31 212.19 85.42 211.89 85.55 211.59L85.1 212.54C85.28 212.16 85.5 211.81 85.77 211.49L85.17 212.23C85.44 211.91 85.74 211.64 86.08 211.4L85.36 211.89C85.74 211.64 86.13 211.45 86.57 211.34L85.77 211.52C86.22 211.42 86.66 211.42 87.11 211.49L86.31 211.35C86.76 211.44 87.17 211.6 87.57 211.83L86.85 211.39C87.17 211.59 87.46 211.83 87.71 212.11L87.1 211.43C87.25 211.6 87.37 211.78 87.49 211.98L87.01 211.09C87.12 211.3 87.21 211.51 87.28 211.73L86.96 210.69C87.03 210.92 87.07 211.15 87.1 211.38L86.97 210.22C86.99 210.42 86.99 210.61 86.98 210.81L87.05 209.65C87.03 209.93 86.99 210.2 86.92 210.48L87.18 209.44C87.1 209.71 87.01 209.97 86.89 210.23L87.31 209.35C87.16 209.64 86.99 209.91 86.79 210.16L87.34 209.48C87.1 209.77 86.83 210.02 86.53 210.23L87.18 209.79C86.72 210.1 86.23 210.31 85.69 210.44L86.4 210.28C85.82 210.4 85.24 210.42 84.66 210.33L85.36 210.46C84.82 210.36 84.32 210.18 83.85 209.91L84.48 210.29C84.16 210.09 83.87 209.85 83.61 209.58L84.14 210.17C83.94 209.95 83.77 209.72 83.63 209.46L84.04 210.22C83.9 209.96 83.79 209.7 83.71 209.42L83.98 210.31C83.94 210.15 83.91 209.99 83.88 209.82L83.99 210.8C83.97 210.59 83.97 210.38 83.98 210.16L83.92 211.12C83.94 210.95 83.97 210.78 84 210.61L83.79 211.47C83.85 211.26 83.92 211.06 84.01 210.86L83.67 211.57C83.75 211.42 83.84 211.28 83.95 211.15L83.5 211.7C83.68 211.49 83.88 211.32 84.11 211.16L83.58 211.52C84.03 211.23 84.57 211.04 85.09 210.91L84.52 211.04C85.06 210.92 85.6 210.9 86.14 210.99L85.62 210.9L85.73 210.92C86.32 211.03 86.75 211.01 87.22 210.59C87.69 210.17 87.99 209.41 88.07 208.8C88.25 207.41 87.9 205.93 86.63 205.2L86.67 205.23Z" fill="#1D1D1B"/>
<path d="M68.9 205.23C68.15 204.8 67.26 204.58 66.4 204.54C65.35 204.49 64.34 204.98 63.54 205.63C62.55 206.44 61.96 207.69 61.66 208.9C61.23 210.6 61.34 212.46 62.01 214.09C62.84 216.1 64.6 217.9 66.78 218.35C68 218.6 68.98 218.58 70.19 218.25C71.08 218 71.96 217.46 72.6 216.79C74.7 214.6 75.36 211.33 74.78 208.41C74.45 206.78 73.7 205.4 72.58 204.19C71.96 203.52 71.12 202.97 70.26 202.67C68.19 201.93 65.93 202.47 64.39 204.04C62.04 206.44 61.26 209.89 61.73 213.14C62 214.95 62.88 216.52 64.13 217.83C64.85 218.58 65.89 219.19 66.9 219.44C68.29 219.78 69.55 219.79 70.9 219.28C71.56 219.03 72.18 218.66 72.73 218.22C73.05 217.97 73.31 217.71 73.56 217.39C74.19 216.61 74.44 215.73 74.62 214.76L74.38 215.71C74.43 215.57 74.47 215.43 74.51 215.28C74.83 214.19 74.88 213.14 74.55 212.04C74.45 211.62 74.28 211.24 74.03 210.88C73.76 210.47 73.4 210.17 72.95 209.97C72.63 209.91 72.3 209.85 71.98 209.79L72.67 209.91C72.24 209.66 71.73 209.61 71.25 209.72C70.94 209.79 70.67 209.89 70.37 209.99C69.98 210.12 69.59 210.26 69.19 210.36L69.99 210.18C69.24 210.34 68.47 210.42 67.71 210.3L68.53 210.45C68.01 210.35 67.52 210.16 67.06 209.89L67.8 210.34C67.46 210.12 67.15 209.87 66.88 209.57L67.52 210.28C67.34 210.06 67.18 209.84 67.05 209.59L67.55 210.52C67.46 210.34 67.39 210.16 67.33 209.96L67.67 211.06C67.62 210.87 67.58 210.69 67.55 210.5L67.69 211.73C67.67 211.49 67.66 211.25 67.67 211.01L67.59 212.25C67.61 211.96 67.66 211.68 67.73 211.39L67.45 212.51C67.54 212.19 67.65 211.89 67.78 211.59L67.33 212.54C67.51 212.16 67.73 211.81 68 211.49L67.4 212.23C67.67 211.91 67.97 211.64 68.31 211.4L67.59 211.89C67.97 211.64 68.36 211.45 68.8 211.34L68 211.52C68.45 211.42 68.89 211.42 69.34 211.49L68.54 211.35C68.99 211.44 69.4 211.6 69.8 211.83L69.08 211.39C69.4 211.59 69.69 211.83 69.94 212.11L69.33 211.43C69.48 211.6 69.6 211.78 69.72 211.98L69.24 211.09C69.35 211.3 69.44 211.51 69.51 211.73L69.19 210.69C69.26 210.92 69.3 211.15 69.33 211.38L69.2 210.22C69.22 210.42 69.22 210.61 69.21 210.81L69.28 209.65C69.26 209.93 69.22 210.2 69.15 210.48L69.41 209.44C69.33 209.71 69.24 209.97 69.12 210.23L69.54 209.35C69.39 209.64 69.22 209.91 69.02 210.16L69.57 209.48C69.33 209.77 69.06 210.02 68.76 210.23L69.41 209.79C68.95 210.1 68.46 210.31 67.92 210.44L68.63 210.28C68.05 210.4 67.47 210.42 66.89 210.33L67.59 210.46C67.05 210.36 66.55 210.18 66.08 209.91L66.71 210.29C66.39 210.09 66.1 209.85 65.84 209.58L66.37 210.17C66.17 209.95 66 209.72 65.86 209.46L66.27 210.22C66.13 209.96 66.02 209.7 65.94 209.42L66.21 210.31C66.17 210.15 66.14 209.99 66.11 209.82L66.22 210.8C66.2 210.59 66.2 210.38 66.21 210.16L66.15 211.12C66.17 210.95 66.2 210.78 66.23 210.61L66.02 211.47C66.08 211.26 66.15 211.06 66.24 210.86L65.9 211.57C65.98 211.42 66.07 211.28 66.18 211.15L65.73 211.7C65.91 211.49 66.11 211.32 66.34 211.16L65.81 211.52C66.26 211.23 66.8 211.04 67.32 210.91L66.75 211.04C67.29 210.92 67.83 210.9 68.37 210.99L67.85 210.9L67.96 210.92C68.55 211.03 68.98 211.01 69.45 210.59C69.92 210.17 70.22 209.41 70.3 208.8C70.48 207.41 70.13 205.93 68.86 205.2L68.9 205.23Z" fill="#1D1D1B"/>
<path d="M37.47 202.49C32.01 200.16 25.36 200.38 20.72 204.37C15.28 209.05 14.38 217.73 17.31 224.02C20.24 230.31 26.1 234.44 32.91 235.4C39.04 236.27 45.67 234.06 49.71 229.29C54.06 224.16 55.87 216.89 54.31 210.31C52.75 203.73 48.27 198.65 42.02 196.73C26.98 192.1 16.47 209.46 18.61 222.62C19.8 229.96 25.63 236.14 32.84 237.88C36.69 238.81 40.54 238.61 44.32 237.43C46.2 236.85 48.01 236.03 49.67 234.98C50.62 234.38 51.61 233.77 52.42 232.99C53.16 232.26 53.84 231.44 54.52 230.65C55.59 229.39 55.9 227.67 55.38 226.09C55.04 225.04 53.9 223.25 52.52 224.06C51.38 224.72 50.15 225.18 49 225.83C47.68 226.58 46.29 227.25 44.87 227.79C42.4 228.74 39.79 229.22 37.14 229.17C34.78 229.12 32.69 228.59 30.4 227.42C28.71 226.56 26.79 224.88 25.81 223.45C25.65 223.21 25.51 222.95 25.34 222.71C24.96 222.18 25.71 223.55 25.26 222.56C25.02 222.03 24.78 221.49 24.6 220.93C24.85 221.73 24.63 221 24.6 220.85C24.53 220.42 24.42 220 24.37 219.56C24.4 219.78 24.4 220.39 24.4 219.49C24.4 219.32 24.41 217.9 24.39 218.36C24.35 219.04 24.49 217.61 24.48 217.67C24.52 217.38 24.57 217.09 24.62 216.8C24.62 216.77 24.97 215.39 24.74 216.2C24.82 215.92 24.91 215.64 25 215.36C25.22 214.68 25.49 214.03 25.76 213.37C26.22 212.28 25.54 213.77 25.87 213.14C26.07 212.75 26.28 212.37 26.5 212C27.16 210.9 27.81 210.02 28.34 209.45C29.17 208.55 30.09 207.7 31.11 207.01C30.68 207.3 31.69 206.67 31.63 206.7C31.84 206.58 32.06 206.46 32.28 206.35C32.83 206.07 33.39 205.83 33.97 205.62C34.25 205.52 34.53 205.43 34.81 205.36C35.4 205.19 34.12 205.46 35.16 205.28C35.82 205.16 36.49 205.1 37.16 205.08C39.34 205.03 41.05 205.44 43.18 206.48C44.9 207.32 46.53 208.71 47.57 210.22C47.73 210.45 47.87 210.69 48.03 210.92C48.61 211.78 47.88 210.5 48.12 211.07C48.32 211.55 48.53 212.02 48.72 212.5C49.14 213.53 48.59 211.7 48.8 212.78C48.84 213.01 48.91 213.23 48.95 213.46C49.02 213.8 49.07 214.14 49.12 214.49C49.02 213.73 49.08 214.25 49.1 214.71C49.11 215.04 48.95 216.74 49.11 215.63C49.03 216.21 48.94 216.78 48.85 217.36C48.82 217.53 48.66 218.12 48.87 217.34C48.78 217.68 48.68 218.01 48.57 218.35C48.38 218.9 48.17 219.45 47.93 219.98C48.26 219.26 47.75 220.29 47.72 220.35C47.61 220.55 47.49 220.76 47.37 220.96C47.06 221.46 46.73 221.94 46.38 222.4C46.75 221.93 46.02 222.81 46.03 222.79C45.87 222.96 45.71 223.13 45.54 223.3C45.04 223.8 44.5 224.27 43.93 224.69C42.25 225.92 39.93 226.86 37.77 227.21C32.84 228 27.76 226.71 24.07 223.29C23.09 222.38 22.27 221.35 21.6 220.14C21.06 219.16 20.74 218.23 20.55 216.93C20.63 217.47 20.55 216.84 20.54 216.76C20.54 216.62 20.54 215.27 20.5 215.79C20.52 215.53 20.55 215.27 20.59 215.02C20.58 215.1 20.8 213.91 20.69 214.36C21 213.08 21.55 211.95 22.43 210.97C25.84 207.15 32 206.66 36.6 208.21C39.35 209.13 39.73 203.45 37.49 202.49H37.47Z" fill="#1D1D1B"/>
<path d="M24.38 226.23C25.51 225.9 26.43 224.69 27.21 223.85C27.99 223.01 28.79 222.15 29.59 221.31C31.27 219.53 32.98 217.77 34.7 216.03C36.42 214.29 38.07 212.65 39.78 210.99C41.59 209.24 43.68 207.61 45.26 205.65C46.08 204.63 45.98 202.69 45.51 201.55C45.16 200.73 44.01 199.36 42.97 200.06C41.87 200.8 41.01 201.76 40.06 202.67C39.18 203.52 38.29 204.36 37.41 205.22C35.65 206.93 33.91 208.65 32.19 210.4C30.47 212.15 28.86 213.81 27.22 215.55C25.43 217.45 23 219.45 22.09 221.95C21.53 223.5 22.11 226.91 24.39 226.24L24.38 226.23Z" fill="#1D1D1B"/>
<path d="M27.01 232.16C28.49 232.96 29.69 231.42 30.56 230.46C31.43 229.5 32.4 228.48 33.36 227.53C35.32 225.57 37.36 223.69 39.41 221.82C41.46 219.95 43.39 218.2 45.37 216.38C46.39 215.44 47.39 214.48 48.36 213.48C49.38 212.43 50.64 211.23 51.32 209.93C52.11 208.42 52.26 206.49 51.39 204.97C50.69 203.74 49.42 203.03 48.17 204.08C47.06 205.01 46.26 206.4 45.34 207.52C44.42 208.64 43.37 209.8 42.34 210.9C40.35 213.03 38.18 215 36.04 216.97C33.9 218.94 31.78 220.91 29.77 223C28.75 224.06 27.55 225.16 26.74 226.4C25.77 227.87 25.09 231.13 27.02 232.17L27.01 232.16Z" fill="#1D1D1B"/>
<path d="M40.67 127.83C44.65 130.16 48.86 131.54 53.52 131.43C57.75 131.33 62.55 130.53 66.3 128.48C68.28 127.39 70.08 125.86 71.23 123.89C71.81 122.89 72.26 121.81 72.6 120.72C72.75 120.25 72.88 119.77 73.03 119.29C73.11 119.06 73.19 118.83 73.27 118.59C73.58 117.65 73.01 118.84 73.33 118.43C73.39 118.36 73.79 117.73 73.54 118.09C73.28 118.47 73.98 117.82 73.6 118.03C73.29 118.21 74.57 117.62 74.29 117.7C73.99 117.79 74.49 117.67 74.52 117.67C74.74 117.65 74.97 117.63 75.19 117.63C75.41 117.63 75.65 117.64 75.87 117.67C75.35 117.6 76.31 117.82 76.34 117.83C76.56 117.91 77.32 118.3 77.17 118.2C76.88 118.01 78.09 119.08 77.82 118.77C77.52 118.43 78 119.03 78.06 119.12C78.17 119.27 78.26 119.44 78.37 119.59C77.92 118.99 78.26 119.34 78.37 119.58C78.52 119.93 78.66 120.28 78.8 120.63C79.06 121.3 78.92 120.58 78.77 120.5C78.83 120.53 78.89 120.98 78.9 121.05C79.01 121.56 79.09 122.07 79.17 122.59C79.29 123.34 79.12 121.63 79.14 122.39C79.14 122.65 79.18 122.92 79.19 123.18C79.22 123.77 79.24 124.37 79.24 124.96C79.24 125.23 79.23 125.49 79.22 125.76C79.21 126.58 79.08 125.64 79.25 125.55C79.15 125.61 79.14 126.85 79.13 126.95C79.01 128.09 78.85 129.23 78.67 130.37C77.96 134.92 77.03 139.47 77.15 144.1C77.28 149.2 78.65 154.92 82.49 158.54C86.33 162.16 91.76 160.75 95.89 158.27C98.22 156.87 100.47 155.36 102.87 154.07C104.11 153.4 105.37 152.77 106.65 152.17C107.26 151.89 107.87 151.59 108.49 151.35C108.73 151.26 109.03 151.12 109.29 151.08C108.88 151.14 109.9 151.13 109.49 151.1C109.13 151.07 109.82 151.24 109.86 151.24C110.2 151.21 109.46 151 109.98 151.34C110.16 151.45 110.48 151.92 109.96 151.26C110.14 151.49 110.32 151.73 110.48 151.97C111.09 152.87 111.53 153.87 112.15 154.76C113.9 157.29 116.67 159.48 119.84 158.17C121.87 157.33 122.32 154.38 122.1 152.51C121.91 150.82 120.87 148.01 118.7 148.16C118.12 148.2 118.37 148.23 118.59 148.26C118.37 148.23 118.16 148.12 117.94 148.07C117.81 148.04 117.31 147.75 117.86 148.09C117.65 147.96 117.47 147.78 117.29 147.62C117.13 147.49 116.86 147.04 117.24 147.59C117.13 147.43 117.01 147.28 116.9 147.13C116.59 146.68 116.33 146.2 116.06 145.72C114.96 143.77 113.49 141.71 111.3 140.89C108.73 139.93 106.18 141.19 103.89 142.29C101.6 143.39 99.42 144.57 97.29 145.88C95.34 147.08 93.47 148.43 91.38 149.39C90.95 149.59 90.51 149.77 90.06 149.93C89.81 150.02 89.56 150.11 89.3 150.17C88.68 150.32 89.69 150.13 89.08 150.2C88.63 150.25 88.2 150.26 87.75 150.26C87.4 150.26 87.12 150.16 86.46 149.87C86.43 149.86 85.94 149.54 86.23 149.75C86.57 149.99 85.97 149.5 85.91 149.45C85.82 149.37 85.31 148.8 85.62 149.18C85.93 149.56 85.46 148.93 85.4 148.84C85.29 148.68 85.2 148.51 85.09 148.36C85.58 149.01 85.23 148.67 85.12 148.41C84.93 147.98 84.34 147.06 84.4 146.6C84.4 146.6 84.62 147.52 84.51 146.93C84.46 146.68 84.39 146.43 84.33 146.18C84.29 145.99 84.05 144.37 84.14 145.17C84.22 145.91 84.15 145.24 84.14 145.11C84.13 144.85 84.11 144.6 84.09 144.34C84.07 143.76 84.06 143.17 84.08 142.59C84.08 142.33 84.1 142.07 84.11 141.81C84.14 141.05 84.01 142.8 84.11 142.04C84.16 141.58 84.2 141.12 84.25 140.65C84.38 139.52 84.55 138.38 84.73 137.26C85.07 135.12 85.46 132.98 85.73 130.82C86.37 125.71 86.44 120.4 84.52 115.53C82.91 111.44 79.12 107.25 74.28 107.94C71.8 108.3 69.81 109.73 68.61 111.93C68.02 113.02 67.62 114.16 67.29 115.36C67.17 115.78 67.06 116.21 66.93 116.63C66.86 116.86 66.74 117.1 66.68 117.34C66.58 117.76 66.98 116.92 66.59 117.53C66.46 117.73 66.34 117.93 66.2 118.13C66.49 117.71 66.17 118.17 66.01 118.34C65.64 118.73 65.23 119.08 64.8 119.41C64.78 119.43 64.29 119.76 64.62 119.54C64.36 119.71 64.09 119.87 63.83 120.02C63.34 120.29 62.84 120.54 62.33 120.77C60.26 121.69 58.03 122.34 55.8 122.73C51.24 123.53 45.79 123.74 41.69 121.34C40.28 120.51 39.19 122.74 39.02 123.76C38.77 125.35 39.25 127.04 40.67 127.87V127.83Z" fill="#1D1D1B"/>
</g>
<defs>
<clipPath id="clip0_3416_10433">
<rect width="160.17" height="295.46" fill="white"/>
</clipPath>
</defs>
</svg>
