<svg width="280" height="194" viewBox="0 0 280 194" fill="none" xmlns="http://www.w3.org/2000/svg">
<g clip-path="url(#clip0_3416_10823)">
<path d="M107.84 48.9699C108.1 48.3799 108.18 47.3999 108.18 46.7699C108.18 46.3399 108.12 45.9099 108.04 45.4899C108.04 45.4599 108.03 45.4299 108.02 45.3999C107.92 45.0399 107.81 44.6299 107.68 44.2799C107.54 43.8899 107.29 43.5199 107.1 43.1699L107.95 45.2399L107.93 45.0799C107.82 44.4199 107.6 43.8199 107.25 43.2599C107.02 42.7299 106.67 42.2699 106.22 41.8899L105.36 41.3699C104.73 41.1299 104.1 41.1399 103.48 41.4199C103.45 41.4299 103.41 41.4499 103.38 41.4599C103.36 41.4599 103.35 41.4799 103.33 41.4899L102.5 42.0499L102.47 42.0699C102.13 42.3199 101.76 42.8799 101.61 43.0899C101.59 43.1199 101.56 43.1599 101.54 43.1899C101.53 43.2099 101.52 43.2299 101.51 43.2399C101.35 43.5399 101.1 44.0699 100.97 44.3699C100.95 44.4099 100.94 44.4499 100.92 44.4799C100.92 44.4999 100.91 44.5199 100.9 44.5399C100.78 44.9599 100.66 45.4599 100.56 45.8799L100.89 44.5799C100.52 45.9999 100.47 46.0699 100.43 47.5799C100.41 48.1599 100.48 48.7599 100.63 49.3299C100.96 50.6099 101.08 50.8599 101.72 51.9799C101.96 52.3899 102.39 52.7999 102.67 53.0999C102.75 53.1799 102.84 53.2599 102.93 53.3299C103.3 53.5899 103.69 53.8499 104.11 54.0399C104.17 54.0699 104.24 54.0899 104.3 54.1099C104.34 54.1199 104.38 54.1299 104.42 54.1399L104.91 54.2299C105.09 54.2599 105.27 54.2899 105.44 54.3299C105.51 54.3299 105.58 54.3399 105.65 54.3299C105.68 54.3299 105.72 54.3299 105.75 54.3199C105.92 54.2799 106.1 54.2399 106.27 54.1999C106.44 54.1699 106.62 54.1299 106.79 54.0799C106.84 54.0699 106.88 54.0499 106.92 54.0299C107.27 53.8499 107.58 53.6099 107.89 53.3799C107.93 53.3499 107.97 53.3199 108.01 53.2799C108.31 52.9699 108.57 52.6199 108.83 52.2699C109.14 51.8499 109.34 51.3399 109.52 50.8599C109.72 50.3299 109.86 49.7499 109.93 49.1899C110.1 47.8299 110.05 47.2099 109.85 45.8699C109.85 45.8199 109.83 45.7599 109.82 45.7099C109.72 45.2999 109.52 44.6999 109.39 44.2899C109.38 44.2499 109.36 44.1999 109.35 44.1599C108.9 43.0499 108.36 42.3599 107.53 41.5199C107.43 41.4199 107.32 41.3299 107.2 41.2499C106.88 41.0399 106.52 40.8199 106.19 40.6299C106.14 40.5999 106.09 40.5699 106.04 40.5499C105.97 40.5099 105.89 40.4799 105.81 40.4499C105.73 40.4199 105.66 40.3999 105.58 40.3699C105.55 40.3699 105.53 40.3599 105.5 40.3499C104.41 40.0599 104.3 40.0899 103.22 40.3999C103.07 40.4499 102.91 40.4999 102.77 40.5599C102.2 40.8099 101.75 41.1899 101.42 41.6899C100.95 42.1899 100.62 42.7699 100.42 43.4399L100.05 44.9199C99.9001 45.7399 99.9001 46.5599 100.04 47.3699C100.05 47.8999 100.16 48.4199 100.35 48.9099C100.51 49.6199 100.81 50.2699 101.23 50.8699L102.07 51.8099C102.66 52.3299 103.34 52.5899 104.13 52.5999H104.17C103.81 52.5399 103.45 52.4799 103.09 52.4099C103.2 52.4299 103.31 52.4499 103.42 52.4799C103.45 52.4799 103.48 52.4999 103.52 52.5099H103.56C103.93 52.5899 104.3 52.6499 104.66 52.7199C104.72 52.7199 104.78 52.6999 104.84 52.6899C105.06 52.6599 105.29 52.6499 105.51 52.6899L104.44 52.4999C104.61 52.5299 104.77 52.5899 104.93 52.6799L103.98 52.0999C104.08 52.1599 104.17 52.2399 104.25 52.3199L103.44 51.4199C103.49 51.4799 103.54 51.5399 103.58 51.6099L102.95 50.4399C102.98 50.4899 103 50.5499 103.02 50.6099L102.6 49.2399C102.62 49.2999 102.63 49.3499 102.64 49.4099L102.47 47.8899C102.47 47.8899 102.47 47.9499 102.47 47.9799L102.57 46.4499C102.57 46.5099 102.56 46.5699 102.54 46.6299L102.88 45.2599C102.86 45.3299 102.84 45.3999 102.81 45.4599L103.37 44.2899C103.33 44.3699 103.28 44.4499 103.23 44.5199L103.96 43.6099C103.91 43.6699 103.85 43.7199 103.78 43.7699L104.65 43.1799C104.56 43.2399 104.46 43.2799 104.36 43.3099L105.34 43.0899C105.2 43.1199 105.07 43.1099 104.93 43.0899L105.91 43.2699C105.71 43.2299 105.52 43.1699 105.34 43.0599L106.22 43.5999C106.11 43.5299 106.01 43.4499 105.92 43.3499L106.67 44.1899C106.61 44.1299 106.56 44.0599 106.52 43.9799L107.11 45.0699C107.08 45.0099 107.05 44.9399 107.03 44.8699L107.42 46.1599C107.4 46.0999 107.39 46.0399 107.38 45.9799L107.54 47.4199C107.54 47.3599 107.54 47.2999 107.54 47.2299L107.45 48.6699C107.45 48.6699 107.45 48.5899 107.47 48.5499L107.14 49.8499C107.16 49.7799 107.18 49.7099 107.21 49.6499L106.68 50.7599C106.71 50.6999 106.75 50.6399 106.79 50.5799L106.09 51.4399C106.14 51.3799 106.2 51.3199 106.27 51.2799L105.44 51.8399C105.44 51.8399 105.54 51.7899 105.59 51.7699L106.42 51.2099C106.85 50.8099 107.17 50.3399 107.38 49.7999C107.6 49.4299 107.74 49.0299 107.81 48.5999C108.02 47.9199 108.11 47.2299 108.06 46.5099V46.4899C107.58 47.8599 107.1 49.2399 106.62 50.6099C106.67 50.5599 106.72 50.5099 106.78 50.4699L106.09 50.9399C106.09 50.9399 106.18 50.8799 106.22 50.8599C106.23 50.8599 106.24 50.8599 106.26 50.8499C106.41 50.7899 105.56 51.3299 106.58 50.6299C106.82 50.5099 107.02 50.3299 107.15 50.0899C107.46 49.7599 107.68 49.3799 107.81 48.9399L107.84 48.9699Z" fill="black"/>
<path d="M148.65 69.2701C149.57 68.8501 150.18 67.9101 150.5 66.9801C150.64 66.5701 150.75 66.1501 150.82 65.7201C150.82 65.7201 150.82 65.7001 150.82 65.6901C150.84 65.5001 150.9 64.5301 150.91 64.3401C150.91 64.3101 150.91 64.2801 150.91 64.2501C150.9 64.0201 150.82 63.4601 150.83 63.5501C150.81 63.3901 150.78 63.0801 150.75 62.8401C150.75 62.8101 150.75 62.7801 150.73 62.7501C150.62 62.2701 150.47 61.8001 150.3 61.3401C150.29 61.3101 150.28 61.2801 150.26 61.2501C150.26 61.2401 150.25 61.2301 150.24 61.2201C150.11 60.9701 149.78 60.3501 149.64 60.1001C149.62 60.0701 149.61 60.0401 149.59 60.0101C149.57 59.9801 148.85 59.1701 148.81 59.1401C148.79 59.1201 148.77 59.1101 148.76 59.1001C148.73 59.0801 148.71 59.0601 148.68 59.0501C148.44 58.9001 148 58.6201 147.76 58.4901C147.75 58.4901 147.74 58.4801 147.72 58.4701C147.67 58.4401 147.61 58.4201 147.55 58.4001C147.36 58.3501 147.11 58.3201 146.96 58.2901C146.81 58.2601 146.56 58.2101 146.37 58.1901C146.32 58.1901 146.26 58.1901 146.21 58.1901C146.19 58.1901 146.16 58.1901 146.14 58.1901C146.14 58.1901 146.12 58.1901 146.11 58.1901L145.58 58.3101C145 58.3801 144.51 58.6301 144.1 59.0801C144.06 59.1201 144.01 59.1601 143.97 59.2001C143.83 59.3601 143.6 59.6601 143.56 59.7101C143.53 59.7401 143.27 60.0501 143.15 60.2201C143.13 60.2401 143.12 60.2701 143.1 60.2901C143.08 60.3101 143.07 60.3401 143.06 60.3701C142.94 60.6101 142.55 61.4201 142.45 61.6601C142.45 61.6801 142.43 61.7001 142.43 61.7201C142.43 61.7401 142.42 61.7701 142.41 61.7901L142.22 62.5401C142.15 62.8001 142.09 63.0601 142.03 63.3201C142.03 63.3301 142.03 63.3501 142.03 63.3601C141.93 63.9701 141.87 64.6001 141.92 65.2201C141.97 65.8401 141.98 66.4701 142.14 67.0601C142.48 68.3301 142.64 68.8901 143.35 69.9901C143.37 70.0201 143.39 70.0401 143.41 70.0701C143.55 70.2401 144.14 70.9001 144.29 71.0601C144.29 71.0701 144.31 71.0801 144.32 71.0901C144.34 71.1101 144.37 71.1301 144.4 71.1501C144.41 71.1501 144.42 71.1701 144.43 71.1701L145.45 71.7901C145.45 71.7901 145.47 71.8001 145.49 71.8101C145.54 71.8401 145.6 71.8601 145.66 71.8801C145.67 71.8801 145.69 71.8801 145.7 71.8801C145.95 71.9401 146.59 72.0401 146.85 72.0901C146.89 72.0901 146.92 72.1001 146.96 72.1001C147.02 72.1001 147.09 72.1001 147.15 72.0901C147.34 72.0501 147.65 71.9701 147.74 71.9501C147.77 71.9501 148.15 71.8701 148.33 71.8101C148.37 71.8001 148.4 71.7901 148.44 71.7701C148.5 71.7501 148.55 71.7201 148.6 71.6801C148.89 71.4901 149.43 71.2001 149.76 70.8701C149.78 70.8501 149.8 70.8301 149.82 70.8101C149.83 70.8001 149.84 70.7801 149.86 70.7701C150.1 70.4801 150.5 69.9901 150.73 69.7001C150.77 69.6401 150.81 69.5901 150.85 69.5301C150.87 69.5001 150.88 69.4701 150.9 69.4301C151.07 69.0901 151.41 68.4001 151.56 68.0401C151.56 68.0201 151.58 68.0001 151.58 67.9801C151.59 67.9501 151.6 67.9201 151.61 67.8901C151.69 67.6101 151.77 67.2601 151.83 67.0401C151.89 66.8101 151.98 66.4701 152.04 66.1801C152.04 66.1401 152.05 66.1001 152.06 66.0601C152.09 65.7401 152.16 64.5701 152.18 64.2401C152.18 64.2201 152.18 64.2001 152.18 64.1801C152.18 64.1601 152.18 64.1401 152.18 64.1201V64.0901C152.11 63.4901 152.04 62.8901 151.97 62.2901C151.97 62.2501 151.96 62.2001 151.95 62.1601C151.88 61.8901 151.69 61.3101 151.7 61.3201C151.65 61.1601 151.54 60.7301 151.44 60.4601C151.26 59.9901 150.54 58.7901 150.67 59.0201C150.53 58.7601 150.27 58.5301 150.09 58.3301C150.6 58.9001 149.76 57.9201 149.6 57.7801C148.88 57.1201 148.65 57.1201 147.89 56.9901C147.52 56.9201 147.46 56.8501 147.22 56.8901C147.35 56.8601 146.25 57.0401 145.9 57.2101C145.87 57.2301 145.84 57.2401 145.81 57.2601C145.67 57.3501 144.91 57.8601 144.78 57.9601C144.76 57.9701 144.75 57.9801 144.73 58.0001C144.71 58.0201 144.68 58.0401 144.66 58.0701C144.51 58.2401 144.32 58.4901 144.22 58.6201C144.1 58.7701 143.91 58.9901 143.77 59.1801C143.24 60.0601 142.9 61.0201 142.76 62.0401C142.59 63.1801 142.62 64.3201 142.84 65.4501C143.21 67.2201 144.13 69.1101 145.89 69.8601C145.92 69.8701 145.95 69.8901 145.98 69.9001L144.95 69.2701C145.01 69.3101 145.06 69.3501 145.11 69.4001L144.2 68.3801C144.25 68.4401 144.29 68.5001 144.33 68.5601L143.6 67.2001C143.6 67.2001 143.63 67.2701 143.65 67.3001C144.02 68.2401 144.58 69.0501 145.33 69.7201C145.7 69.9501 146.07 70.1801 146.44 70.4001L145.35 69.7401C145.41 69.7801 145.46 69.8201 145.5 69.8701L144.57 68.8301C144.57 68.8301 144.62 68.9001 144.64 68.9301L143.91 67.5701C143.91 67.5701 143.95 67.6601 143.97 67.7101L143.48 66.1001C143.5 66.1601 143.51 66.2201 143.52 66.2801L143.32 64.4901C143.32 64.5501 143.32 64.6201 143.32 64.6801L143.43 62.8901C143.43 62.9701 143.41 63.0401 143.39 63.1201L143.79 61.5101C143.76 61.6201 143.72 61.7201 143.68 61.8201L144.33 60.4601C144.27 60.5701 144.21 60.6801 144.13 60.7801L144.98 59.7301C144.91 59.8101 144.84 59.8801 144.75 59.9401L145.76 59.2601C145.67 59.3201 145.58 59.3601 145.48 59.3901L146.6 59.1301C146.5 59.1501 146.41 59.1601 146.31 59.1401L147.44 59.3401C147.37 59.3301 147.31 59.3101 147.25 59.2701L148.27 59.8901C148.27 59.8901 148.19 59.8301 148.15 59.7901L149.02 60.7601C149.02 60.7601 148.97 60.7001 148.95 60.6701L149.63 61.9301C149.63 61.9301 149.59 61.8401 149.57 61.8001L150.02 63.2901C150.02 63.2901 150 63.1901 149.99 63.1401L150.18 64.8001C150.18 64.8001 150.18 64.7101 150.18 64.6601L150.07 66.3201C150.07 66.2601 150.08 66.2101 150.09 66.1601L149.72 67.6501C149.74 67.5801 149.76 67.5101 149.8 67.4401L149.2 68.7101C149.2 68.7101 149.24 68.6301 149.26 68.6001C149.4 68.3801 149.35 68.4201 149.58 67.9401C149.83 67.5201 149.99 67.0601 150.07 66.5701C150.14 66.3201 150.2 66.0601 150.26 65.8101L149.89 67.2801C149.89 67.2801 149.92 67.2101 149.93 67.1701L149.34 68.4101C149.38 68.3201 149.43 68.2401 149.49 68.1601L148.73 69.1001C148.8 69.0201 148.87 68.9501 148.96 68.8801L148.07 69.4801C148.12 69.4401 148.18 69.4101 148.24 69.3901C148.86 69.1001 148.86 68.9601 149.21 68.7201L148.36 69.2901C148.44 69.2401 148.53 69.1901 148.63 69.1601L147.75 69.3601C147.75 69.3601 147.85 69.3401 147.9 69.3501L147.07 69.2001C147.07 69.2001 147.1 69.2001 147.12 69.2201L146.39 68.7701C146.39 68.7701 146.4 68.7801 146.41 68.7901C146.73 69.1001 147.1 69.2701 147.53 69.3001C147.93 69.4301 148.32 69.3901 148.72 69.1901L148.65 69.2701Z" fill="black"/>
<path d="M27.06 78.2201C26.7 78.1501 26.43 78.0801 26.01 78.0201C25.95 78.0201 25.9 78.0101 25.84 78.0201C25.2 78.0601 24.48 78.3301 24.03 78.8101C23.77 79.0901 23.41 79.5601 23.28 79.7301C23.26 79.7601 23.24 79.7801 23.22 79.8101C23.22 79.8201 23.2 79.8401 23.2 79.8501C23.1 80.0401 23.01 80.2401 22.92 80.4301C22.83 80.6201 22.73 80.8201 22.64 81.0101C22.63 81.0401 22.62 81.0701 22.61 81.1001V81.1201C22.49 81.5601 22.38 82.0001 22.27 82.4501C22.27 82.4701 22.26 82.4901 22.26 82.5101C22.21 82.7701 22.21 83.1701 22.2 83.3401C22.18 83.6201 22.14 83.9101 22.15 84.2001C22.22 85.4801 22.35 86.0201 22.76 87.2101C22.77 87.2501 22.79 87.2901 22.8 87.3301C22.8 87.3501 22.82 87.3701 22.83 87.3801C22.94 87.5801 23.04 87.7801 23.15 87.9701C23.25 88.1701 23.36 88.3701 23.47 88.5701C23.51 88.6401 23.56 88.7101 23.62 88.7701C23.85 89.0401 24.21 89.5601 24.6 89.8001C24.79 89.9201 25.35 90.3301 25.73 90.4601C26.14 90.6001 26.58 90.6601 27 90.7001C27.08 90.7001 27.16 90.7001 27.24 90.7001C27.26 90.7001 27.28 90.7001 27.3 90.7001C27.62 90.6401 28.04 90.5401 28.35 90.4601C28.4 90.4501 28.44 90.4401 28.49 90.4201C28.57 90.3901 28.64 90.3501 28.71 90.3101C29.04 90.1001 29.39 89.8701 29.7 89.6401C29.74 89.6101 29.77 89.5801 29.81 89.5501C29.98 89.3801 30.15 89.1401 30.28 88.9801C30.4 88.8301 30.61 88.6101 30.74 88.4101C31.04 87.9601 31.27 87.4501 31.45 86.9301C31.45 86.9101 31.46 86.8901 31.47 86.8701C31.53 86.6201 31.6 86.3601 31.66 86.1101C31.73 85.8601 31.79 85.6001 31.85 85.3501C31.95 84.8001 31.97 83.7401 31.97 83.6001C32 82.9601 31.89 82.3201 31.76 81.7001L31.94 83.3301C31.94 83.3301 31.94 83.2901 31.94 83.2701L31.75 81.6301C31.75 81.6301 31.75 81.5701 31.73 81.5401C31.66 81.2801 31.58 81.0301 31.5 80.7701C31.43 80.5101 31.35 80.2501 31.27 80.0001C31.26 79.9701 31.25 79.9401 31.23 79.9101C30.63 78.6701 30.43 78.3701 29.48 77.4101C29.39 77.3101 29.28 77.2301 29.17 77.1601C28.78 76.9001 28.41 76.5501 27.95 76.4601C27.62 76.4001 27.05 76.2601 26.61 76.2301C26.13 76.1901 25.36 76.3401 25.09 76.5201C24.69 76.7701 24.3 77.0201 23.93 77.3101C23.58 77.6201 23.29 77.9801 23.05 78.3901L22.4 79.7501C22.18 80.2901 22.06 80.8301 21.99 81.3901C21.93 81.9701 21.9 82.5601 21.88 83.1401L22.07 84.8601C22.2 85.6501 22.47 86.3801 22.89 87.0501C23.01 87.2701 23.13 87.5001 23.25 87.7201C23.48 88.1401 23.59 88.3001 24.18 88.7801C24.65 89.2401 25.19 89.4901 25.82 89.5301C26.02 89.5701 26.23 89.6101 26.43 89.6401C26.92 89.6801 26.98 89.6201 27.76 89.3901C27.83 89.3701 27.89 89.3501 27.96 89.3301L26.8 89.6001C26.91 89.5701 27.03 89.5601 27.14 89.5501C27.64 89.5301 28.1 89.3401 28.58 89.2201L27.45 89.4801C27.58 89.4501 27.71 89.4301 27.85 89.4601L26.74 89.2601C26.8 89.2701 26.85 89.2901 26.9 89.3201L25.91 88.7201C25.91 88.7201 25.97 88.7701 26 88.7901L24.5 86.6201C24.5 86.6201 24.53 86.6901 24.54 86.7301L24.1 85.2801C24.1 85.2801 24.12 85.3801 24.13 85.4301L23.95 83.8101C23.95 83.8701 23.95 83.9301 23.95 83.9901L24.05 82.3701C24.05 82.4301 24.03 82.4901 24.02 82.5601L24.39 81.1001C24.37 81.1801 24.34 81.2601 24.31 81.3301L24.9 80.1001C24.85 80.1901 24.8 80.2801 24.73 80.3701L25.5 79.4201C25.41 79.5301 25.32 79.6201 25.2 79.7001L26.11 79.0801C25.99 79.1601 25.86 79.2201 25.72 79.2501L26.74 79.0201C26.6 79.0501 26.47 79.0501 26.33 79.0201L27.35 79.2001C27.2 79.1701 27.04 79.1101 26.91 79.0401L27.82 79.5901C27.75 79.5501 27.69 79.5001 27.64 79.4401L28.41 80.3001C28.41 80.3001 28.35 80.2201 28.32 80.1701L28.92 81.2901C28.92 81.2901 28.88 81.2001 28.86 81.1501L29.26 82.4701C29.26 82.4701 29.24 82.3901 29.23 82.3501L29.4 83.8101C29.4 83.7601 29.4 83.7001 29.4 83.6501L29.31 85.1101C29.31 85.0501 29.33 84.9801 29.34 84.9201L29.01 86.2301C29.01 86.2301 29.03 86.1601 29.04 86.1201C29.44 84.9401 29.38 84.6001 29.46 83.3401L29.37 84.7701C29.37 84.7201 29.38 84.6701 29.39 84.6201L29.07 85.8801C29.09 85.8101 29.11 85.7401 29.14 85.6701L28.64 86.7101C28.64 86.7101 28.67 86.6601 28.68 86.6301C29.09 85.9401 29.36 85.1901 29.47 84.3901C29.61 83.5001 29.58 82.6101 29.4 81.7201C29.25 80.9301 28.94 80.2001 28.5 79.5201C28.13 78.9501 27.63 78.5301 27.01 78.2601L27.06 78.2201Z" fill="black"/>
<path d="M68.81 97.4302C68.53 97.1002 68.25 96.7702 67.94 96.4702C67.83 96.3702 67.72 96.2702 67.6 96.1902C67.34 96.0202 67.05 95.8502 66.78 95.6902C66.75 95.6702 66.72 95.6602 66.69 95.6402C66.64 95.6202 66.59 95.5902 66.54 95.5802C66.53 95.5802 66.52 95.5802 66.51 95.5802C66.36 95.5402 65.75 95.4402 65.6 95.4202C65.57 95.4202 65.55 95.4202 65.52 95.4202C65.5 95.4202 65.48 95.4202 65.47 95.4202C65.33 95.4302 64.5 95.6402 64.99 95.5302C64.88 95.5602 64.66 95.6002 64.5 95.6402L66.38 95.5901C66.06 95.5301 65.75 95.4802 65.43 95.4202C64.91 95.4202 64.46 95.5902 64.08 95.9202C63.75 96.0802 63.5 96.3201 63.32 96.6301C62.91 97.0701 62.62 97.5802 62.44 98.1702C62.43 98.2002 62.42 98.2302 62.41 98.2502L62.25 98.9002C62.19 99.1202 62.14 99.3502 62.08 99.5702C62.08 99.5802 62.08 99.6002 62.08 99.6102C62 100.14 61.95 100.68 61.98 101.22C62.01 101.76 62.04 102.31 62.17 102.83C62.17 102.85 62.17 102.86 62.18 102.88C62.28 103.26 62.46 103.82 62.58 104.2C62.59 104.23 62.6 104.26 62.62 104.3C62.64 104.34 62.65 104.36 62.66 104.39C62.83 104.73 63.08 105.18 63.26 105.51C63.26 105.53 63.28 105.54 63.29 105.56C63.33 105.62 63.37 105.68 63.41 105.73C63.69 106.07 63.97 106.41 64.29 106.71C64.35 106.76 64.41 106.81 64.48 106.85C64.83 107.07 65.18 107.33 65.57 107.5C65.8 107.6 66.08 107.62 66.32 107.67C66.5 107.7 66.78 107.78 67 107.77C67.39 107.74 67.78 107.63 68.16 107.51C68.21 107.49 68.26 107.47 68.31 107.44C68.32 107.44 68.34 107.43 68.35 107.42C68.61 107.26 69.01 106.98 69.26 106.81C69.29 106.79 69.31 106.77 69.34 106.75C69.38 106.71 69.42 106.67 69.46 106.63C69.51 106.57 70.1 105.93 70.3 105.57C70.54 105.13 70.79 104.69 70.94 104.21C71.01 103.98 71.11 103.54 71.13 103.47C71.18 103.27 71.27 102.97 71.32 102.72C71.32 102.69 71.33 102.65 71.33 102.62C71.49 101.17 71.46 100.77 71.25 99.3302C71.25 99.2902 71.24 99.2602 71.23 99.2202C71.23 99.2002 71.23 99.1902 71.22 99.1702C71.08 98.7002 70.93 98.1902 70.78 97.7202L71.21 99.1301C71.21 99.1301 71.21 99.0902 71.2 99.0702C71.12 98.7402 70.87 97.9601 70.76 97.6301C70.75 97.5901 70.74 97.5601 70.72 97.5201C70.62 97.2901 70.45 97.0002 70.35 96.8302C70.25 96.6602 70.11 96.3502 69.97 96.1402C69.95 96.1102 69.93 96.0802 69.9 96.0502C69.89 96.0402 69.88 96.0202 69.87 96.0102C69.6 95.6902 69.29 95.3502 69.01 95.0402C68.96 94.9802 68.9 94.9301 68.84 94.8801C68.81 94.8601 68.79 94.8402 68.76 94.8202C68.59 94.7002 68.37 94.5802 68.22 94.4902C68.05 94.3902 67.87 94.2702 67.69 94.1702C67.66 94.1502 67.62 94.1302 67.59 94.1202C67.53 94.0902 66.52 93.9102 66.45 93.9102C66.26 93.9102 66.07 93.9602 65.89 94.0402C65.49 94.0602 65.14 94.2202 64.85 94.5002C64.66 94.6302 64.39 94.7801 64.21 94.9501C63.85 95.2801 63.57 95.7002 63.28 96.0802C62.78 96.9202 62.46 97.8202 62.32 98.7902C62.16 99.8702 62.18 100.95 62.4 102.02C62.59 102.98 62.95 103.86 63.49 104.67C63.94 105.36 64.54 105.86 65.29 106.19C65.39 106.22 65.47 106.26 65.56 106.31L64.56 105.7C64.56 105.7 64.6 105.72 64.62 105.74C64.79 105.86 64.96 105.97 65.14 106.06C65.6 106.43 66.14 106.59 66.75 106.57C67.16 106.57 67.56 106.4 67.96 106.29L66.87 106.54C67.01 106.51 67.15 106.5 67.29 106.52L66.22 106.33C66.32 106.35 66.42 106.38 66.5 106.43L65.54 105.85C65.54 105.85 65.63 105.91 65.66 105.95L64.85 105.04C64.85 105.04 64.87 105.08 64.88 105.1L64.24 103.92C64.24 103.92 64.28 104 64.29 104.04L63.87 102.64C63.89 102.69 63.9 102.74 63.9 102.8L63.72 101.24C63.72 101.24 63.72 101.33 63.72 101.38L63.82 99.8202C63.82 99.8802 63.81 99.9502 63.79 100.01L64.14 98.6102C64.12 98.6802 64.1 98.7502 64.06 98.8202L64.63 97.6301C64.59 97.7001 64.55 97.7701 64.5 97.8401L65.24 96.9202C65.18 97.0002 65.11 97.0602 65.03 97.1202L65.91 96.5201C65.83 96.5701 65.74 96.6102 65.65 96.6402L66.63 96.4102C66.49 96.4402 66.36 96.4402 66.22 96.4102L67.2 96.5901C67.07 96.5601 66.95 96.5201 66.84 96.4501L67.72 96.9902C67.62 96.9302 67.54 96.8602 67.46 96.7802L68.21 97.6202C68.15 97.5502 68.1 97.4802 68.06 97.4102L68.65 98.5002C68.62 98.4402 68.6 98.3902 68.58 98.3302L68.97 99.6202C68.97 99.6202 68.95 99.5302 68.94 99.4902L69.1 100.93C69.1 100.93 69.1 100.84 69.1 100.79L69.01 102.23C69.04 101.96 69.05 101.74 69.07 101.42C69.14 100.94 69.13 100.46 69.03 99.9802C69.03 99.5102 68.93 99.0602 68.75 98.6202C68.67 98.1902 68.51 97.8002 68.27 97.4402C68.19 97.2502 68.09 97.0602 67.98 96.9002L68.95 99.2502C68.95 99.2502 68.95 99.2201 68.95 99.2001L69.11 100.61C69.11 100.61 69.11 100.54 69.11 100.51L69.02 101.9C69.02 101.9 69.02 101.82 69.04 101.78L68.73 103.01C68.75 102.95 68.77 102.88 68.8 102.83L68.31 103.85C68.35 103.77 68.39 103.7 68.44 103.64L67.82 104.4C68 104.18 68.22 104 68.45 103.85C68.88 103.43 69.18 102.93 69.38 102.36C69.57 101.87 69.66 101.36 69.66 100.83C69.73 100.28 69.7 99.7401 69.57 99.2001C69.44 98.5601 69.2 97.9602 68.84 97.4102L68.81 97.4302Z" fill="black"/>
<path d="M116.21 120.65C116.19 120.26 116.17 119.84 116.07 119.45C116.02 119.24 115.87 118.65 115.71 118.32L116.02 119.34L115.99 119.21L115.6 117.93C115.4 117.35 115.08 116.86 114.65 116.44C114.45 116.14 114.18 115.91 113.85 115.77C113.46 115.46 113 115.32 112.48 115.34C112.31 115.33 112.36 115.36 112 115.45L111.53 115.56L110.7 116.12C110.7 116.12 110.68 116.14 110.67 116.16C110.55 116.3 110.32 116.59 110.31 116.6C110.31 116.61 110.06 116.89 109.95 117.04C109.94 117.06 109.93 117.07 109.92 117.09C109.92 117.1 109.9 117.12 109.9 117.13C109.9 117.13 109.9 117.14 109.89 117.15C109.81 117.31 109.43 118.11 109.36 118.26C109.35 118.29 109.33 118.32 109.32 118.36V118.38C109.27 118.56 109.03 119.5 108.99 119.69C108.99 119.71 108.99 119.72 108.98 119.74C108.97 119.76 108.98 119.77 108.98 119.79V119.81C108.96 120.06 108.9 121.01 108.89 121.26C108.89 121.3 108.89 121.33 108.89 121.37V121.39C108.91 121.6 109.02 122.62 109.05 122.83C109.05 122.85 109.05 122.87 109.05 122.89C109.1 123.13 109.22 123.46 109.27 123.62C109.34 123.85 109.4 124.12 109.5 124.35C109.51 124.38 109.52 124.41 109.54 124.44C109.54 124.44 109.54 124.45 109.55 124.46C109.65 124.65 110.03 125.36 110.14 125.55C110.14 125.57 110.16 125.58 110.17 125.6C110.19 125.63 110.21 125.65 110.23 125.68C110.36 125.83 110.84 126.37 110.98 126.52C110.98 126.52 110.99 126.53 111 126.54C111.01 126.55 111.03 126.57 111.04 126.58C111.07 126.6 111.09 126.62 111.12 126.64C111.26 126.73 111.52 126.88 111.57 126.91C111.61 126.94 111.87 127.1 112.02 127.18C112.04 127.18 112.05 127.2 112.07 127.21C112.1 127.22 112.13 127.24 112.16 127.25C112.18 127.25 112.19 127.25 112.21 127.26H112.23H112.25C112.57 127.32 112.89 127.38 113.21 127.44C113.28 127.45 113.35 127.46 113.41 127.45C113.44 127.45 113.48 127.45 113.51 127.44C113.67 127.41 113.93 127.34 114.01 127.33C114.09 127.32 114.35 127.26 114.51 127.22C114.53 127.22 114.55 127.22 114.56 127.2C114.62 127.18 114.68 127.15 114.73 127.11C114.87 127.01 115.46 126.62 115.6 126.52C115.6 126.52 115.61 126.52 115.62 126.51C115.63 126.51 115.64 126.49 115.66 126.48C115.82 126.34 116.01 126.05 116.09 125.97C116.17 125.89 116.41 125.62 116.51 125.44C116.51 125.44 116.51 125.42 116.52 125.41C116.61 125.24 117 124.42 117.07 124.25C117.07 124.23 117.09 124.21 117.1 124.18C117.17 123.96 117.32 123.3 117.28 123.48C117.24 123.66 117.41 123.01 117.45 122.78C117.45 122.76 117.45 122.74 117.45 122.72C117.46 122.58 117.54 121.34 117.55 121.2C117.55 121.2 117.55 121.18 117.55 121.17C117.55 121.17 117.55 121.15 117.55 121.14C117.54 120.96 117.41 119.8 117.38 119.62C117.38 119.6 117.38 119.58 117.37 119.57C117.37 119.57 117.37 119.55 117.37 119.54C117.33 119.38 117.01 118.33 116.96 118.19C116.96 118.17 116.95 118.16 116.94 118.14C116.94 118.14 116.94 118.12 116.93 118.12L116.32 116.98V116.96C116.17 116.72 115.94 116.5 115.76 116.3C115.64 116.17 115.45 115.92 115.27 115.77C115.1 115.63 114.85 115.5 114.69 115.41C114.44 115.26 114.2 115.08 113.92 114.99C113.87 114.97 113.82 114.96 113.76 114.95C113.73 114.95 112.73 114.76 112.69 114.76L111.64 115H111.62C111.62 115 110.7 115.63 110.68 115.65C110.67 115.66 110.65 115.68 110.64 115.69L109.87 116.64L109.29 117.86L108.93 119.3C108.79 120.1 108.78 120.89 108.92 121.68C108.93 122.2 109.03 122.7 109.22 123.18C109.31 123.65 109.49 124.09 109.76 124.49C109.92 124.9 110.16 125.25 110.49 125.54C110.84 126.02 111.29 126.36 111.85 126.58H111.87C111.55 126.4 111.23 126.21 110.92 126.01C110.93 126.01 110.94 126.03 110.96 126.03L111.92 126.61C112.28 126.69 112.64 126.76 113 126.8L114.05 126.56C114.05 126.56 114.14 126.51 114.19 126.49C114.28 126.45 114.37 126.42 114.46 126.39L113.44 126.62C113.53 126.6 113.62 126.59 113.72 126.61L112.71 126.43C112.71 126.43 112.79 126.45 112.84 126.47L111.93 125.92C111.93 125.92 111.98 125.96 112.01 125.99L111.23 125.12C111.23 125.12 111.27 125.17 111.29 125.2L110.68 124.07C110.68 124.07 110.7 124.12 110.71 124.15L110.3 122.81C110.3 122.81 110.31 122.86 110.31 122.88L110.14 121.38C110.14 121.38 110.14 121.44 110.14 121.46L110.24 119.96C110.24 119.96 110.24 120.03 110.22 120.07L110.56 118.72C110.56 118.72 110.53 118.8 110.52 118.84L111.07 117.69C111.04 117.74 111.01 117.79 110.98 117.83L111.7 116.94C111.65 117 111.6 117.05 111.54 117.09L112.4 116.51C112.31 116.57 112.21 116.61 112.11 116.64L113.07 116.42C112.97 116.44 112.88 116.45 112.78 116.43L113.74 116.6C113.66 116.59 113.59 116.56 113.52 116.52L114.39 117.05C114.39 117.05 114.3 116.98 114.26 116.94L115 117.77C115 117.77 114.95 117.71 114.93 117.67L115.51 118.75C115.51 118.75 115.48 118.68 115.47 118.64L115.86 119.92C115.86 119.92 115.84 119.82 115.83 119.78L115.99 121.21C115.99 121.21 115.99 121.11 115.99 121.06L115.9 122.5C115.9 122.5 115.91 122.41 115.92 122.37L115.59 123.67C115.59 123.67 115.62 123.58 115.64 123.53L115.11 124.64C115.11 124.64 115.16 124.55 115.19 124.52L114.49 125.38C114.75 125.06 114.8 125.21 115.23 124.47L115.76 123.36V123.34C116.01 122.69 116.13 122.02 116.14 121.33C116.2 121.03 116.21 120.74 116.17 120.44L114.84 124.25C114.9 124.18 114.96 124.12 115.03 124.07L114.41 124.49C114.41 124.49 114.43 124.48 114.44 124.47L115.05 124.06C115.37 123.77 115.6 123.42 115.75 123.03C115.91 122.76 116.02 122.47 116.06 122.15C116.21 121.66 116.28 121.15 116.25 120.63L116.21 120.65Z" fill="black"/>
<path d="M162.63 144.29C162.63 144.29 162.68 144.31 162.7 144.32L161.89 143.83C161.89 143.83 161.94 143.87 161.96 143.89L161.25 143.1C161.25 143.1 161.29 143.15 161.31 143.18L160.75 142.13C160.75 142.13 160.77 142.18 160.78 142.21L160.4 140.95C160.4 140.95 160.41 141 160.41 141.02L160.25 139.6C160.25 139.6 160.25 139.64 160.25 139.65L160.34 138.21C160.3 138.71 160.27 139.21 160.25 139.71L160.34 138.25C160.34 138.25 160.34 138.29 160.33 138.32L160.66 136.99C160.66 136.99 160.66 137.02 160.64 137.04L161.18 135.9C161.18 135.9 161.16 135.93 161.15 135.95L161.87 135.06C161.87 135.06 161.84 135.09 161.82 135.11L162.69 134.52C162.69 134.52 162.61 134.56 162.57 134.57L163.57 134.34C163.49 134.36 163.41 134.35 163.33 134.34L164.37 134.53C164.27 134.51 164.18 134.48 164.09 134.42L165.07 135.01C165.02 134.98 164.97 134.94 164.93 134.89L165.78 135.84C165.78 135.84 165.72 135.76 165.7 135.72L166.38 136.98C166.38 136.98 166.33 136.88 166.32 136.83L166.78 138.35C166.77 138.3 166.76 138.25 166.75 138.19L166.94 139.91C166.88 139.29 166.8 138.66 166.73 138.04L166.93 139.78C166.93 139.72 166.93 139.67 166.93 139.61L163.89 146.08C164.6 145.89 164.95 145.36 165.36 144.85C165.52 144.65 165.66 144.48 165.81 144.29L164.96 145.35C164.96 145.35 165.01 145.3 165.03 145.28L164.01 145.97C164.01 145.97 164.09 145.93 164.13 145.92L165.14 145.24L165.98 144.2L166.62 142.86C166.92 142.07 167.07 141.26 167.07 140.42C167.16 139.84 167.14 139.26 167.03 138.69C167.02 138.12 166.91 137.58 166.7 137.05C166.6 136.54 166.4 136.06 166.11 135.62C165.83 134.98 165.41 134.43 164.87 133.97C164.7 133.85 164.52 133.74 164.33 133.64C164.15 133.53 163.98 133.42 163.8 133.32C163.79 133.32 163.77 133.3 163.76 133.3C163.75 133.3 163.73 133.29 163.72 133.29C163.36 133.19 161.76 132.98 162.54 133.08C162.51 133.08 162.49 133.08 162.46 133.08H162.44L161.29 133.35L160.27 134.04C159.94 134.37 159.65 134.73 159.4 135.12L158.75 136.48C158.45 137.28 158.29 138.11 158.29 138.96C158.2 139.55 158.22 140.14 158.33 140.72C158.37 141.57 158.56 142.39 158.91 143.17C159.12 143.56 159.41 144.12 159.63 144.51C159.63 144.51 159.63 144.53 159.64 144.53C159.64 144.55 159.66 144.56 159.67 144.58C159.68 144.6 159.69 144.61 159.71 144.63C159.71 144.63 159.72 144.65 159.73 144.65L160.62 145.65C160.62 145.65 160.62 145.66 160.63 145.67C160.8 145.81 160.66 145.69 161.16 146C161.01 145.91 161.52 146.24 161.69 146.32C161.7 146.32 161.72 146.33 161.73 146.34C161.76 146.35 161.8 146.36 161.84 146.37C162.01 146.4 162.8 146.56 162.97 146.57H162.99C163.01 146.57 163.03 146.57 163.04 146.57C163.05 146.57 163.07 146.57 163.09 146.57C163.47 146.51 163.85 146.42 164.23 146.31C164.28 146.3 164.32 146.28 164.36 146.25H164.38C164.7 146.02 165.01 145.81 165.33 145.6C165.34 145.6 165.35 145.58 165.36 145.58C165.39 145.56 165.41 145.54 165.44 145.51C165.46 145.49 165.48 145.46 165.51 145.44C165.79 145.12 166.06 144.78 166.32 144.44C166.35 144.39 166.39 144.35 166.41 144.3C166.95 143.31 167.24 142.6 167.42 141.47C167.42 141.46 167.42 141.45 167.42 141.43V141.41C167.45 140.91 167.49 140.4 167.52 139.9C167.52 139.88 167.52 139.86 167.52 139.83V139.81C167.46 139.31 167.41 138.82 167.35 138.32C167.35 138.32 167.35 138.3 167.35 138.29C167.35 138.28 167.35 138.27 167.35 138.26L166.95 136.93C166.95 136.93 166.95 136.92 166.95 136.91C166.86 136.71 166.7 136.45 166.63 136.32C166.57 136.21 166.44 135.91 166.31 135.73C166.18 135.58 166.06 135.44 165.93 135.3L165.55 134.88C165.3 134.65 164.6 134.3 164.65 134.32C164.32 134.23 163.97 134.12 163.63 134.14C163.47 134.15 163.13 134.25 163.13 134.25C163.13 134.25 162.77 134.31 162.63 134.37C162.61 134.37 162.59 134.39 162.57 134.4L162.17 134.67C162.03 134.76 161.89 134.85 161.76 134.95C161.75 134.95 161.74 134.97 161.73 134.98C161.73 134.98 161.72 134.99 161.71 135C161.59 135.14 161.48 135.28 161.37 135.42C161.26 135.56 161.14 135.7 161.03 135.84C161.01 135.86 161 135.89 160.98 135.91C160.57 136.6 160.3 137.35 160.19 138.15C160.05 139.05 160.08 139.94 160.26 140.82C160.55 142.2 161.27 143.7 162.65 144.28L162.63 144.29Z" fill="black"/>
<path d="M196.95 89.4801C197.06 89.4201 197.17 89.3701 197.29 89.3401L196.5 89.5201C196.62 89.4901 196.74 89.4901 196.85 89.5201L196.01 89.3701C196.11 89.3901 196.2 89.4301 196.28 89.4801L195.48 88.9901C195.56 89.0401 195.62 89.1001 195.68 89.1601L194.97 88.3701C195.02 88.4301 195.06 88.4901 195.1 88.5601L194.53 87.5001C194.53 87.5001 194.57 87.5801 194.58 87.6301L194.19 86.3601C194.19 86.3601 194.2 86.4201 194.21 86.4501L194.05 85.0101C194.05 85.0101 194.05 85.0501 194.05 85.0801L194.14 83.6201C194.14 83.6201 194.14 83.6601 194.14 83.6801L194.47 82.3501C194.47 82.3501 194.46 82.3901 194.45 82.4001L195 81.2601C195 81.2601 194.99 81.2801 194.98 81.3001L195.71 80.4001C195.71 80.4001 195.69 80.4201 195.68 80.4301L196.56 79.8401C196.56 79.8401 196.53 79.8501 196.52 79.8501L197.51 79.6201C197.51 79.6201 197.48 79.6201 197.46 79.6201L198.47 79.8001C198.47 79.8001 198.4 79.7701 198.36 79.7501L199.29 80.3201C199.12 80.2101 198.95 80.0901 198.78 79.9801L200.31 82.1901C200.21 81.9501 200.09 81.7101 199.94 81.4901C199.66 80.8601 199.26 80.3201 198.72 79.8701L197.7 79.2501C197.14 79.0001 196.58 78.9701 196.03 79.1801C195.43 79.2501 194.92 79.5101 194.49 79.9801L193.67 81.0001C193.26 81.6401 192.99 82.3301 192.85 83.0801C192.6 83.8801 192.5 84.7001 192.55 85.5501L192.74 87.2401C192.87 88.0201 193.13 88.7301 193.54 89.3901C193.82 90.0201 194.22 90.5601 194.76 91.0101L195.78 91.6301C196.34 91.8801 196.9 91.9101 197.45 91.7001C198.05 91.6301 198.56 91.3701 198.99 90.9001L199.81 89.8801C200.08 89.4501 200.3 88.9901 200.46 88.5101L199.04 90.7901C199.16 90.6901 199.29 90.6001 199.41 90.5001C199.46 90.4601 199.52 90.4201 199.57 90.3701C199.58 90.3601 199.59 90.3401 199.61 90.3301C199.67 90.2601 200.32 89.4701 200.36 89.4001C200.48 89.2001 200.57 88.9701 200.66 88.7801C200.8 88.4901 200.88 88.3701 200.95 88.1501L201.12 87.4601C201.2 87.2301 201.25 86.9901 201.3 86.7501C201.34 86.5201 201.41 85.0301 201.35 85.9701C201.39 85.3401 201.4 85.4601 201.4 85.1801C201.4 85.1601 201.24 83.7001 201.23 83.6701C201.23 83.6601 201.23 83.6501 201.23 83.6401C201.19 83.4801 200.87 82.4401 200.82 82.2901C200.66 81.8801 200.46 81.4801 200.2 81.1301C200.14 81.0501 199.51 80.3401 199.43 80.2701C199.43 80.2701 199.43 80.2601 199.42 80.2501C199.41 80.2501 199.4 80.2301 199.39 80.2301C199.27 80.1401 198.78 79.7601 198.44 79.6701C198.44 79.6701 198.42 79.6701 198.41 79.6701C198.34 79.6501 197.54 79.5101 197.46 79.5001C197.44 79.5001 197.43 79.5001 197.41 79.5001C197.37 79.5001 197.33 79.5001 197.29 79.5101C197.28 79.5101 197.27 79.5101 197.26 79.5101C197.09 79.5501 196.51 79.6701 196.35 79.7201C196.33 79.7201 196.31 79.7301 196.29 79.7401C196.24 79.7601 196.2 79.7801 196.15 79.8001C196.13 79.8101 196.11 79.8301 196.09 79.8401C195.86 79.9901 195.52 80.2101 195.3 80.3801C195.29 80.3801 195.28 80.4001 195.27 80.4001C195.23 80.4301 195.19 80.4701 195.15 80.5101C195.04 80.6401 194.9 80.8201 194.82 80.9201C194.72 81.0501 194.59 81.2001 194.48 81.3401C194.46 81.3601 194.45 81.3901 194.43 81.4101C194.41 81.4401 194.39 81.4701 194.38 81.5001C194.38 81.5101 194.37 81.5201 194.36 81.5401C194.2 81.8601 194.03 82.2101 193.88 82.5401C193.85 82.6101 193.83 82.6701 193.8 82.7401C193.8 82.7601 193.8 82.7701 193.79 82.7901C193.69 83.1601 193.59 83.5401 193.51 83.9101C193.51 83.9401 193.5 83.9701 193.49 84.0001C193.48 84.0701 193.47 84.1501 193.46 84.2201C193.43 84.6201 193.4 85.0301 193.38 85.4301C193.38 85.4701 193.38 85.5001 193.38 85.5401C193.39 86.2701 193.54 86.9701 193.81 87.6501C193.97 88.1001 194.21 88.4901 194.55 88.8101C194.79 89.1401 195.11 89.3901 195.51 89.5401C196 89.7301 196.49 89.7201 196.98 89.5001L196.95 89.4801Z" fill="black"/>
<path d="M246.12 114.08C245.68 112.43 245.72 112.63 245.79 113.01C245.82 113.21 245.88 113.41 245.97 113.6C246.1 114.17 246.34 114.69 246.68 115.17C246.95 115.55 247.1 115.74 247.38 115.95C247.44 115.99 247.49 116.04 247.54 116.09L246.85 115.31C246.85 115.31 246.92 115.4 246.95 115.45L246.39 114.42C246.39 114.42 246.43 114.5 246.44 114.54L246.06 113.3C246.06 113.3 246.07 113.36 246.08 113.39L245.92 111.99C245.92 111.99 245.92 112.04 245.92 112.06L246.01 110.64C246.01 110.64 246.01 110.68 246.01 110.69L246.33 109.4C246.33 109.4 246.33 109.42 246.32 109.44L249.31 106.7C249.24 106.72 249.17 106.71 249.09 106.7L250.06 106.87C250.01 106.87 249.96 106.83 249.91 106.8L250.81 107.35C250.73 107.3 250.66 107.24 250.6 107.17L251.4 108.07C251.4 108.07 251.34 108 251.31 107.96L251.95 109.15C252.09 109.61 252.24 110.08 252.38 110.55C252.38 110.54 252.38 110.52 252.38 110.51L252.56 112.11C252.45 110.9 252.41 110.16 251.94 109.04C251.71 108.39 251.36 107.83 250.87 107.36C250.52 106.88 250.06 106.53 249.49 106.31C248.78 106.04 248.07 106.06 247.37 106.36C246.81 106.61 246.37 106.98 246.04 107.48C245.58 107.97 245.25 108.55 245.05 109.21C244.71 110.21 244.55 111.23 244.58 112.29C244.6 113.35 244.81 114.36 245.2 115.34L245.85 116.55C246.3 117.24 246.9 117.74 247.65 118.07C248.36 118.34 249.07 118.32 249.77 118.02L250.71 117.38C251 117.07 251.26 116.75 251.5 116.4C251.5 116.4 251.51 116.38 251.52 116.37L249.83 117.95C249.83 117.95 249.91 117.92 249.95 117.89C249.97 117.88 249.99 117.86 250.02 117.85C250.29 117.68 250.67 117.42 250.93 117.23C250.94 117.23 250.95 117.21 250.96 117.21C251 117.18 251.04 117.15 251.07 117.11C251.09 117.09 251.1 117.07 251.12 117.05C251.24 116.9 251.37 116.74 251.49 116.59C251.61 116.44 251.74 116.29 251.86 116.14C251.86 116.13 251.88 116.12 251.89 116.1L251.17 116.99C251.43 116.67 251.7 116.36 251.94 116.04C251.96 116.01 251.98 115.98 252 115.95C252.21 115.56 252.4 115.16 252.57 114.75C252.65 114.54 252.71 114.31 252.74 114.08C252.95 113.4 253.04 112.71 252.99 112C252.99 111.28 252.88 110.59 252.63 109.93C252.59 109.7 252.53 109.48 252.43 109.28C252.4 109.21 251.89 108.25 251.84 108.19C251.84 108.19 251.83 108.17 251.82 108.16C251.58 107.88 251.33 107.61 251.09 107.34C251.09 107.34 251.09 107.34 251.08 107.33C251.08 107.33 251.06 107.32 251.05 107.31C250.78 107.1 250.48 106.91 250.16 106.77C250.14 106.77 250.11 106.75 250.09 106.75C249.77 106.67 249.45 106.59 249.12 106.58C249.09 106.58 249.07 106.58 249.04 106.58C248.72 106.62 248.4 106.71 248.09 106.8C248.06 106.8 248.03 106.82 248.01 106.83C247.72 106.95 247.16 107.39 247.17 107.38C246.63 107.87 246.55 108.12 246.28 108.69C245.99 109.31 245.82 109.59 245.74 110.4C245.7 110.84 245.64 111.28 245.66 111.71C245.69 112.96 245.83 112.92 246.14 114.08H246.12Z" fill="black"/>
<path d="M215.36 161.37C215.36 161.37 215.4 161.33 215.42 161.32L214.8 161.74C214.8 161.74 214.89 161.69 214.94 161.68L214.23 161.84C214.31 161.82 214.39 161.82 214.47 161.84L213.73 161.71C213.8 161.72 213.87 161.75 213.94 161.79L213.25 161.37C213.25 161.37 213.29 161.4 213.31 161.42L212.72 160.76C212.72 160.76 212.79 160.85 212.82 160.9L212.34 160.01C212.34 160.01 212.38 160.09 212.39 160.13L212.06 159.06C212.06 159.06 212.08 159.14 212.09 159.18L211.95 157.96C211.95 157.96 211.95 158.03 211.95 158.06L212.03 156.81C212.03 156.81 212.03 156.86 212.02 156.89L212.31 155.75C212.31 155.75 212.3 155.79 212.29 155.82L212.76 154.83C212.76 154.83 212.74 154.87 212.73 154.88L213.36 154.1C213.36 154.1 213.32 154.14 213.3 154.15L214.07 153.63C214.36 153.57 214.65 153.5 214.93 153.44C214.91 153.44 214.88 153.44 214.86 153.43L215.74 153.59C215.62 153.57 215.51 153.52 215.4 153.46L216.24 153.97C216.18 153.93 216.13 153.89 216.08 153.85C216.02 153.8 215.97 153.76 215.92 153.7L216.68 154.55C216.68 154.55 216.6 154.45 216.57 154.4L217.17 155.52C217.17 155.52 217.13 155.43 217.11 155.38L217.52 156.73C217.52 156.73 217.5 156.65 217.49 156.61L217.66 158.13C217.66 158.13 217.66 158.05 217.66 158.01L217.56 159.56C217.56 159.56 217.56 159.5 217.58 159.47L217.23 160.88C217.23 160.88 217.25 160.83 217.26 160.81L216.68 162.02C216.68 162.02 216.71 161.97 216.73 161.94C217.22 161.12 217.53 160.23 217.67 159.29C217.83 158.23 217.8 157.17 217.59 156.12C217.41 155.18 217.05 154.31 216.52 153.51C216.2 152.98 215.77 152.58 215.23 152.31C214.79 151.97 214.29 151.81 213.71 151.83C212.95 151.87 212.3 152.16 211.76 152.69C211.14 153.31 210.69 154.03 210.41 154.86C210.07 155.84 209.92 156.85 209.95 157.88C209.95 157.89 209.95 157.91 209.95 157.92C209.95 158 210.12 159.42 210.13 159.5V159.52C210.13 159.53 210.13 159.54 210.13 159.55C210.13 159.55 210.13 159.56 210.13 159.57L210.55 160.97C210.55 160.97 210.57 161.02 210.58 161.05C210.61 161.12 211.17 162.16 211.21 162.22C211.21 162.22 211.21 162.22 211.21 162.23C211.21 162.24 211.22 162.25 211.23 162.26C211.24 162.27 211.25 162.28 211.25 162.29C211.3 162.35 211.99 163.12 212.04 163.18C212.04 163.18 212.04 163.18 212.04 163.19C212.06 163.21 212.07 163.22 212.09 163.23C212.1 163.23 212.11 163.24 212.12 163.25C212.18 163.29 212.97 163.77 213.03 163.81C213.03 163.81 213.03 163.81 213.04 163.81C213.06 163.82 213.08 163.83 213.11 163.84C213.28 163.89 213.59 163.93 213.66 163.94C213.75 163.96 214.05 164.03 214.23 164.03C214.26 164.03 214.29 164.03 214.32 164.03C214.34 164.03 214.35 164.03 214.37 164.03C214.54 164 214.72 163.95 214.87 163.92C215.01 163.89 215.2 163.85 215.37 163.81C215.4 163.81 215.43 163.79 215.45 163.77C215.47 163.76 215.48 163.75 215.5 163.74C215.71 163.6 216.13 163.32 216.33 163.17C216.33 163.17 216.35 163.16 216.36 163.15C216.42 163.11 216.47 163.06 216.52 163C216.53 162.99 216.54 162.97 216.56 162.96C216.56 162.96 216.57 162.95 216.58 162.94C216.79 162.68 217.05 162.37 217.25 162.11C217.27 162.08 217.3 162.05 217.32 162.02C217.34 161.99 217.36 161.95 217.38 161.92C217.38 161.92 217.38 161.9 217.39 161.9C217.43 161.83 217.85 160.95 217.88 160.87L218.03 160.27C218.17 159.86 218.23 159.44 218.22 159.01C218.28 158 218.27 158.57 218.26 158.33C218.26 158.29 218.12 157.05 218.11 157.01C218.11 157.01 218.11 157 218.11 156.99C218.11 156.98 218.11 156.97 218.11 156.96C218.06 156.77 217.89 156.25 217.93 156.37C218.15 157.1 217.82 155.96 217.75 155.78C217.75 155.77 217.75 155.76 217.74 155.75C217.58 155.4 217.42 155.05 217.19 154.74C217.19 154.74 217.18 154.73 217.17 154.72C217.07 154.6 216.71 154.2 216.84 154.35C217.13 154.68 216.62 154.07 216.5 153.97C216.49 153.96 216.47 153.95 216.46 153.94C216.34 153.86 215.9 153.6 216.08 153.71C216.41 153.91 215.82 153.54 215.7 153.48C215.7 153.48 215.68 153.47 215.67 153.46C215.65 153.46 215.63 153.45 215.62 153.44C215.62 153.44 215.6 153.44 215.59 153.44C215.46 153.41 214.91 153.31 214.78 153.3C214.78 153.3 214.77 153.3 214.76 153.3C214.71 153.3 214.66 153.3 214.62 153.31C214.51 153.33 213.96 153.46 213.85 153.49C213.85 153.49 213.84 153.49 213.83 153.49C213.82 153.49 213.81 153.49 213.8 153.5C213.77 153.51 213.74 153.52 213.72 153.53C213.53 153.59 213.37 153.73 213.21 153.84C213.05 153.95 212.86 154.05 212.73 154.2C212.73 154.2 212.72 154.22 212.71 154.22C212.54 154.42 212.32 154.68 212.17 154.89C212.16 154.9 212.15 154.92 212.14 154.93C212.13 154.94 212.12 154.96 212.11 154.98C212.11 154.98 212.11 155 212.1 155.01C211.97 155.26 211.81 155.6 211.7 155.86C211.69 155.89 211.67 155.92 211.66 155.96C211.66 155.96 211.66 155.98 211.66 155.99L211.42 156.95C211.42 156.95 211.42 157 211.42 157.02L211.35 158.08L211.47 159.13L211.76 160.07C211.91 160.49 212.14 160.86 212.46 161.17C212.61 161.39 212.8 161.56 213.05 161.67C213.24 161.84 213.46 161.92 213.72 161.93C213.95 162.02 214.18 162.01 214.41 161.91C214.78 161.87 215.1 161.7 215.37 161.41L215.36 161.37Z" fill="black"/>
<path d="M44.86 4.26996C38.41 10.64 32.28 17.35 26.64 24.45C19.96 32.87 13.72 42 9.65001 52C7.33001 57.71 5.84001 63.64 5.58001 69.8L5.85001 67.53C4.72001 72.1 4.96001 77.14 6.00001 81.69C7.73001 89.24 12.71 95.34 19.54 98.91C24.82 101.67 30.38 103.96 35.84 106.34C45.4 110.51 55 114.57 64.61 118.62C76.35 123.57 88.11 128.47 99.87 133.35C111.63 138.23 123.71 143.23 135.64 148.14C145.77 152.31 155.9 156.47 166.03 160.63C172.29 163.2 178.55 165.76 184.81 168.31C188.45 169.8 192.13 170.92 195.89 172.1C203.77 174.57 211.71 176.91 219.52 179.57C224.24 181.18 229.31 181.92 234.28 181.44C242.62 180.65 249.71 176.28 254.64 169.57C260.46 161.63 265.36 152.98 269.81 144.2C272.67 138.56 275.51 132.8 277.68 126.85C278.07 125.78 278.42 124.76 278.59 123.63C278.65 123.2 278.68 122.76 278.67 122.33C278.66 121.64 278.66 120.69 278.4 120.06C278.39 120.04 278.6 123.42 278.59 123.44C278.63 122.96 278.26 124.93 278.48 124.06C278.9 122.43 279.24 120.77 279.51 119.1C280.5 112.83 279.97 106.2 277.61 100.28C274.69 92.98 268.66 87.58 261.76 84.09C259.57 82.98 257.33 81.96 255.09 80.95C247.61 77.56 240.04 74.35 232.48 71.15C221.93 66.69 211.35 62.3 200.76 57.93C188.69 52.95 176.61 48.01 164.52 43.09C152.35 38.14 140.17 33.2 127.98 28.28C117.14 23.9 106.3 19.54 95.46 15.18C87.4 11.94 79.33 8.70996 71.27 5.47996C67.42 3.93996 63.58 2.34996 59.71 0.859963C54.8 -1.03004 49.14 0.159962 45.35 3.78996C43.94 5.13996 43.7 7.45996 43.97 9.32996C44.06 9.93996 45.03 13.79 46.41 12.47C49.64 9.37996 53.91 8.27996 58.24 9.37996C59.22 9.62996 58.07 9.24996 58.35 9.41996C58.44 9.47996 58.56 9.49996 58.66 9.54996C59.76 10.01 60.87 10.43 61.97 10.87C67.12 12.93 72.27 14.99 77.42 17.05C85.6 20.33 93.78 23.61 101.96 26.9C112.11 30.98 122.26 35.07 132.41 39.18C143.48 43.65 154.54 48.14 165.59 52.64C176.64 57.14 187.43 61.55 198.33 66.04C208.05 70.04 217.76 74.07 227.45 78.15C234.91 81.29 242.37 84.45 249.77 87.72C255.69 90.33 262.07 92.82 267.21 96.83C268.59 97.91 269.82 99.05 270.97 100.37C271.48 100.96 271.97 101.58 272.42 102.21C272.64 102.52 272.85 102.83 273.06 103.14C273.18 103.32 273.82 104.4 273.51 103.84C273.85 104.45 274.17 105.08 274.45 105.72C274.59 106.03 274.72 106.34 274.85 106.66C274.96 106.93 275.35 108.19 275.05 107.15C275.23 107.76 275.42 108.37 275.58 108.99C275.65 109.29 275.71 109.6 275.78 109.9C275.93 110.49 275.62 108.87 275.8 110.05C275.9 110.66 275.96 111.28 276.02 111.89C276.13 112.96 276 111.16 276.02 111.74C276.02 112.05 276.04 112.35 276.05 112.66C276.05 113.18 276.05 113.7 276.03 114.23C276 115.26 276.06 113.86 276.05 113.96C276.02 114.25 276 114.55 275.97 114.85C275.88 115.72 275.71 116.58 275.61 117.45C275.8 115.79 275.67 117.11 275.58 117.55C275.51 117.87 275.44 118.2 275.36 118.52C274.86 120.59 274.6 122.46 275.02 124.62L274.75 122.35C274.75 122.26 275.19 119.27 274.86 120.71C274.85 120.76 275.26 119.61 274.94 120.46C274.85 120.7 274.76 120.95 274.67 121.19C274.14 122.56 273.58 123.91 272.99 125.25C271.17 129.46 269.2 133.61 267.13 137.7C264.54 142.82 261.83 147.75 258.83 152.61C257.23 155.2 255.57 157.75 253.81 160.23C252.21 162.49 250.55 164.71 248.44 166.52C241.99 172.03 233.55 173.48 225.35 172.06C224.07 171.84 222.8 171.54 221.55 171.19C221.44 171.16 221.33 171.13 221.22 171.09C220.77 170.96 221.69 171.24 221.27 171.1C221.08 171.04 220.89 170.98 220.7 170.92C220.43 170.83 220.15 170.73 219.88 170.63C218.91 170.28 217.91 169.99 216.93 169.68L197.4 163.55C194.59 162.67 191.68 161.93 188.93 160.86C183.15 158.6 177.44 156.16 171.7 153.81C159.66 148.88 147.62 143.93 135.59 138.98C120.99 132.97 106.41 126.93 91.83 120.86C78.22 115.19 64.62 109.5 51.05 103.72C42.01 99.87 32.94 96.05 24.04 91.88C22.91 91.35 21.78 90.82 20.67 90.24C16.79 88.22 13.68 85.54 11.31 81.88C10.82 81.12 11.57 82.42 11.16 81.63C11.04 81.39 10.91 81.15 10.79 80.91C10.6 80.52 10.42 80.12 10.25 79.72C10.14 79.45 9.64001 77.9 9.95001 78.98C9.82001 78.52 9.67001 78.06 9.55001 77.59C9.49001 77.36 9.45001 77.14 9.39001 76.91C9.17001 75.99 9.37001 77.09 9.41001 77.1C9.33001 77.08 9.26001 76.1 9.25001 76.03C9.20001 75.62 9.17001 75.21 9.12001 74.8C9.08001 74.46 9.18001 74.03 9.15001 75.41C9.15001 75.16 9.13001 74.91 9.12001 74.66C9.12001 74.37 9.12001 74.07 9.12001 73.78C9.12001 73.32 9.31001 72.06 9.09001 73.86C9.15001 73.35 9.17001 72.83 9.24001 72.32C9.33001 71.68 9.35001 70.84 9.20001 72.4C9.21001 72.28 9.25001 72.17 9.28001 72.05C9.52001 70.83 9.49001 71.06 9.55001 69.78C9.60001 68.73 9.45001 70.85 9.55001 69.8C9.60001 69.25 9.65001 68.71 9.72001 68.16C9.79001 67.61 9.88001 67.06 9.97001 66.51C10.14 65.47 9.77001 67.41 10 66.37C10.07 66.07 10.13 65.76 10.2 65.46C10.46 64.32 10.77 63.2 11.11 62.08C11.21 61.77 11.31 61.46 11.41 61.15C11.15 61.95 11.49 60.91 11.53 60.82C11.75 60.19 11.99 59.57 12.23 58.96C14.21 53.95 16.65 49.47 19.43 45.08C25.05 36.22 31.74 28.04 38.85 20.33C41.46 17.49 44.14 14.72 46.89 12.01C47.47 11.44 47.71 10.05 47.8 9.31996C47.94 8.20996 47.89 6.93996 47.6 5.84996C47.23 4.43996 46.28 2.86996 44.89 4.23996L44.86 4.26996Z" fill="#1D1D1B"/>
<path d="M4.95003 70.0801C3.44003 73.5301 2.20003 77.1601 1.27003 80.8101C0.53003 83.7701 -0.0399701 86.8501 2.98778e-05 89.9201C0.0400299 92.5101 0.40003 95.4701 2.10003 97.5501C4.48003 100.46 8.09003 102.61 11.19 104.64C16.68 108.23 22.39 111.49 28.16 114.59C42.73 122.42 57.84 129.07 73.36 134.77C84.32 138.8 95.27 142.83 106.22 146.87C118.31 151.33 130.4 155.81 142.47 160.31C152.01 163.86 161.54 167.42 171.05 171.06C176.01 172.96 180.84 174.93 185.62 177.24C195.4 181.96 205.27 186.7 215.58 190.2C219.64 191.58 224.11 193.12 228.46 193.03C233.04 192.94 237.22 189.27 240.48 186.43C245.36 182.18 249.8 177.38 253.86 172.35C257.92 167.32 260.84 162.37 263.39 156.67C264.24 154.77 265.06 152.84 265.77 150.89C266.31 149.41 266.44 147.58 265.77 146.12C265.26 145 264.15 144.8 263.67 146.12C261.83 151.17 259.59 156.33 256.61 160.81C253.51 165.48 249.78 169.79 245.94 173.86C242.1 177.93 237.71 182.3 232.63 185.03C232.16 185.28 231.68 185.52 231.19 185.73C230.96 185.83 230.73 185.92 230.5 186C230.12 186.14 230.64 186 230.19 186.09C229.48 186.23 228.77 186.29 228.05 186.28C226.13 186.26 224.22 185.89 222.36 185.45C217.28 184.24 212.37 182.33 207.56 180.36C202.41 178.25 197.34 175.94 192.31 173.56C187.28 171.18 181.97 168.49 176.59 166.39C168.52 163.24 160.41 160.21 152.29 157.18C140.81 152.88 129.31 148.62 117.81 144.36C106.37 140.13 94.92 135.9 83.46 131.69C70.02 126.75 56.67 121.74 43.73 115.57C31.57 109.77 19.29 103.49 8.30003 95.6301C6.88003 94.6201 5.49003 93.5701 4.21003 92.3901C3.95003 92.1501 4.47003 92.6701 4.15003 92.3301C4.06003 92.2301 3.96003 92.1401 3.87003 92.0401C3.69003 91.8501 3.54003 91.6301 3.37003 91.4301C3.03003 91.0301 3.42003 91.5901 3.24003 91.2301C3.18003 91.1101 3.14003 90.9901 3.09003 90.8701C3.09003 90.8801 3.25003 91.3801 3.16003 91.0801C3.09003 90.8501 3.04003 90.6101 2.98003 90.3701C3.15003 91.0701 3.02003 90.3801 2.98003 90.0801C2.89003 89.5001 2.96003 90.7101 2.98003 89.9201C2.98003 89.6301 2.99003 89.3401 2.99003 89.0601C2.99003 88.4601 2.93003 89.6101 3.01003 88.8101C3.05003 88.4601 3.08003 88.1101 3.13003 87.7601C3.17003 87.4501 3.23003 87.1301 3.27003 86.8201C3.36003 86.2201 3.29003 86.6901 3.27003 86.8201C3.30003 86.6401 3.34003 86.4601 3.38003 86.2801C3.52003 85.6001 3.68003 84.9201 3.85003 84.2401C4.17003 82.9801 4.54003 81.7201 4.94003 80.4801C4.98003 80.3501 5.22003 79.6301 5.14003 79.8701C5.06003 80.0901 5.28003 79.4501 5.34003 79.3101C5.52003 78.8001 5.71003 78.2901 5.90003 77.7901C6.27003 76.8101 6.65003 75.8401 7.07003 74.8801C7.69003 73.4701 7.71003 71.5101 7.07003 70.1101C6.53003 68.9201 5.52003 68.8701 4.97003 70.1101L4.95003 70.0801Z" fill="#1D1D1B"/>
<path d="M63.0001 60.5501C64.8901 61.4601 66.6601 62.1501 68.6401 62.8201C70.3901 63.4001 72.1301 64.0101 73.8501 64.6801C74.5201 64.9401 75.1901 65.2101 75.8301 65.5301C76.1601 65.6901 76.5101 65.8601 76.7801 66.1001C76.8501 66.1601 76.9501 66.3001 77.0301 66.3801C77.1001 66.4501 77.0901 66.4801 77.1201 66.4601L77.09 66.3501C77.17 66.6901 77.1801 66.6801 77.1001 66.3101C77.0801 66.3401 77.1801 67.1201 77.1201 66.2601C77.1501 66.7901 77.1201 67.3401 77.1101 67.8701C77.0901 68.3601 77.0601 68.8601 77.0301 69.3501C76.9501 70.6401 77.0701 69.0801 77.0001 69.6301C76.9701 69.8601 76.9901 69.8001 77.0501 69.4301C76.9701 69.7001 76.9701 69.7401 77.0301 69.5501C76.8901 69.7901 76.6501 70.3601 76.0801 70.9301C75.4801 71.5301 74.7101 72.0001 73.9701 72.4001C70.2801 74.4001 65.8101 75.7501 61.8301 73.9001C59.1601 72.6501 56.7601 70.7301 54.9401 68.5701L55.2401 73.8701C59.4501 66.0001 63.6601 58.1401 67.8601 50.2701C68.4601 49.1601 69.0501 48.0401 69.6501 46.9301L68.6001 47.9201C70.2701 47.4501 72.1001 47.2801 73.8201 47.4601C75.2301 47.6101 76.4501 48.0701 77.5101 49.0201C78.7201 50.0901 80.0601 51.1601 81.0601 52.4401C81.4101 52.8901 81.9501 54.0701 81.4701 52.4401C81.3201 51.9401 81.4601 52.2601 81.3301 52.7001C81.2001 53.1401 81.0701 53.5701 80.9401 54.0101C80.8401 54.3401 80.7501 54.6801 80.6501 55.0101C80.5901 55.2101 80.5301 55.4101 80.4701 55.6101C80.5501 55.3901 80.5301 55.4301 80.4201 55.7301C80.3301 55.9601 80.2401 56.2001 80.1101 56.4201C80.3601 56.0101 79.8401 56.6501 79.9501 56.5801C79.0401 57.1701 77.3901 56.9201 76.2101 56.9001C75.0301 56.8801 73.8601 56.8501 72.6901 56.8101C70.6501 56.7401 70.5501 63.4901 72.6901 63.5601C74.1401 63.6101 75.5801 63.6401 77.0301 63.6601C78.6401 63.6801 80.18 63.7901 81.34 62.5101C82.43 61.3201 82.8601 59.5901 83.3001 58.0901C83.9801 55.7701 84.6501 53.5301 84.3501 51.0701C84.1001 49.0201 83.2301 47.2201 81.7801 45.7601C81.1001 45.0701 80.3801 44.4301 79.6601 43.7801C78.9401 43.1301 78.2001 42.3101 77.3301 41.7901C74.9501 40.3701 71.8201 40.4601 69.2001 41.0301C68.4001 41.2001 67.9501 41.4201 67.5101 42.2101C67.3601 42.4901 67.2101 42.7701 67.0601 43.0501L64.8301 47.2301C62.5001 51.5801 60.1801 55.9201 57.8501 60.2701C56.2701 63.2101 54.7001 66.1601 53.1201 69.1001C52.4201 70.4001 52.4201 73.2101 53.4201 74.4001C55.3801 76.7201 57.8901 78.8401 60.6101 80.2101C62.5701 81.2001 64.8701 81.8801 67.0801 81.5301C69.6601 81.1101 72.4401 80.1601 74.7401 78.9101C76.5301 77.9401 78.1201 76.5301 78.9801 74.6501C80.1001 72.2101 80.1401 69.2101 80.0801 66.5601C80.0201 63.9101 79.6301 61.1101 77.4401 59.5101C75.9801 58.4401 73.9701 57.9001 72.2901 57.3001C70.4901 56.6601 68.6701 56.1001 66.8701 55.4701C65.8001 55.1001 64.7901 54.5301 63.7701 54.0401C61.7601 53.0801 61.1301 59.6601 62.9801 60.5501H63.0001Z" fill="black"/>
<path d="M86.0001 78.4801C86.0701 77.9901 85.7701 79.5601 85.9101 78.9601C85.9801 78.6901 86.0401 78.4201 86.1201 78.1601C86.1401 78.0801 86.1701 78.0101 86.1901 77.9301C86.3101 77.5201 85.9301 78.6501 86.0601 78.3001C86.1401 78.1001 86.2101 77.8901 86.3001 77.6901C86.3901 77.4901 86.4801 77.2801 86.5801 77.0801C86.6301 76.9801 86.6801 76.8901 86.7301 76.7901C86.9701 76.3101 86.4401 77.2301 86.6901 76.8601C86.9801 76.4301 87.2601 76.0101 87.6001 75.6301C87.6801 75.5401 87.7701 75.4501 87.8601 75.3601C88.0201 75.1801 87.5401 75.6201 87.9001 75.3301C88.1301 75.1401 88.3601 74.9601 88.6101 74.8001C88.8401 74.6501 89.0701 74.5201 89.3201 74.4101C89.4601 74.3401 89.6101 74.2801 89.7601 74.2201C89.8801 74.1701 90.2801 74.0601 89.9501 74.1501C90.6401 73.9701 91.3501 73.8801 92.0601 73.9001C93.9001 73.9301 95.8901 74.4701 97.4701 75.4301C97.5401 75.4701 97.6001 75.5201 97.6601 75.5601C97.7301 75.6101 97.7901 75.6601 97.8501 75.7101C97.9201 75.7601 98.2601 76.0901 98.0201 75.8501C97.7801 75.6101 98.1001 75.9401 98.1601 76.0101C98.2701 76.1401 98.3801 76.2701 98.4801 76.4201C98.5601 76.5301 98.7401 76.9701 98.6301 76.6401C98.5301 76.3301 98.5901 76.5601 98.6201 76.6401C98.6501 76.7101 98.6801 76.7801 98.7101 76.8501C98.7901 77.0501 98.7601 76.9401 98.6201 76.5401C98.6201 76.6001 98.6701 76.7201 98.6901 76.7801C98.7701 77.1601 98.6001 76.0801 98.6401 76.4801C98.6701 76.8501 98.6301 75.9801 98.6301 76.0401C98.6301 76.6001 98.6601 75.7701 98.6701 75.7301C98.6601 75.7701 98.6701 76.0901 98.6201 76.1401C98.6201 76.1401 98.8101 75.3701 98.6201 75.9901C98.7701 75.5001 98.5601 76.1601 98.4901 76.3401C98.1201 77.3301 97.6401 78.2501 97.2301 79.2101C97.1301 79.4501 97.2701 79.1401 97.2901 79.1101C97.2301 79.2201 97.1601 79.3301 97.0901 79.4401C96.9701 79.6301 96.8501 79.8101 96.7201 79.9901C96.5801 80.1901 96.4301 80.3801 96.2701 80.5601C96.2101 80.6301 96.1501 80.6901 96.0901 80.7601C95.7401 81.1701 96.2301 80.6501 96.0001 80.8501C95.2901 81.4501 94.6401 81.7801 93.8501 81.8501C92.6201 81.9501 91.4701 81.5101 90.3701 81.0101C89.2701 80.5101 88.1801 79.8601 87.2201 79.1001C87.0101 78.9301 86.8101 78.7501 86.6001 78.5701C86.7901 78.7701 86.3801 78.3701 86.6001 78.5701C86.5101 78.4801 86.4201 78.3901 86.3301 78.2901C86.0701 78.0101 85.8501 77.7201 85.6301 77.4201C85.6001 77.3801 85.5701 77.3301 85.5401 77.2801C85.3001 76.9601 85.7701 77.7001 85.6701 77.5101C85.4001 76.9701 85.8201 78.0901 85.7501 77.8001C85.8301 78.1501 85.8801 78.5101 85.9001 78.8701C85.8701 78.3901 85.9001 78.9301 85.8801 79.1201C85.9401 78.5101 85.6901 79.8701 85.8401 79.3201C86.2101 77.9501 86.2401 75.8701 85.3101 74.7001C84.3801 73.5301 83.5201 75.0301 83.2801 75.9101C82.5501 78.6001 82.7701 81.7501 84.6501 83.9101C86.2701 85.7901 88.4501 87.1601 90.7701 88.0101C91.9901 88.4601 93.2701 88.8201 94.5701 88.5001C95.7901 88.2001 96.6901 87.5701 97.5501 86.6701C99.3301 84.8001 100.36 82.0601 101.12 79.6401C102.05 76.6701 101.81 72.7001 99.7101 70.2401C98.5601 68.8901 97.1001 68.3101 95.4201 67.7801C93.5101 67.1901 91.5701 66.9201 89.6301 67.5101C88.1401 67.9601 86.9301 68.8301 85.9301 70.0201C84.3701 71.8701 83.4901 74.3401 83.1301 76.7201C83.0101 77.5301 83.0701 78.5201 83.2801 79.3201C83.4101 79.8001 83.6801 80.6001 84.1701 80.8701C85.4001 81.5701 85.9001 79.1801 86.0001 78.5101V78.4801Z" fill="black"/>
<path d="M110.56 70.5602C108.09 72.5702 106.08 75.2602 104.58 78.0402C103.36 80.3002 102.53 82.8502 102.33 85.4202C102.1 88.2702 102.32 91.3902 103.92 93.8502C105.52 96.3102 108.44 96.8902 111.11 96.5302C111.82 96.4302 112.32 96.3102 112.84 95.7702C113.63 94.9502 114.39 94.1102 115.16 93.2802C117.7 90.5302 120.52 87.7602 122.57 84.6102C123.42 83.3102 123.49 81.4702 123.1 79.9902C122.89 79.2102 121.93 77.4602 121.07 78.7802C119.5 81.2002 117.4 83.3402 115.47 85.4702C114.06 87.0202 112.64 88.5602 111.2 90.0802L111.95 89.6202C111.22 89.8102 110.44 89.8702 109.69 89.8702C108.15 89.8702 107.04 89.6602 105.88 88.6402C106.18 88.9102 105.73 88.4502 105.67 88.3802C105.61 88.3102 105.29 87.7902 105.43 88.0502C105.57 88.3102 105.29 87.6902 105.25 87.6302C105.27 87.6602 105.37 88.1302 105.32 87.8302C105.29 87.6502 105.23 87.4802 105.19 87.3002C105.38 88.1502 105.17 86.8502 105.21 87.3402C105.25 87.8102 105.22 86.8702 105.22 86.7202C105.22 87.5602 105.26 86.6302 105.28 86.4302C105.31 85.9602 105.16 86.9102 105.27 86.4602C105.32 86.2502 105.36 86.0302 105.42 85.8202C105.45 85.6902 105.49 85.5702 105.53 85.4402C105.55 85.3702 105.72 84.8602 105.61 85.1602C105.52 85.4402 105.66 85.0302 105.67 85.0102C105.73 84.8502 105.79 84.6902 105.86 84.5302C106.1 83.9402 106.38 83.3702 106.69 82.8102C106.89 82.4502 106.55 83.0402 106.76 82.6902C106.82 82.5802 106.89 82.4802 106.95 82.3702C107.1 82.1302 107.25 81.8902 107.41 81.6602C107.75 81.1502 108.11 80.6602 108.48 80.1802C109.11 79.3702 109.79 78.6002 110.51 77.8602C110.64 77.7302 110.77 77.6002 110.9 77.4702C110.63 77.7402 110.79 77.5702 110.95 77.4302C111.09 77.3102 111.22 77.1802 111.37 77.0602C112.48 76.1602 112.6 74.2202 112.41 72.9102C112.33 72.3702 111.69 69.6502 110.58 70.5502L110.56 70.5602Z" fill="black"/>
<path d="M123.47 98.5399C123.43 98.8899 123.28 99.7199 123.13 99.8899C123.17 99.8499 123.18 99.7699 123.21 99.7199C123.3 99.5699 123.37 99.4099 123.46 99.2599C123.77 98.6899 123.25 99.6099 123.59 99.0399C123.76 98.7499 123.94 98.4499 124.11 98.1599C124.98 96.6999 125.87 95.2599 126.77 93.8199C128.71 90.7099 130.67 87.6099 132.63 84.5099C133.08 83.7999 133.53 83.0899 133.99 82.3799L133.24 82.8399C134.18 82.5999 135.18 82.4899 136.15 82.4799C136.81 82.4799 137.84 82.5699 138.26 82.7099C138.64 82.8399 138.98 83.0299 139.32 83.2499C139.62 83.4499 139.18 83.1499 139.46 83.3699C139.52 83.4199 139.57 83.5099 139.62 83.5699C139.75 83.7199 139.56 83.1999 139.63 83.5799C139.72 84.0299 139.55 83.1699 139.52 83.0499C139.62 83.6099 139.52 82.9299 139.52 82.8399C139.52 82.9099 139.45 83.2499 139.52 82.9699C139.6 82.6199 139.48 83.2099 139.48 83.2299C139.45 83.4699 139.42 83.7099 139.38 83.9399C139.45 83.5699 139.25 84.3799 139.22 84.5099C139.08 84.9599 139.36 84.1899 139.19 84.5899C139.14 84.6999 139.09 84.8199 139.04 84.9299C138.86 85.3299 139.14 84.8399 138.91 85.1699C138.78 85.3499 138.65 85.5299 138.5 85.6999C138.35 85.8699 138.52 85.6999 138.55 85.6699C138.45 85.7599 138.35 85.8499 138.24 85.9299C137.74 86.2799 137.21 86.5099 136.64 86.6999C136.53 86.7399 136.41 86.7799 136.3 86.8099C136.38 86.7899 136.4 86.8099 136.14 86.8099C135.62 86.7799 135.13 86.7099 134.63 86.5399C133.03 86.0099 131.79 85.1399 130.41 84.1999C129.53 83.5999 128.85 85.1699 128.73 85.7499C128.05 89.1099 127.96 92.5999 128.29 96.0099C128.51 98.3399 128.88 100.65 129.03 102.98C129.08 103.78 129.65 105.96 130.86 105.34C132.07 104.72 131.97 102.25 131.9 101.19C131.78 99.2899 131.54 97.3999 131.31 95.5099C131.19 94.5099 131.1 93.7199 131.09 92.8399C131.09 92.4599 131.09 92.0899 131.09 91.7099C131.09 91.4799 131.1 91.2399 131.11 91.0099C131.09 91.3599 131.09 91.3399 131.11 90.9499C131.16 90.3699 131.21 89.7999 131.3 89.2299C131.37 88.7199 131.52 88.0399 131.3 89.1599L129.62 90.7099C130.97 91.6399 132.16 92.4599 133.72 93.0099C134.89 93.4299 135.88 93.7099 137.08 93.3199C137.67 93.1299 138.25 92.9399 138.77 92.6099C141.32 90.9699 142.12 87.4499 142.39 84.6499C142.66 81.8499 142.45 77.8399 139.52 76.4099C137.94 75.6399 136.08 75.6399 134.37 75.8799C133.46 76.0099 132.73 76.1499 132.22 76.9599C130.27 80.0199 128.32 83.0899 126.4 86.1699C125.18 88.1199 123.96 90.0799 122.77 92.0499C121.9 93.4999 120.78 95.0199 120.6 96.7499C120.48 97.8799 120.42 100.25 121.64 100.9C122.86 101.55 123.39 99.2599 123.47 98.5399Z" fill="black"/>
<path d="M146.36 110.45C146.39 110.37 146.44 110.3 146.47 110.22C146.75 109.67 146.15 110.76 146.51 110.15C146.83 109.61 147.15 109.06 147.48 108.53C148.44 106.93 149.42 105.34 150.4 103.76C152.54 100.29 154.69 96.8199 156.85 93.3499C157.17 92.8299 157.5 92.3099 157.82 91.7899C157.92 91.6299 158.33 91.1699 158.33 90.9799C158.33 90.7899 157.96 91.3399 158.06 91.2499C158.18 91.1499 157.62 91.3699 157.92 91.2899C158.05 91.2599 158.17 91.2199 158.3 91.1799C158.98 90.9899 159.68 90.8399 160.38 90.7299C162.04 90.4599 164.14 90.2199 165.55 91.1099C165.7 91.1999 165.85 91.3099 165.97 91.4299C165.71 91.1799 166.29 91.6499 166.03 91.5199C165.91 91.4599 165.97 91.4099 166.05 91.5899C166.02 91.5199 165.84 90.9899 166 91.4799C165.97 91.3999 165.98 90.9199 165.93 91.2199C165.9 91.4299 165.96 91.7099 165.98 91.9299C166.03 92.7299 166.1 93.5399 166.17 94.3399C166.19 94.6299 166.21 94.9099 166.23 95.1999C166.27 95.6999 166.25 94.5999 166.22 95.0599C166.22 95.2099 166.22 95.3699 166.22 95.5099C166.22 95.5299 166.23 95.8199 166.22 95.8199L166.25 95.3099C166.22 95.5699 166.22 95.5499 166.27 95.2499C166.36 94.7699 166.31 95.0499 166.27 95.1599C166.35 94.8999 166.46 94.6899 166.57 94.4499C166.45 94.7299 166.55 94.4099 166.66 94.3999C166.58 94.4099 166.52 94.5299 166.43 94.5499C166.13 94.6199 166.29 94.6299 166.07 94.6699C164.84 94.8899 163.47 94.6799 162.24 94.5499C160.74 94.3899 159.24 94.1699 157.75 93.9199C157.17 93.8199 156.59 93.7199 156.02 93.5999C155.85 93.5699 155.69 93.5199 155.52 93.4899C155.45 93.4499 155.12 93.4099 155.52 93.4899L156.18 94.3599V94.3399C156.07 96.1099 155.97 97.8699 155.87 99.6399C155.69 99.8799 155.03 99.8999 155.37 100.03C155.46 100.06 155.69 100.01 155.79 100.01C156.21 100.01 156.63 100.04 157.05 100.1C158.01 100.23 158.95 100.48 159.78 101C160.75 101.6 160.88 102.16 161.38 103.25C161.97 104.52 162.42 105.62 162.74 106.81C162.78 106.95 162.95 107.68 162.9 107.42C162.83 107.08 162.97 108.1 162.98 108.11C162.79 107.95 163.02 107.11 163.06 106.91C163.06 106.91 163.21 106.4 163.14 106.7C163.08 106.92 163.17 106.57 163.26 106.52C162.49 106.92 161.31 107.61 160.25 107.94C157.61 108.75 154.91 108.93 152.34 107.88C150.09 106.95 147.88 105.91 145.7 104.82C143.72 103.83 143.06 110.41 144.91 111.33C147.27 112.51 149.66 113.65 152.11 114.62C155.37 115.91 158.91 115.36 162.1 114.07C163.53 113.49 164.69 112.76 165.31 111.3C166.16 109.29 166.01 106.93 165.61 104.84C165.25 102.94 164.61 101.1 163.84 99.3299C163.26 97.9799 162.65 96.4099 161.59 95.3599C160.45 94.2199 158.93 93.6799 157.36 93.4199C156.48 93.2799 154.99 92.9899 154.37 93.8299C153.44 95.0899 153.32 97.7699 154.07 99.1299C154.65 100.17 155.41 100.24 156.48 100.45C157.84 100.71 159.21 100.93 160.58 101.11C162.63 101.38 166.29 102.31 167.89 100.49C170 98.0899 169.09 93.7699 168.87 90.8999C168.65 88.0299 168.05 84.8899 164.82 84.0299C162.91 83.5199 160.81 83.8299 158.92 84.2799C157.95 84.5099 157.13 84.6299 156.59 85.5099C154.53 88.8099 152.48 92.1099 150.44 95.4099C149.11 97.5699 147.78 99.7199 146.46 101.89C145.72 103.1 144.78 104.37 144.24 105.69C143.65 107.13 143.59 109.03 144.24 110.46C144.77 111.62 145.82 111.74 146.34 110.46L146.36 110.45Z" fill="black"/>
<path d="M175.88 111.87C176.35 111.16 176.86 110.47 177.38 109.8C178.38 108.51 179.36 107.37 180.48 106.5C180.75 106.29 181.04 106.09 181.34 105.92C181.48 105.84 181.62 105.78 181.76 105.71C181.81 105.69 182.25 105.56 181.91 105.64C182.68 105.46 183.56 105.53 184.35 105.46C185.14 105.39 185.95 105.32 186.74 105.43C187.11 105.48 187.11 105.5 187.49 105.69C187.55 105.72 187.93 106.06 187.67 105.78C187.75 105.87 187.83 105.97 187.9 106.07C187.77 105.82 187.76 105.83 187.88 106.08L187.8 105.83C187.88 106.16 187.88 106.15 187.82 105.81C187.88 106.1 187.92 106.4 187.96 106.69C188.05 107.28 188.12 107.88 188.18 108.47C188.19 108.58 188.24 109.57 188.21 108.75C188.22 109.04 188.23 109.33 188.23 109.62C188.23 109.91 188.23 110.18 188.22 110.46C188.24 109.57 188.18 110.73 188.16 110.9C188.08 111.7 188.29 110.5 188.16 110.95C188.1 111.14 188.07 111.33 188.01 111.52C188.21 110.89 187.97 111.55 187.92 111.66C188.12 111.23 187.87 111.72 187.82 111.81C187.31 112.61 186.88 113.45 186.43 114.28C186.39 114.35 186.07 114.92 186.34 114.44C186.24 114.61 186.14 114.78 186.03 114.95C185.82 115.27 185.6 115.59 185.35 115.88C185.33 115.9 184.9 116.31 185.19 116.06C185.05 116.18 184.91 116.29 184.76 116.38C184.38 116.62 184.18 116.7 183.81 116.74C182.85 116.84 181.86 116.46 180.94 116.24C179.85 115.97 178.76 115.71 177.72 115.3C177.21 115.1 176.71 114.88 176.24 114.6C176.06 114.49 175.89 114.37 175.72 114.25C175.54 114.1 175.52 114.08 175.64 114.2C175.55 114.11 175.47 114.01 175.4 113.91C175.1 113.59 175.49 114.18 175.53 114.32C175.45 114 175.47 114.1 175.57 114.61C175.53 114.25 175.53 114.36 175.57 114.93C175.59 114.84 175.61 114.39 175.57 114.31C175.53 114.85 175.53 114.93 175.56 114.56C175.57 114.41 175.59 114.27 175.61 114.12C175.64 113.9 175.67 113.68 175.7 113.46C175.76 113.12 175.75 113.17 175.66 113.62C175.69 113.48 175.71 113.34 175.74 113.2C175.83 112.76 175.94 112.33 176.05 111.9C176.16 111.47 176.28 111.05 176.41 110.63C176.84 109.31 176.78 107.14 175.88 106.01C174.91 104.79 174.12 106.37 173.85 107.22C173.34 108.8 172.99 110.46 172.77 112.1C172.39 114.93 172.37 118.54 174.71 120.56C176.55 122.15 179.34 122.59 181.62 123.15C182.8 123.44 183.75 123.65 184.92 123.2C185.83 122.85 186.58 122.09 187.15 121.32C187.8 120.45 188.3 119.47 188.81 118.52C188.93 118.3 189.05 118.08 189.17 117.85C188.98 118.2 189.11 117.94 189.23 117.76C189.59 117.2 189.95 116.64 190.2 116.02C191.44 112.91 191.37 109.33 191 106.05C190.73 103.61 190.44 99.8001 187.68 98.8601C186.7 98.5301 185.71 98.5501 184.69 98.6301C183.79 98.7001 182.81 98.6401 181.94 98.8301C179.84 99.2901 178.18 101.2 176.85 102.75C175.97 103.77 175.14 104.85 174.4 105.98C173.56 107.25 173.45 109.15 173.87 110.6C174.09 111.37 175.03 113.14 175.9 111.81L175.88 111.87Z" fill="black"/>
<path d="M197.24 125.75C197.43 125.3 196.84 126.37 197.18 125.85C197.34 125.61 197.49 125.36 197.65 125.11C198.11 124.4 198.58 123.7 199.04 123C200.42 120.93 201.83 118.87 203.23 116.81C205.19 113.94 207.16 111.07 209.13 108.21L206.95 106.19C207.6 113.77 208.24 121.35 208.89 128.93C208.98 130.03 209.08 131.13 209.17 132.24C209.24 133.01 210.18 135.89 211.35 134.26C215.1 129.03 218.84 123.79 222.59 118.56C223.13 117.81 223.67 117.05 224.21 116.3C225.1 115.06 225.12 113.11 224.74 111.68C224.52 110.84 223.61 109.21 222.71 110.47C218.96 115.7 215.22 120.94 211.47 126.17C210.93 126.92 210.39 127.68 209.85 128.43L212.03 130.45C211.38 122.87 210.74 115.29 210.09 107.71C210 106.61 209.9 105.51 209.81 104.4C209.75 103.66 208.77 100.72 207.63 102.38C205.61 105.31 203.59 108.25 201.59 111.19C200.2 113.23 198.8 115.28 197.43 117.34C196.66 118.49 195.67 119.7 195.14 120.98C194.54 122.41 194.49 124.33 195.14 125.75C195.68 126.92 196.71 127.02 197.24 125.75Z" fill="black"/>
</g>
<defs>
<clipPath id="clip0_3416_10823">
<rect width="279.99" height="193.04" fill="white"/>
</clipPath>
</defs>
</svg>
