<svg width="232" height="302" viewBox="0 0 232 302" fill="none" xmlns="http://www.w3.org/2000/svg">
<g clip-path="url(#clip0_3416_11740)">
<path d="M128.46 91.4303C129.09 87.1203 128.77 82.5803 128.8 78.2303L128.84 72.0903C128.84 71.5703 128.8 71.0303 128.85 70.5103C128.81 71.0603 128.82 71.1203 128.88 70.7003L128.8 71.0903C128.69 71.4503 128.46 71.7303 128.12 71.9403C127.47 72.0603 126.95 71.8303 126.58 71.2403C125.98 70.3803 125.97 68.7003 126.2 68.0903L126.96 66.8603C127.33 66.6703 127.41 66.6303 127.18 66.7203C125.64 67.2703 125.49 70.0703 126.09 71.2603C126.92 72.9003 128.69 73.9803 129.99 72.0203C131 70.4803 130.95 68.3003 130.32 66.6403C129.69 64.9803 128.08 64.0003 126.44 64.8803C124.71 65.8103 124.11 68.0603 123.99 69.8803C123.77 73.3503 123.9 76.8702 123.87 80.3403C123.85 84.0703 123.63 87.8503 124.11 91.5603C124.25 92.6103 125.13 94.0603 126.35 94.0303C127.57 94.0003 128.31 92.5203 128.46 91.4603V91.4303Z" fill="#1D1D1B"/>
<path d="M136.05 218.21C136.81 221.52 138.53 224.63 140 227.67C141.47 230.71 142.8 233.47 144.2 236.38C144.81 237.64 146.3 238.94 147.6 237.64C148.82 236.41 149.1 234.04 148.36 232.49C146.96 229.59 145.56 226.69 144.16 223.78C143.4 222.2 142.67 220.61 141.83 219.07C141.09 217.72 140.45 216.22 139.43 215.06C138.74 214.27 137.81 213.82 136.91 214.63C136.01 215.44 135.78 217.06 136.05 218.21Z" fill="#1D1D1B"/>
<path d="M78.12 51.2803L1.73999 167.55L105.59 275.43L106.31 256.02L24.89 171.56L188.69 146.01L187.7 137.9L22.03 162.32L83.85 60.6303L78.12 51.2803Z" fill="#1D1D1B"/>
<path d="M77.2901 48.0502C74.7601 51.9002 72.2301 55.7602 69.6901 59.6102C63.6101 68.8702 57.5301 78.1202 51.4501 87.3802C44.0901 98.5802 36.7401 109.77 29.3801 120.97C23.0201 130.65 16.6601 140.33 10.3001 150.01C7.21006 154.71 4.05006 159.37 1.03006 164.12C0.990062 164.19 0.940062 164.25 0.900062 164.32C-0.0999377 165.85 -0.499938 169.34 0.900062 170.79C4.36006 174.39 7.82006 177.98 11.2801 181.58C19.5301 190.15 27.7801 198.72 36.0301 207.29C46.0601 217.71 56.0901 228.13 66.1201 238.55C74.7401 247.5 83.3601 256.46 91.9701 265.41C96.1701 269.77 100.33 274.18 104.57 278.5C104.63 278.56 104.69 278.62 104.75 278.68C106.56 280.56 107.19 276.53 107.23 275.45C107.42 270.44 107.6 265.43 107.79 260.42C107.87 258.28 108.51 254.59 107.14 252.8C106.92 252.52 106.63 252.27 106.38 252.01C101.26 246.7 96.1401 241.39 91.0201 236.08C82.2501 226.98 73.4701 217.88 64.7001 208.78C55.9301 199.68 47.6301 191.08 39.1001 182.23C34.7201 177.68 30.4701 172.94 25.9101 168.55C25.8401 168.49 25.7801 168.42 25.7201 168.35L24.8901 175.33C30.3601 174.48 35.8301 173.62 41.3001 172.77C54.3401 170.74 67.3801 168.7 80.4201 166.67C96.1801 164.21 111.93 161.75 127.69 159.29C141.31 157.17 154.92 155.04 168.54 152.92C175.15 151.89 181.83 151.07 188.4 149.82C188.49 149.8 188.59 149.79 188.68 149.78C190.43 149.51 190.42 146.23 190.27 145.04C189.94 142.34 189.61 139.64 189.28 136.94C189.2 136.31 188.78 134.03 187.69 134.19C182.16 135.01 176.62 135.82 171.09 136.64C157.9 138.58 144.7 140.53 131.51 142.47C115.57 144.82 99.6301 147.17 83.6901 149.52C69.9201 151.55 56.1501 153.58 42.3801 155.61C37.8401 156.28 33.3101 156.95 28.7701 157.62C26.6301 157.94 24.4401 158.15 22.3201 158.57C22.2301 158.59 22.1301 158.6 22.0401 158.61L22.8701 165.59C24.9301 162.2 26.9901 158.81 29.0501 155.42C33.9501 147.35 38.8601 139.29 43.7601 131.22C49.7301 121.4 55.7001 111.57 61.6701 101.75C66.8001 93.3202 71.9201 84.8802 77.0501 76.4502C79.5601 72.3202 82.1001 68.2102 84.5801 64.0602C84.6101 64.0002 84.6501 63.9502 84.6801 63.8902C85.8101 62.0302 85.8201 59.2802 84.6801 57.4202C82.7701 54.3002 80.8601 51.1902 78.9501 48.0702C78.0501 46.5902 76.9201 48.5802 76.6901 49.4102C76.2501 51.0702 76.3701 53.0502 77.2801 54.5402C79.1901 57.6602 81.1001 60.7702 83.0101 63.8902V57.4202C80.9501 60.8102 78.8901 64.2002 76.8301 67.5902C71.9301 75.6602 67.0201 83.7202 62.1201 91.7902C56.1501 101.61 50.1801 111.44 44.2101 121.26C39.0801 129.69 33.9601 138.13 28.8301 146.56C26.3201 150.69 23.7701 154.8 21.3001 158.95C21.2701 159.01 21.2301 159.06 21.2001 159.12C20.4401 160.37 20.2601 161.92 20.4401 163.35C20.5301 164.05 20.9401 166.26 22.0301 166.1C27.5601 165.28 33.1001 164.47 38.6301 163.65C51.8201 161.71 65.0201 159.76 78.2101 157.82C94.1501 155.47 110.09 153.12 126.03 150.77C139.8 148.74 153.57 146.71 167.34 144.68L180.95 142.67C183.07 142.36 185.32 142.23 187.4 141.72C187.49 141.7 187.59 141.69 187.68 141.68L186.09 138.93C186.42 141.63 186.75 144.33 187.08 147.03L188.67 142.29C183.2 143.14 177.73 144 172.26 144.85C159.22 146.88 146.18 148.92 133.14 150.95C117.38 153.41 101.63 155.87 85.8701 158.33C72.2501 160.45 58.6401 162.58 45.0201 164.7C38.4101 165.73 31.7301 166.55 25.1601 167.8C25.0701 167.82 24.9701 167.83 24.8801 167.84C23.7401 168.02 23.4001 169.67 23.2901 170.59C23.1401 171.81 23.1201 173.86 24.0501 174.82C26.7501 177.62 29.4501 180.42 32.1501 183.23C38.6401 189.96 45.1201 196.69 51.6101 203.42C59.4301 211.53 67.2501 219.64 75.0601 227.75C81.8501 234.79 88.6301 241.83 95.4201 248.87C97.6501 251.18 99.8801 253.5 102.12 255.81C103.18 256.91 104.2 258.1 105.33 259.14C105.38 259.19 105.42 259.24 105.47 259.29L104.65 256.06C104.41 262.53 104.17 269 103.93 275.47L106.41 272.24C102.95 268.64 99.4901 265.05 96.0301 261.45C87.7801 252.88 79.5301 244.31 71.2801 235.74C61.2501 225.32 51.2201 214.9 41.1901 204.48C32.5701 195.53 23.9501 186.57 15.3401 177.62C11.1501 173.27 7.10006 168.71 2.74006 164.53C2.68006 164.47 2.62006 164.41 2.56006 164.35V170.82C5.09006 166.97 7.62006 163.11 10.1601 159.26C16.2401 150 22.3201 140.75 28.4001 131.49C35.7601 120.29 43.1101 109.1 50.4701 97.9002C56.8301 88.2202 63.1901 78.5402 69.5501 68.8602C72.6401 64.1602 75.8001 59.5002 78.8201 54.7502C78.8601 54.6802 78.9101 54.6202 78.9501 54.5502C79.9001 53.1102 79.9701 51.0502 79.5401 49.4202C79.3101 48.5502 78.2401 46.6202 77.2801 48.0802L77.2901 48.0502Z" fill="#1D1D1B"/>
<path d="M117.62 282.36C116.26 281.9 114.95 281.2 113.73 280.47C112.51 279.74 111.29 278.87 110.19 277.91C110.05 277.79 109.91 277.66 109.77 277.54C109.35 277.16 109.8 277.59 109.58 277.36C109.27 277.05 108.96 276.73 108.66 276.39C108.08 275.74 107.55 275.05 107.06 274.33C106.93 274.14 106.29 273.06 106.64 273.68C106.4 273.25 106.17 272.8 105.97 272.35C105.87 272.12 105.77 271.88 105.67 271.65C105.63 271.54 105.36 270.81 105.53 271.3C105.69 271.76 105.46 271.07 105.42 270.93C105.33 270.64 105.26 270.35 105.19 270.05C105.13 269.82 105.09 269.58 105.04 269.34C105.17 269.97 105.11 269.74 105.05 269.3C105.01 269.01 104.99 268.73 104.95 268.44C104.86 267.6 104.95 269.18 104.95 268.32C104.95 268.05 104.95 267.78 104.95 267.52C104.95 267.36 104.96 267.21 104.96 267.05C104.96 266.38 104.93 267.28 104.94 267.33C104.83 266.75 105.09 265.92 105.17 265.34C105.26 264.73 105.03 265.94 105.22 265.07C105.29 264.76 105.36 264.45 105.44 264.14C105.53 263.77 105.63 263.41 105.74 263.04C105.78 262.89 106.1 261.91 105.94 262.39C106.47 260.84 107.14 259.34 107.87 257.88C109.79 254.06 112.35 250.63 114.96 247.27C120 240.77 125.35 234.52 131 228.54C134.92 224.39 139.01 220.41 142.96 216.29C145.68 213.45 148.35 210.5 150.19 206.99C152.15 203.23 152.31 199.14 152.26 194.99C152.19 188.84 151.76 182.69 151.18 176.57C150.6 170.45 149.89 164.46 148.63 158.52C148.2 156.51 147.71 154.43 146.86 152.56C146.66 152.12 146.43 151.69 146.17 151.29C146.01 151.05 145.6 150.21 145.87 150.89C145.8 150.7 145.7 150.51 145.62 150.33C145.32 149.68 145.71 150.79 145.6 150.26C145.54 149.98 145.45 149.7 145.39 149.43C145.36 149.32 145.35 149.2 145.32 149.09C145.21 148.69 145.43 149.81 145.34 149.16C145.25 148.51 145.16 147.85 145.09 147.19C145.06 146.86 145.03 146.52 145 146.19C144.99 145.99 144.97 145.79 144.96 145.59C145 146.12 144.98 145.91 144.96 145.51C144.88 143.82 144.85 142.14 144.83 140.45C144.8 136.61 144.84 132.77 144.77 128.94C144.7 125.11 144.41 121 144 117.03C143.67 113.89 143.57 110.73 143.24 107.58C142.94 104.74 142.4 101.85 141.18 99.2502C139.85 96.4202 137.83 94.1102 135.51 92.0502C133.03 89.8402 130.29 87.8802 127.66 85.8502C124.66 83.5402 121.64 81.2402 118.6 78.9902C113.05 74.8902 107.41 70.7802 101.36 67.4602C96.95 65.0402 92.01 63.9602 87.53 61.7002C85.29 60.5702 83.29 59.1302 81.77 57.2302C79.78 54.7502 78.75 51.9602 78.05 48.8802C77.62 46.9802 77.3 44.8502 77.04 42.7902C76.91 41.8302 76.81 40.8602 76.72 39.8902C76.68 39.4802 76.65 39.0602 76.62 38.6502C76.58 38.0502 76.64 39.2202 76.62 38.6302C76.62 38.3602 76.6 38.0902 76.59 37.8202C76.57 37.1202 76.57 36.4202 76.59 35.7302C76.59 35.5502 76.61 35.3602 76.61 35.1802C76.61 35.2802 76.54 36.0502 76.61 35.3802C76.64 35.0502 76.67 34.7102 76.71 34.3802C76.75 34.0702 76.81 33.7602 76.84 33.4502C76.78 34.0602 76.76 33.8402 76.87 33.3702C76.92 33.1302 76.98 32.9002 77.05 32.6602C77.09 32.5302 77.13 32.4002 77.16 32.2802C77.3 31.7402 76.95 32.7202 77.12 32.4002C77.32 32.0402 77.45 31.6102 77.62 31.2302C77.67 31.1302 77.73 31.0302 77.78 30.9202C77.93 30.6102 77.5 31.3502 77.7 31.0602C77.83 30.8802 77.93 30.6902 78.06 30.5102C78.29 30.1802 78.54 29.8702 78.81 29.5702C78.93 29.4302 79.06 29.3002 79.19 29.1702C79.52 28.8202 78.97 29.3402 79.42 28.9502C80.21 28.2902 80.93 27.6702 82 27.6602C83.18 27.6502 84.23 28.2302 85.18 28.8902C86.54 29.8402 87.55 30.8702 88.57 32.2602V25.7902C85.24 29.4602 83.7 35.1602 85.45 39.8702C86.22 41.9302 88.02 43.4302 89.26 45.2102C90.61 47.1602 91.84 49.2002 93.13 51.1902C95.99 55.5902 99.22 60.2302 103.75 63.0702C107.08 65.1602 111.29 66.0902 114.99 67.3302C124.72 70.6002 134.93 74.0602 143.31 80.1702C145.08 81.4602 146.72 82.8602 148.12 84.5502C149.93 86.7502 151.42 89.1802 153.28 91.3502C155.01 93.3602 156.88 95.2502 158.65 97.2302C159.44 98.1102 160.21 99.0202 160.91 99.9802C161.67 101.02 162.11 101.73 162.58 102.73C162.82 103.25 163.05 103.79 163.24 104.33C163.09 103.87 163.3 104.58 163.34 104.72C163.44 105.07 163.52 105.43 163.6 105.78C163.69 106.17 163.6 105.74 163.59 105.68C163.62 105.84 163.65 106.01 163.67 106.17C163.72 106.51 163.76 106.85 163.8 107.19C163.82 107.37 163.83 107.54 163.85 107.72C163.85 107.64 163.83 107.19 163.85 107.64C163.87 108.09 163.88 108.54 163.88 108.99C163.87 112.6 163.45 116.59 163.24 120.41C162.87 126.98 162.57 133.55 162.59 140.13C162.59 143.4 162.51 146.76 162.96 150C163.43 153.45 164.51 156.76 165.83 159.97C167.15 163.18 168.56 166 169.87 169.04C170.46 170.39 171.08 171.9 171.53 173.21C171.77 173.93 171.99 174.67 172.18 175.41C172.4 176.28 172.49 176.7 172.57 177.27C172.62 177.64 172.66 178.01 172.7 178.38C172.75 178.82 172.71 178.38 172.7 178.31C172.71 178.49 172.71 178.68 172.72 178.86C172.74 179.74 172.72 180.61 172.7 181.49C172.69 183.19 172.67 184.88 172.62 186.58C172.56 188.56 172.53 189.27 172.35 191.15C172.2 192.69 171.98 194.32 171.73 195.52C171.05 198.74 169.94 201.86 168.29 204.72C166.52 207.8 164.22 210.62 161.92 213.32C157.51 218.5 152.61 223.21 147.8 228.02C144.7 231.12 141.73 234.3 138.59 237.27C134.78 240.87 130.94 244.45 127.35 248.28C124.52 251.29 121.34 254.66 119.91 258.62C119.43 259.96 119.24 261.26 119.15 262.67C119.13 262.91 119.17 262.44 119.17 262.46C119.15 262.63 119.13 262.81 119.11 262.98C119.06 263.39 119.11 262.99 119.13 262.92C119.1 263.08 119.05 263.24 119.01 263.4C118.97 263.56 118.93 263.72 118.88 263.87C119 263.53 118.9 263.8 118.88 263.87C118.76 264.21 118.62 264.54 118.47 264.87C117.46 267.13 116.03 269.12 115.71 271.64C115.49 273.38 115.64 275.33 116.54 276.86C116.86 277.41 117.26 277.85 117.77 278.23C118.25 278.59 118.41 278.63 118.61 278.85C118.8 279.05 118.53 278.73 118.53 278.68C118.53 278.71 118.71 279.16 118.55 278.67C118.41 278.25 118.52 278.59 118.54 278.67C118.48 278.41 118.46 278.17 118.43 277.91C118.36 277.34 118.43 277.71 118.43 277.85C118.43 278.26 118.51 277.87 118.44 277.81C118.35 277.73 118.47 277.36 118.43 277.78C118.38 278.22 118.43 277.8 118.48 277.6C118.37 278.09 118.24 278.57 118.11 279.05C117.95 279.62 118.27 278.69 118.04 279.24C117.93 279.5 117.84 279.77 117.73 280.04C117.41 280.81 117.06 281.57 116.67 282.3C116.54 282.54 116.4 282.77 116.28 283.02C116.24 283.11 116.65 282.39 116.41 282.79C115.52 284.29 115.37 286.24 115.82 287.92C116.04 288.73 117.17 290.79 118.08 289.26C120.12 285.84 121.74 281.89 121.73 277.86C121.73 276.29 121.5 274.63 120.78 273.22C120.35 272.36 119.27 271.13 118.54 270.93C118.7 270.97 118.49 270.94 118.48 270.84C118.49 270.97 118.66 271.23 118.7 271.36C118.97 272.16 118.96 273.08 118.85 273.91C118.82 274.1 118.8 274.21 118.76 274.28C118.89 274.07 118.97 273.79 119.08 273.57C119.57 272.56 120.14 271.6 120.62 270.59C121.25 269.25 121.75 267.83 122.05 266.38C122.27 265.29 122.39 264.22 122.44 263.11C122.48 262.12 122.38 263.77 122.43 263.33C122.48 262.84 122.24 264.24 122.4 263.56C122.53 263 122.25 263.86 122.34 263.69C122.42 263.54 122.47 263.36 122.54 263.2C122.71 262.81 122.9 262.44 123.11 262.07C122.88 262.48 123.1 262.1 123.21 261.92C123.33 261.73 123.45 261.54 123.58 261.35C123.87 260.92 124.17 260.49 124.48 260.08C127.46 256.07 131.09 252.54 134.67 249.08C137.99 245.87 141.44 242.78 144.68 239.48C148.62 235.46 152.6 231.47 156.55 227.45C161.55 222.35 166.67 216.95 170.24 210.71C173.81 204.47 175.37 197 175.79 189.6C176.18 182.71 176.46 175.71 174.24 169.09C172.17 162.9 168.58 157.08 166.79 150.93C166.58 150.21 166.4 149.49 166.24 148.76C166.12 148.2 166.22 148.77 166.15 148.21C166.09 147.73 166.02 147.25 165.99 146.76C166.03 147.37 165.99 146.5 165.99 146.31C165.98 145.95 165.97 145.59 165.96 145.23C165.94 144.45 165.92 143.66 165.91 142.88C165.86 139.8 165.89 136.73 165.97 133.65C166.15 126.57 166.57 119.72 167.01 112.83C167.45 105.94 166.87 99.7801 163.08 94.2001C160.12 89.8401 155.97 86.3902 152.78 82.1902C151.25 80.1702 149.96 78.0602 148.14 76.2802C146.32 74.5002 144.38 72.9902 142.28 71.6202C137.84 68.7302 132.98 66.5102 128.08 64.5402C123.45 62.6802 118.73 61.0702 114 59.4902C110.13 58.2002 106.05 57.1702 102.83 54.5502C98.81 51.2802 96.02 46.6302 93.27 42.3102C92.11 40.4902 90.98 38.6202 89.6 36.9602C89.15 36.4202 87.83 35.3402 87.9 34.8602C87.88 34.9802 88.06 35.8002 88.01 35.1702C88.03 35.3702 88.01 36.4502 88.06 35.8102C88.01 36.4002 88.04 35.9802 88.13 35.6502C87.98 36.2002 88.21 35.4702 88.29 35.2802C88.39 35.0402 88.51 34.8102 88.62 34.5802C88.68 34.4702 88.74 34.3602 88.8 34.2502C88.78 34.2902 88.62 34.5602 88.77 34.3202C88.99 33.9602 89.22 33.6102 89.47 33.2702C89.72 32.9302 89.98 32.5902 90.26 32.2802C91.58 30.8302 91.36 27.3002 90.26 25.8102C87.91 22.6102 83.05 18.1202 79.05 21.3302C75.31 24.3402 73.8 28.8602 73.45 33.5302C73.16 37.4302 73.43 41.3402 73.95 45.2102C74.55 49.6702 75.3 54.1902 77.04 58.3702C79.36 63.9302 83.5 67.7402 89.02 70.0002C91.38 70.9602 93.82 71.7202 96.2 72.6502C98.74 73.6502 101.13 75.0002 103.46 76.4202C109.79 80.2802 115.77 84.7102 121.68 89.1702C124.57 91.3502 127.43 93.5602 130.29 95.7802C132.88 97.7902 135.55 99.7302 137.54 102.37C137.93 102.89 138.3 103.42 138.62 103.99C138.41 103.62 138.75 104.27 138.81 104.38C138.97 104.7 139.11 105.03 139.25 105.36C139.31 105.51 139.36 105.65 139.42 105.8C139.42 105.78 139.25 105.26 139.35 105.6C139.44 105.9 139.53 106.2 139.61 106.5C139.68 106.77 139.74 107.04 139.8 107.31C139.84 107.47 139.86 107.62 139.9 107.78C139.82 107.39 139.81 107.25 139.88 107.73C140.3 110.67 140.41 113.63 140.66 116.59C140.81 118.44 141.05 120.29 141.22 122.14C141.26 122.62 141.3 123.1 141.34 123.58C141.35 123.76 141.37 123.95 141.38 124.13C141.42 124.76 141.35 123.61 141.38 124.24C141.43 125.25 141.47 126.25 141.5 127.26C141.62 131.25 141.57 135.24 141.59 139.23C141.61 142.79 141.64 146.38 142.04 149.92C142.34 152.54 142.83 155.38 144.41 157.56C144.48 157.66 144.73 158.04 144.46 157.61C144.18 157.16 144.49 157.68 144.54 157.79C144.69 158.14 144.81 158.51 144.97 158.85C144.98 158.88 144.77 158.19 144.95 158.8C145.02 159.03 145.09 159.26 145.16 159.49C145.31 160.01 145.44 160.53 145.56 161.05C145.69 161.6 145.81 162.15 145.93 162.7C145.99 162.97 146.04 163.25 146.1 163.52C146.13 163.68 146.16 163.84 146.19 164.01C146.11 163.59 146.11 163.55 146.19 163.99C146.44 165.39 146.66 166.79 146.87 168.2C147.79 174.56 148.36 180.97 148.77 187.38C148.71 186.46 148.78 187.63 148.8 187.88C148.82 188.27 148.84 188.66 148.86 189.05C148.9 189.8 148.93 190.56 148.96 191.31C149.01 192.64 149.05 193.97 149.06 195.3C149.07 196.41 149.06 197.52 149.03 198.63C149.02 199.4 149.07 198.25 149.05 198.33C149.02 198.52 149.01 198.71 148.99 198.9C148.98 199.02 148.87 199.3 148.92 199.39C148.92 199.38 149.13 198.45 149.01 198.91C148.98 199.02 148.96 199.14 148.93 199.26C148.87 199.49 148.82 200.13 148.64 200.29C148.85 200.1 148.89 199.62 148.68 200.14C148.6 200.34 148.52 200.55 148.43 200.75C148.28 201.09 148.12 201.43 147.94 201.76C147.86 201.92 147.77 202.08 147.68 202.23C148.07 201.51 147.67 202.23 147.57 202.39C146.6 203.95 145.45 205.39 144.25 206.77C140.87 210.65 137.12 214.2 133.53 217.87C128.22 223.3 123.1 228.9 118.27 234.76C109.28 245.66 98.35 259.43 102.61 274.6C104.47 281.23 109.48 286.45 115.72 289.21C116.09 289.37 116.46 289.53 116.84 289.66C118.27 290.15 118.74 288.09 118.87 287.04C118.99 286.05 119.07 282.89 117.72 282.43L117.62 282.36Z" fill="#1D1D1B"/>
<path d="M189.38 142.2C189.86 142.13 190.39 142.09 190.83 141.88C191.42 141.6 191.79 141.04 192.22 140.57C192.96 139.76 193.71 138.97 194.49 138.2C195.95 136.76 197.51 135.41 199.13 134.15C202.48 131.56 206.22 129.43 210.14 127.83C213.32 126.54 218.08 125.44 220.72 128.25C220.66 128.19 221.39 129.24 221.03 128.58C221.12 128.76 221.2 128.95 221.27 129.14C221.16 128.73 221.15 128.72 221.24 129.12C221.31 129.55 221.31 129.52 221.24 129.03C221.24 129.46 221.25 129.43 221.28 128.94C221.26 129.15 220.93 130.27 221.2 129.53C221.14 129.72 221.07 129.92 220.99 130.11C221.14 129.81 221.13 129.83 220.95 130.16C220.85 130.34 220.74 130.51 220.62 130.67C220.8 130.48 220.77 130.51 220.53 130.78C219.97 131.39 219.68 131.56 218.85 131.88C216.32 132.85 216.62 138.18 219.03 139.1C220.64 139.72 222.06 140.53 223.35 141.67C223.95 142.2 224.36 142.61 224.8 143.18C225.05 143.51 225.29 143.85 225.52 144.2C225.85 144.72 225.71 144.44 225.96 144.99C226.13 145.36 226.29 145.74 226.42 146.13C226.22 145.55 226.53 146.59 226.56 146.76C226.59 146.93 226.62 147.11 226.65 147.28C226.54 146.61 226.65 147.16 226.64 147.31C226.64 147.54 226.64 147.77 226.64 147.99C226.64 147.62 226.68 147.62 226.62 147.99C226.58 148.22 226.55 148.44 226.51 148.66C226.52 148.6 226.66 148.16 226.54 148.57C226.43 148.96 226.29 149.33 226.15 149.7C225.9 150.34 226.02 149.98 226.09 149.84C225.98 150.04 225.87 150.24 225.75 150.44C225.66 150.59 225.57 150.73 225.47 150.87C225.44 150.92 225.05 151.45 225.25 151.2C222.99 154.02 219.94 154.29 216.52 153.23C212.28 151.91 208.15 150.19 204.15 148.28C199.71 146.16 195.39 143.87 191.29 141.15C187.19 138.43 185.58 146.78 188.58 148.77C192.98 151.69 197.6 154.38 202.43 156.54C207.26 158.7 212.05 160.54 217.03 161.49C222.01 162.44 226.15 160.57 229 156.53C231.85 152.49 232.3 146.91 230.63 142.18C228.96 137.45 224.83 133.62 220.15 131.83L220.33 139.05C223.99 137.65 225.9 133.7 226.12 129.99C226.37 125.64 224.18 121.54 220.08 119.83C215.98 118.12 211.5 119.35 207.63 121.05C203.76 122.75 200.27 124.86 196.97 127.35C195.16 128.71 193.45 130.18 191.84 131.77C191.06 132.54 190.3 133.33 189.58 134.16C189.06 134.76 188.46 135.36 188.11 136.08C187.74 136.84 187.59 137.68 187.42 138.5C187.2 139.52 187.71 142.43 189.37 142.17L189.38 142.2Z" fill="#1D1D1B"/>
<path d="M87.7601 7.97009C86.4701 7.79009 84.7601 7.87009 83.6901 8.66009C82.3501 9.65009 81.3601 11.1501 80.7801 12.6901C79.5101 16.0801 80.0301 20.1301 81.9401 23.1701C83.6201 25.8401 86.4101 27.4101 89.5101 27.7601C93.2401 28.1801 95.6401 25.8901 97.6901 23.0801C100 19.9101 101.04 15.8001 99.9901 11.9601C98.9401 8.12009 96.1101 5.58009 92.4601 4.58009C89.1501 3.68009 85.5801 4.04009 83.2601 6.82009C80.9401 9.60009 79.9101 13.5701 79.8901 17.3001C79.8701 21.0301 81.1401 24.9001 84.1501 27.1701C86.4301 28.8901 89.4501 29.7901 92.3001 29.3501C95.9701 28.7801 98.1501 26.0601 99.7301 22.9001C101.56 19.2501 102.37 15.2001 101.62 11.1401C100.93 7.37009 98.9001 4.18009 95.6301 2.19009C92.7401 0.430094 89.2201 -0.669906 85.9001 0.480094C82.9301 1.51009 80.6201 4.33009 79.0201 6.91009C76.9701 10.2101 75.5101 14.2701 75.6401 18.1901C75.7901 22.7901 78.6001 26.2801 81.8901 29.2101C84.5501 31.5701 88.2001 33.5301 91.8701 33.0401C95.5401 32.5501 98.0601 30.0901 100.43 27.4501C103.25 24.3101 105.69 21.0101 106.32 16.7301C106.52 15.3901 106.39 13.8501 105.86 12.5901C105.49 11.7101 104.69 10.4701 103.69 10.1701C101.14 9.39009 99.8801 12.0101 99.4301 14.0401C99.7101 12.7801 99.3401 14.2301 99.2101 14.5701C99.1201 14.8101 99.0201 15.0501 98.9201 15.2901C99.0001 15.1101 99.3801 14.4801 98.9201 15.2201C98.3601 16.1301 97.7901 17.0001 97.1401 17.8501C96.6301 18.5101 96.9601 18.0801 97.0801 17.9401C96.9101 18.1501 96.7401 18.3501 96.5701 18.5501C96.2501 18.9401 95.9201 19.3301 95.5901 19.7101C94.9301 20.4601 94.2401 21.1601 93.4601 21.7901C92.8801 22.2601 93.2201 21.9501 93.3701 21.8701C93.1601 21.9901 92.9501 22.1101 92.7301 22.2201C92.5101 22.3301 92.2801 22.4101 92.0501 22.5001C92.0201 22.5101 91.4001 22.6701 91.8101 22.5901C91.3601 22.6801 90.8901 22.6901 90.4401 22.6801C90.1801 22.6801 89.9101 22.6601 89.6501 22.6201C89.4101 22.5901 89.3901 22.5901 89.5901 22.6201L89.2001 22.5201C88.6901 22.3601 88.1901 22.1901 87.7001 21.9701C87.4601 21.8601 87.2201 21.7401 86.9901 21.6101C87.1301 21.6901 87.4701 21.9401 86.8101 21.5001C85.9401 20.9101 85.1301 20.2201 84.3701 19.4901C83.9901 19.1201 83.6301 18.7401 83.2601 18.3601C83.1601 18.2601 82.7201 17.7501 83.2001 18.3101C83.0401 18.1201 82.8801 17.9301 82.7201 17.7301C82.6101 17.5801 82.5001 17.4301 82.3901 17.2801C82.3001 17.1501 81.9801 16.4701 82.2001 17.0101C82.4701 17.6701 82.1601 16.3301 82.2601 17.0801C82.3101 17.4701 82.3101 17.9101 82.3701 18.2901C82.3401 18.0501 82.4701 17.6601 82.5101 17.4101C82.4801 17.5901 82.2501 18.2501 82.5101 17.4001C82.6701 16.8901 82.8401 16.3801 83.0401 15.8801C83.1101 15.6901 83.2001 15.5101 83.2701 15.3201C83.5101 14.6701 82.9401 15.8901 83.2801 15.2901C83.5801 14.7701 83.8501 14.2301 84.1801 13.7201C84.4701 13.2701 84.7801 12.8301 85.1101 12.4101C84.6901 12.9401 85.6101 11.8901 85.7001 11.7901C86.0001 11.4801 86.3301 11.2001 86.6601 10.9301C87.1301 10.5501 86.2501 11.1501 86.7701 10.8501C87.0301 10.7001 87.3001 10.5601 87.5801 10.4401C88.1601 10.2001 89.1801 10.1501 89.6301 10.2101C90.6701 10.3601 91.7101 10.8301 92.6501 11.2801C92.8801 11.3901 93.1101 11.5101 93.3301 11.6301C93.1901 11.5501 92.8701 11.3001 93.5001 11.7401C93.9201 12.0401 94.3001 12.3601 94.6801 12.7101C94.2001 12.2701 94.8901 13.0601 95.0301 13.2501C95.4001 13.7501 94.8401 12.6201 95.0001 13.2201C95.1601 13.8201 95.3801 13.7301 95.0601 13.2501C95.1601 13.4001 95.1901 13.8501 95.2201 13.9901C95.3701 14.7201 95.3501 13.9101 95.1901 13.7601C95.3201 13.8901 95.0601 14.4201 95.2001 14.5101C95.1501 14.4701 95.3401 13.5101 95.2201 14.1001C95.1701 14.3501 95.1201 14.6201 95.1001 14.8801C95.0301 15.5701 95.3701 14.1501 95.1201 14.8001C94.9101 15.3601 94.7401 15.9201 94.4901 16.4701C94.8601 15.6501 94.1601 17.0101 94.0601 17.1901C93.8201 17.5801 93.5301 17.9501 93.3001 18.3401C93.0101 18.8501 93.6901 18.0101 93.2501 18.4101C93.0701 18.5701 92.9101 18.7801 92.7101 18.9201C92.2601 19.2501 93.0601 18.7901 92.5101 18.9901C92.4301 19.0201 91.6901 19.2501 92.0401 19.1701C91.2401 19.3501 90.3601 19.3001 89.5601 19.2101C89.0101 19.1501 90.0301 19.3401 89.5001 19.1901C89.2901 19.1301 89.0801 19.0801 88.8801 19.0201C88.4201 18.8701 87.9901 18.6801 87.5501 18.4701C87.3501 18.3701 87.1001 18.0801 87.5501 18.4701C87.3901 18.3301 87.2101 18.2201 87.0501 18.0901C86.8901 17.9601 86.7501 17.8001 86.5901 17.6701C86.6601 17.7301 86.9601 18.2301 86.7701 17.8701C86.6901 17.7001 86.5401 17.5001 86.4201 17.3601C86.0301 16.9101 86.7801 18.0901 86.5401 17.5401C86.3001 16.9901 86.7201 18.3101 86.5701 17.6101C86.4201 16.9101 86.5901 18.8201 86.5701 17.5201C86.5701 17.2401 86.4201 16.6101 86.5401 17.6301C86.5101 17.4001 86.6101 17.0101 86.6401 16.8001C86.6801 16.5301 87.0001 15.4801 86.7601 16.0801C86.3801 17.0201 87.2001 14.7901 86.9201 15.6101C86.7301 16.1701 86.9601 15.5401 87.0501 15.3901C87.1701 15.1901 87.6401 14.6701 87.0601 15.2701C87.2101 15.1101 87.3701 14.9601 87.5201 14.8101C87.6401 14.6801 88.0601 14.4701 87.5301 14.7601C87.7801 14.6201 88.4701 14.3401 88.4801 14.3401C89.1901 14.1701 90.1801 14.2801 90.9001 14.4801C91.8001 14.7301 92.7101 15.0401 93.5501 15.4401C93.6201 15.4701 94.2601 15.8501 93.9501 15.6401C93.6401 15.4301 94.2201 15.8801 94.2801 15.9301C94.6401 16.2101 94.2101 15.5301 94.3301 15.9701C94.4701 16.4901 94.1301 15.3001 94.1401 15.3601C94.2101 15.5701 94.3201 16.3001 94.1401 15.2101C94.2801 16.0901 94.1601 14.7401 94.1201 15.2801C94.0801 15.7501 94.1201 15.2101 94.1601 15.1201C94.1601 15.1101 93.7101 16.2701 93.9601 15.7201C93.7301 16.2301 93.4101 16.7001 93.1101 17.1701C92.9601 17.4101 92.8001 17.6401 92.6401 17.8701C92.6401 17.8701 92.0601 18.6401 92.2401 18.4401C91.0201 19.8501 88.8701 19.7701 87.1901 19.0101C86.4301 18.6701 85.8801 18.2101 85.4901 17.6601C85.4501 17.6101 85.0901 16.9801 85.2401 17.2801C85.3701 17.5301 85.0401 16.7701 85.0201 16.6901C85.2001 17.2901 85.0201 16.6301 85.0301 16.5701C84.8901 17.2001 85.0301 16.3001 85.0301 16.6601C85.0301 17.1101 85.0701 16.3801 85.0901 16.2701C85.1401 16.0101 85.1301 16.0301 85.0901 16.3401L85.2101 16.0201C84.9301 16.3401 85.3101 15.9201 85.3401 15.8901C85.1301 16.1101 85.5801 15.6201 85.6301 15.5701C86.3301 14.9001 86.8601 14.1601 87.8601 14.1201C90.6901 14.0101 90.3701 8.30009 87.7101 7.93009L87.7601 7.97009Z" fill="#1D1D1B"/>
<path d="M132.97 280.37C132.97 278.88 132.59 277.24 132.01 275.87C131.36 274.32 129.66 273.11 128.13 272.51C125.22 271.38 121.92 272.19 119.58 274.17C116.94 276.4 115.83 280.03 115.85 283.38C115.86 285.39 116.34 287.41 117.35 289.15C118.26 290.72 119.62 291.74 121.13 292.68C123.94 294.42 127.41 295.86 130.66 294.33C133.91 292.8 135.55 288.84 136.13 285.45C136.83 281.39 136.09 276.7 132.91 273.82C130.68 271.8 127.27 271.18 124.35 271.4C116.67 271.98 113.65 280.09 114.89 286.85C115.28 288.99 116.18 291.08 117.74 292.63C118.94 293.82 120.6 294.66 122.15 295.31C125.13 296.55 128.31 296.88 131.43 296.02C134.95 295.05 137.32 292.28 138.76 289.06C140.47 285.24 141.08 280.56 139.48 276.59C138.14 273.28 135.41 271.1 132.35 269.46C129.65 268.01 126.05 266.85 122.97 267.26C119.09 267.77 116.42 271.11 114.3 274.11C111.63 277.89 110.35 282.77 111.33 287.35C112.21 291.45 114.85 294.2 118.12 296.59C121.18 298.82 124.42 301.11 128.34 301.2C130.84 301.26 131.85 297.67 131.74 295.73C131.61 293.39 130.67 290.77 128.07 290.43C127.28 290.33 127.71 290.37 127.87 290.4C127.62 290.35 127.36 290.29 127.12 290.22C126.62 290.09 126.13 289.94 125.65 289.75C125.17 289.56 124.69 289.35 124.23 289.11C124 288.99 123.77 288.87 123.54 288.74C123.46 288.7 122.65 288.22 122.95 288.4C123.29 288.61 122.6 288.17 122.54 288.13C122.37 288.02 122.21 287.92 122.05 287.81C121.63 287.53 121.21 287.25 120.79 286.96C119.91 286.36 119.15 285.67 118.33 285C117.86 284.62 118.64 285.49 118.31 284.99C118.18 284.79 118.04 284.58 117.88 284.4C117.48 283.94 118.1 285.09 117.91 284.47C117.86 284.29 117.68 283.53 117.78 284.16C117.91 285.03 117.64 283.33 117.83 284.32C117.96 284.99 117.83 284.39 117.85 284.23C117.96 283.12 117.77 284.43 117.83 284.43C118.09 284.46 117.79 282.75 117.85 284.12C117.84 283.87 118.49 282.48 118.08 283.35C118.28 282.93 118.51 282.54 118.76 282.15C119.04 281.7 119.34 281.27 119.66 280.84C119.72 280.76 120.22 280.11 119.94 280.47C119.66 280.83 120.31 280.04 120.37 279.97C121.01 279.23 121.69 278.42 122.51 277.86C122.03 278.19 123.22 277.59 123.37 277.55C123.16 277.6 123.1 277.55 123.64 277.55C123.91 277.55 124.17 277.52 124.44 277.53C126.37 277.57 128.34 278.21 130.28 279.16C131.29 279.65 131.49 279.77 132.31 280.4C132.7 280.7 133.07 281.02 133.43 281.36C134.02 281.92 133.54 281.52 133.46 281.39C133.68 281.71 133.91 282.39 133.67 281.59C133.73 281.79 133.97 282.43 133.67 281.46C133.7 281.57 133.82 282.25 133.71 281.56C133.56 280.59 133.73 282.35 133.71 281.38C133.69 280.67 133.68 281.5 133.65 281.69C133.63 281.84 133.44 282.68 133.6 282.06C133.76 281.44 133.53 282.27 133.48 282.41C133.4 282.66 133.31 282.9 133.22 283.14C133.08 283.5 132.9 283.9 133.18 283.33C132.95 283.79 132.69 284.23 132.39 284.64C132.81 284.07 131.93 285.04 131.8 285.16C131.72 285.24 131.23 285.55 131.72 285.24C131.57 285.33 131.41 285.42 131.26 285.5C130.78 285.75 130.29 285.93 129.78 286.12C129.15 286.35 129.45 286.21 129.62 286.18C129.39 286.23 129.15 286.26 128.91 286.29C128.42 286.35 127.93 286.36 127.44 286.35C126.34 286.32 125.8 286.2 124.65 285.8C123.71 285.48 122.8 285.07 121.93 284.59C121.24 284.21 121.66 284.41 121.78 284.5C121.58 284.35 121.39 284.19 121.19 284.04C121.91 284.61 121 283.98 121.15 283.95C121.35 284.32 121.39 284.36 121.27 284.07C121.17 283.81 121.18 283.82 121.27 284.1C121.36 284.67 121.29 283.99 121.26 283.85C121.11 283.2 121.29 284.91 121.31 284.24C121.31 284.03 121.31 283.81 121.31 283.6C121.29 282.93 121.15 284.65 121.3 283.99C121.35 283.78 121.38 283.57 121.41 283.36C121.51 282.73 121.09 284.23 121.35 283.65C121.41 283.51 121.46 283.35 121.51 283.2C121.84 282.29 121.01 283.89 121.57 283.11C121.69 282.95 121.81 282.76 121.92 282.59C121.82 282.74 121.35 283.15 121.87 282.7C122.02 282.57 122.18 282.42 122.33 282.28C122.52 282.11 122.83 282.06 122.32 282.28C123.4 281.83 123.54 281.67 124.65 281.6C125.61 281.53 126.59 281.57 127.54 281.72C126.95 281.63 128.19 281.91 128.31 281.95C128.52 282.02 128.73 282.1 128.94 282.19C129.03 282.23 129.78 282.66 129.41 282.41C129.07 282.18 129.51 282.51 129.54 282.53C129.7 282.68 129.88 282.81 130.03 282.97C129.44 282.34 129.85 282.89 129.96 282.99C129.54 282.59 129.71 282.51 129.87 282.92C129.5 281.93 129.71 282.43 129.76 282.73C129.53 281.36 129.65 282.21 129.7 282.44C129.95 283.51 129.66 282.07 129.73 282.17C129.83 282.3 129.62 282.94 129.59 283.08C129.54 283.32 129.49 283.56 129.43 283.8C129.29 284.47 129.71 283 129.46 283.65C129.37 283.88 129.27 284.13 129.22 284.37C129.1 284.97 129.57 283.85 129.24 284.37C129.14 284.53 129.05 284.69 128.95 284.85C129.25 284.36 129 284.79 128.88 284.92C128.45 285.36 128.59 285.18 128.77 285.06C128.48 285.24 128.13 285.38 127.81 285.49C127.92 285.45 128.37 285.44 127.61 285.53C127.32 285.56 127.03 285.58 126.73 285.58C126.28 285.58 125.89 285.52 125.47 285.41C124.33 285.11 123.14 284.56 122.14 283.95C122.06 283.9 121.31 283.33 121.31 283.33C121.52 283.55 121.05 282.79 121.23 283.19C121.37 283.5 121.07 282.59 121.28 283.25C121 282.32 121.35 283.22 121.25 283.27V282.91C121.19 283.33 121.19 283.39 121.22 283.09C121.24 283 121.35 282.25 121.26 282.69C121.17 283.13 121.42 282.23 121.45 282.14C121.61 281.71 122.08 281 122.93 280.44C123.69 279.94 124.61 279.65 125.52 279.61C126.32 279.57 127.14 279.74 127.73 280.12C127.91 280.24 128.07 280.38 128.24 280.52C128.37 280.65 128.4 280.67 128.32 280.58C128.13 280.32 128.29 280.49 128.8 281.1C128.8 281.1 129.76 281.6 129.25 281.39L129.44 281.57C129.06 281.27 128.89 280.91 128.93 280.5C129.06 281.66 129.51 283.58 131.04 283.55C132.57 283.52 132.99 281.55 133 280.41L132.97 280.37Z" fill="#1D1D1B"/>
</g>
<defs>
<clipPath id="clip0_3416_11740">
<rect width="231.64" height="301.18" fill="white"/>
</clipPath>
</defs>
</svg>
