<svg width="171" height="204" viewBox="0 0 171 204" fill="none" xmlns="http://www.w3.org/2000/svg">
<g clip-path="url(#clip0_3416_12182)">
<path d="M156.5 72.7607C156.87 59.2107 150.64 46.3707 136.72 42.2707C130.77 21.0307 106.16 -2.38932 83.5599 8.41068C79.3299 10.4207 76.6099 13.2207 74.9099 16.4807C72.5799 13.6507 69.3399 11.4907 64.8099 10.3807C40.4799 4.38068 21.2699 32.5607 19.8199 54.5307C7.04988 61.4307 3.62988 75.2807 6.77988 88.4607C-1.54012 99.1107 -1.93012 112.551 4.09988 124.401C0.329883 138.801 4.61988 154.301 18.3199 161.581C18.8899 171.371 21.6699 181.011 29.9299 187.361C33.9699 190.461 38.6899 190.091 42.6799 191.951C48.7499 194.761 53.0599 200.421 60.4299 202.371C79.2699 207.341 88.8199 194.951 91.9699 180.181C97.5599 193.141 108.34 202.791 125.16 196.511C134.08 193.181 133.98 187.151 140.48 182.001C144.69 178.671 150.12 179.111 154.33 174.311C161.16 166.521 161.82 156.361 160.34 146.681C172.23 136.721 173.21 120.671 166.55 107.371C169.99 94.5407 166.83 81.4807 156.48 72.7707M86.2799 161.881C85.9799 178.551 77.0899 194.201 58.0499 187.341C51.3299 184.911 50.7699 179.221 45.6199 177.281C34.8499 173.231 23.9799 183.161 24.8799 157.451C24.9599 155.061 24.3799 149.731 21.6699 148.641C13.6199 146.781 10.0899 140.581 11.0699 130.051C12.8799 126.061 12.3399 120.881 9.73988 117.351C10.9099 111.161 12.0699 104.971 13.2399 98.7907C15.7599 96.3307 15.3099 90.6807 14.0399 87.7807C9.44988 77.3207 17.0999 71.1207 24.7699 67.6007C26.7499 66.6907 26.5799 61.8607 26.3999 60.2607C24.9399 47.1207 35.5599 36.7407 45.7099 30.4607C51.7599 26.7207 57.3199 23.9007 64.5899 25.4407C67.1399 25.9907 70.8199 28.7707 72.4799 29.2207C72.6399 35.8707 74.1799 42.9707 75.0999 49.2807C75.1399 50.3507 75.1999 51.3707 75.2999 52.3107C77.9099 78.4707 80.5399 104.631 83.1599 130.791C84.1699 140.881 86.4499 151.721 86.2699 161.881M154.42 134.731C151.99 136.351 152.55 141.801 153.11 144.021C159.26 168.731 147.03 161.571 137.34 167.541C132.65 170.431 132.74 176.471 126.85 180.131C110.68 190.151 97.4799 177.721 93.9799 161.361C91.8199 151.271 91.6699 140.251 90.5499 130.011C87.6899 103.871 84.8299 77.7507 81.9699 51.6107C81.8699 50.6707 81.7199 49.6607 81.5299 48.6007C81.1099 42.0207 81.1699 34.5207 79.8199 27.8407C80.5599 26.8607 81.5899 25.5107 82.6899 25.0607C91.2599 21.5307 94.7499 20.4607 103.53 23.1207C115.66 26.8007 130.1 35.2907 131.46 49.2507C131.62 50.8407 132.41 55.6107 134.58 56.0907C142.81 57.9407 151.59 62.4207 149.26 73.6007C148.62 76.6907 149.34 82.3207 152.32 84.2007C154.75 90.0107 157.18 95.8207 159.6 101.641C157.79 105.641 158.33 110.801 160.93 114.341C164.08 124.431 161.91 131.241 154.42 134.721" fill="#1D1D1B"/>
<path d="M31.0499 68.0098C38.9699 78.3398 52.0799 78.2798 63.7599 75.8898C66.0999 75.4098 65.1099 68.0998 62.9899 68.5398C52.0199 70.7798 39.5199 71.2798 32.0199 61.4798C30.3499 59.2998 29.7699 66.3298 31.0499 67.9998" fill="#1D1D1B"/>
<path d="M18.8099 120.46C34.2199 123.79 52.7999 128.12 59.3499 144.42C61.1399 148.87 62.6699 142.7 61.7499 140.42C54.5099 122.39 36.3799 117.06 18.9299 113.29C16.3799 112.74 16.7299 120.01 18.8099 120.47" fill="#1D1D1B"/>
<path d="M52.9599 170.48C56.8099 161.61 65.9199 157.37 75.2499 158.71C77.1299 158.98 77 151.72 74.48 151.36C63.6 149.79 54.4099 155.65 50.1199 165.52C49.2899 167.44 51.3599 174.15 52.9599 170.48Z" fill="#1D1D1B"/>
<path d="M104.16 150.56C114.86 151.04 124.69 155.05 128.52 165.85C130.12 170.35 131.74 164.13 130.93 161.84C126.51 149.35 116.14 143.78 103.39 143.2C101.32 143.11 101.69 150.44 104.16 150.56Z" fill="#1D1D1B"/>
<path d="M126.79 131.541C129.61 120.661 138.4 112.651 149.38 110.491C151.72 110.021 150.75 102.701 148.61 103.131C136.47 105.521 127.05 114.651 123.95 126.581C123.58 128.011 123.42 130.581 124.5 131.781C125.32 132.681 126.34 133.241 126.78 131.541" fill="#1D1D1B"/>
<path d="M104.74 88.3304C109.47 94.5604 112.57 107.24 105.81 112.95C104.04 114.44 105.71 121.39 107.41 119.96C117.75 111.2 112.77 91.1104 105.7 81.8104C104.04 79.6304 103.46 86.6504 104.73 88.3304" fill="#1D1D1B"/>
<path d="M97.9099 70.0598C110 72.5898 121.87 67.6298 128.57 57.2398C129.7 55.4798 127.88 48.5598 126.27 51.0598C120.23 60.4498 108.98 65.1598 98.0299 62.8798C95.4699 62.3498 95.8299 69.6198 97.9099 70.0598Z" fill="#1D1D1B"/>
<path d="M61.62 84.84C56.63 95.42 55.92 116.09 67.86 122.52C69.8 123.56 70.04 116.44 67.98 115.33C60.26 111.18 60.59 98.08 63.92 91.02C64.81 89.15 62.81 82.33 61.62 84.84Z" fill="#1D1D1B"/>
<path d="M146.97 26.1502C143.54 23.0402 137.95 19.4802 135.4 15.6002C135.24 15.3602 135.15 15.3502 135.1 15.4002C135.14 15.2402 135.19 14.8902 135.23 14.1302C135.45 10.6702 136.2 7.16024 136.68 3.74024C136.74 3.29024 136.76 2.93024 136.75 2.61024C136.79 2.13024 136.75 1.72024 136.62 1.41024C136.53 1.21024 136.44 0.990238 136.34 0.780238C135.79 -0.449762 135.04 -0.059762 134.38 0.810238C129.7 2.56024 123.59 7.51024 118.87 6.28024C114.94 5.26024 110.93 2.42024 107.33 0.670238C105.41 -0.269762 104.13 5.26024 104.36 6.36024C104.84 8.70024 107.54 17.0002 107.07 18.5202C106.16 21.4302 99.94 25.9302 97.81 28.1502C97.09 28.9002 94.91 34.2802 97.03 34.5102C101.35 34.9902 107.12 34.6902 111.23 36.1102C114.93 37.3902 118 46.3002 120.12 50.2502C121.1 52.0702 122.57 49.9302 123.05 48.8502C124.58 45.4602 127.19 37.1302 129.51 35.7202C133.05 33.5702 140.79 33.7002 144.85 32.9602C146.73 32.6202 148.42 27.4702 146.97 26.1502Z" fill="#1D1D1B"/>
<path d="M158.87 15.5907C157.68 14.5107 155.75 13.2807 154.87 11.9407C154.82 11.8607 154.78 11.8607 154.77 11.8707C154.78 11.8207 154.8 11.6907 154.82 11.4307C154.89 10.2407 155.16 9.02071 155.32 7.84071C155.34 7.68071 155.35 7.56071 155.35 7.44071C155.35 7.28071 155.35 7.13071 155.3 7.02071C155.27 6.95071 155.24 6.88071 155.2 6.80071C155.02 6.38071 154.76 6.51071 154.53 6.81071C152.91 7.41071 150.79 9.12071 149.16 8.70071C147.8 8.35071 146.41 7.36071 145.16 6.76071C144.49 6.43071 144.06 8.35071 144.14 8.74071C144.3 9.55071 145.24 12.4207 145.07 12.9507C144.76 13.9607 142.6 15.5107 141.86 16.2807C141.61 16.5407 140.86 18.4107 141.59 18.4807C143.08 18.6507 145.09 18.5407 146.51 19.0307C147.79 19.4707 148.85 22.5607 149.59 23.9207C149.93 24.5607 150.44 23.8207 150.61 23.4407C151.14 22.2707 152.04 19.3807 152.85 18.9007C154.08 18.1607 156.76 18.2007 158.16 17.9507C158.81 17.8307 159.39 16.0507 158.89 15.5907" fill="#1D1D1B"/>
<path d="M111.79 12.9904C114.24 14.3504 116.91 15.5304 119.3 15.5204C123.5 15.5104 128.16 11.9304 131.7 9.15039C130.73 13.4804 129.82 18.5104 131.45 21.7504C132.3 23.4504 133.86 25.0604 135.62 26.6004C133.84 26.8804 132.13 27.2604 130.63 27.8504C126.39 29.5104 124.08 35.0704 122.22 39.8004C120.34 35.5704 117.99 29.9304 114.51 28.3304C112.44 27.3804 109.83 27.1004 107.23 26.9304C109 25.0704 110.55 23.0804 111.38 20.8304C112.35 18.2304 112.24 15.6104 111.8 12.9904H111.79Z" stroke="black" stroke-width="0.64" stroke-linecap="round" stroke-linejoin="round"/>
<path d="M111.79 12.9904C114.24 14.3504 116.91 15.5304 119.3 15.5204C123.5 15.5104 128.16 11.9304 131.7 9.15039C130.73 13.4804 129.82 18.5104 131.45 21.7504C132.3 23.4504 133.86 25.0604 135.62 26.6004C133.84 26.8804 132.13 27.2604 130.63 27.8504C126.39 29.5104 124.08 35.0704 122.22 39.8004C120.34 35.5704 117.99 29.9304 114.51 28.3304C112.44 27.3804 109.83 27.1004 107.23 26.9304C109 25.0704 110.55 23.0804 111.38 20.8304C112.35 18.2304 112.24 15.6104 111.8 12.9904" fill="white"/>
<path d="M146.69 11.0302C147.54 11.5002 148.46 11.9102 149.29 11.9002C150.74 11.9002 152.35 10.6502 153.58 9.7002C153.24 11.2002 152.93 12.9402 153.5 14.0602C153.79 14.6502 154.33 15.2102 154.94 15.7402C154.32 15.8402 153.73 15.9602 153.21 16.1702C151.74 16.7402 150.95 18.6702 150.3 20.3002C149.65 18.8402 148.84 16.8802 147.64 16.3302C146.92 16.0002 146.01 15.9102 145.12 15.8502C145.73 15.2102 146.27 14.5202 146.55 13.7402C146.88 12.8402 146.84 11.9302 146.69 11.0302Z" stroke="black" stroke-width="0.2" stroke-linecap="round" stroke-linejoin="round"/>
<path d="M146.69 11.0302C147.54 11.5002 148.46 11.9102 149.29 11.9002C150.74 11.9002 152.35 10.6502 153.58 9.7002C153.24 11.2002 152.93 12.9402 153.5 14.0602C153.79 14.6502 154.33 15.2102 154.94 15.7402C154.32 15.8402 153.73 15.9602 153.21 16.1702C151.74 16.7402 150.95 18.6702 150.3 20.3002C149.65 18.8402 148.84 16.8802 147.64 16.3302C146.92 16.0002 146.01 15.9102 145.12 15.8502C145.73 15.2102 146.27 14.5202 146.55 13.7402C146.88 12.8402 146.84 11.9302 146.69 11.0302Z" fill="white"/>
</g>
<defs>
<clipPath id="clip0_3416_12182">
<rect width="170.69" height="203.47" fill="white"/>
</clipPath>
</defs>
</svg>
