<svg width="202" height="257" viewBox="0 0 202 257" fill="none" xmlns="http://www.w3.org/2000/svg">
<g clip-path="url(#clip0_3416_9759)">
<path d="M103.16 256.55C101.29 256.58 99.3999 256.55 97.5299 256.5L96.8699 256.48C94.5399 256.41 92.1399 256.34 89.7299 255.93C88.1599 255.66 86.5899 255.49 85.0099 255.33C82.7399 255.09 80.4799 254.76 78.2299 254.33C75.5999 253.83 72.9799 253.24 70.3599 252.64L69.4399 252.43C68.8499 252.3 68.2699 252.13 67.6899 251.96C67.1799 251.81 66.6599 251.65 66.1299 251.54C62.2399 250.71 58.4799 249.45 54.9599 247.81C51.5899 246.24 48.3099 244.71 45.1399 242.84C41.1199 240.47 37.4899 237.36 33.9799 234.36L33.3299 233.8C28.9399 230.05 25.3899 225.51 21.8599 220.8C17.2099 214.63 13.7299 208.81 11.2099 203C2.55989 183.15 -0.54011 164.74 0.0798902 160.18C2.30989 143.89 5.16989 121.93 13.1799 106.45C13.5699 105.69 13.9499 104.93 14.3299 104.16C15.7999 101.21 17.3099 98.1601 19.4799 95.5201C20.5999 94.1601 21.7899 92.8801 22.9799 91.6001C22.9799 91.6001 25.3099 89.0701 26.0699 88.2201C27.9899 86.1001 29.9699 83.9001 32.0999 81.9101C33.3299 80.7601 34.5099 79.5401 35.6899 78.3101C38.1099 75.8101 40.6099 73.2201 43.5499 71.1501C45.2299 69.9701 46.8299 68.5601 48.5199 67.0801C49.6799 66.0601 50.8499 65.0301 52.0499 64.0801C54.0799 62.4501 56.1699 60.9201 58.2399 59.3901L60.4399 57.7701C61.5899 56.9101 62.1199 56.1601 62.8499 55.1301C63.5999 54.0701 64.5299 52.7501 66.1599 51.3701C67.3399 50.3801 68.7899 49.1401 70.4099 48.1601C70.8399 47.9001 71.4499 47.5001 71.7999 47.0801C73.1799 45.4201 74.6599 44.1701 76.0999 42.9601C76.8099 42.3601 77.5199 41.7701 78.1999 41.1201L79.3599 40.0401C81.4599 38.1101 83.4299 36.2801 84.8099 33.8701C85.2999 33.0201 85.8499 32.2301 86.3999 31.4401C86.7899 30.8801 89.9599 24.4401 90.5199 22.7501C92.0599 18.1401 94.1599 9.16008 94.5299 7.21008C94.8199 5.71008 96.4399 0.140083 97.7699 8.28803e-05C99.1099 -0.139917 100.73 5.59008 100.73 5.59008L101.08 6.60008C101.32 7.31008 101.53 7.91008 101.71 8.53008C102.06 9.73008 102.38 10.9301 102.71 12.1301C103.4 14.6801 105.5 20.6201 106.65 22.8201L108.86 27.7101C110.89 31.7201 113.78 34.9001 116.81 38.0801C119.29 40.6801 120.64 41.8501 123.2 44.3101C123.2 44.3101 128.8 48.6401 129.73 49.5101C129.73 49.5101 135.19 53.6701 137.89 55.1701L142.27 57.6501C146.06 59.8001 150.54 63.7301 154.33 66.1401C157.8 68.3401 161.12 70.9101 164.33 73.3901C165.84 74.5601 166.99 75.7801 168.11 76.9701L170.03 78.9801C172.01 81.0301 174 83.0901 175.89 85.2601C178.6 88.3501 181.23 91.5301 183.81 94.7801C187.64 99.6001 189.51 104.66 191.48 110.01C192.32 112.29 193.18 114.64 194.25 117.05L194.65 117.95C195.25 119.27 195.86 120.63 196.34 122.17C198.53 129.29 200.38 140.58 201.21 147.67C201.67 151.69 202.84 164.4 199.96 178.96C199.51 181.25 199.19 183.46 198.87 185.61C198.17 190.39 197.44 195.33 195.42 200.36C194.27 203.22 193.26 205.5 192.24 207.51C191.2 209.58 190.04 211.5 188.82 213.21C185.86 217.35 183.39 220.64 181.06 223.57C179.74 225.23 178.29 226.63 176.89 227.98L176.22 228.63C173.62 231.16 170.87 233.4 168.22 235.58C167.13 236.46 166.05 237.35 164.98 238.25C161.32 241.33 157.39 243.42 153.6 245.44L151.57 246.53C148.38 248.25 145.03 249.51 142.17 250.52C138.75 251.72 134.49 253.22 130.27 254.1C126.59 254.87 122.85 255.21 119.24 255.54L117.79 255.67C113.72 256.05 109.65 256.28 105.57 256.46C104.77 256.5 103.97 256.52 103.17 256.53L103.16 256.55Z" fill="black"/>
</g>
<defs>
<clipPath id="clip0_3416_9759">
<rect width="201.86" height="256.56" fill="white"/>
</clipPath>
</defs>
</svg>
