<svg width="194" height="168" viewBox="0 0 194 168" fill="none" xmlns="http://www.w3.org/2000/svg">
<g clip-path="url(#clip0_3416_11860)">
<path d="M52.31 157.53C49.71 153.69 47.2 149.78 44.71 145.86C42.09 141.73 39.5 137.57 36.97 133.38C35.53 131 34.11 128.62 32.7 126.22C31.94 124.93 31.19 123.63 30.44 122.33C30.07 121.69 29.71 121.05 29.34 120.41C28.97 119.77 29.67 120.99 29.18 120.13C28.96 119.74 28.74 119.35 28.52 118.96C22.67 108.58 17.07 98.0002 12.49 86.9902C11.47 84.5402 10.51 82.0702 9.63995 79.5702C9.56995 79.3702 9.23995 78.4302 9.50995 79.2102C9.79995 80.0502 9.40995 78.9002 9.35995 78.7402C9.17995 78.1802 8.99995 77.6102 8.81995 77.0402C8.47995 75.9202 8.15995 74.8002 7.87995 73.6702C7.61995 72.6502 7.39995 71.6302 7.18995 70.6002C7.52995 72.2202 7.25995 71.0202 7.14995 70.2902C6.99995 69.3002 6.87995 68.3102 6.74995 67.3202C6.14995 62.6902 5.66995 58.0502 5.32995 53.3902C5.28995 52.8902 5.25995 52.3802 5.22995 51.8802C5.19995 51.5002 5.34995 50.9502 5.23995 52.1002C5.25995 51.9002 5.21995 51.6702 5.19995 51.4702C5.13995 50.3602 5.08995 49.2602 5.04995 48.1502C4.97995 46.1202 4.93995 44.0802 4.94995 42.0502C4.94995 40.2302 4.99995 38.4002 5.08995 36.5802C5.09995 36.3502 5.11995 36.1202 5.12995 35.8902C5.12995 35.9802 5.03995 37.3202 5.09995 36.3602C5.12995 35.9702 5.14995 35.5802 5.18995 35.1902C5.24995 34.3802 5.32995 33.5702 5.41995 32.7702C5.50995 31.9702 5.59995 31.2402 5.70995 30.4802C5.75995 30.1402 5.80995 29.8002 5.86995 29.4502C5.90995 29.2202 6.15995 27.7502 5.98995 28.7102C5.81995 29.6702 6.03995 28.5102 6.07995 28.2902C6.14995 27.9402 6.22995 27.5902 6.31995 27.2402C6.47995 26.5802 6.64995 25.9202 6.83995 25.2702C6.91995 25.0002 7.00995 24.7302 7.08995 24.4602C7.21995 23.9902 6.85995 25.1002 6.88995 25.0402C6.95995 24.9102 6.98995 24.7402 7.04995 24.6002C7.25995 24.0502 7.46995 23.5002 7.71995 22.9702C7.78995 22.8202 8.41995 21.7902 8.36995 21.6902C8.46995 21.8802 7.86995 22.5002 8.15995 22.0602C8.22995 21.9602 8.28995 21.8402 8.35995 21.7402C8.48995 21.5302 8.62995 21.3302 8.77995 21.1302C9.03995 20.7702 9.31995 20.4402 9.60995 20.1102C9.97995 19.6902 9.90995 19.9202 9.54995 20.1502C9.84995 19.9602 10.12 19.6602 10.39 19.4402C11.7 18.3802 13.07 17.4102 14.49 16.5202C17.47 14.6402 20.74 12.9602 24.16 12.0402C27.1 11.2502 30.91 10.7702 33.58 11.8202C35.03 12.3902 36.2 13.2402 37.34 14.2902C37.77 14.6902 38.19 15.0902 38.62 15.4902C38.71 15.5802 39.05 15.9102 38.61 15.4802C38.74 15.6102 38.87 15.7302 39.01 15.8602C39.28 16.1202 39.55 16.3902 39.82 16.6502C44.88 21.6402 49.61 27.0302 53.52 32.9802C54.02 33.7302 54.5 34.4902 54.96 35.2602C55.09 35.4802 55.22 35.7002 55.36 35.9202C55.41 36.0002 55.74 36.5602 55.44 36.0502C55.7 36.5002 55.94 36.9502 56.19 37.4102C57.13 39.1702 57.98 40.9902 58.71 42.8402C58.87 43.2602 59.03 43.6802 59.19 44.1002C59.26 44.2802 59.47 44.9402 59.19 44.0502C59.25 44.2302 59.31 44.4102 59.37 44.6002C59.68 45.5702 59.95 46.5502 60.18 47.5402C60.49 48.8802 60.75 50.2302 61.03 51.5802C62.32 57.7502 63.63 63.9202 64.86 70.1102C65.2 71.8302 65.54 73.5502 65.87 75.2702C66.03 76.0802 66.18 76.8902 66.34 77.7102C66.43 78.1802 66.52 78.6402 66.6 79.1102C66.64 79.3402 66.69 79.5802 66.73 79.8102C66.67 79.5202 66.55 78.8402 66.67 79.5202C67.31 83.0302 67.93 86.5402 68.49 90.0502C69.01 93.3202 69.49 96.6002 69.89 99.8802C70.07 101.38 70.23 102.89 70.37 104.39C70.43 105.02 70.48 105.66 70.52 106.29C70.54 106.59 70.56 106.9 70.58 107.2C70.43 105.19 70.54 106.59 70.56 107.09C70.66 109.43 70.58 111.75 70.47 114.09C70.4 115.44 70.33 116.78 70.25 118.13C70.36 116.04 70.22 118.54 70.19 119.1C70.14 119.9 70.09 120.71 70.04 121.51C69.33 132.46 68.45 143.39 67.53 154.33C67.47 155.03 67.41 155.73 67.35 156.44C67.23 157.88 67.22 159.37 67.6 160.77C67.81 161.57 68.27 162.9 69.08 163.36C71.09 164.5 72.03 160.58 72.12 159.43C72.88 150.58 73.59 141.72 74.23 132.86C74.71 126.28 75.16 119.69 75.47 113.1C75.74 107.32 75.25 101.55 74.53 95.8102C72.72 81.4202 69.74 67.1802 66.78 52.9902C65.39 46.3302 64.29 39.5702 61.55 33.2902C58.31 25.8802 53.54 19.1702 48.2 13.1302C46 10.6402 43.69 8.25018 41.31 5.95018C38.93 3.65018 36.81 1.46018 33.54 0.520185C30.27 -0.419815 26.63 0.0401847 23.33 1.03018C19.58 2.15018 16.04 3.82018 12.75 5.95018C10.43 7.45018 7.93995 9.15018 6.29995 11.4102C4.65995 13.6702 3.60995 16.3402 2.76995 19.0102C0.599954 25.7702 0.149954 33.1402 0.0199537 40.1802C-0.150046 49.3702 0.569954 58.6002 1.64995 67.7202C2.34995 73.5502 3.34995 79.1902 5.18995 84.7702C8.96995 96.2002 14.27 107.08 19.93 117.69C25.59 128.3 31.77 138.84 38.15 149.13C41.76 154.95 45.44 160.74 49.25 166.44C49.43 166.71 49.61 166.99 49.8 167.26C51.22 169.36 52.86 166.61 53.19 165.24C53.78 162.8 53.76 159.7 52.3 157.54L52.31 157.53Z" fill="black"/>
<path d="M55.1299 136.81C55.1299 136.81 26.3699 84.5502 23.5899 63.9802C20.8099 43.4102 24.6999 35.0702 30.8198 36.1802C36.9398 37.2902 45.8299 45.6302 48.0499 60.0802C50.2699 74.5302 55.1299 136.8 55.1299 136.8V136.81Z" fill="black"/>
<path d="M95.6699 155.71V81.7404C95.6699 81.4704 95.6699 81.2004 95.6699 80.9404C95.6499 79.9804 95.5899 82.1404 95.5799 82.1604C95.8199 81.3004 95.7999 80.2804 95.9199 79.3904C96.2099 77.1304 96.5099 74.8804 96.8399 72.6204C97.2699 69.7104 97.7299 66.8004 98.2399 63.9104C98.2999 63.5904 98.3599 63.2604 98.4199 62.9404C98.5399 62.2904 98.1999 64.1004 98.3199 63.4604C98.3599 63.2804 98.3899 63.0904 98.4199 62.9104C98.5699 62.1404 98.7199 61.3704 98.8799 60.6104C99.1599 59.2404 99.4699 57.8804 99.7999 56.5204C100.1 55.3304 100.42 54.1404 100.79 52.9604C100.92 52.5604 101.35 51.7004 100.72 53.1304C100.82 52.9004 100.89 52.6504 100.98 52.4204C101.14 52.0004 101.31 51.5804 101.51 51.1704C101.58 51.0204 101.76 50.8004 101.78 50.6404C101.78 50.6404 101.19 51.5404 101.48 51.1704C101.57 51.0504 101.68 50.8604 101.74 50.7604C102.23 50.0004 102.74 49.2704 103.29 48.5504C103.8 47.8904 104.33 47.2504 104.9 46.6504C105.04 46.5004 105.18 46.3604 105.32 46.2204C105.22 46.3204 104.91 46.5804 105.38 46.1804C105.71 45.8904 106.04 45.6104 106.39 45.3404C110.96 41.8304 116.76 41.2804 122.35 41.8204C128.87 42.4504 135.38 43.9304 141.64 45.8304C147.9 47.7304 154.59 50.2604 160.14 54.0904C163.58 56.4604 166.83 59.1604 170.06 61.8004C173.29 64.4404 176.59 67.2704 179.52 70.2304C182.16 72.8904 184.5 75.7104 186.53 78.8604C186.02 78.0704 186.62 79.0304 186.74 79.2704C186.91 79.6004 187.07 79.9404 187.21 80.2804C187.4 80.7204 187.52 81.6504 187.29 80.3804C187.35 80.7104 187.47 81.1604 187.59 81.4704C187.77 81.9204 187.47 80.7504 187.47 80.8004C187.5 81.0104 187.55 81.2204 187.58 81.4304C187.65 81.8604 187.72 82.2904 187.78 82.7204C187.92 83.6604 188.03 84.6004 188.12 85.5404C188.14 85.7404 188.25 87.3504 188.19 86.3104C188.14 85.3504 188.2 86.6504 188.21 86.9104C188.24 87.8604 188.21 88.8004 188.21 89.7504C188.21 90.4904 188.31 88.5104 188.24 89.2304C188.22 89.4404 188.21 89.6604 188.19 89.8704C188.16 90.2404 188.12 90.6104 188.07 90.9704C188.04 91.1804 188.01 91.3804 187.98 91.5904C187.86 92.4604 188.03 91.2304 188.07 91.1504C187.88 91.5804 187.85 92.1304 187.72 92.5904C187.68 92.7304 187.63 92.8604 187.6 93.0004C187.47 93.5904 187.96 92.1204 187.71 92.6604C187.56 92.9804 187.43 93.3304 187.28 93.6604C186.89 94.5404 187.59 93.2604 187.22 93.8004C186.98 94.1404 186.75 94.4804 186.48 94.8004C186.38 94.9204 186.26 95.0404 186.15 95.1604C186.17 95.1404 186.58 94.7904 186.3 95.0004C186.04 95.2004 185.8 95.3903 185.53 95.5603C185.26 95.7303 184.96 95.8604 184.67 96.0004C184.56 96.0504 184.44 96.1004 184.32 96.1404C184.76 95.9904 184.16 96.1704 184.08 96.1904C178.39 97.3404 172.24 96.8904 166.53 96.1604C160.12 95.3404 153.41 94.0804 148.05 90.2904C143.19 86.8504 138.71 82.8404 134.25 78.9004C130.07 75.2104 125.95 71.4604 121.87 67.6604C121.2 67.0404 120.53 66.4104 119.86 65.7804C119.24 65.2004 118.31 65.9004 117.95 66.3504C117.26 67.2004 116.92 68.6704 116.81 69.7104C116.57 72.0804 116.71 74.9104 118.54 76.6304C125.98 83.6404 133.55 90.5604 141.45 97.0404C143.54 98.7504 145.65 100.55 147.97 101.96C150.87 103.71 154.15 104.79 157.41 105.66C164.14 107.46 171.28 108.23 178.24 108.03C180.84 107.95 183.8 107.87 186.2 106.75C189.47 105.22 191.12 101.39 192.03 98.1204C193.29 93.5604 193.32 88.7304 193.02 84.0504C192.76 80.1004 192.28 75.9604 190.71 72.3004C187.48 64.7604 180.67 58.8304 174.59 53.6104C168.51 48.3904 162.41 43.1204 155.26 39.6804C148.54 36.4404 141.29 34.2104 134.03 32.5404C128.55 31.2804 122.61 29.9804 116.95 30.3804C113.53 30.6204 109.89 31.5504 106.9 33.2604C103.91 34.9704 101.37 37.8004 99.4399 40.7404C96.4199 45.3204 95.3599 51.0904 94.3199 56.4004C93.1399 62.3804 92.1999 68.4004 91.3999 74.4404C91.1099 76.6504 90.7299 78.8904 90.7199 81.1304C90.6899 87.6904 90.7199 94.2604 90.7199 100.82V132.92C90.7199 140.16 90.7199 147.39 90.7199 154.63V155.71C90.7199 157.16 91.0299 161.33 93.1999 161.33C95.3699 161.33 95.6799 157.02 95.6799 155.71H95.6699Z" fill="black"/>
<path d="M118.17 72.3301C118.17 72.3301 111.75 77.8901 110.64 96.7901C109.53 115.69 110.64 131.81 110.64 131.81C110.64 131.81 125.09 103.46 126.76 95.6801C128.43 87.9001 131.76 81.4601 131.76 81.4601L118.17 72.3401V72.3301Z" fill="black"/>
<path d="M139.57 94.3504C139.56 94.4304 139.54 94.5104 139.53 94.5904C139.9 92.5204 139.76 93.3904 139.62 94.1004C139.44 95.0204 139.23 95.9404 139.02 96.8604C138.28 100.08 137.41 103.28 136.45 106.45C136.14 107.48 135.81 108.5 135.48 109.52C135.33 109.97 135.16 110.41 135.03 110.86C135.41 109.56 135.14 110.55 135.04 110.82C134.91 111.19 134.78 111.57 134.65 111.94C133.8 114.32 132.9 116.68 131.94 119.01C130.89 121.55 129.77 124.06 128.57 126.53C127.94 127.83 127.29 129.11 126.62 130.39C126.28 131.04 125.93 131.68 125.58 132.33C125.4 132.65 125.22 132.98 125.04 133.3C124.6 134.09 125.22 133 124.8 133.71C121.22 139.82 117.16 145.62 112.4 150.88C111.69 151.67 111.39 153.26 111.26 154.24C111.09 155.6 111.12 157.25 111.51 158.57C111.98 160.19 113.21 162.45 114.9 160.59C123.3 151.3 129.72 140.28 134.65 128.81C138.18 120.59 141.05 112.02 143.11 103.31C143.58 101.34 144 99.3504 144.34 97.3504C144.57 96.0204 144.44 94.3204 144.09 93.0204C143.88 92.2204 143.42 90.8904 142.61 90.4304C140.54 89.2604 139.76 93.2504 139.57 94.3604V94.3504Z" fill="black"/>
</g>
<defs>
<clipPath id="clip0_3416_11860">
<rect width="193.18" height="168.01" fill="white"/>
</clipPath>
</defs>
</svg>
