<svg width="239" height="189" viewBox="0 0 239 189" fill="none" xmlns="http://www.w3.org/2000/svg">
<g clip-path="url(#clip0_3416_9789)">
<path d="M69.54 148.81C65.51 145.08 61.18 141.65 58.15 136.92C57.39 135.76 56.29 134.7 55.13 133.85C50.65 130.52 47.12 126.34 43.39 122.26C41.12 119.79 38.65 117.52 36.03 115.46C33.36 113.34 29.88 113.39 28.07 115.06C26.26 116.72 26.66 120 29.18 122.77C33.72 127.71 38.2 132.7 43.64 136.68C46.51 138.8 49.08 141.37 51.7 143.78C55.78 147.46 59.61 151.44 63.89 154.87C69.13 159 74.42 163.03 79.16 167.82C80.12 168.78 81.33 169.79 83.34 168.83C83.24 168.12 83.34 167.12 82.99 166.46C79.26 160.01 75.03 153.96 69.54 148.82V148.81Z" fill="#1D1D1B"/>
<path d="M27.17 168.41C23.34 165.74 14.27 159.39 6.25999 162.41C5.49999 162.71 1.41999 164.27 0.309995 167.85C-0.900005 171.63 1.61999 176.37 4.84999 178.78C11.2 183.57 17.4 177.37 28.89 180.59C37.76 183.11 41.64 188.95 42.7 188C43.96 186.84 37.86 175.81 27.18 168.35V168.4L27.17 168.41Z" fill="#1D1D1B"/>
<path d="M4.74 97.61C7.11 99.93 9.63 102.15 12.1 104.36C14.22 106.27 16.28 108.29 18.55 110C20.46 111.46 23.54 111.11 25.15 109.5C26.76 107.89 26.51 106.07 25.55 103.3C22.78 98.82 19.6 93.47 16.18 88.28C14.67 86.01 11.75 85.46 9.08 86.67C7.37 87.48 5.75 88.53 4.19 89.59C2.53 90.75 1.92 92.87 2.78 94.63C3.28 95.69 3.94 96.75 4.8 97.55L4.75 97.6L4.74 97.61Z" fill="#1D1D1B"/>
<path d="M172.39 119.13C172.24 116.81 172.24 114.49 172.04 112.18C170.78 99.23 169.52 86.23 168.26 73.28C167.25 63.1 166.24 52.92 165.24 42.74C165.44 42.74 165.64 42.74 165.84 42.69C165.34 36.19 164.93 29.69 164.33 23.19C164.03 19.97 163.52 16.69 162.67 13.57C161.81 10.35 159.9 7.66998 156.88 6.00998C154.81 4.89998 152.29 5.24998 151.19 6.91998C148.17 11.51 146.4 16.14 148.27 21.99C150.89 30.15 152.91 38.52 153.86 47.13C154.31 51.06 155.22 54.94 155.93 58.82C156.79 63.61 157.95 68.39 158.55 73.23C159.66 82.45 160.31 91.77 161.32 100.99C162.73 113.94 164.24 126.89 165.75 139.84C165.95 141.4 166.51 143.01 167.21 144.43C167.56 145.09 168.77 145.74 169.48 145.64C170.49 145.44 171.39 144.63 172.25 143.93C172.55 143.68 172.6 143.07 172.65 142.62C173.61 136.88 175.02 131.23 173.05 125.39C172.39 123.48 172.65 121.26 172.5 119.14H172.4L172.39 119.13Z" fill="#1D1D1B"/>
<path d="M234.47 21.88C231.85 18.71 228.12 18.91 226.36 22.48C225.2 24.85 224.14 27.42 223.59 29.99C221.22 40.92 220.57 52.06 220.21 63.2V79.27C220.21 81.79 221.92 83.4 224.39 83.6C227.51 83.85 229.88 82.44 230.03 79.32C230.48 71.91 234.16 65.26 234.72 57.8C235.32 50.04 238.1 42.63 238.55 34.77C238.85 29.63 237.59 25.6 234.52 21.82L234.47 21.87V21.88Z" fill="#1D1D1B"/>
<path d="M221.17 97.0099C219 97.4599 218.65 99.4298 218.4 101.14C217.64 106.63 217.19 107.44 216.79 112.98C216.34 119.63 216.19 126.28 215.28 132.93C214.42 139.08 214.27 145.33 213.87 151.52C213.82 152.38 213.87 153.33 214.17 154.14C214.77 155.75 216.14 156.51 217.8 156.61C219.46 156.71 221.13 155.85 221.63 154.49C221.93 153.68 222.08 152.78 222.18 151.92C223.39 143.3 224.55 134.74 225.86 126.12C226.87 119.32 227.67 117.25 228.73 110.4C228.88 109.29 229.03 108.18 229.13 107.73C229.33 104.1 226.96 102.34 225.7 100.02C224.74 98.2098 223.58 96.4399 221.11 96.9999H221.16L221.17 97.0099Z" fill="#1D1D1B"/>
<path d="M120.64 122.2C117.26 114.14 113.94 106.08 110.26 98.11C103.86 84.35 97.86 70.45 93.73 55.83C93.53 55.07 92.57 54.17 91.82 54.02C91.07 53.87 90.01 54.42 89.3 54.98C88.75 55.43 88.44 56.24 88.14 56.95C86.68 60.33 85.32 63.75 83.91 67.13C83.25 68.74 82.3 70.05 80.84 71.36C80.13 70.45 79.58 69.9 79.23 69.24C72.48 56.54 65.78 43.89 59.02 31.2C54.64 22.99 50.35 14.72 45.87 6.50998C44.86 4.69998 43.45 2.97998 41.99 1.51998C40.38 -0.0400196 38.21 -0.34002 35.99 0.35998C33.22 1.26998 30.5 2.21998 27.73 3.12998C26.52 3.52998 25.66 4.38998 25.66 5.64998C25.66 6.90998 25.66 8.41998 26.26 9.57998C27.97 13.06 29.89 16.48 31.85 19.81C36.08 27.02 40.47 34.12 44.75 41.28C46.26 43.8 47.42 46.47 49.03 48.89C51.85 53.12 54.27 57.51 55.88 62.34C56.48 64.15 57.54 65.82 58.55 67.48C60.46 70.65 62.58 73.63 64.4 76.85C68.94 85.01 73.57 93.13 79.32 100.48C80.38 101.84 81.59 102.7 83.25 102.5C85.01 102.3 85.77 100.84 86.32 99.33C87.23 96.96 88.08 94.59 89.04 92.28C89.39 91.47 89.85 90.47 91.51 90.82C92.27 92.08 93.17 93.54 93.93 95.1C95.39 98.02 96.4 101.3 98.31 103.92C102.54 109.77 105.67 116.22 109.4 122.31C112.98 128.1 115.95 134.25 120.33 139.49C121.69 141.1 122.9 142.92 123.96 144.73C125.98 148.06 127.84 151.43 129.81 154.81C131.27 157.33 132.83 159.8 134.24 162.37C136.21 165.95 138.07 169.58 139.98 173.2C140.53 174.26 141.19 175.27 142.65 174.71C140.53 169.47 138.32 164.33 136.15 159.14C131.01 146.74 125.87 134.35 120.68 122L120.63 122.2H120.64Z" fill="#1D1D1B"/>
</g>
<defs>
<clipPath id="clip0_3416_9789">
<rect width="238.59" height="188.12" fill="white"/>
</clipPath>
</defs>
</svg>
