<svg width="234" height="215" viewBox="0 0 234 215" fill="none" xmlns="http://www.w3.org/2000/svg">
<g clip-path="url(#clip0_3416_11683)">
<g style="mix-blend-mode:darken">
<mask id="mask0_3416_11683" style="mask-type:luminance" maskUnits="userSpaceOnUse" x="0" y="0" width="234" height="215">
<path d="M233.67 0H0V214.82H233.67V0Z" fill="white"/>
</mask>
<g mask="url(#mask0_3416_11683)">
<mask id="mask1_3416_11683" style="mask-type:luminance" maskUnits="userSpaceOnUse" x="0" y="0" width="234" height="215">
<path d="M233.67 0H0V214.82H233.67V0Z" fill="white"/>
</mask>
<g mask="url(#mask1_3416_11683)">
<path d="M200.76 23.2898C204.53 23.2898 207.39 23.1998 210.25 23.3298C211.48 23.3798 212.74 23.7398 213.91 24.1798C216.38 25.0998 217.32 26.4798 217.25 29.1098C217.22 30.3498 217.01 31.6198 216.65 32.7998C215.63 36.1798 215.87 39.4598 216.69 42.8698C218.25 49.3498 218.75 55.9398 218.02 62.6198C217.59 66.5298 215.74 69.2998 212.47 71.3298C209.41 73.2298 206.5 75.2598 202.51 74.5198C200.99 74.2398 199.3 74.7498 197.72 75.0398C195.21 75.4998 193.57 76.7598 193.13 79.5498C192.72 82.1698 190.91 84.4798 191.24 87.3198C191.4 88.7398 191.58 90.1498 191.73 91.5698C191.98 93.8798 192.46 96.1998 192.42 98.5198C192.32 103.47 187.98 107.04 183.25 105.59C177.95 103.96 174.01 105.44 170.09 108.96C166.09 112.54 161.63 115.61 157.4 118.93C156.42 119.7 155.54 120.58 154.64 121.37C154.64 125.46 154.62 129.39 154.65 133.32C154.67 135.29 154.88 137.26 154.84 139.23C154.78 142.13 153.1 143.56 150.36 143.13C149.83 143.05 149.27 142.95 148.8 142.72C145.62 141.1 142.93 142.79 140.97 144.67C136.97 148.5 132.73 152.16 129.74 156.95C128.59 158.81 127.49 160.55 127.42 162.84C127.39 164.06 127.08 165.4 126.48 166.44C124.23 170.36 122.89 174.64 121.36 178.85C120.39 181.53 118.94 183.64 116.44 184.97C114.98 185.75 114 186.95 112.94 188.19C108.36 193.53 102.78 197.76 97.05 201.76C95.77 202.66 94.11 203.14 92.55 203.49C90.29 204 88 204.26 85.83 205.29C85.01 205.68 83.75 205.42 82.78 205.13C81.43 204.73 80.19 203.62 78.86 203.54C74.63 203.27 70.91 201.55 67.09 200C65.94 199.53 64.71 199.2 63.5 198.94C58.42 197.83 53.3 196.87 48.26 195.64C46.19 195.13 44.18 194.22 42.29 193.23C39.1 191.55 35.9 189.9 32.38 189.11C27.59 188.05 23.51 185.33 18.97 183.7C17.63 183.22 16.4 182.39 15.03 182.07C11.2 181.19 8.57002 178.77 6.98002 175.45C3.48002 168.16 0.800019 160.59 0.140019 152.43C-0.109981 149.36 0.0700194 146.35 0.700019 143.32C1.05002 141.59 1.47002 139.65 1.02002 138.04C0.340019 135.57 0.720019 133.63 1.88002 131.42C3.45002 128.42 4.52002 125.2 4.98002 121.73C5.33002 119.12 6.59002 116.64 7.38002 114.08C9.60002 106.88 11.7 99.6498 14.71 92.7198C14.99 92.0598 15.15 91.3398 15.49 90.7098C17.47 87.0498 19.51 83.4698 23.95 82.2198C25.13 81.8798 26.17 81.0498 27.34 80.6098C33.86 78.1398 39.13 73.8398 44.05 69.0998C46.62 66.6198 49.64 64.5298 51.41 61.2998C55.06 58.9898 57.38 55.2098 61.02 52.7898C63.5 51.1398 65.69 48.8098 67.43 46.3698C69.26 43.8098 71.55 41.9198 73.9 39.9798C76.25 38.0498 78.48 35.9798 80.75 33.9598C81.41 33.3698 81.93 32.5798 82.65 32.1098C88.05 28.6398 91.82 23.6598 95.55 18.5798C97 16.5998 99.19 15.1798 100.81 13.3098C102.74 11.0798 106.46 10.9098 107.32 7.52983C109.8 5.75983 112.17 3.83983 114.78 2.27983C116.27 1.38983 118.08 0.929834 119.81 0.619834C121.91 0.229834 124.07 0.179834 126.2 0.0298344C127.27 -0.0401656 128.37 -0.130166 129.41 0.0498344C135.24 1.05983 141.09 2.02983 146.58 4.38983C146.91 4.52983 147.25 4.66983 147.56 4.82983C153.55 7.93983 160.04 9.23983 166.65 9.96983C169.23 10.2498 171.55 11.1998 173.66 12.5598C176.32 14.2698 179.21 15.1198 182.28 15.3298C188.56 15.7598 194.07 18.0198 198.99 21.8798C199.69 22.4298 200.42 22.9598 200.77 23.2298L200.76 23.2898ZM77.04 166.32C77.37 166.34 77.71 166.35 78.03 166.37C78.75 168.17 79.51 169.95 80.18 171.77C82.69 178.49 85.02 185.26 85.51 192.51C85.59 193.75 85.84 195.01 86.24 196.18C87.06 198.61 88.56 199.35 90.8 198.29C92.4 197.54 93.99 196.61 95.3 195.44C100.64 190.67 105.9 185.81 112.31 182.44C112.94 182.11 113.47 181.6 114.02 181.2C114.14 180.6 114.34 180.08 114.36 179.55C114.51 175.05 115.03 170.63 116.85 166.43C117.27 165.46 117.56 164.38 117.7 163.33C118.6 156.5 122.07 150.86 125.99 145.46C127.02 144.05 128.37 142.65 129.88 141.85C134.33 139.5 138.84 137.22 144.14 137.56C144.96 137.61 145.81 137.34 146.64 137.23C146.91 135.08 145.92 133.96 144.45 133.05C142.59 131.91 142.45 130.3 143.16 128.37C144.45 124.83 145.61 121.24 146.87 117.7C149 111.75 152.4 106.85 158.3 104.03C159.1 103.65 159.94 103.2 160.54 102.57C162.61 100.36 165.33 99.4698 168.1 98.6798C172.89 97.3098 177.69 95.9698 182.63 94.5798C182.54 93.7198 182.65 92.7498 182.31 91.9798C180.92 88.8398 181.17 85.6698 181.92 82.4698C182.32 80.7298 183.1 79.0598 183.38 77.2998C184.3 71.4698 187.25 67.3598 192.95 65.3998C193.29 65.2798 193.6 65.0898 193.91 64.9198C195.05 64.3098 196.04 63.5198 196.29 62.1698C196.76 59.7098 198.42 58.0998 200.07 56.4198C200.92 55.5598 201.79 54.5198 202.17 53.3998C203.26 50.2098 203.44 46.8498 203.98 42.9398C200.65 45.0398 197.74 46.3398 194.58 45.5698C191.28 48.2498 187.517 49.7998 183.29 50.2198C182.93 50.2498 182.57 50.2898 182.22 50.3198C179.7 50.5498 177.79 51.8098 176.54 53.9398C175.55 55.6398 174.61 57.3998 173.87 59.2298C173.03 61.2898 171.8 62.9298 170.08 64.3498C168.15 65.9498 166.21 67.6198 164.63 69.5498C161.45 73.4198 157.47 75.2698 152.51 75.1098C150.44 77.2198 150.04 80.7398 146.68 82.0898C144.58 79.7598 141.94 79.5498 139.4 80.9498C132.71 84.6498 126.77 89.1998 123.46 96.4198C122.34 98.8598 121.39 101.39 120.15 103.77C118.75 106.46 117.18 109.08 115.52 111.61C114.97 112.45 113.96 113.32 113.02 113.5C109.88 114.1 106.69 114.67 103.51 114.72C100.31 114.78 97.09 114.31 93.9 113.84C92.07 113.57 90.46 113.46 88.73 114.44C86.39 115.75 84.1 115.45 81.6 114.15C76.37 111.43 70.61 109.82 65.47 106.84C65.01 106.58 64.48 106.43 63.96 106.29C58.07 104.7 52.96 101.11 47 99.6898C45.81 99.4098 44.76 98.5698 43.64 98.0198C41.23 96.8398 38.83 95.6598 36.39 94.5398C35.26 94.0198 33.96 93.8098 32.89 93.1798C30.05 91.5298 26.85 91.2598 23.73 90.2398C22.72 92.4498 21.64 94.2798 21.66 96.5498C23.81 98.0698 25.57 99.7798 28.3 100.12C29.62 100.28 30.82 101.42 32.08 102.09C33.66 102.93 35.26 103.74 36.84 104.57C38.26 105.33 39.72 106.02 41.07 106.87C43.5 108.4 45.96 109.92 48.22 111.67C50.44 113.39 52.91 114.14 55.59 114.68C61.95 115.97 67.95 118.39 73.77 121.17C77.21 122.81 80.35 125.04 80.09 129.66C80.05 130.34 80.56 131.03 80.63 131.73C81.04 135.46 81.82 139.38 80.18 142.85C78.95 145.46 78.88 147.99 78.78 150.67C78.65 153.71 78.58 156.77 78.16 159.78C77.73 162.9 75.47 164.41 72.39 163.88C70.99 163.64 69.62 163.15 68.28 162.66C63.74 161 59.32 158.88 54.67 157.7C49.44 156.38 44.32 154.77 39.23 153.04C38.06 152.64 36.78 152.51 35.54 152.38C31.4 151.95 27.42 150.89 23.62 149.21C19.53 147.41 15.19 146.12 11.6 143.28C10.34 142.28 8.81002 141.88 6.80002 142.52C7.43002 146.97 7.62002 151.28 9.05002 155.34C10.83 160.4 12.9 165.36 15.01 170.81C18.42 172.75 22.43 174.77 26.15 177.23C28.6 178.85 30.96 180.23 33.95 180.47C35.36 180.58 36.75 181.08 38.12 181.51C43.92 183.35 49.65 185.5 55.54 186.97C58.6 187.73 61.56 189.39 64.95 188.77C67.95 188.22 70.59 189.32 72.96 191.08C74.1 191.94 75.1 193 76.26 193.82C77.28 194.55 78.44 195.05 80 193.82C79.37 190.86 78.69 187.77 78.08 184.65C77.5 181.67 76.59 178.66 76.6 175.66C76.62 173.16 76.99 170.7 76.44 168.2C76.31 167.64 76.82 166.93 77.04 166.3V166.32ZM201.93 67.2498C205.06 67.1598 206.84 65.8698 209.05 63.0198C205.78 64.0098 203.41 64.2898 201.93 67.2498ZM128.34 61.6198C127.48 62.8498 126.86 63.4398 126.59 64.1698C126.25 65.1398 126.96 66.0698 127.93 65.9398C128.53 65.8498 129.58 65.2498 129.54 64.9698C129.43 64.0398 128.93 63.1598 128.34 61.6198ZM211.42 152.25C209.25 150.57 207.28 149.31 205.63 147.71C203.17 145.33 201.18 142.65 200.7 139.02C199.86 132.68 200.42 126.5 202.21 120.4C202.41 119.71 202.65 119.04 202.85 118.35C204.47 112.47 210.17 109.58 215.28 112.63C218.88 114.78 222.68 116.04 226.53 117.47C232.64 119.73 234.57 123.79 233.31 129.77C232.75 132.47 232.59 134.95 233.34 137.68C234.65 142.45 231.69 147.62 226.88 149.2C224.16 150.09 221.31 150.6 218.49 151.16C216.04 151.64 213.56 151.93 211.41 152.26L211.42 152.25ZM209.7 136.18C212.74 135.26 215.23 136.11 217.66 137.35C218.46 137.75 219.29 138.15 220.14 138.34C221.54 138.66 222.98 138.8 224.39 137.3C223.34 133.59 222.25 129.69 221.14 125.76C217.9 124.57 214.96 122.86 211.2 122.64C210.68 127.06 208.98 131.06 209.69 136.19L209.7 136.18ZM215 148.73C216.6 147.58 217.84 146.69 219.48 145.51C217.35 144.89 215.71 144.07 213.43 144.04C214.02 145.81 214.46 147.13 215 148.73ZM167.49 166.88C163.06 167.4 159.37 167.24 155.76 165.74C149.26 163.04 147.98 157.96 152.58 152.59C153.39 151.65 154.31 150.76 155.3 150C158.28 147.71 161.36 145.55 164.31 143.22C168.58 139.87 173.39 140.3 178.15 141.34C181.19 142 182.83 144.95 182.13 148C181.5 150.76 180.48 153.43 179.64 156.15C178.95 158.37 178.22 160.58 177.59 162.82C176.7 165.96 176.13 166.46 172.75 166.7C171.68 166.78 170.61 166.83 169.53 166.86C168.64 166.89 167.74 166.86 167.48 166.86L167.49 166.88ZM176.69 148.74C174.99 149.37 173.72 149.55 172.86 150.24C171.43 151.4 170.13 152.81 169.7 154.9C171.9 154.49 173.72 154.16 175.87 153.76C176.1 152.35 176.34 150.87 176.69 148.75V148.74ZM130.47 195.21C131.67 194.97 132.87 194.53 134.08 194.52C136.3 194.49 138.38 196.03 139.09 197.96C139.78 199.85 139.07 202.18 137.03 203.52C133.91 205.56 132.2 208.71 130.25 211.67C127.94 215.18 126.03 215.68 122.29 213.57C120.9 212.78 119.38 212.23 117.96 211.49C116.24 210.6 115.36 209.28 115.38 207.19C115.43 203.8 116.36 200.86 118.78 198.43C120.04 197.16 121.21 195.79 122.55 194.61C125.14 192.32 126.47 192.36 129.62 194.61C129.9 194.81 130.19 195.01 130.47 195.22V195.21ZM126.63 202.44C127.55 201.51 128.18 201 128.63 200.37C129 199.85 129.58 199.23 128.9 198.51C127.74 199.383 126.983 200.696 126.63 202.45V202.44ZM230.12 82.8898C228.56 83.1198 226.97 83.2798 225.45 83.6998C224.88 83.8598 224.38 84.6198 224.05 85.2098C222.76 87.5198 223.45 90.8698 225.58 92.3898C227.23 93.5598 229.21 94.1298 231.12 93.3498C232.98 92.5898 233.36 90.8198 233.29 88.8898C233.24 87.4898 233.48 86.0898 233.6 84.4098C232.54 83.1298 231.45 82.6898 230.12 82.8898ZM107.99 130.21C106.68 130.56 105.33 130.81 104.06 131.27C102.55 131.82 101.11 132.53 99.64 133.17C98.35 133.73 97.1 134.6 95.75 134.78C92.58 135.22 90.25 137.3 87.58 138.68C86.69 139.14 85.95 140.11 85.44 141.02C82.9 145.6 81.64 150.65 80.38 155.68C80.04 157.03 80.75 158.13 82.8 157.86C83.81 156.19 85.31 154.49 85.95 152.52C87.73 147.06 91.16 142.7 95.28 139.05C98.66 136.05 101.9 132.42 106.89 131.81C107.38 131.75 107.82 131.16 108.28 130.82C108.18 130.62 108.08 130.42 107.98 130.21H107.99ZM122.87 134.48C124.56 134.99 125.99 134.35 127.41 132.44C127.62 132.15 127.91 131.88 128.01 131.56C128.69 129.35 129.46 127.16 129.95 124.91C130.33 123.2 129.12 121.81 127.36 121.45C125.65 121.1 124.18 121.54 122.93 122.74C120.87 124.7 120.2 127.27 119.8 129.45C119.81 132.17 120.99 133.92 122.87 134.48ZM144.71 95.7998C143.03 94.2698 140.76 94.1098 138.79 95.1698C136.34 96.4798 135.19 98.5498 135.03 101.24C134.97 102.32 136.43 103.51 137.19 102.95C139.36 101.37 141.73 100.3 144.26 99.4498C144.89 99.2398 145.19 98.0698 145.59 97.3998C145.23 96.7098 145.08 96.1298 144.71 95.7998ZM167.64 89.9498C165.7 89.2198 164.14 89.6798 163.02 91.3198C161.63 93.3498 161.25 95.3298 162.25 96.1698C163.9 97.5598 165.61 96.6298 167.22 95.9698C167.85 95.7098 168.45 95.2298 168.88 94.6998C169.3 94.1798 169.49 93.4798 169.62 93.1998C169.62 91.5298 168.83 90.3998 167.63 89.9498H167.64Z" fill="black"/>
</g>
</g>
</g>
</g>
<defs>
<clipPath id="clip0_3416_11683">
<rect width="233.68" height="214.82" fill="white"/>
</clipPath>
</defs>
</svg>
