<svg width="242" height="246" viewBox="0 0 242 246" fill="none" xmlns="http://www.w3.org/2000/svg">
<g clip-path="url(#clip0_3416_10066)">
<path d="M5.07017 125.35C5.19017 129.17 5.31017 132.99 5.43017 136.81C5.72017 145.98 6.01017 155.16 6.30017 164.33C6.65017 175.38 7.00017 186.43 7.35017 197.49C7.65017 207.08 7.96017 216.67 8.26017 226.26C8.41017 230.91 8.53017 235.57 8.70017 240.22C8.70017 240.29 8.70017 240.36 8.70017 240.43C8.74017 241.72 8.99017 245.89 11.0802 245.83C13.1702 245.77 15.1302 245.71 17.1502 245.65C22.6302 245.49 28.1202 245.33 33.6002 245.17C41.7402 244.93 49.8802 244.7 58.0102 244.46C67.9002 244.17 77.7902 243.89 87.6902 243.6C98.5702 243.28 109.44 242.97 120.32 242.65C131.2 242.33 142.19 242.02 153.13 241.7C163.37 241.4 173.6 241.11 183.84 240.81C192.46 240.56 201.08 240.31 209.7 240.06C215.92 239.88 222.14 239.7 228.36 239.52C231.29 239.44 234.25 239.48 237.17 239.26C237.3 239.26 237.42 239.26 237.55 239.25C239.13 239.2 239.75 236.43 239.84 235.29C240.13 231.85 240.41 228.41 240.7 224.97C240.82 223.59 240.82 222.16 240.46 220.81C240.25 220.04 239.82 218.77 239.04 218.33C237.11 217.24 236.21 221 236.12 222.1C235.83 225.54 235.55 228.98 235.26 232.42L237.55 228.46C235.53 228.52 233.5 228.58 231.48 228.64C226 228.8 220.51 228.96 215.03 229.12C206.89 229.36 198.75 229.59 190.62 229.83C180.73 230.12 170.84 230.4 160.94 230.69C150.06 231.01 139.19 231.32 128.31 231.64C117.43 231.96 106.44 232.27 95.5002 232.59C85.2602 232.89 75.0302 233.18 64.7902 233.48C56.1702 233.73 47.5502 233.98 38.9302 234.23C32.7102 234.41 26.4902 234.59 20.2702 234.77C17.3402 234.85 14.3802 234.83 11.4602 235.03C11.3302 235.03 11.2102 235.03 11.0802 235.04L13.4602 240.44C13.3402 236.62 13.2202 232.8 13.1002 228.98C12.8102 219.81 12.5202 210.63 12.2302 201.46C11.8802 190.41 11.5302 179.36 11.1802 168.3C10.8802 158.71 10.5702 149.12 10.2702 139.53C10.1202 134.88 10.0002 130.22 9.83017 125.57C9.83017 125.5 9.83017 125.43 9.83017 125.36C9.79017 123.97 9.57017 119.96 7.45017 119.96C5.33017 119.96 5.03017 124.1 5.07017 125.36V125.35Z" fill="black"/>
<path d="M240.91 211.21C241.5 208.86 241.25 206.2 241.22 203.8C241.17 199.63 241.09 195.47 241.02 191.3C240.91 185.12 240.79 178.95 240.67 172.77C240.52 165.24 240.37 157.71 240.22 150.18C240.05 141.98 239.89 133.78 239.72 125.58C239.55 117.38 239.37 108.95 239.2 100.63C239.04 92.8802 238.87 85.1202 238.71 77.3702C238.57 70.8502 238.43 64.3302 238.29 57.8102C238.19 53.0902 238.09 48.3802 237.99 43.6602C237.94 41.4302 237.93 39.1902 237.85 36.9602C237.85 36.8602 237.85 36.7702 237.85 36.6702L237.15 40.4902C238.61 36.4002 238.38 31.2002 235.73 27.6202C234.28 25.6702 232.11 24.3802 229.87 23.5402C225.72 21.9902 221.25 21.4302 216.85 21.2102C210.49 20.8802 204.09 21.0402 197.73 21.0902C187.08 21.1802 176.43 21.3502 165.78 21.5402C152.63 21.7802 139.48 22.0502 126.33 22.3402C113.18 22.6302 99.19 22.9602 85.62 23.2902C73.71 23.5802 61.8 23.8802 49.9 24.1902C41.62 24.4002 33.34 24.6202 25.07 24.8502C22.94 24.9102 20.82 24.9602 18.69 25.0202C17.83 25.0402 17.12 25.0502 16.3 25.2802C11.07 26.7402 6.89005 30.4102 4.70005 35.4102C1.43005 42.9002 2.76005 51.3902 3.00005 59.3102C3.42005 73.1202 3.61005 86.9402 3.74005 100.76C3.74005 101.67 3.76005 102.58 3.77005 103.48C3.78005 104.87 4.06005 108.88 6.15005 108.88C8.24005 108.88 8.54005 104.74 8.53005 103.48C8.46005 95.4702 8.36005 87.4602 8.22005 79.4502C8.11005 73.0202 7.98005 66.5902 7.79005 60.1602C7.71005 57.3802 7.62005 54.6102 7.49005 51.8302C7.44005 50.7002 7.38005 49.5702 7.32005 48.4402C7.30005 47.9502 7.28005 47.4502 7.28005 46.9602C7.28005 46.7002 7.34005 45.3902 7.28005 46.2802C7.22005 47.2402 7.35005 45.7002 7.37005 45.5102C7.39005 45.3502 7.42005 45.2002 7.43005 45.0402C7.56005 43.9402 7.15005 46.1702 7.41005 45.1202C7.49005 44.7902 7.56005 44.4602 7.66005 44.1302C7.71005 43.9502 7.77005 43.7702 7.82005 43.5902C7.96005 43.0202 7.47005 44.4202 7.71005 43.9002C8.01005 43.2902 8.28005 42.6302 8.55005 42.0002C8.75005 41.5402 8.15005 42.6102 8.43005 42.2002C8.52005 42.0702 8.60005 41.9302 8.68005 41.7902C8.83005 41.5602 8.98005 41.3302 9.14005 41.1102C9.49005 40.6302 9.87005 40.1702 10.27 39.7302C10.47 39.5202 10.96 39.0702 10.45 39.5302C10.65 39.3502 10.85 39.1702 11.06 38.9902C11.45 38.6602 11.86 38.3502 12.29 38.0602C13.03 37.5502 13.82 37.1102 14.64 36.7302C15.24 36.4502 15.91 36.2902 16.5 36.0002C15.92 36.2702 16.19 36.0902 16.6 35.9802C16.75 35.9402 16.89 35.9002 17.04 35.8802C17.19 35.8602 17.31 35.8502 17.45 35.8402C20.55 35.6202 23.7 35.6702 26.81 35.5902C33.6 35.4102 40.4 35.2302 47.19 35.0502C56.5 34.8102 65.82 34.5702 75.13 34.3402C85.93 34.0702 96.73 33.8102 107.53 33.5602C118.33 33.3102 129.82 33.0502 140.96 32.8102C151.33 32.5902 161.71 32.3902 172.08 32.2102C180.54 32.0702 189.01 31.9402 197.47 31.8702C202.98 31.8202 208.5 31.7702 214.01 31.8902C215.18 31.9202 216.35 31.9602 217.52 32.0302C219.53 32.1502 221.54 32.3502 223.53 32.6802C224.32 32.8102 225.11 32.9602 225.9 33.1502C226.69 33.3402 227.39 33.5202 227.8 33.6602C228.88 34.0202 229.94 34.4502 230.94 35.0102C231.33 35.2302 231.71 35.4602 232.07 35.7202C232.24 35.8402 232.41 35.9702 232.58 36.1102C232.66 36.1702 232.73 36.2402 232.81 36.3102C233.22 36.6202 232.64 36.1102 232.61 36.1102C232.77 36.1102 233.17 36.7302 233.26 36.8502C233.35 36.9602 233.42 37.0802 233.51 37.1902C233.95 37.7502 233.37 36.9602 233.35 36.8702C233.42 37.0702 233.55 37.3802 233.66 37.5602C233.07 36.6302 233.29 36.3902 233.43 36.9102C233.46 37.0202 233.47 37.1402 233.51 37.2502C233.02 35.8402 233.26 35.8202 233.33 36.3602C233.39 36.8502 233.32 37.5702 233.27 35.2902C233.29 36.3002 233.32 34.6102 233.34 34.4302C233.21 35.6202 233.7 32.9702 233.46 33.8302C233.34 34.2602 233.32 34.2502 233.8 32.8602C233.36 34.1402 233.1 35.3202 233.1 36.6902C233.1 36.7502 233.1 36.8002 233.1 36.8602C233.1 37.8402 233.14 38.8102 233.16 39.7902C233.27 44.8302 233.38 49.8702 233.49 54.9102C233.66 63.0202 233.84 71.1302 234.01 79.2402C234.22 89.1602 234.43 99.0802 234.64 108.99C234.86 119.41 235.08 129.84 235.29 140.26C235.49 150.01 235.69 159.77 235.88 169.52C236.03 177.28 236.18 185.03 236.32 192.79C236.4 197.35 236.49 201.91 236.53 206.48C236.53 206.95 236.53 207.42 236.53 207.89C236.52 209.56 236.81 205.9 236.84 205.78C236.29 207.99 236.18 211.28 237.69 213.17C239.2 215.06 240.58 212.67 240.94 211.23L240.91 211.21Z" fill="black"/>
<path d="M52.09 42.9401C48.84 42.9401 45.58 43.0101 42.33 42.9401C41.86 42.9401 41.36 42.9201 40.91 42.7801C40.6 42.6801 40.29 42.5201 40.01 42.3501C39.87 42.2701 39.74 42.1701 39.6 42.0801C39.54 42.0401 39.04 41.6301 39.3 41.8801C39.07 41.6501 38.88 41.3801 38.69 41.1101C39.06 41.6401 38.76 41.2701 38.69 41.0901C38.7 41.1201 38.9 41.8901 38.78 41.4001C38.63 40.7701 38.88 42.7601 38.9 42.5301C38.97 41.7201 38.9 40.8701 38.9 40.0501C38.9 31.7701 38.9 23.4901 38.9 15.2101V11.6801C38.9 11.5201 38.93 11.3201 38.9 11.1501C38.96 11.4801 38.82 11.8701 38.8 12.2001C38.75 12.8801 38.81 12.3401 38.83 12.1901C38.65 13.6101 38.67 12.2801 38.83 12.3601C38.88 12.3801 38.47 12.8801 38.78 12.5001C39.29 11.8701 39.43 11.6801 40.3 11.2401C41.7 10.5201 43.71 10.8101 45.24 10.8101H51.41C52.09 10.8101 52.81 10.7801 53.47 10.9801C54.02 11.1501 54.87 11.6901 55.12 11.9301C55.14 11.9501 55.53 12.4301 55.68 12.6501C55.59 12.5301 55.55 12.1801 55.6 12.5201C55.68 13.0501 55.45 11.6901 55.62 12.5201C55.57 12.2701 55.48 10.5301 55.46 11.5201C55.46 11.9401 55.46 12.3601 55.46 12.7801C55.46 16.5301 55.46 20.2701 55.46 24.0201C55.46 28.4301 55.46 32.8401 55.46 37.2501V41.4601C55.46 41.7901 55.44 42.1301 55.46 42.4601C55.46 42.5001 55.46 42.5501 55.46 42.5801C55.42 42.3701 55.67 40.6101 55.53 41.5501C55.53 41.5301 55.68 40.7501 55.6 41.2301C55.48 41.4701 55.51 41.4301 55.68 41.1001L55.49 41.3701C55.02 41.8601 54.97 42.0101 54.21 42.4201C53.52 42.8001 52.87 42.9101 52.08 42.9301C50.01 42.9901 49.68 46.9001 49.7 48.3301C49.73 49.6201 49.85 50.9601 50.4 52.1501C50.7 52.8001 51.24 53.7601 52.08 53.7301C57.06 53.5801 59.71 48.8601 60.11 44.3701C60.22 43.1301 60.21 41.9001 60.21 40.6601C60.21 36.4801 60.21 32.3001 60.21 28.1201V14.4601C60.21 9.6701 60.31 3.7401 55.62 0.990097C53.65 -0.169903 51.44 0.0100969 49.25 0.0100969C47.06 0.0100969 44.9 0.0100969 42.72 0.0100969C39.34 0.0200969 36.71 1.9601 35.34 5.0301C34.33 7.3001 34.16 9.7901 34.16 12.2401C34.16 20.8001 34.16 29.3601 34.16 37.9101C34.16 42.2601 33.71 47.2201 36.59 50.8301C38.38 53.0801 40.78 53.7401 43.51 53.7401H50.52C51.05 53.7401 51.57 53.7401 52.1 53.7401C54.16 53.7401 54.5 49.7301 54.48 48.3401C54.46 46.9501 54.2 42.9401 52.1 42.9401H52.09Z" fill="black"/>
<path d="M99.8801 44.5099C96.6301 44.5099 93.3701 44.5799 90.1201 44.5099C89.6501 44.5099 89.1501 44.4899 88.7001 44.3499C88.3901 44.2499 88.0801 44.0899 87.8001 43.9199C87.6601 43.8399 87.5301 43.7399 87.3901 43.6499C87.3301 43.6099 86.8301 43.1999 87.0901 43.4499C86.8601 43.2199 86.6701 42.9499 86.4801 42.6799C86.8501 43.2099 86.5501 42.8399 86.4801 42.6599C86.4901 42.6899 86.6901 43.4599 86.5701 42.9699C86.4201 42.3399 86.6701 44.3299 86.6901 44.0999C86.7601 43.2899 86.6901 42.4399 86.6901 41.6199C86.6901 33.3399 86.6901 25.0599 86.6901 16.7799V13.2499C86.6901 13.0899 86.7201 12.8899 86.6901 12.7199C86.7501 13.0499 86.6101 13.4399 86.5901 13.7699C86.5401 14.4499 86.6001 13.9099 86.6201 13.7599C86.4401 15.1799 86.4601 13.8499 86.6201 13.9299C86.6701 13.9499 86.2601 14.4499 86.5701 14.0699C87.0801 13.4399 87.2201 13.2499 88.0901 12.8099C89.4901 12.0899 91.5001 12.3799 93.0301 12.3799C95.0901 12.3799 97.1401 12.3799 99.2001 12.3799C99.8801 12.3799 100.6 12.3499 101.26 12.5499C101.81 12.7199 102.66 13.2599 102.91 13.4999C102.93 13.5199 103.32 13.9999 103.47 14.2199C103.38 14.0999 103.34 13.7499 103.39 14.0899C103.47 14.6199 103.24 13.2599 103.41 14.0899C103.36 13.8399 103.27 12.0999 103.25 13.0899C103.25 13.5099 103.25 13.9299 103.25 14.3499C103.25 18.0999 103.25 21.8399 103.25 25.5899C103.25 29.9999 103.25 34.4099 103.25 38.8199V43.0299C103.25 43.3599 103.23 43.6999 103.25 44.0299C103.25 44.0699 103.25 44.1199 103.25 44.1499C103.21 43.9399 103.46 42.1799 103.32 43.1199C103.32 43.0999 103.47 42.3199 103.39 42.7999C103.27 43.0399 103.3 42.9999 103.47 42.6699L103.28 42.9399C102.81 43.4299 102.76 43.5799 102 43.9899C101.31 44.3699 100.66 44.4799 99.8701 44.4999C97.8001 44.5599 97.4701 48.4699 97.4901 49.8999C97.5201 51.1899 97.6401 52.5299 98.1901 53.7199C98.4901 54.3699 99.0301 55.3299 99.8701 55.2999C104.85 55.1499 107.5 50.4299 107.9 45.9399C108.01 44.6999 108 43.4699 108 42.2299C108 38.0499 108 33.8699 108 29.6899C108 25.1399 108 20.5799 108 16.0299C108 11.2399 108.1 5.30992 103.41 2.55992C101.43 1.39992 99.2201 1.57992 97.0301 1.57992C94.8401 1.57992 92.6801 1.57992 90.5001 1.57992C87.1201 1.58992 84.4901 3.52992 83.1201 6.59992C82.1101 8.86992 81.9401 11.3599 81.9401 13.8099C81.9401 22.3699 81.9401 30.9299 81.9401 39.4799C81.9401 43.8299 81.4901 48.7899 84.3701 52.3999C86.1601 54.6499 88.5601 55.3099 91.2901 55.3099C93.6301 55.3099 95.9601 55.3099 98.3001 55.3099H99.8801C101.94 55.3099 102.28 51.2999 102.26 49.9099C102.24 48.5199 101.98 44.5099 99.8801 44.5099Z" fill="black"/>
<path d="M147.2 44.3503C143.95 44.3503 140.69 44.4203 137.44 44.3503C136.97 44.3503 136.47 44.3303 136.02 44.1903C135.71 44.0903 135.4 43.9303 135.12 43.7603C134.98 43.6803 134.85 43.5803 134.71 43.4903C134.65 43.4503 134.15 43.0403 134.41 43.2903C134.18 43.0603 133.99 42.7903 133.8 42.5203C134.17 43.0503 133.87 42.6803 133.8 42.5003C133.81 42.5303 134.01 43.3003 133.89 42.8103C133.74 42.1803 133.99 44.1703 134.01 43.9403C134.08 43.1303 134.01 42.2803 134.01 41.4603C134.01 33.1803 134.01 24.9003 134.01 16.6203V13.0903C134.01 12.9303 134.04 12.7303 134.01 12.5603C134.07 12.8903 133.93 13.2803 133.91 13.6103C133.86 14.2903 133.92 13.7503 133.94 13.6003C133.76 15.0203 133.78 13.6903 133.94 13.7703C133.99 13.7903 133.58 14.2903 133.89 13.9103C134.4 13.2803 134.54 13.0903 135.41 12.6503C136.81 11.9303 138.82 12.2203 140.35 12.2203H146.52C147.2 12.2203 147.92 12.1903 148.58 12.3903C149.13 12.5603 149.98 13.1003 150.23 13.3403C150.25 13.3603 150.64 13.8403 150.79 14.0603C150.7 13.9403 150.66 13.5903 150.71 13.9303C150.79 14.4603 150.56 13.1003 150.73 13.9303C150.68 13.6803 150.59 11.9403 150.57 12.9303C150.57 13.3503 150.57 13.7703 150.57 14.1903V25.4303C150.57 29.8403 150.57 34.2503 150.57 38.6603C150.57 40.0603 150.57 41.4703 150.57 42.8703C150.57 43.2003 150.55 43.5403 150.57 43.8703C150.57 43.9103 150.57 43.9603 150.57 43.9903C150.53 43.7803 150.78 42.0203 150.64 42.9603C150.64 42.9403 150.79 42.1603 150.71 42.6403C150.59 42.8803 150.62 42.8403 150.79 42.5103L150.6 42.7803C150.13 43.2703 150.08 43.4203 149.32 43.8303C148.63 44.2103 147.98 44.3203 147.19 44.3403C145.12 44.4003 144.79 48.3103 144.81 49.7403C144.84 51.0303 144.96 52.3703 145.51 53.5603C145.81 54.2103 146.35 55.1703 147.19 55.1403C152.17 54.9903 154.82 50.2703 155.22 45.7803C155.33 44.5403 155.32 43.3103 155.32 42.0703C155.32 37.8903 155.32 33.7103 155.32 29.5303C155.32 24.9803 155.32 20.4203 155.32 15.8703C155.32 11.0803 155.42 5.15025 150.73 2.40025C148.75 1.24025 146.54 1.42025 144.35 1.42025C142.16 1.42025 140 1.42025 137.82 1.42025C134.44 1.43025 131.81 3.37025 130.44 6.44025C129.43 8.71025 129.26 11.2003 129.26 13.6503C129.26 22.2103 129.26 30.7703 129.26 39.3203C129.26 43.6703 128.81 48.6303 131.69 52.2403C133.48 54.4903 135.88 55.1503 138.61 55.1503C140.95 55.1503 143.28 55.1503 145.62 55.1503C146.15 55.1503 146.67 55.1503 147.2 55.1503C149.26 55.1503 149.6 51.1403 149.58 49.7503C149.56 48.3603 149.3 44.3503 147.2 44.3503Z" fill="black"/>
<path d="M194.84 44.1999C191.59 44.1999 188.33 44.2699 185.08 44.1999C184.61 44.1999 184.11 44.1799 183.66 44.0399C183.35 43.9399 183.04 43.7799 182.76 43.6099C182.62 43.5299 182.49 43.4299 182.35 43.3399C182.29 43.2999 181.79 42.8899 182.05 43.1399C181.82 42.9099 181.63 42.6399 181.44 42.3699C181.81 42.8999 181.51 42.5299 181.44 42.3499C181.45 42.3799 181.65 43.1499 181.53 42.6599C181.38 42.0299 181.63 44.0199 181.65 43.7899C181.72 42.9799 181.65 42.1299 181.65 41.3099C181.65 33.0299 181.65 24.7499 181.65 16.4699V12.9399C181.65 12.7799 181.68 12.5799 181.65 12.4099C181.71 12.7399 181.57 13.1299 181.55 13.4599C181.5 14.1399 181.56 13.5999 181.58 13.4499C181.4 14.8699 181.42 13.5399 181.58 13.6199C181.63 13.6399 181.22 14.1399 181.53 13.7599C182.04 13.1299 182.18 12.9399 183.05 12.4999C184.45 11.7799 186.46 12.0699 187.99 12.0699H194.16C194.84 12.0699 195.56 12.0399 196.22 12.2399C196.77 12.4099 197.62 12.9499 197.87 13.1899C197.89 13.2099 198.28 13.6899 198.43 13.9099C198.34 13.7899 198.3 13.4399 198.35 13.7799C198.43 14.3099 198.2 12.9499 198.37 13.7799C198.32 13.5299 198.23 11.7899 198.21 12.7799C198.21 13.1999 198.21 13.6199 198.21 14.0399C198.21 17.7899 198.21 21.5299 198.21 25.2799C198.21 29.6899 198.21 34.0999 198.21 38.5099V42.7199C198.21 43.0499 198.19 43.3899 198.21 43.7199C198.21 43.7599 198.21 43.8099 198.21 43.8399C198.17 43.6299 198.42 41.8699 198.28 42.8099C198.28 42.7899 198.43 42.0099 198.35 42.4899C198.23 42.7299 198.26 42.6899 198.43 42.3599L198.24 42.6299C197.77 43.1199 197.72 43.2699 196.96 43.6799C196.27 44.0599 195.62 44.1699 194.83 44.1899C192.76 44.2499 192.43 48.1599 192.45 49.5899C192.48 50.8799 192.6 52.2199 193.15 53.4099C193.45 54.0599 193.99 55.0199 194.83 54.9899C199.81 54.8399 202.46 50.1199 202.86 45.6299C202.97 44.3899 202.96 43.1599 202.96 41.9199C202.96 37.7399 202.96 33.5599 202.96 29.3799C202.96 24.8299 202.96 20.2699 202.96 15.7199C202.96 10.9299 203.06 4.99986 198.37 2.24986C196.39 1.08986 194.18 1.26986 191.99 1.26986C189.8 1.26986 187.64 1.26986 185.46 1.26986C182.08 1.27986 179.45 3.21986 178.08 6.28986C177.07 8.55986 176.9 11.0499 176.9 13.4999C176.9 22.0599 176.9 30.6199 176.9 39.1699C176.9 43.5199 176.45 48.4799 179.33 52.0899C181.12 54.3399 183.52 54.9999 186.25 54.9999C188.59 54.9999 190.92 54.9999 193.26 54.9999H194.84C196.9 54.9999 197.24 50.9899 197.22 49.5999C197.2 48.2099 196.94 44.1999 194.84 44.1999Z" fill="black"/>
<path d="M2.38007 77.56C4.45007 77.56 6.52007 77.56 8.59007 77.56C14.2201 77.56 19.8501 77.54 25.4801 77.54C33.8101 77.53 42.1401 77.52 50.4701 77.51C60.6301 77.5 70.7901 77.48 80.9501 77.47C92.0401 77.46 103.12 77.44 114.21 77.43C125.3 77.42 136.67 77.4 147.9 77.38C158.33 77.37 168.77 77.35 179.2 77.34C188.05 77.33 196.9 77.32 205.76 77.3C212.13 77.3 218.49 77.28 224.86 77.27C227.86 77.27 230.9 77.4 233.9 77.26C234.03 77.26 234.16 77.26 234.28 77.26C236.34 77.26 236.68 73.25 236.66 71.86C236.64 70.47 236.38 66.46 234.28 66.46C232.18 66.46 230.14 66.46 228.07 66.46C222.44 66.46 216.81 66.48 211.18 66.48C202.85 66.49 194.52 66.5 186.19 66.51C176.03 66.52 165.87 66.54 155.71 66.55C144.62 66.56 133.54 66.58 122.45 66.59C111.36 66.6 99.9901 66.62 88.7601 66.64C78.3301 66.65 67.8901 66.67 57.4601 66.68C48.6101 66.69 39.7601 66.7 30.9001 66.72C24.5301 66.72 18.1701 66.74 11.8001 66.75C8.80007 66.75 5.76007 66.62 2.76007 66.76C2.63007 66.76 2.50007 66.76 2.38007 66.76C0.320074 66.76 -0.0199262 70.77 7.3841e-05 72.16C0.0200738 73.55 0.280074 77.56 2.38007 77.56Z" fill="black"/>
</g>
<defs>
<clipPath id="clip0_3416_10066">
<rect width="241.3" height="245.83" fill="white"/>
</clipPath>
</defs>
</svg>
