<svg width="180" height="253" viewBox="0 0 180 253" fill="none" xmlns="http://www.w3.org/2000/svg">
<g clip-path="url(#clip0_3416_11786)">
<path d="M170.01 215.97C164.92 214.57 159.84 213.16 154.75 211.76C142.98 208.51 131.2 205.26 119.43 202.01C105.95 198.29 92.47 194.57 78.98 190.85C68.88 188.06 58.77 185.27 48.67 182.48C46.48 181.88 44.28 181.13 42.05 180.65C41.48 180.53 41.11 180.65 40.54 180.87C38.88 181.51 37.28 182.4 35.82 183.41C33.29 185.15 31.03 187.39 29.48 190.05C26.78 194.68 25.99 200.15 26.64 205.44C27 208.39 27.83 211.29 29.02 214.01C29.51 215.12 30.03 215.88 31.17 216.22C31.81 216.41 32.45 216.58 33.08 216.76C41.12 219.05 49.17 221.34 57.21 223.63C70.21 227.33 83.21 231.03 96.21 234.73C109.21 238.43 121.66 241.98 134.39 245.6C141.61 247.66 148.84 249.71 156.06 251.77L157.1 252.07C158.11 252.36 158.83 250.48 159.04 249.85C159.59 248.24 159.6 246.63 159.48 244.95C159.43 244.3 159.58 246.84 159.56 246.26C159.56 246.08 159.54 245.9 159.53 245.72C159.51 245.11 159.49 244.5 159.49 243.89C159.49 243 159.51 242.11 159.54 241.22C159.55 240.98 159.57 240.74 159.58 240.5C159.49 242.65 159.52 241.56 159.55 241.06C159.59 240.47 159.65 239.87 159.71 239.28C159.77 238.73 159.84 238.18 159.92 237.63C159.96 237.35 160 237.07 160.05 236.79C160.07 236.65 160.1 236.51 160.12 236.37C160.27 235.47 159.83 237.76 160.03 236.87C160.28 235.72 160.83 234.46 160.96 233.31C160.96 233.31 160.53 234.49 160.78 233.84C160.83 233.71 160.88 233.57 160.93 233.44C161.03 233.18 161.14 232.91 161.25 232.65C161.48 232.11 161.76 231.59 162.02 231.06C162.24 230.6 161.46 231.94 161.88 231.32C161.95 231.21 162.02 231.09 162.09 230.98C162.24 230.76 162.39 230.54 162.54 230.32C162.86 229.88 163.32 229.5 163.62 229.06C163.83 228.75 163.11 229.39 163.45 229.23C163.58 229.17 163.7 229.01 163.82 228.92C164.07 228.72 164.33 228.53 164.6 228.36C165.13 228.02 165.68 227.79 166.25 227.53C166.33 227.49 166.74 227.36 166.39 227.47C166.01 227.59 166.57 227.43 166.65 227.41C166.99 227.34 167.34 227.27 167.69 227.23C168.45 227.14 169.22 227.15 169.98 227.22C170.81 227.29 171.47 226.15 171.73 225.57C172.26 224.41 172.48 222.85 172.45 221.59C172.42 220.04 172.18 216.15 169.97 215.97C163.77 215.45 159.55 219.99 157.46 225.39C155.37 230.79 154.6 237.12 154.53 243.11C154.51 244.72 154.58 246.33 154.69 247.94L157.08 240.82C152.88 239.62 148.68 238.43 144.48 237.23C134.44 234.37 124.4 231.51 114.36 228.66C102.22 225.21 90.09 221.75 77.95 218.3C67.46 215.31 56.97 212.33 46.48 209.34L36.13 206.39C34.5 205.92 32.84 205.32 31.18 204.98C31.11 204.97 31.03 204.94 30.96 204.92L32.71 206.57C32.41 205.91 32.14 205.24 31.88 204.56C31.45 203.47 32.13 205.51 31.84 204.42C31.77 204.16 31.69 203.9 31.62 203.64C31.55 203.38 31.5 203.13 31.43 202.88C31.15 201.79 31.6 204.12 31.45 203.04C31.41 202.75 31.37 202.47 31.34 202.18C31.18 200.69 31.33 203.25 31.34 202.29C31.34 201.71 31.61 200.26 31.3 202.21C31.34 201.96 31.35 201.71 31.38 201.46C31.47 200.69 31.77 201.06 31.3 201.83C31.46 201.57 31.53 200.97 31.59 200.67C31.78 199.8 31.14 201.74 31.5 200.93C31.62 200.65 31.72 200.37 31.84 200.09C31.95 199.84 32.12 199.24 32.33 199.09C31.85 199.43 31.94 199.72 32.27 199.21C32.39 199.03 32.5 198.85 32.62 198.67C33.09 197.98 33.62 197.32 34.19 196.7C34.42 196.45 34.66 196.21 34.9 195.97C34.19 196.68 35.14 195.77 35.33 195.61C35.9 195.13 36.49 194.68 37.1 194.26C38.65 193.19 40.29 192.41 42 191.65C42.58 191.39 41.38 191.56 41.68 191.8C41.82 191.91 42.19 191.94 42.36 191.99C50.15 194.14 57.95 196.29 65.74 198.44C79.64 202.28 93.55 206.11 107.45 209.95C121.35 213.79 134.78 217.49 148.44 221.26C153.22 222.58 157.99 223.9 162.77 225.21C165.03 225.83 167.35 226.71 169.66 227.11C169.76 227.13 169.87 227.17 169.97 227.2C170.73 227.41 171.52 225.98 171.72 225.55C172.25 224.39 172.47 222.83 172.44 221.57C172.4 219.66 172.17 216.55 169.96 215.95L170.01 215.97Z" fill="#1D1D1B"/>
<path d="M113.86 203.74C123.65 201.29 133.42 198.8 143.21 196.32C147.27 195.29 151.32 194.26 155.38 193.24C157.13 192.8 158.85 192.87 160.61 193.29C160.14 193.18 160.32 193.19 160.76 193.36C160.97 193.44 161.18 193.54 161.39 193.64C161.87 193.88 162.33 194.16 162.76 194.48C163.01 194.67 163.24 194.89 163.49 195.09C162.88 194.59 163.32 194.93 163.6 195.25C163.82 195.5 164.02 195.76 164.21 196.03C164.3 196.16 164.38 196.29 164.47 196.42C164.94 197.1 164.31 196.24 164.37 196.22C164.43 196.2 164.86 197.2 164.88 197.26C164.96 197.43 165.02 197.6 165.1 197.78L165.18 197.99C165.34 198.44 165.29 198.28 165.03 197.52C165.15 197.54 165.35 198.61 165.38 198.73C165.45 198.99 165.5 199.25 165.56 199.52C165.78 200.44 165.38 198.26 165.52 199.29C165.59 199.8 165.67 200.3 165.72 200.81C165.75 201.08 165.76 201.35 165.79 201.62C165.82 202.06 165.81 201.84 165.76 200.97C165.77 201.2 165.78 201.44 165.79 201.67C165.84 203.1 165.79 204.52 165.71 205.94L167.53 200.52C161.39 203.28 155.26 206.04 149.12 208.8C148.32 209.16 147.83 210.68 147.64 211.39C147.28 212.72 147.19 214.36 147.39 215.72C147.59 217.08 148.31 220.6 150.43 219.65C156.57 216.89 162.7 214.13 168.84 211.37C170.48 210.63 170.57 207.35 170.66 205.95C170.97 200.68 170.6 195.24 168.76 190.26C167.75 187.52 166.04 184.84 163.52 183.26C161.29 181.85 158.34 181.33 155.77 181.91C146.21 184.07 136.74 186.72 127.23 189.12C122.78 190.25 118.33 191.38 113.87 192.49C111.72 193.03 111.36 196.26 111.39 198.11C111.42 199.43 111.52 200.89 112.11 202.09C112.39 202.65 113.04 203.94 113.86 203.74Z" fill="#1D1D1B"/>
<path d="M80.26 229.31C68.59 232.26 56.92 235.21 45.25 238.16C43.57 238.58 41.89 239.01 40.22 239.43L42.36 247.89C43.12 244.91 43.39 241.67 43.29 238.6C43.11 232.84 41.85 226.65 37.96 222.18C35.64 219.52 32.72 217.69 29.37 216.61L28.71 227.66C35.46 225.82 42.21 223.98 48.96 222.14C51.11 221.55 51.47 218.4 51.44 216.52C51.41 215.2 51.31 213.74 50.72 212.54C50.44 211.99 49.78 210.67 48.97 210.89C42.22 212.73 35.47 214.57 28.72 216.41C26.76 216.94 26.39 219.56 26.29 221.29C26.22 222.47 26.25 223.74 26.58 224.88C26.8 225.65 27.2 227.19 28.06 227.47C29.44 227.92 30.78 228.47 32.04 229.19C32.58 229.5 33.11 229.84 33.61 230.21C33.83 230.37 34.05 230.54 34.26 230.72C34.44 230.87 35.12 231.5 34.66 231.05C35.47 231.84 36.19 232.73 36.8 233.69C36.88 233.82 37.34 234.5 36.98 233.98C36.62 233.46 37.11 234.25 37.17 234.38C37.41 234.87 37.6 235.38 37.81 235.88C38.11 236.6 37.51 234.86 37.72 235.61C37.78 235.83 37.85 236.04 37.91 236.26C38.05 236.76 38.13 237.27 38.26 237.76C38.26 237.79 38.03 236.3 38.12 237.05C38.13 237.16 38.15 237.26 38.17 237.37C38.2 237.58 38.23 237.79 38.25 238C38.28 238.24 38.3 238.48 38.32 238.72C38.43 239.77 38.3 237.93 38.29 238.13C38.28 238.96 38.31 239.8 38.29 240.63C38.27 241.46 38.41 239.03 38.34 239.8C38.32 239.98 38.31 240.17 38.3 240.35C38.27 240.68 38.23 241.01 38.19 241.34C38.15 241.64 38.11 241.93 38.06 242.23C38.04 242.35 38.02 242.46 38 242.58C37.93 243.04 38.35 240.89 38.17 241.65C38.13 241.84 38.09 242.04 38.04 242.23C37.58 244.05 37.56 246.09 38.04 247.91C38.22 248.6 38.98 251 40.18 250.7C51.85 247.75 63.52 244.8 75.19 241.85C76.87 241.43 78.55 241 80.22 240.58C82.37 240.04 82.73 236.81 82.7 234.96C82.67 233.64 82.57 232.18 81.98 230.98C81.7 230.42 81.05 229.12 80.23 229.33L80.26 229.31Z" fill="#1D1D1B"/>
<path d="M22.55 228.04C22.53 231.63 22.58 235.11 23.49 238.62C24.93 244.16 28.17 248.91 33.12 251.87C35.11 253.06 36.04 249.14 36.16 247.94C36.31 246.51 36.31 244.99 35.91 243.61C35.64 242.7 35.3 241.55 34.43 241.02C33.25 240.31 32.16 239.51 31.15 238.59C31.55 238.95 31.23 238.67 31.03 238.46C30.81 238.23 30.59 237.99 30.38 237.74C30.03 237.33 29.7 236.9 29.39 236.45C29.24 236.24 29.1 236.02 28.96 235.8C28.77 235.49 28.57 234.8 28.96 235.83C28.79 235.38 28.51 234.95 28.31 234.51C28.13 234.09 27.61 232.45 28.12 234.15C27.98 233.69 27.84 233.24 27.72 232.77C27.67 232.56 27.62 232.35 27.57 232.14C27.31 231.03 27.77 233.4 27.65 232.61C27.59 232.22 27.53 231.83 27.49 231.44C27.45 231.08 27.43 230.71 27.4 230.35C27.6 232.71 27.45 231.29 27.44 230.72C27.43 229.83 27.49 228.93 27.5 228.04C27.5 226.76 27.32 225.24 26.78 224.06C26.48 223.42 25.89 222.41 25.03 222.41C22.87 222.41 22.56 226.72 22.55 228.03V228.04Z" fill="#1D1D1B"/>
<path d="M68.33 163.65C67.76 163.05 67.24 162.39 66.6 161.89C65.89 161.34 65.16 160.81 64.47 160.23C63.88 159.73 63.31 159.21 62.76 158.67C62.48 158.4 62.22 158.12 61.95 157.85C61.9 157.8 61.47 157.33 61.82 157.72C62.17 158.11 61.64 157.49 61.58 157.42C61.1 156.82 60.64 156.21 60.21 155.57C59.96 155.2 59.72 154.82 59.49 154.44C59.39 154.28 59.3 154.11 59.2 153.95C58.82 153.34 59.59 154.76 59.29 154.12C58.98 153.43 58.64 152.76 58.37 152.05C58.29 151.85 57.91 150.66 58.16 151.51C58.41 152.36 58.04 151 57.99 150.76C57.91 150.39 57.83 150.02 57.76 149.65C57.73 149.47 57.71 149.29 57.67 149.11C57.53 148.35 57.74 150.5 57.75 149.73C57.75 149.4 57.71 149.07 57.71 148.74C57.71 148.57 57.71 148.41 57.71 148.24C57.71 147.39 57.73 148.7 57.67 148.86C57.81 148.45 58.04 147.31 57.98 146.89C57.98 146.88 57.62 148.11 57.82 147.54C57.87 147.38 57.91 147.22 57.96 147.06C58.07 146.69 58.2 146.32 58.34 145.96C58.4 145.81 58.47 145.65 58.53 145.5C58.77 144.87 58.77 145.59 58.35 145.84C58.53 145.73 58.71 145.16 58.82 144.97C58.98 144.69 59.16 144.41 59.34 144.13C59.45 143.96 60.15 142.99 59.72 143.57C59.29 144.15 59.94 143.34 60.07 143.2C60.29 142.97 60.52 142.74 60.76 142.53C61 142.32 61.24 142.12 61.49 141.91C61.58 141.84 61.76 141.65 61.87 141.62C61.65 141.67 61.2 142.02 61.72 141.73C62.33 141.4 62.92 141.08 63.57 140.83C63.87 140.72 64.19 140.65 64.48 140.54C64.91 140.37 64.26 140.6 64.2 140.6C64.42 140.58 64.63 140.52 64.85 140.5C66.43 140.3 68.01 140.44 69.58 140.66C70.37 140.77 69.2 140.57 69.99 140.73C70.36 140.81 70.73 140.88 71.1 140.96C71.9 141.13 72.7 141.32 73.5 141.49C75.27 141.88 77.07 142.26 78.88 142.42C82.27 142.71 85.75 141.77 88.22 139.35C91.26 136.36 92.43 132.1 92.7 127.96C92.91 124.72 92.45 121.54 92.5 118.31C92.5 118.15 92.52 117.99 92.51 117.83C92.48 117.14 92.46 118.82 92.45 118.69C92.42 118.39 92.51 118.02 92.55 117.73C92.6 117.36 92.66 116.99 92.73 116.62C92.76 116.46 92.8 116.31 92.83 116.15C92.98 115.35 92.77 116.58 92.69 116.73C92.91 116.35 93.26 115.42 93.32 114.98C93.32 114.98 92.74 116.02 93.04 115.59C93.12 115.47 93.18 115.33 93.26 115.2C93.38 115 94.04 114.12 93.51 114.75C92.98 115.38 93.62 114.66 93.76 114.52C93.86 114.43 93.97 114.34 94.07 114.24C94.49 113.81 94.18 114.5 93.77 114.41C93.88 114.43 94.37 114.08 94.5 114.02C94.63 113.96 94.76 113.92 94.89 113.87C95.16 113.76 95.48 113.86 95.04 113.81C94.54 113.75 94.9 113.83 95.08 113.83C95.3 113.83 95.52 113.8 95.74 113.8C95.96 113.8 96.18 113.8 96.4 113.83C96.31 113.83 95.9 113.71 96.4 113.83C97.29 114.05 98.11 114.44 98.94 114.84C99.72 115.22 98.47 114.48 99.18 114.97C99.53 115.21 99.87 115.44 100.19 115.7C100.46 115.92 101.64 117.29 101.9 117.28C101.88 117.28 101.28 116.54 101.63 116.98C101.74 117.12 101.86 117.26 101.97 117.4C102.2 117.68 102.41 117.97 102.62 118.26C102.83 118.55 103.03 118.86 103.23 119.16C103.36 119.36 104.02 120.54 103.62 119.79C103.2 118.99 103.84 120.27 103.94 120.47C104.09 120.81 104.24 121.14 104.38 121.49C104.52 121.84 104.65 122.18 104.77 122.53C104.83 122.7 104.88 122.88 104.95 123.06C105.23 123.8 104.62 121.83 104.81 122.6C104.99 123.32 105.18 124.03 105.33 124.76C105.4 125.12 105.46 125.49 105.52 125.85C105.56 126.09 105.59 126.34 105.62 126.58C105.74 127.39 105.5 125.03 105.55 126C105.75 130.66 105.89 135.41 107.43 139.85C108.71 143.56 111.36 147.16 115.03 148.77C116.88 149.58 118.99 149.64 120.95 149.35C121.96 149.2 122.97 148.99 123.99 148.91C124.41 148.88 125.88 148.66 126.2 148.97C126.24 149.01 125.28 148.71 125.8 148.91C125.95 148.97 126.12 148.99 126.27 149.03C126.58 149.12 126.89 149.22 127.2 149.34C127.51 149.46 127.81 149.59 128.1 149.74C128.24 149.81 128.39 149.91 128.54 149.97C129.08 150.19 127.72 149.36 128.43 149.91C128.96 150.31 129.49 150.7 129.98 151.16C130.19 151.36 130.43 151.73 130.68 151.87C130.64 151.85 130 150.98 130.28 151.44C130.39 151.62 130.56 151.79 130.68 151.97C130.88 152.24 131.05 152.52 131.23 152.8C131.32 152.93 131.38 153.11 131.48 153.23C131.48 153.23 130.93 152.02 131.11 152.58C131.22 152.93 131.41 153.3 131.56 153.64C131.95 154.55 131.23 152.08 131.48 153.41C131.54 153.72 131.71 154.93 131.57 153.61C131.43 152.29 131.53 153.51 131.54 153.82C131.54 153.89 131.58 154.27 131.54 154.31C131.4 154.44 131.8 152.55 131.59 153.27C131.55 153.41 131.53 153.61 131.52 153.76C131.42 154.71 131.72 153.08 131.71 153.05C131.87 153.51 131.01 154.93 130.82 155.37C130.42 156.25 129.98 157.12 129.59 158.01C128.55 160.4 127.97 163.03 128 165.64C128.05 170.04 130.52 175.65 135.1 177.04C137.28 177.7 139.53 177.13 141.07 175.42C143.28 172.99 143.84 168.98 142.46 165.98C141.23 163.31 138.85 161.65 136.23 163.67C136.93 163.25 137.05 163.15 136.59 163.37C137.35 163.24 137.54 163.19 137.18 163.23C136.92 163.16 136.54 163.23 136.27 163.19L137.51 163.41C137.24 163.35 136.99 163.25 136.72 163.17C136.57 163.13 136.11 162.82 136.77 163.24C137.43 163.66 136.89 163.28 136.72 163.15C136.65 163.09 136.46 162.86 136.38 162.84C136.33 162.84 137.23 163.77 136.83 163.33C136.75 163.24 136.66 163 136.56 162.95C136.67 163.01 137.21 164.31 136.88 163.52C136.78 163.29 136.6 162.7 136.94 163.76C137.13 164.36 137.19 164.93 137.25 165.55C137.21 165.1 137.42 164.42 137.2 166.3C137.23 166.07 137.42 165.42 137.15 166.35C136.84 167.41 137.26 166.07 137.35 165.83C137.51 165.38 137.7 164.93 137.9 164.49C138.62 162.86 139.44 161.29 139.91 159.56C140.54 157.23 140.88 154.86 140.64 152.45C139.85 144.34 134.61 136.47 126.06 135.35C124.3 135.12 122.62 135.48 120.88 135.79C119.96 135.95 119.03 136.09 118.09 136.05C117.89 136.05 117 135.82 117.64 136.02C118.22 136.21 117.64 135.99 117.56 135.96C117.19 135.81 116.83 135.65 116.47 135.49C115.98 135.28 116.82 135.65 116.81 135.7C116.81 135.67 116.44 135.42 116.4 135.39C116.12 135.16 115.82 134.74 115.51 134.57C115.56 134.6 116.14 135.39 115.85 134.93C115.76 134.78 115.63 134.65 115.53 134.51C115.38 134.3 114.69 133.14 115.15 133.96C115.61 134.78 115.07 133.71 114.98 133.5C114.91 133.34 114.85 133.17 114.79 133C114.43 132.06 114.96 133.37 114.93 133.46C115.02 133.19 114.69 132.41 114.64 132.11C114.6 131.88 114.56 131.66 114.53 131.43C114.5 131.24 114.36 130.17 114.48 131.16C114.61 132.2 114.43 130.4 114.42 130.19C114.39 129.73 114.36 129.26 114.33 128.8C114.27 127.8 114.21 126.8 114.11 125.8C113.9 123.74 113.65 121.7 113.11 119.7C112.08 115.86 110.56 112.05 108.11 108.88C103.94 103.47 94.98 97.7099 89.08 104.14C86.52 106.93 85.18 110.61 84.66 114.32C84.18 117.74 84.57 121.03 84.69 124.45C84.72 125.24 84.69 126.03 84.69 126.83C84.69 127.52 84.75 126.01 84.74 126.07C84.7 126.24 84.71 126.43 84.69 126.6C84.64 127.01 84.57 127.41 84.5 127.81C84.34 128.79 84.9 126.56 84.48 127.81C84.41 128.01 83.97 129.05 84.34 128.26C84.71 127.47 84.19 128.45 84.07 128.64C84.03 128.71 83.86 129.02 83.78 129.05C84.08 128.96 84.42 128.34 83.78 128.94C83.66 129.06 82.85 129.7 83.3 129.38C83.75 129.06 82.91 129.58 82.76 129.65C82.46 129.79 82.15 129.9 81.85 130.01C81.7 130.07 81.54 130.1 81.38 130.15C82.28 129.88 81.57 130.1 81.33 130.12C79.8 130.24 78.38 130.12 76.86 129.93C76.38 129.87 76.98 129.96 77.04 129.97C76.86 129.94 76.68 129.9 76.5 129.86C76.13 129.79 75.77 129.71 75.4 129.63C74.54 129.45 73.68 129.25 72.81 129.07C71 128.69 69.15 128.33 67.3 128.22C63.77 128.02 60.57 129.08 57.73 131.12C51.95 135.27 49.19 143.55 49.87 150.44C50.66 158.47 55.11 165.3 61.31 170.32C62.78 171.51 64.19 172.49 66.02 173.02C68.1 173.62 69.43 171.79 69.88 169.98C70.44 167.73 69.97 165.37 68.36 163.67L68.33 163.65Z" fill="#1D1D1B"/>
<path d="M32.86 167.64C29.92 163.59 26.55 159.86 23.69 155.74C22.28 153.71 20.93 151.63 19.68 149.5C19.36 148.96 19.05 148.41 18.74 147.85C18.66 147.7 18.23 146.9 18.56 147.54C18.89 148.18 18.48 147.38 18.4 147.22C17.8 146.06 17.22 144.88 16.66 143.7C16.2 142.71 15.77 141.7 15.37 140.68C15.15 140.11 14.93 139.53 14.73 138.95C14.64 138.69 14.55 138.43 14.47 138.18C14.41 137.99 14.34 137.79 14.28 137.6C14.51 138.37 14.56 138.53 14.43 138.1C14.13 136.98 13.83 135.86 13.6 134.73C13.49 134.19 13.39 133.65 13.31 133.11C13.27 132.84 13.23 132.57 13.19 132.29C12.95 130.84 13.31 133.78 13.19 132.32C13.08 131.07 13.01 129.81 13.01 128.55C13.01 128.09 12.85 126.96 13.06 126.56C13.02 126.64 12.92 128.13 13.04 126.93C13.08 126.49 13.12 126.05 13.17 125.61C13.3 124.44 13.48 123.27 13.71 122.11C13.84 121.46 13.99 120.81 14.13 120.16C14.31 119.32 13.83 121.24 14.07 120.41C14.17 120.05 14.26 119.69 14.36 119.34C15.1 116.77 16.03 114.25 17.12 111.8C17.24 111.53 17.37 111.26 17.49 110.99C17.93 110.01 17.49 110.94 17.43 111.11C17.63 110.5 18.04 109.88 18.33 109.32C18.9 108.22 19.5 107.12 20.15 106.07C20.28 105.87 21.1 104.94 21.09 104.69C21.09 104.79 20.26 105.61 20.94 104.89C21.11 104.71 21.27 104.54 21.44 104.37C21.61 104.2 21.8 104.06 21.97 103.89C22.67 103.23 21.83 103.93 21.81 103.96C22.02 103.62 23.06 103.35 23.43 103.26C22.39 103.53 23.97 103.37 24.23 103.35C24.83 103.29 23.52 103.11 24.09 103.31C24.37 103.41 24.65 103.47 24.93 103.57C25.15 103.66 25.36 103.76 25.58 103.86C26.1 104.08 25.89 103.78 25.47 103.75C25.89 103.78 26.66 104.62 26.97 104.9C27.32 105.21 27.87 105.58 28.09 105.99C27.66 105.16 27.7 105.52 27.95 105.85C28.15 106.11 28.36 106.36 28.56 106.62C29.26 107.54 29.88 108.5 30.49 109.48C31.68 111.39 32.83 113.32 34.07 115.19C36.8 119.31 40.03 123.26 44.3 125.86C45.58 126.64 46.81 127.37 48.28 127.68C50.55 128.17 52.4 127.69 54.25 126.34C57.15 124.21 58.23 120.37 59.03 117.05C59.89 113.5 60.26 109.86 60.33 106.21C60.36 104.71 60.31 103.21 60.17 101.72C59.91 98.8798 59.71 96.0698 57.77 93.7998C56.81 92.6798 55.82 91.7998 54.26 92.1598C52.8 92.4998 51.73 93.8298 51.32 95.2398C51.06 96.1198 50.7 97.0198 50.59 97.9298C50.4 99.4198 50.55 100.74 50.72 102.23C50.48 100.14 50.65 101.71 50.69 102.2C50.74 102.83 50.77 103.46 50.79 104.09C50.82 105.04 50.79 105.98 50.78 106.93C50.74 107.73 50.75 107.56 50.82 106.41C50.8 106.72 50.77 107.04 50.74 107.35C50.69 107.82 50.64 108.29 50.58 108.76C50.44 109.78 50.27 110.79 50.05 111.79C50 112.02 49.95 112.25 49.9 112.48C49.72 113.22 49.75 113.09 50 112.1C49.87 112.36 49.81 112.76 49.71 113.04C49.63 113.26 49.08 114.67 49.55 113.52C50.06 112.28 49.26 113.8 49.25 113.91C49.85 113.21 50 113.03 49.69 113.35C49.59 113.46 49.47 113.57 49.35 113.67C50.08 113.22 50.2 113.13 49.71 113.4C49.52 113.49 49.33 113.56 49.13 113.61L50.39 113.32C49.83 113.44 49.33 113.43 48.77 113.34L50.04 113.57C49.02 113.32 48.15 112.85 47.21 112.39C46.7 112.14 47.53 112.58 47.56 112.62C47.46 112.49 47.1 112.32 46.94 112.22C46.49 111.91 46.04 111.58 45.62 111.24C44.95 110.7 44.32 110.12 43.71 109.52C43.41 109.22 43.14 108.86 42.82 108.59C43.73 109.35 43.29 109.14 43.04 108.83C42.84 108.59 42.64 108.35 42.44 108.11C40.01 105.12 38.01 101.81 35.85 98.6198C33.38 94.9698 29.9 91.0798 25.36 90.2698C20.29 89.3598 16.46 92.7298 13.95 96.8098C8.99999 104.86 5.58999 114.56 4.90999 124C4.19999 133.99 6.31999 143.77 11.07 152.59C13.37 156.85 16.12 160.83 19.11 164.64C22.1 168.45 25.29 172.58 28.82 176.17C30.43 177.8 32.55 176.28 33.32 174.68C34.32 172.58 34.28 169.6 32.87 167.66L32.86 167.64Z" fill="#1D1D1B"/>
<path d="M69.9 71.9C69.15 64.62 68.69 57.34 69.01 50.02C69.03 49.54 69.05 49.07 69.08 48.59C69.09 48.37 69.16 46.76 69.1 48.21C69.13 47.42 69.21 46.63 69.28 45.84C69.44 43.94 69.64 42.05 69.88 40.17C70.34 36.55 70.95 32.95 71.71 29.38C71.91 28.45 72.11 27.52 72.33 26.59C72.42 26.2 72.51 25.82 72.61 25.43C72.68 25.13 72.9 24.07 72.65 25.26C72.93 23.9 73.39 22.54 73.86 21.22C74.09 20.57 74.34 19.92 74.61 19.28C74.7 19.07 74.8 18.86 74.89 18.65C75.36 17.52 74.31 19.73 74.89 18.66C75.21 18.06 75.53 17.47 75.89 16.89C76.1 16.55 76.66 15.4 77.03 15.26L76.64 15.74C76.78 15.58 76.92 15.42 77.07 15.26C77.29 15.03 77.51 14.8 77.75 14.58C78.05 14.3 78.58 13.67 78.97 13.58L78.53 13.88C78.71 13.77 78.88 13.66 79.07 13.56C79.34 13.41 79.62 13.27 79.91 13.15C80.1 13.07 80.3 12.99 80.5 12.92C80.77 12.82 82.06 12.6 80.96 12.75C81.68 12.65 82.38 12.57 83.11 12.6C83.35 12.61 83.59 12.64 83.83 12.66C84.94 12.76 83.09 12.36 84.14 12.73C84.84 12.98 85.53 13.17 86.2 13.5C86.42 13.61 86.64 13.73 86.86 13.84C85.86 13.34 87.19 14.08 87.4 14.24C87.83 14.56 88.91 15.23 89.09 15.74C89.06 15.66 88.34 14.81 88.96 15.59C89.19 15.89 89.43 16.18 89.65 16.49C89.87 16.8 90.06 17.12 90.26 17.43C90.95 18.49 89.81 16.29 90.32 17.58C90.57 18.21 91.31 19.27 91.23 19.94L90.99 19.19C91.06 19.46 91.13 19.73 91.2 20.01C91.28 20.35 91.35 20.7 91.42 21.05C91.49 21.4 91.55 21.75 91.6 22.1L91.66 22.52C91.75 23.25 91.73 23.08 91.61 22.03C91.4 22.51 91.74 23.82 91.76 24.37C91.79 25.29 91.79 26.22 91.77 27.14C91.75 28 91.72 28.87 91.67 29.73C91.64 30.24 91.8 31.25 91.68 29.6C91.71 30.06 91.61 30.58 91.57 31.04C91.41 32.96 91.22 34.87 91.01 36.79C90.58 40.92 90.17 45.05 89.97 49.2C89.62 56.39 90.4 63.53 92.81 70.34C94.85 76.11 98.47 81.92 103.56 85.47C105.09 86.54 106.77 87.58 108.54 88.18C111 89.02 113.23 88.9 115.67 88.08C119.41 86.82 122.89 84.58 126.11 82.34C129.06 80.28 131.78 77.9 134.18 75.22C135.29 73.98 136.34 72.67 137.54 71.51C137.88 71.19 138.82 70.06 139.25 70.07L138.68 70.47C138.88 70.35 139.09 70.24 139.3 70.13C139.72 69.93 140.15 69.78 140.59 69.65L139.27 69.95C140.08 69.77 140.84 69.75 141.66 69.89L140.33 69.65C140.62 69.72 140.91 69.79 141.19 69.9C141.94 70.19 141.62 70.46 141.01 69.7C141.15 69.88 141.5 70.09 141.69 70.24C142.56 70.92 140.82 69.02 141.44 69.95C141.61 70.2 141.78 70.45 141.95 70.7C142.63 71.71 141.27 69.15 141.71 70.3C141.83 70.6 141.96 70.89 142.07 71.2C142.64 72.75 141.87 70.28 141.96 70.82C142.07 71.42 142.24 72.01 142.34 72.61C142.4 72.94 142.43 73.26 142.48 73.59C142.04 71.07 142.33 72.22 142.38 72.86C142.54 74.86 142.64 76.86 142.72 78.86C142.86 82.79 142.85 86.72 142.68 90.65C142.65 91.44 142.52 92.26 142.56 93.05C142.46 90.85 142.6 92.38 142.56 92.94C142.53 93.42 142.49 93.9 142.45 94.38C142.28 96.46 142.07 98.53 141.81 100.6C141.34 104.42 140.72 108.22 139.95 111.99C139.18 115.76 138.04 119.43 137.46 123.21C136.74 127.95 136.94 133.1 139.01 137.51C140.66 141.03 143.46 144.46 147.42 145.37C154.16 146.91 159.41 142.19 165.64 140.74L164.32 141.04C165.62 140.77 166.9 140.69 168.21 140.92L166.88 140.68C167.57 140.84 168.17 141.2 168.83 141.38C169.2 141.58 169.03 141.47 168.32 141.06C168.45 141.15 168.58 141.25 168.71 141.35C168.93 141.56 169.19 141.82 169.43 141.99C169.76 142.32 169.59 142.13 168.94 141.43C169.08 141.6 169.21 141.77 169.34 141.95C169.51 142.19 169.79 142.51 169.87 142.79L169.36 141.86C169.46 142.06 169.55 142.27 169.63 142.47C169.88 143.09 169.87 144.03 169.52 141.95C169.58 142.28 169.69 142.61 169.76 142.95C169.89 143.64 169.78 144.63 169.72 142.28C169.72 142.62 169.76 142.96 169.77 143.3C169.77 144.3 169.34 144.15 169.83 142.62C169.7 143.02 169.72 143.52 169.64 143.94C169.59 144.23 169.52 144.52 169.46 144.81L169.7 143.83C169.61 144.71 169.08 145.75 168.76 146.56C168.59 146.97 168.42 147.39 168.24 147.79C168.15 148 167.58 149.46 167.96 148.43C168.34 147.4 167.75 148.85 167.65 149.06C167.42 149.53 167.19 150 166.96 150.47C165.98 152.47 164.98 154.48 164.2 156.56C162.35 161.5 161.64 166.9 162.75 172.09C163.09 173.69 163.89 175.58 165.2 176.65C166.24 177.5 167.85 177.98 169.13 177.33C172.4 175.67 173.15 170.97 172.44 167.73C172.41 167.59 172.23 167.04 172.27 166.86C172.27 166.89 172.35 168.93 172.36 167.6C172.36 167.23 172.4 165.51 172.32 166.87C172.24 168.33 172.46 166.22 172.52 165.92C172.56 165.7 172.63 165.48 172.66 165.27C172.45 167.07 172.44 166.16 172.61 165.6C172.94 164.52 173.34 163.46 173.79 162.41C174.02 161.87 174.33 161.32 174.53 160.77C174.48 160.92 173.84 162.19 174.36 161.13C174.49 160.86 174.62 160.59 174.75 160.32C177.4 154.84 179.78 149.43 179.8 143.21C179.82 137.9 177.92 132.16 173.93 128.51C170.53 125.4 166.12 125.15 161.89 126.29C158.19 127.29 154.91 129.42 151.19 130.35L152.52 130.04C151.25 130.33 149.99 130.44 148.7 130.24L150.05 130.48C149.4 130.35 148.77 130.17 148.16 129.89C147.97 129.8 147.25 129.45 148.01 129.83C148.68 130.17 148.2 129.94 148.05 129.81C147.92 129.69 147.78 129.59 147.65 129.47C146.89 128.78 147.7 129.39 147.86 129.76C147.74 129.47 147.42 129.16 147.24 128.9C146.6 127.97 147.88 130.32 147.32 129.01C147.03 128.33 147.01 127.26 147.34 129.3C147.27 128.89 147.16 128.47 147.08 128.06C146.9 127.13 147.2 130.04 147.19 128.97C147.19 128.73 147.16 128.5 147.16 128.26C147.16 128.02 147.17 127.79 147.16 127.55C147.13 126.67 147.11 128.5 147.1 128.41C146.94 127.39 147.45 125.89 147.66 124.89C148.11 122.78 148.67 120.7 149.13 118.59C151.17 109.38 152.25 100.01 152.66 90.59C152.85 86.18 152.84 81.77 152.64 77.36C152.43 72.73 152.12 68.16 150.62 63.74C149.39 60.12 146.78 56.08 142.89 54.98C138.45 53.72 134.49 56.01 131.48 59.15C128.47 62.29 125.94 65.35 122.56 67.94C122.12 68.28 121.68 68.6 121.23 68.93C121.12 69.01 120.86 69.27 120.72 69.29L121.21 68.96C121.04 69.08 120.86 69.19 120.69 69.3C119.82 69.86 118.93 70.4 118.02 70.9C116.04 72 113.93 73.1 111.73 73.68L113.05 73.38C112.16 73.56 111.35 73.58 110.46 73.43L111.8 73.67C110.59 73.38 109.46 72.87 108.38 72.26C108.02 72.05 107.46 71.54 108.54 72.37C108.36 72.23 108.15 72.12 107.96 71.99C107.39 71.6 106.84 71.18 106.31 70.73C105.96 70.43 105.62 70.12 105.29 69.8C104.88 69.4 103.86 67.97 104.9 69.43C104.23 68.48 103.46 67.6 102.83 66.61C102.52 66.11 102.26 65.58 101.93 65.09C101.97 65.16 102.69 66.57 102.23 65.63C102.13 65.42 102.02 65.2 101.92 64.99C101.38 63.85 100.92 62.68 100.51 61.49C100.41 61.21 100.3 60.92 100.23 60.63C100.24 60.68 100.72 62.4 100.45 61.32C100.3 60.73 100.14 60.15 100.01 59.56C99.74 58.38 99.56 57.2 99.38 56.01C99.2 54.82 99.47 56.84 99.47 56.85C99.39 56.55 99.41 56.2 99.38 55.9C99.32 55.18 99.28 54.46 99.25 53.74C99.18 52.14 99.18 50.54 99.23 48.94C99.25 48.14 99.28 47.34 99.33 46.54C99.34 46.29 99.31 45.84 99.38 45.58C98.96 47.15 99.33 46.37 99.38 45.76C99.5 44.07 99.65 42.38 99.79 40.7C100.35 34.12 100.98 27.49 100.23 20.9C99.48 14.31 97.3 7.96002 92.25 3.69002C88.09 0.170016 82.16 -1.31998 77.12 1.24002C72.36 3.66002 69.47 8.45002 67.54 13.25C65.43 18.51 64.39 24.3 63.47 29.87C61.08 44.18 60.71 59.13 62.86 73.49C63.14 75.36 64.75 77.87 66.92 77.34C69.09 76.81 70.13 73.87 69.92 71.86L69.9 71.9Z" fill="#1D1D1B"/>
<path d="M123.37 26.5299C123.48 27.1199 123.62 27.7099 123.79 28.2799C124.07 29.2199 124.33 30.1699 124.78 31.0499C125.07 31.6099 125.37 32.2199 125.74 32.7399C126.11 33.2599 126.54 33.7299 126.99 34.1799C127.37 34.5499 127.99 34.9999 128.44 35.1699C129.21 35.4599 130.25 35.3399 130.99 35.0399L131.79 34.4999L132.46 33.6699L132.97 32.6099C133.21 31.9799 133.33 31.3399 133.33 30.6699C133.4 30.2099 133.39 29.7499 133.3 29.2899C133.3 28.8399 133.2 28.4099 133.04 27.9899C132.96 27.5799 132.8 27.1999 132.57 26.8599C132.35 26.3499 132.02 25.9099 131.58 25.5499C131.27 25.3199 130.92 25.1399 130.58 24.9399L131.42 25.4499C131.3 25.3699 131.18 25.2899 131.06 25.1899C130.75 24.9399 130.43 24.6699 130.04 24.5699C129.98 24.5499 129.91 24.5399 129.85 24.5199C129.59 24.4399 129.35 24.3299 129.12 24.1899L129.96 24.6999C129.58 24.4699 129.25 24.1699 128.95 23.8399L129.63 24.5999C129.14 24.0499 128.75 23.4299 128.4 22.7899L128.89 23.6899C128.77 23.4699 128.66 23.2499 128.55 23.0299C128.39 22.5599 128.13 22.1599 127.78 21.8199C127.53 21.4699 127.2 21.2199 126.78 21.0599L126.01 20.9199C125.59 20.9199 125.22 21.0599 124.91 21.3199C124.65 21.4499 124.44 21.6399 124.29 21.8999C123.96 22.2599 123.72 22.6699 123.58 23.1499C123.22 24.2499 123.16 25.3899 123.37 26.5299Z" fill="#1D1D1B"/>
<path d="M9.94 21.8001C9.86 22.4701 9.82 23.1501 9.81 23.8301C9.81 24.0401 9.81 24.2501 9.84 24.4601C9.91 25.1301 9.95 25.8101 10.09 26.4701C10.23 27.1301 10.44 27.7301 10.64 28.3501C10.7 28.5401 10.77 28.7201 10.86 28.9001C11.03 29.2601 11.29 29.7401 11.5 30.0701C11.55 30.1401 12.05 30.7001 12.32 30.9901C12.38 31.0501 12.43 31.1101 12.49 31.1601C12.96 31.6001 13.56 31.9401 14.12 32.2401L15 32.4001L15.87 32.2001L16.65 31.6701C17.05 31.3001 17.35 30.8601 17.55 30.3501C17.76 30.0001 17.89 29.6301 17.95 29.2301C18.09 28.8201 18.16 28.3901 18.14 27.9501C18.21 27.5001 18.2 27.0601 18.11 26.6101C18.08 25.9701 17.93 25.3401 17.67 24.7501C17.5 24.4201 17.35 24.0701 17.24 23.7101L17.63 24.9901C17.43 24.3301 17.34 23.7001 17.07 23.0401C16.98 22.8201 16.9 22.6101 16.83 22.3901L17.24 23.7201C17.15 23.4201 17.09 23.1201 17.05 22.8101L17.22 24.3001C17.19 23.9901 17.18 23.6801 17.2 23.3701L17.1 24.8701C17.1 24.7801 17.11 24.6901 17.12 24.6101C17.26 23.8601 17.26 23.1101 17.13 22.3701C17.09 21.6501 16.93 20.9601 16.64 20.2901C16.43 19.6901 16.1 19.1701 15.65 18.7401C15.33 18.2901 14.9 17.9701 14.37 17.7601L13.38 17.5801C12.66 17.6201 12.05 17.8901 11.54 18.3901L10.81 19.2901C10.35 20.0601 10.05 20.9001 9.92 21.7901L9.94 21.8001Z" fill="#1D1D1B"/>
<path d="M1.08999 170.97C2.47999 172.74 4.00999 174.42 5.64999 175.95C6.33999 176.59 7.06999 177.13 7.86999 177.64C8.18999 177.84 8.52999 178.12 8.87999 178.26C9.18999 178.39 9.62999 178.4 9.95999 178.46C10.15 178.49 10.35 178.53 10.54 178.56C10.98 178.63 11.34 178.6 11.78 178.54C12.26 178.47 12.7 178.31 13.06 177.98C13.6 177.49 13.89 176.78 14.06 176.09C14.23 175.4 14.26 174.75 14.19 174.06C14.09 173.22 13.83 172.58 13.43 171.84L13.35 171.69L13.78 172.49C13.08 171.19 12.34 169.68 11.22 168.67C10.55 168.06 9.87999 167.46 9.17999 166.88C7.81999 165.76 6.54999 164.53 5.37999 163.21L6.08999 164C5.95999 163.86 5.83999 163.71 5.70999 163.57C5.05999 162.82 4.35999 162.09 3.27999 162.12C2.30999 162.14 1.38999 162.89 0.919991 163.69C0.279991 164.78 -0.0500091 166.09 0.0199909 167.36C0.0899909 168.63 0.319991 169.99 1.09999 170.98L1.08999 170.97Z" fill="#1D1D1B"/>
</g>
<defs>
<clipPath id="clip0_3416_11786">
<rect width="179.76" height="252.1" fill="white"/>
</clipPath>
</defs>
</svg>
