<svg width="147" height="279" viewBox="0 0 147 279" fill="none" xmlns="http://www.w3.org/2000/svg">
<g clip-path="url(#clip0_3416_11973)">
<path d="M84.74 225.81C91.81 225.57 98.9 225.64 105.97 225.37C110.96 225.18 115.97 225.13 120.96 225.43C124.39 225.63 127.83 225.99 131.19 226.72C131.82 226.86 132.45 227.01 133.08 227.18C133.58 227.31 132.71 227.07 133.19 227.21C133.33 227.25 133.47 227.29 133.61 227.34C133.92 227.44 134.23 227.54 134.54 227.64C135.5 227.97 136.44 228.36 137.34 228.83C138.04 229.2 138.72 229.62 139.34 230.1C139.61 230.31 140.34 231.12 139.73 230.4C139.94 230.66 140.21 230.87 140.43 231.13C140.62 231.35 140.8 231.57 140.96 231.81C141.04 231.92 141.11 232.04 141.19 232.15C141.62 232.75 140.85 231.49 141.07 231.93C141.29 232.37 141.51 232.8 141.7 233.25C142.08 234.13 141.37 232.25 141.63 233.06C141.7 233.28 141.77 233.5 141.84 233.72C141.96 234.1 142.08 234.49 142.21 234.87C142.34 235.25 142.49 235.6 142.61 235.97C142.16 234.54 142.78 236.57 142.53 235.74L142.59 236.17C142.55 235.69 142.53 235.73 142.55 236.28V235.94C142.49 236.41 142.48 236.52 142.52 236.25C142.6 235.7 142.33 237.09 142.35 236.97C142.08 238.27 142.62 236.38 142.23 237.39C142.07 237.8 141.93 238.21 141.75 238.61C141.62 238.91 141.48 239.2 141.34 239.49C141.64 238.91 141.14 239.82 141.12 239.85C140.79 240.39 140.43 240.91 140.05 241.42C139.19 242.55 138.52 243.24 137.48 244.11C133.32 247.63 128.12 249.63 122.99 251.29C116.02 253.54 108.82 255.24 101.73 257.1C86.36 261.15 70.82 264.78 55.11 267.2C45.75 268.64 36.3 269.96 26.81 269.86C23.1 269.82 19.39 269.57 15.73 268.91C12.51 268.33 9.39997 267.52 6.55997 265.67C6.02997 265.33 5.52997 264.95 5.04997 264.53C5.48997 264.92 4.76997 264.23 4.65997 264.11C4.40997 263.83 4.19997 263.52 3.96997 263.22C3.83997 263.06 3.63997 262.58 3.99997 263.29C3.92997 263.15 3.83997 263.01 3.76997 262.87C3.70997 262.73 3.64997 262.56 3.56997 262.43C3.25997 261.93 3.74997 263.2 3.62997 262.62C3.59997 262.48 3.54997 262.29 3.48997 262.15C3.23997 261.55 3.61997 263.09 3.54997 262.44C3.52997 262.3 3.52997 262.07 3.47997 261.94C3.82997 262.83 3.53997 262.7 3.50997 262.11C3.47997 261.48 3.76997 261.88 3.48997 262.42C3.54997 262.3 3.52997 261.98 3.53997 261.85C3.58997 261.21 3.35997 261.63 3.50997 262.01C3.46997 261.9 3.60997 261.52 3.62997 261.4C3.67997 261.19 3.73997 260.98 3.78997 260.78C3.94997 260.04 3.51997 261.44 3.80997 260.72C4.01997 260.19 4.19997 259.66 4.42997 259.14C4.88997 258.09 5.08997 257.72 5.62997 256.82C6.33997 255.62 7.12997 254.47 8.00997 253.4C11.57 249.06 16.51 245.95 21.51 243.52C26.51 241.09 32.15 238.98 37.64 237.13C40.09 236.3 42.56 235.53 45.03 234.77C46.7 234.25 46.45 228.94 44.89 229.25C33.44 231.54 21.53 234.23 11.98 241.34C4.19997 247.14 -3.09003 258.29 1.34997 268.24C4.31997 274.9 12.8 276.66 19.29 277.47C26.53 278.38 33.88 278.24 41.13 277.6C57.77 276.12 74.3 273.42 90.65 270.03C98.78 268.34 106.92 266.57 114.96 264.46C121.12 262.85 127.27 261.18 132.85 258.04C138.14 255.06 142.78 250.71 144.96 244.94C146.61 240.57 147.19 235.46 145.7 230.96C145.54 230.47 145.35 229.98 145.15 229.5C145.08 229.31 144.92 228.87 145.2 229.65C145.51 230.51 145.23 229.72 145.15 229.49C144.18 226.7 143.02 224.24 140.64 222.36C137.03 219.51 131.85 218.73 127.42 218.3C117.05 217.29 106.46 218.25 96.23 219.99C92.34 220.65 88.49 221.48 84.64 222.33C83.59 222.56 83.64 225.86 84.73 225.83L84.74 225.81Z" fill="black"/>
<path d="M52.93 248.48C52.03 238.63 50.1 228.89 48.44 219.15C46.78 209.41 45.17 200.01 43.53 190.44C40.3 171.6 36.99 152.77 32.5 134.18C30.02 123.91 27.17 113.72 23.78 103.71C23.35 102.44 22.25 99.9701 20.64 101.47C19.03 102.97 19 106.31 19.38 108.17C20.11 111.81 21.21 115.58 22.6 119.03C22.91 119.81 23.68 120.44 24.41 119.76C25.23 118.99 25.38 117.34 25.33 116.31C25.23 114.32 25 112.36 24.76 110.39C24.54 108.62 24.42 106.8 24.06 105.05L19.66 109.52C22.7 118.34 25.33 127.29 27.64 136.33C28.81 140.89 29.89 145.46 30.92 150.06C31.43 152.32 31.92 154.58 32.4 156.84C32.45 157.07 32.5 157.31 32.55 157.54C32.38 156.73 32.55 157.54 32.58 157.67C32.69 158.22 32.81 158.77 32.92 159.31C33.16 160.48 33.4 161.66 33.64 162.84C37.38 181.44 40.61 200.14 44.03 218.81C46 229.55 47.56 240.48 50.45 251.01C50.65 251.75 51.34 253.1 52.22 252.27C53.15 251.4 53.04 249.61 52.93 248.49V248.48Z" fill="black"/>
<path d="M21.61 104.5C21.1 104.03 20.6 103.46 20.56 102.74C20.55 102.51 20.6 102.26 20.66 102.04C20.76 101.71 20.54 102.02 20.9 101.73C22.22 100.69 23.56 99.6501 25.1 98.9301C28.81 97.2001 32.88 96.0601 36.85 95.1101C41.02 94.1101 45.29 93.5101 49.56 93.2101C53.83 92.9101 58.49 92.6701 62.96 92.8301L60.99 89.5701C62.09 100.16 63.1 110.75 64.39 121.32C65.68 131.89 67.18 142.34 68.81 152.81C70.44 163.28 72.15 173.55 74.04 183.88C75.93 194.21 77.81 204.46 80.22 214.63C82.81 225.55 86.22 236.38 91.44 246.35C91.77 246.98 92.35 247.98 93.22 247.95C94.09 247.92 94.66 246.91 94.92 246.26C95.82 243.96 95.9 240.56 94.72 238.31C93.54 236.06 92.55 233.97 91.59 231.74C91.14 230.7 90.71 229.65 90.29 228.59C90.07 228.03 89.85 227.46 89.64 226.89C89.6 226.79 89.28 225.91 89.45 226.39C89.61 226.81 89.18 225.64 89.2 225.67C87.58 221.08 86.24 216.41 85.05 211.69C84.48 209.4 83.94 207.1 83.43 204.79C83.3 204.19 83.17 203.6 83.04 203C82.97 202.67 82.69 201.32 82.9 202.33C82.64 201.06 82.38 199.79 82.13 198.52C81.14 193.56 80.2 188.6 79.29 183.62C75.5 163.07 72.25 142.43 69.29 121.75C67.64 110.22 65.98 98.6501 64.72 87.0601C64.61 86.0601 64.09 83.8501 62.75 83.8001C58.75 83.6501 54.7 83.6801 50.74 84.2801C46.78 84.8801 42.79 85.7901 38.91 86.9501C35.03 88.1101 31.23 89.4401 27.53 91.0801C25.86 91.8201 24.19 92.6101 22.73 93.7201C21.15 94.9201 20.17 96.2501 19.63 98.1601C18.75 101.29 18.24 105.32 21.12 107.61C21.89 108.22 22.25 105.04 21.62 104.46L21.61 104.5Z" fill="black"/>
<path d="M32.19 255.27C54.21 257.74 77.58 259.61 98.07 249.43C103.43 246.77 107.9 243.17 111.86 238.7C112.8 237.64 112.68 235.41 112.4 234.16C112.26 233.53 111.56 231.26 110.48 232.11C102.89 238.09 94.06 242.83 84.88 245.83C74.35 249.27 63.18 250.43 52.15 250.86C45.47 251.12 38.77 251.05 32.08 250.97C30.78 250.95 30.83 255.13 32.19 255.28V255.27Z" fill="black"/>
<path d="M40.49 91.13C40.83 86.41 40.44 81.64 39.79 76.95C39.18 72.58 38.17 68.02 36.39 63.97C36.07 63.23 35.37 62.6 34.65 63.27C33.87 64 33.69 65.61 33.76 66.59C34.09 71.01 34.68 75.46 35.48 79.82C36.28 84.18 36.93 88.14 38.04 91.94C38.21 92.54 38.63 93.6 39.42 93.38C40.21 93.16 40.44 91.78 40.49 91.14V91.13Z" fill="black"/>
<path d="M20.58 0.110158C13.76 6.53016 8.43999 14.4402 5.10999 23.2002C3.17999 28.2802 2.28999 33.4302 2.64999 38.8702C3.07999 45.2402 4.83999 51.4602 8.32999 56.8502C14.32 66.0802 26.31 71.2902 36.98 67.5802C47.65 63.8702 53.35 50.6402 50.86 39.6602C49.58 34.0302 46.01 29.3502 42.65 24.7902C41.11 22.7002 39.62 20.6702 38.52 18.4502C38.24 17.8902 37.98 17.3102 37.76 16.7302C37.99 17.3402 37.66 16.3902 37.65 16.3502C37.62 16.2502 37.34 15.1702 37.44 15.6302C37.56 16.1802 37.37 15.1902 37.37 15.1902C37.34 14.9902 37.32 14.7802 37.29 14.5802C37.33 15.0602 37.34 15.1502 37.33 14.8502C37.3 14.6202 37.35 13.8902 37.3 14.8002C37.32 14.3702 37.37 13.9402 37.43 13.5102C37.54 12.7302 37.13 7.38016 35.2 8.72016C31.58 11.2302 30.66 15.8002 29.87 19.8502C29.51 21.7202 29.2 23.5702 27.93 25.0602C26.9 26.2702 25.29 27.0602 23.68 26.9502C22.07 26.8402 21.32 25.5202 20.99 24.2702C20.46 22.2502 20.21 20.1402 20.12 18.1002C19.92 13.4302 20.52 8.82016 21.6 4.29016C21.8 3.45016 21.78 2.26016 21.29 1.51016C20.87 0.870158 20.36 1.03016 20.06 1.71016C16.42 9.75016 16.31 19.3102 18.33 27.7902C19.13 31.1402 21.27 35.1402 25.34 34.4302C29.41 33.7202 31.34 29.9802 32.36 26.3502C33.38 22.7202 33.05 18.5602 36.3 16.3002L34.07 11.5102C33.36 16.6102 34.72 21.6802 37.32 26.0702C39.72 30.1302 42.83 33.6902 45.35 37.6702C45.82 38.4102 46.29 39.2802 46.71 40.1502C46.95 40.6502 47.17 41.1602 47.38 41.6702C47.63 42.2802 47.48 41.9402 47.43 41.8002C47.55 42.1702 47.67 42.5402 47.77 42.9102C47.81 43.0702 47.97 43.8202 47.84 43.1602C47.88 43.3902 47.92 43.6202 47.95 43.8402C47.97 43.9802 48.04 45.1102 48 44.1602C48 44.3902 48.01 44.6202 48.03 44.8502C48.08 45.9402 48.09 44.3302 48.04 44.9902C48.02 45.2802 48 45.5602 47.97 45.8502C47.95 46.0802 47.92 46.3102 47.89 46.5302C48 45.7802 47.79 46.9502 47.76 47.0902C47.7 47.3702 47.63 47.6502 47.55 47.9302C47.67 47.5002 47.52 48.0402 47.5 48.1002C47.31 48.6402 47.1 49.1802 46.87 49.7102C46.42 50.7202 45.92 51.5702 45.24 52.5302C43.94 54.3702 42.34 55.9202 40.46 57.1702C32.22 62.6302 20.29 60.5202 13.47 53.6802C9.87999 50.0802 7.60999 45.6502 6.61999 40.9702C6.65999 41.1402 6.72999 41.5902 6.59999 40.8102C6.54999 40.4902 6.48999 40.1702 6.43999 39.8502C6.34999 39.2702 6.27999 38.6902 6.22999 38.1002C6.30999 39.0002 6.20999 37.7102 6.20999 37.6302C6.19999 37.3702 6.18999 37.1102 6.17999 36.8502C6.17999 36.5202 6.17999 36.2002 6.17999 35.8702C6.17999 35.6702 6.17999 35.4802 6.17999 35.2802C6.16999 35.7102 6.17999 35.6802 6.19999 35.1902C6.23999 34.7202 6.27999 34.2602 6.32999 33.7902C6.34999 33.5502 6.48999 32.9402 6.30999 33.8602C6.33999 33.6802 6.36999 33.5102 6.40999 33.3302C6.49999 32.8702 6.60999 32.4102 6.71999 31.9602C6.77999 31.7202 6.83999 31.4902 6.90999 31.2502C6.93999 31.1302 7.24999 30.1402 7.04999 30.7502C8.62999 25.8202 11.03 21.0702 13.49 16.5302C15.95 11.9902 18.21 7.56016 21.32 3.56016C21.79 2.96016 21.75 1.89016 21.6 1.20016C21.54 0.920158 21.12 -0.359842 20.6 0.130158L20.58 0.110158Z" fill="black"/>
<path d="M23.32 119.17C22.91 121.35 23.01 123.57 23.77 125.67C24.4 127.41 25.6 129.45 27.16 130.49C27.39 130.63 27.63 130.62 27.85 130.47C30.89 128.76 32.03 125.06 35.05 123.38C38.07 121.7 40.1 124.05 40.95 126.65C42.17 130.35 43.16 134.1 44.73 137.69C46.3 141.28 48.17 144.82 50.24 148.2C51.51 150.28 54.4 156.09 57.6 153.77C59.08 152.7 59.63 150.58 59.94 148.88C60.31 146.82 60.46 144.69 60.36 142.6C60.18 138.7 59.24 134.92 58.26 131.15C57.86 129.59 57.44 128.03 57.15 126.44C56.99 125.56 56.84 124.67 56.76 123.77C56.73 123.46 56.84 122.34 56.72 122.02C56.44 121.28 56.58 122.94 56.43 122.74C56.44 122.75 56.99 122.83 57.06 122.86C57.39 123 57.66 123.25 57.89 123.52C58.44 124.19 58.84 124.94 59.6 125.42C60.3 125.86 61.16 125.99 61.89 125.55C62.87 124.95 62.78 123.53 62.93 122.53C63.22 120.63 63.78 118.77 64.53 117.01C65.39 115 66.63 113.25 67.68 111.35C68.11 110.57 68.17 109.64 67.98 108.78C67.9 108.43 67.5 107.14 66.9 107.62C64.92 109.21 63.65 111.81 62.66 114.1C61.54 116.69 60.88 119.42 60.52 122.21L61.6 120.22C60.25 120.65 59.61 118.66 58.93 117.82C58.14 116.85 56.68 115.72 55.41 116.56C53.96 117.51 53.94 119.89 53.89 121.41C53.83 123.23 53.94 125.04 54.18 126.84C54.62 130.1 55.5 133.29 56.26 136.48C56.57 137.77 56.86 139.05 57.06 140.36C57.26 141.67 57.44 143.07 57.28 144.15C57.19 144.79 57.17 145.98 56.53 146.32C55.37 146.92 54.41 145.32 53.88 144.54C52 141.8 50.32 138.93 48.81 135.98C47.3 133.03 46.03 130.17 44.85 127.19C43.82 124.61 43.11 121.9 41.6 119.55C39.92 116.92 37.05 115.76 34.2 117.42C31.14 119.21 30.05 122.96 27.04 124.74L27.73 124.72C26.86 124.17 26.17 123.9 25.63 122.96C25.23 122.26 25.12 121.7 25.23 120.93C25.34 120.16 25.26 118.7 24.58 118.2C23.9 117.7 23.46 118.55 23.34 119.18L23.32 119.17Z" fill="black"/>
</g>
<defs>
<clipPath id="clip0_3416_11973">
<rect width="146.56" height="278.09" fill="white"/>
</clipPath>
</defs>
</svg>
