<svg width="261" height="183" viewBox="0 0 261 183" fill="none" xmlns="http://www.w3.org/2000/svg">
<g clip-path="url(#clip0_3416_10720)">
<path d="M56.65 47.5402C54.19 43.4102 49.86 40.4902 46.15 37.5302C42.44 34.5702 39.1 31.8402 35.61 28.9502C28.62 23.1302 21.75 17.1702 15.02 11.0602C13.34 9.54023 11.64 8.03023 10.01 6.46023C9.86999 6.33023 9.72999 6.20023 9.59999 6.06023C9.87999 6.37023 9.46999 5.89023 9.44999 5.86023C9.15999 5.44023 8.98998 4.94023 9.23998 5.70023C9.33998 5.99023 9.10999 8.50023 8.91999 8.77023C8.78999 8.95023 8.73999 8.98023 8.55999 9.13023C8.63999 9.06023 8.97999 9.04023 8.71999 9.03023C8.39999 9.01023 9.23999 9.00023 9.21999 9.00023C10.22 8.99023 11.82 9.88023 12.7 10.5702C14.6 12.0402 16.46 13.5802 18.34 15.0902C25.81 21.0702 33.23 27.1002 40.66 33.1302C44.86 36.5402 49.06 39.9502 53.26 43.3602C55.33 45.0402 57.4 46.7202 59.46 48.4002C60.49 49.2402 61.53 50.0802 62.56 50.9202L64.11 52.1802L64.69 52.6502L65.27 53.1202C65.71 53.5102 65.58 53.2802 64.89 52.4302L64.47 48.6602L64.4 48.9702L65.8 46.0202L65.66 46.1402L67.26 45.4402L68.94 46.5302L69.87 51.1802V51.0702C69.18 52.2002 68.47 53.3402 67.77 54.4702L67.92 54.4002C71.47 52.7202 70.6 43.9202 66.03 45.2202L65.88 45.2602C64.52 45.6502 64.04 47.5202 63.76 48.6602C63.31 50.5302 63.97 53.1902 65.53 54.4302C67.5 55.9902 69.53 54.6602 70.36 52.5802C71.23 50.3902 70.91 47.6202 69.47 45.7402C68.5 44.4702 67.02 43.5502 65.78 42.5702C61.42 39.1302 57.07 35.6902 52.71 32.2502C43.93 25.3102 35.16 18.3702 26.39 11.4102C24.18 9.66023 21.97 7.90023 19.77 6.14023C17.69 4.47023 15.68 2.64023 13.36 1.31023C11.56 0.280229 9.22998 -0.449771 7.18999 0.320229C3.95999 1.53023 3.07999 5.55023 3.71999 8.59023C4.35999 11.6302 6.44999 13.5802 8.56998 15.5402C10.48 17.3002 12.4 19.0502 14.34 20.7902C18.34 24.3802 22.38 27.9302 26.46 31.4202C31.04 35.3402 35.69 39.1902 40.38 42.9802C42.66 44.8202 44.91 46.7602 47.3 48.4702C48.51 49.3302 49.76 50.1502 50.99 50.9802C51.7 51.4702 52.41 51.9302 53.22 52.2402C53.92 52.5102 54.65 52.5802 55.39 52.6902C56.33 52.8302 56.98 51.4702 57.14 50.8002C57.42 49.6702 57.25 48.5302 56.65 47.5302V47.5402Z" fill="black"/>
<path d="M3.90001 56.1701C6.15001 56.1901 8.41001 56.2101 10.66 56.2301C16.77 56.2801 22.88 56.3401 28.99 56.3901C38.02 56.4701 47.05 56.5501 56.08 56.6301C67.13 56.7301 78.19 56.8201 89.24 56.9201C101.35 57.0301 113.46 57.1301 125.57 57.2401C137.68 57.3501 149.85 57.4501 161.99 57.5601C173.39 57.6601 184.78 57.7601 196.18 57.8601C205.81 57.9401 215.44 58.0301 225.06 58.1101C231.96 58.1701 238.85 58.2301 245.75 58.2901C249 58.3201 252.3 58.5001 255.55 58.3801C255.69 58.3801 255.83 58.3801 255.97 58.3801L253.92 55.7101C254.39 57.1701 254.72 58.6901 255.01 60.2001C255.04 60.3701 255.07 60.5501 255.11 60.7201C255.05 60.4401 254.85 59.2401 255 60.1401C255.07 60.5601 255.14 60.9801 255.21 61.4101C255.35 62.3201 255.47 63.2401 255.58 64.1501C255.7 65.1801 255.78 66.2101 255.86 67.2401C255.87 67.3901 255.88 67.5401 255.89 67.6901C255.9 67.8501 255.82 66.2501 255.84 66.8301C255.84 67.1001 255.87 67.3701 255.88 67.6501C255.9 68.2501 255.92 68.8501 255.93 69.4501C255.95 70.6801 255.93 71.9101 255.88 73.1301C255.88 73.3501 255.8 74.5301 255.87 73.4701C255.94 72.4101 255.87 73.5801 255.84 73.8201C255.79 74.5501 255.72 75.2801 255.64 76.0101C255.49 77.3801 255.27 78.7401 255.05 80.1101C254.96 80.6501 255.17 79.4901 255.16 79.5401C255.11 79.7201 255.08 79.9301 255.05 80.1201C254.98 80.4601 254.91 80.8001 254.83 81.1401C254.67 81.8801 254.49 82.6101 254.3 83.3401C254.11 84.0701 253.92 84.7301 253.71 85.4201C253.6 85.7701 253.49 86.1201 253.38 86.4701C253.33 86.6201 253.29 86.7801 253.23 86.9201C253.66 85.9101 253.33 86.6401 253.23 86.8801C252.68 88.3601 252.11 89.8201 251.45 91.2501C251.12 91.9601 250.78 92.6601 250.42 93.3601C250.24 93.7101 250.05 94.0601 249.86 94.4101C249.78 94.5601 249.7 94.7101 249.61 94.8601C249.08 95.8201 249.82 94.5201 249.49 95.0701C248.62 96.5501 247.68 97.9901 246.68 99.3901C242.27 105.49 236.53 110.32 230.64 114.92C224.42 119.78 217.87 124.23 211.09 128.27C197.82 136.18 183.55 142.71 168.68 146.95C156.03 150.56 143.13 152.26 129.99 151.64C118.12 151.08 106.28 149.31 94.68 146.73C81.88 143.88 69.28 139.97 57.31 134.59C51.49 131.98 45.81 129.01 40.43 125.58C37.81 123.91 35.26 122.13 32.81 120.22C31.64 119.31 30.49 118.36 29.36 117.39C28.83 116.93 28.3 116.45 27.77 115.98C27.51 115.74 27.25 115.5 27 115.26C26.89 115.16 26.78 115.05 26.67 114.95C26.97 115.24 26.6 114.88 26.48 114.77C21.31 109.66 16.73 103.45 13.4 97.3001C11.5 93.7801 9.85001 90.1301 8.50001 86.3601C8.43001 86.1801 8.37001 85.9901 8.31001 85.8101C8.52001 86.4601 8.07001 85.1701 8.31001 85.8101C8.17001 85.3901 8.03001 84.9701 7.90001 84.5401C7.62001 83.6501 7.36001 82.7601 7.11001 81.8701C6.66001 80.2201 6.26001 78.5501 5.92001 76.8701C5.87001 76.6301 5.67001 75.4301 5.78001 76.1801C5.89001 76.9301 5.71001 75.7401 5.67001 75.5101C5.54001 74.7101 5.42001 73.9101 5.31001 73.1101C5.11001 71.6401 4.96001 70.1701 4.85001 68.7001C4.83001 68.4401 4.76001 67.2701 4.82001 68.2601C4.88001 69.2501 4.82001 68.0801 4.80001 67.8501C4.77001 67.1701 4.75001 66.4901 4.74001 65.8101C4.72001 64.5901 4.74001 63.3801 4.78001 62.1601C4.79001 61.8501 4.81001 61.5401 4.82001 61.2301C4.86001 60.3301 4.82001 61.3801 4.79001 61.7701C4.84001 61.2101 4.87001 60.6401 4.92001 60.0801C5.00001 59.1801 5.10001 58.2801 5.21001 57.3901C5.31001 56.6601 5.41001 55.9401 5.54001 55.2201C5.57001 55.0701 5.60001 54.9301 5.62001 54.7801C5.66001 54.5001 5.31001 56.3401 5.48001 55.5501C5.53001 55.3001 5.58001 55.0601 5.63001 54.8101C5.72001 54.3801 5.81001 53.9501 5.93001 53.5301C6.54001 51.3501 6.56001 48.0001 5.08001 46.1401C3.60001 44.2801 2.22001 46.6701 1.83001 48.0801C-0.189986 55.3701 -0.229987 63.4401 0.260013 70.9601C1.32001 87.0701 7.31001 102.71 16.88 115.68C24.54 126.06 34.94 133.96 46.2 140.1C58.22 146.65 71.2 151.36 84.38 154.95C96.71 158.31 109.34 160.67 122.07 161.85C127.32 162.34 132.6 162.62 137.88 162.57C145.01 162.5 152.11 161.58 159.09 160.11C174.69 156.82 189.75 150.92 203.81 143.47C210.96 139.68 217.88 135.45 224.51 130.8C231.14 126.15 237.61 121.18 243.31 115.47C253.29 105.49 258.97 92.0001 260.31 78.0401C261.16 69.2001 260.65 60.0101 258.36 51.4001C258.26 51.0101 258.15 50.6201 258.03 50.2401C257.73 49.3201 257.25 47.5801 255.98 47.5701C253.73 47.5501 251.47 47.5301 249.22 47.5101C243.11 47.4601 237 47.4001 230.89 47.3501C221.86 47.2701 212.83 47.1901 203.8 47.1101C192.75 47.0101 181.69 46.9201 170.64 46.8201C158.53 46.7101 146.42 46.6101 134.31 46.5001C122.2 46.3901 110.03 46.2901 97.89 46.1801C86.49 46.0801 75.1 45.9801 63.7 45.8801C54.07 45.8001 44.44 45.7101 34.82 45.6301C27.92 45.5701 21.03 45.5101 14.13 45.4501C10.87 45.4201 7.58001 45.2601 4.33001 45.3601C4.19001 45.3601 4.05001 45.3601 3.91001 45.3601C1.85001 45.3401 1.51001 49.3901 1.53001 50.7601C1.55001 52.1301 1.81001 56.1401 3.91001 56.1601L3.90001 56.1701Z" fill="#1D1D1B"/>
<path d="M91.26 153.45C90.12 156.75 89.55 160.18 89.45 163.67C89.29 169.04 90.59 175.26 95.12 178.65C98.25 180.99 102.54 181.28 106.31 181.56C110.62 181.88 114.94 181.97 119.25 182.01C129.5 182.11 139.76 181.88 150 181.56C155.84 181.38 161.7 180.91 167.54 180.88C174.9 180.85 176.13 171.15 176.29 165.57C176.35 163.37 176.19 161.17 175.99 158.98C175.88 157.78 174.99 154.12 173.07 155.21C171.15 156.3 171.24 160.09 171.41 161.85C171.45 162.29 171.49 162.73 171.52 163.17C171.58 163.93 171.31 163.28 171.51 162.97C171.46 163.05 171.53 163.45 171.53 163.56C171.55 164.34 171.55 165.12 171.53 165.91C171.66 164.69 171.51 166.9 171.53 165.91C171.5 166.2 171.47 166.49 171.43 166.78C171.4 166.99 171.24 167.96 171.4 167.07C171.56 166.18 171.34 167.29 171.28 167.51C171.22 167.73 171.15 167.94 171.09 168.16C170.99 168.58 171.32 167.54 171.29 167.57C171.23 167.63 171.17 167.88 171.14 167.94C171.06 168.11 170.98 168.28 170.91 168.46C170.88 168.54 170.82 168.62 170.79 168.7C170.67 169.05 171.25 168.03 171.02 168.3C170.81 168.54 170.64 168.85 170.44 169.11C170.42 169.14 170.19 169.43 170.16 169.42C170.16 169.42 170.87 168.86 170.26 169.31C169.87 169.59 169.49 169.81 169.05 170.02C169.54 169.98 168.47 170.3 169.05 170.02C168.89 170.03 168.73 170.08 168.57 170.1C168.27 170.13 167.99 170.1 167.69 170.1C162.83 170.09 157.92 170.52 153.06 170.68C143.51 171 133.96 171.24 124.41 171.25C119.89 171.25 115.37 171.21 110.86 171.03C107.63 170.9 104.35 170.75 101.16 170.2C99.17 169.85 97.39 169.15 95.75 167.73C95.49 167.5 95.89 167.86 95.9 167.87C95.8 167.76 95.69 167.65 95.59 167.54C95.45 167.37 95.3 167.2 95.17 167.02C95.04 166.84 94.93 166.65 94.79 166.48C94.44 166.03 95.09 166.69 94.94 166.76C94.94 166.76 94.75 166.41 94.74 166.38C94.57 166 94.44 165.56 94.24 165.2C94.26 165.23 94.56 166.33 94.42 165.68C94.4 165.58 94.36 165.48 94.34 165.37C94.28 165.13 94.25 164.88 94.17 164.65C94.29 165 94.36 165.92 94.27 165.11C94.24 164.87 94.22 164.63 94.19 164.38C94.08 163.44 94.21 165.33 94.22 164.99C94.22 164.75 94.21 164.51 94.21 164.28C94.21 164.05 94.22 163.81 94.22 163.58C94.22 162.66 94.12 164.56 94.18 164.24C94.25 163.82 94.26 163.37 94.31 162.95C94.36 162.58 94.44 162.22 94.48 161.85C94.46 162.01 94.19 163.29 94.36 162.52C94.4 162.36 94.43 162.19 94.47 162.03C94.58 161.54 94.7 161.05 94.84 160.57C95.11 159.65 94.86 160.47 94.65 161.1C95.48 158.71 95.73 155.83 94.65 153.46C94.34 152.79 93.82 151.88 92.97 151.88C92.17 151.88 91.52 152.81 91.29 153.46L91.26 153.45Z" fill="#1D1D1B"/>
</g>
<defs>
<clipPath id="clip0_3416_10720">
<rect width="260.7" height="182.05" fill="white"/>
</clipPath>
</defs>
</svg>
