<svg width="265" height="213" viewBox="0 0 265 213" fill="none" xmlns="http://www.w3.org/2000/svg">
<g clip-path="url(#clip0_3416_10247)">
<path d="M5.39003 100.94C10.92 97.7599 16.46 94.5799 21.99 91.3999C30.81 86.3299 39.64 81.2599 48.46 76.1999C50.49 75.0299 52.52 73.8699 54.55 72.6999H53.29C60.39 78.3899 70.86 80.3899 79.23 76.6499C85.14 74.0099 91.12 70.9199 96.48 67.2599C101.2 64.0399 105.62 59.9099 106.95 54.1399C107.78 50.5699 107.81 46.4099 106.29 43.0299C105.58 41.4499 104.87 39.8699 104.17 38.2899L103.12 47.3199C111.21 43.2399 119.29 39.1699 127.38 35.0899C140.4 28.5299 153.43 21.9599 166.45 15.3999C169.51 13.8599 172.75 12.4699 175.71 10.7299C176.32 10.3699 175.2 10.6699 175.49 10.8199C176 11.0699 176.89 11.0299 177.45 11.1099C180.54 11.5699 183.62 12.0599 186.7 12.5799C190.61 13.2399 194.51 13.9399 198.39 14.7499C200.19 15.1199 201.99 15.5199 203.78 15.9699C204.48 16.1499 205.18 16.3299 205.87 16.5299C206.04 16.5799 206.21 16.6299 206.39 16.6799C205.71 16.4799 206.27 16.6399 206.41 16.6799C206.7 16.7799 207 16.8699 207.29 16.9799C207.76 17.1499 208.24 17.3299 208.69 17.5599C208.83 17.6299 208.97 17.7299 209.11 17.7999C209.65 18.0699 209.3 17.9899 209 17.6199C208.34 16.7999 208.12 14.9699 208.11 14.0199C208.11 14.9199 208.32 12.2099 208.14 13.3599C208.12 13.4899 208.1 13.6099 208.09 13.7399C207.99 14.5499 208.23 13.0499 208.23 12.9999C208.23 14.3199 207.57 15.8399 207.27 17.1199C206.79 19.1699 206.36 21.2299 206.07 23.3099C205.36 28.3199 205.52 33.6299 207.36 38.3899C209.08 42.8399 212.64 46.0999 217.05 47.7999C226.27 51.3599 237.19 52.2999 246.35 48.0199C246.8 47.8099 247.25 47.5899 247.66 47.3299L245.83 46.7899C245.94 46.9599 246.05 47.1299 246.15 47.2999C246.27 47.4999 246.4 47.6999 246.52 47.9099C246.71 48.2399 247.34 49.4099 246.62 48.0699C247.64 49.9999 248.69 51.9099 249.62 53.8999C250.99 56.8199 252.22 59.7999 253.32 62.8399C253.47 63.2499 253.61 63.6499 253.75 64.0599C253.8 64.1999 254.03 64.8799 253.83 64.2999C253.6 63.6099 253.95 64.6699 253.96 64.7099C254.29 65.6999 254.6 66.6999 254.9 67.6999C255.5 69.7199 256.04 71.7499 256.53 73.7999C256.78 74.8799 257.02 75.9699 257.24 77.0599C257.29 77.3199 257.34 77.5799 257.4 77.8499C257.43 78.0099 257.58 78.8599 257.47 78.1999C257.33 77.4199 257.56 78.7499 257.57 78.7599C257.63 79.0999 257.68 79.4399 257.74 79.7799C258.14 82.2499 258.45 84.7199 258.66 87.2099C258.71 87.7999 258.75 88.3899 258.8 88.9799C258.88 90.0199 258.82 89.0799 258.8 88.8899C258.83 89.1899 258.83 89.4899 258.85 89.7899C258.88 90.3799 258.9 90.9799 258.92 91.5699C258.96 92.6299 258.99 93.6799 259.02 94.7399C259.17 99.9699 259.24 105.19 259.29 110.42C259.42 123.64 259.4 136.87 259.35 150.1C259.3 162.55 259.2 175 259.08 187.45C259.02 193.75 258.81 200.07 258.87 206.37C258.87 206.46 258.87 206.55 258.87 206.64L261.25 201.24C258.96 201.24 256.66 201.24 254.37 201.24C248.13 201.24 241.89 201.24 235.65 201.24H174.46C162.19 201.24 149.91 201.24 137.64 201.24C125.37 201.24 112.78 201.24 100.34 201.24H15.2C11.87 201.24 8.52003 201.14 5.19003 201.24C5.05003 201.24 4.91003 201.24 4.76003 201.24L7.14003 206.64V184.26L5.40003 189.47C7.75003 188.36 10.02 187.05 12.21 185.67C16.44 183 20.65 179.84 23.68 175.82C25.31 173.65 26.59 171.12 27.15 168.46C27.94 164.65 27.49 161.09 26.58 157.35C25.33 152.17 23.64 146.87 20.34 142.6C15.94 136.88 9.27003 134.16 2.39003 132.71L4.77003 138.11C5.46003 125.74 6.15003 113.37 6.85003 101.01C6.95003 99.2699 7.05003 97.5199 7.14003 95.7799C7.22003 94.3999 6.79003 90.3799 4.76003 90.3799C2.73003 90.3799 2.45003 94.5199 2.38003 95.7799C1.69003 108.15 1.00003 120.52 0.30003 132.88C0.20003 134.62 0.10003 136.37 0.0100298 138.11C-0.0799702 139.85 0.36003 143.08 2.39003 143.51C5.41003 144.15 8.35003 145.03 11.1 146.44C12.25 147.03 13.36 147.7 14.41 148.47C14.86 148.8 15.29 149.15 15.71 149.51C15.91 149.69 16.12 149.87 16.31 150.05C15.87 149.64 16.56 150.32 16.68 150.44C17.44 151.25 18.14 152.13 18.76 153.06C18.9 153.27 19.04 153.48 19.17 153.7C19.4 154.08 19.49 154.26 19.2 153.73C19.48 154.25 19.76 154.77 20.01 155.31C20.48 156.31 20.76 157.43 21.26 158.4C20.99 157.88 21.02 157.68 21.22 158.3C21.3 158.55 21.38 158.8 21.45 159.05C21.62 159.6 21.77 160.15 21.92 160.71C22.23 161.85 22.5 162.99 22.77 164.14C22.84 164.45 22.87 164.79 22.99 165.08C22.84 164.68 22.85 163.86 22.9 164.67C22.95 165.53 22.86 163.25 22.86 164.11C22.86 164.89 23.04 162.62 22.89 163.65C22.74 164.68 23.18 162.61 22.96 163.33C22.9 163.54 22.84 163.76 22.79 163.97C22.62 164.68 23.18 163.06 22.87 163.73C22.76 163.97 22.66 164.23 22.55 164.47C22.45 164.68 22.32 164.88 22.24 165.1C22.06 165.55 22.65 164.48 22.37 164.88C22.3 164.98 22.25 165.09 22.18 165.19C21.89 165.64 21.59 166.08 21.27 166.51C20.6 167.4 19.86 168.24 19.08 169.03C19 169.12 18.49 169.61 18.7 169.41C18.91 169.21 18.29 169.79 18.2 169.86C17.77 170.25 17.33 170.63 16.88 171C15.15 172.43 13.32 173.74 11.43 174.95C9.08003 176.46 6.64003 177.89 4.11003 179.08C2.60003 179.79 2.37003 182.94 2.37003 184.29C2.37003 190.81 2.37003 197.33 2.37003 203.85V206.67C2.37003 208.01 2.68003 212.07 4.75003 212.07C7.04003 212.07 9.34003 212.07 11.63 212.07C17.87 212.07 24.11 212.07 30.35 212.07C39.54 212.07 48.73 212.07 57.92 212.07C69.13 212.07 80.33 212.07 91.54 212.07C103.81 212.07 116.09 212.07 128.36 212.07C140.63 212.07 153.22 212.07 165.66 212.07C177.25 212.07 188.84 212.07 200.43 212.07C210.19 212.07 219.95 212.07 229.71 212.07H250.78C254.11 212.07 257.47 212.19 260.79 212.07C260.93 212.07 261.07 212.07 261.22 212.07C263.3 212.07 263.58 207.91 263.6 206.67C263.67 201.35 263.73 196.02 263.79 190.7C263.92 178.56 264.02 166.42 264.07 154.27C264.14 140.7 264.17 127.14 264.06 113.57C263.96 100.8 264.26 87.7299 261.99 75.1199C259.72 62.5099 255.45 49.2399 248.53 38.0199C248.42 37.8499 248.32 37.6799 248.21 37.5099C247.82 36.9199 247.02 36.5599 246.38 36.9699C245.93 37.2499 245.44 37.4899 244.95 37.7099C244.44 37.9499 243.91 38.1599 243.38 38.3599C243.02 38.4899 242.66 38.6199 242.3 38.7399C242.22 38.7699 241.56 38.9699 242.12 38.7999C241.83 38.8899 241.54 38.9699 241.24 39.0399C236.36 40.3199 231.2 40.3999 226.23 39.5699C223.01 39.0299 219.71 38.1899 216.75 36.7799C215.76 36.3099 214.81 35.7499 213.94 35.0899C213.72 34.9299 213.51 34.7499 213.3 34.5799C213.23 34.5199 212.59 33.9199 213.09 34.4099C212.73 34.0499 212.39 33.6699 212.08 33.2799C211.77 32.8899 211.53 32.4799 211.25 32.0799C210.78 31.4099 211.57 32.8499 211.27 32.0899C211.18 31.8699 211.06 31.6699 210.97 31.4499C210.91 31.3099 210.85 31.1599 210.79 31.0199C210.38 30.0999 210.93 31.2199 210.85 31.2399C210.76 31.2599 210.51 29.7999 210.45 29.6699C210.94 30.6699 210.61 30.6799 210.53 30.0499C210.5 29.8199 210.47 29.5899 210.45 29.3599C210.43 29.2099 210.43 29.0499 210.41 28.8999C210.3 27.9399 210.43 30.3799 210.45 29.4099C210.45 28.9499 210.45 28.4799 210.45 28.0199C210.45 27.5599 210.67 26.7799 210.41 28.5299C210.45 28.2699 210.45 27.9899 210.48 27.7199C210.56 26.8499 210.69 25.9899 210.83 25.1199C210.89 24.7199 211.15 23.9299 210.75 25.5299C210.8 25.3199 210.83 25.0999 210.88 24.8799C210.97 24.4599 211.06 24.0399 211.15 23.6199C211.48 22.1599 211.86 20.7099 212.19 19.2399C212.58 17.4599 212.88 15.7099 212.87 13.8799C212.87 11.6899 212.47 8.88993 210.52 7.52993C209.73 6.97993 208.74 6.66993 207.84 6.36993C206.31 5.86993 204.75 5.43993 203.18 5.05993C199.37 4.12993 195.52 3.38993 191.67 2.68993C188.08 2.03993 184.47 1.43993 180.86 0.869931C179.63 0.679931 178.4 0.489931 177.17 0.299931C176.62 0.219931 175.99 0.0299308 175.43 0.0399308C174.73 0.0599308 173.9 0.649931 173.29 0.949931L168.4 3.41993C155.93 9.69993 143.46 15.9899 131 22.2699C121.45 27.0799 111.9 31.8999 102.36 36.7099C102.2 36.7899 102.05 36.8699 101.89 36.9499C100.72 37.5399 100.37 39.6099 100.23 40.7199C100.02 42.4299 100.13 44.3799 100.84 45.9699C101.41 47.2499 101.99 48.5399 102.56 49.8199C102.76 50.2699 102.92 50.8399 103.2 51.2499C103.2 51.2499 102.69 49.3799 102.77 49.8499C102.86 50.4199 102.58 50.6499 102.76 49.3599V49.6299C102.75 50.1999 102.76 49.9899 102.8 48.9899C102.49 50.1599 102.98 48.5199 102.84 48.8699C102.79 49.0099 102.65 49.3699 102.67 49.5099C102.59 48.8499 102.95 48.7599 102.67 49.4199C102.55 49.7099 101.9 50.8099 102.39 50.0499C101.74 51.0599 101.03 51.9899 100.21 52.8699C99.51 53.6099 98.86 54.1799 97.84 54.9899C96.71 55.8899 95.52 56.7299 94.31 57.5199C89.28 60.7999 83.82 63.5699 78.39 66.0999C73.57 68.3499 67.79 68.3699 62.86 66.6899C59.95 65.6999 56.99 64.2699 54.58 62.3299C54.16 62.0699 53.74 62.0699 53.32 62.3299C47.79 65.5099 42.25 68.6899 36.72 71.8699C27.9 76.9399 19.07 82.0099 10.25 87.0699C8.22003 88.2399 6.19003 89.3999 4.16003 90.5699C1.29003 92.2199 2.43003 102.7 5.42003 100.98L5.39003 100.94Z" fill="black"/>
<path d="M97.6801 120.75C96.8501 120.19 96.0701 119.59 95.1201 119.28C94.3701 119.03 93.5401 118.9 92.7701 118.74C91.0401 118.37 89.3001 118.08 87.5501 117.81C84.3701 117.32 81.1801 116.96 77.9601 116.89C74.7401 116.82 71.5901 117.09 68.7001 118.39C66.2501 119.49 64.0901 121.25 62.3801 123.31C57.8701 128.77 56.3101 135.57 55.9001 142.5C55.4901 149.43 55.8201 156.36 59.2001 162.47C61.7801 167.13 66.1501 170.87 71.1201 172.77C76.6401 174.88 82.7701 174.57 88.2801 172.61C98.8001 168.86 105.42 158.89 107.48 148.27C108.72 141.87 108.17 135.23 106.06 129.09C105.09 126.26 103.64 123.44 101.69 121.16C99.3001 118.38 96.0601 115.76 92.1601 116.14C88.9501 116.45 87.6301 120.4 87.7801 123.19C87.9401 126.13 89.1601 129.67 92.5001 130.01C92.7401 130.03 92.9801 130.06 93.2201 130.1L91.9901 129.88C92.9901 130.1 93.8801 130.41 94.8201 130.81C95.4501 131.08 93.8901 130.05 94.7601 130.79C94.9401 130.95 95.1501 131.08 95.3301 131.23C95.5101 131.38 95.7001 131.55 95.8801 131.72L96.1401 131.98C96.5501 132.41 96.4901 132.33 95.9401 131.73C96.1801 131.76 96.7001 132.7 96.8501 132.92C97.0901 133.26 97.3101 133.94 97.6401 134.17C97.1601 133.83 97.0701 133.06 97.3901 133.71C97.4901 133.91 97.5901 134.11 97.6901 134.32C97.9301 134.83 98.1501 135.34 98.3601 135.86C98.5401 136.33 98.7001 136.81 98.8601 137.28C99.1201 138.04 98.4601 135.85 98.6601 136.63C98.7101 136.85 98.7801 137.06 98.8301 137.28C98.9501 137.77 99.0601 138.26 99.1501 138.76C99.2601 139.35 99.3801 141.34 99.2401 138.98C99.2901 139.88 99.3901 140.77 99.3901 141.68C99.3901 142.13 99.3801 142.58 99.3701 143.03C99.3401 144.29 99.5001 141.57 99.4101 142.45C99.3801 142.73 99.3601 143.01 99.3301 143.3C99.2201 144.26 99.0501 145.21 98.8401 146.14C98.7201 146.66 98.3601 147.24 98.9501 145.72C98.8701 145.92 98.8301 146.17 98.7701 146.38C98.6101 146.92 98.4401 147.46 98.2501 148C98.1001 148.43 97.9301 148.85 97.7601 149.27C97.6701 149.48 97.5801 149.69 97.4901 149.89C97.1201 150.76 97.6501 149.57 97.7001 149.48C97.2101 150.37 96.7701 151.28 96.2201 152.15C95.9501 152.58 95.6701 153 95.3701 153.41C95.2701 153.55 94.3801 154.78 94.8601 154.11C95.3401 153.44 94.7001 154.29 94.6201 154.38C94.4701 154.55 94.3201 154.72 94.1701 154.88C93.7901 155.29 93.3901 155.7 92.9801 156.08C92.3201 156.7 91.6301 157.29 90.9001 157.83C90.7001 157.98 90.4901 158.13 90.2901 158.27C90.9501 157.8 90.3701 158.21 90.2401 158.29C89.6401 158.64 89.0501 159 88.4401 159.32C87.4001 159.86 86.3101 160.33 85.2001 160.72C84.6101 160.93 84.0201 161.1 83.4201 161.27C83.3001 161.3 82.6201 161.46 83.3001 161.31C82.9001 161.4 82.4901 161.47 82.0801 161.54C81.0001 161.71 79.9001 161.81 78.8001 161.82C78.2501 161.82 77.7001 161.81 77.1601 161.77C76.8201 161.75 76.4801 161.71 76.1401 161.67C75.9001 161.64 75.2101 161.54 75.8001 161.64C73.6801 161.26 71.7801 160.41 69.8801 159.44C69.2601 159.12 70.7101 160.04 69.7801 159.37C69.5801 159.23 69.3801 159.1 69.1901 158.96C68.8001 158.68 68.4201 158.39 68.0501 158.08C67.6801 157.77 67.3301 157.46 66.9801 157.12C66.8101 156.95 66.6501 156.78 66.4801 156.61C65.7101 155.86 66.9601 157.25 66.3601 156.46C66.0701 156.08 65.7701 155.71 65.5001 155.32C65.3301 155.08 65.1701 154.83 65.0101 154.57C64.9001 154.4 64.4401 153.78 64.8901 154.4C65.3401 155.02 64.9001 154.41 64.8101 154.21C64.6801 153.94 64.5601 153.67 64.4501 153.4C64.3601 153.18 64.2801 152.96 64.1901 152.73C63.8201 151.79 64.3701 153.59 64.2001 152.81C64.0501 152.14 63.8801 151.48 63.7701 150.79C63.7501 150.64 63.5901 149.96 63.6401 149.88C63.6301 149.9 63.7601 151.36 63.6801 150.09C63.6001 148.71 63.5501 147.33 63.5401 145.95C63.5401 145.34 63.5401 144.72 63.5601 144.11C63.5601 143.73 63.5801 143.34 63.6001 142.96C63.6001 142.75 63.6901 141.76 63.6101 142.6C63.5301 143.44 63.6301 142.44 63.6501 142.24C63.6901 141.86 63.7301 141.48 63.7701 141.1C63.8501 140.42 63.9601 139.74 64.0901 139.06C64.1601 138.7 64.1901 138.28 64.3201 137.94C64.2501 138.11 64.0001 139.04 64.3101 138.02C64.4901 137.43 64.6701 136.85 64.8801 136.28C65.0401 135.85 65.1801 135.27 65.4501 134.9C64.8501 135.74 65.2201 135.36 65.3801 135.08C65.5701 134.75 65.7401 134.42 65.9301 134.1C66.2501 133.56 66.6101 133.05 66.9701 132.54C67.4701 131.85 67.0401 132.46 66.9201 132.59C67.1701 132.31 67.4101 132.03 67.6701 131.76C68.1001 131.32 68.5601 130.9 69.0401 130.51C69.2301 130.36 69.4301 130.21 69.6301 130.06C69.0501 130.49 69.7601 129.98 69.9801 129.86C72.3901 128.48 74.5501 128.21 77.3201 128.09C80.4901 127.96 83.7001 128.1 86.8501 128.45C88.2901 128.61 89.7101 128.86 91.1301 129.16C91.8401 129.31 92.5401 129.47 93.2501 129.64C94.3601 129.91 95.1801 129.93 96.2801 129.83C100 129.5 100.35 122.49 97.6701 120.71L97.6801 120.75Z" fill="black"/>
<path d="M155.32 157.3C154.47 156.89 153.53 156.48 152.57 156.45C151.61 156.42 150.5 156.72 149.55 156.97C147.7 157.45 146.09 158.31 144.54 159.41C141.16 161.8 139.27 165.68 138.4 169.62C136.59 177.82 140.6 186.28 147.93 190.18C154.57 193.71 162.62 191.75 168.34 187.4C175.29 182.11 178.32 172.05 174.43 164.01C172.45 159.92 169.26 156.6 165.02 154.84C160.78 153.08 155.91 153.01 151.47 154.11C150.31 154.4 149.25 156.26 148.93 157.24C148.47 158.63 148.35 160.05 148.51 161.51C148.74 163.52 150.16 167.65 152.96 167.19C154.36 166.96 155.75 166.71 157.17 166.64C157.88 166.6 158.58 166.6 159.29 166.64C159.64 166.66 159.99 166.69 160.34 166.73C160.55 166.75 160.76 166.78 160.97 166.81C160.51 166.72 160.54 166.72 161.06 166.83C162.4 167.16 163.64 167.63 164.87 168.24C165.12 168.36 165.48 168.73 164.78 168.18C165.06 168.4 165.38 168.59 165.66 168.82C166.03 169.12 166.82 169.59 167 170.05L166.61 169.61C166.77 169.79 166.92 169.98 167.06 170.18C167.2 170.37 167.34 170.57 167.47 170.77L167.66 171.07C167.96 171.59 167.91 171.48 167.5 170.75C167.5 170.75 167.82 171.46 167.8 171.4L167.93 171.73C168.14 172.33 168.1 172.18 167.8 171.26C167.77 171.35 167.95 171.92 167.95 171.96C168.23 173.24 167.9 170.41 167.92 171.73C167.94 172.95 168.16 170.33 167.95 171.62C167.95 171.56 167.84 172.39 167.82 172.38L168.01 171.64C167.94 171.89 167.86 172.14 167.78 172.38C167.69 172.63 167.59 172.86 167.5 173.11C167.06 174.31 168.12 172.18 167.41 173.25C167.04 173.8 166.71 174.36 166.32 174.9C166.42 174.75 166.97 174.18 166.36 174.85C166.05 175.19 165.74 175.53 165.4 175.86C164.97 176.28 164.52 176.67 164.06 177.04C163.75 177.29 163.42 177.54 163.09 177.76C163.71 177.34 163.12 177.73 163.01 177.79C161.7 178.51 160.41 179.18 158.98 179.63C158.66 179.73 158.34 179.82 158.02 179.91C157.31 180.09 158.92 179.8 157.68 179.97C157.02 180.06 156.37 180.16 155.7 180.19C155.03 180.22 154.37 180.21 153.71 180.15C153.44 180.13 153.18 180.09 152.92 180.06C153.69 180.15 152.51 179.96 152.34 179.92C151.24 179.63 150.23 179.18 149.22 178.67C148.21 178.16 149.85 179.16 148.94 178.49C148.75 178.35 148.55 178.22 148.37 178.07C147.8 177.64 147.3 177.16 146.79 176.66C147.52 177.37 146.95 176.84 146.77 176.61C146.59 176.38 146.41 176.15 146.25 175.91C146.12 175.72 146 175.52 145.87 175.32C145.21 174.34 146.28 176.32 145.84 175.23C145.75 175.02 145.67 174.79 145.57 174.58C145.8 175.77 145.06 173.49 145.57 174.58C145.52 174.33 145.47 174.08 145.42 173.83C145.16 172.71 145.46 175.09 145.43 173.62C145.41 172.46 145.28 173.71 145.39 173.78C145.29 173.72 145.53 172.82 145.56 172.64C145.73 171.4 145.13 173.66 145.61 172.5C145.76 172.15 145.88 171.78 146.02 171.42C145.62 172.41 145.94 171.62 146.09 171.36C146.32 170.97 146.57 170.6 146.83 170.24C146.72 170.39 146.27 170.84 146.85 170.23C147.16 169.9 147.48 169.58 147.82 169.28C148.06 169.07 148.31 168.87 148.57 168.68C148.01 169.09 148.9 168.49 149.03 168.42C149.72 168.04 150.41 167.77 151.15 167.51C152.26 167.12 150.85 167.54 151.52 167.4C151.96 167.31 152.41 167.28 152.85 167.2C153.79 167.04 154.65 166.64 155.56 166.37C157.17 165.89 157.78 163.2 157.71 161.8C157.62 160.07 157.02 158.14 155.34 157.34L155.32 157.3Z" fill="black"/>
<path d="M210.84 114.18C206.85 113.72 202.91 115.91 200.34 118.84C197.19 122.44 195.24 126.99 194.65 131.73C193.44 141.42 197.47 151.99 207.14 155.62C210.99 157.06 215.3 157.04 219.03 155.23C222.76 153.42 225.57 150.19 227.68 146.75C232.8 138.44 237.36 125.47 229.97 117.2C226.52 113.33 221.05 111.49 215.99 111.16C213.46 110.99 210.89 111.34 208.45 112.04C207.44 112.33 206.45 112.75 205.56 113.32C204.6 113.93 203.7 114.51 202.98 115.4C202.23 116.33 201.78 117.35 201.27 118.44C200.13 120.89 200.75 126.84 204 127.74C204.95 128 205.82 128.24 206.78 128.02C207.54 127.84 208.3 127.64 209.05 127.42C210.23 127.07 211.41 126.71 212.62 126.43L211.3 126.74C213.88 126.19 216.48 126.13 219.08 126.56L217.76 126.32C219.17 126.58 220.55 126.97 221.87 127.54C222.33 127.74 223.33 128.01 223.62 128.4C223.58 128.34 222.59 127.68 223.42 128.28C223.83 128.58 224.22 128.91 224.62 129.23C225.35 129.8 224.19 129.06 224.39 128.94L224.62 129.25C224.98 129.83 224.91 129.67 224.39 128.77C224.87 129.81 224.25 128.11 224.23 128.09C224.64 128.74 223.93 129.77 224.25 127.63C224.21 127.92 224.26 128.29 224.27 128.59C224.29 129.55 224.55 126.62 224.29 128.02C224.23 128.35 224.19 128.68 224.13 129C223.81 130.66 224.54 127.73 224.14 129.02C223.77 130.23 223.38 131.43 222.93 132.61C222.71 133.18 222.49 133.75 222.25 134.31C222.11 134.65 221.95 134.98 221.81 135.32C221.28 136.54 222.49 134.01 221.87 135.2C221.25 136.39 220.67 137.45 219.95 138.51C219.78 138.76 219.61 139 219.44 139.24L219.23 139.53C218.86 140 218.94 139.91 219.47 139.25C219.36 139.22 218.3 140.51 218.15 140.65C217.69 141.09 217.21 141.49 216.7 141.87C216.52 142 216.31 142.12 216.14 142.27C217.08 141.45 216.33 142.11 216.03 142.28C215.52 142.56 214.99 142.81 214.45 143.01C214.18 143.11 213.88 143.18 213.61 143.29C213.28 143.38 213.38 143.37 213.9 143.25C213.67 143.3 213.43 143.34 213.2 143.38C212.03 143.55 210.86 143.52 209.68 143.37C210.75 143.51 209.06 143.19 208.75 143.09C208.07 142.86 207.43 142.55 206.79 142.24C205.73 141.73 207.54 142.8 206.57 142.13C206.37 141.99 206.18 141.86 205.98 141.72C205.5 141.37 205.04 140.98 204.61 140.57C204.34 140.31 203.52 139.84 204.49 140.49C204.28 140.35 204.09 140 203.93 139.79C203.75 139.55 203.58 139.31 203.42 139.06C203.28 138.85 203.15 138.63 203.03 138.41C203.35 139.01 203.42 139.13 203.24 138.77C203.05 138.28 202.35 137.28 202.44 136.75C202.44 136.79 202.77 138.16 202.56 137.07C202.49 136.68 202.41 136.29 202.32 135.91C202.12 135.03 202.59 136.16 202.34 136.33C202.4 136.29 202.27 135.25 202.26 135.13C202.26 134.86 202.26 134.6 202.26 134.33C202.28 133.67 202.26 133.8 202.21 134.7C202.23 134.43 202.26 134.16 202.29 133.89C202.32 133.62 202.36 133.35 202.4 133.09C202.44 132.82 202.49 132.56 202.55 132.29C202.68 131.69 202.66 131.76 202.48 132.5C202.68 132.43 203.16 130.43 203.26 130.19C203.34 129.98 203.45 129.61 203.58 129.45C203.29 130.05 203.27 130.11 203.52 129.62C203.64 129.4 203.76 129.18 203.89 128.97C204.02 128.76 204.15 128.54 204.29 128.34C204.4 128.18 205.37 126.97 204.71 127.72C205.2 127.16 205.72 126.62 206.29 126.14C206.48 125.98 206.67 125.83 206.86 125.68C207.23 125.41 207.25 125.39 206.93 125.62C207.08 125.52 207.24 125.43 207.4 125.35C208.02 125.01 208.68 124.72 209.36 124.53C209.92 124.37 208.63 124.53 209.66 124.49C210.14 124.47 210.6 124.42 211.09 124.44C213.47 124.52 214.44 121.06 214.34 119.22C214.22 117.02 213.32 114.45 210.84 114.17V114.18Z" fill="black"/>
<path d="M177.18 26.45C175.68 25.81 174.23 25.33 172.58 25.54C170.93 25.75 169.2 26.15 167.58 26.69C164.74 27.64 162.11 29.16 159.79 31.05C157.13 33.21 154.7 36.14 153.48 39.37C151.91 43.55 152.63 48.69 155.96 51.81C160.32 55.88 167.69 54.62 172.73 52.85C175.76 51.78 178.56 50.08 181.05 48.06C183.69 45.92 186.38 43.11 187.62 39.9C189.69 34.57 187.89 28.02 182.77 25.22C178.64 22.96 174 24.92 170.55 27.45C169.52 28.2 168.85 30.18 168.7 31.35C168.52 32.77 168.6 34.17 169.02 35.54C169.66 37.66 171.54 40.25 174.11 39.15C175.23 38.67 176.34 38.12 177.5 37.72C177.7 37.65 178.6 37.44 177.8 37.59C178.08 37.54 178.36 37.5 178.65 37.48C178.94 37.46 179.22 37.42 179.51 37.42C179.84 37.42 180.78 37.7 179.83 37.38C179.99 37.43 181.12 37.71 181.14 37.91C181.15 38.04 180.24 37.13 180.98 37.88C181.6 38.52 180.89 37.74 180.82 37.64C181.38 38.34 180.7 37.38 180.65 37.24C180.43 36.7 180.3 35.99 180.28 35.4L180.57 33.4C180.38 33.88 180.38 33.92 180.54 33.53C180.94 32.84 180.29 33.85 180.2 33.98C180.05 34.2 179.88 34.41 179.72 34.64C179 35.67 180.18 34.15 179.66 34.72C179.31 35.11 178.97 35.51 178.61 35.88C177.75 36.77 176.83 37.61 175.86 38.37C175.45 38.69 175.03 39 174.6 39.3C174.75 39.2 175.27 38.88 174.55 39.31C174.33 39.45 174.11 39.58 173.88 39.72C172.87 40.32 171.82 40.86 170.75 41.34C169.74 41.79 168.7 42.17 167.64 42.49C167.33 42.58 167.02 42.67 166.7 42.75C166.6 42.78 165.96 42.91 166.56 42.78C165.92 42.91 165.28 43.03 164.63 43.1C163.78 43.2 162.93 43.23 162.08 43.14C161.87 43.12 161.65 43.09 161.44 43.05C162.23 43.19 161.52 43.05 161.32 42.99C160.88 42.84 160.44 42.66 160 42.51C159.16 42.23 160.35 42.87 159.98 42.54C159.84 42.41 159.67 42.3 159.52 42.19L159.41 42.1C159.14 41.83 159.14 41.84 159.41 42.12L159.61 42.33C159.32 41.9 159.38 42.03 159.77 42.72C159.6 42.34 159.65 42.01 159.89 43.21C159.98 43.65 159.99 44.2 159.91 44.64C159.88 44.82 159.55 45.7 159.88 44.78C160.29 43.64 159.4 45.42 160.07 44.41C160.36 43.97 160.65 43.52 160.96 43.09C161.44 42.42 161.07 42.93 160.96 43.07C161.12 42.87 161.29 42.68 161.46 42.49C162.22 41.64 163.05 40.85 163.94 40.14C164.19 39.94 164.44 39.75 164.69 39.56C164.87 39.43 165.41 39.08 164.95 39.37C165.49 39.03 166.03 38.7 166.59 38.41C167.71 37.82 168.88 37.32 170.09 36.94C170.33 36.86 170.57 36.79 170.82 36.72C170.82 36.72 171.94 36.46 171.36 36.58C171.98 36.46 172.61 36.37 173.23 36.29C174.71 36.09 175.99 35.57 177.4 35.13C178.95 34.64 179.54 32.11 179.46 30.74C179.37 29.13 178.81 27.14 177.19 26.46L177.18 26.45Z" fill="black"/>
<path d="M10.13 103.21C9.26004 103.57 9.47004 103.36 9.86004 103.34C10.11 103.33 10.36 103.29 10.6 103.27C11.45 103.2 12.31 103.15 13.17 103.11C16.11 102.95 19.05 102.84 21.99 102.72C31.38 102.36 40.77 102.06 50.16 101.78C61.38 101.44 72.6 101.11 83.82 100.8C93.46 100.53 103.11 100.27 112.75 100.01C115.91 99.9298 119.07 99.8398 122.23 99.7598C123.72 99.7198 125.26 99.7998 126.74 99.6398C126.81 99.6398 126.88 99.6398 126.94 99.6398C128.51 99.5998 129.15 96.8098 129.23 95.6798C129.25 95.3398 129.53 93.8798 129.23 95.2798C129.28 95.0498 129.5 94.4998 129.15 95.4198C129.23 95.2098 129.31 95.0097 129.4 94.8097C129.47 94.6597 129.55 94.5098 129.61 94.3598C129.85 93.8398 129.31 94.8197 129.61 94.3397C129.88 93.9097 130.17 93.4998 130.49 93.1098C131.57 91.7698 132.75 90.8298 134.26 89.7798C137.77 87.3498 141.72 85.3098 145.63 83.6098C149.89 81.7598 154.48 80.6797 159.11 81.6297C161.43 82.0997 163.61 83.0598 165.75 84.0398C166.68 84.4698 167.57 84.9898 168.48 85.4398C167.78 85.0898 167.75 79.7098 167.68 82.1098C167.66 82.8498 167.89 81.3697 167.7 82.0897C167.6 82.4297 167.53 82.7797 167.43 83.1297C167.63 82.4497 167.43 83.1298 167.37 83.2498C167.25 83.5098 167.14 83.7698 167.03 84.0398C166.84 84.4698 166.88 84.3897 166.57 84.8797C165.85 85.9797 165.02 86.9698 164.56 88.2298C164.1 89.4898 163.92 90.7598 163.74 92.0698C163.68 92.4898 163.62 92.8998 163.55 93.3198C163.51 93.5898 163.46 93.8597 163.41 94.1297C163.29 94.8597 163.68 92.8098 163.44 93.9598C163.16 95.3298 162.85 96.6797 162.45 98.0197C162.35 98.3497 162.16 98.7298 162.12 99.0698C162.12 98.9798 162.49 98.0598 162.22 98.7598C162.17 98.8898 162.12 99.0198 162.08 99.1498C161.81 99.8598 161.48 100.54 161.16 101.23C160.87 101.84 161.58 100.61 161.08 101.38C160.9 101.65 160.73 101.92 160.53 102.18C160.37 102.39 160.18 102.59 160.02 102.8C159.71 103.22 160.02 102.8 160.12 102.72C159.98 102.83 159.85 102.95 159.71 103.06C156.51 105.44 151.73 105.7 147.91 105.48C143.18 105.2 138.27 104.27 134.58 101.11C133.98 100.59 133.24 99.7697 132.67 98.9897C132.34 98.5497 132.04 98.0997 131.75 97.6297C131.43 97.1097 131.97 98.0697 131.69 97.5197C131.55 97.2497 131.41 96.9797 131.29 96.6997C131.09 96.2597 130.91 95.8098 130.74 95.3498C131.17 96.4998 130.55 94.3697 130.51 94.3397C130.54 94.3597 130.65 95.2997 130.59 94.7397C130.56 94.4397 130.51 94.1397 130.48 93.8397C130.35 92.7797 130.53 94.1898 130.5 94.1798C130.45 94.1698 130.51 93.1397 130.52 93.0897C130.57 91.7097 130.19 87.6898 128.14 87.6898C126.09 87.6898 125.81 91.8297 125.76 93.0897C125.55 98.5297 127.11 104.29 130.5 108.61C133.89 112.93 138.17 114.79 143.28 115.72C148.39 116.65 153.61 116.66 158.47 114.75C162.06 113.34 164.04 110.43 165.41 106.92C166.78 103.41 167.57 99.8497 168.16 96.1997C168.27 95.4997 168.52 94.6598 168.48 93.9398C168.45 93.3198 168.15 95.9797 168.08 95.5197C168.11 95.7397 167.96 95.6798 168.18 95.3698C168.59 94.8098 168.98 94.2598 169.34 93.6698C170.24 92.1798 170.91 90.6598 171.44 89.0098C172.59 85.3998 173.16 80.7798 171.53 77.2498C170.32 74.6198 167.24 73.6698 164.75 72.6398C162.26 71.6098 159.47 70.6997 156.69 70.5197C153.91 70.3397 151.39 70.8197 148.84 71.5897C143.47 73.2097 138.15 75.9598 133.49 79.0798C128.83 82.1998 125.08 86.8497 124.67 92.8397L126.96 88.8797C123.1 88.9797 119.25 89.0798 115.39 89.1798C106.12 89.4298 96.84 89.6798 87.57 89.9298C76.36 90.2398 65.15 90.5598 53.94 90.8998C44.14 91.1998 34.34 91.4998 24.54 91.8598C21.28 91.9798 18.01 92.1098 14.75 92.2598C13.12 92.3398 11.43 92.3198 9.82004 92.5798C9.49004 92.6298 9.21004 92.6998 8.89004 92.8298C8.13004 93.1498 7.64004 94.6597 7.47004 95.3097C7.13004 96.5897 7.04004 98.1598 7.23004 99.4698C7.43004 100.87 8.10004 104.09 10.15 103.24L10.13 103.21Z" fill="black"/>
<path d="M261.22 84.8198C258.07 84.8898 254.91 84.9598 251.76 85.0298C244.19 85.1998 236.62 85.3698 229.05 85.5498C219.89 85.7598 210.74 85.9698 201.58 86.1698C193.7 86.3498 185.81 86.5298 177.93 86.7098L170.06 86.8898C168.84 86.9198 167.56 86.8498 166.35 86.9698C166.29 86.9698 166.24 86.9698 166.18 86.9698C164.11 87.0198 163.78 90.9498 163.8 92.3698C163.83 93.6698 164.09 97.8198 166.18 97.7698C169.33 97.6998 172.49 97.6298 175.64 97.5598C183.21 97.3898 190.78 97.2198 198.35 97.0398C207.51 96.8298 216.66 96.6198 225.82 96.4198C233.7 96.2398 241.59 96.0598 249.47 95.8798L257.34 95.6998C258.56 95.6698 259.84 95.7398 261.05 95.6198C261.11 95.6198 261.16 95.6198 261.22 95.6198C263.29 95.5698 263.62 91.6398 263.6 90.2198C263.57 88.9198 263.31 84.7698 261.22 84.8198Z" fill="black"/>
</g>
<defs>
<clipPath id="clip0_3416_10247">
<rect width="264.13" height="212.06" fill="white"/>
</clipPath>
</defs>
</svg>
