<svg width="207" height="253" viewBox="0 0 207 253" fill="none" xmlns="http://www.w3.org/2000/svg">
<g clip-path="url(#clip0_3416_11761)">
<path d="M100.17 52.9098C100.21 52.7798 100.43 51.8298 100.69 51.5998C100.54 51.7298 100.4 52.0498 100.28 52.2198C100.14 52.4298 99.99 52.6398 99.84 52.8498C99.64 53.1298 99.44 53.4098 99.24 53.6798C98.78 54.3198 98.31 54.9498 97.84 55.5698C96.59 57.2398 95.32 58.8898 94.04 60.5398C90.71 64.8298 87.34 69.0898 83.96 73.3398C77.24 81.7898 70.46 90.1998 63.67 98.5998C62.19 100.43 60.71 102.26 59.23 104.08C57.96 105.64 57.82 108.54 58.09 110.43C58.28 111.77 58.74 114.42 60.48 114.56C67.07 115.09 73.67 115.62 80.26 116.14L79.01 105.66C73.47 112.06 67.94 118.45 62.4 124.85C53.58 135.04 44.76 145.23 35.93 155.42C33.91 157.75 31.89 160.09 29.87 162.42C28.58 163.91 28.47 166.94 28.73 168.77C28.92 170.09 29.38 172.79 31.12 172.9C37.62 173.32 44.12 173.75 50.62 174.17C51.56 174.23 52.5 174.29 53.44 174.35L52.19 163.87C46.44 170.5 40.69 177.13 34.93 183.77C25.8 194.3 16.67 204.83 7.53 215.35C5.44 217.77 3.34 220.18 1.25 222.6C-0.0399989 224.09 -0.149999 227.12 0.110001 228.95C0.290001 230.19 0.780001 233.07 2.5 233.08C4.22 233.09 6.09 233.09 7.89 233.1C12.78 233.12 17.67 233.14 22.56 233.15C29.75 233.18 36.95 233.2 44.14 233.23C52.95 233.26 61.77 233.29 70.58 233.33C80.19 233.37 89.8 233.4 99.42 233.44C109.04 233.48 118.91 233.51 128.65 233.55C137.74 233.58 146.82 233.62 155.91 233.65C163.56 233.68 171.2 233.71 178.85 233.73C184.37 233.75 189.9 233.77 195.42 233.79C198.01 233.79 200.65 233.95 203.25 233.82C203.36 233.82 203.48 233.82 203.59 233.82C205.25 233.82 205.86 230.84 205.98 229.69C206.19 227.68 206.16 225.01 204.84 223.34C199.95 217.13 195.06 210.91 190.17 204.7C182.41 194.84 174.65 184.97 166.89 175.11C165.11 172.84 163.32 170.57 161.54 168.31L160.29 178.79C164.33 178.42 168.36 178.06 172.4 177.69C174.08 177.54 174.65 174.84 174.79 173.56C175.01 171.47 174.91 168.98 173.65 167.21C169.07 160.72 164.51 154.21 159.95 147.69C152.53 137.07 145.1 126.45 137.9 115.68C136.61 113.75 135.32 111.82 134.09 109.86C133.89 109.53 133.68 109.21 133.48 108.88C133.23 108.46 132.71 107.31 133.47 108.88C133.38 108.69 133.27 108.49 133.17 108.31C133.13 108.25 133.12 108.17 133.08 108.11C134.02 109.6 133.82 113.5 133.43 114.73L132.54 116.75C132.26 117.18 131.87 117.43 131.37 117.48C131.43 117.46 131.48 117.45 131.54 117.44C131.71 117.42 131.87 117.37 132.04 117.34C132.47 117.26 132.9 117.2 133.32 117.13C134.51 116.95 135.71 116.8 136.9 116.64C138.58 116.43 140.26 116.22 141.94 116.03C143.62 115.84 144.19 113.22 144.33 111.9C144.54 109.83 144.46 107.3 143.19 105.55C138.72 99.3898 134.25 93.2198 129.79 87.0598C122.67 77.2398 115.56 67.4298 108.44 57.6098C106.81 55.3698 105.19 53.1198 103.56 50.8798C102.09 48.8498 100.52 51.4698 100.17 52.8998C99.6 55.2698 99.55 58.5198 101.06 60.5998C105.53 66.7598 110 72.9298 114.46 79.0898C121.58 88.9098 128.69 98.7198 135.81 108.54C137.44 110.78 139.06 113.03 140.69 115.27L141.94 104.79C138.69 105.17 135.41 105.5 132.19 106.07C131.35 106.22 130.61 106.32 130.04 107.04C128.46 109 128.54 112.52 129.15 114.82C129.36 115.61 129.62 116.21 130 116.9C132.46 121.35 135.47 125.53 138.33 129.73C146.92 142.38 155.69 154.9 164.47 167.41C166.69 170.58 168.92 173.75 171.15 176.91L172.4 166.43C168.36 166.8 164.33 167.16 160.29 167.53C158.61 167.68 158.04 170.38 157.9 171.66C157.69 173.67 157.72 176.34 159.04 178.01C163.93 184.22 168.82 190.44 173.71 196.65C181.47 206.51 189.23 216.38 196.99 226.24C198.77 228.51 200.56 230.78 202.34 233.04L203.59 222.56C201.79 222.56 200 222.55 198.2 222.54C193.31 222.52 188.42 222.5 183.53 222.49C176.34 222.46 169.14 222.44 161.95 222.41C153.14 222.38 144.32 222.35 135.51 222.31C125.9 222.27 116.29 222.24 106.67 222.2C97.05 222.16 87.18 222.13 77.44 222.09C68.35 222.06 59.27 222.02 50.18 221.99C42.53 221.96 34.89 221.93 27.24 221.91C21.72 221.89 16.19 221.87 10.67 221.85C8.06 221.85 5.45 221.76 2.84 221.82C2.73 221.82 2.61 221.82 2.5 221.82L3.75 232.3C9.5 225.67 15.25 219.04 21.01 212.4C30.14 201.87 39.27 191.34 48.41 180.82C50.5 178.4 52.6 175.99 54.69 173.57C55.98 172.08 56.09 169.05 55.83 167.22C55.64 165.9 55.18 163.2 53.44 163.09C46.94 162.67 40.44 162.24 33.94 161.82C33 161.76 32.06 161.7 31.12 161.64L32.37 172.12C37.91 165.72 43.44 159.33 48.98 152.93C57.8 142.74 66.62 132.55 75.45 122.36C77.47 120.03 79.49 117.69 81.51 115.36C82.8 113.87 82.91 110.84 82.65 109.01C82.46 107.67 82 105.02 80.26 104.88C73.67 104.35 67.07 103.82 60.48 103.3L61.73 113.78C65.92 108.62 70.1 103.45 74.27 98.2798C81.52 89.2698 88.77 80.2498 95.87 71.1198C97.36 69.1998 98.84 67.2798 100.3 65.3398C101.88 63.2298 103.65 61.0998 104.45 58.5598C105.15 56.3398 105.08 52.7598 103.56 50.8598C101.94 48.8398 100.62 51.4598 100.17 52.8798V52.9098Z" fill="#1D1D1B"/>
<path d="M69.37 227.14C69.56 230.94 69.98 234.63 70.58 238.38L71.36 243.25C71.65 245.09 71.83 246.99 72.6 248.71C73.59 250.92 75.23 251.92 77.57 252.15C79.32 252.32 81.11 252.24 82.86 252.13C86.23 251.92 89.57 251.43 92.94 251.26C106.02 250.58 119.2 254.06 132.19 251.23C133.2 251.01 134.07 250.86 134.93 250.28C136.06 249.51 136.71 248.39 137.14 247.11C137.93 244.76 137.63 242.01 137.64 239.55C137.64 237.56 137.65 235.56 137.66 233.57C137.66 231.26 137.87 228.85 137.27 226.6C136.82 224.94 136 222.99 134.1 222.65C132.43 222.35 130.89 223.87 130.49 225.42C130.09 226.97 129.84 228.16 129.84 229.77C129.84 230.43 129.86 231.1 129.87 231.76C129.9 233.42 129.92 235.08 129.95 236.74C129.97 238.23 130 239.73 130.02 241.22C130.03 241.96 129.99 242.72 130.05 243.46C130.21 245.43 133.64 239.47 131.66 239.8C131.26 239.87 130.86 240.02 130.46 240.11C125.32 241.26 119.33 241.22 113.83 240.9C107.87 240.56 101.92 239.89 95.95 239.91C89.98 239.93 84.01 241.22 78.02 240.93C77.71 240.92 77.26 240.78 76.97 240.86L77.31 240.9C78.17 241.53 78.71 242.33 78.93 243.31C78.84 243.31 78.61 241.31 78.57 241.05L77.75 235.94C77.48 234.24 77.22 232.53 76.93 230.83C76.64 229.13 76.06 227.39 75.59 225.69C75.15 224.09 74.08 221.8 72.02 222.31C69.96 222.82 69.29 225.35 69.38 227.13L69.37 227.14Z" fill="#1D1D1B"/>
<path d="M99.99 9.92986C101.58 13.0999 103.17 16.2699 104.77 19.4399C105.6 21.0899 106.55 22.4199 108.46 22.8199C109.21 22.9799 110 23.0399 110.76 23.1399C112.7 23.4099 114.64 23.6799 116.58 23.9399C118.52 24.1999 120.37 24.4499 122.27 24.6999L121.02 14.2199C118.29 16.9499 115.54 19.6599 112.8 22.3799C112.16 23.0099 111.43 23.6099 110.88 24.3299C108.81 27.0499 108.97 30.9199 109.54 34.1099C109.86 35.8999 110.18 37.6799 110.5 39.4699C110.87 41.5699 111.26 43.6699 111.64 45.7599L114.68 38.8399C110.86 36.8799 107.05 34.8899 103.22 32.9299C101.73 32.1699 100.34 32.0399 98.79 32.7699C98.23 33.0299 97.7 33.3499 97.16 33.6399C95.71 34.4099 94.27 35.1799 92.82 35.9599C91.09 36.8899 89.36 37.8199 87.63 38.7499L90.67 45.6699C91.26 42.0299 91.86 38.3899 92.46 34.7499C92.66 33.5699 92.84 32.4499 92.85 31.2299C92.87 29.2699 92.54 27.1999 91.64 25.4499C91.34 24.8699 91.06 24.4099 90.64 23.9399C90.45 23.7299 90.22 23.5399 90.02 23.3399C89.79 23.1099 90.74 24.0399 90.38 23.6899C89.24 22.5799 88.08 21.4799 86.93 20.3699C85.27 18.7699 83.6 17.1699 81.94 15.5699L80.69 26.0499C83.56 25.6099 86.42 25.1799 89.29 24.7399C90.45 24.5599 91.67 24.4599 92.82 24.1899C96.04 23.4499 97.09 20.5199 98.39 17.8299C98.7 17.1799 99.02 16.5299 99.35 15.8899C99.47 15.6499 99.6 15.3999 99.73 15.1599C99.72 15.1799 100.29 14.1799 100.02 14.6199C100.71 13.4699 101.54 12.4099 102.31 11.3099L99.31 2.47986C99.03 3.25986 98.77 4.04986 98.51 4.83986C98.42 5.10986 98.33 5.38986 98.24 5.65986C97.81 6.94986 98.44 5.22986 98.14 5.93986C97.68 7.04986 97.2 8.12986 96.68 9.20986C96.16 10.2899 95.6 11.4399 95.07 12.5499C94.98 12.7299 94.89 12.9099 94.81 13.0899C94.75 13.2099 94.51 13.5299 94.78 13.1499C95.15 12.6499 94.63 13.3199 94.6 13.3499C94.42 13.4999 94.24 13.6499 94.03 13.7799C93.62 14.0399 93.25 14.1999 92.77 14.2899C92.14 14.4099 91.5 14.4799 90.87 14.5699C88.4 14.9399 85.92 15.4099 83.44 15.6299C81.76 15.7799 81.19 18.4799 81.05 19.7599C80.85 21.6799 80.81 24.5599 82.19 26.1099C83.78 27.8999 85.63 29.5299 87.35 31.1999C87.79 31.6299 88.24 32.0699 88.68 32.4999C88.86 32.6799 89.03 32.8599 89.2 33.0399C89.47 33.4299 89.53 33.4799 89.38 33.1999C89.06 32.2199 88.98 31.1999 89.14 30.1399C89.07 30.4299 89.04 30.7399 88.99 31.0299C88.69 32.7699 88.39 34.4999 88.09 36.2399C87.97 36.9199 87.85 37.6099 87.73 38.2899C87.69 38.5099 87.65 38.7199 87.62 38.9399C87.47 39.8099 87.94 37.2199 87.8 37.9699C87.71 38.4299 87.63 38.8899 87.54 39.3399C87.15 41.4299 87.04 43.5299 87.73 45.5899C88.09 46.6599 88.94 48.3099 90.33 47.6099C92.98 46.2699 95.6 44.8699 98.23 43.4999C99 43.0999 99.77 42.5499 100.65 42.5099C101.72 42.4599 102.51 43.0199 103.42 43.4999C104.59 44.1199 105.76 44.7299 106.92 45.3499C108.68 46.2799 110.43 47.2099 112.19 48.1299C115.15 49.6899 115.46 42.5499 115.23 41.2099C114.69 38.0099 114.14 34.8099 113.6 31.5999C113.55 31.2999 113.5 30.9999 113.45 30.6999C113.41 30.4399 113.37 30.1699 113.32 29.9099C113 28.3999 113.72 32.8999 112.85 33.4999C113.47 33.0799 113.99 32.3399 114.54 31.8199C117.08 29.3499 119.63 26.8699 122.16 24.3899C123.51 23.0699 123.54 19.7299 123.3 18.0399C123.09 16.6199 122.66 14.1599 120.91 13.9099C118 13.4999 115.08 13.0699 112.17 12.6399C111.21 12.4999 110.25 12.3599 109.29 12.2199C109.13 12.1999 108.97 12.1699 108.81 12.1499C108.19 12.0499 108.24 11.9299 107.8 11.7299C107.99 11.8199 107.72 11.6299 107.7 11.5499C107.65 11.3799 108.08 12.3499 108.02 12.0999C108 12.0299 107.94 11.9499 107.91 11.8799C107.74 11.5099 107.55 11.1399 107.37 10.7799C107.11 10.2499 106.85 9.70986 106.58 9.17986C105.35 6.66986 104.14 4.15986 102.96 1.62986L100.55 11.0299L101.07 11.3499C103.05 12.5599 103.99 8.60986 104.11 7.41986C104.26 5.98986 104.26 4.46986 103.86 3.08986C103.59 2.16986 103.25 1.02986 102.38 0.499864L101.86 0.179864C100.33 -0.750136 99.31 1.72986 99.06 2.76986C98.54 4.91986 98.5 7.53986 99.45 9.58986C101.1 13.1299 102.74 16.6799 104.55 20.1399C105.48 21.9199 106.71 23.0499 108.72 23.3899C109.38 23.4999 110.05 23.5899 110.71 23.6799C112.34 23.9199 113.97 24.1599 115.6 24.3999C117.37 24.6599 119.14 24.9099 120.9 25.1599L119.65 14.6799C117.63 16.6599 115.61 18.6299 113.58 20.5999C112.49 21.6599 111.11 22.7199 110.23 23.9599C107.97 27.1199 108.24 31.1899 108.86 34.8099C109.39 37.9399 109.92 41.0699 110.45 44.2099L113.49 37.2899C110.59 35.7599 107.69 34.2199 104.79 32.6999C104.03 32.2999 103.29 31.8699 102.48 31.5999C100.77 31.0299 99.29 31.4099 97.74 32.2199C96.43 32.9099 95.11 33.5899 93.8 34.2799C92.2 35.1199 90.61 35.9599 89 36.7699L91.8 45.0299C92.41 41.7399 92.98 38.4499 93.55 35.1499C94.02 32.4199 94.23 29.6899 93.47 26.9699C92.79 24.5499 91.44 23.0699 89.75 21.4099C88.06 19.7499 86.23 18.1599 84.67 16.3999L83.42 26.8799C86.06 26.6499 88.71 26.1399 91.33 25.7499C93.66 25.3999 95.73 24.8499 97.23 22.8399C98.29 21.4299 98.98 19.5999 99.74 18.0299C100.34 16.7899 100.98 15.5699 101.47 14.2799C101.79 13.4399 102.07 12.5799 102.36 11.7299C102.45 11.4599 102.54 11.1799 102.63 10.9099C103.07 9.55986 102.33 11.7499 102.8 10.4199C103.63 8.04986 103.81 5.43986 102.99 3.02986C102.54 1.70986 101.11 -0.280136 99.8 1.57986C98.23 3.81986 96.77 6.02986 95.55 8.48986C94.95 9.68986 94.29 10.8999 93.78 12.1399L93.63 12.4399C93.85 12.0999 93.88 12.0499 93.72 12.2799C93.55 12.3499 93.72 12.3299 93.55 12.4899C93.1 12.8699 92.7 12.9599 92.16 13.0399C88.34 13.6299 84.51 14.1999 80.69 14.7799C79 15.0399 78.45 17.5399 78.3 18.9099C78.2 19.8999 78.2 20.9099 78.3 21.8999C78.39 22.7799 78.73 24.5799 79.44 25.2599C81.97 27.6899 84.49 30.1199 87.02 32.5499C87.29 32.8099 87.57 33.0799 87.84 33.3399C88.11 33.5999 88.36 33.8699 88.64 34.1099C88.81 34.2499 88.06 33.5399 88.14 33.6299C88.2 33.6899 88.25 33.7499 88.3 33.8099C88.47 34.0299 88.47 33.9999 88.32 33.7199C87.97 33.8399 88.24 28.6699 87.89 30.5499C87.82 30.9399 87.76 31.3399 87.69 31.7399C87.4 33.4699 87.12 35.2099 86.83 36.9399C86.52 38.8499 86.21 40.7599 85.9 42.6599C85.68 43.9799 85.99 51.1699 88.94 49.5799C91.89 47.9899 94.8 46.4399 97.74 44.8699C98.91 44.2399 100.27 43.1199 101.56 43.5899C102.99 44.1099 104.39 45.0499 105.74 45.7499C108.28 47.0599 110.82 48.3699 113.36 49.6699C116.32 51.1899 116.66 44.1299 116.4 42.7499C115.99 40.4999 115.58 38.2399 115.18 35.9899C114.78 33.7399 114.19 31.4799 114.02 29.2199V32.2099C113.83 34.6499 112.91 34.3799 113.68 33.6699C113.78 33.5699 113.88 33.4699 113.98 33.3699C114.25 33.0999 114.52 32.8299 114.79 32.5699C115.17 32.1899 115.55 31.8199 115.93 31.4399C116.78 30.5999 117.63 29.7599 118.49 28.9099C120.17 27.2499 121.85 25.5799 123.52 23.9099C124.86 22.5699 124.91 19.2699 124.66 17.5599C124.45 16.1499 124.02 13.6599 122.27 13.4299C118.91 12.9799 115.56 12.5299 112.21 12.0599C111.35 11.9399 110.5 11.8199 109.64 11.7099C109.22 11.6499 108.81 11.5899 108.39 11.5299C108.75 11.5899 108.14 11.3699 108.22 11.3699L108.11 11.2199C108.51 11.9299 108.63 12.1599 108.49 11.8899C108.45 11.7899 108.38 11.6799 108.34 11.5899C107.68 10.2399 106.99 8.90986 106.32 7.56986C105.38 5.69986 104.44 3.81986 103.5 1.94986C103.18 1.30986 102.63 0.299864 101.75 0.299864C100.87 0.299864 100.27 1.29986 100 1.94986C99.05 4.21986 98.86 7.63986 100 9.89986L99.99 9.92986Z" fill="#1D1D1B"/>
</g>
<defs>
<clipPath id="clip0_3416_11761">
<rect width="206.07" height="252.36" fill="white"/>
</clipPath>
</defs>
</svg>
