<svg width="273" height="283" viewBox="0 0 273 283" fill="none" xmlns="http://www.w3.org/2000/svg">
<g clip-path="url(#clip0_3416_10050)">
<path d="M85.0365 183.894C84.5497 184.416 83.8898 184.736 83.0158 184.796L82.8233 184.944C82.034 185.009 80.9856 185 80.1387 184.805L80.0471 184.716C79.7412 184.657 79.4592 184.596 79.1643 184.524C78.8949 185.052 78.6384 185.446 78.425 185.632L77.8104 185.334C77.3863 184.719 77.1227 184.151 76.8652 183.365L76.9998 183.246L76.9222 183.035C77.0488 182.965 77.2033 182.94 77.3249 182.954L77.5493 182.755C77.9608 182.781 78.3534 182.869 78.747 182.969C78.8498 182.756 78.9376 182.508 79.0365 182.247C78.4486 182.127 78.6173 181.836 78.3174 181.704L78.31 181.03C78.4843 181.1 78.5681 180.949 78.641 180.81L79.5977 180.731C80.0151 179.661 80.5451 178.498 81.3571 177.54L81.3422 177.36C81.6394 177.167 81.8378 176.946 82.0053 176.932C82.1727 176.918 82.5025 176.976 83.0017 177.043C83.0873 177.204 83.2458 177.227 83.4919 177.291C83.5515 177.431 83.653 177.639 83.6669 177.807C83.7103 178.333 83.4575 179.209 82.7772 180.011C82.5372 179.875 82.3498 179.938 82.368 179.575C82.3842 179.189 82.1421 179.173 82.3995 178.79L82.3428 178.686C81.9449 178.972 81.4999 179.707 81.0428 180.588C81.6029 180.518 82.1391 180.449 82.5298 180.369C82.7112 180.378 82.8437 180.379 82.9543 180.406L82.6493 180.503C82.8256 180.597 83.0628 180.554 83.2642 180.513C83.4534 180.618 83.537 180.755 83.9147 180.808C83.9283 181.265 83.2359 181.045 83.0662 181.324L83.6164 181.278L83.7458 181.388C83.411 181.416 81.2143 181.79 80.415 181.88L80.3751 181.98L80.7219 181.951C80.8056 181.944 80.9631 181.955 80.9351 182.054L80.3032 182.13C80.1295 182.506 79.9449 182.894 79.7702 183.258C79.8439 183.276 79.9186 183.306 79.9924 183.324C80.1608 183.322 79.9703 183.494 79.9166 183.426L79.7193 183.37L79.6803 183.482C81.136 183.903 81.4488 184.046 83.6948 182.958C83.6559 183.069 83.5322 183.176 83.4076 183.27L83.4743 183.349L83.899 183.097C84.1899 183.266 84.2933 183.498 84.4925 183.723C84.7238 183.607 84.896 183.798 85.0365 183.894ZM78.6841 183.082C78.3762 182.999 78.0823 182.939 78.0215 182.932C77.8641 182.921 77.7962 182.975 77.7873 183.012C78.1051 183.07 78.3751 183.132 78.6332 183.195C78.6541 183.157 78.6631 183.12 78.6841 183.082ZM84.2988 182.836C84.3555 182.939 84.2917 183.041 84.177 183.111L84.0246 183.015L84.2988 182.836ZM80.5583 183.47C80.7118 183.433 80.7266 183.612 80.5333 183.604C80.4337 183.564 80.2623 183.53 80.1019 183.483L80.1398 183.36C80.2993 183.395 80.4467 183.431 80.5583 183.47Z" fill="#1D1D1B"/>
<path d="M30.76 210.64C28.9 208.03 27.12 205.37 25.44 202.64C25.07 202.04 24.71 201.44 24.35 200.83C24.14 200.48 23.93 200.12 23.73 199.77C23.04 198.58 24.24 200.69 23.75 199.81C22.98 198.44 22.23 197.06 21.51 195.66C18.68 190.2 16.24 184.54 14.2 178.74C14.08 178.41 13.62 177.04 14.06 178.36C14.5 179.68 14.09 178.44 13.99 178.14C13.74 177.39 13.5 176.63 13.27 175.87C12.82 174.41 12.39 172.94 11.99 171.47C11.21 168.59 10.52 165.68 9.94004 162.76C9.86004 162.37 9.79004 161.99 9.71004 161.6C9.46004 160.31 10.09 163.72 9.86004 162.43C9.73004 161.66 9.59004 160.89 9.46004 160.11C9.22004 158.62 9.00004 157.12 8.82004 155.63C8.64004 154.14 8.47004 152.64 8.33004 151.14C8.26004 150.42 8.20004 149.7 8.15004 148.97C8.12004 148.64 8.10004 148.3 8.08004 147.97C8.07004 147.8 8.06004 147.64 8.05004 147.47C7.96004 146.13 8.18004 149.75 8.12004 148.7C7.97004 145.76 7.90004 142.81 7.93004 139.86C7.95004 138.36 7.99004 136.86 8.06004 135.37C8.08004 135.04 8.09004 134.71 8.11004 134.37C8.20004 132.58 7.96004 136.6 8.06004 135.27C8.11004 134.5 8.17004 133.72 8.23004 132.95C8.47004 130.02 8.81004 127.1 9.24004 124.2C9.46004 122.72 9.77004 121.25 9.98004 119.77C10.02 119.51 9.56004 121.95 9.73004 121.1C9.76004 120.94 9.79004 120.77 9.82004 120.61C9.89004 120.23 9.97004 119.85 10.05 119.47C10.2 118.71 10.37 117.95 10.53 117.19C11.17 114.32 11.9 111.47 12.72 108.65C13.14 107.21 13.59 105.78 14.06 104.36C14.24 103.81 14.74 102.39 13.92 104.76C14.03 104.45 14.14 104.13 14.25 103.81C14.51 103.08 14.77 102.34 15.04 101.61C17.11 96.0099 19.57 90.5599 22.38 85.2899C22.72 84.6499 23.07 84.0099 23.43 83.3699C23.59 83.0799 23.76 82.7799 23.92 82.4899C23.89 82.5399 23.11 83.8899 23.62 83.0199C23.73 82.8299 23.84 82.6299 23.96 82.4399C24.72 81.1299 25.51 79.8299 26.32 78.5399C27.92 76.0099 29.6 73.5299 31.36 71.1099C34.97 66.1699 38.92 61.4799 43.18 57.0799C44.27 55.9599 45.38 54.8599 46.51 53.7699L45.56 54.6799C57.34 43.3999 71.15 34.2699 86.18 27.9499C90.28 26.2299 94.46 24.7199 98.71 23.4199L97.66 23.7399C117.23 17.7999 138.08 16.4599 158.25 19.8599C163.94 20.8199 169.56 22.1499 175.07 23.8299L174.02 23.5099C189.24 28.1899 203.59 35.5799 216.18 45.3299C219.8 48.1299 223.27 51.1299 226.59 54.2999L225.64 53.3899C230.49 58.0499 235 63.0599 239.09 68.3899C241.54 71.5699 243.84 74.8599 245.99 78.2499C246.58 79.1699 247.15 80.0999 247.72 81.0399C247.96 81.4399 248.2 81.8399 248.44 82.2499C248.6 82.5199 248.75 82.7899 248.91 83.0599C249.51 84.0899 248.54 82.3899 248.91 83.0599C249.95 84.9599 250.97 86.8499 251.94 88.7899C253.49 91.9099 254.92 95.0799 256.22 98.3099C256.86 99.8999 257.47 101.5 258.05 103.11C258.19 103.5 258.33 103.89 258.46 104.28C258.54 104.5 258.61 104.73 258.69 104.95C258.75 105.1 258.11 103.21 258.35 103.96C258.62 104.8 258.9 105.63 259.16 106.47C260.15 109.65 261.02 112.87 261.77 116.11C262.15 117.75 262.49 119.4 262.81 121.06C263.06 122.36 262.43 118.97 262.66 120.28C262.73 120.68 262.8 121.08 262.87 121.48C263.02 122.34 263.15 123.19 263.28 124.05C263.78 127.36 264.14 130.69 264.39 134.04C264.42 134.38 264.44 134.73 264.46 135.07C264.55 136.38 264.32 132.5 264.41 134.23C264.46 135.09 264.49 135.95 264.52 136.82C264.58 138.49 264.6 140.15 264.59 141.82C264.58 143.49 264.54 145.15 264.47 146.82C264.46 147.16 264.44 147.51 264.42 147.85C264.4 148.25 264.3 149.91 264.42 148.03C264.54 146.15 264.43 147.78 264.4 148.21C264.37 148.67 264.33 149.13 264.3 149.58C264.04 152.84 263.65 156.09 263.15 159.32C263.03 160.11 262.9 160.9 262.76 161.7C262.69 162.09 262.59 162.49 262.55 162.89C262.52 163.14 262.96 160.73 262.79 161.59C262.73 161.87 262.68 162.15 262.63 162.43C262.31 164.06 261.96 165.69 261.57 167.31C260.82 170.49 259.95 173.65 258.96 176.77C258.72 177.54 258.44 178.29 258.21 179.06C258.16 179.23 258.81 177.31 258.55 178.05C258.49 178.21 258.44 178.38 258.38 178.54C258.23 178.97 258.08 179.41 257.92 179.84C257.36 181.41 256.76 182.97 256.14 184.52C254.91 187.57 253.57 190.58 252.12 193.53C251.38 195.04 250.61 196.53 249.81 198C249.42 198.71 249.03 199.42 248.63 200.13C248.3 200.73 249.04 199.41 249 199.48C248.88 199.68 248.77 199.88 248.65 200.08C248.42 200.48 248.18 200.88 247.94 201.28C246.24 204.14 244.43 206.93 242.52 209.65C238.61 215.21 234.27 220.47 229.55 225.35C228.38 226.56 227.19 227.74 225.98 228.9L226.93 227.99C215.25 239.16 201.58 248.22 186.7 254.52C182.53 256.29 178.26 257.83 173.93 259.17L174.98 258.85C155.38 264.82 134.5 266.17 114.29 262.77C108.61 261.82 103.01 260.48 97.5 258.81L98.55 259.13C83.4 254.48 69.11 247.15 56.56 237.46C52.76 234.53 49.14 231.39 45.68 228.08L46.63 228.99C40.79 223.36 35.49 217.22 30.75 210.64C30.03 209.64 28.85 209.09 27.7 209.73C26.43 210.44 25.64 212.6 25.33 213.87C24.42 217.67 24.35 222.84 26.75 226.18C36.31 239.46 48.3 251.11 61.93 260.17C74.02 268.21 87.39 274.11 101.39 277.93C115.39 281.75 129.29 283.18 143.42 282.43C158 281.65 172.43 278.41 186 273.03C199.66 267.62 212.38 259.89 223.54 250.34C234.19 241.21 243.5 230.55 250.86 218.6C258.22 206.65 264.05 193.22 267.66 179.37C271.27 165.52 272.98 150.63 272.42 136.12C271.83 120.81 269.05 105.83 263.99 91.3699C258.93 76.9099 250.79 62.2299 240.77 49.9099C232.19 39.3699 222 30.0399 210.69 22.4999C199.38 14.9599 187.68 9.65987 175.06 5.80987C162.44 1.95987 150.05 0.10987 137.24 -0.00013007C124.43 -0.11013 111.38 1.68987 98.97 5.33987C85.89 9.17987 73.45 14.8299 62.09 22.3799C50.6 30.0099 40.22 39.4399 31.52 50.1499C22.82 60.8599 16.15 72.2899 11.07 84.6799C5.99004 97.0699 2.32004 111.29 0.870044 125.17C-0.609956 139.3 -0.239956 153.72 2.32004 167.71C4.89004 181.78 9.25004 195.5 15.83 208.23C19.05 214.46 22.69 220.48 26.77 226.19C27.49 227.2 28.68 227.74 29.82 227.1C31.09 226.39 31.88 224.23 32.19 222.96C33.11 219.15 33.17 214 30.77 210.65L30.76 210.64Z" fill="black"/>
</g>
<defs>
<clipPath id="clip0_3416_10050">
<rect width="272.55" height="282.62" fill="white"/>
</clipPath>
</defs>
</svg>
