<svg width="225" height="109" viewBox="0 0 225 109" fill="none" xmlns="http://www.w3.org/2000/svg">
<g clip-path="url(#clip0_3416_12203)">
<path d="M59.87 38.4998C51.91 34.4698 43.96 32.2898 34.9 34.0698C25.82 35.8498 17.6 40.6098 10.02 45.9198C6.25002 48.5598 2.40002 51.5998 0.840023 55.9198C-0.129978 58.6098 -0.119977 61.5498 0.230023 64.3898C1.38002 73.6798 6.02002 82.1498 10.91 90.1398C26.09 114.93 63.08 105.06 88.32 105.06C103.11 105.06 143.17 108.14 157.35 108.76C171.53 109.38 199.26 103.83 206.65 102.6C214.05 101.37 226.37 73.6298 223.91 66.8498C221.44 60.0698 225.76 55.1398 212.2 47.1298C198.64 39.1198 191.25 35.0098 177.07 39.8398C162.89 44.6698 151.8 58.2198 151.8 58.2198C151.8 58.2198 156.72 39.0098 156.73 33.1998C156.73 15.8798 125.03 -0.32022 112.1 -0.000219816C99.49 0.30978 92.66 -1.10022 77.22 9.41978C70.91 13.7198 61.33 30.8298 59.86 38.4898L59.87 38.4998Z" fill="black"/>
</g>
<defs>
<clipPath id="clip0_3416_12203">
<rect width="224.21" height="108.8" fill="white"/>
</clipPath>
</defs>
</svg>
