<svg width="301" height="187" viewBox="0 0 301 187" fill="none" xmlns="http://www.w3.org/2000/svg">
<g clip-path="url(#clip0_3416_12148)">
<path d="M28.23 167.47C25.62 168.55 22.66 168.52 20.13 167.87C18.71 167.5 17.31 166.95 16.03 166.21C15.7 166.02 15.14 165.63 14.51 165.15C13.88 164.67 13.31 164.17 12.76 163.63C12.48 163.36 12.21 163.08 11.95 162.79C12.38 163.27 11.95 162.77 11.88 162.68C11.41 162.06 10.93 161.45 10.5 160.8C10.14 160.26 9.79997 159.7 9.48997 159.13C9.98997 160.02 9.37998 158.88 9.32998 158.77C9.09998 158.3 8.88997 157.82 8.68997 157.34C8.43997 156.73 8.21998 156.12 8.00998 155.5C7.92998 155.26 7.40998 154.13 7.91998 155.27C7.76998 154.94 7.70998 154.52 7.62998 154.17C7.47998 153.56 7.34998 152.94 7.23998 152.31C7.16998 151.94 7.11998 151.56 7.05998 151.19C6.87998 150.11 7.13998 152.28 7.02998 150.88C6.96998 150.19 6.93998 149.49 6.92998 148.79C6.92998 148.26 6.76998 147.4 6.95998 146.89L6.91998 147.53C6.93998 147.28 6.95998 147.03 6.97998 146.77C7.01998 146.39 7.05998 146.02 7.10998 145.64C7.20998 144.89 7.33998 144.14 7.48998 143.4C7.53998 143.17 7.74998 141.91 7.51998 143.19C7.58998 142.82 7.71998 142.45 7.82998 142.1C8.00998 141.5 8.20998 140.9 8.42998 140.31C8.68998 139.6 8.97998 138.91 9.29998 138.22C9.22998 138.37 8.86997 139.04 9.27997 138.29C9.51997 137.85 9.74998 137.41 10.01 136.97C10.33 136.43 10.66 135.9 11.02 135.38C11.23 135.07 11.45 134.76 11.68 134.46C11.74 134.38 12.53 133.43 11.94 134.12C12.91 133 13.94 131.95 15.09 131.01C15.56 130.62 16.05 130.26 16.54 129.9C15.91 130.35 16.9 129.67 16.94 129.65C17.25 129.46 17.56 129.27 17.88 129.09C19.1 128.4 20.38 127.81 21.69 127.32C22.43 127.04 23.19 126.8 23.95 126.59C23.96 126.59 25.12 126.31 24.45 126.46C24.81 126.38 25.17 126.31 25.52 126.25C27.07 125.98 28.65 125.86 30.23 125.88C30.96 125.89 31.68 125.93 32.4 126.01C32.76 126.05 33.12 126.1 33.48 126.15C33.91 126.22 33.96 126.23 33.61 126.17C33.85 126.22 34.08 126.27 34.32 126.32C35.86 126.68 37.34 127.21 38.78 127.87C41.73 129.24 43.26 124.52 43.13 122.56C43.06 121.5 43.02 120.44 43.03 119.37C43.03 118.96 43.22 118.15 43.08 117.78C43.12 117.89 42.97 119.06 43.07 118.03C43.1 117.7 43.13 117.37 43.17 117.04C43.28 115.98 43.44 114.93 43.64 113.89C43.73 113.43 43.83 112.98 43.92 112.52C44.12 111.57 43.89 112.51 43.88 112.66C43.91 112.31 44.1 111.85 44.2 111.51C44.79 109.47 45.54 107.46 46.45 105.55C46.01 106.46 46.68 105.13 46.82 104.87C47.07 104.4 47.33 103.94 47.6 103.48C48.17 102.51 48.78 101.55 49.43 100.63C49.74 100.2 50.05 99.7703 50.37 99.3503C50.44 99.2603 50.95 98.6203 50.64 99.0003C50.33 99.3803 50.86 98.7503 50.93 98.6603C51.66 97.8003 52.43 96.9703 53.24 96.1803C54.76 94.6903 56.4 93.3303 58.15 92.1303C57.7 92.4403 58.25 92.0703 58.31 92.0303C58.53 91.8903 58.76 91.7403 58.98 91.6003C59.43 91.3203 59.89 91.0503 60.35 90.7903C61.33 90.2303 62.34 89.7203 63.37 89.2503C65.36 88.3303 67.43 87.5803 69.55 87.0003C71.35 86.5003 73.75 86.1203 76.06 85.9703C78.58 85.8003 81.11 85.8903 83.62 86.2003C85.38 86.4203 86.56 83.9703 86.87 82.7003C87.34 80.8203 87.22 78.2403 85.97 76.6403C85.6 76.1803 85.25 75.7003 84.93 75.2103C84.79 74.9903 84.66 74.7603 84.52 74.5403C84.12 73.9503 84.86 75.2803 84.56 74.6303C84.32 74.1003 84.06 73.5803 83.84 73.0303C83.74 72.7903 83.66 72.5403 83.57 72.3003C83.21 71.3503 83.72 72.9803 83.57 72.3303C83.31 71.2503 83.21 70.1103 82.93 69.0503C82.97 69.2003 83.03 70.4003 82.98 69.3803C82.97 69.1203 82.94 68.8503 82.93 68.5903C82.9 67.9303 82.89 67.2703 82.91 66.6103C82.91 66.3503 82.95 66.0703 82.94 65.8203C83 67.1203 82.89 66.5403 82.94 66.1503C83 65.6303 83.06 65.1003 83.14 64.5803C83.24 63.9503 83.36 63.3303 83.49 62.7103C83.53 62.5403 83.75 61.6203 83.57 62.3103C83.38 63.0503 83.7 61.8403 83.75 61.7003C84.1 60.4903 84.52 59.2903 84.97 58.1103C85.21 57.4803 85.47 56.8603 85.74 56.2503C85.86 55.9803 85.98 55.7003 86.1 55.4303C86.15 55.3203 86.66 54.2303 86.39 54.8003C86.08 55.4603 86.72 54.1303 86.7 54.1703C86.83 53.9003 86.97 53.6303 87.1 53.3703C87.37 52.8403 87.65 52.3003 87.93 51.7703C88.56 50.5803 89.22 49.4003 89.88 48.2303C91.13 46.0003 92.41 43.7903 93.76 41.6203C95.11 39.4503 96.6 37.2003 98.16 35.0903C98.56 34.5503 98.97 34.0103 99.38 33.4803C99.56 33.2403 99.75 33.0103 99.94 32.7803C99.81 32.9403 99.46 33.3503 100.05 32.6603C100.89 31.6703 101.75 30.6903 102.64 29.7503C104.2 28.1103 105.86 26.5603 107.6 25.1103C108.52 24.3403 109.47 23.6003 110.43 22.8903C110.86 22.5703 111.29 22.2703 111.73 21.9603C111.83 21.8903 112.39 21.5203 111.83 21.8903C112.16 21.6703 112.5 21.4503 112.83 21.2403C116.69 18.7703 120.86 16.7003 125.19 15.1903C126.26 14.8203 127.34 14.4903 128.43 14.1903C128.94 14.0503 129.46 13.9103 129.97 13.7803C130.23 13.7203 130.49 13.6503 130.75 13.5903C130.08 13.7403 131.17 13.5003 131.28 13.4803C133.49 13.0203 135.73 12.6903 137.98 12.4903C142.78 12.0603 147.62 12.2503 152.37 13.0003C152.64 13.0403 152.92 13.0903 153.19 13.1403C152.59 13.0403 153.25 13.1503 153.51 13.2103C154.19 13.3403 154.86 13.4903 155.54 13.6503C156.82 13.9503 158.09 14.2903 159.35 14.6703C161.94 15.4503 164.47 16.4003 166.93 17.5103C167.56 17.8003 168.19 18.1003 168.81 18.4103C169.06 18.5303 169.31 18.6603 169.55 18.7903C169.73 18.9003 169.92 19.0103 170.1 19.1103C169.69 18.8603 169.64 18.8303 169.93 19.0103C171.05 19.7303 172.17 20.4503 173.25 21.2303C175.51 22.8503 177.79 24.4403 179.92 26.2103C181.77 27.7403 184.6 27.1303 185.67 24.9303C185.99 24.2703 186.34 23.6403 186.74 23.0303C186.92 22.7503 187.12 22.4903 187.31 22.2103C188.03 21.1603 186.8 22.7003 187.2 22.3403C188.24 21.4103 189.14 20.4203 190.26 19.5603C191.19 18.8503 189.23 20.1803 190.24 19.5803C190.53 19.4103 190.81 19.2303 191.11 19.0703C191.7 18.7403 192.3 18.4403 192.92 18.1603C194.28 17.5603 195.68 17.1103 197.12 16.7503L195.84 17.0403C199.1 16.3103 202.46 16.2203 205.75 16.7703L204.44 16.5303C206.66 16.9303 208.83 17.5603 210.92 18.4103C212.01 18.8503 213.08 19.3403 214.12 19.8803C214.61 20.1303 215.1 20.4003 215.59 20.6703C215.73 20.7503 216.24 20.9403 216.31 21.0903L215.8 20.7803C215.98 20.8803 216.16 20.9903 216.33 21.1203C217.27 21.7603 218.16 22.4703 219.04 23.1803C219.48 23.5403 219.92 23.9003 220.36 24.2803C220.41 24.3203 221.18 24.9703 221.17 24.9803L220.66 24.3403L221.79 25.6103C223.53 27.2203 225.44 28.6603 227.17 30.2803C228.75 31.7603 231.15 31.6203 232.67 30.1403C234.42 28.4403 236.3 26.9103 238.31 25.5403L237.03 26.4103C241.49 23.4103 246.44 21.2603 251.67 20.0103L250.23 20.3403C255.66 19.0903 261.27 18.8603 266.77 19.8003L265.31 19.5403C269.55 20.3103 273.63 21.7703 277.34 23.9803L276.02 23.1703C277.83 24.2803 279.54 25.5403 281.11 26.9703C281.86 27.6503 282.55 28.3703 283.25 29.0903C284.1 29.9903 282.34 28.0303 282.9 28.6903C283.08 28.9003 283.26 29.1203 283.44 29.3303C283.8 29.7603 284.14 30.2003 284.48 30.6503C285.08 31.4603 285.65 32.2903 286.19 33.1403C286.46 33.5703 286.72 34.0003 286.97 34.4403C287.24 34.9203 287.61 35.8103 286.64 33.8103C286.79 34.1103 286.95 34.4103 287.1 34.7103C287.55 35.6103 287.96 36.5303 288.33 37.4703C288.52 37.9403 288.69 38.4103 288.86 38.8803C288.95 39.1403 289.04 39.4103 289.13 39.6703C289.55 40.8903 288.57 37.6703 288.92 38.9803C289.18 39.9503 289.43 40.9203 289.63 41.9003C289.72 42.3403 289.79 42.7703 289.86 43.2103C289.9 43.4803 289.94 43.7603 289.98 44.0303C290.23 45.6503 289.82 42.2203 289.88 43.1503C289.95 44.2003 290.03 45.2403 290.04 46.2903C290.04 46.7303 290.02 47.1703 290.02 47.6103C289.99 48.9903 290.2 45.5403 290.09 46.5503C290.06 46.8803 290.04 47.2103 290 47.5303C289.89 48.5103 289.74 49.4903 289.54 50.4603C289.5 50.6503 289.31 51.1003 289.36 51.2603C289.36 51.2603 289.94 49.1403 289.62 50.2303C289.46 50.7603 289.31 51.2903 289.14 51.8103C288.97 52.3303 288.77 52.8503 288.57 53.3703C288.44 53.6903 287.68 55.3603 288.3 54.0503C288.92 52.7403 288.02 54.5703 287.84 54.8803C287.51 55.4703 287.17 56.0503 286.81 56.6203C286.41 57.2503 285.99 57.8603 285.55 58.4603C285.35 58.7303 285.14 59.0003 284.94 59.2703C284.18 60.2903 285.9 58.1803 284.99 59.2103C284.08 60.2403 283.19 61.2303 282.21 62.1703C280.06 64.2603 277.69 66.1203 275.22 67.8103L276.5 66.9403C270.11 71.2603 262.98 74.3603 255.46 76.1003L256.88 75.7703C255.04 76.1803 253.18 76.5203 251.31 76.7703C247.51 77.2903 246.01 81.7003 246.15 85.0703C246.18 85.8103 246.16 86.5503 246.15 87.2903C246.15 88.2003 246.39 85.0103 246.19 86.5203C246.15 86.8503 246.12 87.1903 246.07 87.5203C245.97 88.2503 245.83 88.9803 245.68 89.7003C245.42 90.9803 246.1 88.2003 245.83 89.1103C245.73 89.4303 245.65 89.7603 245.55 90.0803C245.35 90.7203 245.13 91.3603 244.88 91.9903C244.73 92.3703 244.58 92.7503 244.42 93.1203C244.31 93.3703 243.78 94.5003 244.31 93.4003C244.84 92.3003 244.29 93.4203 244.16 93.6603C244 93.9603 243.84 94.2603 243.67 94.5603C243.3 95.2103 242.92 95.8603 242.51 96.4903C242.14 97.0603 241.75 97.6303 241.35 98.1803C241.15 98.4603 240.94 98.7303 240.74 99.0003C240.15 99.7703 240.46 99.2303 240.89 98.8303C239.83 99.8103 238.96 101.02 237.92 102.03C235.72 104.16 233.32 106.04 230.79 107.76L232.03 106.92C222.73 113.15 211.87 117.77 200.98 120.31L202.36 119.99C195.12 121.63 187.67 122.18 180.33 120.9L181.72 121.15C180.84 120.99 179.97 120.8 179.11 120.6C177.85 120.3 176.85 120.33 175.74 121.08C174.63 121.83 173.7 123.08 173.34 124.38C172.88 126.04 172.35 127.68 171.73 129.29C171.47 129.98 171.19 130.66 170.9 131.34C170.73 131.74 170.56 132.13 170.38 132.52C169.7 134.01 171.03 131.22 170.44 132.4C168.97 135.32 167.3 138.12 165.37 140.75C164.91 141.39 164.33 141.99 163.91 142.66C164.84 141.18 164.3 142.18 163.99 142.55C163.68 142.92 163.35 143.3 163.03 143.67C161.97 144.87 160.86 146.03 159.71 147.14C157.31 149.45 154.73 151.56 151.98 153.44L153.19 152.62C148.13 156.04 142.48 158.8 136.52 160.22L137.86 159.91C133.28 160.96 128.52 161.22 123.88 160.39L125.22 160.63C123.85 160.37 122.5 160.02 121.18 159.55C120.54 159.32 119.91 159.06 119.29 158.76C118.96 158.6 118.64 158.44 118.32 158.27C117.87 158.02 117.43 157.42 118.46 158.38C117.49 157.49 116.32 156.8 115.35 155.87C114.58 155.14 116.26 157.01 115.56 156.11C115.37 155.86 115.17 155.62 114.98 155.37C114.54 154.77 114.14 154.14 113.78 153.48C112.85 151.8 110.69 150.88 108.9 151.65C106.76 152.57 106.05 154.97 105.56 157.02C106.15 154.53 105.57 156.84 105.33 157.48C105.22 157.76 105.13 158.17 104.95 158.41C105.15 158.16 105.73 156.95 105.17 157.91C104.87 158.44 104.57 158.97 104.23 159.47C104.05 159.75 103.84 160.01 103.66 160.28C102.97 161.28 104.61 159.2 103.8 160.12C102.94 161.09 102.03 162 101.04 162.84C100.56 163.25 100.06 163.63 99.55 164C99.26 164.21 98.29 164.72 99.56 164C99.26 164.17 98.97 164.38 98.68 164.57C93.81 167.58 88.32 169.35 82.78 170.65L84.07 170.35C76.94 171.98 69.61 172.67 62.36 171.42L63.64 171.65C61.28 171.22 58.98 170.58 56.76 169.67C55.69 169.23 54.64 168.73 53.62 168.17C53.35 168.02 53.09 167.87 52.82 167.72C52.66 167.63 52.09 167.15 52.6 167.59C53.19 168.09 52.39 167.43 52.25 167.33C52 167.16 51.75 166.98 51.51 166.8C50.63 166.15 49.79 165.45 49 164.7C48.6 164.33 48.23 163.94 47.85 163.55C47 162.67 48.42 164.26 47.98 163.69C47.8 163.45 47.59 163.23 47.41 162.99C46.74 162.14 46.15 161.24 45.58 160.32C44.91 159.25 46.05 161.3 45.73 160.63C45.6 160.36 45.46 160.09 45.33 159.82C45.07 159.27 44.85 158.71 44.63 158.14C43.68 155.61 40.54 153.42 38.2 155.75C35.72 158.24 35.6 162.37 36.77 165.49C41.4 177.82 53.7 185.24 66.39 186.54C73.67 187.29 80.94 186.08 88 184.33C93.09 183.06 98.13 181.26 102.55 178.39C105.65 176.37 108.22 174.17 110.52 171.28C112.98 168.19 114.33 164.6 115.25 160.81L107.04 164.35C110.01 169.79 115.55 173.63 121.5 175.12C127.83 176.71 134.11 176.38 140.4 174.84C153.29 171.68 164.53 162.89 172.43 152.46C177 146.43 180.48 139.41 182.52 132.13L176.75 135.91C190.52 139.23 204.52 136.49 217.48 131.31C230.44 126.13 242.19 119.66 249.9 108.45C254.62 101.58 257.2 93.1503 256.9 84.8103L251.74 93.1103C264.37 91.4903 276.63 86.3903 286.28 77.9803C291.19 73.7003 295.06 68.4903 297.74 62.5703C300.1 57.3403 301.02 51.3803 300.96 45.6703C300.83 34.0303 296.15 22.7803 288.21 14.3303C280.96 6.61026 270.43 2.65026 259.95 2.54026C247.79 2.41026 235.55 7.40026 226.88 15.8903L232.38 15.7503C230.23 13.7603 227.96 11.4403 225.32 10.1303L226.63 10.9203C220.07 6.51026 213.03 2.72026 205.1 1.69026C198.92 0.890263 192.03 2.37026 186.84 5.85026C183.44 8.13026 180.52 11.0303 178.73 14.7603L184.48 13.4803C182.23 11.6503 179.86 9.84026 177.27 8.53026C175.1 7.43026 172.88 6.46026 170.66 5.47026C165.77 3.28026 160.65 1.81026 155.37 0.880263C145.26 -0.899737 134.94 -0.0497372 125.19 3.18026C115.68 6.33026 106.83 11.5803 99.73 18.6703C95.72 22.6803 92.27 27.2703 89.22 32.0403C86.17 36.8103 83.44 41.5703 81.01 46.5503C77.94 52.8403 75.73 59.3003 75.47 66.3503C75.23 72.7003 76.96 79.6103 81.05 84.5903L83.4 75.0303C74.06 74.0903 64.1 76.5103 56.22 81.6303C47.74 87.1403 41.45 95.3903 38.34 105.03C36.51 110.7 35.67 116.76 36.1 122.71L40.45 117.4C27.93 111.71 12.79 117.35 5.56998 128.64C-2.32002 140.99 -1.94002 159.47 7.99998 170.61C10.67 173.6 14 175.97 17.96 176.89C21.92 177.81 26.26 177.4 29.88 175.21C31.52 174.22 32.05 171.99 31.61 170.18C31.26 168.72 30.1 166.68 28.27 167.43L28.23 167.47Z" fill="#1D1D1B"/>
</g>
<defs>
<clipPath id="clip0_3416_12148">
<rect width="300.91" height="186.81" fill="white"/>
</clipPath>
</defs>
</svg>
