<svg width="236" height="306" viewBox="0 0 236 306" fill="none" xmlns="http://www.w3.org/2000/svg">
<g clip-path="url(#clip0_3416_10613)">
<path d="M41.5602 128.28C42.2802 127.01 43.2002 125.89 44.0802 124.74C44.9602 123.59 46.0702 122.49 47.1902 121.49C49.2502 119.65 51.4902 118.03 53.8702 116.61C58.7302 113.72 63.9802 111.34 69.2102 109.18C81.2602 104.2 93.7302 100.67 106.61 98.5499C117.63 96.7399 128.84 95.5899 140.01 95.4199C145.31 95.3399 150.61 95.4899 155.87 96.1699C160.82 96.8099 165.49 97.9199 170.59 99.4299C173.08 100.17 175.52 101.06 177.88 102.12C178.95 102.6 180 103.12 181.03 103.67C181.55 103.95 182.05 104.24 182.56 104.53C183.57 105.1 181.92 104.11 182.9 104.73C183.2 104.92 183.49 105.11 183.79 105.3C185.97 106.73 188.06 108.35 189.94 110.16C190.18 110.39 190.42 110.63 190.65 110.88C191.18 111.43 190.05 110.11 190.86 111.11C191.29 111.64 191.71 112.17 192.09 112.72C192.32 113.05 192.54 113.39 192.75 113.74C192.75 113.74 193.38 114.88 193.06 114.26C192.74 113.64 193.31 114.81 193.31 114.8C193.5 115.23 193.68 115.66 193.84 116.1C193.97 116.45 194.4 117.1 193.87 116.15C194.04 116.45 194.08 116.98 194.14 117.31C194.16 117.43 194.31 117.93 194.27 118.09L194.2 117.45C194.22 117.71 194.24 117.98 194.25 118.24C194.25 118.32 194.31 119.63 194.27 118.72C194.24 117.87 194.23 119 194.21 119.13C194.18 119.33 194.16 120.05 194.02 120.2C194.2 119.54 194.23 119.4 194.13 119.77C194.08 119.94 194.03 120.11 193.98 120.28C193.81 120.81 193.64 121.46 193.34 121.93C193.99 120.91 193.34 121.89 193.22 122.09C193.07 122.35 192.92 122.6 192.76 122.86C192.41 123.42 192.02 123.96 191.61 124.47C192.14 123.82 191.72 124.32 191.61 124.45C191.27 124.8 190.95 125.17 190.6 125.52C189.72 126.39 188.78 127.2 187.78 127.94C187.48 128.16 187.18 128.39 186.87 128.6C187.39 128.25 186.86 128.6 186.77 128.66C186.13 129.05 185.49 129.44 184.84 129.8C182.07 131.31 179.1 132.49 176.19 133.71C152.29 143.71 127.16 149.81 101.31 151.6C95.6602 151.99 89.9902 152.14 84.3302 151.88C78.6702 151.62 73.3702 150.96 68.1902 149.65C65.4402 148.96 62.7402 148.09 60.1102 147.03C58.9202 146.55 57.7502 146.03 56.5902 145.46C55.4302 144.89 53.7402 143.97 52.9602 143.5C50.9602 142.29 48.2902 140.34 46.4302 138.33C47.0502 139 46.2202 138.06 46.1602 137.99C46.0002 137.79 45.8502 137.59 45.7002 137.39C45.3002 136.84 44.9602 136.26 44.5802 135.7C44.1802 135.1 45.0302 136.72 44.5702 135.67C44.4302 135.35 44.2702 135.03 44.1402 134.7C44.0502 134.48 43.9802 134.26 43.8902 134.05C43.7102 133.52 43.7302 133.61 43.9602 134.34C43.9002 134.12 43.8402 133.9 43.7902 133.67C43.6602 133.12 43.5302 132.57 43.4102 132.02C43.3502 131.75 43.3402 131.46 43.2602 131.2C43.0602 130.5 43.3702 132.5 43.2902 131.36L43.1402 130.05C43.2502 130.78 43.2902 130.88 43.2602 130.32V129.97C43.2602 130.14 43.2402 130.32 43.2302 130.49C43.2102 129.77 43.4102 129 43.5602 128.3C43.8802 126.79 43.4302 124.62 42.1802 123.59C41.1102 122.71 39.4802 123.05 38.8602 124.33C37.3402 127.45 36.5102 130.76 36.7002 134.26C36.8902 137.76 38.4102 141.54 40.4502 144.53C44.0702 149.83 49.7902 153.45 55.4902 156.17C66.4402 161.38 78.9402 162.85 90.9502 162.81C102.96 162.77 116.13 161.32 128.44 159.02C142.5 156.4 156.34 152.52 169.73 147.49C173.05 146.24 176.35 144.93 179.62 143.54C182.5 142.32 185.44 141.13 188.13 139.52C193.5 136.31 198.3 131.68 200.26 125.58C202.63 118.23 200.94 110.06 196.22 104C192.59 99.3399 187.57 95.7999 182.38 93.0699C179.99 91.8099 177.5 90.7499 174.95 89.8699C171.76 88.7599 169.37 88.2099 166.45 87.6999C161.06 86.7599 155.62 86.4799 150.16 86.3899C139.26 86.2199 128.42 87.4399 117.62 88.7899C103.31 90.5799 89.0202 93.4899 75.5602 98.7699C64.2502 103.21 52.2102 108.48 44.3202 118.11C43.2402 119.43 42.2402 120.79 41.4202 122.28C40.6502 123.68 40.2602 125.33 39.9402 126.88C39.7602 127.76 40.8402 129.69 41.6202 128.3L41.5602 128.28Z" fill="#1D1D1B"/>
<path d="M39.1101 139.76C41.2101 152.12 44.9001 164.1 49.5201 175.73C54.1401 187.36 58.82 197.9 64.06 208.71C66.74 214.25 69.5301 219.75 72.4001 225.19C74.7501 229.64 76.8901 234.19 79.3301 238.59C81.7701 242.99 84.49 247 88.18 250.22C91.87 253.44 96.2201 255.37 100.86 256.31C110.33 258.22 119.95 256.8 129.32 254.96C138.69 253.12 148.64 251.17 157.93 248.01C167.22 244.85 176.39 240.14 183.17 232.9C190.66 224.9 194.32 214.38 196.19 203.76C197.16 198.24 197.67 192.64 198.16 187.06C198.73 180.51 199.16 173.95 199.51 167.38C200.17 154.96 200.52 142.52 201.05 130.1C201.18 127.05 201.32 124.01 201.48 120.96C201.59 118.93 200.24 115.59 197.8 115.65C195.14 115.72 194.49 119.14 194.39 121.14C193.77 133.23 193.42 145.34 192.91 157.44C192.78 160.48 192.64 163.53 192.48 166.57C192.4 168.05 192.32 169.53 192.24 171.01C192.2 171.67 192.16 172.33 192.12 172.98C192.1 173.31 192.08 173.64 192.06 173.97C192.13 172.81 192.04 174.26 192.02 174.5C191.61 180.58 191.11 186.66 190.44 192.72C190.17 195.18 189.87 197.63 189.46 200.07C189.26 201.25 189.05 202.42 188.81 203.59C188.69 204.17 188.56 204.76 188.43 205.34C188.36 205.66 188.29 205.99 188.2 206.31C188.44 205.47 188.27 206.04 188.13 206.55C187.51 208.84 186.77 211.1 185.87 213.3C185.65 213.85 185.41 214.39 185.17 214.93C185.11 215.06 184.75 215.82 185.02 215.27C185.33 214.62 184.76 215.78 184.76 215.77C184.22 216.82 183.64 217.85 183.02 218.85C182.4 219.85 181.72 220.83 181 221.78C180.84 221.99 180.68 222.2 180.51 222.41C181 221.81 180.44 222.48 180.31 222.62C179.83 223.18 179.33 223.72 178.81 224.25C177.19 225.91 175.43 227.43 173.58 228.82C173.12 229.17 172.65 229.5 172.18 229.83C171.65 230.2 172.6 229.55 172.06 229.91C171.79 230.09 171.52 230.26 171.25 230.44C170.28 231.06 169.28 231.65 168.27 232.22C166.12 233.41 163.9 234.48 161.64 235.43C157.24 237.29 152.69 238.74 148.08 239.97C143.47 241.2 139.7 242 134.88 242.99C126.04 244.8 117.04 246.78 107.96 246.43C106.91 246.39 105.85 246.31 104.8 246.2C104.19 246.13 103.58 246.04 102.98 245.96C102.89 245.95 102.28 245.84 102.85 245.94C102.49 245.87 102.14 245.8 101.78 245.72C99.69 245.25 97.64 244.58 95.71 243.64C95.23 243.41 94.7601 243.16 94.3001 242.9C93.7101 242.57 95.04 243.41 94.1 242.78C93.9 242.65 93.7001 242.52 93.5101 242.38C92.5701 241.73 91.6901 241.01 90.8601 240.23C90.4601 239.86 90.09 239.47 89.71 239.07C89.59 238.95 89.18 238.45 89.71 239.08C89.55 238.89 89.3901 238.71 89.2301 238.52C88.4401 237.57 87.7 236.57 87 235.54C86.4 234.65 85.83 233.75 85.28 232.83C84.99 232.34 84.7 231.85 84.42 231.35C84.3 231.13 84.1701 230.91 84.0501 230.68C83.5101 229.72 84.3801 231.31 83.9101 230.42C82.8301 228.37 81.81 226.3 80.77 224.23C78.32 219.34 75.7101 214.55 73.2601 209.66C67.9601 199.1 63.0101 188.36 58.4701 177.45C56.2401 172.09 54.1801 166.65 51.9701 161.28C50.8601 158.59 49.7801 155.88 48.7301 153.17C47.6801 150.46 46.41 147.97 45.26 145.37C44.11 142.77 43.0501 140.36 41.8801 137.88C41.5101 137.1 40.78 136.41 39.92 136.96C39.06 137.51 38.9301 138.85 39.0901 139.77L39.1101 139.76Z" fill="#1D1D1B"/>
<path d="M44.1501 150.21C42.9301 147.75 41.4601 145.73 39.2001 144.13C37.1101 142.66 34.8501 141.84 32.3501 141.39C27.6301 140.55 22.7601 141.59 18.4001 143.5C8.77007 147.72 1.86007 156.79 0.350073 167.2C-1.26993 178.32 2.79007 189.34 9.33007 198.22C15.8701 207.1 24.8201 214.12 34.7701 218.94C40.9301 221.92 47.5501 223.51 54.2401 224.76C57.5001 225.37 61.3101 225.94 64.2601 226.46C67.7101 227.07 71.0701 227.95 74.4701 228.76C79.6601 229.99 80.2601 219.95 76.1001 218.3C70.7701 216.19 64.9001 215.35 59.2801 214.32C53.6601 213.29 48.4701 212.53 42.9401 210.75C40.2801 209.89 37.7001 208.83 35.1901 207.59C34.1301 207.07 33.0801 206.52 32.0501 205.94C31.5301 205.65 31.0201 205.36 30.5101 205.06C30.3801 204.98 29.6601 204.54 30.2001 204.88C29.8601 204.67 29.5301 204.46 29.2001 204.25C25.1201 201.63 21.3201 198.55 17.9601 195.05C17.7301 194.81 17.5101 194.57 17.2901 194.33C17.1601 194.19 16.5901 193.54 17.1101 194.13C16.7701 193.73 16.4201 193.34 16.0901 192.93C15.2501 191.92 14.4501 190.88 13.6901 189.81C13.0001 188.85 12.3401 187.86 11.7201 186.85C11.4101 186.34 11.1001 185.83 10.8101 185.32C10.6501 185.04 10.4901 184.75 10.3301 184.47C10.7201 185.19 10.4001 184.59 10.2101 184.21C9.71007 183.21 9.26007 182.19 8.85007 181.15C8.65007 180.64 8.46007 180.13 8.28007 179.61C8.19007 179.34 8.03007 179.03 8.00007 178.75L8.18007 179.34C8.11007 179.11 8.05007 178.88 7.99007 178.65C7.71007 177.63 7.49007 176.59 7.31007 175.54C7.24007 175.11 7.27007 174.57 7.11007 174.16C7.51007 175.23 7.20007 174.96 7.15007 174.39C7.12007 174.05 7.10007 173.7 7.09007 173.36C7.07007 172.85 7.06007 172.34 7.07007 171.82C7.07007 171.59 7.09007 171.37 7.09007 171.14C7.10007 169.97 6.99007 172.17 7.07007 171.39C7.17007 170.32 7.30007 169.27 7.52007 168.22C7.55007 168.08 7.66007 167.04 7.58007 167.88C7.50007 168.72 7.63007 167.71 7.68007 167.55C7.81007 167.12 7.95007 166.69 8.10007 166.26C8.29007 165.73 8.50007 165.2 8.72007 164.68C8.78007 164.55 9.01007 164.16 9.00007 164.06C8.75007 164.58 8.70007 164.69 8.86007 164.38C8.94007 164.23 9.02007 164.07 9.10007 163.92C9.60007 162.99 10.1601 162.1 10.7701 161.24C10.9101 161.05 11.0601 160.86 11.1901 160.66C11.8501 159.73 10.8301 161.05 11.3001 160.52C11.7701 159.99 12.1901 159.5 12.6601 159.01C13.4601 158.18 14.3201 157.4 15.2201 156.68C15.6001 156.37 15.9801 156.08 16.3701 155.79C16.5901 155.63 16.8201 155.47 17.0401 155.31C17.1801 155.21 17.3101 155.12 17.4501 155.02C17.1501 155.22 17.1101 155.24 17.3401 155.1C19.3401 153.8 21.4701 152.71 23.7201 151.91C24.3001 151.7 24.9001 151.51 25.4901 151.34C25.7101 151.28 25.9201 151.22 26.1401 151.17C27.1701 150.9 25.5501 151.26 26.5901 151.07C27.7401 150.87 28.8801 150.72 30.0501 150.63C31.2201 150.54 32.3201 150.52 33.4501 150.63C34.4201 150.72 35.0801 150.89 36.2701 151.23C38.3801 151.82 40.5101 152.78 42.3901 153.89C43.0701 154.29 43.8301 153.48 44.0801 152.96C44.4601 152.17 44.5401 151.01 44.1401 150.21H44.1501Z" fill="#1D1D1B"/>
<path d="M49.2601 165.09C49.0601 163.03 48.5201 161.17 47.2301 159.52C46.0001 157.96 44.5301 156.77 42.8201 155.77C41.3401 154.91 39.6701 154.43 38.0001 154.1C36.2401 153.75 34.7001 153.59 32.5001 153.75C24.5401 154.31 17.0301 158.51 14.5101 166.45C11.5701 175.7 15.3501 185.03 21.5101 192.01C27.6701 198.99 35.6701 204.25 44.0701 208.05C48.5501 210.08 53.2401 211.65 57.8601 213.32C60.1801 214.17 62.4901 215.08 64.7001 216.19C65.2401 216.46 65.7701 216.73 66.2901 217.02C66.5201 217.15 66.7501 217.28 66.9801 217.41C67.3701 217.63 66.6301 217.18 67.2601 217.57C68.0101 218.04 68.7501 218.45 69.5401 218.83C69.7601 218.94 70.0101 219.06 70.2101 219.19C69.6801 218.82 70.5801 219.57 70.6301 219.61C72.5601 221.2 74.7701 219.59 75.4301 217.55C76.1901 215.24 76.0101 211.88 73.9801 210.2C73.1701 209.53 72.4301 208.82 71.6501 208.11C70.7501 207.29 69.5901 206.69 68.5501 206.08C66.7601 205.03 64.8901 204.13 62.9901 203.32C59.2701 201.74 55.4101 200.57 51.5901 199.27C47.7701 197.97 43.9901 196.44 40.3701 194.59C39.5401 194.17 38.7201 193.73 37.9001 193.27C37.4901 193.04 37.0901 192.81 36.6901 192.57C36.6201 192.53 35.9201 192.11 36.2601 192.32C36.5201 192.48 35.6501 191.93 35.6701 191.94C33.9801 190.84 32.3601 189.64 30.8001 188.37C29.2401 187.1 27.7701 185.73 26.4001 184.27C26.2201 184.08 26.0401 183.88 25.8601 183.68C25.9201 183.74 26.2401 184.14 25.9401 183.76C25.6101 183.34 25.2501 182.94 24.9201 182.53C24.3001 181.74 23.7001 180.94 23.1401 180.1C22.8401 179.66 22.5601 179.21 22.2801 178.76C22.1801 178.6 22.0901 178.43 21.9901 178.27C21.6201 177.68 22.3301 178.98 22.0401 178.37C21.6701 177.56 21.2901 176.77 20.9901 175.93C21.0101 175.98 20.7601 175.3 20.7701 175.29C20.8201 175.25 21.0501 176.4 20.8901 175.61C20.8101 175.24 20.7201 174.88 20.6501 174.5C20.6101 174.29 20.6001 174.08 20.5501 173.87C20.4201 173.32 20.6201 174.54 20.6201 174.53C20.6701 174.11 20.5501 173.58 20.5501 173.16C20.5501 173.01 20.5501 172.86 20.5501 172.71C20.5501 171.83 20.5401 173.19 20.5101 173.26C20.6101 172.95 20.5901 172.57 20.6401 172.24C20.6701 172.05 20.7301 171.86 20.7501 171.67C20.8101 171.15 20.5901 172.28 20.5901 172.27C20.7801 171.92 20.8501 171.42 20.9901 171.04C21.0601 170.86 21.1501 170.69 21.2001 170.51C21.3501 170.05 20.9801 170.96 20.9701 170.97C21.1801 170.79 21.3701 170.21 21.5201 169.97C21.7001 169.68 21.8901 169.41 22.0801 169.13C22.1201 169.07 22.2801 168.8 22.3401 168.78C22.0201 168.86 21.8401 169.36 22.2901 168.85C22.7901 168.28 23.3001 167.74 23.8701 167.23C24.1401 166.99 24.4301 166.77 24.7101 166.55C24.8301 166.45 24.9601 166.37 25.0901 166.27C24.4401 166.79 25.2301 166.18 25.3501 166.11C26.8101 165.22 28.3901 164.54 30.0301 164.05C31.3801 163.65 33.0601 163.37 34.8101 163.25C36.5601 163.13 38.1701 162.99 39.8501 163.13C41.5301 163.27 42.6201 163.4 44.1901 164.1C45.3501 164.62 46.5901 165.62 47.5201 166.64C48.4501 167.66 49.3301 165.77 49.2601 165.04V165.09Z" fill="#1D1D1B"/>
<path d="M86.5301 80.8301C85.1401 80.0101 83.6101 79.5101 82.1901 78.7301C81.8201 78.5301 81.7701 78.4801 81.2301 78.1601C81.1301 78.1001 80.4301 77.7001 80.7101 77.8801C80.0401 77.4701 79.4001 77.0101 78.7801 76.5301C78.2001 76.0901 77.6401 75.6201 77.1101 75.1201C76.8401 74.8701 76.5701 74.6201 76.3101 74.3601C76.1401 74.1901 75.9601 74.01 75.8001 73.84C75.7501 73.79 75.2601 73.2601 75.5101 73.5401C75.7701 73.8401 75.3801 73.3801 75.3601 73.3601C75.2401 73.2201 75.1301 73.0801 75.0101 72.9401C74.7801 72.6601 74.5501 72.3701 74.3301 72.0701C73.8501 71.4301 73.4001 70.7701 72.9801 70.1001C72.5901 69.4801 72.2201 68.8401 71.8701 68.2001C72.3001 68.9701 71.8201 68.0601 71.6701 67.7601C71.4901 67.3801 71.3101 66.9901 71.1501 66.6001C70.8701 65.9301 70.6201 65.2401 70.3901 64.5501C70.0901 63.6501 70.5701 65.3001 70.3501 64.3801C70.2301 63.9001 70.1101 63.4201 70.0001 62.9401C69.9101 62.5301 69.8301 62.1101 69.7601 61.7001C69.7101 61.4101 69.4301 59.9501 69.6601 61.2001C69.5001 60.3201 69.5101 59.3701 69.4901 58.4801C69.4901 58.0601 69.4901 57.6401 69.4901 57.2201C69.4901 57.0201 69.5601 55.7701 69.5101 56.4501C69.4601 57.1301 69.5701 55.8801 69.5901 55.6801C69.6401 55.1901 69.7101 54.7001 69.7801 54.2201C69.9201 53.3101 70.1201 52.4201 70.2901 51.5201C70.4001 50.9501 70.2401 51.7001 70.2201 51.7601C70.2701 51.5601 70.3301 51.3501 70.3801 51.1501C70.5101 50.6701 70.6501 50.2001 70.8001 49.7301C71.0601 48.9201 71.3401 48.1201 71.6501 47.3301C71.8001 46.9401 71.9701 46.5401 72.1301 46.1501C72.2101 45.9601 72.3001 45.7601 72.3901 45.5701C72.4301 45.4901 72.8001 44.7101 72.5801 45.1601C72.3601 45.6101 72.6701 44.9901 72.6901 44.9501C72.8201 44.7001 72.9501 44.4501 73.0801 44.2001C73.2801 43.8301 73.4801 43.4601 73.7001 43.0901C74.1501 42.3101 74.6301 41.5401 75.1201 40.7801C76.0701 39.3201 77.0701 37.8901 78.0701 36.4501C82.4001 30.2301 86.2601 23.6701 86.2001 15.8601C86.1501 9.48006 82.7001 -1.76994 74.2701 0.250056C73.1201 0.530056 72.6501 2.47006 72.6001 3.38006C72.5301 4.68006 72.8301 6.15006 73.8501 7.05006C74.3401 7.48006 74.8301 7.90006 75.3201 8.33006C75.5601 8.54006 75.7801 8.77006 76.0101 8.99006C75.8601 8.85006 75.3801 8.30006 76.1201 9.08006C77.0701 10.0901 75.8801 8.67006 76.3801 9.40006C76.7301 9.91006 77.0701 10.4301 77.4201 10.9501C77.5901 11.2001 77.7801 11.4201 77.9401 11.6701C78.0201 11.7901 78.1001 11.9201 78.1801 12.0501C78.2301 12.1401 78.2801 12.2201 78.3301 12.3101C78.4601 12.5301 78.4301 12.4801 78.2601 12.1701C78.0201 12.0701 78.0701 11.7601 78.2401 12.1701C78.3001 12.3101 78.3701 12.4501 78.4301 12.5901C78.5501 12.8701 78.6601 13.1601 78.7601 13.4501C78.8101 13.5801 78.8301 13.7801 78.9101 13.8901C78.9001 13.8701 78.6601 12.8401 78.7401 13.3601C78.8001 13.7701 78.9401 14.1801 79.0101 14.6001C79.0501 14.8201 79.2001 15.9201 79.0901 14.9901C78.9801 14.0601 79.0901 15.1701 79.0901 15.3901C79.1001 15.7101 79.1001 16.0301 79.1101 16.3501C79.1301 17.5701 79.2401 15.4701 79.1301 16.3501C79.0501 16.9801 78.9601 17.6101 78.8501 18.2401C78.7001 19.1201 79.2101 17.1301 78.8201 18.3101C78.6701 18.7501 78.5301 19.2001 78.3701 19.6401C78.2201 20.0301 78.0701 20.4101 77.9001 20.7901C77.7801 21.0801 77.3501 21.8901 77.7301 21.1801C77.3101 21.9701 76.8901 22.7701 76.4401 23.5401C74.6301 26.6001 72.4601 29.4301 70.5001 32.4001C62.0401 45.2701 59.0801 63.5201 68.1501 76.9301C70.1601 79.9001 72.7401 82.6201 75.7101 84.6501C77.2001 85.6701 78.8001 86.6701 80.5001 87.2801C82.2001 87.8901 84.2201 88.5501 86.0401 88.3001C87.6501 88.0801 88.3101 86.4101 88.4001 84.9601C88.5101 83.3101 87.9801 81.7201 86.5201 80.8501L86.5301 80.8301Z" fill="#1D1D1B"/>
<path d="M110.5 42.2299C108.38 45.3699 106.4 48.7199 105.27 52.3599C104.14 55.9999 103.98 59.9399 104.74 63.6599C105.92 69.3899 109.23 74.1799 113.06 78.4699C115 80.6399 117.03 82.7199 119.03 84.8299C119.51 85.3299 119.98 85.8399 120.45 86.3499C120.67 86.5799 120.88 86.8199 121.1 87.0599C121.21 87.1799 121.31 87.2999 121.42 87.4099C121.07 87.0199 121.3 87.2799 121.52 87.5199C122.41 88.5399 123.27 89.5799 124.09 90.6699C124.91 91.7599 125.62 92.8499 126.3 93.9899C126.87 94.9499 126.05 93.4799 126.42 94.1799C126.56 94.4499 126.7 94.7099 126.83 94.9799C127.14 95.6099 127.42 96.2499 127.67 96.8999C127.78 97.1799 127.87 97.4699 127.97 97.7499C128.27 98.5899 127.74 96.8199 127.95 97.6899C128.06 98.1399 128.17 98.5799 128.26 99.0399C128.3 99.2499 128.33 99.4599 128.37 99.6799C128.48 100.28 128.51 99.9799 128.37 99.5899C128.65 100.4 128.44 101.53 128.45 102.38C128.45 103.01 128.48 102.1 128.48 102.07C128.52 102.25 128.44 102.53 128.42 102.71C128.36 103.28 128.27 103.85 128.17 104.42C128.08 104.92 127.97 105.41 127.86 105.91C127.81 106.12 127.76 106.34 127.72 106.55C127.59 107.29 127.94 105.85 127.72 106.58C127.4 107.64 127.09 108.69 126.69 109.72C126.48 110.27 126.25 110.8 126.02 111.34C126.02 111.33 125.73 111.98 125.89 111.64C126.02 111.37 125.67 112.07 125.64 112.14C125.13 113.14 124.59 114.12 124.01 115.08C121.67 118.99 118.92 122.65 116.53 126.54C115.74 127.82 115.72 129.72 116.46 131.02C117.09 132.13 118.25 132.78 119.37 131.83C125.42 126.7 130.55 120.13 133.35 112.66C136.34 104.69 135.83 95.7599 131.69 88.3199C128.97 83.4399 124.65 79.5299 120.58 75.7899C118.54 73.9199 116.49 72.0599 114.59 70.0499C114.38 69.8299 114.18 69.6099 113.98 69.3899C113.73 69.1199 114 69.4199 114.04 69.4599C113.94 69.3499 113.84 69.2399 113.75 69.1199C113.3 68.5999 112.86 68.0599 112.44 67.5199C111.64 66.4999 110.93 65.4399 110.24 64.3399C110.22 64.2999 109.99 63.8899 110.16 64.2199C110.33 64.5499 110.06 64.0199 110.03 63.9599C109.86 63.6199 109.7 63.2799 109.55 62.9299C109.42 62.6199 109.29 62.3199 109.18 62.0099C109.11 61.8199 108.82 60.8299 108.99 61.4699C108.6 59.9799 108.38 58.4999 108.46 56.9499C108.69 52.4999 110.42 48.2199 112.26 44.2199C112.76 43.1399 111.57 40.6899 110.51 42.2599L110.5 42.2299Z" fill="#1D1D1B"/>
<path d="M152.24 198.58C151.26 196.72 149.94 195.15 148.74 193.43C147.87 192.18 146.35 192.23 145.54 193.51C144.67 194.88 144.72 197.06 145.66 198.39C147.89 201.54 150.41 204.37 153.39 206.84C154.81 208.02 156.3 209.11 157.85 210.11C159.4 211.11 161.16 212.3 162.93 212.98C168.84 215.27 168.69 205.78 168.04 202.44C167.22 198.24 165.17 194.31 163.3 190.5C161.1 186.03 158.68 181.67 156.06 177.43L153.91 183.5C159.86 186.21 162.78 192.89 168.3 196.26C169.15 196.78 169.8 196.86 170.62 196.2C173.03 194.27 173.25 190.7 172.69 187.89C172.13 185.08 170.78 182.48 169.58 179.96C167.01 174.57 164.19 168.69 159.8 164.54C159.08 163.86 158.1 164.29 157.63 165.02C157.05 165.94 156.97 167.36 157.43 168.34C159.56 172.89 162.41 177.05 164.68 181.53C165.79 183.71 166.82 185.94 167.77 188.2C167.89 188.49 168.18 189.25 168.19 189.27C168.12 189.04 168.28 189.63 168.29 189.69C168.3 189.75 168.42 190.42 168.38 190.07C168.33 189.69 168.38 190.41 168.38 190.43C168.5 190.68 168.35 190.4 168.41 190.17C168.55 189.66 168.67 189.82 168.16 190.21L170.48 190.15C164.54 186.44 161.5 179.54 155.01 176.51C153.8 175.95 152.74 177.25 152.38 178.23C151.86 179.65 152.08 181.3 152.86 182.58C155.18 186.38 157.32 190.28 159.25 194.28C160.2 196.25 161.11 198.24 161.93 200.27C162.65 202.04 163.32 204.01 163.37 205.54C163.39 206.18 163.4 205.99 163.33 206.5C163.23 207.05 163.23 207.09 163.33 206.62C164.31 206.15 164.58 205.75 164.12 205.44C163.96 205.22 163.25 205.04 163.02 204.92C162.53 204.68 162.05 204.43 161.58 204.16C160 203.29 158.49 202.31 157.05 201.23C154.03 198.98 151.17 196.32 148.77 193.4L146.71 199.22C148.1 199.99 149.35 201.02 150.87 201.51C152.39 202 152.76 199.48 152.27 198.56L152.24 198.58Z" fill="#1D1D1B"/>
<path d="M166.87 154.01C166.38 158.53 168.09 163.37 169.94 167.43C171.79 171.49 174.4 175.96 178.79 177.89C179.91 178.38 180.94 177.23 181.25 176.28C181.69 174.94 181.57 173.4 180.8 172.2C180.23 171.31 179.69 170.42 179.06 169.57C178.7 169.09 178.37 168.58 177.97 168.13C178.06 168.23 177.26 167.35 177.54 167.66C177.82 167.97 177.25 167.32 177.2 167.27C175.97 165.83 174.79 164.31 173.73 162.74C172.67 161.17 172.03 160.05 171.27 158.36C170.51 156.67 169.86 154.8 168.9 153.12C168.2 151.9 166.97 153.03 166.86 154L166.87 154.01Z" fill="#1D1D1B"/>
<path d="M81.34 234.46C69.17 233.73 56.55 239.33 47.51 247.26C38.47 255.19 32.47 266.14 33.54 277.91C34.02 283.23 35.9 288.49 39.42 292.56C42.94 296.63 47.34 299.39 52.37 300.96C55.74 302.01 59.3 302.56 62.78 303.13C66.26 303.7 69.77 304.16 73.29 304.5C80.47 305.19 87.7 305.4 94.91 305.15C121.19 304.24 146.75 297 170.69 286.37C191.63 277.07 212.05 264.26 225.93 245.67C227.57 243.48 229.09 241.2 230.48 238.84C232.16 236 233.83 233.05 234.79 229.87C236.74 223.4 236.46 216.39 232.67 210.63C229.85 206.35 225.25 203.52 220.51 201.82C217.72 200.82 214.7 200.3 211.76 199.93C207.93 199.44 204.1 199.39 200.35 200.42C198.67 200.88 197.13 201.71 195.46 202.19C193.64 202.71 191.81 203.22 190 203.8C189.02 204.11 188.26 205.47 187.94 206.33C187.49 207.56 187.38 209.22 187.68 210.5C188.19 212.63 189.64 214.96 192.13 214.16C193.02 213.88 193.94 213.53 194.86 213.36C195.51 213.24 196.4 213.31 197.15 213.09C197.72 212.92 197.75 212.96 198.55 213.09C199.02 213.16 199.49 213.2 199.95 213.27C200.98 213.42 201.96 213.51 202.99 213.57C206.71 213.78 210.43 213.87 214.11 214.52L212.86 214.3C215.01 214.69 217.13 215.23 219.19 215.95C220.16 216.29 221.11 216.67 222.04 217.12C222.46 217.33 222.88 217.55 223.29 217.77C223.67 217.97 224.04 218.4 223 217.58C223.21 217.75 223.46 217.88 223.68 218.03C224.44 218.56 225.17 219.14 225.83 219.79C225.98 219.94 226.12 220.11 226.28 220.25C225.12 219.18 225.64 219.49 225.92 219.86C226.2 220.23 226.49 220.6 226.74 221C227.02 221.44 227.29 222.24 226.51 220.5C226.6 220.69 226.7 220.88 226.79 221.07C226.93 221.37 227.44 222.9 227.05 221.58C226.36 219.28 227.99 224.52 227.44 222.9C226.75 220.85 227.1 221.68 227.18 222.17C227.21 222.39 227.26 222.62 227.3 222.84C227.51 223.97 227.21 220.89 227.23 222.31C227.23 222.8 227.23 223.3 227.24 223.79C227.26 224.63 227.44 221.93 227.27 223.13C227.23 223.4 227.2 223.67 227.16 223.94C227.12 224.21 227.07 224.49 227.02 224.77C226.99 224.94 226.7 226.06 226.98 225.03C227.26 224 226.93 225.17 226.88 225.32C226.75 225.75 226.61 226.18 226.46 226.6C226.23 227.24 225.98 227.87 225.71 228.5C225.58 228.81 225.31 229.72 225.7 228.57C225.61 228.85 225.42 229.12 225.29 229.38C224.67 230.56 224.03 231.73 223.35 232.87C222.06 235.05 220.67 237.16 219.18 239.21C218.44 240.23 217.67 241.23 216.88 242.22C216.98 242.1 217.46 241.51 216.93 242.16C216.7 242.44 216.47 242.72 216.24 243C215.81 243.51 215.38 244.01 214.94 244.51C211.54 248.39 207.82 251.91 203.81 255.15C201.83 256.76 199.8 258.3 197.72 259.77C197.22 260.12 196.73 260.47 196.23 260.82C196.03 260.96 195.83 261.1 195.63 261.23C194.64 261.91 196.26 260.82 195.25 261.48C194.13 262.22 193.01 262.95 191.88 263.67C183.33 269.05 174.26 273.57 164.97 277.52C155.68 281.47 145.33 285.29 135.18 288.09C122.93 291.47 110.19 293.55 97.39 294.2C84.71 294.85 71.72 294.09 59.36 291.74C56.77 291.25 54.21 290.69 51.75 289.72C50.75 289.33 49.78 288.88 48.83 288.37C48.56 288.22 48.29 288.07 48.02 287.91C48.14 287.98 48.69 288.35 48.09 287.95C47.59 287.62 47.09 287.29 46.62 286.93C45.85 286.35 45.12 285.72 44.43 285.04C44.23 284.84 44.04 284.63 43.84 284.43C43.39 283.97 43.95 284.63 44.01 284.62C43.86 284.64 43.1 283.47 42.98 283.31C42.71 282.94 42.46 282.56 42.22 282.17C42.09 281.97 41.97 281.63 41.8 281.46C41.85 281.51 42.32 282.5 41.99 281.81C41.56 280.9 41.18 279.99 40.85 279.05C40.52 278.11 41.16 280.27 40.92 279.27C40.88 279.09 40.83 278.92 40.79 278.74C40.68 278.29 40.59 277.84 40.52 277.39C40.44 276.89 40.41 275.34 40.46 277.14C40.44 276.57 40.37 276.01 40.36 275.44C40.35 274.96 40.36 274.48 40.37 274C40.39 272.91 40.23 275.32 40.36 274.22C40.38 274.02 40.4 273.83 40.42 273.63C40.48 273.13 40.55 272.64 40.63 272.14C40.71 271.68 41.1 270.8 41.01 270.34L40.86 270.97C40.91 270.77 40.97 270.56 41.03 270.36C41.09 270.16 41.15 269.95 41.21 269.75C41.37 269.23 41.55 268.72 41.74 268.22C41.93 267.72 42.14 267.19 42.36 266.68C42.49 266.37 42.63 266.06 42.78 265.76C42.32 266.75 42.83 265.69 42.9 265.55C44.09 263.26 45.53 261.12 47.09 259.07C47.86 258.06 46.63 259.59 47.47 258.6C47.64 258.39 47.82 258.19 47.99 257.99C48.43 257.48 48.88 256.98 49.34 256.5C50.35 255.43 51.4 254.41 52.5 253.43C54.49 251.67 56.62 250.05 58.86 248.65C63.56 245.72 68.65 243.66 73.92 242.03C76.4 241.26 78.95 240.62 81.48 240.07C83.85 239.55 83.95 234.6 81.34 234.45V234.46Z" fill="#1D1D1B"/>
<path d="M88.9701 242.09C86.3601 242.46 84.2101 242.9 81.8601 243.45C80.1201 243.85 79.3501 244.03 77.7001 244.64C76.2501 245.17 74.8201 245.75 73.4101 246.37C67.7401 248.87 61.9101 252.22 58.3501 257.45C53.7301 264.23 55.0801 273.45 60.5301 279.32C63.9501 283 69.1101 284.99 73.9101 286.08C79.0801 287.25 84.3601 287.53 89.6401 287.34C94.9201 287.15 100.01 286.53 105.19 286.1C110.78 285.64 116.36 284.91 121.88 283.93C132.94 281.96 143.77 278.98 154.39 275.34C164.42 271.9 174.2 267.78 183.56 262.79C187.47 260.71 191.3 258.51 194.97 256.03C198.64 253.55 202.65 250.69 205.93 247.42C209.82 243.55 213.47 238.56 214.18 232.98C214.82 227.94 213.4 222.46 209.41 219.1C206.65 216.78 203.15 215.95 199.67 215.42C196.39 214.92 193.11 215.09 189.95 216.11C189.85 216.14 189.17 216.44 189.1 216.39C189.07 216.36 190.1 216.28 189.43 216.31C189.29 216.31 189.15 216.34 189.02 216.35C188.46 216.41 187.91 216.51 187.35 216.55C184.85 216.76 183.82 219.89 183.94 222.04C184.04 223.92 185.04 227.57 187.62 227.35C188.11 227.31 188.6 227.32 189.09 227.31C189.15 227.31 189.91 227.27 189.92 227.3C189.92 227.32 188.94 227.07 189.59 227.25C189.77 227.3 189.95 227.34 190.13 227.38C191.74 227.77 193.36 228.03 195 228.24C196.41 228.42 197.82 228.57 199.23 228.77C199.41 228.79 199.58 228.82 199.76 228.85C200.51 228.95 199.43 228.79 199.36 228.77C199.69 228.86 200.05 228.9 200.39 228.98C201.09 229.14 201.79 229.33 202.48 229.56C203.06 229.76 203.62 229.98 204.17 230.24C204.44 230.37 204.72 230.59 205 230.68L204.31 230.26L205.39 230.92C203.98 230.04 204.79 230.54 205.06 230.75C205.26 230.91 205.47 231.06 205.66 231.23C205.83 231.38 206.63 232.21 205.88 231.4C205.13 230.59 205.86 231.46 206 231.65C206.6 232.45 205.36 230.2 205.84 231.37C205.84 231.35 205.98 231.78 206 231.79C205.92 231.77 205.61 230.09 205.71 230.87C205.73 231.01 205.77 231.2 205.8 231.33C205.94 231.88 205.48 232.15 205.69 230.31C205.67 230.45 205.7 230.99 205.71 231.01C205.65 230.8 205.93 229.49 205.68 230.59C205.73 230.39 206.13 229.3 205.74 230.32C205.61 230.67 205.46 231.02 205.34 231.38C205.08 232.15 205.79 230.57 205.39 231.28C205.29 231.45 205.21 231.63 205.11 231.81C204.87 232.24 204.62 232.67 204.37 233.09C203.78 234.04 203.15 234.98 202.5 235.89C202.24 236.25 201.98 236.6 201.71 236.95C201.61 237.07 201.1 237.71 201.51 237.21C201.92 236.71 201.39 237.34 201.29 237.46C200.58 238.3 199.84 239.11 199.07 239.9C197.61 241.4 196.09 242.79 194.42 244.06C193.59 244.69 192.76 245.3 191.91 245.89C191.7 246.04 191.48 246.19 191.27 246.33C191.8 245.97 191.26 246.33 191.17 246.4C190.68 246.72 190.2 247.04 189.71 247.35C187.94 248.48 186.13 249.56 184.31 250.6C176.02 255.33 167.4 259.41 158.45 262.76C148.92 266.33 139.14 269.44 129.2 271.63C119.26 273.82 108.87 274.92 98.5601 275.88C89.1501 276.75 79.3101 277.67 70.4201 274.33C69.3801 273.94 68.3601 273.5 67.3801 273C66.6401 272.62 66.0101 272.24 65.0801 271.46C64.7301 271.17 64.3901 270.86 64.0701 270.53C64.5401 271.01 64.0801 270.55 64.0001 270.44C63.8401 270.23 63.6801 270.02 63.5301 269.8C63.3201 269.49 63.1301 269.17 62.9301 268.85C62.5201 268.21 63.0801 269.1 63.1001 269.19C63.0601 269.01 62.9001 268.78 62.8201 268.61C62.6801 268.31 62.5701 268 62.4401 267.69C62.0201 266.69 62.6901 268.83 62.4601 267.79C62.4001 267.49 62.3301 267.2 62.2701 266.9C62.0401 265.56 62.2801 267.8 62.2701 267.07C62.2701 266.79 62.2701 266.49 62.2501 266.21C62.2201 265.43 62.0601 267.66 62.2501 266.51C62.2801 266.3 62.4401 265.88 62.4001 265.67C62.4001 265.7 62.0201 266.91 62.2501 266.26C62.3001 266.13 62.3301 265.98 62.3701 265.85C62.4601 265.58 62.5701 265.31 62.6701 265.04C63.0501 264.04 62.3001 265.66 62.6501 265.06C62.9701 264.5 63.2701 263.93 63.6301 263.4C63.8001 263.14 63.9801 262.89 64.1701 262.64C64.2601 262.51 64.3701 262.39 64.4601 262.26C64.7401 261.85 63.9501 262.82 64.3001 262.46C64.7901 261.96 65.2301 261.41 65.7201 260.91C66.7001 259.93 67.7501 259.03 68.8401 258.18C69.4001 257.74 69.9801 257.32 70.5701 256.91C70.7201 256.81 70.8701 256.7 71.0201 256.6C70.5401 256.92 70.9401 256.65 71.0401 256.6C71.3901 256.38 71.7301 256.15 72.0801 255.93C74.5701 254.37 77.1801 252.99 79.8401 251.74C82.2101 250.63 84.5001 249.34 86.9001 248.27C87.7901 247.87 88.6801 247.49 89.5801 247.12C90.5901 246.71 90.8301 245.22 90.7101 244.29C90.6101 243.51 90.0901 241.97 89.0101 242.12L88.9701 242.09Z" fill="#1D1D1B"/>
</g>
<defs>
<clipPath id="clip0_3416_10613">
<rect width="235.98" height="305.25" fill="white"/>
</clipPath>
</defs>
</svg>
