<svg width="168" height="126" viewBox="0 0 168 126" fill="none" xmlns="http://www.w3.org/2000/svg">
<g clip-path="url(#clip0_3416_11717)">
<g style="mix-blend-mode:darken">
<mask id="mask0_3416_11717" style="mask-type:luminance" maskUnits="userSpaceOnUse" x="0" y="0" width="168" height="126">
<path d="M167.5 0H0V125.97H167.5V0Z" fill="white"/>
</mask>
<g mask="url(#mask0_3416_11717)">
<mask id="mask1_3416_11717" style="mask-type:luminance" maskUnits="userSpaceOnUse" x="0" y="0" width="168" height="126">
<path d="M167.5 0H0V125.97H167.5V0Z" fill="white"/>
</mask>
<g mask="url(#mask1_3416_11717)">
<path d="M68.24 124.21C62.18 123.83 57.26 120.82 52.4 117.54C49.42 115.53 46.31 113.56 43.01 112.17C34.73 108.68 27.19 103.8 19.26 99.6798C17.47 98.7498 15.51 97.6698 14.36 96.1098C13.27 94.6198 11.53 94.1898 10.51 92.7498C9.42 91.2198 8.2 89.7398 6.84 88.4498C3.02 84.7998 0.969996 80.2698 0.229996 75.1698C-0.860004 67.6798 1.87 60.9198 8.58 56.5098C13.99 52.9598 20.09 52.5998 26.1 51.5798C30.09 52.2498 34.18 52.5998 38.06 53.6798C42.74 54.9798 47.08 57.2998 51.79 58.6598C56.12 59.9098 60.19 62.0598 64.37 63.8398C64.94 64.0798 65.43 64.4898 65.96 64.8298C67.41 65.7598 68.87 66.6798 70.31 67.6298C71.09 68.1398 71.96 68.5898 72.59 69.2598C76.54 73.5098 80.71 77.5898 84.17 82.2698C86.28 85.1398 87.57 88.6198 90.61 90.7998C90.97 91.0598 91.16 91.5598 91.42 91.9598C93.91 95.8998 94.68 100.44 95.93 104.82C96.14 105.54 95.98 106.38 95.9 107.17C95.75 108.73 95.61 110.3 95.32 111.84C94.78 114.81 93.91 117.95 91.82 119.94C87.92 123.66 83.33 126.53 78.11 125.88C74.31 125.76 71.15 125.71 68.25 124.21H68.24ZM29.29 89.5298C29.29 89.5298 29.12 89.6898 29.03 89.7798C29.37 89.8298 29.7 89.8698 30.04 89.9198C30.11 90.4898 29.97 91.2198 30.28 91.6098C30.95 92.4598 31.76 93.2698 32.67 93.8598C35.97 95.9898 39.32 98.0498 42.7 100.07C43.63 100.63 44.67 101.24 45.71 101.34C48.8 101.63 51.42 102.93 53.99 104.51C57.37 106.59 61 108.01 64.94 108.62C65.7 108.74 66.42 109.12 67.17 109.34C67.89 109.55 68.63 109.69 69.64 109.37C69.15 108.97 68.71 108.43 68.15 108.2C65.09 106.97 61.98 105.82 58.9 104.63C57.87 104.24 56.76 103.96 55.85 103.38C50.84 100.14 45.27 97.9198 40.28 94.5798C37.2 92.5198 33.43 91.5098 29.97 90.0198C29.75 89.8498 29.54 89.6698 29.3 89.5298H29.29ZM21.32 76.3998C25.24 79.2698 29.08 82.2498 32.96 85.1598C33.71 85.7198 34.48 86.2998 35.33 86.6798C40.5 88.9798 45.22 92.0598 49.89 95.1998C54.93 98.5898 60.53 100.49 66.23 102.27C69.52 103.3 72.74 104.54 76.01 105.63C76.66 105.85 77.38 105.85 79.22 106.13C77.53 104.7 76.8 103.9 75.92 103.37C72.95 101.61 69.92 99.9398 66.91 98.2498C66.5 98.0198 66.02 97.9298 65.62 97.6998C63.46 96.4398 60.63 97.0798 58.68 95.1098C56.92 93.3298 55.07 91.6198 53.08 90.0998C49.61 87.4498 46.39 84.3998 42.09 82.9898C41.37 82.7498 40.73 82.2298 40.09 81.7798C35.26 78.3098 30.44 74.7998 25.6 71.3398C22.56 69.1598 20.97 68.7498 16.36 68.7498C16.88 72.0498 18.67 74.4498 21.31 76.3898L21.32 76.3998ZM65.1 76.1598C60.8 71.7898 54.72 69.7398 48.99 67.6598C44.46 66.0198 39.74 64.7098 34.33 64.8598C35.6 66.6798 37.19 67.4098 38.76 67.8698C43.98 69.3998 48.49 72.2298 52.96 75.1598C53.88 75.7598 54.89 76.2098 55.87 76.7198C59.91 78.8298 63.99 80.8698 67.98 83.0798C70.76 84.6198 73.01 86.8398 75.07 89.2498C75.77 90.0698 76.53 90.8498 77.26 91.6498C74.85 85.0298 69.66 80.7798 65.11 76.1598H65.1ZM29.57 62.3298C30.44 62.8998 31.16 63.3798 32.68 64.3898C31.9 62.0498 31.18 61.4698 29.57 62.3298ZM114.01 65.0098C110.74 61.6898 109.1 57.8498 108.89 53.3098C108.75 50.1698 108.79 47.0598 109.77 43.9998C110.9 40.4998 111.66 36.8698 112.93 33.4198C115.29 26.9798 119.31 21.4198 122.79 15.5698C123 15.2298 123.33 14.9498 123.64 14.6898C126.21 12.4898 128.43 9.81982 131.89 8.85982C132.39 8.71982 132.8 8.26982 133.28 8.01982C136.11 6.58982 138.29 4.26982 140.9 2.52982C144.76 -0.040184 148.9 -0.670184 153.35 0.689816C159.41 2.53982 164.97 8.62982 165.48 16.6298C165.58 18.2498 165.82 19.9298 166.41 21.4298C167.23 23.5298 167.43 25.6798 167.47 27.8598C167.52 30.7198 167.5 33.5898 167.34 36.4398C167.26 37.7798 166.92 39.1598 166.46 40.4298C164.53 45.7198 161.76 50.5398 158.28 54.9898C156.01 57.8798 153.73 60.7498 151.28 63.4798C149.1 65.9098 146.86 68.2898 144.62 70.6598C141.36 74.1098 137.38 74.0398 133.28 74.0598C130.14 72.7398 126.44 73.2498 124.01 71.2498C119.9 69.8098 116.77 67.8098 114 64.9998L114.01 65.0098ZM138.05 57.5598C141.5 55.7198 144.05 53.0998 146.47 50.1098C148.15 48.0398 149.3 45.8398 150.17 43.3898C152.23 37.6198 154.88 32.0598 156.24 26.0398C156.59 24.4898 157.03 22.9798 156.33 21.0298C155.78 21.6198 155.28 21.9198 155.12 22.3598C153.77 26.0598 152.11 29.6198 151.02 33.4698C149.27 39.6598 146.63 45.5598 142.33 50.4798C140.83 52.1998 138.84 53.4998 137.02 54.9198C135.54 56.0798 133.92 57.0898 132.49 59.2698C134.94 59.1498 136.43 58.4298 138.03 57.5798L138.05 57.5598ZM128.04 55.2898C130.79 52.6698 133.57 50.0598 136.23 47.3598C137.46 46.1098 138.46 44.6498 139.58 43.2898C142.35 39.8898 142.72 35.6498 143.93 31.5898C142.59 31.7098 142.2 32.6598 141.7 33.4298C139.69 36.4998 137.75 39.6198 135.71 42.6698C134.97 43.7798 134.03 44.7698 133.17 45.7998C132.82 46.2198 132.35 46.5598 132.1 47.0298C130.64 49.8098 128.63 52.2198 126.81 54.7498C126.68 54.9298 126.74 55.2498 126.67 55.9898C127.35 55.6498 127.78 55.5598 128.05 55.2998L128.04 55.2898ZM146.36 15.5998C146.56 15.3298 146.48 14.8398 146.59 13.9698C145.67 14.6898 145.02 15.0998 144.48 15.6398C143.04 17.0798 141.78 18.7098 140.22 19.9898C137.99 21.8298 137.51 24.1998 137.38 27.4298C140.66 23.1198 143.53 19.3698 146.36 15.5998ZM126.12 34.6998C125.71 35.0598 125.2 35.4398 125.06 35.9198C124.12 39.0498 121.66 41.5798 121.41 45.3598C124.99 42.4298 125.39 38.2398 127.04 34.5798C126.6 34.6298 126.28 34.5698 126.12 34.7098V34.6998Z" fill="black"/>
</g>
</g>
</g>
</g>
<defs>
<clipPath id="clip0_3416_11717">
<rect width="167.5" height="125.97" fill="white"/>
</clipPath>
</defs>
</svg>
