<svg width="246" height="231" viewBox="0 0 246 231" fill="none" xmlns="http://www.w3.org/2000/svg">
<g clip-path="url(#clip0_3416_11179)">
<path d="M123.11 19.7397C127.54 19.7397 131.13 23.3297 131.13 27.7597C131.13 32.1897 127.54 35.7797 123.11 35.7797C118.68 35.7797 115.09 32.1897 115.09 27.7597C115.09 23.3297 118.68 19.7397 123.11 19.7397Z" fill="white"/>
<path d="M109.36 4.6001C110.94 4.6001 112.22 5.8801 112.22 7.4601C112.22 9.0401 110.94 10.3201 109.36 10.3201C107.78 10.3201 106.5 9.0401 106.5 7.4601C106.5 5.8801 107.78 4.6001 109.36 4.6001Z" fill="white"/>
<path d="M74.65 29.7397C77.48 26.3697 82.51 25.9397 85.88 28.7797C89.25 31.6197 89.68 36.6397 86.84 40.0097C84.01 43.3797 78.98 43.8097 75.61 40.9697C72.24 38.1297 71.81 33.1097 74.65 29.7397Z" fill="white"/>
<path d="M82.44 4.07989C86.51 -0.760114 93.74 -1.38011 98.58 2.69989C103.42 6.76989 104.04 13.9999 99.96 18.8399C95.89 23.6799 88.66 24.2999 83.82 20.2199C78.98 16.1499 78.36 8.91989 82.44 4.07989Z" fill="white"/>
<path d="M180.78 21.8097C176.28 22.2797 173.02 26.2997 173.49 30.7997C173.96 35.2997 177.98 38.5597 182.48 38.0897C186.97 37.6197 190.24 33.5997 189.77 29.0997C189.3 24.5997 185.28 21.3397 180.78 21.8097Z" fill="white"/>
<path d="M168.98 36.3496C166.73 36.5796 165.1 38.5996 165.34 40.8396C165.57 43.0896 167.59 44.7196 169.83 44.4896C172.08 44.2596 173.71 42.2396 173.48 39.9996C173.25 37.7596 171.23 36.1196 168.99 36.3496H168.98Z" fill="white"/>
<path d="M241.19 111.11C237.19 105.95 217.68 93.6302 199.63 88.2802C181.58 82.9302 139.78 71.8402 108.45 69.5502C77.13 67.2602 59.39 72.6802 53.75 75.5002C48.11 78.3202 47.75 81.8502 47.39 83.5902C47.12 84.9202 45.84 91.2002 44.65 100.94C40.82 97.7702 34.17 92.7702 29.99 92.6602C23.88 92.4902 10.84 90.8902 6.71004 98.7202C2.57004 106.54 -0.859964 112.68 1.41004 124.54C3.67004 136.4 6.80004 144.63 15.38 151.81C23.96 158.99 35.58 167.52 38.83 169.27C42.08 171.02 44.78 179.41 52.46 178.57C55.48 178.24 57.93 177.71 59.82 177.18C69.24 192.03 82.05 201.63 82.05 201.63C82.05 201.63 82.66 203.92 82.79 206.84C82.91 209.76 85.19 212.75 88.99 215.34C92.79 217.93 115.93 226.66 132.44 228.96C148.95 231.27 162.99 228.01 164.04 224.61C165.1 221.21 166.85 217.96 169.91 217.14C172.97 216.32 180.07 211.64 190.9 206.28C201.73 200.92 203.4 196.56 212.79 188.38C222.18 180.19 223.36 176.82 226.23 171.63C229.1 166.44 239.61 148.73 239.61 148.73L244.67 124.12C245.88 118.23 245.2 116.28 241.2 111.12L241.19 111.11ZM45.42 158.33C43.55 156.86 36.5 152.52 31.97 147.62C31.97 147.62 20.96 138.49 17.11 130.84C13.26 123.18 15.17 117.43 16.31 111.89C17.45 106.34 23.56 106.51 29.45 107.72C35.34 108.93 37.58 119.15 39.22 123.46C40.01 125.55 42.19 126.72 44.22 127.39C45.43 134.75 47.89 143.08 51.33 157.74C51.48 158.39 51.7 159.02 51.88 159.66C49.16 159.37 46.36 159.06 45.43 158.33H45.42Z" fill="white"/>
<g style="mix-blend-mode:darken">
<path d="M143.48 230.44C139.8 230.44 136.05 230.18 132.34 229.66C115.84 227.35 92.56 218.63 88.59 215.92C84.52 213.15 82.21 209.93 82.08 206.86C81.98 204.58 81.57 202.67 81.42 202.03C79.75 200.73 68.2 191.52 59.5 177.99C57.31 178.57 54.97 179 52.54 179.26C52.15 179.3 51.77 179.32 51.41 179.32C46.51 179.32 43.7 175.76 41.43 172.91C40.35 171.55 39.42 170.37 38.5 169.88C35.2 168.1 23.68 159.66 14.93 152.34C6.08002 144.93 2.93002 136.26 0.720023 124.66C-1.53998 112.8 1.88002 106.34 5.84002 98.86L6.09002 98.38C9.26002 92.39 17.09 91.7 22.71 91.7C24.55 91.7 26.28 91.78 27.82 91.86C28.62 91.9 29.36 91.93 30.02 91.95C33.91 92.06 39.65 95.99 44.12 99.58C45.12 91.67 46.16 86.12 46.71 83.44L46.77 83.12C47.14 81.21 47.83 77.66 53.44 74.86C55.64 73.76 67.91 68.29 93.87 68.29C98.57 68.29 103.49 68.48 108.51 68.84C144 71.44 190.81 84.92 199.84 87.6C217.64 92.88 237.54 105.24 241.76 110.68C245.8 115.89 246.64 118.03 245.37 124.25L240.31 148.86C240.29 148.94 240.27 149.01 240.23 149.08C240.13 149.26 229.7 166.84 226.86 171.97C226.54 172.55 226.24 173.11 225.94 173.66C223.56 178.08 221.69 181.56 213.26 188.91C210.23 191.55 208 193.81 206.02 195.8C201.9 199.96 198.64 203.24 191.22 206.92C186.25 209.38 182.06 211.7 178.7 213.57C174.71 215.78 171.83 217.37 170.1 217.84C167.79 218.46 165.98 220.81 164.72 224.83C163.72 228.03 154.59 230.45 143.49 230.45L143.48 230.44ZM23.68 107.73C19.72 107.73 17.6 109.09 17 112.02C16.88 112.6 16.75 113.19 16.62 113.78C15.53 118.75 14.41 123.89 17.74 130.52C21.48 137.95 32.31 146.98 32.42 147.07C35.89 150.81 40.78 154.21 43.71 156.24C44.66 156.89 45.4 157.41 45.86 157.78C46.53 158.3 48.84 158.62 50.89 158.85C50.8 158.54 50.71 158.23 50.63 157.91C49.35 152.45 48.21 147.9 47.21 143.89C45.56 137.28 44.35 132.45 43.58 127.93C40.94 126.99 39.25 125.57 38.55 123.72C38.27 122.99 37.97 122.08 37.65 121.08C36.12 116.41 33.8 109.35 29.3 108.42C27.09 107.97 25.25 107.74 23.68 107.74V107.73Z" fill="#D48822"/>
</g>
<g style="mix-blend-mode:darken">
<path d="M143.48 230.44C139.8 230.44 136.05 230.18 132.34 229.66C115.84 227.35 92.56 218.63 88.59 215.92C84.52 213.15 82.21 209.93 82.08 206.86C81.98 204.58 81.57 202.67 81.42 202.03C79.75 200.73 68.2 191.52 59.5 177.99C57.31 178.57 54.97 179 52.54 179.26C52.15 179.3 51.77 179.32 51.41 179.32C46.51 179.32 43.7 175.76 41.43 172.91C40.35 171.55 39.42 170.37 38.5 169.88C35.2 168.1 23.68 159.66 14.93 152.34C6.08002 144.93 2.93002 136.26 0.720023 124.66C-1.53998 112.8 1.88002 106.34 5.84002 98.86L6.09002 98.38C9.26002 92.39 17.09 91.7 22.71 91.7C24.55 91.7 26.28 91.78 27.82 91.86C28.62 91.9 29.36 91.93 30.02 91.95C33.91 92.06 39.65 95.99 44.12 99.58C45.12 91.67 46.16 86.12 46.71 83.44L46.77 83.12C47.14 81.21 47.83 77.66 53.44 74.86C55.64 73.76 67.91 68.29 93.87 68.29C98.57 68.29 103.49 68.48 108.51 68.84C144 71.44 190.81 84.92 199.84 87.6C217.64 92.88 237.54 105.24 241.76 110.68C245.8 115.89 246.64 118.03 245.37 124.25L240.31 148.86C240.29 148.94 240.27 149.01 240.23 149.08C240.13 149.26 229.7 166.84 226.86 171.97C226.54 172.55 226.24 173.11 225.94 173.66C223.56 178.08 221.69 181.56 213.26 188.91C210.23 191.55 208 193.81 206.02 195.8C201.9 199.96 198.64 203.24 191.22 206.92C186.25 209.38 182.06 211.7 178.7 213.57C174.71 215.78 171.83 217.37 170.1 217.84C167.79 218.46 165.98 220.81 164.72 224.83C163.72 228.03 154.59 230.45 143.49 230.45L143.48 230.44ZM23.68 107.73C19.72 107.73 17.6 109.09 17 112.02C16.88 112.6 16.75 113.19 16.62 113.78C15.53 118.75 14.41 123.89 17.74 130.52C21.48 137.95 32.31 146.98 32.42 147.07C35.89 150.81 40.78 154.21 43.71 156.24C44.66 156.89 45.4 157.41 45.86 157.78C46.53 158.3 48.84 158.62 50.89 158.85C50.8 158.54 50.71 158.23 50.63 157.91C49.35 152.45 48.21 147.9 47.21 143.89C45.56 137.28 44.35 132.45 43.58 127.93C40.94 126.99 39.25 125.57 38.55 123.72C38.27 122.99 37.97 122.08 37.65 121.08C36.12 116.41 33.8 109.35 29.3 108.42C27.09 107.97 25.25 107.74 23.68 107.74V107.73Z" fill="#D8DADA"/>
</g>
<mask id="mask0_3416_11179" style="mask-type:luminance" maskUnits="userSpaceOnUse" x="0" y="68" width="246" height="162">
<path d="M241.19 111.11C237.19 105.95 217.68 93.6297 199.63 88.2797C181.58 82.9297 139.78 71.8397 108.45 69.5497C77.13 67.2597 59.39 72.6797 53.75 75.4997C48.11 78.3197 47.75 81.8497 47.39 83.5897C47.12 84.9197 45.84 91.1997 44.65 100.94C40.82 97.7697 34.17 92.7697 29.99 92.6597C23.88 92.4897 10.84 90.8897 6.71004 98.7197C2.57004 106.54 -0.859964 112.68 1.41004 124.54C3.67004 136.4 6.80004 144.63 15.38 151.81C23.96 158.99 35.58 167.52 38.83 169.27C42.08 171.02 44.78 179.41 52.46 178.57C55.48 178.24 57.93 177.71 59.82 177.18C69.24 192.03 82.05 201.63 82.05 201.63C82.05 201.63 82.66 203.92 82.79 206.84C82.91 209.76 85.19 212.75 88.99 215.34C92.79 217.93 115.93 226.66 132.44 228.96C148.95 231.27 162.99 228.01 164.04 224.61C165.1 221.21 166.85 217.96 169.91 217.14C172.97 216.32 180.07 211.64 190.9 206.28C201.73 200.92 203.4 196.56 212.79 188.38C222.18 180.19 223.36 176.82 226.23 171.63C229.1 166.44 239.61 148.73 239.61 148.73L244.67 124.12C245.88 118.23 245.2 116.28 241.2 111.12L241.19 111.11ZM45.42 158.33C43.55 156.86 36.5 152.52 31.97 147.62C31.97 147.62 20.96 138.49 17.11 130.84C13.26 123.18 15.17 117.43 16.31 111.89C17.45 106.34 23.56 106.51 29.45 107.72C35.34 108.93 37.58 119.15 39.22 123.46C40.01 125.55 42.19 126.72 44.22 127.39C45.43 134.75 47.89 143.08 51.33 157.74C51.48 158.39 51.7 159.02 51.88 159.66C49.16 159.37 46.36 159.06 45.43 158.33H45.42Z" fill="white"/>
</mask>
<g mask="url(#mask0_3416_11179)">
<path d="M231.81 112.08C230.59 109.32 226.83 107.54 221.79 105.52C222.24 104.76 222.57 103.92 222.73 103.01C223.42 98.9596 220.7 95.1096 216.65 94.4096C216.3 94.3496 215.95 94.3496 215.61 94.3396C214.97 88.5996 210.67 83.7196 204.7 82.6996C202.7 82.3596 200.75 82.5196 198.92 83.0296C197.1 79.3296 193.62 76.4996 189.25 75.7496C189.07 75.7196 188.89 75.7396 188.72 75.7096C188.11 72.8096 185.8 70.4296 182.7 69.8896C180.57 69.5296 178.52 70.1196 176.93 71.3396C175.36 66.9796 171.61 63.5396 166.71 62.6996C164.8 62.3696 162.92 62.4996 161.16 62.9496C160.2 60.6896 158.17 58.9396 155.57 58.4996C155.28 58.4496 155 58.4596 154.71 58.4396C153.89 55.8696 151.74 53.8196 148.9 53.3396C145.92 52.8296 143.07 54.1696 141.48 56.5196C139.53 53.4696 136.4 51.1996 132.55 50.5396C125.94 49.4096 119.69 53.3896 117.7 59.5996C117.64 59.5896 117.58 59.5596 117.52 59.5496C111.21 58.4696 105.19 62.0296 102.92 67.7496C101.61 66.8196 100.1 66.1296 98.4001 65.8396C92.3801 64.8096 86.6601 68.8596 85.6201 74.8796C85.5201 75.4696 85.5101 76.0496 85.5001 76.6296C79.9401 76.3296 76.4001 76.1696 76.4001 76.1696C76.4001 76.1696 53.7801 75.4996 66.9001 87.2296C80.0301 98.9596 119.78 104.49 178.93 115.55C238.08 126.62 233.41 115.65 231.82 112.08H231.81Z" stroke="#D48822" stroke-width="1.42" stroke-linecap="round" stroke-linejoin="round"/>
<path d="M231.81 112.08C230.59 109.32 226.83 107.54 221.79 105.52C222.24 104.76 222.57 103.92 222.73 103.01C223.42 98.9596 220.7 95.1096 216.65 94.4096C216.3 94.3496 215.95 94.3496 215.61 94.3396C214.97 88.5996 210.67 83.7196 204.7 82.6996C202.7 82.3596 200.75 82.5196 198.92 83.0296C197.1 79.3296 193.62 76.4996 189.25 75.7496C189.07 75.7196 188.89 75.7396 188.72 75.7096C188.11 72.8096 185.8 70.4296 182.7 69.8896C180.57 69.5296 178.52 70.1196 176.93 71.3396C175.36 66.9796 171.61 63.5396 166.71 62.6996C164.8 62.3696 162.92 62.4996 161.16 62.9496C160.2 60.6896 158.17 58.9396 155.57 58.4996C155.28 58.4496 155 58.4596 154.71 58.4396C153.89 55.8696 151.74 53.8196 148.9 53.3396C145.92 52.8296 143.07 54.1696 141.48 56.5196C139.53 53.4696 136.4 51.1996 132.55 50.5396C125.94 49.4096 119.69 53.3896 117.7 59.5996C117.64 59.5896 117.58 59.5596 117.52 59.5496C111.21 58.4696 105.19 62.0296 102.92 67.7496C101.61 66.8196 100.1 66.1296 98.4001 65.8396C92.3801 64.8096 86.6601 68.8596 85.6201 74.8796C85.5201 75.4696 85.5101 76.0496 85.5001 76.6296C79.9401 76.3296 76.4001 76.1696 76.4001 76.1696C76.4001 76.1696 53.7801 75.4996 66.9001 87.2296C80.0301 98.9596 119.78 104.49 178.93 115.55C238.08 126.62 233.41 115.65 231.82 112.08H231.81Z" fill="white"/>
</g>
<path d="M231.81 112.08C230.59 109.32 226.83 107.54 221.79 105.52C222.24 104.76 222.57 103.92 222.73 103.01C223.42 98.9601 220.7 95.1101 216.65 94.4101C216.3 94.3501 215.95 94.3501 215.61 94.3401C214.97 88.6001 210.67 83.7201 204.7 82.7001C202.7 82.3601 200.75 82.5201 198.92 83.0301C197.1 79.3301 193.62 76.5001 189.25 75.7501C189.07 75.7201 188.89 75.7401 188.72 75.7101C188.11 72.8101 185.8 70.4301 182.7 69.8901C180.57 69.5301 178.52 70.1201 176.93 71.3401C175.36 66.9801 171.61 63.5401 166.71 62.7001C164.8 62.3701 162.92 62.5001 161.16 62.9501C160.2 60.6901 158.17 58.9401 155.57 58.5001C155.28 58.4501 155 58.4601 154.71 58.4401C153.89 55.8701 151.74 53.8201 148.9 53.3401C145.92 52.8301 143.07 54.1701 141.48 56.5201C139.53 53.4701 136.4 51.2001 132.55 50.5401C125.94 49.4101 119.69 53.3901 117.7 59.6001C117.64 59.5901 117.58 59.5601 117.52 59.5501C111.21 58.4701 105.19 62.0301 102.92 67.7501C101.61 66.8201 100.1 66.1301 98.4 65.8401C92.38 64.8101 86.66 68.8601 85.62 74.8801C85.52 75.4701 85.51 76.0501 85.5 76.6301C79.94 76.3301 76.4 76.1701 76.4 76.1701C76.4 76.1701 53.78 75.5001 66.9 87.2301C80.03 98.9601 119.78 104.49 178.93 115.55C238.08 126.62 233.41 115.65 231.82 112.08H231.81Z" fill="white"/>
<path d="M140.5 72.85C142.67 72.99 142.89 69.61 140.72 69.47C138.55 69.33 138.33 72.71 140.5 72.85ZM149.28 62.52C147.1 62.38 147.32 59 149.5 59.14C151.68 59.28 151.46 62.66 149.28 62.52ZM129.46 63.46C127.28 63.32 127.5 59.94 129.68 60.08C131.86 60.22 131.64 63.6 129.46 63.46ZM159.74 75.19C157.56 75.05 157.78 71.67 159.96 71.81C162.14 71.95 161.92 75.33 159.74 75.19ZM137.68 88C135.5 87.86 135.72 84.48 137.9 84.62C140.08 84.76 139.86 88.14 137.68 88ZM117.11 74.68C114.93 74.54 115.15 71.16 117.33 71.3C119.51 71.44 119.29 74.82 117.11 74.68ZM168.93 70.05C166.75 69.91 166.97 66.53 169.15 66.67C171.33 66.81 171.11 70.19 168.93 70.05ZM170.2 79C168.02 78.86 168.24 75.48 170.42 75.62C172.6 75.76 172.38 79.14 170.2 79ZM152.29 81.92C150.11 81.78 150.33 78.4 152.51 78.54C154.69 78.68 154.47 82.06 152.29 81.92ZM150.67 72.58C148.49 72.44 148.71 69.06 150.89 69.2C153.07 69.34 152.85 72.72 150.67 72.58ZM177.45 81.13C175.27 80.99 175.49 77.61 177.67 77.75C179.85 77.89 179.63 81.27 177.45 81.13ZM186.04 85.55C183.86 85.41 184.08 82.03 186.26 82.17C188.44 82.31 188.22 85.69 186.04 85.55ZM180.96 89.85C178.78 89.71 179 86.33 181.18 86.47C183.36 86.61 183.14 89.99 180.96 89.85ZM127.1 68.57C126.23 68.51 126.32 67.16 127.19 67.22C128.06 67.28 127.97 68.63 127.1 68.57ZM139.29 62.89C138.42 62.83 138.51 61.48 139.38 61.54C140.25 61.6 140.16 62.95 139.29 62.89ZM154.5 76.24C153.63 76.18 153.72 74.83 154.59 74.89C155.46 74.95 155.37 76.3 154.5 76.24ZM145.21 68.44C144.34 68.38 144.43 67.03 145.3 67.09C146.17 67.15 146.08 68.5 145.21 68.44ZM109.77 68.2C108.9 68.14 108.99 66.79 109.86 66.85C110.73 66.91 110.64 68.26 109.77 68.2ZM113.13 79.13C112.26 79.07 112.35 77.72 113.22 77.78C114.09 77.84 114 79.19 113.13 79.13ZM175.45 89.4C174.58 89.34 174.67 87.99 175.54 88.05C176.41 88.11 176.32 89.46 175.45 89.4ZM184.15 77.58C183.28 77.52 183.37 76.17 184.24 76.23C185.11 76.29 185.02 77.64 184.15 77.58ZM195.13 87.7C194.26 87.64 194.35 86.29 195.22 86.35C196.09 86.41 196 87.76 195.13 87.7ZM204.71 90.9C203.84 90.84 203.93 89.49 204.8 89.55C205.67 89.61 205.58 90.96 204.71 90.9ZM207.55 95.7C206.68 95.64 206.77 94.29 207.64 94.35C208.51 94.41 208.42 95.76 207.55 95.7ZM161.17 81.65C160.3 81.59 160.39 80.24 161.26 80.3C162.13 80.36 162.04 81.71 161.17 81.65ZM155.31 66.48C154.7 66.44 154.76 65.49 155.37 65.53C155.98 65.57 155.92 66.52 155.31 66.48ZM164.39 68.93C163.52 68.87 163.61 67.52 164.48 67.58C165.35 67.64 165.26 68.99 164.39 68.93Z" fill="#111B21"/>
</g>
<defs>
<clipPath id="clip0_3416_11179">
<rect width="245.91" height="230.44" fill="white"/>
</clipPath>
</defs>
</svg>
