<svg width="175" height="253" viewBox="0 0 175 253" fill="none" xmlns="http://www.w3.org/2000/svg">
<g clip-path="url(#clip0_3416_9750)">
<path d="M168.99 171.53C151.06 150.95 133.48 130.07 116.25 108.9C115.36 107.8 114.49 106.69 113.61 105.59C118.62 99.5598 123.77 93.6398 129.11 87.8898C138.73 77.5498 148.87 67.6998 159.46 58.3598C167.66 51.1298 167.39 36.1898 159.46 28.8998C150.72 20.8698 138.75 21.1898 130 28.8998C114.76 42.3398 100.44 56.9198 87.1501 72.3998C86.2101 71.1998 85.2701 69.9998 84.3301 68.7898C83.3801 67.5598 82.4201 66.3398 81.4701 65.1098C81.0601 64.5798 80.6501 64.0598 80.2501 63.5298C80.2301 63.5098 80.2201 63.4898 80.2001 63.4698C76.1501 58.2198 72.1201 52.9498 68.1201 47.6598C58.7401 35.2798 49.4801 22.8098 40.3301 10.2498C37.0401 5.73982 33.4601 2.20982 27.8801 0.67982C22.8901 -0.67018 16.2601 -0.0501804 11.8301 2.79982C3.13005 8.40982 -2.49995 21.8798 4.36005 31.2998C22.7501 56.5498 41.65 81.4298 60.96 105.98C45.51 127.88 32.0501 151.16 20.8801 175.4C13.2601 191.94 6.49005 208.89 0.830051 226.19C-2.55995 236.55 4.77005 249.39 15.3801 251.81C26.8201 254.42 37.37 248.36 41 237.26C44.4 226.88 48.2 216.64 52.37 206.55C61.83 184.58 73.0701 163.38 86.0501 143.28C86.7601 142.18 87.4901 141.1 88.2101 140.01C95.0501 148.39 101.89 156.77 108.83 165.07C118.95 177.15 129.18 189.12 139.53 201.01C146.71 209.25 161.73 208.91 168.99 201.01C177.06 192.22 176.65 180.35 168.99 171.55V171.53Z" fill="#1D1D1B"/>
</g>
<defs>
<clipPath id="clip0_3416_9750">
<rect width="174.89" height="252.4" fill="white"/>
</clipPath>
</defs>
</svg>
