<svg width="178" height="198" viewBox="0 0 178 198" fill="none" xmlns="http://www.w3.org/2000/svg">
<g clip-path="url(#clip0_3416_11162)">
<path d="M49.65 196.82C48.8 196.82 48.06 196.72 47.45 196.53C45.07 195.79 43.06 194.3 41.2 192.83L40.54 192.31C39.46 191.46 38.34 190.59 37.31 189.66C37 189.38 36.74 188.9 36.7 188.53C36.33 184.85 35.02 181.29 32.7 177.63C28.59 171.16 25.61 164.84 23.58 158.29C22.94 156.23 22.02 154.32 21.13 152.48C20.9 152.01 20.67 151.53 20.45 151.05C20.09 150.29 19.85 149.46 19.59 148.59C19.47 148.18 19.35 147.77 19.22 147.37L19.14 147.11C19.06 146.84 18.97 146.55 18.83 146.27C18.59 145.79 18.35 145.31 18.12 144.83C17.51 143.59 16.88 142.3 16.14 141.09C11.32 133.19 7.76 124.83 4.64 116.98C3.79 114.83 2.69 112.76 1.64 110.75L1.14 109.81C0.749998 109.07 0.629998 108.5 0.789998 108.11C0.929998 107.75 1.36 107.45 2.06 107.21C2.81 106.96 3.63 106.79 4.42 106.62L4.65 106.57C6.36 106.21 8.07 105.88 9.78 105.56C10.69 105.39 11.14 104.83 11.12 103.88C11.1 102.85 11.1 101.82 11.11 100.79C11.11 100.11 11.11 99.4297 11.11 98.7497C11.09 95.5397 12.17 92.5297 13.34 89.7697C13.41 89.6097 13.61 89.3998 13.93 89.1598C17.16 86.7598 20.81 84.7197 25.08 82.8997C25.48 82.7297 25.97 82.6597 26.35 82.6097C31.81 81.9597 37.15 80.6998 42.23 78.8698C43.34 78.4698 44.48 78.2197 45.69 77.9497C46.63 77.7397 47.61 77.5198 48.55 77.2298C51.11 76.4498 53.69 75.5898 56.18 74.7598C57.33 74.3798 58.49 73.9998 59.64 73.6198L59.8 73.5697C59.97 73.5097 60.14 73.4497 60.25 73.4497C60.39 73.4497 60.53 73.4497 60.66 73.4497C63.52 73.4497 66.14 72.5498 68.56 71.5798C71.19 70.5198 73.98 69.8098 76.68 69.1198C78.05 68.7698 79.47 68.4097 80.86 67.9997C88.05 65.9097 95.21 63.2797 102.14 60.1797L105.14 58.8297C110.16 56.5697 115.35 54.2397 120.59 52.3597C126.2 50.3497 130.53 46.9197 134.37 43.5197C134.53 43.3797 134.74 43.2597 134.97 43.1397C135.29 42.9697 135.65 42.7697 135.94 42.4697L136.47 41.9297C137.47 40.9297 138.5 39.8897 139.33 38.6897C140.14 37.5197 140.81 36.2597 141.47 35.0297C141.75 34.5097 142.03 33.9797 142.32 33.4597V33.4397C144.87 35.1697 147.38 37.2197 148.99 40.2197C149.25 40.7097 149.26 41.1697 149 41.7197C148.74 42.2697 148.77 43.0697 149.06 43.5697C149.58 44.4697 150.12 45.3497 150.66 46.2297C151.22 47.1397 151.78 48.0397 152.31 48.9697C152.86 49.9297 153.19 50.7197 153.37 51.4597C153.47 51.8997 153.42 52.4297 153.36 52.9997C153.34 53.2097 153.32 53.4097 153.3 53.6097C153.25 54.3297 153.17 54.9797 153.07 55.5997C153.05 55.7397 152.97 55.8897 152.91 55.9397C150.12 58.5597 147.32 61.1597 144.52 63.7697C143.1 65.0897 141.44 66.3097 139.14 67.7397C136.23 69.5397 133.32 71.4397 130.51 73.2797C129 74.2697 127.49 75.2498 125.98 76.2298C125.16 76.7598 124.48 77.1198 123.84 77.3698C118.12 79.6198 110.75 82.9198 104.53 88.4798L104.31 88.6697C104.2 88.7597 104.09 88.8597 103.98 88.9497C103.78 89.1397 103.75 89.3497 103.73 89.4697L103.71 89.5798C103.65 89.8198 103.73 90.0697 103.9 90.2397C104.03 90.3697 104.21 90.4398 104.4 90.4398C104.46 90.4398 104.51 90.4397 104.57 90.4197L105.31 90.2298C105.81 90.0998 106.31 89.9798 106.8 89.8698C107.98 89.6198 109.17 89.3697 110.35 89.1297C112.65 88.6497 114.95 88.1698 117.25 87.6598C117.89 87.5198 118.8 87.2297 119.53 86.6797C121.87 84.9097 124.49 83.5597 126.76 82.4297C130.5 80.5697 134.43 78.4597 137.94 75.5697C139.18 74.5497 140.61 73.6598 141.98 72.7998C142.61 72.4098 143.24 72.0097 143.86 71.6097C147.16 69.4297 150.24 66.8297 153.27 63.6497C153.52 63.3897 153.67 63.3597 153.78 63.3597C153.87 63.3597 153.99 63.3797 154.13 63.4197C156.17 64.0097 157.83 65.2097 159.2 67.0897C159.59 67.6297 160 68.1697 160.41 68.6997C161.24 69.7897 162.1 70.9197 162.82 72.0897C164.23 74.3797 165.56 76.8997 165.78 79.8197C165.81 80.1897 165.89 81.3097 167.26 81.3097C167.34 81.3097 167.43 81.3097 167.52 81.3097C169.49 81.1697 171.66 81.0597 174.33 80.9697H174.43C175.39 80.9697 176.06 81.4797 176.5 82.5197C176.9 83.4797 176.97 84.4697 176.71 85.7497C175.8 90.2397 174.74 95.5497 173.79 100.78C173.56 102.08 173.43 103.4 173.3 104.68C173.23 105.46 173.15 106.23 173.05 107C172.66 110.1 172.25 113.2 171.85 116.29C171.1 122.01 170.34 127.92 169.64 133.75C169.11 138.17 168.62 142.66 168.15 147.01C167.77 150.55 167.38 154.09 166.97 157.62C166.8 159.11 166.53 160.62 166.27 162.08C166.11 162.98 165.95 163.88 165.81 164.79C165.67 165.72 165.54 166.65 165.42 167.58C165.31 168.38 165.21 169.18 165.09 169.98C164.78 172.06 163.8 173.97 161.9 176.15C161.85 176.2 161.8 176.25 161.75 176.3C161.63 176.41 161.47 176.56 161.35 176.75C159.7 179.31 157.09 180.81 154.57 182.26C154.09 182.54 153.61 182.66 153.05 182.66C152.88 182.66 152.71 182.65 152.54 182.63C152.21 182.59 151.88 182.57 151.55 182.57C150.85 182.57 150.16 182.64 149.45 182.73C148.07 182.89 146.69 183.07 145.31 183.24C143.23 183.51 141.08 183.78 138.96 183.99C137.54 184.13 136.09 184.21 134.69 184.28C133.06 184.37 131.38 184.46 129.73 184.64C123.29 185.36 115.7 186.24 108.17 187.28C104.41 187.8 100.6 188.38 96.92 188.95C92.13 189.69 87.18 190.45 82.3 191.07C75.57 191.92 68.86 193.33 62.37 194.69L61.51 194.87C59.8 195.23 58.02 195.49 56.31 195.74C55.39 195.87 54.47 196.01 53.56 196.16C53.15 196.23 52.74 196.31 52.34 196.4C51.65 196.55 50.99 196.69 50.34 196.72C50.12 196.73 49.89 196.74 49.66 196.74L49.65 196.82ZM119.59 60.3597C119.22 60.3597 118.84 60.4497 118.45 60.6197C118.34 60.6697 118.23 60.7297 118.12 60.7997C118.07 60.8297 118.01 60.8597 117.96 60.8897C117.64 61.0497 117.32 61.2197 117 61.3897C116.29 61.7597 115.62 62.1197 114.92 62.3897C112.79 63.2297 110.66 64.0397 108.52 64.8597C105.59 65.9797 102.55 67.1497 99.58 68.3397C95.64 69.9297 91.66 71.5998 87.81 73.2298L83.91 74.8698C83.62 74.9898 83.39 75.1697 83.18 75.3197C83.1 75.3797 83.03 75.4297 82.95 75.4897C82.66 75.6897 82.56 76.0697 82.71 76.3797L82.84 76.6497C82.96 76.8997 83.21 77.0498 83.48 77.0498C83.5 77.0498 83.82 77.0297 83.82 77.0297C84.06 77.0097 84.3 76.9997 84.53 76.9497C85.55 76.7497 86.57 76.5398 87.59 76.3298C96 74.5798 104.52 71.8197 113.64 67.8897C115.48 67.0997 117.23 66.0897 118.93 65.1097C119.43 64.8197 119.93 64.5297 120.43 64.2497C121.55 63.6197 121.94 62.4597 121.38 61.4197C121.02 60.7497 120.37 60.3597 119.59 60.3597ZM124.21 61.6397C124.32 61.6397 124.46 61.6397 124.61 61.5897C129.97 59.9297 135.24 57.1797 140.73 53.1897C141.79 52.4197 142.1 51.2697 141.55 50.1997C141.17 49.4497 140.32 48.9497 139.46 48.9497C139.1 48.9497 138.76 49.0297 138.45 49.1997C137.91 49.4797 137.46 49.8697 137.03 50.2397L136.72 50.5097C136.22 50.9297 135.73 51.3597 135.24 51.7997C134.29 52.6397 133.31 53.4997 132.28 54.2297C130.5 55.4897 128.62 56.6997 126.81 57.8697C125.92 58.4397 125.03 59.0197 124.15 59.5997C123.94 59.7397 123.77 59.8997 123.58 60.0897C123.49 60.1797 123.38 60.2897 123.24 60.4197C123.02 60.6197 122.95 60.9297 123.07 61.1997C123.18 61.4697 123.44 61.6397 123.73 61.6397H123.89H124.24H124.21ZM27.11 74.3397C27.11 74.3397 27.09 74.2998 27.07 74.2298C26.92 73.7098 26.77 73.1997 26.62 72.6797C26.36 71.7797 26.1 70.8797 25.82 69.9897C25.73 69.6997 25.6 69.4197 25.47 69.1397C25.35 68.8897 25.24 68.6497 25.17 68.4197C25.1 68.1697 25.02 67.9297 24.94 67.6797C24.7 66.9297 24.47 66.2297 24.48 65.5697C24.5 64.2297 24.64 62.8597 24.77 61.5297C24.84 60.7897 24.92 60.0597 24.97 59.3197C25 58.9397 24.99 58.5597 24.97 58.1797C24.97 57.8797 24.95 57.5897 24.97 57.2897V57.0897C25 56.6597 25.02 56.2097 25.16 55.8997C25.7 54.6897 26.27 53.4897 26.85 52.2997C27.13 51.7097 27.42 51.1197 27.7 50.5297C28.12 49.6497 28.51 49.2597 29.16 49.1097C29.67 48.9897 30.02 48.5697 30.33 48.1197C30.86 47.3597 31.38 46.5797 31.9 45.8097C32.87 44.3697 33.87 42.8797 34.92 41.4697C35.67 40.4597 36.64 39.4797 37.71 38.6497C38.05 38.3897 38.54 38.2397 39.06 38.0797C39.39 37.9797 39.72 37.8797 40.03 37.7497C40.47 37.5697 40.98 37.3397 41.36 36.9597C44.2 34.2097 47.62 31.9797 51.83 30.1497C52.05 30.0597 52.14 30.0397 52.17 30.0397C52.17 30.0397 52.24 30.0897 52.37 30.2997C54.57 33.7997 57.37 35.9797 60.92 36.9597C61.47 37.1097 62 37.4397 62.56 37.7997C62.99 38.0697 63.44 38.3497 63.92 38.5697L64.1 38.6497C65.28 39.1797 66.5 39.7297 67.8 39.9897C72.38 40.9297 76.94 41.3997 81.36 41.3997C82.65 41.3997 83.95 41.3597 85.23 41.2797C86.17 41.2197 87.1 41.1697 88.04 41.1097C90.53 40.9697 93.11 40.8197 95.64 40.5797C99.1 40.2597 102.5 39.4197 105.78 38.6097C106.58 38.4097 107.38 38.2097 108.19 38.0197C110.72 37.4197 113.33 36.8897 115.85 36.3897C118.36 35.8797 120.96 35.3597 123.5 34.7597C126.29 34.0997 129.09 33.2797 131.79 32.4897C132.93 32.1597 134.08 31.8197 135.22 31.4997C134.34 32.8997 133.54 34.0997 132.3 34.9797C131.28 35.6997 130.38 36.5397 129.4 37.4797C128.5 38.3397 127.48 39.1697 126.2 40.0897C123.06 42.3397 119.5 44.4097 115.02 46.6197C114.25 46.9997 113.45 47.2797 112.6 47.5897C111.91 47.8397 111.2 48.0897 110.52 48.3897C106.71 50.0797 103.27 51.6097 99.85 53.2597C94.31 55.9197 88.19 57.9797 80.57 59.7297C76.86 60.5797 73.16 61.7297 69.58 62.8397C67.66 63.4397 65.73 64.0397 63.8 64.5897C60.03 65.6797 56.85 66.5497 53.62 67.3097C48.61 68.4897 43.8 70.0697 39.33 72.0197C38.85 72.2297 38.32 72.3898 37.79 72.4798C36.23 72.7598 34.68 73.0298 33.12 73.2998C31.23 73.6298 29.34 73.9497 27.45 74.2897C27.35 74.3097 27.27 74.3197 27.19 74.3197C27.15 74.3197 27.13 74.3197 27.12 74.3197L27.11 74.3397ZM54.19 43.2797C53.65 43.2797 53.15 43.4697 52.69 43.8497C51.74 44.6297 51.5 46.0297 52.12 47.1797C52.58 48.0297 53.15 48.7997 53.77 49.3997C56.31 51.8597 59.41 53.2397 62.98 53.4897C63.88 53.5497 64.86 53.5797 65.99 53.5797C66.91 53.5797 67.83 53.5597 68.71 53.5397C69.48 53.5197 70.22 53.5097 70.94 53.4997C71 53.4997 71.05 53.4997 71.11 53.4797C71.69 53.3397 72.23 53.2097 72.75 53.0897C73.83 52.8397 74.85 52.6097 75.83 52.2897C77.94 51.5897 79.7 50.4297 81.06 48.8297C81.33 48.5197 81.44 48.1497 81.55 47.8297C81.59 47.7197 81.62 47.6097 81.66 47.4997C81.75 47.2797 81.73 47.0397 81.6 46.8397C81.47 46.6397 81.26 46.5197 81.02 46.5197C80.91 46.5197 80.8 46.5197 80.68 46.4997C80.51 46.4997 80.35 46.4797 80.18 46.4797C80.03 46.4797 79.89 46.4797 79.74 46.5097C79.41 46.5497 79.08 46.6197 78.75 46.6897C78.32 46.7797 77.92 46.8597 77.52 46.8797L76.38 46.9497C74.33 47.0697 72.21 47.1997 70.13 47.1997H70.01C65.59 47.1897 60.44 46.7797 55.81 43.8097C55.24 43.4397 54.7 43.2697 54.18 43.2697L54.19 43.2797ZM78.79 34.6197C77.29 34.6197 75.88 34.4497 74.49 34.1097C73.13 33.7697 71.75 33.3397 70.42 32.9197C69.89 32.7497 69.36 32.5797 68.83 32.4197C68.27 32.2497 67.71 32.0697 67.15 31.8897C66 31.5197 64.81 31.1297 63.61 30.8297C62.77 30.6197 62.09 30.1897 61.47 29.4997C59.46 27.2097 57.6 24.5697 55.63 21.1897C55.28 20.5797 55.19 19.9697 55.35 19.1197C56.35 13.7497 59.24 9.04975 64.73 3.88975C65.74 2.93975 66.54 2.53975 67.39 2.53975C67.59 2.53975 67.8 2.55975 68.01 2.60975C68.1 2.62975 68.19 2.63975 68.28 2.63975C68.56 2.63975 68.81 2.54975 69.02 2.47975C69.09 2.45975 69.15 2.42975 69.21 2.41975C69.7 2.28975 70.18 2.14975 70.66 2.00975C71.57 1.74975 72.48 1.48975 73.39 1.25975C74.75 0.909746 75.98 0.739746 77.15 0.739746C78.14 0.739746 79.06 0.859746 79.97 1.09975C81.32 1.45975 82.72 1.68975 83.96 1.88975C85.67 2.16975 87.05 3.10975 88.68 4.29975C89.56 4.94975 90.44 5.66975 91.37 6.51975C92.01 7.09975 92.77 7.63975 94.03 7.72975C94.62 7.76975 95.4 8.18975 95.77 8.65975C96.45 9.52975 97.01 10.4797 97.61 11.4897C97.91 11.9997 98.21 12.5097 98.53 12.9997C98.69 13.2497 98.88 13.4697 99.07 13.6997C99.24 13.8997 99.4 14.0997 99.52 14.2897C99.61 14.4497 99.71 14.6097 99.82 14.7697C100.16 15.2997 100.47 15.7997 100.56 16.2897C101.03 18.8697 101.38 21.4697 101.76 24.3497C101.82 24.7997 101.97 25.9797 103.31 25.9797C103.47 25.9797 103.66 25.9597 103.88 25.9197C105.85 25.5697 107.95 25.3997 110.31 25.3997C111.66 25.3997 113.12 25.4597 114.79 25.5697H114.94C115.07 25.5997 115.19 25.6097 115.32 25.6097C115.47 25.6097 115.61 25.5897 115.74 25.5597C116.52 25.3497 117.33 25.2397 118.21 25.2397C119.79 25.2397 121.33 25.5697 122.97 25.9197C123.64 26.0597 124.31 26.2097 124.99 26.3297C125.71 26.4597 126.35 26.5197 126.96 26.5197H127.52C128.84 26.5197 130.05 26.8097 131.18 27.4097C130.8 27.4997 130.43 27.5797 130.05 27.6597L127.05 28.2697C123.98 28.8997 120.81 29.5497 117.68 30.1097C116.36 30.3497 114.98 30.4997 113.65 30.6497C112.77 30.7497 111.89 30.8497 111.01 30.9697L109.42 31.1897C107.36 31.4697 105.23 31.7597 103.15 32.1897C100.66 32.7097 98.12 32.9197 95.94 33.0897C91.74 33.3997 86.76 33.8097 81.65 34.4697C80.67 34.5997 79.72 34.6597 78.81 34.6597L78.79 34.6197ZM77.14 10.6197C75.75 10.6197 74.58 11.0597 73.66 11.9297C72.67 12.8697 72.35 13.9797 72.73 15.1597C73.27 16.8197 74.88 16.9697 75.41 17.0197C79.38 17.3897 83.15 18.7697 86.61 21.1297C86.84 21.2897 87.09 21.3697 87.32 21.4597C87.42 21.4997 87.53 21.5297 87.64 21.5797C87.73 21.6197 87.82 21.6297 87.91 21.6297C88.05 21.6297 88.2 21.5897 88.32 21.4997C88.52 21.3597 88.63 21.1297 88.62 20.8897C88.62 20.7697 88.62 20.6697 88.62 20.5897C88.62 20.3997 88.62 20.2397 88.58 20.0597C87.59 15.7997 82.17 11.0497 77.84 10.6497C77.6 10.6297 77.37 10.6197 77.14 10.6197Z" fill="white"/>
<g style="mix-blend-mode:darken">
<path d="M142.1 32.4498C145.14 34.4598 147.89 36.6798 149.63 39.9098C150 40.5998 150.01 41.2898 149.66 42.0398C149.51 42.3698 149.51 42.9298 149.69 43.2398C150.74 45.0598 151.9 46.8198 152.94 48.6398C153.42 49.4798 153.86 50.3898 154.07 51.3198C154.24 52.0598 154.07 52.8898 154.02 53.6798C153.97 54.3698 153.9 55.0598 153.78 55.7398C153.73 55.9998 153.6 56.2998 153.41 56.4798C150.62 59.0998 147.82 61.7098 145.02 64.3098C143.34 65.8698 141.48 67.1498 139.53 68.3598C135.1 71.0998 130.77 74.0198 126.38 76.8498C125.66 77.3098 124.91 77.7498 124.12 78.0598C117.21 80.7798 110.62 84.0398 105.02 89.0398C104.84 89.1998 104.66 89.3398 104.48 89.5098C104.45 89.5398 104.45 89.6098 104.42 89.7798C105.2 89.5898 105.93 89.3898 106.67 89.2298C110.15 88.4898 113.64 87.7898 117.12 87.0198C117.82 86.8598 118.57 86.5898 119.13 86.1698C121.42 84.4398 123.92 83.1198 126.47 81.8498C130.34 79.9198 134.14 77.8598 137.51 75.0798C139.35 73.5598 141.49 72.3998 143.49 71.0798C146.9 68.8298 149.96 66.1698 152.77 63.2198C153.25 62.7098 153.69 62.6098 154.34 62.7998C156.63 63.4598 158.4 64.8298 159.79 66.7398C161.01 68.4198 162.35 70.0198 163.44 71.7898C164.96 74.2598 166.28 76.8598 166.5 79.8398C166.55 80.5498 166.78 80.7098 167.48 80.6698C169.75 80.5098 172.03 80.4098 174.31 80.3298C175.69 80.2798 176.62 81.0298 177.16 82.3098C177.67 83.5198 177.67 84.6898 177.41 85.9498C176.39 90.9498 175.4 95.9498 174.49 100.97C174.12 103.01 174.02 105.1 173.76 107.15C172.62 116.07 171.42 124.97 170.34 133.89C169.38 141.84 168.6 149.81 167.68 157.76C167.4 160.17 166.9 162.56 166.53 164.96C166.26 166.69 166.06 168.42 165.81 170.15C165.43 172.7 164.11 174.78 162.46 176.68C162.3 176.86 162.1 177 161.97 177.19C160.25 179.86 157.6 181.4 154.94 182.93C154.17 183.37 153.39 183.5 152.47 183.39C151.51 183.27 150.52 183.38 149.55 183.49C146.04 183.9 142.55 184.41 139.04 184.76C135.97 185.06 132.88 185.07 129.81 185.42C122.62 186.23 115.43 187.07 108.27 188.06C99.63 189.25 91.04 190.75 82.39 191.85C75.4 192.74 68.54 194.2 61.66 195.64C59.02 196.19 56.34 196.5 53.67 196.94C52.57 197.12 51.48 197.46 50.37 197.51C49.33 197.56 48.22 197.51 47.24 197.21C44.8 196.45 42.75 194.96 40.76 193.39C39.43 192.35 38.09 191.32 36.83 190.19C36.41 189.81 36.04 189.17 35.99 188.61C35.6 184.74 34.17 181.28 32.1 178.02C28.22 171.91 25.05 165.43 22.9 158.51C22.12 155.98 20.91 153.71 19.8 151.36C19.24 150.17 18.95 148.86 18.54 147.6C18.43 147.26 18.35 146.91 18.19 146.6C17.32 144.88 16.53 143.11 15.53 141.47C10.85 133.79 7.29001 125.58 3.98001 117.25C3.01001 114.81 1.73001 112.48 0.510008 110.14C-0.429992 108.35 -0.0699924 107.18 1.83001 106.54C2.70001 106.25 3.60001 106.07 4.50001 105.88C6.21001 105.52 7.93001 105.19 9.65001 104.87C10.22 104.76 10.43 104.5 10.41 103.91C10.37 102.2 10.41 100.48 10.41 98.7698C10.39 95.4898 11.44 92.4698 12.69 89.5098C12.84 89.1498 13.19 88.8498 13.52 88.6098C17.01 86.0198 20.82 83.9698 24.81 82.2698C25.27 82.0798 25.78 81.9898 26.28 81.9298C31.66 81.2898 36.9 80.0698 42.01 78.2198C44.06 77.4798 46.28 77.2098 48.37 76.5698C52.08 75.4298 55.76 74.1698 59.45 72.9698C59.73 72.8798 60.03 72.7498 60.31 72.7598C63.14 72.8398 65.76 71.9798 68.33 70.9398C72.34 69.3198 76.58 68.5398 80.7 67.3398C87.94 65.2298 95 62.6298 101.89 59.5598C108.01 56.8298 114.09 53.9798 120.39 51.7298C125.66 49.8398 129.87 46.6298 133.94 43.0198C134.4 42.6098 135.06 42.4298 135.48 41.9998C136.64 40.8198 137.86 39.6698 138.8 38.3198C139.93 36.6998 140.78 34.8898 141.75 33.1598C141.86 32.9598 141.97 32.7598 142.13 32.4598L142.1 32.4498ZM83.35 76.0798C83.39 76.1698 83.44 76.2598 83.48 76.3498C83.79 76.3198 84.1 76.3198 84.4 76.2598C85.42 76.0698 86.43 75.8498 87.45 75.6398C96.39 73.7798 105 70.8498 113.37 67.2398C115.7 66.2398 117.88 64.8798 120.1 63.6298C120.92 63.1698 121.13 62.4098 120.77 61.7498C120.4 61.0598 119.62 60.8698 118.75 61.2598C118.59 61.3298 118.44 61.4398 118.28 61.5098C117.25 62.0298 116.24 62.6198 115.17 63.0398C110.07 65.0398 104.93 66.9498 99.84 68.9898C94.59 71.0998 89.4 73.3298 84.19 75.5198C83.89 75.6498 83.63 75.8898 83.36 76.0698L83.35 76.0798ZM123.71 60.9298C124.14 60.9298 124.28 60.9498 124.4 60.9098C130.2 59.1098 135.42 56.1698 140.31 52.6198C141.08 52.0598 141.31 51.2898 140.92 50.5298C140.55 49.8098 139.55 49.4298 138.77 49.8298C138.18 50.1398 137.68 50.6198 137.16 51.0598C135.66 52.3098 134.26 53.6898 132.67 54.8098C130.01 56.6898 127.24 58.3998 124.52 60.1898C124.29 60.3398 124.1 60.5698 123.71 60.9398V60.9298ZM136.81 30.3198C135.47 32.3198 134.54 34.2698 132.7 35.5698C131.69 36.2898 130.78 37.1498 129.88 38.0098C128.85 38.9898 127.76 39.8498 126.6 40.6798C123.04 43.2298 119.23 45.3398 115.32 47.2698C113.87 47.9798 112.27 48.3998 110.79 49.0498C107.22 50.6298 103.66 52.2198 100.14 53.9098C93.93 56.8898 87.43 58.8898 80.71 60.4298C75.06 61.7298 69.56 63.6798 63.98 65.2898C60.59 66.2598 57.2 67.2198 53.77 68.0198C48.9 69.1598 44.18 70.6998 39.6 72.6898C39.06 72.9198 38.48 73.0998 37.91 73.1998C34.47 73.8098 31.01 74.3898 27.57 75.0098C26.97 75.1198 26.58 75.0398 26.4 74.4298C25.98 73.0198 25.59 71.5998 25.15 70.1898C24.98 69.6398 24.65 69.1498 24.5 68.5998C24.21 67.5898 23.77 66.5598 23.79 65.5398C23.82 63.4398 24.13 61.3498 24.29 59.2498C24.34 58.5798 24.25 57.8998 24.29 57.2298C24.32 56.6798 24.32 56.0898 24.54 55.5998C25.34 53.7798 26.23 52.0098 27.08 50.2098C27.49 49.3498 28 48.6398 29.02 48.4098C29.31 48.3398 29.57 47.9898 29.77 47.7098C31.31 45.4898 32.76 43.2098 34.37 41.0498C35.19 39.9498 36.2 38.9398 37.29 38.0898C37.97 37.5598 38.95 37.4398 39.77 37.0898C40.16 36.9298 40.58 36.7398 40.88 36.4498C43.99 33.4298 47.61 31.2198 51.56 29.4998C52.25 29.1998 52.59 29.2898 52.98 29.9298C54.92 33.0198 57.49 35.2898 61.12 36.2898C62.22 36.5898 63.16 37.4498 64.23 37.9298C65.44 38.4698 66.68 39.0398 67.96 39.3098C73.65 40.4798 79.39 40.9498 85.2 40.5898C88.66 40.3698 92.13 40.2198 95.58 39.8998C99.82 39.5098 103.9 38.3398 108.03 37.3598C113.1 36.1498 118.26 35.2998 123.34 34.0898C127.34 33.1398 131.28 31.8898 135.24 30.7698C135.68 30.6398 136.13 30.5198 136.83 30.3198H136.81ZM70.94 52.7998C72.75 52.3498 74.21 52.0898 75.61 51.6298C77.52 50.9998 79.2 49.9398 80.52 48.3898C80.78 48.0898 80.85 47.6298 81.01 47.2498C80.62 47.2498 80.23 47.1898 79.84 47.2398C79.08 47.3398 78.33 47.5798 77.57 47.6198C75.06 47.7598 72.54 47.9398 70.02 47.9298C64.89 47.9198 59.89 47.2798 55.44 44.4298C54.67 43.9398 53.9 43.7798 53.14 44.3998C52.49 44.9298 52.27 45.9598 52.75 46.8498C53.15 47.5898 53.67 48.3098 54.27 48.8998C56.71 51.2598 59.7 52.5498 63.04 52.7898C65.78 52.9798 68.54 52.8098 70.95 52.8098L70.94 52.7998ZM132.93 27.6798C132.02 27.8898 131.11 28.1298 130.18 28.3098C126.05 29.1398 121.93 30.0198 117.79 30.7698C115.58 31.1698 113.32 31.3198 111.09 31.6298C108.48 31.9898 105.85 32.2998 103.27 32.8398C100.85 33.3398 98.42 33.5698 95.97 33.7498C91.21 34.0998 86.45 34.5098 81.72 35.1298C79.2 35.4598 76.75 35.3998 74.32 34.7998C72.4 34.3298 70.52 33.6798 68.62 33.0998C66.89 32.5698 65.19 31.9598 63.44 31.5198C62.4 31.2598 61.61 30.7298 60.94 29.9698C58.66 27.3798 56.75 24.5198 55.02 21.5398C54.55 20.7298 54.48 19.9098 54.66 18.9798C55.86 12.5398 59.65 7.68978 64.25 3.35978C65.31 2.36978 66.54 1.53978 68.18 1.89978C68.44 1.95978 68.75 1.78978 69.04 1.70978C70.44 1.31978 71.83 0.899781 73.24 0.539781C75.54 -0.0502188 77.84 -0.240219 80.18 0.389781C81.47 0.729781 82.79 0.949781 84.1 1.15978C86.05 1.47978 87.6 2.57978 89.12 3.69978C90.07 4.39978 90.99 5.16978 91.86 5.95978C92.51 6.54978 93.13 6.91978 94.09 6.98978C94.88 7.03978 95.85 7.55978 96.34 8.18978C97.41 9.54978 98.2 11.1198 99.14 12.5898C99.43 13.0498 99.86 13.4298 100.14 13.8998C100.57 14.6198 101.12 15.3398 101.27 16.1298C101.76 18.8098 102.12 21.5198 102.47 24.2198C102.58 25.0698 102.83 25.3498 103.76 25.1898C107.43 24.5298 111.14 24.5698 114.84 24.8298C115.08 24.8498 115.33 24.8998 115.55 24.8398C118.83 23.9398 121.94 25.0298 125.11 25.5898C125.8 25.7098 126.51 25.7898 127.2 25.7598C129.32 25.6898 131.2 26.3098 132.92 27.6698L132.93 27.6798ZM87.92 20.9198C87.91 20.5598 87.92 20.3898 87.89 20.2198C86.97 16.2498 81.82 11.7298 77.78 11.3498C76.43 11.2198 75.17 11.4698 74.16 12.4398C73.45 13.1198 73.1 13.9498 73.42 14.9298C73.74 15.9198 74.54 16.2198 75.49 16.3098C79.7 16.6998 83.53 18.1598 87.02 20.5398C87.25 20.6998 87.55 20.7698 87.93 20.9198H87.92Z" fill="#1D1D1B"/>
</g>
<path d="M154.42 92.8399C154.25 91.5699 153.82 90.9999 153.19 90.9399C152.37 90.8599 151.98 91.4099 151.81 92.0699C151.4 93.5799 150.92 95.0999 150.71 96.6399C150.27 99.8999 149.88 103.18 149.65 106.46C148.92 116.64 148.28 126.82 147.6 137C147.2 142.99 147.25 148.98 147.73 154.96C147.86 156.53 148.11 158.1 148.02 159.66C147.81 163.42 147.39 167.16 147.15 170.92C147.1 171.7 147.34 172.55 147.65 173.28C147.92 173.9 148.63 174.3 149.29 173.99C149.78 173.76 150.12 173.17 150.46 172.7C150.58 172.53 150.54 172.24 150.56 172C150.92 167.74 151.28 163.49 151.61 159.23C151.71 157.96 151.75 156.68 151.74 155.41C151.72 143.66 152.24 131.92 153 120.2C153.11 118.57 153.31 116.95 153.4 115.32C153.42 114.91 153.34 114.28 153.07 114.1C152.48 113.7 152.57 113.23 152.62 112.71C153.11 107.57 153.62 102.44 154.1 97.2999C154.25 95.6799 154.33 94.0499 154.42 92.8299V92.8399Z" fill="white"/>
<path d="M121.26 180.17C122 178.05 121.33 175.98 121.03 173.89C120.75 171.9 120.45 169.88 120.44 167.87C120.42 159.05 119.15 150.37 117.77 141.69C117.17 137.88 116.77 134.04 116.27 130.22C114.97 120.25 113.48 110.3 111.28 100.48C111.17 99.9898 111.18 99.4698 111.13 98.8798C110.27 98.3698 109.5 98.6298 109.4 99.7298C109.29 100.96 109.31 102.22 109.46 103.45C111.43 118.96 113.45 134.46 115.43 149.96C115.89 153.58 116.32 157.2 116.64 160.83C116.84 163.07 116.77 165.34 116.9 167.59C117.17 172.21 118.39 176.5 121.26 180.16V180.17Z" fill="white"/>
<path d="M66.59 107.61C65.45 107.46 64.77 108.12 64.96 109.29C65.42 112.16 65.96 115.02 66.36 117.89C67.16 123.74 67.79 129.61 68.67 135.44C70.05 144.56 71.52 153.66 73.1 162.75C73.83 166.93 74.8 171.05 75.12 175.3C75.23 176.67 75.67 178.02 75.99 179.38C76.21 180.3 76.54 181.2 76.73 182.12C76.93 183.08 77.25 183.91 78.09 184.52C78.55 184.85 78.99 185.45 79.53 185.06C79.93 184.77 80.13 184.12 80.28 183.59C80.39 183.21 80.3 182.76 80.25 182.36C80.07 181.07 79.9 179.77 79.67 178.49C78.27 170.58 76.88 162.66 75.43 154.76C74.22 148.14 72.86 141.55 71.71 134.92C70.73 129.25 70.02 123.54 69.06 117.87C68.51 114.63 67.95 111.38 66.53 108.36C66.45 108.18 66.56 107.91 66.58 107.61H66.59Z" fill="white"/>
<path d="M137.08 171.74C138.52 170.87 138.63 169.47 138.51 167.94C138.04 161.97 137.53 156 137.18 150.02C136.9 145.22 136.94 140.41 136.63 135.62C135.99 125.8 135.11 115.99 135.03 106.13C135.01 103.81 134.51 101.49 134.16 99.1798C134.07 98.6098 133.77 98.0598 133.47 97.5598C133.16 97.0298 132.69 96.6098 132 96.8298C131.32 97.0398 131.29 97.6498 131.32 98.2298C131.38 99.7698 131.47 101.31 131.52 102.85C131.75 109.79 131.89 116.73 132.2 123.66C132.43 128.78 133.1 133.89 133.19 139.02C133.36 148.55 134.29 158.03 134.94 167.52C135.06 169.2 135.42 170.82 137.08 171.75V171.74Z" fill="white"/>
<path d="M90.34 121.79C89.25 121.82 89.43 122.56 89.53 123.2C90.49 129.68 91.38 136.18 92.46 142.64C93.65 149.75 95.24 156.79 96.21 163.92C96.92 169.13 97.96 174.26 98.88 179.42C99.02 180.21 99.18 181.03 99.54 181.72C99.77 182.16 100.35 182.58 100.85 182.7C101.51 182.86 102.09 182.4 102.27 181.75C102.41 181.26 102.39 180.69 102.31 180.19C101.64 176.19 100.93 172.19 100.23 168.19C99.37 163.28 98.56 158.37 97.62 153.48C97.14 150.95 96.23 148.49 95.87 145.95C94.8 138.43 93.96 130.88 92.92 123.36C92.25 118.51 91.38 113.7 90.58 108.87C90.48 108.29 90.32 107.7 90.07 107.17C89.95 106.91 89.53 106.6 89.3 106.64C89.06 106.69 88.74 107.1 88.71 107.38C88.64 108.05 88.66 108.74 88.75 109.42C89.26 113.51 89.8 117.6 90.34 121.79Z" fill="white"/>
<path d="M43.62 116.31C43.67 116.31 43.72 116.29 43.77 116.29C43.85 116.85 43.9 117.41 44.03 117.96C45.46 123.81 46.91 129.65 48.34 135.5C49.4 139.88 50.35 144.29 51.5 148.64C52.54 152.59 53.86 156.47 54.91 160.43C56.34 165.85 57.61 171.3 58.98 176.74C59.4 178.41 59.92 180.05 60.36 181.71C60.67 182.86 60.91 184.02 61.21 185.16C61.37 185.78 61.74 186.27 62.45 186.2C63.19 186.13 63.52 185.6 63.55 184.91C63.57 184.44 63.53 183.95 63.42 183.5C62.9 181.4 62.44 179.28 61.8 177.21C59.71 170.43 58.06 163.55 56.57 156.61C55.83 153.14 54.94 149.69 53.97 146.27C53.09 143.13 51.9 140.08 51.06 136.94C49.02 129.2 47.11 121.43 45.14 113.67C44.81 112.38 44.49 111.08 44.11 109.8C43.97 109.32 43.7 108.72 43.09 108.98C42.83 109.09 42.65 109.77 42.7 110.15C42.96 112.21 43.3 114.26 43.61 116.31H43.62Z" fill="white"/>
<path d="M24.41 111.7C24.26 111.73 24.1 111.77 23.95 111.8C23.98 112.2 23.93 112.62 24.04 112.99C26.38 120.65 28.67 128.32 31.12 135.94C32.65 140.68 34.42 145.34 36.13 150.02C37.41 153.53 38.96 156.95 40.05 160.51C41.38 164.82 42.77 169.09 44.45 173.29C46.18 177.61 47.61 182.04 49.17 186.42C49.29 186.75 49.36 187.15 49.6 187.38C49.89 187.66 50.33 187.98 50.69 187.96C50.99 187.94 51.46 187.5 51.51 187.19C51.63 186.51 51.69 185.74 51.49 185.11C50.38 181.7 49.36 178.24 47.96 174.95C45.66 169.51 43.45 164.05 41.66 158.41C41.08 156.58 40.21 154.84 39.5 153.05C37.07 146.93 34.49 140.87 32.28 134.68C29.84 127.84 27.76 120.87 25.5 113.97C25.24 113.18 24.77 112.46 24.4 111.71L24.41 111.7Z" fill="white"/>
</g>
<defs>
<clipPath id="clip0_3416_11162">
<rect width="177.58" height="197.53" fill="white"/>
</clipPath>
</defs>
</svg>
