<svg width="194" height="189" viewBox="0 0 194 189" fill="none" xmlns="http://www.w3.org/2000/svg">
<g clip-path="url(#clip0_3416_10954)">
<path d="M5.78011 117.07C5.52011 115.7 5.91011 117.85 5.67011 116.48C5.60011 116.06 5.52011 115.65 5.45011 115.23C5.31011 114.4 5.18011 113.56 5.06011 112.72C4.82011 111.05 4.61011 109.37 4.45011 107.69C4.37011 106.85 4.29011 106.01 4.23011 105.17C4.21011 104.89 4.19011 104.61 4.17011 104.33C4.17011 104.23 4.08011 102.84 4.14011 103.85C4.05011 102.17 4.00011 100.49 3.98011 98.8199C3.96011 97.1499 3.98011 95.4699 4.04011 93.7899C4.06011 93.0899 4.10011 92.3999 4.13011 91.6999C4.08011 92.7099 4.15011 91.3299 4.16011 91.2299C4.20011 90.6699 4.24011 90.1199 4.29011 89.5599C4.56011 86.3699 4.96011 83.1999 5.50011 80.0399C5.57011 79.6299 5.64011 79.2199 5.72011 78.8099C5.57011 79.6099 5.83011 78.2699 5.83011 78.2499C5.99011 77.4299 6.16011 76.6199 6.34011 75.7999C6.70011 74.1699 7.10011 72.5499 7.54011 70.9499C7.94011 69.4799 8.37011 68.0099 8.83011 66.5499C9.29011 65.0899 9.67011 63.9799 10.2801 62.3399C12.5201 56.3199 15.2901 50.4599 18.6301 44.9699C21.9701 39.4799 25.5301 34.5199 30.0401 30.1799C34.5501 25.8399 39.2701 22.6199 44.5101 19.8199C55.5301 13.9299 67.8201 10.7599 80.2201 9.56988C92.6201 8.37988 104.72 9.05988 116.79 10.9099C126.24 12.3499 135.73 14.5199 144.73 17.4799C148.82 18.8199 153.2 20.1699 156.8 22.6099C158.31 23.6399 159.77 24.7399 161.2 25.8899C162.22 26.7099 163.22 27.5499 164.2 28.4199C164.7 28.8699 165.2 29.3199 165.69 29.7699C165.97 30.0299 166.25 30.2999 166.53 30.5599C166.99 30.9999 166.26 30.2999 166.55 30.5799C166.72 30.7399 166.89 30.9099 167.05 31.0699C172.42 36.3399 177.13 42.2999 180.91 48.8099C180.95 48.8799 181.4 49.6699 181.05 49.0599C181.18 49.2999 181.32 49.5399 181.45 49.7799C181.67 50.1899 181.89 50.5999 182.11 51.0099C182.68 52.0999 183.23 53.1999 183.75 54.3099C184.7 56.3499 185.56 58.4399 186.32 60.5699C186.42 60.8499 186.52 61.1399 186.62 61.4199C186.32 60.5699 186.66 61.5399 186.7 61.6599C186.86 62.1499 187.01 62.6299 187.16 63.1199C187.54 64.3699 187.88 65.6199 188.19 66.8899C188.48 68.0799 188.74 69.2899 188.97 70.4899C188.76 69.4099 189.07 71.0699 189.11 71.3499C189.23 72.1099 189.35 72.8799 189.45 73.6499C189.61 74.8799 189.74 76.1199 189.84 77.3599C189.87 77.6999 189.91 78.0499 189.91 78.3899C189.91 77.1899 189.91 78.3699 189.91 78.5899C189.94 79.2999 189.97 79.9999 189.98 80.7099C190.01 82.1599 189.99 83.5999 189.94 85.0499C189.94 85.2899 189.82 87.1999 189.9 86.0799C189.84 86.9599 189.77 87.8399 189.68 88.7199C189.54 90.1399 189.36 91.5499 189.15 92.9599C189.03 93.7499 188.9 94.5399 188.76 95.3299C188.76 95.3299 188.51 96.7099 188.65 95.9299C188.57 96.3499 188.49 96.7599 188.41 97.1799C187.78 100.43 187.05 103.65 186.22 106.85C185.46 109.8 184.61 112.73 183.68 115.63C183.17 117.2 183.01 117.69 182.43 119.28C181.9 120.76 181.34 122.23 180.76 123.69C179.72 126.3 178.59 128.88 177.38 131.41C176.27 133.74 174.78 136.6 173.69 138.51C164.37 154.81 150.57 168.96 132.43 175.04C125.83 177.25 118.76 178.04 111.84 178.6C104.16 179.22 96.4501 179.35 88.7501 179.02C71.9901 178.31 54.7801 175.6 39.4901 168.47C35.8101 166.75 32.2601 164.77 28.9201 162.46C27.3201 161.36 25.7801 160.18 24.3001 158.93C22.6101 157.5 21.6801 156.61 20.2401 155.07C18.9301 153.67 17.7001 152.19 16.5701 150.65C16.0201 149.91 15.5001 149.15 15.0001 148.38C14.7301 147.96 14.4601 147.53 14.2001 147.09C14.0701 146.87 13.9401 146.65 13.8101 146.44C13.4901 145.9 14.0301 146.86 13.6501 146.15C12.7001 144.36 11.8201 142.54 11.0801 140.65C10.8901 140.16 10.7101 139.66 10.5301 139.16C10.3001 138.54 10.5501 139.21 10.5801 139.31C10.5001 139.05 10.4101 138.8 10.3301 138.55C10.0001 137.51 9.71011 136.46 9.45011 135.4C7.98011 129.36 6.94011 123.19 5.75011 117.09C5.51011 115.84 4.25011 113.96 3.04011 115.48C1.75011 117.09 1.97011 119.77 2.33011 121.64C3.57011 128 4.59011 134.48 6.23011 140.75C7.35011 145.04 8.97011 149.21 11.1501 153.08C15.2801 160.43 21.1401 166.55 28.0801 171.31C42.3201 181.07 60.0101 185.31 76.9601 187.16C92.1601 188.82 107.82 188.73 122.93 186.32C131.62 184.93 139.91 181.82 147.34 177.1C155.64 171.83 162.81 164.78 168.7 156.94C175.53 147.84 180.81 137.58 184.76 126.93C187.02 120.83 188.91 114.59 190.4 108.26C191.89 101.93 193.23 95.1699 193.68 88.5099C194.47 76.6499 192.98 64.8399 188.87 53.6699C185.82 45.3699 181.27 37.5899 175.71 30.7199C171.65 25.6999 167.01 21.0899 161.97 17.0499C159.3 14.9099 156.63 13.0199 153.47 11.6799C146.22 8.60988 138.52 6.45988 130.87 4.66988C119.43 1.94988 107.67 0.309877 95.8801 0.0398775C70.9101 -0.530123 43.7301 5.58988 26.0601 24.4199C21.4701 29.3099 17.8001 34.9799 14.5201 40.7999C11.2401 46.6199 8.52011 52.7699 6.36011 59.1099C1.83011 72.3899 -0.309894 86.4599 0.0401062 100.49C0.220106 107.6 1.02011 114.63 2.36011 121.61C2.60011 122.86 3.86011 124.74 5.07011 123.22C6.36011 121.6 6.14011 118.93 5.78011 117.06V117.07Z" fill="black"/>
<path d="M27.11 115.8C26.22 110.64 25.34 105.48 24.45 100.33C24.32 99.5899 24.2 98.8599 24.07 98.1199L23.21 101.57C24.8 100.4 26.81 99.3199 28.81 99.2099C30.21 99.1299 31.1 99.8499 32.29 100.44C33.48 101.03 34.69 101.54 35.76 102.32C36.2 102.64 36.55 102.98 36.87 103.45C36.93 103.53 37.09 103.87 37.08 103.86C36.97 103.56 37.18 104.28 37.17 104.23C37.08 103.72 37.14 104.7 37.14 104.09C37.15 105.77 37.12 107.44 37.17 109.13C37.18 109.49 37.19 109.86 37.19 110.22C37.19 110.35 37.19 110.49 37.18 110.62C37.2 109.92 37.2 110.27 37.18 110.44C37.11 111.04 37.27 110 37.2 110.37L37.18 110.45C37.3 110.15 37.31 110.11 37.22 110.34C37.24 110.38 36.99 110.73 37.25 110.32C37.17 110.45 37.07 110.59 36.96 110.7C36.32 111.35 34.62 111.82 33.54 112.12C31.05 112.81 28.5 113.33 25.94 113.74C24.1 114.04 24.39 119.6 25.94 119.35C28.57 118.93 31.21 118.4 33.78 117.67C35.29 117.24 36.96 116.84 38.08 115.67C39.34 114.36 39.58 112.35 39.65 110.62C39.72 108.89 39.53 107.08 39.58 105.31C39.65 102.97 39.48 100.6 38.13 98.6099C37.29 97.3699 35.98 96.5299 34.67 95.8599C34.04 95.5399 33.41 95.2499 32.78 94.9299C32.1 94.5799 31.47 94.1199 30.75 93.8599C28.03 92.9099 24.75 94.5599 22.57 96.1499C21.65 96.8199 21.54 98.5999 21.71 99.5999C22.6 104.76 23.48 109.92 24.37 115.07C24.5 115.81 24.62 116.54 24.75 117.28C24.86 117.92 25.22 119.78 26.27 119.24C27.22 118.75 27.28 116.64 27.13 115.79L27.11 115.8Z" fill="black"/>
<path d="M47.8201 110.53C47.8201 110.53 47.7702 110.46 47.7402 110.43C47.5702 110.25 47.9201 110.87 47.8701 110.67C47.8301 110.51 47.7201 110.35 47.6601 110.2C47.6201 110.1 47.5901 110 47.5501 109.9C47.4001 109.51 47.6501 110.24 47.6101 110.08C47.5301 109.79 47.4301 109.51 47.3401 109.22C46.9301 107.85 46.5801 106.46 46.2501 105.06C45.5301 102.09 44.8801 99.11 44.2501 96.12C44.1101 95.45 43.9701 94.79 43.8401 94.12C43.6801 93.35 42.9102 92.17 42.1502 93.11C41.3502 94.11 41.4701 95.79 41.7101 96.95C42.7301 101.98 43.7401 107.06 45.1901 111.98C45.4901 112.99 45.7801 114.58 46.5701 115.36C47.4201 116.2 48.0301 115.22 48.2601 114.35C48.5201 113.36 48.6501 111.33 47.8201 110.51V110.53Z" fill="black"/>
<path d="M63.4702 92.66C62.8902 92.22 62.2502 91.84 61.6102 91.5C60.2902 90.8 58.8202 90.23 57.3202 90.12C56.5002 90.06 55.7002 90.18 54.9302 90.48C54.1002 90.8 53.4002 91.41 52.8602 92.1C52.0102 93.19 51.5102 94.56 51.1602 95.89C50.7402 97.46 50.5602 99.12 50.6002 100.74C50.6602 103.41 51.2302 106.04 52.2002 108.53C52.4602 109.19 52.7502 109.84 53.0702 110.46C53.2202 110.74 53.3702 111.02 53.5302 111.3C53.6202 111.45 53.6902 111.59 53.8502 111.68C54.0702 111.81 54.3202 111.9 54.5502 112C55.1102 112.25 55.6902 112.48 56.2702 112.68C57.8102 113.23 59.4702 113.72 61.1202 113.67C61.8702 113.65 62.6902 113.49 63.3302 113.08C64.3902 112.42 64.8002 111.23 65.1802 110.11C65.6902 108.58 65.9102 106.93 65.8902 105.32C65.8802 104.19 65.7602 103.06 65.4902 101.96C65.4602 101.85 65.4402 101.74 65.4002 101.63C65.3402 101.35 65.2202 101.1 65.0602 100.87C64.9502 100.7 64.7902 100.6 64.5902 100.58C62.9002 100.82 61.2002 101.06 59.5102 101.31C59.2702 101.34 59.0302 101.38 58.7902 101.41C58.4502 101.46 58.2602 101.74 58.1302 102.03C57.9302 102.47 57.8502 103.06 57.8602 103.54C57.8702 104.02 57.9102 104.59 58.1302 105.05C58.2502 105.28 58.4702 105.72 58.7902 105.67C60.4802 105.43 62.1802 105.19 63.8702 104.94C64.1102 104.91 64.3502 104.87 64.5902 104.84L63.7802 103.78C63.8102 103.88 63.8402 103.98 63.8602 104.08C63.8902 104.19 63.9102 104.31 63.9402 104.42C63.9402 104.45 63.9502 104.49 63.9602 104.52C64.0002 104.7 63.8402 103.87 63.8902 104.15C63.9102 104.24 63.9202 104.33 63.9302 104.42C63.9602 104.61 63.9802 104.81 64.0002 105C64.0102 105.12 64.0402 105.56 64.0002 105.05C63.9602 104.54 64.0002 105.02 64.0002 105.15C64.0002 105.41 64.0002 105.68 64.0002 105.94C64.0002 105.97 64.0002 106 64.0002 106.02C63.9902 106.25 64.0402 105.39 64.0202 105.62C64.0202 105.69 64.0202 105.75 64.0002 105.82C63.9902 105.97 63.9702 106.12 63.9502 106.26C63.9302 106.43 63.9002 106.61 63.8702 106.78C63.8602 106.86 63.8302 107.01 63.8902 106.65C63.9602 106.27 63.9202 106.5 63.9002 106.59C63.8802 106.68 63.8602 106.76 63.8402 106.85C63.7502 107.23 63.6502 107.61 63.5202 107.98L63.6702 107.55C63.5402 107.92 63.4102 108.3 63.2202 108.65L63.4102 108.32C63.2902 108.53 63.1402 108.72 62.9702 108.89L63.1902 108.68C62.8702 108.98 62.4902 109.18 62.0702 109.31L62.3202 109.23C61.0902 109.59 59.7302 109.39 58.5102 109.1C58.1302 109.01 57.7602 108.91 57.3902 108.8L57.6402 108.88C56.5702 108.55 55.5302 108.15 54.5202 107.67C54.4502 107.64 54.3802 107.61 54.3202 107.57L54.5402 107.78C54.5102 107.72 54.4702 107.67 54.4402 107.61L54.6302 107.94C54.0302 106.89 53.5502 105.76 53.1602 104.61L53.3102 105.04C53.1302 104.51 52.9702 103.98 52.8402 103.44C52.7702 103.15 52.7002 102.86 52.6402 102.56C52.6302 102.49 52.6102 102.42 52.6002 102.35C52.7402 103.05 52.6902 102.85 52.6702 102.7C52.6702 102.66 52.6602 102.63 52.6502 102.59C52.6202 102.43 52.6002 102.26 52.5702 102.1C52.5202 101.78 52.4902 101.46 52.4602 101.14C52.4602 101.06 52.4502 100.99 52.4402 100.91C52.4402 100.87 52.4402 100.83 52.4402 100.79C52.4402 100.72 52.4802 101.46 52.4602 101.18C52.4602 101 52.4402 100.83 52.4402 100.65C52.4402 100.32 52.4402 99.99 52.4602 99.66V99.63C52.4702 99.42 52.4602 99.55 52.4402 100.02C52.4402 99.98 52.4402 99.94 52.4402 99.9C52.4402 99.82 52.4502 99.74 52.4602 99.66C52.4802 99.49 52.4902 99.31 52.5202 99.14C52.5502 98.94 52.5802 98.75 52.6102 98.56C52.6502 98.3 52.5402 98.93 52.5502 98.88C52.5602 98.82 52.5702 98.76 52.5902 98.69C52.6102 98.6 52.6302 98.5 52.6502 98.41C52.7402 98 52.8602 97.6 52.9902 97.2L52.8402 97.63C53.0202 97.1 53.2302 96.59 53.5002 96.1L53.3102 96.43C53.5702 95.98 53.8702 95.57 54.2402 95.21L54.0202 95.42C54.5002 94.97 55.0602 94.63 55.6902 94.44L55.4402 94.52C56.6302 94.17 57.9002 94.33 59.0702 94.69L58.8202 94.61C60.1902 95.03 61.5002 95.72 62.6802 96.53C62.7702 96.59 62.8502 96.65 62.9402 96.71C63.2002 96.9 63.5102 96.69 63.6602 96.5C63.9202 96.18 64.0502 95.62 64.0902 95.23C64.1502 94.69 64.1502 94.11 64.0002 93.59C63.8902 93.22 63.7602 92.85 63.4402 92.61L63.4702 92.66Z" fill="black"/>
<path d="M68.8402 93.7397C70.3102 98.3097 71.7902 102.89 73.2602 107.46C73.4702 108.12 73.6802 108.77 73.8902 109.43C74.1702 110.3 74.9802 111.87 75.9402 110.65C76.8302 109.53 76.9002 107.28 76.4802 105.98C75.0102 101.41 73.5302 96.8297 72.0602 92.2597C71.8502 91.5997 71.6402 90.9497 71.4302 90.2897C71.1502 89.4197 70.3402 87.8497 69.3802 89.0697C68.4902 90.1897 68.4202 92.4397 68.8402 93.7397Z" fill="black"/>
<path d="M81.4601 87.1899C81.1101 87.2499 80.7601 87.3099 80.4101 87.3699L77.9001 87.7899C76.8901 87.9599 75.8801 88.1299 74.8801 88.2999L72.2501 88.7399C71.8301 88.8099 71.4001 88.8799 70.9801 88.9499C70.9801 88.9499 70.9701 88.9499 70.9601 88.9499C70.6701 88.9999 70.5201 89.2199 70.4001 89.4699C70.2301 89.8399 70.1601 90.3299 70.1701 90.7299C70.1801 91.1299 70.2101 91.6099 70.4001 91.9899L70.5601 92.2699C70.6501 92.4199 70.7901 92.4999 70.9601 92.5099C71.3101 92.4499 71.6601 92.3899 72.0101 92.3299C72.8501 92.1899 73.6801 92.0499 74.5201 91.9099C75.5301 91.7399 76.5401 91.5699 77.5401 91.3999L80.1701 90.9599C80.5901 90.8899 81.0201 90.8199 81.4401 90.7499C81.4401 90.7499 81.4501 90.7499 81.4601 90.7499C81.7501 90.6999 81.9001 90.4799 82.0201 90.2299C82.1901 89.8599 82.2601 89.3699 82.2501 88.9699C82.2401 88.5699 82.2101 88.0899 82.0201 87.7099L81.8601 87.4299C81.7701 87.2799 81.6301 87.1999 81.4601 87.1899Z" fill="black"/>
<path d="M82.2902 95.1899C81.9402 95.2499 81.5902 95.3099 81.2402 95.3699L78.7302 95.7899L75.7102 96.2999L73.0802 96.7399C72.6602 96.8099 72.2302 96.8799 71.8102 96.9499C71.8102 96.9499 71.8002 96.9499 71.7902 96.9499C71.5002 96.9999 71.3502 97.2199 71.2302 97.4699C71.0602 97.8399 70.9902 98.3299 71.0002 98.7299C71.0102 99.1299 71.0402 99.6099 71.2302 99.9899L71.3902 100.27C71.4802 100.42 71.6202 100.5 71.7902 100.51C72.1402 100.45 72.4902 100.39 72.8402 100.33C73.6802 100.19 74.5102 100.05 75.3502 99.9099C76.3602 99.7399 77.3702 99.5699 78.3702 99.3999L81.0002 98.9599C81.4202 98.8899 81.8502 98.8199 82.2702 98.7499C82.2702 98.7499 82.2802 98.7499 82.2902 98.7499C82.5802 98.6999 82.7302 98.4799 82.8502 98.2299C83.0202 97.8599 83.0902 97.3699 83.0802 96.9699C83.0702 96.5699 83.0402 96.0899 82.8502 95.7099L82.6902 95.4299C82.6002 95.2799 82.4602 95.1999 82.2902 95.1899Z" fill="black"/>
<path d="M85.88 104.14C85.53 104.2 85.18 104.26 84.83 104.32L82.32 104.74C81.31 104.91 80.3001 105.08 79.3001 105.25L76.67 105.69C76.25 105.76 75.82 105.83 75.4 105.9C75.4 105.9 75.39 105.9 75.38 105.9C75.09 105.95 74.94 106.17 74.82 106.42C74.65 106.79 74.58 107.28 74.59 107.68C74.6 108.08 74.63 108.56 74.82 108.94L74.9801 109.22C75.0701 109.37 75.21 109.45 75.38 109.46C75.73 109.4 76.08 109.34 76.43 109.28C77.27 109.14 78.1001 109 78.9401 108.86C79.9501 108.69 80.96 108.52 81.96 108.35L84.59 107.91C85.01 107.84 85.44 107.77 85.86 107.7C85.86 107.7 85.87 107.7 85.88 107.7C86.17 107.65 86.3201 107.43 86.4401 107.18C86.6101 106.81 86.68 106.32 86.67 105.92C86.66 105.52 86.6301 105.04 86.4401 104.66L86.28 104.38C86.19 104.23 86.05 104.15 85.88 104.14Z" fill="black"/>
<path d="M99.1702 81.3499C96.6102 81.3199 93.7402 81.6699 91.4502 82.8499C87.0102 85.1399 87.7002 91.9099 91.0602 94.8599C92.0602 95.7299 93.2802 96.3499 94.5402 96.7499C95.3302 96.9999 96.1902 96.9999 97.0002 97.1399C98.4902 97.4099 100.19 97.8199 101.37 98.8499C101.51 98.9699 101.49 98.9599 101.63 99.1299C101.81 99.3299 101.75 99.2499 101.74 99.2699C101.71 99.3899 101.72 99.2399 101.7 99.1199C101.68 98.9599 101.65 98.8099 101.64 98.6499C101.61 97.9299 101.64 98.4699 101.6 98.8499C101.56 99.3199 101.51 99.7899 101.45 100.27C101.4 100.66 101.53 99.9299 101.45 100.29C101.43 100.39 101.4 100.5 101.38 100.6C101.36 100.7 101.33 100.8 101.3 100.9C101.2 101.23 101.41 100.62 101.28 100.93C101.18 101.17 101.09 101.41 100.79 101.69C100.44 102.01 99.9502 102.25 99.5002 102.38C98.0902 102.77 96.5102 102.55 95.0702 102.5C94.1102 102.47 93.1402 102.43 92.1802 102.4C90.6002 102.34 90.5202 107.58 92.1802 107.63C92.8502 107.65 93.5102 107.68 94.1802 107.7C96.4002 107.78 99.2402 108.29 101.19 106.91C103.01 105.62 103.52 103.17 103.76 101.09C104.03 98.7299 104.23 95.9699 102.38 94.1699C100.53 92.3699 97.4902 91.8999 94.9702 91.6499C94.9702 91.6499 95.2402 91.7499 94.9102 91.6299C94.6402 91.5299 94.3702 91.4299 94.1102 91.3199C93.3902 91.0099 92.7002 90.6199 92.0802 90.1499C91.7602 89.9099 91.4802 89.6499 91.2302 89.3399C90.9602 88.9999 90.7402 88.6099 90.6602 88.3999C90.8002 88.7599 90.7002 88.3399 90.6802 88.4799C90.6602 88.5999 90.6202 89.1999 90.6302 89.0399C90.6302 89.0699 90.6602 89.0699 90.5802 89.1499C90.7102 89.0199 90.8002 88.8299 90.9402 88.6899C92.7202 86.8299 96.6402 86.5699 99.2002 86.5999C100.8 86.6199 100.84 81.3799 99.2002 81.3699L99.1702 81.3499Z" fill="black"/>
<path d="M106.38 85.8897C110.38 84.9597 114.38 84.0297 118.38 83.1097L120.09 82.7097C121.12 82.4697 121.29 80.8997 121.27 80.0297C121.27 79.5597 121.07 77.1197 120.09 77.3497C116.09 78.2797 112.09 79.2097 108.09 80.1297L106.38 80.5297C105.35 80.7697 105.18 82.3397 105.2 83.2097C105.2 83.6797 105.4 86.1197 106.38 85.8897Z" fill="black"/>
<path d="M118.14 98.5897C117.54 96.6797 117.29 94.5897 116.9 92.6397C116.31 89.6797 115.73 86.7197 115.15 83.7597C115.02 83.0897 114.89 82.4097 114.75 81.7297C114.57 80.8297 113.66 79.4597 112.78 80.5597C111.85 81.7297 112 83.6697 112.26 85.0297C113.2 89.8497 114.14 94.6697 115.12 99.4897C115.28 100.28 115.4 101.12 115.64 101.89C115.9 102.73 116.68 104.22 117.61 103.06C118.46 101.99 118.52 99.8397 118.13 98.5897H118.14Z" fill="black"/>
<path d="M130.3 81.2499C132.92 85.9499 135.54 90.6499 138.16 95.3499C138.81 96.5099 139.58 97.8199 141.12 97.6899C143.17 97.5199 143.78 95.4099 144.05 93.6999C144.51 90.8299 144.97 87.9599 145.43 85.0899C145.86 82.3799 146.3 79.6799 146.73 76.9699C146.88 76.0499 146.85 74.0399 145.87 73.5199C144.83 72.9699 144.45 74.8999 144.35 75.4799C143.52 80.6699 142.68 85.8699 141.85 91.0599C141.79 91.4599 141.72 91.8599 141.66 92.2599C141.65 92.3499 141.63 92.4399 141.62 92.5299C141.62 92.5499 141.62 92.5599 141.62 92.5799C141.75 91.2799 141.65 92.6799 141.81 91.8799C141.9 91.3999 141.86 91.7599 141.85 91.7599C141.46 91.8899 141.33 92.1199 140.87 92.0899C140.7 92.0799 140.58 92.0399 140.43 91.9799C140.31 91.9199 139.95 91.6299 140.16 91.8299C140.3 91.9599 140.23 91.9599 140.16 91.8299C140.09 91.7199 140.03 91.5999 139.97 91.4799C138.58 88.9899 137.2 86.4999 135.81 84.0099C134.56 81.7699 133.31 79.5299 132.07 77.2899C131.89 76.9699 131.65 76.4699 131.2 76.4699C130.75 76.4699 130.47 76.9699 130.33 77.2899C129.85 78.3499 129.74 80.1999 130.33 81.2599L130.3 81.2499Z" fill="black"/>
<path d="M150.33 77.2297C151.78 81.7797 153.24 86.3197 154.69 90.8697C154.9 91.5197 155.11 92.1697 155.32 92.8297C155.6 93.6897 156.4 95.2397 157.35 94.0397C158.23 92.9297 158.3 90.7097 157.88 89.4197C156.43 84.8697 154.97 80.3297 153.52 75.7797C153.31 75.1297 153.1 74.4797 152.89 73.8197C152.61 72.9597 151.81 71.4097 150.86 72.6097C149.98 73.7197 149.91 75.9397 150.33 77.2297Z" fill="black"/>
<path d="M162.8 70.73C162.46 70.79 162.11 70.85 161.77 70.91L159.29 71.33C158.29 71.5 157.3 71.67 156.3 71.84C155.44 71.99 154.57 72.13 153.71 72.28C153.29 72.35 152.87 72.41 152.45 72.49C152.45 72.49 152.44 72.49 152.43 72.49C152.15 72.54 151.99 72.76 151.88 73.01C151.71 73.38 151.64 73.87 151.65 74.26C151.66 74.65 151.69 75.14 151.88 75.51L152.04 75.79C152.13 75.93 152.27 76.01 152.43 76.03C152.77 75.97 153.12 75.91 153.46 75.85C154.29 75.71 155.11 75.57 155.94 75.43C156.94 75.26 157.93 75.09 158.93 74.92C159.79 74.77 160.66 74.63 161.52 74.48C161.94 74.41 162.36 74.35 162.78 74.27C162.78 74.27 162.79 74.27 162.8 74.27C163.08 74.22 163.24 74 163.35 73.75C163.52 73.38 163.59 72.89 163.58 72.5C163.57 72.11 163.54 71.62 163.35 71.25L163.19 70.97C163.1 70.83 162.96 70.75 162.8 70.73Z" fill="black"/>
<path d="M163.89 79.79C163.55 79.85 163.2 79.91 162.86 79.97L160.38 80.39L157.39 80.9C156.53 81.05 155.66 81.19 154.8 81.34C154.38 81.41 153.96 81.47 153.54 81.55C153.54 81.55 153.53 81.55 153.52 81.55C153.24 81.6 153.08 81.82 152.97 82.07C152.8 82.44 152.73 82.93 152.74 83.32C152.75 83.71 152.78 84.2 152.97 84.57L153.13 84.85C153.22 84.99 153.36 85.07 153.52 85.09C153.86 85.03 154.21 84.97 154.55 84.91L157.03 84.49L160.02 83.98L162.61 83.54C163.03 83.47 163.45 83.41 163.87 83.33C163.87 83.33 163.88 83.33 163.89 83.33C164.17 83.28 164.33 83.06 164.44 82.81C164.61 82.44 164.68 81.95 164.67 81.56C164.66 81.17 164.63 80.68 164.44 80.31L164.28 80.03C164.19 79.89 164.05 79.81 163.89 79.79Z" fill="black"/>
<path d="M167.16 87.5898C166.82 87.6498 166.47 87.7098 166.13 87.7698C165.3 87.9098 164.48 88.0498 163.65 88.1898C162.65 88.3598 161.66 88.5298 160.66 88.6998C159.8 88.8498 158.93 88.9898 158.07 89.1398C157.65 89.2098 157.23 89.2698 156.81 89.3498C156.81 89.3498 156.8 89.3498 156.79 89.3498C156.51 89.3998 156.35 89.6199 156.24 89.8699C156.07 90.2399 156 90.7299 156.01 91.1199C156.02 91.5099 156.05 91.9999 156.24 92.3699L156.4 92.6498C156.49 92.7898 156.63 92.8698 156.79 92.8898C157.13 92.8298 157.48 92.7698 157.82 92.7098C158.65 92.5698 159.47 92.4298 160.3 92.2898C161.3 92.1198 162.29 91.9498 163.29 91.7798C164.15 91.6298 165.02 91.4898 165.88 91.3398C166.3 91.2698 166.72 91.2098 167.14 91.1298C167.14 91.1298 167.15 91.1298 167.16 91.1298C167.44 91.0798 167.6 90.8598 167.71 90.6098C167.88 90.2398 167.95 89.7498 167.94 89.3598C167.93 88.9698 167.9 88.4798 167.71 88.1098L167.55 87.8298C167.46 87.6898 167.32 87.6098 167.16 87.5898Z" fill="black"/>
<path d="M62.1301 70.1701C62.1301 70.1701 62.1301 70.2501 62.1301 70.2901L62.1701 69.6201C62.1701 69.6201 62.1601 69.7101 62.1501 69.7601L62.3101 69.1401C62.3001 69.1901 62.2801 69.2401 62.2601 69.2901L62.5201 68.7501C62.5201 68.7501 62.4801 68.8301 62.4601 68.8601L62.8101 68.4301L62.7901 68.4501L63.6801 68.0601C63.6801 68.0601 63.6101 68.0601 63.5801 68.0601L65.5001 71.6801C65.5001 71.6801 65.5001 71.6501 65.5001 71.6401L65.3201 72.3501C65.5001 71.8701 65.5001 71.6701 65.5301 71.2201C65.5701 70.9501 65.5601 70.6901 65.5101 70.4301C65.5101 70.2801 65.5001 70.1401 65.4601 70.0001C65.4501 69.9501 65.4401 69.8901 65.4301 69.8401L65.5201 70.6401C65.5201 70.5701 65.5201 70.5001 65.5201 70.4201L65.4701 71.2401C65.4701 71.1701 65.4901 71.1001 65.5001 71.0301L65.3101 71.7901C65.3101 71.7901 65.3401 71.7001 65.3601 71.6501L61.4801 69.2901C61.4301 69.5901 61.3801 69.8801 61.3401 70.1801C61.3001 70.4801 61.2801 70.7901 61.2401 71.0901L65.8401 71.9201V71.8901C65.8201 72.2101 65.8001 72.5201 65.7801 72.8401C65.7801 72.8201 65.7801 72.8001 65.7801 72.7801L65.5601 73.6401C65.5601 73.6401 65.5801 73.5601 65.5901 73.5301C65.6701 73.2301 65.7401 72.9301 65.8101 72.6401L65.8701 71.6601C65.8701 71.6601 65.8701 71.6001 65.8701 71.5801C65.8701 71.4801 65.8701 71.3701 65.8701 71.2701L65.8101 72.2401C65.8201 72.0701 65.8501 71.9101 65.8901 71.7401L65.6701 72.6001C65.6701 72.6001 65.6801 72.5601 65.6901 72.5301L65.9101 71.6701V71.6401C65.9401 71.3201 65.9601 71.0001 65.9801 70.6901L65.8701 69.7401C65.8701 69.7401 65.8601 69.7001 65.8501 69.6801C65.8301 69.6201 65.8201 69.5501 65.8201 69.4901L65.5801 68.7101C65.4601 68.3601 65.2701 68.0601 65.0001 67.8101C64.8801 67.6301 64.7201 67.4901 64.5201 67.4001C64.2801 67.2101 64.0001 67.1201 63.6901 67.1401C63.6601 67.1401 63.6201 67.1401 63.5901 67.1501C63.3701 67.1901 63.1401 67.2101 62.9401 67.3001C62.4901 67.4901 62.1601 67.8501 61.9101 68.2501C61.5201 68.8501 61.3801 69.5401 61.2201 70.2201C61.1801 70.3701 61.1601 70.5201 61.1501 70.6701C61.1301 70.9701 61.1001 71.3601 61.0801 71.7101C61.0501 72.3301 61.2201 73.0401 61.4501 73.6201C61.4701 73.6801 61.5101 73.7401 61.5301 73.8001L61.2701 72.9601V72.9901C61.3501 73.4201 61.5001 73.8201 61.7201 74.1901C61.8701 74.5401 62.1001 74.8401 62.4001 75.0901L62.9701 75.4301C63.2801 75.5701 63.5901 75.5801 63.9001 75.4701C64.1301 75.4601 64.3201 75.3701 64.4801 75.2101C64.7901 75.0401 65.0401 74.7901 65.2101 74.4601L65.5601 73.7301C65.7601 73.1501 65.8501 72.5501 65.8301 71.9301C65.8001 71.6101 65.7601 71.2901 65.7301 70.9701C65.6801 70.5301 65.6501 70.0801 65.5801 69.6501C65.5501 69.5001 65.5301 69.3501 65.5001 69.2001C65.4401 68.8101 65.3001 68.4501 65.1001 68.1301C64.9601 67.8201 64.7601 67.5501 64.4901 67.3201L63.9801 67.0101C63.7001 66.8801 63.4201 66.8701 63.1401 66.9701C62.9401 66.9801 62.7601 67.0601 62.6201 67.2001C62.3401 67.3601 62.1201 67.5801 61.9601 67.8801L61.6501 68.5301C61.4701 69.0501 61.3901 69.5901 61.4001 70.1501C61.3901 70.5601 61.4301 70.9801 61.5401 71.3701C61.6101 71.6101 61.7001 71.9901 61.8301 72.2601C61.9501 72.5201 62.0801 72.7701 62.2401 73.0101C62.4601 73.3501 62.7601 73.6001 63.1201 73.7601C63.4701 73.8901 63.8201 73.8901 64.1601 73.7301C63.9901 73.7701 63.8201 73.8101 63.6501 73.8501C63.6501 73.8501 63.6701 73.8501 63.6801 73.8501C63.9601 73.8501 64.2001 73.7601 64.4101 73.5801C64.6701 73.4401 64.8701 73.2301 65.0101 72.9701L65.2901 72.3801C65.4501 71.9001 65.5301 71.4201 65.5101 70.9101C65.4901 70.6101 65.4801 70.3001 65.4001 70.0101L65.4401 71.4501C65.4601 71.1601 65.4901 70.8701 65.4901 70.5901C65.4901 70.3101 65.4501 70.0201 65.4001 69.7401C65.3101 69.1901 65.1101 68.8401 64.8501 68.3701L64.5101 67.9901L64.1101 67.7501L63.6701 67.6701C63.4301 67.6701 63.2201 67.7501 63.0401 67.9001C62.8901 67.9701 62.7701 68.0801 62.6901 68.2301C62.5601 68.3601 62.4701 68.5101 62.4101 68.6801C62.3101 68.8501 62.2401 69.0401 62.2101 69.2301C62.1101 69.5401 62.0701 69.8601 62.0901 70.1901L62.1301 70.1701Z" fill="black"/>
<path d="M89.93 57.9997C90.09 57.8097 90.25 57.6097 90.4 57.4197C90.63 57.0597 90.79 56.6697 90.86 56.2497C90.9 56.0797 90.95 55.9297 90.98 55.7697C91.09 55.1897 91.05 54.3897 90.93 53.8197C90.86 53.4897 90.77 53.2197 90.66 52.9297C90.64 52.8697 90.61 52.7997 90.59 52.7397C90.47 52.4397 90.36 52.1797 90.16 51.8897C89.94 51.5897 89.85 51.4597 89.62 51.3197C89.31 51.0497 88.96 50.9097 88.55 50.9097C88.14 50.9297 87.79 51.0897 87.5 51.3697C87.49 51.3697 87.48 51.3897 87.46 51.3997C87.46 51.3997 87.45 51.3997 87.44 51.4097H87.43C87.28 51.5997 87.14 51.7797 86.99 51.9597C86.78 52.2597 86.69 52.5197 86.61 52.8297C86.59 52.8897 86.58 52.9497 86.56 53.0097C86.48 53.3097 86.37 53.6397 86.33 53.9197L86.27 54.8897C86.29 55.2197 86.33 55.5497 86.38 55.8697C86.38 55.8897 86.38 55.8997 86.39 55.9197C86.5 56.4897 86.72 57.0197 87.04 57.4997C87.19 57.6997 87.36 57.8897 87.54 58.0597C87.88 58.3597 88.29 58.5197 88.74 58.5197C89.2 58.4897 89.59 58.3197 89.92 57.9997H89.93Z" fill="black"/>
<path d="M60.23 19.6299C60.45 19.5799 60.66 19.5299 60.88 19.4799C60.33 19.4999 59.82 19.7299 59.46 20.1299L58.93 20.7899L58.53 21.6299C58.34 22.1299 58.25 22.6399 58.25 23.1699C58.19 23.5399 58.2 23.8999 58.28 24.2699C58.28 24.6299 58.36 24.9699 58.49 25.3099C58.55 25.6399 58.68 25.9399 58.86 26.2099C58.97 26.4899 59.14 26.7299 59.36 26.9399C59.6 27.2699 59.91 27.5099 60.3 27.6499L61.02 27.7799L61.74 27.6199L62.38 27.1899L62.91 26.5299L63.31 25.6899C63.5 25.1899 63.59 24.6799 63.59 24.1499C63.65 23.7799 63.64 23.4199 63.56 23.0499C63.53 22.5199 63.41 22.0099 63.2 21.5299L63.17 21.4399C63.06 21.1399 62.97 20.9199 62.73 20.6099L62.18 19.9999C62.18 19.9999 62.15 19.9799 62.14 19.9699L62.65 20.5399C62.37 20.1099 62.01 19.7999 61.55 19.5999C61.11 19.4299 60.68 19.4399 60.25 19.6299H60.23Z" fill="black"/>
<path d="M117.87 58.4899C118.01 58.3999 118.14 58.3099 118.28 58.2199C118.26 58.2399 118.23 58.2399 118.21 58.2499L118.69 58.1399C118.69 58.1399 118.61 58.1399 118.56 58.1399C118.5 58.1399 118.45 58.1399 118.39 58.1399L118.92 58.2299C118.8 58.2099 118.7 58.1599 118.6 58.0999L119.11 58.4099C119.04 58.3699 118.98 58.3199 118.93 58.2699L119.39 58.7799C119.35 58.7299 119.31 58.6699 119.28 58.6099L119.66 59.3099C119.66 59.3099 119.61 59.2099 119.6 59.1499L119.86 60.0099C119.86 60.0099 119.84 59.9399 119.84 59.8999L119.95 60.8799C119.87 59.9799 119.9 60.0999 119.7 59.4499C119.56 58.9799 119.5 58.6999 119.16 58.2599L118.65 57.6899L118.06 57.3299C118.06 57.3299 118.05 57.3299 118.04 57.3199L118.63 57.6799C118.63 57.6799 118.58 57.6499 118.56 57.6199L119.05 58.1699C118.78 57.7599 118.43 57.4499 117.98 57.2599C117.56 57.0999 117.14 57.1099 116.72 57.2899C116.29 57.5099 115.94 57.8199 115.7 58.2399C115.4 58.7399 115.21 59.2699 115.13 59.8499C115.02 60.6499 115.06 61.1599 115.18 61.9499C115.28 62.5699 115.4 62.7399 115.65 63.2099L115.85 63.5799L116.36 64.1499C116.36 64.1499 116.92 64.4999 116.96 64.5199C116.98 64.5199 117.6 64.6399 117.62 64.6399C117.64 64.6399 117.66 64.6399 117.68 64.6399C117.7 64.6399 117.72 64.6399 117.74 64.6399C117.89 64.6099 118.21 64.5399 118.37 64.4999C118.37 64.4999 118.38 64.4999 118.39 64.4999C118.4 64.4999 118.41 64.4999 118.43 64.4899C118.49 64.4699 118.53 64.4399 118.59 64.4199C118.65 64.3899 118.71 64.3699 118.77 64.3299C118.96 64.2099 119.15 64.0799 119.34 63.9499C119.37 63.9299 119.4 63.9099 119.42 63.8899C119.62 63.7199 119.82 63.4299 119.95 63.2599C119.99 63.2099 120.03 63.1499 120.06 63.0899C120.16 62.8799 120.28 62.6699 120.36 62.4499C120.37 62.4099 120.53 61.7899 120.54 61.7499C120.54 61.7499 120.54 61.7299 120.54 61.7199C120.59 61.4499 120.6 61.1599 120.6 60.8899C120.6 60.8699 120.6 60.8599 120.6 60.8399C120.6 60.7199 120.56 60.4699 120.56 60.4599C120.57 60.5599 120.54 60.1999 120.52 60.0799C120.47 59.8399 120.4 59.5999 120.31 59.3799C120.21 59.0999 120.06 58.8599 119.85 58.6599C119.7 58.4499 119.5 58.2999 119.25 58.2099L118.79 58.1299C118.46 58.1499 118.17 58.2799 117.93 58.5099L117.87 58.4899Z" fill="black"/>
<path d="M136.29 27.5898C136.21 27.6298 136.14 27.6798 136.06 27.7198C135.53 28.0298 135.33 28.1898 134.99 28.7198C134.83 28.9698 134.72 29.2498 134.61 29.5198L134.57 29.6198L134.48 29.8398C134.31 30.2898 134.22 30.7598 134.22 31.2398C134.16 31.7398 134.19 32.2398 134.3 32.7298C134.37 33.1798 134.53 33.5998 134.77 33.9898C134.93 34.3598 135.17 34.6698 135.48 34.9398L136.08 35.2998C136.52 35.4698 136.95 35.4598 137.38 35.2698L137.96 34.8798C138.35 34.4898 138.63 34.0398 138.81 33.5198L138.89 33.3098L138.93 33.2098C138.93 33.2098 138.94 33.1698 138.95 33.1598C139.15 32.6098 139.28 31.8198 139.24 31.2398C139.24 31.0998 139.22 30.9598 139.21 30.8298C139.2 30.2298 139.08 29.6598 138.86 29.1098C138.73 28.7398 138.53 28.4298 138.26 28.1598C138.06 27.8898 137.8 27.6898 137.48 27.5698C137.08 27.4198 136.68 27.4298 136.28 27.5998L136.29 27.5898Z" fill="black"/>
<path d="M160.04 59.0298V59.0498L159.93 58.0798C159.93 58.0798 159.93 58.1198 159.93 58.1398L159.99 57.1598C159.99 57.1598 159.99 57.1998 159.99 57.2198L160.21 56.3398C160.21 56.3398 160.2 56.3698 160.19 56.3898L160.55 55.6398C160.55 55.6398 160.53 55.6698 160.52 55.6798L161 55.0898C161 55.0898 160.97 55.1198 160.96 55.1298L161.53 54.7398C161.53 54.7398 161.44 54.7898 161.39 54.7998L162.03 54.6498C161.95 54.6698 161.86 54.6598 161.77 54.6498L162.42 54.7698C162.36 54.7598 162.3 54.7398 162.23 54.7298C162.2 54.7298 162.17 54.7198 162.14 54.7098C162.03 54.6798 161.96 54.6798 161.8 54.6498L161.47 54.5898L160.82 54.7398C160.82 54.7398 160.27 55.1098 160.23 55.1298C159.93 55.4098 159.71 55.7298 159.57 56.1098C159.5 56.2398 159.44 56.3598 159.39 56.4898C159.39 56.4898 159.39 56.4998 159.39 56.5098C159.33 56.6498 159.39 56.5298 159.28 56.9498L159.17 57.3898L159.11 58.3598C159.11 58.5698 159.18 59.0198 159.22 59.3498C159.22 59.3498 159.22 59.3598 159.22 59.3698C159.31 59.9798 159.44 60.1798 159.69 60.6398L159.89 61.0098C160.06 61.2098 160.23 61.3998 160.4 61.5898L161 61.9498C161 61.9498 161.03 61.9498 161.05 61.9598C161.08 61.9598 161.11 61.9798 161.14 61.9798C161.41 62.0398 161.69 62.1198 161.97 62.1098C162 62.1098 162.03 62.1098 162.06 62.1098C162.07 62.1098 162.09 62.1098 162.1 62.1098C162.3 62.0698 162.56 62.0098 162.76 61.9598C162.76 61.9598 162.78 61.9598 162.79 61.9598C162.82 61.9598 162.84 61.9398 162.87 61.9298C162.88 61.9298 162.9 61.9198 162.91 61.9098C162.91 61.9098 162.92 61.9098 162.93 61.8998L163.5 61.5098C163.5 61.5098 163.5 61.5098 163.51 61.5098C163.53 61.4898 163.55 61.4798 163.57 61.4598C163.57 61.4598 163.57 61.4598 163.58 61.4498L163.82 61.1598C163.9 61.0598 163.99 60.9598 164.06 60.8598C164.06 60.8598 164.07 60.8398 164.08 60.8298C164.22 60.5698 164.38 60.2998 164.46 60.0198L164.57 59.5798C164.61 59.4298 164.65 59.2798 164.68 59.1298C164.68 59.1298 164.68 59.1198 164.68 59.1098C164.73 58.7998 164.77 57.5598 164.75 58.0998C164.75 57.9198 164.7 57.6498 164.69 57.5498C164.69 57.4698 164.67 57.1598 164.62 56.9998C164.55 56.5498 164.39 56.1398 164.16 55.7698C164 55.4098 163.77 55.0998 163.46 54.8398C163.2 54.5898 162.9 54.4498 162.56 54.4298C162.24 54.3298 161.92 54.3598 161.6 54.5198L161.03 54.8998C160.65 55.2798 160.37 55.7198 160.2 56.2298L159.98 57.1098C159.88 57.7598 159.9 58.4098 160.03 59.0598L160.04 59.0298Z" fill="black"/>
<path d="M170.07 103.13L169.82 103L169.7 102.94L169.64 102.91C169.64 102.91 169.62 102.91 169.61 102.9C169.33 102.76 168.82 102.76 168.55 102.93C168.19 103.11 167.91 103.37 167.71 103.72C167.52 104.02 167.39 104.34 167.33 104.69C167.21 105.06 167.17 105.45 167.19 105.84C167.2 106.36 167.3 106.86 167.49 107.34C167.58 107.55 167.69 107.75 167.82 107.95C167.98 108.22 168.19 108.42 168.47 108.55C168.57 108.61 168.64 108.66 168.74 108.71L168.8 108.74L168.93 108.8L169.19 108.93C169.45 109.05 169.71 109.06 169.97 108.96C170.25 108.93 170.49 108.8 170.69 108.59C170.93 108.37 171.11 108.11 171.22 107.81C171.4 107.49 171.5 107.15 171.55 106.79L171.6 105.99C171.59 105.47 171.49 104.97 171.3 104.49L170.98 103.89C170.76 103.55 170.46 103.3 170.1 103.14L170.07 103.13Z" fill="black"/>
<path d="M156.7 139.71C159.59 139.71 159.46 133.17 156.54 133.17C153.62 133.17 153.78 139.71 156.7 139.71Z" fill="black"/>
<path d="M126.04 119.4C129.29 119.4 129.16 112.03 125.86 112.03C122.56 112.03 122.74 119.4 126.04 119.4Z" fill="black"/>
<path d="M129.07 159.05C128.92 158.51 128.77 157.96 128.57 157.44C128.37 156.93 128.06 156.49 127.66 156.12C127.3 155.8 126.88 155.64 126.41 155.64C125.93 155.67 125.53 155.85 125.18 156.18C124.79 156.57 124.51 157.02 124.33 157.54C124.29 157.65 124.25 157.75 124.21 157.86L124.11 158.19C123.88 158.86 123.77 159.56 123.79 160.27C123.8 160.98 123.94 161.67 124.21 162.33C124.43 162.89 124.76 163.37 125.21 163.78C125.5 164.06 125.84 164.22 126.22 164.24C126.58 164.35 126.94 164.32 127.29 164.14C127.78 163.89 128.17 163.53 128.45 163.06C128.79 162.49 129 161.89 129.1 161.23C129.21 160.5 129.19 159.77 129.05 159.05H129.07Z" fill="black"/>
<path d="M102.28 135.33C105.69 135.33 105.55 127.59 102.09 127.59C98.6301 127.59 98.8201 135.33 102.28 135.33Z" fill="black"/>
<path d="M87.2402 164.14L87.1502 164.27C86.9402 164.6 86.8002 164.96 86.7302 165.34C86.6002 165.75 86.5502 166.18 86.5702 166.61L86.6702 167.48C86.7702 168 86.9702 168.48 87.2602 168.92L87.3502 169.05L87.8302 169.58L88.3802 169.92C88.6902 170.06 88.9902 170.07 89.2902 169.96C89.5102 169.95 89.7002 169.86 89.8602 169.71C90.0702 169.61 90.2302 169.45 90.3502 169.25C90.5302 169.07 90.6602 168.86 90.7402 168.62C90.8802 168.38 90.9702 168.12 91.0102 167.85C91.1502 167.41 91.2002 166.97 91.1702 166.51L91.0702 165.59L90.8202 164.76L90.4502 164.06L89.9702 163.53L89.4202 163.19C89.1102 163.05 88.8102 163.04 88.5102 163.15C88.2902 163.16 88.1002 163.25 87.9402 163.4C87.6302 163.57 87.3902 163.82 87.2202 164.14H87.2402Z" fill="black"/>
<path d="M72.42 129.29C75.38 129.29 75.2501 122.59 72.2601 122.59C69.2701 122.59 69.43 129.29 72.42 129.29Z" fill="black"/>
<path d="M55.7502 154.95C55.7502 154.95 55.7302 154.87 55.7202 154.82L55.4402 153.9L55.0202 153.12L54.4902 152.52C54.2202 152.25 53.9002 152.1 53.5302 152.08C53.3002 151.99 53.0702 152 52.8502 152.1C52.6002 152.11 52.3902 152.21 52.2102 152.38C51.9802 152.5 51.7902 152.67 51.6602 152.89C51.3602 153.21 51.1502 153.58 51.0302 154C51.0202 154.04 51.0102 154.08 51.0002 154.12C50.7802 154.77 50.6702 155.43 50.7002 156.12C50.7102 156.81 50.8502 157.47 51.1002 158.1C51.3102 158.64 51.6302 159.1 52.0602 159.49C52.3402 159.76 52.6602 159.91 53.0302 159.93C53.3802 160.04 53.7202 160.01 54.0602 159.83C54.5402 159.59 54.9102 159.25 55.1802 158.79C55.5002 158.25 55.7102 157.66 55.8002 157.03C55.9102 156.33 55.8902 155.63 55.7502 154.93V154.95Z" fill="black"/>
<path d="M27.6702 134.35C30.9502 134.35 30.8102 126.93 27.4902 126.93C24.1702 126.93 24.3502 134.35 27.6702 134.35Z" fill="black"/>
<path d="M17.7201 85.7398C21.0201 85.7398 20.8801 78.2598 17.5401 78.2598C14.2001 78.2598 14.3801 85.7398 17.7201 85.7398Z" fill="black"/>
<path d="M33.4801 54.0499C33.8501 54.0499 34.1701 53.9299 34.4401 53.6999C34.7801 53.5099 35.0401 53.2399 35.2301 52.8899C35.4801 52.5099 35.6401 52.0899 35.7201 51.6499C35.8701 51.1699 35.9301 50.6799 35.9001 50.1699L35.7901 49.1599C35.6701 48.5599 35.4401 47.9999 35.1001 47.4899L34.5801 46.9099C34.2101 46.5899 33.7901 46.4199 33.3001 46.4199C32.9301 46.4199 32.6101 46.5399 32.3401 46.7699C32.0001 46.9599 31.7401 47.2299 31.5501 47.5799C31.3001 47.9599 31.1401 48.3799 31.0601 48.8199C30.9101 49.2999 30.8501 49.7899 30.8801 50.2999L30.9901 51.3099C31.1101 51.9099 31.3401 52.4699 31.6801 52.9799L32.2001 53.5599C32.5701 53.8799 32.9901 54.0499 33.4801 54.0499Z" fill="black"/>
<path d="M130.23 95.2897C130.23 95.2897 130.18 95.2197 130.15 95.1897C129.98 95.0097 130.33 95.6297 130.28 95.4297C130.24 95.2697 130.13 95.1097 130.07 94.9597C130.03 94.8597 130 94.7597 129.96 94.6597C129.81 94.2697 130.06 94.9997 130.02 94.8397C129.94 94.5497 129.84 94.2697 129.75 93.9797C129.34 92.6097 128.99 91.2197 128.66 89.8197C127.94 86.8497 127.29 83.8697 126.66 80.8797C126.52 80.2097 126.38 79.5497 126.25 78.8797C126.09 78.1097 125.32 76.9297 124.56 77.8697C123.76 78.8697 123.88 80.5497 124.12 81.7097C125.14 86.7397 126.15 91.8197 127.6 96.7397C127.9 97.7497 128.19 99.3397 128.98 100.12C129.83 100.96 130.44 99.9797 130.67 99.1097C130.93 98.1197 131.06 96.0897 130.23 95.2697V95.2897Z" fill="black"/>
</g>
<defs>
<clipPath id="clip0_3416_10954">
<rect width="193.91" height="188.26" fill="white"/>
</clipPath>
</defs>
</svg>
