<svg width="181" height="245" viewBox="0 0 181 245" fill="none" xmlns="http://www.w3.org/2000/svg">
<g clip-path="url(#clip0_3416_11766)">
<path d="M63.28 9.10983C57.83 13.2298 53.13 18.2398 49.24 23.8498C46.93 27.1798 44.7 30.5598 42.52 33.9798C35.76 44.6098 29.54 55.5998 23.97 66.8998C11.85 91.4898 2.24999 118.32 0.359992 145.85C-0.630008 160.22 0.309992 174.86 4.62999 188.67C6.73999 195.42 9.46999 201.9 13.33 207.85C16.72 213.08 20.94 217.71 25.68 221.76C35.98 230.58 47.95 237.35 60.94 241.29C69.25 243.81 77.92 245.05 86.6 244.88C96.95 244.68 107.16 242.46 116.85 238.86C129.06 234.33 140.34 227.54 150.65 219.63C156.03 215.5 161.21 211.11 165.49 205.81C169.43 200.91 172.68 195.37 175.05 189.55C178.93 179.99 180.26 169.85 180.44 159.6C180.58 151.54 179.98 143.44 178.87 135.46C175.69 112.7 168.53 90.5998 159.67 69.4598C154.99 58.2998 150.23 46.9698 143.18 37.0798C138.71 30.8098 133.74 24.8598 128.21 19.4898C121.57 13.0498 114.16 7.20983 105.58 3.58983C97 -0.0301666 87.24 -1.21017 78.03 1.55983C72.68 3.16983 67.79 5.77983 63.31 9.11983C61.42 10.5298 61.27 13.9198 61.58 16.0398C61.72 17.0198 62.72 21.3798 64.62 19.9698C72.77 13.8998 82.14 10.3798 92.37 11.3698C101.14 12.2198 109.16 16.1698 116.39 21.3998C118.2 22.7098 119.95 24.0998 121.65 25.5498C122.45 26.2398 123.24 26.9398 124.02 27.6498C124.44 28.0298 124.86 28.4198 125.27 28.8198C125.25 28.7998 125.92 29.4398 125.59 29.1198C125.35 28.8898 126.03 29.5498 126.1 29.6198C129.03 32.4898 131.79 35.5298 134.41 38.6798C139.2 44.4498 143.85 50.6998 147.03 57.2498C153.01 69.5898 158.43 82.2298 163.03 95.1498C163.25 95.7698 163.47 96.3998 163.69 97.0198C163.82 97.3898 163.95 97.7598 164.08 98.1298C164.13 98.2698 164.55 99.5098 164.2 98.4698C164.69 99.9198 165.17 101.37 165.63 102.83C166.49 105.5 167.3 108.18 168.07 110.88C169.48 115.82 170.75 120.8 171.84 125.82C172.08 126.93 172.31 128.05 172.53 129.17C172.63 129.67 172.73 130.17 172.82 130.66C172.88 131 173.07 132.1 172.79 130.5C172.86 130.89 172.93 131.28 173 131.67C173.39 133.84 173.74 136.01 174.04 138.19C174.6 142.16 175.03 146.14 175.29 150.14C175.3 150.34 175.32 150.55 175.33 150.75C175.38 151.46 175.24 149.13 175.29 150.1C175.31 150.58 175.34 151.05 175.36 151.53C175.4 152.46 175.43 153.39 175.46 154.32C175.5 156.01 175.51 157.71 175.48 159.4C175.46 160.98 175.38 162.56 175.31 164.14C175.42 161.66 175.29 164.37 175.24 164.99C175.18 165.74 175.11 166.49 175.04 167.24C174.92 168.47 174.76 169.7 174.57 170.92C174.53 171.18 174.48 171.44 174.44 171.7C174.23 173.03 174.68 170.59 174.4 171.9C174.21 172.8 174.02 173.69 173.8 174.58C173.45 175.97 173.04 177.34 172.62 178.71C172.56 178.89 172.33 179.55 172.63 178.68C172.5 179.05 172.37 179.42 172.24 179.78C171.93 180.63 171.59 181.48 171.24 182.32C170.69 183.64 170.09 184.93 169.44 186.2C168.66 187.75 168.29 188.39 167.57 189.57C166.01 192.12 164.27 194.56 162.35 196.86C158.24 201.8 153.34 205.76 148.18 209.65C143.02 213.54 137.15 217.45 131.25 220.73C113.57 230.55 93.49 235.73 73.28 232.81C65.3 231.66 58.52 229.63 51.22 226.37C45.15 223.66 39.37 220.29 33.97 216.41C27.26 211.59 21.17 206.06 16.51 199.18C14.66 196.45 13.53 194.45 12.12 191.37C11.47 189.96 10.88 188.52 10.32 187.07C10.07 186.41 9.81999 185.74 9.57999 185.08C9.54999 184.99 9.09999 183.66 9.40999 184.62C9.22999 184.08 9.05999 183.55 8.88999 183.01C7.92999 179.92 7.12999 176.79 6.49999 173.61C6.45999 173.41 6.14999 172.02 6.43999 173.3C6.37999 173.03 6.33999 172.74 6.28999 172.47C6.14999 171.64 6.01999 170.81 5.89999 169.97C5.65999 168.3 5.45999 166.63 5.29999 164.95C5.22999 164.25 5.16999 163.55 5.11999 162.85C5.08999 162.43 5.03999 162.01 5.02999 161.58C5.06999 163.12 5.02999 161.67 5.02999 161.39C4.94999 159.7 4.90999 158 4.89999 156.3C4.89999 154.74 4.91999 153.18 4.97999 151.62C5.00999 150.91 5.03999 150.2 5.06999 149.49C5.13999 148.03 4.97999 150.74 5.07999 149.28C5.11999 148.71 5.15999 148.14 5.19999 147.57C5.45999 144.29 5.82999 141.02 6.31999 137.77C6.54999 136.21 6.80999 134.65 7.07999 133.09C7.07999 133.09 7.33999 131.69 7.18999 132.49C7.03999 133.29 7.30999 131.9 7.30999 131.89C7.49999 130.9 7.69999 129.92 7.90999 128.93C9.28999 122.47 11.03 116.09 13.05 109.81C13.27 109.13 13.49 108.45 13.71 107.78C13.84 107.37 13.98 106.97 14.12 106.57C13.8 107.51 14.26 106.18 14.29 106.1C14.85 104.5 15.42 102.9 16.01 101.31C17.13 98.2998 18.3 95.3098 19.53 92.3398C22.15 86.0098 25.01 79.7698 28.07 73.6398C29.56 70.6598 31.09 67.6998 32.67 64.7598C33.44 63.3298 34.21 61.9098 35 60.4998C35.33 59.8998 35.67 59.2998 36 58.7098C36.2 58.3598 36.4 58.0098 36.6 57.6498C36.31 58.1698 36.92 57.0898 36.99 56.9698C41.62 48.9198 46.55 41.0398 51.84 33.4198C55.4 28.2998 59.6 23.7398 64.58 19.9698C66.46 18.5498 66.62 15.1798 66.31 13.0498C66.17 12.0798 65.16 7.68983 63.27 9.11983L63.28 9.10983Z" fill="#1D1D1B"/>
<path d="M20.05 86.9901C28.03 92.1901 36.01 97.3901 43.99 102.6C45.1 103.32 45.74 103.9 47.11 103.28C48.68 102.57 50.15 101.55 51.61 100.64C56.85 97.3801 62.01 93.9701 67.16 90.5701C70.8 88.1701 74.43 85.7501 78.04 83.3201H76.72C86.06 89.3601 95.4 95.3901 104.74 101.43C106.04 102.27 107.34 103.11 108.64 103.95C109.08 104.22 109.52 104.22 109.96 103.95C118.83 97.9401 127.71 91.9301 136.58 85.9201C137.86 85.0601 139.13 84.1901 140.41 83.3301H139.09C146.53 88.6201 153.97 93.9201 161.41 99.2101C162.48 99.9701 163.56 100.74 164.63 101.5C165.32 101.99 166.11 101.47 166.54 100.93C167.23 100.08 167.57 98.6101 167.68 97.5701C167.9 95.4901 167.9 92.0401 165.95 90.6501C158.51 85.3601 151.07 80.0601 143.63 74.7701C142.56 74.0101 141.48 73.2401 140.41 72.4801C139.97 72.2101 139.53 72.2101 139.09 72.4801C130.22 78.4901 121.34 84.5001 112.47 90.5101C111.19 91.3701 109.92 92.2401 108.64 93.1001H109.96C100.62 87.0601 91.28 81.0301 81.94 74.9901C80.64 74.1501 79.34 73.3101 78.04 72.4701C77.6 72.2001 77.16 72.2001 76.72 72.4701C68.59 77.9301 60.44 83.3701 52.16 88.6101C50.37 89.7401 48.59 90.8801 46.74 91.9201C46.48 92.0701 46.22 92.2201 45.94 92.3501C45.66 92.4801 45.19 92.5301 45.72 92.4901C45.91 92.4701 46.43 92.1101 46.59 92.6101C46.59 92.5901 46.5 92.5601 46.49 92.5401C46.37 92.4001 46.13 92.3001 45.97 92.2001C41.73 89.4301 37.48 86.6701 33.24 83.9001C29.28 81.3201 25.31 78.7301 21.35 76.1501C19.4 74.8801 18.42 78.9401 18.31 80.0801C18.1 82.0801 18.06 85.7101 20.04 87.0001L20.05 86.9901Z" fill="#1D1D1B"/>
<path d="M2.57999 173.68C6.99999 176.3 11.42 178.92 15.84 181.54C16.28 181.81 16.72 181.81 17.16 181.54C26.62 175.09 36.08 168.64 45.55 162.19C46.89 161.27 48.23 160.36 49.58 159.44H48.26C59.06 165.49 69.86 171.54 80.66 177.58C82.1 178.39 83.54 179.36 85.05 180.04C86.32 180.61 88.15 179.09 89.22 178.49C95.5 174.97 101.79 171.45 108.07 167.93C113.13 165.1 118.18 162.27 123.24 159.44H121.92C128.81 163.97 135.79 168.38 142.88 172.6C146.77 174.92 150.73 177.4 154.95 179.1C156.24 179.62 157.42 180.15 158.73 179.5C160.63 178.57 162.45 177.44 164.31 176.44C168.78 174.03 173.26 171.65 177.74 169.28C180.76 167.68 179.67 156.71 176.42 158.43C172.66 160.42 168.91 162.42 165.16 164.43C162.93 165.63 160.69 166.82 158.48 168.06C158.17 168.24 157.84 168.4 157.53 168.59C157.47 168.63 157.29 168.69 157.25 168.76C157.25 168.76 157.83 168.71 157.68 168.62C157.6 168.57 157.25 168.58 157.15 168.57C157.05 168.56 156.94 168.51 156.83 168.49C156.42 168.44 157.51 168.75 156.97 168.53C153.03 166.9 149.34 164.8 145.67 162.64C140.88 159.83 136.16 156.89 131.48 153.92C128.72 152.17 125.97 150.4 123.23 148.61C122.79 148.34 122.35 148.34 121.91 148.61C111.16 154.63 100.41 160.65 89.66 166.67C88.13 167.53 86.61 168.38 85.08 169.24H86.4C75.65 163.22 64.9 157.2 54.15 151.18C52.62 150.32 51.1 149.47 49.57 148.61C49.13 148.34 48.69 148.34 48.25 148.61C38.79 155.06 29.33 161.51 19.86 167.96C18.52 168.88 17.18 169.79 15.83 170.71H17.15C12.73 168.09 8.30999 165.47 3.88999 162.85C1.89999 161.67 0.969992 165.57 0.849992 166.78C0.699992 168.21 0.699992 169.73 1.09999 171.11C1.35999 172.02 1.70999 173.18 2.57999 173.7V173.68Z" fill="#1D1D1B"/>
<path d="M30.5 125.1C30.28 123.7 29.44 122.41 28.27 121.61C27.34 120.97 26.44 120.7 25.31 120.65C23.29 120.56 21.66 122.04 20.57 123.59C19.22 125.51 18.7 128.2 18.91 130.51C19.12 132.82 19.78 135.38 21.37 137.25C22.6 138.71 24.1 139.9 25.94 140.49C27.4 140.96 29.04 141.19 30.57 141.04C33.87 140.72 37.16 139.01 38.69 135.95C40.87 131.58 40.68 125.92 37.22 122.24C36.15 121.1 34.66 120.51 33.17 120.19C32.14 119.97 31.1 119.75 30.06 119.68C29.02 119.61 27.99 119.78 26.96 120.06C25.27 120.53 23.82 121.76 22.85 123.21C20.99 126.01 20.96 129.6 21.99 132.69C23.13 136.08 26.43 138.59 30.01 138.73C31.75 138.8 33.5 138.14 34.82 137.03C35.75 136.24 36.43 135.04 36.83 133.91C37.45 132.17 37.56 130.02 37.08 128.23C36.6 126.44 35.85 124.95 34.5 123.74C33.81 123.13 32.88 122.58 31.97 122.38C30.91 122.14 29.95 122.07 28.89 122.29C28.25 122.43 27.53 122.56 26.91 122.8C26.48 122.97 26.07 123.21 25.65 123.42C23.28 124.57 22.68 128.07 23.24 130.4C23.76 132.56 25.3 135.12 27.88 134.22C28.66 133.95 29.47 133.69 30.27 133.49L29.28 133.72C29.93 133.57 30.58 133.51 31.24 133.6L30.24 133.42C30.67 133.5 31.05 133.65 31.43 133.86L30.53 133.31C30.79 133.48 31.01 133.66 31.23 133.87L30.46 133C30.62 133.18 30.75 133.36 30.86 133.57L30.25 132.44C30.3 132.54 30.35 132.65 30.38 132.76L29.97 131.41C30.01 131.52 30.03 131.63 30.05 131.74L29.88 130.24C29.9 130.36 29.91 130.47 29.9 130.59L30 129.08C29.99 129.24 29.97 129.39 29.94 129.55L30.28 128.18C30.24 128.32 30.19 128.45 30.13 128.58L30.69 127.41C30.62 127.54 30.55 127.65 30.46 127.77L31.19 126.86C31 127.09 30.79 127.27 30.55 127.44L31.43 126.84C31.03 127.09 30.61 127.25 30.15 127.36L31.14 127.13C30.51 127.26 29.88 127.29 29.24 127.19L30.25 127.37C29.47 127.23 28.76 126.95 28.08 126.54L29 127.1C28.6 126.84 28.23 126.54 27.9 126.2L28.69 127.09C28.46 126.83 28.26 126.56 28.09 126.26L28.71 127.42C28.61 127.22 28.52 127.02 28.45 126.81L28.87 128.19C28.81 127.98 28.77 127.77 28.74 127.55L28.91 129.09C28.9 128.92 28.9 128.76 28.91 128.59L28.81 130.14C28.83 129.97 28.86 129.8 28.89 129.63L28.54 131.03C28.59 130.86 28.64 130.7 28.71 130.53L28.14 131.72C28.27 131.45 28.42 131.21 28.6 130.97L27.85 131.89C28.12 131.57 28.43 131.3 28.78 131.05L27.89 131.65C28.37 131.34 28.87 131.13 29.42 130.99L28.42 131.22C29.67 130.95 30.93 131.05 32.18 131.27L31.19 131.09C32.11 131.26 33 131.47 33.81 131.95L32.91 131.4C33.2 131.59 33.45 131.8 33.68 132.05L32.91 131.19C33.08 131.39 33.23 131.6 33.36 131.83L32.75 130.7C32.87 130.94 32.98 131.17 33.06 131.43L32.65 130.09C32.74 130.4 32.81 130.71 32.84 131.03L32.67 129.54C32.69 129.81 32.7 130.08 32.68 130.36L32.78 128.86C32.76 129.13 32.72 129.4 32.66 129.67L33 128.32C32.92 128.64 32.81 128.95 32.68 129.25L33.23 128.1C33.05 128.46 32.84 128.79 32.59 129.11L33.32 128.21C32.95 128.64 32.54 129.01 32.07 129.34L32.94 128.75C32.19 129.24 31.38 129.58 30.51 129.79L31.49 129.57C30.27 129.85 29.03 129.88 27.79 129.69L28.78 129.87C27.85 129.7 26.97 129.4 26.14 128.93L27.04 129.48C26.53 129.17 26.07 128.8 25.66 128.37L26.43 129.23C26.14 128.89 25.89 128.54 25.67 128.15L26.28 129.27C26.11 128.93 25.97 128.59 25.85 128.22L26.26 129.55C26.2 129.31 26.14 129.07 26.11 128.82L26.28 130.31C26.25 130 26.24 129.69 26.25 129.38L26.15 130.88C26.17 130.63 26.21 130.39 26.27 130.15L25.93 131.5C26 131.26 26.08 131.04 26.17 130.82L25.62 131.97C25.75 131.72 25.89 131.49 26.06 131.27L25.33 132.17C25.59 131.87 25.87 131.61 26.19 131.38L25.32 131.97C25.95 131.56 26.55 131.13 27.17 130.71L26.33 131.28C26.87 130.94 27.49 130.71 28.12 130.56L27.3 130.75C27.45 130.72 27.6 130.7 27.75 130.69L26.25 130.11L26.34 130.18C27.44 131.01 28.68 130.83 29.55 129.76C30.6 128.46 30.72 126.69 30.48 125.09L30.5 125.1Z" fill="#1D1D1B"/>
<path d="M81.36 120.82C81.08 119.67 80.73 118.35 79.94 117.43C79.15 116.51 78.26 115.49 77.12 115.05C75.43 114.4 73.59 114.4 71.91 115.07C71.18 115.36 70.43 115.92 69.88 116.5C68.99 117.46 68.31 118.54 67.89 119.79C67.28 121.62 67.23 123.48 67.51 125.38C67.71 126.75 68.26 127.97 68.93 129.16C69.78 130.67 71.27 132.01 72.9 132.64C74.64 133.32 76.41 133.16 78.15 132.64C78.79 132.45 79.39 132.16 79.95 131.81C80.76 131.3 81.57 130.76 82.24 130.07C84.6 127.63 85.62 124.22 84.92 120.87C84.56 119.18 83.8 117.8 82.63 116.55C82.02 115.9 81.23 115.45 80.44 115.02C79.38 114.44 78.19 114 77 113.74C75.6 113.43 74.19 113.18 72.77 113.48C71.9 113.67 71.13 113.84 70.38 114.32C69.28 115.03 68.56 115.66 67.81 116.78C66.57 118.62 66.07 121.14 66.22 123.32C66.37 125.5 66.97 127.8 68.26 129.71C69.18 131.09 70.57 132.31 72.16 132.87C73.92 133.49 75.54 133.38 77.3 132.92C78.82 132.53 80.27 131.61 81.38 130.51C82.37 129.53 83.2 128.38 83.7 127.07C84.57 124.81 84.5 122.21 83.59 119.97C82.75 117.9 80.88 116.22 78.69 115.73C77.59 115.48 76.46 115.29 75.33 115.28C74.14 115.27 72.94 115.61 71.81 115.98C70.81 116.31 69.95 117.73 69.65 118.64C69.26 119.82 69.16 121.03 69.3 122.26C69.42 123.36 69.71 124.59 70.4 125.49C71 126.27 71.97 127.26 73.07 127.08C74.73 126.82 76.5 126.77 78.16 127.06L77.15 126.88C77.7 126.99 78.23 127.18 78.71 127.46L77.8 126.91C78.03 127.06 78.23 127.22 78.41 127.42L77.64 126.55C77.72 126.65 77.79 126.75 77.86 126.86L77.25 125.73C77.31 125.85 77.35 125.95 77.39 126.08L76.98 124.74C77 124.82 77.02 124.9 77.03 124.99L76.86 123.49C76.86 123.58 76.86 123.67 76.86 123.75L76.96 122.24C76.96 122.35 76.93 122.46 76.9 122.56L77.24 121.2C77.21 121.31 77.17 121.41 77.13 121.51L77.68 120.35C77.53 120.64 77.35 120.91 77.14 121.16L77.87 120.25C77.45 120.75 76.98 121.18 76.45 121.55L77.33 120.96C76.63 121.43 75.86 121.78 75.04 121.99L76.03 121.76C75.26 121.93 74.5 121.97 73.72 121.85L74.72 122.03C74.16 121.93 73.63 121.74 73.13 121.46L74.04 122.01C73.68 121.79 73.35 121.52 73.06 121.21L73.84 122.09C73.55 121.77 73.31 121.42 73.11 121.05L73.73 122.19C73.58 121.88 73.45 121.57 73.35 121.24L73.76 122.6C73.68 122.31 73.62 122.03 73.59 121.73L73.76 123.25C73.74 123 73.73 122.75 73.74 122.5L73.64 124.03C73.66 123.78 73.69 123.54 73.75 123.3L73.4 124.68C73.46 124.44 73.54 124.21 73.64 123.99L73.08 125.16C73.21 124.9 73.36 124.66 73.54 124.43L72.8 125.34C73.05 125.05 73.32 124.81 73.63 124.59L72.75 125.19C73.19 124.91 73.66 124.72 74.17 124.59L73.18 124.82C74.11 124.62 75.04 124.66 75.97 124.81L74.98 124.63C76.36 124.88 77.78 125.34 79 126.04L78.1 125.49C78.48 125.72 78.83 125.99 79.13 126.32L78.36 125.46C78.48 125.61 78.58 125.76 78.68 125.93L78.07 124.81C78.13 124.94 78.18 125.07 78.23 125.21L77.82 123.88C77.85 123.98 77.87 124.08 77.88 124.18L77.71 122.69C77.72 122.8 77.73 122.91 77.73 123.01L77.83 121.51C77.82 121.67 77.8 121.83 77.77 121.99L78.11 120.64C78.05 120.85 77.98 121.05 77.89 121.26L78.44 120.11C78.28 120.41 78.1 120.69 77.89 120.96L78.62 120.06C78.15 120.62 77.6 121.09 77 121.5L77.87 120.91C77.17 121.37 76.42 121.71 75.61 121.92L76.59 121.7C75.84 121.87 75.09 121.9 74.33 121.77L75.32 121.95C74.84 121.85 74.39 121.67 73.97 121.43L74.87 121.98C74.5 121.75 74.17 121.48 73.87 121.16L74.64 122.02C74.38 121.73 74.17 121.43 73.98 121.09L74.59 122.21C74.48 122 74.4 121.79 74.32 121.56L74.73 122.89C74.66 122.67 74.62 122.44 74.59 122.21L74.76 123.7C74.74 123.51 74.74 123.33 74.75 123.15L74.65 124.65C74.67 124.46 74.7 124.28 74.74 124.1L74.4 125.45C74.45 125.26 74.52 125.08 74.6 124.91L74.05 126.06C74.18 125.8 74.33 125.56 74.51 125.33L73.78 126.23C74.11 125.85 74.49 125.58 74.89 125.29L74.03 125.88C74.49 125.57 74.99 125.35 75.52 125.21L74.58 125.43C75.21 125.29 75.84 125.28 76.49 125.38L75.57 125.22C75.98 125.31 76.39 125.39 76.8 125.39C76.93 125.39 77.06 125.39 77.18 125.39C77.45 125.39 77.72 125.42 77.99 125.47L77.17 125.32C77.27 125.34 77.37 125.36 77.47 125.38C77.98 125.48 78.29 125.53 78.79 125.41C79.06 125.35 79.33 125.27 79.6 125.2L78.93 125.36C79.05 125.33 79.17 125.31 79.29 125.28C80.17 125.11 80.67 124.67 81.05 123.87C81.49 122.95 81.63 121.83 81.38 120.83L81.36 120.82Z" fill="#1D1D1B"/>
<path d="M111.48 134.89C109.24 133.68 106.52 132.66 104.02 133.77C102.34 134.52 101.25 136.11 100.6 137.77C99.69 140.1 99.73 142.81 100.63 145.13C101.78 148.09 104.58 149.77 107.67 149.86C109.91 149.93 112.15 148.99 113.82 147.53C115 146.49 115.98 145.02 116.49 143.53C117.4 140.88 117.26 137.87 115.92 135.4C115.12 133.91 113.94 132.72 112.36 132.06C111.19 131.57 109.81 131.49 108.58 131.73C105.97 132.24 103.11 133.12 101.65 135.54C99.88 138.47 100.2 142.31 101.89 145.18C102.54 146.29 103.56 147.22 104.63 147.92C105.31 148.36 106.03 148.82 106.79 149.13C107.55 149.44 108.39 149.59 109.2 149.69C110.79 149.88 112.28 149.27 113.51 148.32C114.74 147.37 115.62 145.89 116.05 144.46C116.92 141.57 116.68 138.45 115.04 135.88C114.5 135.03 113.44 134.27 112.39 134.3C111.34 134.33 110.33 135.14 109.82 136.01C108.42 138.41 108.52 141.64 110.02 143.96C110.06 144.02 110.1 144.09 110.14 144.16L109.53 143.04C109.58 143.14 109.62 143.24 109.66 143.35L109.25 142.02C109.29 142.16 109.32 142.31 109.34 142.45L109.17 140.96C109.17 141.07 109.18 141.18 109.17 141.29L109.27 139.79C109.26 139.94 109.24 140.09 109.21 140.24L109.55 138.89C109.5 139.08 109.44 139.26 109.36 139.43L109.91 138.28C109.79 138.53 109.65 138.76 109.47 138.98L110.2 138.08C109.99 138.33 109.76 138.54 109.5 138.73L110.37 138.14C110.07 138.34 109.75 138.49 109.4 138.58L110.38 138.36C109.82 138.48 109.27 138.49 108.7 138.41L109.69 138.59C108.85 138.44 108.09 138.1 107.36 137.66L108.26 138.21C107.65 137.83 107.06 137.4 106.58 136.86L107.35 137.72C107.19 137.53 107.05 137.33 106.92 137.11L107.53 138.23C107.47 138.1 107.41 137.97 107.36 137.84L107.77 139.17C107.74 139.08 107.72 138.99 107.71 138.9L107.88 140.39C107.87 140.3 107.86 140.2 107.86 140.11L107.76 141.61C107.76 141.47 107.79 141.34 107.82 141.2L107.48 142.55C107.5 142.47 107.53 142.39 107.57 142.32L107.02 143.47C107.09 143.32 107.18 143.19 107.28 143.06L106.55 143.96C106.72 143.77 106.9 143.61 107.11 143.47L106.24 144.06C107.25 143.42 108.51 143.05 109.66 142.78L108.68 143C109.4 142.84 110.13 142.78 110.87 142.89L109.88 142.71C110.33 142.8 110.75 142.96 111.15 143.19L110.25 142.64C110.52 142.81 110.76 143 110.98 143.23L110.21 142.37C110.36 142.54 110.48 142.71 110.59 142.9L109.98 141.78C110.06 141.94 110.12 142.09 110.17 142.26L109.76 140.93C109.79 141.06 109.81 141.18 109.83 141.32L109.66 139.83C109.66 139.93 109.67 140.02 109.66 140.12L109.76 138.62C109.75 138.77 109.73 138.92 109.7 139.07L110.04 137.72C109.99 137.92 109.92 138.11 109.84 138.3L110.39 137.15C110.22 137.51 110 137.84 109.75 138.15L110.48 137.25C110.14 137.66 109.75 138.01 109.32 138.31L110.19 137.72C109.53 138.17 108.81 138.48 108.03 138.67L109.01 138.45C108.19 138.63 107.36 138.67 106.53 138.53L107.52 138.71C106.9 138.59 106.31 138.39 105.75 138.07L106.65 138.62C106.36 138.44 106.11 138.24 105.88 137.99L106.65 138.85C106.56 138.74 106.48 138.63 106.4 138.5L107.01 139.62C106.93 139.47 106.87 139.33 106.82 139.17L107.23 140.5C107.2 140.38 107.18 140.27 107.16 140.15L107.33 141.64C107.33 141.52 107.32 141.41 107.33 141.29L107.23 142.79C107.24 142.63 107.27 142.48 107.31 142.32L106.97 143.67C107.02 143.51 107.07 143.36 107.13 143.21L106.58 144.36C106.71 144.09 106.86 143.85 107.05 143.62L106.32 144.52C106.67 144.11 107 143.72 107.45 143.41L106.61 143.98C107.02 143.72 107.46 143.55 107.92 143.43L107.02 143.64C108.31 143.34 109.61 143.49 110.89 143.71C111.66 143.84 112.61 142.91 112.94 142.34C113.41 141.54 113.63 140.66 113.69 139.74C113.81 137.84 113.22 135.82 111.46 134.86L111.48 134.89Z" fill="#1D1D1B"/>
<path d="M146.33 98.4898C144.31 95.7598 141.24 93.2198 137.63 94.4898C136.94 94.7298 136.25 95.2598 135.74 95.7898C135 96.5698 134.47 97.3698 134.02 98.3198C132.95 100.57 132.66 103.14 133.14 105.59C133.79 108.98 136.18 112.31 139.61 113.29C142.61 114.14 145.96 113.52 148.58 111.85C150.09 110.89 151.47 109.72 152.31 108.1C153.74 105.32 154.09 101.97 152.85 99.0298C152.01 97.0398 150.67 95.7398 148.83 94.7098C147.76 94.1098 146.55 93.7198 145.37 93.3798C142.5 92.5498 139 92.1198 136.35 93.8498C134.99 94.7398 133.83 95.8098 133.04 97.2598C131.98 99.1998 131.38 101.42 131.52 103.64C131.69 106.23 132.57 108.88 134.59 110.61C135.88 111.71 137.63 112.32 139.33 112.27C141.16 112.22 142.78 111.41 144.17 110.28C145.76 108.99 146.71 107.21 147.57 105.41L147.91 104.06C148.05 103.31 148.05 102.56 147.92 101.82C147.8 100.73 147.51 99.4998 146.83 98.6198C146.38 98.0398 145.85 97.5198 145.17 97.2098C144.12 96.7398 143.17 97.2598 142.34 97.8498L142.16 97.9698L143.03 97.3798C142.66 97.6098 142.28 97.7698 141.85 97.8798L142.83 97.6598C142.32 97.7598 141.85 97.7698 141.34 97.6998L142.33 97.8798C141.8 97.7698 141.27 97.6498 140.73 97.5698L141.71 97.7498C141.57 97.7298 141.44 97.6898 141.31 97.6498C139.05 97.0098 137.62 98.9698 137.12 100.94C136.83 102.08 136.75 103.37 137.03 104.53C137.31 105.69 137.77 107.07 138.77 107.78C139.92 108.59 141.15 109.11 142.59 108.99C144.03 108.87 145.12 108.32 146.32 107.47L141.08 99.8998L140.99 100.09L141.54 98.9398C141.25 99.5098 140.92 100.04 140.53 100.54L141.26 99.6398C140.86 100.13 140.41 100.55 139.9 100.93L140.77 100.34C140.21 100.72 139.61 101.01 138.95 101.16L139.93 100.94C139.3 101.06 138.69 101.07 138.06 100.96L139.05 101.14C138.56 101.03 138.11 100.86 137.67 100.61L138.57 101.16C138.31 100.99 138.08 100.8 137.86 100.58L138.63 101.44C138.42 101.21 138.25 100.97 138.1 100.69L138.71 101.81C138.66 101.71 138.61 101.6 138.57 101.49C138.86 102.55 138.95 102.83 138.83 102.33C138.74 101.78 138.77 102.11 138.94 103.31C138.94 102.75 138.91 103.08 138.86 104.29C139.07 103.18 138.41 105.56 138.7 104.78C138.78 104.55 138.87 104.33 138.97 104.11L138.42 105.26C138.62 104.87 138.85 104.52 139.12 104.18L138.39 105.08C138.72 104.7 139.08 104.37 139.49 104.07L138.62 104.66C139.2 104.27 139.81 104.03 140.48 103.86L139.5 104.08C140.65 103.84 141.8 103.87 142.96 104.05L141.97 103.87C143.82 104.2 145.8 104.79 147.42 105.76L146.52 105.21C146.9 105.46 147.23 105.72 147.54 106.06L146.77 105.2C146.89 105.35 146.99 105.49 147.09 105.65L146.48 104.53C146.51 104.6 146.58 104.83 146.64 104.87L146.35 103.92C146.26 102.8 146.23 102.47 146.24 102.93C146.24 103.21 146.26 103.06 146.27 102.48C146.25 102.12 146.3 101.78 146.42 101.45C146.67 100.46 146.49 101.13 146.4 101.35L146.95 100.2C146.8 100.52 146.62 100.81 146.4 101.09L147.13 100.19C146.71 100.71 146.22 101.15 145.68 101.53L146.55 100.94C145.49 101.65 144.3 102.15 143.07 102.46L144.05 102.24C143.01 102.47 141.97 102.54 140.92 102.37L141.91 102.55C141.19 102.41 140.52 102.15 139.88 101.78L140.78 102.33C140.33 102.05 139.93 101.72 139.56 101.34L140.33 102.2C140.07 101.91 139.85 101.6 139.65 101.26L140.26 102.38C140.14 102.15 140.06 101.91 139.95 101.67C140.23 102.69 140.32 102.95 140.21 102.45C140.32 103.64 140.35 103.95 140.33 103.39C140.31 102.51 140.18 105.17 140.33 103.97C140.04 105.02 139.98 105.29 140.15 104.79C140.19 104.67 140.24 104.56 140.29 104.45L139.74 105.6C139.88 105.32 140.04 105.07 140.22 104.82L139.49 105.72C139.72 105.44 139.98 105.19 140.28 104.98L139.41 105.57C139.85 105.28 140.3 104.99 140.73 104.69L139.87 105.28C140.14 105.13 140.42 105.01 140.72 104.93L139.77 105.15C140.28 105.05 140.75 105.04 141.26 105.13L140.33 104.96C140.9 105.09 141.41 105.31 141.92 105.6L141.11 105.1C141.67 105.45 142.18 105.85 142.67 106.3C143.28 106.86 144.38 107.12 145.15 106.73C145.92 106.34 146.41 105.7 146.77 104.94C147.68 103.04 147.66 100.28 146.36 98.5398L146.33 98.4898Z" fill="#1D1D1B"/>
<path d="M159.8 141.32C159.28 140.76 158.71 140.24 158.07 139.82C157.28 139.29 156.41 138.73 155.47 138.51C154.95 138.39 154.38 138.26 153.83 138.28C153.25 138.3 152.6 138.44 152.08 138.69C150.63 139.38 149.71 140.66 149.12 142.11C148.43 143.81 148.43 145.73 148.75 147.51C148.98 148.81 149.56 150.2 150.33 151.27C151.65 153.12 153.69 154.36 156.02 154.19C158.21 154.03 160.21 152.92 161.82 151.47C165.15 148.47 165.93 143.18 163.51 139.37C162.81 138.26 161.75 137.44 160.55 136.92C159.87 136.63 159.13 136.49 158.4 136.36C157.67 136.23 157 136.07 156.29 136.04C155.58 136.01 154.86 136.17 154.15 136.37C153 136.69 152.03 137.5 151.29 138.41C149.6 140.5 149.09 143.32 149.59 145.94C149.95 147.84 150.94 149.66 152.62 150.68C153.03 150.93 153.36 151.14 153.82 151.24C154.83 151.45 155.46 151.52 156.45 151.15C158.63 150.33 159.46 147.59 159.39 145.47C159.37 144.93 159.34 144.4 159.22 143.85C159.07 143.13 158.74 142.14 158.27 141.54L157.55 140.74C157.26 140.56 156.97 140.38 156.68 140.21L157.53 140.73C157.53 140.73 157.47 140.69 157.44 140.67C157.04 140.28 156.58 140.07 156.05 140.04C155.56 139.88 155.07 139.93 154.58 140.18C154.44 140.27 154.3 140.34 154.14 140.39L155.12 140.17C154.92 140.21 154.73 140.22 154.53 140.19L155.52 140.37C155.25 140.32 155 140.22 154.77 140.08L155.67 140.63C155.52 140.53 155.38 140.41 155.25 140.28L156.02 141.14C155.94 141.05 155.87 140.95 155.81 140.85L156.42 141.97C156.36 141.86 156.32 141.76 156.28 141.64L156.69 142.97C156.67 142.91 156.66 142.85 156.65 142.79L156.82 144.28C156.81 144.17 156.81 144.06 156.81 143.95L156.71 145.45C156.72 145.33 156.74 145.22 156.76 145.11L156.42 146.46C156.46 146.31 156.51 146.17 156.58 146.03L156.03 147.18C156.12 147.01 156.23 146.85 156.35 146.69L155.62 147.59C155.81 147.38 156.01 147.19 156.25 147.03L155.38 147.62C155.73 147.4 156.09 147.24 156.5 147.14L155.52 147.36C156.24 147.22 156.97 147.3 157.69 147.43L156.7 147.25C157.59 147.42 158.5 147.59 159.3 148.04L158.4 147.49C158.62 147.62 158.81 147.77 158.99 147.96L158.22 147.1C158.31 147.21 158.39 147.32 158.47 147.44L157.86 146.32C157.93 146.45 157.98 146.58 158.02 146.72L157.61 145.39C157.63 145.48 157.65 145.57 157.66 145.66L157.49 144.17C157.49 144.26 157.5 144.35 157.49 144.44L157.59 142.94C157.58 143.08 157.56 143.2 157.53 143.33L157.87 141.98C157.82 142.16 157.76 142.32 157.68 142.49L158.23 141.34C158.08 141.64 157.9 141.91 157.69 142.18L158.41 141.29C157.9 141.91 157.29 142.45 156.63 142.91L157.49 142.33C156.79 142.8 156.04 143.17 155.22 143.37L156.17 143.15C155.59 143.27 155.01 143.29 154.43 143.19L155.39 143.36C155.05 143.29 154.74 143.17 154.43 142.99L155.3 143.52C155.02 143.34 154.76 143.13 154.54 142.88L155.28 143.71C155.1 143.51 154.95 143.29 154.82 143.06L155.4 144.14C155.29 143.94 155.2 143.73 155.13 143.51L155.52 144.79C155.47 144.6 155.43 144.42 155.4 144.23L155.56 145.65C155.55 145.49 155.54 145.34 155.56 145.18L155.47 146.61C155.49 146.42 155.5 146.24 155.55 146.06L155.23 147.33C155.26 147.21 155.31 147.09 155.35 146.97L154.84 148.05C154.93 147.87 155.03 147.7 155.16 147.54L154.49 148.37C154.65 148.19 154.82 148.03 155.01 147.89L154.22 148.42C154.47 148.26 154.73 148.14 155.02 148.06L154.15 148.26C154.64 148.15 155.12 148.15 155.62 148.23L154.78 148.08C155.67 148.24 156.5 148.6 157.26 149.07L156.55 148.64C156.72 148.74 156.88 148.85 157.05 148.97C157.73 149.45 158.46 149.71 159.27 149.36C160.08 149.01 160.68 148.09 160.94 147.31C161.29 146.24 161.41 145.03 161.15 143.93L160.83 142.89C160.59 142.29 160.24 141.78 159.76 141.35L159.8 141.32Z" fill="#1D1D1B"/>
</g>
<defs>
<clipPath id="clip0_3416_11766">
<rect width="180.44" height="244.89" fill="white"/>
</clipPath>
</defs>
</svg>
