<svg width="216" height="265" viewBox="0 0 216 265" fill="none" xmlns="http://www.w3.org/2000/svg">
<g clip-path="url(#clip0_3416_11867)">
<path d="M76.0201 89.7601C71.2601 82.7201 66.7901 75.4501 62.6101 68.0501C59.2801 62.1701 56.1101 56.1701 53.4801 49.9401C52.2801 47.0901 51.5301 45.1401 50.8101 42.3901C50.6601 41.8101 50.5201 41.2201 50.3901 40.6301C50.2301 39.9301 50.4601 41.1801 50.3301 40.3201C50.2601 39.8901 50.2001 39.4601 50.1501 39.0401C49.8001 36.3801 49.5101 33.7201 49.3001 31.0501C49.1301 28.8901 49.0401 26.7301 49.0401 24.5401C49.0401 23.5601 49.0501 22.5801 49.0901 21.6001C49.1301 20.6201 49.1501 20.2801 49.2701 19.0901C49.3601 18.2401 49.4701 17.3901 49.6101 16.5401C49.6901 16.0601 49.5301 16.9401 49.6201 16.4801C49.6601 16.3001 49.6901 16.1301 49.7301 15.9501C49.8201 15.5301 49.9301 15.1101 50.0401 14.7001C50.2901 13.8301 50.6401 12.9001 51.1701 12.1501C51.3201 11.9401 51.4901 11.7301 51.6601 11.5301C51.7001 11.4901 51.9101 11.2801 51.6701 11.5001C51.7801 11.3901 51.9101 11.2901 52.0301 11.2001C52.8201 10.5701 53.6301 9.98013 54.4801 9.45013C56.1901 8.38013 58.0501 7.43013 60.0101 6.90013C61.7001 6.44013 63.7001 6.17013 65.3901 6.79013C66.8401 7.32013 67.9401 8.58013 69.0101 9.64013C71.8401 12.4401 74.4801 15.4601 76.6701 18.7801C78.8601 22.1001 80.1501 25.4801 80.9501 29.3201C82.5001 36.7101 84.0501 43.9501 85.2201 51.2801C85.5201 53.1601 85.8001 55.0401 86.0201 56.9301C86.1201 57.7601 86.2101 58.5801 86.2801 59.4101C86.3101 59.7701 86.3401 60.1401 86.3701 60.5001C86.3801 60.6701 86.3901 60.8501 86.4101 61.0201C86.3801 60.6001 86.3901 60.6801 86.4101 61.0501C86.4601 62.4001 86.4201 63.7301 86.3501 65.0701C86.3101 65.7901 86.2701 66.5001 86.2301 67.2201C86.2701 66.5501 86.2101 67.6101 86.1901 67.8201C86.1601 68.3201 86.1301 68.8301 86.0901 69.3301C85.6801 75.5501 85.1901 81.7501 84.6701 87.9601C84.6401 88.3601 84.6001 88.7501 84.5701 89.1501C84.4801 90.2001 84.3801 92.5201 85.5501 93.0901C86.7201 93.6601 87.2201 91.5801 87.2801 90.8501C87.7301 85.6601 88.1401 80.4801 88.5101 75.2801C88.7801 71.5901 89.0301 67.9001 89.1901 64.2001C89.3401 60.8901 89.0301 57.5701 88.6001 54.2901C87.5401 46.0101 85.8201 37.8101 84.1101 29.6501C83.3101 25.8201 82.6301 21.9801 80.9801 18.4001C79.0801 14.2901 76.3801 10.5701 73.3601 7.20013C72.1301 5.83013 70.8401 4.51013 69.5101 3.23013C68.1801 1.95013 67.0001 0.790132 65.1601 0.300132C61.1901 -0.749868 56.6701 1.34013 53.4101 3.45013C52.1001 4.30013 50.7101 5.26013 49.7701 6.53013C48.8301 7.80013 48.2901 9.20013 47.8201 10.6401C46.5901 14.4301 46.3101 18.5301 46.2101 22.4801C46.0901 27.6301 46.4601 32.8001 47.0501 37.9101C47.4401 41.3301 47.9701 44.6601 49.0301 47.9301C51.1401 54.4901 54.1801 60.7201 57.4101 66.7901C62.5201 76.4001 68.1901 85.7401 74.2401 94.7901C74.3501 94.9601 74.4601 95.1201 74.5701 95.2901C75.3901 96.5001 76.3001 94.9001 76.5001 94.1401C76.8601 92.7701 76.8101 90.9701 75.9901 89.7601H76.0201Z" fill="black"/>
<path d="M77.6299 77.9599C77.6299 77.9599 61.2499 48.1899 59.6599 36.4799C58.0799 24.7599 60.2899 20.0099 63.7799 20.6499C67.2599 21.2799 72.3299 26.0299 73.5999 34.2699C74.8699 42.4999 77.6299 77.9699 77.6299 77.9699V77.9599Z" fill="black"/>
<path d="M100.72 88.72V48.62C100.72 47.76 100.81 46.84 100.72 45.98C100.81 46.84 100.62 47.07 100.7 46.58C100.75 46.22 100.79 45.87 100.83 45.51C100.98 44.32 101.14 43.14 101.31 41.95C101.81 38.48 102.2 35.96 102.93 32.86C103.09 32.15 103.27 31.45 103.47 30.76C103.51 30.61 103.79 29.77 103.68 30.08C103.58 30.36 103.87 29.59 103.93 29.46C104 29.31 104.35 28.63 104.01 29.22C104.2 28.89 104.43 28.57 104.65 28.25C105.21 27.46 105.82 26.68 106.56 26.07C109.06 24 112.36 23.55 115.5 23.81C119.1 24.11 122.68 24.91 126.14 25.91C129.9 26.99 133.72 28.4 137.02 30.55C140.86 33.06 144.56 36.21 147.85 39.4C149.39 40.89 150.87 42.48 152.05 44.27C152.25 44.57 152.43 44.87 152.6 45.19C152.68 45.35 153.05 46.26 152.94 45.91C152.99 46.07 153.03 46.23 153.07 46.39C152.94 45.89 153.07 46.39 153.09 46.49C153.18 47.03 153.26 47.58 153.32 48.13C153.45 49.32 153.46 49.43 153.44 50.64C153.44 50.86 153.44 51.08 153.42 51.3C153.46 50.76 153.4 51.44 153.38 51.57C153.35 51.78 153.33 51.98 153.3 52.19C153.27 52.4 153.27 52.39 153.3 52.17C153.27 52.31 153.23 52.46 153.19 52.6C153.06 53.03 152.97 53.43 152.49 53.96C152.04 54.45 151.46 54.72 150.82 54.86C147.61 55.56 143.96 55.18 140.75 54.75C137.17 54.27 133.38 53.48 130.4 51.33C125.14 47.55 120.38 42.96 115.65 38.56C115.27 38.2 114.89 37.85 114.51 37.49C113.52 36.56 112.83 39.26 112.78 39.73C112.61 41.06 112.74 42.7 113.76 43.67C118.06 47.72 122.44 51.73 127.03 55.47C128.23 56.45 129.44 57.48 130.79 58.25C132.46 59.21 134.34 59.8 136.2 60.28C140.06 61.28 144.16 61.7 148.14 61.54C149.56 61.48 151.22 61.42 152.5 60.73C154.23 59.79 155.1 57.77 155.61 55.97C156.25 53.72 156.36 51.28 156.25 48.95C156.14 46.62 155.92 43.94 155.05 41.64C153.43 37.36 149.63 33.99 146.27 31.05C142.91 28.11 139.27 24.92 135.21 22.87C131.44 20.97 127.34 19.68 123.25 18.7C120.02 17.92 116.57 17.17 113.23 17.29C109.19 17.44 105.69 19.28 103.34 22.55C101.49 25.13 100.77 28.22 100.14 31.28C99.42 34.76 98.86 38.28 98.39 41.8C98.2 43.22 97.95 44.66 97.92 46.09C97.86 49.72 97.92 53.35 97.92 56.98V88.68C97.92 89.54 98.09 91.84 99.33 91.88C100.57 91.92 100.74 89.38 100.74 88.68L100.72 88.72Z" fill="black"/>
<path d="M113.54 41.2202C113.54 41.2202 109.88 44.3902 109.25 55.1502C108.62 65.9202 109.25 75.1002 109.25 75.1002C109.25 75.1002 117.48 58.9502 118.43 54.5202C119.38 50.0902 121.28 46.4202 121.28 46.4202L113.54 41.2202Z" fill="black"/>
<path d="M125.73 53.7702C125.66 54.1902 125.93 52.7702 125.76 53.6002C125.65 54.1302 125.54 54.6702 125.42 55.2002C125 57.0102 124.52 58.8002 123.98 60.5802C123.22 63.0802 122.43 65.3002 121.35 67.8902C120.16 70.7702 118.81 73.6002 117.25 76.2902C115.25 79.7402 112.92 83.0002 110.25 85.9602C109.32 86.9902 109.41 89.1002 109.74 90.3402C109.99 91.2702 110.72 92.5402 111.67 91.4902C119.82 82.4602 124.95 70.6502 127.74 58.8902C128.01 57.7602 128.25 56.6202 128.45 55.4702C128.62 54.4602 128.58 52.0702 127.47 51.5302C126.26 50.9402 125.86 53.0602 125.74 53.7702H125.73Z" fill="black"/>
<path d="M69.4799 237.28C71.2399 236.75 72.9299 235.93 74.4199 234.84C77.5299 232.54 78.7999 229.41 79.6899 225.75C80.1599 223.81 80.5299 221.86 80.9399 219.91C81.1099 219.12 81.2699 218.32 81.4799 217.54C81.5699 217.2 81.6599 216.85 81.7799 216.51C81.6199 216.97 81.8699 216.32 81.9599 216.17C81.6999 216.65 82.2799 215.8 82.3999 215.64C82.7299 215.19 83.0399 214.72 83.3599 214.26C84.1399 213.12 84.8999 211.96 85.6499 210.8C86.7099 209.19 88.1799 207.46 88.7799 205.6C89.6099 202.99 90.0699 200.09 89.6799 197.36C89.5399 196.42 89.2999 195.48 88.8099 194.65C88.3599 193.89 87.6599 193.37 86.9899 192.81C85.6699 191.69 83.9999 190.27 82.1499 190.31C81.4799 190.33 80.2899 190.66 79.7899 191.11C79.7099 191.19 79.5899 191.11 79.5799 191.16C79.5799 191.14 80.0099 191.73 80.0199 191.75C80.5199 192.7 80.3499 193.46 80.3199 194.38C80.3399 193.94 80.3699 193.53 80.3499 193.09C80.2899 191.93 79.9199 190.77 79.5299 189.68C79.0199 188.26 78.2899 186.75 77.0399 185.84C76.4199 185.39 75.7499 185.32 75.0099 185.25C74.1499 185.17 73.4399 184.77 72.6399 184.47C70.5499 183.69 69.4899 184.84 68.2499 186.43C67.3299 187.6 66.3799 188.76 65.3299 189.82L66.4199 189.5C64.7499 188.46 62.4099 187.71 60.5199 188.56C59.6899 188.93 58.8399 189.53 58.0599 190.01C57.0999 190.6 56.5199 191.44 56.1199 192.48C54.2099 197.45 55.7599 203.31 57.1799 208.21C57.2599 208.5 57.3399 208.8 57.4399 209.09C57.6399 209.67 57.2899 209.29 57.3999 208.65C57.3299 209.06 57.5299 209.66 57.5799 210.07C57.8399 212.1 58.0899 214.13 58.3099 216.16C58.4099 217.06 58.4999 217.96 58.5799 218.87C58.5999 219.06 58.6399 219.27 58.6199 219.46C58.6999 218.52 58.5999 219 58.5999 219.26C58.5999 219.7 58.5999 220.13 58.6199 220.57C58.7099 223.27 58.9099 226.05 59.6099 228.66C59.9499 229.92 60.3999 231.27 61.3199 232.22C62.1099 233.03 63.0899 233.66 64.0399 234.26C65.6899 235.3 67.3999 236.27 69.1299 237.18C70.9599 238.15 71.6299 231.92 69.8799 231C68.6699 230.36 67.4799 229.69 66.2999 229C65.3999 228.47 64.4999 227.92 63.6399 227.32C63.3199 227.1 62.9899 226.87 62.6999 226.62C62.2199 226.2 62.9099 226.86 62.4999 226.44C62.4399 226.38 62.1399 225.91 62.3499 226.24C62.0399 225.75 61.8699 224.77 61.7799 224.13C61.6999 223.61 61.6399 223.09 61.5799 222.57C61.5499 222.31 61.5299 222.06 61.5099 221.8C61.4999 221.65 61.4399 220.6 61.4699 221.35C61.3899 219.65 61.3699 217.96 61.2099 216.27C60.9199 213.17 60.5899 210.04 60.1099 206.96C59.9099 205.68 59.4299 204.43 59.1099 203.18C58.8599 202.23 58.6399 201.27 58.4399 200.31C58.2399 199.35 58.5199 200.85 58.3499 199.86C58.3199 199.66 58.2799 199.46 58.2499 199.26C58.2099 198.97 58.1699 198.67 58.1299 198.37C58.1099 198.18 58.0899 197.99 58.0699 197.8C58.0799 198.15 58.0899 198.2 58.0699 197.97C58.0699 197.76 58.0699 197.54 58.0699 197.33C58.0999 198.17 58.0399 197.44 58.0799 197.27C58.1299 197.07 58.1899 196.85 58.2299 196.65C58.1999 196.81 58.2099 196.67 58.2999 196.57C58.5299 196.31 59.5999 195.79 60.1899 195.41C61.3199 194.69 62.2299 194.44 63.5799 194.79C64.2999 194.98 65.0199 195.31 65.6499 195.7C66.0899 195.98 66.4399 195.68 66.7399 195.38C67.7899 194.32 68.7499 193.17 69.6599 191.99C70.1699 191.34 70.6199 190.43 71.5699 190.59C72.2999 190.72 72.9799 191.16 73.6899 191.39C74.3999 191.62 75.2399 191.53 75.9099 191.81C76.3899 192.01 76.8399 192.66 76.9399 192.85C77.1099 193.16 77.2399 193.49 77.3699 193.82C77.5699 194.29 77.3099 193.6 77.3999 193.88C77.4399 194 77.4799 194.12 77.5099 194.24C77.5899 194.54 77.6799 194.85 77.7399 195.15L77.5999 192.68C77.4099 194.06 77.5099 197.38 79.4499 197.55C80.4399 197.64 81.1899 196.76 82.1499 196.73C83.2399 196.7 84.2299 197.42 85.0599 198.05C85.5099 198.39 85.9499 198.76 86.3799 199.12C86.5599 199.27 86.7399 199.45 86.9299 199.59C87.2199 199.8 87.2899 199.87 87.1599 199.8C87.1199 199.79 87.0999 199.76 87.0899 199.71C87.0099 199.69 87.2099 199.96 87.0499 199.62C86.9499 199.41 86.8899 199.26 87.0199 199.57C86.9999 199.19 86.9899 199.12 86.9899 199.36C86.9899 199.54 86.9899 199.54 86.9999 199.33C87.0999 198.89 86.9699 199.61 86.9599 199.71C86.9399 199.89 86.9099 200.06 86.8899 200.24C86.7899 201.06 86.9699 199.91 86.8699 200.35C86.7999 200.68 86.7299 201.01 86.6399 201.33C86.5499 201.68 86.4499 202.04 86.3399 202.39L86.8499 201.24C84.7799 204.47 82.6299 207.63 80.4699 210.8C78.7899 213.28 78.5099 216.77 77.9199 219.63C77.3299 222.49 76.9199 225.84 74.5799 227.97C73.5399 228.91 72.2999 229.66 71.0399 230.25C70.6199 230.45 70.1999 230.63 69.7699 230.79C69.5299 230.88 68.9199 231.07 69.5199 230.89C67.3999 231.52 67.9899 237.76 69.5199 237.3L69.4799 237.28Z" fill="black"/>
<path d="M40.78 112.01C38.3 106.12 32.48 102.83 26.64 100.98C23.57 100.01 20.27 98.98 17.05 98.68C13.41 98.34 9.82003 100.1 6.90003 102.13C5.65003 103 5.64003 105.39 6.04003 106.64C6.40003 107.75 7.46003 109.35 8.88003 108.65C11.75 107.24 14.1 105.53 17.46 105.88C20.24 106.17 23.08 107.09 25.74 107.9C28.23 108.66 30.69 109.49 32.98 110.73C35.27 111.97 37.14 113.14 39.11 114.68C40.65 115.88 41.17 112.96 40.77 112.01H40.78Z" fill="black"/>
<path d="M1.84995 124.94C7.45995 122.78 13.46 121.86 19.45 121.79C21.93 121.76 24.45 121.86 26.84 122.58C27.89 122.89 29.09 123.35 29.94 123.9C31.1 124.65 31.59 125.8 32.9 126.27C35.47 127.19 36.4599 123.12 35.9399 121.38C35.3799 119.48 34.35 118.11 32.72 117C31.54 116.2 30.27 115.54 28.9 115.13C26.07 114.29 23.09 114.14 20.16 114.3C13.29 114.66 6.74995 116.99 0.93995 120.61C-0.54005 121.53 -0.34005 125.79 1.83995 124.95L1.84995 124.94Z" fill="black"/>
<path d="M8.06987 143.21C10.4599 138.74 15.6799 136.92 20.2099 135.4C23.0799 134.44 25.8199 133.6 28.8899 133.67C30.0899 133.7 31.2199 133.89 32.3399 134.33C32.8699 134.54 33.4399 134.8 33.8699 135.1C34.8699 135.79 35.4599 136.16 36.6999 135.75C38.3799 135.18 38.6999 132.32 38.3599 130.93C38.0199 129.54 37.5299 128.46 36.3199 127.66C35.5699 127.17 34.7899 126.72 33.9599 126.39C32.4899 125.81 30.8499 125.53 29.2799 125.48C25.7499 125.36 22.0999 126.71 18.9799 128.24C13.4899 130.93 7.69987 134.28 5.49987 140.32C5.13987 141.3 5.24987 142.67 5.98987 143.46C6.61987 144.13 7.60987 144.1 8.08987 143.22L8.06987 143.21Z" fill="black"/>
<path d="M155.58 115.49C157.36 114.21 159.58 113.37 161.57 112.47C163.95 111.4 166.28 110.21 168.68 109.2C171.08 108.19 173.29 107.94 175.8 107.96C176.97 107.96 178.13 108.02 179.29 108.15C180.52 108.29 181.8 109.02 183.02 108.92C184.49 108.79 185.34 107.21 185.5 105.89C185.72 104.19 185.32 102.63 184.17 101.36C183.16 100.24 181.38 100.03 179.94 99.9002C178.5 99.7702 177.18 99.9702 175.82 100.13C172.9 100.49 170.13 100.83 167.45 102.14C164.93 103.37 162.48 104.79 160.04 106.17C157.45 107.63 155.26 109.13 153.45 111.52C152.38 112.93 153.41 117.06 155.59 115.49H155.58Z" fill="black"/>
<path d="M157.64 123.89C158.73 123.15 160.13 122.72 161.34 122.19C162.64 121.62 164 121.14 165.39 120.81C168.13 120.17 170.93 119.94 173.73 120.13C176.53 120.32 179.09 120.94 181.64 122.02C182.85 122.54 184.04 123.14 185.15 123.85C185.73 124.22 186.29 124.63 186.84 125.05C187.17 125.3 187.47 125.59 187.8 125.84C189.19 126.89 187.12 122.46 187.1 123.68L187.43 121.51L187.36 121.73C186.7 123.7 187.01 126.66 189.11 127.68C189.7 127.97 190.29 127.94 190.88 127.67C192.46 126.94 192.86 124.9 192.9 123.36C193.02 118.93 188.51 116.26 185.02 114.54C181.9 113 178.44 112.12 174.97 111.87C171.5 111.62 167.89 112.24 164.72 113.53C163.15 114.17 161.65 114.95 160.23 115.87C158.57 116.94 157.29 118.27 155.88 119.62C154.47 120.97 155.32 125.46 157.64 123.88V123.89Z" fill="black"/>
<path d="M155.1 132.64C156.5 133.19 158.13 133.11 159.62 133.19C161.11 133.27 162.63 133.41 164.13 133.6C166.95 133.95 169.76 134.61 172.4 135.69C174.68 136.63 176.45 137.68 178.34 139.29C178.82 139.7 179.29 140.13 179.74 140.58C179.96 140.8 180.19 141.03 180.4 141.26C180.1 140.93 180.61 141.52 180.66 141.57C181.06 142.06 181.44 142.56 181.79 143.09C181.97 143.35 182.14 143.62 182.31 143.88C182.39 144 182.92 144.94 182.57 144.3C183.39 145.84 185 147.32 186.65 145.82C188.13 144.48 188.49 141.37 187.56 139.63C184.59 134.09 180.08 129.77 174.27 127.26C171.21 125.94 167.93 125.27 164.6 125.17C161.27 125.07 157.05 125.54 154.55 127.67C153.27 128.76 153.4 131.97 155.1 132.64Z" fill="black"/>
<path d="M70.7699 207.32C68.8499 207.98 67.6199 209.86 66.8199 211.73C65.1799 215.57 64.7199 219.9 65.5399 224C65.6999 224.83 65.9299 225.66 66.4199 226.35C66.9099 227.04 67.7199 227.55 68.5599 227.48C68.9099 227.45 69.2499 227.33 69.5599 227.18C70.9699 226.51 72.0899 225.24 72.5799 223.76C72.8699 222.87 72.9499 221.93 73.0199 220.99C73.2999 217.35 73.5799 213.69 73.2899 210.05C73.2599 209.63 73.2099 209.19 72.9799 208.84C72.6899 208.41 72.1799 208.18 71.6899 208.02C70.9499 207.77 70.1799 207.6 69.3999 207.51" fill="black"/>
<path d="M70.64 206.71C70.32 206.82 69.98 206.91 69.67 207.05C69.33 207.2 69.04 207.41 68.75 207.65C68.17 208.13 67.69 208.72 67.29 209.36C66.43 210.71 65.83 212.24 65.39 213.77C64.41 217.17 64.24 220.8 64.93 224.27C65.25 225.88 65.94 227.84 67.69 228.35C68.52 228.6 69.32 228.37 70.05 227.97C70.72 227.6 71.33 227.12 71.83 226.54C72.36 225.92 72.78 225.23 73.07 224.47C73.39 223.62 73.52 222.71 73.6 221.81C73.77 219.9 73.9 217.98 73.99 216.06C74.08 214.14 74.09 212.35 73.97 210.49C73.9 209.49 73.83 208.4 73.03 207.69C72.42 207.15 71.52 206.93 70.75 206.75C70.3 206.65 69.83 206.59 69.37 206.56C68.91 206.53 68.74 207.21 68.76 207.54C68.78 207.97 68.95 208.41 69.41 208.49C70.17 208.61 70.95 208.79 71.67 209.06C71.82 209.11 71.97 209.17 72.11 209.24C72.25 209.31 72.31 209.35 72.46 209.49C72.37 209.41 72.49 209.54 72.52 209.57C72.52 209.56 72.47 209.46 72.52 209.55C72.54 209.59 72.55 209.63 72.57 209.67C72.57 209.66 72.54 209.53 72.56 209.63C72.56 209.67 72.58 209.71 72.59 209.75C72.6 209.81 72.61 209.86 72.62 209.92C72.64 210.03 72.62 210 72.62 209.91C72.74 211.61 72.78 213.3 72.73 215C72.7 215.86 72.66 216.73 72.61 217.59C72.61 217.64 72.61 217.69 72.61 217.74C72.61 217.72 72.61 217.61 72.61 217.72C72.61 217.83 72.59 217.95 72.59 218.07C72.58 218.29 72.56 218.5 72.55 218.72C72.52 219.15 72.49 219.58 72.45 220.01C72.39 220.83 72.35 221.66 72.21 222.48C72.19 222.57 72.18 222.66 72.16 222.76C72.16 222.81 72.14 222.85 72.13 222.9C72.13 222.9 72.09 223.05 72.12 222.96C72.15 222.87 72.1 223.02 72.1 223.02C72.09 223.06 72.07 223.11 72.06 223.15C72.03 223.26 71.99 223.36 71.95 223.47C71.92 223.54 71.9 223.61 71.87 223.68C71.86 223.71 71.77 223.9 71.81 223.82C71.85 223.74 71.75 223.93 71.74 223.96C71.7 224.04 71.65 224.12 71.61 224.19C71.53 224.33 71.43 224.47 71.34 224.61C71.3 224.67 71.25 224.73 71.2 224.8C71.17 224.84 71.13 224.88 71.1 224.92C70.88 225.17 70.64 225.41 70.39 225.62C69.96 225.98 69.35 226.38 68.72 226.5C68.09 226.62 67.53 226.36 67.09 225.93C67.07 225.91 66.94 225.77 67.01 225.85C66.96 225.79 66.91 225.73 66.87 225.67C66.81 225.59 66.76 225.5 66.7 225.42C66.68 225.38 66.66 225.35 66.64 225.31C66.68 225.39 66.64 225.31 66.63 225.27C66.56 225.11 66.49 224.95 66.43 224.79C66.41 224.75 66.35 224.55 66.39 224.69C66.35 224.58 66.33 224.47 66.3 224.35C66.21 223.98 66.13 223.6 66.07 223.22C66.04 223.04 66.01 222.86 65.98 222.69C65.97 222.6 65.95 222.51 65.94 222.42C65.94 222.38 65.93 222.33 65.92 222.29C65.92 222.25 65.89 222.05 65.92 222.23C65.83 221.47 65.79 220.7 65.79 219.94C65.79 219.55 65.81 219.16 65.82 218.77C65.82 218.66 65.82 218.78 65.82 218.8C65.82 218.76 65.82 218.71 65.82 218.67C65.82 218.57 65.84 218.46 65.85 218.36C65.87 218.17 65.89 217.97 65.91 217.78C66 217 66.13 216.23 66.31 215.47C66.33 215.38 66.35 215.29 66.37 215.21C66.38 215.17 66.39 215.12 66.4 215.08C66.4 215.1 66.37 215.19 66.4 215.08C66.45 214.88 66.51 214.67 66.57 214.47C66.68 214.09 66.8 213.72 66.93 213.35C67.06 212.98 67.2 212.62 67.35 212.25C67.41 212.11 67.47 211.96 67.54 211.82C67.56 211.78 67.57 211.75 67.59 211.71C67.59 211.71 67.65 211.59 67.61 211.66C67.57 211.73 67.63 211.62 67.63 211.61C67.66 211.55 67.69 211.49 67.72 211.44C68.34 210.22 69.07 209.3 70.11 208.44C70.37 208.23 70.6 208.07 70.92 207.95C71.41 207.77 71.26 206.54 70.67 206.74L70.64 206.71Z" fill="black"/>
<path d="M62.5699 197.15C61.3399 197.54 60.3699 198.65 60.1599 199.92C59.9499 201.19 60.4999 202.56 61.5399 203.33C61.9299 203.62 62.4099 203.83 62.8999 203.83C64.0799 203.82 64.8899 202.6 65.1299 201.45C65.4199 200.07 65.1599 198.5 64.1499 197.51C63.1399 196.52 61.3299 196.34 60.3399 197.35C59.7499 197.95 59.5399 198.84 59.5599 199.69C59.5899 201.64 61.0399 203.7 62.9899 203.67" fill="black"/>
<path d="M71.78 194.02C70.62 194.39 69.68 195.41 69.42 196.61C69.15 197.8 69.57 199.12 70.46 199.96C70.87 200.34 71.39 200.62 71.94 200.64C72.66 200.66 73.33 200.22 73.75 199.64C74.17 199.06 74.37 198.35 74.51 197.65C74.68 196.74 74.75 195.78 74.47 194.9C74.19 194.02 73.48 193.23 72.57 193.05C71.66 192.88 70.71 193.35 70.14 194.08C69.57 194.81 69.31 195.74 69.21 196.66C69.09 197.74 69.18 198.87 69.72 199.81C70.26 200.75 71.33 201.43 72.4 201.29" fill="black"/>
<path d="M80.3598 199.54C79.0298 199.12 77.5398 200.19 77.2398 201.55C76.9398 202.91 77.6498 204.35 78.7298 205.23C79.0598 205.49 79.4298 205.72 79.8398 205.79C81.0998 205.99 82.0898 204.7 82.4698 203.49C82.7498 202.61 82.8798 201.65 82.6598 200.75C82.4398 199.85 81.8498 199.01 80.9898 198.66C80.0898 198.29 78.9998 198.52 78.2698 199.16C77.5398 199.8 77.1398 200.78 77.1498 201.75C77.1598 203.07 77.9898 204.42 79.2498 204.8C80.5098 205.18 82.0798 204.33 82.2398 203.02" fill="black"/>
<path d="M117.24 237.93C118.93 237.05 120.46 235.74 121.73 234.33C124.52 231.22 125.02 227.38 125.21 223.37C125.3 221.44 125.29 219.51 125.32 217.58C125.32 217.12 125.33 216.67 125.35 216.21C125.35 216.05 125.36 215.89 125.37 215.73C125.37 215.64 125.41 214.99 125.38 215.41C125.36 215.74 125.44 214.9 125.45 214.76C125.49 214.18 125.42 214.76 125.42 214.86C125.42 214.76 125.62 214.24 125.46 214.65C125.3 215.06 125.53 214.55 125.58 214.47C125.68 214.29 125.76 214.09 125.85 213.9C126.09 213.38 126.31 212.86 126.54 212.33C127.09 211.05 127.62 209.77 128.14 208.49C128.88 206.68 129.99 204.68 130.25 202.72C130.6 200.15 130.59 197.29 129.87 194.79C129.39 193.11 128.62 192.06 127.11 191.21C125.6 190.36 123.71 189.18 121.89 189.37C121 189.47 120.42 189.88 119.72 190.38C119.82 190.31 118.93 190.85 118.96 190.73C119.02 190.5 119.63 191.6 119.53 191.41C119.82 191.97 119.85 192.61 119.87 193.23C119.84 191.72 119.34 190.57 118.62 189.3C117.9 188.03 116.9 186.55 115.46 185.97C114.64 185.64 114.01 185.82 113.16 185.83C112.37 185.84 111.63 185.61 110.86 185.47C108.81 185.11 107.85 186.57 107.02 188.22C106.37 189.51 105.68 190.8 104.87 192L105.96 191.68C104.19 191 101.96 190.62 100.21 191.59C99.39 192.05 98.65 192.92 97.93 193.54C96.94 194.4 96.37 195.36 96.06 196.65C94.8 201.97 97.29 207.42 99.65 212.05C99.73 212.2 100.14 213.29 100.32 213.33C100.24 213.32 99.98 212.32 100.2 212.96C100.3 213.27 100.4 213.57 100.5 213.88C101.13 215.79 101.76 217.71 102.35 219.63C103.6 223.64 104.16 227.96 105.99 231.76C106.54 232.91 107.2 234.08 108.29 234.8C109.18 235.38 110.24 235.76 111.23 236.13C113.09 236.84 114.98 237.46 116.89 238.04C118.39 238.5 119.02 232.28 116.89 231.63C117.51 231.82 116.91 231.63 116.75 231.59C116.46 231.5 116.16 231.4 115.87 231.31C114.94 231.01 114.01 230.7 113.09 230.36C111.66 229.84 109.34 229.22 108.51 228.11C106.59 225.53 106.34 221.6 105.4 218.4C104.52 215.41 103.55 212.44 102.55 209.48C102.17 208.35 101.54 207.33 101.02 206.26C100.1 204.36 99.22 202.42 98.74 200.58C98.68 200.36 98.63 200.15 98.59 199.93C98.54 199.71 98.55 199.76 98.62 200.08C98.6 199.93 98.58 199.78 98.57 199.62C98.54 200.32 98.46 199.02 98.57 199.65C98.48 199.16 98.48 199.62 98.48 199.9C98.48 200.21 98.38 199.98 98.61 199.78C98.39 199.97 98.86 199.57 98.85 199.57C99.28 199.19 99.72 198.82 100.14 198.43C101.57 197.1 103.76 197.28 105.22 197.85C105.65 198.02 106.03 197.94 106.31 197.53C107.17 196.26 107.91 194.9 108.62 193.54C108.95 192.91 109.17 191.94 109.96 191.8C110.66 191.68 111.47 192.03 112.15 192.15C112.96 192.28 113.75 192.03 114.54 192.14C115.13 192.22 115.62 192.63 116.01 193.07C116.79 193.95 117.04 194.43 117.46 195.49L117.05 193.22C117.16 195.22 117.98 198.28 120.48 196.55C121.52 195.83 122.22 195.56 123.52 195.97C124.7 196.34 126.25 197.09 127.22 197.86C127.38 197.99 127.44 198.06 127.51 198.23C127.29 197.71 127.48 198.21 127.51 198.24C127.84 198.72 127.5 197.85 127.56 198.45C127.58 198.66 127.61 198.87 127.63 199.08C127.68 199.59 127.65 198.31 127.63 199.11C127.61 199.57 127.62 200.03 127.61 200.48C127.63 199.45 127.6 200.37 127.59 200.62C127.58 200.95 127.39 201.62 127.73 200.3C128.12 198.77 127.65 200.25 127.51 200.61C126.26 203.73 125.03 206.87 123.61 209.91C122.68 211.91 122.62 214.18 122.56 216.35C122.49 218.88 122.56 221.77 122.38 224.07C122.27 225.44 122.3 225.94 121.61 227.13C121.12 227.97 120.43 228.77 119.72 229.44C118.78 230.33 117.69 231.14 116.54 231.74C114.82 232.64 115.43 238.89 117.29 237.92L117.24 237.93Z" fill="black"/>
<path d="M113.05 208.32C111.29 209.33 110.44 211.41 110.01 213.4C109.13 217.48 109.5 221.82 111.08 225.69C111.4 226.47 111.78 227.25 112.39 227.83C113 228.41 113.89 228.76 114.7 228.54C115.04 228.45 115.35 228.26 115.63 228.05C116.89 227.12 117.74 225.67 117.94 224.12C118.06 223.19 117.95 222.25 117.85 221.32C117.43 217.69 117.01 214.05 116.04 210.53C115.93 210.12 115.8 209.7 115.5 209.4C115.14 209.03 114.59 208.91 114.08 208.84C113.3 208.74 112.52 208.72 111.73 208.78" fill="black"/>
<path d="M103.07 199.9C101.94 200.51 101.2 201.79 101.23 203.08C101.26 204.37 102.07 205.61 103.23 206.17C103.67 206.38 104.18 206.5 104.66 206.4C105.81 206.16 106.38 204.81 106.4 203.64C106.42 202.23 105.87 200.74 104.69 199.95C103.52 199.17 101.7 199.34 100.92 200.52C100.46 201.23 100.42 202.14 100.6 202.96C101 204.87 102.82 206.62 104.73 206.22" fill="black"/>
<path d="M111.52 195.07C110.45 195.66 109.73 196.84 109.69 198.06C109.66 199.28 110.31 200.5 111.35 201.15C111.82 201.44 112.39 201.63 112.93 201.54C113.64 201.42 114.21 200.87 114.52 200.22C114.83 199.57 114.88 198.84 114.88 198.12C114.88 197.19 114.77 196.24 114.32 195.43C113.87 194.62 113.03 193.98 112.11 193.98C111.18 193.98 110.34 194.63 109.92 195.45C109.49 196.27 109.42 197.24 109.5 198.16C109.59 199.24 109.89 200.34 110.6 201.16C111.31 201.98 112.49 202.45 113.51 202.1" fill="black"/>
<path d="M120.99 198.87C119.61 198.71 118.34 200.05 118.31 201.44C118.28 202.83 119.24 204.11 120.47 204.77C120.84 204.97 121.25 205.12 121.67 205.11C122.94 205.07 123.67 203.61 123.82 202.35C123.93 201.43 123.87 200.47 123.49 199.62C123.11 198.78 122.36 198.07 121.45 197.89C120.5 197.7 119.48 198.13 118.87 198.89C118.26 199.65 118.07 200.69 118.26 201.64C118.52 202.94 119.59 204.1 120.9 204.24C122.22 204.37 123.59 203.24 123.5 201.92" fill="black"/>
<path d="M171.06 216.01C170.99 214.85 170.94 213.68 170.93 212.52C170.93 211.94 170.93 211.35 170.95 210.77C170.95 210.5 170.97 210.22 170.98 209.95C171.01 209.46 170.94 210.44 170.98 209.95C170.99 209.79 171 209.63 171.02 209.46C171.12 208.31 171.28 207.17 171.54 206.05C171.71 205.41 171.58 205.89 171.54 206.05C171.57 205.93 171.6 205.81 171.64 205.69C171.72 205.4 171.81 205.11 171.9 204.82C172.08 204.28 172.28 203.75 172.51 203.23C172.53 203.18 172.55 203.13 172.58 203.08C172.71 202.79 172.57 203.07 172.52 203.19C172.57 203.03 172.68 202.86 172.76 202.71C172.88 202.48 173.01 202.26 173.14 202.03C173.43 201.55 173.75 201.1 174.1 200.67L173.81 201.03C174.63 200.02 175.59 199.13 176.67 198.4L176.32 198.64C177.45 197.88 178.7 197.31 180.03 197L179.62 197.09C180.75 196.84 181.91 196.78 183.06 196.98L182.64 196.9C183.64 197.08 184.59 197.45 185.47 197.98L185.08 197.75C185.85 198.23 186.54 198.81 187.15 199.48L186.81 199.1C187.42 199.79 187.94 200.54 188.38 201.35L188.11 200.85C188.5 201.59 188.82 202.36 189.08 203.16C189.19 203.51 188.91 202.56 189.01 202.92C189.04 203.02 189.07 203.13 189.1 203.23C189.15 203.44 189.21 203.65 189.25 203.86C189.35 204.34 189.39 204.84 189.49 205.32C189.5 205.38 189.42 204.67 189.45 204.95C189.45 205.01 189.46 205.07 189.47 205.13C189.48 205.25 189.49 205.37 189.5 205.49C189.52 205.77 189.54 206.05 189.55 206.33C189.57 206.87 189.56 207.42 189.55 207.96C189.55 208.1 189.54 208.24 189.53 208.38C189.53 208.44 189.53 208.5 189.52 208.56C189.51 208.84 189.55 208.12 189.54 208.18C189.5 208.46 189.5 208.75 189.47 209.03C189.42 209.58 189.35 210.12 189.28 210.66C189.11 211.89 188.9 213.11 188.69 214.33C188.59 214.89 188.65 215.49 188.82 216.03C188.95 216.47 189.17 216.98 189.55 217.26C189.81 217.45 190.1 217.58 190.42 217.6C190.9 217.62 191.39 217.18 191.61 216.81C191.77 216.55 191.94 216.31 192.13 216.07L191.79 216.49C192.21 215.98 192.69 215.54 193.24 215.17L192.83 215.45C193.71 214.85 194.7 214.45 195.74 214.21L195.28 214.32C196.58 214.03 197.9 214.03 199.21 214.26L198.74 214.18C200.83 214.56 202.77 215.46 204.57 216.56L204.14 216.3C206.01 217.45 207.72 218.81 209.19 220.45L208.81 220.03C209.66 220.99 210.42 222.02 211.03 223.15L210.73 222.6C211.12 223.32 211.44 224.07 211.68 224.85L211.48 224.19C211.64 224.75 211.76 225.31 211.83 225.89L211.75 225.15C211.8 225.63 211.81 226.11 211.79 226.6L211.84 225.85C211.81 226.34 211.73 226.82 211.61 227.3L211.78 226.62C211.65 227.14 211.46 227.64 211.23 228.12L211.51 227.54C211.19 228.2 210.79 228.82 210.33 229.39L210.69 228.94C208.57 231.53 205.5 233.08 202.94 235.17C202.2 235.77 201.51 236.41 200.89 237.13C200.18 237.95 199.93 238.95 200.06 240.03C200.11 240.51 200.23 240.96 200.47 241.39C200.68 241.79 201.02 242.26 201.48 242.4C203.44 243.01 205.33 243.83 207.09 244.9L206.63 244.62C208.02 245.47 209.32 246.47 210.41 247.69L210.01 247.24C210.58 247.88 211.08 248.58 211.49 249.33L211.17 248.74C211.45 249.27 211.68 249.82 211.86 250.39L211.65 249.69C211.8 250.19 211.9 250.7 211.96 251.22L211.87 250.43C211.92 250.89 211.93 251.36 211.91 251.83L211.96 251.04C211.93 251.56 211.84 252.08 211.72 252.58L211.9 251.86C211.75 252.42 211.55 252.97 211.31 253.5L211.6 252.89C211.24 253.65 210.79 254.35 210.26 255L210.65 254.52C209.91 255.42 209.05 256.2 208.09 256.86L208.55 256.55C207.1 257.52 205.47 258.15 203.78 258.55L204.3 258.43C200.61 259.27 196.71 259.01 193.02 258.35L193.55 258.44C189.82 257.76 186.2 256.55 182.81 254.86C181.84 254.38 180.9 253.85 179.97 253.29L180.45 253.58C178.88 252.62 177.37 251.56 175.94 250.39C175.22 249.8 174.52 249.19 173.85 248.55C173.52 248.24 173.2 247.92 172.87 247.6C172.63 247.37 172.39 247.13 172.07 247.01C171.49 246.79 170.89 246.97 170.44 247.37C169.99 247.77 169.73 248.4 169.58 248.99C169.4 249.7 169.37 250.43 169.51 251.16C169.64 251.82 169.96 252.66 170.53 253.08C171.02 253.44 171.64 253.63 172.22 253.33C172.8 253.03 173.15 252.5 173.36 251.92C173.61 251.23 173.67 250.31 173.5 249.6C173.35 248.97 173.09 248.23 172.55 247.83C172.11 247.51 171.55 247.29 171.02 247.56C171 247.58 170.97 247.59 170.94 247.59L171.46 247.47H171.43C171.61 247.5 171.78 247.53 171.96 247.57H171.93C172.09 247.66 172.25 247.76 172.41 247.85C172.39 247.84 172.38 247.83 172.37 247.81L172.78 248.27L172.76 248.24L173.08 248.84V248.81C173.14 249.05 173.21 249.29 173.28 249.52C173.28 249.5 173.27 249.47 173.27 249.45L173.36 250.25C173.36 250.25 173.36 250.2 173.36 250.17L173.31 250.97C173.31 250.97 173.31 250.91 173.32 250.89L173.14 251.61C173.14 251.61 173.16 251.54 173.18 251.5L172.89 252.12C172.89 252.12 172.91 252.08 172.93 252.06L172.54 252.54L172.56 252.52L172.09 252.84C172.09 252.84 172.12 252.82 172.14 252.82L171.62 252.94H171.65C171.47 252.91 171.3 252.88 171.12 252.85H171.15C170.99 252.76 170.83 252.67 170.67 252.57C170.88 252.7 171.05 252.96 171.23 253.14C171.44 253.36 171.66 253.57 171.88 253.78C172.32 254.2 172.77 254.61 173.23 255C174.13 255.77 175.06 256.5 176.02 257.19C178.09 258.67 180.31 259.98 182.61 261.07C187.07 263.18 191.94 264.46 196.87 264.84C202.06 265.24 207.75 264.49 211.69 260.77C213.73 258.85 215.12 256.33 215.63 253.57C216.14 250.81 215.63 247.9 214.32 245.45C212.15 241.42 208.01 238.82 203.81 237.29C203.33 237.12 202.85 236.96 202.36 236.81L202.94 242.08C204.97 239.7 207.75 238.16 210.17 236.23C211.47 235.19 212.67 234.01 213.59 232.61C214.82 230.75 215.38 228.62 215.49 226.41C215.58 224.37 215.06 222.23 214.18 220.39C213.26 218.46 212.02 216.78 210.55 215.25C209.29 213.94 207.86 212.82 206.32 211.86C204.54 210.75 202.68 209.75 200.63 209.23C199.59 208.97 198.51 208.78 197.44 208.78C196.48 208.78 195.55 208.93 194.62 209.17C192.93 209.59 191.25 210.54 190.11 211.87C189.75 212.29 189.4 212.73 189.12 213.21L192.05 215.68C192.43 213.36 192.77 211.05 192.9 208.7C193.03 206.5 192.91 204.21 192.35 202.07C191.39 198.39 189.29 194.85 185.79 193.09C182.76 191.55 179.09 192.05 176.23 193.75C174.62 194.71 173.27 195.93 172.11 197.39C170.95 198.85 170.11 200.58 169.54 202.36C168.26 206.33 168.18 210.56 168.47 214.69C168.5 215.16 168.54 215.63 168.58 216.1C168.62 216.57 168.7 217.05 168.98 217.45C169.17 217.72 169.53 218.02 169.89 217.99C170.78 217.91 171.15 216.8 171.1 216.04L171.06 216.01Z" fill="black"/>
</g>
<defs>
<clipPath id="clip0_3416_11867">
<rect width="215.79" height="264.92" fill="white"/>
</clipPath>
</defs>
</svg>
