<svg width="253" height="218" viewBox="0 0 253 218" fill="none" xmlns="http://www.w3.org/2000/svg">
<g clip-path="url(#clip0_3416_10716)">
<path d="M178.22 205.79C173.43 205.53 168.64 204.81 163.93 203.92C161.81 203.52 159.69 203.06 157.6 202.54C156.47 202.26 155.34 201.96 154.22 201.64C153.04 201.3 152.59 201.17 151.34 200.75C146.91 199.28 142.56 197.44 138.61 194.93C137.7 194.35 136.8 193.73 135.95 193.07C135.55 192.76 135.15 192.44 134.76 192.11C134.54 191.92 134.31 191.73 134.1 191.53C134.01 191.45 133.92 191.36 133.82 191.28C133.48 190.97 134.19 191.66 133.87 191.33C132.37 189.83 131.07 188.19 130 186.35C129.89 186.17 129.47 185.43 129.79 185.99C129.61 185.67 129.43 185.36 129.26 185.04C128.84 184.29 128.43 183.53 128.02 182.78C127.27 181.4 126.54 180 125.82 178.6C124.33 175.7 122.9 172.77 121.51 169.82C117.44 161.21 113.66 152.45 110.16 143.59C110.05 143.31 109.95 143.02 109.83 142.74C109.56 142.15 110.26 144.29 110.14 143.65C110.01 142.9 109.76 142.16 109.58 141.42C109.23 139.93 108.91 138.43 108.62 136.92C108.58 136.69 108.42 135.85 108.6 136.83C108.78 137.81 108.62 136.94 108.58 136.71C108.49 136.19 108.4 135.68 108.31 135.16C108.13 134.05 107.96 132.93 107.81 131.81C107.65 130.6 107.51 129.39 107.39 128.18C107.33 127.6 107.28 127.02 107.23 126.43C107.21 126.13 107.18 125.84 107.16 125.54C107.15 125.39 107.14 125.24 107.13 125.09C107.07 124.38 107.19 126.4 107.16 125.69C107.05 123.08 107.13 120.51 107.13 117.9C107.13 117.81 107.03 119.25 107.09 118.63C107.1 118.48 107.11 118.32 107.12 118.17C107.15 117.81 107.18 117.46 107.21 117.1C107.27 116.44 107.34 115.79 107.43 115.14C107.51 114.54 107.61 113.95 107.7 113.36C107.85 112.43 107.47 114.45 107.67 113.53C107.76 113.15 107.83 112.76 107.92 112.38C108.05 111.81 108.2 111.25 108.37 110.69C108.45 110.41 108.54 110.14 108.62 109.86C108.85 109.12 108.28 110.76 108.65 109.79C109.09 108.65 109.61 107.58 110.14 106.49C110.33 106.1 109.98 106.77 109.98 106.78C110.05 106.67 110.12 106.55 110.19 106.43C110.34 106.2 110.48 105.97 110.63 105.75C110.92 105.32 111.23 104.91 111.54 104.49C112.15 103.67 112.79 102.87 113.44 102.08C114.9 100.31 116.44 98.5899 118.02 96.9299C118.91 95.9899 119.82 95.0699 120.74 94.1599C121.18 93.7199 121.62 93.2899 122.07 92.8599C122.33 92.6099 122.09 92.8399 122.05 92.8799C122.16 92.7699 122.28 92.6599 122.39 92.5499C122.66 92.2899 122.93 92.0399 123.2 91.7899C125.28 89.8399 127.43 87.9499 129.62 86.1199C138.03 79.1099 147.37 72.4499 157.73 68.6599C158.98 68.1999 159.72 67.9599 160.8 67.6699C161.88 67.3799 162.93 67.1499 164.01 66.9699C166.05 66.6299 168.15 66.5099 170.21 66.7499C176.81 67.5199 183.52 69.0899 189.77 71.3299C199.42 74.7899 208.47 80.6299 214.16 89.3599C214.33 89.6199 214.47 89.9199 214.66 90.1699C214.59 90.0699 214.14 89.1799 214.4 89.7099C214.44 89.7999 214.49 89.8799 214.53 89.9699C214.61 90.1299 214.69 90.2999 214.75 90.4699C214.97 91.0899 215.7 92.1499 216.5 92.1199C220.68 91.9599 224.87 91.7999 229.05 91.6399L226.57 86.0199C226.92 93.1699 227.26 100.33 227.61 107.48C227.71 109.5 227.77 111.72 229.19 113.27C230.08 114.24 231.03 115.16 231.95 116.1C235.22 119.45 238.49 122.8 241.76 126.15C244.05 128.5 246.35 130.85 248.64 133.19V123.48C246.35 126.38 244.06 129.29 241.77 132.19C239.92 134.54 238.62 136.09 238.62 139.49C238.62 140.2 239.2 144.48 238.73 141.09C238.75 141.2 238.77 141.31 238.78 141.42C238.84 141.86 238.9 142.29 238.95 142.73C238.98 143.05 239.01 143.37 239.04 143.69C239.05 143.86 239.06 144.03 239.08 144.2C239.12 144.7 238.98 142.24 239.03 143.42C239.07 144.36 239.09 145.31 239.07 146.25C239.07 146.8 239.04 147.35 239.02 147.9C239.02 148.04 239 148.17 239 148.31C238.99 148.61 239.13 146.46 239.06 147.35C239.03 147.68 239.01 148 238.98 148.33C238.87 149.65 238.7 150.96 238.49 152.26C238.44 152.6 238.42 153.01 238.31 153.33C238.38 153.14 238.62 151.74 238.44 152.64C238.4 152.84 238.36 153.03 238.32 153.23C238.16 153.99 237.99 154.75 237.8 155.51C237.6 156.31 237.38 157.1 237.15 157.88C237.03 158.29 236.9 158.69 236.77 159.1C236.7 159.31 236.44 160.08 236.75 159.19C237.06 158.3 236.77 159.14 236.69 159.37C236.07 161.11 235.37 162.81 234.59 164.48C234.17 165.37 233.73 166.25 233.27 167.11C233.05 167.53 232.82 167.94 232.59 168.35C232.52 168.47 233.05 167.57 232.63 168.27C232.47 168.54 232.31 168.81 232.15 169.08C231.02 170.95 229.79 172.76 228.46 174.5C227.02 176.4 225.47 178.21 223.84 179.94C223.44 180.37 223.03 180.79 222.62 181.2C222.41 181.41 222.2 181.62 221.99 181.83C221.87 181.95 221.74 182.07 221.62 182.19C221.94 181.88 221.78 182.04 221.55 182.25C220.58 183.17 219.58 184.06 218.57 184.92C208.37 193.6 196.13 199.63 183.56 204.03C181.57 204.72 179.58 205.38 177.57 206C176.8 206.24 176.25 208 176.09 208.59C175.73 209.92 175.64 211.56 175.84 212.92C176.08 214.56 176.69 217.53 178.88 216.85C190.9 213.14 202.65 208.16 213.05 201C220.56 195.83 227.41 189.46 232.61 181.95C236.77 175.94 239.9 169.26 241.82 162.21C243.27 156.87 244.02 151.31 244.05 145.78C244.06 143.22 243.96 140.6 243.53 138.07C243.45 137.6 243.36 137.12 243.27 136.65L242.38 144.35C245.31 140.63 248.24 136.91 251.18 133.19C252.2 131.9 252.41 129.9 252.41 128.33C252.41 126.91 252.27 124.58 251.18 123.47C245.41 117.56 239.64 111.65 233.87 105.74C233.05 104.9 232.23 104.06 231.41 103.22L232.64 108.08C232.33 101.65 232.02 95.2299 231.71 88.7999C231.67 87.8799 231.62 86.9499 231.58 86.0299C231.52 84.7399 231.45 83.2399 230.86 82.0499C230.53 81.3799 230.01 80.3699 229.11 80.3999C224.93 80.5599 220.74 80.7199 216.56 80.8799L218.31 82.5299C217.15 79.3099 214.34 76.3699 212.04 73.9699C208.16 69.9199 203.93 66.4699 198.94 63.8799C193.36 60.9799 187.3 59.0299 181.2 57.5799C175.64 56.2599 169.8 54.7999 164.07 55.7399C153.31 57.5099 143.36 63.8499 134.77 70.2399C126.18 76.6299 117.55 84.3199 110.63 92.8599C107.27 96.9999 104.96 101.52 103.72 106.73C102.32 112.62 101.96 118.77 102.23 124.81C102.59 132.97 103.67 141.3 105.87 149.18C106.38 151 107.18 152.76 107.89 154.5C109.76 159.12 111.7 163.7 113.71 168.26C116.36 174.26 119.12 180.21 122.1 186.06C123.67 189.13 125.3 192.16 127.01 195.15C128.16 197.17 129.43 199.04 131.06 200.7C137.94 207.71 147.54 211.22 156.87 213.61C163.5 215.31 170.32 216.44 177.14 216.98C177.51 217.01 177.89 217.04 178.26 217.06C179.1 217.11 179.74 216.01 180.01 215.41C180.54 214.25 180.76 212.69 180.73 211.43C180.7 209.93 180.46 205.93 178.25 205.81L178.22 205.79Z" fill="#010202"/>
<path d="M28.12 105.52C24.71 103.28 21.49 100.68 18.44 97.9798C17.78 97.3898 17.12 96.7898 16.47 96.1798C16.36 96.0798 15.91 95.6398 16.33 96.0498C16.19 95.9198 16.05 95.7798 15.91 95.6398C15.52 95.2598 15.14 94.8798 14.76 94.4898C13.43 93.1298 12.14 91.7098 10.94 90.2298C9.74001 88.7498 8.62001 87.2298 7.61001 85.6098C7.48001 85.3998 6.80001 84.1998 7.29001 85.0998C7.08001 84.7198 6.87001 84.3398 6.68001 83.9498C6.25001 83.1098 5.89001 82.2398 5.54001 81.3698C5.13001 80.3698 5.81001 82.2998 5.44001 81.0798C5.32001 80.6898 5.22001 80.2998 5.12001 79.8998C5.07001 79.6798 5.04001 79.4598 4.98001 79.2498C5.36001 80.6498 5.14001 80.1798 5.09001 79.8098C5.06001 79.5898 5.04001 79.3698 5.01001 79.1498C4.84001 77.9798 5.01001 80.1998 5.01001 79.5998C5.05001 77.3198 5.00001 75.0498 5.07001 72.7698C5.11001 71.5598 5.16001 70.3498 5.23001 69.1398C5.24001 68.8798 5.26001 68.6298 5.27001 68.3698C5.32001 67.3598 5.25001 68.5798 5.25001 68.7098C5.23001 68.0198 5.34001 67.2898 5.39001 66.6098C5.55001 64.2598 5.75001 61.9098 5.97001 59.5598C6.33001 55.7398 6.75001 51.9198 7.22001 48.1098C7.36001 46.9498 7.51001 45.7998 7.67001 44.6398C7.71001 44.3598 7.75001 44.0798 7.79001 43.7998C7.88001 43.1198 8.07001 43.3098 7.58001 44.8398C7.97001 43.6098 8.27001 42.3398 8.67001 41.1098C8.75001 40.8698 8.82001 40.6398 8.90001 40.3998C8.95001 40.2398 9.00001 40.0898 9.05001 39.9298C9.23001 39.3798 8.62001 41.1598 8.89001 40.3898C9.14001 39.6898 9.38001 38.9798 9.64001 38.2898C10.2 36.7798 10.81 35.2898 11.46 33.8198C12.17 32.2098 12.94 30.6298 13.79 29.0798C13.96 28.7598 14.43 27.9798 13.99 28.7198C14.23 28.3098 14.47 27.8998 14.72 27.4998C15.22 26.6998 15.74 25.9098 16.29 25.1398C17.31 23.7198 18.43 22.3698 19.68 21.1398C19.19 21.6198 20.02 20.8398 20.17 20.7098C20.47 20.4498 20.77 20.1998 21.08 19.9698C21.76 19.4498 22.47 18.9798 23.22 18.5598C24.51 17.8498 25.91 17.3198 27.29 16.8198C28.88 16.2398 30.36 15.7598 31.68 15.3798C35.45 14.2898 39.28 13.4398 43.15 12.7698C51.06 11.4098 59.37 10.6398 67.35 11.8598C70.69 12.3698 73.25 12.9898 76.15 14.8098C78.18 16.0798 79.99 17.7798 81.76 19.3698C83.53 20.9598 85.38 22.7798 87.04 24.6298C88.53 26.2998 89.93 28.0498 91.19 29.8998C91.73 30.6898 92.23 31.4898 92.72 32.3098C92.21 31.4498 92.99 32.8298 93.09 33.0098C93.31 33.4398 93.53 33.8698 93.73 34.3098C94.08 35.0698 94.4 35.8398 94.69 36.6198C95.15 37.8498 94.43 35.7598 94.82 36.9998C95.05 37.7298 95.26 38.4598 95.45 39.1898C95.62 39.8198 95.77 40.4498 95.92 41.0798C95.97 41.3098 96.02 41.5298 96.06 41.7598C96.25 42.6498 95.99 41.4398 95.99 41.3498C96.04 42.1398 96.22 42.9598 96.3 43.7498C96.38 44.5398 96.28 41.9398 96.25 43.2098C96.25 43.3598 96.24 43.5098 96.25 43.6598C96.27 44.2598 96.45 41.7498 96.3 42.6698C96.08 43.9698 96.18 45.7298 96.55 46.9998C96.81 47.8798 97.16 49.1198 98.03 49.5898C100.83 51.0798 103.63 52.5698 106.43 54.0498C106.07 50.9198 105.7 47.7798 105.34 44.6498C102.91 49.4698 100.37 54.2398 98.04 59.1098C96.4 62.5398 97.44 66.0198 98.34 69.4198L101.05 79.6698C101.69 82.0898 102.33 84.5198 102.97 86.9398L104.45 78.6798C101.82 79.7198 99.19 80.7598 96.57 81.7998C96.05 82.0098 95.51 82.1898 94.99 82.4198C93.85 82.9398 93.48 83.9898 93.09 85.1698C93.76 83.1698 93.53 83.9498 93.33 84.4298C92.99 85.2598 92.63 86.0798 92.22 86.8798C92.07 87.1698 91.91 87.4598 91.76 87.7498C91.59 88.0698 91.16 88.6898 91.97 87.3798C91.86 87.5598 91.76 87.7398 91.66 87.9198C91.2 88.6798 90.72 89.4298 90.21 90.1598C88.99 91.9198 87.62 93.5698 86.13 95.0998C85.92 95.3098 85.71 95.5198 85.51 95.7298C84.84 96.3998 85.94 95.3398 85.33 95.9098C84.83 96.3698 84.32 96.8298 83.79 97.2798C82.77 98.1498 81.7 98.9598 80.6 99.7298C78.04 101.5 75.29 102.99 72.42 104.19C71.64 104.52 70.85 104.82 70.06 105.1C69.65 105.25 69.24 105.39 68.82 105.52C68.63 105.58 68.44 105.64 68.25 105.7C67.95 105.79 67.94 105.8 68.21 105.71C68.05 105.76 67.89 105.8 67.74 105.85C65.91 106.37 64.07 106.8 62.19 107.14C50.67 109.22 38.77 107.91 27.46 105.28C26.68 105.1 25.92 106.47 25.71 106.93C25.18 108.09 24.96 109.65 24.99 110.91C25.03 112.74 25.25 116.02 27.47 116.53C43.21 120.2 60.56 121.25 75.57 114.21C83.36 110.56 90.17 104.55 94.49 97.0798C95.66 95.0598 96.66 93.0398 97.39 90.8198L95.91 93.4098C99.21 92.0998 102.5 90.7998 105.8 89.4898C106.87 89.0698 107.23 87.1898 107.4 86.2298C107.71 84.5798 107.7 82.8498 107.28 81.2198C105.69 75.1798 104.09 69.1298 102.5 63.0898L101.82 60.4998L101.43 67.3198C103.91 62.3998 106.4 57.4798 108.88 52.5598C109.68 50.9698 109.73 48.8098 109.52 47.0898C109.37 45.8998 109.01 43.8098 107.79 43.1598C104.99 41.6698 102.19 40.1798 99.39 38.6998L101.12 45.6198C101.7 42.1898 100.93 38.3498 100.16 35.0198C99.07 30.2898 97.33 25.8898 94.79 21.7598C92.25 17.6298 88.71 13.7198 85.06 10.2598C81.88 7.24979 78.56 3.99979 74.42 2.38979C66.85 -0.490214 58.29 -0.290214 50.37 0.529786C42.45 1.34979 33.96 3.08979 26.22 5.88979C22.97 7.06979 20.2 8.54979 17.68 10.9598C14.75 13.7698 12.54 17.1098 10.57 20.6398C7.53001 26.0998 5.28001 32.0598 3.60001 38.0698C2.48001 42.0798 2.26001 46.4398 1.80001 50.5598C1.29001 55.2298 0.850012 59.8998 0.550012 64.5898C0.180012 70.1798 -0.259988 75.8998 0.170012 81.4998C0.850012 90.1998 6.05001 97.7798 11.95 103.89C16.2 108.29 20.91 112.29 25.93 115.78C26.22 115.98 26.5 116.18 26.8 116.37C28.75 117.65 29.73 113.57 29.84 112.44C30.05 110.44 30.09 106.82 28.11 105.52H28.12Z" fill="#010202"/>
</g>
<defs>
<clipPath id="clip0_3416_10716">
<rect width="252.39" height="217.04" fill="white"/>
</clipPath>
</defs>
</svg>
