<svg width="270" height="192" viewBox="0 0 270 192" fill="none" xmlns="http://www.w3.org/2000/svg">
<g clip-path="url(#clip0_3416_10022)">
<path d="M8.01999 186.52C8.33999 163.58 8.47999 140.64 8.44999 117.7C8.41999 94.8401 8.21999 71.9801 7.83999 49.1301C7.62999 36.2501 7.35999 23.3701 7.03999 10.4901L3.64999 15.9401C36.12 15.2601 68.59 14.5801 101.07 13.9001C133.55 13.2201 165.68 12.5501 197.99 11.8701C216.14 11.4901 234.29 11.1101 252.44 10.7301L248.88 4.03007C245.02 27.1401 246.02 50.6201 248.75 73.7901C251.42 96.5501 255.81 119.06 258.94 141.76C259.38 144.95 259.79 148.14 260.17 151.33C260.26 152.11 260.35 152.89 260.44 153.67C260.31 152.54 260.44 153.6 260.46 153.88C260.5 154.27 260.55 154.66 260.59 155.05C260.77 156.68 260.93 158.32 261.08 159.96C261.69 166.42 262.12 172.89 262.32 179.37L265.71 173.92C248.82 173.82 231.93 173.78 215.03 173.8C198.13 173.82 181.08 173.89 164.1 174.02C147.12 174.15 130.32 174.34 113.43 174.58C96.54 174.82 79.65 175.12 62.76 175.48C45.79 175.84 28.82 176.25 11.85 176.72C9.76999 176.78 7.68999 176.84 5.60999 176.9C3.11999 176.97 2.10999 180.32 2.21999 182.35C2.32999 184.38 3.28999 187.7 5.86999 187.62C22.76 187.14 39.64 186.71 56.53 186.34C73.42 185.97 90.47 185.65 107.45 185.4C124.34 185.14 141.23 184.94 158.12 184.8C175.01 184.66 191.9 184.57 208.8 184.54C225.7 184.51 242.75 184.54 259.73 184.62C261.81 184.63 263.89 184.64 265.97 184.65C268.49 184.66 269.42 181.1 269.36 179.2C268.65 155.98 264.95 132.98 261.24 110.08C259.44 98.9301 257.63 87.7901 256.18 76.5901C256 75.2001 255.82 73.8001 255.66 72.4101C255.58 71.7101 255.49 71.0201 255.41 70.3201C255.37 70.0101 255.34 69.7001 255.3 69.3901C255.25 68.9901 255.26 69.0801 255.33 69.6501C255.3 69.4201 255.28 69.1901 255.25 68.9501C254.94 66.0901 254.65 63.2301 254.4 60.3601C253.92 54.8101 253.58 49.2401 253.42 43.6701C253.24 37.3401 253.34 31.0201 253.66 24.6901C253.67 24.4701 253.72 23.6301 253.66 24.7301C253.69 24.2701 253.72 23.8101 253.76 23.3401C253.82 22.5701 253.88 21.8001 253.94 21.0301C254.07 19.4901 254.22 17.9501 254.39 16.4101C254.75 13.1601 255.2 9.93007 255.74 6.71007C256.11 4.50007 255.27 -0.0599259 252.18 0.0100741C219.71 0.690074 187.24 1.37007 154.76 2.05007C122.28 2.73007 90.15 3.40007 57.84 4.08007C39.69 4.46007 21.54 4.84007 3.38999 5.22007C0.859989 5.26007 -0.0500115 8.70007 -1.15024e-05 10.6601C0.569988 33.5901 0.969989 56.5301 1.19999 79.4701C1.42999 102.41 1.47999 125.19 1.34999 148.04C1.27999 160.92 1.15999 173.81 0.979989 186.69C0.949989 188.71 2.15999 192.03 4.62999 191.96C7.09999 191.89 7.98999 188.49 8.01999 186.51V186.52Z" fill="#1D1D1B"/>
<path d="M13.81 21.2901C27.64 31.9701 41.1 43.1201 54.16 54.7301C67.21 66.3401 79.86 78.4101 92.08 90.9101C98.94 97.9201 105.65 105.08 112.23 112.35C113.23 113.45 114.79 113.06 115.78 112.26C132.91 98.4501 150.33 84.9901 168.02 71.9201C185.56 58.9601 203.56 46.2301 221.5 34.1301C231.74 27.2201 242.06 20.4401 252.45 13.7801C254.6 12.4101 255.33 9.56014 254.75 7.13014C254.37 5.57014 252.57 2.06014 250.33 3.49014C231.52 15.5401 212.97 27.9901 194.68 40.8201C176.67 53.4601 158.93 66.4901 141.48 79.8901C131.56 87.5001 121.73 95.2401 112 103.09L115.55 103C103.83 90.0401 91.67 77.4801 79.08 65.3701C66.49 53.2601 53.48 41.5801 40.08 30.3701C32.56 24.0801 24.91 17.9401 17.14 11.9401C15.19 10.4301 13.05 11.9001 12.37 13.9801C11.64 16.2001 11.76 19.7001 13.81 21.2801V21.2901Z" fill="#1D1D1B"/>
</g>
<defs>
<clipPath id="clip0_3416_10022">
<rect width="269.37" height="191.97" fill="white"/>
</clipPath>
</defs>
</svg>
