<svg width="152" height="281" viewBox="0 0 152 281" fill="none" xmlns="http://www.w3.org/2000/svg">
<g clip-path="url(#clip0_3416_10109)">
<path d="M147.12 28.9601C146.32 41.3301 146.27 53.7301 146.13 66.1301C145.99 78.5301 145.9 90.4201 145.94 102.57C145.94 106.06 145.96 109.56 145.98 113.05C145.98 114.66 146.02 116.28 145.99 117.89C145.97 118.78 145.99 118.68 145.86 119.54C145.65 120.88 145.69 122.01 145.85 123.36C146.03 124.89 147.84 126.92 149.36 125.42C151.83 122.99 151.39 118.64 151.36 115.41C151.33 112.18 151.31 109.25 151.28 106.18C151.23 100.03 151.19 93.8701 151.14 87.7201C151.04 75.3301 151.05 62.9401 150.95 50.5401C150.92 47.0501 150.92 43.5501 150.95 40.0601C150.98 36.5701 150.76 33.0801 150.61 29.5901C150.57 28.6101 150.15 27.1701 149.01 26.9801C147.95 26.8101 147.18 28.0101 147.12 28.9601Z" fill="#1D1D1B"/>
<path d="M6.19993 269.4L6.95993 26.2804C6.95993 26.2804 -0.670072 19.3404 3.90993 10.3704C8.48993 1.4004 14.0799 7.9204 14.0799 7.9204C14.0799 7.9204 18.9099 14.4504 16.1099 21.3804C13.3099 28.3104 12.2999 25.8704 12.2999 25.8704V37.2904L12.5499 270.21C12.5499 270.21 10.2599 281.63 6.18993 269.39L6.19993 269.4Z" fill="#1D1D1B"/>
<path d="M8.66999 269.4C8.66999 266.59 8.68999 263.78 8.69999 260.97C8.71999 253.45 8.74999 245.93 8.76999 238.41C8.79999 227.53 8.83999 216.65 8.86999 205.77C8.90999 192.89 8.94999 180.01 8.98999 167.13L9.11999 126.56L9.23999 88.1202C9.26999 77.3702 9.30999 66.6302 9.33999 55.8802C9.35999 48.5702 9.38999 41.2702 9.40999 33.9602L9.42999 28.0802C9.42999 25.5302 9.56999 22.7402 7.58999 20.8202C8.65999 21.8602 7.81999 21.0302 7.55999 20.7502C7.12999 20.2702 6.72999 19.7602 6.35999 19.2302C6.13999 18.9202 5.94999 18.6002 5.73999 18.2802C5.40999 17.7902 5.94999 18.4702 5.86999 18.5202C5.86999 18.5202 5.53999 17.8702 5.51999 17.8302C5.33999 17.4602 5.21999 17.0602 5.03999 16.7002C4.74999 16.1502 5.34999 17.8402 5.10999 16.8902C5.03999 16.6002 4.95999 16.3202 4.88999 16.0302C4.60999 14.9602 5.06999 17.2902 4.92999 16.1702C4.86999 15.6702 5.07999 15.5402 4.92999 16.7202C4.95999 16.4802 4.94999 16.1502 4.92999 15.9002C4.85999 15.1302 4.78999 17.3902 4.92999 16.2102C5.06999 15.0302 4.67999 17.0702 4.89999 16.3302C4.98999 16.0302 5.05999 15.7302 5.13999 15.4302C4.89999 16.3002 5.05999 15.6602 5.13999 15.4702C5.34999 15.0302 5.52999 14.5702 5.75999 14.1402C6.12999 13.4502 5.30999 14.7302 6.01999 13.7202C6.19999 13.4602 6.37999 13.2002 6.56999 12.9502C6.74999 12.7302 6.92999 12.5002 7.11999 12.3002C6.79999 12.6402 7.11999 12.3002 7.18999 12.2402C7.52999 11.9602 7.89999 11.7302 8.28999 11.5202C8.37999 11.4702 9.08999 11.2402 8.48999 11.4002C8.69999 11.3502 8.90999 11.3102 9.11999 11.2902C9.44999 11.2602 9.78999 11.2602 10.12 11.3102C10.24 11.3302 10.38 11.3702 10.5 11.3802C11.1 11.4102 10.02 11.1702 10.57 11.3902C11.12 11.6102 11.62 11.8702 12.09 12.2102C12.29 12.3502 12.47 12.5002 12.66 12.6502C13.3 13.1602 12.58 12.8702 12.55 12.5302C12.55 12.6102 12.79 12.7702 12.85 12.8602C13 13.0902 13.65 14.1202 13.29 13.5302C12.91 12.9002 13.46 13.8902 13.56 14.0802C13.8 14.5802 14.01 15.0902 14.21 15.6102C14.59 16.5402 14.08 14.8502 14.17 15.5102C14.21 15.7702 14.33 16.0502 14.39 16.3102C14.39 16.3002 14.57 16.9402 14.54 16.9802L14.41 16.3302C14.45 16.5702 14.48 16.8102 14.5 17.0402C14.29 16.9502 14.5 15.7902 14.48 16.6502C14.48 16.9802 14.38 18.2902 14.5 16.6902C14.48 16.9402 14.48 17.6802 14.56 16.5302C14.54 16.7502 14.24 17.7702 14.49 17.0102C14.26 17.7102 13.94 18.3902 13.63 19.0502C13.48 19.3802 13.31 19.6902 13.16 20.0102C13.04 20.2502 12.73 20.5402 13.23 19.8902C13.03 20.1502 12.76 20.4802 12.61 20.7702C12.34 21.2802 13.07 20.3602 12.83 20.5702C12.76 20.6302 12.68 20.7002 12.6 20.7402C12.08 20.9602 13.29 20.6702 12.81 20.6602C12.64 20.6602 13.55 20.9902 13.16 20.7402C13.65 21.0602 13.81 21.4102 14.02 21.8902C13.52 20.7402 12.48 19.7002 11.32 20.7302C10.03 21.8702 9.79999 24.2902 9.79999 25.8702C9.79999 30.3202 9.79999 34.7602 9.79999 39.2102C9.79999 43.6602 9.79999 48.0402 9.80999 52.4602C9.80999 60.2602 9.82999 68.0702 9.83999 75.8702C9.84999 86.0102 9.85999 96.1502 9.86999 106.29C9.87999 117.79 9.89999 129.29 9.90999 140.79L9.94999 176.5C9.95999 187.72 9.96999 198.95 9.98999 210.17C9.99999 219.79 10.01 229.41 10.02 239.02C10.02 245.96 10.04 252.91 10.04 259.85C10.04 263.16 10.02 266.47 10.05 269.79C10.05 269.93 10.05 270.08 10.05 270.22L10.39 267.38C10.3 267.83 10.18 268.27 10.05 268.71C9.91999 269.15 9.51999 269.76 10.19 268.32C10.1 268.5 10.05 268.7 9.96999 268.89C9.87999 269.1 9.76999 269.31 9.68999 269.52C9.42999 270.14 10.32 268.73 9.78999 269.33C9.75999 269.36 9.44999 269.72 9.45999 269.74C9.43999 269.68 10.16 269.15 9.72999 269.44C9.66999 269.48 9.60999 269.53 9.53999 269.55C9.73999 269.49 10.11 269.52 9.62999 269.44C9.28999 269.38 9.94999 269.52 9.94999 269.54C9.94999 269.52 9.70999 269.43 9.71999 269.41C9.69999 269.45 9.18999 268.89 9.64999 269.39C10.02 269.78 9.68999 269.41 9.62999 269.32C9.42999 269.01 9.01999 268.29 9.39999 269.05C9.19999 268.65 9.00999 268.26 8.82999 267.86C8.69999 267.56 8.57999 267.25 8.45999 266.94C8.41999 266.83 8.09999 265.95 8.30999 266.57C7.85999 265.24 6.45999 262.44 4.91999 264.55C3.52999 266.47 3.27999 270.04 4.02999 272.25C4.81999 274.57 7.04999 282.47 10.99 280.32C13.1 279.17 14.02 275.69 14.54 273.56C14.93 271.96 14.99 270.43 14.99 268.81C14.99 264.3 14.99 259.78 14.98 255.27C14.98 246.98 14.96 238.7 14.95 230.41C14.94 219.49 14.93 208.57 14.91 197.65C14.9 185.36 14.88 173.06 14.87 160.77C14.86 148.22 14.84 135.66 14.83 123.11C14.82 111.53 14.8 99.9602 14.79 88.3802C14.78 79.0002 14.77 69.6302 14.76 60.2502C14.76 54.2202 14.75 48.1902 14.74 42.1602C14.74 38.8402 14.74 35.5302 14.74 32.2102V25.8802L10.51 29.8602C11.06 31.1202 12.19 32.3702 13.66 31.7002C15.72 30.7702 16.85 27.7302 17.64 25.8202C20.61 18.6602 19.77 10.2002 15.67 3.65017C14.43 1.58017 11.71 -0.179826 9.23999 0.0101741C6.26999 0.240174 4.20999 2.74017 2.83999 5.15017C0.639986 9.02017 -0.220014 13.3502 0.0499858 17.7902C0.359986 22.9702 2.43999 28.1602 6.30999 31.7002L4.48999 26.2802C4.48999 28.4502 4.47999 30.6202 4.46999 32.7802C4.44999 38.6802 4.42999 44.5802 4.40999 50.4802C4.37999 59.2102 4.35999 67.9302 4.32999 76.6602C4.29999 87.3102 4.25999 97.9502 4.22999 108.6C4.18999 120.22 4.15999 131.84 4.11999 143.46C4.07999 155.27 4.04999 167.08 4.00999 178.89C3.97999 189.83 3.93999 200.76 3.90999 211.7C3.87999 220.97 3.84999 230.25 3.81999 239.52C3.79999 246.19 3.77999 252.86 3.75999 259.52C3.75999 262.67 3.71999 265.82 3.72999 268.97C3.72999 269.11 3.72999 269.25 3.72999 269.38C3.72999 270.83 4.03999 275 6.20999 275C8.37999 275 8.67999 270.69 8.68999 269.38L8.66999 269.4Z" fill="#1D1D1B"/>
<path d="M148.78 26.96C146.83 27.22 145.16 28.07 143.35 28.81C141.54 29.55 139.75 30.06 137.87 30.4C133.88 31.12 129.75 31.11 125.71 30.94C121.1 30.74 116.49 30.36 111.89 30.05C106.98 29.72 102.06 29.45 97.1601 29.04C92.6301 28.66 88.3501 27.77 84.0501 26.27C79.7501 24.77 75.8201 23.03 71.6601 21.54C67.2301 19.94 62.6901 18.82 58.0001 18.31C53.3101 17.8 48.4001 17.87 43.6101 18.09C32.5801 18.6 21.7301 20.32 11.0401 23.09C10.1501 23.32 9.40005 24.69 9.13005 25.44C8.71005 26.59 8.61005 28.12 8.89005 29.31C9.40005 31.4 10.6801 33.32 13.0301 32.71C22.2501 30.34 31.7301 28.76 41.2201 27.95C50.7101 27.14 59.84 26.95 68.84 29.78C77.84 32.61 85.7301 36.45 94.9501 37.2C99.8201 37.59 104.75 37.54 109.63 37.66C114.51 37.78 119.12 37.93 123.86 38C128.6 38.07 133.09 38 137.65 37.21C142.21 36.42 147.37 35.13 150.01 31.04C150.63 30.08 150.61 26.7 148.79 26.95L148.78 26.96Z" fill="#1D1D1B"/>
<path d="M12.29 129.89C15.47 127.49 18.73 125.28 22.51 123.91C26.29 122.54 30.34 122.03 34.33 121.97C44.24 121.82 53.76 123.96 63.4 125.95C73.58 128.06 83.83 129.96 94.17 131.06C104.51 132.16 114.58 131.9 124.81 131.16C127.7 130.95 130.59 130.76 133.48 130.51C136.13 130.28 138.87 130.15 141.48 129.63C144.09 129.11 146.67 128.17 148.51 126.12C150.98 123.37 152.02 119.56 151.14 115.94C150.74 114.27 149.53 111.93 147.44 112.44C145.35 112.95 144.59 115.59 144.71 117.43C144.77 118.35 144.76 117.28 144.78 117.13C144.74 117.45 144.5 117.9 144.88 116.91C144.84 117.01 144.73 117.57 144.88 117.04C145.04 116.47 144.77 117.16 144.71 117.3C144.58 117.66 144.75 117.32 144.84 117.2C144.69 117.39 144.51 117.57 144.33 117.73C144.15 117.89 143.97 118.06 143.77 118.2C144.2 117.88 143.67 118.23 143.47 118.33C141.81 119.13 139.92 119.15 137.87 119.21C132.84 119.37 127.83 119.79 122.8 120.12C112.82 120.78 102.9 120.71 92.93 119.91C82.96 119.11 73.29 117.61 63.56 115.9C53.83 114.19 44.17 111.86 34.5 113.04C29.85 113.61 25.29 114.84 21.04 116.79C18.92 117.77 16.92 118.94 15.01 120.29C14.11 120.93 13.19 121.61 12.37 122.36C11.42 123.23 10.64 124.4 9.90996 125.46C8.82996 127.01 9.85996 131.68 12.28 129.86L12.29 129.89Z" fill="#1D1D1B"/>
<path d="M77.27 34.6303C75.8 34.1903 74.3 35.2003 74.23 36.6703C73.58 51.3803 70.72 116.67 71.73 116C72.37 115.57 76.88 116.42 80.67 117.24C83.5 117.85 86.23 115.91 86.42 113.14C87.01 104.74 88.13 87.8003 88.67 72.3303C89.42 50.7003 88.67 38.0803 88.67 38.0803L77.27 34.6303Z" fill="#DD0B15"/>
<path d="M77.2699 33.5101C76.2899 33.2301 75.2699 33.5601 74.5799 34.3001C73.8899 35.0401 73.7699 36.0301 73.7199 36.9901C73.6899 37.7401 73.6499 38.4901 73.6199 39.2501C73.5299 41.2401 73.4499 43.2301 73.3599 45.2201C73.2499 47.7301 73.1399 50.2401 73.0399 52.7501C72.9199 55.6301 72.7999 58.5001 72.6799 61.3801C72.5499 64.4601 72.4299 67.5401 72.3099 70.6201C72.1899 73.7001 72.0599 76.9601 71.9399 80.1301C71.8199 83.3001 71.7099 86.2601 71.6099 89.3301C71.5099 92.1701 71.4199 95.0201 71.3299 97.8601C71.2599 100.32 71.1899 102.78 71.1299 105.24C71.0899 107.17 71.0499 109.1 71.0299 111.03C71.0199 112.27 71.0099 113.52 71.0599 114.77C71.0799 115.18 71.0899 115.6 71.1399 116.02C71.1799 116.32 71.2799 117.14 71.7199 117.14C71.7699 117.14 71.8199 117.11 71.8599 117.09C71.8799 117.09 71.9999 117.02 71.8999 117.06C71.8199 117.09 71.9499 117.05 71.9899 117.04C72.2599 116.99 72.5399 117.01 72.8099 117.02C73.7199 117.07 74.6299 117.21 75.5199 117.36C76.6799 117.55 77.8399 117.78 78.9899 118.02C80.0399 118.24 81.0999 118.57 82.1799 118.46C84.1399 118.27 85.8499 116.94 86.5199 115.09C86.8499 114.17 86.8999 113.24 86.9699 112.28C87.0299 111.46 87.0799 110.65 87.1399 109.83C87.4199 105.69 87.6899 101.56 87.9299 97.4201C88.2299 92.3501 88.5099 87.2901 88.7499 82.2201C88.9899 77.1501 89.1999 71.7201 89.3299 66.4601C89.4399 61.9201 89.4999 57.3701 89.4899 52.8301C89.4899 49.7101 89.4499 46.5901 89.3599 43.4801C89.3199 41.8701 89.2599 40.2701 89.1799 38.6601C89.1699 38.3701 89.1499 38.0801 89.1299 37.7901C89.1099 37.4701 88.9799 37.0601 88.6499 36.9601C87.3699 36.5701 86.0899 36.1801 84.7999 35.8001C82.7499 35.1801 80.7099 34.5601 78.6599 33.9401C78.1899 33.8001 77.7199 33.6501 77.2399 33.5101C77.0899 33.4601 76.9299 33.7601 76.8899 33.8401C76.7799 34.0701 76.7399 34.3801 76.7499 34.6401C76.7499 35.0301 76.8099 35.6301 77.2499 35.7601C78.5299 36.1501 79.8099 36.5401 81.0999 36.9201C83.1499 37.5401 85.1899 38.1601 87.2399 38.7801C87.7099 38.9201 88.1799 39.0701 88.6599 39.2101L88.1799 38.3801C88.1499 37.8001 88.1599 38.1101 88.1799 38.2501C88.1799 38.4101 88.1999 38.5701 88.1999 38.7201C88.2299 39.3401 88.2599 39.9501 88.2799 40.5701C88.3699 42.9301 88.4199 45.2801 88.4599 47.6401C88.5199 51.4401 88.5199 55.2401 88.4799 59.0401C88.4299 64.0601 88.2999 69.0801 88.1099 74.1001C87.9199 79.1201 87.6799 84.2901 87.4099 89.3801C87.3399 90.6101 87.2799 91.8401 87.2099 93.0801C87.1799 93.6701 87.1399 94.2701 87.1099 94.8601C87.0899 95.1401 87.0799 95.4301 87.0599 95.7101C87.0599 95.8501 87.0399 95.9901 87.0399 96.1301C87.0399 96.2001 87.0399 96.2701 87.0299 96.3401C87.0299 96.3601 87.0099 96.7001 87.0299 96.4601C86.8999 98.6601 86.7599 100.86 86.6199 103.05C86.4999 104.96 86.3699 106.86 86.2399 108.77C86.1799 109.6 86.1299 110.44 86.0699 111.27C86.0399 111.64 86.0199 112 85.9899 112.37C85.9799 112.54 85.9699 112.71 85.9499 112.88C85.9499 112.99 85.9199 113.11 85.9099 113.22C85.8899 113.37 85.9499 113.05 85.9099 113.2C85.8899 113.27 85.8799 113.34 85.8599 113.4C85.8499 113.45 85.8299 113.51 85.8099 113.56C85.8599 113.4 85.8099 113.53 85.8099 113.56C85.7699 113.66 85.7299 113.76 85.6799 113.86C85.5799 114.08 85.5399 114.15 85.3699 114.39C85.1199 114.74 84.8399 115.03 84.4999 115.29C83.7699 115.84 82.8999 116.16 81.9799 116.21C80.9099 116.27 79.8299 115.92 78.7899 115.71C77.6599 115.48 76.5299 115.26 75.3899 115.07C74.5199 114.93 73.6399 114.79 72.7599 114.75C72.4999 114.74 72.2199 114.73 71.9599 114.78C71.8499 114.8 71.7399 114.83 71.6399 114.88C71.5199 114.94 71.6999 114.87 71.7199 114.87C71.7999 114.87 71.9099 114.96 71.9399 115C72.0699 115.16 72.0599 115.23 72.0299 115.14C71.9899 115.05 72.1299 115.45 72.0899 115.32C72.0299 115.1 72.1299 115.63 72.1099 115.46C72.1099 115.41 72.0899 115.35 72.0899 115.3C72.0699 115.13 72.0499 114.58 72.0699 115.14C72.0699 114.94 72.0499 114.74 72.0399 114.53C72.0199 113.98 72.0199 113.42 72.0099 112.87C72.0099 111.24 72.0299 109.61 72.0599 107.99C72.0999 105.78 72.1499 103.57 72.2199 101.36C72.2899 98.7101 72.3699 96.0701 72.4599 93.4201C72.5599 90.4801 72.6599 87.5401 72.7699 84.6001C72.8799 81.5101 72.9999 78.4201 73.1199 75.3201C73.2399 72.2201 73.3599 69.1201 73.4899 66.0201C73.6199 62.9201 73.7299 60.0701 73.8599 57.1001C73.9699 54.4301 74.0799 51.7601 74.1999 49.0901C74.2999 46.8201 74.3999 44.5601 74.4899 42.2901C74.5599 40.6001 74.6399 38.9101 74.7099 37.2201C74.7099 37.0601 74.7199 36.9101 74.7299 36.7501C74.7299 36.5401 74.6999 36.9901 74.7299 36.8201C74.7299 36.7801 74.7799 36.6101 74.7299 36.7501C74.7899 36.6301 74.6799 36.9201 74.7299 36.7501C74.6799 36.8601 74.8299 36.5201 74.7999 36.5801C74.7999 36.5801 74.9099 36.4201 74.9499 36.3701C75.4899 35.6801 76.4499 35.5001 77.2699 35.7301C77.4199 35.7701 77.5799 35.4801 77.6199 35.4001C77.7299 35.1701 77.7699 34.8601 77.7599 34.6001C77.7599 34.2201 77.7099 33.6001 77.2599 33.4801L77.2699 33.5101Z" fill="#DD0B15"/>
<path d="M14.8799 65.3504C14.8799 65.3504 44.9099 60.4604 58.0499 62.3404C71.1899 64.2204 100.47 69.8704 107.23 69.4904C113.99 69.1104 145.52 65.7104 145.52 65.7104V79.2804C145.52 79.2804 114.74 83.4204 106.1 81.9204C97.4599 80.4204 77.1999 80.0404 77.1999 80.0404C77.1999 80.0404 56.5499 75.1604 46.4199 75.5304C36.2899 75.9004 20.1399 76.0004 20.1399 76.0004L14.8799 78.1604V65.3604V65.3504Z" fill="#DD0B15"/>
<path d="M14.8799 67.6004C15.4799 67.5004 16.0899 67.4104 16.6999 67.3204C18.2999 67.0804 19.9099 66.8504 21.5099 66.6304C23.8199 66.3104 26.1399 66.0204 28.4599 65.7404C31.1799 65.4204 33.8999 65.1304 36.6199 64.8904C39.3399 64.6504 42.2399 64.4304 45.0499 64.3004C47.6699 64.1804 50.2999 64.1204 52.9199 64.1904C55.1099 64.2504 57.2599 64.4704 59.4199 64.7904C61.8399 65.1504 64.2599 65.5504 66.6799 65.9504C69.5199 66.4204 72.3599 66.9004 75.1999 67.3804C78.1899 67.8804 81.1699 68.3904 84.1599 68.8804C87.1499 69.3704 89.8699 69.8104 92.7199 70.2404C95.1999 70.6104 97.6799 70.9704 100.18 71.2704C102.01 71.4904 103.85 71.6904 105.69 71.7604C106.92 71.8004 108.13 71.7004 109.35 71.6104C111.18 71.4604 113.01 71.3004 114.84 71.1204C117.16 70.9004 119.48 70.6704 121.8 70.4404C124.28 70.1904 126.76 69.9404 129.23 69.6804C131.57 69.4404 133.91 69.2004 136.25 68.9504C138.12 68.7504 139.99 68.5604 141.85 68.3604C142.93 68.2504 144 68.1304 145.08 68.0104C145.22 67.9904 145.36 67.9804 145.5 67.9604L144.51 65.7104V70.2804C144.51 72.7204 144.51 75.1604 144.51 77.6004V79.2704L145.5 77.0204C144.88 77.1004 144.25 77.1804 143.63 77.2604C142 77.4704 140.37 77.6704 138.74 77.8604C136.44 78.1304 134.14 78.3804 131.84 78.6204C129.22 78.8904 126.6 79.1404 123.98 79.3504C121.36 79.5604 118.83 79.7404 116.25 79.8604C114.04 79.9604 111.82 80.0204 109.61 79.9604C108.75 79.9304 107.9 79.8904 107.04 79.7904C106.14 79.6904 105.26 79.5104 104.36 79.3904C101.75 79.0304 99.1199 78.8104 96.4899 78.6204C93.5999 78.4104 90.7199 78.2604 87.8299 78.1304C85.4499 78.0204 83.0699 77.9404 80.6799 77.8704C79.8999 77.8504 79.1299 77.8304 78.3499 77.8104C77.9799 77.8104 77.5999 77.8104 77.2299 77.7904C77.0799 77.7804 76.9399 77.7304 76.7999 77.7004C76.2599 77.5804 75.7299 77.4604 75.1899 77.3404C73.1599 76.8904 71.1299 76.4704 69.0899 76.0604C66.2999 75.5104 63.4999 75.0004 60.6899 74.5604C57.8799 74.1204 54.8899 73.7104 51.9699 73.4704C50.6699 73.3604 49.3599 73.2804 48.0599 73.2704C46.7599 73.2604 45.3799 73.3204 44.0399 73.3704C40.7399 73.4704 37.4299 73.5404 34.1299 73.5904C31.1599 73.6404 28.1899 73.6804 25.2299 73.7104C23.5999 73.7304 21.9799 73.7404 20.3499 73.7504C19.9699 73.7504 19.6499 73.9204 19.2999 74.0704L16.3899 75.2704C15.7999 75.5104 15.1999 75.7604 14.6099 76.0004L15.8599 78.1704V65.3704C15.8599 64.8604 15.7899 64.2504 15.5699 63.7804C15.4699 63.5604 15.1999 63.0904 14.8699 63.1204C13.9999 63.2104 13.8799 64.7704 13.8799 65.3704V69.6804C13.8799 71.9804 13.8799 74.2704 13.8799 76.5704V78.1704C13.8799 78.7404 14.0799 80.7704 15.1299 80.3404C16.6599 79.7104 18.1899 79.0804 19.7199 78.4504C19.9399 78.3604 20.1599 78.2704 20.3899 78.1804L20.1299 78.2604C21.1499 78.2604 22.1699 78.2504 23.1799 78.2404C25.6599 78.2204 28.1499 78.1904 30.6299 78.1504C33.7299 78.1104 36.8199 78.0504 39.9199 77.9804C41.4499 77.9404 42.9699 77.9004 44.4999 77.8604C45.7299 77.8204 46.9599 77.7604 48.1999 77.7804C50.7699 77.8204 53.3399 78.0804 55.8899 78.3904C58.6699 78.7304 61.4299 79.1704 64.1799 79.6604C66.6199 80.0904 69.0599 80.5604 71.4899 81.0604C73.0699 81.3904 74.6599 81.7304 76.2299 82.0904C76.6799 82.1904 77.0899 82.3104 77.5499 82.3204C78.8999 82.3504 80.2499 82.3904 81.6099 82.4304C83.9499 82.5004 86.2899 82.5904 88.6299 82.7004C91.3499 82.8304 94.0599 82.9804 96.7799 83.1804C99.2599 83.3604 101.73 83.5804 104.2 83.9104C105.07 84.0304 105.93 84.1904 106.8 84.3004C107.57 84.4004 108.34 84.4504 109.12 84.4804C111.13 84.5604 113.14 84.5204 115.15 84.4504C117.54 84.3604 119.93 84.2104 122.31 84.0304C124.69 83.8504 127.29 83.6204 129.78 83.3704C132.06 83.1504 134.35 82.9004 136.63 82.6404C138.43 82.4404 140.23 82.2204 142.03 82.0004C143.06 81.8704 144.09 81.7404 145.11 81.6104C145.25 81.5904 145.38 81.5704 145.52 81.5604C146.39 81.4404 146.51 79.9404 146.51 79.3104V74.7404C146.51 72.3004 146.51 69.8604 146.51 67.4204V65.7504C146.51 65.2604 146.45 64.6104 146.22 64.1604C146.09 63.9104 145.87 63.4604 145.52 63.5004C144.94 63.5604 144.36 63.6204 143.78 63.6904C142.26 63.8504 140.75 64.0104 139.23 64.1704C137.08 64.4004 134.93 64.6204 132.78 64.8504C130.32 65.1104 127.87 65.3604 125.41 65.6104C122.95 65.8604 120.55 66.1004 118.12 66.3404C116.01 66.5504 113.9 66.7504 111.79 66.9304C110.34 67.0604 108.88 67.1904 107.42 67.2704C105.96 67.3504 104.57 67.2404 103.16 67.1104C100.95 66.9104 98.7499 66.6204 96.5499 66.3204C93.8299 65.9404 91.1199 65.5304 88.3999 65.1004C85.4499 64.6304 82.4999 64.1404 79.5499 63.6504C76.5999 63.1604 73.6599 62.6604 70.7199 62.1604C68.0599 61.7104 65.3999 61.2704 62.7299 60.8404C60.5799 60.5004 58.4299 60.1204 56.2599 59.9204C53.8499 59.7004 51.4299 59.6704 49.0099 59.7104C46.2399 59.7504 43.4799 59.9004 40.7199 60.0904C37.9599 60.2804 35.1299 60.5504 32.3299 60.8404C29.7799 61.1104 27.2199 61.4104 24.6799 61.7404C22.6899 62.0004 20.6999 62.2704 18.7099 62.5604C17.5799 62.7204 16.4499 62.8904 15.3199 63.0704C15.1699 63.0904 15.0299 63.1204 14.8799 63.1404C14.0099 63.2804 13.8799 64.7004 13.8899 65.3904C13.8999 65.9204 13.9399 66.5004 14.1799 66.9804C14.2999 67.2204 14.5399 67.6904 14.8799 67.6404V67.6004Z" fill="#DD0B15"/>
</g>
<defs>
<clipPath id="clip0_3416_10109">
<rect width="151.45" height="280.67" fill="white"/>
</clipPath>
</defs>
</svg>
