<svg width="152" height="281" viewBox="0 0 152 281" fill="none" xmlns="http://www.w3.org/2000/svg">
<g clip-path="url(#clip0_3416_10088)">
<path d="M147.12 28.9601C146.32 41.3301 146.27 53.7301 146.13 66.1301C145.99 78.5301 145.9 90.4201 145.94 102.57C145.94 106.06 145.96 109.56 145.98 113.05C145.98 114.66 146.02 116.28 145.99 117.89C145.97 118.78 145.99 118.68 145.86 119.54C145.65 120.88 145.69 122.01 145.85 123.36C146.03 124.89 147.84 126.92 149.36 125.42C151.83 122.99 151.39 118.64 151.36 115.41C151.33 112.18 151.31 109.25 151.28 106.18C151.23 100.03 151.19 93.8701 151.14 87.7201C151.04 75.3301 151.05 62.9401 150.95 50.5401C150.92 47.0501 150.92 43.5501 150.95 40.0601C150.98 36.5701 150.76 33.0801 150.61 29.5901C150.57 28.6101 150.15 27.1701 149.01 26.9801C147.95 26.8101 147.18 28.0101 147.12 28.9601Z" fill="#1D1D1B"/>
<path d="M6.19993 269.4L6.95993 26.2804C6.95993 26.2804 -0.670072 19.3404 3.90993 10.3704C8.48993 1.4004 14.0799 7.9204 14.0799 7.9204C14.0799 7.9204 18.9099 14.4504 16.1099 21.3804C13.3099 28.3104 12.2999 25.8704 12.2999 25.8704V37.2904L12.5499 270.21C12.5499 270.21 10.2599 281.63 6.18993 269.39L6.19993 269.4Z" fill="#1D1D1B"/>
<path d="M8.66999 269.4C8.66999 266.59 8.68999 263.78 8.69999 260.97C8.71999 253.45 8.74999 245.93 8.76999 238.41C8.79999 227.53 8.83999 216.65 8.86999 205.77C8.90999 192.89 8.94999 180.01 8.98999 167.13C9.02999 153.61 9.06999 140.08 9.11999 126.56C9.15999 113.75 9.19999 100.93 9.23999 88.1202C9.26999 77.3702 9.30999 66.6302 9.33999 55.8802C9.35999 48.5702 9.38999 41.2702 9.40999 33.9602C9.40999 32.0002 9.41999 30.0402 9.42999 28.0802C9.42999 25.5302 9.56999 22.7402 7.58999 20.8202C8.65999 21.8602 7.81999 21.0302 7.55999 20.7502C7.12999 20.2702 6.72999 19.7602 6.35999 19.2302C6.13999 18.9202 5.94999 18.6002 5.73999 18.2802C5.40999 17.7902 5.94999 18.4702 5.86999 18.5202C5.86999 18.5202 5.53999 17.8702 5.51999 17.8302C5.33999 17.4602 5.21999 17.0602 5.03999 16.7002C4.74999 16.1502 5.34999 17.8402 5.10999 16.8902C5.03999 16.6002 4.95999 16.3202 4.88999 16.0302C4.60999 14.9602 5.06999 17.2902 4.92999 16.1702C4.86999 15.6702 5.07999 15.5402 4.92999 16.7202C4.95999 16.4802 4.94999 16.1502 4.92999 15.9002C4.85999 15.1302 4.78999 17.3902 4.92999 16.2102C5.06999 15.0302 4.67999 17.0702 4.89999 16.3302C4.98999 16.0302 5.05999 15.7302 5.13999 15.4302C4.89999 16.3002 5.05999 15.6602 5.13999 15.4702C5.34999 15.0302 5.52999 14.5702 5.75999 14.1402C6.12999 13.4502 5.30999 14.7302 6.01999 13.7202C6.19999 13.4602 6.37999 13.2002 6.56999 12.9502C6.74999 12.7302 6.92999 12.5002 7.11999 12.3002C6.79999 12.6402 7.11999 12.3002 7.18999 12.2402C7.52999 11.9602 7.89999 11.7302 8.28999 11.5202C8.37999 11.4702 9.08999 11.2402 8.48999 11.4002C8.69999 11.3502 8.90999 11.3102 9.11999 11.2902C9.44999 11.2602 9.78999 11.2602 10.12 11.3102C10.24 11.3302 10.38 11.3702 10.5 11.3802C11.1 11.4102 10.02 11.1702 10.57 11.3902C11.12 11.6102 11.62 11.8702 12.09 12.2102C12.29 12.3502 12.47 12.5002 12.66 12.6502C13.3 13.1602 12.58 12.8702 12.55 12.5302C12.55 12.6102 12.79 12.7702 12.85 12.8602C13 13.0902 13.65 14.1202 13.29 13.5302C12.91 12.9002 13.46 13.8902 13.56 14.0802C13.8 14.5802 14.01 15.0902 14.21 15.6102C14.59 16.5402 14.08 14.8502 14.17 15.5102C14.21 15.7702 14.33 16.0502 14.39 16.3102C14.39 16.3002 14.57 16.9402 14.54 16.9802L14.41 16.3302C14.45 16.5702 14.48 16.8102 14.5 17.0402C14.29 16.9502 14.5 15.7902 14.48 16.6502C14.48 16.9802 14.38 18.2902 14.5 16.6902C14.48 16.9402 14.48 17.6802 14.56 16.5302C14.54 16.7502 14.24 17.7702 14.49 17.0102C14.26 17.7102 13.94 18.3902 13.63 19.0502C13.48 19.3802 13.31 19.6902 13.16 20.0102C13.04 20.2502 12.73 20.5402 13.23 19.8902C13.03 20.1502 12.76 20.4802 12.61 20.7702C12.34 21.2802 13.07 20.3602 12.83 20.5702C12.76 20.6302 12.68 20.7002 12.6 20.7402C12.08 20.9602 13.29 20.6702 12.81 20.6602C12.64 20.6602 13.55 20.9902 13.16 20.7402C13.65 21.0602 13.81 21.4102 14.02 21.8902C13.52 20.7402 12.48 19.7002 11.32 20.7302C10.03 21.8702 9.79999 24.2902 9.79999 25.8702C9.79999 30.3202 9.79999 34.7602 9.79999 39.2102C9.79999 43.6602 9.79999 48.0402 9.80999 52.4602C9.80999 60.2602 9.82999 68.0702 9.83999 75.8702C9.84999 86.0102 9.85999 96.1502 9.86999 106.29C9.87999 117.79 9.89999 129.29 9.90999 140.79C9.91999 152.69 9.93999 164.6 9.94999 176.5C9.95999 187.72 9.96999 198.95 9.98999 210.17C9.99999 219.79 10.01 229.41 10.02 239.02C10.02 245.96 10.04 252.91 10.04 259.85C10.04 263.16 10.02 266.47 10.05 269.79C10.05 269.93 10.05 270.08 10.05 270.22L10.39 267.38C10.3 267.83 10.18 268.27 10.05 268.71C9.91999 269.15 9.51999 269.76 10.19 268.32C10.1 268.5 10.05 268.7 9.96999 268.89C9.87999 269.1 9.76999 269.31 9.68999 269.52C9.42999 270.14 10.32 268.73 9.78999 269.33C9.75999 269.36 9.44999 269.72 9.45999 269.74C9.43999 269.68 10.16 269.15 9.72999 269.44C9.66999 269.48 9.60999 269.53 9.53999 269.55C9.73999 269.49 10.11 269.52 9.62999 269.44C9.28999 269.38 9.94999 269.52 9.94999 269.54C9.94999 269.52 9.70999 269.43 9.71999 269.41C9.69999 269.45 9.18999 268.89 9.64999 269.39C10.02 269.78 9.68999 269.41 9.62999 269.32C9.42999 269.01 9.01999 268.29 9.39999 269.05C9.19999 268.65 9.00999 268.26 8.82999 267.86C8.69999 267.56 8.57999 267.25 8.45999 266.94C8.41999 266.83 8.09999 265.95 8.30999 266.57C7.85999 265.24 6.45999 262.44 4.91999 264.55C3.52999 266.47 3.27999 270.04 4.02999 272.25C4.81999 274.57 7.04999 282.47 10.99 280.32C13.1 279.17 14.02 275.69 14.54 273.56C14.93 271.96 14.99 270.43 14.99 268.81C14.99 264.3 14.99 259.78 14.98 255.27C14.98 246.98 14.96 238.7 14.95 230.41C14.94 219.49 14.93 208.57 14.91 197.65C14.9 185.36 14.88 173.06 14.87 160.77C14.86 148.22 14.84 135.66 14.83 123.11C14.82 111.53 14.8 99.9602 14.79 88.3802C14.78 79.0002 14.77 69.6302 14.76 60.2502C14.76 54.2202 14.75 48.1902 14.74 42.1602C14.74 38.8402 14.74 35.5302 14.74 32.2102V25.8802L10.51 29.8602C11.06 31.1202 12.19 32.3702 13.66 31.7002C15.72 30.7702 16.85 27.7302 17.64 25.8202C20.61 18.6602 19.77 10.2002 15.67 3.65017C14.43 1.58017 11.71 -0.179826 9.23999 0.0101741C6.26999 0.240174 4.20999 2.74017 2.83999 5.15017C0.639986 9.02017 -0.220014 13.3502 0.0499858 17.7902C0.359986 22.9702 2.43999 28.1602 6.30999 31.7002L4.48999 26.2802C4.48999 28.4502 4.47999 30.6202 4.46999 32.7802C4.44999 38.6802 4.42999 44.5802 4.40999 50.4802C4.37999 59.2102 4.35999 67.9302 4.32999 76.6602C4.29999 87.3102 4.25999 97.9502 4.22999 108.6C4.18999 120.22 4.15999 131.84 4.11999 143.46C4.07999 155.27 4.04999 167.08 4.00999 178.89C3.97999 189.83 3.93999 200.76 3.90999 211.7C3.87999 220.97 3.84999 230.25 3.81999 239.52C3.79999 246.19 3.77999 252.86 3.75999 259.52C3.75999 262.67 3.71999 265.82 3.72999 268.97C3.72999 269.11 3.72999 269.25 3.72999 269.38C3.72999 270.83 4.03999 275 6.20999 275C8.37999 275 8.67999 270.69 8.68999 269.38L8.66999 269.4Z" fill="#1D1D1B"/>
<path d="M148.37 27.0604C147.55 27.4104 146.72 27.6304 145.89 27.9204C144.92 28.2604 144 28.7804 143.02 29.1104C141.23 29.7104 139.35 30.1604 137.48 30.4804C133.47 31.1704 129.37 31.2204 125.31 31.1104C120.67 30.9804 116.04 30.6704 111.41 30.4204C106.5 30.1604 101.59 29.9904 96.6899 29.6104C92.1399 29.2604 87.8399 28.2704 83.5399 26.7604C79.2399 25.2504 75.4499 23.5804 71.3499 22.1304C66.9499 20.5704 62.4299 19.4804 57.7799 19.0104C53.1299 18.5404 48.1799 18.6204 43.3899 18.8504C32.5099 19.3904 21.7399 21.1104 11.1799 23.7704C9.63987 24.1604 9.18987 26.7404 9.19987 27.9904C9.24987 36.3704 9.29987 44.7504 9.35987 53.1304C9.35987 54.3104 9.36987 55.4904 9.37987 56.6704C9.37987 58.1304 10.3699 61.4204 12.4399 61.0804C16.9599 60.3504 21.5299 59.8404 26.0899 59.4204C34.6799 58.6304 43.4099 58.1604 52.0199 58.9604C52.9999 59.0504 53.9799 59.1604 54.9599 59.3004C55.4499 59.3704 55.9399 59.4504 56.4399 59.5304C57.0499 59.6304 56.5099 59.5404 56.3899 59.5204C56.7299 59.5904 57.0699 59.6504 57.4099 59.7204C59.1099 60.0804 60.7799 60.5604 62.3999 61.2104C67.3799 63.2304 72.4999 64.8504 77.7099 66.1504C88.5799 68.8804 100.03 70.7504 111.26 70.4304C117.62 70.2504 124.13 69.5004 130.38 68.2904C135.04 67.3904 139.82 66.2004 143.57 63.1304C145.37 61.6604 145.49 58.2004 144.58 56.2404C143.67 54.2804 141.91 53.0204 140.03 54.5504C139.87 54.6804 139.7 54.8004 139.55 54.9304C139.01 55.4104 140.14 54.5904 139.71 54.8304C139.35 55.0304 139.02 55.2604 138.66 55.4604C137.87 55.8904 137.04 56.2504 136.21 56.5704C135.38 56.8904 134.47 57.1804 133.58 57.4304C133 57.6004 132.41 57.7404 131.82 57.8904C131.96 57.8604 132.43 57.7604 131.76 57.9004C131.33 57.9904 130.9 58.0804 130.47 58.1704C124.8 59.2904 118.98 59.8504 113.22 60.2504C102.66 60.9804 91.7999 59.5504 81.6999 57.3204C76.3099 56.1304 70.9599 54.6504 65.7899 52.7104C62.0099 51.2904 58.3599 50.2704 54.3299 49.7804C45.7899 48.7404 37.0399 49.2304 28.4899 50.0204C23.0499 50.5204 17.6099 51.1604 12.2299 52.0904L15.2899 56.5004C15.1799 48.1204 15.0599 39.7404 14.9499 31.3604C14.9299 30.1804 14.9199 29.0004 14.8999 27.8204L12.9199 32.0404C22.1099 29.6104 31.5199 28.0304 40.9899 27.2304C50.4599 26.4304 59.7199 26.2104 68.7599 29.0404C77.3299 31.7204 85.4099 35.6804 94.4699 36.5204C99.3399 36.9704 104.26 37.0104 109.15 37.2004C114.04 37.3904 118.7 37.5804 123.47 37.7604C128.24 37.9404 132.72 37.9904 137.28 37.2604C139.51 36.9004 141.69 36.3804 143.78 35.4904C144.82 35.0504 145.83 34.5504 146.79 33.9804C147.9 33.3204 148.83 32.3404 149.72 31.4104C150.47 30.6304 150.62 29.3804 150.29 28.3804C150.04 27.6004 149.35 26.6104 148.39 27.0304L148.37 27.0604Z" fill="#1D1D1B"/>
<path d="M12.29 129.89C15.47 127.49 18.73 125.28 22.51 123.91C26.29 122.54 30.34 122.03 34.33 121.97C44.24 121.82 53.76 123.96 63.4 125.95C73.58 128.06 83.83 129.96 94.17 131.06C104.51 132.16 114.58 131.9 124.81 131.16C127.7 130.95 130.59 130.76 133.48 130.51C136.13 130.28 138.87 130.15 141.48 129.63C144.09 129.11 146.67 128.17 148.51 126.12C150.98 123.37 152.02 119.56 151.14 115.94C150.74 114.27 149.53 111.93 147.44 112.44C145.35 112.95 144.59 115.59 144.71 117.43C144.77 118.35 144.76 117.28 144.78 117.13C144.74 117.45 144.5 117.9 144.88 116.91C144.84 117.01 144.73 117.57 144.88 117.04C145.04 116.47 144.77 117.16 144.71 117.3C144.58 117.66 144.75 117.32 144.84 117.2C144.69 117.39 144.51 117.57 144.33 117.73C144.15 117.89 143.97 118.06 143.77 118.2C144.2 117.88 143.67 118.23 143.47 118.33C141.81 119.13 139.92 119.15 137.87 119.21C132.84 119.37 127.83 119.79 122.8 120.12C112.82 120.78 102.9 120.71 92.93 119.91C82.96 119.11 73.29 117.61 63.56 115.9C53.83 114.19 44.17 111.86 34.5 113.04C29.85 113.61 25.29 114.84 21.04 116.79C18.92 117.77 16.92 118.94 15.01 120.29C14.11 120.93 13.19 121.61 12.37 122.36C11.42 123.23 10.64 124.4 9.90996 125.46C8.82996 127.01 9.85996 131.68 12.28 129.86L12.29 129.89Z" fill="#1D1D1B"/>
<path d="M15.36 40.4103C17.09 39.4803 18.88 38.8403 20.71 38.1603C22.54 37.4803 24.4 36.7903 26.33 36.3603C30.13 35.5103 34.07 35.2103 37.95 35.1703C46.44 35.0803 55.1 35.8303 63.52 36.9303C68 37.5103 72.35 38.5203 76.62 40.0203C80.89 41.5203 85.33 43.4203 89.79 44.8203C98.35 47.5003 107.4 48.8503 116.38 48.6803C126.42 48.4903 136.91 46.6003 146.11 42.4403L142.27 35.2703C139.56 41.1803 138.94 47.7403 139.76 54.1403C139.91 55.3103 140.8 57.1103 142.06 57.4703C146.69 58.7703 148.8 53.0803 147.97 49.4003C147.51 47.3703 145.47 44.6103 143.25 46.6303C141.61 48.1303 140.84 50.0203 140.35 52.1403L144.14 48.6903C138.99 47.3503 134.26 49.5403 129.42 51.0503C125.01 52.4303 120.6 53.3703 116 53.9403C106.87 55.0803 97.17 54.9703 88.37 53.1903C83.71 52.2503 79.13 50.9003 74.69 49.1703C70.25 47.4403 65.72 45.2503 61.13 43.5303C51.94 40.0803 42.12 39.1003 32.52 41.3803C29.96 41.9903 27.45 42.8003 25.03 43.8403C23.83 44.3603 22.66 44.9803 21.41 45.3903C20.96 45.5303 20.65 45.5703 20.03 45.5603C19.86 45.5603 19.68 45.5603 19.51 45.5203C20.16 45.6303 19.14 45.3303 19.1 45.3203C18.99 45.2803 18.47 44.9903 19.01 45.3303C18.82 45.2103 18.63 45.0603 18.45 44.9203C18.27 44.7803 18.11 44.6103 17.95 44.4503C18.58 45.0403 17.91 44.3103 17.8 44.1603C17.83 44.1903 18.15 44.8703 17.96 44.4103C17.74 43.8803 18.13 45.3303 17.99 44.4503C18.07 44.9103 18.07 45.2503 18.02 45.7003C18.14 44.6203 17.83 46.3203 18.02 45.7303C18.18 45.1903 17.62 46.2403 18 45.8303C18.21 45.6003 18.48 45.3103 18.1 45.6703C18.26 45.5203 18.43 45.3603 18.59 45.2103L18.85 45.0003C18.62 45.1503 18.61 45.1603 18.82 45.0403C19.02 44.9303 19.22 44.8303 19.42 44.7403C19.56 44.6803 20.13 44.4803 19.71 44.5903C20.24 44.4603 20.83 44.4903 21.37 44.5503L18.24 38.6503C18 39.8403 17.76 41.0303 17.51 42.2203C17.19 43.7903 17.61 45.9203 18.73 47.0903C19.59 47.9903 21.15 48.5203 22.13 47.3703C24.97 44.0603 28.21 41.0403 31.5 38.1903L26.81 34.2903C26.86 34.8603 26.89 35.4303 26.89 36.0103C26.89 35.1803 26.87 36.2003 26.83 36.4803C26.83 36.5203 26.54 37.8403 26.75 37.0403C26.6 37.5903 26.4 38.1303 26.18 38.6603C25.49 40.3503 25.73 42.7903 26.8 44.2903C27.63 45.4703 29.38 46.1703 30.52 44.9303C32.15 43.1603 33.78 41.3903 35.42 39.6403L30.83 36.9503L31.59 41.7903C31.87 43.5703 33.44 45.8103 35.49 45.0003C38.28 43.9003 40.85 42.1803 42.93 40.0203L38.21 37.2503C38.28 37.5603 38.34 37.8703 38.41 38.1803L38.49 38.6503C38.45 38.2403 38.44 38.2003 38.46 38.5503C38.45 38.8603 38.46 39.2003 38.48 39.5003C38.53 40.3003 38.61 38.4603 38.44 39.8703C38.23 41.6403 38.48 43.5903 39.71 44.9703C40.77 46.1503 42.03 46.1603 43.27 45.2603C45.84 43.4103 47.97 41.1303 49.82 38.5503L44.59 32.7003C44.11 34.5103 43.63 36.3303 43.15 38.1403C42.67 39.9503 42.52 42.4603 43.81 44.1303C44.79 45.4103 46.44 46.0603 47.77 44.8103C49.88 42.8203 51.99 40.8203 54.1 38.8303L49.07 34.6503C49 36.7703 48.93 38.8903 48.85 41.0103C48.76 43.7903 51.02 47.2403 53.9 45.2103C56.12 43.6403 58.78 42.2403 61.37 41.1203L57.15 35.0303C56.67 37.5703 56.19 40.1103 55.71 42.6503C55.19 45.4103 57.3 50.9003 60.73 48.2403C63.55 46.0603 66.38 43.8903 69.21 41.7103L64.42 34.7903C63.75 37.2203 62.92 39.6003 61.94 41.9303C61.2 43.6803 61.48 46.0703 62.35 47.6803C63.03 48.9503 64.44 50.1503 65.97 49.4503C69.69 47.7503 73.18 45.7003 76.55 43.3803C74.93 41.0403 73.3 38.6903 71.68 36.3503C71.01 38.2703 70.35 40.1903 69.68 42.1103C69.01 44.0303 69.16 46.1803 70.09 47.9103C70.79 49.2203 72.18 50.3603 73.74 49.6903C77.1 48.2503 80.46 46.8103 83.82 45.3903L79.75 37.7903C79.44 38.5703 79.11 39.3503 78.77 40.1203C78.61 40.4703 78.45 40.8203 78.29 41.1703C78.62 40.4503 78.01 41.7503 78 41.7503C77.25 43.2603 76.43 44.7403 75.56 46.1903C74.34 48.2403 74.34 51.0403 75.46 53.1303C75.87 53.8903 76.46 54.6603 77.31 54.9803C78.32 55.3603 79.13 54.9503 79.97 54.3803C83.87 51.7203 87.76 49.0403 91.64 46.3603L87.25 38.2003C85.6 41.2803 83.91 44.3503 82.23 47.4203C81.21 49.2903 80.93 51.8703 81.84 53.8703C82.5 55.3003 84.05 57.1203 85.84 56.2103C89.75 54.2203 93.55 52.0203 97.22 49.6203L93.55 40.6903C92.21 43.1603 90.87 45.6403 89.54 48.1203C88.51 50.0403 88.2 52.6503 89.15 54.6903C89.79 56.0903 91.45 58.0803 93.22 57.0803C96.83 55.0303 100.45 52.9903 104.06 50.9403L100.38 41.9803C98.37 44.8603 96.35 47.7303 94.33 50.6003C93.13 52.3103 93.07 55.3203 93.93 57.1903C94.57 58.5903 96.24 60.6003 98.01 59.5803C101.66 57.5003 105.32 55.4203 108.96 53.3103C107.73 50.3103 106.49 47.3003 105.26 44.3003C103.11 47.0603 100.95 49.8103 98.8 52.5603C97.34 54.4203 97.65 57.7703 98.7 59.7003C99.75 61.6303 101.53 62.4003 103.34 60.9903C106.55 58.4903 110.07 56.4303 114.03 54.6903L109.82 46.8303L108.29 52.1503C107.72 54.1503 107.71 56.2603 108.71 58.1303C109.36 59.3503 110.95 60.8303 112.48 59.9703C116.98 57.4303 121.26 54.4903 125.23 51.2003L119.95 45.3103C119.63 46.9503 119.3 48.5903 118.97 50.2303C118.64 51.8703 119 53.9603 119.99 55.3503C120.65 56.2803 122.19 57.4303 123.4 56.6303C125.79 55.0503 128.18 53.4703 130.57 51.8903L126.12 46.9703C126.21 47.8303 126.29 48.6803 126.38 49.5403C126.59 51.5803 127.82 55.7103 130.81 54.4403C132.59 53.6903 134.23 52.6103 135.68 51.3403C134.47 48.4103 133.26 45.4703 132.05 42.5403C129.93 45.0903 129.56 48.9503 131.54 51.7603C132.73 53.4403 134.66 54.3403 136.69 53.9403C141.15 53.0603 143.61 48.4103 143.3 44.1003C143.17 42.2403 142.32 39.1803 139.93 39.2403C137.54 39.3003 136.68 42.4403 136.81 44.2603C136.87 45.1203 136.87 43.8903 136.91 43.6803C136.94 43.4303 137.03 43.2003 137.18 42.9903L137 43.2803C136.95 43.0903 137.4 42.8603 136.86 43.3703C136.52 43.7003 137.47 43.1603 136.66 43.5203C136.45 43.6103 136.25 43.7103 136.03 43.7803C136.51 43.6003 135.94 43.7803 135.76 43.7903C135.59 43.8003 135.42 43.7903 135.25 43.7803L135.53 43.8103C135.83 44.1903 136.3 44.3603 136.47 44.9103L136.99 47.4903V47.2503C136.85 48.1203 136.72 48.9903 136.59 49.8603L136.67 49.6403L135.5 51.5203L135.67 51.3203C137.28 49.4403 137.77 46.5403 136.71 44.2503C135.83 42.3503 133.94 40.8903 132.04 42.5203C131.4 43.0703 131.25 43.2003 130.73 43.5003C130.09 43.8703 129.43 44.1803 128.75 44.4603L133.18 49.3603C133.1 48.5003 133.02 47.6503 132.95 46.7903C132.81 45.2803 132.54 43.8903 131.5 42.7303C130.82 41.9703 129.53 41.2103 128.49 41.8703C126.09 43.4003 123.69 44.9303 121.29 46.4703L125.72 52.8703C126.06 51.2403 126.4 49.6003 126.75 47.9703C127.35 45.1303 125.01 39.2103 121.47 42.0803C117.93 44.9503 114.44 47.3303 110.33 49.6003L114.52 57.4203C115.04 55.6503 115.56 53.8903 116.08 52.1203C116.67 50.1203 116.66 47.9803 115.65 46.1103C114.92 44.7603 113.49 43.5603 111.86 44.2603C107.42 46.1703 103.29 48.7003 99.49 51.6703L104.02 60.1003C106.17 57.3503 108.33 54.5903 110.49 51.8503C111.76 50.2403 111.71 47.0403 110.89 45.2403C110.24 43.8403 108.57 41.8203 106.79 42.8403C103.13 44.9203 99.49 47.0403 95.85 49.1503L99.54 58.1303C101.55 55.2503 103.56 52.3703 105.58 49.4903C106.78 47.7803 106.83 44.7903 105.97 42.9203C105.33 41.5203 103.67 39.5303 101.9 40.5303C98.29 42.5803 94.67 44.6203 91.06 46.6703L94.74 55.6303C96.08 53.1503 97.41 50.6603 98.74 48.1703C99.76 46.2503 100.07 43.6603 99.13 41.6203C98.53 40.3303 96.76 38.1103 95.07 39.2403C91.41 41.6903 87.62 43.9403 83.72 46.0003C84.92 48.9303 86.13 51.8603 87.33 54.7903C88.98 51.6903 90.62 48.5903 92.3 45.5003C93.45 43.3803 93.55 40.7303 92.4 38.5903C91.99 37.8303 91.41 37.0703 90.56 36.7503C89.55 36.3703 88.75 36.7803 87.91 37.3503C84.01 40.0103 80.11 42.6603 76.22 45.3403L80.62 53.5303C82.61 50.1403 84.34 46.5803 85.78 42.9203C86.49 41.1203 86.27 38.7803 85.37 37.1103C84.67 35.8103 83.28 34.6403 81.71 35.3203C78.35 36.7703 74.99 38.2103 71.63 39.6403L75.69 47.2203C76.36 45.3003 77.02 43.3803 77.69 41.4603C78.36 39.5403 78.28 36.8103 77 35.1403C75.83 33.6203 74.4 33.3403 72.82 34.4303C71.72 35.1803 70.04 36.2103 68.67 37.0003C67.11 37.9003 65.5 38.7203 63.87 39.4903L67.9 47.0103C68.87 44.6703 69.67 42.2703 70.33 39.8203C70.85 37.8603 70.98 35.3303 69.65 33.6103C68.56 32.1903 67.02 31.7403 65.54 32.9103C62.73 35.1303 59.93 37.3603 57.11 39.5803L62.13 45.1703C62.6 42.6303 63.07 40.0803 63.54 37.5403C63.95 35.3403 62.64 30.0003 59.32 31.4503C56 32.9003 53.15 34.6203 50.31 36.6403L55.36 40.8403C55.42 38.7203 55.49 36.6003 55.55 34.4803C55.62 32.1603 53.21 27.7303 50.52 30.3003C48.42 32.3103 46.31 34.3203 44.21 36.3303L48.83 43.0003C49.3 41.1803 49.78 39.3603 50.25 37.5403C50.81 35.4003 50.82 32.9403 49.26 31.2003C47.9 29.6703 46.14 30.1103 45.02 31.6903C44.69 32.1503 44.31 32.6703 44.24 32.7403C43.79 33.2803 43.31 33.7903 42.81 34.2903C41.87 35.2403 40.86 36.1103 39.78 36.9203L44.62 42.3103C44.89 39.6903 44.83 37.0903 44.19 34.5303C43.75 32.7403 41.59 29.4803 39.47 31.7603C37.68 33.6903 35.94 34.9003 33.55 35.9003L37.45 39.1103C37.17 37.5103 36.9 35.9003 36.62 34.3003C36.31 32.5003 34 29.4403 32.03 31.6103C30.41 33.4003 28.78 35.1703 27.15 36.9403C28.6 39.0303 30.04 41.1203 31.49 43.2103C32.64 40.3703 33.12 37.1703 32.83 34.1103C32.69 32.6803 32.41 31.1103 31.22 30.1303C30.24 29.3303 29.08 29.3903 28.14 30.2103C24.83 33.1003 21.8 36.2203 18.77 39.3903L23.39 44.5403C23.66 43.3603 23.93 42.1803 24.2 41.0103C24.73 38.6903 23.63 35.4903 21.07 35.1103C15.37 34.2703 11.63 40.2403 11.54 45.2303C11.45 50.6003 15.69 56.9103 21.68 55.8603C24.29 55.4003 26.63 54.1003 29.12 53.2503C31.61 52.4003 33.41 51.9703 35.82 51.5603C40.71 50.7403 45.76 50.7003 50.65 51.5303C52.61 51.8603 55.32 52.6203 57.49 53.3703C59.95 54.2203 62.35 55.2103 64.73 56.2403C69.46 58.2703 74.16 60.3303 79.11 61.8003C88.93 64.7203 99.33 65.9203 109.56 65.2403C115.41 64.8503 121.26 63.6603 126.88 62.0303C129.61 61.2403 132.27 60.2603 134.92 59.2503C137.33 58.3303 140.03 57.2503 142.63 57.9703C144.92 58.6003 145.98 56.3803 146.42 54.5203L146.34 54.9403C146.16 55.2903 146.15 55.3303 146.31 55.0803C146.44 54.8903 146.45 54.8703 146.35 55.0103C146.21 55.2003 146.29 55.1503 146.57 54.8503L141.85 52.0803C141.92 52.4103 141.65 47.5303 143.44 48.0603L145.74 51.3903C145.87 52.4903 145.71 50.6703 145.7 50.4703C145.67 49.8803 145.67 49.2903 145.68 48.7003C145.68 48.4103 145.7 48.1103 145.71 47.8203C145.68 48.3903 145.68 48.3803 145.73 47.8003C145.81 47.2203 145.87 46.6303 145.97 46.0503C146.07 45.4703 146.18 44.8903 146.32 44.3203C146.1 45.2203 146.56 43.5403 146.61 43.3803C146.97 42.2603 147.42 41.1703 147.91 40.1003C149.05 37.6103 147.73 31.7203 144.07 32.9303C139.96 34.2803 135.88 35.5703 131.72 36.3703C127.56 37.1703 122.93 37.7603 118.49 37.9503C109.69 38.3303 100.96 37.4103 92.58 35.0203C88.11 33.7503 83.81 31.9903 79.44 30.4403C75.07 28.8903 70.31 27.6903 65.54 27.0503C60.77 26.4103 56.41 26.1903 51.83 25.9203C47.72 25.6803 43.61 25.5203 39.49 25.7103C34.83 25.9303 30.21 26.5403 25.7 27.7803C23.52 28.3803 21.41 29.1603 19.36 30.1103C17.31 31.0603 15.21 32.7403 13.42 34.2703C12.3 35.2303 12.2 37.2203 12.62 38.5103C12.95 39.5203 13.97 41.1003 15.28 40.4003L15.36 40.4103Z" fill="#1D1D1B"/>
<path d="M14.65 63.2503C14.72 63.6103 14.62 63.5803 14.52 63.9803L18.33 66.3003C18.54 65.2803 18.7 64.2503 18.87 63.2203L16.82 65.7103C21.26 65.2003 25.66 64.5003 30.12 64.2003C34.58 63.9003 39.08 64.1303 43.44 64.8103C47.51 65.4503 51.51 66.9103 55.36 68.3403C59.21 69.7703 63.2 71.4703 67.18 72.8803C83.54 78.6703 100.98 79.9003 118.2 79.5103C122.36 79.4203 126.61 79.3203 130.71 78.5303C134.81 77.7403 139.38 76.2603 142.32 72.9503C143.93 71.1403 144.37 68.2203 143.34 66.0003C142.44 64.0403 140.67 62.8003 138.75 64.3003C138.41 64.5703 138.06 64.8103 137.71 65.0603C137.56 65.1703 137.41 65.2803 137.26 65.3903C137.32 65.3403 137.66 65.1303 137.29 65.3703C136.56 65.8403 135.79 66.2403 134.99 66.5803C134.24 66.9003 133.47 67.1803 132.69 67.4103C131.71 67.7003 131.67 67.7103 130.63 67.9003C127.06 68.5403 123.41 68.5903 119.79 68.6503C111.3 68.8003 102.82 68.7503 94.35 68.0403C85.88 67.3303 78.08 65.9703 70.23 63.4903C62.38 61.0103 54.49 57.6203 46.07 56.5603C41.19 55.9403 36.49 56.2503 31.63 56.7203C26.77 57.1903 21.58 58.0303 16.65 59.0603C15.47 59.3103 14.73 60.3503 14.6 61.5503C14.46 62.8903 14.35 64.2203 14.27 65.5703C14.2 66.6803 14.89 68.4203 16.13 68.6003C17.37 68.7803 18.17 67.4103 18.33 66.3103C18.6 64.4103 18.11 62.5803 17.14 60.9403C16.73 60.2503 15.88 60.1103 15.29 60.6203C14.59 61.2303 14.5 62.4103 14.65 63.2603V63.2503Z" fill="#DD0B15"/>
<path d="M145.35 59.01C144.31 58.83 143.98 60.73 143.88 61.39C143.82 61.74 143.76 62.09 143.72 62.44L143.51 64.47L143.07 68.7C142.78 71.5 142.49 74.3 142.2 77.1C142.04 78.67 141.87 80.24 141.71 81.81C141.65 82.39 141.67 82.99 141.9 83.54C142.06 83.91 142.39 84.42 142.81 84.55C143.83 84.86 144.46 83.8 144.59 82.93C144.64 82.62 144.68 82.31 144.73 82C144.81 81.44 144.76 80.8 144.54 80.27C144.38 79.9 144.05 79.39 143.63 79.26C142.61 78.95 141.98 80.01 141.85 80.88C141.8 81.19 141.76 81.5 141.71 81.81L144.59 82.94C145.17 77.32 145.76 71.7 146.34 66.08L146.58 63.73C146.64 63.18 146.66 62.62 146.69 62.06C146.69 61.86 146.72 61.67 146.72 61.47C146.72 61.12 146.64 60.76 146.6 60.42C146.55 59.97 146.17 59.17 145.66 59.07C145.55 59.05 145.45 59.03 145.34 59.01H145.35Z" fill="#DD0B15"/>
<path d="M144.77 68.2802C144.97 68.0002 145.04 67.6302 145.11 67.2902C145.15 67.1102 145.18 66.4202 145.16 66.8402C145.14 67.1602 145.17 66.8002 145.18 66.7602C145.19 66.6902 145.21 66.6202 145.22 66.5502C145.28 66.1902 145.13 66.8302 145.2 66.6302C145.27 66.4402 145.32 66.2602 145.4 66.0802C145.68 65.4302 145.57 64.5202 145.25 63.9202C144.98 63.4202 144.49 63.0302 143.89 63.2602C143.69 63.3302 143.49 63.4002 143.29 63.4502L143.64 63.3702C142.91 63.5102 142.15 63.5502 141.42 63.4302L141.8 63.5002C141.66 63.4702 141.52 63.4402 141.38 63.4102L141.82 67.3702C143.22 65.8702 144.55 64.3102 145.9 62.7602L143.67 60.2702C142.85 67.2602 142.36 74.2902 142.22 81.3202C142.18 83.2502 142.12 85.2002 142.19 87.1302C142.21 87.6602 142.35 88.2602 142.66 88.7002C142.88 89.0102 143.29 89.3702 143.71 89.3302C144.79 89.2302 145.1 87.9502 145.12 87.0602C145.16 85.3502 145.12 83.6402 145.16 81.9302C145.2 80.2202 145.24 78.5102 145.31 76.8002C145.35 75.9602 145.39 75.1102 145.43 74.2702C145.45 73.8802 145.47 73.4902 145.5 73.1002C145.51 72.8902 145.52 72.6902 145.54 72.4802C145.57 72.0102 145.5 73.0502 145.54 72.5902C145.54 72.4702 145.56 72.3402 145.56 72.2202C145.67 70.5302 145.8 68.8502 145.96 67.1702C146.13 65.2402 146.33 63.3202 146.56 61.3902C146.66 60.5702 146.54 59.6702 145.97 59.0402C145.57 58.5902 144.79 58.3602 144.33 58.9002C142.97 60.4702 141.61 62.0302 140.31 63.6402C140.04 63.9702 139.86 64.2702 139.75 64.6902C139.64 65.1402 139.6 65.6502 139.71 66.1102C139.79 66.4402 139.91 66.7702 140.1 67.0602C140.36 67.4602 140.68 67.6002 141.12 67.6702C142.36 67.8802 143.6 67.6102 144.68 66.9802L143.17 64.1602C142.96 64.8602 142.85 65.5402 142.82 66.2702C142.79 67.0002 142.91 68.0502 143.54 68.5502C144.01 68.9202 144.47 68.7102 144.79 68.2702L144.77 68.2802Z" fill="#DD0B15"/>
<path d="M15.09 62.2903C14.99 62.6403 14.89 62.9903 14.83 63.3403C14.76 63.7703 14.73 64.2003 14.73 64.6403C14.73 65.2403 14.73 65.8303 14.79 66.4303C14.89 67.6203 14.98 68.8103 15.05 70.0003C15.2 72.3503 15.29 74.7103 15.33 77.0703C15.35 78.4103 15.36 79.7603 15.35 81.1003C15.35 81.6103 15.52 82.2603 15.82 82.6803C16.04 82.9903 16.46 83.3503 16.88 83.3103C17.96 83.2103 18.29 81.9203 18.3 81.0203C18.34 76.2403 18.16 71.4703 17.77 66.7103C17.7 65.8903 17.62 65.0803 17.46 64.2703C17.38 63.8203 17.28 63.4003 17.11 62.9703C16.97 62.6103 16.79 62.2703 16.59 61.9403C16.42 61.6503 16.09 61.4803 15.77 61.5603C15.43 61.6403 15.18 61.9503 15.08 62.2803L15.09 62.2903Z" fill="#DD0B15"/>
<path d="M15.19 63.0802C15.16 63.2702 15.12 63.4502 15.09 63.6402C15.03 64.0002 15.04 64.4202 15.02 64.7902C15 65.1602 14.99 65.5702 14.98 65.9602C14.95 66.7502 14.93 67.5502 14.92 68.3402C14.89 69.9202 14.89 71.5002 14.9 73.0702C14.9 73.5102 14.91 73.9602 14.92 74.4002C14.93 75.0302 14.92 75.6802 15.04 76.3002L14.97 75.7002C14.97 75.7002 14.97 75.7802 14.97 75.8202C14.99 76.3502 15.13 76.9602 15.44 77.4002C15.66 77.7102 16.08 78.0702 16.5 78.0302C17.56 77.9302 17.95 76.6402 17.92 75.7402C17.92 75.7002 17.92 75.6602 17.92 75.6202L17.88 76.2202C17.96 75.6502 17.92 75.0802 17.9 74.5102C17.89 74.1102 17.88 73.7102 17.87 73.3002C17.85 72.5202 17.84 71.7302 17.84 70.9502C17.84 69.3702 17.86 67.7902 17.91 66.2202C17.92 65.7902 17.94 65.3502 17.96 64.9202C17.96 64.6902 17.99 64.4702 17.99 64.2402C17.99 64.0102 17.96 63.7902 17.94 63.5602C17.9 63.0602 17.81 62.4802 17.49 62.0702L17.2 61.7402C17.05 61.5902 16.88 61.5102 16.68 61.5002C16.56 61.4502 16.43 61.4602 16.31 61.5002C16.11 61.5202 15.94 61.6102 15.8 61.7602C15.45 62.1102 15.28 62.5702 15.19 63.0502V63.0802Z" fill="#DD0B15"/>
<path d="M14.9601 62.27C14.7801 65.07 14.5601 67.87 14.4601 70.68C14.4101 72.03 14.3601 73.37 14.3501 74.72V78.82C14.3301 80.35 14.3301 81.89 14.3201 83.42C14.3201 84.05 14.5301 84.7 14.9501 85.17C15.2601 85.52 15.7701 85.8 16.2501 85.54C17.2301 85.01 18.2301 84.53 19.2901 84.17C20.3501 83.81 21.4101 83.52 22.4901 83.27L22.0601 83.37C23.5201 83.03 25.0001 82.81 26.4801 82.58C27.9601 82.35 29.4701 82.17 30.9701 82.01C34.1501 81.67 37.3501 81.41 40.5601 81.48C42.4101 81.52 44.2501 81.68 46.0701 82L45.5001 81.9C49.0001 82.53 52.3501 83.77 55.6501 85.08C58.9501 86.39 62.3901 87.69 65.8101 88.88C72.6701 91.26 79.6401 93.35 86.6301 95.33C90.1201 96.32 93.6201 97.29 97.1301 98.25C100.64 99.21 104.42 100.18 108.16 100.6C115.58 101.42 122.9 99.59 130.02 97.71C133.11 96.89 136.21 96.02 139.12 94.69C140.74 93.95 142.26 93.05 143.7 92C144 91.78 144.32 91.56 144.59 91.31C145.05 90.89 145.34 90.39 145.61 89.85C146.24 88.52 146.41 87.06 146.13 85.62C145.96 84.75 145.52 83.81 144.82 83.26C144.43 82.95 144.03 82.77 143.52 82.76C143.22 82.76 142.94 82.85 142.65 82.93C142.02 83.09 141.5 84.06 141.3 84.59C141.01 85.4 140.93 86.48 141.13 87.32C141.31 88.06 141.61 88.93 142.25 89.4L142.81 89.74C143.22 89.9 143.64 89.89 144.04 89.71H144.1C143.9 89.74 143.69 89.79 143.49 89.84C143.56 89.83 143.62 89.83 143.69 89.84L143.07 89.73C143.07 89.73 143.15 89.75 143.19 89.78L142.63 89.44C142.63 89.44 142.69 89.49 142.72 89.52L142.24 88.98C142.24 88.98 142.27 89.03 142.29 89.05L141.91 88.34C141.91 88.34 141.94 88.39 141.95 88.42L141.69 87.58C141.71 87.65 141.72 87.71 141.73 87.78L141.62 86.84C141.62 86.9 141.62 86.95 141.62 87.01L141.68 86.07C141.68 86.2 141.65 86.32 141.62 86.44L141.83 85.59C141.79 85.72 141.75 85.84 141.7 85.97L142.05 85.24C141.98 85.38 141.9 85.51 141.81 85.64L142.27 85.07C141.94 85.46 141.44 85.75 141.02 86.03L141.57 85.66C137.55 88.36 132.87 89.66 128.23 90.85C126.72 91.23 125.22 91.61 123.7 91.96L124.34 91.81C119.36 92.95 114.26 93.85 109.14 93.5C107.7 93.4 106.27 93.21 104.86 92.96L105.49 93.07C102.47 92.53 99.5001 91.72 96.5401 90.92C93.5801 90.12 90.5801 89.33 87.6001 88.51C81.6901 86.89 75.8001 85.21 69.9601 83.33C67.0501 82.39 64.1501 81.4 61.2701 80.35C58.3901 79.3 55.6201 78.14 52.7501 77.17C51.3401 76.69 49.9101 76.26 48.4401 75.98C46.7801 75.66 45.1101 75.44 43.4201 75.37C40.3701 75.24 37.3101 75.5 34.2801 75.91C31.2501 76.32 28.5001 76.79 25.6401 77.41C24.1401 77.74 22.6501 78.2 21.2001 78.7C19.8501 79.17 18.5601 79.74 17.2601 80.32C16.6101 80.61 15.9801 80.92 15.3601 81.25L17.2801 83.37C17.2801 80.68 17.3001 77.98 17.3101 75.29C17.3101 73.94 17.2901 72.6 17.2501 71.25L17.1901 69.2C17.1901 69.03 17.1901 68.87 17.1801 68.7L17.1501 68.43C17.1101 68.07 17.1101 68.07 17.1501 68.45C17.1501 68.39 17.1501 68.32 17.1401 68.26L17.0801 67.2C16.9901 65.67 16.9001 64.14 16.8101 62.61C16.7801 62.08 16.5701 61.34 15.9701 61.23C15.4101 61.13 15.0001 61.78 14.9701 62.27H14.9601Z" fill="#DD0B15"/>
<path d="M17.69 63.9901C17.44 65.5801 17.18 67.18 16.93 68.77L16.56 71.1L16.37 72.3301L16.28 72.88C16.27 72.96 16.28 73.1201 16.23 73.1901L16.31 72.8301C16.23 73.0601 16.17 73.3001 16.14 73.5501C16.06 74.1701 16.1 74.86 16.35 75.45C16.52 75.85 16.89 76.42 17.35 76.56C18.47 76.9 19.16 75.7401 19.3 74.7901C19.69 72.2201 20.13 69.66 20.54 67.09L17.23 66.49C17.36 67.95 17.37 69.4101 17.28 70.8701L17.32 70.18C17.26 71.03 17.17 71.8801 17.04 72.7201C16.88 73.7801 17.13 75.21 18.12 75.81C19.11 76.41 19.94 75.57 20.26 74.68C21.05 72.51 21.83 70.3301 22.62 68.1601L19.3 66.14C18.75 69.86 18.18 73.59 17.64 77.31C17.48 78.47 17.73 80.0001 18.81 80.6601C19.89 81.3201 20.78 80.4 21.13 79.43C22.14 76.61 23.14 73.7901 24.15 70.9701L20.8 68.13C20 70.68 19.2 73.2401 18.4 75.7901L21.96 77.96L21.99 77.85L21.81 78.5501C22.46 75.9701 23.36 73.46 24.5 71.06L24.21 71.6601C24.57 70.9101 24.95 70.16 25.36 69.43L22.22 65.92C21.31 68.86 20.18 71.74 18.86 74.52L19.15 73.9101C18.95 74.3301 18.74 74.75 18.53 75.17L21.95 77.21C21.94 76.79 21.95 76.38 21.97 75.96L21.92 76.7601C21.98 75.8901 22.11 75.0401 22.32 74.1901L22.14 74.92C22.37 74.01 22.69 73.13 23.08 72.27L22.79 72.89C23.27 71.88 23.86 70.9401 24.56 70.0801L21.14 68.0401C21.25 70.1201 21.36 72.2 21.47 74.28C21.5 74.92 21.63 75.52 21.94 76.09C22.16 76.5 22.51 77 22.99 77.14C23.34 77.25 23.69 77.2401 24.04 77.1101C24.63 76.9001 24.95 76.21 25.18 75.7C26.72 72.38 28.27 69.0501 29.81 65.7301L26.16 63.51C26.14 63.59 26.12 63.6601 26.1 63.7401L26.28 63.0201C25.48 66.2001 24.38 69.2901 22.97 72.2601L23.26 71.6501C23.18 71.8301 23.09 72 23.01 72.18L26.19 75.7301C26.72 74.3901 27.3 73.06 27.92 71.75L27.63 72.3701C28.29 71.0001 28.99 69.64 29.74 68.32L26.52 64.7201C25.98 66.4301 25.32 68.1001 24.55 69.7301L24.85 69.1C24.29 70.27 23.68 71.41 23.01 72.53L25.97 76.81C27.07 74.91 28.32 73.1 29.7 71.39L29.3 71.89C30.14 70.85 31.03 69.85 31.97 68.89L29.06 64.6901C27.81 67.7601 26.56 70.8301 25.31 73.9001C25.03 74.5901 24.99 75.62 25.16 76.34C25.31 76.94 25.53 77.5001 25.95 77.9701C26.26 78.3201 26.72 78.6701 27.23 78.6201C27.85 78.5601 28.36 78.1901 28.68 77.6601C29.71 75.9401 30.85 74.2901 32.11 72.7201L31.7 73.2301C33.01 71.6201 34.44 70.1 35.98 68.7L33.01 64.4001C31.67 67.7801 30.34 71.1701 29 74.5501C28.72 75.2601 28.67 76.29 28.85 77.03C29 77.64 29.22 78.21 29.65 78.68C29.96 79.03 30.43 79.39 30.94 79.34C31.58 79.28 32.06 78.9001 32.41 78.3601C33.68 76.4101 35.05 74.52 36.52 72.7L36.1 73.21C37.18 71.87 38.31 70.5801 39.5 69.3301L36.49 64.9701C36.01 66.5001 35.42 67.98 34.74 69.43L35.06 68.77C34.28 70.41 33.37 71.99 32.33 73.5C31.91 74.11 31.72 75.1 31.76 75.82C31.8 76.54 31.94 77.17 32.27 77.78C32.51 78.23 32.89 78.76 33.41 78.92C33.96 79.09 34.66 79.0301 35.05 78.5501C37.48 75.5801 39.9 72.6 42.33 69.63L39.08 66.0101C39.04 66.1601 39.01 66.31 38.97 66.45L39.17 65.6601C38.64 67.7301 37.92 69.74 37 71.67L37.32 71C37.01 71.65 36.67 72.3 36.32 72.93L39.49 77.5101C41.12 74.1001 43.14 70.9 45.51 67.96L45.08 68.49C45.45 68.03 45.83 67.58 46.22 67.13L43.14 62.6801C42.57 64.9101 41.79 67.09 40.8 69.17L41.12 68.49C40.7 69.38 40.24 70.24 39.74 71.09C38.99 72.38 38.97 74.11 39.68 75.42C39.92 75.87 40.31 76.41 40.83 76.57C41.4 76.74 42.07 76.67 42.49 76.2C44.4 74.07 46.31 71.9401 48.21 69.8001L44.95 66.1601C44.84 67.1601 44.67 68.15 44.43 69.13L44.63 68.34C44.28 69.71 43.8 71.05 43.2 72.32L43.52 71.6501C43.31 72.0901 43.08 72.5101 42.85 72.9401C42.12 74.2501 42.07 75.92 42.79 77.25C43.03 77.7 43.42 78.2401 43.94 78.4001C44.5 78.5701 45.19 78.51 45.59 78.03C47.81 75.37 50.03 72.71 52.24 70.06L49.18 65.64C48.37 67.89 47.57 70.14 46.76 72.38C46.28 73.73 46.44 75.51 47.42 76.6C47.74 76.96 48.22 77.32 48.74 77.27C49.38 77.21 49.92 76.83 50.24 76.27C51.38 74.27 52.68 72.3701 54.13 70.5801L53.71 71.1C54.21 70.48 54.73 69.8801 55.26 69.3001L52.2 64.88C50.98 67.58 49.77 70.2701 48.55 72.9701L48.35 73.7601C48.27 74.2001 48.27 74.63 48.35 75.07C48.42 75.7 48.59 76.4201 48.99 76.9401C49.25 77.2801 49.56 77.5801 49.96 77.7601C50.45 77.9801 51.26 77.81 51.61 77.39C53.75 74.83 55.9 72.27 58.04 69.71L54.98 65.2901C54.6 66.1901 54.2 67.0901 53.78 67.9701L54.1 67.3001C53.22 69.1401 52.24 70.93 51.18 72.67C50.41 73.93 50.43 75.7001 51.12 76.9801C51.36 77.4301 51.75 77.97 52.27 78.13C52.85 78.31 53.48 78.2201 53.92 77.7601C55.74 75.8601 57.57 73.96 59.39 72.06L56.33 67.64C55.46 70.15 54.59 72.66 53.72 75.17C53.48 75.85 53.44 76.56 53.52 77.27C53.59 77.91 53.76 78.62 54.16 79.14C54.42 79.48 54.73 79.78 55.13 79.96C55.69 80.21 56.36 79.96 56.78 79.59C59.35 77.3 61.93 75.0101 64.5 72.7201L61.75 67.6101C60.42 70.2901 59.08 72.97 57.75 75.64C57.38 76.38 57.13 77.14 57.17 77.99C57.21 78.69 57.35 79.3601 57.68 79.9801C57.92 80.4301 58.31 80.97 58.83 81.13C59.44 81.32 60 81.1901 60.49 80.7601C63.11 78.4401 65.72 76.1201 68.34 73.8001L65.58 68.67C64.43 71.02 63.28 73.3701 62.14 75.7201L61.82 76.4001C61.67 76.8001 61.59 77.21 61.59 77.64C61.55 78.33 61.6 79.1 61.9 79.74C62.1 80.17 62.35 80.5901 62.71 80.9101C63.14 81.3001 63.86 81.46 64.39 81.2C67.68 79.6 70.72 77.45 73.33 74.89L70.27 70.4701C69.88 71.5301 69.44 72.57 68.95 73.59L69.27 72.92C68.44 74.65 67.48 76.3201 66.39 77.9101C65.97 78.5201 65.78 79.52 65.82 80.24C65.86 80.96 66 81.6001 66.33 82.2201C66.57 82.6701 66.96 83.2101 67.48 83.3701C68.05 83.5401 68.71 83.47 69.13 83C71.41 80.43 73.69 77.8701 75.97 75.3001L73.23 70.21C71.57 73.28 69.91 76.35 68.25 79.42C67.54 80.74 67.47 82.3901 68.19 83.7301C68.43 84.1801 68.82 84.72 69.34 84.88C69.93 85.06 70.54 84.9601 70.99 84.5101C73.4 82.0701 75.8 79.63 78.21 77.18L75.15 72.7601C73.97 75.4901 72.77 78.22 71.58 80.95L71.38 81.74C71.3 82.18 71.3 82.62 71.38 83.06C71.45 83.7 71.62 84.4201 72.02 84.9401C72.28 85.2801 72.6 85.5901 73 85.7601C73.61 86.0301 74.18 85.74 74.66 85.39C77.75 83.11 80.84 80.8301 83.93 78.5501L81.16 73.4001C79.41 76.2601 77.65 79.13 75.9 81.99C75.11 83.27 75.13 85.07 75.84 86.38C76.09 86.84 76.48 87.3901 77.01 87.5501C77.64 87.7401 78.19 87.6 78.69 87.17C80.45 85.66 82.3 84.2501 84.22 82.9401L83.7 83.2901C85.34 82.1801 87.03 81.16 88.77 80.21L86.49 74.6501C84.49 78.0801 82.49 81.5 80.49 84.93C79.72 86.25 79.71 88.01 80.43 89.34C80.68 89.8 81.07 90.35 81.6 90.52C82.19 90.7 82.85 90.62 83.29 90.14C86.16 87.01 89.02 83.87 91.89 80.74L89.09 75.53C87.45 78.28 85.81 81.02 84.18 83.77C83.76 84.48 83.57 85.3401 83.59 86.1601C83.61 86.9101 83.82 87.9 84.29 88.52C84.66 89 85.2 89.53 85.87 89.46C86.54 89.39 87.01 88.9901 87.4 88.4401C87.77 87.9201 88.16 87.42 88.55 86.92L88.12 87.45C90.3 84.76 92.86 82.39 95.73 80.45L95.22 80.8001C95.75 80.4401 96.28 80.1 96.83 79.77L94.57 74.27C92.18 78.27 89.58 82.1401 86.78 85.8701C86.34 86.4501 86.16 87.55 86.2 88.25C86.24 88.95 86.38 89.6301 86.72 90.2601C86.97 90.7201 87.36 91.27 87.89 91.43C88.49 91.61 89.11 91.5101 89.57 91.0501C92.97 87.6301 96.55 84.4 100.29 81.35L97.48 76.13C94.91 80.16 92.33 84.17 89.73 88.18C89.31 88.83 89.1 89.82 89.14 90.59C89.18 91.31 89.32 91.99 89.67 92.63C89.92 93.09 90.32 93.65 90.85 93.81C91.5 94.01 92.02 93.85 92.55 93.43C96.28 90.44 100.02 87.4801 103.73 84.4701C104.8 83.6001 105.86 82.7301 106.92 81.8601L104.04 76.5101C101.33 80.6101 98.61 84.7001 95.88 88.7901C95.45 89.4401 95.24 90.4601 95.28 91.2201C95.32 91.9801 95.47 92.63 95.81 93.28C96.06 93.75 96.46 94.3101 97.01 94.4801C97.59 94.6601 98.31 94.59 98.73 94.09C101.72 90.52 105.02 87.23 108.56 84.2C109.56 83.34 110.58 82.51 111.62 81.7L108.77 76.4101C106.12 80.9501 103.45 85.47 100.78 90C100 91.32 99.99 93.11 100.72 94.45C100.97 94.91 101.37 95.47 101.91 95.64C102.51 95.82 103.16 95.7301 103.62 95.2601C107.28 91.4601 110.94 87.6601 114.6 83.8701L111.75 78.5801C109.35 82.3501 106.95 86.1201 104.55 89.9001C104.12 90.5701 103.91 91.5501 103.95 92.3301C103.99 93.0601 104.14 93.74 104.48 94.39C104.73 94.86 105.13 95.42 105.68 95.59C106.31 95.78 106.9 95.66 107.4 95.2C111.02 91.88 114.41 88.33 117.6 84.6L114.76 79.32C112.22 83.01 109.68 86.69 107.14 90.38C106.7 91.02 106.5 92.0701 106.54 92.8301C106.58 93.5901 106.73 94.2601 107.08 94.9101C107.33 95.3801 107.74 95.9501 108.29 96.1201C108.91 96.3101 109.55 96.2001 110.02 95.7301C112.74 93.0301 115.64 90.53 118.72 88.25C119.61 87.59 120.51 86.96 121.42 86.34L120.88 86.71C122.02 85.94 123.19 85.1901 124.37 84.4801L121.99 78.68C119.07 82.63 116.14 86.57 113.23 90.52C113 90.87 112.85 91.2501 112.78 91.6601C112.64 92.1001 112.59 92.55 112.61 93.02C112.65 93.77 112.8 94.47 113.16 95.13C113.42 95.61 113.83 96.1901 114.39 96.3601C114.98 96.5401 115.73 96.48 116.16 95.96C119 92.53 121.85 89.1 124.69 85.67C125.5 84.7 126.3 83.72 127.11 82.75L124.2 77.35C121.48 81.32 118.76 85.28 116.04 89.25C115.6 89.9 115.39 90.9601 115.43 91.7201C115.47 92.4801 115.62 93.16 115.97 93.81C116.23 94.29 116.63 94.86 117.19 95.03C117.82 95.22 118.46 95.11 118.94 94.64C121.85 91.76 125.03 89.16 128.41 86.85L127.87 87.21C130.17 85.65 132.57 84.2401 135.04 82.9801C134.25 81.0601 133.47 79.1501 132.68 77.2301C129.94 81.0701 127.2 84.9201 124.46 88.7601C124.01 89.3901 123.81 90.49 123.85 91.24C123.89 91.99 124.04 92.68 124.39 93.34C124.65 93.82 125.06 94.39 125.61 94.56C126.25 94.76 126.86 94.63 127.36 94.17C130.96 90.86 134.26 87.2301 137.26 83.3701C138.08 82.3101 138.87 81.24 139.64 80.14C140.1 79.48 140.27 78.4301 140.25 77.6501C140.23 76.8701 140.01 75.8401 139.52 75.1901C139.13 74.6901 138.57 74.14 137.87 74.21L137.26 74.35C136.84 74.56 136.51 74.87 136.27 75.27C133.27 79.08 130.58 83.14 128.24 87.39C127.47 88.79 127.41 90.5601 128.17 91.9701C128.43 92.4501 128.84 93.0201 129.39 93.1901C130.03 93.3901 130.64 93.2601 131.14 92.8001C134.46 89.7601 137.47 86.41 140.19 82.82C140.93 81.85 141.64 80.86 142.32 79.85C142.77 79.19 142.97 78.1301 142.93 77.3601C142.89 76.5901 142.74 75.91 142.38 75.25C142.12 74.77 141.71 74.19 141.16 74.03C140.56 73.85 139.84 73.92 139.4 74.43C138.7 75.24 138.03 76.09 137.46 77C136.89 77.91 136.41 78.9 135.97 79.89C135.18 81.69 134.67 83.6601 134.45 85.6101C134.32 86.7701 134.43 88.0301 135.13 89.0101C135.63 89.7101 136.52 90.2901 137.39 89.8601C139.53 88.8101 141.28 86.9901 142.33 84.8601C143 83.4901 143.49 82.1 143.74 80.59C143.99 79.08 143.95 77.4901 143.74 75.9401C143.53 74.3901 142.9 72.8101 142.08 71.4101C141.82 71.0101 141.47 70.72 141.04 70.53C140.73 70.39 140.42 70.38 140.12 70.49C139.26 70.69 138.77 71.43 138.47 72.21C136.68 76.95 135.83 82.04 135.91 87.1L137.53 83.6501C135.28 84.5101 132.97 85.21 130.62 85.75L131.24 85.6101C126.62 86.6701 121.87 87.1101 117.13 86.9101L118.47 93.52C121.98 90.02 125.69 86.72 129.54 83.59C130.63 82.7 131.74 81.8301 132.85 80.9801L130.32 74.84C127.14 77.98 123.96 81.1201 120.78 84.2601C119.88 85.1501 118.97 86.04 118.07 86.93L120.59 93.0501C123.5 89.9701 126.41 86.8901 129.31 83.8001C129.87 83.2001 130.2 82.4601 130.33 81.6501C130.46 80.8401 130.39 79.71 130.03 78.92C129.74 78.29 129.3 77.54 128.6 77.32L127.98 77.21C127.53 77.24 127.14 77.4101 126.82 77.7201C123.14 80.3601 119.44 82.9801 115.75 85.6101L118.24 91.6601C118.93 91.1101 119.64 90.59 120.36 90.1L119.81 90.4701C122.48 88.6701 125.4 87.25 128.47 86.27L126.06 80.4001C125.79 80.9201 125.47 81.4101 125.11 81.8701L125.57 81.3001C124.97 82.0401 124.26 82.6801 123.48 83.2201L124.03 82.85C122.92 83.6 121.69 84.12 120.39 84.43L121.01 84.2901C119.61 84.6101 118.16 84.6601 116.74 84.4101L117.37 84.52C116.27 84.32 115.22 83.9301 114.27 83.3601L114.84 83.71C114.77 83.67 114.7 83.6301 114.64 83.5801L114.24 90.1201C115.33 89.6701 116.45 89.3201 117.6 89.0501L116.98 89.1901C119.49 88.6501 122 88.4201 124.56 88.6901L124.39 81.7301C122.69 82.0401 120.98 82.2101 119.25 82.1901C117.52 82.1701 115.81 82.01 114.12 81.71L114.72 81.82C111.15 81.17 107.71 79.91 104.58 78.07C104.06 77.77 103.21 78.09 102.84 78.46C102.37 78.93 102.11 79.51 101.95 80.14C101.77 80.86 101.72 81.6701 101.89 82.4001C102.06 83.1301 102.36 83.9901 102.99 84.4401C103.74 84.9901 104.5 85.5301 105.25 86.0801L106.85 79.7C104.87 79.34 102.89 79.1101 100.87 79.1101C99.02 79.1101 97.21 79.3201 95.38 79.6201C95.04 79.6201 94.75 79.7301 94.5 79.9401C94.19 80.1101 93.95 80.36 93.78 80.68C93.33 81.46 93.21 82.28 93.17 83.17C93.14 83.72 93.23 84.27 93.29 84.82C93.32 85.08 93.37 85.3301 93.44 85.5801C93.72 86.6101 94.08 87.52 94.66 88.43C95.44 89.65 96.64 90.68 98 91.21C98.59 91.44 99.31 91.26 99.76 90.81C100.23 90.34 100.5 89.7501 100.66 89.1201C101.04 87.5901 100.74 85.9301 99.62 84.7901C97.47 82.6101 93.95 81.9801 91.17 83.2201C90.09 83.7001 89.67 85.0901 89.61 86.1501C89.57 86.7701 89.63 87.35 89.81 87.95C89.98 88.5 90.28 89.26 90.78 89.59C92.28 90.57 93.85 91.3 95.61 91.63C97.37 91.96 99.08 92.0401 100.82 91.6601C101.15 91.6601 101.44 91.55 101.69 91.34C102 91.17 102.23 90.9301 102.4 90.6101C102.76 89.9901 102.93 89.3201 102.98 88.6101C103.03 87.9001 102.96 87.0801 102.66 86.4101L102.29 85.7201C102.03 85.3301 101.69 85.0401 101.27 84.8601C100.19 84.2101 98.85 83.9001 97.59 83.9001C96.87 83.9001 96.18 84.0501 95.49 84.2201C94.93 84.3601 94.41 84.5801 93.91 84.8701C93.5 85.0801 93.17 85.38 92.93 85.78C92.65 86.25 92.47 86.77 92.39 87.31C92.2 88.5 92.46 89.6101 93.05 90.6501C94.01 92.3301 95.9 93.4401 97.83 93.4401C98.49 93.4401 99.07 92.91 99.4 92.39C99.83 91.72 100.04 90.7301 100 89.9401C99.96 89.1501 99.8 88.2 99.28 87.53C98.88 87 98.37 86.56 97.66 86.56C97.44 86.56 97.23 86.5401 97.01 86.5101L97.61 86.6201C97.18 86.5401 96.77 86.3801 96.39 86.1601L96.94 86.49C96.62 86.29 96.33 86.06 96.08 85.78L96.55 86.31C96.39 86.12 96.24 85.92 96.12 85.7L95.26 91.4801C95.77 91.1801 96.31 90.96 96.88 90.82L96.28 90.96C97.11 90.77 97.96 90.7501 98.81 90.9001L98.2 90.7901C98.91 90.9301 99.58 91.1801 100.2 91.5501L100.64 84.75C99.14 85.08 97.6 85.09 96.09 84.82L96.7 84.93C95.29 84.67 93.95 84.16 92.73 83.42L93.28 83.7601C93.16 83.6901 93.04 83.6101 92.93 83.5401L92.54 89.9001C92.87 89.7501 93.21 89.6401 93.57 89.5501L92.97 89.6901C93.77 89.5101 94.59 89.5 95.39 89.64L94.78 89.53C95.53 89.67 96.23 89.93 96.89 90.32L96.33 89.9801C96.74 90.2301 97.12 90.53 97.46 90.88L99.07 84.46C98.81 84.36 98.57 84.24 98.34 84.1L98.9 84.4401C98.51 84.2001 98.17 83.91 97.85 83.57L98.33 84.1C98.05 83.78 97.8 83.43 97.6 83.06L97.98 83.7601C97.84 83.4901 97.72 83.21 97.63 82.92L97.88 83.75C97.79 83.46 97.73 83.1601 97.69 82.8601L97.79 83.7901C97.77 83.5501 97.76 83.31 97.77 83.06L95.56 86.6201C99.1 85.8701 102.86 85.9101 106.41 86.5401L107.01 86.4001C107.33 86.2601 107.58 86.0501 107.77 85.7601C108.18 85.2501 108.46 84.5901 108.54 83.9401C108.62 83.3301 108.6 82.7 108.49 82.1C108.37 81.45 107.96 80.4601 107.39 80.0501C106.63 79.5101 105.88 78.97 105.12 78.43L103.52 84.8001C108.41 87.6601 114.17 89.12 119.83 89.06C121.41 89.04 122.98 88.95 124.54 88.71C125.25 88.6 125.74 88.2601 126.13 87.6501C126.56 86.9701 126.78 85.97 126.74 85.17C126.7 84.37 126.53 83.4001 126.01 82.7301L125.53 82.2C125.2 81.91 124.81 81.76 124.37 81.75C120.46 81.21 116.46 81.77 112.81 83.28C112.4 83.45 112.03 83.8601 111.8 84.2201C111.41 84.8401 111.25 85.5701 111.21 86.2901C111.17 86.9301 111.23 87.53 111.42 88.14C111.59 88.7 111.9 89.49 112.42 89.82C113.53 90.53 114.66 91.1 115.95 91.38C117.24 91.66 118.48 91.7901 119.78 91.6601C122.36 91.4001 124.77 90.4 126.76 88.75C127.87 87.83 128.84 86.6401 129.5 85.3601C129.84 84.7001 130.04 84.06 130.09 83.31C130.14 82.56 130.07 81.74 129.76 81.06C129.55 80.6 129.27 80.15 128.89 79.81C128.37 79.34 127.72 79.29 127.09 79.5C122.97 80.83 119.15 82.9501 115.76 85.6501C115.18 86.1101 114.85 87.1101 114.74 87.7901C114.61 88.6301 114.68 89.7201 115.04 90.5101C115.33 91.1301 115.76 91.89 116.47 92.1L117.09 92.21C117.54 92.18 117.93 92.01 118.25 91.7C120.99 89.75 123.73 87.79 126.48 85.84L125.94 86.21C127.09 85.45 128.21 84.6301 129.34 83.8301L126.84 77.7601C123.92 80.8201 121.01 83.89 118.09 86.96C117.52 87.56 117.19 88.31 117.06 89.13C116.93 89.95 117 91.09 117.36 91.88C117.65 92.51 118.09 93.27 118.81 93.49C119.45 93.69 120.11 93.5801 120.61 93.0801C123.79 89.9401 126.98 86.81 130.16 83.67C131.06 82.78 131.97 81.89 132.87 81C133.45 80.43 133.77 79.6201 133.9 78.8301C134.04 77.9801 133.96 76.87 133.59 76.07C133.3 75.44 132.86 74.67 132.14 74.46L131.51 74.35C131.05 74.38 130.66 74.5501 130.33 74.8701C126.38 77.8801 122.6 81.1001 118.99 84.5101C117.97 85.4801 116.96 86.46 115.96 87.46C115.48 87.94 115.21 88.5401 115.05 89.1901C114.86 89.9301 114.81 90.7601 114.99 91.5101C115.27 92.6701 115.96 94.01 117.31 94.07C123.08 94.31 128.85 93.55 134.41 91.99C135.94 91.56 137.46 91.05 138.94 90.49L139.49 90.1201C139.77 89.8601 139.98 89.5501 140.12 89.1901C140.44 88.5101 140.58 87.79 140.57 87.03C140.55 86.09 140.57 85.1501 140.63 84.2201L140.57 85.1601C140.71 83.0101 141.04 80.8801 141.55 78.7901L141.34 79.64C141.67 78.31 142.08 77.0001 142.56 75.7201L138.94 76.52C138.99 76.61 139.05 76.7101 139.1 76.8001L138.72 76.1C138.96 76.55 139.15 77.01 139.3 77.5L139.05 76.6601C139.2 77.1701 139.31 77.69 139.37 78.21L139.26 77.28C139.32 77.81 139.33 78.3401 139.3 78.8701L139.36 77.93C139.32 78.54 139.22 79.15 139.08 79.75L139.29 78.9001C139.13 79.5201 138.91 80.13 138.64 80.71L138.98 79.99C138.66 80.66 138.26 81.3 137.8 81.88L138.25 81.32C137.73 81.96 137.13 82.52 136.45 82.99L136.99 82.6201C136.68 82.8301 136.36 83.02 136.02 83.18L138.96 87.43C139.04 86.67 139.18 85.91 139.36 85.17L139.15 86.0101C139.43 84.9301 139.8 83.8801 140.28 82.8701L139.94 83.59C140.5 82.43 141.19 81.33 142 80.32L141.55 80.88C141.66 80.74 141.77 80.6101 141.89 80.4801L138.97 75.0501C137.85 76.7001 136.67 78.3 135.42 79.85L135.87 79.2901C133.67 82.0001 131.28 84.5501 128.7 86.9101L131.61 92.32C133.95 88.07 136.64 84.02 139.65 80.21L136.28 75.35C135.19 76.89 134.05 78.3801 132.88 79.8601L133.33 79.3001C130.75 82.4901 127.93 85.5 124.91 88.28L127.82 93.6901C130.56 89.8401 133.29 85.99 136.03 82.14L136.37 81.43C136.53 81.01 136.61 80.58 136.61 80.13C136.66 79.4 136.59 78.59 136.29 77.92C136.08 77.47 135.81 77.0301 135.44 76.6901C135 76.2901 134.23 76.1 133.67 76.38C128.73 78.9 124.07 82.02 119.87 85.63C118.71 86.63 117.58 87.67 116.49 88.75L119.39 94.14C122.11 90.18 124.83 86.21 127.55 82.25C128 81.6 128.2 80.54 128.16 79.77C128.12 79 127.97 78.33 127.62 77.67C127.36 77.19 126.95 76.62 126.4 76.45C125.81 76.27 125.07 76.33 124.65 76.84C121.8 80.26 118.95 83.68 116.11 87.09C115.3 88.06 114.49 89.03 113.69 90L116.62 95.4401C119.55 91.4901 122.46 87.54 125.38 83.59L125.72 82.8701C125.88 82.4501 125.96 82.01 125.96 81.56C126.01 80.83 125.94 80.0101 125.63 79.3301C125.42 78.8701 125.15 78.44 124.77 78.09C124.36 77.72 123.51 77.46 122.99 77.78C122.23 78.24 121.48 78.7201 120.74 79.2201L121.28 78.85C117.4 81.36 113.72 84.1401 110.31 87.2601C109.38 88.1101 108.48 88.9701 107.6 89.8601L110.47 95.2C113 91.49 115.52 87.7901 118.05 84.0801C118.48 83.4401 118.69 82.4101 118.65 81.6601C118.61 80.9101 118.46 80.2501 118.12 79.6101C117.87 79.1401 117.47 78.58 116.93 78.42C116.35 78.24 115.64 78.31 115.22 78.81C112.05 82.55 108.63 86.0901 105.02 89.4001L107.87 94.7C110.27 90.93 112.67 87.15 115.06 83.38C115.49 82.71 115.7 81.74 115.66 80.95C115.62 80.23 115.47 79.54 115.13 78.89C114.88 78.42 114.48 77.86 113.94 77.7C113.34 77.52 112.68 77.61 112.22 78.09C108.56 81.9 104.91 85.71 101.25 89.52L104.08 94.77C106.74 90.25 109.41 85.72 112.09 81.21C112.88 79.88 112.88 78.0701 112.16 76.7301C111.91 76.2601 111.51 75.7001 110.97 75.5401L110.37 75.43C109.94 75.45 109.56 75.62 109.25 75.92C105.55 78.75 102.11 81.9 98.96 85.34C98.07 86.31 97.21 87.3 96.36 88.31L99.21 93.6101C101.93 89.5201 104.66 85.45 107.4 81.38C107.84 80.73 108.04 79.69 108 78.93C107.96 78.17 107.81 77.5 107.46 76.85C107.21 76.38 106.8 75.81 106.25 75.64C105.59 75.44 105.05 75.6 104.51 76.03C100.77 79.03 97.08 82.0701 93.37 85.1101C92.31 85.9801 91.24 86.8501 90.18 87.7201L93 92.96C95.56 88.93 98.15 84.91 100.74 80.89C101.16 80.24 101.37 79.26 101.33 78.49C101.29 77.77 101.15 77.1 100.81 76.46C100.56 76 100.17 75.44 99.63 75.28C98.99 75.08 98.46 75.2401 97.94 75.6601C94.19 78.7001 90.63 81.9701 87.24 85.4101L90.02 90.59C92.8 86.85 95.39 82.9601 97.79 78.9701C98.14 78.3801 98.3 77.7201 98.34 77.0501C98.38 76.3801 98.33 75.5801 98.03 74.9401C97.83 74.5101 97.57 74.09 97.22 73.77C96.83 73.41 96.03 73.1801 95.53 73.4801C92.17 75.4801 89.1 77.96 86.53 80.92C85.71 81.86 84.93 82.8401 84.19 83.8601L87.42 88.53C89.06 85.79 90.7 83.0401 92.33 80.2901C93.11 78.9801 93.11 77.2 92.39 75.88C92.14 75.42 91.75 74.87 91.22 74.7C90.63 74.52 89.97 74.6001 89.53 75.0801C86.66 78.2101 83.8 81.3501 80.93 84.4801L83.73 89.6901C85.73 86.2601 87.73 82.8401 89.73 79.4101C90.08 78.8101 90.25 78.1601 90.29 77.4701C90.33 76.7801 90.27 75.98 89.98 75.34C89.78 74.9 89.52 74.4801 89.16 74.1501C88.75 73.7801 87.97 73.57 87.45 73.85C83.5 76.01 79.76 78.6001 76.35 81.5501L79.14 86.7301C80.89 83.8601 82.64 80.9901 84.38 78.1101C85.16 76.8301 85.14 75.05 84.44 73.74C84.19 73.28 83.8 72.7401 83.28 72.5801L82.7 72.4801C82.28 72.5001 81.91 72.66 81.61 72.96C78.53 75.25 75.44 77.55 72.36 79.84L75.43 84.28C76.61 81.54 77.79 78.8 78.98 76.07L79.18 75.28C79.26 74.84 79.26 74.4101 79.18 73.9701C79.11 73.3401 78.94 72.62 78.54 72.1C78.28 71.76 77.97 71.46 77.57 71.28C77.04 71.04 76.31 71.2501 75.92 71.6501C73.51 74.0901 71.11 76.5301 68.7 78.9801L71.44 84.07C73.1 81 74.76 77.9301 76.42 74.8601C77.13 73.5401 77.2 71.8901 76.48 70.5501C76.24 70.1001 75.85 69.5601 75.33 69.4001C74.76 69.2301 74.1 69.3 73.68 69.77C71.4 72.34 69.12 74.9001 66.84 77.4701L69.58 82.56C71.44 79.84 72.95 76.86 74.1 73.77C74.35 73.1 74.38 72.37 74.3 71.67C74.23 71.04 74.06 70.3201 73.66 69.8001C73.4 69.4601 73.09 69.1601 72.69 68.9801C72.15 68.7401 71.44 68.96 71.04 69.35C69.69 70.68 68.22 71.8701 66.66 72.9401L67.17 72.6C65.87 73.47 64.52 74.25 63.11 74.93L65.36 80.4101C66.51 78.0601 67.65 75.7101 68.8 73.3601C69.17 72.6101 69.42 71.8601 69.38 71.0101C69.34 70.3101 69.2 69.64 68.86 69.02C68.62 68.57 68.23 68.0201 67.7 67.8601C67.09 67.6701 66.52 67.8001 66.04 68.2301C63.43 70.5501 60.81 72.88 58.2 75.2C59.12 76.91 60.03 78.61 60.95 80.32C62.28 77.64 63.62 74.96 64.95 72.28C65.32 71.54 65.57 70.7801 65.53 69.9401C65.49 69.2401 65.35 68.58 65.02 67.96C64.78 67.51 64.39 66.97 63.87 66.81C63.26 66.62 62.7 66.75 62.21 67.18C59.64 69.47 57.07 71.77 54.49 74.06L57.55 78.4801C58.42 75.9701 59.29 73.4501 60.16 70.9401C60.39 70.2601 60.44 69.55 60.36 68.84C60.29 68.21 60.12 67.4901 59.72 66.9701C59.46 66.6301 59.15 66.3301 58.75 66.1501C58.23 65.9201 57.48 66.12 57.1 66.52C55.28 68.42 53.45 70.3201 51.63 72.2201L54.37 77.31C56.08 74.53 57.55 71.6001 58.81 68.5801L59.01 67.7901C59.09 67.3501 59.09 66.9201 59.01 66.4801C58.94 65.8501 58.77 65.1301 58.37 64.6101C58.11 64.2701 57.8 63.9701 57.4 63.7901C56.91 63.5701 56.1 63.7401 55.75 64.1601C53.61 66.7201 51.46 69.28 49.32 71.84L52.38 76.2601C53.6 73.5601 54.81 70.87 56.03 68.17L56.23 67.38C56.31 66.94 56.31 66.51 56.23 66.07C56.16 65.44 55.99 64.72 55.59 64.2C55.33 63.86 55.02 63.5601 54.62 63.3801C54.11 63.1501 53.34 63.34 52.97 63.75C50.74 66.21 48.75 68.89 47.11 71.77L50.59 75.6601C51.4 73.4101 52.2 71.16 53.01 68.92C53.25 68.25 53.29 67.53 53.21 66.82C53.14 66.19 52.97 65.47 52.57 64.95C52.31 64.61 52 64.31 51.6 64.13C51.11 63.91 50.3 64.08 49.95 64.5C47.73 67.16 45.51 69.8201 43.3 72.4701L46.04 77.56C47.73 74.6 48.83 71.2601 49.2 67.8701C49.33 66.6701 49.18 65.3701 48.34 64.4301C48.05 64.1001 47.74 63.8901 47.3 63.8101C46.83 63.7201 46.27 63.8501 45.93 64.2301C44.02 66.3601 42.11 68.4901 40.2 70.6101L42.95 75.7301C44.73 72.6801 46.13 69.3901 47 65.9701L47.2 65.17C47.28 64.73 47.28 64.29 47.2 63.85C47.13 63.21 46.96 62.4901 46.56 61.9701C46.3 61.6301 45.98 61.32 45.58 61.14C45.07 60.91 44.28 61.1 43.91 61.51C42.33 63.33 40.85 65.24 39.53 67.25C38.21 69.26 37.06 71.44 36.01 73.64C35.86 74.04 35.78 74.4501 35.78 74.8701C35.73 75.3101 35.75 75.75 35.85 76.18C36 76.81 36.23 77.3901 36.67 77.8701C36.99 78.2301 37.47 78.5901 38 78.5501C38.63 78.4901 39.19 78.1101 39.51 77.5501C40.36 76.0201 41.12 74.4201 41.76 72.7901C42.4 71.1601 42.88 69.4201 43.29 67.6901L43.35 66.82L43.25 65.95C43.12 65.33 42.86 64.74 42.44 64.27C42.15 63.94 41.84 63.7301 41.41 63.6501C40.96 63.5701 40.36 63.69 40.05 64.07C37.63 67.06 35.21 70.04 32.79 73.03L35.51 78.0801C37.57 75.0601 39.19 71.7 40.28 68.2C40.49 67.52 40.56 66.84 40.48 66.13C40.41 65.5 40.24 64.8001 39.85 64.2901C39.59 63.9501 39.28 63.66 38.89 63.48C38.38 63.25 37.64 63.45 37.26 63.85C34.34 66.97 31.68 70.3501 29.36 73.9401L32.77 77.75C34.1 74.36 35.43 70.9701 36.76 67.5801C37.01 66.9401 37.03 66.2101 36.96 65.5401C36.89 64.9201 36.73 64.2301 36.34 63.7201C36.09 63.3901 35.78 63.09 35.4 62.92C34.86 62.68 34.2 62.91 33.79 63.28C30.62 66.18 27.86 69.5901 25.69 73.2901L29.05 77.0501C30.28 73.9601 31.52 70.8801 32.75 67.7901C33 67.1701 33.02 66.4501 32.94 65.7901C32.87 65.1901 32.71 64.5001 32.33 64.0101C32.08 63.6901 31.78 63.4 31.41 63.23C30.91 63.01 30.21 63.2001 29.84 63.5801C27.24 66.2801 24.94 69.31 23.08 72.56C22.7 73.22 22.52 73.99 22.54 74.75C22.56 75.44 22.75 76.3401 23.18 76.9101C23.52 77.3501 24.02 77.83 24.63 77.78C25.24 77.73 25.73 77.36 26.04 76.84C27.73 73.98 29.12 70.9101 30.11 67.7301C30.51 66.4501 30.43 64.8701 29.5 63.8301C29.2 63.5001 28.76 63.16 28.28 63.21C27.7 63.26 27.18 63.62 26.89 64.13C25.33 66.93 23.96 69.84 22.79 72.82C22.53 73.49 22.48 74.44 22.65 75.13C22.79 75.7 23 76.23 23.39 76.67C23.68 77 24.12 77.33 24.6 77.28C25.16 77.23 25.72 76.8801 25.97 76.3701C26.84 74.5701 27.65 72.74 28.33 70.85C29.01 68.96 29.57 67.0101 30.06 65.0401C30.22 64.3901 30.09 63.3501 29.81 62.7401C29.59 62.2501 29.31 61.8201 28.84 61.5401C28.46 61.3101 27.98 61.21 27.56 61.42C26.97 61.72 26.69 62.24 26.42 62.82C24.87 66.14 23.32 69.46 21.77 72.78L25.48 74.21L25.16 67.9701C25.11 67.0601 24.86 66.0101 24.12 65.4001C23.57 64.9501 22.63 64.83 22.13 65.45C21.47 66.26 20.85 67.08 20.35 68C19.85 68.92 19.39 69.9001 19.05 70.9001C18.35 72.9701 18.02 75.16 18.1 77.35C18.13 78.35 18.48 79.52 19.38 80.06C19.71 80.26 20.03 80.33 20.41 80.24C20.86 80.14 21.31 79.81 21.52 79.39C23.2 76 24.64 72.5001 25.75 68.8701C26.13 67.6101 26.07 66.08 25.16 65.06C24.87 64.74 24.44 64.41 23.97 64.45C23.4 64.5 22.89 64.85 22.62 65.35C21.66 67.1 20.81 68.9101 20.09 70.7601C19.37 72.6101 18.8 74.57 18.33 76.53C18.17 77.17 18.3 78.18 18.58 78.78C18.8 79.26 19.07 79.68 19.53 79.95C20.55 80.57 21.59 79.7 21.9 78.7C22.69 76.14 23.48 73.5701 24.27 71.0101C24.49 70.2901 24.56 69.52 24.41 68.78C24.29 68.21 23.99 67.44 23.49 67.07C23.07 66.76 22.53 66.56 22.02 66.81C21.48 67.09 21.12 67.6 20.92 68.17C19.93 71 18.93 73.8301 17.94 76.6601L21.43 78.78C21.94 75.04 22.42 71.2901 22.91 67.5401C23.06 66.4301 22.83 64.98 21.8 64.35C20.83 63.76 19.91 64.59 19.59 65.52C18.84 67.72 18.08 69.9201 17.33 72.1201L20.55 74.0801C20.89 71.5601 20.97 68.99 20.71 66.45C20.61 65.5 20.31 64.18 19.19 63.98C18.14 63.79 17.52 64.98 17.4 65.85C17.02 68.43 16.66 71.01 16.27 73.59L19.43 74.8301C19.45 74.6801 19.46 74.53 19.47 74.38C19.5 73.99 19.5 73.94 19.47 74.25C19.42 74.7 19.47 74.3 19.47 74.2L19.53 73.57L19.65 72.38L19.9 69.9401C20.07 68.3101 20.24 66.69 20.4 65.06C20.45 64.53 20.44 63.99 20.23 63.5C20.09 63.17 19.79 62.7 19.41 62.59C18.48 62.31 17.93 63.2701 17.8 64.0501L17.69 63.9901Z" fill="#DD0B15"/>
<path d="M18.8201 76.2602C19.1401 77.1402 19.4501 78.0302 19.7701 78.9102L20.0101 79.3602C20.1301 79.5602 20.2901 79.7102 20.5001 79.8102C20.6101 79.9102 20.7301 79.9502 20.8801 79.9502C21.0801 80.0102 21.2701 79.9902 21.4701 79.9002C22.0501 79.6402 22.6301 79.3902 23.2201 79.1302L21.3601 77.6002C21.4001 77.7402 21.4201 77.8702 21.4401 78.0102L21.3701 77.4102C21.3901 77.5702 21.3901 77.7402 21.3801 77.9002L21.4201 77.3002C21.4201 77.3902 21.4001 77.4802 21.3801 77.5802L21.5201 77.0402C21.4501 77.2802 21.4001 77.5202 21.3401 77.7702L21.4801 77.2202C21.4401 77.3902 21.3801 77.5602 21.3001 77.7202L21.5201 77.2502C21.5201 77.2502 21.5101 77.2802 21.5001 77.2902L21.2801 77.7602C21.1801 78.0402 21.1201 78.3202 21.1201 78.6102C21.0901 78.8102 21.0901 79.0202 21.1301 79.2202C21.1401 79.5102 21.2101 79.7902 21.3301 80.0602L21.5801 80.5202L21.8901 80.8702C22.0501 81.0302 22.2401 81.1102 22.4501 81.1302C22.6501 81.1902 22.8501 81.1702 23.0501 81.0702C23.4801 80.8202 23.9001 80.5802 24.3301 80.3302C24.5401 80.2102 24.7501 80.0802 24.9601 79.9602C25.1701 79.8402 25.4001 79.7402 25.6101 79.6302C25.8301 79.5302 26.0001 79.3902 26.1301 79.1902C26.3101 79.0002 26.4401 78.7702 26.5201 78.5102C26.6301 78.2202 26.6801 77.9202 26.6801 77.6202C26.7201 77.3002 26.7001 76.9802 26.6301 76.6702L26.4601 76.1002C26.3301 75.7702 26.1401 75.4902 25.8801 75.2602L25.5001 75.0302C25.2201 74.9202 24.9401 74.9302 24.6701 75.0502C24.4401 75.1302 24.2101 75.2202 23.9701 75.3002C23.7301 75.3802 23.5001 75.4602 23.2801 75.5702L24.6601 80.1102H24.6801C24.5501 80.1802 24.4201 80.2702 24.2901 80.3602C24.4901 80.2302 24.7101 80.1302 24.9501 80.0802L24.5101 80.1802C24.6801 80.1402 24.8501 80.1302 25.0201 80.1302C25.1001 80.1302 25.1901 80.1502 25.2701 80.1502C25.3501 80.1502 25.4401 80.1502 25.5201 80.1502C25.7601 80.1502 25.9701 80.0702 26.1401 79.9202C26.3601 79.8002 26.5301 79.6202 26.6501 79.4002L26.8901 78.8902C27.0001 78.5902 27.0601 78.2802 27.0601 77.9702C27.0901 77.7502 27.0901 77.5302 27.0401 77.3102C27.0201 76.9902 26.9501 76.6902 26.8301 76.4002L26.5601 75.9102C26.3801 75.6302 26.1301 75.4302 25.8301 75.2902C25.7601 75.2602 25.6901 75.2202 25.6101 75.2002C25.6001 75.2002 25.5901 75.2002 25.5801 75.1902L25.1401 75.1102C25.1401 75.1102 25.1001 75.1102 25.0801 75.1102C25.0401 75.1102 25.0101 75.1102 24.9701 75.1102C24.8201 75.1102 24.6601 75.1102 24.5101 75.1402C24.2301 75.1902 23.9301 75.2502 23.6701 75.3602C23.3901 75.4802 23.1401 75.6602 22.8901 75.8402C22.6901 76.0302 22.5401 76.2402 22.4501 76.5002C22.3001 76.7702 22.2101 77.0502 22.1801 77.3602L22.1401 78.0302C22.1401 78.3602 22.1901 78.6802 22.3101 78.9902C22.3501 79.1902 22.4201 79.3702 22.5301 79.5402C22.6401 79.7902 22.8001 80.0002 23.0101 80.1702L23.4101 80.4102C23.7001 80.5202 23.9901 80.5102 24.2801 80.3902C24.5101 80.2802 24.7301 80.1502 24.9501 80.0302C25.1701 79.9102 25.4001 79.7802 25.6201 79.6602L24.3001 75.3202C24.1001 75.4602 23.9001 75.6002 23.7001 75.7402L24.0601 75.5002C23.7501 75.7102 23.4201 75.9002 23.1001 76.1002C22.7801 76.3002 22.4601 76.5002 22.1401 76.7002L23.9101 80.0102C23.9701 79.8702 24.0301 79.7302 24.0701 79.5802C24.1401 79.3402 24.2001 79.0902 24.2501 78.8402C24.2501 78.8002 24.2601 78.7602 24.2701 78.7202C24.2901 78.4902 24.3001 78.2602 24.3101 78.0302L24.2701 78.6302C24.3001 78.3502 24.3201 78.0602 24.3301 77.7702C24.3301 77.6702 24.3301 77.5702 24.3301 77.4802C24.3301 77.3402 24.3001 77.1902 24.2901 77.0502C24.2801 76.9102 24.2601 76.7702 24.2401 76.6202C24.2201 76.5202 24.2001 76.4302 24.1801 76.3302C24.1401 76.0602 24.0401 75.8002 23.9001 75.5702C23.8001 75.3502 23.6601 75.1602 23.4701 75.0002L23.1101 74.7802C22.8501 74.6802 22.5801 74.6902 22.3201 74.8002C21.7401 75.0602 21.1601 75.3102 20.5701 75.5702L22.2601 76.5602C21.9401 75.6802 21.6301 74.7902 21.3101 73.9102C21.2301 73.6702 21.0901 73.4602 20.9101 73.2902C20.7801 73.1102 20.6101 72.9802 20.4001 72.9002C20.2001 72.8102 20.0001 72.8002 19.8101 72.8702C19.6001 72.8902 19.4201 72.9902 19.2701 73.1502L18.9801 73.5102C18.7901 73.8202 18.6801 74.1502 18.6201 74.5102L18.5801 75.1102C18.5801 75.5002 18.6601 75.8802 18.8101 76.2402L18.8201 76.2602Z" fill="#DD0B15"/>
<path d="M135.06 71.3103C135.26 71.3403 135.42 71.3703 135.62 71.3403C135.82 71.3103 136.02 71.2703 136.21 71.2403C136.5 71.1903 136.79 71.1503 137.05 70.9803C137.26 70.8503 137.46 70.7203 137.67 70.5803C138.49 70.0403 139.29 69.4703 140.07 68.8703C141.46 67.7803 142.79 66.6203 144.01 65.3503C144.8 64.5203 145.53 63.6403 146.24 62.7403L143.53 60.4603C142.77 64.6203 142.3 68.8303 142.08 73.0603C141.98 75.0403 141.93 77.0303 141.96 79.0203C141.99 81.0103 142.11 83.0703 142.22 85.0903C142.25 85.6603 142.28 86.2203 142.32 86.7903C142.35 87.2503 142.32 87.6403 142.41 88.1103C142.57 88.9103 143.01 89.8303 143.81 90.1603C145.45 90.8503 146.26 88.7103 146.22 87.4403C146.2 86.6403 145.95 85.7003 145.31 85.1703C145.06 84.9703 144.78 84.8403 144.45 84.8403C144.06 84.8403 143.88 85.0103 143.58 85.2303C143.33 85.4803 143.14 85.7703 143.03 86.1103C142.89 86.5103 142.83 86.9203 142.84 87.3403C142.84 87.7603 142.93 88.1703 143.09 88.5603C143.22 88.8903 143.42 89.1803 143.68 89.4103L143.72 89.4303L143.39 89.0503L143.41 89.0803L142.97 88.0003V88.0403C142.97 87.6003 142.95 87.1603 142.94 86.7103V86.7403C143.06 86.3703 143.2 85.9903 143.33 85.6203L143.31 85.6503L143.64 85.2403L143.62 85.2603L144.02 84.9903C144.02 84.9903 143.98 85.0103 143.96 85.0203L144.42 84.9103C144.42 84.9103 144.36 84.9103 144.34 84.9203L144.81 85.0003C144.81 85.0003 144.73 84.9803 144.7 84.9503L145.13 85.2103L145.08 85.1603L145.45 85.5703L145.41 85.5103L145.7 86.0503C145.65 85.9403 145.59 85.8303 145.56 85.7103L145.75 86.3403C145.65 85.9603 145.63 85.5403 145.58 85.1503C145.57 85.0303 145.55 84.9103 145.54 84.7903L145.59 85.2303V85.1103C145.55 84.8703 145.52 84.6303 145.5 84.3803C145.43 83.5303 145.38 82.6803 145.34 81.8303C145.26 80.1703 145.22 78.5103 145.23 76.8503C145.24 75.1903 145.29 73.4503 145.4 71.7503C145.4 71.6703 145.41 71.5903 145.41 71.5103C145.36 72.3403 145.39 71.8603 145.41 71.6803C145.42 71.4803 145.44 71.2803 145.45 71.0703C145.48 70.6703 145.51 70.2603 145.55 69.8603C145.62 69.0103 145.71 68.1603 145.81 67.3203C146.03 65.4303 146.31 63.5403 146.64 61.6603C146.73 61.1403 146.67 60.5903 146.52 60.0903C146.4 59.6903 146.19 59.2103 145.84 58.9503C145.6 58.7703 145.34 58.6503 145.03 58.6403C144.54 58.6203 144.19 59.0403 143.93 59.3703C143.74 59.6203 143.54 59.8703 143.34 60.1203L143.65 59.7403C141.49 62.3903 139.06 64.7303 136.23 66.6603L136.58 66.4303C136.4 66.5503 136.23 66.6603 136.05 66.7803C135.74 66.9903 135.56 67.1703 135.32 67.4403C134.96 67.8603 134.6 68.2603 134.32 68.7403C134.04 69.2203 133.99 69.8603 134.15 70.4003C134.3 70.8903 134.57 71.2203 135.08 71.3103H135.06Z" fill="#DD0B15"/>
<path d="M14.19 85.6202C14.19 89.8902 14.18 94.1502 14.15 98.4202C14.12 102.69 14.11 106.95 14.1 111.22C14.1 113.63 14.12 116.05 14.06 118.46C14.04 119.17 14.33 120.07 14.9 120.53C15.35 120.9 16.09 120.98 16.51 120.49C17.27 119.59 18.16 118.82 19.14 118.16L18.75 118.43C20.94 116.97 23.46 116.07 26.01 115.46L25.53 115.57C25.86 115.52 26.17 115.42 26.49 115.35L26 115.46C30.68 114.38 35.53 113.96 40.33 113.92C45.13 113.88 50.27 114.22 55.2 114.82C58 115.16 60.8 115.57 63.59 116.01L62.97 115.9C64.79 116.26 66.64 116.49 68.47 116.78C70.1 117.04 71.73 117.31 73.36 117.58C76.65 118.11 79.94 118.63 83.25 119.03C89.99 119.85 96.76 120.25 103.55 120.36C110.34 120.47 117.17 120.32 123.98 120.19C125.73 120.16 127.48 120.12 129.22 120.09C130.96 120.06 132.63 120.06 134.34 119.98C136.05 119.9 137.79 119.81 139.52 119.73C140.48 119.68 141.43 119.68 142.36 119.39C143.57 119 144.34 117.81 144.77 116.69C145.2 115.57 145.27 114.45 145.3 113.31C145.33 112.49 145.34 111.67 145.37 110.86C145.44 109.12 145.51 107.37 145.57 105.63C145.68 102.18 145.82 98.7302 145.96 95.2902C145.99 94.4602 146.03 93.6302 146.06 92.8002C146.08 92.3102 145.94 91.7102 145.75 91.2602C145.54 90.7602 145.22 90.3102 144.76 90.0302C144.42 89.8202 144.1 89.7602 143.71 89.8502C143.2 89.9702 142.87 90.2902 142.57 90.7202C142.3 91.1202 142.01 91.5002 141.71 91.8702L142.1 91.3802C140.98 92.7602 139.67 93.9302 138.2 94.9302L138.67 94.6102C135.94 96.4602 132.84 97.6502 129.64 98.3902L130.2 98.2602C124.71 99.5202 119.02 99.4002 113.46 98.7702C111.73 98.5702 110.01 98.3102 108.3 98.0102L108.9 98.1202C102.9 97.0402 97.03 95.3602 91.23 93.5002C85.43 91.6402 79.63 89.5502 73.81 87.6102C67.99 85.6702 62.17 83.8902 56.2 82.6302C50.23 81.3702 43.62 80.5402 37.24 80.7702C30.4 81.0102 23.59 82.3402 17.14 84.6202C16.37 84.8902 15.61 85.1802 14.85 85.4802C14.19 85.7402 13.71 86.5502 13.48 87.1702C13.18 87.9902 13.1 89.0902 13.31 89.9402C13.63 91.2702 14.64 93.0202 16.27 92.3802C19.23 91.2202 22.28 90.3002 25.38 89.5802L24.75 89.7202C32.15 88.0202 39.78 87.5802 47.32 88.3802C49.27 88.5902 51.22 88.8702 53.15 89.2202L52.52 89.1102C59.03 90.2802 65.38 92.1302 71.66 94.1802C77.94 96.2302 84.26 98.5102 90.61 100.51C96.96 102.51 103.62 104.23 110.32 105.19C116.33 106.05 122.47 106.3 128.45 105.1C131.4 104.51 134.3 103.65 136.99 102.27C139.68 100.89 141.95 99.1802 143.89 97.0202C144.46 96.3802 145.01 95.7002 145.51 95.0002L142.02 92.9102C141.9 95.0302 141.77 97.1502 141.68 99.2702L141.73 98.4302C141.62 99.7402 141.57 101.07 141.49 102.38C141.43 103.46 141.35 104.54 141.3 105.62L141.35 104.75C141.16 107.15 141.05 109.57 140.93 111.97L140.99 111.08C140.89 111.94 140.92 112.81 140.72 113.65L140.93 112.82C140.88 113.01 140.81 113.2 140.73 113.38L141.07 112.67C140.99 112.81 140.91 112.95 140.8 113.08L141.25 112.53C141.16 112.63 141.06 112.72 140.95 112.8L141.49 112.44C141.32 112.55 141.15 112.62 140.96 112.67L141.57 112.53C141.12 112.63 140.67 112.61 140.21 112.61L138.65 112.59C137.59 112.58 136.53 112.57 135.46 112.56C133.36 112.54 131.26 112.59 129.16 112.63C125 112.71 120.83 112.8 116.67 112.86C112.51 112.92 108.34 112.96 104.17 112.9C100 112.84 95.84 112.7 91.69 112.4C87.54 112.1 83.62 111.65 79.61 111.11C75.6 110.57 71.59 110.06 67.58 109.52C63.57 108.98 59.58 108.51 55.56 108.16C51.54 107.81 47.63 107.57 43.65 107.61C39.67 107.65 35.69 107.93 31.77 108.6C28.13 109.21 24.41 109.99 21.05 111.56C20.22 111.95 19.35 112.37 18.62 112.92L19.02 112.65C18.16 113.2 17.32 113.78 16.56 114.46C15.8 115.14 15.12 115.93 14.5 116.75L17.26 118.4C17.16 114.14 17.22 109.87 17.22 105.6C17.22 101.33 17.19 97.0702 17.17 92.8002C17.16 90.3902 17.17 87.9702 17.17 85.5602C17.17 85.0402 17 84.4102 16.7 83.9802C16.48 83.6702 16.06 83.3102 15.64 83.3502C14.56 83.4502 14.22 84.7402 14.22 85.6402L14.19 85.6202Z" fill="#FFCF02"/>
<path d="M17.48 88.6903C16.68 90.7703 15.89 92.8403 15.09 94.9203C14.73 95.8503 14.88 97.1203 15.55 97.8703C15.77 98.1203 16.11 98.3703 16.47 98.3403C16.91 98.3003 17.31 98.0303 17.52 97.6403C18.82 95.2403 20.12 92.8503 21.42 90.4403L18.81 87.5202C17.55 91.1202 16.29 94.7303 15.03 98.3303C14.64 99.4303 14.77 100.87 15.57 101.76C15.83 102.05 16.22 102.35 16.64 102.31C17.17 102.26 17.58 101.95 17.86 101.5C19.74 98.4703 21.62 95.4403 23.49 92.4003L20.75 88.4503C18.53 92.1003 16.66 96.0003 15.22 100.02C14.82 101.13 14.46 102.25 14.13 103.38C13.94 104.03 13.86 104.66 13.94 105.34C14.01 105.93 14.16 106.6 14.54 107.09C14.78 107.41 15.08 107.69 15.45 107.86C15.91 108.07 16.67 107.91 16.99 107.51C19.85 104.08 22.12 100.27 23.82 96.1403C24.26 95.0603 24.66 93.9703 25.01 92.8603C25.42 91.5503 25.34 89.9303 24.39 88.8603C24.09 88.5203 23.63 88.1803 23.14 88.2203C22.54 88.2803 22.02 88.6403 21.72 89.1703C18.9 94.1503 16.85 99.4703 15.51 105.03C15.16 106.5 14.87 107.98 14.63 109.47C14.52 110.15 14.58 110.85 14.78 111.51C14.94 112.03 15.2 112.65 15.66 112.99C15.97 113.22 16.31 113.38 16.71 113.39C17.25 113.41 17.92 112.89 18.14 112.44C20.21 108.2 22.28 103.96 24.36 99.7203C24.95 98.5103 25.55 97.2903 26.14 96.0803L22.79 92.3403C21.28 96.4802 19.77 100.62 18.26 104.76C17.83 105.93 17.41 107.1 16.98 108.28C16.71 109.03 16.67 109.96 16.83 110.73C16.96 111.35 17.3 112.2 17.83 112.6C18.29 112.94 18.88 113.17 19.44 112.88C20.05 112.57 20.4 112.01 20.65 111.39C21.67 108.89 22.77 106.41 23.93 103.97L23.62 104.62C25.48 100.73 27.51 96.9203 29.72 93.2103L26.33 89.4103C24.67 94.2403 23.02 99.0703 21.36 103.89C20.89 105.26 20.42 106.64 19.95 108.01C19.48 109.38 19.63 111.07 20.6 112.15C20.92 112.5 21.39 112.86 21.9 112.81C22.51 112.75 23.09 112.38 23.37 111.83C25.97 106.78 28.57 101.74 31.17 96.6903C31.91 95.2503 32.65 93.8203 33.39 92.3803L29.94 88.5202C28.74 92.9402 27.53 97.3503 26.33 101.77C25.99 103.01 25.65 104.26 25.31 105.5C25.08 106.34 24.97 107.15 25.16 108.02C25.29 108.66 25.64 109.53 26.19 109.94C26.66 110.29 27.27 110.52 27.85 110.23C28.46 109.92 28.87 109.34 29.09 108.7C30.14 105.69 31.36 102.75 32.73 99.8703L32.41 100.54C34.21 96.7803 36.27 93.1403 38.57 89.6703L35.1 85.7903C33.3 90.4603 31.51 95.1203 29.71 99.7903C29.2 101.11 28.69 102.43 28.18 103.76C27.9 104.5 27.84 105.53 28.02 106.3C28.17 106.93 28.4 107.5 28.84 107.99C29.16 108.35 29.64 108.71 30.16 108.66C30.79 108.6 31.36 108.22 31.66 107.66C34.08 103.23 36.5 98.7903 38.92 94.3603C39.61 93.1003 40.29 91.8403 40.98 90.5803L37.48 86.6703C35.83 90.9803 34.18 95.2903 32.52 99.6003C32.05 100.82 31.59 102.04 31.12 103.25C30.84 103.99 30.78 105.04 30.96 105.81C31.11 106.44 31.34 107.02 31.78 107.51C32.1 107.87 32.59 108.24 33.11 108.19C33.75 108.13 34.3 107.74 34.62 107.18C36.74 103.45 38.86 99.7303 40.98 96.0003C41.58 94.9403 42.19 93.8803 42.79 92.8103L39.27 88.8703C38 93.2603 36.51 97.5903 34.78 101.82C34.29 103.02 33.78 104.22 33.26 105.4C33.11 105.8 33.03 106.22 33.03 106.64C32.98 107.08 33 107.53 33.1 107.97C33.25 108.6 33.49 109.19 33.93 109.68C34.26 110.05 34.74 110.41 35.27 110.36C35.92 110.3 36.46 109.91 36.79 109.35C39.66 104.58 42.52 99.8103 45.39 95.0303C46.2 93.6803 47.02 92.3203 47.83 90.9703L44.28 87.0003C42.36 91.9503 40.43 96.9002 38.51 101.84C37.97 103.23 37.43 104.62 36.89 106.01C36.6 106.76 36.54 107.83 36.73 108.6C36.88 109.24 37.12 109.83 37.56 110.32C37.89 110.69 38.38 111.06 38.91 111.01C39.58 110.95 40.09 110.55 40.44 109.99C43.24 105.6 46.04 101.21 48.84 96.8203C49.63 95.5803 50.42 94.3403 51.22 93.1003L47.65 89.1003C45.93 94.1603 44.2 99.2103 42.48 104.27C41.99 105.71 41.5 107.14 41.01 108.58C40.52 110.02 40.67 111.79 41.69 112.93C42.02 113.3 42.51 113.67 43.05 113.62C43.72 113.56 44.25 113.16 44.6 112.59C47.16 108.37 49.72 104.15 52.27 99.9403C53 98.7303 53.73 97.5303 54.46 96.3203L50.86 92.2903C49.15 96.6703 47.44 101.06 45.73 105.44C45.25 106.68 44.76 107.92 44.28 109.16C43.98 109.92 43.93 111 44.12 111.79C44.28 112.44 44.52 113.04 44.96 113.54C45.29 113.91 45.79 114.29 46.33 114.24C47 114.18 47.53 113.78 47.89 113.2C50.68 108.68 53.47 104.16 56.25 99.6403L58.6 95.8303L54.97 91.7702C53.58 96.1102 52.18 100.45 50.79 104.79C50.4 106.01 50 107.24 49.61 108.46C49.15 109.9 49.25 111.7 50.3 112.86C50.64 113.24 51.14 113.61 51.68 113.56C52.32 113.5 52.96 113.11 53.25 112.52C55.61 107.72 58.24 103.04 61.12 98.5303C61.93 97.2603 62.77 96.0003 63.62 94.7503L59.98 90.6803C58.34 95.1503 56.7 99.6303 55.06 104.1C54.59 105.38 54.12 106.67 53.65 107.95C53.39 108.65 53.35 109.41 53.44 110.15C53.52 110.81 53.69 111.56 54.11 112.11C54.38 112.47 54.71 112.78 55.13 112.97C55.64 113.2 56.5 113.02 56.86 112.58C59.54 109.31 62.06 105.91 64.36 102.36C64.98 101.4 65.59 100.42 66.18 99.4403L62.33 96.1903C62.31 96.2603 62.3 96.3303 62.28 96.3903L62.49 95.5603C62.26 96.4403 61.96 97.2903 61.57 98.1103L61.91 97.4103C61.44 98.3803 60.87 99.3003 60.2 100.14L60.64 99.5903C60.38 99.9103 60.1 100.23 59.81 100.53L63.01 105.16C63.76 103.44 64.05 101.53 64.07 99.6603C64.09 97.7903 63.7 95.9303 63.09 94.1703C62.87 93.5303 62.6 92.9203 62.28 92.3303C61.85 91.5103 61.4 90.7203 60.84 89.9903C59.91 88.7703 58.81 87.6403 57.52 86.8003C56.73 86.2903 55.92 85.8203 55.03 85.4903C54.14 85.1603 53.22 84.9803 52.3 84.8603C51.7 84.7803 50.99 85.4503 50.73 85.9103C50.37 86.5303 50.2 87.1903 50.16 87.9003C50.07 89.3003 50.5 90.9903 51.87 91.6403C57.11 94.1303 62.35 96.6103 67.59 99.1003C69.07 99.8003 70.56 100.51 72.04 101.21L71.34 94.9203C67.7 98.3003 64.05 101.69 60.41 105.07L62.84 110.97C65.99 107.28 69.14 103.59 72.27 99.8903C73.16 98.8403 74.04 97.8003 74.93 96.7503L71.75 92.1603C70.86 94.4103 69.89 96.6203 68.85 98.8103L69.18 98.1203C67.65 101.33 65.96 104.46 64.13 107.5C63.71 108.19 63.53 109.06 63.55 109.86C63.57 110.61 63.78 111.58 64.25 112.19C64.62 112.67 65.15 113.19 65.82 113.13C66.49 113.07 66.99 112.68 67.34 112.12C70.14 107.64 72.95 103.15 75.75 98.6703L72.3 94.8103C72.15 95.1503 71.98 95.4903 71.82 95.8203L72.14 95.1503C70.3 99.0103 68.46 102.86 66.62 106.72C66.26 107.47 66 108.19 66.05 109.04C66.09 109.73 66.23 110.39 66.56 111C66.8 111.45 67.18 111.98 67.7 112.14C68.3 112.32 68.87 112.21 69.34 111.77C72.43 108.87 75.52 105.98 78.62 103.08L81.26 100.61L78.54 95.5503C76.54 99.2503 74.52 102.93 72.5 106.61C71.76 107.95 71.71 109.65 72.44 111.01C72.69 111.47 73.08 112.02 73.61 112.18C74.24 112.37 74.79 112.23 75.29 111.8C76.8 110.5 78.32 109.2 79.83 107.9C80.59 107.25 81.34 106.6 82.1 105.95C82.86 105.3 83.58 104.6 84.37 104.01L81.14 99.3403C80.26 101.61 79.3 103.85 78.26 106.05L78.6 105.34C77.7 107.22 76.75 109.07 75.73 110.88C74.96 112.26 74.91 114.04 75.66 115.44C75.92 115.92 76.32 116.49 76.87 116.65C77.5 116.84 78.13 116.73 78.62 116.26C82.24 112.78 85.86 109.3 89.48 105.81L86.25 101.14C85.44 104 84.39 106.79 83.11 109.47L83.45 108.76C82.97 109.77 82.45 110.76 81.91 111.74C81.14 113.12 81.09 114.9 81.84 116.3C82.1 116.78 82.5 117.35 83.05 117.51C83.67 117.7 84.32 117.6 84.8 117.12C87.88 114.02 90.96 110.93 94.04 107.83C94.92 106.95 95.8 106.06 96.68 105.17L93.79 99.8003C91.39 103.92 88.99 108.04 86.59 112.16C85.8 113.51 85.79 115.33 86.52 116.7C86.78 117.17 87.18 117.74 87.73 117.91C88.33 118.09 89.01 118.01 89.47 117.52C92.43 114.32 95.16 110.9 97.62 107.3L94.33 102.55C93.1 104.38 91.87 106.21 90.63 108.04L94.14 108.64C93.36 106.32 92.52 104 91.37 101.83C90.08 99.3903 88.54 97.0103 86.34 95.2903C85.18 94.3803 83.85 93.6303 82.44 93.2103L81.41 99.8203C85.97 101.12 90.45 102.68 94.83 104.49C96.08 105.01 97.32 105.55 98.56 106.1L98.99 99.3503C97.83 99.4603 96.67 99.3803 95.53 99.1803L96.13 99.2903C91.38 98.4203 87.13 95.6703 82.24 95.4203C80.83 95.3503 79.4 95.5803 78.06 96.0403L77.53 96.4003C77.25 96.6603 77.05 96.9603 76.92 97.3003C76.61 97.9403 76.45 98.6903 76.48 99.4003C76.51 99.9903 76.62 100.58 76.83 101.14C77.04 101.7 77.6 102.5 78.22 102.69C83.05 104.18 87.95 105.44 92.91 106.44C94.47 106.76 96.04 107.04 97.62 107.32L97.45 100.37C93.46 100.34 89.47 100.31 85.48 100.28C84.83 100.28 84.19 100.82 83.89 101.34C83.53 101.96 83.36 102.64 83.31 103.36C83.26 104.08 83.33 104.9 83.64 105.58C83.92 106.19 84.35 106.94 85.05 107.15C90.21 108.69 95.65 109.46 101.04 109.35C102.53 109.32 104.03 109.22 105.51 109.05L104.73 102.17C101.25 104.38 97.76 106.59 94.28 108.8C93.96 108.94 93.7 109.16 93.51 109.45C93.24 109.74 93.05 110.07 92.94 110.45C92.7 111.19 92.63 111.93 92.72 112.7C92.8 113.38 92.98 114.15 93.41 114.71C93.79 115.21 94.37 115.78 95.07 115.7C99.5 115.19 103.83 113.78 107.65 111.47C108.31 111.07 108.72 110.56 108.99 109.82C109.28 109.02 109.36 107.94 109.16 107.1C108.98 106.36 108.69 105.5 108.05 105.02C107.56 104.65 106.86 104.37 106.26 104.71C103.74 106.16 101.21 107.6 98.69 109.05C98.03 109.43 97.62 109.98 97.36 110.69C97.07 111.49 97 112.56 97.19 113.39C97.37 114.13 97.66 114.98 98.3 115.45L98.86 115.79C99.27 115.95 99.68 115.94 100.08 115.76C104.48 114.33 108.7 112.35 112.62 109.89L110.27 104.17C109.9 104.73 109.51 105.27 109.09 105.79L109.53 105.24C108.24 106.83 106.73 108.23 105.03 109.38L105.56 109.02C105.47 109.08 105.38 109.14 105.3 109.2C104.98 109.34 104.73 109.55 104.55 109.83C104.29 110.11 104.1 110.44 103.99 110.81C103.7 111.6 103.63 112.65 103.83 113.47C104.01 114.19 104.29 115.04 104.92 115.5C105.43 115.88 106.05 116.1 106.67 115.8C109.95 114.23 113.05 112.32 115.99 110.17L113.1 104.8C112.39 105.94 111.67 107.09 110.96 108.23C110.25 109.37 109.57 110.55 108.81 111.66C108.36 112.32 108.15 113.38 108.2 114.16C108.25 114.94 108.39 115.62 108.75 116.28C109.01 116.76 109.42 117.34 109.98 117.51C110.61 117.7 111.26 117.6 111.75 117.11C114.76 114.12 118.01 111.39 121.5 108.97L118.28 104.32C117.22 107.13 116.16 109.93 115.1 112.74C114.84 113.43 114.81 114.2 114.89 114.92C114.96 115.58 115.14 116.33 115.55 116.86C115.82 117.21 116.15 117.53 116.56 117.71C117.12 117.96 117.86 117.73 118.28 117.32C121.73 113.99 125.19 110.68 128.65 107.36L125.51 102.82C124.84 105.07 124.17 107.31 123.5 109.56C123.29 110.27 123.21 110.96 123.29 111.71C123.36 112.36 123.54 113.09 123.94 113.62C124.21 113.97 124.53 114.28 124.93 114.46C125.47 114.7 126.22 114.49 126.62 114.08C129.49 111.11 132.27 108.03 134.85 104.8L134.42 105.33C134.5 105.24 134.57 105.15 134.65 105.05L131.55 100.57C130.55 103 129.54 105.42 128.53 107.84C128.32 108.34 128.26 109 128.27 109.54C128.29 110.25 128.46 110.94 128.79 111.56C129.02 111.98 129.29 112.32 129.7 112.57C130.09 112.81 130.71 112.98 131.14 112.7C132.72 111.69 134.24 110.59 135.64 109.34C137.04 108.09 138.31 106.66 139.5 105.17L135.69 101.95C135.58 102.81 135.42 103.66 135.21 104.5L135.42 103.68C135.07 105.07 134.59 106.42 133.97 107.72L134.31 107.02C134.15 107.36 133.98 107.7 133.8 108.03C133.05 109.42 132.98 111.14 133.73 112.54C133.98 113.01 134.39 113.58 134.93 113.74C135.55 113.93 136.18 113.82 136.66 113.35C139.55 110.49 142.2 107.38 144.57 104.08L141.25 99.2803C139.21 102.24 137.89 105.65 137.21 109.17C137 110.25 137.23 111.57 137.87 112.48C138.12 112.87 138.46 113.15 138.88 113.33C139.28 113.48 139.68 113.47 140.07 113.3C140.83 112.8 141.52 112.29 142.11 111.6C142.48 111.17 142.84 110.72 143.14 110.23C143.44 109.74 143.69 109.2 143.93 108.68C144.32 107.82 144.57 106.86 144.71 105.92C144.9 104.63 144.85 103.43 144.68 102.15C144.57 101.31 144.07 100.43 143.34 100C142.69 99.6003 141.94 99.6703 141.37 100.22C137.84 103.64 136.98 109.45 138.87 113.91L139.52 109.52C139.39 109.67 139.25 109.8 139.08 109.92L139.57 109.59C139.3 109.77 139.01 109.94 138.75 110.14L139.24 109.81C139.09 109.87 138.94 109.92 138.78 109.96L139.33 109.83C139.14 109.87 138.94 109.88 138.75 109.87C138.15 109.85 137.6 110.38 137.31 110.83C136.92 111.45 136.72 112.35 136.76 113.08C136.83 114.33 137.39 116.13 138.91 116.18C139.45 116.2 140.01 116.07 140.51 115.86L139.96 115.99C140.32 115.92 140.63 115.85 140.94 115.65C141.25 115.45 141.55 115.26 141.79 114.99C142.87 113.84 142.99 112.02 142.44 110.6C142.36 110.4 142.29 110.2 142.23 109.99L142.46 110.75C142.32 110.28 142.22 109.8 142.16 109.31L142.26 110.17C142.21 109.68 142.2 109.2 142.22 108.71L142.16 109.58C142.19 109.06 142.27 108.55 142.39 108.04L142.19 108.83C142.33 108.27 142.52 107.72 142.77 107.2L142.44 107.88C142.72 107.3 143.05 106.77 143.45 106.27L143.01 106.81C143.24 106.53 143.48 106.25 143.75 106L140.45 104.06V104.15C140.43 103.85 140.39 103.55 140.36 103.26C140.4 103.69 140.42 104.12 140.39 104.55L140.45 103.65C140.42 104.08 140.35 104.5 140.24 104.92L140.44 104.1C140.32 104.55 140.17 104.98 139.97 105.4L140.3 104.7C140.05 105.23 139.74 105.72 139.37 106.18L139.81 105.64C139.38 106.17 138.89 106.63 138.33 107.01L138.86 106.65C138.81 106.68 138.76 106.72 138.71 106.75L141.57 110.88C141.64 110.52 141.72 110.16 141.81 109.81L141.6 110.63C141.96 109.21 142.45 107.83 143.08 106.5L142.74 107.2C143.26 106.11 143.87 105.07 144.56 104.07C145.02 103.41 145.18 102.39 145.16 101.61C145.14 100.83 144.92 99.8203 144.44 99.1903C144.06 98.6903 143.5 98.1503 142.81 98.2203C142.12 98.2903 141.64 98.7103 141.23 99.2703C140.51 100.26 139.76 101.23 138.99 102.19L139.44 101.64C139.24 101.88 139.05 102.13 138.85 102.37L139.3 101.82C138.93 102.27 138.55 102.72 138.2 103.18L138.65 102.63C137.25 104.31 135.78 105.93 134.23 107.48L137.1 112.81C138.61 109.96 139.65 106.87 140.03 103.66C140.12 102.91 140.08 102.18 139.86 101.45C139.69 100.88 139.4 100.21 138.91 99.8503C138.57 99.6003 138.2 99.4303 137.77 99.4103C137.08 99.3803 136.59 99.9703 136.22 100.44C136.13 100.55 136.04 100.66 135.95 100.78L136.39 100.24C134.51 102.56 132.3 104.59 129.83 106.26L130.35 105.91C130.17 106.03 129.99 106.15 129.81 106.27L132.42 111.14C133.41 108.71 134.4 106.27 135.4 103.84L135.6 103.04C135.68 102.6 135.68 102.15 135.6 101.71C135.53 101.07 135.36 100.34 134.95 99.8103C134.68 99.4603 134.37 99.1603 133.97 98.9803C133.47 98.7603 132.65 98.9303 132.29 99.3603C129.74 102.47 127.05 105.46 124.25 108.34L127.38 112.86C128.05 110.62 128.73 108.38 129.4 106.13C129.61 105.42 129.69 104.72 129.61 103.98C129.54 103.33 129.36 102.59 128.95 102.06C128.68 101.71 128.36 101.4 127.95 101.22C127.39 100.97 126.67 101.2 126.25 101.6C122.79 104.9 119.32 108.2 115.85 111.49L119.03 116.08C120.11 113.29 121.18 110.5 122.26 107.71C122.53 107.01 122.56 106.23 122.48 105.5C122.4 104.83 122.23 104.08 121.81 103.53C121.53 103.17 121.21 102.85 120.79 102.67C120.48 102.53 120.18 102.52 119.88 102.63C119.56 102.67 119.28 102.81 119.05 103.06C115.55 105.43 112.26 108.12 109.26 111.1L112.19 116.55C112.85 115.37 113.6 114.23 114.31 113.08C115.02 111.93 115.72 110.77 116.43 109.61C117.25 108.28 117.23 106.41 116.5 105.06C116.24 104.59 115.84 104.02 115.29 103.85L114.68 103.74C114.24 103.77 113.86 103.93 113.54 104.24C112.92 104.7 112.3 105.15 111.66 105.58L112.19 105.22C111.82 105.47 111.45 105.72 111.08 105.97L111.61 105.61C109.59 106.94 107.48 108.14 105.29 109.19L106.65 115.79C108.01 114.89 109.3 113.92 110.46 112.77C111.62 111.62 112.67 110.32 113.58 108.96C113.97 108.38 114.11 107.65 114.15 106.96C114.2 106.24 114.13 105.43 113.83 104.76C113.62 104.31 113.36 103.88 112.99 103.54C112.59 103.18 111.74 102.92 111.23 103.23C107.3 105.67 103.08 107.62 98.68 109.03L100.06 115.74C102.59 114.31 105.12 112.88 107.64 111.45L106.25 104.7C103.55 106.31 100.61 107.5 97.55 108.22L98.16 108.08C97.08 108.33 95.99 108.52 94.88 108.65L95.66 115.55C99.14 113.33 102.63 111.11 106.11 108.89C106.43 108.75 106.69 108.53 106.88 108.24C107.15 107.96 107.34 107.62 107.45 107.24C107.69 106.51 107.75 105.76 107.67 105C107.59 104.32 107.41 103.56 106.99 103C106.61 102.5 106.03 101.93 105.34 102.01C100.53 102.55 95.65 102.39 90.89 101.54L91.5 101.65C89.68 101.32 87.88 100.89 86.11 100.37L85.67 107.23C89.66 107.25 93.65 107.27 97.64 107.29C98.31 107.29 98.9 106.75 99.23 106.23C99.66 105.55 99.88 104.55 99.84 103.76C99.8 102.97 99.63 102 99.11 101.32L98.64 100.79C98.31 100.5 97.92 100.35 97.48 100.34C97.04 100.27 96.61 100.19 96.17 100.11L96.78 100.22C92.18 99.3903 87.62 98.3503 83.12 97.1003C81.84 96.7403 80.56 96.3703 79.29 95.9803L79.45 102.64C79.76 102.53 80.08 102.44 80.41 102.36L79.81 102.5C81.23 102.19 82.68 102.23 84.1 102.48L83.5 102.37C85.51 102.73 87.44 103.46 89.35 104.16C91.47 104.94 93.58 105.65 95.81 106.03C96.92 106.22 98.05 106.29 99.18 106.18C100.64 106.03 101.24 104.42 101.32 103.15C101.41 101.78 100.99 100.04 99.61 99.4303C95.29 97.4903 90.86 95.7903 86.34 94.3603C85.05 93.9503 83.75 93.5603 82.45 93.1903C81.81 93.0103 81.24 93.1203 80.73 93.5803C80.19 94.0703 79.84 94.9403 79.75 95.6403C79.64 96.5003 79.67 97.4603 80.04 98.2603C80.32 98.8603 80.74 99.5903 81.42 99.7903C82.26 100.04 83.05 100.4 83.8 100.85L83.26 100.52C84.25 101.13 85.13 101.91 85.91 102.77L85.44 102.25C86.42 103.35 87.22 104.59 87.92 105.89L87.55 105.21C88.73 107.41 89.6 109.76 90.39 112.13C90.64 112.88 91.27 113.57 92.06 113.71C92.85 113.85 93.47 113.38 93.91 112.73C95.14 110.91 96.39 109.09 97.63 107.27C98.08 106.61 98.25 105.61 98.23 104.84C98.21 104.07 98 103.07 97.51 102.44C97.13 101.95 96.58 101.42 95.9 101.48C95.22 101.54 94.73 101.96 94.34 102.52C93.16 104.21 91.93 105.86 90.64 107.46L91.09 106.91C89.79 108.51 88.46 110.08 87.06 111.59L89.94 116.94C92.34 112.83 94.75 108.71 97.16 104.6C97.95 103.24 97.97 101.42 97.23 100.05C96.97 99.5703 96.57 99.0003 96.02 98.8403C95.4 98.6503 94.75 98.7503 94.28 99.2303C91.2 102.32 88.12 105.42 85.04 108.51L82.4 111.16L85.29 116.54C87.41 112.74 89.12 108.7 90.31 104.52C90.52 103.78 90.61 103.07 90.53 102.3C90.45 101.63 90.28 100.87 89.85 100.32C89.57 99.9603 89.24 99.6403 88.82 99.4503C88.25 99.1903 87.5 99.4303 87.07 99.8403C83.45 103.32 79.83 106.8 76.21 110.29L79.1 115.67C81.43 111.5 83.47 107.16 85.19 102.71C85.46 102.01 85.49 101.23 85.41 100.49C85.33 99.8203 85.16 99.0603 84.73 98.5103C84.45 98.1503 84.12 97.8303 83.7 97.6403C83.14 97.3903 82.37 97.6103 81.95 98.0303C81.25 98.7403 80.45 99.3703 79.7 100.03C78.95 100.69 78.2 101.36 77.45 102.03C75.95 103.36 74.45 104.69 72.95 106.02L75.74 111.21C77.72 107.48 79.7 103.75 81.7 100.03C82.41 98.7103 82.48 97.0703 81.76 95.7403C81.52 95.2903 81.14 94.7603 80.62 94.6003C80.02 94.4203 79.45 94.5303 78.98 94.9703C75.89 97.8703 72.8 100.77 69.71 103.67C68.83 104.49 67.95 105.32 67.07 106.14L70.1 110.52C72.08 106.36 74.06 102.21 76.04 98.0503L75.72 98.7203L75.78 98.6103C76.16 97.8703 76.37 97.1403 76.35 96.2903C76.33 95.5603 76.13 94.6003 75.67 94.0003C75.31 93.5303 74.79 93.0203 74.14 93.0803C73.49 93.1403 73 93.5303 72.65 94.0703C69.82 98.5203 67 102.97 64.17 107.42L67.37 112.04C69.92 107.87 72.18 103.53 74.18 99.0703C74.72 97.8603 75.24 96.6503 75.74 95.4203C76.02 94.7403 76.03 93.9503 75.95 93.2403C75.88 92.5803 75.7 91.8403 75.29 91.3003C75.02 90.9503 74.69 90.6303 74.28 90.4503C73.76 90.2203 72.94 90.4002 72.56 90.8402C69.4 94.5102 66.25 98.1803 63.11 101.87C62.22 102.91 61.34 103.95 60.45 104.99C59.91 105.62 59.59 106.25 59.46 107.08C59.33 107.91 59.4 108.97 59.75 109.73C60.03 110.34 60.46 111.07 61.14 111.28C61.77 111.47 62.38 111.35 62.88 110.89C66.52 107.5 70.17 104.12 73.81 100.73C74.72 99.8803 74.94 98.4303 74.81 97.2703C74.68 96.1103 74.2 94.9603 73.12 94.4403C67.88 91.9603 62.64 89.4703 57.4 86.9903C55.92 86.2903 54.43 85.5803 52.95 84.8803L52.52 91.6603C52.7 91.6803 52.89 91.7103 53.07 91.7403L52.47 91.6303C53.63 91.8503 54.72 92.2803 55.73 92.8803L55.18 92.5503C56.14 93.1403 57 93.8703 57.75 94.7003L57.28 94.1703C57.91 94.8803 58.45 95.6603 58.9 96.4903L58.53 95.8003C58.92 96.5203 59.23 97.2703 59.47 98.0503L59.22 97.2303C59.42 97.9103 59.57 98.6003 59.65 99.3003L59.55 98.3903C59.61 98.9803 59.63 99.5803 59.6 100.18L59.66 99.2603C59.62 99.8603 59.53 100.45 59.39 101.03L59.6 100.2C59.47 100.71 59.3 101.21 59.09 101.69L58.88 102.52C58.8 102.98 58.79 103.44 58.88 103.89C58.96 104.56 59.13 105.31 59.55 105.85C59.82 106.21 60.15 106.52 60.57 106.71C61.12 106.96 61.9 106.74 62.3 106.32C63.32 105.25 64.25 104.05 64.95 102.75C65.35 102 65.72 101.23 66.03 100.44C66.36 99.5903 66.58 98.7103 66.79 97.8203L66.85 96.9003C66.85 96.4403 66.78 96.0003 66.62 95.5803C66.45 95.0103 66.16 94.3303 65.66 93.9603C65.32 93.7103 64.94 93.5403 64.51 93.5203C63.88 93.4903 63.24 94.0703 62.94 94.5703C60.41 98.7803 57.59 102.81 54.51 106.63L54.95 106.08C54.8 106.26 54.66 106.44 54.51 106.62L57.71 111.24C59.35 106.76 60.99 102.29 62.63 97.8103C63.1 96.5303 63.57 95.2403 64.04 93.9603C64.55 92.5503 64.37 90.6903 63.35 89.5503C63.01 89.1703 62.51 88.8003 61.97 88.8503C61.27 88.9103 60.79 89.3303 60.4 89.8903C57.38 94.3103 54.6 98.9003 52.09 103.63C51.38 104.96 50.7 106.31 50.03 107.67L53.66 111.73C55.05 107.39 56.44 103.05 57.84 98.7003C58.23 97.4803 58.62 96.2503 59.02 95.0303C59.48 93.5903 59.37 91.8003 58.33 90.6303C58 90.2603 57.5 89.8803 56.95 89.9303C56.27 89.9903 55.74 90.4003 55.39 90.9703C52.61 95.4903 49.82 100.02 47.04 104.54C46.26 105.81 45.47 107.08 44.69 108.36L48.3 112.4C50.01 108.01 51.71 103.63 53.42 99.2403C53.9 98.0003 54.39 96.7603 54.87 95.5103C55.16 94.7503 55.22 93.6703 55.03 92.8903C54.87 92.2403 54.64 91.6503 54.19 91.1503C53.86 90.7803 53.36 90.4003 52.82 90.4503C52.15 90.5103 51.61 90.9103 51.27 91.4803C48.71 95.7003 46.16 99.9203 43.6 104.15C42.87 105.36 42.14 106.56 41.41 107.77L45 111.78C46.72 106.72 48.44 101.66 50.16 96.6003C50.65 95.1603 51.14 93.7303 51.63 92.2903C52.12 90.8503 51.97 89.0903 50.95 87.9603C50.62 87.5903 50.13 87.2202 49.59 87.2702C48.92 87.3302 48.41 87.7303 48.05 88.3003C45.25 92.6903 42.45 97.0903 39.66 101.48C38.87 102.72 38.08 103.97 37.29 105.21L40.85 109.19C42.77 104.24 44.69 99.2902 46.61 94.3403C47.15 92.9503 47.69 91.5503 48.23 90.1603C48.52 89.4103 48.58 88.3503 48.39 87.5803C48.24 86.9403 48 86.3603 47.56 85.8603C47.23 85.4903 46.74 85.1303 46.21 85.1703C45.55 85.2303 45.02 85.6203 44.68 86.1903C41.82 90.9703 38.95 95.7403 36.09 100.52C35.28 101.87 34.47 103.23 33.65 104.58L37.18 108.53C39.03 104.35 40.65 100.07 42.05 95.7103C42.45 94.4703 42.82 93.2303 43.18 91.9803C43.59 90.5603 43.55 88.8703 42.51 87.7103C42.19 87.3503 41.7 86.9803 41.17 87.0303C40.53 87.0903 39.97 87.4803 39.65 88.0403C37.53 91.7703 35.41 95.5003 33.3 99.2303C32.7 100.29 32.09 101.36 31.49 102.42L35 106.35C36.65 102.04 38.3 97.7203 39.95 93.4103C40.42 92.1903 40.88 90.9703 41.35 89.7503C41.63 89.0103 41.69 87.9703 41.51 87.2003C41.36 86.5703 41.13 85.9903 40.69 85.5103C40.37 85.1503 39.89 84.7903 39.36 84.8303C38.73 84.8903 38.16 85.2703 37.85 85.8303C35.43 90.2703 33.02 94.7103 30.6 99.1503C29.91 100.41 29.23 101.67 28.54 102.93L32.03 106.83C33.82 102.16 35.61 97.4903 37.41 92.8303C37.92 91.5103 38.43 90.1803 38.93 88.8603C39.21 88.1303 39.27 87.0903 39.08 86.3303C38.93 85.7103 38.7 85.1303 38.27 84.6503C37.95 84.2903 37.47 83.9303 36.95 83.9803C36.29 84.0403 35.81 84.4303 35.45 84.9803C32.15 89.9603 29.36 95.2703 27.08 100.79C26.46 102.3 25.88 103.82 25.34 105.36L29.12 108.56C30.32 104.14 31.52 99.7203 32.72 95.3103C33.06 94.0603 33.4 92.8203 33.74 91.5703C33.96 90.7603 34.1 89.9003 33.89 89.0603C33.74 88.4403 33.51 87.8703 33.08 87.3903C32.76 87.0303 32.29 86.6803 31.77 86.7203C31.16 86.7803 30.57 87.1503 30.28 87.7103C27.68 92.7603 25.09 97.8203 22.5 102.88C21.76 104.32 21.02 105.76 20.29 107.2L23.71 111.02C25.36 106.19 27.01 101.35 28.65 96.5203C29.12 95.1403 29.59 93.7703 30.06 92.3903C30.53 91.0103 30.38 89.3503 29.42 88.2803C29.11 87.9303 28.64 87.5803 28.13 87.6203C27.5 87.6803 26.99 88.0502 26.67 88.5902C23.77 93.4902 21.17 98.5703 18.85 103.77C18.21 105.2 17.6 106.65 17 108.1L20.68 111.22C22.18 107.07 23.69 102.93 25.19 98.7803C25.62 97.6103 26.04 96.4303 26.47 95.2603C26.94 93.9603 26.77 92.2503 25.84 91.2003C25.53 90.8503 25.07 90.5103 24.57 90.5503C23.98 90.6003 23.39 90.9703 23.13 91.5103C21.06 95.7603 19 100.01 16.93 104.26C16.34 105.48 15.75 106.69 15.15 107.91L18.66 110.87C18.93 109.15 19.27 107.45 19.69 105.77L19.5 106.52C20.41 102.93 21.66 99.4403 23.26 96.1003L22.96 96.7403C23.51 95.5803 24.11 94.4403 24.74 93.3303L21.44 89.6403C20.86 91.4803 20.15 93.2803 19.33 95.0203L19.63 94.3803C18.23 97.3103 16.48 100.05 14.46 102.58L17.71 106.22C18.67 102.71 19.93 99.2903 21.49 96.0103L21.21 96.6103C21.92 95.1203 22.69 93.6603 23.52 92.2403C23.87 91.6303 24.03 90.9203 24.02 90.2203C24 89.5803 23.83 88.7503 23.42 88.2203C23.11 87.8103 22.65 87.3703 22.08 87.4203C21.51 87.4703 21.06 87.8003 20.78 88.2803C20.31 89.0803 19.84 89.8903 19.36 90.6903C18.81 91.6403 18.19 92.5703 17.74 93.5603L18.01 92.9903C17.11 94.5303 16.21 96.0703 15.31 97.6103L18.14 100.77C19.32 97.1003 20.5 93.4303 21.68 89.7503C22.01 88.7203 21.93 87.4202 21.19 86.5902C20.95 86.3202 20.59 86.0502 20.2 86.0902C19.74 86.1302 19.29 86.4202 19.08 86.8402C18.46 88.0802 17.84 89.3203 17.21 90.5503C16.99 90.9603 16.81 91.4203 16.57 91.8203C16.62 91.7403 16.77 91.4403 16.65 91.6803L16.54 91.9103L16.31 92.3603C15.99 93.0003 15.67 93.6403 15.35 94.2803L17.78 97.0003C18.52 94.8703 19.25 92.7503 19.99 90.6203C20.17 90.1103 20.2 89.5003 20.09 88.9703C20 88.5503 19.78 87.9803 19.41 87.7103C18.59 87.1003 17.82 87.7002 17.51 88.5202L17.48 88.6903Z" fill="#FFCF02"/>
</g>
<defs>
<clipPath id="clip0_3416_10088">
<rect width="151.45" height="280.67" fill="white"/>
</clipPath>
</defs>
</svg>
