<svg width="152" height="281" viewBox="0 0 152 281" fill="none" xmlns="http://www.w3.org/2000/svg">
<g clip-path="url(#clip0_3416_10124)">
<path d="M29.99 26.4099C27.57 27.0199 67.68 47.0299 67.68 47.0299L71.52 26.4099C71.52 26.4099 41.87 23.4199 29.99 26.4099Z" fill="#012169"/>
<path d="M93.24 34.5303V52.1103L133.33 34.5303C133.33 34.5303 113.76 41.0603 93.24 34.5303Z" fill="#012169"/>
<path d="M13.82 88.3304C13.82 88.3304 36.2 84.9404 39.03 85.5104C41.86 86.0804 14.89 107.53 14.89 107.53L13.83 88.3304H13.82Z" fill="#012169"/>
<path d="M14.88 39.2002L48.43 56.7102H14.88V39.2002Z" fill="#012169"/>
<path d="M148.09 42.3003C146.54 44.8503 106.23 61.9103 106.23 61.9103L148.09 59.5303V42.3003Z" fill="#012169"/>
<path d="M96.06 119.96C94.29 119.71 96.06 93.98 96.06 93.98L123.73 119.96C123.73 119.96 103.97 121.09 96.06 119.96Z" fill="#012169"/>
<path d="M145.51 90.0303H112.44L145.51 107.53V90.0303Z" fill="#012169"/>
<path d="M31.66 112.61C34.34 111.48 63.87 90.02 63.87 90.02V117.35L31.66 112.61Z" fill="#012169"/>
<path d="M16.99 32.7103C17.29 33.5603 57.38 55.0203 57.38 55.0203H63.87L23.78 31.0103L16.99 32.7003V32.7103Z" fill="#DD0B15"/>
<path d="M16.64 33.5002C16.74 33.7702 17.01 33.9402 17.24 34.1002C17.58 34.3302 17.94 34.5502 18.29 34.7602C19.54 35.5102 20.8 36.2302 22.07 36.9402C23.87 37.9602 25.68 38.9602 27.49 39.9602C29.62 41.1402 31.75 42.3102 33.89 43.4702C36.03 44.6302 38.37 45.9102 40.61 47.1202C42.85 48.3302 44.87 49.4202 47 50.5702C48.78 51.5302 50.56 52.4902 52.33 53.4402C53.54 54.0902 54.76 54.7402 55.97 55.4002C56.3 55.5702 56.62 55.7502 56.95 55.9202C57.09 55.9902 57.24 56.1002 57.4 56.1202C57.66 56.1502 57.94 56.1202 58.2 56.1202H63.88C64.27 56.1202 64.35 55.4002 64.37 55.1402C64.39 54.7802 64.37 54.1202 64.02 53.9102C63.55 53.6302 63.08 53.3502 62.62 53.0702C61.37 52.3202 60.12 51.5702 58.86 50.8202C57.05 49.7402 55.24 48.6502 53.43 47.5702C51.29 46.2902 49.15 45.0102 47.01 43.7302C44.87 42.4502 42.53 41.0502 40.29 39.7002C38.17 38.4302 36.06 37.1702 33.94 35.9002L28.64 32.7302C27.45 32.0202 26.27 31.3102 25.08 30.6002L24.16 30.0502C24.01 29.9602 23.89 29.8602 23.7 29.8902C23.36 29.9402 23.01 30.0602 22.68 30.1502L20.99 30.5702C19.86 30.8502 18.73 31.1302 17.6 31.4202C17.4 31.4702 17.19 31.5202 16.99 31.5702C16.56 31.6802 16.49 32.3202 16.5 32.6902C16.5 32.8802 16.59 33.9202 16.99 33.8102C18.9 33.3302 20.81 32.8602 22.72 32.3802C23.03 32.3002 23.41 32.2702 23.7 32.1302C23.7 32.1302 23.77 32.1302 23.77 32.1102L23.65 32.0702C23.65 32.0702 23.69 32.0902 23.69 32.1002C23.87 32.2402 24.1 32.3502 24.3 32.4702C25.32 33.0802 26.33 33.6902 27.35 34.2902C29 35.2802 30.65 36.2702 32.3 37.2502C34.35 38.4802 36.39 39.7002 38.44 40.9302L45.14 44.9402C47.32 46.2502 49.51 47.5502 51.69 48.8602C53.59 50.0002 55.49 51.1402 57.39 52.2702C58.8 53.1102 60.21 53.9602 61.61 54.8002C62.29 55.2102 62.96 55.6302 63.64 56.0202C63.67 56.0402 63.7 56.0602 63.73 56.0702L63.86 53.8602H57.63C57.63 53.8602 57.41 53.8302 57.38 53.8602C57.41 53.8302 57.57 53.9502 57.42 53.8602C57.21 53.7302 56.98 53.6202 56.76 53.5002C55.72 52.9402 54.68 52.3802 53.64 51.8202C51.98 50.9302 50.33 50.0402 48.68 49.1502C46.62 48.0402 44.57 46.9302 42.51 45.8202C40.3 44.6202 38.08 43.4202 35.87 42.2202C33.66 41.0202 31.5 39.8402 29.32 38.6402C27.42 37.5902 25.52 36.5402 23.63 35.4802C22.2 34.6802 20.77 33.8702 19.36 33.0402C18.64 32.6202 17.91 32.2002 17.23 31.7102C17.15 31.6502 17.12 31.5702 17.26 31.7502C17.17 31.6402 17.33 31.8902 17.32 31.8802C17.16 31.4602 16.79 31.5002 16.62 31.8802C16.4 32.3602 16.43 32.9902 16.62 33.4702L16.64 33.5002Z" fill="#DD0B15"/>
<path d="M135.02 38.0703L96.34 56.7103L99.73 59.8103L140.67 38.0703H135.02Z" fill="#DD0B15"/>
<path d="M134.89 36.9902C134.55 37.1602 134.2 37.3202 133.86 37.4902C132.92 37.9402 131.98 38.4002 131.04 38.8502C129.65 39.5202 128.27 40.1902 126.88 40.8502C125.19 41.6602 123.5 42.4802 121.81 43.2902C119.96 44.1802 118.11 45.0702 116.26 45.9702C114.41 46.8702 112.5 47.7802 110.62 48.6802L105.39 51.2002C103.92 51.9102 102.44 52.6202 100.97 53.3302C99.91 53.8402 98.85 54.3502 97.79 54.8602C97.29 55.1002 96.76 55.3102 96.27 55.5902C96.25 55.6002 96.23 55.6102 96.21 55.6202C95.9 55.7702 95.84 56.4202 95.85 56.7002C95.85 57.0902 95.92 57.5102 96.21 57.7802C97.34 58.8202 98.47 59.8502 99.6 60.8902C99.69 60.9402 99.78 60.9402 99.86 60.8902C100.22 60.7002 100.59 60.5002 100.95 60.3102C101.95 59.7802 102.94 59.2502 103.94 58.7202C105.41 57.9402 106.87 57.1602 108.34 56.3802C110.13 55.4302 111.92 54.4802 113.71 53.5302C115.67 52.4902 117.63 51.4502 119.59 50.4102C121.55 49.3702 123.56 48.3002 125.55 47.2402C127.39 46.2602 129.24 45.2802 131.08 44.3002C132.64 43.4702 134.2 42.6402 135.76 41.8202L139.14 40.0302C139.67 39.7502 140.22 39.4902 140.73 39.1802C140.75 39.1702 140.78 39.1602 140.8 39.1402C141.16 38.9502 141.17 38.2402 141.15 37.9102C141.13 37.6402 141.05 36.9302 140.66 36.9302C139.01 36.9302 137.36 36.9302 135.72 36.9302H135.02C134.59 36.9302 134.52 37.7702 134.52 38.0502C134.52 38.3302 134.58 39.1702 135.02 39.1702C136.67 39.1702 138.32 39.1702 139.96 39.1702H140.66L140.53 36.9602C140.17 37.1502 139.8 37.3502 139.44 37.5402L136.45 39.1302C134.98 39.9102 133.52 40.6902 132.05 41.4702C130.26 42.4202 128.47 43.3702 126.68 44.3202C124.72 45.3602 122.76 46.4002 120.8 47.4402C118.84 48.4802 116.83 49.5502 114.84 50.6102L109.31 53.5502C107.75 54.3802 106.19 55.2102 104.63 56.0302L101.25 57.8202C100.73 58.1002 100.15 58.3302 99.66 58.6702C99.64 58.6802 99.61 58.6902 99.59 58.7102H99.85C98.72 57.6702 97.59 56.6402 96.46 55.6002V57.7702C96.8 57.6002 97.15 57.4402 97.49 57.2702L100.31 55.9102C101.7 55.2402 103.08 54.5702 104.47 53.9102C106.16 53.1002 107.85 52.2802 109.54 51.4702C111.39 50.5802 113.24 49.6902 115.09 48.7902C116.94 47.8902 118.85 46.9802 120.73 46.0802C122.47 45.2402 124.22 44.4002 125.96 43.5602C127.43 42.8502 128.91 42.1402 130.38 41.4302C131.44 40.9202 132.5 40.4102 133.56 39.9002C134.06 39.6602 134.59 39.4402 135.08 39.1702C135.1 39.1602 135.12 39.1502 135.14 39.1402C135.75 38.8502 135.55 36.6402 134.88 36.9702L134.89 36.9902Z" fill="#DD0B15"/>
<path d="M14.88 116.09L49.52 87.2002H56.25L14.88 120.46V116.09Z" fill="#DD0B15"/>
<path d="M15.14 118.26C15.45 118 15.76 117.74 16.07 117.48L18.59 115.38C19.83 114.35 21.07 113.31 22.31 112.28C23.83 111.01 25.35 109.75 26.87 108.48C28.53 107.1 30.18 105.72 31.84 104.33C33.5 102.94 35.2 101.53 36.88 100.13C38.44 98.8304 40 97.5304 41.56 96.2304L45.52 92.9304L48.38 90.5504C48.82 90.1804 49.32 89.8304 49.73 89.4204C49.75 89.4004 49.77 89.3904 49.79 89.3704L49.53 89.4504C51.49 89.4504 53.45 89.4504 55.41 89.4504H56.26L56 85.0304C55.63 85.3304 55.26 85.6204 54.89 85.9204C53.88 86.7304 52.88 87.5404 51.87 88.3404C50.39 89.5304 48.91 90.7204 47.43 91.9104C45.62 93.3704 43.81 94.8204 41.99 96.2804C40 97.8804 38.02 99.4704 36.03 101.07C34.04 102.67 32.04 104.28 30.04 105.88C28.17 107.38 26.3 108.88 24.43 110.39C22.85 111.66 21.27 112.93 19.69 114.2L16.3 116.93C15.76 117.36 15.21 117.78 14.68 118.23C14.66 118.25 14.63 118.27 14.61 118.29L15.86 120.46V116.09C15.86 115.58 15.79 114.97 15.57 114.5C15.47 114.28 15.2 113.81 14.87 113.84C14 113.93 13.88 115.49 13.88 116.09V120.46C13.88 121.06 13.97 121.7 14.27 122.23C14.42 122.5 14.78 122.92 15.13 122.63C15.5 122.33 15.87 122.04 16.24 121.74C17.25 120.93 18.25 120.12 19.26 119.32C20.74 118.13 22.22 116.94 23.7 115.75C25.51 114.29 27.32 112.84 29.14 111.38C31.13 109.78 33.11 108.19 35.1 106.59C37.09 104.99 39.09 103.38 41.09 101.78C42.96 100.28 44.83 98.7804 46.7 97.2704C48.28 96.0004 49.86 94.7304 51.44 93.4604C52.57 92.5504 53.7 91.6404 54.83 90.7304C55.37 90.3004 55.91 89.8704 56.45 89.4304C56.47 89.4104 56.5 89.3904 56.52 89.3704C57.21 88.8204 57.28 87.7004 57.23 86.9004C57.2 86.4804 57.15 85.9904 56.96 85.6104C56.82 85.3304 56.62 84.9504 56.26 84.9504H50.56C50.18 84.9504 49.58 84.8404 49.23 85.0604C49.05 85.1804 48.88 85.3504 48.72 85.4904C47.85 86.2204 46.97 86.9504 46.1 87.6704C44.68 88.8504 43.26 90.0404 41.84 91.2204C40.07 92.7004 38.3 94.1704 36.53 95.6504C34.6 97.2604 32.66 98.8804 30.73 100.49C28.8 102.1 26.96 103.63 25.07 105.21C23.42 106.59 21.77 107.96 20.12 109.34C18.9 110.35 17.69 111.37 16.47 112.38C15.88 112.87 15.29 113.36 14.7 113.85C14.67 113.87 14.65 113.89 14.62 113.91C13.88 114.52 13.8 115.79 13.93 116.68C13.99 117.12 14.08 117.68 14.38 118.02C14.56 118.22 14.87 118.48 15.14 118.25V118.26Z" fill="#DD0B15"/>
<path d="M102.27 92.9599C102.78 93.9699 134.06 118.83 134.06 118.83H140.67L106.34 91.4399L102.27 92.9599Z" fill="#DD0B15"/>
<path d="M101.57 94.5501C101.94 95.2701 102.65 95.7801 103.25 96.3001C104.27 97.1901 105.32 98.0501 106.36 98.9101C107.83 100.12 109.3 101.33 110.78 102.53C112.49 103.92 114.21 105.31 115.93 106.7C117.65 108.09 119.51 109.58 121.3 111.02C122.97 112.36 124.65 113.7 126.32 115.04C127.69 116.14 129.06 117.23 130.44 118.32C131.33 119.03 132.21 119.73 133.1 120.44C133.3 120.6 133.5 120.77 133.71 120.92C133.93 121.09 134.17 121.08 134.44 121.08H140.68C141.02 121.08 141.27 120.68 141.38 120.42C141.55 120.01 141.63 119.57 141.65 119.13C141.7 118.32 141.63 117.21 140.94 116.66C140.57 116.37 140.2 116.07 139.83 115.78C138.84 114.99 137.84 114.2 136.85 113.4C135.4 112.25 133.96 111.09 132.51 109.94L127.33 105.81C125.5 104.35 123.67 102.89 121.84 101.43C120.01 99.97 118.28 98.59 116.51 97.17C114.96 95.94 113.41 94.7 111.87 93.47L108.43 90.7301L106.71 89.36C106.71 89.36 106.64 89.3 106.61 89.28C106.33 89.13 105.96 89.32 105.68 89.43C104.7 89.8 103.71 90.17 102.73 90.53L102.02 90.8001C101.71 90.9201 101.5 91.5801 101.43 91.8301C101.29 92.3601 101.25 93.02 101.33 93.56C101.39 94 101.48 94.5601 101.78 94.9001C102.01 95.1601 102.2 95.25 102.54 95.13C103.9 94.62 105.25 94.12 106.61 93.61H106.08C106.39 93.85 106.69 94.1 107 94.34L109.5 96.3301C110.73 97.3101 111.96 98.29 113.19 99.28C114.69 100.48 116.2 101.68 117.7 102.88C119.35 104.19 120.99 105.51 122.64 106.82C124.29 108.13 125.96 109.47 127.62 110.8C129.17 112.04 130.72 113.27 132.27 114.51C133.58 115.55 134.89 116.6 136.2 117.64C137.14 118.39 138.08 119.14 139.02 119.89C139.47 120.25 139.91 120.61 140.36 120.96C140.38 120.97 140.4 120.99 140.42 121.01L140.68 116.59C138.75 116.59 136.82 116.59 134.89 116.59H134.07L134.33 116.67C133.38 115.92 132.44 115.17 131.49 114.41C129.18 112.57 126.87 110.73 124.57 108.88C121.69 106.58 118.81 104.27 115.94 101.95C113.28 99.81 110.63 97.66 107.99 95.49C106.34 94.14 104.68 92.8001 103.1 91.3701C103.01 91.2901 102.92 91.2 102.82 91.11L103.06 91.34C102.85 91.14 102.65 90.75 102.97 91.38C102.84 91.12 102.62 90.72 102.27 90.72C101.92 90.72 101.68 91.12 101.57 91.38C101.36 91.88 101.27 92.44 101.28 92.97C101.29 93.5 101.32 94.09 101.57 94.56V94.5501Z" fill="#DD0B15"/>
<path d="M147.12 28.9601C146.32 41.3301 146.27 53.7301 146.13 66.1301C145.99 78.2801 145.9 90.4201 145.94 102.57C145.94 106.06 145.96 109.56 145.98 113.05C145.98 114.66 146.02 116.28 145.99 117.89C145.97 118.78 145.99 118.68 145.86 119.54C145.65 120.88 145.69 122.01 145.85 123.36C146.03 124.89 147.84 126.92 149.36 125.42C151.83 122.99 151.39 118.64 151.36 115.41C151.33 112.18 151.31 109.25 151.28 106.18C151.23 100.03 151.19 93.8701 151.14 87.7201C151.04 75.3301 151.05 62.9401 150.95 50.5401C150.92 47.0501 150.92 43.5501 150.95 40.0601C150.98 36.5701 150.76 33.0801 150.61 29.5901C150.57 28.6101 150.15 27.1701 149.01 26.9801C147.95 26.8101 147.18 28.0101 147.12 28.9601Z" fill="#1D1D1B"/>
<path d="M12.29 129.89C15.47 127.49 18.73 125.28 22.51 123.91C26.29 122.54 30.34 122.03 34.33 121.97C44.24 121.82 53.76 123.96 63.4 125.95C73.58 128.06 83.83 129.96 94.17 131.06C104.51 132.16 114.58 131.9 124.81 131.16C127.7 130.95 130.59 130.76 133.48 130.51C136.13 130.28 138.87 130.15 141.48 129.63C144.09 129.11 146.67 128.17 148.51 126.12C150.98 123.37 152.02 119.56 151.14 115.94C150.74 114.27 149.53 111.93 147.44 112.44C145.35 112.95 144.59 115.59 144.71 117.43C144.77 118.35 144.76 117.28 144.78 117.13C144.74 117.45 144.5 117.9 144.88 116.91C144.84 117.01 144.73 117.57 144.88 117.04C145.04 116.47 144.77 117.16 144.71 117.3C144.58 117.66 144.75 117.32 144.84 117.2C144.69 117.39 144.51 117.57 144.33 117.73C144.15 117.89 143.97 118.06 143.77 118.2C144.2 117.88 143.67 118.23 143.47 118.33C141.81 119.13 139.92 119.15 137.87 119.21C132.84 119.37 127.83 119.79 122.8 120.12C112.82 120.78 102.9 120.71 92.93 119.91C82.96 119.11 73.29 117.61 63.56 115.9C53.83 114.19 44.17 111.86 34.5 113.04C29.85 113.61 25.29 114.84 21.04 116.79C18.92 117.77 16.92 118.94 15.01 120.29C14.11 120.93 13.19 121.61 12.37 122.36C11.42 123.23 10.64 124.4 9.91 125.46C8.83 127.01 9.86 131.68 12.28 129.86L12.29 129.89Z" fill="#1D1D1B"/>
<path d="M77.27 34.6303C75.8 34.1903 74.3 35.2003 74.23 36.6703C73.58 51.3803 70.72 116.67 71.73 116C72.37 115.57 76.88 116.42 80.67 117.24C83.5 117.85 86.23 115.91 86.42 113.14C87.01 104.74 88.13 87.8003 88.67 72.3303C89.42 50.7003 88.67 38.0803 88.67 38.0803L77.27 34.6303Z" fill="#DD0B15"/>
<path d="M77.27 33.5101C76.29 33.2301 75.27 33.5601 74.58 34.3001C73.89 35.0401 73.77 36.0301 73.72 36.9901C73.69 37.7401 73.65 38.4901 73.62 39.2501C73.53 41.2401 73.45 43.2301 73.36 45.2201C73.25 47.7301 73.14 50.2401 73.04 52.7501C72.92 55.6301 72.8 58.5001 72.68 61.3801C72.55 64.4601 72.43 67.5401 72.31 70.6201C72.19 73.7001 72.06 76.9601 71.94 80.1301C71.82 83.3001 71.71 86.2601 71.61 89.3301C71.51 92.1701 71.42 95.0201 71.33 97.8601C71.26 100.32 71.19 102.78 71.13 105.24C71.09 107.17 71.05 109.1 71.03 111.03C71.02 112.27 71.01 113.52 71.06 114.77C71.08 115.18 71.09 115.6 71.14 116.02C71.18 116.32 71.28 117.14 71.72 117.14C71.77 117.14 71.82 117.11 71.86 117.09C71.88 117.09 72 117.02 71.9 117.06C71.82 117.09 71.95 117.05 71.99 117.04C72.26 116.99 72.54 117.01 72.81 117.02C73.72 117.07 74.63 117.21 75.52 117.36C76.68 117.55 77.84 117.78 78.99 118.02C80.04 118.24 81.1 118.57 82.18 118.46C84.14 118.27 85.85 116.94 86.52 115.09C86.85 114.17 86.9 113.24 86.97 112.28C87.03 111.46 87.08 110.65 87.14 109.83C87.42 105.69 87.69 101.56 87.93 97.4201C88.23 92.3501 88.51 87.2901 88.75 82.2201C88.99 77.1501 89.2 71.7201 89.33 66.4601C89.44 61.9201 89.5 57.3701 89.49 52.8301C89.49 49.7101 89.45 46.5901 89.36 43.4801C89.32 41.8701 89.26 40.2701 89.18 38.6601C89.17 38.3701 89.15 38.0801 89.13 37.7901C89.11 37.4701 88.98 37.0601 88.65 36.9601C87.37 36.5701 86.09 36.1801 84.8 35.8001C82.75 35.1801 80.71 34.5601 78.66 33.9401C78.19 33.8001 77.72 33.6501 77.24 33.5101C77.09 33.4601 76.93 33.7601 76.89 33.8401C76.78 34.0701 76.74 34.3801 76.75 34.6401C76.75 35.0301 76.81 35.6301 77.24 35.7601C78.52 36.1501 79.8 36.5401 81.09 36.9201C83.14 37.5401 85.18 38.1601 87.23 38.7801C87.7 38.9201 88.17 39.0701 88.65 39.2101L88.17 38.3801C88.14 37.8001 88.15 38.1101 88.17 38.2501C88.17 38.4101 88.19 38.5701 88.19 38.7201C88.22 39.3401 88.25 39.9501 88.27 40.5701C88.36 42.9301 88.41 45.2801 88.45 47.6401C88.51 51.4401 88.51 55.2401 88.47 59.0401C88.42 64.0601 88.29 69.0801 88.1 74.1001C87.91 79.1201 87.67 84.2901 87.4 89.3801C87.33 90.6101 87.27 91.8401 87.2 93.0801C87.17 93.6701 87.13 94.2701 87.1 94.8601C87.08 95.1401 87.07 95.4301 87.05 95.7101C87.05 95.8501 87.03 95.9901 87.03 96.1301C87.03 96.2001 87.03 96.2701 87.02 96.3401C87.02 96.3601 87 96.7001 87.02 96.4601C86.89 98.6601 86.75 100.86 86.61 103.05C86.49 104.96 86.36 106.86 86.23 108.77C86.17 109.6 86.12 110.44 86.06 111.27C86.03 111.64 86.01 112 85.98 112.37C85.97 112.54 85.96 112.71 85.94 112.88C85.94 112.99 85.91 113.11 85.9 113.22C85.88 113.37 85.94 113.05 85.9 113.2C85.88 113.27 85.87 113.34 85.85 113.4C85.84 113.45 85.82 113.51 85.8 113.56C85.85 113.4 85.8 113.53 85.8 113.56C85.76 113.66 85.72 113.76 85.67 113.86C85.57 114.08 85.53 114.15 85.36 114.39C85.11 114.74 84.83 115.03 84.49 115.29C83.76 115.84 82.89 116.16 81.97 116.21C80.9 116.27 79.82 115.92 78.78 115.71C77.65 115.48 76.52 115.26 75.38 115.07C74.51 114.93 73.63 114.79 72.75 114.75C72.49 114.74 72.21 114.73 71.95 114.78C71.84 114.8 71.73 114.83 71.63 114.88C71.51 114.94 71.69 114.87 71.71 114.87C71.79 114.87 71.9 114.96 71.93 115C72.06 115.16 72.05 115.23 72.02 115.14C71.98 115.05 72.12 115.45 72.08 115.32C72.02 115.1 72.12 115.63 72.1 115.46C72.1 115.41 72.08 115.35 72.08 115.3C72.06 115.13 72.04 114.58 72.06 115.14C72.06 114.94 72.04 114.74 72.03 114.53C72.01 113.98 72.01 113.42 72 112.87C72 111.24 72.02 109.61 72.05 107.99C72.09 105.78 72.14 103.57 72.21 101.36C72.28 98.7101 72.36 96.0701 72.45 93.4201C72.55 90.4801 72.65 87.5401 72.76 84.6001C72.87 81.5101 72.99 78.4201 73.11 75.3201C73.23 72.2201 73.35 69.1201 73.48 66.0201C73.61 62.9201 73.72 60.0701 73.85 57.1001C73.96 54.4301 74.07 51.7601 74.19 49.0901C74.29 46.8201 74.39 44.5601 74.48 42.2901C74.55 40.6001 74.63 38.9101 74.7 37.2201C74.7 37.0601 74.71 36.9101 74.72 36.7501C74.72 36.5401 74.69 36.9901 74.72 36.8201C74.72 36.7801 74.77 36.6101 74.72 36.7501C74.78 36.6301 74.67 36.9201 74.72 36.7501C74.67 36.8601 74.82 36.5201 74.79 36.5801C74.79 36.5801 74.9 36.4201 74.94 36.3701C75.48 35.6801 76.44 35.5001 77.26 35.7301C77.41 35.7701 77.57 35.4801 77.61 35.4001C77.72 35.1701 77.76 34.8601 77.75 34.6001C77.75 34.2201 77.7 33.6001 77.26 33.4801L77.27 33.5101Z" fill="#DD0B15"/>
<path d="M14.88 65.3504C14.88 65.3504 44.91 60.4604 58.05 62.3404C71.19 64.2204 100.47 69.8704 107.23 69.4904C113.99 69.1104 145.52 65.7104 145.52 65.7104V79.2804C145.52 79.2804 114.74 83.4204 106.1 81.9204C97.46 80.4204 77.2 80.0404 77.2 80.0404C77.2 80.0404 56.55 75.1604 46.42 75.5304C36.29 75.9004 20.14 76.0004 20.14 76.0004L14.88 78.1604V65.3604V65.3504Z" fill="#DD0B15"/>
<path d="M14.88 67.6004C15.48 67.5004 16.09 67.4104 16.7 67.3204C18.3 67.0804 19.91 66.8504 21.51 66.6304C23.82 66.3104 26.14 66.0204 28.46 65.7404C31.18 65.4204 33.9 65.1304 36.62 64.8904C39.34 64.6504 42.24 64.4304 45.05 64.3004C47.67 64.1804 50.3 64.1204 52.92 64.1904C55.11 64.2504 57.26 64.4704 59.42 64.7904C61.84 65.1504 64.26 65.5504 66.68 65.9504C69.52 66.4204 72.36 66.9004 75.2 67.3804C78.19 67.8804 81.17 68.3904 84.16 68.8804C87.15 69.3704 89.87 69.8104 92.72 70.2404C95.2 70.6104 97.68 70.9704 100.18 71.2704C102.01 71.4904 103.85 71.6904 105.69 71.7604C106.92 71.8004 108.13 71.7004 109.35 71.6104C111.18 71.4604 113.01 71.3004 114.84 71.1204C117.16 70.9004 119.48 70.6704 121.8 70.4404C124.28 70.1904 126.76 69.9404 129.23 69.6804C131.57 69.4404 133.91 69.2004 136.25 68.9504C138.12 68.7504 139.99 68.5604 141.85 68.3604C142.93 68.2504 144 68.1304 145.08 68.0104C145.22 67.9904 145.36 67.9804 145.5 67.9604L144.51 65.7104V70.2804C144.51 72.7204 144.51 75.1604 144.51 77.6004V79.2704L145.5 77.0204C144.88 77.1004 144.25 77.1804 143.63 77.2604C142 77.4704 140.37 77.6704 138.74 77.8604C136.44 78.1304 134.14 78.3804 131.84 78.6204C129.22 78.8904 126.6 79.1404 123.98 79.3504C121.36 79.5604 118.83 79.7404 116.25 79.8604C114.04 79.9604 111.82 80.0204 109.61 79.9604C108.75 79.9304 107.9 79.8904 107.04 79.7904C106.14 79.6904 105.26 79.5104 104.36 79.3904C101.75 79.0304 99.12 78.8104 96.49 78.6204C93.6 78.4104 90.72 78.2604 87.83 78.1304C85.45 78.0204 83.07 77.9404 80.68 77.8704C79.9 77.8504 79.13 77.8304 78.35 77.8104C77.98 77.8104 77.6 77.8104 77.23 77.7904C77.08 77.7804 76.94 77.7304 76.8 77.7004C76.26 77.5804 75.73 77.4604 75.19 77.3404C73.16 76.8904 71.13 76.4704 69.09 76.0604C66.3 75.5104 63.5 75.0004 60.69 74.5604C57.88 74.1204 54.89 73.7104 51.97 73.4704C50.67 73.3604 49.36 73.2804 48.06 73.2704C46.76 73.2604 45.38 73.3204 44.04 73.3704C40.74 73.4704 37.43 73.5404 34.13 73.5904C31.16 73.6404 28.19 73.6804 25.23 73.7104C23.6 73.7304 21.98 73.7404 20.35 73.7504C19.97 73.7504 19.65 73.9204 19.3 74.0704L16.39 75.2704C15.8 75.5104 15.2 75.7604 14.61 76.0004L15.86 78.1704V73.8604C15.86 71.5604 15.86 69.2704 15.86 66.9704V65.3704C15.86 64.8604 15.79 64.2504 15.57 63.7804C15.47 63.5604 15.2 63.0904 14.87 63.1204C14 63.2104 13.88 64.7704 13.88 65.3704V69.6804C13.88 71.9804 13.88 74.2704 13.88 76.5704V78.1704C13.88 78.7404 14.08 80.7704 15.13 80.3404C16.66 79.7104 18.19 79.0804 19.72 78.4504C19.94 78.3604 20.16 78.2704 20.39 78.1804L20.13 78.2604C21.15 78.2604 22.17 78.2504 23.18 78.2404C25.66 78.2204 28.15 78.1904 30.63 78.1504C33.73 78.1104 36.82 78.0504 39.92 77.9804C41.45 77.9404 42.97 77.9004 44.5 77.8604C45.73 77.8204 46.96 77.7604 48.2 77.7804C50.77 77.8204 53.34 78.0804 55.89 78.3904C58.67 78.7304 61.43 79.1704 64.18 79.6604C66.62 80.0904 69.06 80.5604 71.49 81.0604C73.07 81.3904 74.66 81.7304 76.23 82.0904C76.68 82.1904 77.09 82.3104 77.55 82.3204C78.9 82.3504 80.25 82.3904 81.61 82.4304C83.95 82.5004 86.29 82.5904 88.63 82.7004C91.35 82.8304 94.06 82.9804 96.78 83.1804C99.26 83.3604 101.73 83.5804 104.2 83.9104C105.07 84.0304 105.93 84.1904 106.8 84.3004C107.57 84.4004 108.34 84.4504 109.12 84.4804C111.13 84.5604 113.14 84.5204 115.15 84.4504C117.54 84.3604 119.93 84.2104 122.31 84.0304C124.69 83.8504 127.29 83.6204 129.78 83.3704C132.06 83.1504 134.35 82.9004 136.63 82.6404C138.43 82.4404 140.23 82.2204 142.03 82.0004C143.06 81.8704 144.09 81.7404 145.11 81.6104C145.25 81.5904 145.38 81.5704 145.52 81.5604C146.39 81.4404 146.51 79.9404 146.51 79.3104V74.7404C146.51 72.3004 146.51 69.8604 146.51 67.4204V65.7504C146.51 65.2604 146.45 64.6104 146.22 64.1604C146.09 63.9104 145.87 63.4604 145.52 63.5004C144.94 63.5604 144.36 63.6204 143.78 63.6904C142.26 63.8504 140.75 64.0104 139.23 64.1704C137.08 64.4004 134.93 64.6204 132.78 64.8504C130.32 65.1104 127.87 65.3604 125.41 65.6104C122.95 65.8604 120.55 66.1004 118.12 66.3404C116.01 66.5504 113.9 66.7504 111.79 66.9304C110.34 67.0604 108.88 67.1904 107.42 67.2704C105.96 67.3504 104.57 67.2404 103.16 67.1104C100.95 66.9104 98.75 66.6204 96.55 66.3204C93.83 65.9404 91.12 65.5304 88.4 65.1004C85.45 64.6304 82.5 64.1404 79.55 63.6504C76.6 63.1604 73.66 62.6604 70.72 62.1604C68.06 61.7104 65.4 61.2704 62.73 60.8404C60.58 60.5004 58.43 60.1204 56.26 59.9204C53.85 59.7004 51.43 59.6704 49.01 59.7104C46.24 59.7504 43.48 59.9004 40.72 60.0904C37.96 60.2804 35.13 60.5504 32.33 60.8404C29.78 61.1104 27.22 61.4104 24.68 61.7404C22.69 62.0004 20.7 62.2704 18.71 62.5604C17.58 62.7204 16.45 62.8904 15.32 63.0704C15.17 63.0904 15.03 63.1204 14.88 63.1404C14.01 63.2804 13.88 64.7004 13.89 65.3904C13.9 65.9204 13.94 66.5004 14.18 66.9804C14.3 67.2204 14.54 67.6904 14.88 67.6404V67.6004Z" fill="#DD0B15"/>
<path d="M6.2 269.4L6.96 26.2804C6.96 26.2804 -0.669996 19.3404 3.91 10.3704C8.49 1.4004 14.08 7.9204 14.08 7.9204C14.08 7.9204 18.91 14.4504 16.11 21.3804C13.31 28.3104 12.3 25.8704 12.3 25.8704V37.2904L12.55 270.21C12.55 270.21 10.26 281.63 6.19 269.39L6.2 269.4Z" fill="#1D1D1B"/>
<path d="M8.67 269.4C8.67 266.59 8.69 263.78 8.7 260.97C8.72 253.45 8.75 245.93 8.77 238.41C8.8 227.53 8.84 216.65 8.87 205.77C8.91 192.89 8.95 180.01 8.99 167.13C9.03 153.61 9.07 140.08 9.12 126.56C9.16 113.75 9.2 100.93 9.24 88.1202C9.27 77.3702 9.31 66.6302 9.34 55.8802C9.36 48.5702 9.39 41.2702 9.41 33.9602L9.43 28.0802C9.43 25.5302 9.57 22.7402 7.59 20.8202C8.66 21.8602 7.82 21.0302 7.56 20.7502C7.13 20.2702 6.73 19.7602 6.36 19.2302C6.14 18.9202 5.95 18.6002 5.74 18.2802C5.41 17.7902 5.95 18.4702 5.87 18.5202C5.87 18.5202 5.54 17.8702 5.52 17.8302C5.34 17.4602 5.22 17.0602 5.04 16.7002C4.75 16.1502 5.35 17.8402 5.11 16.8902C5.04 16.6002 4.96 16.3202 4.89 16.0302C4.61 14.9602 5.07 17.2902 4.93 16.1702C4.87 15.6702 5.08 15.5402 4.93 16.7202C4.96 16.4802 4.95 16.1502 4.93 15.9002C4.86 15.1302 4.79 17.3902 4.93 16.2102C5.07 15.0302 4.68 17.0702 4.9 16.3302C4.99 16.0302 5.06 15.7302 5.14 15.4302C4.9 16.3002 5.06 15.6602 5.14 15.4702C5.35 15.0302 5.53 14.5702 5.76 14.1402C6.13 13.4502 5.31 14.7302 6.02 13.7202C6.2 13.4602 6.38 13.2002 6.57 12.9502C6.75 12.7302 6.93 12.5002 7.12 12.3002C6.8 12.6402 7.12 12.3002 7.19 12.2402C7.53 11.9602 7.9 11.7302 8.29 11.5202C8.38 11.4702 9.09 11.2402 8.49 11.4002C8.7 11.3502 8.91 11.3102 9.12 11.2902C9.45 11.2602 9.79 11.2602 10.12 11.3102C10.24 11.3302 10.38 11.3702 10.5 11.3802C11.1 11.4102 10.02 11.1702 10.57 11.3902C11.12 11.6102 11.62 11.8702 12.09 12.2102C12.29 12.3502 12.47 12.5002 12.66 12.6502C13.3 13.1602 12.58 12.8702 12.55 12.5302C12.55 12.6102 12.79 12.7702 12.85 12.8602C13 13.0902 13.65 14.1202 13.29 13.5302C12.91 12.9002 13.46 13.8902 13.56 14.0802C13.8 14.5802 14.01 15.0902 14.21 15.6102C14.59 16.5402 14.08 14.8502 14.17 15.5102C14.21 15.7702 14.33 16.0502 14.39 16.3102C14.39 16.3002 14.57 16.9402 14.54 16.9802L14.41 16.3302C14.45 16.5702 14.48 16.8102 14.5 17.0402C14.29 16.9502 14.5 15.7902 14.48 16.6502C14.48 16.9802 14.38 18.2902 14.5 16.6902C14.48 16.9402 14.48 17.6802 14.56 16.5302C14.54 16.7502 14.24 17.7702 14.49 17.0102C14.26 17.7102 13.94 18.3902 13.63 19.0502C13.48 19.3802 13.31 19.6902 13.16 20.0102C13.04 20.2502 12.73 20.5402 13.23 19.8902C13.03 20.1502 12.76 20.4802 12.61 20.7702C12.34 21.2802 13.07 20.3602 12.83 20.5702C12.76 20.6302 12.68 20.7002 12.6 20.7402C12.08 20.9602 13.29 20.6702 12.81 20.6602C12.64 20.6602 13.55 20.9902 13.16 20.7402C13.65 21.0602 13.81 21.4102 14.02 21.8902C13.52 20.7402 12.48 19.7002 11.32 20.7302C10.03 21.8702 9.8 24.2902 9.8 25.8702C9.8 30.3202 9.8 34.7602 9.8 39.2102C9.8 43.6602 9.8 48.0402 9.81 52.4602C9.81 60.2602 9.83 68.0702 9.84 75.8702C9.85 86.0102 9.86 96.1502 9.87 106.29C9.88 117.79 9.9 129.29 9.91 140.79C9.92 152.69 9.94 164.6 9.95 176.5C9.96 187.72 9.97 198.95 9.99 210.17C10 219.79 10.01 229.41 10.02 239.02C10.02 245.96 10.04 252.91 10.04 259.85C10.04 263.16 10.02 266.47 10.05 269.79C10.05 269.93 10.05 270.08 10.05 270.22L10.39 267.38C10.3 267.83 10.18 268.27 10.05 268.71C9.92 269.15 9.52 269.76 10.19 268.32C10.1 268.5 10.05 268.7 9.97 268.89C9.88 269.1 9.77 269.31 9.69 269.52C9.43 270.14 10.32 268.73 9.79 269.33C9.76 269.36 9.45 269.72 9.46 269.74C9.44 269.68 10.16 269.15 9.73 269.44C9.67 269.48 9.61 269.53 9.54 269.55C9.74 269.49 10.11 269.52 9.63 269.44C9.29 269.38 9.95 269.52 9.95 269.54C9.95 269.52 9.71 269.43 9.72 269.41C9.7 269.45 9.19 268.89 9.65 269.39C10.02 269.78 9.69 269.41 9.63 269.32C9.43 269.01 9.02 268.29 9.4 269.05C9.2 268.65 9.01 268.26 8.83 267.86C8.7 267.56 8.58 267.25 8.46 266.94C8.42 266.83 8.1 265.95 8.31 266.57C7.86 265.24 6.46 262.44 4.92 264.55C3.53 266.47 3.28 270.04 4.03 272.25C4.82 274.57 7.05 282.47 10.99 280.32C13.1 279.17 14.02 275.69 14.54 273.56C14.93 271.96 14.99 270.43 14.99 268.81C14.99 264.3 14.99 259.78 14.98 255.27C14.98 246.98 14.96 238.7 14.95 230.41C14.94 219.49 14.93 208.57 14.91 197.65C14.9 185.36 14.88 173.06 14.87 160.77C14.86 148.22 14.84 135.66 14.83 123.11C14.82 111.53 14.8 99.9602 14.79 88.3802C14.78 79.0002 14.77 69.6302 14.76 60.2502C14.76 54.2202 14.75 48.1902 14.74 42.1602C14.74 38.8402 14.74 35.5302 14.74 32.2102V25.8802L10.51 29.8602C11.06 31.1202 12.19 32.3702 13.66 31.7002C15.72 30.7702 16.85 27.7302 17.64 25.8202C20.61 18.6602 19.77 10.2002 15.67 3.65017C14.43 1.58017 11.71 -0.179826 9.24 0.0101741C6.27 0.240174 4.21 2.74017 2.84 5.15017C0.640001 9.02017 -0.219999 13.3502 0.0500011 17.7902C0.360001 22.9702 2.44 28.1602 6.31 31.7002L4.49 26.2802C4.49 28.4502 4.48 30.6202 4.47 32.7802C4.45 38.6802 4.43 44.5802 4.41 50.4802C4.38 59.2102 4.36 67.9302 4.33 76.6602C4.3 87.3102 4.26 97.9502 4.23 108.6C4.19 120.22 4.16 131.84 4.12 143.46C4.08 155.27 4.05 167.08 4.01 178.89C3.98 189.83 3.94 200.76 3.91 211.7C3.88 220.97 3.85 230.25 3.82 239.52C3.8 246.19 3.78 252.86 3.76 259.52C3.76 262.67 3.72 265.82 3.73 268.97C3.73 269.11 3.73 269.25 3.73 269.38C3.73 270.83 4.04 275 6.21 275C8.38 275 8.68 270.69 8.69 269.38L8.67 269.4Z" fill="#1D1D1B"/>
<path d="M148.78 26.96C146.83 27.22 145.16 28.07 143.35 28.81C141.54 29.55 139.75 30.06 137.87 30.4C133.88 31.12 129.75 31.11 125.71 30.94C121.1 30.74 116.49 30.36 111.89 30.05C106.98 29.72 102.06 29.45 97.16 29.04C92.63 28.66 88.35 27.77 84.05 26.27C79.75 24.77 75.82 23.03 71.66 21.54C67.23 19.94 62.69 18.82 58 18.31C53.31 17.8 48.4 17.87 43.61 18.09C32.58 18.6 21.73 20.32 11.04 23.09C10.15 23.32 9.4 24.69 9.13 25.44C8.71 26.59 8.61 28.12 8.89 29.31C9.4 31.4 10.68 33.32 13.03 32.71C22.25 30.34 31.73 28.76 41.22 27.95C50.71 27.14 59.84 26.95 68.84 29.78C77.84 32.61 85.73 36.45 94.95 37.2C99.82 37.59 104.75 37.54 109.63 37.66C114.51 37.78 119.12 37.93 123.86 38C128.6 38.07 133.09 38 137.65 37.21C142.21 36.42 147.37 35.13 150.01 31.04C150.63 30.08 150.61 26.7 148.79 26.95L148.78 26.96Z" fill="#1D1D1B"/>
</g>
<defs>
<clipPath id="clip0_3416_10124">
<rect width="151.45" height="280.67" fill="white"/>
</clipPath>
</defs>
</svg>
