<svg width="235" height="304" viewBox="0 0 235 304" fill="none" xmlns="http://www.w3.org/2000/svg">
<g clip-path="url(#clip0_3416_10293)">
<path d="M22.4 164.02C25.87 162.45 29.5 161.13 33.16 160.07C36.12 159.21 39.15 158.51 42.22 158.26C43.22 158.18 44.65 158.46 45.56 158.05C45.87 157.91 46.17 157.65 46.45 157.47C50.37 154.87 54.19 152.09 57.84 149.12C60.22 147.18 62.53 145.15 64.69 142.97C66.69 140.95 68.25 138.66 70.08 136.5C74.35 131.43 80.51 127.63 87.15 126.78C90.87 126.31 94.71 126.74 98.21 128.07C101.38 129.28 104.48 130.7 107.6 132.01C109.14 132.66 110.68 133.43 112.27 133.98C112.75 134.15 113.25 134.16 113.75 134.21C115.16 134.35 116.58 134.48 117.99 134.62C126.77 135.47 135.55 136.34 144.34 137.06C147.55 137.32 150.57 137.55 153.35 139.39C153.66 139.59 154.24 140.03 154.36 140.15C154.51 140.3 154.65 140.46 154.79 140.62C154.88 140.73 155.29 141.35 155.06 140.94C155.16 141.12 155.23 141.3 155.31 141.49C155.08 140.94 155.21 141.22 155.25 141.39C155.2 141.17 155.18 140.97 155.16 140.75C155.11 140.25 155.16 140.6 155.15 140.72C155.16 140.42 155.21 140.19 155.24 139.9C155.24 139.96 155.1 140.28 155.22 140.02C155.35 139.74 155.13 140.23 155.11 140.27C153.62 143.35 149.82 145.61 147.06 147.59C144.01 149.77 140.85 151.82 137.53 153.56C135.25 154.76 132.85 155.91 130.34 156.54C128.35 157.03 126.47 156.87 124.45 156.8C121.28 156.7 118.09 156.79 114.95 157.26C111.35 157.8 107.73 158.82 104.55 160.62C102.08 162.01 99.86 163.84 97.66 165.61C93.01 169.34 87.89 173.74 81.75 174.48C78.3 174.89 74.79 173.9 71.36 173.56C68.47 173.28 65.53 173.17 62.67 172.63C60.22 172.17 58.05 171.18 56.06 169.69C53.07 167.44 49.6 166.46 45.87 166.6C43.39 166.69 40.93 167.29 38.44 167.27C36.72 167.26 35 167.07 33.3 166.83C31.23 166.53 29.15 166.14 27.16 165.49C26.2 165.18 25.24 164.81 24.35 164.34C23.98 164.15 23.61 163.93 23.27 163.7C23.12 163.6 22.97 163.49 22.83 163.38C22.75 163.32 22.3 162.88 22.55 163.15C22.42 163.01 22.31 162.87 22.19 162.72C22.13 162.65 21.82 162.25 22.05 162.54C22.25 162.79 22.08 162.58 22.04 162.47C21.92 162.2 22.16 162.85 22.15 162.81C22.03 162.37 22.24 164.06 22.24 163.71C22.24 163.36 22.2 164.31 22.21 164.22C22.21 164.17 22.06 164.97 22.13 164.63C22.2 164.34 22.02 164.92 22.02 164.9C22.07 164.79 22.11 164.68 22.16 164.56C22.32 164.17 21.99 164.77 22.24 164.39C22.41 164.14 22.58 163.9 22.77 163.66C23.7 162.48 23.67 160.42 23.3 159.04C23.06 158.14 22.22 156.63 21.27 157.83C19.44 160.15 18.79 163.33 19.58 166.2C20.15 168.26 21.54 169.74 23.38 170.74C27.15 172.79 31.81 173.52 36.04 173.88C41.15 174.32 46.42 172.29 51.39 174.01C54.44 175.07 56.65 177.55 59.72 178.59C62.31 179.47 65.01 179.74 67.73 179.97C71.37 180.28 74.96 180.89 78.58 181.25C81.8 181.57 85.03 180.71 87.91 179.33C93.68 176.58 98.15 171.89 103.38 168.33C109.27 164.31 116.42 163.38 123.4 163.51C125.54 163.55 127.68 163.85 129.79 163.4C132.44 162.83 134.99 161.74 137.4 160.53C140.72 158.86 143.88 156.87 146.93 154.74C150.18 152.47 154.06 150.06 156.28 146.69C158.21 143.77 158.78 139.78 157.34 136.52C156.4 134.39 154.52 132.89 152.44 131.94C149.32 130.52 146.07 130.45 142.73 130.17C138.05 129.77 133.37 129.33 128.7 128.89C124.33 128.48 119.95 128.06 115.58 127.63C114.96 127.57 114.33 127.51 113.71 127.45C113.49 127.43 112.99 127.28 112.78 127.36C112.54 127.44 113.07 127.47 113.06 127.46C112.98 127.42 112.88 127.39 112.8 127.35C109.39 125.77 105.86 124.42 102.4 122.97C98.53 121.34 94.72 119.9 90.47 119.84C86.82 119.78 83.19 120.62 79.86 122.08C76.53 123.54 73.76 125.49 71.23 127.89C68.91 130.1 67.2 132.72 65.1 135.11C61.15 139.61 56.32 143.36 51.51 146.89C49.75 148.18 47.96 149.44 46.14 150.65C45.76 150.9 45.32 151.32 44.89 151.48C44.67 151.56 44.78 151.45 44.85 151.44C44.11 151.53 43.31 151.44 42.56 151.49C36.53 151.91 30.54 153.93 24.95 156.13C23.84 156.57 22.73 157.02 21.64 157.51C19.81 158.34 20.35 164.96 22.43 164.02H22.4Z" fill="black"/>
<path d="M35.3101 134.62C31.4701 135.46 27.6801 136.59 23.9601 137.86C18.1201 139.86 11.7701 142.32 7.41009 146.86C5.17009 149.19 4.28009 152.35 3.31009 155.36C2.13009 159.05 1.30009 162.88 1.21009 166.76C1.12009 170.64 1.83009 174.66 4.17009 177.73C6.88009 181.3 11.1801 182.38 15.3501 183.34C20.4001 184.5 25.5501 185.22 30.7101 185.59C32.2801 185.7 33.8601 185.79 35.4301 185.83C35.8601 185.84 36.3101 185.88 36.7401 185.85C37.2101 185.82 37.2601 186.02 36.8201 185.74C38.3201 186.7 40.1801 187.34 41.7901 188.07C44.9901 189.51 48.2201 190.9 51.5201 192.09C54.1301 193.03 56.7801 193.88 59.5501 194.17C61.7601 194.4 63.9501 194.83 66.1301 195.2C73.5501 196.43 81.0101 197.48 88.5401 197.68C96.0701 197.88 104.54 197.35 111.54 193.77C120.08 189.41 127.45 183.33 134.82 177.28C137.59 175.01 140.38 172.7 143.49 170.89C146.6 169.08 149.95 168.03 153.27 166.95C159.03 165.08 164.89 163.64 170.73 162.09C172.13 161.72 173.06 158.88 173.63 157.69C175.14 154.5 176.52 151.17 177.35 147.72C178.18 144.27 178.28 140.64 177.13 137.11C176.13 134.05 174.85 131.13 173.12 128.41C171.24 125.46 168.72 122.79 165.67 121.05C161.77 118.83 157.47 118.57 153.08 118.59C144.3 118.63 134.97 120.17 127.1 115.26C125.35 114.16 123.7 112.96 121.86 112C120.02 111.04 118.2 110.26 116.3 109.56C112.08 108 107.69 106.86 103.25 106.13C98.8101 105.4 94.6901 105.06 90.4001 105.27C86.6701 105.46 83.0101 106.33 79.3201 106.87C71.2301 108.07 62.8001 108.82 55.1201 111.81C51.9701 113.04 49.1601 114.78 47.1901 117.58C44.9201 120.8 43.8701 124.51 42.3601 128.1C41.0201 131.27 38.8301 133.58 35.2901 134.61C33.0601 135.26 33.6601 141.83 35.2901 141.36C38.3401 140.47 40.9501 138.92 42.7201 136.2C44.2901 133.78 45.1401 131.04 46.1801 128.38C47.1601 125.86 48.4401 123.08 50.4801 121.35C52.5201 119.62 55.0101 118.59 57.4801 117.76C63.7101 115.66 70.3901 114.91 76.8701 113.98C82.9601 113.11 88.8901 111.75 95.0801 112.01C102.01 112.3 109.02 113.65 115.53 116.07C118.54 117.18 121.49 118.54 124.17 120.31C127.19 122.31 130.12 123.95 133.68 124.79C140.69 126.45 148.07 125.22 155.19 125.35C158.58 125.41 161.77 125.81 164.77 127.48C167.12 128.79 169.06 130.63 170.65 132.79C172.11 134.77 173.08 136.64 174.02 139.01C174.21 139.48 174.38 139.96 174.55 140.43C174.72 140.9 174.4 139.93 174.61 140.6C174.68 140.84 174.76 141.08 174.83 141.31C174.89 141.5 174.95 141.7 175 141.89C175.03 142 175.22 142.7 175.1 142.2C175 141.77 175.1 142.87 175.1 141.96C175.1 142.3 175.06 142.99 175.13 142.24C175.1 142.53 175.07 142.83 175.03 143.12C175 143.33 174.85 144.08 174.98 143.49C174.83 144.18 174.67 144.86 174.47 145.54C174.11 146.78 173.77 147.72 173.21 149.13C172.36 151.24 171.4 153.3 170.35 155.32C170.18 155.64 170.01 155.97 169.84 156.28L170.89 155.29C164.28 156.87 157.7 158.67 151.26 160.84C147.57 162.08 143.98 163.43 140.74 165.62C137.09 168.09 133.75 171.02 130.35 173.81C126.1 177.3 121.75 180.68 117.1 183.63C112.88 186.3 108.56 188.67 103.65 189.75C94.6601 191.72 85.1501 191.05 76.1001 189.92C72.2801 189.44 68.4801 188.83 64.6801 188.2C62.3501 187.81 59.9601 187.62 57.6501 187.17C53.9801 186.45 50.4301 184.93 47.0001 183.49C44.0901 182.27 41.2101 180.97 38.3701 179.6C36.7701 178.83 35.0201 179.09 33.2701 179.01C27.7301 178.74 22.1901 178.07 16.7601 176.91C14.0201 176.33 11.1101 175.78 8.64009 174.4C7.89009 173.98 7.15009 173.49 6.53009 172.89C6.22009 172.59 5.94009 172.25 5.68009 171.91C5.38009 171.52 5.14009 171.13 5.04009 170.94C4.85009 170.57 4.68009 170.18 4.54009 169.79C4.75009 170.36 4.48009 169.57 4.47009 169.51C4.43009 169.35 4.39009 169.18 4.35009 169.01C4.13009 168.2 4.41009 169.64 4.31009 168.8C4.29009 168.63 4.26009 168.45 4.24009 168.28C4.22009 168.13 4.17009 167.24 4.21009 168.12C4.20009 167.85 4.19009 167.58 4.19009 167.31C4.19009 167.09 4.27009 165.73 4.19009 166.56C4.23009 166.09 4.27009 165.63 4.33009 165.16C4.39009 164.69 4.46009 164.22 4.55009 163.75C4.43009 164.42 4.61009 163.48 4.62009 163.42C4.68009 163.14 4.74009 162.85 4.81009 162.57C5.03009 161.62 5.29009 160.68 5.57009 159.75C5.91009 158.62 6.13009 157.99 6.43009 157.15C6.73009 156.31 7.03009 155.53 7.36009 154.73C7.41009 154.61 7.63009 154.24 7.37009 154.68C7.45009 154.54 7.53009 154.4 7.63009 154.27C7.86009 153.94 8.09009 153.62 8.35009 153.31C10.3801 150.9 13.6101 149.11 16.5601 147.68C22.1401 144.98 28.1401 143.09 34.1501 141.64C34.5301 141.55 34.9201 141.46 35.3001 141.37C37.5301 140.88 37.0701 134.24 35.3001 134.62H35.3101Z" fill="black"/>
<path d="M10.1601 179.91C10.2301 180.73 10.1301 179.03 10.1601 179.73C10.1801 180.33 10.2001 180.93 10.2101 181.53C10.2101 182.35 10.2001 183.17 10.1701 183.99C10.1701 184.23 10.1501 184.47 10.1401 184.72C10.1101 185.31 10.2101 183.89 10.1301 184.91C10.0801 185.59 10.0201 186.26 9.9601 186.94C9.6801 189.68 9.2201 192.4 8.5501 195.07C7.7501 198.29 6.5901 201.4 5.8901 204.65C4.5401 210.9 4.1701 217.38 5.4701 223.67C6.0301 226.37 6.9801 229.01 8.3401 231.41C9.8301 234.04 11.9001 236.21 13.9101 238.44C16.7801 241.62 19.6901 244.77 22.7101 247.81C23.7301 248.83 24.4701 247.62 24.7401 246.6C25.0601 245.4 25.2101 242.99 24.2101 241.98C21.8201 239.57 19.4901 237.09 17.2001 234.59C13.6301 230.69 9.7701 226.97 8.3701 221.72C7.7201 219.28 7.5601 217.12 7.6201 214.57C7.6801 212.02 8.1501 209.16 8.7901 206.54C9.5401 203.52 10.6101 200.61 11.3201 197.58C12.0301 194.55 12.5101 191.7 12.8201 188.73C13.1801 185.22 13.3601 181.64 13.0401 178.12C12.9601 177.27 12.4501 175.2 11.2101 175.76C9.9701 176.32 10.0801 178.92 10.1701 179.91H10.1601Z" fill="black"/>
<path d="M9.14004 243.59C9.35004 243.98 8.91004 242.85 9.03004 243.24C9.20004 243.84 8.95004 242.49 8.99004 243C9.03004 243.51 9.13004 244.04 9.18004 244.55C9.34004 246.06 9.45004 247.58 9.57004 249.09C9.93004 253.49 10.3 257.88 10.84 262.26C11.14 264.73 11.5 267.19 11.93 269.63C12.13 270.76 12.36 271.89 12.51 273.04C12.58 273.6 12.65 274.16 12.69 274.72C12.73 275.28 12.69 274.28 12.69 274.83C12.69 275.09 12.7 275.35 12.69 275.6C12.69 275.79 12.69 275.99 12.67 276.18C12.7 275.44 12.69 275.93 12.67 276.09C12.62 276.36 12.44 277.17 12.63 276.47C12.58 276.64 12.53 276.82 12.5 276.99C12.42 277.37 12.69 276.53 12.54 276.88C12.43 277.13 12.33 277.39 12.2 277.64C12.46 277.12 12.16 277.69 12.06 277.82C11.93 277.99 11.8 278.15 11.66 278.31C11.31 278.72 11.74 278.28 11.42 278.54C11.25 278.68 11.08 278.82 10.91 278.95C9.48004 280.01 8.04004 280.76 6.89004 282.18C4.79004 284.77 2.52004 287.33 1.10004 290.39C-0.319956 293.45 -0.979956 299.06 2.72004 300.85C5.99004 302.43 10.19 301.64 13.54 300.8C15.93 300.2 18.29 299.41 20.57 298.48C22.63 297.64 24.58 296.45 26.78 296.01C30.85 295.19 35.11 295.98 39.08 296.99C45.29 298.58 51.22 301 57.62 301.79C70.68 303.4 84.04 303.73 97.19 303.5C103.17 303.4 109.26 303.23 115.17 302.19C122.31 300.93 129.3 298.57 136.17 296.27C142.22 294.25 148.2 291.97 154.3 290.09C154.75 289.95 155.65 289.67 156.33 289.55C156.53 289.51 156.73 289.49 156.94 289.47C157 289.47 157.07 289.49 157.12 289.49C156.62 289.55 156.93 289.49 157.22 289.52C157.31 289.53 157.4 289.55 157.49 289.56C158.48 289.67 159.56 289.44 160.54 289.31C162.13 289.11 163.72 288.88 165.31 288.71C168.45 288.38 172.15 287.94 175.19 289.04C178.86 290.36 181.69 293.24 185.14 294.93C187.42 296.05 189.89 294.26 191.22 292.41C194.1 288.38 192.96 283.31 190.86 279.25C189.02 275.7 186.69 272.37 185.09 268.71C184.99 268.47 184.57 267.81 184.9 268.3C184.87 268.25 184.8 268 184.79 267.92C184.86 268.82 184.9 268.43 184.85 268.25C184.83 268.16 184.83 268.05 184.82 267.95C184.77 267.42 184.84 268.32 184.84 268.32C184.74 268.04 184.81 267.56 184.81 267.27C184.79 265.69 184.84 264.11 184.91 262.54C184.95 261.71 184.99 260.88 185.04 260.05C185 260.71 185.07 259.63 185.08 259.42C185.11 258.93 185.15 258.45 185.18 257.96C185.28 256.69 185.38 255.42 185.53 254.15C185.92 251.07 186.26 247.98 186.28 244.86C186.3 241.14 186.06 236.76 183.88 233.59C183.34 232.8 182.7 232.07 182.1 231.32C181.9 231.07 181.7 230.8 181.5 230.55C181.42 230.45 181.34 230.33 181.28 230.22C181.64 230.8 181.24 230.1 181.25 230.11C181.27 230.12 181.49 230.78 181.32 230.26C181.35 230.36 181.4 231 181.36 230.42C181.33 230.04 181.28 229.66 181.25 229.28C181.19 228.53 181.24 229.09 181.25 229.24C181.25 229.09 181.24 228.95 181.23 228.8C181.23 228.38 181.22 227.96 181.22 227.54C181.25 223.49 181.59 219.45 181.81 215.41C181.91 213.43 181.98 211.45 182.04 209.47C182.04 209.16 182.06 208.86 182.08 208.55C182.09 208.28 182.15 207.42 182.1 208.18C182.16 207.33 182.22 206.47 182.29 205.62C182.86 198.47 183.99 191.25 183.87 184.07C183.82 180.94 183.17 177.87 182.37 174.86C181.43 171.31 180.27 167.79 178.81 164.42C177.81 162.11 176.63 159.32 174.55 157.76C173.42 156.91 172.8 159.51 172.72 160.12C172.56 161.39 172.61 163.41 173.76 164.27C174.16 164.57 173.73 164.19 173.96 164.43C174.12 164.6 174.27 164.78 174.42 164.97C174.58 165.18 174.74 165.4 174.89 165.63C174.97 165.75 175.05 165.88 175.13 166C175.13 166 175.49 166.61 175.3 166.28C176.05 167.61 176.66 169.03 177.23 170.45C178.48 173.56 179.44 176.6 180.24 179.98C180.4 180.67 180.56 181.37 180.69 182.07C180.56 181.39 180.71 182.19 180.74 182.43C180.79 182.74 180.82 183.05 180.86 183.36C180.87 183.48 180.86 183.62 180.9 183.74C181.01 184.14 180.9 182.96 180.88 183.39C180.87 183.65 180.9 183.93 180.9 184.2C180.9 184.87 180.9 185.55 180.87 186.22C180.86 186.58 180.84 186.94 180.83 187.29C180.83 187.48 180.76 188.56 180.8 187.83C180.74 188.76 180.67 189.69 180.6 190.63C180.45 192.47 180.29 194.31 180.12 196.16C179.8 199.66 179.44 203.17 179.23 206.68C179 210.51 178.93 214.34 178.71 218.17C178.5 221.78 178.16 225.44 178.29 229.06C178.36 231 178.43 233.09 179.18 234.91C179.77 236.35 180.91 237.51 181.85 238.72C182.46 239.5 182.51 239.52 182.83 240.34C182.99 240.75 182.72 239.97 182.85 240.41C182.9 240.59 182.95 240.77 182.99 240.95C183.01 241.03 183.14 241.61 183.07 241.25C183 240.89 183.13 241.65 183.14 241.72C183.2 242.13 183.23 242.53 183.28 242.94C183.35 243.6 183.3 243.13 183.29 242.98C183.3 243.19 183.31 243.4 183.32 243.62C183.35 244.57 183.34 245.53 183.3 246.48C183.3 246.69 183.28 246.89 183.27 247.1C183.27 246.97 183.32 246.45 183.27 247.11C183.24 247.5 183.21 247.89 183.18 248.27C183.12 249 183.04 249.73 182.95 250.45C182.83 251.45 182.68 252.45 182.58 253.45C182.24 256.83 182.05 260.23 181.93 263.62C181.82 266.69 181.64 269.89 182.74 272.81C184.05 276.29 186.3 279.44 188.08 282.69C188.56 283.56 189.02 284.44 189.45 285.34C189.65 285.77 189.87 286.2 190.03 286.64C190.01 286.58 190.1 286.96 190.1 286.95C189.97 286.89 190.05 286.23 190.04 286.16C190.02 285.83 190.07 286.04 189.97 286.22C189.82 286.5 189.89 286.41 189.6 286.78C189.22 287.26 188.81 287.61 188.29 287.95C187.96 288.16 187.28 288.51 187.13 288.54C186.95 288.59 186.78 288.61 186.6 288.62C186.23 288.64 186.49 288.65 186.29 288.57C184.93 288.06 183.69 287 182.48 286.21C179.29 284.1 176.07 282.04 172.17 281.74C168.77 281.48 165.34 281.94 161.98 282.38C160.77 282.54 159.55 282.74 158.32 282.81C157.98 282.83 157.66 282.82 157.32 282.79C157.9 282.84 157.05 282.73 156.83 282.73C155.27 282.74 153.49 283.59 152.03 284.07C149.22 284.99 146.43 285.98 143.63 286.95C136.62 289.38 129.6 291.82 122.44 293.75C116.8 295.27 111.2 296.13 105.37 296.46C91.79 297.24 78.03 296.8 64.48 295.71C59.79 295.33 55.08 294.92 50.54 293.64C46.46 292.49 42.47 291.05 38.35 290.05C34.52 289.12 30.38 288.44 26.47 289.33C24.26 289.83 22.31 290.92 20.23 291.79C18 292.72 15.72 293.52 13.37 294.1C10.27 294.86 6.13004 295.74 3.15004 294.13C2.95004 294.02 2.79004 293.81 2.72004 293.8C2.87004 293.82 2.72004 294.15 2.78004 293.92C2.88004 293.46 2.97004 294.74 2.99004 295.02C3.01004 295.37 2.75004 296.49 2.98004 295.78C3.11004 295.38 2.82004 296.18 2.98004 295.76C3.06004 295.56 3.15004 295.36 3.24004 295.16C3.88004 293.78 4.88004 292.45 5.86004 291.19C6.76004 290.03 7.69004 288.89 8.63004 287.76C8.75004 287.61 8.88004 287.46 9.01004 287.32C9.19004 287.13 8.75004 287.55 8.95004 287.38C9.02004 287.32 9.08004 287.26 9.16004 287.21C9.47004 286.98 9.78004 286.75 10.1 286.54C11.68 285.51 13.15 284.52 14.1 282.83C15.92 279.63 15.87 275.58 15.48 272.03C15.22 269.68 14.7 267.37 14.34 265.04C13.98 262.71 13.68 260.3 13.42 257.92C12.97 253.83 12.65 249.73 12.31 245.64C12.14 243.55 12.24 240.74 11.24 238.83C10.65 237.7 9.71004 237.59 9.14004 238.83C8.57004 240.07 8.46004 242.3 9.14004 243.6V243.59Z" fill="black"/>
<path d="M84.8101 288.1C88.8001 289.42 92.6901 289.4 96.7801 288.54C100.87 287.68 104.66 286.18 108.52 284.62C115.78 281.68 123.04 278.67 129.93 274.92C133.86 272.77 137.66 270.37 141.24 267.67C143.45 266.01 141.8 259.69 138.86 261.9C132.89 266.39 126.25 269.88 119.46 272.96C112.67 276.04 105.32 279.14 98.0801 281.7C93.9701 283.15 89.4701 284.06 85.1001 283.68C83.2201 283.51 83.2801 287.6 84.8201 288.11L84.8101 288.1Z" fill="black"/>
<path d="M13.76 250.78C15.04 251.73 16.24 252.39 17.74 252.92C19.24 253.45 20.74 253.97 22.26 254.43C25.01 255.27 27.81 255.96 30.63 256.52C36.5 257.7 42.47 258.28 48.46 258.08C54.45 257.88 60.65 256.51 66.79 256.09C72.93 255.67 79.48 256.54 85.77 257.35C98.31 258.97 110.95 259.98 123.6 259.91C129.95 259.87 136.29 259.51 142.6 258.82C148.54 258.17 154.59 257.38 160.32 255.62C166.88 253.6 172.01 249.55 177.02 244.99C178.34 243.79 179.67 242.58 180.99 241.38C182.31 240.18 183.96 238.98 184.98 237.46C185.79 236.25 186.05 234.78 186.06 233.35C186.06 231.68 185.24 229.25 183.52 228.55C181.67 227.8 180.09 229.5 179.53 231.1C179.03 232.5 179.02 234.82 180.07 236.04L180.2 236.19C180.81 236.89 181.4 237.42 182.38 237.21C183.26 237.02 183.99 236.16 184.21 235.3L184.26 235.11L181.99 237.19C182.66 237.08 182.2 236.78 180.64 236.27L179.81 234.25L179.85 234.43L180.07 230.79C179.81 231.69 181.17 229.72 180.5 230.13C180.26 230.28 180.05 230.53 179.83 230.72C179.28 231.19 178.73 231.67 178.18 232.14C177.08 233.09 175.98 234.04 174.89 234.98C172.78 236.8 170.71 238.7 168.53 240.44C164.71 243.51 159.93 245.51 155.17 246.59C149.63 247.85 143.88 248.46 138.23 248.94C132.58 249.42 126.53 249.67 120.67 249.71C108.93 249.78 97.2 248.93 85.54 247.61C79.56 246.93 73.54 246.19 67.52 246.57C61.5 246.95 56.18 248.32 50.51 249.1C44.52 249.92 38.46 250.05 32.45 249.42C29.51 249.11 26.62 248.59 23.75 247.86C22.22 247.47 20.69 247.04 19.2 246.52C18.49 246.27 17.79 245.97 17.07 245.74C16.28 245.49 15.42 245.46 14.6 245.37C13.56 245.25 12.95 246.76 12.83 247.53C12.67 248.57 12.87 250.09 13.78 250.76L13.76 250.78Z" fill="black"/>
<path d="M12.4201 200.02C13.5901 200.7 14.7701 201.43 16.0301 201.94C17.3801 202.48 18.7901 202.92 20.1801 203.34C22.8201 204.15 25.5001 204.83 28.2201 205.37C33.5801 206.44 39.0401 207.07 44.5001 207.36C55.6601 207.96 66.8201 207.09 77.9101 205.87C89.9801 204.54 102.03 203.07 114.08 201.66C120.16 200.95 126.23 200.25 132.3 199.51C138.37 198.77 144.49 198.13 150.53 197.09C162.43 195.03 174.71 190.96 182.64 181.32C184.13 179.51 184.64 176.83 183.62 174.62C182.94 173.14 180.75 171.08 179.2 172.98C172.73 180.88 163.06 184.94 153.1 187.05C147.29 188.28 141.39 188.99 135.51 189.77C129.63 190.55 123.53 191.39 117.54 192.21C105.58 193.86 93.6301 195.53 81.6701 197.16C70.7601 198.65 59.7601 200.04 48.7401 200.2C42.7301 200.29 36.7201 199.98 30.7801 199.01C24.8401 198.04 19.1001 196.04 13.2901 194.33C11.9601 193.94 11.1601 195.29 10.9701 196.43C10.7501 197.81 11.1701 199.28 12.4001 200L12.4201 200.02Z" fill="black"/>
<path d="M50.7401 141.1C50.7401 141.52 50.7501 141.93 50.7501 142.35C50.7501 143.03 50.9701 143.74 51.4301 144.25C51.5701 144.44 51.7601 144.58 51.9801 144.67C52.2701 144.78 52.5501 144.77 52.8301 144.65C53.0501 144.56 53.2801 144.47 53.4901 144.36C53.7301 144.24 53.9501 144.07 54.1601 143.91C54.2601 143.83 54.3601 143.75 54.4401 143.66C54.9001 143.18 55.1601 142.74 55.4201 142.15C55.5101 141.95 55.5501 141.75 55.6001 141.53C55.7001 141.14 55.7401 140.9 55.7601 140.49C55.7701 140.25 55.8001 140.03 55.7801 139.8C55.7501 139.5 55.7301 139.18 55.6701 138.88C55.6101 138.58 55.5101 138.29 55.4101 138C55.2001 137.37 54.8101 136.86 54.3501 136.4C54.3201 136.37 54.2801 136.34 54.2501 136.31C54.0701 136.17 53.8501 136.04 53.6401 135.94C53.6001 135.92 53.5601 135.9 53.5201 135.89C53.5001 135.89 53.4901 135.88 53.4701 135.87C53.3601 135.84 53.2601 135.82 53.1501 135.81C53.0401 135.78 52.9401 135.76 52.8301 135.76C52.5701 135.76 52.3001 135.85 52.0501 135.92C51.9601 135.94 51.8701 135.98 51.7801 136.02C51.5701 136.14 51.3601 136.29 51.1701 136.43C51.0401 136.53 50.9901 136.61 50.8601 136.77C50.5601 137.14 50.4001 137.42 50.2201 137.91C50.1101 138.19 50.0501 138.49 50.0001 138.79C50.0001 138.81 50.0001 138.83 50.0001 138.86C49.9701 139.09 49.9401 139.51 49.9401 139.75C49.9401 139.77 49.9401 139.79 49.9401 139.82C49.9501 140.05 49.9901 140.45 50.0401 140.68C50.0401 140.7 50.0401 140.72 50.0501 140.74C50.1101 140.99 50.2001 141.29 50.2901 141.53L50.6201 142.14C50.7801 142.42 51.0101 142.62 51.2801 142.76C51.4301 142.89 51.6001 142.96 51.7901 142.96C52.0601 143.04 52.3301 143.02 52.5901 142.89C52.9501 142.71 53.2301 142.41 53.4601 142.08C53.6601 141.77 53.7901 141.44 53.8501 141.08C53.9701 140.7 54.0201 140.3 53.9901 139.89C53.9901 139.87 53.9901 139.84 53.9901 139.82L53.9401 140.64C53.9401 140.64 53.9401 140.58 53.9601 140.55L53.7701 141.3C53.7701 141.3 53.7901 141.24 53.8001 141.22L53.4901 141.86C53.4901 141.86 53.5301 141.79 53.5501 141.76L53.1401 142.27C53.1401 142.27 53.2201 142.19 53.2701 142.15L52.7701 142.49C52.9901 142.34 53.2101 142.19 53.4301 142.04L52.9301 142.38C53.0301 142.32 53.1401 142.27 53.2501 142.24L52.6801 142.37C52.8401 142.33 53.0401 142.33 53.2101 142.35L52.6401 142.25C52.7401 142.27 52.8201 142.3 52.9101 142.35L52.4001 142.04C52.4701 142.09 52.5401 142.14 52.6001 142.21L52.1701 141.73C52.2301 141.8 52.2801 141.87 52.3201 141.94L51.9901 141.32C52.0201 141.39 52.0501 141.46 52.0801 141.53L51.8601 140.81C51.8901 140.9 51.9001 140.99 51.9201 141.09L51.8301 140.29C51.8301 140.39 51.8401 140.48 51.8301 140.58L51.8801 139.79C51.8801 139.89 51.8601 139.99 51.8301 140.09L52.0001 139.39C51.9601 139.53 51.9101 139.67 51.8501 139.81L52.1301 139.23C51.8901 139.71 51.5401 140.14 51.2101 140.55L51.5301 140.16C51.5301 140.16 51.4801 140.22 51.4601 140.25L53.8501 141.65C53.7301 141.26 53.6201 140.87 53.5101 140.47C53.3801 140.03 53.2201 139.48 52.8201 139.18L52.4701 138.97C52.2801 138.88 52.0901 138.88 51.9001 138.95C51.7601 138.95 51.6401 139.01 51.5401 139.11C51.3501 139.22 51.2001 139.37 51.0901 139.57C50.8101 140.04 50.7001 140.58 50.7101 141.12L50.7401 141.1Z" fill="black"/>
<path d="M43.55 147.25C43.4 147.32 43.25 147.42 43.13 147.53C42.84 147.82 42.71 148.06 42.56 148.44C42.41 148.82 42.32 149.41 42.35 149.82C42.36 150.03 42.38 150.33 42.44 150.57C42.5 150.78 42.56 151.05 42.66 151.26C42.76 151.47 42.86 151.68 42.99 151.87C43.11 152.05 43.28 152.21 43.42 152.36C43.45 152.39 43.47 152.41 43.51 152.44C43.85 152.68 44.07 152.82 44.5 152.83C44.69 152.83 44.9 152.76 45.06 152.71C45.23 152.66 45.54 152.41 45.58 152.38L45.93 151.95C46.15 151.58 46.3 151.17 46.36 150.74C46.36 150.74 46.36 150.72 46.36 150.71C46.39 150.45 46.41 150.18 46.41 149.91C46.41 149.62 46.36 149.32 46.32 149.04C46.32 148.99 46.3 148.93 46.28 148.88C46.23 148.71 46.15 148.42 46.07 148.2C45.97 148 45.87 147.82 45.77 147.64C45.75 147.61 45.73 147.59 45.71 147.57C45.57 147.41 45.42 147.2 45.24 147.06C45.07 146.93 44.88 146.82 44.7 146.72C44.65 146.69 44.6 146.67 44.55 146.65C44.36 146.59 44.15 146.56 43.95 146.54L43.51 146.64C43.28 146.74 43.1 146.9 42.96 147.1C42.83 147.23 42.73 147.38 42.68 147.56C42.53 147.83 42.44 148.11 42.41 148.42L42.37 149.09L42.45 149.76C42.5 150.06 42.6 150.35 42.77 150.61C42.88 150.86 43.04 151.07 43.25 151.24C43.3 151.28 43.35 151.32 43.39 151.37L43.04 150.98C43.1 151.05 43.16 151.13 43.2 151.21L42.92 150.68C42.96 150.75 42.99 150.83 43.02 150.91L42.82 150.27C42.9 150.53 42.92 150.76 43.05 151.04C43.07 151.08 43.09 151.13 43.1 151.17L42.9 150.52C42.92 150.58 42.93 150.63 42.94 150.69L42.86 149.97C42.86 149.97 42.86 150.06 42.86 150.1L43.68 147.74C43.68 147.74 43.66 147.76 43.65 147.77L44.07 147.49C44.07 147.49 44 147.53 43.96 147.54L44.43 147.43C44.25 147.47 44.07 147.48 43.9 147.55C43.88 147.55 43.86 147.57 43.83 147.57L44.29 147.46C44.23 147.47 44.17 147.47 44.12 147.46L44.57 147.54C44.51 147.53 44.46 147.51 44.41 147.48L44.8 147.72C44.8 147.72 44.74 147.68 44.72 147.65L45.05 148.02C45.05 148.02 45.02 147.98 45.01 147.96L45.27 148.44C45.27 148.44 45.25 148.41 45.25 148.39L45.42 148.95C45.42 148.95 45.42 148.92 45.41 148.9L45.48 149.52C45.48 149.52 45.48 149.49 45.48 149.47L45.44 150.08C45.44 150.08 45.44 150.04 45.44 150.02L45.3 150.57C45.3 150.57 45.31 150.53 45.32 150.5L45.46 149.96L45.5 149.36L45.43 148.76C45.39 148.49 45.29 148.23 45.15 148C45.09 147.85 45 147.71 44.88 147.6C44.8 147.47 44.69 147.38 44.55 147.32C44.44 147.22 44.32 147.18 44.17 147.18C43.97 147.12 43.78 147.14 43.58 147.23L43.55 147.25Z" fill="black"/>
<path d="M38.2701 146.55C38.3301 146.08 38.3401 145.6 38.2201 145.14L38.1901 145.03C38.1101 144.62 37.9501 144.24 37.7201 143.89C37.5301 143.6 37.2701 143.38 36.9501 143.24C36.6401 143.12 36.3401 143.13 36.0401 143.26C35.7301 143.42 35.4801 143.64 35.3001 143.95C35.0901 144.31 34.9501 144.69 34.8901 145.11C34.8201 145.57 34.8301 146.03 34.9201 146.49C35.0001 146.9 35.1601 147.28 35.3901 147.63C35.5801 147.92 35.8401 148.14 36.1601 148.28L36.2501 148.31C36.2501 148.31 36.2801 148.32 36.2901 148.33C36.5901 148.44 36.8701 148.44 37.1701 148.31C37.4701 148.16 37.7001 147.94 37.8701 147.65C38.0701 147.31 38.2001 146.94 38.2601 146.55H38.2701Z" fill="black"/>
<path d="M35.79 154.54C38.33 154.54 38.23 148.78 35.65 148.78C33.07 148.78 33.21 154.54 35.79 154.54Z" fill="black"/>
<path d="M42.17 161.19L42.2 161.56L42.29 162.37C42.35 162.74 42.48 163.09 42.68 163.4C42.76 163.61 42.89 163.79 43.06 163.94C43.24 164.18 43.47 164.36 43.76 164.47L44.3 164.57L44.83 164.45C45.11 164.33 45.34 164.14 45.5 163.88C45.73 163.63 45.9 163.34 46 163.01L46.12 162.7C46.3 162.18 46.38 161.64 46.37 161.08C46.36 160.53 46.25 159.99 46.04 159.48L45.7 158.84C45.46 158.48 45.15 158.21 44.76 158.04C44.48 157.91 44.2 157.9 43.92 158C43.62 158.03 43.36 158.17 43.15 158.4C42.82 158.73 42.58 159.12 42.43 159.56C42.25 160.08 42.17 160.62 42.18 161.18L42.17 161.19Z" fill="black"/>
<path d="M36.0401 162.54L35.9601 162.82C35.8001 163.29 35.7301 163.76 35.7401 164.26C35.7401 164.64 35.8001 165 35.9301 165.35C36.0001 165.68 36.1401 165.98 36.3401 166.25C36.5501 166.57 36.8301 166.81 37.1801 166.96L37.3601 167.02L37.9001 167.12L38.4301 167L38.9001 166.68L39.3001 166.19L39.6001 165.56L39.7901 164.82L39.8401 164C39.8401 163.59 39.7801 163.2 39.6401 162.82C39.5901 162.58 39.5001 162.35 39.3601 162.15C39.2801 161.94 39.1501 161.76 38.9801 161.61C38.8701 161.44 38.7101 161.31 38.5301 161.23C38.3801 161.1 38.2101 161.03 38.0201 161.03C37.8401 160.96 37.6601 160.97 37.4801 161.04C37.2801 161.05 37.1201 161.13 36.9801 161.26C36.8001 161.35 36.6501 161.49 36.5501 161.67C36.3201 161.92 36.1501 162.21 36.0501 162.54H36.0401Z" fill="black"/>
<path d="M31.3701 165.09C34.0801 165.09 33.9601 158.95 31.2201 158.95C28.4801 158.95 28.6301 165.09 31.3701 165.09Z" fill="black"/>
<path d="M55.76 166.82C58.74 166.82 58.61 160.07 55.59 160.07C52.57 160.07 52.74 166.82 55.76 166.82Z" fill="black"/>
<path d="M58.72 158.62C61.45 158.62 61.33 152.43 58.57 152.43C55.81 152.43 55.96 158.62 58.72 158.62Z" fill="black"/>
<path d="M60.19 169.83L60.51 170.05C60.69 170.17 60.89 170.33 61.07 170.39C61.27 170.47 61.47 170.5 61.67 170.5C62 170.5 62.28 170.4 62.51 170.19C62.67 170.08 62.71 170.07 62.8 169.98L62.84 169.94C62.84 169.94 62.85 169.93 62.86 169.92C63.22 169.54 63.38 169.29 63.57 168.79C63.72 168.37 63.85 167.67 63.81 167.22C63.81 167.21 63.81 167.2 63.81 167.19V167.14C63.81 167.14 63.81 167.11 63.81 167.09C63.8 166.5 63.68 165.94 63.47 165.4C63.35 165.17 63.23 164.94 63.1 164.71C62.92 164.4 62.82 164.32 62.62 164.18L62.3 163.96C62.06 163.73 61.78 163.6 61.47 163.58C61.17 163.49 60.88 163.51 60.59 163.66C60.28 163.8 60.03 164 59.85 164.28C59.59 164.55 59.41 164.87 59.3 165.24L59.1 166.05C59.01 166.65 59.02 167.25 59.14 167.84L59.38 168.64C59.56 169.1 59.84 169.5 60.2 169.83H60.19Z" fill="black"/>
<path d="M69.7501 172.12L69.9301 172.29C70.1601 172.51 70.4201 172.63 70.7201 172.65C71.0001 172.74 71.2801 172.71 71.5601 172.57C71.5701 172.57 71.5901 172.55 71.6001 172.54L71.6401 172.51C71.8001 172.41 71.9901 172.3 72.1101 172.19C72.3501 171.97 72.5201 171.72 72.6301 171.42C72.8001 171.11 72.9101 170.77 72.9501 170.42C72.9501 170.42 72.9501 170.42 72.9501 170.41V170.35C72.9501 170.35 72.9701 170.31 72.9701 170.29C73.0201 170 73.0401 169.71 73.0301 169.42L72.9301 168.57C72.8301 168.06 72.6401 167.6 72.3501 167.17C72.3501 167.15 72.3301 167.14 72.3201 167.12L72.2001 166.92C71.9601 166.55 71.6401 166.28 71.2401 166.11L70.6701 166.01C70.2601 166.03 69.9001 166.19 69.6001 166.48C69.3401 166.72 69.1501 167.01 69.0201 167.33C68.8301 167.68 68.7101 168.05 68.6601 168.45C68.5801 168.89 68.5801 169.32 68.6601 169.75C68.6801 170.17 68.7801 170.57 68.9401 170.95C69.1201 171.4 69.3801 171.78 69.7401 172.1L69.7501 172.12Z" fill="black"/>
<path d="M69.91 161.83C72.12 161.83 72.03 156.82 69.79 156.82C67.55 156.82 67.67 161.83 69.91 161.83Z" fill="black"/>
<path d="M78.3501 161.95C81.3301 161.95 81.2001 155.2 78.1801 155.2C75.1601 155.2 75.3301 161.95 78.3501 161.95Z" fill="black"/>
<path d="M82.7101 171.61L82.9001 171.64C83.2301 171.64 83.5101 171.54 83.7501 171.33C84.0501 171.16 84.2801 170.93 84.4501 170.61C84.6701 170.27 84.8101 169.91 84.8801 169.51C85.0101 169.09 85.0701 168.65 85.0401 168.21L84.9401 167.32C84.8401 166.79 84.6301 166.3 84.3301 165.85L83.8701 165.33C83.5501 165.04 83.1701 164.9 82.7401 164.9L85.0401 168.22C85.0401 167.77 84.9701 167.34 84.8201 166.92C84.7301 166.53 84.5701 166.17 84.3401 165.85L83.8801 165.33C83.5601 165.04 83.1801 164.9 82.7501 164.9L82.5601 164.87C82.2301 164.87 81.9501 164.97 81.7101 165.18C81.4101 165.35 81.1801 165.58 81.0101 165.9C80.7901 166.24 80.6501 166.6 80.5801 167C80.4501 167.42 80.3901 167.86 80.4201 168.3L80.5201 169.19C80.6201 169.72 80.8301 170.21 81.1301 170.66L81.5901 171.18C81.9101 171.47 82.2901 171.61 82.7201 171.61H82.7101Z" fill="black"/>
<path d="M91.81 163.02C94.79 163.02 94.66 156.27 91.64 156.27C88.62 156.27 88.79 163.02 91.81 163.02Z" fill="black"/>
<path d="M81.6101 153.49C83.7401 153.49 83.6501 148.66 81.4901 148.66C79.3301 148.66 79.4501 153.49 81.6101 153.49Z" fill="black"/>
<path d="M72.9101 151.29C75.4701 151.29 75.3701 145.48 72.7701 145.48C70.1701 145.48 70.3101 151.29 72.9101 151.29Z" fill="black"/>
<path d="M77.7201 141.24C80.5101 141.24 80.3901 134.91 77.5601 134.91C74.7301 134.91 74.8901 141.24 77.7201 141.24Z" fill="black"/>
<path d="M85.75 143.67C88.73 143.67 88.6 136.92 85.58 136.92C82.56 136.92 82.73 143.67 85.75 143.67Z" fill="black"/>
<path d="M72.4701 126.28C74.7001 126.28 74.6101 121.22 72.3501 121.22C70.0901 121.22 70.2101 126.28 72.4701 126.28Z" fill="black"/>
<path d="M82.46 136.68C85 136.68 84.9 130.92 82.32 130.92C79.74 130.92 79.88 136.68 82.46 136.68Z" fill="black"/>
<path d="M98.94 135.63H99.31C99.63 135.63 99.91 135.53 100.14 135.33C100.43 135.17 100.66 134.93 100.83 134.62L101.16 133.94C101.31 133.54 101.39 133.12 101.39 132.7C101.43 132.4 101.43 132.11 101.37 131.82C101.35 131.39 101.25 130.98 101.08 130.59L100.72 129.93C100.47 129.55 100.15 129.28 99.74 129.1C99.62 129.07 99.5 129.04 99.38 129C98.98 128.85 98.59 128.86 98.2 129.03L97.68 129.38C97.33 129.73 97.07 130.14 96.91 130.61C96.76 131.02 96.68 131.44 96.68 131.87C96.63 132.32 96.65 132.77 96.75 133.21C96.82 133.62 96.96 134 97.17 134.35C97.32 134.68 97.53 134.97 97.81 135.2C98.13 135.49 98.51 135.63 98.94 135.63Z" fill="black"/>
<path d="M95.54 122.8C97.28 122.8 97.2 118.86 95.44 118.86C93.68 118.86 93.78 122.8 95.54 122.8Z" fill="black"/>
<path d="M84.5301 121.58C87.1801 121.58 87.0701 115.58 84.3801 115.58C81.6901 115.58 81.8401 121.58 84.5301 121.58Z" fill="black"/>
<path d="M96.1501 139.12L96.5801 139.5C96.7401 139.64 97.0701 139.83 97.1601 139.86C97.3301 139.92 97.5801 139.94 97.7901 139.97H97.8901C97.8901 139.97 97.9601 139.99 97.9901 140C98.2101 140.03 98.3901 139.98 98.6301 139.88C98.9201 139.75 99.1401 139.56 99.3101 139.31C99.5501 139.06 99.7101 138.76 99.8101 138.43L100 137.68C100.08 137.13 100.07 136.58 99.9601 136.03C99.8901 135.64 99.7801 135.37 99.6201 135.04L99.5601 134.91C99.4401 134.66 99.3301 134.4 99.1701 134.18C99.1201 134.11 98.8501 133.78 98.6701 133.63L98.2401 133.25C98.0001 133.02 97.7201 132.89 97.4101 132.87C97.1101 132.78 96.8201 132.8 96.5301 132.95C96.2201 133.09 95.9701 133.29 95.7901 133.57C95.5301 133.84 95.3501 134.16 95.2401 134.53L95.0401 135.34C94.9501 135.94 94.9601 136.54 95.0801 137.13L95.3201 137.93C95.5001 138.39 95.7801 138.79 96.1401 139.12H96.1501Z" fill="black"/>
<path d="M103.41 154.17L103.75 154.06L104.25 153.72C104.51 153.48 104.7 153.2 104.82 152.88C104.95 152.66 105.04 152.42 105.07 152.17C105.2 151.77 105.25 151.35 105.22 150.93L105.12 150.08L104.89 149.32C104.77 148.98 104.58 148.68 104.33 148.43C104.14 148.17 103.9 147.99 103.6 147.87L103.25 147.66C102.85 147.51 102.46 147.52 102.07 147.69C101.66 147.89 101.34 148.19 101.11 148.58L100.78 149.27C100.59 149.82 100.5 150.39 100.52 150.98C100.52 151.43 100.59 151.86 100.74 152.28C100.83 152.67 100.99 153.03 101.22 153.35C101.47 153.73 101.8 154.01 102.22 154.19C102.62 154.34 103.01 154.33 103.4 154.16L103.41 154.17Z" fill="black"/>
<path d="M99.76 149.62L99.81 149.5L99.84 149.44C99.84 149.44 99.84 149.44 99.84 149.43C100 148.97 100.07 148.49 100.06 148C100.06 147.51 99.95 147.04 99.77 146.59C99.77 146.57 99.76 146.56 99.75 146.54L99.69 146.35L99.67 146.3V146.28C99.49 145.83 99.22 145.44 98.86 145.11C98.54 144.83 98.18 144.69 97.75 144.69C97.33 144.71 96.97 144.87 96.67 145.17C96.33 145.51 96.08 145.91 95.92 146.37C95.73 146.91 95.65 147.47 95.66 148.04C95.67 148.61 95.78 149.17 96 149.7C96.18 150.15 96.45 150.54 96.81 150.87C97.13 151.15 97.49 151.29 97.92 151.29C98.34 151.27 98.7 151.11 99 150.81C99.34 150.47 99.59 150.07 99.75 149.61L99.76 149.62Z" fill="black"/>
<path d="M112.4 159.01C115.38 159.01 115.25 152.26 112.23 152.26C109.21 152.26 109.38 159.01 112.4 159.01Z" fill="black"/>
<path d="M117.19 148.06L117.35 147.91C117.68 147.58 117.92 147.2 118.07 146.76C118.21 146.38 118.29 145.98 118.29 145.58C118.34 145.16 118.32 144.74 118.22 144.32C118.12 143.82 117.93 143.36 117.65 142.94L117.51 142.76L117.05 142.24L116.51 141.91L115.92 141.8L115.33 141.93L114.81 142.28L114.37 142.82L114.04 143.51C113.89 143.92 113.81 144.34 113.81 144.77C113.76 145.07 113.77 145.37 113.83 145.67C113.83 145.96 113.89 146.25 114 146.52C114.05 146.79 114.15 147.03 114.3 147.26C114.39 147.49 114.53 147.69 114.71 147.86C114.84 148.05 115 148.19 115.21 148.28C115.37 148.42 115.56 148.49 115.77 148.5C115.97 148.58 116.16 148.57 116.36 148.49C116.68 148.45 116.95 148.31 117.17 148.07L117.19 148.06Z" fill="black"/>
<path d="M110.88 139.36C113.71 139.36 113.59 132.94 110.72 132.94C107.85 132.94 108.01 139.36 110.88 139.36Z" fill="black"/>
<path d="M120.25 142.74L120.43 142.87C120.65 143.02 120.87 143.21 121.13 143.29L121.5 143.41L122.07 143.51C122.38 143.51 122.65 143.41 122.88 143.21C123.07 143.11 123.23 142.97 123.34 142.78C123.59 142.52 123.76 142.21 123.86 141.86L124.06 141.08L124.11 140.22C124.11 139.79 124.04 139.38 123.9 138.98C123.81 138.61 123.66 138.26 123.44 137.95L123.15 137.62C122.98 137.42 122.83 137.19 122.62 137.04L122.54 136.99L122.36 136.86C122.12 136.63 121.84 136.5 121.53 136.48C121.23 136.39 120.94 136.41 120.65 136.56C120.34 136.7 120.09 136.9 119.91 137.18C119.65 137.45 119.47 137.77 119.36 138.14L119.16 138.95C119.07 139.55 119.08 140.15 119.2 140.74L119.44 141.54C119.62 142 119.9 142.4 120.26 142.73L120.25 142.74Z" fill="black"/>
<path d="M125.53 144.95C127.87 144.95 127.77 139.65 125.4 139.65C123.03 139.65 123.16 144.95 125.53 144.95Z" fill="black"/>
<path d="M126.3 154.09C129.28 154.09 129.15 147.34 126.13 147.34C123.11 147.34 123.28 154.09 126.3 154.09Z" fill="black"/>
<path d="M134.14 146.46C137.12 146.46 136.99 139.71 133.97 139.71C130.95 139.71 131.12 146.46 134.14 146.46Z" fill="black"/>
<path d="M144.72 143.74C147.7 143.74 147.57 136.99 144.55 136.99C141.53 136.99 141.7 143.74 144.72 143.74Z" fill="black"/>
<path d="M140.61 132.22C143.59 132.22 143.46 125.47 140.44 125.47C137.42 125.47 137.59 132.22 140.61 132.22Z" fill="black"/>
<path d="M115.81 131.12C118.79 131.12 118.66 124.37 115.64 124.37C112.62 124.37 112.79 131.12 115.81 131.12Z" fill="black"/>
<path d="M159.81 37.0999C159.11 37.7699 160.16 36.9699 160.44 36.7999C161.12 36.3999 161.82 36.0199 162.51 35.6499C164.65 34.4899 166.82 33.3599 168.98 32.2399C174.85 29.1999 180.76 26.1999 186.66 23.2199C191.24 20.8999 195.83 18.5999 200.43 16.2999C203.27 14.8799 205.79 12.9399 208.56 11.3699C211.83 9.51988 215.36 7.70988 219.09 6.98988C222.82 6.26988 226.59 7.45988 229.72 9.26988C230.34 9.62988 230.86 9.99988 231.18 10.3899C231.26 10.4899 231.34 10.5899 231.41 10.6999C231.8 11.2099 231.14 10.2999 231.5 10.8399C231.57 10.9399 231.61 11.0899 231.66 11.1999C231.36 10.5499 231.65 11.2199 231.7 11.4099L231.72 11.5199C231.64 11.0799 231.63 11.0299 231.68 11.3799C231.68 11.3799 231.72 11.7999 231.73 11.8599C231.6 10.7299 231.56 12.8399 231.76 11.0699C231.73 11.3099 231.63 11.5199 231.85 10.6199C231.74 11.0699 232.15 10.1399 231.94 10.3699C231.87 10.4499 231.85 10.5999 231.79 10.6899C231.52 11.1199 232.02 10.3499 231.82 10.6299C231.71 10.7899 231.6 10.9599 231.49 11.1199C229.75 13.4999 227.15 15.2999 224.68 17.0399C221.36 19.3799 217.86 21.7699 214.19 23.5499C210.03 25.5599 205.84 27.4999 201.67 29.4699C196.11 32.0999 190.54 34.7299 184.98 37.3599C183.69 37.9699 182.36 38.5299 181.1 39.1999C179.32 40.1499 177.64 41.3499 175.93 42.4199C175.14 42.9199 174.34 43.4099 173.55 43.9099C172.03 44.8599 172.24 48.1899 172.89 49.5499C173.6 51.0199 174.14 52.5699 174.72 54.0899C175.43 55.9399 176.15 57.7899 176.6 59.7199C176.93 61.1299 176.97 62.2699 176.8 63.6699C176.58 65.3699 176.32 66.5299 175.67 67.6299C174.87 68.9799 173.78 70.1799 172.67 71.2799C170.39 73.5299 167.75 75.4399 165.11 77.2499C157.68 82.3499 149.54 86.3899 141.6 90.6299C136.09 93.5699 130.54 96.3899 124.97 99.2099C123.19 100.11 121.41 101.02 119.63 101.92C119.31 102.08 118.65 102.27 118.4 102.54C118.24 102.72 118.8 102.49 118.66 102.47C118.52 102.45 118.31 102.51 118.16 102.53C116.49 102.71 114.81 102.82 113.13 102.8C112.24 102.79 111.34 102.74 110.47 102.56C109.98 102.46 110.07 102.51 109.76 102.34C109.66 102.29 109.51 102.16 109.4 102.13C109.17 102.06 109.47 102.14 109.52 102.26C109.4 102.01 109.9 103.87 109.84 103.55C109.85 103.62 110.12 106.77 109.56 106.66C109.57 106.66 109.9 106.19 109.92 106.17C110.22 105.81 110.44 105.62 110.85 105.25C111.79 104.39 112.75 103.56 113.72 102.74C115.99 100.82 118.3 98.9599 120.63 97.1099C123.61 94.7499 126.7 92.5099 129.64 90.0999C135.01 85.7099 140.09 80.9199 145.3 76.3499C148.2 73.8099 151.09 71.2599 153.99 68.7199C155.77 67.1599 157.38 65.5199 158.84 63.6499C160.87 61.0499 162.6 58.1499 163.51 54.9699C164.07 53.0399 164.21 51.0299 164.06 49.0299C164.03 48.5899 163.98 48.1399 163.95 47.6999C163.93 47.4499 163.91 47.1899 163.9 46.9399C163.9 47.0199 163.92 47.3099 163.9 46.9299C163.84 45.8599 163.79 44.7899 163.72 43.7199C163.55 41.3099 163.2 37.5199 160.62 36.3999C157.76 35.1599 153.91 36.7999 151.29 37.9299C145.44 40.4699 140.3 44.3899 135.09 48.0099C132.59 49.7399 129.83 51.3199 127.56 53.3499C121.57 58.6999 115.57 64.0499 109.58 69.3999C109.02 69.8999 108.45 70.4099 107.89 70.9099C106.79 71.8899 106.68 73.6799 106.85 75.0599C106.91 75.5599 107.62 78.3599 108.68 77.4199C114.26 72.4399 119.84 67.4599 125.42 62.4799C127 61.0699 128.51 59.6499 130.25 58.4399C134.66 55.3699 139.06 52.2799 143.51 49.2599C146.7 47.0999 150.1 45.1199 153.72 43.7799C155.28 43.1999 156.98 42.7299 158.66 42.7499C159.13 42.7499 159.61 42.7899 160.02 42.9799C160.14 43.0399 160.52 43.2899 160.44 43.2399C160.58 43.3499 160.61 43.4199 160.6 43.4599C160.6 43.4799 160.77 43.8799 160.63 43.4999C160.49 43.1199 160.66 43.5799 160.67 43.6799C160.73 44.3899 160.67 43.3699 160.72 43.9599C160.75 44.2799 160.79 44.5999 160.82 44.9199C160.84 45.1199 160.85 45.3099 160.86 45.5099C160.9 46.0799 160.82 44.6799 160.87 45.7199C160.92 46.7599 160.98 47.7299 161.04 48.7299C161.07 49.1799 161.1 49.6299 161.14 50.0799C161.15 50.1999 161.29 51.0099 161.18 50.5199C161.07 50.0299 161.12 51.2099 161.19 50.3199C161.18 50.4699 161.16 50.6099 161.14 50.7599C161.07 51.2599 161.25 50.3299 161.14 50.8299C161.06 51.1699 160.98 51.5199 160.87 51.8499C160.78 52.1299 160.32 53.1899 160.02 53.7599C159.39 54.9899 158.6 56.1499 157.77 57.2499C157.03 58.2299 156.25 59.1799 155.42 60.0899C155.09 60.4599 154.49 60.8799 154.25 61.3099C154.54 60.7699 154.61 60.9699 154.23 61.3099C153.87 61.6199 153.52 61.9299 153.16 62.2499C150.19 64.8599 147.21 67.4699 144.24 70.0799C139.11 74.5799 134.11 79.3099 128.81 83.6199C125.56 86.2699 122.16 88.7399 118.88 91.3599C116.56 93.2099 114.25 95.0899 111.99 97.0299C110.22 98.5499 107.9 100.14 107.3 102.53C106.61 105.22 107.11 108.47 110.08 109.22C111.87 109.67 113.82 109.59 115.65 109.48C116.74 109.42 118.07 109.48 119.11 109.09C120.15 108.7 121.16 108.05 122.16 107.55C127.89 104.64 133.65 101.79 139.33 98.7699C143.72 96.4399 148.1 94.0999 152.46 91.7199C155.95 89.8199 159.55 87.9899 162.87 85.7899C167.91 82.4499 173.66 78.8899 177.01 73.7099C179.22 70.2999 179.95 65.8699 179.87 61.8599C179.78 57.3799 178.34 53.2799 176.75 49.1399C176.19 47.6799 175.67 46.1899 174.99 44.7799L174.33 50.4199C177.36 48.5199 180.3 46.4499 183.53 44.9199C188.72 42.4699 193.91 40.0099 199.1 37.5599C204.29 35.1099 209.12 32.8199 214.13 30.4499C217.33 28.9299 220.35 26.9699 223.29 25.0199C226.23 23.0699 229.21 20.9599 231.7 18.4099C234.51 15.5399 235.16 12.0199 234.26 8.10988C233.3 3.92988 230.16 2.30988 226.36 1.07988C224.47 0.469883 222.69 -0.130117 220.69 0.0198829C218.83 0.159883 217.01 0.699883 215.27 1.31988C211.64 2.60988 208.22 4.48988 204.96 6.52988C203.71 7.30988 202.52 8.24988 201.24 8.97988C197.88 10.9099 194.26 12.4799 190.8 14.2199C184.68 17.2999 178.57 20.3899 172.47 23.5199C168.13 25.7499 163.69 27.8799 159.49 30.3699C159.03 30.6399 158.68 30.8899 158.29 31.2599C156.92 32.5799 157.74 39.0599 159.79 37.0899L159.81 37.0999Z" fill="black"/>
<path d="M207.01 14.6099C207.6 14.7799 208.17 14.9999 208.71 15.2799C208.86 15.3599 209 15.4399 209.15 15.5199C209.55 15.7299 208.86 15.3199 209.11 15.4999C209.36 15.6799 209.61 15.8399 209.85 16.0299C210.07 16.1999 210.28 16.3799 210.48 16.5699C210.6 16.6799 210.72 16.7999 210.84 16.9199C210.93 17.0099 211.17 17.3799 210.95 17.0299C210.73 16.6799 210.98 17.0599 211.05 17.1499C211.16 17.2799 211.26 17.4099 211.36 17.5399C211.55 17.7799 211.72 18.0399 211.88 18.2999C211.95 18.4199 212.02 18.5399 212.1 18.6599C212.43 19.1799 211.79 18.0199 212.06 18.5699C212.18 18.8199 212.3 19.0699 212.41 19.3299C212.47 19.4799 212.53 19.6399 212.59 19.7999C212.63 19.9199 212.79 20.4299 212.63 19.8699C212.47 19.3099 212.61 19.8199 212.65 19.9499C212.69 20.1099 212.73 20.2699 212.76 20.4399C212.82 20.7099 212.84 20.9899 212.9 21.2599C212.67 20.0899 212.87 21.1499 212.88 21.5099C212.88 21.6499 212.88 21.7899 212.88 21.9299C212.88 22.3499 212.96 21.0299 212.9 21.5999C212.86 21.9299 212.81 22.2599 212.75 22.5899C212.52 23.7799 212.83 25.6699 213.88 26.4499C214.86 27.1799 215.96 26.8499 216.61 25.8399C216.79 25.5499 216.97 25.2599 217.17 24.9899C218.07 23.7399 217.98 21.4199 217.05 20.2199C216.68 19.7299 216.13 19.2099 215.46 19.2699C214.79 19.3299 214.33 19.7499 213.92 20.2999C214.37 19.7099 213.83 20.3999 213.73 20.5099L217.15 24.3199C218.37 17.8199 214.65 10.0399 208.04 8.10987C206.53 7.66987 205.54 9.20987 205.37 10.5299C205.26 11.3899 205.29 12.3299 205.66 13.1199C205.93 13.7099 206.35 14.4399 207.02 14.6399L207.01 14.6099Z" fill="black"/>
<path d="M214.73 8.31007C215.2 8.89007 215.69 9.44007 216.21 9.97007C216.6 10.3601 215.83 9.53007 216.39 10.1701C216.54 10.3401 216.69 10.5001 216.85 10.6601C216.96 10.7701 217.07 10.8701 217.17 10.9801C217.4 11.1501 217.39 11.2101 217.17 10.9801C217.61 11.3201 217.96 11.9701 218.25 12.4301C218.57 12.9301 218.89 13.4301 219.19 13.9401C219.39 14.2901 219.12 13.8401 219.08 13.7301C219.14 13.8901 219.24 14.0501 219.31 14.2001C219.43 14.4701 219.55 14.7401 219.65 15.0101C219.75 15.2801 219.97 16.2101 219.74 15.2101C219.8 15.4701 219.88 15.7201 219.93 15.9801C219.99 16.2701 220.05 16.5501 220.09 16.8401C220.18 17.4901 220 16.6201 220.06 16.5501C220.03 16.5801 220.09 16.9201 220.09 16.9901C220.11 17.2801 220.11 17.5701 220.1 17.8701C220.09 18.4501 220.15 17.7601 220.13 17.5801C220.15 17.7401 220.09 17.9501 220.08 18.1001C219.98 18.9601 220.03 19.8901 220.37 20.6901C220.6 21.2401 221.1 22.0201 221.73 22.2101C223.24 22.6701 224.24 21.0901 224.4 19.7901C224.82 16.3201 224.22 12.8101 222.56 9.73007C221.81 8.34007 220.88 7.14007 219.66 6.13007C218.52 5.19007 217.18 4.39007 215.66 4.48007C214.05 4.58007 213.93 7.33007 214.72 8.31007H214.73Z" fill="black"/>
<path d="M130.02 55.28C132.29 53.97 133.87 51.87 135.73 50.08C137.85 48.03 139.92 46.06 142.36 44.38C147.15 41.08 152.69 38.65 158.36 37.36C159.93 37 160.53 35.44 160.49 33.93C160.47 32.93 159.74 30.26 158.19 30.61C152.05 32.01 146.27 34.37 141.03 37.89C138.47 39.61 135.92 41.47 133.94 43.85C131.96 46.23 131.34 49.38 128.82 51.37C127.68 52.27 128.29 56.27 130.01 55.28H130.02Z" fill="black"/>
<path d="M105.69 79.8597C107.22 83.0197 108.46 86.1297 109.16 89.3997C109.57 91.3297 109.74 92.7497 109.76 94.7597C109.78 96.7697 109.39 98.7397 109.04 100.86C108.83 102.17 109.15 104.11 110.42 104.81C111.62 105.47 112.78 104.58 113.15 103.36C115.9 94.4297 113.36 84.5097 109.42 76.3597C108.85 75.1697 107.57 74.1197 106.36 75.2197C105.22 76.2597 105.03 78.5097 105.68 79.8597H105.69Z" fill="black"/>
<path d="M115.77 77.2898L115.72 77.6598C115.64 78.1098 115.64 78.5598 115.72 79.0098C115.74 79.4398 115.84 79.8598 116.01 80.2598C116.14 80.6198 116.33 80.9298 116.6 81.1898C116.79 81.4598 117.05 81.6498 117.37 81.7798L117.96 81.8898C118.39 81.8698 118.76 81.6998 119.07 81.3998L119.51 80.8598C119.79 80.3998 119.97 79.8898 120.04 79.3598L120.09 78.9898C120.17 78.5398 120.17 78.0898 120.09 77.6398C120.07 77.2098 119.97 76.7898 119.8 76.3898C119.67 76.0298 119.48 75.7198 119.21 75.4598C119.02 75.1898 118.76 74.9998 118.44 74.8698L117.85 74.7598C117.42 74.7798 117.05 74.9498 116.74 75.2498L116.3 75.7898C116.02 76.2498 115.84 76.7598 115.77 77.2898Z" fill="black"/>
<path d="M117.79 88.6597C120.77 88.6597 120.64 81.9097 117.62 81.9097C114.6 81.9097 114.77 88.6597 117.79 88.6597Z" fill="black"/>
<path d="M125.47 79.4897C128.45 79.4897 128.32 72.7397 125.3 72.7397C122.28 72.7397 122.45 79.4897 125.47 79.4897Z" fill="black"/>
<path d="M122.81 71.1899C125.79 71.1899 125.66 64.4399 122.64 64.4399C119.62 64.4399 119.79 71.1899 122.81 71.1899Z" fill="black"/>
<path d="M133.07 76.3701C136.05 76.3701 135.92 69.6201 132.9 69.6201C129.88 69.6201 130.05 76.3701 133.07 76.3701Z" fill="black"/>
<path d="M125.37 88.5498C128.35 88.5498 128.22 81.7998 125.2 81.7998C122.18 81.7998 122.35 88.5498 125.37 88.5498Z" fill="black"/>
<path d="M108.54 71.8C110.42 71.8 110.34 67.54 108.44 67.54C106.54 67.54 106.64 71.8 108.54 71.8Z" fill="black"/>
<path d="M116.95 64.54C118.09 64.54 118.04 61.96 116.89 61.96C115.74 61.96 115.8 64.54 116.95 64.54Z" fill="black"/>
<path d="M103.92 85.1098L103.82 84.9698C103.65 84.7098 103.42 84.5098 103.13 84.3798C102.85 84.2798 102.58 84.2798 102.31 84.3998L102.19 84.4598C101.94 84.5698 101.75 84.7298 101.61 84.9498C101.47 85.0898 101.37 85.2498 101.31 85.4398C101.15 85.7198 101.06 86.0298 101.02 86.3598L100.97 87.0698L101.05 87.7798C101.1 88.0998 101.22 88.4098 101.39 88.6798C101.46 88.8598 101.57 89.0198 101.72 89.1498C101.87 89.3598 102.08 89.5198 102.33 89.6098L102.8 89.6898L103.26 89.5798C103.51 89.4698 103.7 89.3098 103.84 89.0898C103.98 88.9498 104.08 88.7898 104.14 88.5998C104.3 88.3198 104.39 88.0098 104.43 87.6798L104.48 86.9698L104.4 86.2598C104.32 85.8398 104.16 85.4498 103.92 85.0898V85.1098Z" fill="black"/>
<path d="M105.27 96.3C107.48 96.3 107.39 91.29 105.15 91.29C102.91 91.29 103.03 96.3 105.27 96.3Z" fill="black"/>
<path d="M95.66 98.2997C98.45 98.2997 98.33 91.9697 95.5 91.9697C92.67 91.9697 92.83 98.2997 95.66 98.2997Z" fill="black"/>
<path d="M76.0501 213.98C76.1001 214.51 75.9501 214.88 75.5101 214.92C73.2201 215.12 68.8501 216.53 65.5401 217.26C65.1901 217.34 64.9501 217.58 64.8901 217.94L63.5001 224.86C63.4701 225 63.4801 225.08 63.4801 225.13C63.5001 225.4 63.6901 225.51 63.9601 225.49C64.1801 225.47 64.4001 225.41 64.6101 225.34C66.3801 224.78 67.7801 224.48 68.5701 224.41C70.5601 224.24 72.5001 226.69 72.6401 228.19C72.6901 228.81 72.4701 229.27 71.8501 229.37C69.7101 229.78 65.4801 230.73 62.5401 231.66C62.1901 231.74 61.9401 231.93 61.8801 232.3L59.6201 243.04C59.5601 243.36 59.3101 243.51 58.9501 243.54C57.5801 243.66 54.4801 241.8 54.3001 239.68C54.2801 239.5 54.3001 239.28 54.3401 239.1L58.7301 217.2C58.7601 217.02 58.7501 216.93 58.7501 216.89C58.7301 216.71 58.6301 216.54 58.4801 216.34C57.6401 215.35 57.3001 214.58 57.2401 213.91C57.1901 213.34 57.4901 213.18 59.4001 212.74C63.3201 211.86 69.8501 209.73 71.6601 209.57C73.8701 209.38 75.9101 212.4 76.0501 213.99V213.98Z" fill="black"/>
<path d="M79.7701 236.1C79.7901 236.32 79.9301 236.44 80.2001 236.42C80.2901 236.42 80.5001 236.35 80.6801 236.29C83.5801 235.37 86.3201 233.75 87.7601 232.87C87.9301 232.77 88.0601 232.71 88.1901 232.7C89.2501 232.61 90.2001 234.35 90.3501 236.02C90.4301 236.9 90.3201 237.71 89.9101 238.1C88.9301 239.08 83.4801 241.82 79.8201 242.14C77.1701 242.37 73.9901 238.56 73.8101 236.49C73.7801 236.18 73.8001 235.87 73.8301 235.69L78.6101 209.62C78.6701 209.3 78.9201 209.15 79.2801 209.12C80.6901 209 83.8801 210.85 84.1101 213.45C84.1401 213.76 84.1201 214.07 84.0601 214.39C82.6801 221.45 81.1401 228.74 79.8101 235.79C79.7801 235.97 79.7901 236.01 79.7901 236.1H79.7701Z" fill="black"/>
<path d="M90.94 231.7C90.27 224.11 94.37 207.52 102.36 206.82C105.67 206.53 110.8 208.75 111.42 215.85C112.08 223.39 108.17 239.52 100.14 240.23C97.58 240.46 91.63 239.47 90.94 231.7ZM105.43 213.97C105.31 212.56 104.94 211.39 103.88 211.48C100.17 211.81 96.46 226.67 97.01 232.94C97.15 234.57 97.61 235.69 98.62 235.6C102.24 235.28 106.01 220.54 105.43 213.97Z" fill="black"/>
<path d="M118.71 227.52C118.51 228.78 118.36 230.09 118.45 231.19C118.59 232.73 119.17 233.84 120.54 233.72C122.66 233.53 123.74 230.68 124.62 227.54C125.23 225.4 126.36 220.54 127.08 217.14C127.93 213.2 128.56 209.23 129.32 205.25C129.38 204.93 129.63 204.78 129.99 204.75C131.45 204.62 134.66 206.78 134.88 209.26C134.9 209.52 134.93 209.79 134.87 210.11C134.21 213.68 132.66 221.37 131.4 226.78C129.59 234.5 127.49 237.88 122.37 238.33C116.72 238.83 112.9 235.25 112.47 230.35C112.31 228.54 113.28 223.34 114.28 218.1C115.2 213.39 116.07 208.65 116.61 206.2C116.68 205.97 116.93 205.82 117.28 205.78C118.69 205.66 121.71 207.17 121.97 210.04C121.99 210.3 122.01 210.53 121.99 210.79C121.84 212.63 119.62 222.2 118.71 227.53V227.52Z" fill="black"/>
<path d="M153.39 230.6C153.56 232.5 152.47 235.26 151.01 235.39C150.7 235.42 150.47 235.26 150.23 235.06C149.32 234.3 144.51 230.63 141.39 228.55C141.2 228.43 141.06 228.36 140.89 228.37C140.63 228.39 140.51 228.63 140.45 228.94L138.9 236.06C138.84 236.38 138.59 236.53 138.23 236.56C136.86 236.68 133.81 234.81 133.62 232.7C133.6 232.52 133.62 232.3 133.66 232.12L138.26 210.6C138.29 210.42 138.28 210.33 138.27 210.24C138.26 210.11 138.2 209.94 138.05 209.73C137.49 208.98 137.05 207.99 136.99 207.25C136.94 206.63 137.11 206.13 137.63 205.95C140.39 204.95 143.4 203.31 146.53 203.03C151.47 202.6 155.86 205.94 156.33 211.28C156.82 216.84 152.47 222.02 147.11 224.72C146.9 224.83 146.82 224.92 146.83 225.06C146.85 225.24 146.99 225.36 147.22 225.47C149.09 226.55 152.34 228.62 152.99 229.41C153.24 229.7 153.36 230.13 153.41 230.62L153.39 230.6ZM150.51 210.49C150.35 208.68 148.96 208.05 147.24 208.2C146.58 208.26 145.84 208.41 145.14 208.61C144.79 208.73 144.59 208.93 144.53 209.29L142.08 221.42C142.05 221.6 142.06 221.64 142.06 221.73C142.08 221.91 142.22 222.07 142.44 222.05C142.53 222.05 142.62 222.03 142.83 221.93C148.41 218.59 150.73 213.14 150.49 210.5L150.51 210.49Z" fill="black"/>
</g>
<defs>
<clipPath id="clip0_3416_10293">
<rect width="234.65" height="303.57" fill="white"/>
</clipPath>
</defs>
</svg>
