<svg width="228" height="279" viewBox="0 0 228 279" fill="none" xmlns="http://www.w3.org/2000/svg">
<g clip-path="url(#clip0_3416_10735)">
<path d="M41.79 78.5298C41.65 77.5798 17.43 77.5698 17.43 77.5698L0 247.84C0 247.84 34.86 237.81 65.67 247.84C96.48 257.87 124.65 278.17 124.65 278.17L194.86 121.76L173.61 113.16C173.61 113.16 152.36 144.68 105.07 142.05C105.07 142.05 50.15 137.04 41.79 78.5298Z" fill="black"/>
<path d="M29.13 75.9C28.75 70.83 28.38 65.75 28 60.68C27.4 52.58 26.8 44.48 26.2 36.39C26.06 34.52 25.92 32.64 25.78 30.77L24.4 36.31C29.02 34.56 33.63 32.81 38.25 31.06L35.74 26.72C35.98 32.38 36.23 38.04 36.47 43.71C36.85 52.69 37.24 61.67 37.62 70.65C37.71 72.72 37.8 74.8 37.89 76.87C37.94 78.03 38.1 81.37 39.87 81.37C41.64 81.37 41.89 77.92 41.85 76.87C41.61 71.21 41.36 65.55 41.12 59.88C40.74 50.9 40.35 41.92 39.97 32.94C39.88 30.87 39.79 28.79 39.7 26.72C39.65 25.52 39.34 21.57 37.19 22.38C32.57 24.13 27.96 25.88 23.34 27.63C22.72 27.87 22.28 29.19 22.16 29.7C21.88 30.85 21.87 31.99 21.96 33.17C22.34 38.24 22.71 43.32 23.09 48.39C23.69 56.49 24.29 64.59 24.89 72.68C25.03 74.55 25.17 76.43 25.31 78.3C25.38 79.31 26.16 82.34 27.75 81.44C29.34 80.54 29.24 77.39 29.13 75.9Z" fill="black"/>
<path d="M44.22 29.7496C42.61 27.7196 41.01 25.6996 39.4 23.6696C39.18 23.3896 38.95 23.0996 38.73 22.8196L36.73 30.5896C38.34 32.6196 39.94 34.6396 41.55 36.6696C41.77 36.9496 42 37.2396 42.22 37.5196C42.61 38.0096 43.15 38.3096 43.75 37.9696C44.39 37.6096 44.78 36.5296 44.93 35.8996C45.2 34.7796 45.3 33.5696 45.13 32.4296C45 31.5096 44.81 30.4796 44.22 29.7396C42.61 27.7096 41.01 25.6896 39.4 23.6596C39.18 23.3796 38.95 23.0896 38.73 22.8096L36.73 30.5796C38.34 32.6096 39.94 34.6296 41.55 36.6596C41.77 36.9396 42 37.2296 42.22 37.5096C42.61 37.9996 43.15 38.2996 43.75 37.9596C44.39 37.5996 44.78 36.5196 44.93 35.8896C45.2 34.7696 45.3 33.5596 45.13 32.4196C45 31.4996 44.81 30.4696 44.22 29.7296V29.7496Z" fill="black"/>
<path d="M47.9999 94.2899C48.1299 95.7899 48.0599 95.3999 48.0299 94.5199C48.0099 93.8799 48 93.2399 47.99 92.5999C47.95 90.4899 47.9199 88.3899 47.8899 86.2799C47.7999 79.7599 47.72 73.2399 47.65 66.7199C47.49 52.4299 47.3499 38.1299 47.2099 23.8399C47.1799 20.5799 47.1499 17.3199 47.1199 14.0599L45.1399 18.5599C50.3099 17.8399 55.49 17.1299 60.66 16.4099L58.75 10.7099C58.54 13.9699 58.34 17.2299 58.13 20.4899C57.64 28.2799 57.14 36.0599 56.65 43.8499C56.05 53.3099 55.4499 62.7799 54.8499 72.2399C54.3299 80.4199 53.8099 88.5999 53.2999 96.7799C53.0499 100.75 52.7899 104.71 52.5499 108.68C52.5499 108.74 52.55 108.8 52.54 108.85C52.44 110.42 52.2699 113.45 53.9199 114.39C55.5699 115.33 56.3 112.17 56.36 111.25C56.57 107.99 56.7699 104.73 56.9799 101.47C57.4699 93.6799 57.9699 85.8999 58.4599 78.1099C59.0599 68.6499 59.6599 59.1799 60.2599 49.7199C60.7799 41.5399 61.3 33.3599 61.81 25.1799C62.06 21.2099 62.32 17.2499 62.56 13.2799C62.56 13.2199 62.56 13.1599 62.57 13.1099C62.65 11.7799 62.68 10.4599 62.22 9.18988C62 8.59988 61.5299 7.29988 60.6699 7.41988C55.4999 8.13988 50.32 8.84988 45.15 9.56988C43.42 9.80988 43.1599 12.8099 43.1699 14.0699C43.2499 23.0299 43.34 31.9999 43.43 40.9599C43.57 55.4899 43.7199 70.0199 43.9199 84.5499C43.9799 88.5799 43.86 92.6799 44.2 96.6999C44.29 97.6999 45.0399 100.75 46.6399 99.8399C48.2399 98.9299 48.15 95.7799 48.02 94.2999L47.9999 94.2899Z" fill="black"/>
<path d="M66.11 16.1199C64.93 13.9599 63.74 11.7999 62.56 9.6399C62.39 9.3299 62.22 9.0199 62.05 8.7199C61.77 8.2099 61.37 7.3999 60.65 7.3999C59.98 7.3999 59.47 8.1999 59.25 8.7199C58.83 9.7099 58.65 10.8299 58.67 11.8999L58.74 13.0999C58.81 13.7899 58.98 14.4499 59.25 15.0899C60.43 17.2499 61.62 19.4099 62.8 21.5699C62.97 21.8799 63.14 22.1899 63.31 22.4899C63.59 22.9999 63.99 23.8099 64.71 23.8099C65.38 23.8099 65.89 23.0099 66.11 22.4899C66.53 21.4999 66.71 20.3799 66.69 19.3099L66.62 18.1099C66.55 17.4199 66.38 16.7599 66.11 16.1199C64.93 13.9599 63.74 11.7999 62.56 9.6399C62.39 9.3299 62.22 9.0199 62.05 8.7199C61.77 8.2099 61.37 7.3999 60.65 7.3999C59.98 7.3999 59.47 8.1999 59.25 8.7199C58.83 9.7099 58.65 10.8299 58.67 11.8999L58.74 13.0999C58.81 13.7899 58.98 14.4499 59.25 15.0899C60.43 17.2499 61.62 19.4099 62.8 21.5699C62.97 21.8799 63.14 22.1899 63.31 22.4899C63.59 22.9999 63.99 23.8099 64.71 23.8099C65.38 23.8099 65.89 23.0099 66.11 22.4899C66.53 21.4999 66.71 20.3799 66.69 19.3099L66.62 18.1099C66.55 17.4199 66.38 16.7599 66.11 16.1199Z" fill="black"/>
<path d="M63.76 63.9599C64.08 59.0799 64.4 54.1999 64.72 49.3299C65.24 41.5099 65.75 33.6899 66.27 25.8599C66.39 24.0699 66.51 22.2899 66.62 20.4999L62.8 18.1099C62.48 22.9899 62.16 27.8699 61.84 32.7399C61.32 40.5599 60.81 48.3799 60.29 56.2099C60.17 57.9999 60.05 59.7799 59.94 61.5699C59.84 63.1399 59.67 66.1699 61.32 67.1099C62.97 68.0499 63.69 64.8899 63.76 63.9699C64.08 59.0899 64.4 54.2099 64.72 49.3399C65.24 41.5199 65.75 33.6999 66.27 25.8699C66.39 24.0799 66.51 22.2999 66.62 20.5099L62.8 18.1199C62.48 22.9999 62.16 27.8799 61.84 32.7499C61.32 40.5699 60.81 48.3899 60.29 56.2199C60.17 58.0099 60.05 59.7899 59.94 61.5799C59.84 63.1499 59.67 66.1799 61.32 67.1199C62.97 68.0599 63.69 64.8999 63.76 63.9799V63.9599Z" fill="black"/>
<path d="M59.74 65.7599L59.76 65.6699L59.05 67.2799C58.46 68.1099 58.74 67.3799 58.99 67.4599C58.74 67.3799 58.98 67.4799 59.24 67.4399C59.63 67.3899 60.02 67.3399 60.41 67.3199C60.89 67.2899 61.37 67.2999 61.85 67.2699C62.88 67.1999 63.91 67.0099 64.94 66.8799C67.65 66.5299 70.36 66.1899 73.07 65.8399L71.16 60.1399C70.65 67.4199 70.14 74.6899 69.63 81.9699C68.82 93.5799 68 105.19 67.19 116.8C67 119.48 66.81 122.17 66.63 124.85C66.52 126.42 66.4 129.03 67.78 130.16C69.16 131.29 69.89 129.4 70.25 128.32C71.77 123.76 73.29 119.19 74.81 114.63C75.43 112.78 76.12 110.93 76.67 109.05C76.97 108 76.98 106.85 77.07 105.77C77.98 94.5999 78.9 83.4399 79.81 72.2699C79.95 70.6099 80.09 68.9399 80.22 67.2799C80.4 64.9399 80.23 62.8199 78.51 61.1899C77.52 60.2599 75.8 58.3199 74.27 58.4999C72.54 58.6999 72.26 61.6899 72.29 62.9999C72.31 63.9499 72.57 67.6899 74.27 67.4999C74.53 67.4699 74.54 67.5399 74.29 67.4299C74.48 67.5099 74.65 67.6099 74.83 67.7099C75.29 67.9899 75.72 68.3299 76.13 68.6799C76.49 68.9799 76.84 69.2999 77.19 69.6199C77.7 70.0799 76.88 69.2999 77.32 69.7499L76.41 64.6699C75.71 73.1999 75.01 81.7299 74.31 90.2699C73.94 94.7699 73.57 99.2799 73.2 103.78C73.16 104.25 73.11 104.71 73.09 105.18C73.04 106.17 73.44 104.16 73.22 104.57C72.94 105.1 72.81 105.79 72.62 106.36L71.52 109.66C69.95 114.37 68.38 119.07 66.81 123.78L70.43 127.25C70.94 119.97 71.45 112.7 71.96 105.42C72.77 93.8099 73.59 82.1999 74.4 70.5899C74.59 67.9099 74.78 65.2199 74.96 62.5399C75.05 61.2099 75.07 59.8899 74.61 58.6199C74.39 58.0199 73.93 56.7399 73.06 56.8499C70.1 57.2299 67.14 57.6099 64.18 57.9799C63.31 58.0899 62.43 58.2399 61.56 58.2799C59.18 58.3899 56.95 58.3899 56.31 61.2199C55.89 63.0899 55.74 65.7799 57.02 67.3799C58.3 68.9799 59.46 66.9799 59.73 65.7699L59.74 65.7599Z" fill="black"/>
<path d="M68.1301 60.8596V36.2596L66.1501 40.7596C71.3201 40.1996 76.5001 39.6496 81.6701 39.0896L79.6901 34.5896C79.4401 41.2296 79.1901 47.8596 78.9501 54.4996C78.5701 64.6196 78.1901 74.7396 77.8201 84.8496C77.7301 87.2796 77.6401 89.7096 77.5501 92.1396L77.8201 89.8696C76.3101 94.7296 74.8001 99.5796 73.2801 104.44C72.7301 106.22 72.7801 109.08 73.9901 110.6C75.2801 112.22 76.3401 110.13 76.7001 108.99C78.1901 104.2 79.8201 99.4296 81.1801 94.5996C81.6401 92.9596 81.5401 91.1596 81.6101 89.4496L81.7901 84.5496C82.2701 71.6496 82.7501 58.7396 83.2401 45.8396C83.3801 42.0896 83.5201 38.3396 83.6601 34.5996C83.7001 33.6296 83.3401 29.9196 81.6801 30.0996C76.5101 30.6596 71.3301 31.2096 66.1601 31.7696C64.4201 31.9596 64.1801 35.0596 64.1801 36.2696V60.8696C64.1801 62.0296 64.4301 65.3696 66.1601 65.3696C67.8901 65.3696 68.1401 61.9196 68.1401 60.8696L68.1301 60.8596Z" fill="black"/>
<path d="M82.83 75.7796C81.3 80.3796 79.76 84.9796 78.23 89.5896C78.01 90.2396 77.8 90.8896 77.58 91.5396C77.24 92.5496 77.25 93.9696 77.38 95.0096C77.48 95.8096 77.72 97.0596 78.29 97.6996C79.65 99.2396 80.59 97.2996 81 96.0896C82.53 91.4896 84.07 86.8896 85.6 82.2796C85.82 81.6296 86.03 80.9796 86.25 80.3296C86.59 79.3196 86.58 77.8996 86.45 76.8596C86.35 76.0596 86.11 74.8096 85.54 74.1696C84.18 72.6296 83.24 74.5696 82.83 75.7796C81.3 80.3796 79.76 84.9796 78.23 89.5896C78.01 90.2396 77.8 90.8896 77.58 91.5396C77.24 92.5496 77.25 93.9696 77.38 95.0096C77.48 95.8096 77.72 97.0596 78.29 97.6996C79.65 99.2396 80.59 97.2996 81 96.0896C82.53 91.4896 84.07 86.8896 85.6 82.2796C85.82 81.6296 86.03 80.9796 86.25 80.3296C86.59 79.3196 86.58 77.8996 86.45 76.8596C86.35 76.0596 86.11 74.8096 85.54 74.1696C84.18 72.6296 83.24 74.5696 82.83 75.7796Z" fill="black"/>
<path d="M80.27 37.7696C81.73 40.4296 83.17 43.1096 84.55 45.8196C84.86 46.4296 85.17 47.0496 85.45 47.6796C85.62 48.0696 85.84 48.9396 85.42 47.4596C85.66 48.3196 85.21 44.4496 85.18 45.4996C85.16 46.2396 85.18 46.9896 85.18 47.7296V75.6596L86.63 71.3196C85.75 72.1196 84.88 72.9096 84 73.7096C82.56 75.0196 82.35 77.4096 82.62 79.2496C82.71 79.8996 83.65 83.6696 85.06 82.3896C85.64 81.8596 86.23 81.3296 86.81 80.7996C87.08 80.5496 87.35 80.3096 87.62 80.0596C88.85 78.9196 89.09 77.2796 89.13 75.6696C89.15 75.0596 89.13 74.4396 89.13 73.8296V62.7896C89.13 58.5596 89.13 54.3296 89.13 50.0996C89.13 47.2896 89.45 44.2096 88.35 41.5696C86.89 38.0696 84.88 34.7396 83.06 31.4196C82.78 30.9096 82.38 30.0996 81.66 30.0996C80.94 30.0996 80.5 30.8996 80.26 31.4196C79.48 33.1296 79.33 36.0796 80.26 37.7796L80.27 37.7696Z" fill="black"/>
<path d="M76.18 35.5498C76.95 27.1098 77.7101 18.6698 78.4801 10.2398L78.81 6.65982L76.9 9.95982C79.51 9.73982 82.12 9.53981 84.74 9.36981C86.59 9.24981 88.44 9.12981 90.29 9.06981C90.95 9.04981 91.62 9.02982 92.29 9.04982C92.5 9.04982 92.74 9.09982 92.95 9.08982C93.01 9.08982 93.12 9.13981 93.17 9.11981C92.75 9.27981 92.05 8.05982 91.99 7.90982L91.4801 3.52982C91.7301 1.06982 91.44 3.70982 91.32 4.43982C91.2 5.16982 91.0901 5.88982 90.9801 6.61982C90.6001 9.09982 90.24 11.5898 89.88 14.0798C88.93 20.5698 88 27.0598 87.06 33.5498C86.47 37.6498 85.8 41.7598 85.29 45.8698C85.14 47.0898 85.18 48.3498 85.17 49.5798C85.15 52.3398 85.12 55.0898 85.1 57.8498C85.05 63.1398 85.26 68.4998 84.95 73.7798H88.9101C88.9101 73.3598 88.79 75.3798 88.85 74.8298C88.92 74.2398 88.5701 76.1798 88.7301 75.4898C88.8201 75.0898 88.9 74.6998 88.99 74.2998C89.26 73.0998 89.53 71.9098 89.81 70.7198C90.55 67.5398 91.3 64.3598 92.04 61.1798C92.59 58.7898 93.26 56.3598 93.6 53.9198C93.72 53.0298 93.95 51.3398 93.63 53.6198C93.65 53.4498 93.66 53.2798 93.68 53.1098C93.75 52.4798 93.83 51.8598 93.9 51.2298C95.28 40.0198 96.78 28.8198 98.25 17.6298C98.45 16.0898 98.69 14.5598 98.86 13.0198C99.23 9.54982 97.58 6.76982 96.22 3.73982C95.99 3.21982 95.5 2.41982 94.82 2.41982C94.14 2.41982 93.66 3.21982 93.42 3.73982C92.58 5.56982 92.59 8.25982 93.42 10.0998C94.14 11.6898 94.85 13.2798 95.57 14.8798L95.06 10.4998C93.94 18.9998 92.83 27.5098 91.72 36.0198C91.14 40.5298 90.54 45.0498 90 49.5698C89.94 50.0598 89.88 50.5398 89.83 51.0298C89.78 51.5198 89.7601 52.0098 89.7301 52.5098C89.7301 52.4198 89.8601 50.8498 89.7301 51.7698C89.7601 51.5698 89.99 50.4398 89.84 51.1798C89.8 51.3698 89.76 51.5598 89.72 51.7398C89.61 52.2498 89.5 52.7598 89.38 53.2698C89.1 54.5198 88.81 55.7698 88.52 57.0098C87.77 60.2598 87 63.4998 86.25 66.7498C85.73 68.9998 84.8901 71.4798 84.9401 73.7998C84.9601 74.9598 85.17 78.2998 86.92 78.2998C88.67 78.2998 88.84 74.8498 88.9 73.7998C89.02 71.7398 88.94 69.6498 88.96 67.5898C89 63.5598 89.03 59.5398 89.07 55.5098C89.09 52.8498 89.16 50.1798 89.14 47.5198C89.14 46.6698 88.94 49.4098 89.15 47.9098C89.27 47.0398 89.4 46.1598 89.53 45.2898C90.59 37.8698 91.6601 30.4598 92.7301 23.0398C93.2701 19.3298 93.81 15.6098 94.36 11.8998C94.55 10.6298 94.74 9.35982 94.93 8.08982C94.99 7.66982 95.06 7.24982 95.13 6.82982C95.26 5.99982 95.22 6.07982 95.06 7.16982C95.39 4.99982 95.92 0.479815 92.85 0.109815C91.42 -0.0601847 89.9 0.109815 88.47 0.179815C84.86 0.359815 81.2601 0.629815 77.6601 0.929815C77.4101 0.949815 77.15 0.969815 76.9 0.989815C75.57 1.09982 75.08 3.26982 74.99 4.28982C74.22 12.7298 73.46 21.1698 72.69 29.5998L72.36 33.1798C72.22 34.7298 72.11 37.7998 73.74 38.7198C75.37 39.6398 76.09 36.4898 76.18 35.5798V35.5498Z" fill="black"/>
<path d="M87.16 80.1596C91.46 81.0396 95.7599 81.9096 100.06 82.7896L98.3499 76.0196C96.3299 82.2896 94.31 88.5596 92.29 94.8296C89.07 104.82 85.8599 114.81 82.6399 124.8C81.8999 127.09 81.17 129.37 80.43 131.66C79.86 133.43 79.9299 136.31 81.1399 137.82C82.4399 139.44 83.4799 137.34 83.8499 136.21C85.8699 129.94 87.89 123.67 89.91 117.4C93.13 107.41 96.3399 97.4196 99.5599 87.4296C100.3 85.1396 101.03 82.8596 101.77 80.5696C102.31 78.8896 102.42 74.2796 100.06 73.7996C95.7599 72.9196 91.46 72.0496 87.16 71.1696C86.53 71.0396 85.94 72.1096 85.76 72.4896C85.33 73.4196 85.16 74.6596 85.18 75.6696C85.21 77.0896 85.39 79.8096 87.16 80.1696V80.1596Z" fill="black"/>
<path d="M103.64 87.1196C103.15 84.1996 102.67 81.2796 102.18 78.3596C102.11 77.9396 102.04 77.5196 101.97 77.0896L98.15 79.4796C98.64 82.3996 99.12 85.3196 99.61 88.2396C99.68 88.6596 99.75 89.0796 99.82 89.5096C99.97 90.3796 100.15 91.4796 100.73 92.1996C101.09 92.6396 101.69 93.0296 102.26 92.6496C102.92 92.2096 103.27 91.3096 103.44 90.5796C103.71 89.4696 103.83 88.2396 103.64 87.1096C103.15 84.1896 102.67 81.2696 102.18 78.3496C102.11 77.9296 102.04 77.5096 101.97 77.0796L98.15 79.4696C98.64 82.3896 99.12 85.3096 99.61 88.2296C99.68 88.6496 99.75 89.0696 99.82 89.4996C99.97 90.3696 100.15 91.4696 100.73 92.1896C101.09 92.6296 101.69 93.0196 102.26 92.6396C102.92 92.1996 103.27 91.2996 103.44 90.5696C103.71 89.4596 103.83 88.2296 103.64 87.0996V87.1196Z" fill="black"/>
<path d="M89.38 136.08C89.38 136.08 89.06 138.44 89.13 138.25C89.14 138.21 89.15 138.16 89.16 138.12C89.21 137.96 89.25 137.79 89.3 137.62C89.46 137.06 89.63 136.51 89.8 135.95C90.37 134.07 90.95 132.2 91.53 130.33C93.37 124.39 95.24 118.45 97.1 112.51C101.27 99.2398 105.45 85.9698 109.64 72.6998C110.6 69.6698 111.55 66.6398 112.51 63.6098L110.8 65.8398C115.89 66.4798 120.99 67.1098 126.08 67.7498L124.37 60.9798C121.86 69.6698 119.35 78.3498 116.84 87.0398C112.86 100.83 108.88 114.61 104.89 128.4C103.98 131.56 103.07 134.72 102.15 137.87C101.63 139.67 101.63 142.49 102.86 144.03C104.09 145.57 105.23 143.58 105.57 142.42C108.08 133.73 110.59 125.05 113.1 116.36C117.08 102.57 121.06 88.7898 125.05 74.9998C125.96 71.8398 126.87 68.6798 127.79 65.5298C128.24 63.9798 128.5 59.0598 126.08 58.7598C120.99 58.1198 115.89 57.4898 110.8 56.8498C109.78 56.7198 109.3 58.4298 109.09 59.0798C106.42 67.5198 103.76 75.9598 101.1 84.4098C96.89 97.7798 92.67 111.15 88.51 124.53C87.81 126.77 87.12 129 86.44 131.25C85.94 132.9 85.52 134.35 85.42 136.1C85.35 137.25 85.71 140.6 87.4 140.6C89.09 140.6 89.32 137.15 89.38 136.1V136.08Z" fill="black"/>
<path d="M92.6501 76.6199C93.1101 70.7599 93.5601 64.8899 94.0201 59.0299C94.7501 49.6899 95.4801 40.3399 96.2101 30.9999C96.3801 28.8499 96.5401 26.7099 96.7101 24.5599L94.8001 27.8599C96.8101 27.5099 98.8301 27.2099 100.86 26.9399C103.77 26.5499 106.87 26.0199 109.82 26.2899C110.03 26.3099 110.26 26.3799 110.47 26.3799C110.86 26.3799 110.1 26.1299 110.49 26.3999C109.56 25.7499 109.14 22.6799 109.35 21.4899C109.26 21.9699 109.27 22.4899 109.22 22.9699C109.04 24.8899 108.84 26.8099 108.64 28.7299C107.33 41.3899 105.94 54.0399 104.56 66.6899C104.17 70.2399 103.78 73.7899 103.39 77.3399C103.22 78.8799 103.16 81.9699 104.77 82.8799C106.38 83.7899 107.11 80.6499 107.21 79.7399C108.27 70.1199 109.32 60.4999 110.36 50.8799C111.06 44.4199 111.76 37.9599 112.43 31.4899C112.64 29.4499 112.85 27.4099 113.04 25.3699C113.09 24.8799 113.13 24.3799 113.17 23.8899C113.31 21.9399 113.47 18.9999 111.63 17.7899C110.64 17.1399 109.1 17.2399 107.98 17.2799C106.12 17.3299 104.27 17.5399 102.43 17.7599C99.8801 18.0699 97.3301 18.4399 94.8001 18.8799C93.4701 19.1099 92.9801 21.0599 92.8901 22.1799C92.4301 28.0399 91.9801 33.9099 91.5201 39.7699C90.7901 49.1099 90.0601 58.4599 89.3301 67.7999C89.1601 69.9499 89.0001 72.0899 88.8301 74.2399C88.7101 75.7999 88.5701 78.8499 90.2101 79.7799C91.8501 80.7099 92.5701 77.5599 92.6501 76.6399V76.6199Z" fill="black"/>
<path d="M112.2 64.5199C113.14 62.0499 113.41 59.3199 113.81 56.7199C114.39 52.9999 114.91 49.2699 115.42 45.5399C116.13 40.3099 116.93 35.0699 117.48 29.8199C117.69 27.8399 117.41 25.9899 116.3 24.3499C115.82 23.6399 115.32 22.9399 114.84 22.2399C113.98 20.9999 113.13 19.7699 112.27 18.5299C111.12 16.8599 109.83 19.0399 109.56 20.1399C109.1 22.0699 109.09 24.5899 110.27 26.2999C111.7 28.3699 113.14 30.4399 114.57 32.5099L113.66 27.4299C112.51 36.5799 111.35 45.7299 109.91 54.8399C109.81 55.4499 109.71 56.0599 109.61 56.6699C109.56 56.9399 109.52 57.2099 109.47 57.4699C109.29 58.5099 109.59 56.8599 109.51 57.2399C109.44 57.5899 109.37 57.9499 109.29 58.2999C109.16 58.8399 108.88 59.4699 109.39 58.1499C108.65 60.0999 108.5 62.5799 109.39 64.5099C110.08 66.0299 111.53 66.2499 112.19 64.5099L112.2 64.5199Z" fill="black"/>
<path d="M114.11 62.6096C117.95 51.5096 121.79 40.4096 125.63 29.3096C126.17 27.7496 126.71 26.1996 127.24 24.6396L125.84 25.9596C130.78 26.8396 135.71 27.7096 140.65 28.5896L139.25 20.9096C134.99 32.3596 130.73 43.8096 126.47 55.2596C125.87 56.8696 125.28 58.4697 124.68 60.0797C123.95 62.0397 123.79 64.4997 124.68 66.4397C125.37 67.9397 126.83 68.1897 127.48 66.4397C131.74 54.9897 136 43.5396 140.26 32.0896C140.86 30.4796 141.45 28.8796 142.05 27.2696C142.65 25.6596 142.77 24.0096 142.46 22.3496C142.27 21.3096 141.87 19.7996 140.65 19.5796C135.71 18.6996 130.78 17.8297 125.84 16.9497C125.23 16.8397 124.58 17.8596 124.44 18.2696C120.6 29.3697 116.76 40.4696 112.92 51.5696C112.38 53.1296 111.84 54.6797 111.31 56.2397C110.62 58.2297 110.41 60.6296 111.31 62.5996C111.98 64.0696 113.49 64.3796 114.11 62.5996V62.6096Z" fill="black"/>
<path d="M108.93 143.36C110.1 139.01 111.75 134.73 113.15 130.46C116.39 120.63 119.63 110.8 122.87 100.97C129.85 79.8098 136.84 58.6398 143.83 37.4798C144.47 35.5498 145.4 33.5198 145.66 31.4798C146.14 27.6398 143.69 24.1798 142.05 20.8898C141.79 20.3798 141.35 19.5698 140.65 19.5698C139.95 19.5698 139.49 20.3698 139.25 20.8898C138.44 22.6598 138.36 25.4798 139.25 27.2498C140.28 29.3198 141.32 31.3898 142.35 33.4598L142.04 28.0098C137.46 41.8798 132.88 55.7498 128.3 69.6198C122.11 88.3798 115.91 107.14 109.73 125.91C108.32 130.19 106.67 134.46 105.51 138.81C105.02 140.64 104.97 143.41 106.22 144.97C107.47 146.53 108.61 144.53 108.93 143.36Z" fill="black"/>
<path d="M144.03 33.5601C141.77 38.9601 139.52 44.3501 137.26 49.7501C133.66 58.3601 130.06 66.9701 126.46 75.5901C125.63 77.5801 124.8 79.5701 123.97 81.5601L126.77 87.9201C129.03 82.5201 131.28 77.1301 133.54 71.7301C137.14 63.1201 140.74 54.5101 144.34 45.8901C145.17 43.9001 146 41.9101 146.83 39.9201C147.66 37.9301 147.7 35.4501 146.83 33.5601C146.12 32.0001 144.74 31.8701 144.03 33.5601C141.77 38.9601 139.52 44.3501 137.26 49.7501C133.66 58.3601 130.06 66.9701 126.46 75.5901C125.63 77.5801 124.8 79.5701 123.97 81.5601L126.77 87.9201C129.03 82.5201 131.28 77.1301 133.54 71.7301C137.14 63.1201 140.74 54.5101 144.34 45.8901C145.17 43.9001 146 41.9101 146.83 39.9201C147.66 37.9301 147.7 35.4501 146.83 33.5601C146.12 32.0001 144.74 31.8701 144.03 33.5601Z" fill="black"/>
<path d="M159.52 34.3899C155.41 33.7599 151.3 33.1399 147.18 32.5099C146.6 32.4199 146.01 32.3299 145.43 32.2399C144.78 32.1399 144.22 33.1399 144.03 33.5599C143.6 34.4899 143.43 35.7299 143.45 36.7399C143.47 37.7499 143.55 38.9599 144.03 39.9199C144.34 40.5399 144.69 41.1199 145.43 41.2399C149.54 41.8699 153.65 42.4899 157.77 43.1199C158.35 43.2099 158.94 43.2999 159.52 43.3899C160.17 43.4899 160.73 42.4899 160.92 42.0699C161.35 41.1399 161.52 39.8999 161.5 38.8899C161.48 37.8799 161.4 36.6699 160.92 35.7099C160.61 35.0899 160.26 34.5099 159.52 34.3899C155.41 33.7599 151.3 33.1399 147.18 32.5099C146.6 32.4199 146.01 32.3299 145.43 32.2399C144.78 32.1399 144.22 33.1399 144.03 33.5599C143.6 34.4899 143.43 35.7299 143.45 36.7399C143.47 37.7499 143.55 38.9599 144.03 39.9199C144.34 40.5399 144.69 41.1199 145.43 41.2399C149.54 41.8699 153.65 42.4899 157.77 43.1199C158.35 43.2099 158.94 43.2999 159.52 43.3899C160.17 43.4899 160.73 42.4899 160.92 42.0699C161.35 41.1399 161.52 39.8999 161.5 38.8899C161.48 37.8799 161.4 36.6699 160.92 35.7099C160.61 35.0899 160.26 34.5099 159.52 34.3899Z" fill="black"/>
<path d="M146.83 77.6496C150.94 67.2796 155.04 56.9096 159.15 46.5396C159.74 45.0496 160.33 43.5596 160.92 42.0696L157.61 40.0796C157.93 42.6296 158.25 45.1696 158.57 47.7196L159.08 43.3396C155.8 52.6796 152.53 62.0196 149.25 71.3496C148.78 72.6796 148.32 74.0096 147.85 75.3296L150.25 74.6296C148.98 73.2796 147.7 71.9196 146.43 70.5696C145.16 69.2196 144.04 70.8396 143.72 72.1796C143.32 73.8596 143.1 76.9196 144.43 78.3396C145.76 79.7596 146.98 81.0496 148.25 82.3996C149.16 83.3696 150.22 82.9196 150.65 81.6996C154.38 71.0496 158.15 60.4196 161.85 49.7596C162.7 47.2996 162.35 45.0496 162.04 42.5896C161.84 40.9596 161.63 39.3196 161.43 37.6896C161.31 36.7196 161.02 35.0896 160.05 34.5496C159.15 34.0496 158.42 34.9496 158.12 35.7096C154.01 46.0796 149.91 56.4496 145.8 66.8196C145.21 68.3096 144.62 69.7996 144.03 71.2896C143.27 73.2196 143.15 75.7296 144.03 77.6496C144.73 79.1796 146.15 79.3696 146.83 77.6496Z" fill="black"/>
<path d="M129.91 81.3597C134.44 80.6597 138.97 79.9697 143.5 79.2697C144.14 79.1697 144.79 79.0697 145.43 78.9697V69.9697C140.9 70.6697 136.37 71.3597 131.84 72.0597C131.2 72.1597 130.55 72.2597 129.91 72.3597C128.18 72.6297 127.9 75.4997 127.93 76.8597C127.95 77.9197 128.03 79.0797 128.51 80.0397C128.75 80.5297 129.22 81.4597 129.91 81.3597C134.44 80.6597 138.97 79.9697 143.5 79.2697C144.14 79.1697 144.79 79.0697 145.43 78.9697V69.9697C140.9 70.6697 136.37 71.3597 131.84 72.0597C131.2 72.1597 130.55 72.2597 129.91 72.3597C128.18 72.6297 127.9 75.4997 127.93 76.8597C127.95 77.9197 128.03 79.0797 128.51 80.0397C128.75 80.5297 129.22 81.4597 129.91 81.3597Z" fill="black"/>
<path d="M128.54 140.14C128.57 132.83 128.96 125.5 129.18 118.19C129.52 106.91 129.86 95.6199 130.2 84.3399C130.28 81.7599 130.36 79.1899 130.43 76.6099C130.46 75.4599 130.16 72.1099 128.45 72.1099C126.74 72.1099 126.5 75.5599 126.47 76.6099C126.26 83.6999 126.04 90.7899 125.83 97.8799C125.49 109.23 125.15 120.57 124.81 131.92C124.73 134.66 124.59 137.4 124.58 140.14C124.58 141.3 124.83 144.64 126.56 144.64C128.29 144.64 128.54 141.19 128.54 140.14Z" fill="black"/>
<path d="M119.37 144.28C122.09 138.64 124.8 132.99 127.52 127.35C127.91 126.55 128.29 125.74 128.68 124.94L125.37 120.56C125.05 124.62 124.73 128.68 124.41 132.74L125.32 130.05C123.81 132.6 122.3 135.14 120.78 137.69L121.78 137.08C120.51 136.92 119.23 136.76 117.96 136.6C117.31 136.52 116.76 137.49 116.56 137.92C116.13 138.85 115.96 140.09 115.98 141.1C116.01 142.4 116.19 145.38 117.96 145.6C119.23 145.76 120.51 145.92 121.78 146.08C122.21 146.04 122.54 145.83 122.78 145.47C124.28 142.95 125.79 140.44 127.27 137.9C128.21 136.29 128.26 134.73 128.4 132.97L128.87 127.02C128.98 125.67 129.08 124.31 129.19 122.96C129.31 121.38 129.35 119.21 128.28 117.88C127.38 116.76 126.39 117.53 125.88 118.58C123.16 124.22 120.45 129.87 117.73 135.51C117.34 136.31 116.96 137.12 116.57 137.92C115.71 139.7 115.68 142.5 116.57 144.28C116.85 144.83 117.24 145.6 117.97 145.6C118.7 145.6 119.12 144.81 119.37 144.28Z" fill="black"/>
<path d="M143.52 73.2698C143.06 80.1098 142.61 86.9598 142.15 93.7998C141.42 104.75 140.69 115.71 139.96 126.66C139.79 129.16 139.63 131.66 139.46 134.16C139.36 135.72 139.19 138.76 140.84 139.7C142.49 140.64 143.21 137.48 143.28 136.56C143.74 129.72 144.19 122.87 144.65 116.03C145.38 105.08 146.11 94.1198 146.84 83.1698C147.01 80.6698 147.17 78.1698 147.34 75.6698C147.44 74.1098 147.61 71.0698 145.96 70.1298C144.31 69.1898 143.59 72.3498 143.52 73.2698Z" fill="black"/>
<path d="M147.34 77.33C147.1 79.78 147.07 82.27 146.97 84.73C146.79 89.12 146.61 93.52 146.44 97.91C146.07 107.51 145.71 117.11 145.35 126.71C145.27 128.87 145.19 131.04 145.11 133.2C145.07 134.35 145.38 137.7 147.09 137.7C148.8 137.7 149.03 134.25 149.07 133.2C149.29 127.3 149.5 121.41 149.73 115.51C150.09 105.81 150.46 96.12 150.85 86.42C150.92 84.64 151 82.87 151.08 81.09C151.11 80.54 151.13 79.99 151.16 79.43C151.21 78.35 151.04 80.85 151.15 79.71C151.3 78.16 151.39 75.09 149.77 74.17C148.15 73.25 147.42 76.4 147.33 77.31L147.34 77.33Z" fill="black"/>
<path d="M161.87 49.71C163.38 45.49 164.89 41.27 166.41 37.05L165.01 38.37C170.66 39.17 176.31 39.96 181.96 40.76L180.56 33.08C177.63 40.96 174.7 48.85 171.77 56.73C171.36 57.84 170.94 58.95 170.53 60.06L171.93 58.74C169.22 58.02 166.52 57.31 163.81 56.59C163.38 56.63 163.05 56.84 162.81 57.2C158.63 64.17 154.44 71.14 150.26 78.12L148.48 81.08C147.4 82.88 147.24 85.22 147.77 87.24C148.03 88.22 149.38 90.68 150.48 88.85C154.66 81.88 158.85 74.91 163.03 67.93L164.81 64.97L163.81 65.58C166.52 66.3 169.22 67.01 171.93 67.73C172.52 67.89 173.2 66.77 173.33 66.41C176.26 58.53 179.19 50.64 182.12 42.76C182.53 41.65 182.95 40.54 183.36 39.43C183.95 37.85 184.08 36.17 183.77 34.51C183.58 33.51 183.18 31.92 181.96 31.74C176.31 30.94 170.66 30.15 165.01 29.35C164.39 29.26 163.76 30.24 163.61 30.67C162.1 34.89 160.59 39.11 159.07 43.33C158.36 45.31 158.17 47.73 159.07 49.69C159.75 51.18 161.24 51.46 161.87 49.69V49.71Z" fill="black"/>
<path d="M177.98 63.9597C177.96 64.4697 177.98 65.4897 177.74 66.0297C177.76 65.9897 177.75 65.9297 177.77 65.8897C177.81 65.7797 177.84 65.6497 177.87 65.5297C177.91 65.3797 177.97 65.2297 178.01 65.0697C178.15 64.5797 177.82 65.6197 177.84 65.5797C177.9 65.4397 177.94 65.2797 178 65.1397C178.38 64.0997 178.77 63.0697 179.17 62.0397C180.19 59.4297 181.26 56.8397 182.34 54.2497C183.13 52.3397 183.94 50.4297 184.75 48.5197C185.2 47.4497 185.53 46.4197 185.6 45.2297C185.69 43.7397 185.36 42.3197 185.07 40.8697C184.61 38.5797 184.15 36.2897 183.7 33.9997C183.45 32.7597 182.2 30.8597 180.99 32.3897C179.71 33.9997 179.91 36.6897 180.28 38.5497C180.84 41.3397 181.39 44.1197 181.95 46.9097L182.26 41.4597C180.91 44.6097 179.59 47.7797 178.29 50.9497C177.39 53.1597 176.49 55.3697 175.65 57.5997C174.81 59.8297 174.13 61.6997 174.04 63.9797C173.99 65.1297 174.32 68.4797 176.02 68.4797C177.72 68.4797 177.96 65.0297 178 63.9797L177.98 63.9597Z" fill="black"/>
<path d="M171.41 67.58C172.51 68.03 173.61 68.49 174.7 68.97C175.46 69.3 176.23 69.64 176.98 70.01C177.29 70.16 177.58 70.34 177.89 70.48C178.38 70.71 178.2 70.88 177.9 70.39L176.99 67.7V67.73C177.16 66.27 177.33 64.81 177.5 63.35V63.37C177.78 62.98 178.07 62.6 178.36 62.21C177.7 62.56 177.28 63.52 176.93 64.13C176.02 65.68 175.15 67.24 174.28 68.81C171.77 73.31 169.3 77.84 166.84 82.36C161.27 92.6 155.74 102.85 150.23 113.12C148.96 115.49 147.69 117.85 146.42 120.22C145.48 121.97 145.61 124.81 146.42 126.58C147.23 128.35 148.4 128.11 149.22 126.58C153.52 118.56 157.83 110.54 162.16 102.53C165.49 96.37 168.82 90.21 172.18 84.06C173.54 81.57 174.91 79.07 176.29 76.59C176.84 75.6 177.39 74.62 177.94 73.63C178.05 73.44 178.16 73.25 178.26 73.06C178.55 72.56 178.55 72.67 178.22 73.13C178.45 72.81 178.62 72.43 178.82 72.09C179.09 71.62 179.41 71.17 179.67 70.69C179.84 70.37 179.76 70.12 179.38 70.9C179.34 70.97 180.28 69.57 179.66 70.65C180.07 69.94 180.4 69.62 180.62 68.78C181.06 67.11 181.05 64.91 180.31 63.3C179.57 61.69 177.7 61.12 176.2 60.45C174.96 59.9 173.72 59.38 172.47 58.87C170.79 58.19 170.16 60.83 170.03 62.01C169.9 63.19 169.93 64.35 170.23 65.48C170.4 66.13 170.73 67.27 171.41 67.55V67.58Z" fill="black"/>
<path d="M153.04 134.72C156.49 127.82 159.94 120.93 163.38 114.03C168.87 103.05 174.36 92.0696 179.85 81.0896C181.1 78.5896 182.35 76.0796 183.61 73.5796L182.21 74.8996C185.09 75.4396 187.97 76.0296 190.83 76.6496C192.88 77.0996 194.93 77.5696 196.96 78.1196C198.03 78.4096 197.9 78.3496 198.89 78.7196C199.14 78.8096 199.38 78.9396 199.62 79.0296C199.69 79.0596 199.76 79.1396 199.84 79.1496C199.88 79.1696 199.91 79.1996 199.95 79.2296C199.1 78.5296 198.68 77.5496 198.71 76.2996V73.9096V73.9396C198.87 73.2796 199.04 72.6196 199.21 71.9496C199.84 70.5496 199.25 71.8696 198.98 72.3696C198.82 72.6696 198.67 72.9796 198.51 73.2796C197.99 74.2896 197.48 75.2996 196.97 76.3196C195.34 79.5396 193.72 82.7696 192.09 85.9996C188.5 93.1496 184.92 100.3 181.34 107.45C180.52 109.08 179.71 110.71 178.9 112.34C178 114.14 178.07 116.89 178.9 118.7C179.66 120.36 180.91 120.28 181.7 118.7C185.76 110.58 189.83 102.46 193.9 94.3496C196.19 89.7796 198.48 85.2096 200.8 80.6596C201.09 80.0996 201.37 79.5296 201.67 78.9696C201.75 78.8196 201.83 78.6696 201.9 78.5196C201.92 78.4796 201.95 78.4396 201.96 78.3996L201.58 79.0596C201.72 78.8196 201.86 78.5796 201.99 78.3396C202.27 77.7296 202.43 76.9796 202.51 76.3196C202.76 74.3896 202.6 71.3896 200.63 70.3196C199.72 69.8196 198.6 69.5796 197.62 69.2896C192.57 67.8396 187.36 66.8496 182.2 65.8796C181.55 65.7596 180.99 66.8096 180.8 67.1996C177.35 74.0996 173.9 80.9896 170.46 87.8896C164.97 98.8696 159.48 109.85 153.99 120.83C152.74 123.33 151.49 125.84 150.23 128.34C149.33 130.14 149.4 132.89 150.23 134.7C150.99 136.36 152.24 136.28 153.03 134.7L153.04 134.72Z" fill="black"/>
<path d="M176.88 66.5896C176.88 69.4496 176.88 72.3096 176.88 75.1696V76.3796C176.88 77.4096 177.02 78.6096 177.46 79.5596C177.67 80.0096 178.2 80.9496 178.86 80.8796C179.56 80.8096 180.01 80.1596 180.26 79.5596C180.68 78.5596 180.84 77.4596 180.84 76.3796C180.84 73.5196 180.84 70.6596 180.84 67.7996V66.5896C180.84 65.5596 180.7 64.3596 180.26 63.4096C180.05 62.9596 179.52 62.0196 178.86 62.0896C178.16 62.1596 177.71 62.8096 177.46 63.4096C177.04 64.4096 176.88 65.5096 176.88 66.5896Z" fill="black"/>
<path d="M176.99 67.8497C180.81 63.3897 184.63 58.9297 188.45 54.4797L186.92 54.9297C190.98 57.0797 195.04 59.2297 199.1 61.3797L198.63 53.1597C195.61 57.8597 192.58 62.5497 189.56 67.2497C188.45 68.9697 188.28 71.4697 188.85 73.4097C189.14 74.4197 190.41 76.8097 191.56 75.0197C194.58 70.3197 197.61 65.6297 200.63 60.9297C201.48 59.6097 201.67 57.9797 201.58 56.4497C201.52 55.3597 201.29 53.3097 200.16 52.7097C196.1 50.5597 192.04 48.4097 187.98 46.2597C187.36 45.9297 186.87 46.2297 186.45 46.7097C182.63 51.1697 178.81 55.6297 174.99 60.0797C173.73 61.5597 173.77 64.4797 174.28 66.2397C174.64 67.4897 175.67 69.3997 176.99 67.8497Z" fill="black"/>
<path d="M197.29 76.6798C198.83 74.5098 200.36 72.3498 201.9 70.1798C202.11 69.8798 202.34 69.5898 202.53 69.2898C203.76 67.3898 203.66 64.9598 203.18 62.8398C202.86 61.4098 202.53 59.9898 202.2 58.5598C201.91 57.2898 201.62 56.0298 201.33 54.7598C201.07 53.6098 199.8 51.5298 198.62 53.1498C197.44 54.7698 197.48 57.4098 197.91 59.3098C198.55 62.0998 199.18 64.8798 199.82 67.6698L200.53 61.5098C198.78 63.9798 197.03 66.4498 195.28 68.9098C194.12 70.5498 194.02 73.1898 194.57 75.0698C194.78 75.7898 195.06 76.7398 195.75 77.1398C196.32 77.4598 196.91 77.1998 197.28 76.6898L197.29 76.6798Z" fill="black"/>
<path d="M201.88 85.9398C205.53 82.5298 209.17 79.1198 212.82 75.7098H211.77C216.07 78.5798 220.37 81.4398 224.67 84.3098V75.6298C220.14 79.8698 215.6 84.0998 211.07 88.3398C203.88 95.0598 196.7 101.77 189.51 108.49C187.86 110.03 186.2 111.58 184.55 113.12L186.48 120.64C189.32 115.16 192.17 109.67 195.01 104.19C196.92 100.5 198.84 96.8098 200.75 93.1098C201.94 90.8098 203.58 88.4598 203.74 85.8198C203.86 83.8198 203.44 81.7698 203.2 79.7898C202.96 77.8098 202.74 75.9298 202.51 73.9998C202.39 73.0098 201.69 69.9398 200.07 70.8598C198.45 71.7798 198.51 74.9398 198.69 76.3998C199.09 79.7398 199.49 83.0898 199.88 86.4298L200.39 82.0498C195.51 91.4598 190.63 100.87 185.75 110.29C185.06 111.62 184.37 112.96 183.68 114.29C182.89 115.81 182.94 118.13 183.37 119.74C183.54 120.4 184.54 122.81 185.61 121.81C190.14 117.57 194.68 113.34 199.21 109.1C206.4 102.38 213.58 95.6698 220.77 88.9498C222.42 87.4098 224.08 85.8598 225.73 84.3198C226.88 83.2498 227.21 81.5098 227.18 79.9798C227.15 78.5998 227 76.4898 225.73 75.6398C221.43 72.7698 217.13 69.9098 212.83 67.0398C212.48 66.8298 212.13 66.8298 211.78 67.0398C208.13 70.4498 204.49 73.8598 200.84 77.2698C199.42 78.5998 199.19 80.9498 199.46 82.8098C199.55 83.4398 200.5 87.2598 201.9 85.9498L201.88 85.9398Z" fill="black"/>
<path d="M190.32 121.04C190.15 121.69 189.98 122.36 189.81 123.02C189.54 123.77 189.31 123.78 189.82 123.23C190.15 122.88 190.49 122.56 190.83 122.22C190.98 122.08 191.39 121.69 190.77 122.27C190.88 122.17 190.98 122.07 191.09 121.97C191.38 121.7 191.66 121.43 191.95 121.16C192.61 120.54 193.28 119.91 193.95 119.29C197.53 115.97 201.14 112.69 204.76 109.41C211.24 103.53 217.75 97.68 224.26 91.85C224.54 91.6 224.81 91.36 225.09 91.11C226.09 90.19 226.48 89.01 226.62 87.67C226.85 85.51 226.93 83.33 227.08 81.16C227.19 79.6 227.34 76.55 225.7 75.62C224.06 74.69 223.33 77.84 223.26 78.76C223.1 80.99 222.94 83.22 222.78 85.45L224.16 82.31C219.97 86.06 215.78 89.83 211.6 93.6C205.03 99.52 198.46 105.43 191.99 111.45C190.8 112.56 189.61 113.67 188.45 114.81C187.29 115.95 186.75 116.85 186.48 118.65C186.25 120.17 186.29 123.3 187.86 124.19C189.43 125.08 190.16 121.94 190.3 121.05L190.32 121.04Z" fill="black"/>
<path d="M16.12 97.6598C22.73 97.9798 29.33 98.2998 35.94 98.6198L34.23 96.3898C36.21 103.47 38.78 110.45 41.66 117.22C44.1 122.95 46.87 128.57 50.18 133.86C53.09 138.51 56.57 143.11 61.06 146.35C63.18 147.88 65.61 149.02 67.95 150.18C70.87 151.63 73.83 152.98 76.83 154.24C83.8 157.17 90.99 159.64 98.32 161.47C105.65 163.3 113.06 164.48 120.55 164.28C124 164.19 127.45 163.79 130.79 162.93C134.62 161.95 138.09 160.3 141.58 158.48C152.85 152.61 163.72 145.45 173.31 137.07C173.46 136.94 173.62 136.8 173.77 136.66H172.72C178.61 139.05 184.5 141.44 190.39 143.82C192.07 144.5 192.7 141.86 192.83 140.68C192.96 139.5 192.93 138.34 192.63 137.21C192.46 136.56 192.13 135.42 191.45 135.14C185.56 132.75 179.67 130.36 173.78 127.98C173.43 127.77 173.08 127.77 172.73 127.98C165.05 134.92 156.23 140.85 147.31 146.06C140.61 149.97 133.85 153.79 126.06 154.84C118.93 155.8 111.62 155.15 104.58 153.83C91.02 151.28 77.78 146.22 65.62 139.74C63.42 138.57 61.42 137.26 59.59 135.56C59.3 135.29 59.66 135.64 59.27 135.25C59.07 135.04 58.86 134.84 58.66 134.63C58.19 134.14 57.74 133.63 57.29 133.12C56.36 132.04 55.49 130.92 54.66 129.77C53.83 128.62 53.02 127.41 52.25 126.19C51.87 125.59 51.5 124.98 51.14 124.37C50.97 124.08 50.8 123.79 50.63 123.5C50.38 123.07 50.85 123.89 50.6 123.45C50.48 123.24 50.36 123.03 50.25 122.82C48.8 120.21 47.47 117.54 46.22 114.82C43.97 109.94 42 104.93 40.22 99.8698C40.05 99.3798 39.88 98.8798 39.71 98.3898C39.5 97.7898 40.01 99.2798 39.74 98.4598C39.65 98.1898 39.56 97.9298 39.47 97.6598C39.2 96.8598 38.94 96.0498 38.69 95.2398C38.37 94.2398 38.07 93.2398 37.77 92.2298C37.73 92.0898 37.69 91.9598 37.65 91.8198C37.42 91.0198 36.99 89.6398 35.94 89.5898C29.33 89.2698 22.73 88.9498 16.12 88.6298C14.41 88.5498 14.12 92.0398 14.14 93.1298C14.16 94.3198 14.36 97.5498 16.12 97.6298V97.6598Z" fill="white"/>
<path d="M36.74 32.4598C36.82 33.0198 36.83 33.1098 36.76 32.7298C36.77 33.0498 36.78 33.3698 36.79 33.6898C36.81 34.3298 36.82 34.9698 36.86 35.6098C36.93 36.7298 37.09 37.8498 37.2 38.9598C37.36 40.6198 37.48 42.2798 37.68 43.9398C37.75 44.5098 37.82 45.0798 37.89 45.6398C37.93 45.9798 38.16 47.8398 37.96 46.1698C38.17 47.8598 38.31 49.5598 38.52 51.2498C38.58 51.7198 38.6 52.2298 38.69 52.6998C38.34 50.8998 38.72 53.0198 38.76 53.3998C39.01 55.8098 39.23 58.2298 39.41 60.6498C39.77 65.4898 40.04 70.3498 40.17 75.1998C40.23 77.6298 40.26 80.0598 40.26 82.4898C40.26 84.9198 40.08 87.3598 40.17 89.7798L48.28 86.1998C48.82 87.8498 48.28 85.8198 48.23 85.4598C48.15 84.9798 48.07 84.5098 47.99 84.0298C47.81 82.9198 47.64 81.7998 47.49 80.6898C47.43 80.2098 47.36 79.7298 47.3 79.2498C47.26 78.8898 46.91 76.7398 47.21 78.5598C47.05 77.6098 47.01 76.6298 46.92 75.6698C46.53 71.2498 46.34 66.8098 46.27 62.3798C46.12 53.5698 46.46 44.7498 46.66 35.9398C46.69 34.5398 46.18 32.7498 45.36 31.5998C44.75 30.7398 43.6 29.7498 42.44 29.8598C39.38 30.1398 38.66 33.6898 38.53 36.1498C38.06 45.1198 37.74 54.0998 37.89 63.0798C37.96 67.5198 38.18 71.9498 38.54 76.3698C38.76 79.0298 39.04 81.6898 39.37 84.3298C39.51 85.4498 39.66 86.5698 39.83 87.6898C39.9 88.1698 39.98 88.6498 40.05 89.1298C40.1 89.4498 40.15 89.7698 40.21 90.0898C40.13 89.1498 40.11 89.0598 40.16 89.7898C40.3 92.2698 41.28 95.7598 44.14 96.2798C46.82 96.7598 48.63 93.6698 48.85 91.3598C49.37 85.9598 49.16 80.4098 49.01 74.9998C48.87 70.0598 48.58 65.1298 48.1 60.2098C47.58 54.8898 46.98 49.5698 46.04 44.3098C45.61 41.9398 45.11 39.6098 44.51 37.2798C44.12 35.7798 43.76 34.2598 43.26 32.7998C43.07 32.2398 42.85 31.6798 42.64 31.1298C42.53 30.8498 42.43 30.5798 42.32 30.2998C42.4 30.6298 42.37 30.5398 42.23 30.0198C41.79 28.4898 40.61 26.1898 38.62 27.0498C36.63 27.9098 36.51 30.6998 36.75 32.4798L36.74 32.4598Z" fill="black"/>
<path d="M58.8499 17.3597C58.8699 16.6497 58.7099 18.0697 58.7099 18.0597C58.6699 18.3697 58.6199 18.6897 58.5799 18.9997C58.4599 19.8597 58.3199 20.7297 58.2299 21.5897C57.9999 23.6297 57.9899 25.7197 57.8899 27.7697C57.7199 31.1497 57.6599 34.5397 57.6299 37.9197C57.5999 41.2997 57.5999 44.5697 57.4299 47.8897C57.4299 48.0797 57.3299 49.4597 57.3999 48.5097C57.4699 47.5597 57.3599 48.9397 57.3499 49.1297C57.2799 49.9297 57.1999 50.7397 57.1099 51.5397C56.8999 53.2997 56.6099 55.0497 56.2399 56.7797C55.9299 58.2397 56.1999 60.2197 56.7699 61.5797C57.1999 62.5997 58.1299 64.0397 59.2899 64.3897C62.2299 65.2897 63.7299 62.2697 64.2299 59.8997C65.7199 52.7797 65.7199 45.4397 65.7499 38.2097C65.7599 34.7497 65.7499 31.2797 65.6099 27.8197C65.5399 26.0897 65.5499 24.3497 65.3799 22.6297C65.2799 21.5197 65.1199 20.4097 64.9799 19.2997C64.9199 18.8297 64.8599 18.3597 64.7999 17.8997C64.7799 17.7397 64.7399 16.4997 64.7499 17.1997C64.7199 15.4997 63.7999 12.7197 61.6899 12.7697C59.5799 12.8197 58.8899 15.6797 58.8499 17.3397V17.3597Z" fill="black"/>
<path d="M71.52 68.32C71.79 69.13 72.65 70.46 73.62 70.63C73.64 70.63 74.17 70.75 73.93 70.62C73.76 70.39 73.76 70.39 73.92 70.61C74.05 70.77 74.16 70.94 74.26 71.12L76.61 61.58C76.38 61.56 76.15 61.56 75.92 61.58C76.17 61.56 76.37 61.64 76.54 61.83C73.54 59.8 71.54 62.71 70.96 65.48C69.43 72.82 68.71 80.31 68.11 87.78C67.77 91.97 67.5 96.17 67.26 100.37C67.16 102.17 67.07 103.97 66.99 105.78C66.95 106.76 66.91 107.75 66.87 108.73C66.85 109.21 66.9 109.74 66.82 110.21L66.9 109.16C67.23 107.98 67.29 107.7 67.1 108.32L68.62 105.88L68.44 106.1C66.76 108.17 66 110.89 66.64 113.56C67.16 115.7 68.42 118.18 70.91 118.27C75.23 118.44 75.73 112.55 75.81 109.5C75.86 107.53 75.93 105.57 76.01 103.6C76.09 101.63 76.19 99.5 76.3 97.46C76.36 96.4 76.42 95.33 76.49 94.27C76.58 92.85 76.39 95.65 76.5 94.1C76.53 93.61 76.57 93.12 76.6 92.63C77.2 84.04 78.12 75.47 78.57 66.87L73.83 72.66C75.62 73.38 77.19 72.99 78.7 71.9C80.37 70.69 80.66 67.4 80.22 65.59C79.81 63.87 78.7 61.55 76.6 61.6C75.96 61.62 75.39 61.8 74.77 61.91C74.35 61.98 73.72 61.99 73.07 62.38C71.07 63.58 70.83 66.33 71.52 68.35V68.32Z" fill="black"/>
<path d="M74.84 66.5796C73.05 69.2996 73.32 73.2196 72.97 76.3596C72.62 79.4996 72.15 82.8496 71.6 86.0696C71.05 89.2896 70.58 92.4096 69.96 95.5696C69.34 98.7296 68.38 102.02 67.9 105.27C67.55 107.63 68.09 110.77 70.29 112.11C72.36 113.37 74.35 111.59 75.02 109.6C76.19 106.12 76.75 102.32 77.34 98.7096C77.89 95.3496 78.4 91.9696 78.66 88.5796C78.94 84.9696 79.14 81.3496 79.23 77.7296C79.32 74.1096 79.77 69.8496 77.9 66.4996C77.16 65.1796 75.59 65.4596 74.85 66.5696L74.84 66.5796Z" fill="black"/>
<path d="M69.33 113.11C69.16 113.56 68.96 114.01 68.75 114.45L69.03 113.86C68.76 114.42 68.47 114.96 68.2 115.52L68.49 114.91C68.42 115.06 68.35 115.21 68.27 115.35L71.63 118.19C71.64 118.1 71.65 118.02 71.67 117.93L71.49 118.65C71.52 118.52 71.57 118.39 71.63 118.26L71.34 118.88C71.34 118.88 71.38 118.79 71.41 118.75L71.02 119.23L71.05 119.2L70.58 119.52C70.58 119.52 70.62 119.49 70.65 119.49L69.6 119.52H69.62C69.46 119.43 69.3 119.33 69.14 119.23H69.15C68.9 118.89 68.66 118.54 68.41 118.18V118.2C68.35 117.96 68.27 117.72 68.2 117.49V117.51C68.19 116.98 68.18 116.44 68.16 115.91V115.93C68.44 115.32 68.73 114.72 69.02 114.11H69.01C69.34 113.98 69.67 113.83 69.99 113.69H69.97C69.68 113.69 69.43 113.79 69.22 113.97C68.95 114.12 68.75 114.33 68.6 114.61C68.41 114.91 68.28 115.24 68.22 115.59C68.1 115.97 68.06 116.35 68.08 116.75C68.12 117.47 68.26 118.27 68.71 118.86L69.12 119.32C69.41 119.57 69.74 119.7 70.12 119.71C70.22 119.72 70.31 119.71 70.4 119.65C70.68 119.62 70.92 119.49 71.12 119.28C71.44 119 71.51 118.82 71.67 118.48C71.73 118.37 71.78 118.27 71.82 118.15L72 117.43C72.09 116.95 72.06 116.28 71.96 115.81C71.82 115.13 71.51 114.46 70.99 113.99C70.72 113.74 70.33 113.59 69.96 113.59C69.59 113.59 69.42 113.7 69.16 113.87C69.02 113.97 68.96 113.99 68.87 114.09L68.48 114.57C68.48 114.57 68.46 114.61 68.45 114.63C68.31 114.88 68.16 115.18 68.06 115.46C67.95 115.76 67.89 116.08 67.82 116.38C67.8 116.48 67.78 116.58 67.77 116.69L67.72 117.49C67.72 117.89 67.78 118.27 67.92 118.64C67.97 118.88 68.06 119.1 68.19 119.3C68.32 119.6 68.51 119.85 68.76 120.06L69.24 120.35L69.77 120.44C70.06 120.44 70.31 120.35 70.52 120.16C70.79 120.01 70.99 119.8 71.14 119.52C71.35 119.08 71.58 118.66 71.76 118.2C71.86 117.94 71.96 117.67 72.05 117.41C72.3 116.67 72.49 115.93 72.68 115.17C72.75 114.8 72.75 114.43 72.68 114.06C72.66 113.71 72.58 113.36 72.44 113.04L72.14 112.49C71.99 112.24 71.79 112.06 71.54 111.93C71.41 111.81 71.25 111.75 71.08 111.75C70.84 111.67 70.59 111.7 70.36 111.82C69.83 112.09 69.51 112.58 69.3 113.12L69.33 113.11Z" fill="black"/>
<path d="M80.67 40.0196C81 42.9896 80.86 46.0996 80.85 49.0796C80.84 52.0596 80.89 55.1396 80.87 58.1696C80.87 59.7296 81.67 62.1296 83.46 62.3896C85.25 62.6496 86.2299 60.7196 86.5199 59.1896C87.4399 54.3896 87.77 49.4496 87.51 44.5696C87.42 42.9096 86.6199 40.1896 84.5199 40.2496C82.4199 40.3096 81.6799 43.0896 81.7399 44.7196L81.79 46.1796C81.84 47.6696 82.44 49.7796 84.01 50.3696C85.58 50.9596 86.75 49.5596 87.22 48.2696L87.57 47.2996L82.1299 45.2096C82.2599 51.8796 82.38 58.5596 82.51 65.2296C82.54 66.8796 82.58 68.5296 82.61 70.1696C82.63 70.9496 82.54 71.8096 82.66 72.5796C82.66 72.8396 82.66 72.8296 82.68 72.5496C82.68 72.1696 82.8 71.8196 83.01 71.4896C82.99 71.4896 82.47 72.3396 82.43 72.3896C80.51 75.2596 79.29 78.3996 78.55 81.7696L84.35 82.8196C84.24 72.5196 84.5099 62.2296 84.6299 51.9296L80.55 55.6696L80.78 55.8796L79.75 54.3996C79.67 54.2296 79.6 53.0396 79.68 54.2196C79.7 54.5496 79.7199 54.8796 79.7399 55.1996C79.7999 56.0996 79.85 56.9996 79.9 57.8996C80 59.6196 80.08 61.3396 80.16 63.0596C80.31 66.4796 80.1599 69.9896 80.5199 73.3996C80.6799 74.8496 81.08 76.8296 82.66 77.4196C84.11 77.9596 85.2999 76.6496 85.7399 75.3996C85.8099 75.2096 85.8799 75.0096 85.9499 74.8196C86.5499 73.1596 86.38 70.8096 85.12 69.4896C84 68.3196 82.43 68.4396 81.55 69.8996C81.45 70.0596 81.36 70.2196 81.26 70.3796L86 74.3796C86.28 70.0996 85.8799 65.7196 85.6299 61.4396C85.5099 59.4696 85.3799 57.5096 85.2399 55.5396C85.0399 52.8996 85.12 50.3396 83.17 48.3096C82.39 47.4996 81.1399 47.6896 80.3799 48.3796C79.3399 49.3196 79.18 50.7496 79.1 52.0496C78.49 62.3296 78.46 72.6596 78.48 82.9496C78.48 84.5496 79.29 87.0196 81.14 87.2896C82.99 87.5596 83.95 85.5696 84.29 83.9996C84.58 82.6596 84.0399 84.6896 84.4499 83.3796C84.5399 83.0996 84.62 82.8196 84.72 82.5496C84.86 82.1396 85.03 81.7296 85.19 81.3196L85.36 80.9196C85.26 81.1096 85.28 81.0896 85.4 80.8496C86.17 79.3196 87.34 78.0096 87.94 76.3996C88.63 74.5896 88.54 72.6596 88.49 70.7596C88.45 69.0296 88.4199 67.2996 88.3799 65.5696C88.2299 58.7296 88.07 51.8896 87.91 45.0496C87.88 43.5696 87.25 41.4396 85.68 40.8596C84.11 40.2796 82.93 41.6696 82.47 42.9596L82.12 43.9296L87.5599 46.0196L87.5 44.5596L81.73 44.6996C81.79 45.8296 81.83 46.9496 81.83 48.0796C81.83 48.9596 81.79 50.3496 81.75 50.8796C81.71 51.4096 81.57 52.8196 81.47 53.6596C81.33 54.7796 81.15 55.8896 80.94 56.9996L86.5899 58.0196C86.5899 54.7196 86.42 51.3996 86.01 48.1196C85.64 45.0896 84.92 42.1296 84.51 39.1196C84.37 38.0996 83.47 36.7396 82.3 37.0196C81.13 37.2996 80.54 38.9096 80.66 40.0096L80.67 40.0196Z" fill="black"/>
<path d="M92.68 6.3896C92.22 9.2896 91.71 12.1796 91.07 15.0496C90.77 16.3996 91.24 18.5096 92.53 19.2196C93.82 19.9296 94.98 18.9596 95.42 17.6896C96.21 15.3696 96.55 13.0296 96.64 10.5796L91.81 10.6996C91.81 14.1296 91.82 17.5496 91.83 20.9796C91.83 22.3496 92.52 24.4596 94.1 24.6796C95.68 24.8996 96.54 23.2196 96.79 21.8696C97.38 18.6396 97.7 15.3996 97.89 12.1196C97.97 10.7196 97.12 8.5196 95.55 8.2996C93.98 8.0796 92.92 9.7896 92.78 11.1996C92.5 13.8796 92.35 16.5796 92.33 19.2796C92.33 20.6996 93.06 22.9096 94.7 23.1496C96.34 23.3896 97.3 21.6296 97.51 20.2196C97.66 19.1796 97.81 18.1396 97.97 17.1096C98.2 15.5496 97.86 13.2596 96.33 12.4196C94.93 11.6496 93.5 12.6796 93.09 14.1396C92.34 16.8096 91.38 19.4096 90.2 21.9196L95.18 23.8296C95.19 22.7596 95.27 21.7996 95.49 20.4596C95.71 19.1196 95.93 18.2796 96.31 17.1096L91.61 13.1196C90.26 18.1196 89.12 23.1596 88.27 28.2596C88 29.8596 88.4 32.2496 89.96 33.0996C91.4 33.8896 92.89 32.8296 93.31 31.3196C94.68 26.4696 95.63 21.5496 96.04 16.5296L90.58 15.5396C90.58 17.7296 90.51 18.7396 90.25 20.9496C90.01 22.9696 89.67 24.9696 89.32 26.9796C88.61 30.9796 87.84 34.9796 87.51 39.0396C87.36 40.9096 87.62 43.7396 89.71 44.5196C91.8 45.2996 93.06 42.9196 93.26 41.2896C93.54 39.0296 93.88 36.7696 94.28 34.5296C94.48 33.4496 94.69 32.3696 94.92 31.2896C95.04 30.7496 95.15 30.2096 95.28 29.6796C95.35 29.3696 95.42 29.0696 95.5 28.7596C95.63 28.2396 95.65 28.1496 95.57 28.4796L90.05 25.1196C89.49 31.4896 88.55 37.8096 87.24 44.0696L93.02 46.3296C93.56 41.4496 94.31 36.5996 95.27 31.7896L89.51 29.5296C88.43 35.7296 87.66 41.9696 87.2 48.2496C87.06 50.1196 87.3 52.9396 89.4 53.7196C91.38 54.4596 92.76 52.1196 92.95 50.4896C93.27 47.8496 93.71 45.2296 94.28 42.6296L88.54 40.3796C88.01 44.3696 87.25 48.3296 86.27 52.2396L92 54.4796C92.34 51.3596 92.85 48.2596 93.52 45.1996C93.91 43.4096 93.25 40.4696 91.34 39.7496C89.26 38.9696 88.16 41.3896 87.81 42.9596C86.95 46.8196 86.23 50.7096 85.67 54.6196L91.38 56.8496C91.79 53.6896 92.2 50.5196 92.6 47.3596C92.84 45.5296 92.43 42.6896 90.42 41.9296C88.41 41.1696 87.13 43.5196 86.9 45.1296C86.22 49.7996 85.54 54.4696 84.86 59.1396C84.6 60.9596 85.05 63.8096 87.03 64.5496C89.01 65.2896 90.2 62.9196 90.54 61.3596L90.93 59.6096L85.25 57.3896C85.16 58.6096 84.98 59.8096 84.72 61.0096L90.4 63.2296C90.53 62.4796 90.3 63.3596 90.45 62.9296C90.56 62.6096 90.69 62.3096 90.82 61.9996C91.58 60.3196 91.2 57.6396 89.93 56.3096C88.78 55.1096 86.99 55.1296 86.13 56.7496C85.99 57.0096 85.85 57.2696 85.71 57.5296C84.7 59.4096 84.59 61.9696 85.86 63.7696C86.94 65.2996 88.99 65.4296 89.96 63.6696C90.1 63.4096 90.24 63.1596 90.38 62.8996L85.69 57.6496C85.19 58.7096 84.9 59.8396 84.71 60.9996C84.41 62.8096 84.92 65.6696 86.88 66.4096C88.94 67.1796 90.05 64.7796 90.39 63.2196C90.65 62.0196 90.83 60.8196 90.92 59.5996C91.06 57.7496 90.82 54.9596 88.75 54.1896C86.68 53.4196 85.59 55.8196 85.24 57.3796L84.85 59.1296L90.53 61.3496C91.22 56.6796 91.9 52.0096 92.59 47.3396L86.89 45.1096C86.48 48.2696 86.07 51.4296 85.66 54.5996C85.42 56.4296 85.83 59.2796 87.84 60.0396C89.85 60.7996 91.13 58.4396 91.37 56.8396C91.94 52.9296 92.66 49.0396 93.52 45.1796L87.8 42.9396C87.12 46.0096 86.62 49.0996 86.27 52.2196C86.08 53.9796 86.35 56.4996 88.1 57.4596C89.63 58.2996 91.31 57.1896 91.73 55.5396C92.8 51.2696 93.69 46.9796 94.28 42.6096C94.53 40.7696 94.11 37.8996 92.09 37.1396C90.07 36.3796 88.89 38.7796 88.54 40.3596C87.96 42.9596 87.52 45.5796 87.2 48.2196L92.95 50.4696C93.41 44.1996 94.19 37.9496 95.28 31.7596C95.6 29.9296 95.06 27.0096 93.08 26.2696C91 25.4896 89.84 27.9096 89.52 29.5096C88.56 34.3196 87.8 39.1696 87.25 44.0396C87.04 45.8996 87.4 48.7696 89.46 49.5496C91.52 50.3296 92.7 47.8996 93.03 46.3096C94.35 40.0596 95.29 33.7396 95.86 27.3696C96.02 25.5696 95.8 23.0496 94.01 22.0696C92.46 21.2196 90.76 22.3496 90.34 24.0196C89.08 28.9696 88.07 33.9496 87.54 39.0396L93.37 40.0896C93.33 40.8096 93.44 39.3296 93.46 39.1696C93.51 38.6196 93.57 38.0796 93.63 37.5296C93.74 36.5896 93.87 35.6596 94 34.7296C94.3 32.6296 94.66 30.5296 94.98 28.4396C95.65 24.1196 96.2 19.7796 96.16 15.4096C96.15 13.8996 95.4 11.5796 93.66 11.3296C91.92 11.0796 90.81 12.9196 90.7 14.4196C90.38 18.7496 89.65 23.3496 88.57 27.2596L93.61 30.3296C94.32 25.8896 95.24 21.3296 96.36 17.0996C96.84 15.2996 96.86 12.8796 95.27 11.5696C93.81 10.3696 92.15 11.5696 91.66 13.1196C90.54 16.6496 89.98 20.2496 89.94 23.9596C89.93 25.3096 90.57 27.2696 91.98 27.7996C93.39 28.3296 94.4 27.0196 94.92 25.8696C96.08 23.3396 97.04 20.7396 97.77 18.0596L92.89 15.0896C92.74 16.1296 92.59 17.1696 92.45 18.2096L97.63 19.1496C97.63 17.0196 97.73 14.9896 97.88 13.1696L92.76 12.2496C92.66 14.6996 92.37 17.3596 91.95 19.9596L96.91 20.8596C96.84 17.4396 96.77 14.0096 96.7 10.5896C96.67 9.1996 95.93 6.9196 94.19 6.9696C92.45 7.0196 91.89 9.3496 91.86 10.7096C91.84 11.6496 91.65 13.0496 91.34 14.1996L95.69 16.8396C96.24 13.3296 96.3 9.8296 95.85 6.3196C95.75 5.5696 95.12 4.5296 94.25 4.5496C93.38 4.5696 92.86 5.6296 92.74 6.3896H92.68Z" fill="black"/>
<path d="M110.72 25.7999C110.63 27.2799 110.71 28.7599 110.57 30.2499C110.42 31.8399 110.23 33.4299 110 35.0099C109.55 38.1899 108.97 41.3599 108.59 44.5499C108.18 47.9399 108.08 51.3599 107.91 54.7699C107.87 55.5899 107.85 56.4099 107.81 57.2199C107.79 57.6299 107.77 58.0399 107.75 58.4499C107.79 57.7299 107.73 58.6999 107.72 58.8399C107.69 59.1499 107.67 59.4599 107.62 59.7699C107.6 59.8899 107.39 60.9099 107.55 60.2999C107.64 59.9699 107.62 60.0199 107.49 60.4399L107.66 60.1299L107.48 60.4399C107.73 60.1499 107.71 60.1799 107.4 60.5399L112.14 64.4899C112.1 63.6699 112.16 62.8499 112.2 62.0399C112.22 61.7099 112.23 61.3899 112.25 61.0599C112.25 61.0599 112.32 59.8799 112.3 60.1899C112.28 60.4999 112.37 59.3099 112.37 59.3199C112.4 58.9899 112.42 58.6699 112.45 58.3399C112.52 57.5199 112.59 56.7099 112.66 55.8899C112.94 52.7899 113.27 49.6899 113.66 46.5999C114.43 40.4199 115.42 34.2599 116.6 28.1499L112.33 30.9399C112.97 31.4399 112.08 30.4499 112 30.2799C111.86 29.9899 111.81 29.5799 111.81 29.2599L111.87 28.7199L111.83 29.0399L111.93 28.6899C111.87 28.8899 111.81 29.0999 111.74 29.2999C111.21 30.9299 110.83 32.4599 110.81 34.1899C110.8 35.7099 111.59 38.0499 113.33 38.2999C115.18 38.5699 115.96 36.6599 116.32 35.1799C116.14 35.8999 116.55 34.5899 116.6 34.4499C116.74 34.0499 116.89 33.6599 117.02 33.2599C117.42 31.9999 117.68 30.7599 117.68 29.4399C117.68 27.1299 116.98 24.6099 115.12 23.0899C112.93 21.2999 111.22 23.9699 110.85 25.8799C109.64 32.0699 108.65 38.3099 107.87 44.5699C107.49 47.6599 107.15 50.7599 106.87 53.8599C106.59 56.9599 106.57 60.2599 106.06 63.3799C105.64 65.9599 107.48 71.0199 110.72 68.5799C113.96 66.1399 113.83 61.2799 114 57.8099C114.18 54.1399 114.09 50.4499 114.15 46.7799C114.21 43.1099 114.54 39.9299 114.76 36.1199C114.97 32.5099 115.19 28.5199 114.34 24.9799C114.11 24.0399 113.44 22.7299 112.27 23.0199C111.1 23.3099 110.8 24.7699 110.74 25.8199L110.72 25.7999Z" fill="black"/>
<path d="M107.11 63.2499L106.4 64.3499C106.28 64.5299 106.17 64.7099 106.05 64.8899C105.81 65.2699 105.65 65.7199 105.51 66.1499C105.27 66.8799 105.21 67.7099 105.37 68.4699C105.43 68.8299 105.56 69.1699 105.75 69.4799C105.88 69.7799 106.07 70.0299 106.32 70.2399L106.8 70.5299C107.15 70.6599 107.5 70.6599 107.85 70.4999L108.31 70.1899C108.62 69.8799 108.85 69.5199 108.99 69.0999C109.13 68.6599 109.31 68.1599 109.36 67.7199C109.39 67.4599 109.41 67.1899 109.44 66.9299L109.6 65.3699C109.65 64.8699 109.64 64.3999 109.49 63.9199C109.38 63.5499 109.19 63.1099 108.87 62.8699C108.65 62.6999 108.4 62.5999 108.12 62.5799C107.7 62.5599 107.31 62.9399 107.1 63.2599L107.11 63.2499Z" fill="black"/>
<path d="M97.94 86.3197C97.85 86.0297 97.5 87.0797 97.39 87.2997C96.84 88.4297 96.37 89.5897 96 90.7997C95.32 93.0097 94.64 95.2097 93.97 97.4197C92.67 101.66 91.37 105.9 90.06 110.14C87.5 118.45 85.07 126.8 81.54 134.76L87.18 136.93C87.15 136.63 87.12 136.33 87.1 136.04C87.04 136.41 87.04 136.43 87.08 136.11C87.13 135.59 87.22 135.07 87.34 134.56C87.21 135.11 87.56 133.84 87.55 133.86C87.68 133.42 87.83 132.99 87.98 132.56C88.65 130.57 89.34 128.59 90.06 126.62C91.51 122.59 92.97 118.57 94.42 114.54C97.34 106.43 100.52 98.2097 102.39 89.7797C102.77 88.0797 102.18 85.4097 100.55 84.5097C98.92 83.6097 97.41 84.8197 96.91 86.4397C95.62 90.6097 94.53 94.8297 93.19 98.9897C91.85 103.15 90.41 107.27 88.96 111.39C87.51 115.51 86.05 119.64 84.6 123.76C83.06 128.11 81.12 132.34 81.2 137.06C81.23 138.6 81.89 140.8 83.51 141.4C85.13 142 86.26 140.52 86.84 139.22C90.64 130.66 93.31 121.66 95.82 112.66C97.12 108 98.42 103.34 99.72 98.6897C101.13 93.6397 102.95 88.3997 101.28 83.1997C100.91 82.0497 99.55 81.2897 98.56 82.1897C97.44 83.2097 97.54 85.0097 97.95 86.3097L97.94 86.3197Z" fill="black"/>
<path d="M138.92 26.3197C138.3 27.8997 137.35 29.3797 136.65 30.9297C135.95 32.4797 135.35 33.9697 134.73 35.5097C133.46 38.6797 132.37 41.9297 131.26 45.1597C130.61 47.0597 130.75 49.6997 132.21 51.2097C133.41 52.4597 135.37 52.4897 136.26 50.7397C139.44 44.4597 141.09 37.4697 144.68 32.0597L139.66 26.4397C138.3 30.4197 136.93 34.3897 135.55 38.3597C134.87 40.2997 134.2 42.2497 133.52 44.1897C133.2 45.1197 132.87 46.0597 132.55 46.9897C132.39 47.4597 132.23 47.9197 132.06 48.3897C131.95 48.6997 131.84 49.0097 131.74 49.3197C131.97 49.0197 131.95 49.0397 131.69 49.3797L133.88 47.9197L133.6 47.9697C131.58 48.3397 130.76 50.2697 130.64 52.1597C130.54 53.6897 131.04 56.9397 133 57.3197C133.86 57.4897 134.39 57.5797 135.2 57.1597C136.1 56.6897 136.56 55.9397 136.98 55.0697C137.55 53.8697 137.9 52.5397 138.32 51.2797C139.06 49.0897 139.79 46.8897 140.53 44.6997C142.05 40.1597 143.6 35.6297 145.14 31.0897C145.79 29.1697 145.65 26.5297 144.19 24.9997C142.87 23.6197 141.18 23.8597 140.12 25.4697C138.12 28.4997 136.66 31.8597 135.35 35.2397C134.73 36.8397 134.14 38.4597 133.51 40.0597C133.22 40.7897 132.93 41.5197 132.62 42.2497C132.45 42.6397 132.28 43.0397 132.1 43.4297C131.98 43.6897 131.98 43.6897 132.1 43.4297C131.98 43.6897 131.85 43.9397 131.72 44.1997L136.71 49.7797C137.64 46.3897 138.67 43.0297 139.61 39.6497C140.08 37.9797 140.55 36.3097 141.01 34.6297C141.49 32.8497 141.76 30.9797 142.36 29.2397C142.8 27.9597 142.67 26.0997 141.56 25.1797C140.45 24.2597 139.34 25.2297 138.91 26.3097L138.92 26.3197Z" fill="black"/>
<path d="M135.02 41.4798C131.85 46.9698 129.48 52.9698 126.96 58.7798C124.44 64.5898 122.2 70.6998 120.04 76.7498C119.31 78.8098 119.56 81.5098 121.04 83.1698C122.27 84.5398 124.44 84.4998 125.34 82.6698C130.25 72.6598 135.16 62.5398 138.34 51.8298C138.97 49.6998 138.9 46.7498 137.03 45.2098C135.16 43.6698 133.4 45.2798 132.71 47.0598C128.07 59.0498 123.66 71.1298 119.81 83.3998C117.94 89.3498 116.23 95.3398 114.54 101.34C112.85 107.34 110.67 113.58 108.49 119.64C105.95 126.7 103.46 133.77 100.98 140.85C100.25 142.93 100.48 145.99 102.29 147.49C104.1 148.99 105.96 147.44 106.62 145.63C108.92 139.4 111.23 133.18 113.49 126.94C115.75 120.7 117.95 114.79 119.76 108.58C123.3 96.3998 126.7 84.2198 130.8 72.1998C133.14 65.3498 135.63 58.5498 138.35 51.8298L132.72 47.0598C131.15 52.1298 129.22 57.0698 127.08 61.9198C124.94 66.7698 122.94 70.7698 120.53 75.7198C122.3 77.6998 124.06 79.6698 125.83 81.6498C128 75.5098 130.21 69.3898 132.17 63.1898C134.18 56.8198 136.44 50.4998 138.02 43.9998C138.24 43.0798 137.93 41.6298 137.14 41.0098C136.42 40.4398 135.48 40.6898 135.03 41.4798H135.02Z" fill="black"/>
<path d="M122.74 127.07C120.61 131.88 118.49 136.68 116.45 141.53C115.73 143.23 116.09 145.68 117.31 147.06C118.42 148.3 120.15 148.13 121.01 146.63C123.06 143.04 124.92 139.33 126.86 135.68L121.93 131.52C121.86 131.89 121.78 132.25 121.7 132.62C121.66 132.8 121.62 132.98 121.57 133.17C121.44 133.71 121.55 133.13 121.63 132.92C121.34 133.64 121.2 134.46 120.96 135.2C120.48 136.66 119.9 138.1 119.25 139.49L124.4 143.85C124.99 141.64 125.58 139.43 126.16 137.23L127 134.06C127.22 133.25 127.55 132.37 127.65 131.54C127.8 130.41 127.75 129.15 127.27 128.1L126.79 127.21C127.01 127.62 127.18 128.05 127.31 128.5L127.37 130.88C127.26 131.33 127.11 131.77 126.91 132.2L121.81 129.16C121.81 129.73 121.81 130.3 121.75 130.86L121.79 130.23C121.78 130.37 121.77 130.51 121.75 130.65C121.73 130.93 121.7 131.22 121.66 131.5C121.54 132.58 121.36 133.66 121.14 134.72C120.92 135.78 121.1 137.19 121.52 138.18C121.83 138.92 122.5 139.95 123.34 140.2C125.45 140.84 126.55 138.67 126.9 136.97C127.43 134.35 127.67 131.68 127.69 129.01C127.7 127.54 127.07 125.75 125.78 124.96C124.49 124.17 123.39 124.91 122.59 125.97C121.08 127.95 121.17 131.76 122.78 133.65L122.19 128.24C121.21 131.99 120.22 135.75 119.24 139.5C118.94 140.66 118.78 141.74 119.03 142.93C119.21 143.8 119.68 144.99 120.44 145.55C121.09 146.03 121.91 146.34 122.7 145.94C123.58 145.5 124 144.72 124.39 143.85C125.88 140.62 126.89 137.21 127.54 133.72C127.82 132.2 127.45 129.79 126.09 128.78C124.91 127.91 123.32 128.19 122.61 129.55C120.69 133.24 118.67 136.9 116.86 140.64L121.42 145.74C123.21 140.56 124.78 135.3 126.21 130.01C126.57 128.68 126.57 126.89 125.4 125.92C124.23 124.95 123.2 125.99 122.73 127.06L122.74 127.07Z" fill="black"/>
<path d="M122.92 131.76C122.5 132.83 122.17 133.66 121.61 134.58C121.09 135.42 120.53 136.26 119.96 137.06C119.39 137.86 118.83 138.76 118.21 139.57C118.14 139.67 118.06 139.8 117.97 139.88C118.11 139.75 118.17 139.64 118 139.85C117.81 140.07 117.63 140.29 117.43 140.51C116.96 141.03 116.47 141.51 116.05 142.07L117.43 141.15H117.36C118.01 141.87 118.67 142.59 119.32 143.31L119.3 143.24L119.16 145.56L119.18 145.5C119.73 144.19 119.35 142.52 118.39 141.52L119.18 145.5C119.68 144.15 119.38 142.55 118.39 141.52L118.34 141.47C117.79 140.89 116.89 141.03 116.35 141.52C115.66 142.14 115.4 143.24 115.44 144.13V144.2C115.49 145.31 115.89 146.56 116.97 147.07L117.04 147.1C117.59 147.36 118.13 147.07 118.56 146.76C118.99 146.45 119.34 145.97 119.69 145.57C120.16 145.02 120.62 144.45 121.05 143.87C121.83 142.81 122.5 141.73 123.03 140.52C124.07 138.15 124.48 135.57 125.02 133.05C125.16 132.39 124.94 131.37 124.31 131.03C123.68 130.69 123.15 131.17 122.91 131.77L122.92 131.76Z" fill="black"/>
<path d="M159.14 40.9097C158.12 41.6297 157.53 43.4597 156.93 44.5697C156.22 45.8997 155.6 47.2697 154.99 48.6497C153.83 51.2697 153.01 54.0297 152.15 56.7497C151.34 59.3097 150.57 61.8897 149.59 64.3997C149.35 65.0097 149.11 65.6097 148.85 66.1997C148.71 66.5297 148.56 66.8597 148.41 67.1897C148.59 66.7997 148.37 67.2597 148.31 67.3897C147.65 68.6797 146.95 69.9497 146.17 71.1697L151.35 73.1097C151.45 73.6697 151.42 74.2197 151.25 74.7397C151.34 74.4797 151.43 74.2197 151.53 73.9697C151.7 73.5097 151.89 73.0497 152.07 72.5897C152.52 71.4397 152.97 70.2897 153.41 69.1397C154.28 66.9197 155.15 64.6997 156 62.4697C156.72 60.6097 156.43 57.7597 154.81 56.4297C153.19 55.0997 151.54 56.5197 150.86 58.1197C149.75 60.7497 148.66 63.3897 147.57 66.0297C146.25 69.1997 144.77 72.1897 145.49 75.7397C146.02 78.3897 148.75 80.4997 150.67 77.6797C153.94 72.8797 155.78 67.2197 157.33 61.6597C158.17 58.6597 159.06 55.6597 159.78 52.6297C160.13 51.1497 160.53 49.6797 160.87 48.1597C161.23 46.5297 161.94 44.8497 161.88 43.1697C161.83 41.7097 160.77 39.7497 159.15 40.8997L159.14 40.9097Z" fill="black"/>
<path d="M144.34 77.2297C142.61 86.9697 142.73 96.8997 142.53 106.76C142.43 111.55 142.31 116.34 142.15 121.13C142.07 123.61 141.97 126.08 141.87 128.56C141.77 131.04 141.47 133.53 141.56 135.99L143.78 131.26C144.99 130.59 145.5 135.47 145.77 133.62C145.84 133.17 145.81 132.69 145.84 132.23C145.87 131.74 145.89 131.25 145.93 130.76C145.88 131.39 146 130.09 146.01 129.97C146.19 127.93 146.4 125.89 146.64 123.85C147.1 119.85 147.77 115.87 148.23 111.87C148.43 110.06 148.08 107.26 146.08 106.51C144.08 105.76 142.94 108.12 142.61 109.67C141.51 114.79 141.03 120.08 140.56 125.29C140.31 128.09 139.92 130.95 139.89 133.75C139.86 136.55 141.28 141.31 144.87 140.75C146.65 140.47 147.61 138.79 147.85 137.11C148.23 134.42 148.19 131.6 148.31 128.89C148.42 126.41 148.51 123.94 148.59 121.46C148.75 116.59 148.88 111.72 148.98 106.84C149.18 96.9096 149.41 86.9796 147.87 77.1396C147.74 76.2796 147.05 75.1096 146.05 75.1296C145.05 75.1496 144.49 76.3597 144.33 77.2197L144.34 77.2297Z" fill="black"/>
<path d="M145.83 77.2698C145.1 78.4098 145.27 79.6398 145.42 80.8998L145.33 80.0998C145.5 81.7498 145.53 83.3998 145.42 85.0598L145.48 84.0898C145.44 84.6698 145.32 85.2998 145.38 85.8698C145.47 86.7498 145.59 87.7398 146.16 88.4698C146.54 88.9598 146.96 89.3398 147.58 89.4598C149.06 89.7198 150.07 88.0198 150.19 86.7398C150.23 86.2698 150.29 85.8098 150.24 85.3498C150.2 84.9398 150.15 84.5198 150.1 84.1098C150.06 83.8098 150.02 83.5098 149.98 83.2098C149.89 82.6098 149.79 81.9998 149.66 81.4098C149.53 80.8198 149.41 80.1998 149.27 79.5998C149 78.4798 148.76 76.9598 147.52 76.5398C146.81 76.2998 146.2 76.6798 145.83 77.2698Z" fill="black"/>
<path d="M181.99 38.4598C182.32 38.0198 181.13 39.2198 181.12 39.2398C180.86 39.6298 180.68 40.0798 180.46 40.4898C180.06 41.2298 179.62 41.9298 179.17 42.6398C178.06 44.4098 177.14 46.2598 176.25 48.1498C174.66 51.5098 173.36 55.0498 172.32 58.6198L173.89 56.6798C172.5 57.5198 171.97 59.0598 172 60.6398C172.02 61.8398 172.42 63.5898 173.53 64.3098C175.24 65.4298 176.66 64.4198 177.36 62.6698C177.53 62.2798 177.64 61.8698 177.7 61.4398C177.6 61.8498 177.6 61.8198 177.73 61.3498C177.86 60.8498 177.99 60.3498 178.13 59.8498C178.37 58.9798 178.63 58.1098 178.9 57.2498C179.5 55.3398 180.16 53.4498 180.86 51.5698C181.56 49.6898 182.26 47.9298 182.97 46.1198C183.32 45.2298 183.71 44.3598 184.01 43.4498C184.25 42.7198 184.45 41.9898 184.44 41.2198C184.44 40.7198 184.3 40.2598 184.26 39.8098C184.16 38.5798 183.07 37.0098 181.98 38.4498L181.99 38.4598Z" fill="black"/>
<path d="M176.66 70.2799C175.26 71.7899 174.27 73.8099 173.23 75.5799C172.19 77.3499 171.18 78.9899 170.15 80.6899C167.98 84.2599 165.73 87.7599 163.65 91.3899C159.31 98.9499 155.37 106.73 151.7 114.64C150.83 116.53 151.32 119.68 152.96 121.02C154.79 122.52 156.37 120.89 157.13 119.24C160.48 111.97 164.37 104.4 168.41 97.1399C170.44 93.4999 172.56 89.9199 174.49 86.2199C175.52 84.2299 176.45 82.2099 177.31 80.1399C178.17 78.0699 179.14 75.6799 179.46 73.3899C179.6 72.4099 179.44 71.1899 178.73 70.4499C178.19 69.8899 177.3 69.6099 176.67 70.2799H176.66Z" fill="black"/>
<path d="M169.26 87.2898C167.34 90.8398 165.16 94.2598 163.08 97.7098C161 101.16 158.92 104.9 156.97 108.56C152.96 116.12 149.17 123.82 146.52 131.97L151.87 132.9C151.64 132.03 151.4 131.16 151.29 130.26C151.38 130.99 151.29 129.76 151.29 129.61C151.27 130.32 151.37 129.11 151.39 128.96C151.47 128.53 151.63 128.09 151.92 127.59C152.39 126.78 152.9 126 153.43 125.23C155.6 122.03 157.42 118.66 158.98 115.13C159.76 113.37 159.34 110.51 157.82 109.26C156.16 107.89 154.66 109.37 153.99 110.9C152.48 114.32 150.15 117.7 148.12 121.08C145.55 125.36 145.06 130.6 146.31 135.4C146.64 136.67 147.33 138.31 148.81 138.52C150.2 138.72 151.25 137.58 151.66 136.33C154.29 128.4 157.73 121.35 161.52 114.08C163.52 110.24 165.51 106.38 167.31 102.44C169.11 98.4998 170.64 94.5598 172.16 90.5298C172.57 89.4498 172.44 87.8798 171.61 87.0198C170.9 86.2798 169.8 86.2998 169.26 87.2898Z" fill="black"/>
<path d="M199.21 78.32C197.44 81.26 195.51 84.11 193.83 87.11C192.15 90.11 190.4 93.19 188.73 96.26C185.34 102.46 182.12 108.8 179.04 115.16C178.1 117.1 177.88 119.57 179.19 121.43C180.28 122.97 182.32 123.08 183.31 121.33C186.79 115.15 190.32 109 193.8 102.82C195.51 99.77 197.21 96.72 198.89 93.65C200.83 90.11 203.44 86.28 202.56 82.05C202.21 80.37 200.59 78.34 198.83 79.86C198.47 80.17 198.18 80.5299 197.96 80.9499C197.13 82.5599 197 84.71 198.09 86.25C199.11 87.69 200.6 87.49 201.57 86.16L201.74 85.92L200.67 86.92L200.92 86.7699L197.66 83.17C197.59 82.39 198.08 82.26 197.79 82.61C197.56 82.89 197.39 83.25 197.2 83.55C196.77 84.23 196.38 84.9299 195.99 85.6299C195.21 87.0499 194.42 88.48 193.64 89.9C192.06 92.74 190.48 95.57 188.87 98.4C185.68 104.04 182.42 109.63 179.02 115.15L183.29 121.32C186.62 114.85 189.91 108.33 193.04 101.76C194.56 98.57 196.07 95.37 197.6 92.18C199.25 88.74 200.66 85.19 202.25 81.72C202.75 80.63 202.5 78.8899 201.67 78.0199C200.89 77.2099 199.81 77.29 199.2 78.3099L199.21 78.32Z" fill="black"/>
<path d="M183.16 113.94C183.13 114 183.11 114.05 183.08 114.11L183.31 113.63C182.91 114.47 182.4 115.26 181.82 115.99L182.19 115.53C182.06 115.7 181.92 115.86 181.77 116.02C181.46 116.33 181.23 116.69 181.09 117.11L180.91 117.83C180.74 118.7 180.91 119.66 181.33 120.43C181.46 120.73 181.65 120.98 181.9 121.19C182.11 121.4 182.36 121.51 182.64 121.53C182.9 121.61 183.16 121.59 183.42 121.46C183.78 121.28 184.06 121.02 184.27 120.67C184.66 119.85 185.03 119.04 185.31 118.18C185.59 117.32 185.79 116.5 185.95 115.64C186.01 115.33 186.01 115.03 185.95 114.73C185.94 114.44 185.87 114.15 185.75 113.88C185.58 113.51 185.36 113.18 185.01 112.96C184.9 112.86 184.77 112.81 184.63 112.81C184.43 112.75 184.23 112.77 184.03 112.87L183.68 113.11C183.44 113.35 183.27 113.63 183.16 113.95V113.94Z" fill="black"/>
<path d="M186.89 120.56C187.81 120.05 188.76 119.61 189.59 118.95C190.35 118.35 191.06 117.7 191.81 117.09C193.42 115.79 195.08 114.57 196.67 113.25C199.98 110.52 203.17 107.7 206.33 104.79C212.63 98.9997 218.98 93.2497 225.4 87.5797C226.94 86.2197 227.02 83.4297 226.27 81.6597C225.6 80.0697 223.89 78.8297 222.36 80.2097C215.97 85.9697 209.68 91.8397 203.43 97.7497C200.29 100.72 197.26 103.74 194.3 106.89C192.79 108.5 191.36 110.16 189.88 111.79C189.14 112.6 188.37 113.37 187.64 114.19C186.81 115.11 186.19 116.19 185.54 117.24C185.03 118.06 185.25 121.46 186.9 120.55L186.89 120.56Z" fill="black"/>
<path d="M24.48 33.9898L36.48 29.3398" stroke="black" stroke-miterlimit="10"/>
<path d="M20.65 104.29C19.55 106.07 19.19 108.26 18.82 110.3C18.47 112.23 18.18 114.15 17.92 116.09C17.38 120.09 16.9 124.07 16.55 128.1C15.84 136.1 15.14 144.1 14.43 152.1C14.3 153.57 14.32 155.03 14.91 156.42C15.3 157.34 16.13 158.63 17.18 158.95C19.64 159.7 21.43 157.11 21.63 154.91C22.34 146.83 23.06 138.74 23.77 130.66C24.15 126.37 24.39 122.09 24.58 117.79C24.77 113.49 25.29 108.9 23.94 104.85C23.41 103.27 21.59 102.78 20.66 104.29H20.65Z" fill="white"/>
<path d="M91.84 250.25C94.04 251.89 96.23 253.52 98.43 255.16C100.76 256.89 103.13 258.43 105.62 259.92C110.2 262.65 114.82 265.3 119.45 267.96C121.22 268.98 123.11 266.7 123.56 265.27C126.09 257.25 129.12 249.39 132.65 241.75C132.87 241.28 133.09 240.82 133.31 240.35C133.63 239.65 132.99 241 133.33 240.3C133.43 240.1 133.52 239.9 133.62 239.7C134.1 238.7 134.59 237.71 135.09 236.72C136.05 234.81 137.05 232.92 138.07 231.04C140.09 227.35 142.22 223.72 144.47 220.17C145.73 218.17 147.03 216.2 148.36 214.25C149.02 213.28 149.68 212.3 150.4 211.37C150.76 210.91 151.12 210.46 151.48 210C151.62 209.83 151.75 209.66 151.89 209.49C152.79 208.37 151.33 210.18 152.23 209.07C154.23 206.62 154.63 203.22 153.1 200.38C151.72 197.82 149.02 197.39 147.31 199.93C142.46 207.11 137.62 214.28 133.4 221.86C129.07 229.64 125.23 237.72 121.94 245.99C120.14 250.51 118.51 255.11 117.04 259.75L121.15 257.06C116.62 254.45 112.09 251.84 107.51 249.31C105.28 248.08 103.08 246.98 100.72 246.01C98.36 245.04 96 244.05 93.64 243.07C92.1 242.43 90.98 244.16 90.67 245.41C90.3 246.92 90.46 249.23 91.84 250.26V250.25Z" fill="white"/>
<path d="M27.9399 77.5696L25.1899 34.2296L37.1299 29.0996L39.1599 78.6496L27.9399 77.5696Z" fill="white"/>
<path d="M46.09 15.9599C45.97 16.3199 46.81 97.9899 46.81 97.9899L53.02 110.65L59.59 13.9399L46.1 15.9699L46.09 15.9599Z" fill="white"/>
<path d="M58.5101 64.8L54.9301 112.92C54.9301 112.92 62.0901 122.95 67.2301 125.7C67.2301 125.7 72.8401 63.25 72.4801 63.25C72.1201 63.25 58.5101 64.8 58.5101 64.8Z" fill="white"/>
<path d="M67.34 59.5397L67.22 38.4097L80.95 36.7397C80.95 36.7397 79.88 65.3997 79.4 65.2797C78.92 65.1597 74.98 61.0997 74.27 60.6197C73.55 60.1397 73.67 59.1897 73.67 59.1897L67.34 59.5497V59.5397Z" fill="white"/>
<path d="M78.8 70.29C78.68 70.77 76.53 96.68 76.77 96.2C77.01 95.72 78.73 91.22 79.16 90.71C79.59 90.2 78.8 70.29 78.8 70.29Z" fill="white"/>
<path d="M75.22 33.1598L77.49 7.3698L92.18 6.0498L86.92 41.7498L82.15 32.3198L75.22 33.1598Z" fill="white"/>
<path d="M90.62 62.6499C90.38 63.1299 87.87 73.7499 87.87 73.7499C87.87 73.7499 90.02 74.2299 90.02 73.7499C90.02 73.2699 90.62 62.6499 90.62 62.6499Z" fill="white"/>
<path d="M86.21 77.6899L69.25 127.84L80.95 134.77L98.39 80.0799L86.21 77.6899Z" fill="white"/>
<path d="M91.8199 74.3499L95.9999 25.2799C95.9999 25.2799 108.9 22.8899 109.85 24.5599L104.6 78.4099C104.6 78.4099 102.21 84.9799 102.21 84.6199C102.21 84.2599 100.18 76.4999 100.18 76.4999L91.8199 74.3499Z" fill="white"/>
<path d="M113.91 59.19L126.44 23.25L138.98 25.63L125.73 60.86L113.91 59.19Z" fill="white"/>
<path d="M111.28 63.5996C111.16 63.9596 87.88 137.99 87.88 137.99C87.88 137.99 101.97 142.17 102.09 141.69C102.21 141.21 124.54 65.6296 124.54 65.6296L111.29 63.5996H111.28Z" fill="white"/>
<path d="M127.04 84.6196L107.94 142.77C107.94 142.77 117.01 142.53 117.01 142.17C117.01 141.81 126.44 121.16 126.44 121.16L127.04 84.6196Z" fill="white"/>
<path d="M130.98 74.1099L146.03 38.6499L157.73 40.3199L145.19 72.1999L130.98 74.1099Z" fill="white"/>
<path d="M129.07 79.24L144.35 76.5L140.77 137.03L127.4 140.85L129.07 79.24Z" fill="white"/>
<path d="M149.73 80.08C149.97 79.48 165.73 35.54 165.73 35.54L180.06 37.93L171.46 60.74L163.34 58.83L150.56 80.8L149.72 80.08H149.73Z" fill="white"/>
<path d="M149.49 87.4799L164.29 62.6499L176.83 67.2999L148.53 119.48L149.49 87.4799Z" fill="white"/>
<path d="M178.56 63.8099C178.27 63.5999 187.87 52.9399 187.87 52.9399L196.94 57.9499L189.66 69.7699L181.66 68.0999L179.87 71.9199L179.99 65.2299C179.99 65.2299 179.03 64.1599 178.56 63.7999V63.8099Z" fill="white"/>
<path d="M153.61 130.8L182.8 72.6797L198.38 76.3497L179.31 116.02L173.4 113.51C173.4 113.51 170.36 120.58 153.61 130.79V130.8Z" fill="white"/>
<path d="M202.5 82.6199L212.35 73.6699L222.38 80.4799L191.04 109.58C191.04 109.58 202.32 88.3599 202.5 86.7399C202.68 85.1199 202.5 82.6199 202.5 82.6199Z" fill="white"/>
<path d="M197.65 58.8C196.19 59.3 195.72 61.21 195.18 62.51L195.62 61.59C194.96 62.71 194.31 63.83 193.6 64.92L193.08 66.01C192.84 66.66 192.71 67.32 192.71 68.01C192.64 69.13 192.73 70.37 193.21 71.41C193.53 72.11 193.94 72.78 194.52 73.3C195.15 73.87 196.44 74.26 197.24 73.77C197.46 73.64 197.6 73.57 197.84 73.4C198.34 73.06 198.73 72.62 199.05 72.1C199.16 71.92 199.27 71.73 199.38 71.54L200.08 70.35C200.55 69.56 201.01 68.77 201.48 67.98C202.2 66.76 202.53 65.28 202.49 63.87C202.49 63.1 202.37 62.36 202.11 61.65C201.96 60.98 201.68 60.37 201.28 59.81C200.64 58.98 199.71 58.08 198.56 58.18C197.41 58.28 196.58 58.99 195.92 59.94C195.26 60.89 194.58 61.88 193.85 62.8L194.61 61.85C194.14 62.43 193.65 62.99 193.11 63.5C192.57 64.01 191.96 64.44 191.37 64.91L197.39 71.61V71.52C197.08 72.42 196.77 73.32 196.45 74.22L196.49 74.14L195.71 75.11C196.15 74.57 196.75 74.1 197.28 73.67C197.87 73.19 198.46 72.71 199.06 72.23C199.61 71.79 200.17 71.36 200.69 70.89C201.79 69.89 202.53 68.68 203.09 67.32C203.36 66.6 203.5 65.85 203.5 65.09C203.6 64.29 203.55 63.5 203.37 62.71L202.94 61.29C202.72 60.65 202.37 60.1 201.89 59.64C201.67 59.3 201.37 59.05 201.01 58.89C200.57 58.55 200.07 58.39 199.49 58.41C198.31 58.52 197.38 59.22 196.76 60.23C196.58 60.52 196.41 60.81 196.2 61.07L196.97 60.11C196.15 61.09 195.04 61.86 194.06 62.68C193.55 63.11 193.05 63.56 192.52 63.96C192.25 64.16 191.97 64.35 191.69 64.55C190.91 65.11 190.24 66.19 189.99 67.1C189.71 68.11 189.5 69.12 189.52 70.17C189.55 71.45 189.86 72.7 190.47 73.82C190.63 74.24 190.88 74.59 191.21 74.89C191.43 75.23 191.73 75.48 192.11 75.65C192.4 75.91 192.74 76.04 193.12 76.04C193.65 76.21 194.18 76.16 194.7 75.89C196.56 74.8 197.9 73.23 199.18 71.52C200.03 70.39 200.76 69.17 201.47 67.95L195.9 59.91L194.64 62.47L194.04 63.68C193.93 63.9 193.82 64.13 193.71 64.35C193.5 64.77 193.28 65.19 193.1 65.62C192.74 66.52 192.67 67.59 192.67 68.55L192.76 67.11L192.74 67.26L199.57 69.93L199.6 69.79L199.28 71.07C199.56 69.98 199.85 68.88 200.13 67.79C200.27 67.25 200.43 66.74 200.64 66.22C200.73 66 200.83 65.77 200.92 65.54C201.39 64.29 201.39 63.01 201.2 61.71C201.08 60.89 200.52 59.67 199.83 59.15C199.14 58.63 198.46 58.48 197.62 58.77L197.65 58.8Z" fill="black"/>
</g>
<defs>
<clipPath id="clip0_3416_10735">
<rect width="227.17" height="278.16" fill="white"/>
</clipPath>
</defs>
</svg>
