<svg width="196" height="276" viewBox="0 0 196 276" fill="none" xmlns="http://www.w3.org/2000/svg">
<g clip-path="url(#clip0_3416_9935)">
<path d="M3.61 28.1899C6.63 57.4499 9.97 86.6999 13.91 115.85C17.85 145 21.55 173.75 25.27 202.72C26.31 210.83 27.39 218.93 28.45 227.04C29.51 235.15 30.42 243.27 31.7 251.33C32.04 253.5 34.27 256.94 36.89 255.6C39.74 254.15 39.9 250.52 39.59 247.78C38.76 240.5 37.61 233.25 36.6 226C35.59 218.75 34.59 211.66 33.59 204.49C31.57 190.08 29.48 175.68 27.42 161.28C25.36 146.88 23.39 132.6 21.44 118.25C19.49 103.9 17.33 89.6299 15.2 75.3299C14 67.2899 12.92 59.2299 11.56 51.2099C10.2 43.1899 8.86 35.2499 7.52 27.2699C7.35 26.2399 6.49 24.8499 5.28 25.1499C4.07 25.4499 3.51 27.0699 3.62 28.1699L3.61 28.1899Z" fill="#1D1D1B"/>
<path d="M189.9 27.3801C187.65 41.7101 185.24 56.0301 183.17 70.3901C181.1 84.7501 179.02 99.2001 176.94 113.6C172.81 142.27 168.82 170.96 164.91 199.66C162.71 215.83 160.43 231.98 158.16 248.14L159.79 244.7C159.66 244.79 159.5 244.87 159.39 244.98C158.84 245.53 160.52 244.23 159.78 244.72C159.55 244.87 159.32 245.02 159.1 245.17C157.65 246.11 156.16 246.99 154.65 247.84C149.39 250.79 143.87 253.28 138.22 255.38C134.37 256.8 130.46 258.03 126.49 259.07C125.48 259.33 124.46 259.58 123.45 259.82C122.44 260.06 124.34 259.63 123.35 259.84C123.06 259.9 122.78 259.97 122.49 260.03C121.91 260.16 121.33 260.28 120.75 260.39C118.34 260.88 115.92 261.29 113.48 261.63C102.78 263.12 91.9 263.22 81.18 261.86C79.52 261.65 77.86 261.4 76.2 261.12C76.12 261.11 74.84 260.88 75.74 261.04C75.28 260.96 74.83 260.87 74.38 260.78C73.53 260.61 72.68 260.44 71.83 260.26C68.31 259.5 64.83 258.59 61.39 257.54C53.7 255.19 46.33 252.03 39.07 248.58C38.02 248.08 36.69 248.58 35.9 249.29C34.91 250.19 34.26 251.81 34.09 253.1C33.72 255.97 34.41 259.33 37.17 260.78C58.73 272.09 84.16 276.98 108.37 274.43C124.09 272.78 139.67 268.1 153.64 260.68C156.96 258.92 160.19 256.98 163.27 254.83C163.45 254.71 163.64 254.59 163.8 254.45C165.08 253.36 165.38 251.57 165.59 250L166.37 244.05C167.37 236.44 168.36 228.83 169.36 221.22C173.3 191.13 177.51 161.07 181.34 130.97C185.2 100.62 189.05 70.2801 192.54 39.8901C192.96 36.2301 193.38 32.5701 193.8 28.9101C193.94 27.6601 193.7 25.7301 192.32 25.2101C190.94 24.6901 190.09 26.3001 189.92 27.3901L189.9 27.3801Z" fill="#1D1D1B"/>
<path d="M191.13 21.9098C191.13 22.4198 191.3 20.1098 191.18 20.8998C191.18 20.9198 191.54 19.2698 191.34 19.9898C191.16 20.6198 191.76 18.7898 191.58 19.2698C191.51 19.4498 191.21 19.9598 191.62 19.2698C192.03 18.5798 191.57 19.3198 191.42 19.5098C191.34 19.6098 191.26 19.6998 191.18 19.7998C190.77 20.2998 191.27 19.9198 191.31 19.6998C191.24 20.0798 190.03 20.7298 189.72 20.9298C189.04 21.3698 188.33 21.7698 187.61 22.1298C185.81 23.0198 183.92 23.7298 182.02 24.3598C181.73 24.4598 181.44 24.5498 181.15 24.6398C180.63 24.8098 181.18 24.6398 180.77 24.7598C180.14 24.9498 179.51 25.1298 178.88 25.2998C177.56 25.6598 176.22 25.9998 174.89 26.3098C160.28 29.7298 145.15 31.1298 130.2 32.0498C110.98 33.2398 91.67 33.3298 72.43 32.4098C56.68 31.6598 40.8 30.3498 25.32 27.2298C22.51 26.6598 19.71 26.0198 16.95 25.2598C16.36 25.0998 15.77 24.9298 15.18 24.7498C14.77 24.6298 15.32 24.7998 14.8 24.6298C14.47 24.5298 14.15 24.4198 13.82 24.3198C12.79 23.9798 11.77 23.6098 10.76 23.2098C9.17 22.5698 7.59 21.8398 6.16 20.8898C5.88 20.6998 5.6 20.5098 5.33 20.2998C5.16 20.1698 4.34 19.4698 4.83 19.8898C5.28 20.2698 4.66 19.6898 4.52 19.5098C4.45 19.4198 4.38 19.3198 4.31 19.2198C3.9 18.6998 4.36 19.3198 4.52 19.6098C4.46 19.4998 4.41 19.3898 4.36 19.2798C4.18 18.7898 4.78 20.6298 4.6 19.9998C4.41 19.2998 4.76 20.9098 4.76 20.9098C4.64 20.1098 4.81 22.5598 4.81 21.8798C4.81 21.5598 4.66 23.6898 4.76 22.9398C4.53 24.8798 4.47 24.2598 4.61 23.8098C4.76 23.3198 4.13 25.1498 4.37 24.5298C4.56 24.0298 4.75 24.3398 4.12 24.9198C4.27 24.7798 4.38 24.5098 4.52 24.3398C4.61 24.2298 4.71 24.1198 4.8 24.0098C5.25 23.4598 4.73 24.2098 4.63 24.1498C4.65 24.1598 6.13 22.9698 6.28 22.8798C7.74 21.9298 9.33 21.2098 10.94 20.5698C11.96 20.1698 12.99 19.7998 14.03 19.4598C14.28 19.3798 14.54 19.2998 14.79 19.2198C15.33 19.0498 14.73 19.2298 15.29 19.0698C15.92 18.8798 16.55 18.6998 17.19 18.5298C30.86 14.7998 45.21 13.3298 59.3 12.2598C78.36 10.7998 97.54 10.5098 116.64 11.1698C133.14 11.7298 149.72 12.9198 166 15.7698C169.07 16.3098 172.12 16.9098 175.15 17.6298C176.48 17.9398 177.8 18.2798 179.12 18.6398C180.54 19.0298 180.87 19.1298 182.13 19.5498C184.05 20.1898 185.96 20.9098 187.77 21.8198C188.48 22.1798 189.18 22.5698 189.85 23.0198C190.13 23.2098 190.41 23.3998 190.67 23.6098C190.79 23.6998 190.9 23.7998 191.01 23.8898C191.63 24.3898 190.86 23.8498 190.92 23.7898C191.09 23.6098 192.5 26.2598 191.44 24.2598C191.49 24.3498 191.54 24.4498 191.58 24.5498C191.83 25.1198 191.2 23.2998 191.34 23.8298C191.47 24.2898 191.45 24.8698 191.19 22.9598C191.3 23.7398 191.13 21.2898 191.14 21.9498C191.16 23.3398 191.42 27.3498 193.52 27.3498C195.62 27.3498 195.91 23.2098 195.9 21.9498C195.86 19.4998 195.36 16.8998 193.77 14.9598C192.76 13.7198 191.43 12.7398 190.04 11.9498C186.01 9.65984 181.34 8.37984 176.88 7.25984C162.1 3.52984 146.68 2.09984 131.51 1.11984C111.48 -0.180164 91.35 -0.280164 71.31 0.729836C55.26 1.52984 39.04 2.87984 23.3 6.27984C18.22 7.37984 13.05 8.65984 8.29 10.7798C5.3 12.1098 2.29 13.9398 0.970003 17.0898C-0.979997 21.7598 0.0500026 27.5998 4.09 30.7498C7.29 33.2498 11.49 34.4898 15.31 35.6198C29.03 39.6998 43.63 41.1798 57.85 42.3198C77.63 43.8998 97.53 44.2098 117.36 43.4998C134.31 42.8998 151.38 41.6698 168.07 38.5598C173.74 37.5098 179.42 36.2298 184.85 34.2698C188.06 33.1098 191.66 31.6398 193.84 28.8698C195.37 26.9198 195.86 24.3798 195.9 21.9598C195.92 20.5698 195.59 16.5598 193.52 16.5598C191.45 16.5598 191.16 20.6998 191.14 21.9598L191.13 21.9098Z" fill="#1D1D1B"/>
<path d="M30.91 71.5101C33.2 92.7101 35.68 113.9 38.53 135.03C41.38 156.16 44.11 177.16 46.84 198.24C48.38 210.13 49.74 222.07 51.58 233.91C51.8 235.35 53.15 237.3 54.83 236.58C56.64 235.8 56.7 233.3 56.52 231.69C55.29 221.12 53.61 210.59 52.14 200.05C50.67 189.51 49.2 179.32 47.73 168.95C44.75 147.97 41.92 126.97 38.84 106C37.12 94.29 35.27 82.61 33.36 70.92C33.02 68.83 30.72 69.5601 30.92 71.4801L30.91 71.5101Z" fill="#1D1D1B"/>
<path d="M166.63 71.01C163.42 91.85 160.34 112.7 157.36 133.57C154.38 154.44 151.45 175.57 148.59 196.58C146.99 208.37 145.33 220.14 143.69 231.92L144.71 229.77C144.63 229.83 144.52 229.94 144.43 229.96C143.92 230.08 144.83 229.7 144.61 229.84C144.44 229.95 144.27 230.07 144.1 230.18C143.05 230.86 141.97 231.5 140.88 232.11C137.04 234.27 133 236.1 128.87 237.63C115.71 242.51 101.45 244.19 87.35 242.42C76.5 241.06 66.26 237.42 56.43 232.72C54.75 231.92 53.49 234.22 53.32 235.55C53.09 237.34 53.52 239.45 55.24 240.35C70.97 248.53 89.34 252.14 106.99 250.3C118.45 249.1 129.8 245.7 139.98 240.29C142.28 239.07 144.78 237.79 146.81 236.14C148.84 234.49 148.54 231.31 148.85 229C149.58 223.47 150.31 217.93 151.04 212.4C153.93 190.44 156.99 168.5 159.81 146.52C162.63 124.54 165.48 102.32 168.09 80.19C168.41 77.45 168.74 74.71 169.06 71.97C169.15 71.19 169 69.97 168.13 69.66C167.26 69.35 166.74 70.33 166.63 71.02V71.01Z" fill="#1D1D1B"/>
<path d="M62.9 80.34C65.53 86.96 73.72 87.53 79.85 87.72C87.61 87.96 95.34 87.08 102.87 85.25C117.2 81.77 129.67 73.35 143.92 69.7C147.6 68.76 151.83 67.93 155.63 68.6C158.15 69.05 161.57 71 161.48 73.67C161.42 75.5 163.27 76.63 164.17 74.7C165.8 71.24 164.39 67.12 161.76 64.59C159.13 62.06 154.94 61.7 151.45 62.02C144.09 62.7 137.02 65.15 130.27 68.04C123.52 70.93 116.68 74.36 109.58 76.77C102.48 79.18 94.42 80.68 86.61 80.99C82.25 81.17 77.81 81.05 73.47 80.6C70.7 80.31 67.11 79.67 65.46 77.17C64.9 76.33 63.89 76.24 63.25 77.02C62.52 77.91 62.49 79.29 62.9 80.33V80.34Z" fill="#1D1D1B"/>
<path d="M28.2 71.7096C53.07 61.2296 81.25 58.4696 107.71 63.7796C111.4 64.5196 115.06 65.4096 118.67 66.4596C122.28 67.5096 126.02 68.9496 129.92 69.3596C131.8 69.5596 131.76 65.6396 130.6 64.8896C129.06 63.8896 127.54 63.0696 125.82 62.4196C124.21 61.8096 122.5 61.3896 120.84 60.9496C117.49 60.0596 114.11 59.2996 110.7 58.6696C104 57.4396 97.24 56.6896 90.43 56.4596C76.73 56.0096 62.93 57.5996 49.72 61.2796C42.17 63.3896 34.82 66.1596 27.76 69.5496C26.92 69.9496 27.19 72.1396 28.21 71.7096H28.2Z" fill="#1D1D1B"/>
</g>
<defs>
<clipPath id="clip0_3416_9935">
<rect width="195.88" height="275.09" fill="white"/>
</clipPath>
</defs>
</svg>
