<svg width="275" height="190" viewBox="0 0 275 190" fill="none" xmlns="http://www.w3.org/2000/svg">
<g clip-path="url(#clip0_3416_11990)">
<path d="M116.35 139.55C116.35 140.05 116.17 142.16 116.37 140.13C116.32 140.62 116.3 141.11 116.24 141.6C116.18 142.18 116.09 142.76 116 143.34C115.88 144.19 116.08 142.92 116.1 142.86C116 143.23 115.95 143.63 115.86 144C115.65 144.94 115.03 146.14 114.99 147.09C115.03 146.12 115.18 146.55 114.99 147.05C114.92 147.23 114.85 147.41 114.78 147.6C114.53 148.24 114.26 148.87 113.98 149.49C113.78 149.94 113.56 150.38 113.34 150.82C113.21 151.08 113.07 151.35 112.93 151.61C112.91 151.64 112.43 152.49 112.75 151.95C113.07 151.41 112.57 152.25 112.55 152.28C112.4 152.54 112.24 152.79 112.08 153.04C111.76 153.55 111.42 154.05 111.08 154.54C109.73 156.47 108.21 158.28 106.57 159.96C106.43 160.1 105.49 161.02 105.82 160.71C105.36 161.15 104.89 161.57 104.41 161.99C103.44 162.84 102.43 163.65 101.4 164.42C99.4399 165.88 97.3899 167.21 95.2599 168.4C90.6799 170.97 85.7599 172.97 80.6899 174.31C59.7999 179.85 34.9899 176.41 18.4399 161.77C17.0099 160.5 15.5299 159 14.0299 157.18C13.3199 156.32 12.6399 155.43 11.9999 154.52C11.6799 154.07 11.3799 153.61 11.0799 153.15C10.9499 152.94 10.8099 152.73 10.6799 152.52C10.5799 152.35 9.91994 151.2 10.4299 152.12C9.90994 151.17 9.40994 150.21 8.96994 149.22C8.76994 148.77 8.57994 148.32 8.39994 147.87C8.28994 147.6 8.18994 147.33 8.07994 147.05C8.00994 146.87 7.94994 146.68 7.87994 146.5C8.08994 147.13 8.13994 147.28 8.02994 146.95C7.74994 145.97 7.43994 145 7.20994 144C7.13994 143.72 7.08994 143.43 7.02994 143.14C6.79994 142.07 7.22994 144.41 7.06994 143.33C6.98994 142.75 6.89994 142.17 6.82994 141.59C6.79994 141.3 6.64994 139.47 6.72994 140.58C6.80994 141.69 6.73994 140.64 6.72994 140.44C6.72994 140.14 6.71994 139.85 6.71994 139.55C6.71994 139.06 6.76994 138.56 6.74994 138.06C6.79994 139.81 6.69994 138.83 6.73994 138.38C6.76994 137.99 6.80994 137.6 6.85994 137.21C6.91994 136.72 6.98994 136.24 7.06994 135.76C7.22994 134.68 6.79994 137.02 7.02994 135.95C7.08994 135.66 7.14994 135.38 7.20994 135.09C7.31994 134.62 7.43994 134.15 7.56994 133.68C7.69994 133.21 8.06994 132.51 8.07994 132.01C8.06994 132.94 7.87994 132.58 8.07994 132.05C8.17994 131.78 8.28994 131.5 8.39994 131.23C8.57994 130.78 8.76994 130.33 8.96994 129.88C9.20994 129.34 9.46994 128.81 9.72994 128.29C9.81994 128.11 9.90994 127.94 9.99994 127.77C10.0899 127.6 10.7499 126.45 10.2199 127.35C11.3999 125.36 12.7299 123.46 14.2199 121.68C15.7999 119.8 17.0999 118.49 18.6699 117.12C20.5499 115.48 22.5599 113.97 24.6599 112.61C29.0199 109.78 33.7699 107.55 38.6899 105.89C49.5499 102.23 61.4999 101.47 72.7999 103.16C83.1599 104.71 93.2599 108.52 101.65 114.87C102.59 115.58 103.51 116.33 104.4 117.11C104.84 117.49 105.27 117.88 105.7 118.28C106.13 118.68 105.19 117.77 105.91 118.48C106.21 118.77 106.5 119.07 106.79 119.37C108.39 121.02 109.86 122.8 111.17 124.69C111.77 125.55 112.32 126.44 112.86 127.34C112.35 126.47 112.86 127.34 112.94 127.5C113.08 127.76 113.22 128.02 113.35 128.29C113.62 128.81 113.87 129.35 114.11 129.88C114.35 130.41 114.58 130.96 114.79 131.5C114.86 131.68 114.93 131.86 115 132.05C115.19 132.56 115.04 132.98 115 132.01C115.02 132.44 115.31 132.98 115.43 133.4C115.62 134.05 115.78 134.71 115.93 135.38C115.98 135.62 116.02 135.86 116.08 136.09C116.24 136.78 115.86 134.72 116.01 135.75C116.09 136.33 116.18 136.91 116.25 137.49C116.3 137.98 116.33 138.47 116.38 138.96C116.18 136.93 116.36 139.04 116.36 139.54C116.36 140.99 116.66 145.16 118.84 145.16C121.02 145.16 121.32 140.85 121.32 139.54C121.27 128.61 117.22 118.09 109.73 110.1C102.12 101.99 92.2199 96.7302 81.5799 93.7602C69.8899 90.5002 57.3099 90.1902 45.4599 92.7802C34.7399 95.1202 24.2699 99.7802 16.1799 107.31C8.08994 114.84 2.97994 124.27 1.99994 135.07C1.01994 145.87 3.97994 157.35 10.9499 166.16C25.2799 184.28 51.1499 190.5 73.1899 187.1C94.1499 183.87 116.02 170.75 120.4 148.51C120.98 145.54 121.31 142.56 121.32 139.52C121.32 138.07 121.01 133.9 118.84 133.9C116.67 133.9 116.37 138.21 116.36 139.52L116.35 139.55Z" fill="black"/>
<path d="M267.33 141.17C267.33 141.67 267.15 143.78 267.35 141.75C267.3 142.24 267.28 142.73 267.22 143.22C267.16 143.8 267.07 144.38 266.98 144.96C266.86 145.81 267.06 144.54 267.08 144.48C266.98 144.85 266.93 145.25 266.84 145.62C266.63 146.56 266.01 147.76 265.97 148.71C266.01 147.74 266.16 148.17 265.97 148.67C265.9 148.85 265.83 149.03 265.76 149.22C265.51 149.86 265.24 150.49 264.96 151.11C264.76 151.56 264.54 152 264.32 152.44C264.19 152.7 264.05 152.97 263.91 153.23C263.89 153.26 263.41 154.11 263.73 153.57C264.05 153.03 263.55 153.87 263.53 153.9C263.38 154.16 263.22 154.41 263.06 154.66C262.74 155.17 262.4 155.67 262.06 156.16C260.71 158.09 259.19 159.9 257.55 161.58C257.41 161.72 256.47 162.64 256.8 162.33C256.34 162.77 255.87 163.19 255.39 163.61C254.42 164.46 253.41 165.27 252.38 166.04C250.42 167.5 248.37 168.83 246.24 170.02C241.66 172.59 236.74 174.59 231.67 175.93C210.78 181.47 185.97 178.03 169.42 163.39C167.99 162.12 166.51 160.62 165.01 158.8C164.3 157.94 163.62 157.05 162.98 156.14C162.66 155.69 162.36 155.23 162.06 154.77C161.93 154.56 161.79 154.35 161.66 154.14C161.56 153.97 160.9 152.82 161.41 153.74C160.89 152.79 160.39 151.83 159.95 150.84C159.75 150.39 159.56 149.94 159.38 149.49C159.27 149.22 159.17 148.95 159.06 148.67C158.99 148.49 158.93 148.3 158.86 148.12C159.07 148.75 159.12 148.9 159.01 148.57C158.73 147.59 158.42 146.62 158.19 145.62C158.12 145.34 158.07 145.05 158.01 144.76C157.78 143.69 158.21 146.03 158.05 144.95C157.97 144.37 157.88 143.79 157.81 143.21C157.78 142.92 157.63 141.09 157.71 142.2C157.79 143.31 157.72 142.26 157.71 142.06C157.71 141.76 157.7 141.47 157.7 141.17C157.7 140.68 157.75 140.18 157.73 139.68C157.78 141.43 157.68 140.45 157.72 140C157.75 139.61 157.79 139.22 157.84 138.83C157.9 138.34 157.97 137.86 158.05 137.38C158.21 136.3 157.78 138.64 158.01 137.57C158.07 137.28 158.13 137 158.19 136.71C158.3 136.24 158.42 135.77 158.55 135.3C158.68 134.83 159.05 134.13 159.06 133.63C159.05 134.56 158.86 134.2 159.06 133.67C159.16 133.4 159.27 133.12 159.38 132.85C159.56 132.4 159.75 131.95 159.95 131.5C160.19 130.96 160.45 130.43 160.71 129.91C160.8 129.73 160.89 129.56 160.98 129.39C161.07 129.22 161.73 128.07 161.2 128.97C162.38 126.98 163.71 125.08 165.2 123.3C166.78 121.42 168.08 120.11 169.65 118.74C171.53 117.1 173.54 115.59 175.64 114.23C180 111.4 184.75 109.17 189.67 107.51C200.53 103.85 212.48 103.09 223.78 104.78C234.14 106.33 244.24 110.14 252.63 116.49C253.57 117.2 254.49 117.95 255.38 118.73C255.82 119.11 256.25 119.5 256.68 119.9C257.11 120.3 256.17 119.39 256.89 120.1C257.19 120.39 257.48 120.69 257.77 120.99C259.37 122.64 260.84 124.42 262.15 126.31C262.75 127.17 263.3 128.06 263.84 128.96C263.33 128.09 263.84 128.96 263.92 129.12C264.06 129.38 264.2 129.64 264.33 129.91C264.6 130.43 264.85 130.97 265.09 131.5C265.33 132.03 265.56 132.58 265.77 133.12C265.84 133.3 265.91 133.48 265.98 133.67C266.17 134.18 266.02 134.6 265.98 133.63C266 134.06 266.29 134.6 266.41 135.02C266.6 135.67 266.76 136.33 266.91 137C266.96 137.24 267 137.48 267.06 137.71C267.22 138.4 266.84 136.34 266.99 137.37C267.07 137.95 267.16 138.53 267.23 139.11C267.28 139.6 267.31 140.09 267.36 140.58C267.16 138.55 267.34 140.66 267.34 141.16C267.34 142.61 267.64 146.78 269.82 146.78C272 146.78 272.3 142.47 272.3 141.16C272.25 130.23 268.2 119.71 260.71 111.72C253.22 103.73 243.2 98.3503 232.56 95.3803C220.87 92.1203 208.29 91.8104 196.44 94.4004C185.72 96.7404 175.25 101.4 167.16 108.93C159.3 116.25 153.96 125.89 152.98 136.69C152 147.49 154.96 158.97 161.93 167.78C176.26 185.9 202.13 192.12 224.17 188.72C245.13 185.49 267 172.37 271.38 150.13C271.96 147.16 272.29 144.18 272.3 141.14C272.3 139.69 271.99 135.52 269.82 135.52C267.65 135.52 267.35 139.83 267.34 141.14L267.33 141.17Z" fill="black"/>
<path d="M123.21 140.34C128.14 140.48 133.07 140.79 138 141.05C142.93 141.31 147.81 141.93 152.73 142.46C153.65 142.56 154.6 141.6 155.03 140.93C155.66 139.95 155.97 138.5 155.91 137.35C155.79 135.15 154.91 132.74 152.49 132.41C147.64 131.75 142.67 131.57 137.78 131.49C132.89 131.41 127.96 131.81 123.04 132.46C119.58 132.91 119.68 140.25 123.23 140.35L123.21 140.34Z" fill="black"/>
<path d="M3.21995 130.64C6.29995 127.5 8.26995 123.22 10.38 119.41C12.49 115.6 14.65 111.59 16.67 107.61C20.76 99.5402 24.7 91.4002 28.58 83.2302C36.22 67.1502 43.45 50.8702 51 34.7502C53.16 30.1502 55.25 25.7302 57.25 21.5502C59.45 16.9502 61.61 12.3102 64.01 7.82015C65.07 5.84015 65.19 3.14015 63.85 1.25015C62.77 -0.279848 60.47 -0.579848 59.54 1.36015C55.53 9.66015 51.26 17.8202 47.31 26.1502C43.36 34.4802 39.78 42.2302 36.06 50.3002C28.67 66.3502 21.37 82.5901 13.72 98.2001C11.48 102.77 9.22995 107.33 6.96995 111.89C4.70995 116.45 1.72995 121.27 0.239954 126.33C-0.130046 127.58 -0.120046 129.1 0.659954 130.2C1.24995 131.03 2.40995 131.46 3.21995 130.64Z" fill="black"/>
<path d="M274.16 127.23C272.8 122.71 270.44 118.6 268.34 114.4C266.24 110.2 264.35 106.3 262.34 102.26C258.4 94.3 254.6 86.28 250.86 78.22C243.37 62.06 236.05 45.83 228.46 29.72C224.13 20.54 219.46 11.54 215.04 2.40998C214.25 0.779978 212.5 -0.680022 210.82 0.849978C209.3 2.23998 208.92 5.43998 209.88 7.22998C214.14 15.19 217.87 23.47 221.72 31.63C225.57 39.79 229.28 47.88 233.01 56.04C240.44 72.28 247.92 88.5 255.93 104.46C258.23 109.04 260.61 113.58 263.08 118.07C265.55 122.56 267.66 127.33 271.15 130.92C271.85 131.64 272.93 131.28 273.48 130.61C274.17 129.76 274.47 128.28 274.15 127.23H274.16Z" fill="black"/>
<path d="M50.41 127.05C45.57 134.19 40.96 141.47 36.59 148.9C35.77 150.29 35.76 152.33 36.71 153.67C37.56 154.86 39.07 154.9 39.84 153.59C44.21 146.16 48.83 138.88 53.66 131.74C54.55 130.42 54.45 128.25 53.54 126.97C52.63 125.69 51.25 125.81 50.41 127.05Z" fill="black"/>
<path d="M74.9699 113.29C63.7699 127.07 53.6599 141.77 45.1999 157.4C44.5899 158.53 44.4399 159.87 44.8299 161.1C45.1199 162.01 45.7899 163.16 46.9099 163.12C49.8899 163.03 50.8999 160.27 50.5399 157.65C50.3099 156.03 48.1199 154.26 47.0599 156.35C47.2799 156.11 47.2499 156.14 46.9899 156.42C47.2399 156.32 47.1599 156.3 46.7399 156.36L48.4499 162.08C56.8299 146.6 66.6099 131.94 77.6299 118.22C78.4799 117.16 78.3199 115.13 77.6899 114.03C77.1899 113.16 75.8699 112.18 74.9699 113.28V113.29Z" fill="black"/>
<path d="M211.2 127.79C206.36 134.93 201.75 142.21 197.38 149.64C196.56 151.03 196.55 153.07 197.5 154.41C198.35 155.6 199.86 155.64 200.63 154.33C205 146.9 209.62 139.62 214.45 132.48C215.34 131.16 215.24 128.99 214.33 127.71C213.42 126.43 212.04 126.55 211.2 127.79Z" fill="black"/>
<path d="M235.76 114.03C224.56 127.81 214.45 142.51 205.99 158.14C205.38 159.27 205.23 160.61 205.62 161.84C205.91 162.75 206.58 163.9 207.7 163.86C210.68 163.77 211.69 161.01 211.33 158.39C211.1 156.77 208.91 155 207.85 157.09C208.07 156.85 208.04 156.88 207.78 157.16C208.03 157.06 207.95 157.04 207.53 157.1L209.24 162.82C217.62 147.34 227.4 132.68 238.42 118.96C239.27 117.9 239.11 115.87 238.48 114.77C237.98 113.9 236.66 112.92 235.76 114.02V114.03Z" fill="black"/>
</g>
<defs>
<clipPath id="clip0_3416_11990">
<rect width="274.29" height="189.64" fill="white"/>
</clipPath>
</defs>
</svg>
