<svg width="324" height="324" viewBox="0 0 324 324" fill="none" xmlns="http://www.w3.org/2000/svg">
<g clip-path="url(#clip0_3416_9914)">
<path d="M323.4 0.1V323.4H0.1V0.1H323.4ZM323.5 0H0V323.5H323.5V0Z" fill="#666666"/>
<path d="M128.43 43.0901C130.87 45.9401 133.22 49.2101 133.57 53.0301C133.33 58.0301 138.18 58.4101 141.76 56.8301C144.59 55.5201 147.39 53.9101 150.53 53.4101C151.37 53.2601 152.77 53.1301 153.08 54.1601C153.2 55.1401 152.54 56.0001 152.03 56.7701C150.49 58.7701 148.83 60.6701 146.98 62.3901C144.25 65.0801 140.68 66.5601 137.16 67.9001C133.98 69.4301 130.13 71.8101 129.6 75.5901C129.43 78.3301 132.52 79.4501 133.68 81.6101C134.42 82.5801 134.93 83.8501 135.93 84.5601C137.06 85.2301 138.32 84.2201 139.24 83.5801C141.21 82.0301 142.99 80.2401 144.86 78.5601C146.65 77.0801 148.94 74.4901 151.47 75.7301C155.95 78.7301 155.08 86.6701 162.35 82.1501C163.99 81.2201 165.64 80.1601 167.54 79.8601C167.86 79.8301 168.21 79.8301 168.53 80.0001C168.86 80.1701 169.03 80.5601 168.98 80.9201C169.88 82.3301 171.51 84.2401 173.14 85.3201C173.99 85.8901 174.93 86.3301 175.93 86.5501C176.93 86.7201 178.08 86.7701 178.91 87.4801C180.69 88.8501 180.62 91.6301 179.19 93.2301C177.78 94.9801 175.51 95.1201 173.47 95.4901C171.45 95.9101 169.46 96.5001 167.52 97.2101C165.27 98.1001 157.3 101 158.85 104.29C162.98 109.96 173.5 100.47 174.51 104.37C174.68 106.96 173.99 109.72 172.39 111.82C171.07 113.5 169.14 114.55 167.17 115.21C165.23 115.87 163.47 117.01 161.84 118.25C157.09 121.98 152.87 127.44 152.92 133.72C153.06 137.84 154.69 141.76 156.43 145.48C157.8 148.8 160.27 151.95 160.35 155.64C160.31 156.19 159.98 156.76 159.56 157.09C158.8 157.8 158 158.49 157.07 159.02C153.66 161.18 151 158.1 149.75 155.12C145.43 146.3 139.93 135.55 129.54 133.19C123.45 132.43 117.1 132.06 111.04 133.17C109.04 133.59 107.03 134.22 105.42 135.45C103.8 136.44 103.06 138.99 102.32 140.6C100.82 144.1 97.96 149.3 103.64 150.34C106.65 151.09 109.81 150.87 112.89 151.32C113.92 151.49 115 151.78 115.88 152.46C116.77 153.11 117.21 154.2 117.52 155.2C118.16 157.19 118.86 159.31 118.32 161.43C117.26 164.99 112.63 164.09 109.84 163.87C107.79 163.73 105.69 163.56 103.7 163.87C103.22 163.96 102.71 164.11 102.44 164.39C101.56 165.8 106.15 168.68 107.26 169.33C108.92 170.42 111.83 170.73 112.08 173.15C112.31 178.86 110.63 180.2 116.95 182.76C120.19 184.52 121.78 186.32 124.62 182.67C125.91 181.08 126.99 179.31 128.08 177.55C129.52 175.44 130.66 172.76 133.02 171.45C134.13 170.86 135.38 171.72 135.99 172.6C137.66 174.58 138.88 176.97 140.57 178.85C141.25 179.58 142.06 180.21 143.01 180.39C143.96 180.57 145.03 180.39 146.01 180.28C150.1 179.73 154.16 178.83 158.19 177.94L161.22 177.25C166.32 175.87 171.9 177.69 176.23 180.45C179.86 182.7 182.17 187.23 180.8 191.45C179.49 195.44 177.55 199.28 174.48 202.2C172.97 203.66 171.19 204.8 170.15 206.52C166.95 212.08 170.2 218.86 167.92 224.75C166.63 228.94 162.83 231.36 159.54 233.87C156.19 236.37 153.5 239.43 150.75 242.57C145.01 248.35 141.25 256.39 140.77 264.53C140.7 266.63 140.31 268.75 139.41 270.7C137.94 274.04 134.49 276.03 131.68 272.46C128.43 268.21 127.74 262.51 128.69 257.37C129.08 255.31 129.34 253.36 129.19 251.26C128.95 246.24 128.24 240.78 124.82 236.91C117.82 231.09 109.31 225.01 107.53 215.44C106.49 208.93 111.26 203.4 114.96 198.63C116.76 196.25 119.34 194.1 119.96 191.12C120.08 190.18 119.81 189.24 119.28 188.41C117.6 185.69 115.24 183.93 112.04 183.68C106.65 183.05 102.3 179.24 99.77 174.61C97.48 171.16 97.17 166.64 94.52 163.47C93.23 161.92 91.39 160.93 89.76 159.58C88.16 158.2 86.7 156.72 85.39 155.08C84.09 153.43 83.04 151.55 82.4 149.55C81.86 148.2 79.6 137.37 77.45 140.52C75.35 144.11 75.98 148.51 75.93 152.54C75.9 153.07 75.88 153.61 75.64 154.17C74.62 155.94 72.35 153.54 71.37 152.81C66.69 148.55 64.51 141.78 65.87 135.59C66.58 131.39 70.08 128.39 71.17 124.41C72.1 120.98 70.29 115.75 69.72 112.25C68.22 105.99 71.44 99.9401 72.26 93.8901C72.36 92.8801 72.4 91.8301 72.08 90.8801C70.18 87.0401 64.59 85.6401 68.17 80.3501C81.61 62.9801 108.34 51.2901 128.41 43.0801L128.43 43.0901ZM128.41 43.1701C108.44 51.4501 81.83 63.1401 68.43 80.5201C64.94 85.5801 70.62 86.9901 72.41 90.8001C72.75 91.8301 72.71 92.9101 72.61 93.9501C71.8 100.09 68.62 105.95 70.12 112.2C70.72 115.83 72.55 120.93 71.6 124.53C70.51 128.6 67.05 131.52 66.34 135.71C65.03 141.73 67.17 148.33 71.74 152.45C72.35 152.92 74.61 155.11 75.19 153.97C75.8 151.53 75.13 148.87 75.4 146.33C75.47 144.68 76.2 139.08 78.58 139.4C80.17 140.15 80.56 141.99 81.19 143.44C82.56 147.33 83.13 151.53 85.91 154.73C87.18 156.32 88.66 157.81 90.2 159.12C91.76 160.41 93.66 161.42 95.06 163.07C97.83 166.34 98.09 170.78 100.41 174.3C102.44 177.8 105.35 181.05 109.24 182.28C111.22 183 113.3 182.97 115.3 183.73C117.34 184.56 118.75 186.29 119.95 188.06C120.54 188.97 120.89 190.13 120.74 191.26C120.11 194.48 117.44 196.68 115.57 199.14C110.05 206.02 105.24 212.32 110.33 221.08C112.33 224.65 115.14 227.74 118.18 230.51C121.1 233.47 125.26 235.25 127.21 239.09C129.97 244.73 130.52 251.41 129.41 257.53C128.69 261.56 128.89 265.77 130.7 269.49C132.5 273.83 136.27 275.85 138.84 270.46C139.68 268.63 140.07 266.59 140.14 264.56C140.29 260.34 141.53 256.26 143.26 252.47C145 248.69 147.29 245.07 150.31 242.18C151.72 240.69 152.99 239.04 154.48 237.55C157.37 234.55 160.89 232.26 164.06 229.61C167.16 226.81 168.31 222.65 168.21 218.57C168.26 214.49 167.33 209.92 169.65 206.24C170.8 204.37 172.63 203.22 174.08 201.8C177.06 199 178.95 195.18 180.24 191.33C182.84 181.98 170.52 176.69 162.9 177.53C161.98 177.72 159.32 178.36 158.36 178.56C154.3 179.45 150.25 180.34 146.12 180.9C145.05 181 144.02 181.2 142.93 181C141.82 180.77 140.91 180.05 140.19 179.28C138.41 177.29 137.27 175 135.59 173C134.56 171.55 133.37 171.54 132.12 172.86C128.59 176.53 127.09 182.35 122.65 185.15C120.5 186.09 118.55 184.11 116.74 183.27C114.94 182.35 112.53 181.68 111.79 179.5C111.16 177.44 111.86 175.3 111.6 173.27C111.3 171.07 108.61 170.91 107.05 169.83C105.22 168.75 103.47 167.57 102.18 165.83C102.03 165.59 101.89 165.34 101.84 165.02C101.63 163.98 102.9 163.51 103.66 163.4C105.78 163.08 107.86 163.26 109.93 163.4C112.67 163.56 116.78 164.6 117.9 161.33C118.46 158.89 117.47 156.24 116.56 153.99C115.26 151.65 112.16 151.75 109.8 151.55C100.61 151.11 97.29 149.87 101.95 140.44C102.7 138.71 103.53 136.18 105.19 135.11C110.5 131.54 117.36 132.03 123.45 132.19C127.58 132.4 131.95 132.7 135.47 135.14C139.01 137.41 141.78 140.65 144.14 144.07C146.49 147.51 148.41 151.21 150.17 154.97C150.6 155.9 151.1 156.8 151.72 157.6C152.95 159.35 155.1 159.9 156.93 158.69C157.81 158.19 158.59 157.52 159.34 156.82C160.16 156.21 160.11 155.1 159.88 154.14C155.74 142.68 147.42 134.02 157.17 122.32C159.87 119.17 163.16 116.35 167.1 114.9C169.04 114.25 170.9 113.23 172.17 111.62C173.7 109.64 174.38 106.91 174.24 104.44C173.45 101.15 162.74 110.27 158.63 104.44C156.91 100.83 164.94 97.9701 167.45 96.9601C169.41 96.2501 171.4 95.6601 173.44 95.2401C175.44 94.8701 177.64 94.7701 179.01 93.0701C180.35 91.5801 180.44 88.9601 178.78 87.6801C177.95 87.0001 176.93 86.9701 175.91 86.8001C174.88 86.5701 173.91 86.1101 173.04 85.5301C171.32 84.3201 169.8 82.7201 168.78 80.9001C168.81 80.6401 168.69 80.3401 168.45 80.2201C167.6 79.8801 166.64 80.3201 165.82 80.6201C164.67 81.1001 163.58 81.7201 162.49 82.3601C155.07 86.9501 155.83 79.0301 151.4 75.9201C147.21 73.3801 139.66 86.7201 135.86 84.7201C134.8 83.9601 134.31 82.7301 133.56 81.7201C132.37 79.5301 129.27 78.4101 129.46 75.5901C129.71 72.9901 131.85 71.0901 133.83 69.6301C135.87 68.1101 138.31 67.3201 140.62 66.3501C142.94 65.3801 145.08 64.0101 146.91 62.2901C148.75 60.5801 150.41 58.6801 151.95 56.6901C152.44 55.9301 153.09 55.1201 152.98 54.1801C152.68 53.2201 151.36 53.4301 150.56 53.5201C147.42 54.0201 144.65 55.6101 141.81 56.9201C138.14 58.5601 133.22 58.0101 133.49 53.0201C133.17 49.2601 130.77 45.9501 128.43 43.1501L128.41 43.1701Z" fill="#1D1D1B"/>
<path d="M127.67 46.0402C128.42 46.8602 129.1 47.7502 129.73 48.6602C130.28 49.4502 130.78 50.2502 131.21 51.1102C131.45 51.6002 131.69 52.1202 131.87 52.6402C131.79 52.4102 131.95 52.9202 131.94 52.9002C132 53.1102 132.05 53.3202 132.09 53.5302C132.04 53.3002 132.03 53.2902 132.06 53.5102C132.12 54.1202 132.05 52.6702 132.06 53.7202C132.06 54.0602 132.09 54.5502 132.14 54.9302C132.22 55.5902 132.34 56.2402 132.53 56.8702C132.9 58.0702 133.48 59.1702 134.46 59.9802C136.03 61.2802 138.3 61.2702 140.18 60.7902C143.93 59.8302 147.12 57.0702 151.09 56.7802C151.36 56.7602 151.62 56.7602 151.89 56.7802C152.12 56.8002 152.02 56.9302 152.22 56.8702L152.32 56.9402C151.81 56.5202 151.57 55.9302 151.61 55.1702C151.92 57.2002 151.44 53.1202 151.82 52.8402C151.84 52.8202 151.52 53.4702 151.68 53.1702C151.53 53.4402 151.34 53.6902 151.17 53.9402C149.66 56.0202 147.85 58.0202 145.9 59.7002C144.47 60.9302 142.89 61.9502 141.19 62.7602C139.37 63.6202 137.43 64.2002 135.64 65.1302C131.07 67.5102 127.44 71.6802 128.11 77.1402C128.28 78.4802 128.71 79.8202 129.52 80.9202C130.19 81.8302 131.16 82.4602 131.89 83.3202C132.96 84.5702 133.64 86.1302 134.79 87.3002C136.1 88.6502 137.6 88.3502 139.08 87.3802C141.43 85.8402 143.39 83.6602 145.47 81.8002C146.64 80.7502 148.26 79.0302 149.93 78.9002C151.6 78.7702 152.61 80.6502 153.37 81.9302C154.23 83.3602 154.98 85.1502 156.37 86.2602C157.84 87.4402 159.66 87.0302 161.26 86.3402C163.26 85.4702 165.11 83.7902 167.31 83.4302C167.55 83.3902 167.78 83.3902 168.02 83.3902C168.35 83.3902 168.04 83.2902 168.12 83.4102C168.21 83.5502 167.84 83.0502 167.76 82.8502C167.55 82.3602 167.41 81.4302 167.41 80.8602C167.41 79.0402 167.46 79.7502 167.46 80.0302C167.46 80.3102 167.41 82.0702 167.41 80.9402C167.41 81.9802 167.61 82.9702 168.15 83.8602C168.33 84.1502 168.52 84.4402 168.72 84.7202C169.74 86.1502 171 87.4802 172.42 88.5102C173.29 89.1302 174.23 89.5902 175.25 89.9002C176.06 90.1402 176.96 90.1102 177.73 90.4302C178.03 90.5602 178.35 90.7502 178.59 90.9802C178.39 90.7902 178.66 91.1002 178.7 91.1402C178.98 91.4402 178.68 91.3702 178.75 91.1902C178.7 91.3202 178.77 91.4002 178.72 91.0502C178.82 91.7702 178.66 90.2102 178.66 90.3202C178.66 90.5402 178.61 90.9402 178.68 90.0302C178.75 89.1202 178.62 90.2002 178.8 89.5402C178.78 89.6002 178.46 90.1802 178.71 89.7802C178.64 89.9002 178.54 90.0402 178.45 90.1402C178.2 90.4102 178.07 90.5602 177.76 90.7702C176.97 91.3102 176.14 91.5702 175.2 91.7102C173.5 91.9702 171.84 92.3502 170.19 92.8302C166.69 93.8602 162.93 95.1402 160.01 97.4002C158.67 98.4402 157.64 99.6802 157.23 101.35C156.71 103.44 156.87 106.19 158.42 107.84C160.98 110.56 164.84 109.66 167.94 108.58C169.27 108.11 170.73 107.44 172 107.1C172.46 106.98 172.94 106.88 173.41 106.93C173.56 106.95 173.53 106.98 173.48 106.93C173.21 106.66 173.63 107.39 173.25 106.6C173.06 106.16 172.96 105.7 172.95 105.22C172.94 104.87 172.93 104.84 172.93 105.12C172.81 104.42 172.92 105.06 172.89 105.33C172.86 105.62 172.82 105.91 172.77 106.19C172.86 105.74 172.48 107.19 172.59 106.85C172.28 107.75 171.95 108.31 171.37 109C170.14 110.47 168.3 111.26 166.54 111.89C163.18 113.09 160.25 115.54 157.81 118.09C154.45 121.59 152.08 126 151.43 130.84C150.69 136.38 152.43 141.88 154.7 146.86C155.64 148.92 156.69 150.92 157.64 152.97C157.99 153.72 158.32 154.47 158.6 155.25C158.4 154.69 158.71 155.71 158.76 155.88C158.54 155.16 158.7 155.5 158.73 155.75C158.76 156.02 158.75 155.87 158.7 155.3C158.7 154.94 158.74 154.58 158.83 154.23C158.83 154.21 159.07 153.55 158.91 153.96C159.14 153.38 158.91 153.79 159.03 153.74C158.71 153.91 158.43 154.29 158.15 154.52C157.5 155.06 156.79 155.6 156 155.93C154.53 156.55 153.19 156 152.24 154.79C151.13 153.38 150.5 151.6 149.7 150C148.83 148.25 147.9 146.53 146.92 144.85C144.8 141.2 142.32 137.76 139.23 134.86C136.14 131.96 132.57 129.94 128.4 129.47C122.99 128.85 117.3 128.54 111.9 129.46C107.9 130.14 103.92 131.63 102.18 135.57C100.27 139.89 97.47 144.94 98.86 149.8C100.25 154.66 106.47 154.47 110.73 154.76C112.31 154.87 114.74 154.91 115.73 156.39C116.13 156.99 116.14 157.39 116.33 158C116.44 158.35 116.54 158.7 116.62 159.05C116.67 159.24 116.71 159.44 116.76 159.63C116.57 158.85 116.75 159.6 116.77 159.75C116.78 159.83 116.84 160.58 116.81 159.97C116.78 159.36 116.8 160.09 116.8 160.17C116.82 159.27 116.82 159.68 116.8 159.89L116.88 159.48C116.8 159.78 116.82 159.73 116.94 159.35C117.05 159.35 116.49 159.85 116.99 159.33C116.86 159.46 116.78 159.65 116.65 159.78C116.77 159.66 116.2 160.08 116.02 160.16C114.08 161.11 111.4 160.4 109.36 160.25C107.32 160.1 105.23 159.89 103.29 160.37C100.84 160.98 100.34 163.57 100.63 165.84C100.94 168.35 102.62 169.95 104.54 171.41C106.23 172.69 108.12 173.37 109.94 174.41C110.09 174.5 110.57 174.8 110.5 174.76C110.25 174.62 110.74 174.94 110.66 174.97C110.51 175.02 110.52 174.54 110.61 174.91C110.55 174.63 110.26 174.13 110.41 173.83C110.37 173.91 110.41 174.39 110.41 174.42C110.41 175.01 110.37 175.59 110.33 176.18C110.21 178.3 110.27 180.56 111.29 182.48C112.43 184.65 114.56 185.28 116.59 186.35C118.04 187.12 119.54 188.37 121.24 188.5C123.28 188.66 124.91 186.72 126.02 185.27C127.49 183.36 128.69 181.26 129.97 179.23C130.84 177.85 131.86 175.83 133.35 175.09C133.81 174.86 134.13 174.86 134.6 175.22C135.4 175.84 136.07 177.02 136.65 177.87C137.94 179.74 139.13 181.89 141.02 183.24C142.5 184.29 144.16 184.2 145.87 184C150.26 183.47 154.62 182.46 158.93 181.49C160.46 181.14 162.03 180.63 163.6 180.48C164.85 180.36 166.12 180.49 167.35 180.7C170.36 181.2 173.33 182.32 175.84 184.07C177.07 184.93 178.05 185.87 178.86 187.17C179.11 187.57 178.94 187.32 178.9 187.23C179.01 187.43 179.09 187.64 179.19 187.84C179.25 187.97 179.31 188.12 179.36 188.26C179.15 187.7 179.32 188.19 179.36 188.34C179.43 188.57 179.65 188.94 179.38 188.33C179.44 188.45 179.42 188.66 179.44 188.8C179.29 187.93 179.47 188.62 179.43 188.87C179.33 189.57 179.54 188.19 179.42 188.98C179.33 189.56 179.42 189.07 179.44 188.96C179.39 189.23 179.32 189.5 179.24 189.77C179.15 190.08 179.07 190.3 178.83 190.88C178.32 192.14 177.76 193.4 177.09 194.58C176.22 196.1 175.02 197.68 173.85 198.81C171.74 200.86 169.45 202.4 168.24 205.2C166.52 209.18 166.95 213.46 167.03 217.66C167.03 218.11 167.04 218.56 167.03 219.01C167.03 219.31 167.02 219.61 167 219.92C167 219.78 167.07 219.27 167 219.93C166.94 220.44 166.9 220.94 166.81 221.44C166.9 220.94 166.81 221.45 166.78 221.54C166.69 221.89 166.61 222.24 166.5 222.58C165.94 224.25 164.44 226.21 162.82 227.48C159.4 230.18 155.88 232.68 152.93 235.93C150.93 238.13 148.74 240.31 146.94 242.67C143.7 246.93 141.33 252.01 140.02 257.19C139.65 258.65 139.37 260.14 139.19 261.63C139.01 263.12 139.06 264.32 138.87 265.63C138.68 266.94 138.09 268.89 136.8 269.98C133.15 273.07 130.55 265.79 130.24 263.3C130.14 262.51 130.16 262.73 130.15 261.94C130.15 261.64 130.15 261.35 130.17 261.05C130.19 260.4 130.08 261.81 130.19 260.75C130.3 259.69 130.44 258.7 130.61 257.69C130.89 256.02 131.1 254.39 131.09 252.7C131.06 248.79 130.73 244.78 129.6 241.01C128.95 238.84 128.08 236.71 126.75 234.87C125.66 233.35 124.2 232.29 122.74 231.16C119.69 228.82 116.78 226.26 114.29 223.33C112.97 221.77 111.71 220.11 110.77 218.29C110.36 217.49 109.87 216.37 109.7 215.82C109.57 215.39 109.45 214.94 109.36 214.5C109.25 213.95 109.41 215.2 109.33 214.27C109.33 214.18 109.25 213.2 109.28 213.97C109.28 213.72 109.28 213.47 109.28 213.22C109.28 212.65 109.15 214 109.3 213.06C109.33 212.86 109.35 212.66 109.38 212.46C109.27 213.08 109.49 212.08 109.5 212.05C109.72 211.25 110.32 210.07 110.86 209.13C112.1 206.94 113.59 204.88 115.16 202.91C117.43 200.07 120.44 197.32 121.49 193.73C122.81 189.2 120.93 184.77 117.35 181.88C114.51 179.58 110.41 180.16 107.26 178.39C103.02 176.01 100.31 171.37 98.79 166.89C97.96 164.45 97.11 162.02 95.32 160.09C94.06 158.72 92.52 157.74 91.05 156.63C87.51 153.95 84.7 150.39 83.51 146.09C82.95 144.05 82.36 141.98 81.54 140.03C81.02 138.79 80.08 136.46 78.48 136.3C76.53 136.1 75.59 139.1 75.14 140.49C74.32 143.02 74.14 145.74 74.15 148.39C74.15 149.34 74.2 150.28 74.21 151.23C74.21 151.64 74.21 152.06 74.21 152.47C74.21 153.07 74.21 152.28 74.23 152.21C74.19 152.55 74.21 152.46 74.3 151.94C74.24 152.16 74.25 152.15 74.33 151.89C74.43 151.64 74.79 151.03 74.87 151.21C74.89 151.24 74.36 151.14 74.39 151.15C73.52 150.81 72.68 150.07 72 149.45C70.34 147.93 69.04 146 68.18 143.93C67.32 141.86 67 139.8 67.36 137.67C67.62 136.09 68.42 134.42 69.37 132.9C70.38 131.29 71.48 129.71 72.15 127.93C74.14 122.59 72.63 117.19 71.49 111.84C71.4 111.41 71.31 110.98 71.23 110.55C71.39 111.35 71.18 110.19 71.15 110C71.11 109.69 71.1 109.36 71.04 109.05C70.96 108.59 71.04 109.94 71.04 109.22C71.04 109.01 71.04 108.8 71.04 108.58C71.04 108.4 71.06 108.21 71.06 108.03C71.06 107.53 70.97 108.91 71.06 108.11C71.11 107.67 71.15 107.24 71.21 106.8C71.24 106.61 71.27 106.41 71.3 106.22C71.46 105.21 71.23 106.51 71.36 105.9C71.49 105.29 71.64 104.65 71.8 104.03C73.01 99.2702 75.04 94.0102 73.55 89.0902C72.9 86.9502 71.28 85.6902 69.79 84.1502C69.55 83.9002 68.35 82.5802 68.52 82.4602C68.9 82.1902 68.55 84.2102 68.63 84.2802C68.57 84.2302 69.06 83.4602 69.05 83.4702C69.77 82.3002 70.68 81.2302 71.59 80.2002C72.1 79.6302 72.62 79.0802 73.15 78.5402C74.04 77.6402 74.13 77.5602 74.92 76.8202C76.72 75.1602 78.6 73.5902 80.54 72.0902C86.42 67.5402 92.77 63.6102 99.28 60.0502C108.81 54.8302 118.75 50.4002 128.85 46.4302C130.69 45.7102 130.24 39.0602 128.06 39.9202C112.31 46.1202 96.63 53.3802 82.83 63.2902C77.52 67.1102 71.99 71.4402 68.12 76.7902C65.56 80.3302 64.64 85.3802 67.48 89.0702C68.47 90.3602 69.81 91.3202 70.83 92.5902C70.93 92.7102 71.02 92.9302 71.15 93.0102C71.34 93.1302 71.09 93.0102 71.09 92.8602C71.09 92.4202 70.94 93.5602 71.06 92.6602C71.05 92.7702 71.06 93.3902 71.06 92.5702C71.06 93.0402 70.99 93.6802 70.86 94.3002C70.02 98.3302 68.57 102.21 68.2 106.34C67.89 109.82 68.46 113.07 69.19 116.46C69.43 117.58 69.67 118.7 69.89 119.82C69.98 120.27 70.08 120.73 70.14 121.19C70.18 121.44 70.21 121.69 70.23 121.94C70.19 121.39 70.23 122.41 70.23 122.42C70.25 121.64 70.08 123.24 70.23 122.54C70.21 122.63 69.92 123.64 70.08 123.2C69.83 123.92 69.42 124.7 69.14 125.17C68.24 126.66 67.25 128.08 66.46 129.63C65.43 131.66 64.81 133.88 64.5 136.13C63.77 141.45 64.83 146.97 67.58 151.58C68.6 153.28 69.88 154.79 71.37 156.1C72.27 156.89 73.71 158.2 75.02 157.97C76.64 157.68 77.01 155.24 77.14 153.94C77.33 152.16 77.17 150.37 77.16 148.59C77.16 148.15 77.16 147.72 77.16 147.28C77.16 147.35 77.21 146.26 77.18 146.72C77.15 147.1 77.21 146.4 77.22 146.32C77.32 145.33 77.38 144.86 77.75 143.97C78.01 143.33 78.13 143.31 78.4 143.02C78.26 143.17 78.26 142.94 78.37 143.07C78.37 143.07 78.76 143.36 78.56 143.19C78.38 143.04 78.71 143.39 78.75 143.44C79.37 144.33 79.96 146.06 80.33 147.29C80.91 149.21 81.35 151.17 82.11 153.03C83.69 156.93 86.68 160.36 89.97 162.94C91.17 163.88 92.54 164.66 93.63 165.74C94.94 167.02 95.7 168.64 96.26 170.35C97.73 174.88 99.95 179.29 103.43 182.61C104.91 184.02 106.58 185.17 108.52 185.85C110.08 186.4 111.67 186.67 113.29 186.98C114.62 187.23 115.79 187.71 116.81 188.63C117.53 189.27 118.11 190.07 118.68 190.84C118.77 190.96 118.86 191.09 118.94 191.22C118.74 190.88 118.92 191.19 118.95 191.26L119.04 191.45C119.13 191.69 119.14 191.7 119.06 191.47C118.99 191.25 118.99 191.26 119.06 191.49L118.98 191.04C119.01 191.59 118.98 190.7 118.98 190.67C118.99 191.32 119.04 189.94 118.99 190.39C118.95 190.79 119.11 189.71 119.03 190.11C119.01 190.22 118.86 190.59 119.01 190.21C119.16 189.83 118.8 190.63 118.73 190.76C118.69 190.83 118.51 191.14 118.72 190.78C118.61 190.97 118.48 191.16 118.36 191.34C117.49 192.63 116.45 193.81 115.45 195C112.6 198.4 109.83 201.99 107.94 206.03C106.05 210.07 105.88 215 107.18 219.27C109.39 226.53 115.04 232.19 120.83 236.8C121.9 237.65 123.1 238.4 124.1 239.34C125.3 240.46 126.11 241.9 126.71 243.4C126.97 244.06 127.14 244.6 127.37 245.49C127.48 245.93 127.58 246.37 127.67 246.82C127.64 246.69 127.58 246.28 127.68 246.89C127.73 247.18 127.77 247.47 127.82 247.76C127.92 248.49 128.01 249.23 128.07 249.97C128.08 250.14 128.1 250.32 128.11 250.49C128.18 251.33 128.1 249.94 128.11 250.46C128.11 250.8 128.14 251.14 128.15 251.48C128.17 252.04 128.18 252.59 128.18 253.15C128.18 253.35 128.16 253.56 128.18 253.76C128.11 252.7 128.15 253.8 128.1 254.14C127.86 255.82 127.51 257.47 127.37 259.17C126.94 264.47 127.75 270.09 130.79 274.57C131.73 275.95 133.09 277.28 134.83 277.46C136.38 277.62 137.76 276.6 138.72 275.49C140.05 273.95 140.84 271.87 141.32 269.93C141.95 267.42 141.87 264.98 142.22 262.66C142.87 258.38 144.76 254.14 147.11 250.53C148.8 247.93 150.99 245.83 153 243.5C154.77 241.45 156.61 239.57 158.71 237.85C162.31 234.89 166.33 232.59 168.33 228.18C170.05 224.39 170.16 220.15 170 216.06C169.97 215.29 169.94 214.52 169.92 213.75C169.92 213.33 169.91 212.91 169.92 212.49C169.92 212.31 169.93 212.13 169.94 211.94C169.95 211.51 169.86 212.55 169.94 211.9C169.97 211.68 169.99 211.47 170.02 211.25C170.03 211.15 170.14 210.61 170.05 211.02C169.94 211.55 170.37 209.97 170.14 210.65C170.24 210.36 170.36 210.07 170.49 209.79C170.55 209.66 170.61 209.53 170.68 209.4C170.98 208.81 170.43 209.75 170.79 209.22C172.09 207.3 173.95 206.17 175.72 204.34C178.58 201.38 180.61 197.37 181.79 193.46C182.91 189.76 182.73 185.42 180.81 182.01C179.38 179.49 177.09 177.6 174.53 176.29C171.97 174.98 169.33 174.19 166.6 173.85C164.08 173.53 161.92 174.1 159.47 174.65C155.62 175.52 151.76 176.37 147.87 176.99C146.51 177.21 145.06 177.49 143.68 177.42C141.93 177.32 140.83 175.83 139.89 174.52C138.59 172.69 137.48 170.56 135.79 169.03C134.77 168.11 133.53 168 132.37 168.76C130.98 169.66 129.98 171.2 129.09 172.56C127.94 174.32 126.9 176.14 125.73 177.88C124.86 179.17 123.7 181.23 122.1 181.72C120.84 182.1 119.54 181.06 118.52 180.47C116.99 179.58 114.87 179.06 113.61 177.79C113.52 177.7 113.46 177.58 113.37 177.49C113.12 177.25 113.58 177.61 113.32 177.44C113.1 177.3 113.33 177.78 113.32 177.51C113.3 177.05 113.43 178.29 113.32 177.55C113.43 178.32 113.32 177.62 113.34 177.25C113.34 176.81 113.38 176.37 113.4 175.92C113.51 173.91 113.56 171.76 112.68 169.9C112.04 168.56 110.92 167.93 109.63 167.33C107.73 166.46 105.96 165.43 104.38 164.06C104.08 163.8 103.81 163.53 103.55 163.23C103.45 163.12 103.38 162.96 103.27 162.87C103.53 163.11 103.27 162.91 103.3 162.91L103.06 167.23L102.89 167.39C102.97 167.36 103.04 167.26 103.13 167.24C103.43 167.15 103.47 167.09 103.8 167.03C105.64 166.68 107.62 166.87 109.46 167C111.48 167.14 113.61 167.6 115.61 167.11C119.53 166.15 120.12 161.73 119.77 158.28C119.61 156.7 119.2 155.15 118.69 153.65C118.1 151.88 117.44 150.09 115.73 149.11C114.18 148.22 112.22 148.09 110.48 147.98C108.22 147.84 105.93 147.79 103.72 147.25C102.96 147.06 102.23 146.78 101.61 146.28C101.41 146.12 101.4 145.75 101.48 146.24C101.5 146.35 101.62 147.03 101.57 146.65C101.49 146.1 101.57 147.85 101.59 147.26C101.61 146.81 101.46 147.75 101.59 147.29C101.64 147.11 101.68 146.93 101.73 146.75C101.86 146.27 101.81 146.43 102.04 145.86C102.41 144.9 102.83 143.97 103.24 143.03C103.65 142.09 104.02 141.14 104.44 140.21C104.63 139.8 104.46 140.06 104.72 139.68C104.93 139.38 105.16 139.09 105.43 138.84C106.55 137.8 108.11 137.14 109.56 136.72C113.81 135.49 118.47 135.54 122.84 135.75C127.21 135.96 131.1 136.16 134.77 138.42C140.7 142.06 144.57 148.5 147.58 154.53C149 157.37 150.24 161.59 153.54 162.7C154.95 163.18 156.37 162.79 157.62 162.04C158.87 161.29 160.38 160.16 161.04 158.85C162.74 155.44 161.32 151.38 159.84 148.18C158.13 144.5 156.07 140.93 154.95 137.01C154.67 136.01 154.49 135.25 154.39 134.39C154.36 134.15 154.33 133.91 154.32 133.67C154.32 133.82 154.35 134.24 154.33 133.55C154.31 132.86 154.33 133.28 154.31 133.44C154.33 133.11 154.37 132.77 154.42 132.45C154.52 131.8 154.48 132.14 154.45 132.28C154.5 132.07 154.55 131.85 154.6 131.64C154.73 131.14 154.77 131.02 154.93 130.6C155.26 129.76 155.64 128.94 156.1 128.17C157.95 125.05 160.63 122.4 163.63 120.38C164.72 119.65 165.87 118.98 167.09 118.51C168.73 117.89 170.32 117.29 171.66 116.13C174.78 113.44 176.07 108.95 176 104.93C175.97 103.45 175.75 101.15 174.23 100.38C173.26 99.8902 172.1 100.32 171.16 100.63C168.52 101.48 165.97 102.88 163.13 102.92C162.54 102.92 161.91 102.89 161.35 102.71C161.06 102.62 160.77 102.47 160.51 102.31C160.37 102.23 160.24 102.14 160.11 102.05C160.11 102.05 159.59 101.68 159.89 101.88C159.86 101.86 159.68 101.62 159.68 101.62C159.86 101.48 159.82 102.13 159.76 101.75C159.95 102.81 160.17 103.74 159.86 104.82C159.82 104.95 159.63 105.19 159.86 104.93C160.01 104.76 160.3 104.4 160.36 104.34C162.4 102.37 165.84 101.08 168.6 100.12C170.06 99.6102 171.54 99.1802 173.05 98.8502C174.56 98.5202 176.26 98.4402 177.74 97.7802C181.41 96.1302 182.28 91.3702 181.43 87.8102C181.08 86.3602 180.3 84.8802 178.98 84.0902C177.66 83.3002 175.99 83.4802 174.59 82.7702C172.56 81.7402 170.87 79.9602 169.73 78.0002L170.41 81.8102C170.61 80.3902 170.47 78.4602 169.5 77.3202C168.53 76.1802 166.95 76.6902 165.75 77.1502C163.48 78.0202 161.25 80.2402 158.74 80.2702C157.16 80.2902 156.51 78.7802 155.87 77.6402C154.84 75.8202 153.65 73.2502 151.58 72.4202C149.71 71.6702 147.93 72.7002 146.47 73.8402C144.1 75.6902 142.05 77.9302 139.74 79.8402C139.03 80.4302 138.06 81.3302 137.12 81.4902C136.44 81.6102 136.27 81.3902 136.02 81.0502C134.76 79.3702 133.78 77.6102 132.22 76.1602C132.13 76.0802 130.83 74.9202 130.95 74.8302C131.07 74.7402 131.09 76.9902 131 76.6402L131.07 76.3802C130.98 76.6302 131 76.6002 131.13 76.2902C131.52 75.5402 131.29 75.9802 131.25 76.0502C131.61 75.4202 132.14 74.8302 132.66 74.3302C135.99 71.1102 140.64 70.4002 144.44 67.9602C146.53 66.6202 148.34 64.8702 150.01 63.0502C151.87 61.0202 153.98 58.8102 154.5 56.0002C154.88 53.9602 154.73 50.4102 152.09 50.0402C150.42 49.8102 148.52 50.5602 146.99 51.1302C144.52 52.0402 142.24 53.7002 139.63 54.1902C138.56 54.3902 137.34 54.4802 136.31 54.0602C135.84 53.8702 135.56 53.6002 135.22 53.2802C134.88 52.9602 135.54 53.6702 135.08 53.0402C135.16 53.3002 135.15 53.2602 135.06 52.9302C135.11 53.0802 135.14 53.2302 135.14 53.3902C134.93 48.4302 132.63 43.8502 129.29 40.2202C128.3 39.1402 127.52 40.4502 127.26 41.4302C126.93 42.6802 126.82 44.9802 127.79 46.0502L127.67 46.0402Z" fill="#1D1D1B"/>
<path d="M148.54 40.9704C149.39 42.0504 150.58 42.9204 151.63 43.7904C153.38 45.2504 155.14 46.6804 156.88 48.1504C158.73 49.7104 160.58 51.3004 162.29 53.0104C163.64 54.3504 164.82 55.8304 166.16 57.1804C168.82 59.8504 171.98 62.7304 175.74 63.6804C180.33 64.8504 182.02 59.9304 182.35 56.2604C182.81 51.1104 181.81 46.2804 179.13 41.8704C178.75 41.2404 178.35 40.6304 177.97 40.0004C177.91 39.9004 177.76 39.6004 178 40.0604C177.92 39.9104 177.84 39.7604 177.76 39.6004C177.7 39.4804 177.65 39.3504 177.59 39.2204C177.74 39.7304 177.29 38.6204 177.59 39.2204C177.42 38.6504 177.69 40.2604 177.68 40.1704C177.68 39.9104 177.74 39.6204 177.64 40.6004C177.7 39.9904 177.52 41.4004 177.62 40.7704C177.51 41.4204 177.48 41.0904 177.62 40.8704C178.07 40.1404 178.31 39.2904 178.41 38.4504C178.61 36.8204 178.43 34.4304 176.86 33.4704C176.09 33.0004 175.06 32.8504 174.18 32.7404C171.28 32.3904 168.28 32.6004 165.37 32.8104C159.99 33.2004 154.61 33.8504 149.28 34.6804C147.07 35.0204 147.4 41.7204 149.28 41.4304C153.38 40.7904 157.5 40.2804 161.62 39.8804C164.68 39.5804 167.76 39.3404 170.84 39.3304C172 39.3304 173.17 39.3504 174.33 39.5104C174.76 39.5704 175.19 39.6404 175.61 39.7604C175.17 39.6404 175.71 39.8004 175.8 39.8404C175.95 39.9204 176.09 40.0204 176.23 40.0904C176.18 40.0604 176.07 39.9304 175.99 39.7904C175.6 39.1104 175.5 38.2604 175.5 37.4904C175.5 37.6504 175.63 35.6404 175.85 35.4804C175.4 35.8304 175.14 37.0504 175.02 37.5304C174.48 39.6404 174.64 41.9704 175.48 43.9804C176.03 45.2904 176.88 46.4704 177.61 47.6804C178.27 48.7604 178.91 50.2804 179.26 51.5404C179.51 52.4404 179.21 50.9704 179.34 51.9404C179.37 52.1504 179.4 52.3704 179.42 52.5804C179.42 52.6004 179.48 53.6804 179.46 53.0504C179.46 53.2904 179.47 53.5404 179.46 53.7804C179.46 54.4704 179.44 54.4504 179.37 55.1204C179.26 56.1504 179.41 54.8104 179.33 55.3704C179.3 55.5104 179.27 55.6404 179.23 55.7804C179.33 55.5204 179.33 55.5304 179.21 55.8204C179.05 56.2704 178.93 56.4904 178.46 56.7504C177.95 57.0404 177.58 57.1304 176.89 57.1004C173.69 56.9604 170.53 54.0704 168.33 52.0104C166.93 50.7004 165.74 49.1904 164.4 47.8104C162.6 45.9404 160.65 44.2004 158.68 42.5104C156.71 40.8204 154.9 39.3504 153 37.7704C152.32 37.2104 151.64 36.6404 150.97 36.0604C150.86 35.9604 150.12 35.2704 150.44 35.6004C150.29 35.4504 150.13 35.2904 150 35.1204C149.07 33.9404 148.2 35.4404 147.97 36.3304C147.61 37.6804 147.58 39.7704 148.5 40.9504L148.54 40.9704Z" fill="#1D1D1B"/>
<path d="M200.05 40.2204C197.49 44.1604 195.86 48.7804 196.52 53.5404C196.93 56.4804 198.44 58.7904 199.69 61.4104C200.05 62.1804 200.5 63.2604 200.63 63.7104C201 64.9704 201.02 65.2304 201.17 66.6004C201.21 66.9304 201.24 67.2604 201.27 67.5904C201.27 67.4904 201.34 68.8704 201.33 68.3304C201.32 67.8904 201.32 68.8304 201.32 68.8004C201.32 68.0604 201.33 68.4804 201.32 68.6604C201.26 69.6004 201.49 68.2404 201.26 69.0104C201.18 69.2804 201.1 69.5604 201.04 69.8404C200.52 71.9604 200.65 74.2904 201.84 76.1804C203.03 78.0704 204.94 79.9404 206.74 81.2304C208.3 82.3504 210.04 82.8404 211.91 83.1404C212.53 83.2404 212.78 83.2504 213.24 83.5404C213.59 83.7604 213.24 83.6804 213.33 83.5304C213.34 83.5104 213.63 84.3404 213.43 83.7304C213.62 84.3104 213.41 83.3804 213.52 84.1704C213.85 86.5504 214.24 89.0904 215.33 91.2604C216.1 92.7904 217.3 94.2504 219.15 94.2804C221.46 94.3104 223.15 92.3004 225.43 92.2004C227.71 92.1004 229.61 93.8604 231.31 95.2204C233.01 96.5804 234.28 98.0504 235.83 99.4204C237.06 100.51 238.61 101.13 240.08 100.09C242.1 98.6604 243.37 95.8804 243.9 93.5404C244.43 91.2004 244.37 89.0304 244.06 86.7804C244.02 86.4804 243.97 86.1904 243.94 85.8904C243.94 85.8204 243.94 85.4004 243.88 85.3604C243.89 85.3704 243.91 86.2804 243.92 85.7704C243.92 86.2304 243.87 86.6904 243.71 87.1304C243.65 87.3004 243.58 87.8204 243.54 87.5604C243.57 87.7604 243.22 87.7404 243.56 87.6004C243.83 87.4904 243.63 87.5304 243.89 87.4604C245.86 86.9204 248.42 87.5904 250.39 87.9004C251.88 88.1404 253.46 88.6104 254.98 88.5604C258.94 88.4404 258.15 82.0704 257.5 79.5504C257.11 78.0304 256.14 76.8704 255.04 75.7904C251.51 72.3204 247.36 69.4604 243.32 66.6304C237.77 62.7604 232.1 59.0604 226.4 55.4204C218.22 50.2004 209.95 45.1004 201.62 40.1204C201.47 40.0304 201.33 39.9504 201.18 39.8604C199.37 38.7804 198.58 45.2904 200.39 46.3704C206.93 50.2604 213.41 54.2504 219.86 58.2904C230.05 64.6804 240.39 71.0804 249.87 78.5104C250.69 79.1504 251.5 79.8104 252.29 80.4904C252.61 80.7704 252.93 81.0504 253.25 81.3404C253.33 81.4204 253.88 81.9404 253.46 81.5304C253.6 81.6704 253.74 81.8104 253.88 81.9504C254.31 82.3904 254.67 82.8604 255.06 83.3304C255.49 83.8604 254.85 82.8004 255.09 83.3904C255.22 83.7104 254.74 82.5404 254.95 83.0104C254.92 82.8204 254.76 82.6004 254.95 83.0104C254.98 83.2404 255 83.4804 255.05 83.7104C255.14 84.1704 255.09 82.8704 255.05 83.1504C255.12 82.6104 255.42 81.9504 255.52 81.7704C255.61 81.6204 255.21 81.7804 255.52 81.7604C255.29 81.7804 255.07 81.8104 254.83 81.8104C253.35 81.8004 251.85 81.3804 250.39 81.1504C248.36 80.8204 246.04 80.3004 243.99 80.6904C242.21 81.0204 241.43 82.3204 241.11 84.0404C240.79 85.7604 241.07 87.4804 241.27 89.2204C241.29 89.4104 241.31 89.6004 241.33 89.7904C241.32 89.6804 241.34 89.0004 241.32 89.6104C241.32 89.7704 241.32 89.9504 241.32 90.1104C241.35 90.9804 241.22 89.3704 241.3 90.2604C241.31 90.3904 241.16 90.8304 241.3 90.2704C241.25 90.4604 241.21 90.6504 241.15 90.8304C241.27 90.4704 241.03 91.0904 241 91.1604C240.87 91.4404 240.73 91.7104 240.57 91.9704C239.73 93.3604 238.74 94.4804 237.27 93.4504C235.8 92.4204 234.68 90.8204 233.27 89.6504C231.59 88.2604 229.81 86.5804 227.72 85.8504C225.22 84.9704 223.26 85.9304 221.03 87.0304C219.78 87.6504 218.39 87.7604 217.62 86.7804C217.33 86.4104 217.06 85.7204 216.96 85.3504C216.62 84.1404 216.56 83.5804 216.38 82.3804C216.11 80.5804 215.71 78.0304 213.96 76.9904C212.83 76.3204 211.39 76.4204 210.15 76.0604C207.96 75.4304 206.29 73.7804 204.78 72.1504C204.25 71.5804 203.84 70.9004 203.32 70.3504C203.71 70.7704 203.32 70.2304 203.48 70.6704C203.64 71.1404 203.7 71.6304 203.7 72.1204C203.7 72.4504 203.4 73.8604 203.65 72.9904C204.86 68.9404 204.33 64.0104 203.09 60.0104C202.41 57.8104 201.38 55.7804 200.3 53.7604C200.03 53.2604 199.7 52.7404 199.5 52.2004C199.45 52.0704 199.26 51.3304 199.35 51.7204C199.31 51.5504 199.35 51.0904 199.37 50.9604C199.43 50.6004 199.64 49.8404 199.69 49.7004C199.97 48.8604 200.37 48.0504 200.78 47.2804C201.16 46.5604 200.57 47.6104 200.94 46.9904C201.01 46.8804 201.08 46.7604 201.15 46.6504C201.28 46.4504 201.41 46.2504 201.54 46.0404C202.39 44.7404 202.46 42.9004 202.07 41.4204C201.86 40.6404 200.9 38.8904 200.04 40.2104L200.05 40.2204Z" fill="#1D1D1B"/>
<path d="M267.65 94.0302C264.07 92.2402 259.2 91.3102 255.53 93.2902C251.86 95.2702 250.31 100.18 249.84 104.2C249.5 107.17 249.5 110.16 249.06 113.12C249.01 113.43 248.96 113.73 248.91 114.04C248.89 114.15 248.79 114.65 248.91 114.09C248.81 114.6 248.7 115.11 248.57 115.61C248.47 116.01 248.35 116.41 248.23 116.81C248.18 116.97 248 117.44 248.23 116.81C248.14 117.05 248.06 117.29 247.96 117.52C247.73 118.09 247.47 118.65 247.19 119.19C247.12 119.32 247.05 119.46 246.97 119.59C246.72 120.06 247.24 119.12 246.98 119.57C246.84 119.82 246.69 120.06 246.55 120.31C245.89 121.43 245.23 122.55 244.75 123.76C243.98 125.7 243.71 127.69 243.15 129.68C242.69 131.33 241.62 133.25 240.78 135.02C239.75 137.16 239.26 139.49 239.57 141.87C239.92 144.51 241.35 146.56 243.24 148.35C245.49 150.48 248.03 152.31 250.63 153.98C252.34 155.07 254.3 156.12 255.73 157.51C258.77 160.46 258.72 164.97 260.4 168.91C261.35 171.14 262.9 172.98 264.85 174.41C266.07 175.31 267.44 175.98 268.68 176.85C269.83 177.66 270.88 178.58 271.9 179.53C273.23 180.77 274.7 182.31 276.69 182.22C278.48 182.14 280.64 180.96 281.77 179.56C283.66 177.23 284.13 173.7 284.42 170.83C285.27 162.57 284.48 154.09 283.55 145.87C283.2 142.75 282.79 139.64 282.32 136.55C282.08 135 281.88 133.42 281.41 131.91C279.5 125.81 277.25 119.81 275.1 113.79C272.95 107.77 270.83 101.88 268.68 95.9302C268.55 95.5802 268.43 95.2302 268.3 94.8902C267.84 93.6102 266.71 93.7802 266.2 94.8902C265.53 96.3502 265.67 98.1902 266.2 99.6602C270.09 110.41 274 121.17 277.72 131.98C277.83 132.31 277.95 132.65 278.06 132.98C278.3 133.69 277.9 132.51 278.14 133.21C278.3 133.7 278.47 134.18 278.63 134.67C278.8 135.21 278.96 135.75 279.12 136.29C279.34 137.08 278.98 135.47 279.1 136.15C279.17 136.56 279.24 136.98 279.31 137.39C279.5 138.54 279.67 139.7 279.83 140.85C280.3 144.21 280.71 147.58 281.04 150.96C281.23 152.91 281.4 154.86 281.53 156.81C281.55 157.08 281.56 157.35 281.58 157.62C281.64 158.5 281.55 157.11 281.58 157.66C281.61 158.15 281.63 158.64 281.65 159.13C281.69 160.1 281.73 161.06 281.75 162.03C281.79 163.89 281.73 165.74 281.68 167.59C281.67 168.1 281.75 166.73 281.68 167.49C281.66 167.71 281.65 167.94 281.63 168.16C281.6 168.52 281.57 168.88 281.53 169.23C281.49 169.58 281.45 169.91 281.4 170.25C281.37 170.45 281.34 170.64 281.31 170.84C281.18 171.72 281.42 170.44 281.29 170.96C281.16 171.51 281 172.06 280.87 172.62C280.74 173.18 281.15 172.03 280.9 172.52C280.85 172.63 280.81 172.75 280.76 172.86C280.71 172.97 280.66 173.07 280.62 173.18C280.39 173.76 280.82 172.93 280.61 173.23C280.49 173.39 280.38 173.56 280.26 173.72C280.2 173.81 280.11 173.89 280.04 173.97C280.06 173.95 280.4 173.67 280.16 173.85C279.31 174.47 278.3 175.17 277.25 175.39C275.52 175.76 274.29 174.51 273.11 173.41C271.06 171.5 268.92 170.04 266.57 168.53C264.76 167.37 263.25 165.9 262.49 164.12C262.39 163.89 262.3 163.65 262.21 163.41C262.39 163.89 262.2 163.36 262.16 163.24C262.02 162.77 261.89 162.31 261.76 161.84C261.49 160.81 261.23 159.77 260.91 158.75C260.21 156.51 259.38 154.22 257.86 152.38C256.6 150.86 254.98 149.73 253.33 148.68C251.06 147.23 248.8 145.79 246.69 144.12C245.63 143.28 244.56 142.42 243.64 141.42C243.25 140.99 242.87 140.54 242.56 140.05C242.54 140.01 242.31 139.66 242.5 139.95C242.43 139.82 242.37 139.68 242.32 139.54C242.43 139.89 242.44 139.93 242.36 139.63C242.66 140.71 242.41 139.39 242.43 140.13C242.43 140.27 242.36 141.34 242.43 140.74C242.29 141.95 242.71 140.1 242.38 140.94C242.71 140.11 243.11 139.33 243.51 138.54C244.56 136.48 245.47 134.34 245.97 132.07C246.17 131.18 246.31 130.28 246.56 129.4C246.62 129.19 246.97 128.22 246.67 129C246.79 128.68 246.91 128.37 247.04 128.06C247.26 127.55 247.52 127.06 247.78 126.58C247.97 126.23 247.71 126.7 247.69 126.74C247.76 126.62 247.83 126.5 247.9 126.37C248.04 126.13 248.19 125.88 248.33 125.64C250.11 122.6 251.14 119.43 251.74 115.96C252.26 112.94 252.4 109.9 252.6 106.85C252.59 107 252.55 107.35 252.62 106.66C252.65 106.32 252.69 105.98 252.73 105.64C252.73 105.64 252.9 104.57 252.78 105.19C252.82 104.99 252.86 104.8 252.91 104.61C252.97 104.33 253.05 104.06 253.13 103.78C253.37 102.94 252.93 104.24 253.23 103.46C253.4 103.01 253.6 102.56 253.83 102.14C253.66 102.45 254.14 101.69 254.23 101.56C254.43 101.29 254.65 101.03 254.88 100.79C255.05 100.61 255.93 99.9702 256.45 99.7002C257.53 99.1502 258.58 98.9602 259.89 98.9302C262.1 98.8802 264.07 99.3902 265.8 100.07C266.15 100.21 266.5 100.35 266.83 100.52C268.8 101.51 269.47 94.9402 267.62 94.0102L267.65 94.0302Z" fill="#1D1D1B"/>
<path d="M158.06 35.5902C156.13 35.2902 154.2 35.0102 152.27 34.7802C150.34 34.5502 148.43 34.4302 146.46 34.3802C142.58 34.2902 138.72 34.4102 134.85 34.7002C127 35.2902 119.19 36.4802 111.54 38.3602C97.5401 41.7902 83.3301 47.0602 71.9101 56.0502C61.9301 63.9002 54.0301 74.4002 48.0601 85.5402C41.7901 97.2402 37.4001 109.84 34.2601 122.71C30.6001 137.69 29.1401 153.29 30.2501 168.69C31.3601 184.09 35.0301 199.86 41.7701 214.06C48.0001 227.2 56.5101 239.05 66.7401 249.37C76.9701 259.69 88.2201 267.91 100.54 274.92C114.07 282.63 128.74 288.47 144 291.65C159.26 294.83 173.44 295.4 188.1 292.99C200.12 291.02 211.82 287.19 222.62 281.54C233.42 275.89 243 268.83 251.51 260.45C260.07 252.02 267.48 242.34 273.38 231.88C279.28 221.42 284.05 209.33 287.03 197.18C290.34 183.68 291.41 169.56 290.32 155.72C289.1 140.22 285.33 124.94 279.1 110.69C273.17 97.1202 265.13 84.5502 255.27 73.5102C245.41 62.4702 234.91 54.1702 222.79 47.0002C210.67 39.8302 198.21 34.8902 184.9 31.8202C171.59 28.7502 157.45 27.6202 143.66 29.0302C140.39 29.3702 137.13 29.8502 133.9 30.4902C131.78 30.9102 129.71 31.3802 127.65 32.0102C125.59 32.6402 123.71 33.4302 121.72 34.0202C120.85 34.2802 120.15 35.5302 119.88 36.2802C119.48 37.3802 119.38 38.8602 119.65 40.0102C120.12 41.9602 121.39 43.9502 123.63 43.2902C125.44 42.7602 127.42 42.5202 129.29 42.2202C131.16 41.9202 133.06 41.5202 134.95 41.1902C138.25 40.6202 141.57 40.1702 144.91 39.8502C151.55 39.2302 158.24 39.1702 164.88 39.6502C168.2 39.8902 171.51 40.2602 174.79 40.7702C176.59 41.0502 177.51 41.2102 179.04 41.5002C180.7 41.8302 182.36 42.1802 184.01 42.5702C190.49 44.1002 196.86 46.1402 203.03 48.6302C209.2 51.1202 215.22 54.0902 220.97 57.4702C221.31 57.6702 221.65 57.8702 221.98 58.0702C222.57 58.4202 221.87 57.9902 222.45 58.3602C223.17 58.8102 223.89 59.2602 224.61 59.7202C226.04 60.6402 227.45 61.5902 228.85 62.5602C231.59 64.4702 234.25 66.4802 236.84 68.6002C239.43 70.7202 241.93 72.9202 244.35 75.2202C245.54 76.3502 246.7 77.5002 247.84 78.6702C248.42 79.2602 248.99 79.8602 249.55 80.4602C249.83 80.7602 250.11 81.0602 250.39 81.3702C250.53 81.5202 250.67 81.6702 250.81 81.8302C250.9 81.9302 251.52 82.6202 251.03 82.0702C255.67 87.2502 259.86 92.8402 263.61 98.6902C264.58 100.2 265.51 101.72 266.42 103.27C266.84 103.98 267.25 104.7 267.65 105.42C267.85 105.78 268.05 106.14 268.25 106.5C268.35 106.68 268.45 106.86 268.55 107.04C268.34 106.64 268.33 106.64 268.55 107.04C270.19 110.15 271.72 113.31 273.13 116.53C274.54 119.75 275.81 123.03 276.95 126.35C277.24 127.2 277.52 128.05 277.8 128.9C277.93 129.29 278.05 129.69 278.17 130.08C278.23 130.28 278.31 130.47 278.35 130.67C278.25 130.26 278.15 129.99 278.32 130.56C278.8 132.21 279.27 133.87 279.69 135.54C280.56 138.94 281.29 142.38 281.88 145.84C282.21 147.79 282.5 149.74 282.74 151.7C282.78 152.06 282.9 153.17 282.8 152.21C282.85 152.7 282.9 153.19 282.95 153.68C283.05 154.74 283.14 155.81 283.22 156.87C283.52 161.05 283.61 165.24 283.5 169.42C283.48 170.26 283.45 171.1 283.41 171.94C283.39 172.35 283.37 172.75 283.35 173.16C283.28 174.43 283.41 172.33 283.35 173.27C283.25 174.72 283.13 176.16 282.98 177.6C282.68 180.53 282.27 183.44 281.76 186.34C281.5 187.81 281.21 189.28 280.9 190.74C280.76 191.41 280.61 192.09 280.45 192.76C280.37 193.1 280.29 193.43 280.21 193.76C280.16 193.98 279.85 195.21 280.05 194.44C280.25 193.67 279.97 194.76 279.92 194.95C279.83 195.28 279.75 195.61 279.66 195.95C279.45 196.72 279.24 197.49 279.01 198.26C278.61 199.63 278.19 201 277.75 202.35C276.85 205.11 275.85 207.84 274.76 210.53C274.23 211.85 273.67 213.15 273.1 214.45C272.8 215.12 272.5 215.8 272.18 216.46C272.11 216.62 271.65 217.6 271.94 216.98C272.23 216.36 271.71 217.46 271.62 217.65C270.35 220.24 268.99 222.79 267.55 225.29C264.67 230.27 261.46 235.06 257.94 239.61C257.53 240.14 257.1 240.67 256.69 241.2C256.38 241.59 256.84 241.01 256.86 240.99C256.75 241.12 256.65 241.25 256.54 241.38C256.29 241.68 256.04 241.99 255.79 242.29C254.85 243.41 253.9 244.52 252.92 245.6C251.01 247.73 249.02 249.8 246.96 251.79C242.85 255.77 238.46 259.46 233.82 262.82C233.27 263.21 232.72 263.6 232.17 263.99C231.89 264.18 231.61 264.37 231.34 264.56C230.97 264.82 231.44 264.49 231.49 264.46C231.3 264.59 231.12 264.71 230.93 264.84C229.71 265.65 228.48 266.44 227.24 267.2C224.79 268.7 222.29 270.11 219.73 271.42C214.58 274.06 209.23 276.31 203.73 278.13C200.95 279.05 198.13 279.86 195.28 280.56C194.94 280.64 194.61 280.72 194.27 280.8C194.87 280.66 194.06 280.85 193.86 280.89C193.12 281.05 192.38 281.21 191.64 281.36C190.15 281.66 188.66 281.92 187.16 282.16C180.51 283.21 173.77 283.64 167.03 283.49C151.89 283.14 137.32 279.87 123.16 274.38C116.06 271.63 109.16 268.34 102.53 264.59C101.83 264.2 101.14 263.8 100.45 263.39C100.05 263.15 99.6401 262.92 99.2401 262.68C99.0701 262.58 98.9001 262.47 98.7201 262.37C98.5701 262.28 98.2001 262.06 98.5601 262.27C97.1301 261.4 95.7201 260.51 94.3301 259.59C91.4801 257.72 88.6801 255.76 85.9601 253.72C80.5201 249.63 75.3401 245.17 70.5201 240.36C69.2901 239.14 68.0901 237.89 66.9101 236.62C66.3701 236.03 65.8301 235.45 65.3001 234.85C65.7601 235.37 65.1201 234.64 64.9801 234.48C64.6701 234.13 64.3701 233.78 64.0701 233.42C61.8701 230.85 59.7401 228.23 57.7301 225.5C55.7201 222.77 53.8401 219.98 52.0701 217.1C51.2001 215.69 50.3701 214.26 49.5601 212.81C49.4301 212.58 49.3001 212.35 49.1801 212.11C49.1501 212.06 48.8401 211.48 49.0801 211.92C49.2801 212.29 48.7901 211.36 48.7001 211.2C48.2701 210.38 47.8501 209.55 47.4501 208.72C45.8101 205.38 44.3401 201.95 43.0501 198.46C42.4201 196.76 41.8301 195.05 41.2801 193.32C41.1501 192.91 41.0201 192.49 40.8901 192.08C41.1401 192.91 40.7501 191.59 40.6901 191.37C40.4301 190.46 40.1801 189.56 39.9401 188.64C39.0001 185.07 38.2301 181.45 37.6201 177.81C37.3201 176.02 37.0601 174.23 36.8301 172.44C36.7901 172.15 36.6801 171.15 36.7701 171.97C36.7101 171.46 36.6601 170.96 36.6101 170.45C36.5201 169.51 36.4301 168.57 36.3601 167.63C36.0701 163.93 35.9401 160.22 35.9501 156.52C35.9501 154.7 35.9901 152.88 36.0701 151.06C36.1101 150.19 36.1501 149.32 36.2001 148.44C36.2501 147.56 36.2201 148.13 36.2001 148.33C36.2201 148.11 36.2301 147.89 36.2501 147.67C36.2901 147.16 36.3301 146.65 36.3701 146.14C36.9801 138.72 38.0901 131.36 39.7401 124.1C39.9301 123.27 40.1201 122.45 40.3201 121.63C40.4101 121.28 40.4901 120.93 40.5801 120.58C40.4201 121.23 40.6801 120.18 40.7301 119.98C41.1301 118.45 41.5401 116.92 41.9801 115.4C42.8401 112.39 43.7901 109.41 44.8301 106.45C48.9101 94.8202 54.2401 83.6302 62.0701 73.9102C65.8701 69.1902 70.2301 64.8902 75.0401 61.2102C80.2801 57.2002 86.1001 54.2002 92.1601 51.6302C106.11 45.7102 121.06 42.1302 136.15 40.7402C139.78 40.4102 143.44 40.1602 147.08 40.0002C150.72 39.8402 154.47 39.5402 158.19 39.4202C159.98 39.3602 159.75 35.7902 158.09 35.5302L158.06 35.5902Z" fill="#1D1D1B"/>
</g>
<defs>
<clipPath id="clip0_3416_9914">
<rect width="323.5" height="323.5" fill="white"/>
</clipPath>
</defs>
</svg>
