<svg width="244" height="248" viewBox="0 0 244 248" fill="none" xmlns="http://www.w3.org/2000/svg">
<g clip-path="url(#clip0_3416_10012)">
<path d="M32.7 53.3597C53.46 58.6497 74.88 61.2997 96.3 61.2397C117.66 61.1797 138.96 58.4097 159.66 53.1197C171.21 50.1697 182.55 46.3797 193.55 41.7897C195.85 40.8297 196.36 37.2597 195.85 35.1397C195.38 33.2097 193.84 30.4897 191.43 31.4997C172.17 39.5397 152.17 45.0097 131.61 47.9397C111.05 50.8697 89.58 51.3297 68.66 49.1197C56.95 47.8897 45.73 45.8797 34.33 42.9697C31.92 42.3597 30.37 44.6497 30.09 46.8197C29.84 48.7597 30.25 52.7297 32.71 53.3497L32.7 53.3597Z" fill="#1D1D1B"/>
<path d="M8.46998 147.03C38.69 144.77 68.91 142.5 99.12 140.24C129.17 137.99 159.22 135.74 189.28 133.48C206.22 132.21 223.15 130.94 240.09 129.67C242.58 129.48 243.59 126.34 243.48 124.22C243.38 122.33 242.39 118.75 239.83 118.95C209.61 121.21 179.39 123.48 149.18 125.74C118.97 128 89.08 130.24 59.02 132.5C42.08 133.77 25.15 135.04 8.20998 136.31C5.71998 136.5 4.70998 139.64 4.81998 141.76C4.91998 143.65 5.90998 147.23 8.46998 147.03Z" fill="#1D1D1B"/>
<path d="M68.2 228.68C70.13 227.19 72.11 225.76 74.11 224.37C75.13 223.66 73.79 224.58 74.4 224.17C74.67 223.99 74.93 223.81 75.2 223.63C75.63 223.35 76.06 223.06 76.49 222.79C77.57 222.09 78.66 221.41 79.76 220.74C83.94 218.2 88.26 215.88 92.68 213.79C101.51 209.61 110.76 206.33 120.24 203.95C122.6 203.36 124.31 202.97 126.91 202.46C129.27 201.99 131.64 201.58 134.02 201.22C138.91 200.49 143.83 199.99 148.77 199.72C158.64 199.19 168.55 199.6 178.34 200.99C183.56 201.73 188.4 202.7 193.79 204.12C199.18 205.54 204.48 207.27 209.66 209.31C212 210.23 213.65 207.39 213.9 205.46C214.18 203.25 213.69 199.88 211.28 198.93C192.53 191.54 172.15 188.23 152.02 188.85C131.89 189.47 111.89 193.94 93.55 202.12C83.2 206.73 73.41 212.58 64.44 219.5C60.96 222.18 63.59 232.23 68.22 228.67L68.2 228.68Z" fill="#1D1D1B"/>
<path d="M104.48 12.35C109.94 41.17 115.42 69.98 120.84 98.81C126.26 127.64 131.41 155.82 135.83 184.47C138.32 200.57 140.55 216.72 142.43 232.91C142.66 234.89 144.62 237.51 146.85 236.55C149.31 235.49 149.4 232.08 149.15 229.9C145.79 200.95 141.28 172.15 136.26 143.45C131.26 114.84 125.77 86.32 120.37 57.79C117.31 41.64 114.26 25.5 111.2 9.34995C110.83 7.40995 109.1 4.70995 106.78 5.70995C104.46 6.70995 104.08 10.22 104.48 12.36V12.35Z" fill="#1D1D1B"/>
<path d="M133.98 15.5501C139.42 19.0701 144.42 23.2401 148.89 27.9301C149.45 28.5201 150 29.1201 150.56 29.7301C150.89 30.0901 150.5 29.6601 150.46 29.6101C150.58 29.7501 150.71 29.8901 150.83 30.0301C151.12 30.3601 151.41 30.6901 151.69 31.0301C152.75 32.2801 153.77 33.5501 154.77 34.8401C156.73 37.3901 158.56 40.0401 160.28 42.7601C161.16 44.1501 162.01 45.5601 162.83 46.9901C163.21 47.6501 163.58 48.3101 163.95 48.9801C164.03 49.1301 164.56 50.1001 164.3 49.6201C164.04 49.1401 164.33 49.6801 164.37 49.7601C164.49 49.9901 164.61 50.2101 164.73 50.4401C166.24 53.3201 167.65 56.2601 168.97 59.2401C171.64 65.2801 173.94 71.4801 175.97 77.7601C176.21 78.4901 176.44 79.2201 176.67 79.9501C176.78 80.3201 176.9 80.6801 177.01 81.0501C177.05 81.1601 177.24 81.7901 177.04 81.1501C176.84 80.5101 177.09 81.3001 177.12 81.4301C177.6 83.0101 178.05 84.6001 178.5 86.1901C179.52 89.8101 180.46 93.4601 181.37 97.1101C183.35 105.11 185.07 113.17 186.55 121.28C188.01 129.3 189.23 137.37 190.2 145.46C190.26 145.94 190.31 146.41 190.37 146.89C190.4 147.13 190.42 147.37 190.45 147.6C190.45 147.52 190.35 146.74 190.42 147.37C190.54 148.48 190.66 149.59 190.78 150.71C190.98 152.7 191.17 154.69 191.35 156.67C191.71 160.81 192.01 164.95 192.25 169.1C192.71 177.23 192.92 185.38 192.88 193.53C192.86 197.6 192.78 201.68 192.64 205.75C192.57 207.83 192.48 209.9 192.37 211.97C192.32 212.93 192.27 213.88 192.21 214.84C192.18 215.32 192.15 215.8 192.12 216.28C192.08 216.92 192.12 216.13 192.14 216.05C192.12 216.37 192.1 216.69 192.08 217.01C191.94 219.08 191.78 221.15 191.61 223.22C191.43 225.45 191.74 228.82 194.23 229.75C196.54 230.62 198.31 227.86 198.47 225.9C199.87 208.94 200.29 191.92 199.58 174.91C198.87 157.91 197.1 140.94 194.3 124.16C191.69 108.55 188.25 93.0101 183.68 77.8601C179.64 64.4801 174.62 51.4301 167.63 39.2901C160.95 27.7001 152.25 17.0301 141.44 9.06007C140.1 8.07007 138.72 7.12007 137.32 6.22007C136.45 5.66007 135.62 5.30007 134.59 5.75007C133.63 6.17007 132.86 7.31007 132.55 8.27007C131.88 10.3201 131.85 14.1901 133.99 15.5701L133.98 15.5501Z" fill="#1D1D1B"/>
<path d="M63.94 22.8099C63.84 24.4099 64.02 21.7099 63.91 23.2999C63.88 23.7799 63.85 24.2599 63.81 24.7399C63.75 25.5399 63.7 26.3399 63.63 27.1399C63.5 28.8999 63.35 30.6699 63.19 32.4299C62.88 35.9599 62.52 39.4899 62.14 43.0099C61.36 50.1499 60.47 57.2799 59.56 64.4099C57.75 78.5599 55.86 92.6999 54.67 106.91C53.48 121.22 52.91 135.61 53.91 149.95C54.91 164.29 57.49 178.29 61.51 192.04C65.99 207.4 71.8 222.31 77.66 237.18C78.41 239.07 80.74 240.77 82.52 238.99C84.3 237.21 84.52 233.96 83.6 231.62C78.48 218.63 73.35 205.63 69.2 192.29C69.11 191.99 69.01 191.69 68.92 191.38C68.46 189.88 69.2 192.34 68.75 190.84C68.52 190.08 68.3 189.32 68.08 188.57C67.57 186.83 67.09 185.08 66.62 183.32C65.75 180.04 64.96 176.74 64.25 173.42C63.54 170.1 62.9 166.57 62.38 163.12C62.12 161.38 61.88 159.63 61.67 157.89C61.63 157.57 61.59 157.26 61.56 156.94C61.7 158.2 61.53 156.61 61.51 156.46C61.41 155.51 61.32 154.55 61.23 153.6C60.61 146.62 60.37 139.6 60.42 132.59C60.44 129.16 60.54 125.73 60.69 122.3C60.76 120.62 60.85 118.95 60.95 117.27C60.95 117.12 61.06 115.52 60.98 116.78C61 116.46 61.02 116.14 61.04 115.82C61.1 114.86 61.17 113.9 61.25 112.94C62.31 98.7999 64.13 84.7399 65.94 70.6899C68 54.6999 69.97 38.7099 70.96 22.6199C71.08 20.5999 69.72 17.2899 67.31 17.3499C64.65 17.4199 64.04 20.8199 63.92 22.7999L63.94 22.8099Z" fill="#1D1D1B"/>
<path d="M25.79 188.34C24.03 185.88 22.36 183.37 20.79 180.79C20.42 180.19 20.06 179.58 19.71 178.98C19.63 178.84 19.2 178.09 19.34 178.34C19.54 178.68 19.25 178.18 19.23 178.15C19.12 177.95 19 177.74 18.89 177.54C18.18 176.27 17.5 174.99 16.84 173.69C15.51 171.07 14.28 168.4 13.14 165.69C12.59 164.37 12.06 163.04 11.56 161.71C11.32 161.07 11.09 160.43 10.86 159.78C10.75 159.46 10.64 159.14 10.52 158.81C10.35 158.33 10.61 159.07 10.62 159.1C10.55 158.88 10.48 158.67 10.4 158.45C9.48999 155.71 8.68999 152.95 7.97999 150.15C7.63999 148.79 7.31999 147.42 7.01999 146.04C6.86999 145.33 6.71999 144.61 6.57999 143.9C6.54999 143.74 6.51999 143.57 6.47999 143.4C6.47999 143.4 6.66999 144.42 6.56999 143.86C6.49999 143.47 6.42999 143.09 6.35999 142.7C5.88999 139.95 5.50999 137.18 5.22999 134.4C5.08999 132.96 5.00999 131.51 4.87999 130.07C4.87999 130.02 4.94999 131.28 4.91999 130.67C4.91999 130.5 4.89999 130.34 4.88999 130.17C4.86999 129.84 4.85999 129.5 4.83999 129.17C4.80999 128.45 4.77999 127.73 4.76999 127C4.69999 124.17 4.72999 121.34 4.85999 118.51C4.87999 118.18 4.88999 117.85 4.90999 117.51C4.95999 116.5 4.82999 118.63 4.90999 117.62C4.95999 116.9 5.00999 116.18 5.06999 115.47C5.18999 114.09 5.32999 112.71 5.48999 111.34C5.64999 109.97 5.85999 108.48 6.07999 107.06C6.17999 106.4 6.28999 105.75 6.39999 105.09C6.43999 104.85 6.42999 104.3 6.56999 104.11C6.56999 104.1 6.36999 105.14 6.47999 104.58C6.51999 104.36 6.55999 104.14 6.60999 103.93C7.13999 101.21 7.75999 98.5099 8.47999 95.8399C8.84999 94.4499 9.24999 93.0599 9.67999 91.6899C9.87999 91.0499 10.08 90.4199 10.28 89.7899C10.38 89.4699 10.49 89.1599 10.59 88.8399C10.75 88.3599 10.49 89.1199 10.49 89.1399C10.56 88.9299 10.63 88.7199 10.71 88.5099C11.65 85.8299 12.68 83.1899 13.8 80.5899C14.92 77.9899 16.1 75.5099 17.39 73.0299C17.72 72.3799 18.07 71.7399 18.41 71.0999C18.57 70.7999 18.73 70.5099 18.89 70.2199C18.97 70.0699 19.05 69.9299 19.14 69.7799C19.17 69.7199 19.51 69.1199 19.31 69.4699C19.14 69.7599 19.58 68.9999 19.66 68.8699C19.83 68.5799 20 68.2899 20.17 67.9999C20.54 67.3699 20.92 66.7499 21.31 66.1299C27.33 56.4099 34.89 47.4199 43.29 40.0599C52.26 32.1999 62.41 25.6699 73.3 20.8099C84.19 15.9499 94.66 13.1299 105.91 11.6999C117.16 10.2699 128.5 10.4799 139.65 12.2699C150.8 14.0599 161.34 17.3599 171.39 22.1599C181.44 26.9599 191.39 33.5699 199.89 41.2899C209.02 49.5799 217.41 60.1799 223.38 71.1599C226.46 76.8299 229.09 82.7599 231.21 88.8599C231.27 89.0299 231.33 89.1899 231.38 89.3599C231.37 89.3199 231.13 88.6199 231.29 89.0999C231.4 89.4399 231.51 89.7699 231.62 90.0999C231.86 90.8299 232.08 91.5499 232.3 92.2799C232.72 93.6799 233.12 95.0899 233.49 96.4999C233.86 97.9099 234.23 99.4399 234.56 100.92C234.71 101.6 234.86 102.28 235 102.97C235.07 103.31 235.14 103.65 235.2 104C235.23 104.17 235.26 104.35 235.3 104.51C235.23 104.22 235.14 103.6 235.25 104.25C235.76 107.16 236.19 110.08 236.49 113.01C236.64 114.44 236.76 115.88 236.86 117.32C236.87 117.49 236.88 117.66 236.89 117.84C236.93 118.45 236.86 117.23 236.86 117.27C236.86 117.61 236.9 117.96 236.91 118.3C236.94 119.05 236.97 119.79 236.99 120.54C237.07 123.47 237.04 126.4 236.91 129.33C236.89 129.67 236.87 130.02 236.86 130.36C236.86 130.39 236.94 129.17 236.89 129.78C236.88 129.95 236.87 130.12 236.86 130.3C236.81 131.04 236.75 131.79 236.69 132.53C236.57 133.96 236.42 135.38 236.25 136.81C236.08 138.24 235.86 139.77 235.63 141.24C235.52 141.92 235.41 142.6 235.29 143.27C235.18 143.86 235.08 144.12 235.29 143.33C235.19 143.72 235.14 144.12 235.06 144.51C234.49 147.38 233.8 150.22 233.02 153.04C232.64 154.42 232.23 155.8 231.79 157.17C231.69 157.5 231.58 157.83 231.47 158.15C231.42 158.3 231.1 159.29 231.27 158.75C231.44 158.21 231.12 159.19 231.06 159.34C230.93 159.72 230.79 160.1 230.66 160.48C229.66 163.24 228.56 165.97 227.36 168.65C226.16 171.33 224.9 173.88 223.53 176.43C223.17 177.09 222.81 177.75 222.44 178.41C222.74 177.88 222.33 178.61 222.23 178.78C222.03 179.13 221.82 179.48 221.61 179.83C220.87 181.08 220.1 182.32 219.31 183.54C216.09 188.53 212.49 193.27 208.56 197.72C200.37 206.97 190.62 214.89 179.81 221.19C168.85 227.57 156.89 232.18 144.46 234.69C132.03 237.2 119.58 237.68 107.17 236.23C94.76 234.78 82.99 231.46 71.8 226.31C60.61 221.16 49.3 213.62 39.99 204.74C34.74 199.74 30.01 194.2 25.78 188.32C24.37 186.36 22.86 188.89 22.53 190.26C21.98 192.54 21.94 195.65 23.38 197.65C31.89 209.46 42.52 219.79 54.64 227.85C65.38 234.99 77.25 240.27 89.68 243.65C101.98 247 114.83 248.36 127.56 247.66C140.29 246.96 153.34 244.06 165.39 239.25C177.44 234.44 189.01 227.42 198.99 218.83C208.4 210.72 216.6 201.24 223.1 190.65C229.6 180.06 234.52 168.54 237.65 156.5C240.8 144.36 242.2 131.69 241.71 119.16C241.2 106.09 238.79 93.2299 234.45 80.8899C229.79 67.6099 222.74 55.1099 213.85 44.2099C206.23 34.8699 197.2 26.6299 187.16 19.9599C177.12 13.2899 166.74 8.53988 155.54 5.13988C144.34 1.73988 133.1 0.079878 121.61 -0.00012203C110.12 -0.080122 98.42 1.54988 87.3 4.83988C76.18 8.12988 64.55 13.4099 54.44 20.1699C44.33 26.9299 35.14 35.3099 27.46 44.8099C19.78 54.3099 13.94 64.3599 9.48999 75.2999C4.93999 86.4799 1.96999 98.3099 0.719991 110.32C-0.530009 122.33 -0.160009 134.87 2.03999 146.91C4.27999 159.14 8.15999 171.04 13.88 182.1C16.68 187.51 19.85 192.72 23.39 197.67C24.8 199.64 26.31 197.09 26.64 195.73C27.19 193.44 27.23 190.35 25.79 188.34Z" fill="black"/>
</g>
<defs>
<clipPath id="clip0_3416_10012">
<rect width="243.48" height="247.87" fill="white"/>
</clipPath>
</defs>
</svg>
