<svg width="283" height="249" viewBox="0 0 283 249" fill="none" xmlns="http://www.w3.org/2000/svg">
<g clip-path="url(#clip0_3416_10561)">
<path d="M37.9201 117.51C46.6801 116.7 55.3801 115.1 64.0201 113.5C65.7301 113.18 67.7301 113.07 69.3601 112.4C70.0401 112.12 70.6901 111.73 71.3501 111.4C80.0801 106.87 88.7501 102.2 97.4301 97.5698C109.96 90.8898 122.48 84.1998 135.02 77.5398C143.74 72.9098 152.43 68.1998 161.23 63.7398C161.9 63.3998 162.7 63.1298 163.32 62.7198C163.68 62.4798 161.68 63.2998 163.51 62.6598C163.75 62.5798 163.98 62.4798 164.21 62.3798C165.13 61.9698 166.04 61.5198 166.94 61.0698C173.41 57.8798 179.83 54.5898 186.42 51.6598C188.12 50.9098 189.83 50.1798 191.56 49.4998C192.25 49.2298 192.94 48.9698 193.64 48.7298C193.96 48.6198 194.28 48.5098 194.6 48.4098C194.72 48.3698 195.35 48.1898 194.69 48.3798C194.86 48.3298 195.03 48.2798 195.2 48.2298C196.36 47.9098 197.47 47.7098 198.67 47.7598C200.59 47.8398 202.37 48.4198 204.25 48.7298C208.12 49.3598 209.93 45.5198 211.86 42.8898C214.59 39.1598 217.51 35.5698 220.41 31.9698C223.54 28.0898 226.56 23.9898 229.99 20.3698C233.63 16.5298 238.5 13.5698 243.57 12.0398C248.64 10.5098 255.03 9.99977 259.94 12.7398C264.21 15.1198 267.26 18.9998 269.89 23.1998C270.2 23.6898 270.5 24.1898 270.78 24.6898C270.44 24.0898 270.81 24.7598 270.89 24.9098C271.03 25.1598 271.17 25.4198 271.3 25.6698C271.89 26.7898 272.44 27.9398 272.96 29.0898C273.45 30.1798 273.9 31.2898 274.32 32.4098C274.54 32.9898 274.74 33.5698 274.95 34.1498C274.9 34.0198 274.65 33.2298 274.9 33.9998C275.03 34.4198 275.17 34.8298 275.3 35.2498C275.94 37.3198 276.48 39.4298 276.91 41.5598C277.19 42.9598 276.75 40.5698 276.99 41.9498C277.07 42.3998 277.14 42.8498 277.2 43.2998C277.33 44.2198 277.44 45.1298 277.52 46.0598C277.54 46.2898 277.54 46.5298 277.57 46.7598C277.36 45.0198 277.51 45.6698 277.53 46.1098C277.55 46.5498 277.57 46.9698 277.59 47.4098C277.63 48.3398 277.66 49.2798 277.68 50.2098C277.7 51.1398 277.7 52.0498 277.69 52.9698C277.69 53.4498 277.67 53.9298 277.66 54.4098C277.65 54.8898 277.48 56.9498 277.65 55.0498C277.56 56.1298 277.49 57.1998 277.37 58.2698C277.3 58.8498 277.23 59.4198 277.14 59.9998C277.11 60.2098 277.08 60.4198 277.04 60.6298C277.01 60.8398 276.97 61.0498 276.93 61.2698C276.83 61.8098 276.85 61.6998 276.99 60.9398C276.85 60.9598 276.33 63.8098 276.24 64.1598C276.09 64.6998 275.92 65.2298 275.76 65.7698C275.44 66.8698 276.1 64.8798 275.7 65.9698C275.58 66.2898 275.47 66.6098 275.34 66.9298C274.92 68.0098 274.46 69.0798 273.94 70.1198C273.68 70.6498 273.4 71.1798 273.11 71.6898C273.49 71.0298 272.88 72.0498 272.86 72.0898C272.67 72.3998 272.47 72.7098 272.27 73.0098C270.79 75.2398 269.05 77.3298 267.05 79.1098C263.61 82.1998 260.11 85.2298 256.63 88.2598C249.83 94.1898 242.99 100.08 236.15 105.95C234.39 107.46 232.62 108.98 230.85 110.49C229.34 111.78 228.9 113.57 228.23 115.39C225.05 123.97 222.25 132.61 219.67 141.38C218.74 144.55 217.8 147.71 216.85 150.87C216.34 152.56 216.4 154.63 216.85 156.32C217.09 157.23 217.66 158.99 218.9 158.99H233.81C234.93 158.99 236.04 159.11 237.16 159.25C238.58 159.43 239.99 159.67 241.38 159.97C243.16 160.35 244.24 160.64 245.72 161.18C247.35 161.77 248.95 162.51 250.39 163.49C250.72 163.71 251.03 163.95 251.34 164.2C251.46 164.3 251.57 164.41 251.69 164.5C252.28 164.95 251.39 164.17 251.71 164.5C251.97 164.77 252.22 165.05 252.45 165.35C252.56 165.5 252.67 165.65 252.78 165.8C253.16 166.33 253.07 165.92 252.75 165.72C253.23 166.02 252.98 167.33 252.89 165.86C252.91 166.18 253.09 166.58 253.17 166.89C253.26 167.23 253.33 167.58 253.41 167.92C253.44 168.06 253.46 168.21 253.49 168.34C253.02 166.7 253.37 167.66 253.44 168.12C253.55 168.82 253.61 169.51 253.68 170.21C253.75 170.91 253.62 168.64 253.64 169.57C253.64 169.76 253.65 169.95 253.66 170.14C253.66 170.57 253.66 171 253.65 171.42C253.79 170.07 253.63 172.78 253.65 171.42C253.61 171.83 253.57 172.24 253.51 172.65C253.45 173.06 253.05 174.51 253.5 172.87C253.36 173.38 253.28 173.91 253.15 174.42C253.05 174.82 252.94 175.22 252.82 175.61C252.78 175.73 252.57 176.19 252.61 176.28C252.47 175.97 252.94 175.39 252.65 176.14C252.27 177.14 251.88 178.12 251.42 179.09C251.19 179.58 250.95 180.06 250.7 180.54C250.57 180.79 250.44 181.03 250.31 181.28C250.23 181.43 249.86 182.08 250.2 181.48C249.52 182.64 248.8 183.77 248.03 184.88C246.43 187.2 244.65 189.39 242.78 191.5C234.7 200.58 225.35 208.91 215.37 215.86C210.8 219.04 206 221.92 200.96 224.31C196.6 226.38 192.04 227.94 187.48 229.51C178.39 232.63 169.14 235.57 159.63 237.11C155.47 237.79 151.19 238.23 146.98 237.8C146.11 237.71 145.24 237.58 144.38 237.4C143.98 237.31 143.57 237.22 143.18 237.1C143.57 237.21 142.52 236.87 142.35 236.8C140.44 236.05 138.9 234.79 137.32 233.5C135.22 231.78 133.24 229.94 131.5 227.86C130.77 226.99 130.09 226.08 129.48 225.13C129.3 224.85 129.12 224.56 128.95 224.27C129.03 224.4 129.26 224.89 128.95 224.25C128.67 223.67 128.38 223.11 128.14 222.51C128.1 222.42 127.92 222.06 127.92 221.93L128.09 222.44C128.03 222.25 127.97 222.05 127.91 221.85C127.86 221.66 127.81 221.46 127.76 221.26C127.46 220.22 127.9 222.44 127.76 221.37C127.74 221.17 127.7 220.97 127.68 220.78C127.61 220.12 127.92 219.81 127.68 221.02C127.71 220.86 127.68 220.57 127.68 220.42C127.65 219.35 127.53 221.64 127.66 220.64C127.7 220.33 127.74 220.03 127.77 219.72C127.88 218.85 127.76 220.03 127.7 220.08C127.91 219.87 127.97 218.99 128.06 218.67C128.15 218.35 128.19 217.53 128.06 218.62C128.08 218.45 128.22 218.19 128.27 218.04C128.49 217.44 128.74 216.85 128.99 216.27C129.43 215.25 129.92 214.25 130.43 213.26C130.69 212.76 130.96 212.26 131.23 211.77C131.34 211.57 131.45 211.38 131.56 211.18C131.18 211.86 131.66 211 131.75 210.86C132.83 209 133.98 207.19 135.18 205.41C136.58 203.33 138.45 201.35 139.09 198.88C139.39 197.72 139.67 196.55 139.96 195.38C140.4 193.63 140.43 191.68 139.96 189.93C139.67 188.84 139.17 187.47 137.91 187.26C123.58 184.87 109.25 181.47 95.4101 177.06C90.2701 175.42 85.1701 173.61 80.2001 171.49C75.2301 169.37 70.8701 166.88 66.3201 164.23C56.7301 158.66 46.4701 153.92 35.7001 151.15C30.2401 149.75 22.2701 147.63 18.6401 153.34C17.3201 155.41 17.1101 158.39 17.7901 160.73C18.1401 161.93 19.6701 164.82 21.0401 162.67C22.0301 161.11 23.7701 160.45 26.0401 160.37C27.6601 160.31 29.2401 160.56 30.8101 160.9C31.9601 161.15 33.1201 161.33 34.2601 161.6C35.8001 161.96 37.3301 162.38 38.8401 162.83C38.3101 162.67 39.0601 162.9 39.1101 162.91C39.3501 162.98 39.5801 163.06 39.8201 163.13C40.3201 163.29 40.8101 163.45 41.3001 163.62C42.4901 164.02 43.6701 164.45 44.8401 164.89C50.6801 167.1 56.3301 169.79 61.8001 172.79C66.8601 175.57 71.6801 178.65 76.9501 181.01C81.7301 183.16 86.6501 184.98 91.6201 186.63C101.45 189.89 111.49 192.52 121.6 194.78C127 195.98 132.43 197.12 137.89 198.03L135.84 189.9L134.86 193.8L135.71 191.86C134.22 193.83 132.83 195.88 131.49 197.95C128.91 201.96 126.4 206.17 124.77 210.66C122.74 216.26 122.16 222.4 124.03 228.15C125.8 233.6 129.33 237.9 133.5 241.72C135.37 243.43 137.36 245.3 139.59 246.52C141.13 247.36 142.87 247.88 144.58 248.23C148.62 249.05 152.85 248.79 156.92 248.27C166.89 247 176.64 243.95 186.14 240.76C190.62 239.26 195.15 237.79 199.5 235.91C204.62 233.7 209.51 230.96 214.16 227.89C224.69 220.94 234.15 212.35 242.86 203.25C250.23 195.56 256.42 186.47 258.01 175.74C258.65 171.46 258.41 167.1 257.56 162.86C256.77 158.92 255.17 155.55 251.82 153.19C248.89 151.12 245.27 150.03 241.81 149.25C239.52 148.73 237.17 148.34 234.83 148.19C230.18 147.89 225.43 148.17 220.77 148.17H218.87L220.92 156.3C222.48 151.12 224.01 145.92 225.51 140.72C225.9 139.37 226.3 138.02 226.73 136.67C226.95 136 227.17 135.33 227.39 134.66C227.43 134.53 227.82 133.39 227.61 134.01C227.4 134.63 227.63 133.95 227.68 133.8C227.77 133.55 227.86 133.29 227.94 133.04C228.93 130.18 229.96 127.34 231 124.5C231.57 122.94 232.15 121.38 232.74 119.82L231.69 121.21C241.87 112.51 252.02 103.78 262.09 94.9598C265.52 91.9598 269.19 89.0598 272.16 85.5898C275.46 81.7298 277.8 77.1798 279.43 72.3998C282.25 64.1098 282.67 55.2398 282.26 46.5598C281.85 37.8798 279.7 28.9098 275.99 20.8298C272.28 12.7498 265.73 2.55977 256.01 0.449772C250.92 -0.650228 245.48 0.379772 240.67 2.16977C235.86 3.95977 231.23 7.14977 227.55 11.0398C224.37 14.3898 221.58 18.1798 218.68 21.7698C215.78 25.3598 213.04 28.7698 210.33 32.3498C209.51 33.4398 208.7 34.5298 207.95 35.6698C207.68 36.0698 207.42 36.4798 207.13 36.8598C206.95 37.0798 206.77 37.2998 206.58 37.5098C206.68 37.3998 207.03 37.1998 206.62 37.4598C206.33 37.6498 206.07 37.8298 205.76 37.9798C205.59 38.0598 205.38 38.0198 205.87 37.9498C205.69 37.9798 205.52 38.0098 205.34 38.0198C203.85 38.0998 202.33 37.4598 200.89 37.2098C199.45 36.9598 197.99 36.8298 196.55 37.0998C193.85 37.6098 191.22 38.6798 188.7 39.7098C185.36 41.0798 182.08 42.5998 178.82 44.1598C173.58 46.6598 168.46 49.4298 163.19 51.8398C162.94 51.9498 162.68 52.0398 162.44 52.1698C162.02 52.3798 162.68 52.1098 162.81 52.0698C162.57 52.1398 162.33 52.1998 162.09 52.2898C161.9 52.3598 161.72 52.4498 161.54 52.5398C160.66 52.9498 159.8 53.3998 158.94 53.8398C150.55 58.1398 142.24 62.5998 133.92 67.0298C122.3 73.2098 110.69 79.4098 99.0701 85.5998C90.2001 90.3298 81.3301 95.0798 72.4301 99.7498C71.3601 100.31 70.2901 100.87 69.2201 101.42C68.9201 101.57 68.6101 101.71 68.3101 101.88C67.6301 102.26 68.7401 101.85 68.4901 101.87C66.3401 102.03 64.1201 102.7 62.0101 103.08C57.9401 103.82 53.8601 104.52 49.7801 105.16C45.7001 105.8 41.8601 106.36 37.8701 106.73C35.7901 106.92 35.4601 110.6 35.4901 112.13C35.5201 113.42 35.6401 114.76 36.1901 115.95C36.4701 116.57 37.0401 117.61 37.8701 117.53L37.9201 117.51Z" fill="#1D1D1B"/>
<path d="M22.1901 160.33C21.6801 161.4 21.6301 161.3 22.0301 160.83C21.4001 161.57 21.8901 160.97 22.3001 160.6C23.1301 159.84 23.9801 159.1 24.8401 158.37C27.4201 156.17 30.0601 154.04 32.7601 152C35.6301 149.84 38.5601 147.74 41.6801 145.94C42.9701 145.19 44.3001 144.49 45.6901 143.95C45.8601 143.88 46.8201 143.58 46.1001 143.79C46.3101 143.73 46.5301 143.67 46.7401 143.62C47.3201 143.49 47.9101 143.42 48.5001 143.32C56.8301 141.87 65.0901 140.14 73.5001 139.16C79.0101 138.52 84.5601 138.12 90.1101 138.15C95.6601 138.18 100.66 138.82 105.94 139.14C116.42 139.76 127.04 139.84 137.46 138.33C142.31 137.63 147.13 136.55 151.74 134.86C155.73 133.4 159.37 131.22 163.06 129.14C171.5 124.38 179.89 119.47 187.86 113.96C191.37 111.53 194.83 108.98 198 106.12C201.17 103.26 203.61 100.24 205.91 96.68C208.73 92.31 211.23 87.74 213.23 82.94C215.23 78.14 216.68 73.62 218.55 69.02C220.65 63.86 222.97 58.54 222.94 52.87C222.91 47.61 221.03 41.6 216.24 38.77C214.22 37.58 211.82 37.09 209.5 37.11C207.44 37.13 207.1 41.11 207.12 42.51C207.15 43.84 207.4 47.93 209.5 47.91C211.73 47.89 213.78 48.3 215.62 49.6C215.78 49.71 216.63 50.42 216.31 50.11C216.66 50.44 216.97 50.83 217.26 51.21C217.46 51.47 217.93 52.29 217.55 51.57C217.7 51.85 218 52.93 218.24 53.1C218.16 53.04 217.96 52.06 218.12 52.8C218.12 52.8 218.21 53.3 218.25 53.33L218.14 52.74C218.21 53.36 218.22 53.31 218.18 52.59C218.15 52.62 218.18 53.15 218.18 53.14C218 52.04 218.28 52.05 218.21 52.56C218.18 52.8 218.13 53.06 218.11 53.3C218.07 53.99 218.42 52.04 218.14 53.09C218.06 53.41 217.99 53.73 217.9 54.05C217.76 54.56 217.6 55.05 217.45 55.55C217.24 56.24 217.82 54.55 217.41 55.68C217.32 55.92 217.24 56.16 217.15 56.4C216.68 57.67 216.17 58.93 215.66 60.18C213.77 64.83 212.16 69.57 210.29 74.22C209.46 76.28 208.56 78.31 207.57 80.29C206.37 82.68 205.59 84.03 204.2 86.24C202.95 88.24 201.67 90.27 200.18 92.1C199.69 92.7 199.16 93.29 198.62 93.85C198.35 94.14 198.06 94.42 197.78 94.7C197.17 95.32 198.04 94.46 197.65 94.83C197.44 95.02 197.24 95.22 197.03 95.41C193.95 98.23 190.58 100.74 187.16 103.13C179.39 108.55 171.21 113.37 162.97 118.04C159.39 120.07 155.84 122.27 152.03 123.83C147.78 125.57 143.28 126.6 138.76 127.32C128.65 128.93 118.31 128.97 108.1 128.45C103 128.19 97.9201 127.58 92.8301 127.4C87.4001 127.21 81.9601 127.49 76.5501 128.02C67.7701 128.89 59.1301 130.53 50.4701 132.15C47.8401 132.64 45.3301 133.02 42.8901 134.19C39.9201 135.61 37.1601 137.47 34.4801 139.38C29.6501 142.82 24.9201 146.54 20.5801 150.58C19.8201 151.29 19.2701 151.75 18.8201 152.69C17.7701 154.88 17.8101 158.13 18.8201 160.33C19.1301 161 19.6501 161.91 20.5001 161.91C21.3501 161.91 21.8701 160.96 22.1801 160.33H22.1901Z" fill="#1D1D1B"/>
<path d="M231.06 120.86C231.14 120.6 231.24 120.34 231.31 120.08C230.93 121.57 231.31 120.11 231.44 119.73C231.82 118.64 232.21 117.56 232.59 116.47C232.97 115.38 233.38 114.21 233.76 113.08C234.03 112.3 233.35 114.21 233.66 113.38C233.72 113.22 233.78 113.06 233.83 112.9C234.04 112.33 234.26 111.76 234.47 111.19C235.43 108.63 236.44 106.05 237.09 103.39C237.54 101.56 237.73 99.7097 237.88 97.8397C238.04 95.8497 238.17 93.8597 238.37 91.8797C238.47 90.9597 238.59 90.0397 238.73 89.1297C238.87 88.1597 238.44 90.3696 238.67 89.4496C238.71 89.2996 238.73 89.1497 238.77 89.0097C238.82 88.8097 238.89 88.5997 238.93 88.3997C239.09 87.6297 238.54 89.4597 238.8 88.7997C239.12 87.9897 238.19 89.3897 238.74 88.8997C239 88.6697 239.24 88.3797 239.46 88.1197C240.08 87.3897 240.62 86.5997 241.14 85.7997C242.54 83.6097 243.75 81.3097 245.18 79.1397C248.12 74.6697 251.55 70.5897 253.77 65.6797C256.71 59.1997 257.75 51.6097 256.55 44.5897C256.01 41.4197 255.22 37.8797 253.37 35.1897C252.1 33.3397 250.16 32.4097 248 32.0497C246.05 31.7197 244.04 31.9097 242.1 32.1697C240.46 32.3897 238.68 32.5197 237.1 33.0497C233.65 34.1997 230.62 37.0897 227.91 39.4197C225.75 41.2797 223.64 43.2097 221.6 45.1897C220.68 46.0897 220.54 47.9497 220.47 49.1297C220.38 50.6297 220.47 52.2897 221.12 53.6697C222.11 55.7397 223.05 57.8497 223.97 59.9497C224.89 62.0497 225.75 64.0996 226.59 66.1996C227.04 67.3196 227.47 68.4397 227.89 69.5597C228.07 70.0497 228.26 70.5397 228.43 71.0397C228.54 71.3297 228.64 71.6297 228.75 71.9297C228.84 72.1797 229.38 73.4897 228.88 72.2997C229.71 74.2897 230.23 76.5197 230.7 78.6197C230.75 78.8697 230.8 79.1097 230.86 79.3597C231.06 80.2997 230.67 78.0797 230.79 79.0097C230.84 79.4297 230.91 79.8496 230.96 80.2696C231.05 81.0296 231.12 81.7997 231.18 82.5697C231.2 82.8497 231.34 84.1997 231.2 82.7197C231.24 83.1897 231.25 83.6597 231.27 84.1297C231.33 85.7097 231.34 87.2797 231.32 88.8597C231.32 89.5497 231.3 90.2397 231.27 90.9297C231.26 91.3397 231.24 91.7497 231.22 92.1697C231.21 92.4597 231.14 94.3196 231.2 92.7696C231.08 95.6496 230.74 98.5497 230.32 101.4C230.21 102.14 230.04 102.88 229.95 103.63C230.16 101.95 229.82 104.16 229.74 104.52C229.32 106.47 228.89 108.41 228.45 110.35C228.04 112.12 227.61 113.88 227.13 115.62C226.88 116.5 226.61 117.38 226.33 118.26C225.94 119.48 226.66 117.43 226.2 118.62C226.02 119.09 225.85 119.56 225.66 120.03C224.74 122.35 224.6 125.36 225.66 127.67C226.5 129.51 228.21 129.73 229.02 127.67C231.67 120.97 233.22 113.73 234.5 106.65C235.68 100.13 236.12 93.4097 236.07 86.7897C236.02 80.7797 235.47 74.9097 233.71 69.1497C232.17 64.0997 230.24 59.1597 228.17 54.2997C226.99 51.5197 225.77 48.7497 224.46 46.0297L223.98 54.5097C224.47 54.0297 223.4 55.0497 223.83 54.6497C224.17 54.3297 224.5 54.0097 224.84 53.6997C225.93 52.6797 227.03 51.6797 228.15 50.6997C230.73 48.4297 233.4 46.0997 236.39 44.3697C236.88 44.0897 237.39 43.8497 237.9 43.6197C238.52 43.3397 237.52 43.6197 238.1 43.5697C238.47 43.5397 238.84 43.4697 239.2 43.4097C240.97 43.1397 242.73 42.8297 244.52 42.7297C246.31 42.6297 248.27 42.6897 249.6 43.3797C249.98 43.5797 250.33 43.8097 250.65 44.0897C250.06 43.5797 251.25 45.1997 250.73 44.1497C250.96 44.6197 251.16 45.1097 251.35 45.5997C251.43 45.8197 251.69 46.6197 251.42 45.7497C251.53 46.1197 251.64 46.4797 251.74 46.8497C251.81 47.0997 251.87 47.3497 251.93 47.5997C251.99 47.8697 252.42 48.9697 251.99 47.8497C252.19 48.3797 252.14 49.0797 252.21 49.6497C252.32 50.4897 252.2 48.2997 252.21 49.6497C252.21 49.9297 252.22 50.2097 252.21 50.4897C252.21 50.7297 252.26 52.1597 252.23 50.7597C252.23 51.1897 252.15 51.6397 252.1 52.0697C252.06 52.3697 252.02 52.6597 251.98 52.9497C251.78 54.3597 252.15 52.3897 251.93 53.2297C251.75 53.9097 251.61 54.6097 251.41 55.2897C251.4 55.3297 250.89 56.8297 251.22 55.9197C251.13 56.1797 251.03 56.4397 250.92 56.6997C250.62 57.4597 250.28 58.2097 249.92 58.9497C249 60.8197 247.69 62.8097 246.23 64.8597C244.94 66.6797 243.57 68.4497 242.38 70.3297C241.05 72.4297 239.88 74.6196 238.52 76.6996C237.59 78.1296 236.23 79.3097 235.51 80.8597C233.81 84.4897 233.7 88.9197 233.4 92.8597C233.26 94.6397 233.1 96.4097 232.91 98.1897C232.84 98.8797 233.05 97.2297 233.07 97.3497C233.11 97.6397 232.89 98.1097 232.82 98.3897C232.66 98.9997 232.47 99.5997 232.27 100.21C232.02 101 232.24 100.31 232.29 100.16C232.15 100.57 232 100.97 231.86 101.38C231.64 102 231.41 102.61 231.18 103.23C230.81 104.2 230.44 105.17 230.09 106.16C229.93 106.62 229.78 107.08 229.62 107.53C229.51 107.85 229.58 107.66 229.81 106.96C229.75 107.12 229.7 107.28 229.64 107.44C229.48 107.9 229.32 108.36 229.15 108.82C228.38 111 227.53 113.18 226.88 115.4C226.23 117.62 226.26 120.95 227.73 122.79C229.2 124.63 230.57 122.24 230.98 120.85L231.06 120.86Z" fill="#1D1D1B"/>
<path d="M137.94 198.02C145.3 199.25 153.02 199.24 160.43 198.67C175.19 197.54 190.4 193.26 201.94 183.63C210.02 176.89 215.89 167.98 219.31 158.06C220.13 155.67 220.39 152.79 219.31 150.42C219 149.75 218.48 148.84 217.63 148.84C216.83 148.84 216.17 149.77 215.95 150.42C215.14 152.78 214.2 155.09 213.1 157.34C212.62 158.32 212.11 159.28 211.58 160.23C212.05 159.39 211.31 160.68 211.18 160.89C210.83 161.46 210.48 162.02 210.11 162.58C208.94 164.35 207.67 166.05 206.29 167.66C205.65 168.41 204.99 169.14 204.31 169.85C203.94 170.23 203.57 170.6 203.19 170.98C202.59 171.58 203.47 170.72 203.09 171.07C202.87 171.28 202.64 171.49 202.42 171.69C196.68 176.93 189.81 180.79 182.52 183.41C180.57 184.11 179.47 184.46 177.7 184.94C175.93 185.42 174.25 185.83 172.5 186.19C169.12 186.89 165.71 187.39 162.28 187.71C156.78 188.23 151.23 188.32 145.72 188C143.12 187.85 140.5 187.65 137.94 187.22C137.17 187.09 136.48 188.32 136.26 188.8C135.75 189.92 135.54 191.41 135.56 192.62C135.59 194.26 135.81 197.66 137.94 198.02Z" fill="#1D1D1B"/>
<path d="M133.37 202.35C133.3 201.53 133.32 200.35 133.37 199.76C133.37 199.84 133.35 199.91 133.34 199.99C133.26 200.6 133.65 198.36 133.44 199.47C133.25 200.46 133.05 201.45 132.92 202.45C132.57 205.22 132.66 208.02 133.24 210.75C133.73 213.06 134.78 215.42 136.44 217.13C138.52 219.27 141.05 220.44 143.92 221.2C147.99 222.27 152.41 222.11 156.58 221.8C162.03 221.39 167.44 220.47 172.76 219.25C178.08 218.03 183.36 216.5 188.45 214.5C192.59 212.87 196.28 210.85 199.81 208.16C204.94 204.26 210.37 200.76 215.49 196.84C220.24 193.2 225.14 189.11 228.21 183.89C231.9 177.62 234.04 169.65 233.08 162.37C232.7 159.5 231.83 156.81 230.33 154.33C229.06 152.23 227.16 150.04 224.95 148.92C224.46 148.67 223.89 148.45 223.35 148.36C222.58 148.23 221.89 149.46 221.67 149.94C221.16 151.06 220.95 152.55 220.97 153.76C221 155.41 221.22 158.79 223.35 159.16C223.79 159.23 222.75 158.85 223.09 159.07C223.34 159.23 223.67 159.32 223.94 159.47C225.02 160.08 225.72 160.75 226.45 161.61C226.82 162.05 227.18 162.5 227.5 162.97C227.61 163.14 227.71 163.32 227.83 163.48C228.27 164.09 227.45 162.66 227.76 163.36C227.91 163.69 228.08 164 228.22 164.33C228.25 164.4 228.41 164.93 228.46 164.95C228.22 164.21 228.16 164.07 228.3 164.51C228.34 164.66 228.39 164.81 228.43 164.96C228.47 165.13 228.49 165.53 228.59 165.67C228.16 165.07 228.41 164.56 228.51 165.38C228.68 166.77 228.51 164.09 228.53 165.57C228.53 165.85 228.49 166.16 228.53 166.44C228.37 164.98 228.58 165.69 228.53 166.23C228.5 166.55 228.46 166.88 228.41 167.2C228.38 167.42 228.34 167.65 228.3 167.87C228.43 167.15 228.44 167.07 228.33 167.62C228.17 168.24 228.03 168.85 227.86 169.47C227.75 169.86 227.63 170.25 227.5 170.64C227.79 169.78 227.3 171.16 227.29 171.19C226.98 172.02 226.64 172.85 226.27 173.65C226.14 173.93 226.01 174.2 225.87 174.47C225.81 174.59 225.28 175.43 225.75 174.71C219.54 184.36 208.84 190.12 199.7 196.9C198 198.16 196.38 199.52 194.56 200.6C192.74 201.68 190.94 202.53 189.05 203.33C184.64 205.21 180.13 206.62 175.52 207.79C170.45 209.08 165.29 210.07 160.09 210.67C155.82 211.16 151.45 211.46 147.16 210.98C144.91 210.73 142.74 210.21 140.74 209.09C140.23 208.81 139.74 208.49 139.28 208.14C139.07 207.98 138.87 207.8 138.67 207.63C139.2 208.1 138.46 207.38 138.37 207.27C138.22 207.09 138.07 206.9 137.94 206.71C137.85 206.59 137.77 206.46 137.69 206.33C137.48 205.99 137.53 206.07 137.84 206.59C137.72 206.52 137.62 206.12 137.56 206C137.29 205.45 137.72 205.45 137.64 206.3C137.65 206.16 137.51 205.85 137.47 205.7C137.14 204.57 137.58 206.79 137.52 206C137.51 205.81 137.48 205.61 137.45 205.42C137.33 204.57 137.47 207.09 137.49 205.9C137.49 205.75 137.49 205.59 137.49 205.44C137.47 204.43 137.36 206.91 137.45 206.08C137.49 205.7 137.53 205.32 137.58 204.94C137.65 204.44 137.95 203.01 137.53 205.11C137.57 204.89 137.62 204.66 137.66 204.44C137.98 202.76 138.13 201.23 137.99 199.5C137.89 198.3 136.98 194.64 135.07 195.73C133.16 196.82 133.26 200.6 133.41 202.37L133.37 202.35Z" fill="#1D1D1B"/>
<path d="M218.8 79.2698C218.72 79.6998 218.48 80.0698 218.33 80.4798C218.11 81.1198 218.07 81.6898 218.01 82.3498C217.9 83.4498 217.77 84.5498 217.69 85.6498C217.54 87.8098 217.32 89.9598 217.05 92.0998C216.5 96.5098 215.81 100.87 214.84 105.21C214.36 107.37 215.17 110.92 217.47 111.78C219.91 112.69 221.41 109.84 221.73 107.91C222.54 103.06 223.1 98.1498 223.32 93.2398C223.42 90.9798 223.44 88.7098 223.41 86.4498C223.39 85.3098 223.28 84.1798 223.17 83.0498C223.08 82.1398 223.04 81.2498 222.7 80.3798C222.54 79.9498 222.32 79.6298 222.21 79.1898C222.01 78.3698 221.47 77.2298 220.45 77.2498C219.43 77.2698 218.95 78.4398 218.79 79.2698H218.8Z" fill="#1D1D1B"/>
<path d="M210.11 128.49C209.68 129.1 209.43 129.8 209.14 130.48C209.04 130.71 208.92 130.94 208.84 131.17C208.75 131.42 208.7 131.69 208.62 131.95C208.08 133.78 207 135.56 207.22 137.52C207.24 138.44 207.42 139.33 207.76 140.19C207.96 140.76 208.27 141.25 208.69 141.66C209 142.08 209.4 142.39 209.9 142.58C210.52 142.82 211.14 142.8 211.75 142.53C212.05 142.33 212.35 142.13 212.64 141.92C213.2 141.36 213.61 140.71 213.86 139.95C214.03 139.45 214.14 138.9 214.26 138.4C214.33 138.1 214.4 137.8 214.46 137.5C214.58 136.9 214.68 136.29 214.76 135.68C214.89 134.68 214.97 133.68 214.87 132.67C214.74 131.43 214.65 130.31 214.14 129.16C213.76 128.3 213.18 127.51 212.22 127.34C211.26 127.17 210.61 127.73 210.09 128.47L210.11 128.49Z" fill="#1D1D1B"/>
<path d="M72.68 112.59C73.66 112.56 74.59 112.92 75.55 112.86C76.51 112.8 77.51 112.62 78.48 112.47C80.47 112.17 82.44 112.07 84.45 112.05C88.78 112 93.1 112 97.43 111.87C106.01 111.63 114.6 111.64 123.17 111.31C131.74 110.98 140.15 110.84 148.56 109.72C156.97 108.6 165.35 106.61 173.56 104.38C178.02 103.17 182.46 101.86 186.88 100.51C191.3 99.1597 195.45 97.7097 199.3 95.3597C201.7 93.8997 202.48 90.6497 201.84 87.9997C201.41 86.2297 199.45 82.4397 196.95 83.9797C193.61 86.0297 189.97 87.4197 186.25 88.6197C182.27 89.8997 178.25 91.0797 174.23 92.2197C166.21 94.4997 158.63 96.3797 150.4 97.6797C142.17 98.9797 133.58 99.4297 125.11 99.9097C116.64 100.39 107.98 101.2 99.4 101.78C94.64 102.1 89.89 102.48 85.13 102.92C82.84 103.13 80.53 103.34 78.25 103.68C77.1 103.85 75.91 104.11 74.82 104.52C73.56 105 72.59 106.08 71.51 106.87C69.94 108.01 70.27 112.68 72.67 112.6L72.68 112.59Z" fill="#1D1D1B"/>
<path d="M177.68 94.8196C179.38 94.9996 181.21 94.3696 182.78 93.7596C184.35 93.1496 185.96 92.5196 187.54 91.8696C190.75 90.5496 193.92 89.1296 197.01 87.5296C203.09 84.3696 208.97 80.5596 213.66 75.5096L211.03 70.6196C207.27 77.4996 202.65 83.6596 197.28 89.3696C196.11 90.6196 195.92 92.6496 196.57 94.1996C197.07 95.3896 198.58 96.6296 199.76 95.3796C201.45 93.5996 203.4 90.7196 201.53 88.3096C201.08 87.7296 200.32 87.1596 199.55 87.5696L199.43 87.6296C198.4 88.1796 198.04 89.4596 198.06 90.5496V90.6396C198.09 92.2596 199.28 94.2996 201.02 93.0996L201.08 93.0596L199.1 93.1096L199.21 93.1996L198.38 89.0096L198.36 89.0796L199.55 87.6096C198.58 87.9096 197.95 88.6496 197.29 89.3696L199.77 95.3796C205.38 89.2696 210.17 82.3196 214.07 74.9996C214.74 73.7496 214.85 72.1196 214.13 70.8596C213.61 69.9496 212.37 69.0796 211.44 70.1096C206.91 75.1096 201.48 79.0096 195.49 82.0796C192.46 83.6296 189.35 85.0196 186.2 86.3096C183.05 87.5996 179.36 88.4896 176.89 90.8396C175.85 91.8296 175.99 94.6296 177.7 94.8096L177.68 94.8196Z" fill="#1D1D1B"/>
<path d="M213.04 67.1699C212.78 67.3299 212.51 67.4699 212.23 67.5799L213.87 68.1899L213.6 67.7799L213.23 73.9299C213.97 73.1399 214.71 72.3599 215.49 71.5999L213.3 72.0899C213.7 72.2699 214.18 72.3899 214.62 72.2999C215.11 72.2999 215.53 72.1399 215.89 71.8299C216.05 71.7299 216.21 71.6199 216.37 71.4999C216.43 71.4499 216.48 71.4099 216.54 71.3599C216.84 71.1099 217.15 70.8699 217.45 70.6299C217.75 70.3899 218.01 70.0899 218.29 69.8199C218.58 69.5299 218.88 69.2499 219.18 68.9599C220.05 68.1299 220.54 66.8599 220.73 65.6899C220.86 64.9699 220.86 64.2499 220.74 63.5399C220.71 62.8499 220.55 62.1799 220.27 61.5399C219.83 60.5899 219.17 59.4399 218.09 59.1099L217.14 58.9399C216.45 58.9799 215.86 59.2399 215.37 59.7199C214.54 60.5199 213.72 61.3599 213.04 62.2999C212.8 62.6299 212.57 62.9699 212.34 63.3099C211.42 64.6799 211.06 66.2899 211.11 67.9399L211.87 64.8399C211.19 65.8199 210.56 66.8099 209.98 67.8499C209.34 69.0199 209.14 70.3599 209.41 71.6699C209.63 72.7099 210.2 73.9499 211.27 74.3599C212.34 74.7699 213.2 74.1399 213.74 73.2899C214.42 72.2199 214.6 70.6899 214.31 69.4699L214.28 69.3399L213.91 71.8599C214.24 71.3699 214.5 70.8399 214.74 70.2999C215.07 69.5899 214.92 68.5499 214.57 67.8899C214.42 67.6199 214.25 67.3999 213.98 67.2299C213.71 67.0599 213.33 66.9699 213.05 67.1399L213.04 67.1699Z" fill="#1D1D1B"/>
<path d="M203.47 47.2199L203.84 47.6199L202.78 45.6499C203.23 49.0299 206.41 50.3099 209.35 50.7899C211.11 51.0799 212.66 51.1099 214.31 52.0799C213.78 51.7699 214.7 52.4699 214.8 52.5399C215.02 52.7599 214.98 52.6999 214.67 52.3699C214.82 52.5599 214.96 52.7499 215.09 52.9499C215.72 53.7899 214.84 52.1499 215.19 53.1499C215.29 53.3699 215.37 53.5999 215.45 53.8299C215.26 53.1899 215.22 53.0599 215.31 53.4299C215.35 53.6099 215.39 53.7899 215.42 53.9699C215.51 54.5699 215.5 54.4499 215.39 53.6299C215.34 53.7099 215.42 55.3099 215.45 53.9599C215.44 54.4999 215.32 55.0499 215.22 55.5799C215.18 55.8099 215.13 56.0399 215.07 56.2699C215.2 55.7299 215.19 55.7499 215.02 56.3399C214.36 58.1999 213.7 60.0399 212.92 61.8499C212.69 62.3899 212.44 62.9199 212.21 63.4499C211.8 64.3699 212.48 62.9399 211.99 63.9299C211.53 64.8499 211.07 65.7599 210.58 66.6599C208.69 70.1299 206.51 73.4199 204.03 76.4899C203.29 77.4099 203.06 79.2199 203.09 80.3299C203.12 81.5399 203.46 83.1299 204.22 84.1199C204.85 84.9299 205.66 85.6699 206.77 85.6399C207.88 85.6099 208.59 84.7999 209.24 83.9999C212.08 80.4699 214.54 76.6499 216.6 72.6199C218.97 67.9999 221.35 62.9899 222.21 57.8299C223.07 52.6699 222.06 46.0499 217.61 42.6799C215.49 41.0699 213.1 40.6399 210.54 40.2299C207.72 39.7799 203.85 39.5399 202.94 43.0799L203.7 41.8599L203.35 42.1099C201.77 43.2199 202.42 46.0699 203.48 47.2199H203.47Z" fill="#1D1D1B"/>
<path d="M220.42 155.36C226.28 141.49 230.81 127.01 234.71 112.48C235.33 110.18 235.43 106.74 233.26 105.13C231.33 103.7 229.05 104.98 228.46 107.19C224.54 121.81 219.61 136.07 214.43 150.29C213.63 152.49 213.91 155.76 215.82 157.34C217.73 158.92 219.64 157.23 220.42 155.37V155.36Z" fill="#1D1D1B"/>
<path d="M42.18 105.82C40.3 105.68 38.43 105.59 36.55 105.62C34.54 105.65 32.42 106.37 30.49 106.91C26.95 107.91 23.48 109.23 20.32 111.13C14.32 114.74 9.16 119.71 6.05 126.05C2.42 133.45 1.26 141.37 1.97 149.56C2.17 151.92 2.46 154.26 2.77 156.61C3.02 158.51 3.05 160.63 3.54 162.48C3.54 162.47 3.41 161.23 3.48 161.95C3.5 162.17 3.53 162.4 3.55 162.62C3.6 163.07 3.64 163.52 3.67 163.97C3.76 165.01 3.82 166.06 3.85 167.1C3.88 167.99 3.88 168.88 3.85 169.77C3.85 169.99 3.83 170.21 3.82 170.44C3.8 171.17 3.85 169.87 3.85 169.86C3.66 170.34 3.73 171.1 3.66 171.63C3.62 171.91 3.38 174.23 3.17 174.27C3.15 174.27 3.49 173.15 3.27 173.85C3.2 174.07 3.15 174.29 3.08 174.51C2.91 175.1 2.72 175.68 2.53 176.27C1.82 178.46 1.15 180.65 0.650001 182.91C-0.259999 187.06 -0.239999 191.7 0.830001 195.82C1.9 199.94 3.93 204.12 7.28 207.08C10.03 209.51 13.55 211 17.21 211.23C18.95 211.34 20.7 211.01 22.35 210.47C22.8 210.33 23.24 210.15 23.68 210C23.87 209.94 24.86 209.65 24.48 209.73C24.1 209.81 25.07 209.73 25.24 209.71C25.72 209.66 25.08 209.73 24.99 209.68C24.67 209.49 24.4 209.24 24.2 208.93C24.21 208.95 23.7 207.82 23.92 208.39C24.15 209 23.74 207.64 23.74 207.69C23.74 208.12 23.97 208.63 24.07 209.05C24.3 210.04 24.53 211.02 24.76 212.01C25.25 214.11 25.6 216.35 26.46 218.33C27.45 220.63 29.49 223.14 32.26 223.06C34.52 222.99 36.41 221.32 37.48 219.45C40.38 214.36 38.96 208.39 35.37 204.11C34.81 203.44 34.24 202.78 33.75 202.05C33.63 201.86 33.52 201.66 33.39 201.48C33.01 200.93 33.53 201.77 33.54 201.79C33.23 201.51 33.05 200.75 32.88 200.36C32.11 198.53 31.49 196.63 30.89 194.73C30.82 194.52 30.4 193.16 30.64 193.94C30.88 194.72 30.47 193.36 30.41 193.14C30.11 192.09 29.82 191.04 29.55 189.99C29.05 188.03 28.59 186.06 28.19 184.08C27.79 182.1 27.44 180.11 27.14 178.11C27 177.19 26.88 176.26 26.76 175.34C26.73 175.11 26.73 174.87 26.68 174.65C26.68 174.65 26.82 175.96 26.74 175.21C26.69 174.67 26.63 174.13 26.58 173.59C26.21 169.57 26.04 165.52 26.09 161.48C26.1 160.47 26.13 159.46 26.17 158.45C26.19 157.98 26.21 157.52 26.23 157.05C26.24 156.82 26.28 156.58 26.27 156.35C26.28 156.52 26.17 157.89 26.25 156.69C26.37 154.95 26.39 153.32 25.69 151.67C25.24 150.6 24.27 149.11 23.06 148.74C20.25 147.88 18.07 150.87 17.9 153.43C16.83 169.8 18.74 186.02 23.81 201.64C25.05 205.47 26.38 209.43 28.98 212.57C29.4 213.08 29.84 213.57 30.25 214.08C30.49 214.39 30.7 214.71 30.94 215.02C31.71 216 30.57 213.92 30.97 215.08C30.65 214.14 30.53 213.14 30.69 212.15L30.92 211.24C31.35 210.43 31.42 210.28 31.13 210.8L31.58 210.28C31.21 210.62 31.31 210.59 31.88 210.18C31.44 210.37 31.55 210.39 32.21 210.21C31.75 210.22 31.84 210.26 32.5 210.34L32.22 210.22C32.62 210.36 32.95 210.61 33.19 210.97L33.57 211.67C33.34 211.07 33.38 211.26 33.7 212.23C33.63 211.57 33.37 210.85 33.22 210.21C32.77 208.28 32.37 206.33 31.88 204.41C31.26 202.01 30.39 199.52 28.29 198.01C26.19 196.5 24.02 196.76 21.72 197.47C20.96 197.7 20.21 197.98 19.46 198.24C18.42 198.6 20.28 198.21 19.19 198.29C18.84 198.31 18.49 198.37 18.13 198.39C17.42 198.42 16.72 198.36 16.01 198.29C17.06 198.41 15.94 198.26 15.74 198.21C15.39 198.12 15.05 198.01 14.71 197.89C14.03 197.65 13.39 197.33 12.74 197.01C11.69 196.49 13.46 197.6 12.54 196.87C12.26 196.65 11.95 196.45 11.67 196.22C11.39 195.99 11.12 195.75 10.86 195.5L10.6 195.25C10.21 194.84 10.27 194.9 10.75 195.44C10.54 195.35 10.2 194.74 10.07 194.55C9.92 194.33 9.77 194.12 9.63 193.89C9.32 193.36 9.35 193.44 9.74 194.15C9.32 193.65 9.1 192.78 8.88 192.17C8.46 190.99 9.05 192.31 8.93 192.38C8.96 192.36 8.68 191.31 8.66 191.23C8.6 190.92 8.61 190.33 8.46 190.06L8.56 190.98C8.54 190.72 8.52 190.45 8.5 190.19C8.48 189.79 8.47 189.39 8.47 189C8.47 188.73 8.47 188.47 8.49 188.2C8.41 189.25 8.4 189.43 8.46 188.72C8.56 187.93 8.68 187.15 8.82 186.36C9.09 184.82 8.43 187.61 8.87 186.12C9 185.68 9.12 185.23 9.26 184.79C9.9 182.65 10.57 180.54 11.09 178.37C13.04 170.33 11.78 162.09 10.6 154.05C10.36 152.41 10.06 150.76 9.93 149.1C10.07 150.79 9.95 149.23 9.93 148.92C9.89 148.47 9.85 148.02 9.82 147.57C9.74 146.52 9.7 145.47 9.69 144.42C9.69 143.97 9.69 143.52 9.7 143.07C9.7 142.73 9.61 141.26 9.69 142.88C9.66 142.23 9.82 141.49 9.9 140.85C10 140.1 10.14 139.35 10.3 138.61L10.38 138.24C10.52 137.64 10.49 137.75 10.29 138.57C10.19 138.33 10.63 137.37 10.71 137.11C10.98 136.27 11.28 135.43 11.61 134.62C11.75 134.27 11.91 133.92 12.06 133.57C12.3 133.05 12.27 133.11 11.97 133.75C12.08 133.52 12.2 133.3 12.31 133.07C13.07 131.6 13.91 130.17 14.86 128.82C15.08 128.51 15.3 128.2 15.53 127.89C15.68 127.69 15.84 127.48 15.99 127.28C15.65 127.69 15.65 127.7 15.98 127.3C16.57 126.62 17.16 125.96 17.78 125.32C18.95 124.14 20.21 123.09 21.52 122.07C22.46 121.34 20.92 122.39 21.94 121.78C22.39 121.51 22.84 121.24 23.29 120.98C24.18 120.48 25.09 120.03 26.02 119.61C27.74 118.83 29.52 118.19 31.33 117.63C33.28 117.03 35.35 116.7 37.26 116.01C39.17 115.32 41.13 114.33 43.01 113.44C45.69 112.17 45.43 106.05 42.14 105.8L42.18 105.82Z" fill="#1D1D1B"/>
<path d="M21.6501 155.77C22.4301 152.33 23.9601 149.5 25.7701 146.5C27.6901 143.31 29.8401 140.8 32.4801 138.17C35.4401 135.23 38.6401 132.58 41.9901 130.11C43.6701 128.87 45.3701 127.67 47.0901 126.49C48.5901 125.45 50.3301 124.52 51.5601 123.16C53.4201 121.1 54.4301 118.32 53.7901 115.54C53.4701 114.15 52.7801 112.81 51.6301 111.93C50.6101 111.16 49.3501 110.98 48.1201 110.8C43.8701 110.18 39.4401 111.33 35.3701 112.47C28.0701 114.5 20.7601 118.01 15.6001 123.69C9.17006 130.76 5.92006 140.69 8.06006 150.14C8.38006 151.56 9.24006 153.4 10.8601 153.63C12.4801 153.86 13.5701 152.57 14.0501 151.18C14.3301 150.35 14.6401 149.54 14.9701 148.73C15.1101 148.38 15.2601 148.04 15.4101 147.7C15.4601 147.58 16.0201 146.38 15.7901 146.85C15.5601 147.32 16.1501 146.14 16.2101 146.03C16.3801 145.7 16.5601 145.37 16.7401 145.04C17.1601 144.28 17.6101 143.53 18.0701 142.79C18.9401 141.42 19.8801 140.1 20.8601 138.81C21.3701 138.13 20.5501 139.16 21.1501 138.45C21.3901 138.16 21.6301 137.88 21.8801 137.59C22.4501 136.93 23.0501 136.29 23.6601 135.66C24.7901 134.5 25.9901 133.39 27.2301 132.35C27.9001 131.79 28.5901 131.25 29.2901 130.73C29.5901 130.51 29.9001 130.29 30.2001 130.07C31.1701 129.36 29.6501 130.41 30.6601 129.75C33.4901 127.9 36.4901 126.37 39.6501 125.18L36.8801 116.04C24.1301 125.9 12.8901 138.43 9.85006 154.75C8.93006 159.68 8.94006 164.74 9.78006 169.68C10.0201 171.12 11.0301 172.98 12.6101 173.21C14.1901 173.44 15.3401 172.14 15.8301 170.73C19.3401 160.79 22.8301 150.85 26.3001 140.89C26.9201 139.1 26.8601 136.51 25.6501 134.93C24.7201 133.72 22.9701 132.93 21.7101 134.26C9.20006 147.52 9.48006 166.89 12.7201 183.67C13.0101 185.15 14.1001 187.19 15.8701 187.15C17.6401 187.11 18.7001 185.02 18.8501 183.52C19.5401 176.35 19.3001 169.2 18.0901 162.1C17.8401 160.61 16.6901 158.57 14.9301 158.62C13.1701 158.67 12.0501 160.75 11.9501 162.26C11.1301 174.2 11.5901 186.1 13.3901 197.93C13.6601 199.72 15.3501 202.15 17.4301 201.25C19.6501 200.29 19.8001 197.16 19.5301 195.17C18.9901 191.33 18.2101 187.53 17.1701 183.79C16.6901 182.06 15.3601 179.48 13.1001 180.44C4.65006 184.04 5.18006 197.28 12.9101 201.28C14.3201 202.01 15.7401 200.54 16.2601 199.43C17.0001 197.89 17.2101 195.52 16.3801 193.96C15.7801 192.83 15.2701 191.66 14.8501 190.45C14.4301 189.24 14.9201 190.92 14.7801 190.19C14.7101 189.84 14.6001 189.5 14.5301 189.15C14.3901 188.52 14.3001 187.89 14.2001 187.26C14.0901 186.53 14.2201 188.03 14.2101 187.29C14.2101 186.94 14.1601 186.58 14.1501 186.23C14.1501 185.95 14.1401 185.66 14.1401 185.38C14.1401 185.25 14.1801 184.08 14.1401 184.75C14.1101 185.35 14.1801 184.44 14.1901 184.34C14.2301 183.99 14.2701 183.63 14.3301 183.28C14.3701 183 14.4201 182.72 14.4801 182.44C14.5001 182.36 14.8301 181.03 14.5801 181.95L8.64006 178.34C7.66006 184.33 8.83006 190.29 11.7801 195.56C12.4801 196.81 14.1001 197.26 15.2701 196.47C16.6201 195.56 17.2101 193.57 17.1101 192.01C16.5801 183.79 16.2101 175.55 15.4501 167.35C15.2901 165.6 14.5601 162.72 12.2801 162.78C10.0001 162.84 9.35006 165.79 9.34006 167.5C9.32006 178.43 8.86006 189.75 14.1401 199.72C14.8901 201.13 16.7501 203.08 18.3501 201.28C18.8801 200.68 19.8501 199.72 20.2501 199.48C20.4601 199.35 20.6801 199.24 20.9101 199.15C21.2901 199.02 21.3601 198.99 21.1101 199.06C21.3301 199.03 21.5601 199.03 21.7801 199.06C21.5101 199.06 21.5701 199.12 21.9601 199.23C23.5001 199.94 24.9501 198.29 25.3701 197C25.9801 195.14 25.8101 193.02 24.7501 191.36C22.0301 187.1 20.3801 182.83 19.5501 177.83C19.2701 176.15 17.7201 173.85 15.7401 174.7C13.7601 175.55 13.4501 178.57 13.7601 180.43C14.8101 186.71 17.1301 192.72 20.5801 198.07L23.3701 190.2C20.2101 188.76 17.1001 191.07 15.0801 193.36L19.2901 194.92C18.7201 193.85 18.2001 192.76 17.7501 191.63C17.5101 191.04 17.3001 190.44 17.0901 189.84C16.9901 189.57 16.9001 189.27 17.0401 189.72C16.9601 189.45 16.8801 189.18 16.8101 188.9C16.4901 187.74 16.2401 186.56 16.0201 185.37C15.9101 184.74 15.8101 184.1 15.7201 183.47C15.6801 183.19 15.6401 182.9 15.6101 182.62C15.7001 183.3 15.6101 182.68 15.5801 182.34C15.3401 179.89 15.2501 177.43 15.2401 174.96C15.2401 173.73 15.2401 172.49 15.2701 171.26C15.2801 170.68 15.3001 170.1 15.3101 169.52C15.2901 170.55 15.3601 168.61 15.3701 168.44C15.3901 168.08 15.4101 167.72 15.4401 167.36L9.34006 167.51C9.61006 175.74 10.2601 183.96 10.7501 192.18L16.0801 188.63C16.4301 189.26 15.7301 187.86 15.6701 187.72C15.5101 187.33 15.3601 186.94 15.2201 186.55C14.7601 185.32 15.3801 187.38 15.0901 186.1C14.9801 185.62 14.8701 185.15 14.7901 184.67C14.7501 184.46 14.7201 184.26 14.6901 184.05C14.7501 184.65 14.7501 184.66 14.7001 184.09C14.6901 183.67 14.6501 183.26 14.6501 182.84C14.6501 182.44 14.7201 181.59 14.6301 182.46C14.6801 181.9 14.7601 181.35 14.8501 180.8C15.1601 178.92 14.6901 176.11 12.8601 175.1C11.1701 174.17 9.40006 175.41 8.92006 177.19C6.95006 184.44 7.37006 192.36 10.9001 199.09L14.3701 191.77C13.9901 191.58 13.9501 191.55 14.2401 191.69C14.0501 191.55 13.8601 191.4 13.6901 191.23C13.3701 190.91 13.3501 190.89 13.6401 191.19C13.5001 191 13.3601 190.8 13.2401 190.6C13.9901 191.73 12.7101 189.67 13.4301 191.11C13.3701 190.88 13.3201 190.65 13.2801 190.41C13.3901 190.81 13.4001 191.21 13.3101 191.61C13.4001 191.09 13.3701 191.14 13.2201 191.75C13.2901 191.52 13.3701 191.3 13.4601 191.08C13.1901 191.77 13.4601 191.15 13.6701 190.84C13.2401 191.46 14.0901 190.46 14.2501 190.33C13.8501 190.65 14.8601 190.02 15.0301 189.95L10.9601 186.6C12.0101 190.33 12.8101 194.12 13.3601 197.96L19.5001 195.2C19.3001 193.92 19.1101 192.63 18.9401 191.34C18.8401 190.61 18.7601 189.89 18.6701 189.16C18.5701 188.34 18.7301 189.82 18.6501 189C18.6201 188.68 18.5801 188.35 18.5501 188.03C18.2801 185.36 18.0901 182.68 17.9801 180C17.8701 177.32 17.8301 174.8 17.8501 172.2C17.8601 170.82 17.9001 169.44 17.9501 168.05C17.9701 167.4 18.0001 166.75 18.0401 166.1C18.0601 165.78 18.0801 165.45 18.0901 165.13C18.1401 164.23 18.0101 166.27 18.1201 164.72L11.9801 164.87C12.1001 165.59 12.2201 166.31 12.3201 167.03C12.3801 167.43 12.4301 167.83 12.4801 168.23C12.5201 168.54 12.5501 168.92 12.5001 168.39C12.6501 169.92 12.7701 171.45 12.8201 172.99C12.8701 174.44 12.8801 175.9 12.8501 177.35C12.8301 178.08 12.8001 178.8 12.7601 179.53C12.7901 179 12.7601 179.39 12.7401 179.69C12.7001 180.17 12.6601 180.66 12.6101 181.14L18.7401 180.99C18.3401 178.93 17.9801 176.87 17.6801 174.8C17.6101 174.32 17.5501 173.84 17.4901 173.36C17.3501 172.33 17.5301 173.86 17.4101 172.72C17.3101 171.76 17.2301 170.8 17.1601 169.83C17.0301 167.83 16.9801 165.82 17.0401 163.81C17.0401 163.63 17.1001 162.35 17.0801 162.77C17.0601 163.09 17.0701 162.99 17.1101 162.45C17.1401 162.13 17.1601 161.81 17.2001 161.49C17.2901 160.63 17.3901 159.77 17.5301 158.92C17.6601 158.11 17.8101 157.31 17.9801 156.51C18.0701 156.11 18.1601 155.71 18.2501 155.32C18.0101 156.27 18.3201 155.1 18.3801 154.9C18.8701 153.2 19.5001 151.56 20.2001 149.94C20.5601 149.12 19.9601 150.34 20.4301 149.48C20.6201 149.12 20.8001 148.76 21.0001 148.41C21.3901 147.7 21.8101 147.01 22.2501 146.34C23.3301 144.69 23.8001 144.12 25.1501 142.72L20.5601 136.09C17.0101 146 13.4901 155.92 9.99006 165.84L16.0401 166.89C15.9701 166.47 15.9001 166.05 15.8401 165.63C15.7001 164.64 15.8701 166.27 15.8101 165.27C15.7501 164.35 15.7001 163.43 15.7001 162.51C15.7001 162.09 15.7301 161.66 15.7301 161.24C15.7301 160.65 15.7101 161.45 15.7001 161.52C15.7101 161.31 15.7301 161.1 15.7501 160.88C15.8301 159.96 15.9501 159.05 16.0901 158.14C16.2301 157.3 16.4001 156.46 16.5901 155.63C16.7901 154.74 16.4501 156.06 16.7101 155.18C16.8501 154.7 16.9801 154.22 17.1301 153.74C17.6701 152.03 18.3201 150.37 19.0501 148.73C19.0501 148.71 19.3501 148.07 19.1701 148.47C18.9901 148.87 19.2901 148.23 19.3001 148.21C19.4901 147.83 19.6901 147.44 19.8901 147.07C20.3301 146.25 20.7901 145.44 21.2701 144.65C22.2301 143.07 23.2701 141.54 24.3901 140.07C24.6501 139.73 24.9101 139.39 25.1701 139.06C25.4501 138.7 25.2501 138.96 25.1901 139.03C25.3201 138.86 25.4601 138.7 25.6001 138.54C26.1901 137.83 26.8001 137.13 27.4201 136.45C28.6101 135.13 29.8601 133.85 31.1401 132.62C34.0701 129.79 37.2001 127.19 40.4201 124.7C42.1501 123.36 42.1801 120.23 41.6201 118.38C41.1001 116.66 39.6801 114.8 37.6501 115.56C23.8601 120.75 12.9501 132.43 8.30006 146.35L14.2901 147.39C14.2001 147.01 14.1101 146.62 14.0401 146.24C14.0101 146.05 13.9901 145.85 13.9501 145.66C13.8301 145.07 13.9801 146.01 13.9801 146C13.6401 145.48 13.9101 144.07 13.9001 143.47C13.8901 142.87 13.8601 143.8 13.8701 143.81C13.8301 143.66 13.9101 143.38 13.9201 143.23C13.9601 142.84 14.0101 142.45 14.0701 142.07C14.1301 141.69 14.2001 141.3 14.2801 140.91C14.3201 140.72 14.3601 140.53 14.4101 140.34C14.3101 140.76 14.2801 140.83 14.4101 140.38C14.6501 139.62 14.8901 138.87 15.1801 138.14C15.3301 137.77 15.4901 137.41 15.6501 137.04C15.3601 137.7 15.8601 136.63 15.9701 136.43C16.3501 135.73 16.7601 135.04 17.1901 134.38C17.4101 134.05 17.6401 133.72 17.8701 133.4C17.9901 133.24 18.1101 133.08 18.2201 132.92C18.3101 132.8 18.5901 132.44 18.3401 132.75C22.5901 127.48 28.4801 124.2 34.8001 121.92C38.1101 120.73 41.5801 119.66 45.1201 119.51C46.1101 119.47 47.1201 119.48 48.1001 119.63C48.3601 119.67 48.8101 119.88 49.0401 119.85C49.4201 119.81 48.9901 119.75 48.8101 119.47C48.3901 118.86 48.4101 116.2 48.5101 115.53C48.5101 115.55 48.1801 115.96 48.3801 115.75C48.6001 115.52 48.1801 115.96 48.1901 115.95C47.9301 116.2 47.6701 116.44 47.3801 116.66C46.6401 117.22 45.8401 117.72 45.0801 118.25C39.0301 122.41 32.8201 126.7 27.9401 132.25C25.3001 135.25 22.9201 138.51 21.1101 142.08C19.2001 145.85 18.0701 150.07 17.7301 154.29C17.6301 155.56 17.8101 157.48 19.2201 158.01C20.6301 158.54 21.3901 156.89 21.6401 155.82L21.6501 155.77Z" fill="#1D1D1B"/>
<path d="M38.06 116.17C37.86 116.68 37.63 116.67 38.21 116.48C38.59 116.36 38.97 116.22 39.35 116.09C40.34 115.75 41.37 115.5 42.36 115.16C44.19 114.54 46.03 113.99 47.92 113.62C52.06 112.82 56.21 112.32 60.44 112.23C64.67 112.14 68.88 112.35 73.09 112.68C77.3 113.01 81.25 113.61 85.33 113.72C89.84 113.84 94.63 112.69 96.61 108.21C97.62 105.92 95.92 100.02 92.68 102.53C92.38 102.76 92.13 103.02 91.85 103.27C91.75 103.36 91.03 103.93 91.37 103.71C90.79 104.08 89.68 104.51 89.34 104.6C87.64 105.03 85.77 104.98 84.04 104.87C79.8 104.61 75.58 104.07 71.34 103.77C62.68 103.16 53.7 103 45.32 105.57C40.92 106.92 34.36 109.24 34.43 114.78C34.44 115.77 34.88 117.18 35.91 117.57C36.94 117.96 37.72 117.02 38.05 116.17H38.06Z" fill="#1D1D1B"/>
<path d="M20.34 150.46C21.68 149.31 23.05 148.19 24.45 147.12C25.85 146.05 27.39 145.11 28.77 144.01C31.46 141.87 34.35 140.05 37.23 138.19C43.31 134.27 49.83 131.05 56.64 128.6L54.9 120.15C47.62 122.96 40.57 126.38 33.88 130.39C30.8 132.24 27.55 134.1 24.89 136.55C21.78 139.41 20.01 143.04 19.96 147.29C19.94 149.21 22.07 153.41 24.4 150.98C36.22 138.66 52.13 130.53 69.05 128.21C71.2 127.92 72.1 125.41 71.99 123.48C71.9 121.89 71.04 118.66 68.82 118.9C56.46 120.2 44.5 124.1 33.94 130.68L36.64 139.59C50.62 129.01 67.23 119.71 85.34 120.16L85.1 110.18C72.06 110.98 59.03 111.79 45.99 112.59L47.11 122.48C59.11 118.01 71.93 116.25 84.71 117.17L83.57 107.16C77 108.85 69.43 109.24 62.43 110.15C55.43 111.06 47.9 112.61 41.67 116.53C39.98 117.59 39.19 119.6 39.3 121.58C39.39 123.28 40.02 125.92 41.91 126.5C50.19 129.05 59.14 128.16 67.64 127.46C76.14 126.76 85.26 125.55 93.97 123.95L92.8 113.64C80.39 117.12 67.97 120.58 55.57 124.08C54.62 124.35 53.84 125.76 53.54 126.58C53.1 127.8 52.98 129.43 53.29 130.69C53.82 132.9 55.19 134.96 57.68 134.3C70.02 131.03 82.54 128.51 95.18 126.72C97.64 126.37 98.68 123.52 98.56 121.29C98.46 119.51 97.46 115.73 94.92 116.03C83.41 117.43 72.03 119.96 61.01 123.56C58.85 124.27 58.43 127.69 58.63 129.5C58.82 131.2 59.94 134.32 62.2 134.06C82.9 131.67 103.59 129.29 124.29 126.93C129.08 126.38 128.89 116.3 124.02 116.07C110.63 115.46 97.25 114.85 83.86 114.24L84.13 125.26C98.98 124.76 113.83 124.07 128.66 123.15C131.06 123 132.04 120.18 132.17 118.18C132.31 116 131.65 112.99 129.37 112.07C114.33 105.98 97.79 107.98 82.18 110.21C77.13 110.93 77.25 121.55 82.46 121.75C99.11 122.42 115.8 121.69 132.32 119.58C135.05 119.23 136.2 116 136.06 113.56C135.94 111.26 134.88 107.78 132.03 107.73C116.88 107.5 101.7 107.46 86.94 111.39C84.86 111.94 84.09 115.51 84.18 117.26C84.3 119.44 85.05 122.02 87.22 122.99C94.18 126.08 102.16 126.13 109.63 126.61C117.66 127.13 125.69 127.59 133.73 128L132.4 116.27C128.79 117.6 126.09 118.18 122.26 118.67C118.43 119.16 114.85 119.33 111.13 119.47C103.43 119.76 95.82 120.01 88.28 121.75C87.25 121.99 86.29 123.69 86.01 124.54C85.6 125.78 85.49 127.05 85.64 128.35C85.9 130.61 87.04 133.21 89.61 133.42C100.97 134.34 112.4 134.29 123.75 133.23C129.17 132.73 134.76 132.05 139.72 129.66C142.2 128.47 144.49 126.9 146.74 125.33C147.75 124.62 148.75 123.9 149.76 123.19C150.23 122.86 150.71 122.52 151.19 122.2C151.03 122.31 150.62 122.57 151.36 122.09C151.73 121.85 152.11 121.61 152.48 121.37C157.39 118.31 162.72 115.97 168.27 114.38C169.32 114.08 170.26 112.48 170.56 111.56C170.97 110.3 171.08 109.03 170.93 107.71C170.73 105.91 169.44 102.16 166.92 102.59C153.47 104.9 140.01 107.13 126.51 109.13C123.99 109.5 122.97 112.06 122.83 114.34C122.7 116.36 123.34 120.13 125.77 120.75C143.56 125.29 160.7 117.32 176.8 110.62C181.68 108.59 186.58 106.6 191.45 104.53C193.96 103.46 194.53 99.5797 193.96 97.2497C193.45 95.1497 191.76 92.1497 189.12 93.2697C180.95 96.7497 172.9 100.51 164.65 103.8C156.84 106.91 149.13 109.58 140.9 110.29C138.65 110.48 136.39 110.53 134.14 110.38C131.62 110.22 129.87 109.93 127.56 109.32L126.81 120.95C140.32 119.08 153.8 117.03 167.22 114.63L165.88 102.84C160.97 104.29 156.24 106.31 151.82 108.91C149.47 110.29 147.23 111.84 145.03 113.43C144.03 114.15 143.03 114.88 142.02 115.59C141.78 115.76 141.54 115.92 141.3 116.09C141.46 115.98 141.85 115.73 141.13 116.2C140.52 116.59 139.91 116.98 139.28 117.34C134.67 120.01 130.32 120.75 125.13 121.27C119.59 121.83 114.03 122.13 108.47 122.21C102.07 122.3 95.68 122.07 89.3 121.54L89.59 133.45C104.48 130.05 120.2 133.14 134.76 127.8C137.16 126.92 137.65 123.27 137.41 121.17C137.16 118.95 136 116.21 133.42 116.08C125.55 115.67 117.68 115.2 109.81 114.69C106.12 114.45 102.41 114.26 98.73 113.86C96.81 113.65 95.69 113.49 94.05 113.1C92.32 112.68 90.63 112.12 89 111.4L89.28 122.99C102.83 119.4 117.98 119.51 132.28 119.64L131.99 107.79C115.47 110 98.79 110.83 82.13 110.27L82.41 121.81C90.11 120.67 97.86 119.57 105.66 119.46C113.46 119.35 120.45 120.18 127.62 123.03L128.33 111.94C113.5 112.94 98.66 113.74 83.81 114.29C81.25 114.39 80.22 117.79 80.33 119.89C80.44 121.99 81.42 125.2 84.08 125.31C97.47 125.86 110.85 126.42 124.24 126.97L123.97 116.11C103.28 118.55 82.58 120.97 61.88 123.38L63.07 133.88C73.51 130.46 84.22 128.08 95.12 126.75L94.86 116.07C81.6 117.97 68.46 120.67 55.51 124.12L57.62 134.34C70.03 130.83 82.43 127.31 94.83 123.79C95.75 123.53 96.57 122.13 96.83 121.32C97.19 120.22 97.29 119.1 97.16 117.96C96.99 116.41 95.84 113.07 93.66 113.48C85.11 115.09 76.49 116.29 67.82 117.05C63.66 117.42 59.48 117.73 55.3 117.83C51.12 117.93 47.27 117.72 43.41 116.55L43.65 126.52C49.81 122.62 56.42 121.28 63.43 120.38C70.84 119.44 78.28 118.91 85.53 117.02C86.42 116.79 87.23 115.38 87.48 114.62C87.83 113.55 87.92 112.47 87.8 111.35C87.58 109.43 86.6 107.16 84.4 107C71.06 106.08 57.57 108.13 45.05 112.83C43.03 113.59 42.61 116.64 42.81 118.43C43 120.11 44.02 122.87 46.17 122.73C59.2 121.89 72.24 121.05 85.27 120.21C89.7 119.92 89.47 110.33 85.03 110.23C70.23 109.91 56.13 115.83 43.87 123.69C40.18 126.06 36.6 128.59 33.12 131.24C31.43 132.53 31.41 135.61 31.95 137.4C32.37 138.77 34 141.29 35.82 140.15C45.85 133.86 57.21 129.64 68.98 128.26L68.75 118.94C54.63 121.06 41.43 126.8 30.13 135.51C26.97 137.95 23.99 140.62 21.23 143.5L25.67 147.19C25.66 148.22 25.7 147.12 25.73 146.92C25.62 147.77 25.8 146.83 25.87 146.62C25.64 147.23 25.98 146.43 26.09 146.25C26.25 145.99 26.42 145.74 26.6 145.5C26.74 145.31 26.75 145.3 26.6 145.48C26.72 145.34 26.85 145.2 26.98 145.06C27.19 144.83 27.42 144.6 27.64 144.39C28.19 143.86 28.78 143.36 29.39 142.89C31.8 141.02 34.73 139.34 37.53 137.73C43.63 134.21 50.01 131.19 56.57 128.65C59.99 127.33 58.87 118.74 54.83 120.2C47.82 122.73 41.12 126.06 34.89 130.14C31.71 132.23 28.75 134.68 25.86 137.15C22.97 139.62 20.33 143.01 17.87 146.05C16.64 147.57 17.99 152.46 20.27 150.51L20.34 150.46Z" fill="#1D1D1B"/>
<path d="M175.28 105.36C170.83 108.2 166.32 110.94 161.82 113.69C157.32 116.44 152.57 119.19 147.48 121.12L149.22 129.57C154.57 126.03 159.91 122.49 165.26 118.94C167.01 117.78 167.63 115.5 167.14 113.48C166.83 112.18 165.36 109.34 163.51 110.49C154.16 116.35 143.61 120.02 132.62 121.07C130.58 121.26 129.74 123.78 129.84 125.54C129.92 127.06 130.74 130.07 132.84 129.87C144.32 128.77 155.49 125.06 165.26 118.94L163.52 110.49C158.17 114.03 152.83 117.57 147.48 121.12C145.73 122.28 145.11 124.56 145.6 126.58C146 128.22 147.23 130.33 149.23 129.57C154.33 127.63 159.23 125.04 163.76 122C168.29 118.96 172.77 114.94 177.06 111.18C178.11 110.26 178.22 108.39 177.82 107.15C177.54 106.27 176.48 104.59 175.29 105.35L175.28 105.36Z" fill="#1D1D1B"/>
<path d="M79.2199 105.47C78.2399 104.89 77.15 104.25 76.05 103.92C74.82 103.55 73.43 103.59 72.16 103.52C69.91 103.4 67.66 103.34 65.41 103.34C60.83 103.34 56.24 103.57 51.68 104.05C47.12 104.53 42.6099 105.24 38.1299 106.2C33.8999 107.11 29.8099 108.23 26.2599 110.8C19.6799 115.56 17.0999 124.4 15.6099 131.98C14.6399 136.9 14.7399 141.87 16.5999 146.57C16.9299 147.41 17.3099 148.24 17.6399 149.08C17.7399 149.34 17.8399 149.6 17.9299 149.86C17.9299 149.88 18.1399 150.52 18.0199 150.12C17.8999 149.72 18.0699 150.37 18.0799 150.39C18.0799 150.41 18.21 151.52 18.2 151.02C18.19 150.52 18.1799 151.25 18.1799 151.27C18.3699 150.56 18.1799 151.17 18.1399 151.35C18.1399 151.35 18.0099 152.03 18.0999 151.64C18.1999 151.2 17.9699 152.03 17.9499 152.12C17.6099 153.14 17.1699 154.12 16.7199 155.09C14.8799 159.09 13.6699 163.25 14.0499 167.71C14.4299 172.17 16.0899 176.82 19.7499 179.76C21.3399 181.03 23.1099 179.76 23.6599 178.08C24.2699 176.22 24.1499 173.42 22.4799 172.09C22.2199 171.88 21.9699 171.65 21.7099 171.43C21.2299 171.01 21.5 171.24 21.62 171.38C21.51 171.26 21.4099 171.13 21.3099 170.99C21.1099 170.73 20.9199 170.45 20.7399 170.18C20.6499 170.04 20.5699 169.9 20.4799 169.76C20.7499 170.24 20.5599 169.91 20.4299 169.6C20.2999 169.29 20.1899 168.98 20.0599 168.67C19.8799 168.24 20.1199 168.86 20.1299 168.91C20.0899 168.75 20.0399 168.58 20.0099 168.42C19.9199 168.03 19.85 167.64 19.79 167.25C19.77 167.13 19.7499 166.58 19.7699 167.15C19.7999 167.76 19.7699 166.99 19.7699 166.88C19.7499 166.53 19.7499 166.19 19.7499 165.84C19.7499 165.69 19.8199 164.95 19.7499 165.56C19.6899 166.14 19.7499 165.55 19.7699 165.45C19.8199 165.11 19.8599 164.76 19.9199 164.42C19.9699 164.13 20.29 162.94 20.03 163.79C20.54 162.13 21.2599 160.59 21.9799 159.01C22.8599 157.08 23.6199 155.04 23.8299 152.92C24.0899 150.34 23.7 147.92 22.87 145.48C22.58 144.63 22.22 143.8 21.87 142.97C21.71 142.58 21.5499 142.2 21.3899 141.81C21.3099 141.62 21.2399 141.42 21.1699 141.22C21.0999 141.03 20.9199 140.32 21.0499 140.84C20.6599 139.22 20.64 138.14 20.86 136.44C20.99 135.45 21.17 134.48 21.37 133.51C21.47 133.06 21.5699 132.62 21.6699 132.17C21.7199 131.95 21.7799 131.73 21.8299 131.51C21.6399 132.26 21.8599 131.4 21.8999 131.26C22.3399 129.63 22.8299 128.01 23.4399 126.43C23.5999 126.01 23.77 125.59 23.95 125.17C24.01 125.03 24.4199 124.18 24.1699 124.67C24.5699 123.87 25.0099 123.09 25.4899 122.34C25.6999 122.02 25.9199 121.71 26.1399 121.4C26.4399 120.97 26.1699 121.31 26.5099 120.92C27.0899 120.25 27.7199 119.62 28.3999 119.06C31.0399 116.85 34.6099 115.82 37.9099 115.09C42.0399 114.17 46.23 113.5 50.43 113.01C55.22 112.45 60.05 112.16 64.87 112.14C67.2 112.14 69.53 112.18 71.86 112.3C73.02 112.36 74.31 112.6 75.47 112.47C76.76 112.32 78.1199 111.83 79.3299 111.37C80.3999 110.96 80.7499 109.38 80.7299 108.39C80.6999 107.19 80.2299 106.1 79.1799 105.48L79.2199 105.47Z" fill="#1D1D1B"/>
</g>
<defs>
<clipPath id="clip0_3416_10561">
<rect width="282.46" height="248.75" fill="white"/>
</clipPath>
</defs>
</svg>
