<svg width="172" height="165" viewBox="0 0 172 165" fill="none" xmlns="http://www.w3.org/2000/svg">
<g clip-path="url(#clip0_3416_12200)">
<path d="M75.0301 11.7697C70.8101 6.20971 64.6801 2.84971 58.0001 1.15971C51.0901 -0.590289 43.7201 -0.310289 36.8701 1.56971C28.6901 3.80971 21.5201 8.00971 15.5701 14.0497C8.63006 21.0897 4.21006 30.4597 2.03006 40.0297C-0.419939 50.7997 -0.989939 62.3197 2.24006 72.9797C5.00006 82.0997 9.68006 90.4797 15.0901 98.2797C20.5001 106.08 27.2301 113.98 34.0501 121.15C40.8201 128.28 47.9701 135.06 55.3201 141.58C61.0501 146.66 66.9101 151.58 72.9101 156.34C75.9801 158.78 79.0901 161.19 82.2501 163.52C82.3901 163.62 82.5301 163.73 82.6801 163.83C83.2101 164.15 83.7301 164.15 84.2601 163.83C91.9001 157.35 99.5301 150.86 107.16 144.36C116.58 136.34 126.27 128.53 135.18 119.95C143.93 111.52 152 102.21 158.43 91.8697C166.69 78.5997 172.05 63.7297 171.01 47.9197C169.89 30.8497 159.43 15.8497 144.9 7.17971C138.13 3.13971 130.24 0.819711 122.33 1.19971C115.67 1.51971 109.11 3.63971 103.24 6.74971C98.5001 9.25971 94.1301 12.4397 90.1601 16.0297C88.0001 17.9897 85.6301 20.0697 83.8701 22.4297C81.6901 25.3397 82.1901 29.2897 82.8901 32.6397C83.1301 33.7897 82.5401 30.5997 82.7701 31.9897C82.8301 32.3797 82.9001 32.7697 82.9601 33.1597C83.1001 34.1397 83.2201 35.1297 83.2901 36.1197C83.3101 36.3697 83.3201 36.6097 83.3401 36.8597C83.1301 34.1697 83.2601 35.4897 83.2901 36.1197C83.3201 36.7497 83.3201 37.3197 83.3101 37.9197C83.3101 38.2297 83.2901 38.5297 83.2801 38.8397C83.2601 39.7997 83.4501 36.7497 83.3201 38.0697C83.2601 38.7197 83.1801 39.3697 83.0901 40.0197C82.9301 41.1697 83.4701 38.2897 83.2001 39.4197C83.1301 39.7197 83.0701 40.0197 82.9901 40.3097C82.9201 40.5697 82.8301 40.8297 82.7601 41.0897C82.5601 41.8397 83.0201 40.1997 83.0301 40.2897C83.0501 40.4297 82.8701 40.6997 82.8201 40.8397C82.7101 41.1097 82.5801 41.3797 82.4601 41.6397C82.4101 41.7597 82.3301 41.8697 82.2801 41.9897C82.0801 42.4897 82.9101 41.0097 82.5901 41.4397C82.2201 41.9297 81.8901 42.4197 81.5001 42.8997C80.9301 43.5897 81.9801 42.5597 81.5301 42.8997C81.3001 43.0697 81.0801 43.2697 80.8501 43.4397C80.3601 43.7897 79.8301 44.0797 79.2701 44.3097C79.0401 44.4097 78.1001 44.6497 78.9501 44.4597C78.6601 44.5297 78.3701 44.6097 78.0701 44.6597C77.2901 44.7997 76.5001 44.8597 75.7101 44.8597C71.5201 44.8497 67.3201 44.6097 63.1301 44.6297C61.0901 44.6297 59.0001 44.9297 56.9701 44.7997C54.9401 44.6697 52.9601 45.0297 51.0801 45.7497C47.6201 47.0797 45.5801 50.5297 44.7601 53.9897C43.4801 59.3397 43.6101 66.3497 47.0401 70.9497C48.8101 73.3197 51.5301 74.4997 54.4101 74.8097C56.3001 75.0097 58.2401 74.7197 60.1401 74.7197H104.32C106.12 74.7197 107.91 74.6997 109.71 74.6797C110.66 74.6697 111.61 74.7097 112.55 74.8197C113.13 74.8897 113.71 74.9697 114.28 75.0897C114.56 75.1497 114.84 75.2197 115.12 75.2897C115.26 75.3197 115.4 75.3697 115.54 75.4097C114.73 75.1897 115.41 75.3697 115.59 75.4397C116.21 75.6897 116.83 75.9397 117.41 76.2897C117.67 76.4397 117.92 76.5997 118.16 76.7797C118.28 76.8697 118.39 76.9597 118.51 77.0497C119.08 77.4697 118.75 77.0497 118.46 76.9797C118.67 77.0297 118.9 77.5097 119.04 77.6697C119.09 77.7297 119.22 77.9997 119.3 78.0497C118.74 77.6997 118.85 77.0797 119.09 77.7197C119.62 79.0997 118.86 76.8297 119.09 77.6497C119.24 78.1897 118.93 78.2397 118.95 76.8297C118.95 77.3397 118.98 78.5697 118.95 76.2697C118.95 76.8597 118.71 77.0797 119.03 75.3497C119.02 75.4097 118.97 75.8897 118.97 75.8897C118.95 75.8797 119.33 74.1997 119.11 75.0197C119.53 73.4797 119.5 73.9497 119.34 74.3297C119.96 73.6297 118.89 75.3997 119.34 74.3297C119.25 74.4397 119.15 74.5497 119.07 74.6597C118.6 75.2897 119.43 74.4397 119.17 74.5697C118.64 74.8497 118.19 75.2597 117.64 75.5197C117.38 75.6397 117.1 75.7297 116.83 75.8397C116.33 76.0497 116.9 75.8097 116.99 75.7897C116.78 75.8397 116.57 75.8997 116.35 75.9497C114.35 76.3897 112.32 76.3297 110.28 76.3397C107.14 76.3497 103.99 76.4697 100.85 76.5497C89.5801 76.8297 78.3101 77.1297 67.0501 77.4297C64.2601 77.4997 61.4701 77.5797 58.6801 77.6497C54.3601 77.7597 49.3001 78.5297 46.0701 81.6197C42.1401 85.3697 41.7001 92.1997 43.1201 97.1597C44.3501 101.43 47.2101 104.39 51.4401 105.67C54.4801 106.59 57.5701 106.5 60.7001 106.5C63.5601 106.5 66.4301 106.5 69.2901 106.5C75.8801 106.5 82.4601 106.5 89.0501 106.5C92.4701 106.5 95.9901 106.73 99.4101 106.5C100.63 106.42 101.82 106.24 103.05 106.24C104.28 106.24 105.44 106.33 106.62 106.56C106.89 106.61 107.16 106.68 107.44 106.74C108.27 106.93 107.18 106.59 107.65 106.8C108.25 107.07 108.85 107.28 109.41 107.62C109.67 107.78 109.91 107.96 110.15 108.14C110.84 108.66 109.94 107.79 110.17 108.16C110.31 108.38 110.51 108.61 110.67 108.81C111.08 109.31 110.39 108.37 110.39 108.3C110.39 108.42 110.57 108.79 110.66 108.9C110.17 108.27 110.25 107.6 110.4 108.18C110.65 109.15 110.17 106.64 110.27 107.4C110.31 107.7 110.35 108.38 110.27 107.15L110.23 106.52C110.23 106.71 110.23 106.91 110.23 107.1C110.21 107.1 110.39 105.22 110.27 106.18C110.21 106.7 109.95 106.92 110.44 105.38C110.39 105.54 110.35 105.73 110.32 105.89C110.13 106.79 110.91 104.71 110.46 105.46C110.39 105.58 110.31 105.77 110.26 105.89C110 106.57 110.43 105.44 110.52 105.44C110.46 105.44 109.97 106.2 109.92 106.25C109.83 106.36 109.71 106.46 109.62 106.58C109.34 106.97 110.38 105.99 109.78 106.42C109.49 106.63 109.22 106.87 108.92 107.06C108.45 107.37 107.95 107.64 107.43 107.87C107.15 108 106.86 108.11 106.56 108.21C106.43 108.26 106.3 108.29 106.17 108.34C105.89 108.45 106.9 108.18 106.19 108.32C104.66 108.64 103.13 108.93 101.55 108.88C100.61 108.85 99.6701 108.79 98.7201 108.81C93.4901 108.9 87.7201 109.97 84.0501 113.99C80.9001 117.45 80.5501 122.51 80.5201 126.93C80.5001 129.6 80.4001 132.28 80.5901 134.95C80.7001 136.42 81.6301 140.45 83.8501 139.79C86.0701 139.13 86.3501 134.99 86.4301 133.16C86.4801 132.07 86.4501 130.98 86.4601 129.89C86.4701 128.36 86.2401 126.53 85.5901 125.12C85.2301 124.35 84.5201 123.14 83.4901 123.14C80.9001 123.14 80.5301 128.31 80.5201 129.89C80.5201 130.98 80.5401 132.07 80.4901 133.16L86.3201 131.37C86.6101 135.47 86.4401 130.9 86.4401 129.98C86.4401 128.59 86.4501 127.2 86.4601 125.8C86.4601 125.59 86.5201 124.16 86.4301 125.69C86.3501 127.03 86.4101 126.13 86.4501 125.84C86.5801 124.79 86.0901 127.53 86.3301 126.52C86.6301 125.25 85.8101 127.57 86.2201 126.82C86.2701 126.73 86.5101 126.32 86.5001 126.23C86.5101 126.3 85.8101 127.26 86.2201 126.73C86.4801 126.4 86.7201 126.06 86.9801 125.73C87.4301 125.16 87.2601 125.79 86.8601 125.82C86.9401 125.82 87.1801 125.54 87.2601 125.48C87.6101 125.19 87.9901 124.93 88.3801 124.68C89.0501 124.26 89.7701 123.92 90.5001 123.63C90.7201 123.54 92.0601 123.11 91.1601 123.37C91.5801 123.25 92.0001 123.13 92.4301 123.04C95.0801 122.42 97.8501 122.24 100.57 122.34C101.83 122.39 103.05 122.39 104.31 122.21C107.89 121.7 111.46 120.23 113.52 117.1C115.58 113.97 116.23 110.16 116.18 106.52C116.13 103.12 115.48 99.1797 113.17 96.5097C110.74 93.7097 107 92.8197 103.42 92.7497C101.99 92.7197 100.59 92.9497 99.1701 92.9997C93.0701 93.2397 86.9201 92.9997 80.8101 92.9997H57.6701C56.5301 92.9997 55.3901 92.9697 54.2601 92.8197C53.6001 92.7297 52.9501 92.5997 52.3101 92.4397C51.7101 92.2797 52.9501 92.6897 51.9901 92.3397C51.6001 92.1997 51.2101 92.0397 50.8401 91.8697C50.3201 91.6197 49.8201 91.3397 49.3501 91.0097C49.0701 90.8197 48.1401 89.8797 48.8601 90.6797C48.5401 90.3197 48.2601 89.9197 47.9501 89.5597C47.4901 89.0197 48.2501 89.9297 48.2001 90.0197C48.1301 89.8897 48.0701 89.7497 48.0101 89.6097C47.8001 89.0897 47.8801 89.3397 48.2401 90.3497C48.0901 89.8197 48.0301 89.0097 48.3401 91.1097C48.2501 90.5097 48.3401 89.6697 48.3701 92.0397C48.3601 91.0297 48.2001 93.8497 48.3001 93.0797C48.3901 92.3597 47.8701 94.8697 48.1301 93.9397C48.3901 93.0097 47.5701 95.3397 47.9501 94.4397C48.3301 93.5397 48.0001 94.7197 47.7901 94.6797C47.8101 94.6797 48.1801 94.1697 48.2101 94.1297C48.2801 94.0397 48.3601 93.9597 48.4401 93.8697C48.6401 93.6597 48.5401 93.7497 48.1501 94.1397C48.4001 93.5197 49.9501 92.9197 50.5101 92.6597C50.9301 92.4697 51.3701 92.3197 51.8001 92.1497C52.5801 91.8497 51.1601 92.2997 51.9701 92.0897C52.2501 92.0197 52.5301 91.9397 52.8101 91.8697C56.1801 91.0697 59.6401 91.1197 63.0801 91.0297C77.0001 90.6597 90.9301 90.2797 104.85 89.9497C109.27 89.8497 114.17 90.3497 118.37 88.8597C125.15 86.4497 125.55 77.2397 124.32 71.3497C123.74 68.5597 122.43 66.0197 120.25 64.1697C118.77 62.9197 116.96 62.2697 115.11 61.7797C111.96 60.9597 108.65 61.2197 105.42 61.2197H86.4001C76.4901 61.2197 66.5101 60.9197 56.6201 61.3797C55.2901 61.4397 54.0501 61.2297 52.7501 61.0297C52.0801 60.9197 53.4201 61.3097 52.7901 61.0497C52.6101 60.9697 52.4201 60.9197 52.2401 60.8397C51.9301 60.7097 51.6301 60.5697 51.3401 60.3997C50.9801 60.1897 50.6801 59.9197 50.3401 59.6997C49.7201 59.3097 50.8901 60.3897 50.4401 59.7997C50.3101 59.6297 50.1501 59.4697 50.0201 59.2997C49.9601 59.2197 49.7301 58.7697 49.6501 58.7397C50.0301 58.8597 50.1901 59.7997 49.8201 58.9497C49.4301 58.0297 50.1701 60.3597 49.9501 59.3497C49.8001 58.6797 50.0101 58.2997 50.0201 59.8697C50.0201 59.6997 49.9801 59.4197 49.9501 59.2697C50.3501 61.1197 50.0301 60.4797 50.0101 59.7697C49.9701 58.4797 49.8201 61.5397 49.9801 60.3197C50.1201 59.2197 49.6401 62.0697 49.9401 60.5597C50.1001 59.7597 49.7601 61.1497 49.7101 61.1897C49.8101 61.1097 49.9501 60.6497 50.0001 60.5197C50.2801 59.7097 49.3101 61.4097 49.8601 60.7797C50.0001 60.6197 50.1101 60.4197 50.2501 60.2497C50.3601 60.1197 50.5001 59.9897 50.6001 59.8597C50.8801 59.4897 49.8301 60.4197 50.4201 60.0497C50.8201 59.7997 51.1701 59.4897 51.5801 59.2597C51.8601 59.0997 52.1601 58.9697 52.4601 58.8397C52.6401 58.7697 52.8201 58.7097 53.0001 58.6397C53.6201 58.3797 52.2801 58.7797 52.9301 58.6697C53.5801 58.5597 54.2701 58.3897 54.9601 58.3297C55.7801 58.2597 56.5801 58.3297 57.3901 58.3297C58.2001 58.3297 59.0501 58.2097 59.8801 58.1797C64.2201 58.0297 68.5801 58.1497 72.9201 58.2697C75.4401 58.3397 77.7301 58.4097 80.1401 57.5797C81.8801 56.9797 83.2501 55.9097 84.4901 54.5597C87.3701 51.3997 88.5001 46.6097 88.9601 42.4897C89.4201 38.3697 89.2901 34.4497 88.7901 30.4897C88.5601 28.6497 88.2501 26.7897 87.8201 24.9797L86.7501 34.2197C87.4101 33.3997 88.1401 32.6297 88.8601 31.8597C89.2401 31.4597 89.6201 31.0697 90.0101 30.6897C90.1901 30.5097 90.3701 30.3297 90.5601 30.1497C91.3801 29.3497 89.9401 30.7297 90.8101 29.9197C91.9201 28.8697 93.0701 27.8597 94.2501 26.8897C97.1301 24.5097 100.2 22.3597 103.46 20.5197C105.2 19.5397 106.99 18.6497 108.83 17.8697C109.82 17.4497 110.83 17.0597 111.85 16.7097C112.11 16.6197 112.37 16.5297 112.63 16.4497C112.72 16.4197 113.59 16.1597 112.89 16.3597C113.42 16.1997 113.95 16.0497 114.49 15.9197C118.98 14.7697 123.67 14.3797 128.28 14.9197C133.68 15.5497 138.17 17.1997 142.99 20.0297C145.77 21.6597 148.39 23.5797 150.84 25.6697C151.32 26.0797 151.79 26.4997 152.26 26.9197C152.53 27.1697 152.81 27.4197 153.08 27.6697C153.96 28.4897 152.59 27.1597 153.42 27.9997C154.41 28.9997 155.38 30.0097 156.3 31.0697C158 33.0397 159.56 35.1397 160.91 37.3597C161 37.4997 161.4 37.9997 161.38 38.1597L161.08 37.6397C161.18 37.8197 161.28 37.9997 161.37 38.1697C161.66 38.6997 161.93 39.2397 162.19 39.7797C162.7 40.8397 163.17 41.9197 163.59 43.0197C163.69 43.2897 163.79 43.5597 163.89 43.8297C164.27 44.8697 163.47 42.4997 163.79 43.5497C163.96 44.0897 164.13 44.6397 164.27 45.1897C164.39 45.6397 164.51 46.0997 164.62 46.5597C164.68 46.8297 164.74 47.1097 164.8 47.3797C165.12 48.9097 164.59 46.0897 164.76 47.1397C164.93 48.1897 165.07 49.1497 165.16 50.1597C165.19 50.4297 165.21 50.7097 165.23 50.9897C165.33 52.1697 165.15 49.1097 165.19 50.2997C165.21 50.9397 165.24 51.5797 165.24 52.2297C165.24 52.7797 165.24 53.3297 165.21 53.8797C165.21 54.0597 165.19 54.2497 165.19 54.4297C165.14 55.6097 165.33 52.5597 165.23 53.7397C165.13 54.9197 165.01 56.1197 164.83 57.3097C164.76 57.7697 164.68 58.2197 164.6 58.6797C164.96 56.3397 164.64 58.4297 164.52 58.9797C164.26 60.1597 163.97 61.3397 163.63 62.5097C163.5 62.9597 163.37 63.4097 163.23 63.8597C163.09 64.3097 162.39 66.2397 163.08 64.3697C162.69 65.4397 162.31 66.5097 161.89 67.5597C161.04 69.6897 160.09 71.7697 159.05 73.8197C158.53 74.8497 157.99 75.8597 157.43 76.8697C157.29 77.1197 157.12 77.3697 157.01 77.6197C157.04 77.5397 157.58 76.6297 157.18 77.3097C156.84 77.8897 156.5 78.4697 156.16 79.0397C154.98 80.9997 153.73 82.9197 152.43 84.8097C147.69 91.6797 142.27 98.0797 136.46 104.07C135.24 105.33 134 106.56 132.75 107.78C132.6 107.92 132.46 108.06 132.31 108.21C131.76 108.74 132.99 107.56 132.44 108.08C132.16 108.35 131.88 108.61 131.6 108.88C131.07 109.38 130.54 109.88 130 110.37C127.7 112.48 125.33 114.49 122.97 116.52C109.85 127.78 96.6701 138.98 83.4901 150.16C83.2201 150.39 82.9401 150.63 82.6701 150.86H84.2501C82.1601 149.35 80.1101 147.77 78.0701 146.19C72.8101 142.11 67.6601 137.91 62.6101 133.59C59.3301 130.78 56.0901 127.93 52.8901 125.02C51.2101 123.49 49.5501 121.95 47.9001 120.38C47.4601 119.97 47.0301 119.55 46.5901 119.13C46.0601 118.62 47.0201 119.55 46.4901 119.04C46.2501 118.81 46.0201 118.59 45.7801 118.36C44.9301 117.54 44.0901 116.72 43.2601 115.89C36.3201 109.02 29.6801 101.84 23.6301 94.1697C20.7601 90.5197 18.0201 86.7597 15.5201 82.8497C14.9001 81.8797 14.3001 80.9097 13.7101 79.9197C13.4401 79.4697 13.1801 79.0197 12.9201 78.5697C12.4601 77.7797 13.1501 78.9897 13.0101 78.7297C12.8701 78.4697 12.7201 78.2097 12.5701 77.9397C11.5401 76.0797 10.5801 74.1697 9.70006 72.2297C9.27006 71.2797 8.86006 70.3197 8.47006 69.3497C8.30006 68.9097 8.13006 68.4697 7.96006 68.0297C7.88006 67.8097 7.80006 67.5897 7.72006 67.3697C7.68006 67.2597 7.64006 67.1497 7.60006 67.0397C7.35006 66.3497 7.83006 67.7197 7.84006 67.7497C7.28006 65.9197 6.72006 64.0997 6.32006 62.2197C6.28006 62.0097 6.24006 61.7897 6.19006 61.5797C6.10006 61.1797 6.50006 63.3697 6.33006 62.3397C6.26006 61.8797 6.18006 61.4197 6.12006 60.9597C6.06006 60.5397 6.01006 60.1197 5.97006 59.6997C5.95006 59.4597 5.93006 59.2097 5.91006 58.9697C5.80006 57.7997 5.99006 60.7097 5.96006 59.8297C5.93006 58.7997 5.92006 57.7797 5.94006 56.7497C5.96006 56.0597 5.99006 55.3797 6.02006 54.6997C6.05006 53.9597 5.94006 55.7897 5.96006 55.6497C5.99006 55.4897 5.98006 55.3097 5.99006 55.1497C6.02006 54.7097 6.06006 54.2697 6.10006 53.8297C6.22006 52.4897 6.38006 51.1597 6.58006 49.8297C6.67006 49.2197 6.73006 48.5697 6.89006 47.9797C6.92006 47.8497 6.59006 49.4997 6.73006 48.8297C6.76006 48.6797 6.79006 48.5297 6.82006 48.3797C6.89006 48.0297 6.96006 47.6897 7.04006 47.3397C7.32006 46.0897 7.63006 44.8397 7.99006 43.6097C8.15006 43.0597 8.32006 42.5097 8.50006 41.9597C8.82006 40.9397 8.27006 42.5797 8.40006 42.2497C8.52006 41.9397 8.62006 41.6297 8.73006 41.3197C9.53006 39.1597 10.4701 37.0597 11.5601 35.0297C11.6801 34.7997 11.8101 34.5697 11.9401 34.3397C12.0801 34.0697 11.3801 35.2797 11.8601 34.4997C12.1501 34.0197 12.4301 33.5497 12.7301 33.0797C13.3201 32.1597 13.9401 31.2597 14.5901 30.3897C15.8301 28.7297 17.1801 27.1597 18.6401 25.6797C18.8101 25.5097 18.9801 25.3497 19.1501 25.1797C19.3201 25.0097 18.5701 25.7197 19.1301 25.1997C19.5101 24.8497 19.8801 24.5097 20.2701 24.1697C21.0301 23.5097 21.8101 22.8697 22.6201 22.2597C25.6501 19.9697 28.9801 18.0797 32.4901 16.6397C33.3701 16.2797 34.2601 15.9497 35.1601 15.6397C35.3701 15.5697 35.5701 15.4997 35.7801 15.4397C36.3901 15.2397 35.6401 15.4797 35.8201 15.4197C36.2701 15.2897 36.7201 15.1597 37.1701 15.0397C38.9201 14.5697 40.7101 14.2197 42.5001 13.9697C45.9601 13.4897 49.4801 13.4197 52.9601 13.8097C54.6201 13.9997 56.2701 14.2897 57.8901 14.6897C58.2601 14.7797 58.6401 14.8897 59.0101 14.9897C59.4301 15.1097 59.3801 15.1097 58.9501 14.9697C59.1601 15.0397 59.3701 15.0997 59.5801 15.1697C60.3301 15.4197 61.0601 15.6897 61.7901 15.9897C64.6401 17.1697 67.3201 18.7597 69.6201 20.8097C69.7501 20.9297 69.8801 21.0497 70.0101 21.1697C70.4801 21.5797 69.3801 20.5297 69.8101 20.9797C70.0701 21.2497 70.3401 21.5197 70.6001 21.7997C71.0901 22.3397 71.5601 22.8997 72.0001 23.4797C73.8101 25.8597 75.6401 22.8197 76.0601 21.0597C76.7301 18.2797 76.8401 14.2497 74.9901 11.8197L75.0301 11.7697Z" fill="#231F20"/>
</g>
<defs>
<clipPath id="clip0_3416_12200">
<rect width="171.14" height="164.08" fill="white"/>
</clipPath>
</defs>
</svg>
