<svg width="296" height="184" viewBox="0 0 296 184" fill="none" xmlns="http://www.w3.org/2000/svg">
<g clip-path="url(#clip0_3416_12094)">
<path d="M174.69 112.68C178.04 114.54 181.38 116.41 184.72 118.29C187.71 119.97 190.7 121.66 193.68 123.36C196.66 125.06 199.83 127.15 203.12 128.53C206.65 130.01 211.04 131.01 214.09 128.13C214.14 128.09 214.17 128.03 214.22 127.99C214.14 128.06 213.95 128.27 214.3 127.94C214.51 127.74 214.72 127.54 214.93 127.34C215.36 126.92 215.78 126.49 216.17 126.03C217.41 124.59 218.45 122.91 219.13 121.13C220.63 117.21 220.77 112.86 219.77 108.8C219.07 105.94 217.72 103.08 216.02 100.68C215.19 99.5101 213.95 98.6101 212.77 97.8201C208.89 95.2301 204.55 93.2601 200.29 91.3701C191 87.2501 181.22 83.2501 171.16 81.5101C164.17 80.3001 157.33 78.5301 150.96 75.3401C148.24 73.9801 146.12 72.1401 144.27 69.7301C143.45 68.6601 142.7 67.5301 142.01 66.3601C141.92 66.2101 141.84 66.0701 141.75 65.9201C141.76 65.9401 142.01 66.3801 141.84 66.0801C141.72 65.8501 141.59 65.6301 141.47 65.4001C141.27 65.0201 141.08 64.6501 140.89 64.2601C140.73 63.9201 140.57 63.5801 140.42 63.2401C140.06 62.3901 139.48 61.7601 138.55 62.1101C135.87 63.1301 133.2 64.1401 130.52 65.1601C129.2 65.6601 127.79 66.0901 126.51 66.6801C125.46 67.1701 125.14 68.3001 124.88 69.3701C124.7 70.0901 124.9 69.2901 124.98 69.1201C124.88 69.3401 124.81 69.5901 124.71 69.8101C124.58 70.1101 124.45 70.4101 124.3 70.7101C124.22 70.8801 124.13 71.0401 124.05 71.2101C123.66 71.9701 124.25 70.9401 123.94 71.4101C122.85 73.0401 121.67 74.5901 120.26 75.8201C116.19 79.3401 110.29 82.3501 104.77 81.4401C103.04 81.1601 101.53 80.3201 100.07 79.1401C99.64 78.7901 100.45 79.5501 100.09 79.1701C99.98 79.0601 99.87 78.9501 99.77 78.8301C99.61 78.6501 99.46 78.4701 99.31 78.2801C99.16 78.0901 99.03 77.9101 98.92 77.7201L99.61 79.2901C99.34 78.4401 99.75 80.4301 99.67 79.6701C99.85 81.3401 99.71 80.6401 99.73 80.1701C99.68 81.9201 99.71 81.0201 99.73 80.5901C99.78 79.9701 99.46 81.7101 99.64 81.1001C99.69 80.9101 99.73 80.7201 99.78 80.5301C99.85 80.2801 99.93 80.0301 100 79.7701C100.25 78.8901 99.7 80.5501 100.03 79.6901C100.31 78.9801 100.59 78.2801 100.9 77.5901C101.57 76.1201 102.31 74.6801 103.1 73.2601C103.19 73.1001 103.79 72.0501 103.42 72.6901C103.67 72.2601 103.92 71.8301 104.17 71.4101C104.65 70.6101 105.13 69.8101 105.62 69.0101C109.39 62.9301 113.54 57.0801 117.81 51.3401C118.85 49.9401 120 48.5801 120.99 47.1401C121.02 47.1001 121.17 46.9701 121.17 46.9101C121.17 47.9201 120.46 47.3201 120.85 47.2801C121.03 47.2601 121.27 47.0901 121.43 47.0301C122.96 46.3801 124.55 45.8801 126.16 45.4901C131.85 44.1201 137.36 44.3701 142.99 45.8601C147.38 47.0301 151.82 47.9801 156.27 48.8901C160.72 49.8001 165.13 50.6501 169.58 51.4701C171.12 51.7501 172.66 52.0301 174.21 52.3101C174.94 52.4401 175.76 52.7101 176.51 52.7101C177.21 52.7101 177.82 52.1001 178.36 51.7201L182.43 48.8701C193.18 41.3301 203.92 33.8001 214.67 26.2601C222.9 20.4901 231.13 14.7101 239.36 8.9401L239.78 8.6501C241.27 7.6101 241.36 4.8801 241.12 3.2701C241 2.4601 240.26 -0.839898 238.75 0.210102C235.85 2.2401 232.95 4.2801 230.05 6.3101C223.5 10.9101 216.95 15.5001 210.4 20.1001C203.44 24.9801 196.49 29.8601 189.53 34.7401C185.31 37.7001 181.09 40.6601 176.87 43.6201C176.82 43.6501 176.12 44.0901 176.13 44.1401C176.06 43.8501 177.04 44.1201 176.16 43.9101C175.68 43.7901 175.17 43.7401 174.68 43.6501C170.19 42.8601 165.71 42.0201 161.24 41.1501C155.7 40.0701 150.17 38.9401 144.7 37.5601C141.46 36.7501 138.33 35.8701 134.97 35.7801C131.61 35.6901 128.43 36.1301 125.28 36.9801C123.04 37.5801 120.25 38.0701 118.77 39.9901C117.09 42.1701 115.44 44.3801 113.82 46.6101C108.49 53.9101 103.19 61.4201 99.12 69.5101C97.39 72.9401 95.86 76.6801 95.9 80.5801C95.92 82.4201 96.24 84.3201 97.37 85.8201C98.27 87.0101 99.46 88.0601 100.74 88.8001C105.99 91.8301 112.35 89.9001 117.26 87.1101C121.65 84.6101 125.46 80.7901 127.43 76.0901C127.81 75.1801 128.19 74.2301 128.37 73.2601L127.22 75.2701C131.35 73.7001 135.48 72.1301 139.61 70.5701L137.74 69.4401C139.3 73.1601 141.63 76.8501 144.46 79.7201C148.94 84.2801 155.41 86.4501 161.45 88.1401C166.84 89.6401 172.43 90.2101 177.8 91.7701C182.49 93.1201 187.33 94.9101 191.97 96.7601C196.9 98.7201 201.78 100.82 206.5 103.25C208.28 104.16 210.04 105.12 211.7 106.23C212.31 106.64 212.9 107.07 213.46 107.53C213.56 107.61 213.66 107.71 213.76 107.8C213.51 107.6 213.43 107.42 213.69 107.74C213.86 107.95 214.02 108.14 214.17 108.36C214.49 108.83 214.79 109.33 215.07 109.82C214.82 109.37 215.13 109.95 215.21 110.1C215.38 110.43 215.55 110.77 215.71 111.11C215.83 111.37 215.94 111.63 216.05 111.9C216.1 112.03 216.15 112.17 216.21 112.3C216.41 112.79 216.04 111.73 216.2 112.24C216.29 112.52 216.37 112.8 216.44 113.08C216.48 113.22 216.51 113.37 216.54 113.51C216.77 114.41 216.52 112.96 216.54 113.49C216.54 113.65 216.65 114.64 216.61 113.95C216.57 113.26 216.66 114.41 216.59 114.59C216.62 114.51 216.53 113.76 216.59 114.2C216.61 114.34 216.54 114.53 216.53 114.67C216.63 113.8 216.47 114.86 216.36 115.2C216.54 114.64 216.25 115.43 216.18 115.6C216.04 115.92 215.85 116.31 215.7 116.55C215.29 117.24 214.68 118.01 214.11 118.65C213.54 119.29 212.86 120.01 212.18 120.59C213.05 119.86 211.99 120.66 211.67 120.82C211.49 120.91 210.74 121.16 211.26 121.02C210.88 121.12 210.49 121.2 210.1 121.24C209.06 121.35 208 121.24 206.98 121.02C203.75 120.34 200.9 118.47 198.08 116.85C195.26 115.23 192.28 113.53 189.37 111.89C185.08 109.47 180.78 107.06 176.47 104.66C176.23 104.53 175.99 104.39 175.75 104.26C173.31 102.91 172.35 111.38 174.73 112.7L174.69 112.68Z" fill="#1D1D1B"/>
<path d="M205.81 130.18C206.09 130.52 206.31 130.89 206.55 131.26C206.94 131.85 206.27 130.64 206.59 131.35C206.69 131.58 206.82 131.81 206.92 132.05C206.98 132.19 207.28 133.05 207.02 132.23C207.11 132.52 207.18 132.82 207.26 133.11C207 132.13 207.24 133.13 207.26 133.34C207.11 131.93 207.08 134.08 207.24 132.74C207.13 133.65 207.59 132.29 207.14 133.15C207.42 132.63 206.79 133.83 206.83 133.76C206.12 134.98 205.1 136.09 203.95 136.91C202.14 138.2 200.07 138.67 197.89 138.27C196.26 137.97 194.26 136.81 192.5 135.96C184.39 132.06 176.3 128.11 168.21 124.17C165.91 123.05 163.6 121.92 161.3 120.8C158.71 119.54 157.88 128.07 160.28 129.24C167.02 132.53 173.77 135.82 180.52 139.1C184.86 141.21 189.2 143.33 193.56 145.4C195.48 146.31 197.42 147.2 199.59 147.17C202.58 147.13 205.12 145.56 207.12 143.44C212.2 138.08 212.5 128.39 207.76 122.65C206.54 121.18 205.42 123.02 205.13 124.22C204.71 125.96 204.58 128.71 205.82 130.21L205.81 130.18Z" fill="#1D1D1B"/>
<path d="M153.73 148.82C160.37 152.48 167.01 156.15 173.65 159.81L178.44 162.46C179.16 162.86 179.9 163.4 180.71 163.58C182.46 163.97 184.45 163.94 186.22 163.75C189.69 163.38 192.34 161.95 194.18 158.95C196.02 155.95 197.36 152.36 197.81 148.78C198.09 146.57 197.83 144.22 197.8 142C197.78 140.87 197.57 137.62 195.87 137.62C194.17 137.62 193.93 140.98 193.94 142C193.97 143.78 193.94 145.57 194.02 147.35C194.07 148.29 194.12 146 194.07 146.6C194.02 147.2 194.11 146.28 194.17 146.11C194.09 146.36 194.06 146.64 194 146.9C193.93 147.2 193.85 147.49 193.77 147.79C193.72 147.98 193.44 148.84 193.65 148.25C193.32 149.19 192.93 150.12 192.46 151C191.71 152.4 191.06 153.32 189.77 154.02C188.66 154.62 187.46 154.88 186.21 155.01C184.96 155.14 183.78 155.14 182.56 155.05C182.17 155.02 181.08 154.68 180.73 154.84C180.98 154.73 181.43 155.15 180.81 154.77C180.39 154.52 179.94 154.29 179.51 154.05L175.04 151.58C170.91 149.3 166.78 147.02 162.66 144.75C160.02 143.29 157.38 141.84 154.75 140.38C152.31 139.03 151.35 147.51 153.73 148.82Z" fill="#1D1D1B"/>
<path d="M151.06 168.15C154.57 170.04 158.22 171.81 161.99 173.11C164.59 174.01 166.8 174.45 169.54 173.99C172.85 173.43 176.82 172.27 179.05 169.57C180.86 167.37 181.78 164.16 182.36 161.41C182.74 159.58 182.93 157 181.67 155.42C180.41 153.84 179.29 155.8 179.04 156.99C178.9 157.64 178.73 158.28 178.54 158.91C178.51 159.02 178.21 159.94 178.34 159.55C178.47 159.16 178.17 159.98 178.12 160.11C177.99 160.45 177.84 160.77 177.68 161.1C177.68 161.1 177.45 161.55 177.6 161.29C177.73 161.06 177.45 161.52 177.42 161.57C176.75 162.53 175.8 163.08 174.57 163.67C172.97 164.43 171.28 164.94 169.53 165.23C167.13 165.64 165.1 165.4 162.88 164.62C160.55 163.8 158.28 162.79 156.05 161.72C154.71 161.08 153.38 160.42 152.08 159.71C149.61 158.38 148.68 166.86 151.06 168.15Z" fill="#1D1D1B"/>
<path d="M258.68 73.4499C253.7 76.4699 248.73 79.4899 243.75 82.5099C235.82 87.3199 227.9 92.1299 219.97 96.9399C218.16 98.0399 216.34 99.1399 214.53 100.24C213.01 101.16 212.96 104.1 213.19 105.62C213.32 106.52 213.99 109.62 215.56 108.68C220.54 105.66 225.51 102.64 230.49 99.6199C238.42 94.8099 246.34 89.9999 254.27 85.1899C256.08 84.0899 257.9 82.9899 259.71 81.8899C261.23 80.9699 261.28 78.0299 261.05 76.5099C260.92 75.6099 260.25 72.5099 258.68 73.4499Z" fill="#1D1D1B"/>
<path d="M1.41 48.2205C9.74 51.2105 18.07 54.1905 26.41 57.1805C39.67 61.9305 52.93 66.6905 66.19 71.4405C69.21 72.5205 72.22 73.6005 75.24 74.6805C75.91 74.9205 76.24 74.7805 76.72 74.2405C77.49 73.3805 78.32 72.5605 79.15 71.7605C78.75 72.1505 79.3 71.6205 79.42 71.5105C79.63 71.3105 79.85 71.1105 80.06 70.9205C80.57 70.4605 81.08 70.0005 81.59 69.5605C82.79 68.5305 84.02 67.5305 85.28 66.5805C91.06 62.2205 97.86 58.3605 105.23 57.8505C107.77 57.6805 110.26 58.1105 112.77 58.4205C113.41 58.5005 113.94 57.5605 114.13 57.1405C114.55 56.2405 114.71 55.0305 114.69 54.0505C114.67 52.7905 114.49 49.8805 112.76 49.6705C110.65 49.4105 108.52 49.0205 106.39 49.0505C102.46 49.1105 98.57 50.2105 94.97 51.7605C88.74 54.4405 83.14 58.5905 78.22 63.2305C77.03 64.3505 75.84 65.4805 74.76 66.7005L76.24 66.2605C67.91 63.2705 59.58 60.2905 51.24 57.3005C37.98 52.5505 24.72 47.7905 11.46 43.0405C8.44 41.9605 5.43 40.8805 2.41 39.8005C0.760004 39.2105 0.170003 41.6505 0.0400035 42.8605C-0.0799965 43.9805 -0.0599965 45.1405 0.230004 46.2305C0.390004 46.8405 0.720003 48.0005 1.38 48.2405L1.41 48.2205Z" fill="#1D1D1B"/>
<path d="M24.87 131.17C30.75 132.74 36.63 134.3 42.51 135.87C51.87 138.36 61.23 140.86 70.59 143.35C72.73 143.92 74.87 144.49 77 145.06C77.6 145.22 78.21 144.12 78.36 143.78C78.78 142.88 78.94 141.67 78.92 140.69C78.89 139.22 78.71 136.77 76.99 136.31C71.11 134.74 65.23 133.18 59.35 131.61C49.99 129.12 40.63 126.62 31.27 124.13C29.13 123.56 26.99 122.99 24.86 122.42C24.26 122.26 23.65 123.36 23.5 123.7C23.08 124.6 22.92 125.81 22.94 126.79C22.97 128.26 23.15 130.71 24.87 131.17Z" fill="#1D1D1B"/>
<path d="M141.15 143.99C141.39 144.04 141.62 144.11 141.86 144.17C142.07 144.22 141.36 143.99 141.82 144.17C141.97 144.23 142.12 144.27 142.26 144.33C142.63 144.47 143 144.62 143.36 144.79C144.22 145.19 145.04 145.66 145.81 146.21C146.97 147.04 147.17 147.22 148.02 148.26C148.43 148.76 148.79 149.29 149.14 149.84C149.38 150.22 148.92 149.41 149.13 149.82C149.19 149.94 149.25 150.05 149.31 150.17C149.51 150.58 149.68 151 149.85 151.42C149.92 151.59 150.02 152.05 149.83 151.34C149.87 151.48 149.92 151.62 149.96 151.76C150.06 152.15 150.15 152.55 150.25 152.94C150.39 153.5 150.21 152.25 150.22 152.84C150.22 153.06 150.28 153.28 150.3 153.5C150.32 153.65 150.4 154.37 150.34 153.77C150.27 153.11 150.35 154.23 150.35 154.26C150.35 154.81 150.34 155.36 150.32 155.91C150.32 156.02 150.28 156.78 150.32 156.08C150.31 156.3 150.29 156.51 150.27 156.73C150.18 157.91 150.04 159.08 149.86 160.25C149.82 160.51 149.78 160.77 149.73 161.04C149.76 160.87 149.87 160.35 149.71 161.14C149.61 161.63 149.51 162.12 149.39 162.61C149.18 163.52 148.94 164.42 148.67 165.32C148.55 165.74 148.41 166.15 148.28 166.56C148.24 166.68 148.07 167.23 148.28 166.56C148.21 166.75 148.15 166.93 148.08 167.12C147.83 167.8 147.56 168.48 147.28 169.15C146.84 170.19 146.35 171.22 145.82 172.22C145.73 172.39 145.63 172.55 145.54 172.72C145.46 172.88 145.98 172 145.67 172.48C145.6 172.59 145.38 172.84 145.37 172.97C145.36 173.15 146.01 172.54 145.68 172.68C145.43 172.79 145.19 173.03 144.96 173.17C143.05 174.39 141.07 175.27 138.79 174.94C135.88 174.53 134.89 171.38 133.99 168.75C134.2 169.37 134.02 168.83 133.99 168.71C133.89 168.39 133.79 168.08 133.7 167.77C133.57 167.34 133.45 166.92 133.33 166.49C133.07 165.52 132.82 164.55 132.6 163.58C132.38 162.61 132.17 161.58 131.97 160.58C131.94 160.43 131.91 160.27 131.88 160.12C132.08 161.17 131.88 160.15 131.86 159.98C131.79 159.56 131.71 159.13 131.64 158.71C131.33 156.81 131.05 154.9 130.85 152.99V155.32C130.88 155.06 130.93 154.81 130.97 154.56C131.11 153.69 130.75 155.58 130.97 154.55C131.05 154.17 131.13 153.8 131.22 153.42C131.31 153.04 131.41 152.66 131.52 152.28C131.58 152.06 131.65 151.83 131.71 151.61C131.74 151.52 131.99 150.75 131.82 151.23C131.65 151.71 131.93 150.93 131.97 150.84C132.06 150.61 132.15 150.38 132.25 150.15C132.44 149.7 132.65 149.26 132.88 148.82C133.12 148.37 132.5 149.37 132.99 148.64C133.09 148.49 133.19 148.33 133.3 148.18C133.42 148.01 134.03 147.31 133.89 147.44C134.84 146.54 136.08 145.86 137.25 145.3C138.42 144.74 139.78 144.22 141.12 144.01C142.81 143.75 143.07 140.96 143.05 139.63C143.03 138.76 142.76 135 141.12 135.25C136.62 135.95 132.39 138.44 130.22 142.48C128.53 145.63 127.57 149.43 127.13 152.97C126.95 154.4 127.18 155.88 127.37 157.3C127.61 159.17 127.91 161.02 128.24 162.88C129.16 167.95 130.26 173.12 132.4 177.83C133.38 179.99 134.76 182.33 137.09 183.23C139.09 184.01 141.04 183.76 143.02 183.06C144.67 182.48 146.69 181.59 147.62 180.02C149.57 176.75 150.97 173.2 152.04 169.56C152.9 166.62 153.5 163.58 153.84 160.53C154.21 157.18 154.41 153.7 153.9 150.34C152.84 143.39 148.43 136.64 141.13 135.24C140.51 135.12 139.94 136.14 139.77 136.52C139.35 137.42 139.19 138.63 139.21 139.61C139.24 140.97 139.41 143.65 141.14 143.99H141.15Z" fill="#1D1D1B"/>
<path d="M134.57 139.26C133.48 137.88 131.77 136.93 130.22 136.19C128.02 135.13 125.54 134.32 123.09 134.21C120.47 134.1 118.05 135 116.28 136.95C114.51 138.9 113.32 141.53 112.25 143.87C109.42 150.06 107.72 156.9 108.18 163.73C108.62 170.18 112.33 176.77 119.03 178.28C121.41 178.82 123.71 178.31 126 177.65C128.55 176.92 131.06 176.11 133.53 175.15C134.14 174.91 134.55 173.65 134.68 173.14C134.96 172.1 135.03 170.83 134.87 169.77C134.7 168.6 134.18 166.06 132.5 166.71C129.19 167.99 125.49 169.52 121.9 169.74C119.44 169.89 117.28 169.15 115.34 167.62C114.3 166.8 113.39 165.78 112.69 164.67C112.96 165.1 112.71 164.71 112.67 164.61C112.55 164.35 112.44 164.09 112.32 163.83C111.92 162.99 112.47 164.53 112.24 163.62C112.14 163.24 112.04 162.86 111.96 162.47C112.2 163.59 111.84 161.94 111.91 161.7L111.94 162.24C111.94 162.03 111.92 161.82 111.92 161.61C111.92 161.29 111.92 160.97 111.93 160.64C111.93 159.58 111.81 161.32 111.93 160.66C111.98 160.39 111.98 160.1 112.01 159.83C112.05 159.5 112.09 159.16 112.14 158.83C112.17 158.61 112.21 158.38 112.25 158.16C112.16 158.65 112.16 158.66 112.25 158.2C112.53 156.96 112.83 155.73 113.21 154.52C113.19 154.59 113.54 153.51 113.38 153.98C113.22 154.45 113.59 153.39 113.57 153.45C113.84 152.71 114.13 151.98 114.44 151.25C114.9 150.17 115.4 149.11 115.94 148.07C116.03 147.89 116.65 146.78 116.4 147.2C116.72 146.66 117.05 146.12 117.4 145.6C118.49 143.98 119.91 143.1 122.01 142.97C124.33 142.82 126.63 143.46 128.73 144.41C129.67 144.83 130.59 145.32 131.45 145.89C131.76 146.09 132.06 146.31 132.35 146.54C132.47 146.63 132.58 146.74 132.7 146.84C132.13 146.35 132.52 146.67 132.64 146.83C133.83 148.34 134.99 146.43 135.27 145.26C135.7 143.48 135.79 140.82 134.58 139.27L134.57 139.26Z" fill="#1D1D1B"/>
<path d="M118.07 138.32C116.58 135.5 114.51 132.8 111.89 130.95C110.14 129.71 107.88 128.88 105.72 129.2C102.6 129.65 100.23 131.84 98.14 134.04C93.61 138.8 90.6 145.14 89.67 151.64C89.23 154.68 89.27 157.99 90.21 160.94C91.26 164.23 93.64 167.17 96.05 169.59C98.28 171.83 101.08 174.37 104.47 174.04C107.09 173.78 109.75 173.73 112.38 173.75C114.05 173.75 114.33 170.49 114.31 169.37C114.29 168.25 114.09 165 112.38 164.99C110.47 164.98 108.56 165.02 106.66 165.12C105.5 165.18 104.24 165.48 103.09 165.31C102.05 165.16 101.05 164.5 100.2 163.89C97.67 162.09 95.63 159.58 93.93 157C93.95 157.04 93.23 155.86 93.56 156.45C93.81 156.9 93.49 156.28 93.46 156.23C93.34 156 93.18 155.32 93.45 156.3C93.39 156.08 93.34 155.85 93.27 155.64C93.01 154.86 93.33 156.59 93.29 155.75C93.29 155.55 93.15 155.2 93.21 155.01C92.95 155.79 93.24 155.76 93.24 155.14C93.24 155.01 93.24 154.87 93.24 154.74C93.25 154.4 93.24 154.56 93.21 155.22C93.4 154.8 93.35 153.99 93.42 153.52C93.27 154.6 93.41 153.6 93.46 153.39C93.53 153.09 93.6 152.79 93.68 152.49C93.76 152.19 93.86 151.89 93.94 151.58C94.21 150.6 93.79 151.98 93.99 151.4C94.23 150.72 94.5 150.05 94.79 149.4C95.88 146.93 97.23 144.82 99.09 142.66C100.64 140.86 102.6 138.79 104.94 138.09C106.75 137.55 108.47 137.95 109.96 138.81C110.43 139.08 110.88 139.39 111.31 139.73C111.49 139.87 111.67 140.02 111.85 140.17C111.97 140.27 112.08 140.37 112.19 140.48C112.01 140.3 112.02 140.31 112.22 140.51C112.87 141.16 113.46 141.86 114.02 142.59C114.44 143.15 114.84 143.73 115.21 144.32C115.37 144.59 115.9 145.45 115.21 144.29C115.25 144.36 115.29 144.43 115.32 144.49C115.58 144.99 115.99 145.77 116.68 145.77C117.37 145.77 117.81 144.99 118.04 144.49C118.81 142.8 118.93 139.99 118.04 138.3L118.07 138.32Z" fill="#1D1D1B"/>
<path d="M102.49 131.8C100.04 129.36 97.09 127.23 93.85 125.99C91.43 125.07 88.84 124.56 86.3 125.29C83.18 126.18 80.85 128.53 79.17 131.24C75.73 136.78 74.6 143.57 74.88 150.02C74.95 151.65 75.05 153.28 75.33 154.89C75.67 156.84 76.55 158.42 77.85 159.91C80.38 162.8 83.74 164.56 87.53 165.17C89.59 165.5 91.93 165.39 93.48 163.85C94.04 163.29 94.28 161.94 94.36 161.24C94.5 160.16 94.45 158.93 94.17 157.87C93.81 156.5 92.88 154.96 91.54 156.3C92.4 155.45 91.61 156.15 91.19 156.34C91.11 156.38 90.64 156.5 91.08 156.39C90.88 156.44 90.68 156.48 90.48 156.51C89.85 156.6 89.21 156.6 88.58 156.56C85.61 156.34 82.67 155.1 80.47 153.07C80.07 152.7 79.33 151.83 78.88 151.19C78.78 151.05 78.55 150.51 78.4 150.44C78.73 150.59 78.79 151.19 78.62 150.82C78.45 150.45 78.64 150.75 78.87 151.59C79.36 153.41 79.01 152.35 78.93 151.79C78.83 151.1 78.78 150.4 78.72 149.7C78.65 148.88 78.76 150.88 78.74 150.02C78.74 149.79 78.72 149.56 78.72 149.33C78.71 148.83 78.7 148.33 78.72 147.84C78.72 147.57 78.74 147.31 78.74 147.04C78.76 146.05 78.64 148.1 78.74 147.09C78.8 146.41 78.86 145.73 78.96 145.05C79 144.8 79.05 144.55 79.08 144.3C79.14 143.67 78.86 145.26 79.08 144.28C79.23 143.66 79.36 143.04 79.54 142.42C79.56 142.34 79.89 141.32 79.64 142.06C79.75 141.75 79.87 141.44 79.99 141.13C80.28 140.4 80.61 139.68 81 139C81.41 138.28 82.44 136.84 83.27 136C84.1 135.16 85.18 134.46 86.3 134.06C88.19 133.39 90.47 133.62 92.34 134.25C94.52 134.99 96.55 136.21 98.39 137.58C99.04 138.06 99.66 138.57 100.27 139.1C100.45 139.26 100.62 139.43 100.8 139.58C101.16 139.89 100.3 139.09 100.56 139.35C101.87 140.65 102.87 139.13 103.19 137.78C103.57 136.21 103.82 133.11 102.5 131.79L102.49 131.8Z" fill="#1D1D1B"/>
<path d="M149.76 65.2602C150.54 68.1202 152.07 70.4602 154.54 72.1402C157.01 73.8202 159.59 74.7602 162.42 75.4002C165.25 76.0402 168.36 76.4102 171.36 76.3102C174.36 76.2102 177.87 75.8302 180.64 74.5402C182.34 73.7402 182.74 71.4002 182.56 69.7502C182.42 68.5102 181.47 65.6902 179.68 66.0702C177.11 66.6202 174.68 67.4402 172.05 67.7102C169.42 67.9802 166.69 67.9302 164.04 67.5302C161.74 67.1902 159.44 66.4902 157.29 65.6102C155.57 64.9102 153.9 63.8702 153 62.2402C152.51 61.3402 151.33 61.1602 150.6 61.8302C149.75 62.6102 149.48 64.1802 149.78 65.2502L149.76 65.2602Z" fill="#1D1D1B"/>
<path d="M101.88 81.6597C101.97 81.9197 101.75 81.0997 101.73 80.9897C101.72 80.9297 101.63 80.0997 101.67 80.6897C101.65 80.3397 101.65 79.9897 101.63 79.6497C101.6 78.9997 101.55 80.0997 101.63 79.4097C101.71 78.7997 101.78 78.1997 101.89 77.5897C101.92 77.4197 101.95 77.2397 101.99 77.0697C102.06 76.7697 102.07 76.7297 102.02 76.9397C101.97 77.1497 101.98 77.1097 102.06 76.8097C102.11 76.6397 102.16 76.4597 102.22 76.2897C102.42 75.6697 102.65 75.0597 102.91 74.4497C103.02 74.1897 103.14 73.9397 103.25 73.6797C103.14 73.9197 103.15 73.8897 103.3 73.5897C103.45 73.2897 103.6 72.9797 103.73 72.6597C103.85 72.3997 103.96 72.1397 104.08 71.8797C104.22 71.5797 104.24 71.5297 104.14 71.7397C104.22 71.5697 104.31 71.3897 104.39 71.2197C104.75 70.4697 105.03 69.7097 105.3 68.9297C105.66 67.9197 105.58 66.5597 104.94 65.6597C104.47 64.9897 103.43 64.5597 102.78 65.2897C98.47 70.1697 95.89 78.1897 99 84.3297C99.45 85.2197 100.4 86.0497 101.34 85.1997C102.28 84.3497 102.23 82.7697 101.86 81.6497L101.88 81.6597Z" fill="#1D1D1B"/>
<path d="M190.2 72.94C216.53 56.61 243.51 41.35 271.08 27.23C274.9 25.27 278.73 23.34 282.57 21.42C284.57 20.42 286.55 19.4 288.53 18.36C290.51 17.32 292.46 16 294.39 14.73C295.65 13.9 296.02 12.32 295.72 10.88C295.47 9.66998 294.56 8.29998 293.16 8.77998C291.4 9.37998 289.57 9.89998 287.9 10.71C286.04 11.61 284.17 12.49 282.34 13.45C278.94 15.22 275.54 17 272.16 18.8C265.25 22.48 258.38 26.22 251.54 30.04C238.01 37.6 224.63 45.43 211.42 53.53C203.92 58.12 196.48 62.8 189.1 67.57C187.96 68.31 187.63 69.75 187.9 71.04C188.08 71.88 189.04 73.66 190.2 72.94Z" fill="#1D1D1B"/>
</g>
<defs>
<clipPath id="clip0_3416_12094">
<rect width="295.81" height="183.7" fill="white"/>
</clipPath>
</defs>
</svg>
