<svg width="292" height="266" viewBox="0 0 292 266" fill="none" xmlns="http://www.w3.org/2000/svg">
<g clip-path="url(#clip0_3416_10398)">
<path d="M121.04 85.9799C122.12 80.9599 122.1 75.9899 122.22 70.9099C122.26 69.3899 122.32 67.8699 122.4 66.3499C122.47 65.0699 122.3 67.8399 122.39 66.5299C122.42 66.0999 122.45 65.6699 122.48 65.2399C122.55 64.2699 122.63 63.2999 122.72 62.3199C122.9 60.3999 123.11 58.4899 123.38 56.5799C123.51 55.6599 123.64 54.7499 123.79 53.8399C123.87 53.3299 123.96 52.8299 124.04 52.3199C124.08 52.0699 124.13 51.8099 124.18 51.5599C124.33 50.6899 123.92 52.8899 124.18 51.5699C124.58 49.4899 125.04 47.4299 125.58 45.3799C125.83 44.4299 126.09 43.4899 126.37 42.5499C126.52 42.0399 126.68 41.5299 126.84 41.0199C126.92 40.7699 127.01 40.5099 127.09 40.2599C127.33 39.5099 126.74 41.2699 127.15 40.0899C127.85 38.0799 128.65 36.1099 129.55 34.1799C129.96 33.3099 130.39 32.4499 130.84 31.5999C130.96 31.3699 131.09 31.1399 131.21 30.9099C131.64 30.1099 130.78 31.6299 131.24 30.8499C131.55 30.3299 131.86 29.8099 132.18 29.2999C133.27 27.5799 134.49 25.9399 135.84 24.4099C136.17 24.0299 136.51 23.6599 136.86 23.2999C137.03 23.1199 137.21 22.9399 137.39 22.7599C137.98 22.1599 136.93 23.1699 137.55 22.6099C138.29 21.9399 139.05 21.2799 139.84 20.6699C146.22 15.7999 153.83 14.7999 161.63 13.2799C168.93 11.8599 176.32 10.8499 183.77 10.7799C192.15 10.6999 200.49 11.8199 208.58 13.9599C218.66 16.6299 228.64 20.9999 238 25.9499C244.04 29.1399 249.91 32.6399 255.67 36.3199C261.43 39.9999 267.24 43.5499 271.88 48.5199C276.52 53.4899 279.28 58.0299 281.5 63.8799C281.64 64.2499 281.77 64.6199 281.91 64.9899C282.37 66.2299 281.61 64.0699 281.94 65.0799C282.12 65.6399 282.3 66.1899 282.48 66.7499C282.85 67.9199 283.19 69.0999 283.51 70.2799C283.85 71.5299 284.16 72.7899 284.45 74.0599C284.57 74.6099 284.69 75.1599 284.81 75.7099C284.88 76.0499 284.95 76.3799 285.01 76.7199C285.05 76.9499 285.1 77.1699 285.14 77.3999C285.01 76.6799 284.99 76.5899 285.09 77.1399C285.58 80.0399 285.98 82.9599 286.22 85.8899C286.25 86.2699 286.28 86.6599 286.31 87.0499C286.42 88.3999 286.26 85.8099 286.31 87.1699C286.35 87.9599 286.38 88.7599 286.4 89.5499C286.44 91.1899 286.45 92.8299 286.4 94.4699C286.38 95.3099 286.34 96.1599 286.3 96.9999C286.24 98.4499 286.4 95.8199 286.28 97.2799C286.25 97.7099 286.22 98.1499 286.18 98.5799C286.03 100.35 285.84 102.12 285.59 103.88C285.46 104.79 285.33 105.69 285.17 106.6C285.09 107.06 285.01 107.52 284.93 107.97C285.12 106.91 284.83 108.44 284.82 108.53C284.44 110.42 283.88 112.29 283.51 114.18C283.22 115.69 283.79 113.5 283.56 114.23C283.49 114.45 283.41 114.66 283.34 114.87L282.57 117.11L280.78 122.34C280.66 122.69 280.55 123.04 280.42 123.38C280.22 123.94 280.01 124.5 279.76 125.04C279.61 125.36 279.46 125.67 279.29 125.98C279.64 125.32 278.95 126.5 278.87 126.62C277.34 128.88 275.66 130.36 273.18 131.65C269.53 133.55 265.35 133.83 261.39 132.8C260.73 132.63 260.08 132.45 259.43 132.28C250.08 129.79 240.72 127.3 231.37 124.82C216.41 120.84 201.45 116.86 186.5 112.88C173.13 109.32 159.75 105.76 146.38 102.21C142.45 101.16 138.52 100.12 134.58 99.0699C131.12 98.1499 127.95 97.1899 125.14 94.7199C124.86 94.4699 124.46 94.0699 124.04 93.5899C123.62 93.1099 123.19 92.5499 122.81 91.9899C122.62 91.7099 122.44 91.4299 122.27 91.1399C122.7 91.8399 122.15 90.8899 122.1 90.8099C121.85 90.3099 121.64 89.7899 121.42 89.2699C120.99 88.2299 121.64 90.1799 121.36 89.0799C121.28 88.7499 121.19 88.4199 121.1 88.0999C120.78 86.9699 121.22 89.2199 121.08 88.0499C121.04 87.7099 121 87.3699 120.96 87.0299C120.81 85.8199 120.93 88.3099 120.97 87.0899C120.97 86.8699 121.08 86.2399 120.99 86.0499L120.95 86.7899C120.97 86.5599 121 86.3199 121.03 86.0899C121.06 85.8299 121.31 84.6299 121.03 85.9699C121.49 83.6999 121.73 80.5299 120.18 78.5799C118.63 76.6299 117.23 79.0399 116.93 80.5199C115.43 87.8699 116.31 96.0399 121 102.14C123.71 105.67 127.35 107.93 131.61 109.09C133.88 109.71 136.15 110.3 138.43 110.9C150.39 114.08 162.35 117.26 174.3 120.44C189.85 124.58 205.39 128.71 220.94 132.85C232.51 135.93 244.09 139.01 255.66 142.09C257.59 142.6 259.52 143.13 261.46 143.63C266.55 144.94 272.15 143.9 276.45 140.84C280.45 138 282.79 133.93 284.34 129.38C285.55 125.84 286.93 122.3 287.84 118.67C289.79 110.88 290.88 102.9 291.11 94.8799C291.48 82.2799 289.51 69.6299 285.37 57.7299C283.21 51.5099 279.86 45.6399 275.56 40.6499C270.9 35.2499 265.2 31.2999 259.27 27.4299C248.22 20.2199 236.69 13.5899 224.47 8.55988C215.45 4.83988 206 1.99988 196.31 0.729882C188.5 -0.290118 180.59 -0.220118 172.77 0.699882C164.95 1.61988 157.59 3.20988 150.12 4.94988C141.44 6.96988 134.51 12.5199 129.76 19.9699C124.78 27.7899 121.88 36.8099 120.11 45.8599C118.53 53.9499 117.7 62.1399 117.48 70.3699C117.45 71.6499 117.43 72.9199 117.43 74.1999C117.43 75.0799 117.43 75.9499 117.43 76.8299C117.42 78.3999 117.57 75.7499 117.4 77.3099C117.35 77.7899 117.31 78.2599 117.25 78.7399C117.19 79.2199 117.12 79.6899 117.04 80.1599C117.2 79.2699 117 80.3199 116.95 80.5299C116.46 82.7899 116.26 85.9899 117.8 87.9199C119.34 89.8499 120.74 87.4499 121.05 85.9799H121.04Z" fill="black"/>
<path d="M182.15 71.7401C183.36 72.9401 185.19 73.3801 186.75 73.9801C190.02 75.2301 193.32 76.4201 196.61 77.6101C205.83 80.9401 215.08 84.2001 224.34 87.4501C231.87 90.0901 239.4 92.7201 246.93 95.3401C247.82 95.6501 248.72 95.9601 249.61 96.2701C250.05 96.4201 250.68 96.7301 251.14 96.7701C252.81 96.9301 254.89 96.1801 256.41 95.6501C267.49 91.8601 268.5 78.5201 266.3 68.6801C264.99 62.8301 262.45 57.5001 258.63 52.8801C254.81 48.2601 250.43 44.5701 245.69 41.2401C235.62 34.1401 224.12 28.9101 212.27 25.5901C207.34 24.2101 202.25 23.1601 197.12 23.0001C195.13 22.9401 193.13 23.0101 191.17 23.3701C190.14 23.5601 189.14 23.8301 188.15 24.1701C188.06 24.2001 187.06 24.6001 187.06 24.6001C187.04 24.5701 187.77 24.4501 187.48 24.4901C185.72 24.7201 183.91 25.4501 182.28 26.1101C179.31 27.3101 176.67 29.0101 174.4 31.2801C170.93 34.7501 169.52 39.5901 169.31 44.3901C169.03 50.8401 171.41 56.9701 174.79 62.3601C176.91 65.7401 179.45 68.8301 182.15 71.7701C183.71 73.4801 185.02 71.4201 185.4 69.8301C185.89 67.7901 186.13 64.1701 184.55 62.4401C181.9 59.5501 179.39 56.5001 177.28 53.1801C177.07 52.8501 176.88 52.5201 176.67 52.1901C176.64 52.1401 176.37 51.6701 176.59 52.0601C176.83 52.4701 176.5 51.9001 176.45 51.8001C176.1 51.1501 175.76 50.4901 175.45 49.8201C175.18 49.2401 174.93 48.6501 174.7 48.0601C174.63 47.8701 174.28 46.9201 174.54 47.6401C174.8 48.3601 174.45 47.3201 174.4 47.1301C174.33 46.8701 174.26 46.6001 174.19 46.3301C174.14 46.1301 173.94 45.1101 174.12 46.0901C174.3 47.0701 174.12 46.0901 174.1 45.8701C174.06 45.5901 174.04 45.3101 174.01 45.0401C173.92 44.3601 174.03 46.6301 174.04 45.4701C174.04 45.2401 174.04 45.0201 174.04 44.7901C174.04 43.8101 173.89 46.0901 174.01 45.3801C174.05 45.1401 174.08 44.8901 174.1 44.6501C174.16 43.9401 173.77 46.0701 174.01 45.1501C174.06 44.9501 174.1 44.7501 174.15 44.5601C174.2 44.3701 174.27 44.1801 174.32 43.9801C174.43 43.5701 174.03 44.7701 174.09 44.6701C174.16 44.5501 174.19 44.4001 174.24 44.2801C174.4 43.9301 174.55 43.5801 174.72 43.2301C175.05 42.5601 174.84 43.2701 174.59 43.4301C174.73 43.3401 174.84 43.0301 174.93 42.8801C175.37 42.2201 175.86 41.6001 176.41 41.0201C176.53 40.8901 176.68 40.7701 176.79 40.6301C176.83 40.5701 176.26 41.1001 176.73 40.6901C177.02 40.4301 177.31 40.1801 177.61 39.9401C178.75 39.0301 179.99 38.2501 181.29 37.5801C182.39 37.0101 183.54 36.5201 184.71 36.1001C184.95 36.0101 185.19 35.9301 185.43 35.8501C185.89 35.7001 186.16 35.6701 185.59 35.8001C185.96 35.7201 186.33 35.5901 186.7 35.4901C187.28 35.3401 187.82 35.2301 188.39 35.0101C188.73 34.8801 189.07 34.7401 189.41 34.6101C189.99 34.3801 189.04 34.7001 189.48 34.5801C189.7 34.5201 189.91 34.4601 190.13 34.4101C191.01 34.2001 191.91 34.0601 192.81 33.9601C197.22 33.5001 201.73 34.0701 206.06 34.9301C217.08 37.1201 227.85 41.5901 237.7 47.3701C242.63 50.2601 247.37 53.5601 251.61 57.4101C251.85 57.6301 252.08 57.8501 252.32 58.0701C252.85 58.5601 252.28 58.0101 252.64 58.3801C253.15 58.8801 253.65 59.3901 254.15 59.9101C255.01 60.8201 255.84 61.7701 256.62 62.7501C257.4 63.7301 258.08 64.6501 258.74 65.6501C259.03 66.1001 259.42 66.5801 259.62 67.0701C259.22 66.1101 259.52 66.9001 259.66 67.1501C259.82 67.4601 259.98 67.7601 260.14 68.0801C260.37 68.5601 260.59 69.0401 260.8 69.5301C260.89 69.7401 260.97 69.9401 261.05 70.1501C261.1 70.2901 261.15 70.4301 261.2 70.5701C261.46 71.2201 260.96 69.7901 261.16 70.4601C261.41 71.3001 261.68 72.1401 261.9 72.9901C262 73.3901 262.1 73.7901 262.19 74.1901C262.23 74.3601 262.26 74.5201 262.3 74.6901C262.51 75.6901 262.15 74.6901 262.28 74.5301C262.13 74.7301 262.53 76.3601 262.56 76.6601C262.58 76.8501 262.58 77.0501 262.61 77.2401C262.62 77.3301 262.57 75.9301 262.56 76.5001C262.56 76.8601 262.58 77.2201 262.57 77.5801C262.57 77.7501 262.55 77.9301 262.56 78.1001C262.56 78.6701 262.63 77.1901 262.61 77.2901C262.55 77.5601 262.56 77.8601 262.53 78.1401C262.5 78.3901 262.4 78.7001 262.41 78.9501C262.36 77.8901 262.64 77.8701 262.52 78.3201C262.47 78.5001 262.44 78.6801 262.39 78.8501C262.33 79.0801 262.21 79.3401 262.18 79.5601C262.23 79.0901 262.54 78.5701 262.24 79.3301C262.18 79.4901 261.57 80.5701 261.62 80.6501C261.54 80.5301 262.18 79.7801 261.68 80.5301C261.56 80.7101 261.45 80.8801 261.33 81.0501C261.07 81.4101 260.8 81.7501 260.51 82.0701C260.38 82.2201 260.23 82.3601 260.1 82.5001C259.75 82.8801 260.63 82.0701 260.12 82.4701C259.8 82.7201 259.5 82.9901 259.17 83.2301C258.55 83.6901 257.88 84.0801 257.19 84.4301C256.58 84.7401 255.94 85.0001 255.29 85.2301C255.14 85.2801 254.99 85.3201 254.85 85.3801C254.45 85.5301 255.44 85.2301 254.93 85.3501C254.64 85.4201 254.35 85.5101 254.06 85.5801C253.24 85.7701 252.41 85.8501 251.58 85.9801C251.53 85.9801 251.19 85.9601 251.15 86.0101C251.21 85.9401 252.11 86.3301 251.56 86.1301C251.01 85.9301 250.42 85.7401 249.85 85.5401C243.36 83.2901 236.87 81.0301 230.39 78.7601C221.34 75.5901 212.29 72.4101 203.27 69.1801C197.21 67.0101 191.06 64.9701 185.13 62.4701C184.56 62.2301 183.54 61.4501 184.56 62.4701C184.02 61.9401 183.51 61.4901 182.73 61.9301C181.95 62.3701 181.49 63.6501 181.31 64.4101C180.99 65.7501 180.87 67.2001 181.07 68.5701C181.22 69.5901 181.4 71.0401 182.16 71.8001L182.15 71.7401Z" fill="black"/>
<path d="M189.87 65.6699C191.39 65.1699 192.17 63.2199 193.48 62.3199C194.94 61.3099 196.74 61.7199 198.37 61.9899C202.09 62.6099 205.76 63.5499 209.37 64.6499C216.92 66.9499 224.18 70.0999 231.02 74.0399C231.97 74.5899 232.91 75.1499 233.85 75.7199C234.08 75.8599 236 77.1899 236.06 77.1499C235.93 77.2499 235.74 75.3799 235.78 76.8599C235.8 77.4199 235.81 77.9699 235.83 78.5299C235.87 79.9999 235.91 81.4399 236.11 82.8999C236.27 84.0899 237.26 85.7299 238.64 85.6999C240.02 85.6699 240.95 83.9899 241.03 82.7799C241.21 80.1499 241.18 77.2999 240.79 74.6799C240.35 71.7199 238.51 70.2599 236.12 68.8299C232.32 66.5599 228.34 64.5699 224.27 62.8299C216.08 59.3099 207.63 56.8699 198.85 55.3599C196.44 54.9399 194.1 54.5999 191.92 55.9899C189.74 57.3799 187.91 59.5999 187.42 62.1399C187.14 63.5799 187.93 66.3199 189.87 65.6799V65.6699Z" fill="black"/>
<path d="M121.09 84.9001C130.75 88.7701 140.62 91.9801 150.52 95.1801C160.42 98.3801 170.21 101.54 180.07 104.68C183.19 105.67 183.79 99.0101 181.09 98.1401C171.24 95.0001 161.38 91.8901 151.52 88.7901C141.66 85.6901 131.86 82.6201 121.83 80.2201C119.51 79.6601 119.25 84.1501 121.1 84.8901L121.09 84.9001Z" fill="black"/>
<path d="M119.01 74.37C126.42 77.13 133.79 80.08 141.3 82.55C144.09 83.47 144.5 77.68 142.2 76.74C134.88 73.76 127.35 71.22 119.92 68.51C117.19 67.51 116.62 73.48 119.01 74.37Z" fill="black"/>
<path d="M120.68 63.7801C123.87 64.9501 127.06 66.1201 130.25 67.2901C133.44 68.4601 136.57 69.6801 139.87 70.5001C142.13 71.0701 142.28 66.8001 140.57 66.0101C137.46 64.5701 134.25 63.5201 131.01 62.4101C127.77 61.3001 124.61 60.2101 121.4 59.1101C119.19 58.3501 118.77 63.0901 120.67 63.7801H120.68Z" fill="black"/>
<path d="M227.25 112.4C230.69 114 234.59 114.67 238.25 115.62C241.91 116.57 245.78 117.53 249.56 118.4C257.04 120.13 264.51 121.9 271.96 123.72C273.51 124.1 274.41 122.67 274.63 121.3C274.82 120.1 274.51 117.56 272.98 117.19C265.44 115.36 257.89 113.57 250.33 111.82C246.63 110.96 242.93 110.19 239.2 109.47C235.47 108.75 231.43 107.6 227.54 107.66C225.4 107.69 225.71 111.7 227.24 112.41L227.25 112.4Z" fill="black"/>
<path d="M128.16 99.1299C125.41 101.34 124.71 105.23 124.09 108.48C123.8 109.98 123.65 111.49 123.41 112.99C123.1 114.92 122.57 116.83 122.13 118.73C119.85 128.46 117.57 138.19 115.29 147.92C114.79 150.07 115.64 153.64 117.93 154.5C120.46 155.45 121.75 152.51 122.2 150.62C124.41 141.21 126.61 131.81 128.82 122.4C129.62 118.99 130.48 115.62 130.79 112.12C130.93 110.58 131.08 109.04 131.29 107.5C131.38 106.86 131.64 105.92 131.44 105.28C131.39 106 131.38 106.17 131.41 105.8C131.42 105.66 131.43 105.51 131.45 105.37C131.46 105.28 131.64 104.36 131.61 104.33C131.45 104.91 131.43 105 131.55 104.61C131.59 104.47 131.65 104.34 131.7 104.2C132.26 102.83 132.06 100.84 131.2 99.6199C130.44 98.5499 129.23 98.2599 128.17 99.0999L128.16 99.1299Z" fill="black"/>
<path d="M146.74 104.17C142.99 110.94 141.55 118.76 139.69 126.21C139.27 127.88 138.86 129.55 138.44 131.22C138.39 131.43 138.33 131.65 138.28 131.86C138.14 132.42 138.42 131.32 138.41 131.35C138.31 131.7 138.23 132.05 138.14 132.4C137.96 133.09 137.79 133.79 137.61 134.48C136.52 138.65 135.12 142.73 134.42 147C134.17 148.54 133.94 150.09 133.72 151.63C133.54 152.91 133.24 154.34 133.31 155.63C133.43 157.8 134.38 160.8 136.99 160.94C139.49 161.07 140.5 157.35 140.4 155.45C140.28 153.27 139.33 150.28 136.72 150.14C137.95 151.91 139.17 153.68 140.4 155.45C140.5 157.27 140.29 156.94 140.39 156.11C140.46 155.56 140.54 155.01 140.61 154.46C140.8 153.13 140.99 151.81 141.2 150.49C141.29 149.92 141.38 149.35 141.49 148.78C141.55 148.47 141.61 148.15 141.67 147.84C141.72 147.61 141.77 147.37 141.82 147.14C141.9 146.8 142.08 146.1 141.89 146.81C142.47 144.63 143.15 142.48 143.73 140.29C144.61 136.99 145.41 133.66 146.24 130.34C146.45 129.5 146.66 128.65 146.87 127.81C147.11 126.84 146.67 128.6 146.92 127.62C147.05 127.12 147.17 126.62 147.3 126.12C147.76 124.29 148.24 122.46 148.72 120.63C149.82 116.48 150.78 112.34 151.41 108.1C151.64 106.56 151.33 104.49 150.04 103.43C148.94 102.53 147.42 102.94 146.75 104.16L146.74 104.17Z" fill="black"/>
<path d="M117.53 145.43C116.45 145.68 115.26 145.89 114.24 146.34C113.22 146.79 112.18 147.4 111.21 148C109.09 149.3 107.04 150.78 105.23 152.49C101.66 155.87 98.76 159.98 96.64 164.4C91.97 174.16 91.31 185.51 94.43 195.85C96.22 201.77 99.04 207.35 103.02 212.11C103.8 213.04 104.61 213.59 105.85 213.17C108.41 212.3 111.46 211.72 113.58 210.01C115.7 208.3 115.21 202.59 112.03 202.4C110.6 202.31 109.23 202.97 107.9 203.43C106.57 203.89 105.37 204.31 104.1 204.75L106.93 205.81C105.38 203.97 103.98 202.01 102.77 199.93C102.64 199.7 102.5 199.47 102.37 199.23C102.45 199.38 102.63 199.74 102.27 199.04C102.03 198.56 101.79 198.09 101.56 197.6C101.05 196.51 100.59 195.4 100.17 194.27C99.96 193.71 99.77 193.14 99.59 192.56C99.38 191.91 99.74 193.09 99.55 192.44C99.48 192.18 99.41 191.93 99.34 191.67C99.01 190.44 98.75 189.21 98.54 187.96C98.45 187.43 98.38 186.91 98.31 186.38C98.33 186.56 98.38 187.19 98.31 186.33C98.29 186.06 98.26 185.8 98.24 185.53C98.15 184.33 98.11 183.14 98.13 181.94C98.13 181.67 98.15 181.41 98.15 181.14C98.17 179.87 98.09 181.65 98.15 180.88C98.2 180.35 98.24 179.82 98.3 179.29C98.45 178.05 98.68 176.83 98.93 175.61C98.96 175.47 99.11 174.85 98.93 175.56C98.99 175.32 99.06 175.08 99.12 174.85C99.25 174.38 99.39 173.91 99.55 173.44C99.89 172.39 100.28 171.35 100.72 170.34C100.84 170.06 100.97 169.78 101.09 169.5C101.35 168.93 100.87 169.93 101.15 169.37C101.4 168.87 101.65 168.38 101.92 167.9C102.45 166.93 103.03 165.99 103.64 165.07C104.85 163.26 105.74 162.15 107.25 160.59C110.65 157.06 114.59 154.32 118.84 151.92C121.23 150.58 120.84 144.66 117.5 145.44L117.53 145.43Z" fill="black"/>
<path d="M135.31 150.52C134.25 150.93 133.36 151.54 132.34 152.01C131.16 152.55 130.09 153.09 129.04 153.87C127.22 155.21 125.57 156.71 124.06 158.39C120.71 162.11 118.07 166.29 116.04 170.86C111.9 180.17 111.17 191.07 113.89 200.87C115.74 207.53 118.76 213.69 121.91 219.82C122.71 221.38 124.3 222.84 125.98 221.33C129.68 218.02 134.12 215.69 137.9 212.49C141.68 209.29 144.49 205.1 146.37 200.51C150.37 190.74 149.85 179.61 147.11 169.59C145.41 163.37 143.02 157.41 140.49 151.49C139.78 149.82 137.93 148.48 136.32 149.94C134.71 151.4 134.59 154.37 135.39 156.25C137.41 160.96 139.37 165.69 140.92 170.57C141.19 171.43 141.05 171.01 141 170.82C141.09 171.12 141.17 171.41 141.26 171.71C141.43 172.3 141.59 172.9 141.74 173.5C142.06 174.77 142.35 176.05 142.59 177.34C142.7 177.95 142.81 178.55 142.9 179.16C142.95 179.47 142.99 179.77 143.03 180.08C143.04 180.18 143.15 181.13 143.1 180.63C143.05 180.13 143.13 181.02 143.14 181.14C143.16 181.33 143.17 181.53 143.19 181.72C143.24 182.37 143.27 183.02 143.29 183.67C143.32 184.71 143.29 185.76 143.25 186.8C143.29 185.79 143.21 187.28 143.18 187.54C143.12 188.12 143.05 188.71 142.96 189.29C142.82 190.26 142.63 191.21 142.42 192.17C142.24 192.99 142.37 192.38 142.42 192.21C142.35 192.46 142.28 192.71 142.21 192.96C142.03 193.58 141.83 194.19 141.61 194.8C141.44 195.28 141.25 195.76 141.05 196.24C140.95 196.48 140.85 196.71 140.75 196.95C140.71 197.05 140.42 197.63 140.7 197.07C140.25 197.99 139.75 198.88 139.19 199.74C138.01 201.57 136.98 202.78 135.19 204.36C131.32 207.79 126.66 210.19 122.81 213.65L126.88 215.16C124.36 210.27 121.82 205.35 120.04 200.13C119.62 198.9 119.48 198.46 119.13 197.03C118.81 195.75 118.55 194.46 118.36 193.15C118.33 192.91 118.3 192.68 118.26 192.44C118.4 193.41 118.29 192.77 118.28 192.55C118.23 192.01 118.19 191.48 118.16 190.94C118.1 189.81 118.1 188.67 118.14 187.54C118.14 187.3 118.16 187.06 118.17 186.82C118.12 187.8 118.15 187.14 118.17 186.93C118.22 186.39 118.27 185.86 118.34 185.33C118.48 184.2 118.67 183.08 118.91 181.97C118.96 181.71 119.28 180.42 119.05 181.29C119.17 180.83 119.3 180.36 119.43 179.91C119.75 178.82 120.12 177.74 120.52 176.67C121.87 173.06 123.87 169.43 126.47 166.17C127.74 164.57 129.6 162.64 131.28 161.11C132.2 160.27 133.07 159.41 133.97 158.55C134.87 157.69 136.03 157.02 137.05 156.26C138.81 154.97 138.06 149.47 135.31 150.52Z" fill="black"/>
<path d="M118.18 149.58C118.17 149.69 118.16 149.8 118.13 149.91L118.4 148.82C118.27 149.11 118.15 149.7 118.09 150.02C117.93 150.86 118.01 151.32 118.09 152.09C118.14 152.53 118.2 152.94 118.3 153.37C118.51 154.31 118.87 155.1 119.26 155.95C119.7 156.92 120.07 157.93 120.38 158.95L119.99 157.67C120.46 159.24 120.82 160.83 121.01 162.46C121.13 163.52 121.88 164.96 122.72 165.65C123.44 166.24 124.57 166.58 125.46 166.13C126.46 165.62 127.17 164.65 127.52 163.6L127.85 162.3C128 161.34 127.97 160.38 127.78 159.43C127.51 157.13 126.92 154.87 126.1 152.7C125.76 151.8 125.36 150.93 124.92 150.07C124.4 149.07 123.97 148.12 123.07 147.39C122.17 146.66 121.2 146.21 120.01 146.73L120.74 146.56L120.65 146.58C119.98 146.69 119.51 146.94 119.08 147.48C118.61 148.06 118.26 148.84 118.19 149.59L118.18 149.58Z" fill="black"/>
<path d="M106.8 209.56C107.66 208.45 107.8 206.85 108 205.49C108.2 204.13 108.38 202.91 108.58 201.61C108.95 199.19 109.34 196.77 109.76 194.36C110.59 189.63 111.64 184.94 112.93 180.32C114.22 175.7 115.81 171.29 117.17 166.75C118.62 161.93 119.62 157.05 120.73 152.15C121.15 150.3 120.35 146.96 118.14 146.6C115.67 146.19 115.01 149.33 114.9 151.1C114.93 150.7 114.92 150.78 114.86 151.33C114.82 151.64 114.77 151.95 114.72 152.26C114.63 152.88 114.52 153.5 114.42 154.12C114.2 155.36 113.96 156.59 113.7 157.82C113.22 160.07 112.72 162.04 112.16 164.19C110.98 168.8 109.7 173.38 108.52 177.98C107.28 182.84 106.3 187.74 105.44 192.67C105.02 195.08 104.63 197.5 104.26 199.92C103.86 202.51 102.87 205.8 103.61 208.36C104.08 209.99 105.49 211.27 106.8 209.55V209.56Z" fill="black"/>
<path d="M135.08 151.42C134.18 152.12 133.94 153.28 133.6 154.31C133.26 155.34 132.96 156.37 132.68 157.4C132.1 159.55 131.67 161.76 131.23 163.94C130.39 168.17 129.67 172.41 129.12 176.69C128.04 185.1 127.12 193.55 125.54 201.89C125.32 203.06 125.08 204.23 124.83 205.39C124.69 206.02 124.55 206.65 124.4 207.27C124.34 207.51 124.29 207.74 124.23 207.98C124.04 208.76 124.36 207.48 124.16 208.26C123.4 211.2 121.8 214.53 122.57 217.58C122.94 219.03 124.16 221.32 126.05 220.44C128.33 219.38 128.78 216.02 129.36 213.81C129.97 211.49 130.54 209.16 131.03 206.81C131.9 202.59 132.56 198.33 133.15 194.07C134.33 185.55 135.26 176.99 136.3 168.45C136.59 166.05 136.92 163.65 137.3 161.26C137.49 160.06 137.62 158.84 137.78 157.63C137.97 156.13 138.35 154.57 137.95 153.09C137.59 151.77 136.52 150.28 135.08 151.41V151.42Z" fill="black"/>
<path d="M84.01 200.64C77.6 199.28 70.98 199.13 64.45 199.3C57.92 199.47 51.76 200.1 45.5 201.2C39.24 202.3 32.67 203.94 26.46 206.02C21.01 207.85 15.41 209.88 10.5 212.91C5.26996 216.14 0.869957 220.73 0.0399567 227.07C-0.170043 228.67 0.559957 231.96 2.86996 231.15C12.76 227.69 22.64 224.22 32.53 220.76C34.94 219.91 37.36 219.07 39.77 218.22C42.18 217.37 44.49 216.43 46.93 215.87C50.22 215.11 55.22 215.35 56.43 218.81L57.63 213.82C44.46 220.82 30.67 228.51 21.82 240.91C19.36 244.37 17.39 248.2 16.02 252.21C15.54 253.62 15.66 256.55 17.47 257.13C21.28 258.37 24.51 255.89 27.39 253.69C30.27 251.49 33.11 249.43 36.3 247.81C41.93 244.93 49.38 243.41 55.04 247.12L54.9 241.29C49.13 246.45 45.47 253.81 44.7 261.5C44.58 262.7 44.7 264.11 45.58 265.03C46.24 265.72 47.28 266.02 48.05 265.23C52.54 260.62 57.02 256.01 61.51 251.39C65.27 247.53 69.02 243.64 73.17 240.19C80.62 233.99 89.61 229.54 99.53 230.92C104.1 231.56 108.68 233.72 111.52 237.38C112.42 238.54 113.83 238.6 114.65 237.3C115.47 236 115.5 233.77 114.53 232.53C108.35 224.6 97.79 222.58 88.37 224.8C77.45 227.37 68.88 235.63 61.28 243.4C56.06 248.74 50.87 254.1 45.67 259.45L49.02 263.18C49.64 256.98 52.55 251.29 57.28 247.05C58.66 245.82 58.81 242.32 57.14 241.22C51.04 237.22 43.49 237.56 36.96 240.37C33.51 241.85 30.35 243.95 27.33 246.16C25.91 247.2 24.56 248.36 23.1 249.32C21.77 250.2 20.12 251.09 18.5 250.56L19.95 255.48C24.48 242.21 36.38 233.22 48.11 226.29C51.68 224.18 55.32 222.2 58.98 220.26C60.72 219.34 60.75 216.88 60.18 215.27C59.03 212 56.09 209.65 52.74 208.97C48.55 208.12 44.46 209.6 40.54 210.97C32.29 213.86 24.04 216.75 15.78 219.64C11.03 221.3 6.27996 222.97 1.52996 224.63L4.35996 228.71C4.43996 228.07 4.47996 227.81 4.56996 227.49C4.72996 226.96 4.91996 226.41 5.16996 225.91C5.39996 225.45 6.18996 224.23 6.72996 223.6C8.21996 221.87 10.06 220.43 12 219.24C16.75 216.34 22.13 214.37 27.37 212.59C38.79 208.71 50.75 206.53 62.8 206.05C69.77 205.77 76.67 206.37 83.63 206.63C86.13 206.72 86.25 201.06 84.02 200.59L84.01 200.64Z" fill="black"/>
</g>
<defs>
<clipPath id="clip0_3416_10398">
<rect width="291.16" height="265.72" fill="white"/>
</clipPath>
</defs>
</svg>
