<svg width="280" height="281" viewBox="0 0 280 281" fill="none" xmlns="http://www.w3.org/2000/svg">
<g clip-path="url(#clip0_3416_11735)">
<path d="M186.84 192.3C186.74 190.94 186.67 189.57 186.65 188.2C186.65 187.56 186.64 186.91 186.65 186.27C186.65 186.22 186.66 184.81 186.65 185.71C186.63 186.53 186.73 184.9 186.74 184.75C187 182.08 187.32 179.42 187.8 176.78C188.03 175.53 188.29 174.28 188.57 173.04C188.65 172.7 188.73 172.35 188.82 172.01C189.02 171.15 188.47 173.34 188.82 171.99C189 171.31 189.19 170.63 189.38 169.94C190.15 167.19 191.05 164.49 192.05 161.82C193.05 159.15 194.07 156.73 195.21 154.24C195.51 153.58 195.81 152.92 196.13 152.27C196.05 152.44 195.64 153.28 196.09 152.36C196.22 152.1 196.34 151.84 196.47 151.58C197.11 150.27 197.78 148.98 198.45 147.69C201.12 142.63 204.06 137.73 207.08 132.88C210.1 128.03 213.13 123.39 216.28 118.73C217.61 116.76 219 114.84 220.46 112.96C221.23 111.97 219.92 113.6 220.44 112.98C220.64 112.74 220.84 112.49 221.04 112.25C221.36 111.87 221.69 111.49 222.03 111.11C222.9 110.14 223.8 109.2 224.75 108.3C225.59 107.51 226.46 106.75 227.38 106.05C227.75 105.77 228.12 105.41 228.54 105.2C227.45 105.76 228.48 105.25 228.69 105.12C228.99 104.93 229.29 104.76 229.6 104.58C230.51 104.07 231.46 103.62 232.43 103.24C232.97 103.03 233.52 102.85 234.08 102.69C234.3 102.63 234.53 102.57 234.75 102.51C233.61 102.81 234.75 102.53 234.96 102.51C236.09 102.33 237.25 102.24 238.4 102.29C238.73 102.31 239.06 102.33 239.38 102.38C239.16 102.35 238.58 102.14 239.35 102.41C239.59 102.49 239.84 102.6 240.08 102.67C240.57 102.92 240.54 102.89 240 102.6C240.36 102.93 240.39 102.93 240.1 102.61C239.33 102.06 240.54 102.85 240.33 103.01C240.52 102.87 239.37 101.87 240.1 102.71L240.23 103.08C239.96 102.15 239.89 101.93 240.01 102.42C240.07 102.76 240.15 103.11 240.23 103.45C240.38 104.05 240.04 104.23 240.2 102.88C240.16 103.2 240.26 103.58 240.27 103.9C240.28 104.24 240.27 104.58 240.27 104.92C240.28 106.22 240.5 103.35 240.27 104.72C240.21 105.1 239.76 106.45 239.92 106.73L240.14 105.88C240.09 106.08 240.03 106.28 239.97 106.47C239.83 106.93 239.68 107.39 239.52 107.85C239.28 108.51 239.01 109.15 238.73 109.8C238.17 111.09 239.2 108.94 238.76 109.74C238.55 110.12 238.36 110.5 238.16 110.88C236.65 113.62 234.82 116.18 232.9 118.65C232.68 118.93 232.45 119.22 232.23 119.5C232.1 119.67 231.96 119.84 231.83 120.01C232.24 119.51 232.31 119.41 232.06 119.73C231.5 120.41 230.95 121.1 230.39 121.78C229.26 123.16 228.14 124.54 227.01 125.93C224.76 128.69 222.5 131.46 220.25 134.22C218 136.98 217.33 140.77 218.81 144C220 146.58 222.67 148.7 225.26 146.4C230.31 141.91 234.56 136.62 239.45 131.97C240.57 130.9 241.73 129.87 242.94 128.9C243.53 128.42 244.14 127.97 244.76 127.53C245.66 126.88 243.98 128 245 127.37C245.29 127.19 245.58 127 245.87 126.82C248.49 125.22 251.3 123.98 254.29 123.24L252.99 123.54C255.66 122.93 258.35 122.78 261.05 123.24L259.71 123C261.98 123.42 264.13 124.22 266.11 125.4L264.87 124.64C265.92 125.3 266.91 126.04 267.79 126.91C267.97 127.09 268.68 127.85 267.94 127.04C267.2 126.23 267.92 127.06 268.04 127.21C268.38 127.65 268.63 128.16 268.96 128.6C267.9 127.23 268.41 127.52 268.71 128.2C268.82 128.46 268.92 128.72 269.03 128.98C269.36 129.77 268.55 127.07 268.84 128.32C268.93 128.7 269 129.08 269.07 129.46C269.31 130.76 268.96 127.69 268.97 128.67C268.97 128.99 268.97 129.31 268.99 129.63C269.05 131.1 269.28 127.57 269.02 129.01C268.96 129.33 268.93 129.65 268.88 129.96C268.76 130.62 268.33 131.24 269.07 129.33C268.95 129.63 268.89 129.96 268.79 130.26C268.59 130.85 268.39 131.77 268 132.26C268.28 131.92 268.75 130.77 268.17 131.81C268.01 132.1 267.85 132.38 267.67 132.66C267.29 133.28 266.86 133.86 266.44 134.45C265.97 135.11 267.42 133.34 266.63 134.2C266.37 134.49 266.11 134.78 265.83 135.06C265.35 135.55 264.84 136.03 264.32 136.48C263.17 137.48 261.95 138.4 260.7 139.26L261.99 138.39C257.15 141.63 251.75 143.97 246.52 146.5C240.61 149.35 234.71 152.2 228.8 155.05C222.89 157.9 217.13 160.68 211.31 163.52C205.96 166.13 200.57 168.67 195.35 171.55C189.41 174.83 183.64 178.61 178.71 183.3C175.92 185.96 175.5 191.14 177.06 194.53C177.72 195.97 178.73 197.71 180.36 198.21C181.85 198.67 183.3 198.38 184.47 197.28C186.79 195.11 189.28 193.15 191.9 191.35L190.63 192.21C195.56 188.88 200.84 186.14 206.19 183.54C212.12 180.66 218.09 177.86 224.03 174.99C229.97 172.12 235.99 169.22 241.97 166.33C247.95 163.44 253.74 160.8 259.5 157.81C265.26 154.82 270.52 151.22 274.37 145.92C278.73 139.92 280.56 131.81 279.03 124.54C277.66 118.03 273.53 112.69 267.55 109.79C262.47 107.33 256.84 107.32 251.49 108.76C245.15 110.46 239.53 114.69 234.83 119.14C229.75 123.96 225.39 129.48 220.22 134.2L226.16 145.24C230.37 139.95 234.63 134.7 238.78 129.36C242.69 124.33 246.38 118.8 248.05 112.59C249.16 108.44 249.47 104.3 248.79 100.04C248.14 96.0098 246.37 91.8498 242.62 89.8498C237.86 87.3198 230.97 89.3498 226.64 91.9198C216.73 97.7898 210.61 108.39 204.58 117.84C197.85 128.4 191.6 139.35 186.87 150.98C181.51 164.17 178.7 178.2 179.75 192.46C179.9 194.49 180.81 197.84 183.43 197.77C185.91 197.71 186.99 194.27 186.84 192.28V192.3Z" fill="#1D1D1B"/>
<path d="M44.3899 276.19C46.6499 263.03 41.6699 250.22 36.5099 238.37C31.6199 227.12 26.8699 215.8 22.7199 204.25C20.6699 198.55 18.6699 192.83 16.8699 187.04C16.7499 186.65 16.3899 185.87 16.9899 187.43C16.8499 187.07 16.7699 186.68 16.6599 186.32C16.4599 185.65 16.2699 184.98 16.0699 184.31C15.6399 182.82 15.2299 181.33 14.8299 179.83C14.0299 176.84 13.2899 173.82 12.6199 170.8C11.9499 167.78 11.4099 165.03 10.8999 162.12C10.6299 160.58 10.3799 159.03 10.1699 157.48C10.0699 156.78 9.98993 156.08 9.89993 155.38C9.75993 154.31 10.0899 157.29 9.92993 155.68C9.88993 155.21 9.83993 154.74 9.78993 154.27C9.51993 151.23 9.39993 148.18 9.50993 145.14C9.51993 144.75 9.51993 144.36 9.55993 143.97C9.54993 144.11 9.40993 145.79 9.52993 144.52C9.59993 143.75 9.66993 142.97 9.76993 142.2C9.95993 140.65 10.2599 139.14 10.5599 137.61C10.7999 136.4 10.5399 137.88 10.4499 138C10.6599 137.7 10.7099 137.02 10.8199 136.66C11.0099 136.01 11.2199 135.36 11.4499 134.73C11.6599 134.15 11.8799 133.57 12.1099 133C12.2499 132.66 12.3999 132.31 12.5499 131.97C12.7399 131.54 13.3699 130.49 12.4699 132.12C13.1299 130.93 13.7299 129.71 14.4699 128.56C14.7999 128.04 15.1499 127.53 15.5099 127.03C15.6899 126.78 15.8699 126.53 16.0599 126.29C16.9499 125.12 15.3899 127.04 16.1499 126.16C17.0399 125.15 17.9399 124.16 18.9299 123.25C19.3799 122.84 19.8399 122.44 20.3099 122.06C20.5499 121.87 20.7799 121.68 21.0299 121.5C21.3499 121.26 22.1899 120.35 21.2299 121.32C22.0399 120.5 23.5199 119.92 24.5499 119.46C25.9199 118.84 27.3399 118.37 28.7999 118.02L27.5199 118.32C29.5399 117.89 31.5499 117.75 33.5999 118.1L32.2799 117.86C32.8499 117.98 33.4099 118.12 33.9499 118.32C34.2799 118.44 34.5999 118.58 34.9199 118.73C35.0899 118.81 35.8799 119.21 35.2199 118.86C34.5599 118.51 35.3199 118.94 35.4799 119.05C35.6999 119.21 35.9199 119.37 36.1399 119.55C36.6299 119.94 37.0899 120.35 37.5299 120.79C37.7799 121.03 38.0199 121.28 38.2599 121.53C38.4099 121.69 39.0199 122.38 38.4399 121.71C37.8599 121.04 38.4499 121.73 38.5999 121.9C38.7799 122.11 38.9499 122.32 39.1299 122.52C39.9099 123.46 40.6599 124.42 41.3899 125.4C42.7499 127.24 44.0199 129.16 45.1999 131.13C45.4799 131.59 45.7499 132.06 46.0099 132.53C46.2699 133 47.0999 134.86 46.2199 132.89C46.7099 133.99 47.3299 135.05 47.8499 136.14C49.8299 140.31 51.4699 144.63 52.8599 149.03C52.8899 149.13 53.0799 149.81 53.0999 149.81C53.0799 149.81 52.4999 147.78 52.8599 149.02C53.0099 149.54 53.1699 150.07 53.3199 150.59C53.6599 151.77 53.9799 152.96 54.2799 154.16C54.8599 156.42 55.3799 158.7 55.8699 160.98C56.9699 166.2 57.9199 171.46 58.7799 176.72C59.2599 179.68 61.6899 183.54 65.1399 182.74C68.5899 181.94 70.1699 177.26 69.8399 174.15C69.6399 172.2 69.4999 170.24 69.4499 168.28C69.4299 167.3 69.4199 166.32 69.4499 165.33C69.4499 164.84 69.4699 164.35 69.4899 163.86C69.4899 163.65 69.5099 163.44 69.5199 163.23C69.5699 162.04 69.4699 164.13 69.4499 164.27C69.7599 162.27 69.8199 160.22 70.1499 158.22C70.2999 157.32 70.4599 156.43 70.6499 155.54C70.7499 155.06 70.8599 154.58 70.9699 154.11C71.0199 153.91 71.0699 153.7 71.1199 153.5C70.7799 154.83 70.6899 155.18 70.8599 154.56C70.8899 154.42 70.9299 154.29 70.9699 154.16C71.4799 152.28 72.0799 150.42 72.7699 148.59C73.1199 147.68 73.4899 146.78 73.8799 145.89C74.1099 145.38 74.8999 143.89 73.8299 145.95C74.0599 145.52 74.2599 145.08 74.4899 144.64C75.4199 142.86 76.4399 141.13 77.5699 139.46C78.0399 138.78 78.5199 138.1 79.0199 137.45C79.1399 137.3 79.2499 137.15 79.3699 137C80.0499 136.11 79.0099 137.42 78.9699 137.48C79.2299 137.06 79.6399 136.68 79.9599 136.31C82.6499 133.23 85.7299 130.52 89.1099 128.21L87.7799 129.11C92.2099 126.13 97.0899 123.9 102.29 122.66L100.79 123.01C104.5 122.16 108.54 121.59 112.33 122.23L110.82 121.96C111.88 122.17 112.88 122.49 113.83 123.01L112.45 122.17C112.94 122.47 113.34 122.95 113.82 123.23C112.86 122.67 112.93 122.14 113.32 122.76C112.22 121.03 112.72 121.64 112.99 122.21C113.43 123.12 112.5 120.01 112.74 121.44C112.96 122.73 112.61 120.28 112.65 120.3C112.84 120.37 112.7 122.48 112.7 122.66C112.7 123.27 112.55 124.32 112.78 121.53C112.76 121.83 112.74 122.12 112.71 122.42C112.65 123.16 112.59 123.9 112.51 124.65C112.36 126.13 112.19 127.61 111.99 129.08C111.61 131.88 111.13 134.67 110.55 137.43C110.26 138.81 109.95 140.19 109.62 141.57C109.48 142.14 109.15 143.34 109.77 141.01C109.69 141.3 109.62 141.59 109.55 141.87C109.32 142.73 109.09 143.6 108.85 144.46C107.31 149.92 105.44 155.28 103.29 160.52C102.16 163.28 100.99 166.05 99.6699 168.72C99.7199 168.61 100.49 167.03 99.9299 168.16C99.7999 168.43 99.6699 168.7 99.5399 168.97C99.2099 169.64 98.8799 170.31 98.5399 170.98C97.8699 172.31 97.1799 173.64 96.4699 174.96C90.9199 185.32 84.4099 195.14 77.3899 204.56C75.6199 206.94 73.8099 209.3 71.9699 211.63C71.1199 212.71 70.2699 213.78 69.4099 214.85C69.3299 214.96 68.3699 216.14 69.1099 215.23C69.8499 214.32 68.8899 215.5 68.7999 215.6C68.3199 216.19 67.8399 216.78 67.3499 217.37C63.5799 221.96 59.7199 226.48 55.8199 230.96C51.1199 236.36 46.4199 241.73 43.8499 248.52C41.2799 255.31 40.8299 262.93 39.8799 270.1C39.5899 272.29 39.7499 274.7 40.6199 276.76C41.2199 278.18 42.5099 280.17 44.1199 280.66C48.0099 281.85 50.5199 277.78 50.9699 274.44C51.6099 269.6 52.0699 264.7 53.0299 259.91C53.0899 259.62 53.5899 257.46 53.2199 258.98C52.8699 260.38 53.3299 258.66 53.4499 258.29C53.6299 257.72 53.8299 257.15 54.0599 256.6C54.1699 256.34 54.2799 256.07 54.3899 255.81C54.8999 254.6 53.7399 257.05 54.1899 256.24C55.2599 254.3 56.4199 252.45 57.7699 250.68C57.9399 250.45 58.1199 250.23 58.2999 250C58.6999 249.48 58.9099 249.71 57.9899 250.38C58.4099 250.08 58.7599 249.45 59.0899 249.06C59.8299 248.19 60.5899 247.32 61.3399 246.46C62.8899 244.68 64.4399 242.9 65.9699 241.1C69.0899 237.45 72.1799 233.78 75.1999 230.05C87.5099 214.88 99.0199 198.98 107.67 181.41C116.32 163.84 123.04 143.29 124.02 122.78C124.33 116.23 122.16 108.91 115.8 105.97C112.05 104.23 107.31 104.55 103.33 105.17C94.4699 106.55 86.3999 110.4 79.4999 116.1C64.3599 128.58 57.8499 148.82 58.1199 167.95C58.1499 170.12 58.2899 172.29 58.5199 174.45L69.5899 171.88C66.8199 154.97 62.6899 138.08 54.1999 123.05C52.2699 119.63 50.0699 116.35 47.5799 113.31C44.6199 109.68 41.3199 105.74 36.8399 103.96C28.5999 100.69 18.8299 105.76 12.9999 111.52C-1.19007 125.48 -1.50007 146.69 1.56993 165.06C4.63993 183.43 10.5399 201.86 17.7599 219.26C21.2899 227.77 25.0899 236.16 28.9899 244.51C30.8999 248.6 32.8399 252.7 34.4699 256.92C34.8599 257.91 35.2199 258.91 35.5699 259.92C35.7299 260.39 35.9899 260.93 36.0599 261.43C35.8999 260.31 35.9299 260.99 36.0199 261.31C36.1199 261.68 36.2199 262.04 36.3199 262.4C36.5899 263.42 36.8299 264.44 37.0299 265.48C37.1299 265.99 37.2199 266.51 37.2999 267.03C37.3499 267.32 37.3899 267.62 37.4299 267.92C37.5499 268.79 37.5699 267.89 37.4099 267.73C37.5999 267.92 37.5299 269.25 37.5399 269.53C37.5599 270.05 37.5899 270.58 37.5899 271.1C37.5899 271.62 37.5799 272.15 37.5699 272.68C37.5699 272.96 37.6499 273.69 37.5799 272.58C37.5999 272.86 37.5199 273.23 37.4899 273.5C37.2599 275.73 37.6599 279.15 40.1299 280.08C42.5999 281.01 44.0699 278.13 44.3999 276.2L44.3899 276.19Z" fill="#1D1D1B"/>
<path d="M156.38 171.89C157.54 162.75 156.43 153.42 153.77 144.63C151.15 135.96 147.45 127.73 143.69 119.5C139.93 111.27 136.41 103.24 133.55 94.7698C133.2 93.7398 132.87 92.7098 132.54 91.6798C132.38 91.1598 132.21 90.6498 132.05 90.1298C132 89.9598 131.68 89.0198 131.92 89.7298C132.16 90.4398 131.84 89.4498 131.8 89.3298C131.14 87.1098 130.51 84.8698 129.93 82.6198C128.8 78.2798 127.81 73.8998 126.98 69.4898C126.15 65.0798 125.43 60.4898 124.89 55.9598C124.86 55.7298 124.84 55.4998 124.81 55.2698C124.7 54.3898 124.92 56.3598 124.83 55.4798C124.78 54.9398 124.71 54.3998 124.66 53.8598C124.54 52.7098 124.44 51.5498 124.34 50.3898C124.15 48.1498 124.01 45.9198 123.9 43.6698C123.8 41.6898 123.72 39.6998 123.73 37.7098C123.73 36.9098 123.75 36.0998 123.77 35.2998C123.78 34.8898 123.81 34.4898 123.82 34.0798C123.84 33.3998 123.76 34.8998 123.77 34.8198C123.8 34.5298 123.81 34.2398 123.83 33.9498C123.97 32.2798 124.17 30.6098 124.47 28.9498C124.61 28.1598 124.81 27.3898 124.97 26.5998C124.62 28.3498 124.93 26.8198 125.04 26.4198C125.17 25.9898 125.3 25.5598 125.44 25.1398C125.69 24.4098 125.96 23.6798 126.26 22.9698C126.32 22.8198 126.4 22.6698 126.46 22.5198C126.71 21.8698 125.94 23.4798 126.28 22.8798C126.49 22.5098 126.67 22.1098 126.88 21.7398C127.25 21.0898 127.64 20.4598 128.08 19.8498C128.2 19.6798 128.34 19.5098 128.46 19.3398C128.76 18.8698 128.16 19.7298 128.17 19.6898C128.19 19.4398 128.82 18.9398 129.01 18.7398C129.52 18.1998 130.06 17.6898 130.63 17.2198C130.96 16.9498 131.31 16.6998 131.65 16.4398C130.88 17.0298 131.77 16.3798 132.09 16.1998C132.82 15.7798 133.59 15.4098 134.38 15.1098C134.78 14.9498 135.2 14.8198 135.61 14.6898C135.79 14.6398 135.97 14.5898 136.14 14.5398C135.38 14.7798 136.16 14.5398 136.35 14.4998C138.12 14.1698 139.93 14.1198 141.71 14.2898C142.15 14.3298 142.58 14.3998 143.01 14.4598C143.65 14.5398 142.43 14.3098 143.06 14.4698C143.24 14.5198 143.43 14.5498 143.61 14.5898C144.6 14.8198 145.57 15.1198 146.53 15.4698C147.37 15.7798 148.19 16.1298 149 16.5298C149.4 16.7298 149.8 16.9398 150.19 17.1498C150.36 17.2398 150.52 17.3398 150.69 17.4298C149.93 17.0098 150.7 17.4398 150.86 17.5398C152.45 18.5798 153.91 19.8098 155.25 21.1698C155.44 21.3698 155.63 21.5698 155.82 21.7598C155.87 21.8198 156.35 22.3198 155.96 21.8998C155.54 21.4398 156.12 22.0898 156.22 22.1998C156.35 22.3598 156.49 22.5098 156.62 22.6698C157.32 23.5198 157.98 24.3998 158.61 25.3098C159.16 26.1098 159.69 26.9198 160.19 27.7498C160.44 28.1698 160.69 28.5798 160.93 29.0098C161.03 29.1898 161.13 29.3698 161.24 29.5498C161.91 30.7398 160.9 28.8698 161.26 29.5798C163.14 33.3098 164.76 37.1298 166.27 41.0298C167.94 45.3298 169.47 49.6798 170.88 54.0698C171.05 54.5998 171.22 55.1298 171.38 55.6598C171.47 55.9598 171.57 56.2698 171.66 56.5698C171.87 57.2498 171.55 56.2098 171.54 56.1698C171.95 57.3698 172.27 58.6098 172.61 59.8298C173.24 62.0498 173.84 64.2698 174.4 66.4998C174.96 68.7298 175.49 70.9798 175.99 73.2298C176.49 75.4798 178.12 78.4398 180.84 77.8198C183.56 77.1998 184.43 73.6898 184.42 71.2798C184.42 70.0198 184.44 68.7698 184.5 67.5098C184.51 67.2598 184.53 67.0098 184.54 66.7598C184.46 68.6598 184.47 67.8098 184.51 67.3898C184.58 66.6398 184.64 65.8898 184.72 65.1398C184.98 62.7698 185.36 60.4198 185.86 58.0898C185.99 57.4798 186.13 56.8698 186.28 56.2598C186.58 54.9798 185.97 57.4398 186.2 56.5798C186.28 56.2798 186.36 55.9698 186.44 55.6698C186.77 54.4598 187.13 53.2598 187.53 52.0698C188.3 49.7498 189.18 47.4598 190.17 45.2298C190.37 44.7698 190.8 44.1898 190.88 43.6898C190.72 44.7898 190.51 44.4698 190.8 43.8798C190.94 43.5998 191.08 43.3198 191.22 43.0398C191.79 41.9198 192.39 40.8198 193.01 39.7398C194.23 37.6198 195.55 35.5598 196.97 33.5698C197.66 32.5998 198.38 31.6498 199.11 30.7098C199.7 29.9498 199.01 30.8098 198.93 30.9198C199.15 30.6198 199.41 30.3398 199.65 30.0498C200.05 29.5698 200.46 29.0998 200.87 28.6298C202.52 26.7598 204.28 24.9898 206.14 23.3098C208.13 21.5098 210.23 19.8298 212.41 18.2798C212.66 18.0998 212.92 17.9198 213.18 17.7398C214.24 16.9998 212.23 18.3498 213.31 17.6498C213.89 17.2798 214.46 16.9098 215.05 16.5498C216.33 15.7598 217.64 14.8998 219.08 14.4398L217.81 14.7298C218.36 14.6098 218.85 14.5698 219.41 14.6598L218.12 14.4298L218.47 14.5298C218.99 14.7598 218.93 14.6898 218.27 14.3098C218.4 14.3198 218.81 14.7198 218.86 14.7598C219.05 14.9198 219.22 15.1098 219.41 15.2698C220.39 16.1198 218.62 14.2298 219.43 15.2798C219.75 15.6898 220.08 16.0898 220.38 16.5098C220.8 17.0998 221.13 17.9598 221.62 18.4798C221.53 18.3898 220.91 17.0198 221.35 18.0098C221.48 18.3098 221.63 18.5898 221.76 18.8898C221.99 19.4298 222.21 19.9698 222.4 20.5198C222.48 20.7398 222.88 22.0098 222.49 20.7298C222.1 19.4498 222.48 20.7298 222.53 20.9598C222.69 21.5898 222.83 22.2298 222.95 22.8798C223.08 23.6198 223.12 25.7998 223.04 23.1798C223.06 23.8298 223.15 24.4898 223.17 25.1398C223.19 25.7298 223.19 26.3198 223.18 26.9098C223.18 27.2198 223.22 27.5998 223.15 27.8898L223.23 26.5898C223.21 26.8498 223.19 27.1098 223.16 27.3698C223.03 28.7498 222.81 30.1198 222.54 31.4798C222.42 32.0598 221.7 34.5398 222.4 32.2698C222.15 33.0798 221.95 33.8998 221.71 34.7098C219.94 40.4598 217.41 45.9598 214.95 51.4398C213.72 54.1698 212.47 56.8898 211.19 59.5998C211.03 59.9498 210.86 60.2898 210.7 60.6398C210.25 61.5898 211.52 58.9398 210.83 60.3598C210.53 60.9798 210.23 61.5998 209.93 62.2198C209.23 63.6698 208.51 65.1098 207.81 66.5498C197.23 88.1598 185.26 109.02 171.68 128.88C163.56 140.76 155.01 152.34 146.6 164.01C145.44 165.61 145.04 168.27 145.09 170.17C145.14 172.07 145.68 174.66 146.91 176.25C147.87 177.5 149.26 178.85 150.99 178.69C152.72 178.53 153.93 177.47 154.95 176.05C166.62 159.86 178.5 143.8 189.17 126.92C199.84 110.04 209.18 93.3198 217.39 75.6298C221.42 66.9398 225.37 58.1598 228.76 49.1798C232.47 39.3398 234.81 28.6198 232.49 18.1598C231.44 13.4198 229.51 8.59982 226.35 4.85982C224.55 2.72982 222.57 0.569821 219.7 0.0598208C217.01 -0.420179 214.82 0.929821 212.67 2.32982C205.82 6.80982 199.75 12.2098 194.58 18.5698C184.07 31.4898 177.25 47.5198 176.09 64.2198C175.92 66.6198 175.8 69.0198 175.83 71.4298L184.26 69.4798C182.04 59.7598 179.23 50.1498 175.86 40.7698C172.82 32.3298 169.5 23.6398 164.22 16.3098C158.94 8.97982 151.86 3.65982 142.96 2.23982C139.08 1.61982 134.95 2.06982 131.33 3.66982C127.71 5.26982 124.78 7.94982 122.47 11.1198C117.77 17.5698 116.4 25.9498 115.95 33.7298C115.44 42.6098 116.41 51.6598 117.53 60.4598C119.94 79.4098 125.07 98.0998 132.64 115.64C136.21 123.92 140.38 131.92 143.83 140.25C144.68 142.29 145.48 144.35 146.21 146.43C146.57 147.46 146.92 148.5 147.25 149.54C147.28 149.64 147.49 150.34 147.3 149.7C147.1 149.02 147.36 149.91 147.41 150.07C147.57 150.63 147.72 151.19 147.87 151.74C148.45 153.89 148.95 156.06 149.31 158.25C149.39 158.74 149.47 159.24 149.53 159.73C149.56 159.94 149.59 160.15 149.61 160.37C149.75 161.4 149.64 160.37 149.59 160.21C149.88 161.22 149.75 162.59 149.78 163.64C149.81 164.69 149.78 165.66 149.74 166.66C149.7 167.66 149.76 166.7 149.76 166.52C149.76 166.8 149.71 167.11 149.69 167.39C149.64 167.97 149.57 168.55 149.5 169.13C149.22 171.35 149.7 174.79 152.14 175.71C154.58 176.63 156.16 173.79 156.41 171.83L156.38 171.89Z" fill="#1D1D1B"/>
</g>
<defs>
<clipPath id="clip0_3416_11735">
<rect width="279.55" height="280.85" fill="white"/>
</clipPath>
</defs>
</svg>
