<svg width="269" height="276" viewBox="0 0 269 276" fill="none" xmlns="http://www.w3.org/2000/svg">
<g clip-path="url(#clip0_3416_11911)">
<path d="M6.07007 248.04C7.07007 247.67 6.53007 247.89 6.03007 247.91C5.96007 247.91 5.82007 247.84 5.75007 247.87C5.72007 247.88 6.29007 248.19 6.02007 247.94C5.93007 247.86 5.75007 247.79 5.65007 247.73C5.00007 247.39 5.87007 247.69 5.77007 247.9C5.77007 247.9 5.41007 247.46 5.39007 247.43C4.96007 246.99 5.79007 248.37 5.44007 247.53C5.36007 247.33 5.27007 246.97 5.14007 246.8C5.69007 247.49 5.40007 247.75 5.32007 247.29C5.28007 247.05 5.19007 246.79 5.13007 246.55C5.02007 246.11 5.24007 246 5.22007 247.06C5.22007 246.87 5.15007 246.63 5.13007 246.44C5.07007 245.98 5.03007 245.52 4.98007 245.06C4.85007 243.79 4.99007 246.06 4.98007 245.18C4.98007 244.89 4.96007 244.61 4.96007 244.32C4.96007 243.99 4.96007 243.65 4.96007 243.32C4.96007 239.5 5.08007 235.67 5.20007 231.85C5.39007 225.68 5.63007 219.51 5.93007 213.35C6.10007 209.71 6.30007 206.06 6.51007 202.42C6.52007 202.2 6.54007 201.99 6.55007 201.77C6.60007 200.83 6.52007 202.22 6.52007 202.29C6.55007 201.8 6.58007 201.31 6.61007 200.82C6.67007 199.83 6.73007 198.85 6.79007 197.86C6.91007 195.92 7.04007 193.98 7.18007 192.04C8.22007 177.23 9.46007 162.36 11.9701 147.72C12.1001 146.98 12.2401 146.24 12.3601 145.49C12.0601 147.21 12.2701 145.98 12.3501 145.57C12.4301 145.16 12.5101 144.74 12.5901 144.33C12.9401 142.6 13.3201 140.88 13.7201 139.16C14.7501 134.73 15.8901 130.32 17.0901 125.93C19.4701 117.26 22.0901 108.67 24.8701 100.12C25.4901 98.2098 26.1101 96.3098 26.7501 94.4098C27.0401 93.5398 27.3301 92.6798 27.6201 91.8098C27.7501 91.4198 27.8801 91.0298 28.0201 90.6298C28.0801 90.4498 28.1401 90.2298 28.2201 90.0498C28.1101 90.3598 27.7101 91.1998 28.2201 90.0498C29.1801 87.2498 30.1501 84.4498 31.1301 81.6598C31.7401 79.9498 32.3501 78.2298 32.9701 76.5298C33.0901 76.1998 33.2601 75.8598 33.3401 75.5098C33.4601 74.9998 32.5401 76.8598 33.0401 76.0098C37.8901 67.6198 42.7101 59.2198 47.6901 50.9098C48.4601 49.6298 49.3601 48.3798 50.0601 47.0698C50.3601 46.5198 49.7301 47.3498 49.4201 47.4398C48.3701 47.7298 49.9001 47.3998 48.8601 47.4398C48.6501 47.4398 48.4601 47.2898 48.6401 47.3898C48.9201 47.5398 48.1901 46.7598 48.2901 47.0598C48.3301 47.1698 48.4701 47.2698 48.5201 47.3698C48.8201 47.9898 48.3801 47.1798 48.3001 46.9698C48.4501 47.3698 48.7101 47.7498 48.8801 48.1398C49.4001 49.2798 49.8401 50.4498 50.2601 51.6198C50.3701 51.9398 50.4801 52.2598 50.6001 52.5798C50.1001 51.2298 50.5301 52.3898 50.6401 52.7298C50.9201 53.5798 51.1801 54.4398 51.4401 55.2998C52.6801 59.4598 53.7101 63.6798 54.5801 67.9398C54.6901 68.4798 54.8001 69.0298 54.9101 69.5698C54.9801 69.9098 55.0501 70.2598 55.1101 70.6098C55.0801 70.4298 54.9201 69.5498 55.0901 70.5298C55.3201 71.8198 55.5401 73.1098 55.7401 74.4098C56.1501 77.0298 56.4901 79.6598 56.7601 82.2998C56.9001 83.6098 57.0101 84.9298 57.1101 86.2498C57.1301 86.5598 57.1501 86.8698 57.1801 87.1898C57.2601 88.2698 57.1901 87.3098 57.1801 87.0998C57.2301 87.8898 57.2601 88.6698 57.2901 89.4598C57.4001 92.2998 57.4601 95.1398 57.4801 97.9798C57.5201 103.34 57.4001 108.69 57.1401 114.04C57.1101 114.6 57.0901 115.15 57.0601 115.71C57.0501 115.98 57.0301 116.26 57.0101 116.53C56.9501 117.56 57.0101 116.4 57.0301 116.25C56.9301 117.42 56.8801 118.59 56.8001 119.76C56.6501 121.89 56.4701 124.01 56.2701 126.13C55.9701 129.27 55.6201 132.42 55.1701 135.54C55.0901 136.07 55.0101 136.6 54.9301 137.13C54.8201 137.8 54.4901 139.31 54.9301 137.26C54.8101 137.83 54.6801 138.4 54.5601 138.97C53.3301 144.71 52.5601 150.57 51.7401 156.38C50.7701 163.31 49.8301 170.28 49.3601 177.26C48.8101 185.28 48.7101 193.34 48.3701 201.37C48.3001 203.12 48.2201 204.88 48.1501 206.63L48.4901 203.79C46.3401 213.82 44.1801 223.85 41.8301 233.83C41.3801 235.73 40.9601 237.65 40.3901 239.53C39.8901 241.19 39.6101 242.9 39.4001 244.63C39.3001 245.42 39.1601 246.22 39.0701 247.02C39.2501 245.26 39.0901 246.72 38.9901 247.17C38.8301 247.88 39.0901 246.76 39.1501 246.72C38.9901 246.82 39.0301 247.25 38.8601 247.35C39.2401 247.11 39.3101 246.7 38.9401 247.13C38.7701 247.33 38.4501 247.52 39.0101 247.13C38.7301 247.33 38.4701 247.51 38.1601 247.67C37.7901 247.86 38.7501 247.58 38.0001 247.73C37.8201 247.77 37.6401 247.79 37.4601 247.81C37.1201 247.84 36.7801 247.84 36.4401 247.84C35.3101 247.84 34.1901 247.84 33.0601 247.84H6.73007C4.58007 247.84 4.23007 252.02 4.25007 253.46C4.28007 254.78 4.38007 256.24 4.97007 257.44C5.31007 258.13 5.81007 259.09 6.72007 259.09H35.4601C37.1501 259.09 38.9001 259.09 40.2901 257.98C42.6501 256.1 43.3401 252.84 43.8101 250.02C43.9701 249.05 44.0801 248.08 44.2001 247.1C44.2301 246.84 44.2701 246.58 44.3101 246.32C44.4401 245.44 44.6601 246.11 44.2401 246.66C44.4301 246.42 44.4801 245.73 44.5601 245.44C44.8101 244.61 45.0301 243.77 45.2401 242.92C46.0401 239.74 46.7601 236.55 47.4801 233.35C49.0701 226.31 50.6101 219.25 52.1401 212.19C52.5701 210.19 52.9901 208.29 53.0801 206.23C53.2501 202.34 53.4101 198.45 53.5601 194.56C53.6701 191.72 53.7801 188.88 53.8801 186.04C53.9301 184.73 53.9701 183.43 54.0201 182.12C54.0301 181.7 54.0501 181.28 54.0601 180.85C54.0601 180.64 54.0801 180.43 54.0901 180.23C54.1501 178.92 54.0001 181.57 54.0701 180.62C54.3901 176.32 54.8401 172.04 55.3701 167.77C55.9501 163.08 56.5901 158.4 57.3001 153.72C57.5901 151.77 57.9001 149.82 58.2201 147.88C58.3401 147.14 58.4701 146.4 58.6001 145.67C58.6901 145.17 58.9901 143.74 58.5601 145.85C58.6201 145.57 58.6601 145.3 58.7201 145.02C60.1901 137.79 60.9801 130.49 61.5201 123.13C63.4801 96.5098 62.8301 69.0698 53.7401 43.6898C53.2301 42.2698 52.7001 40.8498 52.0201 39.5098C51.5401 38.5598 50.8801 37.0598 49.8401 36.5198C47.9101 35.5198 46.4501 39.0498 45.7001 40.2998C41.9701 46.4898 38.3601 52.7498 34.7301 59.0098C33.4301 61.2498 32.1301 63.4898 30.8401 65.7298C30.3001 66.6698 29.8001 67.5698 29.4301 68.5998C26.9401 75.4298 24.5801 82.3098 22.2801 89.2098C15.4801 109.68 9.06007 130.47 6.04007 151.88C3.21007 171.93 1.96007 192.23 0.980068 212.44C0.600068 220.22 0.300068 227.99 0.100068 235.78C0.0400678 238.09 -0.00993216 240.39 -0.0199322 242.7C-0.0299322 245.01 0.0100679 247.42 0.360068 249.74C0.750068 252.27 1.31007 255.11 2.90007 257.21C4.01007 258.68 5.58007 259.55 7.36007 258.89C8.15007 258.6 8.67007 256.94 8.84007 256.3C9.20007 254.97 9.29007 253.33 9.09007 251.97C8.87007 250.44 8.21007 247.23 6.05007 248.04H6.07007Z" fill="black"/>
<path d="M4.59013 250.62C3.58013 255.01 2.79013 259.68 2.96013 264.19C3.03013 266.17 3.23013 268.12 3.87013 270C4.29013 271.24 4.92013 272.67 6.14013 273.32C7.56013 274.08 9.52013 274.2 11.1001 274.37C15.9501 274.89 20.8501 274.99 25.7201 275.07C27.2101 275.1 28.7301 275.18 30.2201 275.12C31.4501 275.07 32.6501 274.36 33.6201 273.65C35.3001 272.43 36.5501 270.8 37.2201 268.82C37.8901 266.84 38.0201 264.66 38.2701 262.54C38.5701 260.01 38.8901 257.47 39.2401 254.94C39.4301 253.56 39.3501 251.95 38.9901 250.61C38.7801 249.81 38.3201 248.48 37.5101 248.02C35.4601 246.86 34.6201 250.82 34.4701 251.95C34.2201 253.77 33.9901 255.6 33.7601 257.43C33.5801 258.85 33.4101 260.27 33.2701 261.69C33.2401 261.96 33.2001 262.23 33.1901 262.5C33.1601 263.3 33.4801 261.42 33.2401 262.29C33.2601 262.21 33.5401 261.2 33.3001 261.95C33.3301 261.85 33.7101 261.43 33.4301 261.67C33.2001 261.86 33.0201 262.19 32.8101 262.41C33.1701 262.02 32.7901 262.41 32.6101 262.56C32.3801 262.74 32.1401 262.91 31.9001 263.07C31.5001 263.33 31.0901 263.56 30.6601 263.77C30.4701 263.86 30.2201 263.92 30.0401 264.04C29.8301 264.18 30.9101 263.98 30.5101 263.87C29.5901 263.61 28.2101 263.86 27.2601 263.84C22.8901 263.78 18.5101 263.68 14.1501 263.38C12.2801 263.25 10.3901 263.11 8.54013 262.76C8.23013 262.7 7.92013 262.6 7.61013 262.55C7.23013 262.5 8.09013 262.81 7.81013 262.61C7.73013 262.55 7.56013 262.49 7.45013 262.46C7.41013 262.45 7.16013 262.28 7.16013 262.28C7.20013 262.24 7.77013 262.96 7.39013 262.44C8.02013 263.33 7.80013 263.21 7.67013 262.92C7.60013 262.75 7.49013 262.42 7.74013 263.18C8.05013 264.1 7.82013 263.23 7.74013 263.05C7.72013 262.99 7.90013 264.35 7.90013 263.9C7.90013 263.73 7.86013 263.54 7.84013 263.37C7.73013 262.6 7.87013 264.94 7.87013 263.84C7.87013 263.56 7.87013 263.27 7.87013 262.99C7.87013 262.82 7.88013 262.66 7.88013 262.49C7.89013 261.73 7.84013 263.17 7.83013 263.22C7.96013 261.94 8.06013 260.67 8.25013 259.41C8.33013 258.88 8.42013 258.35 8.51013 257.82C8.71013 256.67 8.32013 258.78 8.44013 258.18C8.48013 257.98 8.52013 257.79 8.55013 257.59C8.64013 257.16 8.72013 256.73 8.82013 256.3C9.36013 253.97 9.53013 250.6 7.93013 248.6C6.33013 246.6 4.89013 249.1 4.54013 250.62H4.59013Z" fill="black"/>
<path d="M51.0901 39.1699L51.3201 40.4299V43.4199C51.2401 44.5599 50.8901 45.5999 50.2701 46.5199C50.3001 46.4799 50.3301 46.4399 50.3601 46.3999C50.6901 45.9899 50.0701 46.7199 50.0201 46.6999C50.0501 46.7199 50.6201 46.2199 50.7001 46.1599C51.3701 45.6799 52.0901 45.2699 52.8101 44.8699C54.7301 43.7999 56.7201 42.8499 58.7101 41.9199C61.4301 40.6499 64.1801 39.4299 66.9601 38.2699C68.1801 37.7599 68.5501 35.4199 68.6901 34.3399C68.7301 34.0399 68.7701 33.7399 68.8201 33.4399C68.8701 33.0999 68.9301 32.7599 68.9901 32.4299C69.1401 31.5599 68.7101 33.8499 68.9001 32.9399C68.9501 32.7099 68.9901 32.4799 69.0401 32.2499C69.2601 31.1999 69.5101 30.1699 69.8101 29.1399C69.8901 28.8699 69.9801 28.5999 70.0601 28.3199C70.3501 27.3299 69.6701 29.3399 70.0401 28.3699C70.2401 27.8399 70.4301 27.3199 70.6601 26.8099C70.7701 26.5599 70.8901 26.3199 71.0101 26.0799C71.2001 25.7099 71.1901 25.2199 71.0101 26.0499C71.1001 25.6299 71.6301 25.2399 71.8501 24.8899C72.2201 24.3099 71.3401 25.2399 71.8801 24.8499C71.9701 24.7799 72.0601 24.6999 72.1501 24.6299C72.3501 24.4699 72.5501 24.3099 72.7601 24.1499C73.8601 23.2899 74.9901 22.4799 76.1601 21.7199C85.0601 15.9299 95.4201 13.1299 105.91 12.1599C117.55 11.0899 129.32 11.1099 140.99 11.4799C149.09 11.7299 157.33 11.9499 165.29 13.5699C169.95 14.5199 174.58 15.6699 179.16 16.9699C183.17 18.1099 187.41 19.3499 191.32 21.2499C191.97 21.5699 192.62 21.8999 193.22 22.3099C193.45 22.4699 193.66 22.6699 193.89 22.8099C194.31 23.0799 193.41 22.1599 193.63 22.5699C193.72 22.7299 193.88 22.8799 194 23.0199C194.72 23.9199 195.39 24.8599 196.01 25.8299C196.18 26.0999 196.35 26.3799 196.52 26.6599C196.05 25.8699 196.61 26.8399 196.66 26.9499C196.97 27.5599 197.23 28.1899 197.51 28.8099C197.98 29.8599 197.28 27.8599 197.58 28.9699C197.6 29.0399 197.87 29.9599 197.84 29.9699L197.72 29.2999C197.76 29.5199 197.79 29.7499 197.81 29.9799C198 31.1899 197.81 28.6199 197.79 29.8399L197.84 29.0299C197.82 29.2599 197.79 29.4799 197.75 29.7099L197.86 29.0399C197.72 29.5299 197.74 29.4899 197.93 28.9099C197.79 29.2499 197.66 29.5799 197.48 29.8999C197.83 29.2699 197.24 30.1899 197.15 30.3099C196.29 31.4399 195.27 32.4899 194.32 33.5499C193.29 34.6999 192.24 35.8299 191.14 36.9199C190.99 37.0699 190.84 37.2199 190.69 37.3699C190.16 37.8999 191.22 36.8899 190.66 37.3999C190.33 37.6999 190.01 38.0099 189.68 38.3099C188.98 38.9399 188.27 39.5499 187.54 40.1399C184.11 42.9099 180.31 45.2199 176.26 46.9699C171.07 49.2199 165.54 50.4999 159.93 51.1099C152.69 51.8899 145.3 51.9199 138.02 51.9899C130.74 52.0599 124.16 51.9599 117.25 51.4799C111.7 51.0999 106.1 50.5299 100.69 49.2199C100.14 49.0899 99.5901 48.9399 99.0501 48.7899C99.0501 48.7899 98.1901 48.5399 98.6801 48.6899C98.4301 48.6099 98.1901 48.5299 97.9401 48.4499C97.0401 48.1499 96.1501 47.7999 95.2901 47.3999C93.1301 46.3799 91.1701 44.9799 89.0101 43.9399C84.1801 41.5999 78.8301 40.0099 74.5301 36.7199C73.3401 35.8099 73.0301 35.5199 72.1301 34.4099C71.7101 33.8899 71.3401 33.3399 70.9801 32.7899C70.3801 31.8799 71.2601 33.4799 70.8001 32.4699C70.6501 32.1399 70.4901 31.8199 70.3401 31.4999C70.0501 30.8599 69.4401 29.8499 68.5901 29.8499C67.7401 29.8499 67.1101 30.8499 66.8401 31.4999C65.8501 33.8599 65.7901 37.0899 66.8401 39.4499C69.3601 45.0999 73.9101 48.5999 79.4101 51.1199C82.0501 52.3299 84.7501 53.3799 87.3701 54.6299C89.6401 55.7099 91.7001 57.1799 93.9701 58.2499C98.4001 60.3299 103.46 61.2099 108.28 61.8499C114.86 62.7399 121.52 63.0599 128.15 63.1999C135.77 63.3499 143.39 63.2099 151 62.9099C157.8 62.6299 164.5 62.1099 171.05 60.1599C180.15 57.4499 187.92 52.5699 194.51 45.7599C197.02 43.1599 200.08 40.2499 201.43 36.8599C204.43 29.3299 202.03 20.9199 197.47 14.5999C196.44 13.1699 195.36 11.8999 193.82 11.0199C192.19 10.0799 190.41 9.38992 188.65 8.73992C183.75 6.92992 178.69 5.50992 173.63 4.22992C169.57 3.19992 165.45 2.18992 161.3 1.58992C157.41 1.02992 153.46 0.809921 149.55 0.589921C137.57 -0.080079 125.51 -0.230079 113.53 0.369921C101.56 0.969921 89.6101 2.78992 78.9001 8.46992C76.0601 9.97992 73.3301 11.7399 70.8301 13.7699C67.0001 16.8799 65.6001 22.3799 64.6701 27.0199C64.3801 28.4499 64.1001 29.8899 63.9201 31.3399L65.6501 27.4099C62.3801 28.7799 59.1401 30.2199 55.9501 31.7499C53.9301 32.7199 51.8801 33.6999 49.9801 34.9099C49.2401 35.3799 48.4801 35.9199 47.9201 36.5999C46.2001 38.6999 46.0901 42.3799 46.8201 44.8299C47.2301 46.1999 48.7001 48.9299 50.2101 46.8499C51.7201 44.7699 51.7701 41.4299 51.1001 39.1499L51.0901 39.1699Z" fill="black"/>
<path d="M47.6202 206.66C47.1802 214.98 47.0402 223.36 47.4202 231.69C47.6902 237.72 47.9502 244.09 50.0802 249.8C51.0102 252.28 52.4802 253.87 54.8802 255.01C58.1302 256.56 61.8102 257.31 65.3702 257.72C68.5702 258.08 71.8202 257.91 75.0302 257.9C82.6102 257.86 90.1802 257.83 97.7602 257.79C108.22 257.74 118.67 257.69 129.13 257.64C140.26 257.59 151.39 257.54 162.52 257.49C171.98 257.45 181.44 257.4 190.9 257.36L207.31 257.28C208.06 257.28 208.81 257.34 209.54 257.17C216.58 255.54 218.73 246.99 219.1 240.78C219.47 234.57 219.56 227.82 219.78 221.35C219.98 215.46 220.19 209.57 220.4 203.68C220.43 202.71 220.47 201.74 220.5 200.77L214.67 202.56C216.1 211.26 217.54 219.96 218.97 228.66C219.35 230.97 219.66 233.25 219.95 235.57C220.35 238.75 220.86 241.91 221.45 245.07C222.04 248.23 222.71 251.24 223.94 254.12C224.49 255.41 225.22 256.84 226.38 257.7C226.99 258.15 227.76 258.3 228.5 258.43C230.52 258.77 232.59 258.88 234.63 259.02C240.57 259.44 246.53 259.7 252.49 259.95C254.48 260.03 256.46 260.11 258.45 260.18C259.17 260.21 259.92 260.34 260.64 260.31C267.82 260.02 268.67 250.47 268.79 244.97C269.04 234.07 268.33 223.11 267.78 212.24C267.47 206.06 267.12 199.89 266.71 193.72C266.51 190.76 266.41 187.75 265.95 184.82C265.86 184.22 265.76 183.59 265.6 182.99C266.12 184.9 265.21 181.99 265.12 181.58C265.01 181.08 265.72 183.43 265.54 182.79C265.27 181.83 265.87 184.81 265.74 183.88C265.7 183.64 265.66 183.39 265.63 183.15C265.39 181.48 265.19 179.79 264.99 178.12C264.26 172.18 263.54 166.23 262.75 160.29C260.6 144.2 258.2 127.99 254.11 112.26C249.57 94.85 242.44 78.04 234.91 61.74C232.92 57.44 230.89 53.16 228.76 48.93C227.06 45.54 224.6 42.47 222.48 39.33C221.55 37.95 220.62 36.58 219.69 35.2C219.17 34.44 218.24 34.04 217.4 34.52C216.36 35.11 215.94 36.6 215.63 37.62C214.34 41.79 213.11 45.97 211.91 50.16C209.98 56.9 208.02 63.69 206.88 70.62C205.94 76.33 205.63 82.18 205.26 87.95C204.76 95.84 204.35 103.75 204.47 111.65C204.52 114.82 204.6 118.03 205.04 121.17C205.44 123.98 206.02 126.77 206.49 129.57C207.62 136.26 208.69 142.96 209.76 149.66C210.83 156.36 211.14 162.83 211.67 169.44C212.44 178.98 213.2 188.51 213.97 198.05C213.99 198.24 214 198.43 214.02 198.62C214.14 200.12 215.28 204.69 217.67 203.33C218.68 202.76 219.2 201.24 219.44 200.23C219.85 198.51 219.88 196.79 219.74 195.03C219.08 186.85 218.43 178.67 217.77 170.49C217.36 165.33 216.94 160.17 216.53 155.01C216.38 153.09 216.29 151.15 215.99 149.24C215.08 143.46 214.15 137.68 213.2 131.91C212.25 126.14 210.9 120.47 210.48 114.7C210.39 113.51 210.58 116.78 210.51 115.26C210.5 114.94 210.48 114.63 210.47 114.31C210.44 113.51 210.42 112.7 210.4 111.9C210.37 110.26 210.37 108.62 210.4 106.98C210.44 103.23 210.57 99.48 210.75 95.73C210.8 94.77 210.85 93.82 210.9 92.86C210.92 92.44 210.95 92.02 210.97 91.6C210.83 94.06 210.94 92.12 210.97 91.52C211.08 89.73 211.21 87.93 211.35 86.14C211.58 83.18 211.83 80.22 212.18 77.27C212.3 76.24 212.43 75.22 212.59 74.2C212.63 73.95 212.68 73.69 212.72 73.44C212.32 75.82 212.53 74.46 212.64 73.91C212.79 73.17 212.95 72.44 213.12 71.7C213.87 68.4 214.74 65.14 215.64 61.88C217.15 56.37 218.77 50.88 220.44 45.42C220.54 45.09 220.64 44.76 220.74 44.43L216.68 46.85C219.1 50.43 221.51 54 223.93 57.58C224.11 57.85 224.54 58.82 224.86 58.96C224.91 58.98 224.07 57.47 224.33 58.04C224.4 58.19 224.48 58.34 224.56 58.5C225.32 60.01 226.06 61.53 226.8 63.05C229.84 69.32 232.74 75.65 235.51 82.04C237.29 86.16 239.02 90.31 240.67 94.48C241.54 96.69 242.39 98.91 243.22 101.14C243.62 102.23 244.02 103.31 244.41 104.41C244.59 104.92 244.77 105.43 244.95 105.95C245.09 106.34 245.77 108.29 245.28 106.89C247.87 114.25 249.79 121.83 251.39 129.46C251.8 131.41 252.18 133.35 252.56 135.31C252.64 135.75 252.98 137.66 252.61 135.56C252.69 136.01 252.78 136.47 252.86 136.92C253.05 137.95 253.23 138.97 253.41 140C254.09 143.91 254.72 147.84 255.31 151.77C257.04 163.25 258.27 174.79 259.85 186.29C259.92 186.77 259.99 187.24 260.07 187.72C260.18 188.36 260.26 189.02 260.43 189.64C260.56 190.12 260.75 190.62 260.92 191.09C261.12 191.65 260.41 189.52 260.5 189.83C260.72 190.62 260.2 187.84 260.27 188.55C260.29 188.73 260.32 188.92 260.34 189.1C260.41 189.66 260.46 190.21 260.51 190.77C260.89 194.98 261.13 199.19 261.38 203.41C261.21 200.53 261.37 203.19 261.41 203.9C261.45 204.61 261.49 205.39 261.54 206.14C261.62 207.65 261.7 209.15 261.78 210.66C261.94 213.74 262.09 216.82 262.23 219.89C262.49 225.65 262.71 231.4 262.83 237.16C262.88 239.33 262.91 241.5 262.89 243.67C262.89 244.44 262.87 245.21 262.84 245.98C262.84 246.13 262.83 246.28 262.82 246.43C262.78 247.44 262.98 244.29 262.89 245.19C262.87 245.44 262.83 245.69 262.82 245.93C262.79 246.62 263.13 244.69 262.93 245.42C262.87 245.64 262.81 245.87 262.76 246.09C262.58 246.83 263.29 244.78 262.85 245.75C262.52 246.48 263.49 244.9 262.79 245.84C262.7 245.96 262.58 246.08 262.49 246.2C262.12 246.72 263.09 245.85 262.57 246.11C262.14 246.32 261.67 246.58 261.25 246.81C261.96 246.42 261.64 246.72 261.25 246.76C261.01 246.78 260.78 246.81 260.55 246.82C259.84 246.83 259.1 246.71 258.39 246.68C253.56 246.5 248.73 246.3 243.9 246.06C239.07 245.82 233.79 245.71 228.82 244.97C228.54 244.93 228.27 244.86 227.99 244.82C227.46 244.75 228.3 244.92 228.43 244.96C228.28 244.91 228.16 244.81 228.04 244.71C228.29 244.91 228.91 245.36 228.37 244.97C228.3 244.92 228.28 244.82 228.22 244.76C227.88 244.4 228.6 245.44 228.6 245.45C228.48 245 228.16 244.51 227.98 244.07C227.51 242.93 228.39 245.42 228.09 244.41C228.01 244.14 227.92 243.87 227.84 243.59C227.65 242.92 227.48 242.25 227.32 241.57C227.16 240.89 227.01 240.2 226.87 239.51C226.8 239.18 226.74 238.84 226.67 238.51C227.13 240.79 226.79 239.17 226.7 238.61C226.12 235.26 225.81 231.88 225.31 228.52C223.98 219.56 222.36 210.64 220.89 201.7L220.44 198.97C220.2 197.53 219.48 193.45 217.18 194.13C214.88 194.81 214.67 198.94 214.6 200.76C214.24 210.83 213.89 220.91 213.55 230.98C213.46 233.74 213.35 236.5 213.28 239.26C213.26 240.16 213.42 237.8 213.31 238.67C213.28 238.92 213.26 239.17 213.23 239.42C213.2 239.67 213.16 239.9 213.13 240.13C213.02 240.92 213.46 238.78 213.23 239.52C213.17 239.73 212.71 241.16 213.09 240.18C213.47 239.2 212.92 240.58 212.82 240.8C212.75 240.96 212.67 241.11 212.59 241.27C212.27 241.97 212.78 240.85 212.83 240.86C212.78 240.86 212.37 241.55 212.32 241.62C212.15 241.85 211.97 242.05 211.79 242.27C211.16 243.03 212.42 241.81 211.68 242.38C211.02 242.89 210.36 243.31 209.59 243.64C209.47 243.69 209.29 243.72 209.18 243.79C209.08 243.85 210.11 243.6 209.55 243.67C209.4 243.69 209.26 243.74 209.12 243.76C208.94 243.78 208.76 243.76 208.58 243.76C204.24 243.79 199.9 243.8 195.56 243.82C186.92 243.86 178.29 243.9 169.65 243.94C158.86 243.99 148.07 244.04 137.28 244.09C126.49 244.14 115.94 244.19 105.27 244.24C96.8702 244.28 88.4602 244.32 80.0602 244.36C76.1102 244.38 72.1602 244.46 68.2102 244.41C67.6902 244.41 67.1802 244.37 66.6602 244.32C65.3102 244.21 63.9602 244.03 62.6302 243.79C61.8102 243.64 60.9902 243.47 60.1902 243.27C59.9402 243.21 59.1602 243 59.1702 243C59.4802 243.09 58.8402 242.89 58.7802 242.87C58.5202 242.78 58.2602 242.69 58.0102 242.6C57.2102 242.3 56.4202 241.95 55.6702 241.54C55.3102 241.34 54.9702 241.11 54.6202 240.89C53.9302 240.45 54.5602 240.64 54.8002 241.14C54.7002 240.93 54.0502 240 54.6002 240.97C55.1502 241.94 54.5602 240.78 54.4302 240.49C54.0402 239.59 54.8602 241.91 54.6602 241.18C54.6002 240.98 54.5402 240.79 54.4802 240.59C54.3402 240.1 54.2302 239.6 54.1202 239.09C53.8602 237.9 54.3602 240.51 54.2402 239.78C54.2002 239.52 54.1502 239.26 54.1102 239C54.0202 238.41 53.9402 237.83 53.8702 237.24C53.7202 235.98 53.6002 234.72 53.5102 233.46C53.4902 233.14 53.4602 232.81 53.4402 232.49C53.3402 231.02 53.5302 234.09 53.4702 233.05C53.4302 232.29 53.3902 231.53 53.3602 230.77C53.2502 227.93 53.2102 225.08 53.2102 222.24C53.2102 217.75 53.3102 213.25 53.5002 208.76C53.5302 208.05 53.5602 207.35 53.6002 206.64C53.6802 205.17 53.3502 203.22 52.7302 201.87C52.3702 201.1 51.6602 199.89 50.6302 199.89C47.9902 199.89 47.7402 205.06 47.6602 206.64L47.6202 206.66Z" fill="black"/>
<path d="M201.16 37.2799C205.93 39.9499 210.71 42.6299 215.48 45.2999C216.16 45.6799 216.84 46.0599 217.52 46.4399C219.53 47.5699 220.43 43.7699 220.56 42.5099C220.71 41.0799 220.71 39.5599 220.31 38.1799C220.05 37.2899 219.7 36.0799 218.83 35.5899C214.06 32.9199 209.28 30.2399 204.51 27.5699C203.83 27.1899 203.15 26.8099 202.47 26.4299C200.46 25.2999 199.56 29.0999 199.43 30.3599C199.28 31.7899 199.28 33.3099 199.68 34.6899C199.94 35.5799 200.29 36.7899 201.16 37.2799Z" fill="black"/>
<path d="M100.83 6.44016C98.77 16.4102 101.79 27.3802 106.69 36.0702C109.36 40.8002 112.57 45.1302 116.29 49.0802C118.63 51.5602 121.12 53.9102 123.71 56.1102C124.98 57.1902 126.28 58.2402 127.6 59.2502C128.36 59.8302 129.13 60.4102 129.9 60.9702C130.42 61.3502 131.09 62.0302 131.77 62.0302C132.63 62.0302 133.9 61.3102 134.66 60.9902C136.53 60.2002 138.34 59.2802 140.09 58.2502C146.1 54.7102 151.43 49.9202 155.68 44.4002C163.24 34.6102 167.27 22.6002 168.84 10.4402C169.02 9.05016 168.95 7.46016 168.59 6.11016C168.38 5.31016 167.92 3.98016 167.11 3.52016C165.07 2.37016 164.21 6.32016 164.07 7.45016C163.97 8.23016 163.86 9.01016 163.74 9.79016C163.69 10.0802 163.38 12.1902 163.6 10.7102C163.39 12.1502 163.01 13.6002 162.65 15.0202C162.35 16.2102 162.01 17.3902 161.65 18.5602C161.57 18.8302 161.48 19.1002 161.39 19.3702C161.04 20.4802 161.74 18.4202 161.34 19.5002C161.12 20.1202 160.89 20.7402 160.66 21.3502C159.82 23.5302 158.85 25.6502 157.75 27.7102C157.62 27.9502 156.8 29.4202 157.33 28.5002C157.09 28.9102 156.85 29.3302 156.6 29.7402C156.02 30.6902 155.41 31.6302 154.77 32.5402C153.68 34.1102 152.5 35.6302 151.24 37.0702C150.65 37.7502 150.05 38.4102 149.42 39.0602C149.15 39.3502 148.87 39.6302 148.59 39.9102C148.42 40.0702 148.26 40.2402 148.09 40.4002C148.72 39.7802 147.97 40.5102 147.85 40.6202C145.66 42.6502 143.3 44.5102 140.8 46.1402C137.89 48.0502 134.78 49.6802 131.5 50.8602C131.4 50.9002 131.29 50.9202 131.18 50.9602C130.87 51.0802 131.86 50.7102 131.76 50.7802C131.65 50.8702 132.33 48.7702 132 50.7002C132.02 50.5902 130.89 49.9002 130.81 49.8402C128.02 47.7902 125.32 45.6102 122.75 43.2702C118.91 39.7802 115.37 35.8402 112.39 31.5502C111.64 30.4702 110.92 29.3602 110.24 28.2302C110.12 28.0202 110 27.8102 109.87 27.6102C109.72 27.3602 109.77 27.4402 110.02 27.8702C109.93 27.7102 109.84 27.5402 109.75 27.3802C109.49 26.9002 109.23 26.4202 108.98 25.9302C108.33 24.6502 107.74 23.3502 107.21 22.0202C107.04 21.5902 106.88 21.1502 106.72 20.7202C106.37 19.8002 106.84 21.1802 106.54 20.1902C106.31 19.4002 106.07 18.6202 105.87 17.8202C105.78 17.4502 105.69 17.0802 105.61 16.7002C105.56 16.4602 105.51 16.2202 105.46 15.9802C105.6 16.7402 105.62 16.8402 105.52 16.2902C105.42 15.6502 105.32 15.0102 105.25 14.3702C105.19 13.8502 105.16 11.7902 105.18 13.9002C105.18 13.3902 105.14 12.8702 105.15 12.3602C105.15 11.7402 105.4 10.1202 105.11 12.4402C105.14 12.1602 105.15 11.8802 105.18 11.6102C105.27 10.8502 105.46 10.1302 105.05 12.1302C105.54 9.77016 105.78 6.46016 104.16 4.43016C102.54 2.40016 101.09 4.91016 100.77 6.45016L100.83 6.44016Z" fill="black"/>
<path d="M108.86 31.27C109.85 31.25 110.87 31.05 111.85 30.94C114.3 30.67 116.76 30.45 119.22 30.26C127.11 29.67 135.03 29.5 142.93 29.82C148.4 30.04 153.85 30.51 159.27 31.26C160.08 31.37 160.78 30.14 161.02 29.61C161.55 28.45 161.77 26.89 161.74 25.63C161.71 23.97 161.48 20.31 159.26 20.01C143.82 17.86 128.06 17.97 112.58 19.6C111.35 19.73 110.09 19.98 108.85 20.01C106.7 20.05 106.35 24.16 106.37 25.63C106.4 26.95 106.5 28.41 107.09 29.61C107.43 30.29 107.94 31.28 108.84 31.26L108.86 31.27Z" fill="black"/>
<path d="M113.61 54.1998C112.15 56.5598 111.4 59.3898 110.37 61.9598C109.49 64.1698 108.64 66.4098 107.84 68.6598C105.7 74.6698 105 81.9097 108.94 87.4198C109.13 87.7798 109.07 87.6698 108.76 87.0798C108.89 87.3298 109.02 87.5798 109.13 87.8298C109.25 88.0898 109.36 88.3498 109.47 88.6198C109.69 89.2498 109.67 89.1698 109.41 88.3598C109.48 88.6398 109.54 88.9197 109.59 89.1997C109.7 89.8997 109.69 89.7598 109.57 88.7998C109.63 88.8298 109.68 90.4897 109.62 90.5197C109.7 89.5597 109.7 89.4298 109.64 90.1398C109.61 90.4298 109.58 90.7198 109.54 91.0098C109.46 91.5998 109.35 92.1798 109.23 92.7598C109.17 93.0498 109.1 93.3397 109.03 93.6297C109.23 92.8297 109.25 92.7598 109.07 93.4098C108.92 93.9098 108.78 94.4198 108.63 94.9198C107.9 97.2698 107.09 99.5998 106.3 101.93C105.88 103.18 105.46 104.43 105.04 105.68C104.36 107.7 103.86 109.56 103.76 111.73C103.67 113.72 104.66 116.26 106.39 117.31C108.12 118.36 109.66 117.37 110.78 115.93C111.75 114.7 112.12 112.96 112.61 111.49C113.02 110.24 113.44 108.98 113.85 107.73C114.6 105.47 115.38 103.23 116.06 100.95C117.84 95.0097 118.74 88.8998 116.75 82.8898C116.28 81.4798 115.59 80.2198 114.87 78.9098C114.74 78.6698 114.6 78.4198 114.47 78.1798C114.78 78.7698 114.85 78.8797 114.66 78.5197C114.57 78.3297 114.48 78.1497 114.39 77.9497C114.16 77.3397 114.17 77.4397 114.42 78.2397C114.34 77.9597 114.28 77.6697 114.23 77.3797C114.32 78.3197 114.34 78.4397 114.3 77.7397C114.3 77.4497 114.3 77.1498 114.31 76.8598C114.24 77.7898 114.25 77.8998 114.32 77.1898C114.44 76.6098 114.45 75.9598 114.66 75.3998C114.13 76.8298 114.81 74.9398 114.9 74.6598C115.61 72.3298 116.42 70.0297 117.12 67.6997C117.96 64.9097 119.13 62.1198 119.56 59.2398C119.86 57.2798 119.45 54.6298 117.81 53.2798C116.37 52.0898 114.54 52.6998 113.6 54.2098L113.61 54.1998Z" fill="black"/>
<path d="M150.79 54.4899C147.08 55.7799 147.37 61.5799 147.94 64.6299C148.41 67.1399 149.44 69.5899 150.56 71.8799C151.08 72.9399 151.58 73.9799 152.04 75.0699C152.26 75.6999 152.23 75.6199 151.97 74.8099C152.04 75.0899 152.1 75.3699 152.14 75.6499C152.05 74.6699 152.02 74.5399 152.06 75.2499C152.15 74.2699 152.16 74.1199 152.08 74.8299C152.04 75.1099 151.99 75.3899 151.92 75.6599L152.09 74.9399C152.21 75.1499 151.61 76.3199 151.51 76.5499C151.08 77.6199 150.58 78.6599 150.14 79.7299C147.88 85.2499 147.42 91.3299 148.23 97.1999C148.59 99.8199 149.4 102.31 150.17 104.82C149.64 103.07 150.22 105.03 150.32 105.37C150.47 105.93 150.62 106.5 150.73 107.07C150.79 107.35 150.84 107.64 150.89 107.93C150.99 108.66 150.98 108.5 150.85 107.46C150.87 107.75 150.89 108.04 150.89 108.33C150.89 109.06 150.99 109.78 151.19 110.48C151.68 112.39 152.68 114.65 154.84 115.03C156.76 115.37 158.54 113.62 159 111.83C159.89 108.4 159.55 105.03 158.62 101.64C158.2 100.12 157.64 98.6399 157.25 97.1099C157.71 98.8699 157.2 96.8999 157.11 96.5599C157 96.1299 156.89 95.6999 156.8 95.2699C156.74 94.9999 156.33 93.6999 156.49 93.4899C156.59 94.4899 156.61 94.6199 156.54 93.8899C156.52 93.5899 156.5 93.2899 156.49 92.9899C156.46 92.3899 156.49 91.7799 156.49 91.1799C156.49 89.7299 156.31 92.4499 156.5 91.1199C156.59 90.5199 156.65 89.9199 156.75 89.3299C156.81 88.9799 157.06 86.9799 156.84 88.6899C156.97 87.6299 157.52 86.4999 157.91 85.5099C158.86 83.1399 159.85 80.7899 160.21 78.2399C160.69 74.8699 160.23 71.4799 158.94 68.3399C158.41 67.0299 157.72 65.7599 157.02 64.5499C156.74 64.0499 156.43 63.5799 156.13 63.0899C156.05 62.9699 155.25 61.6199 155.59 62.2199C155.93 62.8199 155.23 61.3899 155.16 61.2499C154.95 60.6599 154.95 60.7099 155.16 61.3999C155.08 61.1199 155.02 60.8499 154.96 60.5699C155.02 61.3799 155.03 61.4599 154.99 60.8099C154.78 59.0999 154.76 58.8199 154.91 59.9699C154.87 59.3699 154.8 58.7699 154.69 58.1799C154.27 56.7399 154.2 56.5299 154.48 57.5499C153.99 55.8599 152.9 53.7599 150.78 54.4999L150.79 54.4899Z" fill="black"/>
<path d="M100.67 180.86C101.33 180.71 102.1 180.79 102.77 180.77C104.4 180.74 106.02 180.72 107.65 180.7C112.87 180.65 118.09 180.62 123.31 180.6C134.94 180.55 146.58 180.54 158.21 180.53C160.85 180.53 163.5 180.53 166.14 180.53L163.75 176.4C164.83 182.87 166.3 189.31 168.15 195.6C169.57 200.44 171.18 205.31 173.48 209.82C174.49 211.8 175.6 213.79 177.01 215.52C178.65 217.53 180.74 218.89 182.8 220.41C184.86 221.93 186.95 223.48 188.92 225.15C189.15 225.35 189.39 225.55 189.62 225.76C189.7 225.83 189.77 225.9 189.85 225.97C190.26 226.33 189.33 225.44 189.5 225.64C189.58 225.73 189.68 225.82 189.76 225.91L188.62 222.55C188.94 227.24 189.25 231.92 189.58 236.61C189.65 237.67 189.51 235.43 189.51 235.5C189.47 232.91 189.64 233.74 189.58 234.21C189.52 234.68 189.35 235.11 189.76 233.35C189.5 234.47 190.07 232.63 189.83 233.19C189.54 233.85 190.25 232.48 189.97 232.91C189.8 233.17 189.51 233.22 190.04 232.89C189.91 232.97 189.8 233.09 189.66 233.16C189.64 233.17 188.92 233.44 189.34 233.33C188.98 233.43 188.6 233.42 188.23 233.42C187.49 233.43 186.74 233.42 185.99 233.42H89.6201C87.5001 233.42 85.3401 233.32 83.2201 233.42C82.2801 233.46 81.3701 233.62 80.4201 233.48C80.1701 233.44 79.4901 233.24 80.0801 233.45C79.7801 233.34 79.4801 233.22 79.2001 233.05C79.1001 232.99 78.9801 232.88 78.8701 232.83C79.4301 233.27 78.2501 232.53 78.8701 232.83C78.8201 232.79 78.6201 232.5 78.6201 232.48C78.9001 233.01 78.9901 233.13 78.8601 232.85C78.7301 232.52 78.7901 232.71 79.0501 233.4L79.1901 234.21C79.1401 233.78 79.1401 233.83 79.1901 234.36C79.3101 235.53 79.2201 234.02 79.2201 233.87C79.2201 233.18 79.2101 232.48 79.1901 231.79C79.1601 230.31 79.1201 228.83 79.0701 227.35C79.0201 226.01 78.9701 224.68 78.8901 223.34L77.0701 228.76C79.9801 226.96 82.7001 224.66 84.7501 221.92C86.6501 219.38 88.4501 216.75 90.1901 214.09C92.5901 210.42 94.8901 206.65 96.8901 202.73C97.7101 201.11 98.4701 199.46 99.0901 197.75C99.9801 195.25 100.42 192.74 100.86 190.12C101.62 185.66 102.34 181.19 103.03 176.71C103.24 175.36 103.13 173.7 102.78 172.38C102.57 171.58 102.11 170.25 101.3 169.79C99.2401 168.63 98.4301 172.6 98.2601 173.72C97.7301 177.18 97.1701 180.63 96.6001 184.08C96.3801 185.39 96.1601 186.7 95.9401 188.01C95.8801 188.38 95.8101 188.74 95.7501 189.11C95.6401 189.74 95.2201 190.35 95.8101 188.81C95.6901 189.13 95.6501 189.5 95.5501 189.84C95.5201 189.95 95.3101 190.39 95.3501 190.49C95.3401 190.45 95.7801 189.34 95.5001 190.03C95.3401 190.42 95.2001 190.82 95.0401 191.21C94.6901 192.06 94.3101 192.9 93.9101 193.73C93.5101 194.56 93.1101 195.33 92.6801 196.12C92.4401 196.58 92.1801 197.03 91.9301 197.48C91.8501 197.63 91.5601 198.13 91.9701 197.42C91.8101 197.69 91.6501 197.97 91.4901 198.24C90.4601 200.01 89.3701 201.75 88.2601 203.48C86.5001 206.2 84.6701 208.89 82.7501 211.5C80.8301 214.11 78.6301 216.11 75.7401 217.9C74.2401 218.83 73.8401 221.77 73.9201 223.32C74.0501 225.68 74.1301 228.05 74.1901 230.42C74.2801 234.36 73.6301 239.61 76.5501 242.76C78.3801 244.73 80.6201 244.79 83.1001 244.66C86.4701 244.48 89.9101 244.66 93.2901 244.66H184.32C185.58 244.66 186.83 244.67 188.09 244.66C193.65 244.61 194.61 238.11 194.32 233.77C194.09 230.2 193.83 226.62 193.59 223.05C193.51 221.89 193.47 220.71 193.35 219.55C193.12 217.27 192.47 216.34 191.02 215.01C187.72 211.98 183.93 209.23 180.25 206.69C179.93 206.47 180.68 207.19 180.44 206.87C180.38 206.8 180.3 206.73 180.24 206.67C180.11 206.52 179.97 206.38 179.84 206.24C179.52 205.88 179.22 205.5 178.94 205.12C178.66 204.74 178.39 204.35 178.13 203.95C178.01 203.76 177.88 203.57 177.77 203.37C177.66 203.2 177.16 202.36 177.48 202.9C177.8 203.44 177.39 202.73 177.32 202.6C177.18 202.35 177.05 202.09 176.92 201.83C176.65 201.3 176.39 200.77 176.14 200.23C175.66 199.18 175.21 198.12 174.78 197.05C174.32 195.89 173.91 194.72 173.49 193.55C173.32 193.07 173.66 194.06 173.65 194.03C173.62 193.9 173.56 193.76 173.52 193.63C173.42 193.32 173.32 193.01 173.22 192.7C173.02 192.08 172.83 191.46 172.64 190.83C171.95 188.55 171.33 186.25 170.75 183.94C170.26 181.96 169.8 179.96 169.37 177.96C169.2 177.15 169.03 176.34 168.87 175.53C168.78 175.08 168.78 174.03 168.51 173.66C168.51 173.65 168.81 175.29 168.68 174.57C168.66 174.46 168.64 174.35 168.62 174.24C168.59 174.09 168.57 173.94 168.54 173.8C168.51 173.66 168.49 173.52 168.47 173.37C168.28 172.2 167.81 169.24 166.08 169.24C158.84 169.24 151.61 169.24 144.37 169.26C132.65 169.28 120.93 169.29 109.21 169.4C107.2 169.42 105.18 169.44 103.17 169.47C102.35 169.49 101.41 169.39 100.61 169.57C98.4501 170.05 98.1001 173.39 98.1301 175.19C98.1601 176.51 98.2601 177.97 98.8501 179.17C99.1401 179.75 99.7701 181 100.6 180.82L100.67 180.86Z" fill="black"/>
<path d="M57.0401 252.67C57.6901 257.47 58.3501 262.27 59.0001 267.07V264.08C58.5001 267.61 59.3701 272.38 62.7901 274.22C65.0301 275.42 67.6401 275.46 70.1201 275.46H79.8201C92.1501 275.46 104.49 275.46 116.82 275.46C131.68 275.46 146.53 275.46 161.39 275.46H194.45C196.52 275.46 198.63 275.57 200.7 275.46C202.44 275.36 204.37 274.68 205.82 273.74C208.49 272.01 209.61 269.13 210.09 266.09C210.48 263.56 210.8 261.02 211.15 258.48C211.34 257.09 211.53 255.7 211.72 254.31C211.91 252.92 211.83 251.32 211.47 249.98C211.26 249.18 210.8 247.85 209.99 247.39C207.94 246.23 207.1 250.19 206.95 251.32C206.73 252.93 206.51 254.54 206.29 256.15C206.11 257.45 205.93 258.75 205.75 260.04C205.65 260.74 205.55 261.43 205.46 262.13C205.42 262.43 205.31 262.8 205.32 263.1C205.36 262.61 205.48 262.15 205.68 261.7C205.62 261.87 205.54 262.03 205.46 262.18C205.86 261.24 205.33 262.24 205.07 262.53C205.58 261.99 204.55 262.87 204.31 263.01C203.91 263.25 203.49 263.46 203.06 263.63C202.89 263.7 202.72 263.76 202.55 263.82C201.9 264.07 202.83 263.76 202.35 263.89C201.84 264.02 201.31 264.16 200.78 264.2C198.65 264.34 196.47 264.2 194.34 264.2H70.1901C67.6501 264.2 65.4501 264.17 63.4501 262.95C63.1401 262.76 63.0901 262.41 63.5401 263.07C63.4601 262.95 63.3401 262.85 63.2501 262.73C62.7501 262.03 63.7001 263.74 63.3301 262.84C63.6501 263.61 63.7001 263.97 63.8001 264.66C63.7301 264.16 63.8401 263.48 63.8601 265.87C63.8601 265.35 63.8601 264.64 63.7801 267.13C63.8401 265.48 63.7801 264.1 63.5701 262.52L62.1501 252.12C62.0401 251.31 61.9301 250.5 61.8201 249.68C61.6501 248.45 60.8101 244.6 58.7801 245.75C56.7501 246.9 56.8101 250.87 57.0501 252.67H57.0401Z" fill="black"/>
<path d="M229.8 255.98C230.49 259.27 231.19 262.56 231.88 265.85C232.22 267.45 232.42 269.11 233.35 270.5C234.56 272.31 236.53 273.48 238.58 274.06C241.04 274.77 243.8 274.46 246.33 274.42C249.06 274.38 251.78 274.32 254.5 274.26C257.22 274.2 260.06 274.67 262.1 272.7C265.43 269.49 265.29 263.82 265.1 259.56C264.98 256.81 264.83 253.97 264.17 251.28C263.82 249.86 262.26 247.22 260.78 249.26C259.3 251.3 259.32 254.6 259.89 256.96C260.12 257.91 259.68 255.62 259.76 256.24C259.84 256.8 259.93 257.35 259.99 257.9C260.03 258.26 260.07 258.63 260.1 258.99C260.12 259.2 260.13 259.41 260.15 259.62C260.23 260.63 260.1 259.19 260.12 259.18C260.07 259.2 260.18 260.86 260.18 261.01C260.18 261.31 260.19 261.61 260.19 261.92C260.19 262.19 260 263.56 260.21 262.68C260.39 261.89 260.19 262.6 260.17 262.84C260.1 263.54 260.4 261.79 260.23 262.42C260.06 263.05 260.71 261.37 260.31 262.18C260.06 262.69 260.53 262.06 260.49 261.92C260.54 262.09 260.06 262.41 260.01 262.57C260.2 262 260.5 262.23 260.22 262.37C260.09 262.43 259.96 262.57 259.84 262.64C259.69 262.73 259.51 262.79 259.36 262.89C258.91 263.16 259.73 262.89 259.47 262.86C259.36 262.84 259.2 262.9 259.08 262.91C257.02 263.1 254.89 263.01 252.82 263.06C249.44 263.13 246.07 263.21 242.69 263.23C240.73 263.25 239.04 263.2 237.39 262.21C237.05 262.01 236.75 261.77 236.44 261.53C235.8 261.03 236.61 261.82 236.31 261.41C236.14 261.18 235.93 260.98 235.78 260.74L236.67 262.76C235.8 258.61 234.92 254.47 234.05 250.32C233.74 248.86 232.12 246.29 230.66 248.3C229.13 250.41 229.27 253.59 229.77 256L229.8 255.98Z" fill="black"/>
</g>
<defs>
<clipPath id="clip0_3416_11911">
<rect width="268.84" height="275.51" fill="white"/>
</clipPath>
</defs>
</svg>
