<svg width="292" height="273" viewBox="0 0 292 273" fill="none" xmlns="http://www.w3.org/2000/svg">
<g clip-path="url(#clip0_3416_10581)">
<path d="M42.38 38.2298C41.14 40.4698 39.92 42.6598 39.02 45.0598C38.81 45.6098 38.6 46.1598 38.4 46.7198C38.23 47.1898 38.4299 46.7998 38.4599 46.7198C38.2599 47.2698 38.03 47.6298 37.86 48.1498C37.46 49.3798 37.0899 50.6298 36.7099 51.8598C35.4199 56.0898 34.24 60.3298 33.15 64.6098C30.91 73.3998 28.5799 82.1598 26.2099 90.9098C20.6399 111.47 15.43 132.12 9.61995 152.62C6.70995 162.88 3.83995 173.19 1.76995 183.65C-0.30005 194.11 -1.14005 205.71 2.66995 216.35C7.53995 229.92 19.6699 238.84 32.1699 244.91C44.3199 250.82 57.3799 254.41 70.2299 258.43C79.4599 261.32 88.6799 264.06 98.1199 266.17C108.43 268.48 118.89 270.16 129.39 271.29C139.89 272.42 149.84 273.57 159.82 271.96C168.25 270.6 176.01 266.96 182.37 261.25C193.63 251.14 199.18 236.31 203.38 222.16C208.99 203.2 213.28 183.89 218.5 164.83C223.72 145.76 229.76 126.94 234.68 107.78C235.92 102.93 237.03 98.0598 238.15 93.1798C238.65 91.0098 237.82 86.9398 235.35 86.1898C232.62 85.3598 231.31 88.1498 230.82 90.3098C230.57 91.4198 230.29 92.5198 230.02 93.6198C229.95 93.8998 229.88 94.1798 229.81 94.4598C229.78 94.5698 229.6 95.2798 229.78 94.5998C229.96 93.8698 229.74 94.7798 229.69 94.9498C229.6 95.2998 229.51 95.6498 229.42 95.9998C228.83 98.2898 228.24 100.58 227.65 102.86C226.43 107.56 225.15 112.25 223.84 116.93C221.24 126.21 218.52 135.45 215.77 144.68C209.9 164.4 205.26 184.43 199.82 204.27C197.85 211.44 195.88 218.62 193.38 225.63C192.78 227.31 192.15 228.98 191.47 230.64C191.16 231.41 190.83 232.18 190.5 232.94C190.34 233.3 190.19 233.65 190.03 234C189.94 234.2 189.85 234.4 189.75 234.6C189.56 235.02 189.02 235.63 189.78 234.56C189.33 235.21 189.04 236.07 188.67 236.77C188.24 237.59 187.79 238.41 187.33 239.21C186.47 240.71 185.54 242.18 184.55 243.61C184.09 244.27 183.61 244.92 183.12 245.56C182.99 245.73 182.85 245.9 182.72 246.07C182.4 246.51 183 245.72 183 245.73C182.79 246.17 182.28 246.59 181.96 246.96C180.83 248.25 179.63 249.48 178.35 250.63C177.75 251.17 177.13 251.69 176.49 252.19C176.19 252.42 175.89 252.66 175.59 252.88C175.34 253.07 173.96 254 174.93 253.37C173.48 254.31 172 255.19 170.45 255.95C168.77 256.77 167.04 257.48 165.27 258.06C162.9 258.84 161.48 259.14 158.86 259.51C154.01 260.18 149.09 260.12 144.21 259.84C123.76 258.65 104.46 255.32 84.7999 249.91C77.6699 247.95 70.61 245.68 63.52 243.57C57.07 241.65 50.63 239.67 44.33 237.3C41.15 236.11 38.01 234.82 34.93 233.4C33.39 232.68 31.86 231.93 30.35 231.14C29.61 230.75 28.8699 230.34 28.1399 229.93C27.7799 229.72 27.4099 229.52 27.0499 229.3C26.6899 229.08 25.82 228.65 26.69 229.09C23.88 227.67 21.1899 225.44 18.8099 223.4C17.6199 222.38 16.48 221.3 15.4 220.16C15.27 220.02 15.14 219.88 15 219.74C14.45 219.16 15.1799 219.93 15.2299 220.01C15.0199 219.7 14.71 219.42 14.47 219.13C13.98 218.54 13.5 217.93 13.04 217.31C12.12 216.07 11.41 214.71 10.56 213.44C11.42 214.72 10.73 213.75 10.53 213.34C10.36 212.99 10.19 212.64 10.03 212.29C9.70995 211.58 9.40995 210.86 9.13995 210.13C8.96995 209.66 8.75995 209.18 8.64995 208.69C8.91995 209.87 8.51995 208.16 8.43995 207.84C8.13995 206.65 7.90995 205.44 7.72995 204.22C7.68995 203.93 7.61995 203.6 7.60995 203.31C7.64995 204.58 7.65995 203.75 7.62995 203.46C7.58995 202.85 7.52995 202.23 7.49995 201.62C7.43995 200.39 7.41995 199.15 7.44995 197.92C7.45995 197.31 7.45995 196.68 7.52995 196.07C7.50995 196.27 7.42995 197.28 7.52995 196.2C7.55995 195.89 7.57995 195.58 7.60995 195.27C7.72995 194.04 7.87995 192.81 8.05995 191.59C8.42995 189.07 8.88995 186.57 9.38995 184.07C9.88995 181.57 10.42 179.06 10.99 176.57C11.28 175.32 11.57 174.08 11.87 172.83C12 172.29 12.14 171.74 12.27 171.2C12.47 170.39 12.09 171.91 12.29 171.11C12.39 170.72 12.49 170.33 12.59 169.94C15.13 160.02 18.15 150.23 20.84 140.36C23.53 130.49 26.18 120 28.86 109.83C33.65 91.6198 38.69 73.4998 43 55.1698C43.63 52.4798 43.88 51.3698 44.43 48.5898C44.98 45.8098 45.12 43.6998 45.41 40.7698C45.51 39.7498 45.38 38.4498 44.52 37.7398C43.81 37.1598 42.82 37.4198 42.38 38.2098V38.2298Z" fill="#1D1D1B"/>
<path d="M39.29 12.9699C35.89 16.6799 34.58 21.6799 34.7 26.6499C34.77 29.4599 34.93 32.5299 35.99 35.1699C36.9 37.4499 38.32 39.6699 39.91 41.5399C43.01 45.1899 46.76 47.9299 50.69 50.5899C54.37 53.0799 58.1 55.4899 61.92 57.7599C77.3 66.8999 93.89 73.9199 110.8 79.6899C128.36 85.6799 146.41 90.2899 164.66 93.5999C173.33 95.1699 182.05 96.4899 190.82 97.4199C199.59 98.3499 207.5 98.9199 215.87 98.4699C220.09 98.2399 224.3 97.8599 228.52 97.5499C232.74 97.2399 236.56 96.9599 240.31 95.3599C247.64 92.2399 251.58 85.1699 253.12 77.6599C253.51 75.7599 253.94 73.8899 254.21 71.9699C254.53 69.7599 253.99 66.2999 251.57 65.3899C249.15 64.4799 247.58 67.3199 247.3 69.2699C247.17 70.1999 247.02 71.1299 246.84 72.0499C246.75 72.4899 246.66 72.9299 246.56 73.3699C246.53 73.5199 246.49 73.8599 246.41 74.0099C246.98 72.9499 246.52 73.4599 246.36 73.9099C246.11 74.6199 245.84 75.3299 245.57 76.0299C245.43 76.3899 245.27 76.7499 245.12 77.1099C245.04 77.2999 244.74 77.8899 245.1 77.1699C245.49 76.3999 245.1 77.1699 245.01 77.3399C244.68 77.9799 244.31 78.6099 243.93 79.2299C243.74 79.5299 243.55 79.8299 243.35 80.1199C243.25 80.2599 243.15 80.4099 243.04 80.5499C242.76 80.9299 242.31 81.1599 243.14 80.4499C242.66 80.8599 242.28 81.4199 241.82 81.8599C241.54 82.1299 240.2 82.9299 240.13 83.2499C240.18 83.0299 240.87 82.7799 240.37 83.0799C240.22 83.1699 240.07 83.2699 239.92 83.3599C239.62 83.5399 239.31 83.7099 238.99 83.8799C238.26 84.2599 237.5 84.5799 236.72 84.8599C236.03 85.1099 235.33 85.2799 234.63 85.4899C234.1 85.6499 235.29 85.3799 234.73 85.4599C234.53 85.4899 234.32 85.5399 234.12 85.5799C233.65 85.6699 233.17 85.7399 232.7 85.8099C228.38 86.3899 223.99 86.6199 219.64 86.9999C211.73 87.6899 203.94 87.6399 196.02 86.9599C188.1 86.2799 179.71 85.2199 171.62 83.9199C167.2 83.2099 163.93 82.6199 159.51 81.7399C155.09 80.8599 150.89 79.9599 146.61 78.9599C137.9 76.9199 129.26 74.5899 120.72 71.9299C104.03 66.7399 87.63 60.3399 72.17 52.1599C70.34 51.1899 68.52 50.1999 66.72 49.1699C65.86 48.6799 65 48.1799 64.15 47.6799C63.73 47.4299 63.3 47.1799 62.88 46.9299C62.67 46.7999 62.46 46.6799 62.25 46.5499C62.72 46.8399 62.22 46.5299 62.01 46.3999C58.51 44.2499 55.09 41.9599 51.72 39.6099C49.97 38.3899 48.24 37.1199 46.65 35.6899C46.27 35.3499 45.89 34.9999 45.53 34.6399C45.4 34.5099 44.38 33.4199 44.95 34.0699C44.22 33.2499 43.55 32.3699 42.96 31.4399C42.82 31.2199 42.68 30.9999 42.54 30.7699C42.47 30.6499 42.07 29.9099 42.34 30.4399C42.61 30.9699 42.24 30.2199 42.18 30.0899C42.01 29.7299 41.84 29.3799 41.65 29.0299C41.47 28.6999 41.3 28.3599 41.09 28.0399C40.74 27.4999 41.4 28.7399 41.14 28.1299C40.93 27.6299 40.68 27.1399 40.49 26.6299C40.41 26.3999 40.32 26.1799 40.25 25.9499C40.5 26.7199 40.3 26.1099 40.27 25.9299C40.24 25.7399 40.06 24.2799 40.13 25.1399C40.09 24.6199 40.06 24.0999 40.05 23.5699C40.05 23.3099 40.05 23.0499 40.05 22.7899C40.05 22.7099 40.1 21.7599 40.08 22.1199C40.05 22.5299 40.12 21.7099 40.13 21.6299C40.16 21.3699 40.2 21.0999 40.24 20.8399C40.31 20.3899 40.39 19.9199 40.51 19.4799C40.8 18.4299 41.17 17.4099 41.61 16.4099C42.01 15.5099 41.84 14.1299 41.27 13.3299C40.82 12.6899 39.86 12.2999 39.23 12.9799L39.29 12.9699Z" fill="#1D1D1B"/>
<path d="M38.4699 15.2003C38.4099 18.8403 39.2499 22.4403 40.6499 25.7903C41.3999 27.5903 42.2699 29.3203 43.5099 30.8303C44.7499 32.3403 46.0199 33.7203 47.3899 35.0503C52.2999 39.8003 58.1199 43.4902 63.9899 46.9202C78.8699 55.6302 95.3499 61.0503 111.65 66.4103C128.52 71.9503 145.52 77.1103 162.81 81.1903C178.94 85.0003 195.52 88.0103 212.15 87.3703C220.53 87.0503 228.89 85.7303 236.91 83.2303C239.87 82.3103 242.71 81.1702 245.71 80.3802C248.44 79.6702 251.07 78.4003 252.48 75.8003C253.63 73.6703 254.07 71.2502 253.93 68.8402C253.81 66.7802 252.83 63.3903 250.2 63.4503C247.57 63.5103 246.62 66.9903 246.74 69.0103C246.74 69.1703 246.74 69.3502 246.76 69.5202C246.84 70.0602 246.81 68.8802 246.83 68.8402C246.83 68.8502 246.73 69.3403 246.75 69.4103C246.77 69.5003 247.02 68.2103 246.91 68.7303C246.88 68.8503 246.79 68.9703 246.78 69.0803C246.78 69.1503 247.26 68.0502 247.03 68.4902C246.65 69.2502 247.66 68.0003 247 68.5003C246.88 68.5903 246.26 69.1003 246.79 68.7103C247.32 68.3203 246.57 68.8103 246.39 68.9003C245.87 69.1503 245.32 69.3502 244.77 69.5202C243.72 69.8502 242.64 70.0803 241.57 70.3703C240.1 70.7703 238.7 71.3802 237.26 71.8802C229.93 74.4402 222.59 75.7603 214.73 76.2903C198.89 77.3603 183.12 74.9402 167.87 71.5202C151.38 67.8202 135.16 63.0303 119.08 57.8403C103 52.6503 87.2999 47.7403 72.4799 40.2103C70.6299 39.2703 68.8099 38.2903 67.0099 37.2703C66.1399 36.7803 65.2799 36.2703 64.4199 35.7603C64.2599 35.6703 64.1099 35.5703 63.9499 35.4803C63.9899 35.5003 64.5099 35.8203 64.1299 35.5903C63.7499 35.3603 63.3899 35.1303 63.0199 34.9003C60.3999 33.2703 57.8499 31.5503 55.3799 29.7003C52.9099 27.8503 50.3399 25.6603 48.1799 23.2603C48.6699 23.8003 48.1699 23.2303 47.9799 23.0003C47.7199 22.6903 47.4699 22.3603 47.2099 22.0503C46.6199 21.3303 45.9299 20.6903 45.2599 20.0303C44.7699 19.5503 45.1699 19.9503 45.2699 20.0603C45.1599 19.9403 45.0599 19.8203 44.9599 19.7003C44.7599 19.4603 44.5599 19.2103 44.3599 18.9603C43.9199 18.3903 43.5099 17.7903 43.1299 17.1703C42.6699 16.4203 42.6899 16.4503 42.3999 15.8403C42.0899 15.1803 41.8399 14.5003 41.6199 13.8003C41.3699 13.0003 40.4899 12.3003 39.6399 12.6403C38.6999 13.0203 38.4499 14.3203 38.4399 15.2003H38.4699Z" fill="#1D1D1B"/>
<path d="M41.54 17.3C44.2 13.39 51.18 13.12 55.67 13.05C59.04 13 62.39 13.13 65.73 13.57C67.36 13.79 68.95 14.11 70.54 14.52C72.43 15.01 74.64 16.21 76.53 15.36C78.11 14.65 78.72 12.62 78.82 11.06C78.94 9.20999 78.45 7.33999 77.1 6.01999C75.51 4.45999 72.59 4.69999 70.47 4.64999C68.51 4.60999 66.53 4.60999 64.57 4.70999C60.88 4.89999 57.31 5.61999 53.66 6.12999C50.51 6.56999 47.27 7.09999 44.35 8.40999C41.18 9.82999 37.41 12.97 39.21 16.9C39.7 17.97 40.79 18.41 41.54 17.3Z" fill="#1D1D1B"/>
<path d="M218.6 49.6801C221.49 51.1801 224.56 52.2901 227.47 53.7601C230.38 55.2301 233.03 56.8901 235.64 58.7001C238.25 60.5101 240.83 62.6101 243.19 64.8401C244.41 66.0001 245.02 66.5401 245.86 67.7801C245.89 67.8201 246.54 68.9201 246.16 68.2001C246.35 68.5601 246.49 68.9301 246.65 69.3001C247.05 70.2301 246.46 68.6001 246.75 69.6501C246.92 70.2901 247.15 70.9001 247.34 71.5301C247.79 72.9801 249.43 74.3301 250.98 73.6601C252.65 72.9401 253.27 70.5701 253.2 68.9401C252.81 60.6501 244.91 55.4201 238.48 51.5301C235.44 49.6901 232.31 48.2101 228.91 47.1501C225.71 46.1501 222.15 45.3301 218.82 46.0601C217.28 46.3901 217.31 49.0101 218.59 49.6801H218.6Z" fill="#1D1D1B"/>
<path d="M226.81 127.16C229.28 128.93 232.17 129.94 235.08 130.76C237.99 131.58 240.85 132.3 243.75 133.02C249.45 134.43 255.38 136.18 260.47 139.17C261.11 139.55 259.74 138.67 260.8 139.38C261.09 139.58 261.39 139.77 261.68 139.98C262.04 140.24 262.39 140.5 262.73 140.78C263.07 141.06 263.4 141.35 263.72 141.64C263.91 141.82 264.1 142 264.28 142.19C264.37 142.29 265.14 143.11 264.63 142.54C264.12 141.97 264.7 142.64 264.77 142.72C264.94 142.92 265.1 143.13 265.26 143.33C265.53 143.68 265.78 144.03 266.03 144.4C266.28 144.77 266.51 145.14 266.73 145.52C266.86 145.75 266.98 145.99 267.12 146.21C266.34 145.02 266.93 145.86 267.09 146.2C267.51 147.05 267.87 147.93 268.2 148.82C268.36 149.25 268.48 149.7 268.64 150.12C268.09 148.65 268.46 149.54 268.56 149.91C268.66 150.28 268.75 150.63 268.84 151C269.06 151.92 269.24 152.85 269.38 153.79C269.42 154.07 269.46 154.36 269.5 154.65C269.63 155.52 269.44 154.13 269.44 154.08C269.48 154.76 269.57 155.44 269.61 156.12C269.67 157.11 269.69 158.09 269.69 159.08C269.69 159.63 269.67 160.18 269.65 160.73C269.64 160.98 269.62 161.23 269.61 161.48C269.62 159.67 269.63 161.13 269.59 161.54C269.4 163.75 269.06 165.96 268.59 168.13C268.48 168.62 268.34 169.11 268.25 169.6C268.55 167.97 268.23 169.65 268.11 170.05C267.79 171.2 267.42 172.34 267.02 173.47C266.69 174.39 266.33 175.31 265.95 176.21C265.74 176.7 265.51 177.18 265.3 177.66C265.04 178.27 265.85 176.57 265.39 177.46C265.22 177.8 265.05 178.14 264.87 178.47C263.94 180.24 262.88 181.95 261.67 183.55C261.56 183.69 261.46 183.83 261.35 183.97C260.78 184.72 262.01 183.21 261.39 183.92C261.11 184.24 260.84 184.57 260.55 184.88C259.84 185.65 259.09 186.38 258.29 187.06C257.76 187.51 257.22 187.95 256.67 188.37C256.34 188.62 256.02 188.86 255.68 189.09C256.12 188.78 255.57 189.16 255.51 189.2C254.19 190.03 252.84 190.79 251.42 191.43C248.86 192.59 246.45 193.29 244.19 193.66C241.22 194.15 238.19 194.24 235.18 194.06C233.62 193.97 232.07 193.8 230.53 193.57C230.22 193.52 229.91 193.48 229.6 193.42C229.41 193.39 229.23 193.36 229.04 193.33C229.37 193.39 229.31 193.38 228.87 193.3C228.13 193.15 227.38 193 226.64 192.84C220.5 191.47 214.55 189.37 208.66 187.18C203.81 185.37 202.76 196.04 207.03 197.64C217.94 201.71 229.71 205.78 241.54 204.82C253.37 203.86 262.93 197.86 268.83 188.19C274.13 179.5 276.69 169.06 276.76 158.93C276.83 148.8 274.17 138.56 266.66 131.91C261.41 127.26 254.65 125.27 247.9 124.11C244.53 123.53 241.16 123.15 237.75 122.87C234.34 122.59 230.87 122.02 227.51 122.43C225.55 122.67 225.4 126.21 226.78 127.2L226.81 127.16Z" fill="#1D1D1B"/>
<path d="M231.08 111C236.4 113.02 241.65 115.19 247.04 117.01C251.45 118.51 255.95 119.4 260.46 120.57C262.82 121.18 265.12 122 267.31 123.07C267.85 123.33 268.39 123.61 268.92 123.91C269.16 124.04 269.39 124.18 269.63 124.31C268.83 123.85 269.75 124.39 269.87 124.46C270.84 125.09 271.78 125.77 272.68 126.5C273.48 127.15 274.25 127.85 274.98 128.58C275.2 128.8 275.41 129.02 275.62 129.24C275.66 129.29 276.33 130.04 275.87 129.51C275.41 128.98 276.06 129.74 276.1 129.79C276.33 130.06 276.55 130.34 276.77 130.62C277.43 131.46 278.05 132.33 278.62 133.23C278.89 133.66 279.16 134.1 279.41 134.54C279.97 135.51 279.44 134.53 279.42 134.54C279.44 134.54 279.82 135.33 279.84 135.36C280.32 136.33 280.76 137.32 281.15 138.32C281.36 138.85 281.56 139.39 281.74 139.93C281.81 140.13 281.87 140.33 281.94 140.52C282.11 141.04 282.07 140.92 281.83 140.14C281.89 140.34 281.95 140.54 282 140.75C282.28 141.77 282.55 142.8 282.73 143.84C282.82 144.37 282.86 144.92 282.95 145.45C282.65 143.55 282.95 145.69 282.99 146.21C283.16 148.62 283.11 151.03 283.02 153.44C283.02 153.66 283 153.89 282.99 154.11C282.94 155.4 283.12 152.45 283.02 153.74C282.97 154.29 282.93 154.85 282.88 155.4C282.76 156.63 282.59 157.85 282.39 159.07C282.19 160.29 281.94 161.57 281.68 162.82C281.56 163.4 281.43 163.98 281.29 164.56C281.22 164.85 281.15 165.14 281.08 165.43C280.71 166.98 281.44 164.09 281.11 165.32C280.84 166.35 280.56 167.38 280.3 168.42C280.84 166.21 280.31 168.31 280.16 168.85C279.76 170.28 279.33 171.71 278.86 173.12C278.04 175.63 277.11 178.1 276.07 180.52C275.82 181.1 275.57 181.68 275.3 182.25C275.14 182.59 274.96 182.93 274.82 183.28C275.48 181.65 275.17 182.56 274.96 182.97C274.32 184.27 273.65 185.54 272.94 186.8C271.47 189.4 269.84 191.94 268.07 194.35C267.71 194.85 266.91 195.56 266.72 196.12L267.22 195.5C267.06 195.69 266.91 195.88 266.75 196.07C266.51 196.35 266.27 196.63 266.03 196.91C265.07 198.02 264.06 199.08 263 200.1C261.94 201.12 260.86 202.08 259.73 202.99C259.16 203.44 258.58 203.87 258 204.31C256.94 205.1 258.99 203.71 257.87 204.41C257.55 204.61 257.23 204.82 256.9 205.01C254.24 206.59 251.34 207.69 248.32 208.4L249.59 208.11C243.54 209.46 237.32 209.15 231.25 208.09L232.52 208.32C223.44 206.69 214.77 203.48 206.13 200.34C202.98 199.19 200.81 202.83 200.47 205.48C200.1 208.37 200.73 213.01 203.97 214.21C210.72 216.71 217.46 219.25 224.44 221.04C231.42 222.83 239.51 224.23 247.06 223.27C250.81 222.79 254.59 221.83 258.01 220.18C261.43 218.53 264.62 216.17 267.45 213.59C273 208.53 277.48 202.28 280.87 195.61C284.59 188.29 287.24 180.66 289.17 172.69C289.97 169.38 290.5 165.97 290.86 162.59C291.25 158.97 291.52 155.23 291.25 151.59C290.3 138.54 285.86 124.49 274.99 116.34C272.33 114.34 269.36 112.68 266.26 111.48C263.16 110.28 259.84 109.65 256.57 108.89C253.54 108.19 250.55 107.56 247.48 107.07C244.17 106.55 240.9 106.24 237.56 106.06C235.5 105.94 233.44 105.85 231.37 105.77C229.09 105.69 229.27 110.34 231.03 111.01L231.08 111Z" fill="#1D1D1B"/>
<path d="M207.16 129.02C205.24 134.06 203.43 139.12 201.98 144.32C201.26 146.9 200.52 149.49 199.78 152.07C199.5 153.05 199.24 154.03 199 155.02C199.13 154.49 199.04 154.84 198.96 155.17C198.88 155.5 198.8 155.81 198.72 156.13C198.29 157.82 197.68 159.57 197.48 161.3C197.23 163.38 197.59 166.37 199.65 167.5C201.71 168.63 203.18 167.04 203.94 165.23C204.47 163.96 204.7 162.52 205.04 161.19C205.45 159.55 205.89 157.92 206.24 156.27C206.83 153.5 207.4 150.73 207.97 147.96C209.12 142.33 209.8 136.66 210.33 130.94C210.43 129.9 210.29 128.49 209.27 127.91C208.32 127.37 207.52 128.13 207.18 129.02H207.16Z" fill="#1D1D1B"/>
<path d="M189.88 187.51C187.55 191.11 186.47 195.26 185.35 199.36C184.69 201.78 184.19 204.25 183.59 206.7C183.57 206.8 183.31 207.91 183.5 207.05C183.69 206.19 183.44 207.3 183.41 207.4C183.3 207.84 183.18 208.29 183.06 208.73C182.77 209.83 182.46 210.93 182.14 212.02C181.53 214.07 180.87 216.1 180.11 218.1C179.76 219.03 179.38 219.96 178.99 220.88C178.77 221.39 178.54 221.89 178.31 222.39C178.19 222.67 178.11 223.15 178.41 222.18C178.32 222.47 178.11 222.8 177.97 223.07C177.03 224.92 175.97 226.72 174.79 228.44C174.51 228.85 174.22 229.25 173.93 229.64C173.78 229.85 172.83 231.04 173.51 230.21C172.81 231.07 172.07 231.9 171.3 232.69C169.79 234.25 168.14 235.68 166.38 236.95C166.19 237.09 166 237.22 165.8 237.36C166.39 236.95 165.74 237.4 165.59 237.49C164.87 237.97 164.36 238.39 163.79 239C162.33 240.59 161.26 242.24 161.35 244.5C161.43 246.42 162.61 248.52 164.74 248.57C166.04 248.6 167.42 248.07 168.47 247.36C170.48 246.01 172.39 244.55 174.14 242.87C180.61 236.67 184.75 228.5 187.52 220.07C189.14 215.14 190.35 210.09 191.5 205.03C192.65 199.97 193.37 194.7 193.22 189.53C193.19 188.58 192.85 187.34 191.96 186.85C191.14 186.4 190.35 186.75 189.85 187.51H189.88Z" fill="#1D1D1B"/>
<path d="M53.14 62.1901C50.56 66.9501 49.02 72.1701 47.53 77.3701C45.93 82.9601 44.56 88.5101 43.59 94.2501C43.43 95.1701 43.67 96.5101 44.56 97.0101C45.45 97.5101 46.15 96.8101 46.47 96.0001C47.45 93.5301 48.4 91.0801 49.19 88.5401C50.04 85.8501 50.72 83.1101 51.44 80.3801C52.9 74.8301 54.29 69.2401 54.7 63.5001C54.74 62.9901 54.7 62.2901 54.24 61.9401C53.87 61.6601 53.37 61.7601 53.14 62.1801V62.1901Z" fill="#1D1D1B"/>
<path d="M167.77 60.4903C168.71 59.3503 169.05 58.0803 169.54 56.6903C170.07 55.2103 170.51 53.7003 171.04 52.2203C172.05 49.4303 173.31 46.7303 175.05 44.3203C177.89 40.3903 182.55 37.1303 187.57 37.4703C190.36 37.6603 193.09 38.9403 195.6 40.0903C198.38 41.3703 201.06 42.7403 204.06 43.4303C206.36 43.9603 208.74 44.3102 210.94 45.1902C211.43 45.3902 211.92 45.6103 212.38 45.8803C211.65 45.4603 212.86 46.3203 213.04 46.4603C213.7 46.9903 212.91 46.0303 213.04 46.4603C213.1 46.6703 213.37 46.9303 213.48 47.1203C212.75 45.8403 213.72 48.1103 213.23 46.6003C213.55 47.6003 213.3 45.6303 213.27 46.7803C213.27 46.8403 213.24 48.1803 213.29 47.2903C213.34 46.4603 213.18 48.0603 213.15 48.2103C213.02 49.0703 212.84 49.9203 212.66 50.7803C212.47 51.6903 212.27 52.5903 212.05 53.4903C212.27 52.5803 212.08 53.3603 212.03 53.5403C211.87 54.1403 211.71 54.7303 211.54 55.3203C210.5 58.8803 209.2 62.3503 207.66 65.7203C206.7 67.8203 207.16 71.6203 209.11 73.0703C211.27 74.6803 213 73.0203 213.91 71.0103C215.45 67.6403 216.75 64.1703 217.79 60.6103C218.89 56.8303 219.94 52.8903 220.19 48.9403C220.46 44.6903 219.57 40.2503 216.29 37.2903C214.17 35.3803 211.34 34.6202 208.61 34.1002C205.88 33.5802 202.96 32.9602 200.19 32.0302C196.92 30.9402 193.7 29.6403 190.22 29.3903C183.9 28.9303 177.88 32.3803 173.98 37.1603C171.55 40.1303 169.83 43.5703 168.56 47.1803C167.93 48.9803 167.41 50.8202 166.95 52.6702C166.44 54.7002 165.83 56.9803 166.07 59.0603C166.14 59.6603 166.89 61.5403 167.77 60.4803V60.4903Z" fill="#1D1D1B"/>
<path d="M117.35 47.4198C117.96 45.6298 117.91 43.7299 118.06 41.8599C118.21 39.9899 118.33 38.1299 118.57 36.2699C119 32.7999 119.82 29.4299 121.09 26.1699C122.28 23.1199 123.86 20.1899 126.41 18.0699C129.3 15.6699 132.77 15.9599 136.2 16.9299C140.27 18.0899 144.32 19.3699 148.38 20.5899C150.3 21.1699 152.26 21.6599 154.17 22.3099C154.87 22.5499 155.59 22.8099 156.23 23.1899C155.94 23.0199 156.6 23.4899 156.69 23.5499C157.17 23.8899 156.97 23.7899 156.81 23.6099C156.97 23.7999 157.12 24.0099 157.24 24.2299C156.9 23.6199 157.34 24.7599 157.07 23.9099C157.33 24.7299 157.09 23.2799 157.09 24.1499C157.09 25.0199 157.1 24.2099 157.12 24.0399C157.1 24.2399 157.08 24.4299 157.05 24.6299C156.99 25.0899 156.9 25.5399 156.81 25.9999C156.64 26.8699 156.95 25.5299 156.73 26.3799C156.59 26.8999 156.45 27.4099 156.31 27.9299C156.03 28.9499 155.75 29.9699 155.47 30.9899C154.41 34.8599 153.32 38.7199 152.39 42.6199C152.26 43.1599 152.13 43.7099 152 44.2499C151.84 44.9399 152.33 43.0499 152.08 43.9299C152.01 44.1699 151.95 44.4199 151.88 44.6599C151.76 45.0699 151.62 45.4799 151.46 45.8799C151.37 46.1199 151.27 46.3499 151.17 46.5799C150.84 47.3799 151.59 45.8099 151.26 46.3899C149.64 49.2699 147.7 51.9299 145.72 54.5699C144.48 56.2299 144.71 59.0698 145.63 60.7799C146.34 62.0999 148.35 63.4999 149.66 61.8999C151.85 59.2299 154.17 56.5499 155.84 53.4999C157.1 51.1899 157.8 48.8499 158.44 46.3099C158.49 46.0999 158.55 45.8798 158.6 45.6698C158.88 44.5298 158.41 46.3899 158.6 45.6799C158.82 44.8399 159.05 43.9999 159.27 43.1599C159.88 40.8599 160.44 38.5499 161.02 36.2499C162.23 31.4799 164.08 26.4099 163.04 21.4299C162.54 19.0399 161.32 16.6599 159.31 15.1999C157.64 13.9799 155.75 13.3799 153.77 12.8899C149.14 11.7399 144.44 10.7699 139.74 9.92985C135.35 9.14985 131 8.40985 126.93 10.6999C123.53 12.6099 121 15.6499 119.27 19.1199C117.13 23.4199 115.79 28.0499 115.19 32.8099C114.89 35.1799 114.72 37.5899 114.69 39.9699C114.66 42.3499 114.59 45.0899 115.33 47.4699C115.7 48.6499 117.01 48.4898 117.37 47.4198H117.35Z" fill="#1D1D1B"/>
<path d="M151.13 17.4701C152.45 16.9301 153.34 15.0501 154.17 13.9301C155.24 12.5001 156.34 11.1201 157.63 9.88013C158.79 8.76013 160.06 7.65013 161.53 6.96013C163.28 6.14013 165.42 6.25013 167.36 6.67013C169.87 7.22013 172.35 8.31013 174.77 9.17013C177.19 10.0301 179.74 10.8501 182.25 11.6501C184.28 12.3001 186.6 12.6701 188.44 13.7901C188.1 13.5801 188.92 14.1901 189.02 14.2801C189.47 14.6601 188.76 13.8801 189.1 14.3601C189.18 14.4701 189.51 15.1401 189.33 14.6901C189.11 14.1501 189.42 15.4101 189.3 14.6901C189.21 14.1401 189.28 14.7601 189.3 14.8501C189.11 13.8001 189.27 14.4301 189.24 14.7001C189.12 16.0001 189.43 13.6401 189.22 14.9501C189.14 15.4701 189.05 15.9901 188.94 16.5101C188.76 17.3901 188.91 16.6501 188.96 16.4701C188.85 16.8801 188.73 17.2801 188.62 17.6901C188.26 19.0301 187.93 20.3901 187.59 21.7401C186.78 24.9101 185.99 28.0801 185.24 31.2701C184.83 33.0501 185.47 35.8601 187.17 36.8001C188.87 37.7401 190.49 36.4801 191 34.7701C191.83 31.9701 192.6 29.1701 193.37 26.3501C194.14 23.5301 195.12 20.5701 195.45 17.6001C195.82 14.2501 195.55 10.6701 193.58 7.81013C192.08 5.64013 189.73 4.41013 187.24 3.73013C181.63 2.21013 175.81 1.37013 170.06 0.610129C167.32 0.250129 164.55 -0.319871 161.82 0.380129C160.01 0.850129 158.34 2.02013 156.99 3.27013C155.2 4.93013 153.66 6.94013 152.32 8.97013C150.98 11.0001 149.51 13.3701 149.59 15.7601C149.61 16.4901 150.12 17.8701 151.13 17.4601V17.4701Z" fill="#1D1D1B"/>
<path d="M116.66 36.7602C115.38 35.5202 112.87 35.4702 111.17 35.4102C109.09 35.3502 107.01 35.3902 104.94 35.4702C102.99 35.5502 101.05 35.6002 99.0999 35.6402C97.3899 35.6802 94.8799 35.2802 93.5799 36.5902C91.6599 38.5302 91.7199 42.4602 93.7699 44.3002C95.1499 45.5402 97.6099 45.0102 99.3299 44.9402C101.33 44.8602 103.32 44.7702 105.32 44.6502C107.32 44.5302 109.38 44.2502 111.39 43.8402C113.4 43.4302 116.02 42.6202 117.11 40.7502C117.81 39.5302 117.71 37.7602 116.67 36.7502L116.66 36.7602Z" fill="#1D1D1B"/>
<path d="M73.94 35.3699C79.33 32.7999 84.8 36.9799 88.34 40.7399C90.1 42.6099 91.79 44.5599 93.63 46.3599C95.47 48.1599 98.04 49.4499 100.47 49.9699C101.94 50.2799 103.56 50.4399 104.91 49.6599C106.78 48.5799 108.38 47.1799 108.7 44.8999C108.87 43.6799 108.65 42.4099 107.9 41.4199C107.15 40.4299 106.34 40.2699 105.24 40.0399C104.64 39.9099 105.9 40.2399 104.96 39.9699C104.66 39.8799 104.37 39.7799 104.07 39.6999C103.26 39.4899 102.42 39.5399 101.59 39.4199C101.44 39.3999 100.49 39.1599 101.34 39.3799C101.14 39.3299 100.95 39.2799 100.75 39.2299C100.16 39.0599 99.58 38.8399 99.02 38.5799C98.54 38.3599 98.08 38.1099 97.62 37.8499C98.4 38.2799 97.47 37.7499 97.36 37.6799C96.87 37.3699 96.46 37.1499 95.97 36.8999C95.69 36.7599 95.42 36.6199 95.15 36.4699C95.09 36.4399 94.2 35.9199 94.83 36.2999C94.37 36.0199 93.92 35.7199 93.48 35.4199C92.42 34.7199 91.38 34.0099 90.3 33.3399C85.13 30.1199 78.23 28.0099 72.99 32.2999C72.13 33.0099 72.48 36.0499 73.92 35.3599L73.94 35.3699Z" fill="#1D1D1B"/>
<path d="M109.56 50.8199C113.01 48.3999 117.49 50.8499 120.32 53.0699C123.29 55.3999 126.32 58.1699 130.32 58.1999C134.32 58.2299 138.43 55.2099 142.31 57.0399C143.76 57.7299 144.91 59.0099 146.07 60.0999C147.63 61.5599 149.32 62.9499 151.35 63.7199C155.28 65.2099 159.11 63.7999 163.06 63.3199C165.01 63.0799 166.68 63.1199 168.31 63.6799C169.08 63.9499 169.83 64.2899 170.55 64.6799C170.74 64.7799 171.58 65.2799 171.27 65.0899C171.65 65.3299 172.02 65.5799 172.4 65.8299C175.49 67.9399 178.42 70.5299 181.94 71.9099C183.83 72.6499 185.91 72.9999 187.93 72.7099C190.23 72.3699 192.41 71.5499 194.64 70.9299C195.43 70.7099 196.58 70.5099 197.73 70.5399C198.36 70.5599 198.63 70.5999 199.01 70.7299C199.53 70.9099 200.04 71.0699 200.55 71.2799C202.87 72.2599 204.96 73.6599 207.38 74.4199C212.6 76.0799 218.9 75.4499 223.27 71.9799C225.02 70.5899 224.64 65.7599 221.98 65.6499C219.73 65.5599 217.48 65.7399 215.24 65.4999C213.21 65.2799 211.01 64.7299 209 64.0399C204.65 62.5399 200.94 59.3499 196.06 59.9599C193.68 60.2499 191.44 61.1399 189.17 61.8199C188.14 62.1299 187.76 62.2299 186.66 62.3099C186.24 62.3399 185.82 62.3499 185.39 62.3399C185.18 62.3399 184.96 62.3299 184.75 62.3099C184.68 62.3099 183.66 62.1699 184.4 62.2999C182.72 61.9999 181.13 61.2599 179.64 60.4599C179.3 60.2799 178.97 60.0899 178.64 59.8999C178.57 59.8599 177.98 59.5099 178.31 59.6999C178.64 59.8899 178.04 59.5399 177.98 59.4899C177.07 58.9299 176.16 58.3599 175.24 57.8099C172.05 55.8999 168.6 54.4299 164.8 54.8199C161 55.2099 157.05 57.4999 153.11 56.8899C149.51 56.3299 147.21 52.9599 144.11 51.3499C139.98 49.1999 136.08 51.5499 132.05 52.6399C127.43 53.8999 124.17 50.7399 120.53 48.4599C116.89 46.1799 112.02 44.9799 108.38 47.9399C107.32 48.7999 108.05 51.8899 109.57 50.8299L109.56 50.8199Z" fill="#1D1D1B"/>
<path d="M79.0099 31.76C79.2899 27.02 79.0099 22.29 79.1399 17.55C79.1799 15.88 79.2099 13.97 79.8099 12.48C80.4099 10.99 81.8799 10.04 83.5399 9.67003C85.5599 9.22003 87.8399 9.50003 89.8899 9.59003C92.5299 9.70003 95.1599 9.87003 97.8099 9.93003C103.02 10.05 108.25 10.22 113.45 10.57C114.6 10.65 115.92 10.76 116.84 10.99C117.4 11.13 117.95 11.28 118.49 11.48C118.76 11.58 119.03 11.69 119.29 11.8C119.27 11.8 120.28 12.31 119.95 12.12C119.58 11.9 120.22 12.32 120.29 12.37C120.54 12.56 120.76 12.76 121 12.97C121.59 13.47 121.16 13.11 121.03 12.97C121.22 13.2 121.38 13.49 121.57 13.71C121.99 14.19 121.3 12.99 121.52 13.59C121.77 14.26 121.69 14.04 121.56 13.49C121.65 13.86 121.63 14.4 121.56 13.11C121.61 14.19 121.75 11.93 121.56 13.09C121.21 15.29 121.81 18.77 124.2 19.67C126.59 20.57 128.16 17.73 128.47 15.79C129.52 9.27003 125.69 2.75003 119.25 0.990029C116.37 0.200029 113.37 0.120029 110.4 0.0500291C107.43 -0.0199709 104.48 2.9102e-05 101.51 0.120029C95.6799 0.350029 89.6299 0.710029 83.9499 2.17003C81.3999 2.83003 79.1599 3.91003 77.5199 6.04003C75.8799 8.17003 75.2899 10.78 75.1099 13.34C74.6699 19.51 76.0599 25.72 76.6899 31.83C76.7599 32.49 77.0199 33.58 77.8899 33.56C78.7599 33.54 78.9599 32.42 78.9999 31.77L79.0099 31.76Z" fill="#1D1D1B"/>
<path d="M154.48 45.52C154.8 46.48 155.23 47.42 155.88 48.2C156.53 48.98 157.4 49.68 158.21 50.34C159.78 51.6 161.66 52.49 163.5 53.29C164.27 53.63 165.06 53.84 165.88 54.02C166.09 54.07 166.31 54.12 166.52 54.16C167.28 54.31 167.65 54.33 168.4 54.13C169.71 53.79 170.44 52.5 170.75 51.27C171.25 49.28 170.89 46.85 169.25 45.47C168.36 44.73 167.38 44.58 166.32 44.27C165.41 44 164.48 43.83 163.57 43.58C162.39 43.27 161.25 42.85 160.05 42.64L160.82 42.78C159.91 42.61 159.01 42.4 158.11 42.17C157.07 41.91 156.22 42.07 155.23 42.41C154.08 42.81 154.2 44.66 154.48 45.51V45.52Z" fill="#1D1D1B"/>
<path d="M51.8599 20.2901C51.5399 19.6301 51.9099 20.3101 51.8199 20.3501C51.8199 20.3501 51.7499 19.9501 51.7299 19.9201C51.7799 20.5301 51.7999 20.6901 51.7899 20.4001C51.7299 21.0301 51.7199 21.2001 51.7699 20.9101C51.6099 21.4701 51.5799 21.6201 51.6699 21.3601C51.4299 21.8201 51.3799 21.9401 51.5099 21.7201C51.6899 21.4401 50.9899 22.1401 51.4399 21.8001C51.5499 21.7101 51.6899 21.6001 51.7899 21.5001C51.3499 21.9401 51.6399 21.5901 51.8599 21.4801C52.0299 21.3901 52.1999 21.3101 52.3699 21.2301C54.3399 20.3401 55.6699 20.2201 57.9999 19.9701C60.4799 19.7001 62.9999 19.5501 65.4899 19.5201C67.9799 19.4901 71.1399 20.3501 72.8499 18.0601C73.8399 16.7401 73.5099 14.5901 72.7299 13.2901C71.3899 11.0501 68.2799 11.5201 66.0799 11.6401C63.8799 11.7601 61.6099 11.9901 59.4099 12.4401C57.2099 12.8901 55.1499 13.3901 53.1399 14.1901C51.5399 14.8201 49.8699 15.6901 48.8599 17.1301C47.4199 19.1801 47.5599 22.3801 49.5399 24.0301C50.2799 24.6501 51.1799 24.3101 51.6599 23.5601C52.2299 22.6701 52.3099 21.2601 51.8499 20.3101L51.8599 20.2901Z" fill="#1D1D1B"/>
<path d="M230.66 61.7101C231.48 62.4001 232.26 63.1401 232.99 63.9101C233.72 64.6801 234.49 65.4401 235.2 66.2401L234.69 65.6701C235.41 66.4901 236.13 67.3001 236.85 68.1101L236.29 67.4801C236.98 68.2601 237.68 69.0801 238.19 70.0001L237.71 69.1101C237.85 69.3801 237.98 69.6601 238.07 69.9501L237.74 68.8701C237.79 69.0601 237.83 69.2401 237.86 69.4301L237.72 68.2001C237.76 68.7801 237.82 69.3701 237.92 69.9501C238.16 71.2901 239.05 72.8901 240.49 73.1501C241.93 73.4101 242.97 72.1401 243.42 70.9001C244.07 69.1001 243.95 66.9501 243.14 65.2101C242.64 64.1401 242.02 63.3201 241.2 62.4701C240.34 61.5701 239.31 60.7301 238.25 60.0901C237.25 59.4801 236.06 58.8701 234.91 58.6201C233.69 58.3501 232.45 58.1901 231.2 58.1301C230.51 58.1001 230.09 59.0101 230.02 59.5601C229.93 60.2901 230.05 61.2001 230.65 61.7001L230.66 61.7101Z" fill="#1D1D1B"/>
</g>
<defs>
<clipPath id="clip0_3416_10581">
<rect width="291.4" height="272.74" fill="white"/>
</clipPath>
</defs>
</svg>
