<svg width="294" height="255" viewBox="0 0 294 255" fill="none" xmlns="http://www.w3.org/2000/svg">
<g clip-path="url(#clip0_3416_10625)">
<path d="M78.9401 153.94C60.5801 149.86 38.9201 152.46 21.9001 163.25C-5.8599 180.85 -7.7699 210.65 19.2901 225.43C58.5901 246.89 103.75 256.15 148.79 254.42C192.73 252.73 250.19 244.7 284.95 209.2C302.78 190.99 291.13 176.16 274.11 167.84C264.38 163.08 253.61 160.67 242.59 160.88" fill="#1D1D1B"/>
<path d="M64.0102 108.19C59.7402 100.53 54.1702 93.7402 49.0402 86.6602C44.3902 80.2402 39.7902 73.4102 37.7102 65.9302C37.2602 64.3102 36.8902 62.6602 36.6302 61.0002C36.5702 60.6502 36.5302 60.3002 36.4802 59.9502C36.4702 59.8702 36.4002 59.2502 36.4402 59.6202C36.4802 59.9902 36.4202 59.3702 36.4102 59.2902C36.3402 58.5202 36.2902 57.7502 36.2702 56.9802C36.2502 56.2802 36.2502 55.5702 36.2702 54.8702C36.2702 54.7002 36.3402 53.6402 36.2902 54.3302C36.3202 53.9202 36.3602 53.5202 36.4002 53.1102C36.5502 51.7402 36.7902 50.3902 37.1102 49.0502C36.9502 49.7002 37.2102 48.6802 37.2502 48.5602C37.3502 48.2302 37.4502 47.9002 37.5502 47.5702C37.7602 46.9202 37.9902 46.2702 38.2502 45.6302C38.3602 45.3502 38.4802 45.0702 38.5902 44.8002C38.6602 44.6402 38.7302 44.4902 38.8002 44.3302C38.8302 44.2602 39.0602 43.7702 38.9102 44.0802C38.8002 44.3002 39.1402 43.6202 39.2002 43.4902C39.3702 43.1502 39.5602 42.8102 39.7402 42.4702C40.4102 41.2702 41.1502 40.1102 41.9502 39.0002C42.3302 38.4702 42.7202 37.9502 43.1302 37.4502C42.8402 37.8102 43.4702 37.0402 43.5302 36.9802C43.7602 36.7102 43.9902 36.4502 44.2202 36.1902C52.1902 27.3002 63.2602 21.9602 74.5702 18.2002C80.6602 16.1802 86.3602 14.7902 92.5502 13.7102C100.58 12.3202 108.74 11.6902 116.86 11.1702C127.19 10.5102 137.52 10.1002 147.87 9.87019C158.22 9.64019 168.54 9.35019 178.86 9.53019C184.09 9.62019 189.3 9.95019 194.49 10.6002C195.06 10.6702 195.62 10.7502 196.19 10.8302C196.34 10.8502 197.36 11.0202 196.87 10.9302C197.8 11.1102 198.72 11.3302 199.63 11.6002C201.31 12.0902 202.88 12.7702 204.43 13.5602C205.02 13.8602 204.64 13.6702 204.51 13.5902C204.69 13.7002 204.87 13.8202 205.05 13.9402C205.4 14.1802 205.73 14.4302 206.06 14.6902C206.34 14.9202 206.6 15.1602 206.86 15.4102C206.95 15.4902 207.39 15.9702 207.05 15.5902C206.7 15.1902 207.23 15.8302 207.29 15.9102C207.49 16.1802 208 17.1702 207.55 16.2002C207.69 16.5102 207.8 16.8402 207.95 17.1402C208.2 17.6402 207.87 16.3102 207.86 16.8602C207.86 16.9902 207.92 17.1702 207.95 17.3002C208.15 18.1702 207.85 16.9702 207.91 16.9602C207.91 17.1202 207.92 17.2702 207.92 17.4302C207.92 17.7902 207.93 17.6402 207.96 16.9802C208.13 17.0802 207.52 18.3802 207.87 17.6602C208.17 17.0602 207.67 18.0902 207.61 18.2602C207.95 17.3402 207.51 18.3702 207.33 18.6502C207.21 18.8202 207.09 18.9902 206.97 19.1602C207.29 18.7402 207.1 19.0102 206.86 19.2502C205.45 20.6202 204.85 20.9902 203.11 21.8202C201.46 22.6102 199.72 23.2002 197.94 23.6402C198.13 23.5902 198.58 23.5002 197.72 23.6902C197.43 23.7502 197.13 23.8102 196.84 23.8702C196.33 23.9702 195.82 24.0702 195.3 24.1702C194.06 24.4002 192.81 24.6002 191.56 24.7702C187.04 25.3902 182.48 25.6102 177.92 25.6902C168.62 25.8602 159.35 24.8702 150.16 23.5802C131.72 20.9902 113.19 17.0602 94.4702 18.4302C86.2502 19.0302 77.8802 20.4302 70.7402 24.7802C63.6002 29.1302 58.3902 35.0802 55.7402 42.7202C52.8202 51.1502 53.3602 60.7602 56.9402 68.9102C60.1902 76.3002 65.6202 82.4102 71.5202 87.8102C74.2602 90.3102 77.1202 92.6802 79.9802 95.0402C81.9102 96.6302 84.1102 95.0302 84.7802 92.9802C85.5302 90.6702 85.3602 87.3002 83.3302 85.6302C80.3702 83.2002 77.4202 80.7502 74.6002 78.1602C73.1802 76.8502 71.7902 75.5102 70.4602 74.1102C70.1302 73.7602 69.8002 73.4102 69.4802 73.0602C68.9302 72.4602 69.4002 72.9602 69.5002 73.0802C69.3402 72.9002 69.1902 72.7202 69.0302 72.5402C68.4102 71.8202 67.8102 71.0802 67.2302 70.3302C66.0902 68.8402 65.0202 67.2902 64.0802 65.6602C63.9802 65.4802 63.8102 65.2502 63.7402 65.0502C64.1002 65.9902 63.9502 65.4502 63.8302 65.2102C63.6202 64.7902 63.4102 64.3802 63.2202 63.9602C62.8302 63.1202 62.4702 62.2602 62.1502 61.3802C62.0002 60.9702 61.7602 60.4902 61.7002 60.0502C61.8702 61.4302 61.7002 60.0002 61.6202 59.6302C61.3902 58.7002 61.2302 57.7702 61.0802 56.8302C60.9302 55.8902 61.1102 57.0502 61.1102 57.1802C61.1102 56.9502 61.0602 56.6902 61.0402 56.4502C61.0002 55.9602 60.9802 55.4602 60.9602 54.9702C60.9402 54.4802 60.9502 53.9602 60.9602 53.4602C60.9602 53.2302 61.0302 52.9002 60.9902 52.6902C61.0502 53.0002 60.9102 53.6902 60.9902 52.9602C61.0902 52.0002 61.2102 51.0502 61.4002 50.1102C61.4402 49.9202 61.5602 49.5902 61.5502 49.4202C61.5502 49.5302 61.2202 50.5802 61.4802 49.7002C61.6302 49.2002 61.7702 48.7002 61.9402 48.2002C62.1802 47.5002 62.4102 46.3702 62.8902 45.8002C62.8202 45.8802 62.4002 46.7602 62.8002 45.9802C62.9002 45.7802 63.0102 45.5702 63.1102 45.3702C63.3502 44.9202 63.6002 44.4802 63.8702 44.0402C64.3102 43.3102 64.7902 42.6102 65.2902 41.9302C65.4602 41.7002 66.3102 40.7202 65.6502 41.4602C65.9902 41.0802 66.3202 40.6902 66.6602 40.3102C67.9002 38.9702 69.2602 37.7502 70.7102 36.6402C71.0302 36.4002 71.3502 36.1602 71.6802 35.9302C72.2902 35.4902 71.8302 35.8202 71.7002 35.9102C71.8902 35.7802 72.0802 35.6602 72.2802 35.5302C73.1102 35.0002 73.9602 34.5102 74.8302 34.0502C76.4702 33.1802 78.1802 32.4402 79.9302 31.8302C80.7502 31.5402 81.5902 31.2802 82.4302 31.0502C82.8802 30.9302 83.3302 30.8102 83.7802 30.7002C83.6302 30.7402 83.1502 30.8202 83.8602 30.6902C84.1602 30.6302 84.4602 30.5702 84.7602 30.5102C87.1002 30.0702 89.4702 29.7402 91.8402 29.4902C110.82 27.5302 129.71 31.3902 148.42 34.1002C157.83 35.4702 167.32 36.5702 176.85 36.5102C181.57 36.4802 186.26 36.0302 190.92 35.2102C195.24 34.4502 199.75 33.5702 203.76 31.7102C207.21 30.1102 210.7 27.6002 212.46 24.1302C214.75 19.5902 214.62 14.2202 212 9.84019C207.67 2.63019 197.93 1.19019 190.35 0.520191C179.92 -0.399809 169.41 0.0901913 158.97 0.360191C148.53 0.630191 137.95 0.950191 127.45 1.57019C111.28 2.53019 94.9702 4.08019 79.3902 8.74019C67.3402 12.3502 55.2502 17.7102 45.8502 26.2502C36.4502 34.7902 31.3302 45.8702 32.2502 58.2302C32.8102 65.7702 35.2602 73.1102 39.0202 79.6502C43.4502 87.3602 49.4802 94.0802 55.3102 100.75C57.9402 103.76 60.5202 106.83 62.8002 110.13C63.1502 110.63 63.7202 110.58 64.0502 110.1C64.4402 109.54 64.3102 108.75 64.0002 108.19H64.0102Z" fill="#1D1D1B"/>
<path d="M42.62 189.24C40.34 184.91 40.37 179.56 40.68 174.8C40.99 170.04 41.63 164.96 42.64 160.14C43.49 156.06 44.62 152.11 46.13 147.99C46.85 146.03 47.63 144.09 48.48 142.17C49.27 140.39 49.92 138.97 50.92 137C52.83 133.26 54.99 129.65 57.36 126.19C58.56 124.44 59.82 122.73 61.13 121.05C61.87 120.11 61.78 120.21 62.55 119.29C63.32 118.37 64.02 117.55 64.77 116.69C70.35 110.31 76.67 104.6 83.51 99.5904C84.32 99.0004 85.13 98.4204 85.96 97.8404C86.1 97.7404 87.12 97.0404 86.71 97.3204C87.23 96.9604 87.76 96.6104 88.29 96.2704C90.06 95.1104 91.86 94.0004 93.69 92.9304C97.45 90.7304 101.33 88.7104 105.29 86.8904C113.1 83.3004 121.31 80.4704 129.66 78.4504C129.84 78.4104 131.12 78.1104 130.52 78.2404C131.04 78.1204 131.56 78.0104 132.08 77.8904C133.23 77.6404 134.38 77.4104 135.53 77.1904C137.63 76.7904 139.73 76.4404 141.85 76.1404C146.06 75.5404 150.31 75.1104 154.56 74.9404C163.13 74.6004 171.62 74.6904 180.13 75.9004C181.16 76.0504 182.2 76.2104 183.23 76.3804C183.44 76.4104 183.64 76.4504 183.85 76.4904C184.89 76.6704 183.07 76.3104 184.27 76.5704C184.95 76.7204 185.63 76.8604 186.31 77.0204C188.8 77.6104 191.26 78.3404 193.67 79.2004C196.08 80.0604 198.26 80.9804 200.48 82.0504C201.58 82.5804 202.67 83.1404 203.75 83.7204C204.23 83.9804 204.71 84.2504 205.19 84.5204C205.45 84.6704 205.72 84.8304 205.98 84.9804C206.05 85.0204 207.08 85.6604 206.32 85.1804C210.51 87.8104 214.45 90.7804 218.11 94.1004C219.97 95.7904 221.75 97.5704 223.45 99.4104C223.62 99.5904 223.78 99.7704 223.95 99.9504C224.8 100.87 223.29 99.1804 224.11 100.13C224.47 100.55 224.84 100.96 225.19 101.39C226.03 102.38 226.84 103.38 227.64 104.4C230.73 108.37 233.5 112.58 235.96 116.96C236.11 117.23 236.26 117.51 236.41 117.78C236.88 118.63 236.34 117.62 236.27 117.51C236.63 118.08 236.91 118.72 237.22 119.32C237.99 120.82 238.72 122.34 239.41 123.87C240.65 126.62 241.78 129.42 242.81 132.26C243.29 133.6 243.75 134.94 244.2 136.29C244.43 137 244.65 137.71 244.88 138.43C245.17 139.34 244.44 136.94 244.86 138.37C244.99 138.8 245.11 139.23 245.24 139.66C246.07 142.53 246.82 145.41 247.52 148.31C248.98 154.35 250.33 160.45 251.5 166.56C251.78 168.04 252.03 169.53 252.23 171.03C252.3 171.54 252.21 172.56 252.23 170.87C252.23 171.17 252.29 171.51 252.32 171.82C252.4 172.77 252.44 173.71 252.48 174.66C252.51 175.45 252.54 176.23 252.53 177.02C252.53 177.33 252.51 177.65 252.51 177.96C252.51 179.59 252.69 176.45 252.51 178.08C252.36 179.41 252.2 180.73 251.91 182.04C251.86 182.27 251.8 182.5 251.75 182.72C251.59 183.47 252.22 181.1 251.9 182.12C251.71 182.72 251.22 184.9 251.56 183.41C251.82 182.28 251.59 183.21 251.53 183.43C251.29 184.28 251.01 185.13 250.7 185.95C250.55 186.35 250.38 186.74 250.21 187.13C250.06 187.46 249.63 188.34 250.35 186.85L250.07 187.44C249.67 188.28 249.69 188.23 250.13 187.31C249.9 187.47 249.64 188.1 249.48 188.34C249.22 188.74 248.94 189.14 248.65 189.52C248.55 189.65 248.45 189.77 248.36 189.9C247.85 190.6 248.97 189.22 248.56 189.65C248.32 189.91 248.1 190.19 247.86 190.45C247.28 191.09 246.66 191.69 246.01 192.26C245.45 192.75 244.87 193.22 244.27 193.66C243.89 193.94 243.29 194.35 244.05 193.84L243.21 194.41C243.72 194.08 243.8 194.02 243.45 194.23C243.24 194.33 243.04 194.47 242.84 194.58C239.95 196.2 236.81 197.32 233.61 198.11C233.4 198.16 233.2 198.21 232.99 198.26C233.87 198.05 233.37 198.17 233.18 198.21C232.76 198.3 232.34 198.39 231.92 198.47C230.98 198.65 230.03 198.81 229.08 198.94C227.31 199.19 225.53 199.37 223.74 199.5C220.07 199.75 216.38 199.77 212.7 199.66C205.49 199.44 198.31 198.57 191.14 197.78C181.71 196.74 172.24 196.24 162.77 195.57C149.38 194.62 136 193.57 122.6 192.68C109.2 191.79 95.83 191.19 82.44 190.69C76.67 190.47 70.87 190.15 65.09 190.23C60.82 190.28 56.49 190.47 52.25 189.88C52.04 189.85 51.84 189.82 51.63 189.79C50.65 189.65 52.16 189.97 51.58 189.78C51.15 189.64 50.68 189.58 50.24 189.47C49.3 189.22 48.36 188.9 47.47 188.49C47.04 188.29 46.63 188.04 46.21 187.83C47.19 188.31 45.98 187.64 45.71 187.43C45.58 187.33 44.64 186.53 44.68 186.49C44.7 186.47 45.38 187.35 44.86 186.69C44.68 186.46 44.5 186.24 44.35 185.99C43.08 184.02 40.51 184.1 39.34 186.11C38 188.4 38.09 191.52 39.53 193.74C44.99 202.21 55.65 202.2 64.66 202.13C70.52 202.08 76.39 202.43 82.24 202.69C89.18 203 96.12 203.36 103.06 203.76C116.78 204.55 130.49 205.39 144.21 206.16C157.93 206.93 170.26 207.48 183.28 208.27C197.64 209.14 212.01 211.54 226.42 210.1C233.55 209.39 240.77 207.7 246.89 203.83C250.15 201.76 252.87 199.26 255.12 196.1C255.34 195.79 256.25 194.7 255.19 195.85C255.68 195.32 256.08 194.74 256.47 194.13C256.95 193.38 257.39 192.6 257.79 191.8C259.03 189.31 259.82 186.85 260.45 184.15C262.12 176.92 261.4 169.42 260.01 162.22C258.8 155.98 257.35 149.78 255.73 143.64C252.43 131.11 248.09 118.97 241.51 107.75C231.06 89.9304 214.95 74.7404 195.02 68.3304C186.02 65.4404 176.31 64.2604 166.88 63.9404C157.97 63.6404 149.13 64.3804 140.37 66.0104C122.7 69.2904 105.56 75.7104 90.31 85.2504C82.73 89.9904 75.58 95.4404 69.15 101.67C62.72 107.9 57.37 114.38 52.46 122.31C42.33 138.64 37.33 157.75 37.73 176.96C37.83 181.77 38.39 186.84 41.35 190.81C42.25 192.01 43.11 190.03 42.66 189.19L42.62 189.24Z" fill="#1D1D1B"/>
<path d="M150.8 69.4104C150.58 64.8904 149.64 60.4404 149.29 55.9304C149.14 54.0304 149.04 52.2704 150.1 50.6104C151.35 48.6604 153.45 47.5304 155.6 46.8004C160.06 45.3004 165.38 45.2904 169.22 48.3104C170.71 49.4804 171.94 50.9904 172.52 52.7904C173.19 54.8704 172.98 56.6604 172.54 58.8304C172.34 59.8204 172 60.9404 171.69 62.0304C171.24 63.6204 170.5 65.2404 170.49 66.9104C170.48 68.1004 170.71 70.0904 172.03 70.6304C173.6 71.2804 174.69 69.3804 175.17 68.2404C177.27 63.1604 178.48 57.1004 177.13 51.6704C175.97 46.9904 172.87 43.0004 168.38 41.1004C163.89 39.2004 158.04 39.7104 153.5 41.6804C150.99 42.7704 148.73 44.5404 147.34 46.9204C145.95 49.3004 145.52 52.0904 145.69 54.9004C145.99 60.0204 147.57 64.9403 148.17 70.0203C148.25 70.7403 148.89 71.6304 149.69 71.4604C150.49 71.2904 150.85 70.1504 150.81 69.4104H150.8Z" fill="#1D1D1B"/>
<path d="M77.52 105.8C82.44 108.31 87.4101 110.58 92.5801 112.52C97.7501 114.46 102.86 116.08 108.13 117.51C118.69 120.37 129.45 122.56 140.29 124.01C151.13 125.46 161.32 126.12 171.87 126.45C182.42 126.78 192.36 126.6 202.51 125.34C208.2 124.63 213.84 123.55 219.37 122.05C222.12 121.3 224.87 120.49 227.59 119.64C228.94 119.21 230.3 118.78 231.63 118.3C233.25 117.71 234.53 116.94 235.83 115.81C237.24 114.59 237.58 111.99 237.17 110.27C236.86 108.97 235.77 106.44 234 106.77C232.6 107.03 231.42 107.35 230.16 108.02C229 108.64 227.84 109.26 226.65 109.84C224.38 110.96 222.04 111.96 219.64 112.74C215.02 114.25 210.3 115.4 205.52 116.25C195.58 118.02 185.49 118.58 175.41 118.57C154.37 118.53 133.29 116.66 112.76 111.95C106.88 110.6 101.05 109.03 95.2501 107.4C89.4501 105.77 83.7701 104.11 78.0701 102.35C76.3301 101.81 76.2601 105.19 77.5301 105.84L77.52 105.8Z" fill="#1D1D1B"/>
<path d="M235.52 107.92C240.73 105.29 245.21 101.08 248.93 96.64C251.02 94.15 253 91.56 254.78 88.84C255.55 87.66 256.28 86.46 256.95 85.23C257.71 83.84 258.73 82.09 258.85 80.47C258.93 79.34 258.87 78.07 258.03 77.2C257.39 76.53 256.49 76.33 255.75 77.01C254.77 77.9 254.28 79.46 253.73 80.57C253.09 81.85 252.4 83.11 251.66 84.34C250.08 87 248.32 89.55 246.43 92C242.88 96.62 239.03 101.11 234.6 104.93C233.79 105.63 234.1 108.63 235.51 107.92H235.52Z" fill="#1D1D1B"/>
<path d="M279.32 88.1901C280.95 85.9801 279.83 82.9801 278.59 80.8801C277.19 78.5201 275.24 76.5101 272.88 75.1201C268.83 72.7401 263.51 72.2901 259.11 74.0101C256.76 74.9301 255.05 76.7501 254.51 79.2401C253.97 81.7301 254.48 84.4701 255.89 86.5701C258.18 89.9801 262.64 91.0401 266.45 91.6301C268.55 91.9501 270.73 92.1601 272.85 92.0401C275.81 91.8801 278.9 91.4601 280.2 88.4101C280.62 87.4301 280.48 86.0201 279.97 85.1201C279.59 84.4501 278.76 83.6401 277.9 84.1101C276.87 84.6801 276.17 84.7501 274.99 84.7701C274.41 84.7701 273.83 84.8201 273.25 84.8401C271.78 84.9001 270.31 84.9801 268.84 84.9901C265.65 84.9901 262.81 84.8801 260.06 83.2601C260.5 83.5201 259.95 83.1801 259.9 83.1401C259.77 83.0401 259.64 82.9501 259.51 82.8501C259.38 82.7501 258.78 82.1601 258.97 82.3701C259.16 82.5801 258.66 81.9301 258.57 81.7901C258.36 81.4801 258.79 82.4201 258.6 81.8401C258.54 81.6601 258.46 81.4801 258.39 81.3001C258.68 82.0801 258.45 81.4801 258.43 81.2801C258.34 80.6001 258.39 81.8401 258.43 81.3901C258.45 81.2201 258.42 81.0101 258.41 80.8401L258.39 81.2101C258.44 80.9401 258.44 80.9201 258.38 81.1501L258.34 81.3101C258.38 81.1701 258.43 81.0401 258.48 80.9101C258.15 81.4601 258.45 80.9701 258.53 80.9001C258.82 80.6201 258.12 81.2901 258.6 80.8101C258.75 80.6601 258.91 80.5101 259.08 80.3701C259.5 80.0201 260.19 79.6801 260.95 79.3901C261.75 79.0901 262.49 78.9001 263.3 78.7601C264.91 78.5001 266.59 78.4101 268.2 78.7001C270.73 79.1501 273.12 80.4001 275.03 82.1101C275.75 82.7501 276.4 83.4601 276.95 84.2501C277.21 84.6301 277.77 85.4901 277.63 85.7201C277.22 86.4401 277.18 87.5201 277.69 88.2101C278.2 88.9001 278.86 88.8001 279.33 88.1701L279.32 88.1901Z" fill="#1D1D1B"/>
<path d="M276.78 88.29C275.42 97.09 274.21 105.89 271.48 114.4C268.75 122.91 265.12 131.09 260.78 138.9C259.58 141.05 258.34 143.18 257.06 145.28C255.78 147.38 253.46 149.9 254.34 152.55C254.68 153.57 255.55 154.16 256.57 153.61C257.67 153.01 258.38 151.28 259.02 150.25C260.29 148.22 261.53 146.16 262.73 144.09C267.27 136.22 271.33 127.94 274.06 119.26C277.15 109.43 279.23 98.96 278.53 88.62C278.44 87.34 277.02 86.72 276.78 88.3V88.29Z" fill="#1D1D1B"/>
</g>
<defs>
<clipPath id="clip0_3416_10625">
<rect width="293.87" height="254.61" fill="white"/>
</clipPath>
</defs>
</svg>
