<svg width="244" height="295" viewBox="0 0 244 295" fill="none" xmlns="http://www.w3.org/2000/svg">
<g clip-path="url(#clip0_3416_10361)">
<path d="M4.96994 72.6002C4.34994 73.9402 4.39994 73.4802 4.73994 73.1102C4.92994 72.9002 5.10994 72.6802 5.29994 72.4702C5.95994 71.7302 6.63994 71.0102 7.30994 70.2802C9.57994 67.8502 11.8699 65.4402 14.1599 63.0402C20.6299 56.2602 27.1299 49.5102 33.6399 42.7602C39.2899 36.9002 44.9399 31.0602 50.5999 25.2102C51.8299 23.9402 53.0799 22.6902 54.2899 21.4002C54.6999 20.9702 54.1599 21.7402 53.8799 21.7802C54.0499 21.7602 54.3399 21.4702 54.4799 21.3702C55.7899 20.5102 57.1499 19.7202 58.5299 18.9802C63.9099 16.0802 69.6699 13.8402 75.6299 12.4702C81.5899 11.1002 87.1399 10.8602 92.9999 10.8302C103.18 10.7702 113.35 10.8902 123.53 11.0202C135.45 11.1602 147.37 11.3502 159.29 11.5202C167.98 11.6502 176.67 11.8102 185.36 11.8402C188.62 11.8502 191.75 12.0102 194.97 12.6002C200.15 13.5602 205.26 14.9702 210.31 16.4602C218.71 18.9402 227.5 21.9402 235.95 25.0302C236.46 25.2202 236.96 25.4002 237.47 25.5902L236.05 17.6602C235.84 18.6902 235.57 19.7202 235.29 20.7302C234.99 21.8302 234.67 22.9202 234.33 24.0102C234.24 24.3102 234.14 24.6102 234.04 24.9102C233.99 25.0602 233.58 26.3002 233.83 25.5402C234.08 24.7802 233.68 25.9502 233.63 26.1002C233.48 26.5302 233.32 26.9502 233.17 27.3702C231.95 30.6402 230.54 33.8502 228.87 36.9202C228.78 37.0902 228.16 38.1702 228.56 37.4902C228.31 37.9102 228.06 38.3302 227.81 38.7502C227.3 39.5902 226.76 40.4102 226.2 41.2102C225.11 42.7702 223.93 44.2602 222.63 45.6502C222.34 45.9602 222.04 46.2702 221.73 46.5802C221.7 46.6102 221.31 46.9702 221.6 46.7002C221.44 46.8502 221.29 46.9902 221.13 47.1302C220.2 47.9602 219.22 48.7402 218.25 49.5402C216.22 51.2202 214.18 52.8902 212.13 54.5502C208.27 57.6702 204.38 60.7502 200.39 63.7002C197.66 65.7202 194.89 67.7902 191.89 69.4002C191.44 69.6402 190.99 69.8502 190.53 70.0502C190.07 70.2502 190.11 70.1302 190.59 70.0502C190.49 70.0702 190.39 70.1102 190.29 70.1202C189.75 70.2202 189.21 70.3202 188.66 70.4002C178.26 71.8902 167.67 72.3702 157.2 73.1102C152.19 73.4702 147.14 74.0402 142.12 74.0402H50.4999C49.6499 74.0402 48.9299 74.0702 48.0999 74.2102C40.3399 75.4902 32.4499 76.3102 24.5799 76.3602C19.9799 76.3902 15.2499 76.2002 10.7699 75.0402C10.5399 74.9802 10.3199 74.9202 10.0999 74.8602C9.66994 74.7402 10.1799 74.8902 10.2399 74.9102C10.1299 74.8802 10.0299 74.8402 9.91994 74.8102C9.45994 74.6502 8.99994 74.4902 8.54994 74.3002C7.74994 73.9702 6.96994 73.5702 6.24994 73.0902C5.92994 72.8702 5.63994 72.6202 5.32994 72.3902C4.78994 71.9702 5.68994 72.8302 5.41994 72.4802C5.28994 72.3102 5.12994 72.1702 4.98994 72.0002C4.87994 71.8702 4.78994 71.7302 4.68994 71.6002C4.26994 71.0502 4.81994 71.5802 4.83994 71.9102C4.83994 71.7802 4.64994 71.5202 4.58994 71.4002C4.15994 70.5802 4.82994 72.3802 4.72994 71.8402C4.67994 71.5802 4.49994 70.7702 4.69994 71.8602C4.89994 72.9502 4.75994 72.1602 4.73994 71.9102C4.72994 71.8002 4.77994 73.6902 4.79994 72.5902C4.80994 71.8502 4.59994 74.3002 4.75994 73.3002C4.78994 73.1002 4.82994 72.8902 4.84994 72.6902C4.71994 74.3602 4.63994 73.7102 4.77994 73.1902C4.83994 72.9702 4.92994 72.7502 4.96994 72.5302C4.69994 73.9802 4.78994 73.0502 4.96994 72.5902C5.89994 70.2802 6.01994 67.2502 4.96994 64.9502C4.11994 63.1002 2.42994 62.9002 1.60994 64.9502C-0.45006 70.0902 -1.09006 77.5602 3.10994 81.8802C6.04994 84.9002 10.3699 85.9602 14.4099 86.5602C23.7199 87.9302 33.4399 87.0202 42.7199 85.8002C44.8299 85.5202 46.9599 85.0402 49.0699 84.8502C50.2299 84.7402 51.4599 84.8502 52.6199 84.8502C60.9799 84.8502 69.3499 84.8502 77.7099 84.8502H138.68C142.48 84.8502 146.19 84.6802 149.99 84.4302C161.2 83.6702 172.42 82.9302 183.6 81.8002C187.06 81.4502 190.54 81.3102 193.62 79.5602C196.7 77.8102 199.69 75.5902 202.57 73.4302C206.67 70.3602 210.68 67.1702 214.65 63.9402C218.62 60.7102 222.44 57.9102 225.69 54.2502C228.36 51.2402 230.5 47.8102 232.4 44.2702C235.48 38.5302 237.76 32.3002 239.45 26.0202C239.71 25.0602 239.96 24.0902 240.17 23.1102C240.5 21.5002 240.59 19.9302 240.29 18.3002C240.12 17.4002 239.78 15.5602 238.75 15.1702C232.23 12.7202 225.63 10.4602 218.99 8.33017C213.49 6.56017 207.95 4.87017 202.35 3.44017C197.99 2.33017 193.47 1.19017 188.96 1.03017C181.68 0.780169 174.37 0.920169 167.08 0.820169C155.38 0.650169 143.68 0.470169 131.98 0.310169C120.91 0.170169 109.82 0.0301693 98.7399 0.0201693C94.6599 0.0201693 90.5599 -0.0498307 86.4799 0.150169C78.8299 0.530169 71.2599 2.42017 64.1799 5.32017C60.3499 6.89017 56.5799 8.74017 53.1199 11.0402C52.1599 11.6802 51.3799 12.6102 50.5799 13.4402C45.7299 18.4402 40.8899 23.4502 36.0599 28.4602C29.3299 35.4302 22.6099 42.4102 15.9099 49.4002C11.5099 54.0002 7.01994 58.5302 2.78994 63.2902C2.30994 63.8302 1.91994 64.3002 1.60994 64.9802C0.58994 67.2002 0.58994 70.4002 1.60994 72.6202C1.91994 73.2902 2.43994 74.2002 3.28994 74.2002C4.13994 74.2002 4.67994 73.2602 4.96994 72.6202V72.6002Z" fill="black"/>
<path d="M45.3 69.7604C46.98 68.1904 48.38 66.4404 49.96 64.7604C51.54 63.0804 53.37 61.3904 55.17 59.8204C58.72 56.7104 62.62 54.0804 66.7 51.7104C75.78 46.4204 85.67 41.9304 95.83 39.2304C101.4 37.7504 107.12 37.2004 112.85 36.8004C118.58 36.4004 124.86 36.0004 130.87 35.6104C142.57 34.8404 154.27 33.9004 166 33.7104C178.77 33.5104 191.64 34.2704 204 37.6904C206.28 38.3204 207.76 36.0604 208.02 34.0404C208.25 32.2104 207.87 28.4204 205.53 27.8404C182.26 22.0704 158.18 24.9404 134.62 26.9704C128.43 27.5004 122.24 28.0404 116.05 28.5704C109.86 29.1004 103.9 29.6804 97.94 31.1504C92.34 32.5304 87 34.6404 81.73 36.9604C76.99 39.0504 72.31 41.2704 67.79 43.8104C62.83 46.6004 58.06 49.8204 53.8 53.5904C49.54 57.3604 45.48 62.0104 43.67 67.4304C43.4 68.2604 43.97 70.9904 45.29 69.7604H45.3Z" fill="black"/>
<path d="M229.38 42.0603C229.02 42.8703 228.7 43.5803 228.16 44.2803C227.66 44.9203 227.44 45.1903 226.8 45.9203C225.35 47.6103 224.37 49.5703 223.24 51.4903C221.16 55.0403 218.86 58.4403 216.36 61.7103C215.74 62.5303 215.11 63.3403 214.47 64.1403C214.15 64.5403 213.83 64.9403 213.51 65.3503C213.37 65.5203 213.23 65.6903 213.1 65.8703C212.6 66.4903 213.17 65.7903 212.87 66.1603C211.58 67.7403 210.28 69.3103 208.98 70.8803C206.51 73.8503 204.03 76.8303 201.48 79.7303C196.4 85.5003 191.1 91.1703 184.84 95.6803C184.62 95.8403 183.61 96.5403 184.32 96.0603C183.92 96.3303 183.52 96.5903 183.12 96.8403C182.31 97.3503 181.49 97.8503 180.65 98.3203C178.8 99.3603 176.88 100.28 174.91 101.09C172.94 101.9 170.92 102.58 168.87 103.18C167.92 103.46 166.96 103.71 166 103.95C165.78 104 165.56 104.06 165.33 104.11C165.96 103.96 165.21 104.14 165.13 104.16C164.53 104.29 163.94 104.42 163.34 104.54C154.46 106.31 145.39 106.85 136.38 107.41C127.37 107.97 118.43 108.48 109.45 108.74C100.47 109 91.34 108.98 82.3 108.47C77.84 108.22 73.38 107.85 68.94 107.34C66.72 107.09 64.51 106.79 62.3 106.46C61.2 106.29 60.09 106.12 58.99 105.93C58.75 105.89 58.52 105.85 58.28 105.81C58.28 105.81 57.51 105.67 57.94 105.75C58.43 105.84 57.46 105.66 57.37 105.64C57.06 105.58 56.74 105.52 56.43 105.46C48.4 103.91 40.22 101.93 33.02 97.9103C32.65 97.7003 32.28 97.4903 31.92 97.2703C32.82 97.8103 31.62 97.0603 31.4 96.9203C30.51 96.3303 29.65 95.7103 28.82 95.0403C27.26 93.8003 25.85 92.4203 24.47 90.9903C24.39 90.9103 23.9 90.3803 24.37 90.8903C24.88 91.4303 24.26 90.7603 24.14 90.6203C23.86 90.3003 23.59 89.9703 23.32 89.6403C22.64 88.8203 21.99 87.9803 21.36 87.1203C20.17 85.5203 19.05 83.8603 17.96 82.1903C16.87 80.5203 15.82 78.8203 14.76 77.1203C13.18 74.5703 9.83002 74.7403 8.36002 77.2803C6.62002 80.2503 6.81002 84.1403 8.60002 87.0403C13.05 94.2203 17.73 101.57 24.38 106.93C31.03 112.29 39.13 115.29 47.33 117.29C65.47 121.7 84.18 122.81 102.79 122.46C112.02 122.28 121.24 121.77 130.46 121.15C139.68 120.53 149.15 120.02 158.39 118.57C167.63 117.12 176.02 114.97 183.75 110.42C190.81 106.27 196.97 100.73 202.37 94.5903C207.77 88.4503 213.02 81.2903 218.04 74.4603C220.59 70.9903 223.04 67.4503 225.42 63.8503C227.8 60.2503 230.59 56.2503 231.68 52.0003C232.26 49.7303 232.76 47.6803 233.47 45.5103C233.97 43.9903 233.85 41.8003 232.52 40.7103C231.19 39.6203 229.94 40.8003 229.39 42.0503L229.38 42.0603Z" fill="black"/>
<path d="M97.61 119.78L97.33 118.89L97.48 120.23C97.73 118.97 97.61 117.93 97.21 116.71C96.51 114.58 94.29 114.94 93.59 116.8C93.04 118.25 93.04 119.93 92.94 121.46C92.83 123.08 92.73 124.69 92.68 126.31C92.59 129.28 92.56 132.24 92.68 135.21C92.73 136.44 93.21 138.14 94.5 138.64C105.49 142.86 117.51 143.46 129.06 141.69C135 140.78 140.87 139.35 146.61 137.59C149.43 136.73 152.21 135.76 154.97 134.73C157.3 133.87 159.79 132.86 161.5 130.98C164.08 128.14 164.7 124.14 163.79 120.48C163.42 119 162.88 117.59 162.35 116.16C162.24 115.87 162.14 115.58 162.03 115.29C161.62 114.19 162.18 116.07 161.92 114.94C161.87 114.71 161.82 114.47 161.77 114.24C161.69 113.73 161.69 113.77 161.77 114.35C161.77 113.84 161.77 113.88 161.74 114.47C161.92 112.64 161.61 109.83 159.58 109.07C157.69 108.36 156.19 110.62 156.08 112.25C155.86 115.4 156.49 118.14 157.6 121.07C157.8 121.59 157.99 122.1 158.18 122.62C158.46 123.37 158.24 122.77 158.19 122.61C158.25 122.84 158.31 123.06 158.36 123.29C158.39 123.41 158.41 124.39 158.45 123.73C158.5 122.89 158.1 124.77 158.45 123.33C158.41 123.5 158.34 124.12 158.47 123.29L158.34 123.62C158.51 123.24 158.49 123.24 158.26 123.62C158.34 123.56 158.74 123.17 158.16 123.71C157.99 123.87 157.82 124.03 157.65 124.18C157.39 124.41 157.2 124.53 156.69 124.81C155.65 125.38 154.54 125.81 153.44 126.22C150.82 127.2 148.18 128.11 145.52 128.97C135.15 132.32 124.38 134.52 113.44 134.45C107.35 134.41 101.37 133.52 95.58 131.64L97.4 135.07C97.18 132.19 97.05 129.31 97.12 126.42C97.19 123.53 97.83 120.33 97.44 117.44L94.45 121.13C95.21 121.72 95.84 121.84 96.72 121.44L95.83 121.29L96.4 121.71C97.59 122.59 97.83 120.44 97.62 119.76L97.61 119.78Z" fill="black"/>
<path d="M55.95 110.49C51.17 114.45 46.59 118.95 42.88 123.93C39.89 127.94 37.65 132.43 37.51 137.52C37.44 140.22 37.94 143.06 39.46 145.33C40.08 146.26 40.83 147.12 41.6 147.92C46.35 152.84 52.56 155.51 59.13 157.13C70.73 159.99 83.04 159.66 94.85 158.72C117.75 156.9 140.84 156.3 163.81 157.03C164.97 157.07 166.09 156.49 167.15 156.07C170.26 154.83 173.31 153.41 176.27 151.84C185.11 147.15 193.98 140.82 199.06 131.99C202.15 126.63 204.67 120.83 207.11 115.14C208.19 112.62 209.22 110.08 210.04 107.47C210.65 105.54 210.73 103.41 210.21 101.46C209.79 99.89 208.88 98.89 207.84 97.73C205.07 94.64 201.75 91.35 197.62 90.24C195.8 89.75 193.86 90.01 192.35 91.2C190.55 92.6 190.39 95.77 190.69 97.84C190.82 98.74 191.82 103.02 193.61 101.61C193.96 101.33 194.33 101.12 194.73 100.93C195.19 100.71 194.35 100.96 194.89 100.88C195.06 100.85 195.23 100.82 195.4 100.8C195.78 100.76 196.17 100.77 196.55 100.82C196.77 100.85 196.98 100.89 197.19 100.93C197.26 100.94 197.92 101.16 197.42 100.99C199.17 101.6 200.73 102.69 202.15 103.86C202.51 104.15 202.86 104.46 203.2 104.77C203.38 104.93 203.56 105.1 203.74 105.27C203.45 105 203.54 105.07 203.77 105.31C204.34 105.88 204.9 106.47 205.44 107.07C205.98 107.67 206.48 108.25 206.96 108.87L206.11 101.48C206.06 101.69 205.99 101.89 205.92 102.1C205.89 102.21 205.85 102.32 205.81 102.43C205.67 102.87 206.31 101.01 206.01 101.84C205.85 102.29 205.68 102.75 205.51 103.2C204.29 106.42 202.89 109.57 201.45 112.7C200.25 115.3 199.02 117.88 197.76 120.45C197.39 121.21 197.02 121.98 196.63 122.73C196.54 122.91 196.44 123.09 196.34 123.27C196.77 122.47 196.28 123.36 196.21 123.48C195.63 124.44 194.99 125.37 194.31 126.27C191.55 129.93 188.78 132.42 185.07 135.17C179.33 139.43 172.91 142.85 166.29 145.52C165.61 145.8 164.92 146.05 164.24 146.31C163.32 146.66 164.67 146.36 164.27 146.26C163.75 146.13 163.05 146.22 162.51 146.21C161.35 146.18 160.18 146.15 159.02 146.13C149.74 145.94 140.46 145.97 131.18 146.16C124.62 146.3 118.07 146.52 111.52 146.85C104.54 147.2 97.58 147.82 90.61 148.24C80.46 148.85 70 148.85 60.04 146.56C56.82 145.82 54.3 145.04 51.12 143.49C48.91 142.41 46.8 141.09 44.94 139.47C44.75 139.31 44.57 139.14 44.38 138.97C43.79 138.45 44.85 139.46 44.32 138.91C43.95 138.52 43.58 138.14 43.23 137.74C42.93 137.39 42.64 137.03 42.35 136.67C42.22 136.5 42.1 136.33 41.97 136.16C41.45 135.49 42.29 137.05 41.9 136C42.63 137.95 41.86 134.86 42.23 137.28C42.16 136.81 42.23 136.09 42.26 138.05C42.26 137.8 42.3 137.15 42.23 138.25C42.16 139.35 42.2 138.68 42.23 138.44C42.34 137.63 41.89 139.8 42.12 139.01C42.15 138.89 42.18 138.76 42.21 138.64C42.35 138.09 42.75 137.79 42.13 138.79C42.49 138.22 42.66 137.46 42.97 136.85C43.1 136.6 43.62 135.44 43.14 136.5C43.33 136.08 43.63 135.68 43.88 135.29C45.86 132.24 48.29 129.49 50.81 126.89C51.38 126.31 51.95 125.73 52.54 125.16C52.67 125.03 52.8 124.9 52.93 124.78C53.26 124.46 52.39 125.29 52.9 124.81C53.19 124.53 53.48 124.26 53.78 123.98C54.61 123.21 55.45 122.45 56.3 121.71C56.61 121.44 56.91 121.18 57.22 120.92C58.99 119.45 59.19 116.4 58.88 114.28C58.76 113.43 57.71 109.05 55.96 110.51L55.95 110.49Z" fill="black"/>
<path d="M42.17 140.44C41.46 141.72 41.14 143.36 40.73 144.77C40 147.27 39.33 149.8 38.68 152.32C36.58 160.44 34.67 168.62 32.9 176.81C30.58 187.52 28.48 198.28 26.72 209.09C25.06 219.27 23.67 229.51 23.03 239.81C22.48 248.76 22.18 258.01 24.23 266.8C24.94 269.83 26.03 272.99 27.98 275.46C31.21 279.55 35.69 282.57 40.32 284.84C50.3 289.75 61.58 292.07 72.55 293.5C77.88 294.2 83.3 294.78 88.68 294.83C92.69 294.87 96.71 294.79 100.72 294.76C109.46 294.7 118.2 294.64 126.94 294.55C136.73 294.45 146.52 294.34 156.31 294.17C163.47 294.05 170.64 293.95 177.8 293.6C179.22 293.53 180.74 293.55 182.14 293.24C182.93 293.06 182.98 292.99 183.55 292.38C183.99 291.91 182.84 292.94 183.61 292.34C183.94 292.08 184.26 291.83 184.6 291.58C186.67 290.03 188.79 288.57 190.86 287.03C193.05 285.4 195.28 283.7 197.13 281.67C197.42 281.35 197.69 281.02 197.93 280.66C198.17 280.3 198.34 279.88 198.58 279.51C198.79 279.18 197.87 280.51 198.22 280.15C198.49 279.87 198.71 279.54 198.97 279.25C199.38 278.8 199.81 278.38 200.24 277.95C200.51 277.68 200.78 277.42 201.05 277.16C201.19 277.03 201.33 276.89 201.46 276.76C201.81 276.42 201.29 276.92 201.26 276.95C201.37 276.85 201.48 276.74 201.58 276.64C203.12 275.17 204.66 273.71 206.2 272.25C214.81 264.03 223.35 255.55 230.32 245.85C233.81 241 236.93 235.79 238.86 230.11C240.03 226.68 240.49 223.11 241.14 219.56C241.92 215.29 242.75 211.03 243.09 206.69C243.59 200.37 243.34 194.03 242.38 187.76C241.04 179.04 238.68 170.52 235.88 162.16C231.56 149.26 226.37 136.66 220.86 124.23C217.3 116.2 213.6 108.24 209.81 100.32C209.52 99.7002 208.96 98.7402 208.13 98.7402C207.3 98.7402 206.71 99.7002 206.45 100.32C205.52 102.53 205.39 105.75 206.45 107.96C213.45 122.6 220.2 137.37 226.17 152.46C227.3 155.32 228.4 158.19 229.46 161.07C229.95 162.42 230.44 163.77 230.91 165.12C231.12 165.73 231.33 166.33 231.54 166.94C231.58 167.07 231.63 167.2 231.67 167.32C231.86 167.87 231.38 166.44 231.56 166.99C231.67 167.32 231.78 167.66 231.9 167.99C233.36 172.39 234.71 176.83 235.85 181.32C236.32 183.18 236.76 185.06 237.14 186.94C237.23 187.36 237.31 187.77 237.39 188.19C237.43 188.39 237.47 188.6 237.51 188.8C237.53 188.89 237.25 187.34 237.37 188.03C237.39 188.14 237.41 188.26 237.43 188.37C237.58 189.2 237.72 190.03 237.84 190.87C238.07 192.38 238.26 193.9 238.4 195.43C238.47 196.12 238.52 196.82 238.57 197.51C238.64 198.5 238.5 196.18 238.53 196.77C238.53 196.93 238.55 197.09 238.55 197.25C238.57 197.59 238.58 197.93 238.59 198.26C238.63 199.52 238.64 200.78 238.6 202.04C238.58 202.64 238.54 203.25 238.52 203.85C238.52 204.14 238.64 202.08 238.57 202.94C238.56 203.08 238.55 203.21 238.54 203.35C238.52 203.64 238.5 203.93 238.47 204.22C238.29 206.4 237.99 208.56 237.63 210.71C237.27 212.86 236.89 214.83 236.51 216.89C236.32 217.95 236.13 219 235.96 220.06C235.92 220.32 235.88 220.57 235.84 220.83C235.74 221.45 235.38 221.65 235.9 220.57C235.77 220.83 235.76 221.22 235.7 221.5C235.57 222.05 235.42 222.6 235.25 223.15C235.19 223.35 234.88 224.27 235.13 223.55C235.38 222.83 234.96 224.02 234.88 224.2C234.42 225.4 233.9 226.57 233.34 227.72C233.06 228.3 232.76 228.87 232.45 229.44C232.29 229.73 232.13 230.01 231.98 230.3C232.44 229.44 231.78 230.64 231.68 230.81C230.18 233.33 228.51 235.75 226.76 238.1C223.11 242.97 219.06 247.54 214.86 251.95C212.89 254.01 210.88 256.04 208.85 258.04C207.9 258.97 206.95 259.89 206 260.81C205.85 260.96 205.31 261.47 205.75 261.05C205.54 261.25 205.34 261.45 205.13 261.64C204.7 262.05 204.28 262.45 203.85 262.86C201.34 265.25 198.65 267.54 196.36 270.15C196.14 270.4 195.94 270.65 195.75 270.93C195.46 271.37 195.43 271.52 195.25 271.81C195.07 272.1 195.96 271.01 195.58 271.24C195.47 271.31 195.34 271.59 195.27 271.69C194.98 272.07 194.64 272.41 194.32 272.76C193.97 273.14 194.69 272.44 194.15 272.92C193.94 273.11 193.73 273.3 193.51 273.49C192.97 273.96 192.43 274.41 191.87 274.85C190.79 275.71 189.68 276.54 188.56 277.36C186.64 278.77 184.66 280.11 182.78 281.57C182.53 281.77 182.28 281.97 182.04 282.18C181.78 282.41 181.51 282.66 181.27 282.92C180.9 283.32 181.63 282.58 181.7 282.54C181.4 282.72 182.55 282.41 181.98 282.45C177.33 282.76 172.68 282.99 168.01 283.1C159.11 283.32 150.21 283.45 141.32 283.56C131.73 283.68 122.14 283.77 112.54 283.84C105.81 283.89 99.08 283.94 92.35 283.97C89.84 283.98 87.37 283.97 84.86 283.82C75.76 283.29 66.65 282.1 57.78 279.97C52.44 278.69 47.51 277.17 42.44 274.78C40.1 273.68 37.83 272.42 35.7 270.93C34.71 270.24 33.76 269.5 32.86 268.71C32.62 268.5 32.38 268.28 32.14 268.06C32.58 268.47 32.11 268.02 31.94 267.85C31.53 267.43 31.13 266.99 30.75 266.53C30.31 266.01 29.94 265.48 29.57 264.91C29.2 264.34 30.08 265.93 29.6 264.94C29.47 264.67 29.33 264.39 29.21 264.11C29.08 263.82 28.97 263.52 28.85 263.22C29.2 264.4 28.45 262.2 28.85 263.22C28.65 262.55 28.46 261.88 28.31 261.2C28.22 260.83 28.15 260.45 28.07 260.07C27.89 259.22 28.28 261.32 28.18 260.66C28.15 260.45 28.11 260.23 28.07 260.02C27.93 259.18 27.82 258.33 27.73 257.49C27.64 256.65 27.56 255.73 27.5 254.86C27.43 253.86 27.47 255.1 27.53 255.44C27.49 255.23 27.51 254.98 27.5 254.77C27.47 254.24 27.45 253.72 27.44 253.19C27.38 251.12 27.38 249.05 27.44 246.98C27.47 245.86 27.51 244.73 27.56 243.61C27.59 243.07 27.62 242.53 27.64 241.99C27.69 241.14 27.54 243.54 27.62 242.37C27.64 242.05 27.66 241.74 27.68 241.42C28.01 236.45 28.53 231.5 29.15 226.56C29.81 221.34 30.59 216.13 31.44 210.94C31.87 208.31 32.33 205.68 32.81 203.06C32.92 202.44 33.04 201.82 33.15 201.2C33.18 201.02 33.22 200.85 33.25 200.67C33.35 200.13 33.12 201.38 33.13 201.3C33.2 200.95 33.26 200.6 33.33 200.24C33.58 198.93 33.83 197.61 34.08 196.3C35.92 186.87 37.96 177.48 40.18 168.14C41.62 162.09 43.1 156.04 44.84 150.08C45.05 149.37 45.27 148.67 45.49 147.96C45.71 147.25 45 149.27 45.26 148.65C45.3 148.55 45.33 148.45 45.37 148.35C45.42 148.23 45.46 148.1 45.53 147.99C46.68 145.92 46.49 142.46 45.53 140.35C45.22 139.68 44.7 138.77 43.85 138.77C43 138.77 42.52 139.73 42.17 140.35V140.44Z" fill="black"/>
<path d="M174.91 157.05C175.04 161.44 175.35 165.73 176.02 170.07C176.63 174.01 177.31 177.94 178.01 181.87C179.42 189.84 181.06 197.76 182.66 205.69C184.26 213.62 185.86 221.48 187.22 229.41C187.89 233.31 188.49 237.22 189 241.14C189.13 242.14 189.25 243.13 189.37 244.13C189.46 244.84 189.31 243.68 189.32 243.66C189.28 243.85 189.37 244.16 189.4 244.35C189.46 244.89 189.51 245.42 189.57 245.96C189.77 247.95 189.94 249.95 190.08 251.94C190.38 256.31 190.52 260.7 190.46 265.08C190.44 266.23 190.41 267.39 190.37 268.54C190.35 269.08 190.32 269.62 190.3 270.16C190.29 270.39 190.28 270.62 190.26 270.85C190.22 271.66 190.19 270.98 190.28 270.58C190.03 271.66 190.11 272.94 190 274.05C189.89 275.16 189.76 276.36 189.6 277.51C189.38 279.08 189.51 280.85 190.13 282.32C190.56 283.35 191.49 284.78 192.66 285.14C195.42 285.98 197.37 283.08 197.61 280.64C198.43 272.24 198.81 263.86 198.38 255.42C197.95 246.98 196.93 238.64 195.59 230.34C193 214.31 189.07 198.55 185.72 182.67C184.77 178.16 183.88 173.65 183.14 169.11C182.78 166.89 182.55 164.62 182.1 162.42C181.65 160.22 181.14 157.95 180.71 155.71C180.42 154.2 179.21 152.12 177.39 152.57C175.57 153.02 174.89 155.38 174.94 157.05H174.91Z" fill="black"/>
<path d="M85.6 173.55C83.15 174.1 80.66 174.76 78.49 176.05C76.21 177.41 73.91 178.9 71.96 180.71C68.08 184.29 64.7 188.46 61.98 192.98C56.28 202.43 53.38 213.53 54.05 224.56C54.72 235.59 58.77 246.76 65.39 255.94C68.66 260.47 72.62 264.58 77.14 267.86C79.74 269.75 82.56 271.4 85.55 272.59C88.54 273.78 91.94 274.66 95.18 275.49C101.98 277.23 108.82 278.98 115.83 279.53C122.4 280.05 128.97 279.46 135.25 277.39C141.08 275.47 146.54 272.23 151.06 268.08C155.58 263.93 159.47 258.56 162.61 253.12C169.22 241.66 173.37 228.41 172.73 215.08C172.16 203.19 167.75 191.66 159.61 182.91C155.85 178.86 151.14 175.66 146 173.62C139.94 171.22 133.28 170.14 126.84 169.39C113.94 167.89 100.88 168.42 88.32 171.88C85.23 172.73 82.29 173.77 79.41 175.18C76.07 176.81 76.86 185.19 81.21 183.91C86.82 182.25 92.42 180.71 98.23 179.94C104.04 179.17 110.23 178.86 116.25 179.09C122.27 179.32 128.27 180 134.01 181.06C137.02 181.61 140.01 182.32 142.89 183.33C144.26 183.81 145.6 184.36 146.91 184.99C147.46 185.26 148.01 185.54 148.55 185.84C148.76 185.96 148.98 186.08 149.19 186.21C149.58 186.44 149.61 186.46 149.29 186.27C149.45 186.37 149.6 186.47 149.75 186.57C151.8 187.91 153.7 189.47 155.43 191.2C155.82 191.59 156.2 191.99 156.57 192.39C155.93 191.7 156.75 192.6 156.82 192.69C156.98 192.88 157.14 193.07 157.29 193.26C158.11 194.26 158.88 195.3 159.59 196.38C160.24 197.36 160.84 198.37 161.42 199.39C160.87 198.42 161.78 200.1 161.88 200.32C162.18 200.93 162.46 201.56 162.73 202.18C163.2 203.26 163.62 204.37 164 205.49C164.1 205.78 164.19 206.08 164.29 206.38C164.54 207.12 163.97 205.2 164.29 206.38C164.47 207.04 164.65 207.7 164.8 208.37C165.07 209.52 165.29 210.68 165.47 211.84C165.53 212.23 165.95 214.15 165.59 212.66C165.78 213.47 165.74 214.45 165.78 215.28C165.84 216.59 165.85 217.9 165.81 219.21C165.8 219.64 165.8 220.09 165.75 220.52C165.77 220.33 165.84 219.41 165.75 220.42C165.67 221.29 165.59 222.16 165.48 223.02C165.31 224.32 165.1 225.61 164.84 226.9C164.7 227.62 164.54 228.33 164.37 229.04C164.06 230.41 164.55 228.43 164.32 229.26C164.18 229.75 164.05 230.25 163.91 230.74C163.1 233.56 162.09 236.32 160.92 239.01C160.66 239.62 160.38 240.22 160.1 240.82C159.75 241.59 160.58 239.87 159.95 241.13C159.82 241.39 159.69 241.66 159.56 241.92C158.83 243.36 158.06 244.78 157.24 246.17C155.77 248.68 154.17 251.12 152.41 253.43C151.66 254.42 151.37 254.77 150.32 255.94C149.27 257.11 148.14 258.25 146.95 259.31C144.82 261.22 142.92 262.6 140.7 263.9C135.82 266.75 130.52 268.56 125.12 269.2C118.69 269.96 112.32 269.2 105.94 268.33C102.86 267.91 99.81 267.24 96.77 266.6C93.73 265.96 90.67 265.4 87.7 264.48C82.44 262.86 77.82 259.89 73.74 256.23C66.43 249.67 61.51 240.84 59.44 231.5C58.41 226.86 58.08 221.93 58.54 217.41C59.04 212.49 60.19 208.19 62.15 203.6C63.95 199.37 66.49 195.22 69.47 191.61C71.04 189.71 72.76 187.92 74.58 186.26C76.4 184.6 78.21 182.82 80.23 181.31C82.25 179.8 84.13 178 86.16 176.45C86.84 175.93 86.78 173.31 85.58 173.58L85.6 173.55Z" fill="black"/>
<path d="M153.6 183.72C154.31 184.3 154.93 185.03 155.68 185.54C156.37 186.02 157.08 186.43 157.74 186.96C158.95 187.92 160.04 189.01 160.99 190.23C163.06 192.9 164.59 195.85 165.93 198.94C169.09 206.21 171.17 213.92 172.17 221.79C173.05 228.72 173.52 237.06 170.47 243.56C167.42 250.06 162.18 255.24 156.68 259.49C153.61 261.86 150.29 263.92 146.84 265.68C145.11 266.57 143.34 267.38 141.55 268.11C140.62 268.49 139.68 268.85 138.74 269.19C138.25 269.37 137.69 269.49 137.22 269.72C136.61 270.02 136.12 270.59 135.64 271.05C134.71 271.95 134.45 273.43 134.6 274.65C134.72 275.61 135.21 277.33 136.36 277.59C136.88 277.71 137.43 277.88 137.96 277.91C138.54 277.94 139.1 277.71 139.64 277.52C140.59 277.19 141.53 276.84 142.46 276.47C144.2 275.78 145.92 275.02 147.6 274.19C151.14 272.44 154.5 270.38 157.68 268.03C164 263.37 169.85 257.33 173.58 250.37C178 242.12 178.27 232.74 177.37 223.6C176.47 214.46 174.36 205.86 170.86 197.55C169.15 193.5 167.18 189.45 164.49 185.95C163.2 184.27 161.76 182.65 160.13 181.3C159.32 180.63 158.46 180.05 157.57 179.51C156.63 178.94 155.44 178.89 154.36 178.84C153.41 178.8 152.88 180.04 152.76 180.79C152.61 181.76 152.82 183.05 153.62 183.71L153.6 183.72Z" fill="black"/>
<path d="M104.85 223.07C106.22 218.9 107.27 214.61 108.45 210.39C110.13 204.38 111.79 198.37 113.5 192.38C113.78 191.38 114.07 190.38 114.36 189.38C114.45 189.08 114.54 188.78 114.63 188.48C114.77 188.01 115.08 187.74 114.37 189.24C114.71 188.53 112.93 190.65 113.38 190.5L111.07 189.11C110.87 188.32 110.66 187.52 110.46 186.73C110.22 183.24 110.54 183.07 110.41 184.28C110.38 184.56 110.36 184.84 110.34 185.12C110.24 186.45 110.17 187.77 110.1 189.1C109.94 191.91 109.82 194.73 109.69 197.54C109.41 203.72 109.16 209.9 108.92 216.09C108.86 217.51 108.81 218.93 108.75 220.35C108.69 221.85 109 224.65 110.49 225.56C110.56 225.6 110.63 225.69 110.7 225.72C111.1 225.88 110.26 225.12 110.46 225.49C110.53 225.62 110.68 225.76 110.77 225.87C111.3 226.51 110.6 225.88 110.7 225.7C110.68 225.73 110.92 226.24 110.95 226.28C110.58 225.83 110.66 225.38 110.78 225.88C110.8 225.95 110.53 224.71 110.66 225.26C110.69 225.4 110.66 225.57 110.71 225.7L110.65 224.91C110.65 225.37 110.65 225.37 110.67 224.9C110.75 223.76 110.51 225.88 110.64 225.12C110.73 224.56 110.61 225.22 110.59 225.3C110.53 225.56 110.47 225.82 110.41 226.08C110.32 226.45 110.22 226.82 110.11 227.19C110.06 227.37 110 227.54 109.95 227.72C109.79 228.26 110.24 227.02 109.91 227.79C109.78 228.09 109.66 228.4 109.52 228.7C109.43 228.89 109.34 229.07 109.24 229.26C109.28 229.19 109.6 228.78 109.34 229.05C109.16 229.24 109.01 229.51 108.84 229.72C108.78 229.79 108.39 230.18 108.67 229.92C108.94 229.68 108.53 230.02 108.47 230.05C108.23 230.2 108 230.35 107.74 230.47C107.36 230.65 107.87 230.5 107.45 230.55C106.82 230.62 106.19 230.61 105.58 230.44C104.73 230.21 103.29 229.25 102.43 228.45C102.7 228.7 102.17 228.17 102.1 228.09C101.85 227.81 101.61 227.52 101.39 227.22C101.2 226.96 101.04 226.68 100.85 226.43C100.6 226.09 100.92 226.53 100.94 226.59C100.86 226.41 100.74 226.05 100.61 225.89C100.27 225.46 100.84 226.32 100.72 226.28C100.68 226.27 100.61 225.9 100.6 225.85C100.5 225.28 100.73 227.94 100.74 227.03C100.74 227.78 100.66 228.53 100.37 229.24C100.49 228.95 100.69 228.89 100.29 229.33C100.42 229.19 100.53 229.01 100.65 228.86C101.71 227.55 102.87 226.3 103.98 225.02C105.5 223.26 105.44 219.73 104.83 217.63C104.39 216.12 103.17 213.86 101.58 215.69C99.9901 217.52 98.2001 219.12 97.1901 221.22C94.7501 226.3 95.9601 233.25 99.6801 237.41C102 240 106.04 242.81 109.52 240.6C111.23 239.51 112.36 237.56 113.13 235.74C114.22 233.14 114.99 230.22 115.27 227.42C115.58 224.29 115.42 220.75 113.96 217.89C113.44 216.88 112.74 215.75 111.74 215.14L113.48 220.35C113.87 210.02 114.25 199.68 114.81 189.35C114.83 189.02 114.85 188.7 114.86 188.37C114.89 187.89 114.75 190.18 114.84 188.81C114.87 188.41 114.89 188 114.92 187.6C115.09 185.56 115.36 183.36 114.4 181.47C113.87 180.42 113.31 179.68 112.09 180.08C111.12 180.4 110.7 182.41 110.44 183.23C110.21 183.97 110 184.72 109.79 185.46C109.04 188.08 108.3 190.71 107.56 193.34C105.81 199.59 104.07 205.85 102.31 212.11C101.79 213.95 101.32 215.81 100.72 217.63C100.02 219.74 100.13 223.22 101.57 225.02C103.13 226.97 104.38 224.43 104.82 223.08L104.85 223.07Z" fill="black"/>
<path d="M112.15 219.35C111.18 218.62 110.1 217.95 108.91 217.67C108.23 217.51 107.52 217.37 106.82 217.35C106.05 217.32 105.33 217.5 104.58 217.68C102 218.3 100.14 220.6 99.21 222.98C98.47 224.88 98.39 227.04 98.75 229.03C99 230.43 99.64 231.98 100.55 233.09C101.46 234.2 102.39 235.01 103.69 235.59C104.26 235.84 104.88 235.93 105.49 236.03C105.87 236.09 106.24 236.12 106.63 236.07C109.34 235.71 111.38 233.71 112.8 231.49C113.69 230.1 114.28 228.5 114.56 226.87C114.91 224.84 114.71 222.51 113.83 220.63C112.68 218.16 110.43 216.27 107.59 216.38C104.75 216.49 102.76 218.43 101.62 220.81C100.78 222.57 100.41 224.46 100.43 226.42C100.45 228.65 101.05 231.01 102.55 232.7C103.31 233.56 104.26 234.24 105.46 234.26C106.46 234.27 107.28 233.83 108.01 233.19C108.77 232.52 109.31 231.43 109.62 230.49C109.75 230.1 109.83 229.7 110 229.32L109.47 230.43C109.52 230.32 109.58 230.23 109.65 230.13L108.95 230.99C109.04 230.88 109.14 230.78 109.26 230.69L108.43 231.25C108.59 231.15 108.74 231.09 108.92 231.04L107.98 231.26C108.24 231.2 108.48 231.2 108.75 231.23L107.8 231.06C108.06 231.11 108.3 231.19 108.53 231.33L107.67 230.81C107.79 230.89 107.9 230.98 108.01 231.09L107.27 230.26C107.37 230.37 107.45 230.49 107.52 230.62L106.94 229.54C106.98 229.61 107.01 229.69 107.03 229.77L106.64 228.49C106.67 228.57 106.68 228.66 106.7 228.74L106.54 227.31C106.55 227.44 106.56 227.56 106.54 227.69L106.63 226.25C106.63 226.34 106.61 226.42 106.59 226.5L106.92 225.2C106.88 225.37 106.82 225.53 106.74 225.69L107.27 224.58C107.18 224.74 107.09 224.88 106.98 225.02L107.68 224.16C107.53 224.33 107.37 224.47 107.19 224.6L108.02 224.04C107.83 224.16 107.64 224.24 107.42 224.31L108.36 224.09C108.08 224.15 107.82 224.16 107.54 224.12L108.49 224.29C108.16 224.22 107.87 224.11 107.58 223.93L108.44 224.45C108.24 224.31 108.06 224.16 107.9 223.99L108.64 224.82C108.48 224.64 108.35 224.45 108.23 224.23L108.81 225.31C108.75 225.18 108.69 225.05 108.64 224.91L109.03 226.19C108.97 226 108.94 225.82 108.92 225.62L109.08 227.05C109.08 226.9 109.07 226.76 109.08 226.61L108.99 228.05C109.01 227.85 109.04 227.66 109.09 227.47L108.76 228.77C108.82 228.58 108.88 228.4 108.96 228.21L108.43 229.32C108.56 229.05 108.72 228.8 108.9 228.56L108.2 229.42C108.43 229.15 108.67 228.92 108.96 228.72L108.13 229.28C108.38 229.13 108.62 229.02 108.9 228.96L107.96 229.18C108.14 229.15 108.31 229.14 108.49 229.17L107.54 229C107.67 229.03 107.77 229.07 107.89 229.13L107.03 228.61C107.1 228.66 107.17 228.71 107.23 228.78L106.49 227.95L106.59 228.08L106.01 227C106.07 227.1 106.11 227.2 106.14 227.3L105.75 226.02C105.82 226.29 105.87 226.57 105.91 226.85L105.75 225.42C105.79 225.76 105.8 226.1 105.78 226.44L105.87 225C105.85 225.23 105.82 225.45 105.77 225.67L106.1 224.37C106.03 224.64 105.94 224.9 105.82 225.16L106.35 224.05C106.25 224.23 106.15 224.4 106.02 224.56L106.72 223.7C106.56 223.89 106.38 224.05 106.18 224.2L107.01 223.64C106.72 223.83 106.42 223.97 106.08 224.05L107.02 223.83C106.78 223.87 106.55 223.88 106.31 223.85L107.26 224.02C107 223.97 106.77 223.89 106.54 223.76L107.4 224.28C107.24 224.17 107.1 224.05 106.96 223.91L107.7 224.74C107.57 224.59 107.47 224.43 107.37 224.26L107.95 225.34C107.86 225.16 107.78 224.97 107.72 224.78L108.11 226.06C108.04 225.81 107.99 225.57 107.96 225.31L108.12 226.74C108.08 226.39 108.08 226.05 108.1 225.7L108.01 227.14C108.04 226.77 108.1 226.42 108.19 226.06L107.86 227.36C107.93 227.09 108.02 226.84 108.14 226.58L107.61 227.69C107.69 227.54 107.77 227.41 107.87 227.28L107.17 228.14C107.28 228.01 107.4 227.89 107.54 227.78L106.71 228.34C106.9 228.21 107.1 228.12 107.33 228.05L106.39 228.27C106.74 228.19 107.08 228.19 107.43 228.25L106.48 228.08C106.8 228.15 107.09 228.26 107.37 228.42L106.51 227.9C106.75 228.05 106.96 228.23 107.15 228.44L106.41 227.61C106.51 227.74 106.6 227.86 106.68 228L106.1 226.92C106.19 227.09 106.26 227.27 106.31 227.45L105.92 226.17C105.96 226.32 105.99 226.46 106.01 226.61L105.85 225.18C105.87 225.38 105.88 225.57 105.87 225.77L105.96 224.33C105.94 224.58 105.9 224.83 105.85 225.07L106.18 223.77C106.1 224.07 105.99 224.35 105.86 224.63L106.39 223.52C106.22 223.84 106.03 224.14 105.8 224.42L106.5 223.56C106.24 223.87 105.95 224.13 105.62 224.37L106.45 223.81C106.07 224.06 105.68 224.25 105.24 224.37L106.18 224.15C105.8 224.24 105.44 224.26 105.05 224.2L106 224.37C105.71 224.31 105.45 224.21 105.2 224.05L106.06 224.57C105.89 224.45 105.74 224.32 105.6 224.17L106.34 225C106.21 224.84 106.09 224.67 105.99 224.49L106.57 225.57C106.5 225.43 106.44 225.29 106.39 225.14L106.78 226.42C106.73 226.25 106.7 226.08 106.68 225.91L106.84 227.34C106.84 227.21 106.84 227.09 106.84 226.96L106.75 228.4C106.77 228.23 106.79 228.06 106.83 227.89L106.5 229.19C106.55 229.02 106.61 228.86 106.68 228.7L106.15 229.81C106.27 229.57 106.4 229.35 106.56 229.14L105.86 230C106.09 229.73 106.34 229.49 106.63 229.29L105.8 229.85C106.1 229.66 106.4 229.53 106.74 229.44L105.8 229.66C106.14 229.59 106.47 229.58 106.82 229.64L105.87 229.47C106.14 229.53 106.37 229.62 106.61 229.76L105.75 229.24C105.97 229.38 106.15 229.54 106.33 229.73L105.59 228.9C105.73 229.07 105.86 229.25 105.96 229.44L105.38 228.36C105.48 228.56 105.57 228.76 105.63 228.98L105.24 227.7C105.29 227.88 105.33 228.06 105.35 228.25L105.19 226.82C105.21 227.01 105.22 227.19 105.21 227.38L105.3 225.94C105.29 226.12 105.26 226.3 105.22 226.48L105.55 225.18C105.5 225.36 105.44 225.52 105.37 225.69L105.9 224.58C105.82 224.74 105.72 224.89 105.61 225.04L106.31 224.18C106.18 224.34 106.03 224.47 105.87 224.59L106.7 224.03C106.47 224.18 106.24 224.29 105.98 224.37L106.92 224.15C106.65 224.21 106.41 224.23 106.14 224.19L107.09 224.36C106.9 224.31 106.73 224.25 106.56 224.15L107.42 224.67C107.31 224.59 107.23 224.52 107.13 224.43L107.87 225.26C107.76 225.13 107.67 225 107.58 224.85L108.16 225.93C108.1 225.81 108.06 225.69 108.01 225.57L108.4 226.85C108.35 226.68 108.31 226.51 108.29 226.33L108.45 227.76C108.43 227.54 108.42 227.32 108.44 227.09L108.35 228.53C108.37 228.33 108.4 228.13 108.44 227.93L108.11 229.23C108.18 228.97 108.26 228.73 108.36 228.49L107.83 229.6C107.95 229.36 108.08 229.15 108.24 228.94L107.54 229.8C107.71 229.6 107.89 229.44 108.11 229.29L107.28 229.85C107.5 229.72 107.72 229.63 107.96 229.56L107.02 229.78C107.32 229.72 107.6 229.71 107.9 229.75L106.95 229.58C107.14 229.62 107.32 229.69 107.49 229.78L106.63 229.26C106.8 229.37 106.94 229.48 107.07 229.63L106.33 228.8C106.42 228.92 106.5 229.03 106.57 229.16L105.99 228.08C106.05 228.21 106.11 228.34 106.16 228.48L105.77 227.2C105.86 227.49 105.91 227.78 105.94 228.08L105.78 226.65C105.83 227.16 105.84 227.66 105.81 228.17L105.9 226.73C105.87 227.14 105.81 227.54 105.71 227.93L106.04 226.63C105.97 226.88 105.89 227.13 105.78 227.37L106.31 226.26C106.2 226.49 106.08 226.7 105.93 226.9L106.63 226.04C106.47 226.23 106.3 226.4 106.11 226.55L106.94 225.99C106.69 226.16 106.43 226.28 106.13 226.35L107.07 226.13C106.81 226.18 106.57 226.18 106.3 226.14L107.25 226.31C106.94 226.25 106.67 226.15 106.4 226L107.26 226.52C107.03 226.38 106.83 226.22 106.65 226.03L107.39 226.86C107.24 226.69 107.12 226.52 107.01 226.33L107.59 227.41C107.51 227.25 107.45 227.1 107.4 226.93L107.79 228.21C107.77 228.13 107.75 228.04 107.74 227.96L107.9 229.39C107.88 229.25 107.88 229.13 107.88 228.99L107.79 230.43C107.8 230.29 107.82 230.16 107.85 230.02L107.52 231.32C107.57 231.14 107.63 230.97 107.71 230.81L107.18 231.92C107.27 231.76 107.37 231.6 107.48 231.46L106.78 232.32C106.96 232.1 107.16 231.92 107.39 231.75L106.56 232.31C106.88 232.1 107.21 231.95 107.58 231.87L106.64 232.09C106.97 232.03 107.28 232.03 107.61 232.09L106.66 231.92C106.98 231.99 107.27 232.11 107.55 232.28L106.69 231.76C106.93 231.92 107.13 232.09 107.32 232.3L106.58 231.47C106.73 231.65 106.87 231.84 106.99 232.04L106.41 230.96C106.52 231.17 106.61 231.38 106.69 231.6L106.3 230.32C106.35 230.5 106.39 230.68 106.41 230.87L106.25 229.44C106.26 229.58 106.27 229.72 106.26 229.86L106.35 228.42C106.34 228.61 106.31 228.8 106.26 228.99L106.59 227.69C106.54 227.88 106.47 228.06 106.39 228.24L106.92 227.13C106.81 227.35 106.68 227.55 106.53 227.74L107.23 226.88C107.04 227.1 106.83 227.3 106.59 227.47L107.42 226.91C107.13 227.09 106.83 227.22 106.5 227.3L107.44 227.08C107.11 227.14 106.8 227.14 106.47 227.08L107.42 227.25C107.09 227.18 106.8 227.07 106.51 226.9L107.37 227.42C107.17 227.29 107 227.15 106.83 226.98L107.57 227.81C107.45 227.67 107.34 227.52 107.25 227.36L107.83 228.44C107.76 228.3 107.7 228.16 107.65 228.02L108.04 229.3C108 229.15 107.96 229 107.94 228.85L108.1 230.28C108.09 230.12 108.08 229.98 108.09 229.82L108 231.26C108.02 231.05 108.05 230.85 108.1 230.65L107.77 231.95C107.84 231.69 107.93 231.44 108.05 231.19L107.52 232.3C107.79 231.73 108.14 231.22 108.53 230.73L107.83 231.59C108.21 231.12 108.6 230.62 109.1 230.28L108.27 230.84C108.36 230.78 108.45 230.74 108.55 230.71L107.61 230.93C107.78 230.89 107.89 230.89 108.06 230.91L107.11 230.74C107.2 230.76 107.29 230.8 107.37 230.86L106.51 230.34C106.59 230.4 106.66 230.46 106.72 230.54L105.98 229.71C106.04 229.79 106.09 229.87 106.13 229.96L105.55 228.88C105.59 228.97 105.63 229.06 105.65 229.16L105.26 227.88C105.28 227.97 105.3 228.06 105.31 228.15L105.15 226.72C105.15 226.81 105.15 226.9 105.15 226.99L105.24 225.55C105.24 225.64 105.22 225.73 105.2 225.82L105.53 224.52C105.49 224.65 105.45 224.78 105.4 224.9L105.93 223.79C105.85 223.96 105.76 224.11 105.64 224.26L106.34 223.4C106.19 223.58 106.03 223.73 105.84 223.87L106.67 223.31C106.44 223.46 106.2 223.57 105.93 223.63L106.87 223.41C106.69 223.43 106.52 223.44 106.33 223.41L107.28 223.58C107.04 223.53 106.82 223.45 106.61 223.32L107.48 223.85C107.35 223.76 107.24 223.66 107.13 223.55L107.88 224.39C107.75 224.24 107.64 224.08 107.54 223.91L108.13 225.01C108.06 224.87 108 224.72 107.95 224.57L108.35 225.87C108.3 225.68 108.26 225.49 108.24 225.3L108.4 226.76C108.4 226.64 108.4 226.53 108.4 226.41L108.31 227.87C108.32 227.75 108.34 227.64 108.37 227.53L108.04 228.84C108.09 228.69 108.14 228.55 108.21 228.4L107.68 229.51L107.75 229.41C108.47 228.4 108.72 226.77 108.69 225.57C108.66 224.37 108.32 222.77 107.56 221.78C106.96 221 106.09 220.16 105.01 220.26C103.93 220.36 103.17 221.02 102.54 221.9C100.54 224.73 100.88 228.83 102.58 231.69C103.15 232.66 103.98 233.37 104.97 233.87C105.96 234.37 107.15 234.3 108.2 233.95C108.94 233.71 109.63 233.21 110.14 232.63C111.58 231 112.24 228.99 112.24 226.81C112.24 224.63 111.58 222.59 110.07 221.13C109.42 220.51 108.69 220.18 107.8 220.12C106.82 220.05 106.06 220.49 105.3 221.05C104.8 221.41 104.42 221.88 104.03 222.36C103.09 223.51 102.39 224.53 101.79 225.9C100.53 228.81 100.68 232.75 102.58 235.37C103.73 236.95 105.69 238.21 107.72 237.88C108.9 237.69 109.86 237.26 110.76 236.44C111.71 235.57 112.42 234.35 112.84 233.13C113.85 230.18 113.49 226.64 111.71 224.04C110.59 222.41 108.61 221.01 106.54 221.28C104.06 221.6 102.32 223.4 101.42 225.65C100.31 228.43 100.61 232.3 102.59 234.64C103.33 235.52 104.15 236.32 105.27 236.7C106.39 237.08 107.33 237.04 108.42 236.7C110.33 236.1 111.67 234.01 112.25 232.2C113 229.85 113.05 227.48 112.74 225.05C112.43 222.62 111.09 219.76 108.61 219.13C107.48 218.84 106.35 218.87 105.29 219.42C104.16 220 103.23 220.98 102.65 222.09C101.2 224.89 100.87 228.34 102.08 231.3C102.67 232.74 103.56 233.88 104.93 234.62C105.98 235.19 107.34 235.1 108.42 234.64C110.64 233.67 111.8 231.24 112.18 228.98C112.84 225 110.99 218.97 106.17 218.81C104.13 218.74 102.39 220.17 101.27 221.74C99.77 223.86 99.34 226.98 100 229.46C100.73 232.2 102.58 235.02 105.73 235.03C107.44 235.03 109.2 234.05 110.3 232.79C112.13 230.69 113.12 227.94 112.96 225.13C112.8 222.32 111.64 219.33 108.94 217.91C107.65 217.24 105.82 217.16 104.56 217.95C103.68 218.5 103.27 218.86 102.66 219.74C102.27 220.3 101.98 220.93 101.75 221.56C101.22 222.97 101.08 224.37 101.01 225.85C100.9 228.03 101.46 230.36 102.66 232.19C103.27 233.12 104.11 233.83 105.12 234.29C106.21 234.79 107.4 234.67 108.5 234.29C109.26 234.03 109.98 233.49 110.52 232.89C111.72 231.56 112.42 229.93 112.72 228.16C112.98 226.63 112.9 225.12 112.66 223.6C112.35 221.63 111.42 219.52 109.53 218.62C108.53 218.15 107.43 218.26 106.43 218.64C105.28 219.08 104.42 220.03 103.71 220.99C102.05 223.2 101.58 226.54 102.27 229.17C102.87 231.46 104.34 234.12 106.87 234.68C107.97 234.93 109.02 234.96 110.06 234.4C111.5 233.63 112.37 232.38 113.01 230.92C114.28 228 113.79 223.69 111.29 221.52C109.97 220.38 107.88 219.9 106.3 220.82C104.98 221.59 104.2 222.75 103.66 224.17C103.49 224.62 103.41 225.11 103.2 225.54L103.73 224.43C103.68 224.53 103.62 224.61 103.55 224.7L104.25 223.84C104.2 223.89 104.15 223.94 104.1 223.98L104.93 223.42C104.8 223.51 104.67 223.56 104.51 223.6L105.45 223.38C105.37 223.39 105.29 223.39 105.2 223.38L106.15 223.55C106.02 223.52 105.92 223.49 105.81 223.43L106.67 223.95C106.52 223.85 106.4 223.75 106.28 223.61L107.02 224.44C106.93 224.33 106.86 224.22 106.78 224.1L107.36 225.18C107.27 225.01 107.2 224.84 107.13 224.66L107.52 225.94C107.46 225.71 107.42 225.48 107.39 225.24L107.55 226.67C107.52 226.38 107.52 226.09 107.53 225.8L107.44 227.24C107.46 226.9 107.52 226.57 107.6 226.24L107.27 227.54C107.36 227.21 107.47 226.9 107.61 226.59L107.08 227.7C107.23 227.4 107.4 227.12 107.61 226.86L106.91 227.72C107.16 227.42 107.43 227.17 107.74 226.94L106.91 227.5C107.28 227.26 107.66 227.09 108.09 226.98L107.15 227.2C107.66 227.09 108.16 227.08 108.68 227.17L107.73 227C108.15 227.08 108.54 227.22 108.91 227.43L108.05 226.91C108.3 227.07 108.52 227.24 108.73 227.45L107.99 226.62C108.13 226.78 108.25 226.94 108.36 227.12L107.78 226.04C107.87 226.22 107.95 226.39 108.02 226.58L107.63 225.3C107.69 225.5 107.73 225.69 107.76 225.89L107.6 224.46C107.62 224.66 107.62 224.86 107.62 225.06L107.71 223.62C107.69 223.88 107.65 224.13 107.59 224.38L107.92 223.08C107.83 223.44 107.7 223.79 107.55 224.13L108.08 223.02C107.8 223.61 107.45 224.15 107.04 224.66L107.74 223.8C107.28 224.35 106.79 224.87 106.21 225.29L107.04 224.73C106.62 225.01 106.18 225.23 105.69 225.35L106.63 225.13C106.16 225.22 105.71 225.22 105.24 225.13L106.19 225.3C105.72 225.2 105.29 225.03 104.88 224.79L105.74 225.31C105.37 225.08 105.04 224.81 104.74 224.5L105.48 225.33C105.28 225.1 105.11 224.87 104.96 224.61L105.54 225.69C105.42 225.46 105.32 225.24 105.24 224.99L105.63 226.27C105.57 226.06 105.53 225.86 105.51 225.65L105.67 227.08C105.66 226.9 105.65 226.73 105.67 226.55L105.58 227.99C105.6 227.75 105.64 227.52 105.7 227.29L105.37 228.59C105.44 228.36 105.52 228.14 105.61 227.93L105.08 229.04C105.23 228.74 105.4 228.46 105.61 228.2L104.91 229.06C105.22 228.69 105.57 228.37 105.96 228.09L105.13 228.65C105.63 228.32 106.16 228.1 106.75 227.96L105.81 228.18C106.52 228.04 107.22 228.04 107.93 228.15L106.98 227.98C107.89 228.15 108.78 228.5 109.58 228.98L108.73 228.46L108.87 228.55C109.24 228.92 109.68 229.12 110.18 229.15C110.65 229.3 111.11 229.25 111.57 229.02C112.53 228.61 113.29 227.47 113.6 226.52C114.03 225.22 114.18 223.75 113.85 222.41C113.58 221.28 113.13 220 112.17 219.27L112.15 219.35Z" fill="black"/>
</g>
<defs>
<clipPath id="clip0_3416_10361">
<rect width="243.35" height="294.87" fill="white"/>
</clipPath>
</defs>
</svg>
