<svg width="253" height="245" viewBox="0 0 253 245" fill="none" xmlns="http://www.w3.org/2000/svg">
<g clip-path="url(#clip0_3416_9762)">
<path d="M1.4499 170.5C1.9499 182.96 2.5299 195.78 7.7199 207.12C10.9199 214.1 15.7299 220.2 20.4999 226.22C24.3999 231.14 28.4399 236.19 33.9199 239.25C38.7599 241.95 44.3699 242.9 49.8899 243.46C75.9399 246.13 102.09 241.22 128.19 239.08C144.41 237.75 160.72 237.5 176.98 238.31C185.74 238.75 194.61 239.49 203.22 237.79C211.82 236.09 220.33 231.51 224.5 223.8C225.68 221.63 226.48 219.27 227.27 216.93C234.11 196.52 246.36 176.4 250.39 155.25C255.17 130.21 251.16 90.8902 250.14 65.4302C249.75 55.6202 246.26 45.5502 241.66 36.8802C237.54 29.1102 233.35 23.0802 226.59 17.4402C224.03 15.3002 221.42 13.1702 218.48 11.6002C213.87 9.14017 208.65 8.14017 203.52 7.18017C150.4 -2.76983 109.65 -0.239833 55.6799 2.21017C48.3099 2.54017 27.8899 12.5702 22.3199 17.3902C13.2799 25.2102 10.6399 32.9302 7.7499 43.9002C4.8799 54.8102 3.3399 65.9902 2.1799 77.2002C-1.0201 108.09 -0.180098 139.52 1.4499 170.49V170.5Z" fill="black"/>
</g>
<defs>
<clipPath id="clip0_3416_9762">
<rect width="252.66" height="244.24" fill="white"/>
</clipPath>
</defs>
</svg>
