<svg width="270" height="109" viewBox="0 0 270 109" fill="none" xmlns="http://www.w3.org/2000/svg">
<g clip-path="url(#clip0_3416_9756)">
<path d="M9.14007 92.3998C-4.18993 78.5398 -3.17993 44.2198 13.7601 37.4398C23.9101 33.3798 34.2801 34.7198 44.4801 31.3198C55.7001 27.5898 66.9001 24.4998 78.3001 22.2298C95.9801 18.7098 113.76 16.5398 131.45 12.9698C148.82 9.4698 171.73 5.4398 192.07 2.1398C210.97 -0.920201 237.82 -3.0002 255.02 12.5598C277.08 32.5198 271.54 68.3898 253.01 89.4398C243.2 100.58 229.15 98.7898 217.47 99.8998C208.41 100.76 199.35 101.62 190.29 102.48C170.09 104.41 149.95 106.36 129.72 106.97C110.62 107.54 91.4101 106.09 72.3301 107.48C51.8801 108.97 26.8601 110.79 9.14007 92.3898V92.3998Z" fill="black"/>
</g>
<defs>
<clipPath id="clip0_3416_9756">
<rect width="269.37" height="108.37" fill="white"/>
</clipPath>
</defs>
</svg>
