<svg width="214" height="297" viewBox="0 0 214 297" fill="none" xmlns="http://www.w3.org/2000/svg">
<g clip-path="url(#clip0_3416_10460)">
<path d="M1.88999 248.37C3.21999 247.38 4.05999 245.46 4.89999 244.09C6.75999 241.02 8.56999 237.91 10.39 234.82C15.88 225.52 21.48 216.28 27.42 207.26C33.76 197.64 40.45 188.1 48.26 179.6C51.29 176.3 54.48 173.17 58.18 170.59C59.94 169.36 61.82 168.33 63.62 167.17C65.82 165.76 67.98 164.3 70.12 162.8C80.6 155.47 90.59 147.43 100.33 139.15C110.07 130.87 119.54 122.36 128.47 113.28C131.76 109.94 134.99 106.52 137.92 102.86C139.98 100.29 141.78 97.5201 143.73 94.8701C149.61 86.8701 155.72 79.0401 161.83 71.2301C168.59 62.5901 175.41 53.9801 182.25 45.4001C186.37 40.2401 190.49 35.0801 194.63 29.9301C194.83 29.6801 195.03 29.4401 195.22 29.1901C196.16 28.0201 196.12 25.9401 195.75 24.5701C195.51 23.6601 194.67 22.1701 193.72 23.3601C190.79 27.0001 187.87 30.6501 184.95 34.3001C178.46 42.4201 171.99 50.5601 165.55 58.7301C159.11 66.9001 152.39 75.4901 145.98 83.9901C141.44 90.0001 137.31 96.2901 132.23 101.88C124.3 110.6 115.57 118.61 106.73 126.4C96.8 135.14 86.57 143.59 75.95 151.48C71.57 154.74 67.12 157.91 62.51 160.84C58.84 163.17 55.32 165.39 52.11 168.36C44.05 175.8 37.39 184.72 31.13 193.69C24.87 202.66 18.52 212.81 12.64 222.63C8.98999 228.72 5.62999 235.04 1.67999 240.94C1.49999 241.21 1.31999 241.47 1.12999 241.73C1.05999 241.82 0.959986 241.91 0.909986 242C0.739986 242.32 1.25999 241.7 1.07999 241.84C-0.0700139 242.69 -0.120014 244.71 0.039986 245.99C0.109986 246.59 0.729986 249.19 1.86999 248.35L1.88999 248.37Z" fill="#1D1D1B"/>
<path d="M75.59 289.93C75.55 289.88 75.29 289.53 75.31 289.49C75.3 289.51 75.68 290.2 75.42 289.68C75.35 289.54 75.28 289.41 75.21 289.27C74.89 288.63 74.61 287.98 74.34 287.32C73.97 286.42 73.64 285.5 73.31 284.58C73.09 283.95 73.51 285.21 73.24 284.36C73.15 284.09 73.06 283.81 72.97 283.54C72.77 282.9 72.57 282.25 72.38 281.6C71.5 278.59 70.78 275.53 70.17 272.46C70.08 272.02 70 271.58 69.92 271.14C70.09 272.01 69.82 270.58 69.78 270.36C69.6 269.33 69.43 268.29 69.27 267.25C68.94 265.08 68.66 262.9 68.42 260.72C68.16 258.31 67.96 255.89 67.8 253.47C67.8 253.38 67.74 252.37 67.78 253.14C67.76 252.83 67.75 252.52 67.73 252.21C67.7 251.58 67.67 250.95 67.64 250.32C67.58 248.91 67.54 247.49 67.52 246.08C67.42 240.34 67.59 234.25 67.97 228.92C69.01 214.29 71.62 199.92 75.07 185.68C77.92 173.92 80.97 162.22 84.24 150.58C86.1 143.96 88.09 137.37 89.66 130.68C90.96 125.15 91.85 119.55 92.22 113.87C92.76 105.38 92.5 96.8901 92.32 88.4001C92.04 75.2401 92.05 62.0701 92.45 48.9101C92.58 44.7701 92.74 40.6201 92.96 36.4801C93 35.7701 93.04 35.0601 93.08 34.3501C93.14 33.2601 93.04 34.9701 93.09 34.1701C93.11 33.8501 93.13 33.5301 93.15 33.2101C93.2 32.4001 93.25 31.6001 93.31 30.7901C93.33 30.5301 93.35 30.2701 93.37 30.0101C93.46 28.9101 93.57 26.4601 92.33 25.8601C91.09 25.2601 90.57 27.4501 90.5 28.2201C90.13 32.7201 89.92 37.2401 89.73 41.7501C89.23 53.4801 89.08 65.2301 89.17 76.9801C89.25 87.5501 89.83 98.1301 89.49 108.69C89.46 109.53 89.43 110.37 89.39 111.22C89.39 111.41 89.37 111.59 89.36 111.78C89.36 111.92 89.31 112.59 89.35 111.98C89.39 111.37 89.35 112.03 89.34 112.17C89.33 112.38 89.31 112.59 89.3 112.8C89.2 114.23 89.07 115.65 88.91 117.07C88.76 118.41 88.57 119.75 88.35 121.09C88.3 121.41 88.25 121.72 88.19 122.04C88.15 122.25 87.96 123.28 88.07 122.74C88.18 122.2 87.99 123.16 87.95 123.36C87.88 123.7 87.81 124.05 87.74 124.39C86.43 130.68 84.59 136.85 82.84 143.03C79.84 153.64 76.96 164.29 74.3 174.99C70.58 189.9 67.28 204.87 65.71 220.19C64.46 232.35 64.16 244.6 65.04 256.8C65.64 265.1 66.83 273.39 68.86 281.46C69.94 285.76 71.17 290.24 73.2 294.21C73.47 294.74 73.76 295.28 74.1 295.78C74.98 297.04 75.91 295.39 76.13 294.57C76.51 293.15 76.47 291.21 75.6 289.95L75.59 289.93Z" fill="#1D1D1B"/>
<path d="M65.69 229.3C65.09 228.25 64.29 227.32 63.66 226.28C63.13 225.41 62.74 224.6 62.29 223.44C61.84 222.28 61.63 221.52 61.33 220.17C61.03 218.82 60.79 217.46 60.57 216.09C60.53 215.85 60.41 215.55 60.44 215.31C60.34 216.1 60.47 215.5 60.44 215.21C60.38 214.56 60.34 215.65 60.42 215.25C60.51 214.78 60 216.04 60.24 215.68C60.45 215.36 60.05 215.86 60.05 215.88C60.07 215.74 60.4 215.83 60.46 215.84C60.6 215.86 60.89 216.02 61.12 216.23C61.26 216.36 61.26 216.36 61.14 216.23L61.32 216.46C61.49 216.7 61.65 216.94 61.8 217.19C62.08 217.65 62.34 218.13 62.63 218.59C63.33 219.68 64.37 221.02 65.67 221.39C67.05 221.79 67.93 220.58 68.24 219.37C68.59 217.99 68.38 216.16 67.23 215.18C66.6 214.64 66.37 214.58 65.97 214.02C65.57 213.46 65.25 212.83 64.89 212.23C64.09 210.9 62.96 209.6 61.43 209.12C57.4 207.88 55.66 212.47 55.93 215.69C56.22 219.14 57.04 222.72 58.19 225.98C58.75 227.57 59.49 229.08 60.32 230.54C61.1 231.91 62.01 233.43 63.24 234.42C64.3 235.27 65.44 234.61 65.96 233.52C66.62 232.14 66.43 230.58 65.69 229.28V229.3Z" fill="#1D1D1B"/>
<path d="M77.35 180.14C81.2 178.03 84.14 174.74 87.49 171.93C89.13 170.55 90.82 169.11 92.64 167.99C93.46 167.48 94.39 166.96 95.33 166.74C95.77 166.64 96.27 166.58 96.72 166.63C96.92 166.63 97.11 166.67 97.29 166.76C97.87 167.06 97.83 166.92 97.17 166.33L96.83 164.63C96.93 165.66 96.86 164.43 96.9 164.44C96.9 164.44 96.45 165.1 96.39 165.18C95.91 165.79 95.35 166.35 94.83 166.91C93.71 168.12 92.55 169.31 91.39 170.48C89.1 172.78 86.74 175.01 84.41 177.27C79.6 181.92 74.9 186.67 70.94 192.07C69.85 193.56 70.05 196.18 71.08 197.64C72.11 199.1 73.72 198.96 74.73 197.55C80.36 189.72 87.65 183.3 94.21 176.28C95.88 174.5 97.51 172.67 99.03 170.77C100.87 168.47 102.03 165.35 100.79 162.47C99.68 159.89 96.6 159.54 94.2 160.19C91.8 160.84 89.84 162.42 87.94 163.88C83.27 167.46 78.58 171.4 75.99 176.78C75.63 177.54 75.49 178.43 75.84 179.23C76.07 179.76 76.7 180.48 77.36 180.12L77.35 180.14Z" fill="#1D1D1B"/>
<path d="M40.88 190.44C42.88 189.86 44.5 188.68 46.22 187.53C47.94 186.38 49.81 185.29 51.75 184.46C55.63 182.81 59.63 182.55 63.57 184.2C63.83 184.31 64.14 184.54 64.42 184.6C66.21 185.02 64.47 184.83 64.64 184.76C64.7 184.73 64.21 182.77 64.36 182.8C64.31 182.8 63.23 183.57 62.94 183.72C61 184.75 58.96 185.62 56.91 186.42C52.89 187.98 48.72 189.16 44.46 189.88C41.99 190.29 39.5 190.53 37 190.7C34.5 190.87 31.98 191.18 30.1 192.91C28.73 194.17 28.6 196.51 29.1 198.17C29.48 199.43 30.81 201.39 32.41 200.52C33.25 200.06 34.1 199.6 35.05 199.4C36.23 199.14 37.46 199.1 38.66 198.97C41.27 198.69 43.86 198.25 46.42 197.67C51.56 196.51 56.56 194.84 61.32 192.55C63.6 191.45 66.21 190.33 67.72 188.2C69.53 185.66 69.68 181.73 67.69 179.25C66.05 177.21 63.08 176.52 60.6 176.25C58.12 175.98 55.54 176.35 53.13 177.02C50.58 177.73 48.19 178.95 45.95 180.36C43.31 182.01 40.99 183.77 39.18 186.33C38.3 187.58 38.78 191.05 40.87 190.44H40.88Z" fill="#1D1D1B"/>
<path d="M34.43 190.51C35.45 187.98 35.49 185.32 35.74 182.62C35.99 179.92 36.28 177.21 36.67 174.51C37.42 169.31 38.51 164.15 39.97 159.11C40.51 157.24 40.92 155.6 42.21 154.42C42.55 154.11 43.29 153.68 43.59 153.59C43.53 153.61 43.48 153.41 43.46 153.38C43.33 153.28 43.58 153.86 43.61 153.99C43.74 154.57 43.78 154.87 43.81 155.51C43.92 158 43.64 160.28 43.37 162.83C43.1 165.38 42.78 167.77 42.3 170.22C41.32 175.26 39.69 180.45 37.12 185C36.16 186.71 36.1 189.13 37.26 190.77C38.24 192.16 40.17 192.32 41.05 190.68C43.97 185.19 45.82 179.3 46.95 173.2C47.49 170.32 47.88 167.4 48.17 164.48C48.48 161.33 48.88 158.09 48.65 154.93C48.44 151.96 47.75 146.91 44.06 146.4C41.3 146.02 38.89 148.45 37.65 150.67C36.19 153.28 35.55 156.2 34.87 159.09C34.14 162.22 33.53 165.37 33.01 168.54C32.44 172.02 31.95 175.51 31.61 179.02C31.43 180.91 31.3 182.81 31.23 184.71C31.15 186.78 31.36 188.6 31.99 190.57C32.46 192.03 33.94 191.73 34.43 190.51Z" fill="#1D1D1B"/>
<path d="M93.96 111.65C94.96 111.65 95.6 111.35 96.4 110.74C97.11 110.2 97.75 109.58 98.35 108.92C99.56 107.61 100.66 106.16 101.58 104.63C102.05 103.83 102.46 103 102.85 102.16C103.14 101.54 103.55 100.54 103.74 100.2C104.07 99.6098 104.3 99.2098 104.91 98.9298C105.17 98.8098 105.36 98.7398 105.66 98.7798C106.15 98.8498 105.76 98.7998 105.77 98.8098C106.33 98.9498 105.78 98.7698 106.02 98.9498L106.12 99.0398C105.97 98.8698 105.96 98.8598 106.08 99.0298L106.16 99.1498L106.04 98.9298C105.92 98.2098 106.02 98.7598 106.03 98.8898C106.03 98.7698 106.03 98.5398 105.99 98.4298C105.87 98.0298 105.89 98.8798 105.97 98.5398C106.05 98.2198 105.89 98.7698 105.88 98.7698C105.62 99.4398 105.73 99.2298 105.46 99.7198C105.11 100.37 104.73 101 104.31 101.6C103.76 102.4 103.63 102.55 103.17 103.07C101.05 105.46 98.47 107.48 95.86 109.29C95.53 109.52 95.7 109.4 95.28 109.68C94.96 109.89 94.64 110.1 94.32 110.3C93.59 110.77 92.85 111.21 92.12 111.68C90.68 112.61 89.97 114.36 90.08 116.06C90.12 116.66 90.2 117.26 90.44 117.83C90.79 118.65 91.02 118.65 91.93 119.17C92.9 119.73 92.95 120.04 93.9 119.56C94.14 119.44 94.37 119.27 94.59 119.13C97.42 117.34 100.23 115.46 102.75 113.25C105.27 111.04 107.41 108.34 108.89 105.4C110.77 101.64 112.09 95.9998 108.35 92.8198C106.64 91.3698 104.49 91.4598 102.71 92.6998C100.84 93.9998 100.02 96.1398 99.17 98.1698C98.61 99.5198 97.7 101.12 96.65 102.39C95.33 104 93.57 105.14 92.59 107C91.91 108.29 91.84 111.64 93.98 111.65H93.96Z" fill="#1D1D1B"/>
<path d="M89.73 106.79C89 106.22 88.47 105.47 87.77 104.88C87.11 104.33 86.43 103.83 85.8 103.24C84.58 102.09 83.59 100.71 82.49 99.3701C81.28 97.9001 79.72 95.7801 77.6 95.8401C75.73 95.8901 74.14 97.3501 73.26 98.8901C71.08 102.71 71.87 107.43 74.11 111.01C75.12 112.63 76.47 114.05 77.75 115.45C78.89 116.7 80.09 117.91 81.54 118.81C82.47 119.4 83.41 119.86 84.5 120.09C85.59 120.32 86.68 120.29 87.7 120.63C87.84 120.67 87.96 120.73 88.1 120.78C88.36 120.88 87.96 120.65 88.34 120.91C88.85 121.26 88.42 121.04 88.38 120.91C88.32 120.72 87.87 119.47 88.21 120.6C88.64 122 90 124.08 91.75 123.16C93.5 122.24 93.66 120.01 93.43 118.3C93.31 117.39 92.57 115.73 91.5 115.51C90.51 115.31 89.69 115.59 89.16 116.52L89.11 116.61C88.5 117.68 88.33 118.95 88.58 120.16C88.75 120.97 89.32 122.48 90.31 122.66H90.38C89.79 121.83 89.21 120.98 88.62 120.14L88.64 120.23L88.82 117.33L88.79 117.41L89.66 116.01L89.59 116.06L90.87 115.49L91.29 115.56L92.45 116.54C92.52 116.63 93.18 118.63 92.77 117.27C92.7 117.04 92.63 116.78 92.54 116.55C92.34 116.08 92.08 115.6 91.76 115.2C91.14 114.42 90.41 113.84 89.51 113.42C88.07 112.75 86.45 112.99 84.96 112.64C82.5 112.07 80.46 109.7 78.96 107.93C78.53 107.42 78.1 106.9 77.71 106.35C77.49 106.03 77.27 105.71 77.08 105.37C77.05 105.3 76.89 105.03 77.08 105.37C76.99 105.17 76.91 104.97 76.82 104.76C76.75 104.61 76.66 104.11 76.79 104.73C76.76 104.6 76.74 104.46 76.7 104.33C76.57 103.92 76.77 104.6 76.72 104.61C76.72 104.61 76.7 104.23 76.7 104.2C76.7 104.17 76.7 103.79 76.7 103.79C77.01 103.83 76.49 104.49 76.73 103.93C76.75 103.87 76.89 103.42 76.74 103.84C76.59 104.26 76.81 103.71 76.84 103.64C76.95 103.3 76.81 103.74 76.78 103.78C76.89 103.64 76.96 103.48 77.07 103.34C76.78 103.71 77.2 103.25 77.33 103.15C77.52 103.01 77.51 102.95 77.78 102.92C77.96 102.9 78.15 103.02 77.97 102.92C79.13 103.55 80.09 105 80.9 105.99C81.99 107.33 83.13 108.82 84.55 109.83C85.28 110.35 86.18 110.99 87.11 111.04C87.9 111.08 88.75 110.83 89.5 110.61C90.86 110.19 90.66 107.51 89.73 106.79Z" fill="#1D1D1B"/>
<path d="M93.5 69.6399C98.41 70.1899 100.14 65.0599 101.48 61.3099C102.82 57.5599 104.53 53.5599 106.98 50.1499C107.05 50.0499 107.56 49.4799 107.42 49.4999C107.36 49.5099 107.31 49.4799 107.5 49.6099C107.81 49.8099 107.84 49.8999 107.99 50.1799C107.8 49.8299 108.04 50.3299 108.04 50.3699C108.13 50.8199 107.93 49.8099 108.04 50.3699C107.95 49.8799 107.99 51.2199 108.04 50.7599C107.98 51.3299 107.93 51.4799 107.8 51.8699C107.48 52.8599 107.09 53.8399 106.69 54.7999C105.62 57.4299 104.34 60.4299 101.81 61.7799C100.02 62.7399 98.23 62.8799 96.26 63.3499C94.05 63.8799 92.25 64.8499 90.9 66.7099C89.85 68.1599 89.97 70.6399 90.82 72.1299C91.51 73.3399 93.1 74.4299 94.34 73.1099C95.58 71.7899 96.88 71.4199 98.84 70.9199C100.8 70.4199 102.58 69.9399 104.25 68.7899C107.85 66.3199 109.66 62.0799 111.13 58.1199C112.04 55.6499 112.86 53.1099 112.76 50.4399C112.67 47.9299 111.75 45.0299 109.68 43.4599C108.7 42.7199 107.53 42.2099 106.31 42.6599C105.09 43.1099 104.32 44.3099 103.62 45.3199C102.19 47.3899 101.05 49.6299 99.99 51.9199C98.87 54.3599 97.98 56.8799 97.05 59.3999C96.6 60.6199 96.1 61.6899 95.34 62.7499C94.66 63.6999 94 64.7399 92.98 65.3699C91.6 66.2199 91.54 69.4199 93.47 69.6399H93.5Z" fill="#1D1D1B"/>
<path d="M92.58 64.6501C92.91 62.1701 91.94 59.9301 91.2 57.6101C90.64 55.8501 90.31 53.6301 89.1 51.9501C87.89 50.2701 85.96 49.0001 84.22 48.0701C82.58 47.1901 80.52 46.8801 78.78 47.7001C74.84 49.5601 73.77 54.9201 74.77 58.7701C75.77 62.6201 78.37 66.1701 81.57 68.6401C82.96 69.7101 84.5 70.6001 85.82 71.7601C85.97 71.8901 86.11 72.0301 86.25 72.1601C86.7 72.5501 86.17 71.9901 86.38 72.2801C86.64 72.6401 86.9 72.9901 87.13 73.3801C87.72 74.3701 88.84 75.5901 90.14 75.2901C91.28 75.0301 92.14 74.3501 92.47 73.1501C92.89 71.6301 92.9 70.3301 92.4 68.8201C92.06 67.7901 91.25 67.1501 90.22 67.0001C90.5 67.0401 91.01 66.8601 90.31 66.9601L89.94 66.8901L91.13 67.7301C91.14 67.6201 90.8 67.1901 90.73 67.0901C90.29 66.4101 89.72 65.7901 89.15 65.2101C88.28 64.3301 87.25 63.6401 86.21 62.9701C85.12 62.2601 84.02 61.5701 83.03 60.7301C82.61 60.3701 81.94 59.7201 81.72 59.4801C81.47 59.2001 80.86 58.4201 80.52 57.9101C80.33 57.6301 80.15 57.3501 79.99 57.0601C80.26 57.5301 79.89 56.8201 79.83 56.6601C79.72 56.3901 79.59 55.7401 79.7 56.3501C79.67 56.1901 79.64 56.0201 79.6 55.8701C79.45 55.3201 79.63 56.5101 79.62 55.9401C79.6 55.3401 79.47 56.6101 79.6 56.0901C79.6 56.0601 79.68 55.7001 79.67 55.6901C79.7 55.7101 79.47 56.3801 79.62 55.9801C79.76 55.6101 79.52 56.1201 79.51 56.1501C79.64 55.9101 79.78 55.6801 79.94 55.4501C79.62 55.9001 80.1 55.3401 80.27 55.2101C80.53 55.0001 80.26 55.2301 80.22 55.2501C80.34 55.1901 80.46 55.1301 80.58 55.0801C80.89 54.9501 80.86 54.9701 81.04 54.9601C81.71 54.9001 82.13 55.0301 82.77 55.3001C83.91 55.7901 85.04 56.5901 85.96 57.4601C86.07 57.5701 86.21 57.6801 86.31 57.8101C86.13 57.5701 86.37 57.9701 86.38 58.0101C86.37 57.9601 86.2 57.6501 86.35 58.0101C86.43 58.2101 86.52 58.4001 86.6 58.6001C86.93 59.4201 87.2 60.2501 87.47 61.0901C88.05 62.8901 88.39 65.1501 89.95 66.3701C91.28 67.4001 92.43 65.9001 92.6 64.6401L92.58 64.6501Z" fill="#1D1D1B"/>
<path d="M93.91 28.8599C94.33 28.0299 94.79 27.2199 95.16 26.3699C95.53 25.5199 95.77 24.5599 96.04 23.6699C96.22 23.0599 96.36 22.4299 96.51 21.8099C96.57 21.5699 96.63 21.3399 96.68 21.0999C96.78 20.6699 96.52 21.6899 96.64 21.2599C96.74 20.9299 96.82 20.6099 96.93 20.2899C96.99 20.1099 97.06 19.9399 97.13 19.7599C97.16 19.6899 97.19 19.6199 97.22 19.5499C97.31 19.3499 97.28 19.4099 97.13 19.7499C97.13 19.7499 97.33 19.3999 97.35 19.3799C97.58 18.9499 97.16 19.5199 97.37 19.3199C97.47 19.2199 97.56 19.1099 97.67 19.0199C97.82 18.8799 98.05 18.7799 97.76 18.9299C98.51 18.5399 98.53 18.5599 99.37 18.4799C100.92 18.3499 102.6 18.3999 103.97 17.5399L101.29 12.5499C101.26 12.6299 101.01 13.2699 101.19 12.8799C101.37 12.4899 101.02 13.1599 101.01 13.1699C100.81 13.4899 100.59 13.7899 100.37 14.0799C100.31 14.1599 99.95 14.6099 100.27 14.2099C100.07 14.4599 99.86 14.7099 99.66 14.9599C99.41 15.2799 99.16 15.5899 98.92 15.9299C98.06 17.1399 97.37 18.4499 96.71 19.7799C96.05 21.1099 95.45 22.3799 94.74 23.6299C94.38 24.2699 93.98 24.8799 93.55 25.4699C93.22 25.9299 93.78 25.2299 93.53 25.4999C93.4 25.6399 93.28 25.7899 93.15 25.9299C92.88 26.2099 92.6 26.4699 92.31 26.7299C90.98 27.8799 90.85 30.3999 91.55 31.9099C92.18 33.2699 93.6 34.4099 94.97 33.1799C97.64 30.7899 99.04 27.5099 100.47 24.2999C100.63 23.9399 100.8 23.5699 100.96 23.2099C101.12 22.8499 100.96 23.0899 100.92 23.2999C100.95 23.1199 101.16 22.8199 101.24 22.6599C101.58 21.9899 101.95 21.3399 102.38 20.7099C103.46 19.1399 104.71 17.7999 105.29 15.9299C105.68 14.6699 105.65 13.2799 105.02 12.1099C104.63 11.3799 103.55 10.3199 102.61 10.9299C102.29 11.1399 101.96 11.2799 101.6 11.4199C100.99 11.6499 101.78 11.3999 101.42 11.4699C101.23 11.4999 101.04 11.5299 100.85 11.5499C100.07 11.6399 99.29 11.6599 98.52 11.7999C96.53 12.1599 94.95 13.1599 93.94 14.9599C92.93 16.7599 92.55 18.6399 92.09 20.5699C91.57 22.7999 91.43 25.0499 91.36 27.3299C91.34 28.0399 91.67 29.0099 92.32 29.3599C92.9 29.6799 93.61 29.4699 93.92 28.8599H93.91Z" fill="#1D1D1B"/>
<path d="M94.56 20.9199C93.94 20.1099 93.6 19.1599 93.05 18.2999C92.6 17.5899 92.26 16.8699 91.96 16.0899C91.24 14.2099 90.95 12.2299 90.59 10.2599C89.83 6.16989 88.46 0.60989 83.51 0.0298897C79.35 -0.45011 76.99 4.51989 76.67 7.93989C76.22 12.7499 77.91 17.2299 80.31 21.3099C81.46 23.2699 82.81 25.0899 84.08 26.9699C84.7 27.8799 85.3 28.8099 85.85 29.7699C86.35 30.6299 86.86 31.9499 87.55 33.0399C88.32 34.2599 89.87 34.6199 90.96 33.6199C92.19 32.4999 92.51 30.3099 92.13 28.7699C90.94 24.0199 87.21 20.2999 84.53 16.3499C83.97 15.5299 83.38 14.5999 83.02 13.8799C82.83 13.4999 82.66 13.1099 82.5 12.7199C82.39 12.4599 82.29 12.1999 82.2 11.9299C82.05 11.4899 82.02 11.3999 82.11 11.6799C81.96 11.1499 81.84 10.5999 81.77 10.0499C81.84 10.6499 81.77 9.16989 81.77 9.01989C81.74 9.52989 81.75 9.54989 81.81 9.08989C81.69 9.48989 81.69 9.47989 81.81 9.05989C81.88 8.84989 81.96 8.63989 82.05 8.42989C81.93 8.68989 81.93 8.70989 82.05 8.49989C82.13 8.35989 82.22 8.22989 82.32 8.09989C82.16 8.31989 82.2 8.29989 82.45 8.02989C82.07 8.29989 83.12 7.72989 82.8 7.80989C83.44 7.64989 84.16 7.97989 84.51 8.31989C85.72 9.51989 85.98 11.9099 86.42 13.6299C86.99 15.8699 87.53 18.1899 88.55 20.2799C89.06 21.3199 89.63 22.3799 90.37 23.2699C91.11 24.1599 92.08 24.5199 93.1 24.9799C93.92 25.3399 94.62 24.4899 94.86 23.8299C95.18 22.9399 95.13 21.6899 94.54 20.9099L94.56 20.9199Z" fill="#1D1D1B"/>
<path d="M125.19 110.13C126.21 107.58 125.68 104.51 125.37 101.86C125.12 99.6697 124.81 97.4997 124.64 95.2997C124.47 93.0997 124.36 90.9797 124.64 88.8397C124.73 88.0997 124.95 86.6497 125.1 86.3797C125.21 86.1697 125.33 85.9897 125.43 85.9497C125.04 86.0897 125.3 85.6297 125.34 86.0197C125.4 86.6997 126.11 87.8097 126.34 88.5797C126.63 89.5397 126.84 90.5297 127.01 91.5197C127.32 93.3497 127.38 95.4097 127.31 97.4597C127.18 101.36 126.15 105.86 124.95 109.78C124.44 111.44 124.54 114.47 126.55 115.22C128.67 116.01 129.53 113.06 129.56 111.55C129.54 111.83 129.56 111.74 129.65 111.3C129.95 110.03 129.48 108.02 128.27 107.35C127.06 106.68 126.02 107.64 125.54 108.8L125.81 108.43L129.28 113.44C131.79 104.82 133.27 95.4497 130.65 86.6697C130.02 84.5697 129.31 82.1297 127.8 80.4897C126.29 78.8497 124.11 78.9297 122.65 80.5897C121.09 82.3697 120.62 84.8797 120.34 87.1497C120.06 89.4197 120 91.8897 120.15 94.2497C120.31 96.9597 120.68 99.6597 121 102.36C121.3 104.89 121.26 107.85 122.3 110.2C123 111.79 124.57 111.72 125.2 110.13H125.19Z" fill="#1D1D1B"/>
<path d="M137.85 102.01C139.12 102.18 140.2 101.58 141.36 101.13C142.62 100.65 143.93 100.27 145.24 99.9401C147.65 99.3201 150.12 98.9601 152.6 98.7601C155.08 98.5601 157.57 98.5501 160.05 98.7301C161.06 98.8001 162.38 98.9101 163.1 99.0701C163.54 99.1601 163.98 99.2801 164.39 99.4401C164.59 99.5201 164.79 99.6201 164.98 99.7101C164.59 99.5201 165.14 100.06 164.96 99.7101C164.74 99.2801 164.68 99.1801 164.58 98.6401L164.46 98.0101C164.4 97.4601 164.5 96.9701 164.76 96.5301L164.85 96.3601C164.65 96.6501 164.62 96.7101 164.77 96.5401C165.05 96.2401 164.56 96.7501 164.5 96.8101C163.85 97.4201 163.35 97.6901 162.39 98.1401C159.99 99.2601 157.49 100.23 155 101.13C150.18 102.86 145.2 104.07 140.19 105.11C134.76 106.24 129.16 107.29 124.4 110.28C122.49 111.48 121.84 114.04 122.36 116.18C122.7 117.57 124.29 120.67 126.28 119.41C130.89 116.49 136.22 115.46 141.47 114.32C147.46 113.03 153.28 111.18 158.96 108.88C161.59 107.82 164.34 106.78 166.64 105.1C169.41 103.08 170.58 99.7501 170.01 96.4001C168.85 89.5601 160.97 90.1401 155.76 90.6501C152.46 90.9701 149.19 91.6401 145.99 92.5501C144.39 93.0001 142.82 93.5501 141.26 94.1501C139.63 94.7801 137.88 95.2501 136.73 96.6501C135.53 98.1201 135.37 101.67 137.82 102L137.85 102.01Z" fill="#1D1D1B"/>
<path d="M163.89 68.2499C164.79 65.9699 163.58 63.1599 163.16 60.8399C162.8 58.8499 162.69 57.0999 162.5 54.9899C162.4 53.8599 162.32 52.7199 162.28 51.5899C162.26 51.0799 162.24 50.5699 162.24 50.0599C162.24 49.9099 162.33 48.9399 162.24 49.5799C162.27 49.3399 162.3 49.0999 162.34 48.8599C162.24 49.1699 162.25 49.1199 162.38 48.7099C162.42 48.5799 162.73 48.0499 162.51 48.3199C162.84 47.9099 163.33 47.5899 163.87 47.4999C163.65 47.5399 164.72 47.5399 164.28 47.4599C164.46 47.5099 164.63 47.5699 164.8 47.6499C164.7 47.6299 164.64 47.5799 164.61 47.4799C164.83 47.7999 164.85 47.8299 164.68 47.5699C164.59 47.1899 164.59 47.2099 164.68 47.6199C164.75 48.0299 164.76 48.0499 164.71 47.6899C164.73 47.8999 164.74 48.1099 164.74 48.3099C164.76 48.9799 164.71 49.7799 164.44 50.8199C164.33 51.2499 163.86 52.5499 163.56 53.2799C162.58 55.6699 161.69 57.9899 162.18 60.6299C162.56 62.6699 164.65 66.9499 167.23 64.5699L166.05 65.0899C166.22 65.0499 166.4 65.0299 166.57 65.0499C168 65.0499 168.6 63.1899 168.67 62.0699C168.76 60.6399 168.32 59.1299 166.99 58.4099L166.73 58.2699L167.75 59.1299L167.56 58.9099L168.21 60.4799C168.08 59.7399 167.81 59.0299 167.39 58.4099C167.31 58.2899 167.23 58.1699 167.13 58.0499C166.99 57.8799 167.01 57.7099 167.04 57.9799C167.05 58.1399 167.2 58.3599 167.23 58.5299C167.28 58.7699 167.2 59.0999 167.26 59.3199C167.26 59.2899 167.41 58.7399 167.31 59.0499C167.23 59.3299 167.46 58.6699 167.49 58.5999C168.2 56.6599 168.87 54.7599 169.3 52.7299C170.07 49.0799 170.2 43.3299 166.77 40.8799C163.34 38.4299 159.69 41.2399 158.32 44.3899C156.78 47.9299 157.31 52.2399 157.71 55.9699C157.96 58.3199 158.44 60.6599 158.92 62.9799C159.34 65.0099 159.63 68.7599 161.71 69.6799C162.74 70.1399 163.56 69.0699 163.88 68.2599L163.89 68.2499Z" fill="#1D1D1B"/>
<path d="M167.11 66.4598C168.12 67.0798 169.09 67.4998 170.29 67.4798C171.41 67.4598 172.53 67.2298 173.66 67.1598C175.87 67.0098 177.97 66.5998 180.13 66.0898C182.01 65.6498 183.93 65.0898 185.86 64.9898C186.66 64.9498 187.21 64.9498 187.85 65.2298C188.07 65.3198 188.2 65.2898 188.27 65.5398C188.24 65.4498 188.02 65.2998 187.97 65.1798C187.86 64.9198 187.81 64.6698 187.77 64.3898L187.79 63.9498L187.73 64.3098C187.73 64.3098 187.8 63.6098 187.75 64.1398C187.7 64.6698 187.99 63.7398 187.75 64.2198C187.67 64.3798 187.58 64.5298 187.49 64.6898C187.37 64.8898 187.23 65.0898 187.09 65.2798C187.13 65.2198 187.37 64.9498 187.1 65.2598C186.79 65.6198 186.44 65.9498 186.08 66.2598C185.13 67.0598 183.38 67.8998 182.13 68.0998C177.77 68.8198 174.35 67.0198 170.51 65.2798C166.39 63.4198 160.89 63.3498 158.49 67.9098C157.41 69.9498 157.27 72.7098 158.66 74.6698C159.8 76.2798 162.09 76.4998 163.1 74.5598C163.2 74.3598 163.31 74.1898 163.42 73.9998C163 74.6898 163.28 74.0798 163.44 74.0598C163.41 74.0598 164.12 73.6898 163.49 74.0198C163.68 73.9198 163.88 73.8298 164.08 73.7398C164.28 73.6498 164.5 73.5798 164.71 73.5298C164.63 73.5498 164.34 73.5998 164.71 73.5598C165.21 73.4998 165.72 73.4698 166.22 73.5198C167.96 73.6798 170.21 75.0498 172.04 75.8298C176.4 77.6998 181.62 78.2298 186 76.1098C190.38 73.9898 193.61 69.2998 193.54 64.2398C193.5 61.3998 192.22 58.2698 189.48 57.0598C187.49 56.1798 185.23 56.6398 183.22 57.1598C180.64 57.8298 178.04 58.6198 175.53 59.5098C174.29 59.9498 173.04 60.4298 171.73 60.5898C170.22 60.7698 168.82 60.7898 167.44 61.5198C165.99 62.2898 165.62 65.5198 167.14 66.4598H167.11Z" fill="#1D1D1B"/>
<path d="M185.54 36.5101C185.48 35.2001 185.43 34.2501 185.24 32.9501C185.1 31.9501 185.01 31.5201 184.95 30.7601C184.87 29.7201 184.86 28.6901 184.92 27.6501C184.89 28.2401 184.97 27.1201 184.97 27.0801C185.02 26.5701 185.08 26.0601 185.15 25.5601C185.28 24.6701 185.4 23.7701 185.56 22.8801C185.58 22.7501 185.92 21.3801 185.73 22.0201C185.77 21.8901 186.19 20.7401 186 21.1501C186.03 21.0901 186.59 20.2401 186.24 20.6801C186.38 20.5301 186.52 20.3801 186.67 20.2401C186.94 20.0201 186.99 19.9801 186.8 20.1101C186.96 20.0101 187.7 19.7701 187.54 19.7901C187.73 19.7701 187.92 19.7701 188.11 19.7901C187.8 19.8401 187.54 19.7101 187.32 19.4001L186.61 17.6601C186.68 17.8701 186.73 18.0801 186.75 18.2901C186.71 17.9401 186.71 17.9101 186.75 18.2001C186.79 18.6501 186.84 19.1001 186.87 19.5601C186.93 20.3401 186.97 21.1201 186.99 21.8901C187.04 23.7101 186.82 25.5701 187.16 27.3701C187.53 29.3201 188.57 31.4701 190.6 32.1101C193.1 32.9001 194.62 30.6401 194.96 28.4601C195.26 26.5501 194.39 23.5301 191.96 24.1201C193.01 24.1401 193.05 24.0901 192.07 23.9701C191.92 23.9501 191.77 23.9401 191.62 23.9201C191.3 23.9101 191.3 23.9201 191.63 23.9401C191.82 24.0501 191.97 24.2101 192.08 24.4101C192.2 24.6101 192.3 24.8201 192.36 25.0501C192.41 25.5501 192.42 25.6401 192.41 25.3301C192.43 24.9301 192.41 24.5101 192.41 24.1101C192.41 21.9301 192.23 19.7601 191.97 17.6001C191.69 15.2001 191.06 12.2701 188.21 11.9101C186.49 11.6901 184.74 12.6101 183.59 13.8501C180.65 17.0201 180.19 22.1001 180.19 26.2301C180.19 30.3601 180.51 34.8601 182.53 38.5301C182.92 39.2401 183.85 39.4901 184.51 39.0501C185.29 38.5301 185.6 37.4101 185.55 36.5201L185.54 36.5101Z" fill="#1D1D1B"/>
<path d="M192.43 27.4198C193.38 27.2498 194.3 26.9998 195.17 26.5798C196.04 26.1598 196.78 25.4698 197.54 24.8898C198.98 23.7998 200.41 22.6598 201.92 21.6598C203.15 20.8498 204.73 19.9398 206.06 19.7098C206.79 19.5898 207.62 19.5298 208.36 19.6798C208.19 19.6698 208.27 19.6898 208.58 19.7598C208.77 19.8198 208.96 19.8898 209.15 19.9698C209.44 20.1298 209.51 20.1498 209.34 20.0298C209.97 20.5398 209.83 20.1298 208.93 18.8098L208.88 16.7398C208.9 16.5598 209.29 15.8998 209.04 16.1498C209.01 16.1798 208.67 16.6798 208.86 16.4398C209.08 16.1698 208.57 16.7398 208.52 16.7898C208.38 16.9298 208.23 17.0698 208.08 17.1998C207.74 17.4998 207.37 17.7798 207.01 18.0398C206.91 18.1098 206.45 18.4398 206.76 18.2198C206.59 18.3298 206.42 18.4398 206.26 18.5498C204.29 19.8598 202.31 21.1898 200.41 22.6098C198.66 23.9198 196.94 25.2898 195.25 26.6798C194.4 27.3798 193.57 28.0798 192.73 28.7898C191.86 29.5398 190.88 30.2598 190.16 31.1598C188.93 32.6798 188.58 34.5598 189.16 36.4498C189.52 37.6298 190.92 39.7798 192.49 38.8098C194.15 37.7798 195.54 36.3198 197.02 35.0598C198.5 33.7998 199.92 32.6298 201.4 31.4498C204.23 29.1998 207.19 27.0998 209.99 24.8198C211.46 23.6298 212.7 22.1598 213.44 20.3998C214.6 17.6498 213.77 14.4098 211.14 12.9498C207.81 11.0998 204 12.5798 201.14 14.5598C199.46 15.7198 197.89 17.0698 196.26 18.3098C195.4 18.9698 194.46 19.5698 193.65 20.2898C192.7 21.1398 191.9 22.3098 191.24 23.3698C190.77 24.1198 190.71 25.1698 190.98 25.9898C191.16 26.5398 191.69 27.5598 192.45 27.4198H192.43Z" fill="#1D1D1B"/>
<path d="M189.82 38.5398C190.9 38.8898 191.74 38.5898 192.82 38.4398C193.9 38.2898 194.94 38.2398 195.99 38.1798C198.02 38.0798 200.08 38.0998 202.12 38.1898C204.03 38.2798 205.92 38.5998 207.7 39.3398C208.32 39.5998 208.34 39.8698 207.8 38.9498C207.45 38.3398 207.53 38.3698 207.36 37.8798C207.31 37.7498 207.51 36.8798 207.35 37.7298C207.48 37.0098 207.35 37.6298 207.23 37.9798C207.49 37.2998 206.95 38.3798 206.79 38.5798C207.1 38.1698 206.54 38.8198 206.42 38.9298C206.16 39.1798 205.88 39.4198 205.59 39.6298C205.87 39.4298 205.03 39.9398 204.91 39.9998C204.49 40.2098 204.04 40.3898 203.59 40.5298C201.83 41.0998 199.85 41.0598 198.03 40.9298C196.21 40.7998 194.34 40.5798 192.56 40.0798C190.49 39.5098 189.12 38.5698 187.46 37.7398C185.38 36.6998 183.17 37.0698 181.31 38.3498C179 39.9398 177.64 42.2498 176.98 44.9398C176.65 46.2898 177.03 48.0998 177.83 49.2298C178.41 50.0398 179.64 50.9298 180.69 50.2998C181.21 49.9898 181.68 49.6698 182.1 49.2298C182.32 48.9998 183.39 47.7298 183.12 48.0398C182.85 48.3498 183.27 47.8798 183.29 47.8598C183.46 47.6898 183.63 47.5098 183.81 47.3498C183.97 47.1998 184.17 47.0198 184.36 46.8998C183.96 47.1498 184.47 46.8998 184.64 46.8298C184.97 46.6898 184.69 46.7798 184.59 46.7998C184.79 46.7598 185.05 46.7498 185.26 46.7598C185.12 46.7498 184.77 46.5498 185.49 46.8398C185.72 46.9398 185.95 47.0298 186.18 47.1498C187.09 47.6098 187.92 48.1698 188.87 48.5598C191.07 49.4798 193.48 49.8698 195.83 50.1298C198.03 50.3798 200.29 50.4998 202.49 50.1298C207.14 49.3398 211.33 46.4498 212.69 41.7398C213.51 38.8898 213.66 35.2498 211.81 32.7498C210.25 30.6398 207.47 30.1898 205.03 29.8798C202.31 29.5298 199.71 29.7998 197.06 30.4098C195.75 30.7098 194.46 31.0598 193.17 31.4398C191.77 31.8498 190.35 31.9698 189.2 32.9198C187.81 34.0698 187.86 37.8898 189.82 38.5198V38.5398Z" fill="#1D1D1B"/>
</g>
<defs>
<clipPath id="clip0_3416_10460">
<rect width="213.92" height="296.21" fill="white"/>
</clipPath>
</defs>
</svg>
