<svg width="129" height="181" viewBox="0 0 129 181" fill="none" xmlns="http://www.w3.org/2000/svg">
<g clip-path="url(#clip0_3416_9799)">
<path d="M128.23 144.1L127.52 144.02C125.84 143.85 125.66 142.36 125.58 141.72C125.45 140.7 125.34 139.68 125.22 138.65C125.03 137.04 124.85 135.42 124.63 133.81C124.48 132.64 124.28 131.48 124.08 130.32C123.96 129.61 123.84 128.9 123.73 128.18C123.58 127.26 123.45 126.33 123.31 125.4C123.08 123.82 122.84 122.25 122.57 120.68C122.37 119.56 122.09 118.1 121.62 116.69C120.57 113.55 120.07 110.32 119.6 107.21C119.41 105.97 119.22 104.73 119 103.49C118.7 101.81 118.45 100.12 118.2 98.4403C117.78 95.5603 117.34 92.5803 116.6 89.6803C116.23 88.2503 116.18 86.7803 116.13 85.3603C116.1 84.6303 116.08 83.9103 116.01 83.1903C115.93 82.4203 115.81 81.6503 115.69 80.9403L115.6 80.4003C115.33 80.2703 115.17 80.4003 114.86 80.6803C114.05 81.4303 113.27 82.2403 112.52 83.0003L111.57 83.9703C110.99 84.5503 109.91 85.6403 108.29 85.0703C107.13 84.6703 106.35 83.7503 105.92 82.2703C104.15 76.2403 103.22 70.0303 102.42 64.1803C102.23 62.8003 101.94 61.3803 101.66 60.0103C101.46 59.0403 101.26 58.0703 101.1 57.0903L101.04 56.7403C100.84 55.5803 100.63 54.3903 100.68 53.2103C100.81 50.2703 100.5 47.2203 99.69 43.6103C99.44 42.4803 99.3 41.3303 99.17 40.2303C99.08 39.4703 98.99 38.7003 98.86 37.9403C98.45 35.5103 98.03 33.0903 97.61 30.6603C97.09 27.7003 96.58 24.7503 96.09 21.7803C95.63 18.9703 95.31 16.4903 95.11 14.1903C95.02 13.2303 95.37 12.3103 95.68 11.4903C96.05 10.4903 96.96 10.0103 98.19 10.1603C100.07 10.3903 101.96 10.6303 103.84 10.8803C105.68 11.1303 107.08 12.1203 107.78 13.7003C108.42 15.1203 108.85 16.5803 109.04 17.9103C109.65 22.5303 110.19 27.1403 110.73 31.7703L112.21 44.3003C112.98 50.8203 113.76 57.3503 114.54 63.8703C114.57 64.1003 114.66 64.3703 114.77 64.7103C115.52 64.4303 116.14 64.0403 116.71 63.4903L117.55 62.6903C118.92 61.3803 120.29 60.0703 121.67 58.7803L121.79 58.6703C122.15 58.3203 122.57 57.9303 123.13 57.8203C123.58 57.7303 124.69 57.5803 125.43 58.1003C126.07 58.5503 126.56 59.6203 126.49 60.3803C125.56 70.2303 126 80.2203 126.61 89.5403C126.92 94.2803 127.05 99.0703 127.17 103.72L127.25 106.51C127.49 114.68 127.68 122.85 127.88 131.01L127.92 132.49C127.96 133.94 128 135.39 128.04 136.85C128.11 139.03 128.17 141.22 128.21 143.41V144.11L128.23 144.1ZM111.73 81.7803C112.44 81.0503 113.15 80.3303 113.9 79.6503C114.25 79.3203 115.19 78.4503 116.6 79.4803L116.85 79.6703L117.03 80.8303C117.15 81.5803 117.29 82.3803 117.36 83.1803C117.43 83.9303 117.46 84.6803 117.49 85.4303C117.54 86.8403 117.59 88.1703 117.92 89.4503C118.68 92.4203 119.12 95.4403 119.55 98.3603C119.79 100.03 120.04 101.7 120.34 103.36C120.57 104.61 120.76 105.86 120.95 107.12C121.42 110.18 121.9 113.34 122.92 116.36C123.42 117.86 123.72 119.39 123.92 120.56C124.2 122.15 124.43 123.73 124.67 125.32C124.81 126.24 124.94 127.16 125.09 128.08C125.2 128.79 125.32 129.49 125.44 130.2C125.64 131.38 125.84 132.56 126 133.74C126.22 135.37 126.4 136.99 126.59 138.61C126.66 139.22 126.73 139.82 126.8 140.43C126.77 139.2 126.73 137.98 126.69 136.75C126.65 135.3 126.6 133.84 126.57 132.39L126.53 130.91C126.34 122.75 126.14 114.58 125.9 106.41L125.83 103.62C125.7 98.9903 125.57 94.2003 125.26 89.5003C124.65 80.1203 124.21 70.0803 125.15 60.1203C125.18 59.8503 124.91 59.3003 124.73 59.1703C124.6 59.0803 124.14 59.0103 123.53 59.1303C123.32 59.1703 123.04 59.4403 122.79 59.6703L122.66 59.7903C121.29 61.0803 119.92 62.3903 118.55 63.7003L117.71 64.5003C116.83 65.3403 115.84 65.8803 114.58 66.2203L113.9 66.4003L113.69 65.7003C113.62 65.4603 113.55 65.2503 113.48 65.0503C113.34 64.6403 113.22 64.2903 113.18 63.9003C112.4 57.3803 111.63 50.8503 110.85 44.3303L109.37 31.8003C108.83 27.1903 108.29 22.5803 107.69 17.9703C107.53 16.7803 107.14 15.4603 106.55 14.1703C105.94 12.8003 104.71 12.3603 103.78 12.2403C101.9 11.9903 100.02 11.7503 98.15 11.5203C97.53 11.4503 97.14 11.6303 96.99 12.0203C96.7 12.8003 96.42 13.5403 96.48 14.2003C96.68 16.4703 97 18.9203 97.45 21.6903C97.94 24.6503 98.46 27.6003 98.97 30.5603C99.39 32.9803 99.82 35.4103 100.23 37.8403C100.36 38.6203 100.45 39.4103 100.55 40.1903C100.68 41.2703 100.81 42.3803 101.04 43.4303C101.86 47.1103 102.19 50.3703 102.06 53.3903C102.02 54.4203 102.21 55.5403 102.4 56.6303L102.46 56.9803C102.63 57.9403 102.83 58.9003 103.02 59.8603C103.31 61.2503 103.6 62.6903 103.8 64.1203C104.59 69.9103 105.51 76.0703 107.25 82.0003C107.55 83.0203 107.97 83.5603 108.67 83.7903C109.36 84.0303 109.88 83.6903 110.59 82.9703L111.53 82.0103C111.6 81.9303 111.68 81.8603 111.75 81.7903" fill="black"/>
<path d="M18.54 2.29016C20.16 4.03016 21.5 5.91016 22.41 7.73016C25.56 14.0902 28.6 20.4702 31.65 26.8602L39.93 44.1702C44.25 53.1802 48.57 62.2002 52.9 71.2102C53.05 71.5302 53.31 71.8702 53.64 72.3002C54.59 71.5402 55.28 70.6602 55.84 69.5902L56.66 68.0302C57.99 65.4602 59.32 62.9102 60.67 60.3702L60.78 60.1502C61.13 59.4702 61.54 58.7002 62.3 58.2602C62.9 57.9102 64.43 57.1402 65.76 57.5402C66.91 57.8802 68.14 59.1702 68.41 60.3102C71.91 74.9602 77.44 89.1202 82.9 102.24C85.67 108.91 88.21 115.76 90.68 122.38L92.17 126.36C96.52 138.01 100.81 149.67 105.1 161.34L105.88 163.46C106.65 165.54 107.42 167.6 108.19 169.67C109.36 172.79 110.53 175.9 111.65 179.04L112.01 180.05L110.95 180.28C108.45 180.86 107.45 178.8 107.03 177.92C106.34 176.51 105.67 175.1 105.01 173.68C103.94 171.44 102.88 169.21 101.78 166.99C100.98 165.39 100.13 163.81 99.28 162.23C98.76 161.26 98.23 160.3 97.72 159.33C97.06 158.07 96.4 156.8 95.75 155.54C94.64 153.38 93.53 151.23 92.37 149.1C91.54 147.59 90.41 145.63 89.04 143.83C85.98 139.82 83.69 135.42 81.47 131.17C80.59 129.47 79.7 127.78 78.77 126.1C77.5 123.83 76.33 121.53 75.14 119.22C73.11 115.28 71.02 111.2 68.53 107.39C67.3 105.52 66.51 103.42 65.73 101.41C65.33 100.38 64.95 99.3402 64.49 98.3402C64 97.2602 63.44 96.2202 62.92 95.2502L62.53 94.5102C62.08 94.4602 61.92 94.7202 61.61 95.2702C60.81 96.7502 60.09 98.2902 59.38 99.7502L58.5 101.61C57.95 102.74 56.93 104.83 54.32 104.82C52.45 104.81 50.88 103.87 49.53 101.95C44.02 94.1402 39.63 85.6402 35.6 77.6102C34.65 75.7102 33.54 73.8202 32.46 71.9802C31.7 70.6802 30.93 69.3802 30.21 68.0502L29.95 67.5802C29.09 66.0102 28.2 64.3902 27.7 62.6602C26.44 58.3602 24.5 54.1302 21.57 49.3202C20.66 47.8202 19.9 46.2402 19.16 44.7102C18.65 43.6502 18.15 42.6002 17.59 41.5702C15.81 38.2802 14.01 34.9902 12.21 31.7102C10.02 27.7002 7.81998 23.6902 5.65998 19.6702C3.63998 15.8502 1.94998 12.4302 0.529981 9.22016C-0.0700186 7.89016 -0.0200185 6.38016 0.0199815 5.05016C0.0699815 3.43016 1.13998 2.29016 2.98998 1.91016C5.81998 1.31016 8.64998 0.740164 11.48 0.180164C14.25 -0.369836 16.76 0.380164 18.54 2.30016" fill="black"/>
<path d="M8.17999 96.4499C9.02999 97.0999 9.76999 97.8399 10.31 98.5799C12.19 101.17 14.02 103.79 15.86 106.4L20.85 113.49C23.45 117.18 26.05 120.87 28.65 124.56C28.74 124.69 28.88 124.82 29.06 124.99C29.43 124.58 29.67 124.14 29.83 123.62L30.08 122.86C30.48 121.62 30.88 120.38 31.29 119.15L31.32 119.04C31.43 118.71 31.55 118.34 31.85 118.09C32.09 117.89 32.71 117.43 33.34 117.51C33.87 117.57 34.52 118.06 34.73 118.54C37.39 124.8 40.91 130.69 44.33 136.12C46.06 138.88 47.71 141.74 49.3 144.5L50.26 146.16C53.07 151.02 55.86 155.89 58.64 160.76L59.15 161.64C59.65 162.51 60.15 163.37 60.65 164.23C61.4 165.53 62.16 166.83 62.89 168.14L63.13 168.56L62.68 168.74C61.61 169.19 61.01 168.34 60.76 167.98C60.35 167.41 59.94 166.82 59.54 166.25C58.9 165.33 58.26 164.42 57.6 163.51C57.13 162.86 56.63 162.22 56.13 161.58C55.82 161.19 55.52 160.8 55.22 160.4C54.83 159.89 54.44 159.37 54.06 158.86C53.4 157.98 52.75 157.11 52.07 156.24C51.59 155.63 50.94 154.84 50.19 154.14C48.52 152.59 47.17 150.8 45.87 149.07C45.35 148.38 44.83 147.69 44.29 147.02C43.56 146.1 42.86 145.17 42.16 144.23C40.96 142.63 39.72 140.97 38.33 139.46C37.64 138.72 37.13 137.85 36.63 137.01C36.38 136.58 36.13 136.15 35.85 135.74C35.55 135.3 35.22 134.87 34.92 134.48L34.69 134.18C34.49 134.19 34.43 134.32 34.34 134.59C34.09 135.31 33.89 136.05 33.68 136.75L33.43 137.65C33.27 138.19 32.97 139.2 31.81 139.39C30.97 139.53 30.21 139.22 29.46 138.47C26.42 135.41 23.83 131.95 21.43 128.68C20.86 127.91 20.23 127.15 19.61 126.41C19.17 125.89 18.73 125.36 18.32 124.83L18.17 124.64C17.67 124.01 17.15 123.35 16.8 122.62C15.92 120.8 14.73 119.06 13.07 117.14C12.55 116.54 12.09 115.89 11.65 115.27C11.35 114.84 11.04 114.4 10.72 113.99C9.67999 112.66 8.62998 111.33 7.58998 110C6.30998 108.38 5.03998 106.76 3.76998 105.13C2.57998 103.58 1.56998 102.19 0.699984 100.86C0.329984 100.31 0.239984 99.6399 0.159984 99.0399C0.0599845 98.3099 0.449984 97.7299 1.24998 97.4199C2.45998 96.9399 3.67998 96.4699 4.89998 96.0099C6.08998 95.5599 7.25998 95.6999 8.19998 96.4199" fill="#EDB41E"/>
</g>
<defs>
<clipPath id="clip0_3416_9799">
<rect width="128.23" height="180.39" fill="white"/>
</clipPath>
</defs>
</svg>
