<svg width="239" height="221" viewBox="0 0 239 221" fill="none" xmlns="http://www.w3.org/2000/svg">
<g clip-path="url(#clip0_3416_12001)">
<path d="M98.6 178.43C98.05 177.11 97.55 175.76 97.06 174.42C96.96 174.15 96.86 173.87 96.77 173.6C96.72 173.45 96.31 172.25 96.57 173.04C96.81 173.78 96.48 172.77 96.41 172.56C96.28 172.15 96.15 171.75 96.02 171.34C95.58 169.93 95.17 168.51 94.84 167.07C94.77 166.76 94.7 166.45 94.64 166.14C94.38 164.97 94.78 167.16 94.67 166.33C94.63 166.01 94.57 165.69 94.53 165.36C94.51 165.21 94.5 165.05 94.48 164.9C94.37 164.14 94.54 165.77 94.52 165.74C94.48 165.68 94.47 164.97 94.52 164.94C94.37 165.05 94.39 166.69 94.53 165.56C94.75 163.76 94.69 161.87 94.23 160.11C93.08 155.73 89.6 152.49 86.34 149.59C83.27 146.86 80.39 144.17 77.8 140.95C76.51 139.34 75.3 137.67 74.18 135.94C73.67 135.16 73.19 134.36 72.72 133.56C73 134.04 72.67 133.47 72.63 133.4C72.5 133.17 72.37 132.93 72.25 132.7C71.97 132.17 71.69 131.64 71.43 131.1C70.51 129.25 69.69 127.35 68.97 125.41C68.9 125.21 68.49 124.02 68.63 124.47C68.77 124.92 68.39 123.71 68.33 123.51C68.03 122.53 67.76 121.55 67.51 120.56C67.28 119.66 67.08 118.76 66.89 117.85C66.84 117.6 66.79 117.36 66.74 117.11C66.59 116.39 66.9 118.07 66.78 117.33C66.7 116.82 66.61 116.32 66.54 115.81C66.4 114.84 66.28 113.88 66.19 112.9C66.14 112.39 66.17 111.81 66.06 111.32C66.06 111.32 66.11 112.46 66.09 111.82C66.08 111.48 66.06 111.15 66.05 110.81C66.02 109.79 66.01 108.76 66.05 107.74C66.06 107.33 66.2 106.7 66.11 106.29C66.31 107.15 66.05 107.06 66.11 106.53C66.14 106.18 66.17 105.83 66.2 105.48C66.3 104.41 66.44 103.35 66.61 102.29C66.66 102 66.71 101.72 66.76 101.43C66.75 101.5 66.58 102.29 66.72 101.69C66.87 101.04 66.99 100.38 67.15 99.7398C67.42 98.6298 67.72 97.5398 68.06 96.4498C68.13 96.2298 68.2 96.0098 68.27 95.7898C68.06 96.4398 68.3 95.6998 68.34 95.5998C68.59 94.9298 68.83 94.2598 69.1 93.5998C69.93 91.5498 70.89 89.5598 71.96 87.6298C71.64 88.1998 72.19 87.2398 72.29 87.0798C72.51 86.7098 72.73 86.3498 72.96 85.9898C73.48 85.1698 74.02 84.3598 74.59 83.5698C75.67 82.0498 76.84 80.5898 78.08 79.1898C80.5 76.4598 82.91 74.2798 85.95 72.0598C91.78 67.7998 98.48 64.6698 105.53 63.0698C112.58 61.4698 119.37 61.4198 126.31 62.2098C132.61 62.9298 138.54 64.3298 144.24 66.8998C150.38 69.6698 155.8 73.6098 159.88 78.5298C161.06 79.9498 162.15 81.4498 163.14 82.9998C163.37 83.3598 163.6 83.7298 163.82 84.0998C163.87 84.1798 164.26 84.8398 164.04 84.4698C163.82 84.0998 164.21 84.7698 164.25 84.8498C164.75 85.7498 165.21 86.6798 165.65 87.6098C166.68 89.7998 167.78 91.9498 168.73 94.1698C169.11 95.0398 169.46 95.9298 169.79 96.8198C169.97 97.3098 170.15 97.7998 170.32 98.2998C170.57 98.9998 169.94 97.1198 170.29 98.2098C170.38 98.4998 170.48 98.7898 170.57 99.0898C170.95 100.31 171.3 101.54 171.61 102.79C171.77 103.44 171.92 104.08 172.06 104.73C172.13 105.04 172.19 105.36 172.25 105.67C172.47 106.74 172.05 104.5 172.28 105.84C172.54 107.33 172.74 108.84 172.88 110.34C172.91 110.69 172.94 111.05 172.97 111.4C172.99 111.6 172.99 111.81 173.01 112.01C173.01 111.95 172.94 110.51 172.97 111.44C173 112.28 173.03 113.12 173.03 113.97C173.03 114.73 173.02 115.48 172.99 116.24C172.99 116.45 172.96 116.68 172.96 116.9C172.94 115.38 173.02 116.02 172.99 116.39C172.95 116.83 172.92 117.28 172.88 117.72C172.8 118.57 172.69 119.41 172.56 120.25C172.53 120.43 172.26 121.96 172.43 121.12C172.58 120.38 172.46 120.99 172.43 121.14C172.36 121.49 172.29 121.83 172.21 122.18C172.03 123 171.83 123.81 171.61 124.61C171.48 125.08 171.35 125.55 171.2 126.01C171.1 126.33 170.67 127.57 171.01 126.63C170.34 128.5 169.59 130.34 168.71 132.12C168.5 132.54 168.29 132.95 168.08 133.36C168.03 133.46 167.33 134.72 167.6 134.26C167.04 135.23 166.45 136.17 165.83 137.1C165.21 138.03 164.59 138.89 163.94 139.75C163.63 140.17 163.3 140.58 162.98 140.98C162.79 141.22 162.6 141.45 162.41 141.68C162.34 141.77 161.54 142.65 161.96 142.27C162.25 142.01 161.92 142.27 161.82 142.34C161.55 142.5 161.28 142.67 161.02 142.84C160.13 143.41 159.25 143.99 158.38 144.6C155.83 146.37 153.42 148.3 151.19 150.47C148.75 152.84 146.9 155.47 145.94 158.76C145.29 160.96 144.93 163.26 144.58 165.52C144.43 166.45 144.3 167.39 144.15 168.32C144.08 168.74 144.01 169.15 143.94 169.57C143.82 170.28 144.15 168.57 143.99 169.26C143.93 169.53 143.88 169.81 143.81 170.08C143.72 170.45 143.62 170.81 143.53 171.17C143.23 172.27 143.9 170.46 143.42 171.43C143.36 171.55 143.3 171.68 143.25 171.81C142.98 172.44 143.29 171.72 143.37 171.62C143.27 171.75 143.18 171.9 143.08 172.03C143.01 172.12 142.53 172.56 142.88 172.27C143.23 171.98 142.03 172.81 141.95 172.67C141.95 172.65 142.77 172.46 142.2 172.59C142.08 172.62 141.96 172.65 141.84 172.68C141.52 172.76 141.2 172.83 140.88 172.89C140.11 173.05 139.33 173.18 138.55 173.3C134.02 174 129.44 174.42 124.87 174.82C116.09 175.6 107.28 176.19 98.48 176.69C97.95 176.72 97.42 176.75 96.89 176.78C94.73 176.9 94.38 180.87 94.41 182.4C94.44 183.72 94.54 185.18 95.13 186.38C95.46 187.04 95.99 188.08 96.88 188.03C104.02 187.64 111.16 187.16 118.29 186.61C123.5 186.21 128.71 185.77 133.9 185.16C135.88 184.93 137.86 184.68 139.82 184.33C141.12 184.1 142.58 183.88 143.78 183.31C146.58 181.97 147.66 177.82 148.23 175.09C148.7 172.84 149.02 170.57 149.37 168.31C149.41 168.07 149.73 167 149.62 166.79C149.66 166.86 149.37 168.01 149.58 167C149.63 166.75 149.68 166.5 149.74 166.25C149.83 165.82 149.94 165.39 150.05 164.96C150.11 164.72 150.19 164.48 150.25 164.24C150.43 163.52 149.78 165.27 150.14 164.58C150.23 164.41 150.38 163.84 150.55 163.74C150.54 163.74 150.01 164.58 150.43 163.98C150.53 163.84 150.62 163.69 150.71 163.55C151.12 162.95 151.58 162.39 152.06 161.84C153.26 160.48 153.66 160.14 155.1 158.92C157.21 157.14 159.45 155.53 161.76 154.03C162.28 153.69 162.84 153.4 163.34 153.04C164.82 151.98 166.02 150.03 167.09 148.56C169.72 144.95 171.97 140.99 173.65 136.85C176.81 129.08 178.25 120.59 177.96 112.2C177.74 105.6 176.67 99.0098 174.63 92.7198C173.02 87.7598 170.88 83.0498 168.54 78.3898C165 71.3498 160 65.1798 153.56 60.5898C148.01 56.6398 141.62 54.0698 135.03 52.4598C121.04 49.0398 106.08 49.7998 93.01 56.1298C77.6 63.5998 66.38 78.2198 62.66 94.8898C58.57 113.22 62.57 133.4 73.73 148.56C76.35 152.12 79.37 155.36 82.65 158.31C84.26 159.76 85.95 161.13 87.44 162.71C88.16 163.47 88.85 164.25 89.46 165.1C89.59 165.28 90.14 166.15 89.94 165.78C89.68 165.32 90.04 165.91 90.04 166.01C90.01 166.55 89.79 165.01 89.96 165.75C90.25 166.97 89.44 162.61 89.76 162.53C89.74 162.53 89.7 162.88 89.71 162.86C89.6 163.52 89.6 164.23 89.58 164.9C89.55 165.88 89.62 166.88 89.72 167.86C89.88 169.59 90.24 171.31 90.64 172.99C91.4 176.17 92.46 179.28 93.57 182.35C94.06 183.7 94.56 185.04 95.11 186.36C95.38 187.01 96.03 188.01 96.86 188.01C97.69 188.01 98.34 187.01 98.61 186.36C99.63 183.95 99.61 180.82 98.61 178.41L98.6 178.43Z" fill="#1D1D1B"/>
<path d="M96.19 176.98C87.19 181.17 86.34 193.92 92.4 200.97C93.32 202.04 94.37 203.57 95.87 203.53C96.62 203.51 97.38 203.41 98.13 203.35L106.54 202.7C114.35 202.09 122.15 201.49 129.96 200.88L138.86 200.19C140.45 200.07 142.09 200.03 143.66 199.71C146.89 199.06 149.45 197.78 150.88 194.76C152.16 192.05 152.59 188.85 152.54 185.88C152.43 179.93 150.19 172.93 143.43 172.07C142.61 171.97 141.93 173.18 141.68 173.72C141.15 174.88 140.93 176.44 140.96 177.7C140.99 179.33 141.22 183.04 143.44 183.32C144.59 183.47 144.77 183.49 145.74 184.06C146.08 184.26 146.37 184.51 146.69 184.74C147.25 185.14 146.38 184.24 146.75 184.82C146.89 185.04 147.09 185.23 147.24 185.44C147.27 185.49 147.56 185.9 147.55 185.92C147.49 185.98 147.13 184.99 147.47 185.85C147.54 186.02 147.6 186.21 147.69 186.38C147.94 186.9 147.4 185.18 147.55 186C147.58 186.18 147.63 186.51 147.71 186.67C147.23 185.78 147.54 185.49 147.58 186.01C147.6 186.22 147.6 186.5 147.66 186.7C147.6 185.59 147.59 185.32 147.61 185.89C147.61 186.04 147.61 186.19 147.61 186.34C147.65 187.64 147.82 184.88 147.61 186.18C147.58 186.38 147.52 186.62 147.52 186.82C147.52 186.82 147.87 185.42 147.64 186.1C147.58 186.29 147.53 186.5 147.48 186.69C147.3 187.48 147.96 185.58 147.61 186.29C147.56 186.4 147.51 186.53 147.46 186.63C147.13 187.51 147.92 186.11 147.55 186.52C147.39 186.7 147.2 186.95 147.07 187.15C146.82 187.55 147.65 186.9 147.24 186.97C147.18 186.98 147.09 187.09 147.02 187.12C145.42 187.8 144.15 188.45 142.39 188.65C138.7 189.05 134.98 189.23 131.28 189.52C124.16 190.07 117.04 190.63 109.93 191.18C105.27 191.54 100.51 191.65 95.88 192.27C95.84 192.27 95.48 192.27 95.46 192.3H95.45C96.13 192.58 96.23 192.53 95.74 192.14C95.55 191.94 95.36 191.74 95.17 191.54C94.68 190.99 94.21 190.42 93.81 189.8C93.71 189.65 93.25 188.72 93.66 189.58C93.54 189.32 93.42 189.05 93.29 188.79C92.86 187.89 93.59 189.83 93.34 188.91C93.22 188.38 93.25 188.58 93.44 189.52C93.39 189.11 93.39 189.2 93.44 189.8C93.5 190.91 93.46 190.1 93.46 189.86C93.37 190.99 93.36 191.27 93.43 190.7C93.23 191.69 93.19 191.93 93.3 191.42C93.32 191.36 93.42 191.1 93.41 191.02C93.12 191.83 93.06 192.01 93.24 191.58C93.29 191.45 93.35 191.33 93.41 191.21C93.65 190.51 92.86 191.98 93.3 191.39C93.42 191.23 93.52 191.06 93.63 190.9C93.86 190.59 94.12 190.3 94.37 190.01C94.51 189.85 95.01 189.42 94.31 190.05C94.47 189.91 94.62 189.77 94.78 189.63C95.05 189.4 95.34 189.18 95.63 188.97C96.23 188.54 96.86 188.13 97.53 187.82C98.33 187.45 98.82 185.95 99.01 185.23C99.37 183.9 99.46 182.26 99.26 180.9C99.06 179.54 98.33 175.99 96.22 176.97L96.19 176.98Z" fill="#1D1D1B"/>
<path d="M97.08 192.51C94.5 193.72 92.29 195.54 91.09 198.17C89.38 201.92 89.63 206.43 91.01 210.22C92.78 215.07 97.17 218.75 102.43 218.92C103.66 218.96 104.91 218.81 106.13 218.73L113.64 218.23C120.04 217.81 126.43 217.39 132.83 216.96L139.77 216.5C141.41 216.39 143.03 216.32 144.63 215.86C150.71 214.14 155.05 208.86 155.82 202.59C156.26 198.98 155.71 195.09 153.7 192C152.13 189.6 149.57 188.4 146.89 187.69C146.12 187.49 145.34 188.9 145.14 189.34C144.61 190.5 144.39 192.06 144.42 193.32C144.46 195.21 144.69 198.36 146.9 198.94C147.83 199.19 148.73 199.59 149.55 200.11C149.89 200.33 150.22 200.57 150.53 200.84C150.12 200.5 150.47 200.77 150.55 200.87C150.72 201.08 150.9 201.28 151.06 201.51C151.16 201.65 151.25 201.8 151.35 201.95C150.83 201.13 151.15 201.61 151.25 201.87C151.47 202.41 150.95 200.88 151.11 201.44C151.23 201.84 151.26 202.49 151.04 200.93C151.1 201.36 151.03 201.87 151.01 200.15C151.01 200.58 150.91 201.08 151.08 199.37C150.96 200.64 151.43 198.23 151.06 199.42C151.53 197.89 151.01 199.38 150.82 199.77C150.55 200.33 151.12 199.32 150.78 199.83C150.62 200.08 150.45 200.33 150.28 200.57C149.61 201.48 149.19 201.93 148.4 202.55C146.78 203.81 144.9 204.69 142.87 204.99C139.82 205.44 136.65 205.45 133.57 205.65C123.79 206.3 114.01 206.94 104.23 207.59C101.58 207.76 99.18 207.36 97.01 205.73C96.47 205.32 96.33 205.19 96.1 204.93C95.91 204.72 95.73 204.5 95.56 204.27C95.49 204.18 94.9 203.34 95.14 203.71C95.4 204.11 95.03 203.49 94.98 203.39C94.92 203.26 94.5 202.18 94.71 202.82C94.96 203.56 94.71 201.95 94.76 203.1C94.84 203.58 94.85 203.62 94.79 203.21C94.86 203.68 94.87 204.15 94.83 204.62C94.83 204.7 94.53 206.41 94.69 205.76C94.78 205.42 94.73 205.58 94.53 206.24C94.69 205.92 94.69 205.89 94.54 206.16L94.43 206.34C94.51 206.21 94.6 206.08 94.69 205.96C94.78 205.85 95.23 205.3 95.13 205.39C95.82 204.68 97.29 203.84 98.39 203.33C99.19 202.95 99.68 201.47 99.87 200.74C100.23 199.41 100.32 197.77 100.12 196.41C99.92 195.05 99.18 191.49 97.08 192.48V192.51Z" fill="#1D1D1B"/>
<path d="M112.4 216.25C114.65 218.01 117.49 219.18 120.24 219.84C122.67 220.42 125.22 220.49 127.64 219.86C130.86 219.02 133.46 217.23 135.77 214.87C136.78 213.84 136.64 211.52 136.3 210.25C136.03 209.22 135.3 207.98 134.27 209.04C130.45 212.96 125.28 214.37 120.01 213.03C117.61 212.42 115.15 211.27 113.2 209.74C112.09 208.87 111.43 211.5 111.37 212.1C111.24 213.4 111.26 215.35 112.41 216.25H112.4Z" fill="#1D1D1B"/>
<path d="M119.43 177.04C118.88 174.93 118.44 172.75 118.15 170.59C118.12 170.36 118.09 170.14 118.06 169.91C118.14 170.66 118.06 169.9 118.06 169.77C118.02 169.25 117.97 168.73 117.92 168.2C117.81 167.08 117.72 165.95 117.66 164.82C117.54 162.76 117.45 160.69 117.44 158.63C117.44 158.06 117.44 157.48 117.48 156.91C117.43 157.77 117.51 156.85 117.56 156.51C117.6 156.23 117.65 155.96 117.7 155.68C117.71 155.62 117.89 154.97 117.75 155.45C117.59 155.99 117.86 155.16 117.91 155.04C117.94 154.97 118.25 154.25 118.08 154.58C117.89 154.96 118.23 154.35 118.28 154.27C118.37 154.13 118.47 153.99 118.57 153.85C118.14 154.45 118.78 153.67 118.97 153.5C119.12 153.37 119.92 152.83 119.44 153.11C119.83 152.88 120.24 152.72 120.65 152.54C120.74 152.5 121.28 152.36 120.74 152.48C120.89 152.45 121.06 152.42 121.22 152.41C121.6 152.39 121.97 152.36 122.35 152.41C121.79 152.32 122.7 152.58 122.88 152.66C123.23 152.83 122.92 152.67 122.86 152.63C122.84 152.62 123.66 153.29 123.33 152.98C123.03 152.7 123.43 153.1 123.47 153.15C123.62 153.35 123.75 153.56 123.89 153.76C123.93 153.82 124.24 154.36 123.99 153.91C123.72 153.42 124.09 154.13 124.14 154.25C124.59 155.22 124.94 156.23 125.29 157.24C125.47 157.76 125.64 158.28 125.81 158.81C125.88 159.03 125.95 159.26 126.02 159.49C125.96 159.29 125.78 158.64 126.04 159.59C126.33 160.64 126.61 161.7 126.86 162.76C127.45 165.27 127.89 167.81 128.25 170.36C128.28 170.59 128.31 170.82 128.34 171.05C128.49 172.15 128.3 170.49 128.36 171.19C128.41 171.81 128.48 172.43 128.52 173.05C128.62 174.37 128.67 175.69 128.7 177.01C128.74 179 129.9 182.79 132.53 182.54C135.16 182.29 136.13 179.06 136.08 176.83C135.96 171.14 135.24 165.42 133.7 159.94C132.91 157.14 132.01 154.37 130.92 151.68C129.89 149.15 128.78 146.53 126.79 144.59C123.17 141.04 117.69 142.29 114.67 145.95C110.88 150.54 110.98 156.64 111.28 162.27C111.62 168.65 112.27 175.06 115.49 180.7C116.11 181.78 117.51 182.03 118.42 181.2C119.47 180.24 119.77 178.35 119.43 177.03V177.04Z" fill="#1D1D1B"/>
<path d="M121.77 147.98C122.15 143.13 121.53 138.26 122.07 133.39C122.46 129.87 122.75 124.9 125.79 122.56C128.29 120.64 132.03 120.44 134.78 121.91C136.21 122.67 137.39 123.91 138.17 125.32C139.14 127.07 138.89 128.19 139.35 130.1C139.59 131.07 140.22 132.42 141.42 132.39C142.62 132.36 143.14 130.98 143.38 130C143.91 127.87 143.24 125.33 142.54 123.31C141.88 121.4 140.8 119.67 139.45 118.18C137.07 115.56 133.67 114.02 130.1 114.24C126.53 114.46 123.1 116.4 121.19 119.51C118.91 123.22 118.35 128.04 117.97 132.29C117.73 135.04 117.6 137.82 117.8 140.58C118 143.34 118.24 146.02 119.34 148.53C119.99 150.01 121.65 149.52 121.77 147.98Z" fill="#1D1D1B"/>
<path d="M119.88 147.52C120.92 145.8 120.67 143.42 120.58 141.48C120.48 139.36 120.27 137.24 119.95 135.15C119.43 131.82 118.74 128.39 117.19 125.37C115.86 122.78 113.93 120.2 111.09 119.16C107.78 117.95 104.26 119.68 101.88 121.95C98.9201 124.77 97.0901 128.71 96.6301 132.75C96.4701 134.14 96.7401 136.29 98.2801 136.86C99.8201 137.43 100.81 135.66 100.95 134.44C101.28 131.53 102.86 128.43 105.58 126.62C107.94 125.05 110.79 125.18 112.63 127.18C114.61 129.33 115.29 132.19 115.89 134.98C116.35 137.09 116.72 139.23 116.96 141.38C117.18 143.41 117.03 145.77 118.09 147.56C118.52 148.3 119.45 148.21 119.87 147.52H119.88Z" fill="#1D1D1B"/>
<path d="M121.27 35.6598C122.2 34.3898 122.33 32.6998 122.55 31.1798C122.77 29.6598 122.77 28.1198 122.84 26.5898C122.94 24.2898 123.04 21.9898 123.14 19.6898C123.24 17.3898 123.34 15.0898 123.41 12.7898C123.48 10.3598 123.77 7.81979 123.57 5.39979C123.4 3.40979 122.68 0.379786 120.28 0.0397857C117.88 -0.300214 116.67 2.13979 116.39 4.10979C116 6.83979 116.12 9.72979 116.04 12.4898C115.97 14.8698 115.94 17.2498 115.9 19.6398C115.86 22.0298 115.83 24.3998 115.8 26.7798C115.76 29.7898 115.62 33.1098 117.18 35.7798C118.23 37.5798 120.22 37.1298 121.28 35.6798L121.27 35.6598Z" fill="#1D1D1B"/>
<path d="M176.11 53.3199C183.89 43.1599 191.62 32.9799 199.24 22.7099C200.74 20.6899 200.56 16.8399 199.05 14.8699C197.54 12.8999 195.31 12.8799 193.9 14.9999C186.62 25.8999 179.47 36.8799 172.34 47.8899C171.33 49.4399 171.41 51.9099 172.48 53.4099C173.55 54.9099 175.07 54.6699 176.11 53.3199Z" fill="#1D1D1B"/>
<path d="M49.84 17.1895C52.7 21.5895 55.57 25.9895 58.43 30.3995C61.29 34.8095 63.99 39.3095 67.06 43.5395C68.39 45.3695 70.79 45.4795 72 43.4195C73.3 41.1895 73.26 38.0595 71.82 35.8995C68.98 31.6595 65.74 27.6495 62.69 23.5695C59.64 19.4895 56.57 15.3895 53.52 11.2995C52.44 9.85955 50.7 9.83955 49.71 11.3895C48.64 13.0695 48.79 15.5495 49.85 17.1895H49.84Z" fill="#1D1D1B"/>
<path d="M2.07001 86.0799C1.39001 86.0399 3.27001 86.2299 2.78001 86.1999C2.87001 86.1999 3.48001 86.2499 3.29001 86.1999C3.82001 86.3199 4.41001 86.6499 4.89001 86.8999C6.45001 87.7099 7.87001 88.7699 9.41001 89.6299C12.67 91.4499 15.91 93.3699 19.25 95.0399C25.77 98.3099 32.23 101.69 38.68 105.09C39.59 105.57 40.83 105.07 41.51 104.45C42.4 103.65 42.98 102.2 43.12 101.05C43.45 98.4799 42.83 95.4899 40.37 94.1999C36.9 92.3699 33.4 90.5999 29.9 88.8399C26.4 87.0799 22.94 85.1999 19.35 83.6699C15.76 82.1399 12.28 80.5399 8.63001 79.3099C7.16001 78.8099 5.54001 78.0999 3.95001 78.2499C1.66001 78.4599 0.370008 80.0599 0.0400075 82.2699C-0.169992 83.6399 0.300008 85.9799 2.06001 86.0799H2.07001Z" fill="#1D1D1B"/>
<path d="M197.23 102.51C198.86 102.72 200.69 102.1 202.25 101.71C203.81 101.32 205.17 100.99 206.6 100.67C209.74 99.97 213.09 99.06 216.07 98.39C222.42 96.97 228.84 95.85 235.29 95.02L233.17 84.59C232.51 85.19 232.02 85.91 231.52 86.64C229.84 89.11 230.45 94.69 234.03 95.05C234.84 95.13 235.47 95 236.27 94.8C237.24 94.55 238.14 92.99 238.41 92.16C238.79 90.99 238.9 89.79 238.76 88.56C238.56 86.8 237.38 83.47 235.01 83.77C228.4 84.61 221.83 85.77 215.32 87.24C211.98 88 208.61 88.74 205.36 89.8C202.11 90.86 198.16 91.75 195.5 94.02C193.08 96.09 193.73 102.04 197.22 102.5L197.23 102.51Z" fill="#1D1D1B"/>
</g>
<defs>
<clipPath id="clip0_3416_12001">
<rect width="238.82" height="220.3" fill="white"/>
</clipPath>
</defs>
</svg>
