<svg width="156" height="234" viewBox="0 0 156 234" fill="none" xmlns="http://www.w3.org/2000/svg">
<g clip-path="url(#clip0_3416_9805)">
<path d="M121.77 207.49C116.69 203.95 104.65 195.52 94.02 199.53C93.02 199.93 87.6 202 86.13 206.75C84.53 211.76 87.87 218.05 92.15 221.26C100.57 227.61 108.8 219.39 124.04 223.67C135.81 227.01 140.95 234.77 142.36 233.5C144.03 231.96 135.94 217.32 121.77 207.43V207.5V207.49Z" fill="#1D1D1B"/>
<path d="M126.02 162.13C121.54 151.43 117.13 140.74 112.25 130.17C103.76 111.92 95.8 93.4701 90.32 74.0801C90.05 73.0801 88.78 71.8701 87.78 71.6701C86.78 71.4701 85.37 72.2001 84.44 72.9401C83.7 73.5401 83.3 74.6101 82.9 75.5501C80.96 80.0301 79.16 84.5801 77.28 89.0501C76.41 91.1901 75.14 92.9301 73.2 94.6701C72.26 93.4701 71.53 92.7301 71.06 91.8601C62.1 75.0101 53.21 58.2301 44.25 41.3801C38.43 30.4801 32.75 19.5201 26.8 8.62008C25.46 6.21008 23.59 3.94008 21.65 2.00008C19.52 -0.0599194 16.65 -0.459919 13.71 0.480081C10.03 1.68008 6.42001 2.95008 2.75001 4.16008C1.15001 4.69008 0.0100098 5.83008 0.0100098 7.50008C0.0100098 9.17008 0.0100098 11.1801 0.81001 12.7101C3.08001 17.3201 5.62001 21.8701 8.23001 26.2801C13.85 35.8401 19.66 45.2701 25.35 54.7601C27.36 58.1001 28.89 61.6501 31.03 64.8601C34.77 70.4801 37.98 76.2901 40.12 82.7101C40.92 85.1201 42.33 87.3201 43.66 89.5301C46.2 93.7401 49.01 97.6901 51.42 101.97C57.44 112.8 63.59 123.56 71.21 133.33C72.61 135.14 74.22 136.27 76.42 136C78.76 135.73 79.76 133.79 80.5 131.79C81.7 128.65 82.84 125.51 84.11 122.43C84.58 121.36 85.18 120.02 87.39 120.49C88.39 122.16 89.6 124.1 90.6 126.17C92.54 130.05 93.88 134.39 96.42 137.87C102.04 145.63 106.18 154.18 111.13 162.27C115.88 169.96 119.82 178.11 125.64 185.07C127.45 187.21 129.05 189.62 130.45 192.02C133.12 196.43 135.6 200.91 138.21 205.39C140.15 208.73 142.22 212.01 144.09 215.42C146.7 220.17 149.17 224.98 151.71 229.79C152.45 231.19 153.31 232.53 155.25 231.8C152.44 224.85 149.5 218.03 146.63 211.14C139.81 194.69 132.99 178.25 126.11 161.87L126.04 162.14L126.02 162.13Z" fill="#1D1D1B"/>
</g>
<defs>
<clipPath id="clip0_3416_9805">
<rect width="155.24" height="233.63" fill="white"/>
</clipPath>
</defs>
</svg>
