<svg width="237" height="201" viewBox="0 0 237 201" fill="none" xmlns="http://www.w3.org/2000/svg">
<g clip-path="url(#clip0_3416_10990)">
<path d="M194.95 22.3298C189.66 18.0598 182.52 16.5398 175.98 18.4698C171.36 19.8298 167.67 22.9498 163.82 25.7098C156.41 31.0398 149.01 36.3598 141.6 41.6898C132.88 47.9598 124.16 54.2298 115.43 60.4998C106.75 66.7398 98.0701 72.9798 89.3901 79.2098C81.9501 84.5498 74.5101 89.8898 67.0701 95.2198C62.2201 98.6998 57.3701 102.17 52.5101 105.63C50.6701 106.94 48.8201 108.15 46.9301 109.37C39.7901 114.02 32.8601 119.46 27.2201 125.88C24.2501 129.27 21.4701 133.22 20.4301 137.68C19.1901 143.02 20.7701 148.42 22.9901 153.28C26.9001 161.86 32.8501 169.66 39.1501 176.62C39.9101 177.47 40.4601 177.81 41.5301 178.2C43.9201 179.06 46.4301 179.6 48.9501 179.89C58.8401 181.01 68.8301 178.19 77.4901 173.52C86.9001 168.44 94.5701 160.89 102.7 154.07C109.95 147.99 117.29 142.01 124.66 136.08C133.02 129.35 141.42 122.68 149.85 116.04C158.28 109.4 166.11 103.26 174.27 96.9098C180.97 91.6998 187.67 86.4998 194.39 81.3098C198.34 78.2598 202.3 75.2098 206.27 72.1598C208.84 70.1898 211.46 68.3598 213.74 66.0398C217.07 62.6598 219.7 58.3798 220.1 53.5698C220.35 50.5998 219.9 47.5298 218.51 44.8698C216.94 41.8698 214.41 39.6098 211.99 37.2998C206.52 32.0698 200.77 27.1498 194.93 22.3298C193.96 21.5298 193.38 23.9098 193.32 24.4098C193.18 25.5798 193.24 27.2498 194.23 28.0698C200.06 32.8798 205.83 37.7998 211.28 43.0298C213.48 45.1398 215.94 47.2598 217.14 50.1298C217.26 50.4198 217.43 51.0098 217.46 51.1298C217.42 50.9398 217.52 51.5498 217.53 51.6798C217.6 52.1298 217.53 51.1998 217.53 51.6498C217.53 51.8198 217.53 51.9898 217.53 52.1598C217.53 52.5098 217.55 52.0398 217.55 51.9998C217.55 52.1198 217.53 52.2498 217.52 52.3698C217.51 52.4798 217.41 53.1298 217.46 52.8698C217.5 52.6498 217.35 53.3198 217.31 53.4798C217.28 53.5998 217.24 53.7198 217.21 53.8398C217.09 54.2398 217.32 53.5498 217.18 53.9398C215.43 58.7898 211.18 62.2398 207.09 65.2598C204.39 67.2498 201.77 69.3498 199.11 71.3898C193.43 75.7598 187.76 80.1498 182.1 84.5398C174.52 90.4198 166.96 96.3198 159.41 102.24C151.12 108.74 142.86 115.25 134.62 121.81C126.38 128.37 119 134.31 111.27 140.65C105.07 145.73 98.9001 150.85 92.8801 156.14C83.5501 164.34 72.9301 171.5 60.4501 173.59C56.5601 174.24 52.5801 174.39 48.6601 173.92C47.2701 173.75 45.9001 173.51 44.5401 173.17C43.3901 172.89 43.0901 172.8 42.0501 172.42C41.8501 172.35 41.0201 171.85 40.8201 171.92C40.7401 171.95 41.2301 172.39 40.9601 172.06C40.7301 171.78 40.4701 171.52 40.2301 171.25C37.6501 168.37 35.2001 165.36 32.9001 162.26C29.6501 157.88 26.6101 153.26 24.4401 148.24C23.9501 147.1 23.5301 146 23.2001 144.91C23.0401 144.37 22.8901 143.82 22.7701 143.27C22.7401 143.14 22.7101 143 22.6801 142.86C22.5901 142.41 22.7401 143.22 22.6601 142.77C22.6101 142.49 22.5901 142.19 22.5401 141.91C22.5101 142.45 22.4301 141.38 22.5401 141.91C22.5501 141.71 22.5401 141.51 22.5401 141.31C22.5401 141.9 22.5301 141.53 22.5701 141.19C22.6001 140.94 22.7201 140.44 22.5901 140.98C22.6901 140.56 22.7901 140.15 22.9101 139.75C23.0401 139.3 22.9401 139.64 22.9101 139.73C22.9501 139.63 22.9801 139.52 23.0201 139.42C23.1201 139.18 23.2101 138.93 23.3101 138.69C24.9801 134.79 28.0701 131.28 31.1401 128.2C34.3901 124.94 37.9701 122 41.6601 119.25C44.5001 117.13 47.5301 115.32 50.4201 113.3C53.8901 110.87 57.3301 108.39 60.7801 105.92C67.1401 101.37 73.5001 96.8098 79.8501 92.2498C87.9801 86.4198 96.1101 80.5798 104.24 74.7398C112.92 68.5098 121.59 62.2698 130.27 56.0298C138.29 50.2598 146.32 44.4898 154.34 38.7198C157.72 36.2898 161.09 33.8598 164.47 31.4298C168.17 28.7698 171.84 25.5598 176.29 24.2898C182.53 22.5198 189.18 23.9898 194.2 28.0498C195.17 28.8398 195.75 26.4798 195.81 25.9698C195.95 24.8098 195.89 23.1198 194.9 22.3098L194.95 22.3298Z" fill="black"/>
<path d="M64.82 110.13C65.03 111.27 65.56 112.39 65.95 113.48C66.67 115.5 67.42 117.51 68.16 119.52C70.08 124.7 72.02 129.86 73.97 135.03C75.08 137.97 76.05 141 77.31 143.87C78.95 147.62 83 150.74 87.21 149.6C89.6 148.95 91.58 147.39 93.5 145.89C94.88 144.82 96.25 143.67 97.39 142.34C98.85 140.64 99.42 138.55 98.93 136.33C98.74 135.48 97.98 134.3 97.14 135.26C96.3 136.22 96.41 138.16 96.67 139.33C96.48 138.46 96.46 137.59 96.59 136.89C96.62 136.74 96.78 135.76 96.63 136.51C96.69 136.21 96.87 136.17 96.65 136.45C96.54 136.59 96.44 136.74 96.33 136.89C96.02 137.28 95.68 137.65 95.32 138C94.15 139.15 92.83 140.16 91.51 141.13C89.96 142.27 88.32 143.52 86.37 143.83C84.04 144.2 81.9 143.15 80.45 141.48C80.16 141.14 79.88 140.78 79.63 140.41C79.46 140.17 79.06 139.32 79.34 139.98C79.28 139.83 79.19 139.7 79.13 139.55C76.12 131.91 73.32 124.18 70.46 116.49C69.63 114.25 68.8 112.01 67.99 109.76C67.73 109.04 67.49 108.32 67.23 107.61C67.1 107.26 67.44 108.3 67.28 107.75C67.25 107.65 67.22 107.55 67.18 107.45C67.14 107.34 67.11 107.22 67.08 107.11C66.92 106.24 66.11 105.09 65.29 106.04C64.41 107.05 64.6 108.92 64.82 110.11V110.13Z" fill="black"/>
<path d="M100.48 104.32C97.88 103.84 95.25 104.96 93.75 107.14C92.07 109.59 91.81 112.99 91.87 115.88C91.95 119.62 92.9 123.12 94.6 126.44C95.89 128.96 97.38 131.48 99.39 133.49C100.72 134.83 102.51 136.29 104.53 136.19C106.39 136.09 107.81 134.53 109.12 133.38C110.91 131.79 112.02 129.98 112.34 127.56C112.75 124.5 112.08 121.35 111.14 118.45C110.09 115.2 108.66 112.07 106.8 109.19C106.08 108.07 105.28 107.01 104.3 106.1C103.22 105.09 101.9 104.65 100.47 104.32C98.95 103.97 98.49 109.81 100.47 110.27C104.47 111.19 106.41 115.51 107.9 118.96C108.76 120.95 109.55 123.08 109.8 125.25C109.8 125.23 109.8 126.17 109.84 125.71C109.82 125.95 109.67 126.04 109.84 125.77C109.61 126.13 109.76 125.97 109.83 125.85C109.55 126.36 109.29 126.8 108.73 127.35C107.8 128.26 106.54 129.56 105.33 130.07C104.12 130.58 102.91 130.02 101.92 129.35C100.32 128.26 99.12 126.65 98.07 125.05C96.73 123.01 95.44 120.7 94.83 118.33C94.38 116.56 94.1 114.06 94.91 112.53C95.96 110.52 98.37 109.88 100.46 110.27C102.05 110.56 102.43 104.69 100.46 104.32H100.48Z" fill="black"/>
<path d="M96.6601 85.6796C98.0501 88.6596 99.5201 91.5996 101.03 94.5096C103.35 98.9896 105.68 103.75 108.87 107.69C111.02 110.35 113.31 113.09 115.94 115.28C118.05 117.04 120.83 118.25 123.08 116.03C125.19 113.95 127.5 111.42 128.75 108.7C130.25 105.43 130.1 101.78 129.59 98.3096C128.81 92.9996 127.65 87.7296 126.4 82.5096L124.14 85.5096C124.98 88.2296 125.94 90.9296 127.06 93.5396C127.8 95.2496 128.6 97.0496 129.74 98.5396C130.78 99.8896 132.35 100.64 133.91 101.24C135.81 101.98 138.18 102.51 139.9 101.06C140.92 100.2 141.4 98.9596 141.97 97.7996C142.7 96.2996 143.42 94.8096 143.92 93.2196C144.9 90.1396 144.76 86.8796 143.52 83.9096C142.85 82.2996 142.05 80.7396 141.26 79.1896C139.73 76.1896 138.14 73.2096 136.52 70.2596C135.98 69.2796 135.18 69.1496 134.67 70.2596C134.16 71.3696 134.05 73.3396 134.67 74.4596C135.78 76.4696 136.87 78.4996 137.93 80.5396C138.77 82.1496 139.61 83.7596 140.4 85.3896C140.91 86.4296 141.88 87.8496 141.96 89.0296C142 89.6196 141.5 90.5996 141.25 91.1796C140.71 92.4296 140.16 93.8196 139.44 94.9696C138.48 96.4996 136.31 96.1296 134.87 95.6196C134.03 95.3196 133.23 94.9296 132.45 94.4996C132.14 94.3296 131.82 94.1696 131.53 93.9496C131.49 93.9196 131.3 93.7496 131.5 93.9496C131.38 93.8296 131.26 93.6896 131.16 93.5596C130.26 92.4496 129.73 91.2496 129.11 89.8496C128.37 88.1696 127.72 86.4496 127.11 84.7196C127.05 84.5496 126.99 84.3796 126.93 84.1996C126.86 83.9896 127.05 84.5696 126.88 84.0596C126.79 83.7896 126.7 83.5096 126.61 83.2396C126.53 82.9996 126.45 82.7596 126.38 82.5196C126.13 81.7096 125.46 80.4496 124.59 81.4496C123.72 82.4496 123.84 84.3596 124.12 85.5196C125.02 89.2696 125.9 93.2796 126.55 96.9096C126.79 98.2396 127.01 99.5696 127.19 100.91C127.26 101.45 127.33 101.98 127.34 102.53C127.34 103 127.31 103.35 127.15 103.84C126.42 106.09 124.25 108.05 122.68 109.87C121.87 110.8 121.14 111.52 119.83 111.34C118.63 111.17 117.54 110.3 116.63 109.55C114.23 107.55 112.15 104.98 110.18 102.56C107.33 99.0396 105.22 94.8296 103.14 90.8296C101.53 87.7496 99.9801 84.6296 98.5001 81.4796C98.0101 80.4396 97.1301 80.4196 96.6501 81.4796C96.1001 82.6696 96.0901 84.4896 96.6501 85.6796H96.6601Z" fill="black"/>
<path d="M109.2 81.1996C108.96 82.0296 108.92 82.9596 108.8 83.8096C108.71 84.4896 108.6 85.1596 108.49 85.8396C108.46 86.0196 108.43 86.1996 108.4 86.3796C108.38 86.4796 108.27 87.0796 108.35 86.6896C108.43 86.2996 108.29 86.9896 108.26 87.1296C108.21 87.3696 108.16 87.6096 108.11 87.8496C107.92 88.7596 107.7 89.6696 107.46 90.5696C107.33 91.0596 107.19 91.5596 107.04 92.0396C106.97 92.2696 106.9 92.4996 106.83 92.7296C106.79 92.8396 106.76 92.9596 106.72 93.0696C106.8 92.8196 106.74 93.0196 106.69 93.1496C106.03 95.0096 105.22 96.8796 104.22 98.3696C103.05 100.13 101.6 101.59 99.6502 102.45C98.0302 103.16 98.5002 109 100.35 108.18C104.27 106.46 106.63 102.29 108.12 98.4796C109.64 94.5996 110.55 90.5096 111.17 86.3996C111.27 85.7496 111.36 85.0996 111.44 84.4496C111.47 84.2496 111.5 84.0396 111.52 83.8396C111.59 83.2396 111.45 84.1896 111.45 84.1896C111.79 83.0296 111.82 81.0996 110.98 80.1196C110.14 79.1396 109.42 80.3796 109.19 81.1896L109.2 81.1996Z" fill="black"/>
<path d="M148.92 51.2998C145.26 52.6898 142.77 56.0098 142.52 59.9098C142.34 62.6798 143.08 65.8498 144.15 68.4198C144.96 70.3598 146.27 71.8898 148.34 72.4598C150.82 73.1598 153.59 72.7298 156.03 72.1098C157.85 71.6398 160.13 70.5698 161.88 71.7398C162.82 72.3698 163.57 73.3898 164.21 74.2998C164.38 74.5398 164.82 75.2498 164.79 75.2898C164.79 75.2898 164.81 74.6598 164.79 74.6298C164.86 74.4098 164.85 74.4698 164.75 74.8098C164.75 74.9398 164.7 75.0598 164.62 75.1798C163.55 77.9698 161.09 79.7698 158.45 80.9198C153.87 82.9098 148.61 83.1398 143.7 83.4998C141.8 83.6398 141.93 89.5798 143.7 89.4498C148.15 89.1298 152.72 88.8098 156.99 87.4498C159.69 86.5898 162.24 85.2798 164.15 83.1398C166.37 80.6598 167.7 77.1098 167.32 73.7798C166.99 70.8698 165.23 68.1698 162.99 66.3098C161.22 64.8398 159.23 65.2698 157.2 65.8298C154.66 66.5298 151.94 67.1298 149.29 66.7098C147.36 66.4098 146.36 65.3098 145.81 63.7298C145.95 64.1398 145.69 63.2898 145.69 63.3198C145.58 62.9498 145.49 62.5698 145.4 62.1898C145.33 61.8798 145.26 61.5698 145.2 61.2598C145.16 61.0398 145.11 60.8198 145.07 60.5998C145.1 60.6798 145.1 60.7598 145.08 60.8498C144.87 60.4798 145.17 60.5798 145.04 60.9698C145.14 60.6698 145.04 60.7798 145.28 60.3498C145.45 60.0298 145.84 59.5298 146.16 59.2098C147.09 58.2598 148.35 57.4898 149.59 57.0098C151.21 56.3998 150.83 50.5398 148.89 51.2798L148.92 51.2998Z" fill="black"/>
<path d="M174.43 3.51976C168.99 3.51976 165.53 8.45976 163.37 12.7998C163 13.5398 162.87 13.9398 162.12 14.4298C160.96 15.1798 159.55 15.4898 158.22 15.7798C156.89 16.0698 155.86 16.4898 154.87 17.4098C153.75 18.4498 153 19.7998 151.89 20.8398C151.42 21.2798 151.07 21.6498 150.78 22.2398C150.65 22.4998 150.33 23.1798 150.71 22.4998C150.99 22.4098 150.61 22.6898 150.71 22.4998C150.51 22.5698 150.33 22.7098 150.13 22.7798C149.43 23.0398 148.64 23.1198 147.9 23.2498C145.48 23.6598 142.83 23.8998 140.93 25.5998C139.85 26.5598 139.19 27.7398 138.44 28.9598C137.74 30.1098 137.08 31.0198 135.66 31.1898C134.17 31.3698 132.75 31.2098 131.3 31.7198C129.68 32.2898 128.46 33.5498 127.27 34.7398C125.69 36.3098 123.98 37.9998 122.71 39.8398C122.31 40.4298 122.11 41.1598 122.03 41.8598C121.97 42.3098 122 42.7498 122 43.2098C122 44.3798 121.98 42.9898 121.98 42.8298C121.98 42.5498 122.22 40.9598 122.29 41.0698C122.18 40.8998 122.62 40.9298 122.33 40.9698C122.17 40.9898 121.85 41.2498 121.66 41.3198C120.38 41.7798 118.91 41.8098 117.6 42.1998C116.03 42.6698 114.85 43.3798 113.75 44.5998C112.85 45.5998 111.92 46.5798 110.98 47.5398C110.18 48.3598 109.36 49.1698 108.55 49.9898C108.15 50.3898 108.34 50.1498 108.53 50.0098C108.13 50.3198 107.76 50.7198 107.46 51.1398C106.94 51.8698 106.59 52.7198 106.37 53.5898C106.29 53.9098 106.24 54.2398 106.19 54.5698C106.14 54.9398 105.93 56.1998 106.16 55.3198C106.16 55.3498 106.3 54.6098 106.35 54.6298C106.36 54.6298 106.15 54.8598 106.1 54.8798C104.84 55.4998 103.74 54.5598 102.43 54.4198C100.14 54.1798 98.0501 56.4398 96.4501 57.7898C95.5801 58.5198 94.7301 59.2598 93.8801 59.9998C93.6601 60.1898 93.3701 60.3798 93.1901 60.6098C92.9001 60.9798 93.1601 60.7398 93.2601 60.7098C92.0201 61.1198 91.3201 61.8798 90.7401 63.0798C90.4201 63.7398 90.2801 64.4098 89.7801 64.9598C89.3401 65.4398 88.7401 65.7998 88.1401 66.0598C86.8201 66.6298 85.3101 66.5298 83.9601 67.0498C82.9701 67.4298 82.1201 68.1198 81.2801 68.7598C79.6201 70.0198 78.0501 71.4498 76.3401 72.6398C75.9901 72.8898 75.6301 73.0098 75.2401 73.2098C74.0701 73.7898 72.9901 74.6398 72.1801 75.6698C71.3701 76.6998 70.9401 78.1998 69.9601 78.9198C68.9001 79.6998 67.9101 79.7598 66.6801 79.9098C65.3201 80.0698 64.2101 81.0498 63.2001 81.8798C61.9201 82.9298 60.7101 84.0698 59.4101 85.0798C57.8401 86.2998 56.2101 87.3298 54.7801 88.6998C53.8301 89.6098 52.9501 90.6598 51.9301 91.4898C50.8201 92.4098 49.5601 93.0798 48.4001 93.9098C47.3101 94.6998 46.3001 95.7598 45.4901 96.8398C45.2801 97.1098 45.1001 97.3898 44.9301 97.6898C44.8801 97.7798 44.5001 98.3098 44.6801 98.1598C44.9301 97.9498 44.8001 98.0198 44.7201 98.0098C44.5101 97.9798 43.9801 98.2198 43.7401 98.2898C41.2101 99.0498 38.0801 99.2498 36.1501 101.24C34.4901 102.95 33.5601 105.73 31.9201 107.23C30.1401 108.86 27.3401 108.74 25.3201 109.96C23.1401 111.27 21.0001 112.71 19.0901 114.39C18.0901 115.27 17.0801 116.22 16.3701 117.35C15.6101 118.57 15.1101 119.94 14.2601 121.11C12.6901 123.27 9.79008 123.6 7.86008 125.35C5.66008 127.35 4.78008 130.24 4.20008 133.06C3.67008 135.66 3.30008 138.29 3.01008 140.93C2.95008 141.53 2.79008 142.21 2.82008 142.82C2.82008 142.82 3.12008 141.64 2.85008 142.51C2.79008 142.72 2.73008 142.93 2.66008 143.14C2.66008 143.14 2.62008 143.29 2.47008 143.65C2.03008 144.74 1.10008 145.46 0.590077 146.65C-0.339923 148.79 -0.109923 151.43 0.660077 153.57C1.57008 156.08 3.23008 158.44 4.77008 160.61C5.58008 161.76 6.44008 162.89 7.41008 163.91C8.33008 164.88 9.31008 165.54 10.4001 166.29C11.0001 166.7 11.5801 167.14 12.0501 167.7C12.2101 167.89 12.3501 168.17 12.5001 168.33C12.3201 168.14 12.4001 167.8 12.5501 168.59C12.8301 170.07 13.3801 171.51 14.0601 172.85C14.7401 174.19 15.5201 175.56 16.5501 176.66C17.5801 177.76 18.7701 178.37 20.1201 179.05C21.4701 179.73 22.6001 180.7 23.7401 181.73C24.8001 182.68 25.9601 183.65 26.3801 185.03C27.2401 187.84 28.5201 190.71 30.6801 192.76C32.9501 194.92 36.3201 195.67 39.3101 196.25C40.1901 196.42 41.0901 196.59 41.9401 196.87C43.2601 197.3 44.1001 198.26 45.3001 198.83C49.9701 201.07 55.3201 199.99 60.0501 198.65C61.1701 198.33 62.4001 198.04 63.4101 197.45C64.3001 196.94 64.5801 196.34 65.3601 195.84C66.4201 195.15 67.5801 194.57 68.7701 194.14C69.5701 193.85 70.4401 193.84 71.2701 193.67C72.6201 193.39 74.0001 193.01 75.2501 192.44C76.5001 191.87 77.3001 190.95 78.0201 189.75C79.3601 187.51 81.4401 186.12 83.6101 184.71C84.6401 184.03 85.7301 183.32 86.8901 182.89C88.2501 182.39 89.6901 182.1 90.9801 181.35C93.9901 179.61 94.7301 175.93 97.5201 174C99.5801 172.57 101.71 171.07 103.91 169.86C106.28 168.56 108.66 167.29 110.24 164.98C111.15 163.64 111.53 162.03 112.74 160.89C113.75 159.94 115.07 159.9 116.35 159.52C117.72 159.11 119.16 158.58 120.07 157.4C120.92 156.29 121.45 154.94 122.24 153.78C124.23 150.88 127.92 150.68 130.61 148.68C131.96 147.68 132.93 146.54 133.78 145.1C134.63 143.66 135.67 142.74 137.2 142.14C139.61 141.2 142.16 139.86 144.03 138.04C145.18 136.92 145.89 135.42 147.06 134.32C148.07 133.37 149.54 132.94 150.72 132.21C152.1 131.35 153.47 130.27 154.44 128.95C155.41 127.63 155.77 126.12 157.14 125.17C158.24 124.41 159.54 124.28 160.79 123.91C162.24 123.48 163.71 122.95 164.87 121.95C166.03 120.95 166.69 119.69 167.77 118.7C168.79 117.77 169.91 116.87 171.12 116.21C172.48 115.47 173.94 115.09 175.08 113.98C175.63 113.44 175.96 112.79 176.43 112.2C176.95 111.56 177.57 111.02 178.23 110.52C179.43 109.6 180.75 108.95 182.05 108.19C183.35 107.43 184.61 106.57 185.87 105.71C188.31 104.04 191.2 102.53 193.23 100.35C194.4 99.0898 194.92 97.3998 196.21 96.2298C197.2 95.3198 198.42 94.7998 199.61 94.1998C201.97 93.0098 204.63 91.5598 206.31 89.4698C207.14 88.4398 207.41 87.5998 208.25 86.5098C209.15 85.3298 210.15 84.1898 211.37 83.3298C212.48 82.5498 213.83 82.1698 215.03 81.5698C216.39 80.8898 217.72 80.0998 218.84 79.0698C220.1 77.9198 220.83 76.5398 221.59 75.0298C222.24 73.7398 222.91 72.6098 224.22 71.9098C226.88 70.4998 229.79 69.8898 231.73 67.3798C233.5 65.0998 234.7 62.0798 235.41 59.2998C236.38 55.4798 237.29 51.4498 236.45 47.5198C235.76 44.3198 233.88 40.7798 231.19 38.8398C230.22 38.1398 229.48 37.7698 229.03 36.8998C228.94 36.7198 228.72 36.1698 228.74 36.2298C228.75 36.2698 228.51 35.5498 228.45 35.3798C228.16 34.5298 227.85 33.6998 227.41 32.9098C226.44 31.1498 225.13 29.7198 223.68 28.3498C222.85 27.5598 221.93 26.5498 220.91 25.9898C220.02 25.4998 218.82 25.6798 217.85 25.5398C216.37 25.3098 215.84 24.2898 215.03 23.1298C212.81 19.9698 211.02 16.3498 208.18 13.6898C206.16 11.7798 203.24 11.6898 200.98 10.1398C200.89 10.0798 200.58 9.83976 200.6 9.84976C200.52 9.72976 200.32 9.59976 200.6 9.84976C200.54 9.74976 200.49 9.63976 200.45 9.52976C200.14 8.82976 199.76 8.15976 199.37 7.50976C198.59 6.20976 197.6 4.98976 196.33 4.13976C194.14 2.65976 192.05 0.909763 189.42 0.329763C186.94 -0.210237 183.6 -0.310237 181.22 0.759763C180.09 1.26976 179.35 2.21976 178.39 2.94976C177.31 3.77976 175.71 3.64976 174.43 3.43976C172.58 3.13976 172.2 9.82976 174.43 10.1898C175.66 10.3898 177.02 10.4098 178.21 9.97976C179.46 9.52976 180.21 8.33976 181.31 7.63976C183.13 6.48976 185.62 6.69976 187.67 6.83976C190.23 7.00976 191.91 8.16976 193.93 9.60976C194.85 10.2598 195.87 10.7298 196.63 11.5798C197.39 12.4298 197.9 13.3898 198.4 14.3998C199.57 16.7598 201.81 17.5798 204.19 18.3998C205.21 18.7498 206.12 19.0398 206.95 19.7698C208.18 20.8498 209.14 22.2798 210.02 23.6398C210.9 24.9998 211.85 26.4998 212.81 27.8998C213.6 29.0498 214.42 30.5798 215.55 31.4398C216.38 32.0698 217.52 32.2598 218.54 32.3498C219 32.3898 219.5 32.3498 219.96 32.4498C220.49 32.5598 219.78 32.3198 220.12 32.4898C220.25 32.5598 220.38 32.6898 220.49 32.7698C222.64 34.3898 224.94 36.4798 225.94 39.0198C226.71 40.9698 227.38 43.2398 229.41 44.6798C230.52 45.4598 231.41 46.1598 232.2 47.2998C232.91 48.3298 233.56 49.5598 233.81 50.6298C233.64 49.9198 233.86 51.3298 233.81 50.4398C233.81 50.4898 233.78 51.5298 233.83 50.8498C233.8 51.3098 233.72 51.8998 233.66 52.2598C233.38 53.8598 232.99 55.4698 232.53 57.0398C232.27 57.9498 232.71 56.6098 232.41 57.4098C232.32 57.6498 232.22 57.8798 232.12 58.1098C231.94 58.5198 231.74 58.9198 231.53 59.3098C230.94 60.4298 230.39 61.5998 229.39 62.4098C227.31 64.0998 224.42 64.3798 222.39 66.0798C221.32 66.9798 220.6 68.1098 219.95 69.3298C219.36 70.4298 218.92 71.6398 218.03 72.5398C216.25 74.3398 213.78 75.1698 211.54 76.2198C209.3 77.2698 207.42 79.5898 206.06 81.5898C205.68 82.1498 205.38 82.7398 205.02 83.3098C204.62 83.9498 205.33 82.9698 204.86 83.5298C204.73 83.6898 204.6 83.8498 204.45 83.9898C203.6 84.8498 202.52 85.5198 201.5 86.1498C199.56 87.3498 197.24 88.1298 195.49 89.6098C194.25 90.6598 193.49 91.8598 192.66 93.2398C191.96 94.3998 191.01 95.1598 189.9 95.8998C187.74 97.3598 185.6 98.8398 183.43 100.27C181.26 101.7 178.7 102.84 176.66 104.6C176.12 105.06 175.59 105.55 175.13 106.09C174.69 106.59 174.42 107.22 173.97 107.7C173.08 108.66 171.64 108.98 170.51 109.57C168.34 110.68 166.2 112.55 164.73 114.49C164 115.45 163.39 116.02 162.28 116.54C161.17 117.06 159.98 117.35 158.77 117.63C157.56 117.91 156.49 118.41 155.56 119.27C154.4 120.35 153.87 121.66 153.03 122.95C152.28 124.11 151.07 124.95 149.92 125.67C148.77 126.39 147.46 126.8 146.43 127.64C145.4 128.48 144.57 129.65 143.74 130.75C142.99 131.74 142.23 132.42 141.18 133.11C140.13 133.8 139.11 134.35 138.04 134.87C137.1 135.33 136.01 135.62 135.13 136.18C133.87 136.98 132.87 138.22 132.12 139.49C131.37 140.76 130.57 141.62 129.37 142.45C126.81 144.21 123.64 144.49 121.49 146.92C119.93 148.69 119.43 151.39 117.18 152.39C116.17 152.84 115.12 153.03 114.06 153.27C112.62 153.6 111.55 154.53 110.66 155.68C109.77 156.83 109.4 158.1 108.65 159.23C107.9 160.36 106.79 161.18 105.7 161.9C103.94 163.07 102.01 163.94 100.24 165.12C98.2501 166.45 96.1601 167.61 94.6101 169.47C93.6501 170.62 92.9401 171.92 92.0801 173.14C91.2701 174.29 89.9901 174.98 88.7201 175.49C87.7101 175.89 86.6401 176.07 85.6601 176.52C84.5701 177.01 83.5501 177.67 82.5601 178.33C80.8101 179.5 78.7601 180.79 77.4401 182.46C76.7001 183.4 76.2001 184.86 75.4101 185.38C74.4701 186 73.3401 186.37 72.2601 186.65C70.4301 187.12 68.7001 187.23 66.9501 188.02C65.9801 188.46 65.0001 188.96 64.1401 189.59C63.7201 189.9 63.3601 190.26 62.9901 190.63C62.9301 190.69 62.8901 190.79 62.8301 190.84C63.2501 190.47 62.6601 190.89 62.5601 190.94C60.7501 191.93 58.5101 192.29 56.5201 192.73C54.4201 193.19 52.5101 193.45 50.3501 193.23C49.2101 193.12 48.0401 192.95 46.9401 192.61C45.9201 192.29 45.3001 191.65 44.4301 191.1C42.7401 190.02 40.6401 189.73 38.7001 189.33C36.2401 188.83 33.3301 188.13 31.5501 186.24C30.7801 185.43 30.1901 184.46 29.7101 183.46C29.4601 182.93 29.2301 182.38 29.0301 181.83C28.7301 181.02 29.1701 182.31 28.9501 181.57C28.8801 181.32 28.8001 181.06 28.7301 180.81C28.2101 179.13 27.3001 177.8 26.0501 176.57C24.8001 175.34 23.6301 174.17 22.2501 173.24C21.3201 172.62 20.2801 172.2 19.3001 171.66C18.2301 171.07 17.5501 170.26 16.8701 169.24C16.2601 168.32 15.7701 167.31 15.3801 166.28C15.1501 165.67 15.6401 166.39 15.2801 165.95L15.2201 165.73C15.3101 166.23 15.3201 166.27 15.2401 165.83C15.0701 164.93 14.8701 164.05 14.4501 163.23C13.8301 162 12.9001 161.02 11.8101 160.18C10.9201 159.49 9.90008 159.01 9.10008 158.22C7.32008 156.47 5.89008 154.27 4.57008 152.17C4.03008 151.31 3.73008 150.84 3.35008 150.08C2.97008 149.32 2.97008 148.44 2.98008 149.86C2.99008 151.28 2.44008 151.51 2.83008 151.15C3.06008 150.94 3.30008 150.67 3.49008 150.41C5.61008 147.54 5.69008 143.93 6.12008 140.56C6.26008 139.44 6.43008 138.32 6.61008 137.21C6.63008 137.07 6.75008 136.43 6.65008 136.98C6.70008 136.69 6.76008 136.41 6.82008 136.12C6.95008 135.5 7.10008 134.89 7.27008 134.28C7.31008 134.12 7.36008 133.97 7.41008 133.81C7.21008 134.43 7.43008 133.77 7.47008 133.67C7.74008 133.08 8.02008 132.55 8.44008 132.05C9.19008 131.16 10.2401 130.62 11.2701 130.12C13.5101 129.06 15.2101 127.9 16.4801 125.72C17.0901 124.67 17.7201 123.23 18.2001 122.6C18.9001 121.69 19.7201 120.93 20.6101 120.2C22.3301 118.79 24.1901 117.54 26.1001 116.39C28.0101 115.24 30.0901 115.21 31.9601 114.16C33.8301 113.11 34.8301 111 35.9401 109.28C36.5101 108.39 37.0901 107.35 38.0001 106.78C39.0501 106.12 40.2601 105.86 41.4501 105.59C42.4901 105.36 43.4801 105.03 44.5001 104.74C45.8101 104.37 46.0701 103.92 46.7901 102.8C46.4701 103.3 46.9701 102.61 46.9901 102.58C47.1701 102.35 47.3601 102.12 47.5501 101.9C47.9301 101.47 48.3201 101.05 48.7601 100.68C49.6701 99.9098 50.7801 99.3698 51.7401 98.6698C53.5501 97.3498 54.9101 95.5898 56.6101 94.1398C57.9501 92.9998 59.4901 92.0998 60.8601 90.9798C61.9201 90.1098 62.9301 89.1698 63.9901 88.2998C64.8401 87.5998 65.7801 86.6698 66.9101 86.5598C69.3301 86.3198 71.2101 85.4698 72.5301 83.3198C73.2001 82.2298 73.6501 81.1998 74.7001 80.4298C75.3601 79.9398 76.1101 79.6898 76.8101 79.2898C77.8301 78.6998 78.7601 77.7498 79.6901 77.0198C81.1101 75.8998 82.5601 74.5598 84.1801 73.7198C85.3401 73.1198 86.6601 73.1798 87.8901 72.8398C89.2301 72.4698 90.3601 71.7598 91.2701 70.6998C92.0501 69.7898 92.4001 68.3598 93.0001 67.5598C93.1401 67.3698 93.5601 67.2598 93.2901 67.3598C93.5101 67.2798 93.6801 67.2398 93.8701 67.1198C95.2301 66.2498 96.4301 64.8698 97.6701 63.8398C99.0201 62.7198 100.71 60.8098 102.61 61.0998C103.69 61.2598 104.67 61.9798 105.79 61.7398C107.32 61.4198 108.26 60.0298 108.67 58.6098C108.81 58.1298 108.92 57.6498 108.98 57.1598L109 56.7998C109.1 55.5498 109.07 55.5998 108.9 56.9698C109.04 56.8998 109.4 56.3298 109.31 56.4198C109.69 56.0298 110.1 55.6598 110.49 55.2698C112.11 53.6498 113.67 51.9898 115.23 50.3298C116.79 48.6698 119.26 48.5498 121.43 48.0198C124.4 47.2998 125.1 44.5498 124.87 41.7698L124.19 45.5798C125.32 44.1798 126.5 42.8298 127.73 41.5198C128.63 40.5698 129.56 39.5398 130.67 38.8198C131.9 38.0198 133.17 37.9498 134.59 37.9098C135.7 37.8798 136.9 37.7698 137.84 37.1298C138.92 36.3898 139.6 35.2498 140.25 34.1498C141.25 32.4698 142.26 31.1498 144.21 30.6098C145.4 30.2798 146.65 30.1198 147.87 29.9098C149.03 29.7098 150.46 29.5898 151.47 28.9198C152.06 28.5298 152.45 27.8898 152.69 27.2298C152.79 26.9598 152.95 26.9998 152.61 27.3298C152.66 27.2798 152.97 27.0098 152.71 27.1898C153.31 26.7798 153.85 26.1098 154.3 25.5398C155.08 24.5598 155.72 23.5098 156.85 22.8898C157.68 22.4398 158.63 22.3598 159.54 22.1198C161.95 21.4698 163.74 20.6198 164.96 18.3898C167.02 14.6398 169.48 10.1598 174.4 10.1698C176.48 10.1698 176.5 3.41976 174.4 3.41976L174.43 3.51976Z" fill="black"/>
<path d="M189.21 6.53953C188.43 9.26953 188 12.0695 187.95 14.9095C187.95 15.2795 187.95 15.6395 187.95 16.0095C187.95 16.1895 187.95 16.3795 187.97 16.5595C187.98 16.8795 187.97 17.2295 188.06 17.5495C188.15 17.8795 188.26 18.1795 188.49 18.4395C188.66 18.6295 188.91 18.8195 189.19 18.7995C189.41 18.7795 189.59 18.6895 189.76 18.5495C189.9 18.4195 190 18.2695 190.07 18.0895C190.17 17.9095 190.24 17.7095 190.26 17.4895C190.28 17.2295 190.3 16.9995 190.27 16.7395C190.26 16.6295 190.25 16.5195 190.24 16.4095C190.22 16.1895 190.2 15.9595 190.19 15.7395C190.16 15.2895 190.14 14.8495 190.13 14.3995C190.11 13.5095 190.13 12.6195 190.18 11.7295L190.15 12.1295C190.25 10.5695 190.46 9.02953 190.8 7.49953C190.86 7.20953 190.81 6.76953 190.69 6.49953C190.59 6.28953 190.47 6.09953 190.27 5.97953C190.11 5.87953 189.9 5.83953 189.71 5.92953C189.47 6.04953 189.29 6.28953 189.21 6.53953Z" fill="black"/>
<path d="M174.5 10.6496C174.48 11.3296 174.5 12.0096 174.57 12.6796C174.65 13.4696 174.76 14.2596 174.93 15.0296C174.99 15.3196 175.09 15.5996 175.17 15.8796C175.22 16.0596 175.31 16.2296 175.38 16.3996C175.43 16.5396 175.5 16.6496 175.61 16.7496C175.68 16.8496 175.78 16.9296 175.9 16.9696L176.12 17.0096C176.24 17.0096 176.35 16.9696 176.44 16.8896C176.52 16.8496 176.58 16.7996 176.62 16.7196C176.72 16.6196 176.79 16.4896 176.83 16.3596C176.93 16.0396 176.96 15.6996 176.89 15.3696C176.86 15.2496 176.84 15.1196 176.81 14.9896C176.78 14.8596 176.75 14.7496 176.72 14.6196C176.66 14.3796 176.59 14.1496 176.53 13.9096C176.4 13.4296 176.3 12.9496 176.22 12.4596C176.17 12.1796 176.14 11.9096 176.1 11.6296L176.14 11.9596C176.09 11.5096 176.06 11.0596 176.04 10.5996C176.04 10.4396 176.02 10.2896 175.96 10.1496C175.93 10.0096 175.87 9.88963 175.79 9.77963C175.73 9.66963 175.64 9.59963 175.54 9.53963C175.45 9.46963 175.35 9.43963 175.24 9.44963C175.01 9.46963 174.82 9.60963 174.7 9.80963L174.59 10.0496C174.52 10.2396 174.49 10.4396 174.5 10.6496Z" fill="black"/>
<path d="M109.37 159.11C109.55 158.54 109.69 157.96 109.8 157.38C109.92 156.77 109.98 156.15 110 155.53C110.05 154.37 109.96 153.2 109.76 152.05C109.64 151.37 109.46 150.68 109.2 150.04C109.11 149.82 108.91 149.52 108.66 149.44L108.43 149.4C108.3 149.4 108.19 149.44 108.1 149.52C107.91 149.65 107.77 149.85 107.7 150.08C107.6 150.4 107.55 150.78 107.64 151.11C107.72 151.39 107.8 151.68 107.88 151.96L107.78 151.64C108.05 152.54 108.25 153.46 108.36 154.39L108.32 154.05C108.43 155.05 108.44 156.06 108.37 157.06L108.39 156.76C108.35 157.31 108.29 157.86 108.19 158.4C108.12 158.78 108.23 159.31 108.58 159.52C108.91 159.72 109.25 159.44 109.36 159.11H109.37Z" fill="black"/>
<path d="M126.23 145.8C126.4 145.28 126.53 144.75 126.63 144.21C126.73 143.67 126.78 143.1 126.8 142.54C126.82 142.08 126.79 141.61 126.73 141.14C126.66 140.55 126.58 139.97 126.44 139.4C126.35 139.04 126.23 138.7 126.09 138.36C126.01 138.17 125.92 137.98 125.78 137.82C125.66 137.68 125.53 137.54 125.41 137.4L125.23 137.29L125.03 137.25L124.83 137.3C124.72 137.35 124.64 137.42 124.58 137.51C124.31 137.85 124.27 138.31 124.34 138.72C124.37 138.88 124.39 139.03 124.41 139.19C124.44 139.44 124.55 139.69 124.62 139.93L124.52 139.6C124.62 139.94 124.73 140.29 124.83 140.63L124.73 140.3C124.91 140.91 125.04 141.53 125.11 142.16L125.07 141.81C125.15 142.52 125.18 143.25 125.13 143.96L125.15 143.66C125.12 144.12 125.06 144.58 124.97 145.03C124.95 145.17 124.94 145.3 124.97 145.44C124.97 145.57 125.01 145.7 125.06 145.82C125.14 145.99 125.23 146.13 125.39 146.23C125.52 146.31 125.68 146.34 125.83 146.27C126.02 146.17 126.15 145.99 126.22 145.79L126.23 145.8Z" fill="black"/>
<path d="M141.53 134.29C141.68 133.73 141.8 133.18 141.86 132.6C141.9 132.25 141.92 131.89 141.94 131.53C141.95 131.28 141.95 131.04 141.94 130.79C141.85 129.57 141.61 128.38 141.17 127.24C140.94 126.64 140.63 126.06 140.28 125.52C140.2 125.39 140.1 125.29 139.97 125.23C139.86 125.15 139.74 125.11 139.6 125.12L139.35 125.18C139.22 125.24 139.11 125.33 139.04 125.44C138.87 125.65 138.76 125.92 138.72 126.19L138.7 126.57C138.7 126.82 138.75 127.06 138.85 127.29C139.26 128.06 139.59 128.88 139.84 129.71L139.73 129.36C139.91 129.97 140.04 130.59 140.11 131.21L140.07 130.83C140.1 131.12 140.13 131.4 140.17 131.69L140.13 131.32C140.2 131.92 140.21 132.52 140.18 133.13L140.2 132.81C140.19 133.02 140.17 133.23 140.14 133.43C140.11 133.71 140.12 134.05 140.24 134.31C140.33 134.5 140.43 134.66 140.61 134.77C140.66 134.82 140.73 134.84 140.8 134.84C140.9 134.87 141 134.86 141.1 134.81C141.31 134.71 141.48 134.49 141.54 134.27L141.53 134.29Z" fill="black"/>
<path d="M155.03 121.4C155.12 120.95 155.18 120.5 155.21 120.04C155.25 119.48 155.28 118.92 155.22 118.36C155.16 117.8 155.09 117.23 154.96 116.68C154.91 116.45 154.85 116.22 154.78 116C154.68 115.67 154.59 115.34 154.46 115.02C154.36 114.78 154.25 114.54 154.13 114.3C154 114.04 153.84 113.73 153.62 113.54C153.54 113.47 153.45 113.4 153.36 113.33L153.16 113.21L152.94 113.17L152.72 113.22C152.61 113.27 152.52 113.35 152.45 113.45C152.33 113.6 152.26 113.76 152.21 113.95C152.15 114.2 152.12 114.5 152.19 114.76C152.28 115.11 152.36 115.46 152.51 115.79C152.62 116.01 152.73 116.24 152.82 116.47C153.01 116.92 153.2 117.37 153.34 117.84L153.24 117.52C153.35 117.89 153.44 118.27 153.52 118.65C153.6 119.03 153.66 119.4 153.7 119.78L153.66 119.46C153.72 120.03 153.74 120.61 153.71 121.18C153.71 121.31 153.73 121.44 153.78 121.56C153.81 121.68 153.85 121.78 153.92 121.88C154.02 122.01 154.14 122.12 154.3 122.15C154.36 122.17 154.42 122.17 154.47 122.15C154.56 122.14 154.64 122.1 154.71 122.03C154.88 121.86 154.95 121.65 155 121.42L155.03 121.4Z" fill="black"/>
<path d="M174.78 109.19C174.98 108.5 175.15 107.79 175.26 107.08C175.37 106.37 175.43 105.58 175.43 104.83C175.43 103.4 175.26 101.98 174.91 100.59C174.8 100.14 174.67 99.6996 174.52 99.2596C174.46 99.0796 174.39 98.9096 174.31 98.7396C174.2 98.4996 174.06 98.3296 173.9 98.1296C173.78 97.9896 173.67 97.8796 173.49 97.8396C173.33 97.8096 173.16 97.8596 173.04 97.9796C172.93 98.0896 172.85 98.2296 172.8 98.3696C172.69 98.6396 172.72 98.9196 172.75 99.1996C172.75 99.2296 172.75 99.2596 172.76 99.2896L172.73 98.9996C172.74 99.0996 172.75 99.1896 172.76 99.2896C172.77 99.4296 172.78 99.5796 172.81 99.7096C172.84 99.8596 172.89 99.9996 172.94 100.14L172.85 99.8396C172.95 100.17 173.04 100.5 173.15 100.83L173.06 100.52C173.39 101.62 173.6 102.75 173.73 103.89L173.69 103.54C173.82 104.74 173.82 105.95 173.75 107.15L173.77 106.85C173.74 107.39 173.68 107.92 173.59 108.45C173.53 108.85 173.63 109.38 174 109.61C174.34 109.82 174.7 109.53 174.8 109.18L174.78 109.19Z" fill="black"/>
<path d="M193.24 94.1996V94.1696C193.26 94.2596 193.28 94.3496 193.31 94.4296V94.3996C193.31 94.4996 193.33 94.5996 193.34 94.6996V94.6696C193.34 94.7696 193.33 94.8696 193.32 94.9696V94.9396C193.3 95.0296 193.28 95.1196 193.25 95.2196C193.25 95.1896 193.27 95.1696 193.28 95.1496L193.16 95.3896C193.34 95.0496 193.45 94.6796 193.57 94.3096C193.7 93.9096 193.78 93.4996 193.87 93.0896C194 92.4496 194.12 91.7996 194.2 91.1496C194.38 89.6396 194.39 88.0596 194.03 86.5696C193.96 86.2896 193.88 85.9996 193.79 85.7296C193.71 85.4896 193.59 85.2796 193.47 85.0596C193.21 84.6096 192.71 84.2496 192.18 84.2796C191.89 84.2896 191.63 84.4996 191.49 84.7396C191.33 85.0096 191.26 85.2996 191.24 85.6096C191.22 85.9196 191.24 86.2796 191.38 86.5696L191.54 86.8696C191.65 87.0396 191.8 87.1696 191.99 87.2496C192.05 87.2596 192.1 87.2896 192.16 87.3196L191.92 87.1696C191.98 87.2096 192.03 87.2496 192.08 87.2996L191.87 87.0596C191.96 87.1596 192.03 87.2796 192.1 87.3996L191.93 87.0796C192.03 87.2696 192.09 87.4696 192.16 87.6696L192.05 87.2996C192.2 87.7796 192.29 88.2796 192.35 88.7796L192.3 88.3696C192.38 89.0796 192.38 89.7996 192.34 90.5096L192.37 90.1196C192.32 90.8996 192.21 91.6696 192.08 92.4396C192.05 92.6296 192.02 92.8096 191.98 92.9996C191.94 93.1896 191.93 93.3996 191.91 93.5996C191.88 93.8896 191.82 94.1896 191.83 94.4796C191.83 94.8896 191.94 95.4596 192.31 95.7196C192.46 95.8196 192.59 95.8796 192.78 95.8396C192.97 95.7996 193.1 95.6796 193.19 95.5296C193.43 95.1196 193.42 94.6296 193.27 94.1896L193.24 94.1996Z" fill="black"/>
<path d="M226.95 38.9098C226.73 39.0898 226.5 39.2498 226.27 39.4098L226.45 39.2898C225.91 39.6498 225.34 39.9698 224.74 40.2298C224.44 40.3598 224.13 40.4798 223.82 40.5798C223.51 40.6798 223.19 40.8198 222.87 40.9298C222.51 41.0498 222.15 41.1598 221.78 41.2398L222.04 41.1798C221.6 41.2798 221.16 41.3398 220.72 41.4398L220.98 41.3798C220.66 41.4498 220.33 41.5098 220 41.5598C219.87 41.5598 219.75 41.5998 219.65 41.6898C219.53 41.7598 219.43 41.8598 219.36 41.9798C219.27 42.1198 219.21 42.2698 219.18 42.4298C219.13 42.5998 219.1 42.7798 219.11 42.9598C219.13 43.2898 219.19 43.6598 219.4 43.9298L219.59 44.1398C219.72 44.2598 219.88 44.3198 220.05 44.3198C220.31 44.3398 220.58 44.3398 220.84 44.3398C221.1 44.3398 221.36 44.2998 221.62 44.2498C222.22 44.1398 222.82 43.9898 223.4 43.7998C223.65 43.7198 223.9 43.6298 224.14 43.5198C224.38 43.4098 224.62 43.2598 224.85 43.1198C225.38 42.7898 225.89 42.4398 226.37 42.0398C226.85 41.6398 227.29 41.2198 227.7 40.7498C227.87 40.5598 227.97 40.3498 228.01 40.0998C228.05 39.8498 228.03 39.5098 227.92 39.2698C227.83 39.0798 227.7 38.8498 227.49 38.7898C227.28 38.7298 227.12 38.7798 226.95 38.9098Z" fill="black"/>
<path d="M212.42 25.9599C212.42 25.9599 212.36 25.9799 212.33 25.9899L212.54 25.9399C212.42 25.9399 212.32 25.9799 212.24 26.0499C212.13 26.1099 212.05 26.1899 211.99 26.3099C212.04 26.2599 212.09 26.1899 212.15 26.1299C212.08 26.2199 212 26.3099 211.92 26.3899C211.77 26.5399 211.66 26.7299 211.52 26.8899L211.69 26.6799C211.34 27.1099 210.93 27.4899 210.47 27.7999L210.69 27.6499C210.55 27.7399 210.41 27.8299 210.26 27.9099C210.11 27.9899 209.97 28.0799 209.82 28.1599C209.52 28.3199 209.2 28.4499 208.88 28.5499C208.7 28.6099 208.51 28.6599 208.32 28.6999L208.58 28.6399C208.44 28.6699 208.3 28.6999 208.15 28.7199C208.01 28.7199 207.89 28.7699 207.78 28.8599C207.65 28.9299 207.55 29.0399 207.48 29.1699C207.39 29.3199 207.32 29.4799 207.29 29.6499C207.23 29.8299 207.21 30.0199 207.22 30.2199L207.26 30.6099C207.31 30.8399 207.39 31.0499 207.52 31.2499C207.68 31.4599 207.92 31.6899 208.21 31.6599C209.03 31.5799 209.83 31.3399 210.55 30.9299C211.37 30.4699 212.03 29.8099 212.59 29.0599C212.71 28.8899 212.83 28.7199 212.94 28.5399C213.05 28.3599 213.12 28.1799 213.19 27.9899C213.21 27.9399 213.23 27.8899 213.24 27.8399C213.24 27.8099 213.26 27.7799 213.27 27.7599C213.37 27.4499 213.4 27.1199 213.33 26.7999L213.37 27.1199C213.37 27.1199 213.37 27.0299 213.37 26.9899C213.37 26.7999 213.33 26.6199 213.26 26.4499C213.22 26.3299 213.16 26.2299 213.07 26.1499C213.01 26.0599 212.93 25.9999 212.82 25.9599C212.69 25.9099 212.57 25.9099 212.44 25.9599H212.42Z" fill="black"/>
<path d="M200.02 14.7897C199.62 15.3497 199.3 15.9597 199.01 16.5897C198.88 16.8697 198.79 17.1697 198.7 17.4697C198.58 17.8697 198.48 18.2697 198.42 18.6797C198.35 19.1497 198.32 19.6297 198.31 20.0997C198.31 20.2897 198.34 20.4697 198.4 20.6397C198.44 20.7997 198.5 20.9497 198.6 21.0897C198.67 21.2197 198.78 21.3097 198.9 21.3697C199 21.4497 199.12 21.4897 199.26 21.4797L199.5 21.4197C199.67 21.3397 199.8 21.2097 199.9 21.0497L200.04 20.7597C200.12 20.5297 200.16 20.2897 200.15 20.0497C200.15 19.9497 200.15 19.8497 200.16 19.7497L200.14 20.1197C200.16 19.7497 200.21 19.3897 200.27 19.0297C200.3 18.8497 200.32 18.6697 200.36 18.4897C200.4 18.3097 200.44 18.1197 200.48 17.9397L200.4 18.2597C200.46 18.0397 200.51 17.8197 200.56 17.5997L200.48 17.9097C200.64 17.2697 200.86 16.6497 201.14 16.0497C201.19 15.9197 201.21 15.7897 201.21 15.6497C201.23 15.5097 201.21 15.3597 201.19 15.2197L201.11 14.9697C201.07 14.8597 201.01 14.7597 200.92 14.6697C200.88 14.6097 200.83 14.5597 200.76 14.5397C200.68 14.4797 200.59 14.4497 200.49 14.4497L200.3 14.4897C200.17 14.5497 200.07 14.6497 200 14.7697L200.02 14.7897Z" fill="black"/>
<path d="M18.5101 121.09C18.7201 121.88 19.0701 122.64 19.5801 123.28C19.7301 123.47 19.8901 123.65 20.0601 123.82C20.1801 123.94 20.3201 124.05 20.4501 124.15C20.5801 124.25 20.7301 124.35 20.8701 124.44C21.0701 124.56 21.2701 124.69 21.4801 124.78C21.8801 124.96 22.3201 125.05 22.7501 125.11C22.8501 125.11 22.9401 125.08 23.0201 125.01C23.1101 124.96 23.1901 124.88 23.2401 124.78L23.3401 124.56C23.3901 124.43 23.4101 124.3 23.4101 124.16C23.4201 124.07 23.4201 123.97 23.4101 123.88C23.4101 123.74 23.3701 123.61 23.3201 123.49L23.2101 123.28C23.1301 123.16 23.0301 123.07 22.9001 123.01C22.6501 122.96 22.4101 122.89 22.1801 122.8C22.0601 122.76 21.9501 122.71 21.8401 122.65C21.7301 122.59 21.6101 122.55 21.5001 122.5C21.3701 122.44 21.2501 122.37 21.1301 122.3L21.3001 122.4C21.0601 122.25 20.8401 122.08 20.6201 121.91C20.4001 121.74 20.2101 121.56 20.0201 121.35L20.1501 121.49C19.9201 121.23 19.7201 120.95 19.5601 120.65L19.6501 120.82C19.5801 120.69 19.5201 120.56 19.4601 120.43C19.4301 120.35 19.3801 120.27 19.3201 120.21C19.2701 120.15 19.2101 120.1 19.1401 120.07L19.0001 120.05C18.9201 120.05 18.8601 120.07 18.8001 120.12C18.7501 120.14 18.7101 120.18 18.6901 120.23C18.6301 120.29 18.5901 120.37 18.5601 120.46C18.5001 120.65 18.4701 120.88 18.5201 121.07L18.5101 121.09Z" fill="black"/>
<path d="M6.34016 136.28C6.92016 136.88 7.71016 137.33 8.52016 137.54C9.33016 137.75 10.2602 137.8 11.1302 137.78C12.0502 137.76 12.9702 137.69 13.8802 137.57C14.8602 137.45 15.8602 137.24 16.7402 136.79C17.8202 136.23 18.7502 135.22 18.9002 133.98C18.9402 133.64 18.8902 133.27 18.6602 133.01C18.4702 132.79 18.2102 132.77 17.9802 132.95C17.7502 133.13 17.5202 133.34 17.3102 133.55C17.0702 133.79 16.8002 133.99 16.5202 134.18L16.7202 134.05C15.9602 134.56 15.1302 134.89 14.2502 135.09L14.4602 135.04C13.4202 135.28 12.3402 135.41 11.2702 135.51C10.3302 135.6 9.40016 135.59 8.46016 135.42L8.64016 135.45C8.13016 135.36 7.64016 135.19 7.19016 134.92L7.34016 135.01C7.18016 134.91 7.03016 134.81 6.89016 134.69C6.57016 134.42 6.19016 134.69 6.08016 135.04C5.94016 135.47 6.01016 135.95 6.32016 136.28H6.34016Z" fill="black"/>
<path d="M4.42016 154.8C6.60016 155.05 8.80016 154.85 10.9302 154.38C12.0602 154.13 13.1802 153.82 14.2802 153.45C14.8002 153.28 15.3102 153.09 15.8202 152.9C16.2602 152.73 16.7202 152.58 17.1302 152.35C17.6602 152.05 18.1802 151.65 18.5302 151.13C18.9602 150.48 19.1102 149.6 18.9102 148.84C18.8602 148.63 18.7802 148.44 18.6402 148.28C18.5302 148.16 18.3702 148.04 18.2002 148.06C17.8002 148.1 17.5802 148.52 17.5302 148.88C17.4902 149.13 17.6102 148.66 17.5502 148.81C17.5402 148.85 17.5202 148.89 17.5102 148.92C17.6102 148.64 17.6102 148.72 17.5602 148.81C17.5302 148.85 17.5002 148.9 17.4702 148.94L17.6402 148.73C17.5402 148.85 17.4402 148.98 17.3502 149.11L17.5202 148.9C17.3302 149.14 17.0902 149.34 16.8402 149.51L17.0602 149.36C16.2602 149.89 15.3402 150.25 14.4602 150.62C13.4502 151.04 12.4302 151.42 11.3802 151.74C10.7802 151.92 10.1802 152.09 9.58016 152.23L9.79016 152.18C8.02016 152.58 6.20016 152.79 4.38016 152.68C4.18016 152.67 3.99016 152.85 3.89016 153C3.76016 153.21 3.69016 153.51 3.70016 153.76C3.72016 154.22 3.91016 154.75 4.42016 154.81V154.8Z" fill="black"/>
<path d="M15.3201 167.32C15.9001 167.13 16.4801 166.92 17.0501 166.7C17.3301 166.59 17.5901 166.46 17.8601 166.34C18.1301 166.22 18.4201 166.07 18.7001 165.94C19.8001 165.39 20.8901 164.81 21.9301 164.15C22.5501 163.75 23.1501 163.3 23.7301 162.85C23.8601 162.75 23.9401 162.51 23.9601 162.36C23.9801 162.18 23.9701 162.01 23.9201 161.84C23.8401 161.59 23.6001 161.23 23.2901 161.39C23.0201 161.53 22.7601 161.66 22.4901 161.79C22.2201 161.92 21.9501 162.03 21.6901 162.17C21.1501 162.45 20.6101 162.71 20.0701 162.98C18.9901 163.51 17.9001 164 16.7801 164.44C16.4701 164.56 16.1701 164.71 15.8601 164.84C15.5501 164.97 15.2201 165.11 14.9001 165.24C14.7001 165.32 14.5601 165.56 14.4901 165.75C14.4001 166 14.3801 166.33 14.4401 166.59C14.5001 166.82 14.5901 167.08 14.7801 167.23C14.9501 167.36 15.1201 167.4 15.3301 167.33L15.3201 167.32Z" fill="black"/>
<path d="M26.86 179.6C27.92 179.39 28.93 179.02 29.85 178.46C30.35 178.16 30.82 177.82 31.25 177.43C31.68 177.04 32.08 176.59 32.45 176.12C32.63 175.9 32.79 175.67 32.95 175.43C33.03 175.3 33.1 175.17 33.16 175.04C33.22 174.92 33.29 174.8 33.33 174.68C33.38 174.55 33.4 174.4 33.43 174.27C33.44 174.2 33.45 174.12 33.46 174.05C33.52 173.62 33.44 173.12 33.14 172.79C33.1 172.72 33.04 172.67 32.96 172.64C32.9 172.59 32.83 172.56 32.76 172.56C32.69 172.53 32.62 172.53 32.55 172.56C32.44 172.57 32.34 172.62 32.26 172.71C32.2 172.76 32.13 172.81 32.07 172.86C31.94 172.97 31.85 173.15 31.76 173.3C31.65 173.47 31.56 173.65 31.45 173.83C31.24 174.18 31 174.51 30.75 174.82L30.92 174.61C30.41 175.23 29.83 175.8 29.19 176.3C29.01 176.44 28.83 176.58 28.64 176.7L28.82 176.58C28.14 177.04 27.41 177.41 26.64 177.68C26.55 177.72 26.48 177.78 26.43 177.86C26.36 177.94 26.3 178.03 26.27 178.14C26.2 178.34 26.19 178.55 26.21 178.76C26.23 178.95 26.28 179.16 26.4 179.31L26.53 179.46C26.62 179.54 26.73 179.58 26.85 179.58L26.86 179.6Z" fill="black"/>
<path d="M43.3001 192.26C44.1801 191.39 45.0701 190.51 45.7501 189.46C46.5201 188.27 46.9501 186.87 46.9301 185.45C46.9301 185.17 46.8901 184.9 46.8601 184.63C46.8401 184.48 46.8201 184.33 46.7701 184.19C46.7001 183.94 46.6301 183.68 46.5301 183.44C46.5201 183.41 46.5001 183.38 46.4901 183.34C46.4301 183.22 46.3701 183.08 46.2901 182.97C46.2701 182.94 46.2401 182.92 46.2201 182.89L46.1201 182.78C46.0701 182.7 46.0001 182.64 45.9101 182.6C45.8401 182.54 45.7601 182.51 45.6701 182.51C45.6201 182.51 45.5801 182.49 45.5301 182.49L45.2801 182.55C45.1501 182.61 45.0501 182.69 44.9701 182.81C44.8101 183.01 44.6701 183.29 44.6601 183.55C44.9301 182.93 45.0001 182.72 44.8901 182.92C44.7101 183.23 44.6301 183.59 44.6401 183.95C44.6401 184.23 44.7301 184.6 44.8401 184.86C44.9001 185.01 44.9601 185.15 45.0101 185.31L44.9001 184.96C44.9801 185.23 45.0401 185.5 45.0701 185.77L45.0301 185.38C45.0601 185.64 45.0601 185.9 45.0501 186.17L45.0701 185.79C45.0501 186.11 45.0001 186.42 44.9201 186.73L45.0001 186.4C44.9001 186.8 44.7601 187.19 44.5801 187.56L44.7101 187.29C44.3401 188.06 43.8501 188.75 43.3101 189.41L43.4601 189.22C43.1501 189.6 42.8401 189.96 42.5201 190.33C42.3401 190.53 42.2401 190.74 42.2001 191.01C42.1601 191.28 42.1801 191.63 42.3001 191.88C42.3901 192.08 42.5301 192.32 42.7501 192.39C42.9501 192.45 43.1601 192.42 43.3201 192.26H43.3001Z" fill="black"/>
<path d="M66.11 190.67C66.35 190.13 66.54 189.57 66.69 189C66.79 188.62 66.87 188.25 66.93 187.87C66.99 187.46 67.01 187.04 67.04 186.63C67.08 185.92 67.04 185.21 66.95 184.51C66.86 183.81 66.69 183.11 66.44 182.46C66.3 182.08 66.14 181.69 65.92 181.35C65.72 181.03 65.5 180.75 65.23 180.49C65.15 180.41 65 180.36 64.89 180.36C64.73 180.36 64.59 180.46 64.5 180.58C64.27 180.86 64.21 181.29 64.29 181.64C64.42 182.17 64.56 182.7 64.72 183.23L64.62 182.92C64.92 183.9 65.11 184.9 65.22 185.91L65.18 185.53C65.25 186.17 65.27 186.82 65.23 187.46L65.25 187.11C65.2 187.88 65.1 188.66 64.91 189.41L64.98 189.14C64.94 189.3 64.9 189.46 64.85 189.62C64.77 189.89 64.74 190.18 64.8 190.46C64.84 190.67 64.96 190.97 65.15 191.11C65.31 191.23 65.51 191.3 65.71 191.21C65.92 191.1 66.03 190.91 66.13 190.7L66.11 190.67Z" fill="black"/>
<path d="M88.6601 176.61C89.1701 175.54 89.6001 174.45 89.8301 173.29C89.9501 172.7 90.0001 172.09 89.9701 171.49C89.9501 171.14 89.9201 170.8 89.8601 170.46C89.8001 170.12 89.7101 169.81 89.5901 169.49C89.4701 169.17 89.3101 168.86 89.1301 168.58C89.0301 168.43 88.8701 168.28 88.7401 168.16C88.6501 168.08 88.5601 168.01 88.4601 167.94C88.3301 167.85 88.2101 167.8 88.0501 167.83C87.8901 167.86 87.7701 167.97 87.6901 168.11C87.6101 168.25 87.5701 168.39 87.5401 168.54C87.5001 168.76 87.5301 169.08 87.6201 169.29C87.7101 169.48 87.7801 169.68 87.8401 169.88L87.7601 169.6C87.8201 169.8 87.8701 169.99 87.9501 170.19C87.9901 170.3 88.0301 170.41 88.0601 170.52L87.9701 170.22C88.0201 170.39 88.0701 170.56 88.1201 170.73L88.0301 170.42C88.1401 170.8 88.2201 171.19 88.2701 171.59L88.2301 171.24C88.2701 171.6 88.2801 171.96 88.2601 172.31L88.2801 171.96C88.2701 172.14 88.2601 172.32 88.2501 172.49L88.2701 172.15C88.2301 172.68 88.1401 173.21 88.0101 173.73L88.0801 173.44C87.9001 174.15 87.6501 174.85 87.3901 175.53C87.2901 175.78 87.2801 176.12 87.3401 176.38C87.3901 176.6 87.5001 176.89 87.6901 177.03C87.8501 177.15 88.0601 177.23 88.2501 177.13L88.4201 177.01C88.5401 176.9 88.6201 176.76 88.6701 176.61H88.6601Z" fill="black"/>
<path d="M213 77.4099C213.46 76.5899 213.77 75.6799 213.9 74.7499C213.94 74.4599 213.96 74.1699 213.97 73.8799C213.98 73.6799 213.99 73.4699 213.97 73.2699C213.95 72.9799 213.92 72.6899 213.87 72.3999C213.82 72.1099 213.75 71.8499 213.66 71.5799C213.63 71.4799 213.6 71.3799 213.55 71.2799C213.47 71.1299 213.39 70.9699 213.31 70.8199C213.21 70.6399 213.1 70.4699 212.98 70.3099C212.89 70.1899 212.74 70.0599 212.58 70.0699C212.44 70.0799 212.33 70.1499 212.25 70.2599C212.15 70.3899 212.08 70.5399 212.06 70.6999V70.9299C212.05 71.0799 212.08 71.2199 212.13 71.3599V71.3799C212.12 71.3099 212.1 71.2499 212.08 71.1799C212.18 71.5199 212.25 71.8699 212.3 72.2199C212.33 72.3899 212.36 72.5599 212.39 72.7299C212.42 72.8999 212.45 73.0799 212.47 73.2499L212.44 72.9499C212.49 73.3899 212.51 73.8399 212.48 74.2799L212.5 73.9799C212.47 74.3799 212.41 74.7799 212.31 75.1599L212.37 74.8999C212.27 75.2999 212.13 75.6799 211.96 76.0499L212.06 75.8399C212.06 75.8399 212.02 75.9299 212 75.9699C211.93 76.0699 211.89 76.1899 211.87 76.3099C211.83 76.4399 211.81 76.5699 211.82 76.7099C211.82 76.8499 211.84 76.9799 211.89 77.1099C211.92 77.2299 211.97 77.3399 212.04 77.4399C212.15 77.5899 212.32 77.7499 212.53 77.7299C212.74 77.7099 212.9 77.5899 213 77.4199V77.4099Z" fill="black"/>
<path d="M234.55 51.9199C233.75 52.8799 232.79 53.7099 231.76 54.4099L231.97 54.2699C231.75 54.4199 231.52 54.5699 231.3 54.7199L231.51 54.5699C230.19 55.4599 228.71 56.1199 227.15 56.4799L227.41 56.4199C226.48 56.6299 225.52 56.7499 224.57 56.5799L224.82 56.6199C224.7 56.5999 224.57 56.5599 224.45 56.5699C224.39 56.5699 224.33 56.5699 224.27 56.5799C224.16 56.5799 224.05 56.5899 223.95 56.5999C223.59 56.6099 223.38 56.9899 223.3 57.2999C223.2 57.7099 223.25 58.1599 223.48 58.5099C223.64 58.7699 223.85 59.0099 224.09 59.1999C224.33 59.3899 224.67 59.5099 224.99 59.5599C225.46 59.6399 225.94 59.6499 226.41 59.5799C227.32 59.4499 228.24 59.1799 229.09 58.8399C230.73 58.1999 232.26 57.2299 233.5 55.9799C234.23 55.2399 234.87 54.3899 235.41 53.5099C235.65 53.1099 235.65 52.5499 235.43 52.1399C235.35 51.9999 235.23 51.8299 235.07 51.7799C234.89 51.7299 234.67 51.7499 234.55 51.8999V51.9199Z" fill="black"/>
<path d="M159.3 19.4397C159.18 20.4297 159.24 21.4397 159.48 22.4097C159.72 23.3797 160.12 24.2997 160.67 25.1297C160.84 25.3797 161.04 25.5997 161.24 25.8097C161.4 25.9897 161.58 26.1497 161.76 26.3097C161.88 26.4097 162.05 26.4497 162.2 26.3897C162.36 26.3197 162.48 26.1397 162.53 25.9797C162.6 25.7697 162.62 25.5297 162.57 25.3097L162.51 25.0997C162.46 24.9797 162.39 24.8797 162.3 24.7897C162.22 24.7097 162.15 24.6297 162.07 24.5497L162.19 24.6897C161.96 24.4297 161.76 24.1497 161.55 23.8597C161.34 23.5697 161.16 23.2997 161 22.9897L161.1 23.1697C160.87 22.7497 160.69 22.2997 160.55 21.8497L160.61 22.0597C160.48 21.6397 160.4 21.2197 160.35 20.7897L160.38 21.0097C160.33 20.5997 160.32 20.1897 160.35 19.7797V19.9997C160.34 19.9497 160.35 19.8897 160.35 19.8397C160.37 19.6297 160.37 19.4197 160.28 19.2197C160.22 19.0897 160.1 18.8997 159.96 18.8597C159.6 18.7497 159.36 19.1297 159.32 19.4397H159.3Z" fill="black"/>
<path d="M142.13 30.65C142.16 30.9 142.21 31.14 142.28 31.38C142.36 31.68 142.46 31.99 142.58 32.28C142.8 32.8 143.08 33.3 143.42 33.75C143.76 34.2 144.15 34.61 144.58 34.97C144.81 35.16 145.08 35.32 145.34 35.48C145.55 35.6 145.77 35.72 146 35.81C146.13 35.86 146.25 35.91 146.38 35.96C146.56 36.02 146.75 36.06 146.94 36.08C147.21 36.11 147.49 36.11 147.76 36.1C147.93 36.1 148.08 35.97 148.17 35.83C148.26 35.67 148.31 35.5 148.32 35.32C148.33 35.14 148.32 34.93 148.24 34.76L148.14 34.58C148.07 34.48 147.99 34.41 147.88 34.36C147.56 34.28 147.26 34.17 146.96 34.03C146.82 33.96 146.66 33.92 146.51 33.86C146.36 33.8 146.22 33.74 146.07 33.67C145.91 33.59 145.75 33.5 145.59 33.41L145.76 33.51C145.2 33.17 144.67 32.75 144.24 32.26L144.38 32.41C144.08 32.07 143.82 31.71 143.61 31.31L143.71 31.5C143.54 31.19 143.4 30.86 143.3 30.52L143.36 30.73C143.3 30.55 143.26 30.36 143.22 30.17C143.19 29.99 143.09 29.78 142.95 29.66C142.83 29.56 142.65 29.51 142.51 29.58C142.35 29.66 142.23 29.82 142.18 29.99L142.13 30.2C142.11 30.35 142.11 30.51 142.14 30.66L142.13 30.65Z" fill="black"/>
<path d="M126.14 40.75C126.13 42.06 126.54 43.35 127.23 44.46C127.55 44.98 127.95 45.45 128.39 45.87C128.83 46.29 129.32 46.63 129.87 46.9C130.14 47.03 130.41 47.14 130.69 47.21C130.76 47.23 130.83 47.24 130.9 47.26C131 47.28 131.11 47.31 131.21 47.31C131.29 47.31 131.41 47.27 131.49 47.24C131.63 47.2 131.76 47.15 131.89 47.09C132 47.04 132.09 46.94 132.15 46.85C132.25 46.69 132.29 46.5 132.3 46.32C132.31 46.16 132.3 46 132.25 45.85C132.2 45.7 132.13 45.52 131.99 45.42C131.91 45.36 131.83 45.3 131.75 45.24C131.62 45.15 131.48 45 131.33 44.95C131.15 44.89 130.97 44.83 130.79 44.76C130.61 44.69 130.44 44.62 130.27 44.54C130.1 44.46 129.93 44.37 129.76 44.27L129.96 44.39C129.84 44.32 129.72 44.24 129.6 44.17L129.8 44.29C129.31 43.99 128.87 43.62 128.49 43.19L128.65 43.37C128.35 43.03 128.08 42.65 127.86 42.25L127.98 42.47C127.81 42.15 127.67 41.82 127.56 41.47L127.64 41.72C127.55 41.42 127.49 41.11 127.45 40.8L127.48 41.07C127.47 40.96 127.46 40.85 127.45 40.74C127.44 40.5 127.38 40.24 127.24 40.04C127.14 39.9 126.96 39.74 126.77 39.76C126.29 39.8 126.15 40.37 126.14 40.77V40.75Z" fill="black"/>
<path d="M112.02 50.3596C111.85 50.8796 111.78 51.4096 111.78 51.9596C111.78 52.2296 111.82 52.5096 111.86 52.7796C111.9 53.0496 111.98 53.3096 112.06 53.5696C112.12 53.7496 112.19 53.9296 112.27 54.1096C112.38 54.3496 112.51 54.5896 112.66 54.8196C112.76 54.9796 112.88 55.1296 113 55.2796C113.17 55.4696 113.34 55.6796 113.55 55.8396C113.76 56.0096 114 56.1596 114.24 56.2896C114.43 56.3896 114.63 56.4796 114.83 56.5396C114.93 56.5796 115.03 56.5896 115.13 56.5496C115.24 56.5396 115.33 56.4896 115.4 56.4096C115.49 56.3296 115.56 56.2296 115.6 56.1196C115.67 55.9996 115.71 55.8696 115.72 55.7296C115.76 55.4396 115.75 55.1296 115.62 54.8596C115.53 54.6596 115.39 54.4296 115.17 54.3496C114.95 54.2696 114.72 54.1696 114.51 54.0396L114.69 54.1496C114.51 54.0396 114.35 53.9096 114.19 53.7796C114.03 53.6496 113.88 53.5096 113.74 53.3596L113.89 53.5296C113.68 53.2996 113.5 53.0396 113.36 52.7696L113.48 52.9896C113.36 52.7596 113.26 52.5196 113.18 52.2696L113.26 52.5196C113.19 52.2996 113.14 52.0696 113.12 51.8296L113.15 52.0996C113.13 51.8996 113.12 51.6896 113.13 51.4896L113.11 51.7596C113.12 51.5496 113.15 51.3496 113.2 51.1496L113.14 51.3896C113.14 51.3896 113.15 51.3496 113.16 51.3296C113.21 51.2096 113.23 51.0896 113.23 50.9596C113.25 50.8296 113.23 50.6996 113.21 50.5696C113.19 50.4496 113.15 50.3396 113.09 50.2396C113.05 50.1396 112.98 50.0596 112.9 49.9896C112.76 49.8796 112.57 49.8096 112.4 49.8996C112.23 49.9896 112.08 50.1696 112.02 50.3596Z" fill="black"/>
<path d="M97.48 61.2698C97.31 61.8798 97.25 62.5098 97.31 63.1398C97.38 63.8098 97.53 64.4798 97.83 65.0898C97.98 65.3898 98.15 65.6898 98.34 65.9598C98.53 66.2298 98.75 66.4898 98.98 66.7298C99.16 66.9198 99.36 67.0998 99.57 67.2698C99.72 67.3898 99.9 67.4898 100.06 67.5898C100.17 67.6598 100.29 67.7198 100.4 67.7798C100.53 67.8398 100.67 67.8998 100.81 67.9498C101 68.0198 101.2 68.0898 101.4 68.1098C101.54 68.1198 101.69 68.0998 101.83 68.0798C102.03 68.0498 102.22 68.0098 102.42 67.9698L102.56 67.8698C102.63 67.7998 102.69 67.7198 102.73 67.6298C102.81 67.4598 102.86 67.2598 102.85 67.0598C102.85 66.8998 102.81 66.7398 102.76 66.5898C102.73 66.4898 102.67 66.4098 102.6 66.3298C102.55 66.2598 102.48 66.1998 102.39 66.1698C102.21 66.1198 102.03 66.0498 101.85 65.9698C101.76 65.9298 101.68 65.8898 101.59 65.8398C101.51 65.7998 101.41 65.7898 101.32 65.7598C100.97 65.6498 100.63 65.4998 100.31 65.2998L100.49 65.4098C100.02 65.1198 99.58 64.7898 99.21 64.3798L99.36 64.5398C99.1 64.2498 98.88 63.9398 98.7 63.5998L98.81 63.7998C98.75 63.6798 98.68 63.5598 98.62 63.4498L98.72 63.6398C98.58 63.3798 98.47 63.1098 98.38 62.8298L98.44 63.0398C98.37 62.7998 98.31 62.5498 98.29 62.2898L98.31 62.4998C98.29 62.2698 98.28 62.0398 98.29 61.8098V61.9998C98.29 61.9198 98.29 61.8498 98.29 61.7698C98.32 61.4898 98.27 61.1298 98.01 60.9698C97.92 60.9198 97.81 60.8898 97.72 60.9398C97.6 60.9998 97.5 61.1298 97.46 61.2598L97.48 61.2698Z" fill="black"/>
<path d="M81.83 74.1598C82.29 74.9098 82.85 75.5898 83.46 76.2098C84.03 76.7798 84.67 77.2898 85.36 77.7198C85.79 77.9898 86.26 78.1898 86.73 78.3698C86.91 78.4398 87.1 78.3798 87.23 78.2598C87.31 78.1898 87.37 78.0998 87.41 77.9998C87.47 77.8898 87.51 77.7798 87.52 77.6598C87.55 77.4098 87.54 77.1298 87.43 76.8898L87.32 76.6898C87.25 76.5798 87.15 76.4898 87.02 76.4398C86.72 76.2898 86.42 76.1298 86.13 75.9498L86.3 76.0498C86.06 75.9098 85.83 75.7598 85.59 75.6198L85.76 75.7198C85.08 75.3098 84.45 74.8198 83.89 74.2598C83.73 74.0998 83.58 73.9398 83.43 73.7798L83.57 73.9298C83.25 73.5698 82.95 73.1798 82.68 72.7798C82.58 72.6398 82.41 72.5098 82.23 72.5098C82.05 72.5098 81.88 72.6498 81.79 72.7998C81.67 72.9998 81.61 73.2498 81.62 73.4798C81.63 73.7098 81.69 73.9498 81.82 74.1498L81.83 74.1598Z" fill="black"/>
<path d="M62.37 87.1898C62.56 87.6298 62.79 88.0598 63.05 88.4598C63.31 88.8598 63.62 89.2298 63.96 89.5598C64.24 89.8398 64.55 90.0998 64.88 90.3298C65.1 90.4898 65.34 90.6298 65.57 90.7598C65.74 90.8598 65.92 90.9598 66.1 91.0298C66.3 91.1198 66.51 91.1898 66.72 91.2398C66.89 91.2898 67.08 91.2998 67.26 91.3098C67.37 91.3098 67.48 91.3098 67.59 91.3098C67.71 91.3098 67.81 91.2698 67.89 91.1998C68 91.1398 68.08 91.0598 68.14 90.9498L68.26 90.6998C68.31 90.5598 68.34 90.4098 68.34 90.2498C68.36 90.1398 68.35 90.0398 68.34 89.9298C68.34 89.7798 68.3 89.6298 68.24 89.4898C68.14 89.2698 68 89.0398 67.76 88.9498C67.6 88.8898 67.44 88.8198 67.29 88.7398C67.21 88.6998 67.14 88.6698 67.06 88.6398C66.98 88.6098 66.9 88.5898 66.82 88.5598C66.51 88.4398 66.21 88.3198 65.91 88.1798C65.74 88.0998 65.58 88.0098 65.42 87.9098L65.62 88.0298C65.31 87.8398 65.02 87.6298 64.75 87.3998C64.48 87.1698 64.23 86.9298 63.99 86.6698L64.15 86.8498C63.88 86.5498 63.64 86.2198 63.44 85.8798C63.38 85.7898 63.31 85.7098 63.21 85.6698C63.13 85.6098 63.04 85.5798 62.94 85.5898L62.76 85.6298C62.66 85.6698 62.59 85.7398 62.53 85.8198C62.48 85.8698 62.44 85.9398 62.41 86.0098C62.35 86.1198 62.31 86.2398 62.3 86.3698C62.27 86.6398 62.28 86.9298 62.39 87.1798L62.37 87.1898Z" fill="black"/>
<path d="M47.28 100.17C47.55 100.54 47.85 100.88 48.16 101.21C48.43 101.49 48.72 101.75 49.02 101.99C49.38 102.27 49.76 102.52 50.15 102.75C50.48 102.95 50.83 103.13 51.19 103.27C51.39 103.35 51.6 103.43 51.81 103.47C52.08 103.52 52.36 103.57 52.63 103.6C52.74 103.6 52.83 103.56 52.91 103.5C53.01 103.44 53.09 103.36 53.14 103.26L53.25 103.03C53.3 102.89 53.33 102.75 53.33 102.61C53.35 102.37 53.33 102.11 53.22 101.89C53.13 101.69 52.99 101.45 52.76 101.38C52.57 101.32 52.39 101.25 52.2 101.18C52.01 101.11 51.83 101.05 51.65 100.98C51.29 100.85 50.93 100.7 50.58 100.52C50.38 100.42 50.19 100.31 50 100.2L50.18 100.31C49.5 99.8896 48.88 99.3796 48.35 98.7896L48.5 98.9596C48.41 98.8596 48.32 98.7496 48.23 98.6396C48.17 98.5396 48.1 98.4696 48 98.4196C47.92 98.3596 47.83 98.3296 47.73 98.3296C47.53 98.3296 47.34 98.4896 47.24 98.6596C47.11 98.8896 47.04 99.1596 47.05 99.4196C47.06 99.6796 47.12 99.9596 47.28 100.17Z" fill="black"/>
<path d="M35.2201 108.49C35.3201 108.91 35.4601 109.34 35.6501 109.73C35.8401 110.12 36.0601 110.49 36.3401 110.83C36.6201 111.17 36.9101 111.47 37.2501 111.74C37.5901 112.01 37.9501 112.21 38.3301 112.37C38.4201 112.41 38.5101 112.43 38.6101 112.45C38.7701 112.48 38.9201 112.51 39.0801 112.53C39.2701 112.56 39.4601 112.57 39.6501 112.56C39.7501 112.56 39.8401 112.53 39.9101 112.46C40.0001 112.41 40.0801 112.33 40.1301 112.24L40.2301 112.02C40.2801 111.89 40.3001 111.76 40.3001 111.63C40.3101 111.54 40.3101 111.44 40.3001 111.35C40.3001 111.22 40.2601 111.09 40.2101 110.96L40.1001 110.75C40.0201 110.63 39.9201 110.54 39.7901 110.49C39.5701 110.43 39.3501 110.35 39.1501 110.25C39.0401 110.2 38.9401 110.15 38.8401 110.09C38.7401 110.03 38.6401 110 38.5401 109.95C38.4201 109.89 38.3101 109.83 38.2001 109.76L38.3901 109.88C38.2701 109.81 38.1501 109.73 38.0301 109.66L38.2201 109.78C37.8301 109.54 37.4801 109.25 37.1801 108.91L37.3401 109.09C37.1101 108.83 36.9101 108.55 36.7501 108.25L36.8701 108.48C36.7401 108.23 36.6301 107.98 36.5501 107.71L36.6301 107.97C36.6301 107.97 36.6101 107.92 36.6101 107.89C36.5901 107.76 36.5401 107.63 36.4701 107.52C36.4201 107.41 36.3501 107.32 36.2601 107.24C36.1801 107.16 36.0901 107.12 35.9901 107.12C35.8901 107.09 35.8001 107.1 35.7001 107.15L35.5301 107.26C35.4201 107.37 35.3301 107.51 35.2801 107.66C35.1901 107.93 35.1601 108.23 35.2301 108.5L35.2201 108.49Z" fill="black"/>
<path d="M26.13 115.92C26.32 116.34 26.55 116.75 26.81 117.13C27.07 117.51 27.37 117.85 27.7 118.16C27.96 118.42 28.24 118.65 28.54 118.85C28.62 118.9 28.69 118.95 28.77 119C28.91 119.09 29.06 119.19 29.21 119.26C29.37 119.34 29.54 119.41 29.71 119.47C29.8 119.5 29.89 119.54 29.99 119.57C30.15 119.62 30.34 119.64 30.5 119.65C30.7 119.67 30.9 119.68 31.1 119.68C31.22 119.68 31.32 119.64 31.4 119.57C31.51 119.51 31.59 119.43 31.65 119.32L31.77 119.07C31.82 118.93 31.85 118.78 31.85 118.62C31.87 118.51 31.86 118.41 31.85 118.3C31.85 118.15 31.81 118 31.75 117.86C31.65 117.64 31.51 117.42 31.27 117.32C31 117.21 30.74 117.08 30.49 116.94C30.37 116.87 30.23 116.82 30.11 116.76C29.99 116.7 29.86 116.63 29.74 116.56C29.6 116.48 29.46 116.41 29.33 116.32L29.55 116.46C29.05 116.15 28.59 115.78 28.2 115.34L28.39 115.55C28.09 115.22 27.83 114.85 27.62 114.46L27.77 114.73C27.73 114.66 27.69 114.58 27.66 114.51C27.61 114.37 27.53 114.24 27.42 114.14C27.34 114.03 27.24 113.95 27.11 113.91C26.99 113.86 26.87 113.85 26.76 113.89C26.63 113.9 26.52 113.96 26.43 114.06L26.26 114.28C26.15 114.47 26.08 114.67 26.05 114.88L26.03 115.24C26.03 115.48 26.08 115.7 26.17 115.92H26.13Z" fill="black"/>
</g>
<defs>
<clipPath id="clip0_3416_10990">
<rect width="236.77" height="200.17" fill="white"/>
</clipPath>
</defs>
</svg>
