<svg width="251" height="256" viewBox="0 0 251 256" fill="none" xmlns="http://www.w3.org/2000/svg">
<g clip-path="url(#clip0_3416_11751)">
<path d="M41.1101 141.43C41.1101 136.94 41.1101 132.46 41.1101 127.97C41.1101 117.2 41.1101 106.42 41.1101 95.65C41.1101 84.88 41.1101 69.68 41.1101 56.7C41.1101 45.47 41.1101 34.25 41.1101 23.02C41.1101 17.55 41.2501 12.06 41.1101 6.59C41.1101 6.51 41.1101 6.44 41.1101 6.36L38.7301 11.76C40.2401 11.74 41.7601 11.72 43.2701 11.71C47.4201 11.66 51.5601 11.62 55.7101 11.57C61.8201 11.5 67.9301 11.44 74.0401 11.38C81.5401 11.31 89.0401 11.24 96.5401 11.17C104.72 11.1 112.91 11.04 121.09 10.98C129.27 10.92 137.73 10.88 146.04 10.85C153.78 10.82 161.52 10.8 169.26 10.81C175.86 10.81 182.47 10.83 189.07 10.89C193.84 10.93 198.62 10.99 203.39 11.13C205.76 11.2 208.1 11.37 210.46 11.57C210.96 11.61 210.12 11.45 210.11 11.45C210.13 11.46 210.16 11.47 210.19 11.48C209.51 11.06 208.99 9.85 208.82 9.06L208.5 6.33C208.5 6.54 209.79 -0.0799999 208.79 3.73C208.66 4.21 208.58 4.73 208.52 5.23C208.49 5.49 208.47 5.75 208.45 6.01C208.35 7.39 208.29 8.78 208.25 10.16C208.15 13.49 208.12 16.82 208.09 20.15C208 30.89 208.01 41.63 208.03 52.36C208.05 65.37 208.11 78.38 208.17 91.39C208.23 102.55 208.3 113.7 208.37 124.86C208.41 130.3 208.33 135.77 208.49 141.21C208.49 141.28 208.49 141.36 208.49 141.43L209.67 136.77C205.59 141.17 201.51 145.57 197.43 149.97C190.89 157.02 184.35 164.06 177.81 171.11C176.31 172.72 174.82 174.34 173.32 175.95L175.15 175.41C170.23 170.82 165.14 166.41 159.94 162.14C155.74 158.69 151.45 155.32 146.97 152.23C143.47 149.82 139.75 147.3 135.68 145.96C133.54 145.26 131.29 145.11 129.12 144.53C127.38 144.06 125.65 143.52 123.86 143.23C118.49 142.37 113.19 144.25 108.53 146.83C104.28 149.18 100.37 152.14 96.6301 155.23C90.7701 160.08 85.2701 165.38 79.9301 170.8C78.2501 172.5 76.6001 174.22 74.9501 175.95C74.2601 176.67 73.9701 178.27 73.8601 179.18C73.7001 180.48 73.7301 182.07 74.1001 183.34C74.5701 184.94 75.7001 187.01 77.3501 185.28C82.8801 179.46 88.5601 173.76 94.6001 168.46C98.6201 164.94 102.8 161.55 107.34 158.7C108.94 157.7 110.58 156.77 112.29 155.97C113.02 155.63 113.76 155.31 114.51 155.03C114.83 154.91 115.16 154.79 115.48 154.68C115.64 154.63 115.8 154.58 115.95 154.53C115.47 154.69 115.65 154.62 115.98 154.53C118.15 153.94 120.37 153.67 122.61 153.87C126.18 154.2 129.56 155.6 133.12 156.1C133.47 156.15 133.81 156.22 134.15 156.3C134.32 156.34 134.49 156.39 134.66 156.44C134.11 156.29 134.51 156.39 134.8 156.5C135.66 156.81 136.5 157.17 137.33 157.57C139.28 158.51 141.14 159.63 142.96 160.8C147.42 163.66 151.65 166.89 155.79 170.2C159.93 173.51 163.57 176.6 167.35 179.93C169.44 181.77 171.43 183.77 173.58 185.54C173.68 185.62 173.78 185.72 173.87 185.81C174.49 186.39 175.32 185.67 175.7 185.27C178.79 181.94 181.88 178.61 184.97 175.28C190.75 169.05 196.54 162.81 202.32 156.58L209.12 149.26C210.07 148.23 211.21 147.24 212.04 146.11C213.83 143.69 213.21 138.8 213.19 135.85C213.15 130.46 213.11 125.07 213.08 119.68C213.03 111.98 212.98 104.29 212.94 96.59C212.89 87.86 212.85 79.14 212.82 70.41C212.79 61.68 212.77 53.2 212.76 44.6C212.76 37.39 212.76 30.18 212.81 22.98C212.84 18.41 212.85 13.83 213.02 9.26C213.03 8.94 213.04 8.62 213.06 8.3C213.06 8.16 213.07 8.03 213.08 7.89C213.12 7.01 212.96 9.55 213.02 8.88C213.11 7.93 213.31 7.53 212.88 9.2C213.01 8.69 212.48 10.4 212.54 10.19C212.78 9.35 213.05 8.65 213.16 7.77C213.38 6.02 213.24 4.13 212.55 2.5C212.35 2.04 211.95 1.34 211.48 1.08C211.14 0.89 210.74 0.82 210.37 0.74C207.83 0.25 205.08 0.37 202.5 0.3C197.24 0.16 191.97 0.1 186.7 0.06C179.53 0.01 172.36 0 165.19 0C156.86 0 148.52 0.03 140.19 0.07C131.86 0.11 122.74 0.16 114.02 0.23C105.3 0.3 97.0901 0.36 88.6301 0.44C81.2001 0.51 73.7801 0.58 66.3501 0.65C60.7001 0.71 55.0401 0.77 49.3901 0.83C46.2501 0.87 43.1101 0.9 39.9801 0.94C39.5701 0.94 39.1601 0.94 38.7501 0.95C36.6701 0.98 36.3701 5.08 36.3701 6.35C36.3701 10.84 36.3701 15.32 36.3701 19.81C36.3701 30.58 36.3701 41.36 36.3701 52.13C36.3701 62.9 36.3701 78.1 36.3701 91.08C36.3701 104.06 36.3701 113.53 36.3701 124.76C36.3701 130.24 36.3201 135.72 36.3701 141.19C36.3701 141.27 36.3701 141.34 36.3701 141.42C36.3701 142.81 36.6601 146.82 38.7501 146.82C40.8401 146.82 41.1301 142.68 41.1301 141.42L41.1101 141.43Z" fill="#1D1D1B"/>
<path d="M123.44 128.04C116.61 120.57 109.77 113.1 102.94 105.62C97.68 99.8699 92.3 93.9199 89.59 86.6099C86.88 79.2999 87.45 70.2099 93.06 64.7899C96.56 61.3999 101.53 59.8799 106.39 59.6399C111.28 59.3899 116.78 60.6799 119.38 64.8299C120.05 65.8999 120.83 67.3099 122.08 67.1799C122.92 67.0899 123.49 66.3099 124.01 65.6399C128.24 60.0699 135.79 57.4799 142.7 58.5799C149.61 59.6799 155.74 64.1899 159.51 70.0799C161.18 72.6799 162.44 75.6199 162.64 78.6999C163.25 87.9599 154.79 94.8699 147.84 101.01C138.97 108.84 131.3 118.02 125.18 128.15" fill="#1D1D1B"/>
<path d="M125.87 125.76C125.28 124.43 124.78 123 123.8 121.91C122.96 120.97 122.1 120.04 121.25 119.11C119.75 117.47 118.69 116.22 117.21 114.46C114.3 110.99 111.34 107.59 108.35 104.19C105.67 101.14 102.95 98.1301 100.41 94.9501C99.2101 93.4501 98.0301 91.9201 96.9401 90.3401C96.4201 89.5901 95.9201 88.8201 95.4401 88.0301C95.2201 87.6701 95.0101 87.3001 94.8001 86.9401C94.3501 86.1801 94.8001 87.1201 94.8901 87.1201C94.8301 87.1201 94.5501 86.4501 94.5101 86.3701C94.1001 85.5501 93.7301 84.7101 93.4001 83.8601C93.2601 83.4901 93.1201 83.1301 92.9901 82.7601C92.5201 81.4001 93.2901 83.9301 92.9301 82.5601C92.7301 81.8001 92.5601 81.0201 92.4301 80.2401C92.3701 79.8801 92.3401 79.5101 92.2701 79.1601C92.2901 79.2401 92.4201 80.8601 92.3501 79.7901C92.3401 79.5501 92.3101 79.3001 92.3001 79.0601C92.2801 78.7001 92.2701 78.3301 92.2701 77.9701C92.2701 77.6601 92.3301 76.2201 92.2601 77.3801C92.1901 78.5401 92.2801 77.2501 92.3101 76.9801C92.3601 76.5001 92.4301 76.0301 92.5201 75.5601C92.5601 75.3201 92.8501 74.1001 92.5901 75.1201C92.3301 76.1401 92.6901 74.8101 92.7901 74.5401C92.9001 74.2001 93.0201 73.8701 93.1501 73.5401C93.2301 73.3401 93.3801 73.0901 93.4201 72.8901C93.3701 73.1301 92.8701 73.9501 93.2401 73.2701C93.6101 72.5901 93.9901 71.9501 94.4401 71.3301C94.5301 71.2101 94.7101 71.0401 94.7601 70.9101C94.7501 70.9401 94.0901 71.6601 94.4901 71.2601C94.8301 70.9201 95.1401 70.5501 95.4901 70.2201C95.7801 69.9501 96.0701 69.6901 96.3801 69.4501C96.6401 69.2401 97.5901 68.6201 96.8101 69.1001C97.5901 68.6201 98.3901 68.1801 99.2301 67.8101C100.01 67.4601 100.82 67.1701 101.64 66.9201C101.81 66.8701 102.82 66.5901 102.42 66.6901C101.94 66.8101 102.57 66.6601 102.63 66.6501C102.96 66.5901 103.28 66.5301 103.61 66.4701C105.29 66.2001 106.99 66.0801 108.69 66.1601C109.47 66.1901 110.23 66.2901 111 66.3901C111.51 66.4601 110.78 66.3601 110.73 66.3501C110.9 66.4001 111.08 66.4301 111.25 66.4701C111.71 66.5801 112.16 66.7101 112.61 66.8601C113.33 67.1001 114 67.4101 114.68 67.7501C115.47 68.1501 114.1 67.3001 114.8 67.8301C115.16 68.1101 115.52 68.3701 115.85 68.6801C115.97 68.8001 116.09 68.9201 116.21 69.0401C116.62 69.4201 115.88 68.7001 115.88 68.6801C115.9 68.9001 116.45 69.4801 116.57 69.6601C117.16 70.5801 117.78 71.5401 118.62 72.2601C120.79 74.1101 123.52 74.1201 125.63 72.0901C126.12 71.6101 126.54 71.0201 126.96 70.4801C127.53 69.7301 126.29 71.2201 127.16 70.2401C127.73 69.6001 128.34 69.0101 129 68.4601C129.28 68.2301 129.57 68.0001 129.86 67.7801C130.01 67.6701 130.16 67.5701 130.3 67.4601C130.16 67.5601 129.47 67.9701 130.21 67.5501C130.95 67.1301 131.7 66.7101 132.48 66.3601C133.15 66.0601 133.84 65.8001 134.54 65.5801C134.95 65.4501 135.37 65.3401 135.78 65.2301C136.28 65.0901 135.6 65.2801 135.54 65.2901C135.78 65.2501 136.02 65.2001 136.27 65.1601C137.97 64.8801 139.7 64.8001 141.42 64.9501C141.79 64.9801 142.15 65.0301 142.52 65.0701C143.36 65.1701 142.02 64.9301 142.86 65.1301C143.7 65.3301 144.58 65.5601 145.42 65.8501C146.2 66.1201 146.96 66.4301 147.7 66.7801C148.1 66.9701 148.5 67.1701 148.89 67.3801C149.06 67.4701 149.22 67.5701 149.39 67.6601C150 67.9701 148.76 67.2301 149.33 67.6101C150.77 68.5701 152.13 69.5901 153.38 70.7801C153.7 71.0901 154.02 71.4001 154.33 71.7301C154.36 71.7601 154.71 72.1601 154.72 72.1501C154.69 72.1701 154.09 71.3901 154.46 71.8701C155.01 72.5801 155.58 73.2601 156.09 73.9901C156.22 74.1801 157.38 76.2501 157.48 76.2401C157.4 76.2401 156.88 74.9901 157.36 76.0601C157.45 76.2501 157.54 76.4401 157.62 76.6401C157.82 77.0901 157.99 77.5501 158.17 78.0101C158.41 78.6301 158.03 78.5101 158.08 77.6601C158.08 77.8301 158.19 78.1001 158.23 78.2701C158.29 78.5501 158.45 79.9001 158.39 78.8501C158.32 77.7101 158.4 79.2801 158.41 79.5401C158.41 79.7201 158.4 79.9001 158.41 80.0801C158.44 80.8801 158.58 78.6101 158.46 79.4001C158.4 79.8001 158.36 80.2101 158.29 80.6101C158.26 80.7801 158.21 80.9501 158.19 81.1201C158.08 81.7601 158.4 80.3501 158.38 80.3801C158.06 80.8901 157.69 82.0601 157.55 82.6601C157.57 82.5601 158.19 81.4101 157.74 82.2701C157.66 82.4301 157.58 82.5801 157.49 82.7401C157.32 83.0501 157.14 83.3601 156.96 83.6601C156.52 84.3801 156.04 85.0801 155.54 85.7501C155.43 85.9001 155.32 86.0401 155.21 86.1901C154.62 86.9701 155.27 86.0501 155.36 86.0101C155.12 86.1101 154.81 86.6501 154.63 86.8601C154.05 87.5201 153.44 88.1601 152.83 88.7901C151.63 90.0101 150.37 91.1801 149.09 92.3301C146.35 94.7901 143.56 97.1701 140.93 99.7401C135.09 105.45 129.81 111.79 125.21 118.54C124.1 120.17 123.04 121.82 122.01 123.5C120.39 126.15 120.29 130.46 122.24 132.99C124.01 135.29 126.87 135.5 128.47 132.84C130.66 129.21 133.03 125.69 135.6 122.31C136.22 121.49 136.85 120.69 137.49 119.89C136.92 120.62 137.49 119.89 137.74 119.59C138.11 119.14 138.49 118.69 138.87 118.24C140.24 116.62 141.66 115.05 143.12 113.51C145.94 110.53 148.95 107.77 152.02 105.05C154.72 102.67 157.41 100.26 159.74 97.5101C162.42 94.3501 164.82 90.8601 165.97 86.8201C167.49 81.4901 167.28 76.0301 165.31 70.8301C162.37 63.0901 155.73 56.2901 147.96 53.3901C140.19 50.4901 131.98 51.7701 125.43 56.5201C123.76 57.7301 122.43 59.2201 121.15 60.8301C121 61.0201 120.84 61.2101 120.7 61.4101C120.93 61.0801 121.38 60.9101 120.79 61.1901L121.39 60.9301C121.67 60.6601 121.96 60.6001 122.26 60.7501C122.54 60.6701 122.62 60.8801 122.26 60.7201C122.55 60.8501 123.15 61.1801 123.27 61.5401C123.23 61.4201 123.05 61.2501 122.97 61.1401C122.72 60.7801 122.5 60.3901 122.25 60.0201C120.04 56.7001 116.44 54.4801 112.56 53.7001C104.83 52.1501 95.5101 53.9401 90.0701 60.0401C84.0601 66.7801 82.6901 76.5501 84.6101 85.1701C86.5301 93.7901 92.0701 101.39 98.1701 107.98C101.25 111.3 104.4 114.55 107.53 117.83C110.66 121.11 114.14 124.39 117.28 127.82L119.63 130.39C120.52 131.37 121.62 131.83 122.83 132.32C124.14 132.86 125.3 131.76 125.82 130.67C126.51 129.22 126.58 127.28 125.93 125.79L125.87 125.76Z" fill="#1D1D1B"/>
<path d="M38.4201 77.3399C30.0801 83.5299 21.7401 89.7199 13.4001 95.9099C9.65006 98.6899 5.91006 101.47 2.16006 104.26C-0.249943 106.05 5.64209e-05 109.37 5.64209e-05 112.11V217.49C5.64209e-05 225.58 5.64209e-05 233.67 5.64209e-05 241.77C5.64209e-05 242.37 5.64209e-05 242.97 5.64209e-05 243.57C0.0400564 246.75 0.950056 248.44 3.10006 250.36C7.05006 253.89 12.7201 255.37 17.9101 255.6C24.0701 255.87 30.2401 255.84 36.4001 255.88C47.4501 255.96 58.5001 255.97 69.5601 255.98C83.3901 255.98 97.2101 255.98 111.04 255.95C124.87 255.92 140.01 255.88 154.49 255.84C167.52 255.8 180.55 255.75 193.58 255.69C203.04 255.65 212.5 255.61 221.96 255.56C225.71 255.54 229.54 255.28 233.29 255.5C238.04 255.79 242.93 255.4 246.28 251.52C249.63 247.64 249.67 241.57 249.81 236.5C250.11 225.47 250.05 214.43 250.05 203.4C250.05 188.75 249.97 174.09 249.88 159.44C249.81 148.27 249.73 137.1 249.63 125.93C249.61 123.87 249.62 121.8 249.57 119.74C249.52 117.34 249.04 115.71 247.57 114.11L243.92 110.14C235.2 100.65 226.48 91.1699 217.77 81.6799C215.79 79.5299 213.81 77.3699 211.83 75.2199C210.26 73.5199 208.96 75.5699 208.58 77.1599C208.26 78.4999 208.14 79.9499 208.34 81.3199C208.49 82.3699 208.69 83.7399 209.43 84.5499C213.56 89.0399 217.69 93.5299 221.82 98.0299C228.37 105.16 234.92 112.28 241.47 119.41C242.98 121.05 244.49 122.7 246 124.34L244.82 119.68C244.84 121.98 244.86 124.28 244.88 126.57C244.93 132.49 244.98 138.41 245.02 144.32C245.08 152.44 245.13 160.56 245.18 168.67C245.23 177.44 245.26 186.21 245.28 194.97C245.3 202.96 245.3 210.95 245.26 218.94C245.23 224.69 245.2 230.44 245.06 236.19C245.04 237.11 245.01 238.04 244.97 238.96C244.96 239.32 244.94 239.68 244.92 240.04C244.88 240.99 245.01 238.64 244.98 239.12C244.97 239.26 244.96 239.4 244.95 239.55C244.95 239.66 244.93 239.78 244.92 239.89C244.92 239.94 244.92 239.99 244.91 240.04C244.9 240.16 244.88 240.28 244.87 240.4C244.81 241.09 244.87 240.2 244.96 240.01C244.85 240.23 244.82 240.6 244.76 240.84C244.57 241.62 245.11 240.07 244.78 240.76C244.67 240.98 244.54 241.22 244.46 241.45C244.69 240.82 244.65 241.14 244.38 241.53C244.25 241.72 244.11 241.9 243.96 242.08C243.89 242.17 243.41 242.68 243.7 242.39C243.99 242.1 243.5 242.56 243.41 242.63C243.21 242.79 243.01 242.94 242.8 243.08C242.06 243.58 241.25 243.94 240.42 244.25C239.96 244.42 240.38 244.27 240.26 244.3C240.03 244.36 239.8 244.42 239.57 244.47C239.15 244.56 238.73 244.63 238.3 244.69C237.56 244.79 236.81 244.84 236.07 244.84C235.17 244.84 234.3 244.74 233.41 244.68C233.1 244.66 232.79 244.67 232.49 244.68C230.09 244.69 227.68 244.7 225.28 244.72C220.77 244.74 216.26 244.76 211.75 244.78C205.57 244.81 199.38 244.83 193.2 244.86C185.78 244.89 178.36 244.92 170.94 244.95C162.68 244.98 154.41 245.01 146.15 245.03C137.89 245.05 128.98 245.08 120.39 245.1C111.8 245.12 103.36 245.13 94.8501 245.14C86.8401 245.14 78.8401 245.15 70.8301 245.14C63.7701 245.14 56.7001 245.13 49.6401 245.1C43.9301 245.08 38.2301 245.06 32.5201 245.01C28.6601 244.98 24.8001 244.94 20.9501 244.85C17.1001 244.76 13.2201 244.56 9.53006 243.04C7.77006 242.32 6.09006 241.36 4.64006 240.13C4.50006 240.01 4.37006 239.87 4.22006 239.76C4.05006 239.63 4.74006 240.32 4.39006 239.92C4.25006 239.76 4.09006 239.61 3.95006 239.45C3.83006 239.31 3.70006 239.16 3.60006 239L4.78006 243.66V126.19C4.78006 120.79 4.91006 115.37 4.78006 109.97C4.78006 109.9 4.78006 109.82 4.78006 109.75L3.04006 114.96C7.18006 111.89 11.3101 108.82 15.4501 105.75C22.0101 100.88 28.5701 96.0099 35.1301 91.1399C36.6501 90.0099 38.1801 88.8799 39.7001 87.7399C41.5201 86.3899 41.6601 83.1299 41.3601 81.0999C41.2201 80.1499 40.2601 75.9699 38.4401 77.3299L38.4201 77.3399Z" fill="#1D1D1B"/>
<path d="M10.0801 251.27C22.9801 237.96 36.0001 224.82 49.6901 212.32C63.3801 199.82 77.4801 187.93 92.1201 176.63C94.1801 175.04 96.2501 173.47 98.3101 171.89C99.2701 171.16 100.23 170.43 101.2 169.72C101.72 169.34 102.23 168.97 102.76 168.6C102.93 168.48 103.11 168.35 103.28 168.23C103.28 168.23 104.39 167.48 103.77 167.89C103.19 168.27 103.95 167.77 104.09 167.68C104.39 167.49 104.69 167.29 104.99 167.1C105.47 166.8 105.95 166.5 106.44 166.21C107.47 165.6 108.52 165.03 109.59 164.5C111.77 163.43 114.03 162.58 116.39 162.01L115.09 162.31C118.01 161.66 120.9 161.6 123.85 162.1L122.5 161.86C127.08 162.72 131.28 164.74 135.24 167.14L133.94 166.35C141.52 171.03 148.74 176.37 155.92 181.64C163.1 186.91 170.26 192.26 177.27 197.78C191.33 208.87 204.9 220.59 217.91 232.9C221.59 236.38 225.22 239.9 228.81 243.48C232.4 247.06 235.77 250.75 239.53 254.07C242.17 256.4 245.25 254.43 246.53 251.75C248.02 248.62 248.14 243.67 245.83 240.83C242.39 236.6 238.5 232.77 234.64 228.92C231.11 225.4 227.53 221.92 223.91 218.49C216.73 211.68 209.38 205.04 201.87 198.59C186.8 185.65 171.12 173.41 154.73 162.19C150.37 159.21 146 156.19 141.47 153.46C137.43 151.03 133.18 148.78 128.58 147.6C123.31 146.25 118.26 146.37 113.03 147.77C108.21 149.06 103.95 151.67 99.8801 154.47C91.7701 160.04 84.2801 166.64 76.8101 173.02C69.3401 179.4 61.5701 186.26 54.1601 193.11C39.2101 206.95 24.7801 221.39 11.2801 236.65C9.6401 238.5 7.9601 240.32 6.3501 242.2C4.7401 244.08 4.2001 247.11 5.2801 249.46C6.0901 251.23 8.2501 253.12 10.0701 251.24L10.0801 251.27Z" fill="#1D1D1B"/>
<path d="M4.1201 114.63C4.6501 115.26 5.2201 115.85 5.6301 116.56C6.0701 117.31 6.4601 118.11 6.9201 118.85C7.7901 120.23 8.91009 121.49 9.90009 122.78C11.8701 125.34 14.0401 127.73 16.1901 130.16C20.6601 135.22 25.2801 140.15 29.9101 145.07C38.5801 154.29 47.3701 163.38 56.3901 172.26C58.8901 174.73 61.4101 177.18 63.9301 179.62C66.4501 182.06 69.1101 184.87 71.8901 187.22C74.6701 189.57 77.7001 187.17 78.6301 184.33C79.8101 180.71 79.2001 176.8 76.5901 174.01C74.4101 171.68 71.9801 169.55 69.6901 167.33C67.4001 165.11 65.1101 162.87 62.8301 160.63C58.3901 156.26 53.9901 151.86 49.5901 147.45C40.6901 138.55 32.0201 129.44 23.3301 120.34C20.9501 117.84 18.6101 115.23 16.0901 112.87C14.8001 111.67 13.5201 110.46 12.2101 109.28C11.6101 108.74 10.9201 108.34 10.2401 107.89C9.4501 107.38 8.8601 106.73 8.2101 106.05C6.6101 104.37 4.4301 105.97 3.6701 107.55C2.7101 109.55 2.6001 112.83 4.1201 114.63Z" fill="#1D1D1B"/>
<path d="M234.61 109.02C234.29 109.36 233.94 109.69 233.63 110.04C233.59 110.08 233.04 110.6 233.45 110.26C232.72 110.85 231.82 111.23 231.08 111.81C229.88 112.75 228.8 113.89 227.68 114.92C225.36 117.05 223.24 119.36 221.05 121.63C216.74 126.09 212.51 130.64 208.2 135.11C199.45 144.18 190.55 153.09 181.59 161.95C179.09 164.42 176.58 166.88 174.05 169.33C171.52 171.78 168.62 174.33 166.12 177.01C163.62 179.69 163.08 184.14 164.59 187.42C165.89 190.24 168.65 192.34 171.46 189.97C173.89 187.93 176.11 185.57 178.39 183.37C180.67 181.17 182.98 178.92 185.26 176.69C189.71 172.32 194.13 167.92 198.48 163.46C207.31 154.4 216.09 145.25 224.55 135.85C227.14 132.98 229.77 130.1 232.16 127.07C233.33 125.6 234.45 124.09 235.59 122.59C236.17 121.83 236.62 121.07 237.08 120.24C237.59 119.32 237.65 119.15 238.39 118.27C240.06 116.28 240.6 113.27 239.48 110.85C238.65 109.06 236.43 107.1 234.58 109.03L234.61 109.02Z" fill="#1D1D1B"/>
</g>
<defs>
<clipPath id="clip0_3416_11751">
<rect width="250.06" height="255.98" fill="white"/>
</clipPath>
</defs>
</svg>
