<svg width="199" height="188" viewBox="0 0 199 188" fill="none" xmlns="http://www.w3.org/2000/svg">
<g clip-path="url(#clip0_3416_11836)">
<path d="M0.739966 87.2902C0.499966 88.7602 0.629966 90.3902 0.609966 91.8702C0.579966 94.9402 0.559966 98.0101 0.539966 101.09C0.479966 110.31 0.449966 119.53 0.419966 128.76C0.389966 137.99 0.359966 147.53 0.339966 156.92C0.339966 160.2 0.319966 163.48 0.319966 166.76C0.319966 168.26 0.179966 169.82 0.309966 171.32C0.369966 172.06 0.699966 169.38 0.499966 169.79C0.279966 170.22 0.289966 170.83 0.219966 171.31C-0.030034 172.95 -0.040034 174.63 0.119966 176.27C0.529966 180.5 2.55997 184.57 6.58997 186.36C10.62 188.15 14.98 187.7 19.23 187.58C22.81 187.47 26.39 187.41 29.97 187.34C40.11 187.16 50.25 187.05 60.4 186.95C71.17 186.85 81.95 186.76 92.72 186.69C100.32 186.64 107.91 186.59 115.51 186.56C119.38 186.54 123.16 186.57 126.95 185.57C129.17 184.98 131.42 184.16 133.2 182.67C135.41 180.8 136.61 178.2 136.87 175.33C137.1 172.78 137.02 170.17 137.04 167.62C137.08 158.72 137.03 149.82 136.97 140.92C136.91 130.59 136.83 120.27 136.73 109.94C136.67 103.75 136.62 97.5602 136.55 91.3702C136.55 91.1602 136.55 90.9402 136.55 90.7302C136.49 89.9402 136.33 92.2402 136.35 92.2302C136.5 92.1702 136.54 91.2102 136.57 90.9002C136.67 89.9802 136.65 89.0602 136.57 88.1402C136.24 84.4002 134.15 81.2402 130.81 79.5102C126.49 77.2702 121.45 77.0602 116.68 76.9202C113.37 76.8302 110.06 76.7801 106.75 76.7401C97.12 76.6201 87.49 76.5801 77.87 76.5601C66.94 76.5301 56.01 76.5302 45.08 76.5402C36.11 76.5402 27.14 76.5701 18.17 76.5901C14.55 76.6001 10.87 76.4101 7.25997 76.6301C3.00997 76.8901 1.50997 83.3002 0.909966 86.5102C0.649966 87.9002 0.429966 89.9501 1.43997 91.1301C2.37997 92.2301 3.28997 90.9001 3.46997 89.9201C3.78997 88.2101 4.11997 86.7002 4.92997 85.2202C4.79997 85.4702 5.11997 84.9202 5.16997 84.8502C5.29997 84.6602 5.44997 84.4802 5.58997 84.3002C5.65997 84.2102 5.74997 84.1202 5.82997 84.0402C5.80997 84.0602 5.60997 84.2402 5.76997 84.1002C5.90997 83.9802 6.05997 83.8602 6.20997 83.7602C6.43997 83.6102 6.67997 83.5002 6.92997 83.4002C6.50997 83.5602 6.88997 83.4002 7.08997 83.4002C7.15997 83.4002 7.23997 83.4002 7.30997 83.4002C8.49997 83.3402 9.69997 83.4002 10.89 83.3902C17.76 83.3702 24.63 83.3502 31.5 83.3302C41.7 83.3102 51.9 83.3002 62.1 83.3002C72.6 83.3002 83.1 83.3302 93.59 83.3902C101.22 83.4402 108.85 83.4702 116.48 83.6802C120.96 83.8002 125.72 83.8902 129.81 85.9302C130.69 86.3702 131.51 86.9002 132.25 87.5402C132.59 87.8402 132.25 87.5102 132.45 87.7302C132.59 87.8902 132.74 88.0402 132.87 88.2102C132.98 88.3502 133.08 88.4901 133.18 88.6301C133.25 88.7301 133.56 89.2402 133.37 88.9002C133.19 88.5902 133.56 89.3602 133.64 89.5102C133.89 90.0002 133.53 88.9602 133.58 89.3302C133.6 89.4702 133.65 89.6302 133.69 89.7602C133.87 90.3702 133.58 89.1202 133.64 89.4602C133.66 89.5702 133.67 89.6802 133.68 89.7902C133.71 90.1702 133.7 88.6902 133.66 89.6002C133.63 90.3202 133.74 88.6002 133.68 89.2102C133.65 89.5402 133.5 90.1502 133.78 88.7602C133.66 89.3702 133.57 89.9601 133.56 90.5901C133.56 91.0101 133.56 91.4302 133.57 91.8602C133.59 94.3102 133.62 96.7602 133.64 99.2102C133.73 108.17 133.81 117.14 133.87 126.1C133.95 136.14 134.02 146.18 134.04 156.21C134.05 160.04 134.06 163.87 134.04 167.7C134.04 169.06 134.02 170.41 134 171.77C134 172.25 133.98 172.73 133.97 173.2C133.97 173.4 133.96 173.59 133.95 173.79C133.93 174.62 134.15 173.02 133.94 173.9C133.85 174.25 133.99 173.7 133.99 173.68C133.96 173.83 133.91 173.98 133.88 174.13C133.77 174.6 134.03 173.83 133.77 174.39C133.72 174.49 133.68 174.59 133.63 174.69C133.81 174.34 133.65 174.66 133.61 174.73C133.45 174.97 133.28 175.21 133.1 175.43C132.51 176.15 131.67 176.77 130.74 177.3C128.88 178.36 126.81 178.94 124.71 179.32C122.98 179.63 121.22 179.8 119.45 179.81C114.52 179.84 109.6 179.86 104.67 179.89C95.02 179.95 85.36 180.01 75.71 180.09C64.99 180.18 54.26 180.27 43.54 180.41C35.43 180.51 27.31 180.61 19.21 180.85C15.24 180.97 10.97 181.52 7.24997 179.83C6.74997 179.6 6.26997 179.34 5.81997 179.04C5.61997 178.91 5.42997 178.77 5.23997 178.62C5.15997 178.56 4.66997 178.13 4.86997 178.32C4.55997 178.03 4.28997 177.7 4.02997 177.36C3.90997 177.2 3.79997 177.02 3.67997 176.86C3.37997 176.44 3.77997 177.16 3.52997 176.58C3.44997 176.4 3.36997 176.23 3.28997 176.05C3.13997 175.71 3.13997 175.58 3.26997 176.05C3.16997 175.68 3.08997 175.29 2.97997 174.92C2.93997 174.79 3.07997 175.7 3.01997 175.07C2.99997 174.9 2.97997 174.74 2.95997 174.57C2.87997 173.91 3.04997 174.57 2.95997 174.85C2.99997 174.7 2.94997 174.42 2.94997 174.26C2.94997 174.12 2.94997 173.97 2.94997 173.83C2.93997 173.2 2.89997 174.32 2.91997 174.21C2.95997 173.97 2.95997 173.71 2.98997 173.46C3.00997 173.28 3.05997 173.1 3.06997 172.92C3.06997 172.84 2.87997 173.91 3.00997 173.28C3.15997 172.54 3.22997 171.8 3.23997 171.05C3.25997 169.26 3.23997 167.47 3.24997 165.68C3.26997 157.89 3.28997 150.11 3.30997 142.32C3.33997 132.59 3.36997 122.86 3.40997 113.13C3.43997 106.02 3.45997 98.9102 3.54997 91.8002C3.54997 90.9702 3.56997 90.1401 3.58997 89.3101C3.58997 89.0701 3.60997 88.8202 3.60997 88.5802C3.60997 87.9002 3.50997 89.5601 3.57997 89.1301C3.74997 88.0601 3.72997 85.5602 2.53997 84.9802C1.26997 84.3602 0.829966 86.5901 0.709966 87.3401L0.739966 87.2902Z" fill="black"/>
<path d="M40.5799 76.6198C41.0499 75.1398 40.9899 73.3498 41.0799 71.8198C41.1999 69.7698 41.2799 67.7198 41.3499 65.6698C41.4199 63.8598 41.4699 62.0498 41.5299 60.2398C41.5399 59.8698 41.5999 59.4598 41.5599 59.0898C41.5299 58.7498 41.1399 61.1998 41.3899 60.6298C41.4699 60.4398 41.5199 60.2098 41.5699 60.0198C41.5999 59.9198 41.3299 60.6298 41.5399 60.1198C41.6099 59.9498 41.6699 59.7798 41.7399 59.6098C41.9099 59.1898 42.1099 58.7698 42.3199 58.3598C42.1599 58.6598 42.4399 58.1598 42.4899 58.0798C42.6199 57.8798 42.7599 57.6698 42.9099 57.4798C43.1899 57.1098 43.4899 56.7498 43.8399 56.4498C45.0199 55.4298 46.3299 55.2098 47.8099 55.1598C50.7799 55.0598 53.7599 55.0598 56.7299 55.0598C65.1799 55.0398 73.6299 55.0898 82.0899 55.1498C84.7099 55.1698 87.3399 55.1898 89.9599 55.2098C90.1899 55.2098 90.5199 55.2798 90.7399 55.2098C91.0899 55.1098 90.4899 55.0798 90.6899 55.1498C92.2399 55.6898 93.7599 56.3298 95.1299 57.2498C95.9799 57.8198 96.6899 58.4398 97.2599 59.2898C97.3799 59.4798 97.2799 59.4898 97.2799 59.2898C97.2799 59.6398 97.3399 59.9898 97.3599 60.3398C97.3699 60.5298 97.3799 60.7198 97.3999 60.9198C97.3699 60.4098 97.3699 60.3898 97.3999 60.8698C97.4299 61.3798 97.4499 61.8998 97.4799 62.4098C97.5299 63.5298 97.5799 64.6498 97.6199 65.7698C97.7699 69.7698 97.8899 73.7698 97.9999 77.7798C97.9999 78.0298 98.0099 78.2798 98.0199 78.5298L99.5099 75.1498C94.0399 75.0298 88.5699 74.9098 83.0999 74.7898L84.3799 79.8698C85.5499 75.8198 86.6699 71.2298 86.1299 66.9998C85.9699 65.7398 85.6499 64.0298 84.5599 63.2098C84.1199 62.8798 83.5799 62.7698 83.0499 62.6698C81.4499 62.3598 79.7799 62.2798 78.1499 62.1698C73.3899 61.8498 68.6199 61.7098 63.8599 61.5898C62.1699 61.5498 60.4799 61.5098 58.7899 61.4798C58.1499 61.4698 57.5899 61.4398 56.9699 61.5898C53.7599 62.3598 52.0399 64.9598 51.6399 68.1598C51.2399 71.3598 51.5299 74.6398 51.5299 77.8198C51.5299 78.7198 51.7099 81.1498 53.0199 81.1998C54.3299 81.2498 54.5099 78.5698 54.5099 77.8198V71.2898C54.5099 70.8198 54.5099 70.3498 54.5099 69.8798C54.5099 69.9498 54.5099 70.1498 54.4599 70.1998C54.2399 70.4598 54.6099 69.8098 54.4799 70.0998C54.4499 70.1698 54.5599 69.9398 54.5699 69.9298C54.6499 69.8098 54.8899 69.4898 54.8999 69.4798C55.2099 69.1598 55.6299 68.9098 56.0199 68.7098C56.3399 68.5498 56.7199 68.3998 56.8399 68.3698C58.5899 67.8898 60.6899 68.2598 62.4599 68.2998C66.7499 68.3998 71.0399 68.5298 75.3299 68.7498C77.2099 68.8498 79.0899 68.9598 80.9699 69.1398C81.6099 69.1998 82.2499 69.2698 82.8899 69.3798C83.1099 69.4198 83.3199 69.4598 83.5399 69.5098C82.9199 69.3498 83.7499 69.5498 83.6999 69.6298C83.6299 69.7398 83.2899 68.7798 83.2899 68.7898C83.4199 69.4898 83.3399 68.2198 83.2899 68.7898C83.2599 69.1398 83.2399 69.7598 83.3099 69.0098C83.2599 69.5798 83.1999 70.1498 83.1199 70.7198C83.0799 71.0098 83.0299 71.3098 82.9799 71.5998C82.8599 72.3598 83.0499 71.2998 82.8999 72.0298C82.5999 73.5198 82.2599 74.9998 81.8399 76.4598C81.5499 77.4798 81.2999 81.4998 83.1199 81.5398C88.5899 81.6598 94.0599 81.7798 99.5299 81.8998C100.81 81.9298 101.03 79.2698 101.02 78.5198C100.94 75.3198 100.85 72.1098 100.74 68.9098C100.66 66.5398 100.57 64.1698 100.46 61.7998C100.35 59.4298 100.43 56.9298 99.5099 54.7498C98.5499 52.4698 96.4899 50.8798 94.3299 49.7998C93.3099 49.2898 92.0699 48.6398 90.9199 48.4598C89.1999 48.1998 87.2699 48.4298 85.5399 48.4198C77.0299 48.3498 68.5299 48.2998 60.0199 48.2998C56.4799 48.2998 52.9299 48.2998 49.3899 48.3698C48.3399 48.3898 47.2399 48.3498 46.1999 48.5298C43.8099 48.9498 41.9999 50.6398 40.7899 52.6598C39.9299 54.0998 39.2399 55.6798 38.8499 57.3098C38.5399 58.5798 38.6099 60.0198 38.5699 61.3198C38.5099 63.3698 38.4399 65.4198 38.3599 67.4698C38.3199 68.5498 38.2699 69.6198 38.2099 70.6998C38.1899 71.0498 38.0999 72.3498 38.1799 71.3298C38.1499 71.7498 38.1299 72.1698 38.0899 72.5898C38.0699 72.8598 38.0399 73.1298 38.0099 73.3998C37.9299 74.2098 38.0899 73.0698 38.0499 73.1998C37.6399 74.4898 37.6499 76.7298 38.5799 77.8198C39.5799 78.9798 40.3299 77.5098 40.6099 76.6098L40.5799 76.6198Z" fill="black"/>
<path d="M21.6 79.06C21.02 81.58 21.13 84.3 21.08 86.87C21.03 89.25 21.01 91.63 21.01 94.01C21.01 94.15 21 94.3 21.01 94.44C20.96 93.73 21.09 93.25 21.05 93.65C21.03 93.81 20.94 94.29 21.06 93.62C21.19 92.92 21.08 93.52 21.04 93.69C20.99 93.89 20.94 94.09 20.89 94.28C20.86 94.39 20.81 94.5 20.79 94.61C20.72 94.95 21.08 93.92 20.85 94.41C20.74 94.65 20.65 94.9 20.54 95.14C20.47 95.29 20.39 95.44 20.31 95.59C20.35 95.52 20.59 95.17 20.35 95.51C20.18 95.75 20.03 96 19.84 96.22C19.49 96.65 19.34 96.81 18.68 97.19C17.19 98.05 15.56 97.68 13.92 97.55C10.16 97.26 6.26997 97.45 2.55997 98.09C1.25997 98.32 1.04997 100.43 1.06997 101.47C1.07997 102.12 1.29997 105.06 2.55997 104.85C5.84997 104.28 9.25997 104.09 12.58 104.23C14.61 104.31 16.6 104.82 18.57 104.11C19.88 103.64 20.99 102.64 21.75 101.49C22.95 99.68 23.65 97.5 23.92 95.35C24.16 93.37 23.98 91.28 24.01 89.28C24.03 87.63 24.06 85.98 24.11 84.33C24.12 83.95 24.14 83.58 24.15 83.2C24.15 83.03 24.17 82.86 24.17 82.69C24.19 82.1 24.1 83.56 24.15 82.97C24.17 82.72 24.19 82.47 24.21 82.22C24.27 81.52 24.19 82.27 24.15 82.46C24.47 81.06 24.57 79.04 23.62 77.84C22.67 76.64 21.8 78.14 21.59 79.05L21.6 79.06Z" fill="black"/>
<path d="M2.55991 165.43C4.36991 165.49 6.18991 165.55 7.99991 165.61C10.1599 165.68 12.3799 165.91 14.5399 165.82C16.0399 165.76 17.2099 165.7 18.4799 166.42C19.9099 167.23 20.7199 168.48 21.2399 170.02C21.0799 169.56 21.2599 170.12 21.2899 170.23C21.3499 170.45 21.4099 170.67 21.4599 170.89C21.4999 171.07 21.5399 171.25 21.5799 171.43C21.4299 170.74 21.6199 171.66 21.6299 171.74C21.6999 172.21 21.7599 172.69 21.8099 173.16C21.8299 173.35 21.8399 173.54 21.8599 173.73C21.9299 174.42 21.8499 173.23 21.8799 174.12C21.9199 175.17 21.9199 176.22 21.8799 177.27C21.8799 177.48 21.8599 177.69 21.8499 177.91C21.8199 178.82 21.8899 177.42 21.8499 178.1C21.8199 178.5 21.7899 178.89 21.7599 179.29C21.6799 180.15 21.5899 181.02 21.4599 181.87C21.2799 182.98 21.3199 185.39 22.4999 186.02C23.7499 186.69 24.2199 184.36 24.3299 183.66C24.7599 180.94 24.9199 178.14 24.8899 175.39C24.8499 170.9 24.4499 165.34 21.4199 161.74C19.6899 159.69 17.4099 158.87 14.7999 159.05C13.1499 159.16 11.4199 158.97 9.75991 158.91C7.35991 158.83 4.96991 158.76 2.56991 158.68C1.28991 158.64 1.06991 161.22 1.07991 162.06C1.08991 162.9 1.24991 165.39 2.56991 165.44L2.55991 165.43Z" fill="black"/>
<path d="M114.85 77.2101C114.22 78.6001 114.19 80.2601 114.16 81.7601C114.13 83.2601 114.18 84.6701 114.25 86.1201C114.38 89.0201 114.58 91.9301 114.82 94.8201C114.97 96.6001 115.32 98.3501 115.98 100.01C116.56 101.48 117.48 102.89 118.78 103.82C120.34 104.95 122.22 104.85 124.05 104.85H135.44C137.52 104.85 137.54 98.1001 135.44 98.1001H127.04C125.14 98.1001 123.04 98.3501 121.16 98.0201C119.79 97.7801 118.99 96.9601 118.36 95.8901C118.61 96.3101 118.3 95.7401 118.23 95.5701C118.13 95.3401 117.9 94.4501 118.08 95.2401C118.02 94.9801 117.93 94.7201 117.86 94.4501C117.84 94.3501 117.82 94.2601 117.79 94.1601C117.64 93.6201 117.89 94.9501 117.84 94.4501C117.8 94.1001 117.75 93.7501 117.71 93.4001C117.64 92.6301 117.58 91.8601 117.53 91.1001C117.49 90.5201 117.44 89.9401 117.4 89.3601C117.38 89.0001 117.35 88.6401 117.33 88.2801C117.33 88.1301 117.31 87.9801 117.3 87.8301C117.34 88.6301 117.25 87.0301 117.3 87.8301C117.21 86.2101 117.13 84.5801 117.12 82.9601C117.12 82.6501 117.12 82.3301 117.12 82.0201C117.12 81.6301 117.37 80.6001 117.11 81.7901C117.15 81.6001 117.17 81.3501 117.17 81.1501C117.17 80.6701 117 81.9401 117.08 81.6101C117.2 81.1401 116.8 82.3101 116.95 81.9801C117.58 80.5801 117.59 78.6001 116.95 77.2101C116.4 76.0101 115.41 75.9801 114.85 77.2101Z" fill="black"/>
<path d="M135.04 159.46C130.55 159.7 126.06 159.93 121.58 160.17C120.34 160.24 119.3 160.29 118.24 161.06C114.56 163.72 114.26 169.22 114.16 173.33C114.06 177.16 114.32 181.05 114.86 184.84C114.97 185.62 115.44 187.84 116.69 187.2C117.86 186.6 117.87 184.08 117.73 183.05C117.61 182.21 117.52 181.36 117.44 180.52C117.36 179.68 117.3 178.89 117.24 178.07C117.17 177.14 117.26 178.53 117.23 177.94C117.22 177.69 117.2 177.43 117.19 177.18C117.16 176.6 117.15 176.02 117.14 175.44C117.12 174.42 117.14 173.39 117.18 172.37C117.14 173.11 117.21 172.07 117.21 172C117.23 171.79 117.25 171.59 117.27 171.38C117.3 171.12 117.33 170.86 117.37 170.6C117.41 170.38 117.4 170.37 117.37 170.57C117.41 170.36 117.46 170.16 117.52 169.96C117.53 169.91 117.67 169.43 117.54 169.82C117.61 169.61 117.7 169.41 117.78 169.21C117.86 169.03 117.95 168.84 118.04 168.67C117.85 169 118.04 168.69 118.08 168.63C118.26 168.37 118.46 168.11 118.68 167.88C119.05 167.48 118.41 168.08 118.81 167.77C118.93 167.68 119.04 167.59 119.16 167.51C119.46 167.31 119.78 167.17 120.1 167.03C119.8 167.17 119.95 167.03 120.21 167.02C120.67 167 121.13 166.97 121.6 166.95L129.1 166.56C131.09 166.46 133.08 166.35 135.06 166.25C136.36 166.18 136.56 163.79 136.55 162.87C136.53 162.09 136.36 159.43 135.06 159.49L135.04 159.46Z" fill="black"/>
<path d="M37.31 122.76C38.84 120.16 39.96 117.29 41.23 114.56C42.05 112.81 42.87 111.06 43.74 109.33C44.13 108.56 44.52 107.8 44.93 107.05C45.07 106.8 45.14 106.7 44.93 107.03C45.02 106.88 45.1 106.74 45.19 106.59C45.34 106.34 45.49 106.1 45.66 105.86C45.78 105.69 45.93 105.54 46.03 105.37C46.21 105.09 45.91 105.48 45.89 105.49C46.04 105.41 46.06 105.44 45.87 105.44C45.45 105.44 45.02 105.23 44.88 104.69C44.92 104.83 45.01 104.97 45.07 105.09C45.68 106.31 46.4 107.49 47.09 108.67C49.04 112.01 51.05 115.31 53.06 118.61C54.46 120.91 55.86 123.2 57.28 125.49L58.03 119.2C51.76 118.4 45.48 117.6 39.21 116.8L36.54 116.46C34.64 116.22 34.33 122.93 36.54 123.21C42.81 124.01 49.09 124.81 55.36 125.61L58.03 125.95C59 126.07 59.4 124.05 59.46 123.47C59.6 122.16 59.48 120.79 58.78 119.66C55.45 114.26 52.13 108.85 48.91 103.38C48.72 103.05 48.52 102.72 48.33 102.39C48.23 102.23 48.14 102.06 48.05 101.9C47.97 101.75 47.63 101.16 47.98 101.78C47.72 101.32 47.45 100.86 47.21 100.38C46.75 99.4801 46.17 98.2001 45.02 99.0201C43.93 99.8001 43.25 101.43 42.64 102.55C41.73 104.23 40.9 105.96 40.08 107.68C39.13 109.67 38.21 111.68 37.29 113.68C36.93 114.46 36.57 115.24 36.2 116.02C36.07 116.28 35.95 116.55 35.82 116.81C35.77 116.92 35.71 117.02 35.66 117.13C35.46 117.56 35.85 116.82 35.79 116.92C34.99 118.28 34.85 120.02 35.26 121.54C35.45 122.26 36.48 124.13 37.29 122.75L37.31 122.76Z" fill="black"/>
<path d="M97.61 122.97C97.72 130.37 97.84 137.77 97.95 145.17C97.97 146.24 97.98 147.31 98 148.38C98 148.92 98.41 152.62 99.88 151.63C105.81 147.64 111.73 143.65 117.66 139.66C118.51 139.09 119.35 138.52 120.2 137.95C121.13 137.33 121.29 135.69 121.29 134.7C121.29 133.71 121.16 131.99 120.2 131.45C114.15 128.03 108.11 124.6 102.06 121.18C101.2 120.69 100.34 120.21 99.49 119.72C97.63 118.67 96.88 125.2 98.7 126.23C104.75 129.65 110.79 133.08 116.84 136.5C117.7 136.99 118.56 137.47 119.41 137.96V131.45C113.48 135.44 107.56 139.43 101.63 143.42C100.78 143.99 99.94 144.56 99.09 145.13L100.97 148.38C100.86 140.98 100.74 133.58 100.63 126.18C100.61 125.11 100.6 124.04 100.58 122.97C100.57 122.07 100.41 119.64 99.09 119.59C97.77 119.54 97.59 122.22 97.6 122.97H97.61Z" fill="black"/>
<path d="M49.54 144.47C49.65 150.16 49.77 155.86 49.88 161.55C49.9 162.37 49.91 163.19 49.93 164.01C49.95 164.83 50.11 167.39 51.42 167.39H68.22C69.82 167.39 69.71 163.97 69.65 163.12C69.31 157.65 68.97 152.17 68.62 146.7C68.57 145.92 68.52 145.14 68.47 144.36C68.42 143.58 68.04 141.93 67.04 141.88C61.7 141.62 56.36 141.36 51.02 141.1C49.74 141.04 49.52 143.66 49.53 144.48C49.55 145.37 49.69 147.79 51.02 147.86C56.36 148.12 61.7 148.38 67.04 148.64L65.61 146.16C65.95 151.63 66.29 157.11 66.64 162.58C66.69 163.36 66.74 164.14 66.79 164.92L68.22 160.65H51.42L52.91 164.03C52.8 158.34 52.68 152.64 52.57 146.95C52.55 146.13 52.54 145.31 52.52 144.49C52.5 143.62 52.35 141.11 51.03 141.11C49.71 141.11 49.53 143.7 49.54 144.49V144.47Z" fill="black"/>
<path d="M112.64 78.1399C112.65 78.0099 112.67 77.8699 112.69 77.7399C112.72 77.5699 112.75 77.3899 112.78 77.2199C112.84 76.7499 112.6 77.9999 112.7 77.6399C112.74 77.4999 112.76 77.3399 112.79 77.1999C112.91 76.6299 113.05 76.0599 113.21 75.4999C113.3 75.1699 113.41 74.8399 113.51 74.5099C113.56 74.3499 113.73 73.9099 113.51 74.5299C113.61 74.2699 113.7 73.9999 113.8 73.7399C115.03 70.5899 116.92 67.6499 120.18 65.8799C122.84 64.4299 125.95 64.3599 128.91 64.1899C132.31 63.9999 135.72 63.9199 139.12 63.8699C153.39 63.6399 167.68 63.8699 181.95 64.1799C185.7 64.2599 189.35 65.2299 192.29 67.7099C192.91 68.2399 193.45 68.8599 193.91 69.5299C194.43 70.2899 194.73 71.0699 194.93 71.7799C195.11 72.4299 194.93 71.6199 195.01 72.1599C195.03 72.2799 195.04 72.4099 195.06 72.5299C195.1 72.8899 195.14 73.2499 195.17 73.6099C195.21 74.0099 195.23 74.4199 195.26 74.8199C195.28 75.1299 195.3 75.9699 195.26 74.6699C195.27 74.9799 195.3 75.2999 195.31 75.6099C195.37 76.7499 195.41 77.8899 195.45 79.0399C195.92 93.6299 195.77 108.25 195.67 122.84C195.6 133.66 195.48 144.47 195.32 155.29C195.32 155.46 195.32 155.63 195.32 155.81L195.75 153.42C195.47 154.15 195.12 154.85 194.76 155.54C194.7 155.65 194.25 156.46 194.46 156.1C194.26 156.44 194.06 156.77 193.85 157.09C193.34 157.88 192.79 158.64 192.18 159.35C190.96 160.78 189.42 162.06 187.61 162.66C186.07 163.17 184.26 163.04 182.66 163.08C170.65 163.36 158.62 163.33 146.6 163.35C143.27 163.35 139.95 163.36 136.62 163.36C134.54 163.36 134.52 170.11 136.62 170.11C149.55 170.11 162.49 170.09 175.42 169.94C178.63 169.9 181.84 169.88 185.04 169.75C187.62 169.65 189.88 168.78 191.81 167.05C193.74 165.32 195.29 163.14 196.57 160.82C197.45 159.21 198.22 157.66 198.28 155.78C198.41 151.6 198.4 147.41 198.45 143.22C198.56 133.96 198.64 124.7 198.68 115.43C198.72 106.16 198.74 96.1299 198.59 86.4799C198.54 82.9899 198.47 79.4899 198.3 75.9999C198.15 72.7999 198.06 69.5499 196.92 66.5199C194.62 60.4199 188.17 57.5299 182.01 57.3899C173.89 57.2099 165.77 57.0899 157.65 57.0299C147.87 56.9599 138.04 56.8399 128.28 57.4399C124.03 57.6999 119.95 58.2799 116.7 61.3099C113.45 64.3399 111.36 68.8899 110.34 73.3299C110.11 74.3099 109.91 75.3099 109.79 76.3099C109.67 77.3999 109.61 79.8699 110.83 80.4599C112.05 81.0499 112.57 78.8599 112.66 78.0999L112.64 78.1399Z" fill="black"/>
<path d="M165.41 165.09C164.6 168.1 163.96 171.21 163.61 174.31C163.34 176.71 163.19 179.27 163.78 181.63C164.02 182.58 164.38 183.57 165.11 184.26C165.71 184.83 166.54 185.04 167.33 185.23C169.48 185.75 171.77 185.79 173.96 185.79C176.15 185.79 178.57 185.69 180.84 185.37C181.53 185.27 182.41 185.2 183.03 184.85C183.75 184.43 184.23 183.63 184.6 182.91C185.57 181.07 185.97 178.92 186.33 176.88C186.94 173.46 187.21 169.95 187.3 166.48C187.32 165.61 187.1 163.1 185.81 163.1C184.52 163.1 184.35 165.69 184.32 166.48C184.32 166.69 184.31 166.9 184.3 167.1C184.3 167.32 184.28 167.54 184.27 167.76C184.27 167.88 184.26 168.01 184.25 168.13C184.22 168.78 184.31 167.25 184.26 167.93C184.15 169.59 184.01 171.26 183.79 172.91C183.73 173.34 183.67 173.77 183.6 174.2C183.57 174.4 183.53 174.59 183.5 174.79C183.38 175.54 183.62 174.23 183.47 174.95C183.3 175.75 183.08 176.52 182.87 177.31C183.09 176.48 182.78 177.52 182.66 177.77C182.6 177.89 182.53 178.01 182.48 178.13C182.64 177.75 182.66 177.82 182.45 178.12C182.39 178.21 182.31 178.28 182.24 178.37C182.64 177.87 182.39 178.29 182.26 178.31C182.2 178.31 181.74 178.52 182.29 178.35C182.15 178.4 181.99 178.42 181.84 178.45C177.92 179.24 173.59 179.25 169.64 178.84C168.77 178.75 167.9 178.64 167.06 178.41C166.8 178.34 167.11 178.45 166.8 178.32C166.68 178.27 166.56 178.21 166.43 178.16C166.32 178.12 166.22 178.01 166.12 177.97C166.38 178.06 166.35 178.26 166.15 177.94C166.27 178.15 166.38 178.42 166.25 178.07C166.37 178.39 166.4 178.7 166.31 178.21C166.28 178.04 166.41 179.04 166.36 178.46C166.34 178.29 166.28 177.56 166.32 178.2C166.36 178.84 166.32 178.1 166.32 177.97C166.32 177.79 166.32 177.61 166.32 177.43C166.32 177.29 166.36 176.5 166.32 177.13C166.28 177.76 166.34 176.95 166.35 176.8C166.45 175.75 166.59 174.71 166.77 173.67C166.79 173.53 166.95 172.68 166.85 173.18C166.75 173.68 166.9 172.95 166.92 172.82C167.01 172.35 167.11 171.87 167.22 171.4C167.43 170.42 167.66 169.45 167.92 168.49C168.29 167.12 168.32 165.04 167.39 163.87C166.46 162.7 165.6 164.2 165.36 165.08L165.41 165.09Z" fill="black"/>
<path d="M134.65 6.25999C130.57 7.10999 126.32 9.36999 125.19 13.68C124.39 16.75 124.63 20.24 124.57 23.38C124.41 32.54 124.46 41.71 124.5 50.88C124.51 53.29 124.53 55.69 124.55 58.1C124.55 59 124.72 61.43 126.04 61.48C127.36 61.53 127.53 58.85 127.53 58.1C127.48 52.18 127.45 46.26 127.45 40.34C127.45 35.74 127.45 31.14 127.51 26.53C127.53 24.65 127.56 22.77 127.61 20.89C127.63 20.14 127.65 19.38 127.68 18.63C127.69 18.33 127.71 18.03 127.72 17.73C127.75 17.05 127.64 18.68 127.72 17.75C127.74 17.52 127.76 17.29 127.78 17.07C127.78 17.05 127.81 16.79 127.81 16.79C127.95 16.8 127.4 17.68 127.83 16.94C128.22 16.28 129.22 15.37 130.17 14.8C131.62 13.93 133.15 13.33 134.66 13.01C136.89 12.54 136.44 5.88999 134.66 6.25999H134.65Z" fill="black"/>
<path d="M171.78 12.62C173.27 12.7 174.8 13 176.2 13.53C177.26 13.93 178.39 14.47 179.2 15.27C179.71 15.77 179.74 15.99 180.02 16.46C179.68 15.88 179.94 16.27 180.02 16.58C180.22 17.3 179.9 15.72 180.02 16.54C180.06 16.84 180.11 17.14 180.15 17.43C180.24 18.15 180.32 18.87 180.39 19.6C180.57 21.55 180.69 23.5 180.82 25.46C180.85 25.84 180.8 25.12 180.8 25.13C180.8 25.28 180.82 25.44 180.83 25.59C180.85 25.86 180.86 26.14 180.88 26.41C180.91 27.01 180.95 27.61 180.98 28.22C181.04 29.48 181.1 30.74 181.16 32C181.27 34.53 181.37 37.07 181.46 39.6C181.62 44.28 181.76 48.96 181.88 53.64C181.94 56.04 182 58.43 182.04 60.83C182.06 61.73 182.21 64.16 183.53 64.21C184.85 64.26 185.03 61.58 185.02 60.83C184.89 54.01 184.7 47.2 184.47 40.39C184.29 35.23 184.09 30.07 183.78 24.91C183.56 21.08 183.47 17.12 182.65 13.35C181.56 8.30998 176.55 6.11998 171.81 5.86998C169.8 5.75998 169.65 12.5 171.81 12.62H171.78Z" fill="black"/>
<path d="M160.64 18.3799C156.37 18.3799 152.1 18.3799 147.83 18.3799C146.21 18.3799 144.48 18.5199 142.86 18.2799C141.14 18.0199 139.46 17.1699 138.25 15.9199C137.68 15.3299 137.2 14.6499 136.87 13.9099C136.7 13.5299 136.67 13.4599 136.58 13.0399C136.45 12.4599 136.64 13.7399 136.53 12.6999C136.55 12.8499 136.53 13.2899 136.53 12.5699C136.53 11.7299 136.54 12.2599 136.53 12.3299C136.5 12.7399 136.64 11.8599 136.56 12.1799C136.56 12.1999 136.73 11.5999 136.75 11.5299C137.06 10.7099 137.56 9.98992 138.15 9.33992C139.35 8.01992 141.11 7.11992 142.87 6.85992C144.49 6.61992 146.21 6.75992 147.84 6.75992C152.11 6.75992 156.38 6.68992 160.64 6.75992C162.72 6.78992 164.71 7.47992 166.27 8.88992C166.9 9.45992 167.46 10.1699 167.85 10.9399C168.08 11.3899 168.15 11.5899 168.24 11.9399C168.42 12.5899 168.33 12.2399 168.29 12.1099C168.49 12.7499 168.34 11.9399 168.34 12.5699V12.9099C168.38 12.2099 168.18 13.3799 168.33 12.8799C168.18 13.3999 168.17 13.5599 167.93 14.0599C167.56 14.8299 167.02 15.5699 166.39 16.1499C164.82 17.6199 162.77 18.3399 160.65 18.3799C158.53 18.4199 158.57 25.1699 160.65 25.1299C171.42 24.9299 174.62 9.69992 167.66 2.93992C165.37 0.719915 162.58 0.00991536 159.49 0.00991536C156.68 0.00991536 153.88 0.00991536 151.07 0.00991536C148.83 0.00991536 146.59 -0.0200846 144.35 0.00991536C140.27 0.0599154 136.81 2.39992 134.99 6.01992C132.71 10.5599 133.06 16.9199 136.14 21.0099C138.23 23.7799 141.37 25.1299 144.79 25.1299C150.07 25.1299 155.36 25.1299 160.64 25.1299C162.72 25.1299 162.74 18.3799 160.64 18.3799Z" fill="black"/>
<path d="M152.13 78.2797C151.8 79.3997 151.86 80.6397 151.83 81.7897C151.79 83.3297 151.77 84.8597 151.75 86.3997C151.69 91.3997 151.66 96.3897 151.63 101.39C151.57 112.54 151.55 123.69 151.54 134.84C151.54 137.4 151.54 139.95 151.54 142.51C151.54 143.41 151.72 145.84 153.03 145.89C154.34 145.94 154.51 143.26 154.52 142.51C154.52 135.65 154.52 128.8 154.54 121.94C154.56 110.77 154.58 99.5997 154.7 88.4397C154.72 86.4897 154.74 84.5497 154.79 82.5997C154.8 82.0097 154.82 81.4297 154.84 80.8397C154.87 79.9397 154.74 81.7497 154.82 81.1597C154.9 80.5697 154.78 81.4297 154.71 81.6797C155.09 80.3697 155.13 78.1697 154.18 77.0597C153.23 75.9497 152.42 77.3497 152.15 78.2697L152.13 78.2797Z" fill="black"/>
<path d="M171.47 79.5897C171.73 86.6097 172 93.6297 172.26 100.65C172.68 111.83 173.1 123.02 173.52 134.2C173.62 136.76 173.71 139.31 173.81 141.87C173.84 142.78 173.97 145.2 175.3 145.25C176.63 145.3 176.81 142.62 176.79 141.87C176.53 134.85 176.26 127.83 176 120.81C175.58 109.63 175.16 98.4397 174.74 87.2597C174.64 84.6997 174.55 82.1497 174.45 79.5897C174.42 78.6797 174.29 76.2597 172.96 76.2097C171.63 76.1597 171.45 78.8397 171.47 79.5897Z" fill="black"/>
</g>
<defs>
<clipPath id="clip0_3416_11836">
<rect width="198.7" height="187.71" fill="white"/>
</clipPath>
</defs>
</svg>
