<svg width="140" height="266" viewBox="0 0 140 266" fill="none" xmlns="http://www.w3.org/2000/svg">
<g clip-path="url(#clip0_3416_11982)">
<path d="M30.23 16.4598C40.81 10.6198 52.91 8.03983 64.9 7.51983C76.89 6.99983 89.9 9.00983 101.09 14.3798C103.81 15.6898 106.44 17.1898 108.94 18.8898C110.18 19.7398 111.39 20.6498 112.56 21.5998C113.13 22.0598 113.68 22.5298 114.23 23.0198C114.7 23.4398 114.96 23.6798 115.61 24.3098C117.82 26.4798 119.83 28.8498 121.61 31.3898C122.04 32.0098 122.46 32.6298 122.86 33.2698C122.96 33.4298 123.47 34.2598 123.24 33.8698C122.97 33.4298 123.31 33.9898 123.37 34.0898C123.5 34.3098 123.62 34.5298 123.75 34.7498C124.53 36.1398 125.24 37.5698 125.88 39.0298C126.52 40.4898 127.08 41.8998 127.63 43.3498C127.77 43.7198 127.89 44.0998 128.04 44.4598C128.01 44.3798 127.63 43.3298 127.9 44.0998C128.07 44.5898 128.26 45.0798 128.44 45.5698C128.45 45.6098 128.08 44.5498 128.25 45.0598C128.31 45.2398 128.38 45.4298 128.45 45.6098C128.6 46.0198 128.74 46.4298 128.88 46.8498C129.84 49.6798 130.68 52.5398 131.39 55.4398C131.56 56.1298 131.72 56.8298 131.88 57.5298C131.95 57.8498 132.02 58.1798 132.09 58.5098C131.67 56.6398 132.01 58.1198 132.09 58.5898C132.37 60.0198 132.62 61.4598 132.83 62.8998C133.04 64.3398 133.23 65.8498 133.37 67.3298C133.4 67.6298 133.5 68.8298 133.4 67.6098C133.29 66.3098 133.4 67.7698 133.43 68.0198C133.48 68.7498 133.52 69.4798 133.55 70.2098C133.61 71.6098 133.64 73.0098 133.62 74.4198C133.62 74.7798 133.62 75.1398 133.6 75.4998C133.6 75.6598 133.56 75.8798 133.59 76.0398C133.62 76.1998 133.66 74.3898 133.62 75.0398C133.58 75.7898 133.55 76.5498 133.5 77.2998C133.41 78.6198 133.29 79.9298 133.12 81.2398C133.05 81.7998 133.1 82.8198 132.83 83.3098C132.77 83.4298 133.08 81.8498 132.97 82.4298C132.94 82.5998 132.91 82.7698 132.88 82.9398C132.81 83.3198 132.74 83.6998 132.67 84.0898C132.42 85.3898 132.12 86.6898 131.79 87.9698C131.63 88.5898 131.46 89.1998 131.28 89.8098C131.23 89.9698 131.18 90.1298 131.13 90.2998C131.13 90.2898 131.56 88.9598 131.3 89.7298C131.19 90.0498 131.09 90.3698 130.98 90.6898C130.12 93.1898 129.03 95.5598 127.89 97.9298C127.68 98.3698 128.16 97.4098 128.14 97.4698C128.08 97.6098 127.98 97.7698 127.9 97.9098C127.74 98.1998 127.58 98.4898 127.41 98.7798C127.08 99.3498 126.74 99.9198 126.38 100.48C125.69 101.56 124.96 102.62 124.19 103.65C123.42 104.68 122.59 105.68 121.73 106.64C121.51 106.89 121.28 107.14 121.05 107.38C120.93 107.5 120.33 108.14 120.68 107.77C121.06 107.38 120.29 108.15 120.2 108.24C119.93 108.51 119.65 108.77 119.37 109.03C115.3 112.79 110.55 115.77 105.47 117.96C102.38 119.29 100.29 120 97.05 120.82C93.81 121.64 90.41 122.25 87.04 122.63C78.63 123.58 69.95 123.47 61.54 122.6C52.55 121.67 43.85 119.42 35.92 114.99C32.58 113.12 29.38 111 26.38 108.62C25.65 108.04 24.93 107.44 24.22 106.83C23.84 106.5 23.47 106.17 23.1 105.84C23.05 105.8 22.59 105.37 22.97 105.72C22.79 105.55 22.61 105.38 22.42 105.2C20.96 103.81 19.57 102.34 18.26 100.82C16.95 99.2998 15.75 97.7698 14.6 96.1598C14.04 95.3698 13.5 94.5698 12.98 93.7598C12.7 93.3198 12.43 92.8798 12.16 92.4398C12.2 92.4998 12.52 93.0598 12.26 92.5998C12.1 92.3198 11.93 92.0298 11.77 91.7498C10.76 89.9598 9.84004 88.1198 9.02004 86.2298C8.80004 85.7398 8.59004 85.2398 8.39004 84.7398C8.31004 84.5498 8.24004 84.3598 8.16004 84.1698C7.81004 83.3298 8.25004 84.4098 8.28004 84.5198C8.01004 83.6098 7.68004 82.7198 7.42004 81.8098C7.15004 80.8498 6.96004 79.8598 6.70004 78.8998C6.70004 78.8698 6.95004 80.1698 6.83004 79.4998C6.78004 79.2398 6.73004 78.9898 6.68004 78.7398C6.57004 78.1598 6.47004 77.5798 6.38004 76.9998C6.23004 76.0198 6.09004 75.0298 5.98004 74.0398C5.93004 73.5798 5.88004 73.1098 5.83004 72.6498C5.71004 71.5398 5.87004 73.0598 5.87004 73.1698C5.87004 72.8398 5.82004 72.4998 5.80004 72.1698C5.67004 70.1598 5.61004 68.1498 5.65004 66.1298C5.65004 65.8898 5.68004 65.6298 5.67004 65.3798C5.67004 65.4598 5.59004 67.0698 5.65004 65.9998C5.67004 65.5798 5.69004 65.1598 5.72004 64.7398C5.78004 63.7798 5.87004 62.8098 5.99004 61.8498C6.04004 61.4198 6.11004 60.9998 6.17004 60.5698C6.28004 59.7698 5.96004 61.7698 6.11004 60.9798C6.15004 60.7898 6.18004 60.5998 6.21004 60.4098C6.39004 59.3898 6.60004 58.3698 6.84004 57.3598C7.08004 56.3498 7.34004 55.3198 7.63004 54.3098C7.69004 54.1098 8.09004 52.7298 7.88004 53.4498C7.67004 54.1698 7.92004 53.3398 7.97004 53.1598C8.07004 52.8498 8.18004 52.5298 8.28004 52.2198C8.94004 50.2698 9.70004 48.3498 10.53 46.4598C10.93 45.5398 11.35 44.6398 11.79 43.7398C12.02 43.2598 12.26 42.7798 12.51 42.3098C12.6 42.1298 12.7 41.9598 12.79 41.7798C13.03 41.3198 12.5 42.2998 12.91 41.5698C14.95 37.9298 17.22 34.4398 19.82 31.1798C21.06 29.6198 22.38 28.1098 23.76 26.6598C23.94 26.4798 24.11 26.2898 24.29 26.1098C24.23 26.1698 24.01 26.3898 24.31 26.0998C24.67 25.7498 25.03 25.3898 25.4 25.0498C26.14 24.3498 26.87 23.6498 27.61 22.9498C29.12 21.5298 30.42 20.2598 31.84 18.9198C32.55 18.2598 33.27 17.6098 34.01 16.9798C34.75 16.3498 35.6 15.4998 36.37 15.0998C38.77 13.8398 37.75 5.01983 35.11 6.39983C34.37 6.78983 33.4 6.94983 32.6 7.23983C31.72 7.56983 30.84 7.92983 29.98 8.31983C28.25 9.09983 26.77 10.0698 25.28 11.2398C21.93 13.8698 18.99 17.2498 16.37 20.5898C10.96 27.4798 6.67004 35.4398 3.91004 43.7498C0.89004 52.7198 -0.39996 61.9998 0.11004 71.4798C0.62004 80.9598 2.47004 90.3498 6.85004 98.9198C14.7 114.25 28.77 126.78 45.23 132.14C54.37 135.11 63.93 136.1 73.5 136.19C81.27 136.26 89.04 135.83 96.61 133.99C108.63 131.07 119.51 124.86 127.07 114.92C134.63 104.98 137.94 93.1998 138.83 81.2898C139.83 67.9798 137.85 54.4098 133.59 41.7898C131.4 35.3098 128.74 28.9398 124.78 23.3298C121.14 18.1698 116.42 13.7598 111.15 10.2998C100.52 3.31983 87.59 0.209834 74.97 0.00983428C62 -0.200166 49.1 2.64983 37.52 8.50983C34.83 9.86983 32.23 11.3998 29.74 13.0898C28.91 13.6498 29.2 17.0298 30.23 16.4598Z" fill="black"/>
<path d="M27.4 41.5199C28.77 37.4499 30.89 33.5499 34.03 30.5699C37.37 27.4099 41.54 25.0499 45.81 23.3899C54.64 19.9699 64.71 19.2599 74.04 20.4999C83.37 21.7399 91.44 25.9199 98.6 31.6099C102.44 34.6599 105.77 37.9799 109 41.8699C110.59 43.7699 112.08 45.7599 113.47 47.8099C114.16 48.8299 114.83 49.8799 115.47 50.9299C115.07 50.2799 115.6 51.1499 115.64 51.2199C115.79 51.4899 115.95 51.7499 116.1 52.0199C116.45 52.6399 116.79 53.2699 117.13 53.9099C118.26 56.0599 119.27 58.2699 120.14 60.5299C120.25 60.8099 120.35 61.0899 120.46 61.3699C120.07 60.3399 120.43 61.2999 120.5 61.4899C120.7 62.0499 120.88 62.6199 121.06 63.1799C121.44 64.3999 121.78 65.6299 122.07 66.8699C122.14 67.1499 122.2 67.4399 122.26 67.7199C122.49 68.7399 122.06 66.6399 122.25 67.6699C122.34 68.1399 122.43 68.6199 122.51 69.0899C122.6 69.6599 122.69 70.2299 122.76 70.7999C122.8 71.0799 122.83 71.3699 122.86 71.6499C123.01 73.0599 122.82 70.8199 122.87 71.7299C122.94 72.8599 122.99 73.9799 122.98 75.1199C122.98 75.3999 122.96 75.6799 122.96 75.9599C122.95 74.3399 122.98 75.3599 122.96 75.7199C122.92 76.3699 122.87 77.02 122.8 77.66C122.76 78.07 122.37 79.8999 122.73 78.3599C122.61 78.8499 122.55 79.3599 122.45 79.8499C122.35 80.3399 122.23 80.8399 122.11 81.3299C122.04 81.5999 121.97 81.8699 121.89 82.1299C121.56 83.2999 122.06 81.6899 121.81 82.3999C121.45 83.4499 121.07 84.4999 120.61 85.5199C120.38 86.0299 120.13 86.5399 119.89 87.0399C119.48 87.8999 120.27 86.3799 119.8 87.2099C119.61 87.5399 119.43 87.8699 119.23 88.1999C116.51 92.7899 113.17 96.3199 108.71 99.1999C102.69 103.08 95.33 105.15 88.4 106.72C81.09 108.38 73.54 109.16 66.04 108.61C53.5 107.69 41.33 102.53 32.57 93.7399C30.5 91.6599 28.6 89.4099 26.9 87.0199C26.47 86.4199 26.06 85.8099 25.65 85.1899C25.45 84.8799 25.25 84.5599 25.06 84.2499C24.41 83.2299 25.4 84.8799 24.8 83.8199C24 82.4099 23.25 80.9699 22.57 79.4999C22.26 78.8099 21.96 78.1199 21.68 77.4199C21.54 77.0699 21.4 76.7099 21.27 76.3599C21.65 77.3599 21.21 76.1699 21.16 76.0299C20.67 74.5899 20.25 73.14 19.91 71.66C19.81 71.25 19.37 70.4599 19.89 71.5899C19.76 71.3099 19.75 70.8599 19.7 70.5499C19.58 69.8599 19.47 69.1599 19.39 68.4599C19.35 68.1099 19.31 67.76 19.27 67.41C19.12 66.15 19.35 68.7199 19.27 67.4499C19.22 66.6199 19.17 65.7999 19.16 64.9699C19.15 64.4199 19.38 63.3299 19.16 62.8399L19.13 63.5899C19.13 63.3499 19.15 63.1199 19.16 62.8799C19.18 62.5299 19.2 62.1699 19.23 61.8199C19.28 61.1099 19.35 60.3999 19.44 59.6999C19.48 59.3499 19.53 58.9999 19.58 58.6499C19.71 57.6199 19.39 59.6699 19.59 58.5599C19.85 57.1699 20.13 55.7899 20.49 54.4299C20.58 54.0899 20.67 53.7499 20.77 53.4199C20.82 53.2399 21.19 52.1099 20.83 53.1999C21.08 52.4299 21.34 51.6599 21.63 50.8999C22.12 49.6199 22.66 48.3599 23.27 47.1199C23.42 46.8199 23.57 46.5099 23.73 46.2099C23.34 46.9499 23.87 45.9599 23.92 45.8899C24.25 45.3099 24.6 44.7299 24.96 44.1699C25.67 43.0599 26.44 41.9799 27.27 40.9499C28.18 39.8299 28.98 38.9599 29.8 38.1999C30.96 37.1199 31.76 35.8099 32.85 34.6799C33.65 33.8499 34.81 33.1899 35.84 32.6599C38.08 31.5099 37.14 23.2999 34.67 24.5799C33.5 25.1799 32.34 25.9499 31.11 26.3699C29.81 26.8099 28.82 27.2399 27.82 28.2099C25.7 30.2499 23.82 32.4999 22.25 34.9799C18.79 40.4199 16.5 46.6399 15.38 52.9799C12.83 67.3799 15.4 82.0899 23.28 94.4799C30 105.05 40.66 113.27 52.66 116.91C68.27 121.64 84.61 119.44 99.78 114.17C103.33 112.94 106.85 111.52 110.02 109.49C112.66 107.8 115 105.66 117.14 103.38C120.72 99.5599 123.49 94.9099 125.12 89.9199C128.67 79.0499 127.92 67.0899 124.17 56.3599C120.42 45.6299 114.56 36.3399 106.74 28.6199C99.49 21.4699 90.89 15.5999 80.92 13.0899C71.47 10.7099 60.88 11.4199 51.57 14.0899C41.73 16.9099 32.58 22.4699 28.27 32.1299C27.13 34.6899 26.53 37.2999 26.3 40.0899C26.26 40.5299 26.25 41.4299 26.64 41.7599C26.96 42.0399 27.28 41.9399 27.42 41.5099L27.4 41.5199Z" fill="black"/>
<path d="M87.45 42.1697C86.29 45.8897 86.05 49.9297 85.72 53.8097C85.39 57.6897 84.99 61.8897 84.7 65.9297C84.41 69.9697 84.13 73.8997 83.85 77.8897C83.71 79.8797 83.56 81.8797 83.43 83.8697C83.26 86.4497 82.75 89.3297 83.58 91.8197C83.9 92.7797 84.92 94.7197 86 93.1997C87.29 91.3797 87.13 88.5997 87.29 86.4397C87.44 84.4497 87.57 82.4497 87.71 80.4597C87.99 76.3897 88.28 72.3097 88.56 68.2397C88.84 64.1697 89.02 60.1997 89.24 56.1797C89.48 51.8997 89.84 47.4797 89.29 43.2197C89.18 42.3597 88.02 40.3697 87.46 42.1797L87.45 42.1697Z" fill="black"/>
<path d="M93.49 43.0598C92.6 47.0598 92 51.1098 91.37 55.1598C90.74 59.2098 89.94 63.5598 89.88 67.8298C89.88 68.4098 90.02 69.7698 90.69 70.0698C91.36 70.3698 91.68 69.4498 91.82 68.9598C92.93 65.0198 93.19 60.8298 93.66 56.7698C94.13 52.7098 94.63 48.4898 94.88 44.3198C94.91 43.7898 94.94 42.6898 94.4 42.3398C93.86 41.9898 93.6 42.5798 93.5 43.0498L93.49 43.0598Z" fill="black"/>
<path d="M53.92 148.36C51.97 151.98 50.9 155.97 49.67 159.88C48.35 164.06 46.91 168.19 45.65 172.4C43.17 180.73 40.76 189.08 38.37 197.44C35.98 205.8 33.56 214.36 31.22 222.84C28.88 231.32 26.67 239.82 25.72 248.55C25.46 250.95 25.29 253.37 25.24 255.78C25.19 258.46 25.61 261.88 27.69 263.8C29.02 265.02 30.88 265.14 32.6 265.35C34.32 265.56 36.06 265.72 37.8 265.79C41.29 265.92 44.75 265.58 48.03 264.3C51.52 262.93 54.17 260.19 56.14 257.06C60.35 250.37 62.69 242.48 64.07 234.76C65.45 227.04 66.04 218.83 66.54 210.81C67.53 194.92 67.84 179.01 68.72 163.11C68.84 161.01 68.96 158.9 69.1 156.8C69.2 155.2 69.24 152.04 67.55 151.13C65.86 150.22 65.2 153.5 65.14 154.43C64.18 169.49 63.84 184.58 63.09 199.66C62.71 207.29 62.32 214.94 61.52 222.54C60.8 229.41 59.68 236.12 57.05 242.72C55.81 245.84 54.35 249.15 52.05 251.65C49.92 253.96 46.96 255.17 43.89 255.53C40.57 255.92 37.21 255.53 33.93 255C32.61 254.78 31.02 254.71 29.81 254.1C29.72 254.05 29.02 253.81 29.35 253.81C30.15 253.81 29.97 256.35 30.04 256.94C29.92 255.89 30.21 254.64 30.32 253.59C30.42 252.64 30.54 251.69 30.67 250.74C30.74 250.26 30.81 249.79 30.88 249.32C30.9 249.2 31.16 247.62 30.96 248.79C31.31 246.73 31.7 244.69 32.15 242.65C33.01 238.72 34.04 234.83 35.12 230.96C37.33 223 39.64 215.06 41.85 207.1C44.36 198.06 46.87 189.03 49.28 179.97C50.51 175.35 51.57 170.7 52.73 166.06C53.89 161.42 55.25 156.46 55.81 151.52C55.92 150.59 55.81 149.35 55.29 148.56C54.98 148.09 54.31 147.64 53.91 148.37L53.92 148.36Z" fill="black"/>
<path d="M45.52 127.33C44.13 129.52 43.65 132.62 43.43 135.16C43.19 137.87 43.21 140.63 43.42 143.34C43.65 146.37 43.85 149.72 44.99 152.57C45.43 153.68 46.09 154.76 47.17 155.37C48.13 155.91 49.39 156.02 50.45 156.21C55.83 157.17 61.24 158.02 66.65 158.76C68.98 159.08 71.3 159.31 73.56 158.49C75.82 157.67 77.13 155.91 78.09 153.91C79.24 151.49 79.65 148.72 79.75 146.06C79.78 145.17 79.81 144.27 79.82 143.38C79.82 143.08 79.82 142.79 79.83 142.49C79.83 142.19 79.83 142.19 79.83 142.49L79.85 142.05C79.87 141.76 79.89 141.46 79.91 141.17C79.91 141.19 80.07 140.01 80 140.44C80.16 139.48 80.29 138.55 80.35 137.57C80.42 136.43 80.38 135.19 79.87 134.14C79.65 133.69 78.98 132.71 78.35 133.27C76.5 134.89 76.36 137.8 76.24 140.11C76.18 141.37 76.16 142.63 76.13 143.9C76.13 144.12 76.13 144.35 76.12 144.57C76.12 144.37 76.17 143.91 76.1 144.78C76.06 145.26 76.03 145.74 75.95 146.22C76.06 145.54 75.84 146.62 75.79 146.82C75.77 146.9 75.69 147.21 75.79 146.82C75.72 147.05 75.63 147.27 75.53 147.49C75.34 147.94 75.02 148.51 74.59 148.97C73.24 150.38 71.23 150.6 69.39 150.52C64.85 150.31 60.24 149.28 55.77 148.52C53.48 148.13 51.14 147.81 48.88 147.28C48.49 147.19 48.17 146.97 47.79 146.87C47.82 146.87 47.2 146.64 47.68 146.93C47.49 146.82 47.6 146.62 47.54 146.31C47.43 145.69 47.32 145.08 47.23 144.46C46.94 142.44 46.84 139.84 46.95 138C47.11 135.25 47.41 132.65 47.37 129.67C47.37 129.1 46.55 125.65 45.49 127.32L45.52 127.33Z" fill="black"/>
</g>
<defs>
<clipPath id="clip0_3416_11982">
<rect width="139.09" height="265.81" fill="white"/>
</clipPath>
</defs>
</svg>
