<svg width="266" height="139" viewBox="0 0 266 139" fill="none" xmlns="http://www.w3.org/2000/svg">
<g clip-path="url(#clip0_3416_10726)">
<path d="M2.48 11.26C4.81 11.6 7.14 11.94 9.46 12.28C15.79 13.21 22.13 14.13 28.46 15.06C37.79 16.43 47.13 17.79 56.46 19.16C67.88 20.83 79.3 22.5 90.72 24.18C103.23 26.01 115.74 27.84 128.25 29.68C140.76 31.52 153.43 33.37 166.01 35.21C177.79 36.93 189.56 38.66 201.34 40.38C211.29 41.84 221.24 43.29 231.19 44.75C238.32 45.79 245.45 46.84 252.58 47.88C255.97 48.38 259.35 48.94 262.75 49.37C262.89 49.39 263.04 49.41 263.18 49.43C262.6 46.23 262.01 43.03 261.43 39.83C260.37 42.42 259.08 44.94 257.77 47.41C257.45 48.02 257.12 48.62 256.79 49.22C256.62 49.53 256.45 49.84 256.27 50.15C256.07 50.51 255.27 51.85 256.09 50.49C255.23 51.94 254.39 53.4 253.51 54.84C251.39 58.29 249.13 61.66 246.74 64.93C243.95 68.76 240.99 72.46 237.85 76C236.17 77.9 234.44 79.75 232.67 81.55C232.23 82 231.78 82.45 231.33 82.89C231.1 83.11 230.88 83.34 230.65 83.56C230.54 83.67 230.42 83.78 230.31 83.89C229.72 84.46 230.8 83.42 230.21 83.99C229.24 84.91 228.26 85.82 227.26 86.71C218.57 94.5 208.82 101.11 198.21 106.01C186.11 111.59 173.34 114.71 159.91 115.49C151.95 115.95 144.03 115.45 136.12 114.64C128.21 113.83 119.77 112.62 111.69 111.02C97.3 108.17 83.26 104.01 69.9 97.91C58.01 92.48 46.77 85.52 37.04 76.77C36.49 76.27 35.94 75.77 35.39 75.26C35.25 75.13 35.12 75.01 34.98 74.88C34.92 74.82 34.49 74.41 34.77 74.68C35.05 74.95 34.63 74.54 34.57 74.48C34.4 74.32 34.24 74.16 34.07 73.99C32.95 72.89 31.86 71.77 30.79 70.62C28.74 68.41 26.78 66.11 24.93 63.72C23.08 61.33 21.26 58.74 19.6 56.13C19.21 55.52 18.83 54.9 18.45 54.27C18.26 53.96 18.08 53.65 17.89 53.33C17.8 53.17 17.71 53.02 17.61 52.86C17.55 52.75 17.16 52.05 17.45 52.59C17.74 53.13 17.16 52.07 17.1 51.96C16.92 51.64 16.75 51.32 16.58 51C16.21 50.32 15.85 49.63 15.5 48.93C14.11 46.18 12.84 43.36 11.71 40.5C11.15 39.07 10.68 37.6 10.12 36.17C10.63 37.45 10.17 36.31 10.06 35.98C9.94 35.62 9.83 35.26 9.72 34.91C9.46 34.1 9.22 33.29 8.98 32.47C8.1 29.43 7.36 26.34 6.76 23.24C6.5 21.89 6.89 24.01 6.74 23.15C6.67 22.76 6.6 22.38 6.54 21.99C6.39 21.12 6.25 20.24 6.12 19.36C5.88 17.73 5.67 16.09 5.5 14.45C5.33 12.81 5.2 11.21 5.09 9.59C5 8.24 5.16 10.9 5.09 9.54C5.07 9.13 5.05 8.71 5.03 8.3C4.99 7.41 4.96 6.53 4.94 5.64C4.91 4.33 4.77 2.87 4.22 1.66C3.93 1.01 3.33 0 2.48 0C0.349999 0 -0.0300009 4.32 -9.24803e-07 5.63C0.349999 19.98 2.76 34.24 7.93 47.67C12.45 59.41 19.18 70.33 27.65 79.63C36.48 89.33 47.02 97.35 58.49 103.69C71.23 110.74 85.02 115.77 99.09 119.41C114.9 123.51 131.37 126.09 147.69 126.82C162.08 127.47 176.46 125.46 190.06 120.7C201.63 116.65 212.43 110.57 222.07 103.02C230.58 96.36 238.26 88.62 245.01 80.19C250.08 73.86 254.65 67.12 258.67 60.07C260.86 56.24 262.97 52.34 264.72 48.29C264.79 48.12 264.87 47.95 264.94 47.78C265.72 45.86 265.83 43.65 265.45 41.64C265.22 40.38 264.71 38.4 263.19 38.18C260.86 37.84 258.53 37.5 256.21 37.16C249.88 36.23 243.54 35.31 237.21 34.38C227.88 33.01 218.54 31.65 209.21 30.28C197.79 28.61 186.37 26.94 174.95 25.26C162.44 23.43 149.93 21.6 137.42 19.76C124.91 17.92 112.24 16.07 99.66 14.23C87.88 12.51 76.11 10.78 64.33 9.06C54.38 7.6 44.43 6.15 34.48 4.69C27.35 3.65 20.22 2.6 13.09 1.56C9.71 1.07 6.3 0.38 2.91 0.07C2.77 0.06 2.62 0.03 2.48 0.01C1.67 -0.11 0.969999 1.13 0.729999 1.66C0.189999 2.82 -0.0200009 4.37 -9.24803e-07 5.63C0.0299991 7.3 0.259999 10.93 2.48 11.25V11.26Z" fill="#010202"/>
<path d="M261.44 39.83C260.31 42.92 258.98 45.95 257.63 48.95C256.13 52.26 254.55 55.54 252.88 58.77C251.9 60.67 250.89 62.56 249.85 64.44C249.58 64.93 249.3 65.43 249.02 65.92C248.74 66.41 248.73 66.52 249.02 65.94C248.87 66.25 248.67 66.55 248.5 66.85C247.89 67.91 247.26 68.97 246.63 70.03C241.13 79.17 234.92 87.91 227.79 95.85C225.89 97.96 223.93 100.01 221.9 101.99C221.77 102.12 221.63 102.25 221.5 102.38C221.54 102.35 221.85 102.05 221.59 102.3C221.33 102.55 221.05 102.81 220.77 103.07C220.26 103.55 219.74 104.02 219.22 104.49C218.14 105.46 217.04 106.41 215.93 107.34C211.53 110.99 206.83 114.29 201.82 117.05C199.31 118.43 196.73 119.68 194.08 120.77C192.77 121.31 191.45 121.81 190.11 122.27C188.66 122.76 187.89 123 186.41 123.4C179.05 125.37 171.3 126.09 163.73 126.71C146.51 128.13 129.09 127.7 111.97 125.3C97.18 123.22 82.39 119.72 68.72 113.58C63.07 111.05 57.6 108.04 52.64 104.32C51.54 103.5 50.47 102.64 49.44 101.74C48.97 101.33 48.51 100.92 48.06 100.5C47.93 100.38 47.8 100.26 47.68 100.14C48.15 100.58 47.8 100.26 47.71 100.16C47.47 99.92 47.22 99.68 46.98 99.43C43.62 95.99 40.37 92.43 37.21 88.8C31.3 82.01 25.72 74.91 20.76 67.39C19.61 65.65 18.5 63.88 17.43 62.09C17.19 61.7 16.96 61.3 16.73 60.91C16.65 60.77 16.05 59.72 16.36 60.28C15.86 59.4 15.37 58.51 14.89 57.61C13.19 54.41 11.63 51.11 10.32 47.73C10.03 46.98 9.61999 46.17 9.45999 45.38C9.62999 46.24 9.54999 45.64 9.37999 45.13C9.24999 44.72 9.11999 44.32 8.99999 43.91C8.53999 42.38 8.13999 40.84 7.81999 39.28C7.77999 39.09 7.75999 38.88 7.69999 38.7C7.67999 38.64 7.89999 39.88 7.81999 39.32C7.76999 38.98 7.70999 38.65 7.64999 38.31C7.47999 37.21 7.34999 36.11 7.20999 35C6.90999 32.58 6.63999 30.16 6.39999 27.74C5.98999 23.68 5.65999 19.61 5.38999 15.54C5.35999 15.15 5.33999 14.76 5.31999 14.36C5.27999 13.72 5.35999 15.12 5.35999 15.05C5.35999 14.84 5.33999 14.63 5.31999 14.42C5.27999 13.65 5.23999 12.87 5.19999 12.1C5.13999 10.94 5.08999 9.78 5.04999 8.62C5.00999 7.63 4.97999 6.64 4.96999 5.64C4.92999 4.19 4.65999 0 2.47999 0C0.299993 0 -0.0200074 4.32 -7.43387e-06 5.63C0.0599926 9.93 0.319993 14.23 0.599993 18.51C1.14999 27.16 1.73999 35.99 3.42999 44.5C4.82999 51.56 7.60999 58.36 10.93 64.72C14.89 72.31 19.61 79.49 24.77 86.32C30.58 94.01 36.93 101.29 43.6 108.25C47.83 112.67 52.59 116.39 57.86 119.51C70.27 126.85 84.41 131.23 98.45 134.18C115.16 137.69 132.33 139.06 149.39 138.69C158.4 138.49 167.39 137.8 176.32 136.56C182.65 135.68 188.8 134.25 194.75 131.87C205.73 127.48 215.33 120.43 223.8 112.27C231.88 104.49 238.88 95.62 245.03 86.25C250.19 78.4 254.8 70.17 258.89 61.71C261 57.34 263 52.91 264.73 48.38C264.81 48.18 264.89 47.97 264.96 47.76C265.84 45.35 266.14 42.18 264.96 39.81C264.62 39.12 264.12 38.16 263.21 38.16C262.37 38.16 261.71 39.13 261.46 39.81L261.44 39.83Z" fill="#010202"/>
<path d="M133.24 30.4C133.24 30.4 118.62 28.37 113.54 40.76C113.54 40.76 123.9 46.04 133.24 30.4Z" fill="black" stroke="#010202" stroke-width="1.25" stroke-miterlimit="10"/>
<path d="M140.9 33.4199C140.9 33.4199 131.04 44.3999 138.47 55.5399C138.47 55.5399 148.64 49.9099 140.9 33.4199Z" fill="black" stroke="#010202" stroke-width="1.25" stroke-miterlimit="10"/>
<path d="M149.29 33.9302C149.29 33.9302 149.44 48.6902 162.45 51.8802C162.45 51.8802 166.14 40.8602 149.29 33.9302Z" fill="black" stroke="#010202" stroke-width="1.25" stroke-miterlimit="10"/>
<path d="M32.42 92.8999C33.55 94.7499 34.84 96.2399 36.39 97.7399C37.66 98.9799 39.01 100.08 40.41 101.17C43.12 103.27 45.81 105.44 48.62 107.41C54.51 111.53 60.93 115.15 67.47 118.12C74.01 121.09 80.28 123.4 86.89 125.44C93.5 127.48 100.37 129.45 107.26 130.77C121.58 133.51 136.09 135.09 150.65 135.77C157.85 136.11 165.08 136.33 172.29 136.27C180.41 136.2 188.85 135.46 196.35 132.11C203.85 128.76 209.9 122.91 215.81 117.34C222.21 111.31 228.62 105.28 235.02 99.2499C236.68 97.6799 238.18 95.9999 239.71 94.2999C241.99 91.7599 242.6 87.6099 241.15 84.4799C239.88 81.7299 237.37 79.9399 234.67 82.0699C227.88 87.4199 221.78 93.6799 215.48 99.6099C212.42 102.49 209.39 105.39 206.3 108.24C204.9 109.53 203.49 110.79 202.02 111.99C201.29 112.59 200.55 113.18 199.79 113.74C199.44 114 199.09 114.25 198.74 114.51C198.53 114.66 197.94 115.16 198.84 114.46C198.62 114.64 198.35 114.78 198.11 114.94C194.41 117.31 190.37 118.91 186.11 119.9L187.43 119.6C177.15 121.88 166.26 121.17 155.81 120.81C145.36 120.45 135.8 119.85 125.86 118.72C120.27 118.09 114.7 117.29 109.17 116.3L110.48 116.53C108.1 116.1 105.74 115.64 103.36 115.22L104.66 115.45C94.66 113.65 84.89 111.03 75.4 107.41C70.75 105.64 66.16 103.65 61.69 101.47C59.47 100.38 57.28 99.2399 55.12 98.0199C54.07 97.4299 53.03 96.8199 52 96.1999C53.09 96.8599 50.84 95.5199 50.54 95.3399C49.94 94.9899 49.35 94.6399 48.76 94.2899C49.47 94.7199 48.89 94.3699 48.76 94.2899C48.44 94.0899 48.11 93.8899 47.79 93.6899C47.14 93.2799 46.51 92.8499 45.9 92.3899C44.76 91.5499 43.64 90.6799 42.53 89.7999C40.24 87.9599 37.94 86.1799 35.22 85.0399C33.66 84.3899 32.25 85.9299 31.81 87.2699C31.19 89.1499 31.39 91.2199 32.43 92.9199L32.42 92.8999Z" fill="#1D1D1B"/>
</g>
<defs>
<clipPath id="clip0_3416_10726">
<rect width="265.72" height="138.76" fill="white"/>
</clipPath>
</defs>
</svg>
