<svg width="262" height="162" viewBox="0 0 262 162" fill="none" xmlns="http://www.w3.org/2000/svg">
<g clip-path="url(#clip0_3416_9765)">
<path d="M33.8098 62.8099C32.1098 61.2399 30.2798 59.7899 28.9998 57.7899C28.6798 57.2999 28.2098 56.8499 27.7198 56.4899C25.8298 55.0899 24.3398 53.3199 22.7598 51.5999C21.7998 50.5599 20.7598 49.5999 19.6498 48.7299C18.5198 47.8399 17.0598 47.8599 16.2898 48.5599C15.5198 49.2599 15.6898 50.6399 16.7598 51.8099C18.6698 53.8899 20.5698 55.9999 22.8598 57.6799C24.0698 58.5699 25.1598 59.6599 26.2598 60.6799C27.9798 62.2299 29.5998 63.9099 31.4098 65.3599C33.6198 67.0999 35.8598 68.8099 37.8498 70.8299C38.2498 71.2299 38.7598 71.6599 39.6198 71.2599C39.5798 70.9599 39.6198 70.5399 39.4698 70.2599C37.8998 67.5399 36.1098 64.9899 33.7898 62.8199L33.8098 62.8099Z" fill="#1D1D1B"/>
<path d="M15.9298 71.0801C14.3098 69.9501 10.4898 67.2701 7.09979 68.5501C6.77979 68.6801 5.05979 69.3401 4.58979 70.8501C4.07979 72.4501 5.13979 74.4401 6.49979 75.4701C9.17979 77.4901 11.7998 74.8701 16.6498 76.2401C20.3898 77.3001 22.0298 79.7701 22.4798 79.3701C23.0098 78.8801 20.4398 74.2201 15.9298 71.0801Z" fill="#1D1D1B"/>
<path d="M6.45975 41.1999C7.45975 42.1799 8.51974 43.1099 9.56974 44.0499C10.4597 44.8599 11.3397 45.7099 12.2897 46.4299C13.0997 47.0499 14.3997 46.8999 15.0797 46.2199C15.7597 45.5399 15.6497 44.7699 15.2497 43.5999C14.0797 41.7099 12.7397 39.4499 11.2897 37.2599C10.6497 36.2999 9.41975 36.0699 8.28975 36.5799C7.56975 36.9199 6.88975 37.3699 6.22975 37.8099C5.52975 38.2999 5.26975 39.1899 5.62975 39.9399C5.83975 40.3899 6.11975 40.8299 6.47975 41.1699L6.45975 41.1899V41.1999Z" fill="#1D1D1B"/>
<path d="M77.2199 50.2799C77.1599 49.2999 77.1599 48.3199 77.0699 47.3399C76.5399 41.8699 76.0099 36.3899 75.4699 30.9199C75.0399 26.6199 74.6199 22.3299 74.1899 18.0299C74.2799 18.0299 74.3599 18.0299 74.4499 18.0099C74.2399 15.2699 74.0699 12.5199 73.8099 9.77995C73.6799 8.41995 73.4699 7.03995 73.1099 5.71995C72.7499 4.35995 71.9399 3.22995 70.6599 2.52995C69.7899 2.05995 68.7199 2.20995 68.2599 2.90995C66.9799 4.84995 66.2399 6.79995 67.0299 9.26995C68.1399 12.7199 68.9899 16.2499 69.3899 19.8799C69.5799 21.5399 69.9599 23.1799 70.2599 24.8099C70.6199 26.8299 71.1099 28.8499 71.3699 30.8899C71.8399 34.7799 72.1099 38.7199 72.5399 42.6099C73.1399 48.0799 73.7699 53.5399 74.4099 59.0099C74.4999 59.6699 74.7299 60.3499 75.0299 60.9499C75.1799 61.2299 75.6899 61.4999 75.9899 61.4599C76.4199 61.3699 76.7999 61.0299 77.1599 60.7399C77.2899 60.6299 77.3099 60.3799 77.3299 60.1899C77.7299 57.7699 78.3299 55.3799 77.4999 52.9199C77.2199 52.1099 77.3299 51.1799 77.2699 50.2799H77.2299H77.2199Z" fill="#1D1D1B"/>
<path d="M103.42 9.22989C102.31 7.88989 100.74 7.97989 99.9997 9.48989C99.5097 10.4899 99.0597 11.5699 98.8297 12.6599C97.8297 17.2799 97.5497 21.9799 97.4097 26.6799V33.4599C97.4097 34.5199 98.1297 35.1999 99.1797 35.2899C100.5 35.3999 101.5 34.7999 101.56 33.4799C101.75 30.3499 103.3 27.5499 103.54 24.3999C103.8 21.1199 104.96 17.9999 105.16 14.6799C105.29 12.5099 104.76 10.8099 103.46 9.20989L103.44 9.22989H103.42Z" fill="#1D1D1B"/>
<path d="M97.8098 40.9401C96.8998 41.1301 96.7498 41.9601 96.6398 42.6801C96.3198 45.0001 96.1298 45.3401 95.9598 47.6801C95.7698 50.4901 95.6998 53.2901 95.3198 56.1001C94.9598 58.6901 94.8898 61.3301 94.7198 63.9501C94.6998 64.3101 94.7198 64.7201 94.8498 65.0601C95.1098 65.7401 95.6798 66.0601 96.3798 66.1001C97.0798 66.1401 97.7798 65.7801 97.9998 65.2101C98.1298 64.8701 98.1898 64.4901 98.2298 64.1301C98.7398 60.4901 99.2298 56.8801 99.7798 53.2401C100.21 50.3701 100.55 49.5001 100.99 46.6001C101.05 46.1301 101.12 45.6601 101.16 45.4701C101.25 43.9401 100.25 43.1901 99.7098 42.2201C99.3098 41.4501 98.8198 40.7101 97.7698 40.9401H97.7898H97.8098Z" fill="#1D1D1B"/>
<path d="M55.3798 51.58C53.9598 48.18 52.5498 44.77 50.9998 41.41C48.2998 35.6 45.7698 29.73 44.0198 23.57C43.9298 23.25 43.5298 22.87 43.2098 22.8C42.8898 22.73 42.4398 22.97 42.1498 23.2C41.9198 23.39 41.7898 23.73 41.6598 24.03C41.0398 25.45 40.4698 26.9 39.8698 28.33C39.5898 29.01 39.1898 29.56 38.5698 30.12C38.2698 29.74 38.0398 29.5 37.8898 29.23C35.0398 23.87 32.2098 18.53 29.3598 13.17C27.5098 9.70004 25.6998 6.22004 23.8098 2.75004C23.3798 1.98004 22.7898 1.26004 22.1698 0.640041C21.4898 -0.0199587 20.5698 -0.149959 19.6398 0.150041C18.4698 0.530041 17.3198 0.940041 16.1498 1.32004C15.6398 1.49004 15.2798 1.85004 15.2798 2.38004C15.2798 2.91004 15.2798 3.55004 15.5398 4.04004C16.2598 5.51004 17.0698 6.95004 17.8998 8.36004C19.6898 11.4 21.5398 14.4 23.3398 17.42C23.9798 18.48 24.4698 19.61 25.1498 20.63C26.3398 22.42 27.3598 24.27 28.0398 26.31C28.2998 27.08 28.7398 27.78 29.1698 28.48C29.9798 29.82 30.8698 31.07 31.6398 32.44C33.5498 35.89 35.5098 39.31 37.9398 42.41C38.3898 42.98 38.8998 43.35 39.5998 43.26C40.3398 43.17 40.6598 42.56 40.8998 41.92C41.2798 40.92 41.6398 39.92 42.0498 38.94C42.1998 38.6 42.3898 38.17 43.0898 38.32C43.4098 38.85 43.7898 39.47 44.1098 40.13C44.7298 41.36 45.1498 42.75 45.9598 43.85C47.7498 46.32 49.0698 49.04 50.6398 51.61C52.1498 54.06 53.3998 56.65 55.2598 58.86C55.8298 59.54 56.3398 60.31 56.7898 61.07C57.6398 62.47 58.4298 63.9 59.2598 65.32C59.8798 66.38 60.5398 67.43 61.1298 68.51C61.9598 70.02 62.7498 71.55 63.5498 73.08C63.7798 73.53 64.0598 73.95 64.6798 73.72C63.7898 71.51 62.8498 69.34 61.9398 67.15C59.7698 61.92 57.5998 56.69 55.4098 51.48L55.3898 51.57L55.3798 51.58Z" fill="#1D1D1B"/>
<path d="M38.7299 96.4099C42.5799 95.2199 45.1099 96.4999 47.3199 98.8299C47.8699 99.4299 48.3199 100.23 49.0199 100.57C51.1699 101.65 51.7799 103.48 51.7799 105.65C51.7799 107.82 51.7799 110.01 51.5699 112.18C50.9099 118.96 50.1899 125.75 49.3999 132.53C48.7999 137.68 48.0599 142.8 47.3599 147.93C47.1699 149.25 45.6999 150.67 44.3999 150.93C43.9699 151.02 42.8699 150.4 41.5899 149.29C41.2099 149.55 40.7799 149.86 40.3399 150.12C39.8699 150.38 39.3799 150.59 38.6999 150.93C38.3199 150.29 37.7899 149.76 37.7399 149.21C37.6299 148.13 37.7399 147.02 37.8499 145.93C38.3599 141.87 39.0999 137.83 39.3599 133.76C39.5699 130.38 39.1899 126.95 39.0799 123.53C38.1699 123.27 37.9699 124 37.7399 124.57C35.6099 130.04 33.4899 135.5 31.3799 140.99C31.0399 141.88 30.6399 142.76 30.3599 143.67C29.7399 145.86 28.4499 147.24 26.0899 147.43C25.3199 149.09 24.8999 150.88 22.8099 151.39C20.8999 151.86 19.9799 151.75 19.0899 150.01C18.0299 147.95 17.1099 145.82 16.2599 143.67C15.4899 141.78 14.9399 139.8 14.2399 137.89C14.0299 137.32 13.5599 136.83 12.8799 135.81C12.6199 137.47 12.4299 138.51 12.3099 139.57C11.7399 144.44 11.4199 149.35 10.1199 154.12C9.85989 155.03 9.94989 156.01 9.85989 156.97C9.66989 159.01 8.89989 160.65 6.45989 161.44C5.90989 161.23 5.03989 160.95 4.22989 160.59C3.37989 160.21 2.54989 159.74 1.52989 159.21C1.46989 158.19 1.37989 157.13 1.29989 156.06C1.23989 155.25 1.48989 154.23 1.06989 153.68C-0.140111 152.08 -0.0101113 150.32 0.0498887 148.58C0.199889 144.22 0.409889 139.86 0.749889 135.5C1.38989 127.33 2.12989 119.19 2.85989 111.02C3.04989 108.98 3.28989 106.96 3.62989 104.94C3.73989 104.3 4.11989 103.66 4.49989 103.13C5.00989 102.41 5.83989 103.13 6.30989 102.94C10.5399 101.34 13.6099 103.88 16.6899 105.92C17.6899 106.58 18.2199 108.13 18.6699 109.37C20.8199 115.43 22.3499 121.64 23.6899 127.94C23.8799 128.81 24.1799 129.66 24.5999 131.09C25.2199 130.24 25.5999 129.88 25.7499 129.45C26.7299 126.62 27.5799 123.73 28.6199 120.92C30.9199 114.79 33.2799 108.67 35.7199 102.61C36.5699 100.48 37.7599 98.4599 38.7799 96.4399L38.7399 96.4199L38.7299 96.4099ZM4.45989 120.68H4.24989C4.26989 121.38 4.28989 122.08 4.30989 122.81H4.51989L4.45989 120.68ZM3.64989 128.4H3.83989C3.83989 127.78 3.79989 127.17 3.77989 126.55H3.58989C3.58989 127.17 3.62989 127.78 3.64989 128.4ZM2.35989 139.27H2.54989C2.56989 139.04 2.63989 138.8 2.63989 138.57C2.63989 138.4 2.50989 138.25 2.44989 138.08L2.35989 139.25V139.27ZM3.01989 133.65C3.14989 133.35 3.29989 133.16 3.27989 133.01C3.23989 132.78 3.08989 132.58 2.97989 132.35L3.01989 133.65ZM5.07989 114.81H4.86989C4.86989 115.32 4.90989 115.81 4.90989 116.3H5.11989L5.07989 114.81ZM1.81989 145.27V145.91C1.81989 145.91 1.96989 145.74 1.98989 145.65C2.00989 145.54 1.98989 145.42 1.98989 145.33C1.98989 145.29 1.85989 145.29 1.81989 145.27ZM101.57 126.42C95.1499 123.74 95.9299 123.95 92.7399 120.02C92.9999 118.83 93.7599 118.17 94.8899 117.81C98.1399 116.81 101.38 115.73 104.67 114.83C107.73 114 109.94 115.06 111.48 117.74C112.29 119.16 113.27 120.48 114.03 121.93C114.73 123.25 115.33 124.63 115.84 126.03C116.18 126.97 115.99 127.82 115.18 128.62C114.44 129.36 113.8 130.32 113.44 131.3C111.04 137.53 106.27 141.06 100.17 143.02C94.3599 144.89 88.7899 143.89 83.5799 141.04C82.3699 140.38 81.3299 139.02 80.6899 137.74C78.6499 133.7 77.2699 129.38 77.2199 124.81C77.1299 115.66 79.0499 106.88 83.0699 98.6699C84.6199 95.5199 86.7299 92.5899 88.9399 89.8199C94.2799 83.1599 104.51 83.1599 109.89 87.9699C110.91 88.8799 112.08 89.6099 113.06 90.5399C114.83 92.1999 115.89 94.0499 115.4 96.7099C114.72 100.33 114.34 103.98 113.83 107.6C112.43 108.56 111.24 109.41 109.98 110.22C109.66 110.43 109.15 110.67 108.87 110.56C106.87 109.75 105.17 111.07 103.26 111.16C101.9 110.67 101.09 109.8 101.11 108.18C101.2 104.22 101.15 100.27 101.2 96.3099C101.22 94.5699 101.33 92.7999 101.43 90.5699C100.45 91.0999 99.7299 91.2699 99.4099 91.7199C98.3499 93.2899 97.4099 94.9499 96.4499 96.6099C92.6399 103.16 91.0299 110.2 91.2999 117.79C91.4699 122.43 91.1699 127.06 91.1099 131.7C91.1099 132.78 91.1699 133.85 91.2199 135.23C92.1599 135 92.8399 134.95 93.3699 134.66C96.6199 132.81 99.2599 130.26 101.45 127.26C101.58 127.07 101.54 126.75 101.58 126.49V126.4L101.57 126.42ZM79.8399 118.77H79.7299C79.7299 119.09 79.7299 119.41 79.7499 119.73H79.8599V118.79L79.8399 118.77ZM146.3 115.96C144.73 115.49 143.45 116.11 142.66 116.85C140.75 118.7 138.3 119 135.98 119.68C135.19 119.91 134.41 120.04 133.41 120.28C133.18 121.17 132.86 122.05 132.69 122.96C132.07 126.32 131.54 129.68 130.88 133.04C130.54 134.78 130.45 134.76 128.69 136.55C127.65 135.66 126.63 134.81 124.93 135.15C124.1 135.32 123.02 134.32 121.85 133.75C121.89 132.22 121.96 130.6 122 128.99C122.19 120.25 122.38 111.53 122.53 102.79C122.55 100.9 122.27 98.9799 122.32 97.0699C122.41 92.8399 122.55 88.6299 122.83 84.3899C122.92 83.1999 123.38 82.0099 123.85 80.8999C124 80.5599 124.68 80.3499 125.15 80.2999C125.32 80.2999 125.72 80.8999 125.75 81.2099C125.75 81.9299 125.6 82.6799 125.81 83.4899C126.24 82.2799 126.66 81.0399 127.04 79.9199C129.19 79.6199 130.89 79.9799 132.42 81.2599C133.14 81.8599 134.02 82.3399 134.91 82.6199C136.82 83.2199 137.38 84.5799 137.38 86.3799C137.38 90.3599 137.06 94.2699 136.36 98.1799C135.87 100.86 135.47 103.56 135.08 106.26C134.97 107.03 135.12 107.83 135.14 108.92C139.39 107.73 143.26 106.2 147.28 104.35C147.34 102.56 147.41 100.82 147.45 99.0499C147.6 93.8599 147.68 88.6699 147.92 83.4999C148.01 81.8799 148.43 80.2699 148.92 78.7099C149.54 76.7999 152.3 75.4299 154.26 76.0699C154.96 76.2999 155.68 76.9199 156.07 77.5599C156.81 78.7899 157.6 79.6899 159.13 79.9599C160.34 80.1699 160.81 81.2999 160.92 82.4499C161.09 84.4899 161.35 86.5299 161.26 88.5799C161.13 91.4299 160.71 94.2799 160.39 97.1099C160.2 98.7499 159.9 100.36 159.79 101.98C159.73 103.04 159.9 104.11 159.98 105.21C161.36 105.87 162.62 106.38 163.77 107.06C164.83 107.7 164.73 109.14 163.58 109.7C162.47 110.23 161.35 110.76 160.18 111.1C158.2 111.67 157.39 113.04 157.12 114.97C156.67 118.35 156.14 121.73 155.57 125.09C155.12 127.64 154.57 130.19 153.19 132.45C152.55 133.51 151.87 134.53 150.36 134.73C148.02 133.62 148.87 131.26 148.42 129.2C146.74 128.56 146.19 127.31 146.42 125.41C146.72 122.99 146.7 120.5 146.7 118.05C146.7 117.28 146.38 116.54 146.23 115.88L146.32 115.94L146.3 115.96ZM150.77 82.2499C149.62 82.9099 149.66 83.8699 149.98 84.7799C150.21 83.9899 150.49 83.1199 150.77 82.2299C150.77 81.8499 150.81 81.4599 150.77 81.0999C150.73 80.7199 151.24 80.1899 150.32 79.8899C150.49 80.7799 150.62 81.5099 150.75 82.2499H150.77ZM181.63 129.38C180.97 128.87 180.48 128.23 179.86 128.1C177.03 127.46 176.33 125.38 176.29 122.93C176.25 120.21 176.35 117.46 176.5 114.74C177.05 104.51 177.65 94.2799 178.2 84.0499C178.2 83.6699 178.09 83.2599 177.99 82.5799C175.84 82.2199 173.76 83.4699 171.63 83.0699C169.63 82.6899 167.65 82.2599 165.76 81.8799C164.85 79.6299 164.04 77.6499 163.14 75.4999C163.84 74.9299 164.48 74.1799 165.29 73.7599C166.61 73.0599 167.99 72.3599 169.42 72.0199C178.31 69.8899 187.24 67.8699 196.15 65.8299C198.45 65.2999 200.49 65.5099 201.7 67.9599C201.89 68.3399 202.55 68.5099 203 68.7499C203.83 69.1999 204.7 69.5799 205.51 70.0899C206.02 70.4299 205.94 71.5799 205.38 71.8799C204.55 72.3299 203.64 72.6499 202.81 73.1299C202.38 73.3899 201.81 73.8099 201.77 74.2099C201.6 75.7599 200.52 76.2099 199.3 76.5699C196.71 77.3599 194.11 78.1199 191.47 78.8899C191.34 79.6099 191.11 80.1199 191.15 80.6299C191.68 88.0299 190.64 95.3699 190 102.71C189.51 108.28 188.85 113.81 188.21 119.36C188 121.23 187.36 123.02 187.49 124.97C187.6 126.82 186.21 127.91 184.66 128.61C183.81 128.99 182.81 129.08 181.58 129.38H181.62H181.63ZM179.71 87.3299H179.54C179.5 88.2399 179.48 89.1399 179.43 90.0299H179.77C179.75 89.1399 179.71 88.2199 179.68 87.3299H179.7H179.71ZM179.18 93.7299H179.01L179.05 95.2799H179.22C179.22 94.7699 179.18 94.2399 179.18 93.7299ZM178.61 101.96H178.48C178.48 102.22 178.44 102.47 178.44 102.73C178.44 102.99 178.48 103.24 178.5 103.5C178.54 103.29 178.63 103.1 178.63 102.88C178.63 102.58 178.63 102.26 178.61 101.97V101.96ZM180.24 83.0799L180.41 82.8499L180.18 82.7899L180.24 83.0899V83.0799ZM223.55 81.1799C224.34 79.5399 224.72 78.8399 225 78.0999C226.04 75.2899 226.98 72.4199 228.11 69.6599C229.09 67.2599 230.13 64.8699 231.39 62.6199C233.07 59.6399 236.71 59.0899 239.37 61.2199C240.31 61.9899 241.24 62.7499 242.26 63.5999C242.71 64.9999 242.37 66.4299 241.96 67.8999C240.81 72.0299 238.94 75.8099 236.75 79.4499C233.86 84.2599 231.35 89.2499 229.22 94.4399C228.6 95.9299 228.16 97.5499 227.92 99.1399C226.92 105.75 226.01 112.37 225.09 119C224.92 120.23 224.73 121.38 223.71 122.3C222.41 123.45 221.54 123.6 220.18 122.39C218.88 121.24 217.52 120.24 215.59 119.45C215.57 118.58 215.53 117.49 215.48 116.43C215.27 108.92 215.08 101.41 214.82 93.9099C214.78 92.8299 214.59 91.7399 214.31 90.6799C212.46 83.5599 210.57 76.4299 208.7 69.3099C208.4 68.1399 208.21 66.9499 208.02 66.0799C208.66 64.9699 209.91 66.0999 210.13 64.8899C210.32 63.8499 210.96 63.1699 211.96 62.8899C212.58 62.7199 213.26 62.6599 213.87 62.7599C214.38 62.8499 214.87 63.5299 215.29 63.4599C217.95 62.9499 218.63 64.7999 219.18 66.6699C220.29 70.3299 221.24 74.0099 222.31 77.6899C222.57 78.5599 222.93 79.4099 223.56 81.1999L223.55 81.1799ZM217.12 99.2199H216.97C216.97 99.7299 217.01 100.24 217.03 101.07C217.07 100.22 217.09 99.7099 217.12 99.1999V99.2199ZM61.7799 96.2599C62.1199 96.0499 62.6699 95.8799 62.7399 95.6199C63.2299 93.3199 64.7999 92.5599 66.9499 92.5799C67.4799 92.5799 68.0299 92.5399 68.4999 92.5399C73.3099 96.6699 74.0499 100.39 71.1399 105.24C71.4799 105.98 72.2499 106.88 72.0299 107.39C71.1399 109.62 71.4999 111.96 71.1999 114.24C70.3699 120.58 69.7099 126.96 69.0699 133.32C68.8999 135.06 69.2199 136.89 68.9199 138.62C68.4499 141.3 67.7299 143.94 66.9799 146.55C66.7699 147.27 66.1699 147.95 65.6399 148.53C64.9599 149.23 63.8499 149.13 63.1299 148.38C62.6599 147.89 62.3599 147.19 61.8099 146.85C61.0199 146.36 60.1099 146.11 59.0499 145.68C58.8199 144 59.3099 141.87 57.2599 140.77C57.0699 139.56 56.7499 138.37 56.7099 137.15C56.6499 135.11 56.6899 133.05 56.8199 131.02C57.5199 120.28 58.0099 109.52 59.8399 98.8599C60.1199 97.2899 60.2699 95.6899 61.4399 94.4099C62.3299 95.0499 61.9299 95.7099 61.7799 96.3199C61.7999 96.9599 61.8199 97.5999 61.8399 98.2099H62.0499C61.9599 97.5699 61.8799 96.9299 61.7699 96.2999V96.2599H61.7799ZM59.6499 127.21C59.2899 127.59 58.7099 127.91 58.6299 128.34C58.2899 129.91 58.4599 131.49 58.7999 133.08C59.0299 131.74 59.0099 130.42 59.1199 129.08C59.1599 128.44 59.4599 127.83 59.6299 127.19C59.6499 126.13 59.7199 125.04 59.6899 123.98C59.6699 123.19 59.5199 122.43 59.3299 120.94C58.6499 123.6 58.8199 125.43 59.6499 127.21ZM60.4399 111.05H60.6999C60.6799 110.14 60.6399 109.24 60.6099 108.33H60.3499C60.3699 109.24 60.4099 110.14 60.4399 111.05ZM59.8399 117.83H60.1399L60.0299 114.79H59.7299C59.7699 115.81 59.7899 116.81 59.8399 117.83ZM61.0999 103.15V103.83C61.0999 103.83 61.2699 103.64 61.2899 103.55C61.3099 103.44 61.2899 103.32 61.2899 103.19C61.2899 103.15 61.1599 103.15 61.1199 103.13L61.0999 103.15Z" fill="#1D1D1B"/>
<path d="M250.031 52.4653L247.378 52.902L247.441 51.2864L254.664 50.0971L254.601 51.7127L251.961 52.1475L251.718 59.0952L249.8 59.411L250.031 52.4653ZM265.026 48.3909L264.745 56.9503L262.945 57.2467L263.105 52.1611L260.61 56.7311L259.758 56.8715L257.378 53.0554L257.202 58.1922L255.403 58.4885L255.696 49.9272L257.259 49.6699L260.181 54.4912L263.38 48.6619L265.026 48.3909Z" fill="#1D1D1B"/>
<path d="M250.031 52.4653L247.378 52.902L247.441 51.2864L254.664 50.0971L254.601 51.7127L251.961 52.1475L251.718 59.0952L249.8 59.411L250.031 52.4653ZM265.026 48.3909L264.745 56.9503L262.945 57.2467L263.105 52.1611L260.61 56.7311L259.758 56.8715L257.378 53.0554L257.202 58.1922L255.403 58.4885L255.696 49.9272L257.259 49.6699L260.181 54.4912L263.38 48.6619L265.026 48.3909Z" fill="#1D1D1B"/>
</g>
<defs>
<clipPath id="clip0_3416_9765">
<rect width="261.16" height="161.45" fill="white"/>
</clipPath>
</defs>
</svg>
