<svg width="262" height="111" viewBox="0 0 262 111" fill="none" xmlns="http://www.w3.org/2000/svg">
<g clip-path="url(#clip0_3416_9781)">
<path d="M38.73 45.8601C42.58 44.6701 45.11 45.9501 47.32 48.2801C47.87 48.8801 48.32 49.6801 49.02 50.0201C51.17 51.1001 51.78 52.9301 51.78 55.1001C51.78 57.2701 51.78 59.4601 51.57 61.6301C50.91 68.4101 50.19 75.2001 49.4 81.9801C48.8 87.1301 48.06 92.2501 47.36 97.3801C47.17 98.7001 45.7 100.12 44.4 100.38C43.97 100.47 42.87 99.8501 41.59 98.7401C41.21 99.0001 40.78 99.3101 40.34 99.5701C39.87 99.8301 39.38 100.04 38.7 100.38C38.32 99.7401 37.79 99.2101 37.74 98.6601C37.63 97.5801 37.74 96.4701 37.85 95.3801C38.36 91.3201 39.1 87.2801 39.36 83.2101C39.57 79.8301 39.19 76.4001 39.08 72.9801C38.17 72.7201 37.97 73.4501 37.74 74.0201C35.61 79.4901 33.49 84.9501 31.38 90.4401C31.04 91.3301 30.64 92.2101 30.36 93.1201C29.74 95.3101 28.45 96.6901 26.09 96.8801C25.32 98.5401 24.9 100.33 22.81 100.84C20.9 101.31 19.98 101.2 19.09 99.4601C18.03 97.4001 17.11 95.2701 16.26 93.1201C15.49 91.2301 14.94 89.2501 14.24 87.3401C14.03 86.7701 13.56 86.2801 12.88 85.2601C12.62 86.9201 12.43 87.9601 12.31 89.0201C11.74 93.8901 11.42 98.8001 10.12 103.57C9.86 104.48 9.95 105.46 9.86 106.42C9.67 108.46 8.9 110.1 6.46 110.89C5.91 110.68 5.04 110.4 4.23 110.04C3.38 109.66 2.55 109.19 1.53 108.66C1.47 107.64 1.38 106.58 1.3 105.51C1.24 104.7 1.49 103.68 1.07 103.13C-0.139997 101.53 -0.00999688 99.7701 0.0500031 98.0301C0.200003 93.6701 0.410003 89.3101 0.750003 84.9501C1.39 76.7801 2.13 68.6401 2.86 60.4701C3.05 58.4301 3.29 56.4101 3.63 54.3901C3.74 53.7501 4.12 53.1101 4.5 52.5801C5.01 51.8601 5.84 52.5801 6.31 52.3901C10.54 50.7901 13.61 53.3301 16.69 55.3701C17.69 56.0301 18.22 57.5801 18.67 58.8201C20.82 64.8801 22.35 71.0901 23.69 77.3901C23.88 78.2601 24.18 79.1101 24.6 80.5401C25.22 79.6901 25.6 79.3301 25.75 78.9001C26.73 76.0701 27.58 73.1801 28.62 70.3701C30.92 64.2401 33.28 58.1201 35.72 52.0601C36.57 49.9301 37.76 47.9101 38.78 45.8901L38.74 45.8701L38.73 45.8601ZM4.46 70.1201H4.25C4.27 70.8201 4.29 71.5201 4.31 72.2501H4.52L4.46 70.1201ZM3.65 77.8401H3.84C3.84 77.2201 3.8 76.6101 3.78 75.9901H3.59C3.59 76.6101 3.63 77.2201 3.65 77.8401ZM2.36 88.7101H2.55C2.57 88.4801 2.64 88.2401 2.64 88.0101C2.64 87.8401 2.51 87.6901 2.45 87.5201L2.36 88.6901V88.7101ZM3.02 83.1001C3.15 82.8001 3.3 82.6101 3.28 82.4601C3.24 82.2301 3.09 82.0301 2.98 81.8001L3.02 83.1001ZM5.08 64.2501H4.87C4.87 64.7601 4.91 65.2501 4.91 65.7401H5.12L5.08 64.2501ZM1.82 94.7101V95.3501C1.82 95.3501 1.97 95.1801 1.99 95.0901C2.01 94.9801 1.99 94.8601 1.99 94.7701C1.99 94.7301 1.86 94.7301 1.82 94.7101ZM101.57 75.8601C95.15 73.1801 95.93 73.3901 92.74 69.4601C93 68.2701 93.76 67.6101 94.89 67.2501C98.14 66.2501 101.38 65.1701 104.67 64.2701C107.73 63.4401 109.94 64.5001 111.48 67.1801C112.29 68.6001 113.27 69.9201 114.03 71.3701C114.73 72.6901 115.33 74.0701 115.84 75.4701C116.18 76.4101 115.99 77.2601 115.18 78.0601C114.44 78.8001 113.8 79.7601 113.44 80.7401C111.04 86.9701 106.27 90.5001 100.17 92.4601C94.36 94.3301 88.79 93.3301 83.58 90.4801C82.37 89.8201 81.33 88.4601 80.69 87.1801C78.65 83.1401 77.27 78.8201 77.22 74.2501C77.13 65.1001 79.05 56.3201 83.07 48.1101C84.62 44.9601 86.73 42.0301 88.94 39.2601C94.28 32.6001 104.51 32.6001 109.89 37.4101C110.91 38.3201 112.08 39.0501 113.06 39.9801C114.83 41.6401 115.89 43.4901 115.4 46.1501C114.72 49.7701 114.34 53.4201 113.83 57.0401C112.43 58.0001 111.24 58.8501 109.98 59.6601C109.66 59.8701 109.15 60.1101 108.87 60.0001C106.87 59.1901 105.17 60.5101 103.26 60.6001C101.9 60.1101 101.09 59.2401 101.11 57.6201C101.2 53.6601 101.15 49.7101 101.2 45.7501C101.22 44.0101 101.33 42.2401 101.43 40.0101C100.45 40.5401 99.73 40.7101 99.41 41.1601C98.35 42.7301 97.41 44.3901 96.45 46.0501C92.64 52.6001 91.03 59.6401 91.3 67.2301C91.47 71.8701 91.17 76.5001 91.11 81.1401C91.11 82.2201 91.17 83.2901 91.22 84.6701C92.16 84.4401 92.84 84.3901 93.37 84.1001C96.62 82.2501 99.26 79.7001 101.45 76.7001C101.58 76.5101 101.54 76.1901 101.58 75.9301V75.8401L101.57 75.8601ZM79.84 68.2101H79.73C79.73 68.5301 79.73 68.8501 79.75 69.1701H79.86V68.2301L79.84 68.2101ZM146.3 65.4001C144.73 64.9301 143.45 65.5501 142.66 66.2901C140.75 68.1401 138.3 68.4401 135.98 69.1201C135.19 69.3501 134.41 69.4801 133.41 69.7201C133.18 70.6101 132.86 71.4901 132.69 72.4001C132.07 75.7601 131.54 79.1201 130.88 82.4801C130.54 84.2201 130.45 84.2001 128.69 85.9901C127.65 85.1001 126.63 84.2501 124.93 84.5901C124.1 84.7601 123.02 83.7601 121.85 83.1901C121.89 81.6601 121.96 80.0401 122 78.4301C122.19 69.6901 122.38 60.9701 122.53 52.2301C122.55 50.3401 122.27 48.4201 122.32 46.5101C122.41 42.2801 122.55 38.0701 122.83 33.8301C122.92 32.6401 123.38 31.4501 123.85 30.3401C124 30.0001 124.68 29.7901 125.15 29.7401C125.32 29.7401 125.72 30.3401 125.75 30.6501C125.75 31.3701 125.6 32.1201 125.81 32.9301C126.24 31.7201 126.66 30.4801 127.04 29.3601C129.19 29.0601 130.89 29.4201 132.42 30.7001C133.14 31.3001 134.02 31.7801 134.91 32.0601C136.82 32.6601 137.38 34.0201 137.38 35.8201C137.38 39.8001 137.06 43.7101 136.36 47.6201C135.87 50.3001 135.47 53.0001 135.08 55.7001C134.97 56.4701 135.12 57.2701 135.14 58.3601C139.39 57.1701 143.26 55.6401 147.28 53.7901C147.34 52.0001 147.41 50.2601 147.45 48.4901C147.6 43.3001 147.68 38.1101 147.92 32.9401C148.01 31.3201 148.43 29.7101 148.92 28.1501C149.54 26.2401 152.3 24.8701 154.26 25.5101C154.96 25.7401 155.68 26.3601 156.07 27.0001C156.81 28.2301 157.6 29.1301 159.13 29.4001C160.34 29.6101 160.81 30.7401 160.92 31.8901C161.09 33.9301 161.35 35.9701 161.26 38.0201C161.13 40.8701 160.71 43.7201 160.39 46.5501C160.2 48.1901 159.9 49.8001 159.79 51.4201C159.73 52.4801 159.9 53.5501 159.98 54.6501C161.36 55.3101 162.62 55.8201 163.77 56.5001C164.83 57.1401 164.73 58.5801 163.58 59.1401C162.47 59.6701 161.35 60.2001 160.18 60.5401C158.2 61.1101 157.39 62.4801 157.12 64.4101C156.67 67.7901 156.14 71.1701 155.57 74.5301C155.12 77.0801 154.57 79.6301 153.19 81.8901C152.55 82.9501 151.87 83.9701 150.36 84.1701C148.02 83.0601 148.87 80.7001 148.42 78.6401C146.74 78.0001 146.19 76.7501 146.42 74.8501C146.72 72.4301 146.7 69.9401 146.7 67.4901C146.7 66.7201 146.38 65.9801 146.23 65.3201L146.32 65.3801L146.3 65.4001ZM150.77 31.6901C149.62 32.3501 149.66 33.3101 149.98 34.2201C150.21 33.4301 150.49 32.5601 150.77 31.6701C150.77 31.2901 150.81 30.9001 150.77 30.5401C150.73 30.1601 151.24 29.6301 150.32 29.3301C150.49 30.2201 150.62 30.9501 150.75 31.6901H150.77ZM181.63 78.8201C180.97 78.3101 180.48 77.6701 179.86 77.5401C177.03 76.9001 176.33 74.8201 176.29 72.3701C176.25 69.6501 176.35 66.9001 176.5 64.1801C177.05 53.9501 177.65 43.7201 178.2 33.4901C178.2 33.1101 178.09 32.7001 177.99 32.0201C175.84 31.6601 173.76 32.9101 171.63 32.5101C169.63 32.1301 167.65 31.7001 165.76 31.3201C164.85 29.0701 164.04 27.0901 163.14 24.9401C163.84 24.3701 164.48 23.6201 165.29 23.2001C166.61 22.5001 167.99 21.8001 169.42 21.4601C178.31 19.3301 187.24 17.3101 196.15 15.2701C198.45 14.7401 200.49 14.9501 201.7 17.4001C201.89 17.7801 202.55 17.9501 203 18.1901C203.83 18.6401 204.7 19.0201 205.51 19.5301C206.02 19.8701 205.94 21.0201 205.38 21.3201C204.55 21.7701 203.64 22.0901 202.81 22.5701C202.38 22.8301 201.81 23.2501 201.77 23.6501C201.6 25.2001 200.52 25.6501 199.3 26.0101C196.71 26.8001 194.11 27.5601 191.47 28.3301C191.34 29.0501 191.11 29.5601 191.15 30.0701C191.68 37.4701 190.64 44.8101 190 52.1501C189.51 57.7201 188.85 63.2501 188.21 68.8001C188 70.6701 187.36 72.4601 187.49 74.4101C187.6 76.2601 186.21 77.3501 184.66 78.0501C183.81 78.4301 182.81 78.5201 181.58 78.8201H181.62H181.63ZM179.71 36.7701H179.54C179.5 37.6801 179.48 38.5801 179.43 39.4701H179.77C179.75 38.5801 179.71 37.6601 179.68 36.7701H179.7H179.71ZM179.18 43.1801H179.01L179.05 44.7301H179.22C179.22 44.2201 179.18 43.6901 179.18 43.1801ZM178.61 51.4101H178.48C178.48 51.6701 178.44 51.9201 178.44 52.1801C178.44 52.4401 178.48 52.6901 178.5 52.9501C178.54 52.7401 178.63 52.5501 178.63 52.3301C178.63 52.0301 178.63 51.7101 178.61 51.4201V51.4101ZM180.24 32.5201L180.41 32.2901L180.18 32.2301L180.24 32.5301V32.5201ZM223.55 30.6301C224.34 28.9901 224.72 28.2901 225 27.5501C226.04 24.7401 226.98 21.8701 228.11 19.1101C229.09 16.7101 230.13 14.3201 231.39 12.0701C233.07 9.09007 236.71 8.54007 239.37 10.6701C240.31 11.4401 241.24 12.2001 242.26 13.0501C242.71 14.4501 242.37 15.8801 241.96 17.3501C240.81 21.4801 238.94 25.2601 236.75 28.9001C233.86 33.7101 231.35 38.7001 229.22 43.8901C228.6 45.3801 228.16 47.0001 227.92 48.5901C226.92 55.2001 226.01 61.8201 225.09 68.4501C224.92 69.6801 224.73 70.8301 223.71 71.7501C222.41 72.9001 221.54 73.0501 220.18 71.8401C218.88 70.6901 217.52 69.6901 215.59 68.9001C215.57 68.0301 215.53 66.9401 215.48 65.8801C215.27 58.3701 215.08 50.8601 214.82 43.3601C214.78 42.2801 214.59 41.1901 214.31 40.1301C212.46 33.0101 210.57 25.8801 208.7 18.7601C208.4 17.5901 208.21 16.4001 208.02 15.5301C208.66 14.4201 209.91 15.5501 210.13 14.3401C210.32 13.3001 210.96 12.6201 211.96 12.3401C212.58 12.1701 213.26 12.1101 213.87 12.2101C214.38 12.3001 214.87 12.9801 215.29 12.9101C217.95 12.4001 218.63 14.2501 219.18 16.1201C220.29 19.7801 221.24 23.4601 222.31 27.1401C222.57 28.0101 222.93 28.8601 223.56 30.6501L223.55 30.6301ZM217.12 48.6601H216.97C216.97 49.1701 217.01 49.6801 217.03 50.5101C217.07 49.6601 217.09 49.1501 217.12 48.6401V48.6601ZM61.78 45.7101C62.12 45.5001 62.67 45.3301 62.74 45.0701C63.23 42.7701 64.8 42.0101 66.95 42.0301C67.48 42.0301 68.03 41.9901 68.5 41.9901C73.31 46.1201 74.05 49.8401 71.14 54.6901C71.48 55.4301 72.25 56.3301 72.03 56.8401C71.14 59.0701 71.5 61.4101 71.2 63.6901C70.37 70.0301 69.71 76.4101 69.07 82.7701C68.9 84.5101 69.22 86.3401 68.92 88.0701C68.45 90.7501 67.73 93.3901 66.98 96.0001C66.77 96.7201 66.17 97.4001 65.64 97.9801C64.96 98.6801 63.85 98.5801 63.13 97.8301C62.66 97.3401 62.36 96.6401 61.81 96.3001C61.02 95.8101 60.11 95.5601 59.05 95.1301C58.82 93.4501 59.31 91.3201 57.26 90.2201C57.07 89.0101 56.75 87.8201 56.71 86.6001C56.65 84.5601 56.69 82.5001 56.82 80.4701C57.52 69.7301 58.01 58.9701 59.84 48.3101C60.12 46.7401 60.27 45.1401 61.44 43.8601C62.33 44.5001 61.93 45.1601 61.78 45.7701C61.8 46.4101 61.82 47.0501 61.84 47.6601H62.05C61.96 47.0201 61.88 46.3801 61.77 45.7501V45.7101H61.78ZM59.65 76.6501C59.29 77.0301 58.71 77.3501 58.63 77.7801C58.29 79.3501 58.46 80.9301 58.8 82.5201C59.03 81.1801 59.01 79.8601 59.12 78.5201C59.16 77.8801 59.46 77.2701 59.63 76.6301C59.65 75.5701 59.72 74.4801 59.69 73.4201C59.67 72.6301 59.52 71.8701 59.33 70.3801C58.65 73.0401 58.82 74.8701 59.65 76.6501ZM60.44 60.4901H60.7C60.68 59.5801 60.64 58.6801 60.61 57.7701H60.35C60.37 58.6801 60.41 59.5801 60.44 60.4901ZM59.84 67.2701H60.14L60.03 64.2301H59.73C59.77 65.2501 59.79 66.2501 59.84 67.2701ZM61.1 52.6001V53.2801C61.1 53.2801 61.27 53.0901 61.29 53.0001C61.31 52.8901 61.29 52.7701 61.29 52.6401C61.29 52.6001 61.16 52.6001 61.12 52.5801L61.1 52.6001Z" fill="#1D1D1B"/>
<path d="M250.031 1.91448L247.379 2.35119L247.441 0.735595L254.664 -0.453648L254.601 1.16195L251.961 1.5967L251.718 8.5444L249.8 8.86023L250.031 1.91448ZM265.026 -2.15985L264.745 6.39954L262.945 6.69588L263.105 1.61034L260.61 6.18035L259.758 6.32072L257.378 2.50462L257.203 7.64142L255.403 7.93776L255.696 -0.623581L257.259 -0.880926L260.181 3.94039L263.38 -1.88886L265.026 -2.15985Z" fill="#1D1D1B"/>
<path d="M250.031 1.91448L247.379 2.35119L247.441 0.735595L254.664 -0.453648L254.601 1.16195L251.961 1.5967L251.718 8.5444L249.8 8.86023L250.031 1.91448ZM265.026 -2.15985L264.745 6.39954L262.945 6.69588L263.105 1.61034L260.61 6.18035L259.758 6.32072L257.378 2.50462L257.203 7.64142L255.403 7.93776L255.696 -0.623581L257.259 -0.880926L260.181 3.94039L263.38 -1.88886L265.026 -2.15985Z" fill="#1D1D1B"/>
</g>
<defs>
<clipPath id="clip0_3416_9781">
<rect width="261.16" height="110.89" fill="white"/>
</clipPath>
</defs>
</svg>
