<svg width="124" height="293" viewBox="0 0 124 293" fill="none" xmlns="http://www.w3.org/2000/svg">
<g clip-path="url(#clip0_3416_10374)">
<path d="M84.2301 33.6501C83.4401 47.9501 85.4101 63.2301 92.3301 75.9701C95.7901 82.3401 100.18 88.1801 104 94.3401C105.5 96.7501 106.9 99.5701 108.08 102.43C108.35 103.1 108.62 103.78 108.87 104.46C109.02 104.87 109.17 105.28 109.31 105.69C109.07 104.98 109.36 105.87 109.42 106.04C109.93 107.64 110.37 109.26 110.75 110.89C110.92 111.63 111.08 112.37 111.23 113.11C111.33 113.58 111.42 114.04 111.51 114.51C111.31 113.48 111.6 115.02 111.61 115.09C111.91 116.81 112.17 118.54 112.39 120.27C112.84 123.88 113.07 127.51 113.31 131.15C113.42 132.88 113.53 134.61 113.64 136.35C113.57 135.12 113.66 136.76 113.67 136.89C113.69 137.22 113.71 137.55 113.73 137.88C113.79 139.04 113.86 140.19 113.92 141.35C114.11 144.98 114.28 148.61 114.43 152.25C115.04 166.88 115.35 181.51 115.59 196.15C115.79 208.63 117.13 221 117.91 233.45C117.93 233.77 118 234.77 117.91 233.5C117.94 233.92 117.96 234.35 117.98 234.77C118.02 235.48 118.05 236.18 118.08 236.89C118.15 238.58 118.21 240.26 118.24 241.95C118.3 244.98 118.27 248.01 118.12 251.03C118.11 251.32 118.14 252.67 118.12 251.21C118.12 251.47 118.08 251.76 118.06 252.01C118 252.8 117.93 253.6 117.85 254.39C117.71 255.81 117.53 257.23 117.31 258.65C117.25 259.03 117.18 259.41 117.12 259.78C116.92 261.02 117.28 259.03 117.12 259.8C116.98 260.47 116.84 261.15 116.69 261.82C116.55 262.42 116.4 263.02 116.24 263.62C116.14 263.98 116.04 264.34 115.93 264.69C115.59 265.86 116.27 263.88 115.82 264.99C115.55 265.66 115.28 266.32 114.96 266.96C114.86 267.17 114.75 267.38 114.64 267.59C114.12 268.58 115.05 267.03 114.42 267.95C113.67 269.05 112.91 270.11 111.99 271.08C110.43 272.72 107.91 274.36 105.59 275.43C100.31 277.86 94.7201 277.97 89.0301 278.26C80.7601 278.68 72.5401 279.78 64.2901 280.5C54.9601 281.31 45.5201 281.87 36.1601 281.05C28.2001 280.35 20.2401 278.85 13.8501 273.77C13.5301 273.52 13.2201 273.26 12.9201 272.99C12.7401 272.83 12.5601 272.67 12.3801 272.5C12.4601 272.58 12.8001 272.95 12.4301 272.54C11.7601 271.81 11.1001 271.11 10.5101 270.31C10.2301 269.93 9.96009 269.54 9.71009 269.15C9.56009 268.91 9.41009 268.66 9.26009 268.42C9.70009 269.16 9.35009 268.58 9.26009 268.38C8.75009 267.36 8.27009 266.34 7.88009 265.28C7.77009 264.98 7.30009 264.25 7.85009 265.22C7.76009 265.07 7.72009 264.81 7.66009 264.63C7.47009 264.03 7.31009 263.43 7.15009 262.82C7.02009 262.3 6.90009 261.79 6.78009 261.27C6.76009 261.17 6.65009 260.34 6.58009 260.32C6.71009 261.02 6.74009 261.18 6.67009 260.81C6.64009 260.65 6.61009 260.49 6.59009 260.32C6.39009 259.11 6.23009 257.89 6.10009 256.66C6.04009 256.09 5.99009 255.52 5.94009 254.95C5.91009 254.61 5.89009 254.26 5.86009 253.91C5.77009 252.8 5.92009 255.19 5.86009 253.78C5.36009 243.81 6.48009 233.87 6.57009 223.91C6.63009 217.11 6.29009 210.29 6.11009 203.5C5.91009 196.18 5.70009 188.86 5.50009 181.54C5.11009 167.24 4.40009 152.86 4.80009 138.55C4.84009 136.99 4.91009 135.43 4.99009 133.86C5.00009 133.6 5.04009 132.8 4.98009 134.03C5.00009 133.61 5.03009 133.19 5.06009 132.76C5.12009 131.92 5.18009 131.08 5.25009 130.24C5.51009 127.19 5.85009 124.16 6.31009 121.13C6.43009 120.31 6.56009 119.5 6.70009 118.68C6.75009 118.41 6.79009 118.14 6.84009 117.87C7.08009 116.5 6.63009 118.9 6.90009 117.54C7.20009 115.99 7.52009 114.45 7.88009 112.91C8.58009 109.91 9.41009 106.93 10.3801 104C10.4701 103.74 10.5501 103.48 10.6401 103.22C10.3401 104.11 10.7801 102.82 10.8101 102.75C11.0401 102.1 11.2801 101.45 11.5301 100.81C12.1201 99.2501 12.7501 97.7101 13.4301 96.1801C14.6801 93.3201 16.0801 90.5301 17.6001 87.8101C18.1301 86.8601 19.0501 85.3501 19.7901 84.1501C20.7301 82.6401 21.6301 81.1001 22.4601 79.5301C24.1201 76.4001 25.4301 73.1301 26.5501 69.7801C28.8001 63.0401 29.7901 56.0101 30.1601 48.9301C30.5301 41.8501 30.3101 34.7901 29.0601 27.9301C28.7901 26.4401 28.4901 24.9601 28.1901 23.4701C28.0801 22.9401 27.9701 22.4001 27.8701 21.8601L27.8101 21.5401C27.7101 21.0001 27.7301 21.1101 27.8701 21.8701C27.9501 21.7901 27.6801 20.7401 27.6601 20.5901C27.5801 20.0601 27.5101 19.5301 27.4501 19.0001C27.4201 18.7101 27.4401 18.3401 27.3601 18.0601C27.3801 18.1301 27.4001 19.4601 27.3901 18.5701C27.3901 18.2601 27.3701 17.9601 27.3801 17.6501C27.3801 17.0801 27.6901 16.5301 27.3501 17.8901C27.3901 17.7101 27.3901 17.4801 27.4101 17.3001C27.5801 15.9201 27.1801 17.9901 27.4301 17.1601L27.5001 16.8801C27.6101 16.5101 27.6101 16.5101 27.4801 16.8801L27.3801 17.1601C27.4501 16.9801 27.5201 16.8001 27.5901 16.6301C27.7001 16.3701 27.8301 16.1101 27.9701 15.8601C27.5601 16.6101 27.8901 16.0101 28.0301 15.8401C28.1901 15.6501 28.3201 15.4401 28.4801 15.2501C28.4801 15.2501 29.1501 14.5201 28.7601 14.9001C29.2301 14.4401 29.7901 14.0401 30.3501 13.6801C31.0701 13.2201 31.8401 12.8401 32.6401 12.5301C32.9801 12.4001 33.3301 12.2701 33.6901 12.1601C33.1501 12.3301 33.9001 12.1101 33.9501 12.0901C34.1801 12.0301 34.4201 11.9701 34.6501 11.9101C38.8701 10.9101 43.3001 10.7801 47.6101 10.8001C52.5101 10.8201 57.4101 11.1201 62.3001 11.4701C66.7601 11.7901 71.2101 12.1801 75.6801 12.3901C77.6401 12.4801 79.5901 12.4201 81.5501 12.4301C82.6701 12.4301 83.5901 12.5601 84.5201 13.1201C84.7701 13.2701 85.0201 13.4401 85.2401 13.6401C84.8001 13.2401 85.4601 13.9601 85.4801 13.9801C85.5901 14.1001 85.8101 14.5801 85.4901 13.9401C85.5901 14.1401 85.6801 14.3401 85.7601 14.5501C85.6101 14.0701 85.6101 14.1001 85.7601 14.6501L85.6901 14.2301C85.7501 14.7601 85.7601 14.8101 85.7401 14.3801C85.6101 13.5401 85.7401 14.9201 85.7401 14.9801C85.7901 16.4401 85.8701 13.8501 85.7401 15.3101C85.7001 15.7101 85.6701 16.1101 85.6401 16.5201C85.4901 18.2101 85.3301 19.9001 85.1801 21.5901C84.8501 25.1301 84.5401 28.6601 84.3301 32.2101C84.2501 33.6201 84.2001 34.9901 84.5701 36.3701C84.7801 37.1401 85.2101 38.4101 85.9901 38.8501C87.9001 39.9301 88.8501 36.1901 88.9101 35.0801C89.1301 31.3701 89.4601 27.6701 89.8001 23.9801C90.1801 19.8101 90.8601 15.5401 90.2801 11.3601C89.8301 8.07009 88.5401 3.95009 85.2601 2.43009C82.9501 1.36009 80.4601 1.72009 78.0001 1.67009C68.6201 1.48009 59.2801 0.230088 49.8901 0.0300882C45.3001 -0.0699118 40.6401 -0.0299118 36.1101 0.800088C31.9401 1.57009 27.7701 3.14009 25.3701 6.87009C21.9501 12.1901 22.2501 19.0701 23.3301 25.0501C23.6001 26.5501 23.9001 28.0501 24.2101 29.5501C24.3201 30.0801 24.4301 30.6101 24.5301 31.1401C24.6101 31.5701 24.5301 32.3901 24.5301 31.1001C24.5301 31.4901 24.6801 31.9401 24.7401 32.3301C24.9801 33.8701 25.1301 35.4301 25.2601 36.9901C25.2901 37.3201 25.3101 37.6501 25.3401 37.9801C25.3501 38.1101 25.4501 39.7501 25.3801 38.5201C25.4401 39.5901 25.4801 40.6601 25.5001 41.7301C25.5401 43.4601 25.5301 45.2001 25.4801 46.9301C25.4601 47.4301 25.4401 47.9201 25.4201 48.4201C25.3601 50.0601 25.5101 47.3301 25.3901 48.9701C25.3201 49.9001 25.2501 50.8301 25.1501 51.7701C24.9901 53.3501 24.7601 54.9201 24.5001 56.4901C24.2701 57.9001 24.7301 55.4901 24.4201 56.8901C24.3301 57.3101 24.2501 57.7301 24.1501 58.1501C23.9601 58.9801 23.7601 59.8201 23.5401 60.6401C23.3201 61.4601 23.0801 62.2801 22.8301 63.1001C22.7501 63.3701 22.6601 63.6401 22.5701 63.9101C22.8501 63.0501 22.4001 64.3801 22.3901 64.4301C21.8101 66.0401 21.1601 67.6201 20.4401 69.1801C19.0301 72.2201 17.5101 74.5101 15.7901 77.4401C8.95009 89.0701 4.61009 101.74 2.26009 115C-0.0899105 128.26 -0.149911 142.01 0.110089 155.57C0.400089 170.8 0.870089 186.02 1.29009 201.25C1.49009 208.42 1.79009 215.61 1.82009 222.79C1.84009 227.64 1.50009 232.5 1.27009 237.34C0.760089 248.23 0.270089 259.86 3.65009 270.37C5.18009 275.15 7.43009 279.46 11.1401 282.9C13.9101 285.48 17.2501 287.32 20.7901 288.62C29.4601 291.8 38.8901 292.34 48.0401 292.19C57.1901 292.04 66.9501 291.05 76.3701 290.1C80.3201 289.7 84.2801 289.3 88.2501 289.07C90.5601 288.94 92.8701 288.98 95.1701 288.77C98.6001 288.46 102.02 287.73 105.24 286.5C110.91 284.33 115.41 280.28 118.18 274.89C120.95 269.5 121.91 262.86 122.48 256.85C123.76 243.39 122.5 229.86 121.4 216.44C121.16 213.46 120.92 210.48 120.72 207.5C120.69 207.1 120.67 206.71 120.64 206.31C120.55 204.95 120.7 207.54 120.64 206.18C120.61 205.54 120.57 204.89 120.54 204.25C120.47 202.75 120.42 201.25 120.39 199.75C120.25 192.33 120.15 184.92 119.97 177.5C119.61 162.15 119.05 146.8 118.1 131.48C117.2 117.02 115.79 102.27 108.86 89.2601C105.38 82.7201 100.92 76.7701 97.0001 70.5001C93.4201 64.7901 91.4301 59.0901 90.0801 52.4401C90.0201 52.1301 89.9601 51.8301 89.9001 51.5201C90.1001 52.5701 89.8301 51.0501 89.8101 50.9601C89.6601 50.0301 89.5201 49.1101 89.4101 48.1701C89.3101 47.3901 89.2301 46.6201 89.1501 45.8401C89.1101 45.3701 89.0601 44.9101 89.0301 44.4401C89.0201 44.2601 88.9101 42.7001 88.9901 44.0001C88.7901 40.5501 88.8301 37.0801 89.0201 33.6301C89.1001 32.2501 88.6701 28.2301 86.6401 28.2301C84.6101 28.2301 84.3301 32.3701 84.2601 33.6301L84.2301 33.6501Z" fill="black"/>
<path d="M3.26998 145.14C4.88998 146.35 6.54998 146.95 8.45998 147.56C10.22 148.12 11.96 148.74 13.72 149.29C17.24 150.38 20.8 151.35 24.41 152.12C31.65 153.66 39.03 154.71 46.43 155C53.83 155.29 61.18 155.1 68.42 154.05C75.66 153 83.22 151.29 90.39 149.05C94.3 147.82 98.15 146.42 101.93 144.84C103.82 144.05 105.69 143.21 107.54 142.33C108.43 141.9 109.32 141.47 110.21 141.02C110.87 140.69 111.6 140.38 112.16 139.89C112.76 139.37 113.21 138.67 113.67 138.03C115.33 135.76 114.63 130.43 111.31 130.12C109.36 129.94 107.73 131.1 106.03 131.92C104.33 132.74 102.7 133.48 101.02 134.21C97.71 135.63 94.34 136.92 90.93 138.07C84.07 140.38 77.52 142 70.47 143.15C56.3 145.46 41.92 146.13 27.64 144.45C23.75 143.99 19.88 143.4 16.05 142.6C14.06 142.19 12.06 141.75 10.09 141.21C8.11998 140.67 6.21998 139.87 4.06998 139.89C1.79998 139.91 1.89998 144.13 3.26998 145.15V145.14Z" fill="black"/>
<path d="M7.54014 226.4C9.41014 227.82 11.6701 228.37 13.8101 229.28C15.9501 230.19 18.0001 231.01 20.1301 231.79C24.3901 233.36 28.8901 234.43 33.3301 235.36C42.2401 237.22 51.2601 237.88 60.3401 237.21C76.5801 236.01 92.6601 230.93 106.21 221.81C110.12 219.18 113.87 216.31 117.27 213.05C118.6 211.78 119.53 210.29 119.76 208.41C120.03 206.19 119.52 202.5 117.02 201.56C115.47 200.98 113.85 201.81 113.03 203.17C111.69 205.39 111.82 208.4 113.21 210.56C114.07 211.89 115.92 212.46 117.14 211.23C118.55 209.82 118.87 207.53 118.49 205.64L118.45 205.47L117.73 210.32L117.79 210.21L116.37 211.53C115.46 211.83 114.67 211.5 113.99 210.56L112.89 206.88L112.92 207.19L113.33 204.52C113.44 204.15 114.15 203.43 113.52 203.97C113.21 204.24 112.92 204.53 112.62 204.81C111.91 205.46 111.2 206.09 110.47 206.71C109.17 207.82 107.83 208.89 106.46 209.91C103.71 211.96 101.22 213.57 97.9901 215.37C91.8801 218.78 85.3701 221.46 78.6501 223.4C71.9301 225.34 64.8101 226.47 57.5601 226.85C49.7701 227.26 41.9101 226.89 34.1601 226.01C29.8501 225.52 25.6301 224.66 21.3701 223.87C19.2701 223.48 17.1801 223.04 15.1001 222.55C12.8601 222.02 10.7201 220.89 8.41014 220.8C7.31014 220.76 6.70014 222.18 6.57014 223.05C6.40014 224.14 6.62014 225.7 7.56014 226.41L7.54014 226.4Z" fill="black"/>
<path d="M51.8001 171.67C51.8001 171.85 51.7601 172.09 51.7201 172.27L45.0301 199.95C44.9401 200.28 44.6701 200.42 44.3001 200.43C42.8701 200.46 39.9201 198.29 39.8801 196.07C39.8801 195.89 39.9201 195.65 39.9601 195.47L42.8501 183.4C42.8901 183.21 42.8901 183.17 42.8901 183.12C42.8901 182.98 42.7901 182.84 42.6501 182.85C42.5101 182.86 42.4201 182.95 42.2901 183.18C39.7801 188.03 36.9301 193.96 35.5401 196.52C35.4101 196.8 35.1801 196.94 34.7601 196.95C33.4201 196.97 30.3901 195.59 30.1801 194.12C29.9701 192.6 29.8401 188.16 29.7801 184.28C29.7801 183.91 29.6301 183.77 29.4901 183.78C29.4001 183.78 29.2601 183.88 29.1701 184.16L24.4601 200.34C24.3701 200.67 24.1001 200.81 23.7301 200.82C22.3001 200.85 19.3501 198.68 19.3101 196.46C19.3101 196.28 19.3501 196.04 19.3901 195.86L27.8701 167.69C28.0401 167.09 28.5001 166.85 29.1001 166.84C30.9501 166.81 34.1801 169.29 34.3601 171.65L34.7601 186.86C34.7601 187.18 34.8601 187.37 34.9501 187.37C35.0901 187.37 35.2701 187.18 35.4001 186.9L46.1501 167.01C46.3801 166.68 46.5601 166.54 46.9301 166.53C49.1501 166.49 51.7501 169.5 51.7801 171.72L51.8001 171.67Z" fill="#1D1D1B"/>
<path d="M48.78 197.3C48.74 195.22 50.42 193.29 52.13 193.26C53.89 193.23 55.71 194.26 55.75 196.48C55.79 198.7 54.06 200.44 51.89 200.48C50.32 200.51 48.82 199.28 48.78 197.3Z" fill="#1D1D1B"/>
<path d="M63.98 194.25C63.98 194.48 64.13 194.62 64.4 194.61C64.49 194.61 64.72 194.56 64.91 194.51C68 193.76 70.98 192.28 72.53 191.46C72.71 191.36 72.85 191.32 72.99 191.31C74.1 191.29 74.96 193.17 75 194.93C75.02 195.85 74.85 196.69 74.39 197.07C73.3 198.01 67.42 200.48 63.58 200.54C60.81 200.59 57.77 196.39 57.73 194.21C57.73 193.89 57.77 193.56 57.81 193.38L64.7 166.58C64.79 166.25 65.06 166.11 65.43 166.1C66.91 166.07 70.09 168.24 70.14 170.97C70.14 171.29 70.11 171.62 70.02 171.94C68.07 179.19 65.93 186.67 64.02 193.92C63.98 194.11 63.98 194.15 63.98 194.24V194.25Z" fill="#1D1D1B"/>
<path d="M83.8201 191.6L81.6901 199.31C81.6001 199.64 81.3301 199.78 80.9601 199.79C79.5301 199.82 76.4401 197.65 76.4001 195.43C76.4001 195.25 76.4401 195.01 76.4801 194.83L83.9801 166.26C84.0701 165.93 84.3401 165.79 84.7101 165.78C86.1901 165.75 89.3701 167.92 89.4201 170.65C89.4201 170.97 89.3901 171.3 89.3001 171.62L86.3801 181.8C86.3401 181.99 86.3401 182.03 86.3401 182.12C86.3401 182.35 86.4901 182.49 86.6701 182.48C86.8101 182.48 86.9901 182.38 87.1301 182.19C90.8501 177.92 97.0401 169.76 99.9401 166.06C100.17 165.73 100.44 165.59 100.76 165.58C101.87 165.56 103.15 167.62 103.19 169.56C103.2 170.39 102.94 170.95 102.49 171.75C99.1901 176.2 93.9001 183.09 90.6401 186.8C90.4601 186.99 90.3701 187.17 90.3701 187.36C90.3701 187.55 90.5201 187.77 90.7501 187.95C92.7701 189.53 96.4701 192.66 97.0401 193.48C98.1301 195.08 96.2701 199.46 94.4601 199.49C94.1401 199.49 93.9001 199.31 93.6701 199.09C92.7801 198.23 87.7001 193.78 84.7001 191.29C84.5601 191.15 84.3701 191.06 84.2301 191.07C84.0501 191.07 83.9101 191.26 83.8201 191.59V191.6Z" fill="#1D1D1B"/>
<path d="M27.11 39.8699C28.95 40.5599 31.2 40.5999 33.14 40.9099C35.08 41.2199 37.15 41.5399 39.16 41.7899C43.06 42.2899 46.98 42.6699 50.9 42.9399C58.78 43.4899 66.76 43.2399 74.63 42.5199C76.85 42.3199 79.07 42.0699 81.28 41.7899C82.34 41.6599 83.39 41.5099 84.45 41.3599C85.88 41.1499 87.32 41.0699 88.32 39.8899C89.89 38.0499 90.42 34.0299 88.14 32.3999C87.06 31.6299 86.16 31.4599 84.89 31.6499C83.91 31.7999 82.94 31.9399 81.96 32.0699C80.06 32.3299 78.15 32.5499 76.25 32.7499C72.38 33.1499 68.49 33.4599 64.6 33.6799C56.71 34.1399 48.74 34.3599 40.84 34.1899C38.68 34.1399 36.51 34.0599 34.35 33.9499C33.27 33.8899 32.19 33.8299 31.11 33.7599C29.93 33.6799 28.71 33.3499 27.53 33.4799C24.85 33.7799 24.81 38.9799 27.12 39.8499L27.11 39.8699Z" fill="black"/>
</g>
<defs>
<clipPath id="clip0_3416_10374">
<rect width="123.01" height="292.22" fill="white"/>
</clipPath>
</defs>
</svg>
