<svg width="116" height="309" viewBox="0 0 116 309" fill="none" xmlns="http://www.w3.org/2000/svg">
<g clip-path="url(#clip0_3416_10651)">
<path d="M83.6101 295.16C76.7701 298.27 69.3001 299.99 61.8601 300.78C55.7101 301.44 49.4901 301.42 43.3401 300.78C39.8701 300.42 36.4101 299.87 33.0001 299.13C31.1601 298.73 29.3301 298.28 27.5201 297.79C26.5501 297.52 25.5801 297.25 24.6301 296.95C23.7801 296.68 23.3201 296.27 22.6201 295.82C21.9701 295.4 22.5201 295.58 22.4601 295.57L22.5401 296.84C22.4801 297.17 22.4801 297.19 22.5401 296.9C22.6801 296.47 22.7401 296 22.8501 295.57C23.1201 294.45 23.4001 293.34 23.7101 292.23C24.4101 289.69 25.0701 287.61 26.0001 285.24C27.6501 281.03 29.8501 276.04 33.8801 273.57C35.0501 272.85 36.1401 272.4 36.9801 271.24C37.8201 270.08 38.4901 268.88 39.0501 267.62C40.5301 264.28 41.0601 260.24 39.7001 256.77C38.4501 253.57 35.3501 252.1 32.5601 250.49C29.0301 248.45 25.8801 246.05 23.4201 242.76C21.1901 239.78 19.7501 236.41 18.5201 232.92C18.3301 232.39 18.7901 233.76 18.6301 233.25C18.5701 233.06 18.5001 232.87 18.4401 232.68C18.2601 232.13 18.1001 231.58 17.9301 231.02C17.3901 229.18 16.9101 227.32 16.4701 225.45C15.7801 222.57 15.1901 219.68 14.6401 216.78C14.8201 217.73 14.5601 216.35 14.5201 216.12C14.4401 215.68 14.3601 215.25 14.2901 214.81C14.1201 213.81 13.9501 212.81 13.7901 211.81C13.4601 209.77 13.1601 207.73 12.8801 205.69C11.3401 194.51 10.4301 183.2 9.96007 172.26C9.64007 164.82 9.50007 157.37 9.50007 149.93C9.50007 147.98 9.69007 145.93 9.23007 144.02C8.83007 142.32 7.94007 141.23 6.80007 140C5.11007 138.18 3.68007 135.99 3.15007 133.53C2.67007 131.27 3.19007 128.57 3.31007 126.26L3.94007 114.56C4.00007 113.49 4.05007 112.42 4.11007 111.35C4.11007 111.26 4.11007 111.17 4.12007 111.08C4.15007 110.92 4.33007 109.9 4.10007 111.61C3.95007 112.74 3.88007 112.02 4.15007 111.86C4.61007 111.57 4.89007 111.12 5.47007 110.93C6.17007 110.71 7.00007 110.81 7.64007 111.14C9.19007 111.94 10.6201 112.99 12.1701 113.8C14.6401 115.09 17.2101 116.18 19.8501 117.07C25.8101 119.06 31.9101 119.6 38.1501 120.01C44.3901 120.42 50.8501 120.62 57.2101 120.38C64.7701 120.1 72.3201 119.23 79.7001 117.54C83.0201 116.78 86.2401 115.69 89.5401 114.88C91.0801 114.5 92.6101 114.09 94.1301 113.66C94.8301 113.47 95.5201 113.29 96.2501 113.43C96.5501 113.49 96.8101 113.59 97.0801 113.74C97.1101 113.76 98.0001 114.45 97.9301 114.47C98.0001 114.45 97.9401 113.33 97.9301 114.08C97.9301 114.54 97.9301 115.01 97.9401 115.47L97.9801 120.36L98.0801 131.68C98.0801 132.56 97.9501 133.58 98.1101 134.45C98.1901 134.87 98.5901 133.44 98.2501 133.62C97.9801 133.76 97.5901 134.42 97.3701 134.7C96.6501 135.61 96.0801 136.66 95.6001 137.71C93.8101 141.64 93.3601 145.8 93.3101 150.06C93.2001 159.58 93.7901 169.11 93.8901 178.63C93.9501 184.39 93.9101 190.16 93.6201 195.91C93.6001 196.25 93.5801 196.58 93.5701 196.92C93.6101 196.22 93.5501 197.31 93.5401 197.35C93.5001 198.01 93.4501 198.66 93.4001 199.32C93.2901 200.7 93.1701 202.07 93.0201 203.45C92.8901 204.66 92.7301 205.86 92.5601 207.06C92.4701 207.63 92.3801 208.21 92.2901 208.78C92.2801 208.86 92.1101 209.78 92.2401 209.09C92.1701 209.45 92.1001 209.81 92.0301 210.17C90.8501 215.84 89.6701 221.53 88.1401 227.12C86.8801 231.75 85.3401 236.32 82.7701 240.52C80.2001 244.72 76.5401 248.56 72.3301 251.49C71.0101 252.41 69.4901 253.1 68.3001 254.2C66.8901 255.5 65.9501 257.2 65.4501 259.05C63.9001 264.85 66.0501 270.92 69.9501 275.26C73.2601 278.94 77.1901 282.01 80.3901 285.8C81.8801 287.57 83.2001 289.43 84.0701 291.56C84.3001 292.13 84.3001 292.1 84.4901 292.83C84.5601 293.12 84.6401 293.4 84.6901 293.69C84.5701 293.04 84.7201 294.02 84.7201 294.07C84.8701 295 84.4701 293.48 84.7501 294.39C85.0501 295.36 84.4401 293.85 84.8901 294.03C85.1101 294.12 83.6701 295.13 83.6001 295.17C81.7801 296.11 82.4201 302.69 84.3901 301.68C87.8801 299.88 88.0001 295.25 87.5201 291.84C87.1001 288.9 86.0601 286.18 84.5401 283.64C81.8801 279.2 77.8601 275.78 74.1801 272.23C72.5801 270.69 70.9801 269.1 69.7001 267.28C69.5401 267.05 69.3901 266.82 69.2401 266.59C69.1801 266.49 69.1201 266.39 69.0601 266.29C69.0801 266.33 69.2101 266.56 69.0801 266.32C68.7501 265.7 68.4401 265.05 68.2201 264.38C68.1101 264.04 68.0101 263.68 67.9401 263.32C68.0101 263.67 67.9001 262.93 67.8901 262.82C67.9401 263.45 67.9301 262.45 67.8901 263.15C67.9001 263.02 67.9201 262.88 67.9301 262.75C67.9601 262.29 67.8001 263.22 67.9101 262.8C67.9401 262.69 68.1301 262.05 68.0201 262.35C67.9101 262.66 68.1901 261.99 68.2401 261.88C68.4201 261.47 68.0901 262.07 68.3301 261.71C68.4501 261.53 68.5601 261.36 68.6901 261.19C68.8801 260.94 69.0801 260.72 69.2901 260.49C69.4001 260.38 69.0001 260.73 69.2901 260.49C69.3701 260.42 69.4501 260.34 69.5401 260.28C71.2701 259.02 73.1701 258 74.8701 256.68C79.1201 253.39 82.5901 249.35 85.2201 244.67C87.8501 239.99 89.5301 234.87 90.9001 229.72C92.4101 224.04 93.6901 218.25 94.7901 212.48C95.8901 206.71 96.3301 201.24 96.6001 195.57C97.1601 184.2 96.7801 172.81 96.4601 161.44C96.3501 157.33 96.1901 153.22 96.2901 149.11C96.2901 148.76 96.3101 148.42 96.3201 148.07C96.3201 147.91 96.3401 147.75 96.3401 147.59C96.3601 147.06 96.2701 148.49 96.3301 147.82C96.3801 147.31 96.4201 146.8 96.5001 146.3C96.5501 146.01 96.4801 146.43 96.4801 146.45C96.5301 146.23 96.5701 146.01 96.6201 145.79C96.7101 145.38 96.8201 144.98 96.9301 144.57C97.1101 143.93 97.3101 143.36 97.5701 142.75C98.0101 141.73 98.2301 141.3 98.9201 140.45C100.45 138.55 101.07 136.58 101.07 134.13C101.07 132.9 101.05 131.67 101.04 130.44L100.93 118.46C100.9 115.2 101.43 110.84 99.1001 108.27C96.5801 105.48 93.1901 107.2 90.1401 107.97C86.8701 108.79 83.6601 109.85 80.3701 110.62C66.4301 113.9 52.0101 114.2 37.7901 113.23C31.4501 112.8 25.2201 112.26 19.2001 110.05C16.6901 109.13 14.2401 108.01 11.8901 106.72C10.2701 105.83 8.44007 104.21 6.56007 104.07C2.77007 103.79 1.31007 108 1.14007 111.03C1.10007 111.76 1.06007 112.49 1.02007 113.22L0.400067 124.71C0.270067 127.22 0.0500674 129.74 -0.00993256 132.25C-0.0899326 135.94 1.12007 139.67 3.01007 142.81C3.64007 143.84 4.37007 144.81 5.18007 145.7C5.54007 146.09 5.97007 146.44 6.31007 146.86C6.33007 146.89 6.58007 147.25 6.59007 147.25C6.90007 147.22 6.25007 146.67 6.51007 146.47C6.36007 146.58 6.51007 147.96 6.51007 148.19C6.45007 162.42 6.92007 176.67 8.15007 190.85C8.96007 200.26 10.1101 209.64 11.8301 218.93C12.7801 224.09 13.8501 229.23 15.3201 234.27C16.7901 239.31 18.5501 243.82 21.4501 247.93C24.0001 251.54 27.3601 254.38 31.1501 256.62C32.4901 257.41 33.8701 258.13 35.1701 258.98C35.7001 259.33 36.2101 259.7 36.6801 260.13C36.7601 260.2 36.4801 259.9 36.7301 260.19C36.8201 260.29 36.9201 260.39 37.0001 260.5C37.2501 260.81 37.4601 261.35 37.5301 261.45C37.3401 261.18 37.7001 260.94 37.4901 261.15C37.4401 261.2 37.4501 261.42 37.3601 261.72C37.2101 262.25 36.9301 262.89 36.6501 263.44C36.1801 264.38 35.5801 265.61 34.6801 266.19C33.6901 266.83 32.6601 267.25 31.7401 268.02C30.8201 268.79 29.9701 269.68 29.2201 270.63C25.7601 274.97 23.7301 280.42 22.0701 285.66C21.3601 287.92 20.7401 290.2 20.1901 292.5C19.4101 295.82 19.0401 299.99 21.9101 302.47C23.2101 303.59 25.2101 303.89 26.8201 304.34C28.7901 304.9 30.7801 305.39 32.7801 305.83C36.4001 306.62 40.0701 307.21 43.7501 307.57C54.6101 308.64 65.7201 307.8 76.1901 304.67C78.9801 303.83 81.7401 302.87 84.4001 301.66C86.2301 300.83 85.6901 294.21 83.6101 295.15V295.16Z" fill="#1D1D1B"/>
<path d="M42.3901 258.83H63.0701C63.0701 258.83 63.0701 264.22 53.5701 263.97C44.0701 263.72 42.4001 258.83 42.4001 258.83H42.3901Z" fill="#1D1D1B"/>
<path d="M42.3901 259.67H62.2301C62.5001 259.67 62.7701 259.69 63.0401 259.67C63.0501 259.67 63.0601 259.67 63.0801 259.67L62.7101 258.83C62.7101 259.01 62.7401 258.53 62.7101 258.75C62.7101 258.8 62.7001 258.86 62.6901 258.91C62.6901 258.94 62.6801 258.98 62.6701 259.01C62.6701 259.01 62.7201 258.76 62.6901 258.88C62.6901 258.9 62.6901 258.92 62.6801 258.94C62.6601 259.03 62.6401 259.12 62.6101 259.21C62.6001 259.26 62.5801 259.3 62.5701 259.34C62.5401 259.46 62.6101 259.23 62.6001 259.26C62.5901 259.29 62.5801 259.32 62.5701 259.35C62.5301 259.46 62.4801 259.57 62.4301 259.68C62.4001 259.73 62.3801 259.79 62.3501 259.84C62.3201 259.91 62.2101 260.08 62.3101 259.92C62.1501 260.18 61.9801 260.43 61.7801 260.67C61.7301 260.73 61.6801 260.79 61.6201 260.84C61.5901 260.87 61.5601 260.9 61.5401 260.93C61.5201 260.95 61.5101 260.96 61.4901 260.98C61.5301 260.94 61.4301 261.04 61.4901 260.98C61.3501 261.11 61.2101 261.23 61.0601 261.34C60.3201 261.91 59.4601 262.31 58.5701 262.58C57.2201 262.98 55.8001 263.11 54.4001 263.12C52.7601 263.13 51.1101 263 49.5001 262.65C47.5201 262.23 45.5401 261.44 44.0201 260.05C43.9901 260.02 43.9601 259.99 43.9301 259.97C43.8401 259.89 43.9701 260.01 43.9101 259.95C43.8501 259.89 43.7901 259.83 43.7301 259.77C43.6301 259.66 43.5301 259.55 43.4301 259.44C43.2701 259.25 43.1201 259.05 42.9801 258.84C42.9301 258.76 42.8801 258.67 42.8301 258.59C42.9601 258.78 42.8301 258.58 42.7801 258.5C42.7301 258.42 42.7101 258.34 42.6701 258.26C42.6701 258.25 42.6701 258.24 42.6601 258.23C42.5501 257.91 42.2601 257.96 42.1401 258.23C41.9701 258.6 42.0101 259.05 42.1401 259.42C42.3801 260.11 42.8901 260.75 43.3901 261.27C44.8001 262.73 46.6501 263.6 48.5901 264.13C50.1401 264.55 51.7501 264.75 53.3501 264.8C54.9501 264.85 56.4701 264.78 57.9801 264.43C59.7401 264.02 61.4901 263.19 62.5301 261.65C63.0801 260.84 63.4301 259.85 63.4601 258.87C63.4601 258.86 63.4601 258.85 63.4601 258.83C63.4601 258.62 63.4101 257.99 63.0901 257.99H43.2501C42.9801 257.99 42.7101 257.97 42.4401 257.99C42.4301 257.99 42.4201 257.99 42.4001 257.99C42.0801 257.99 42.0301 258.61 42.0301 258.83C42.0301 259.05 42.0701 259.67 42.4001 259.67H42.3901Z" fill="#1D1D1B"/>
<path d="M25.8701 293C25.8701 293 26.7201 277.19 41.1101 272.99C41.1101 272.99 37.5601 293 35.9901 294.22C34.4201 295.44 27.3401 295.58 25.8701 293Z" fill="#1D1D1B"/>
<path d="M48.3602 272.12C48.3602 272.12 41.1702 274.74 41.1702 296.27L57.6102 296.04C57.6102 296.04 59.2802 285.79 54.0102 275.53C54.0102 275.53 51.4402 271.54 48.3602 272.11V272.12Z" fill="#1D1D1B"/>
<path d="M62.6702 295.63C62.7902 295.19 56.3302 276 60.9302 271.61C60.9302 271.61 78.4502 281.81 79.5702 292.23L62.6702 295.63Z" fill="#1D1D1B"/>
<path d="M13.23 151.5C13.1 151.81 13.04 152.13 13.04 152.46C13.04 158.72 13.49 222.5 29.72 243.12C29.72 243.12 32.07 246 34.15 246.63C34.15 246.63 36.37 249.39 34.54 238.98C32.72 228.57 24.77 182.93 24.25 164.38C24.25 164.38 23.86 150.71 20.73 149.33C18.48 148.34 15.76 149.49 14.41 150.21C13.87 150.5 13.46 150.95 13.23 151.5Z" fill="#1D1D1B"/>
<path d="M39.51 150.71C39.14 150.82 27.52 153.22 28.64 165.92C29.75 178.61 35.31 229.27 36.55 233.29C37.79 237.31 40.5 246.11 42.98 247.62C45.45 249.13 48.42 248.5 49.65 243.47C50.88 238.44 52.25 176.1 52.25 172.83C52.25 169.56 52.62 146.69 39.52 150.71H39.51Z" fill="#1D1D1B"/>
<path d="M68.7602 149.85C68.3502 149.87 59.6902 159.04 57.9902 170.83C56.2902 182.63 55.0402 234.65 55.0402 235.02C55.0402 235.39 54.0202 249.67 57.5302 250.42C61.0402 251.16 65.6902 242.97 66.9402 233.66C68.1902 224.35 74.3101 182.01 74.3101 182.01C74.3101 182.01 75.9001 159.04 73.0601 154.2C73.0601 154.2 71.3602 149.73 68.7502 149.85H68.7602Z" fill="#1D1D1B"/>
<path d="M87.18 146.76C87.18 146.76 80.44 147.51 80.32 162.03C80.32 162.03 76.95 203.58 75.79 211.22C74.63 218.85 69.28 240.63 71.72 243.51C74.16 246.39 78.34 248.14 84.2699 232.25C90.1999 216.35 89.73 212.35 89.73 212.35C89.73 212.35 91.24 176.8 91.12 172.92C91.02 169.52 90.74 153.9 90.67 150.1C90.65 149.24 90.41 148.4 89.91 147.73C89.37 147.01 88.5 146.38 87.16 146.76H87.18Z" fill="#1D1D1B"/>
<path d="M1.06997 139.7C1.45997 142.24 2.91997 142.59 5.03997 143.32C8.31997 144.44 11.72 145.22 15.13 145.82C29.19 148.31 43.73 148.08 57.91 146.91C71.19 145.81 84.37 143.71 97.42 141.02C99.65 140.56 99.21 133.9 97.42 134.27C77.26 138.42 56.62 141.31 35.99 140.93C29.87 140.82 23.74 140.4 17.68 139.49C15.55 139.17 13.44 138.79 11.34 138.32C10.49 138.13 9.64997 137.93 8.80997 137.7C8.48997 137.61 8.15997 137.53 7.83997 137.43C7.66997 137.38 7.49997 137.33 7.33997 137.29C7.22997 137.26 6.57997 137.06 7.06997 137.21C6.02997 136.89 4.99997 136.54 3.99997 136.12C3.72997 136.01 3.46997 135.86 3.19997 135.75C2.52997 135.48 3.35997 135.95 3.54997 136.42L3.92997 137.91C3.79997 137.07 3.37997 134.98 2.09997 135.55C0.929967 136.08 0.909967 138.73 1.05997 139.7H1.06997Z" fill="#1D1D1B"/>
<path d="M11.9602 109.65C12.1302 108.49 11.9302 107.37 11.5802 106.28C11.4702 105.95 11.3702 105.61 11.2902 105.27C11.2402 105.06 11.2002 104.84 11.1502 104.63C11.3902 105.62 11.1802 104.75 11.1502 104.52C11.1202 104.27 11.1302 103.35 11.1202 104.38C11.1202 104.08 11.1202 103.77 11.1202 103.46C11.1202 104.45 11.1502 103.33 11.1702 103.12C11.2302 102.77 11.2202 102.77 11.1502 103.14C11.1902 102.96 11.2302 102.78 11.2702 102.59C11.5802 101.3 12.2702 99.8302 13.1902 98.5002C15.3902 95.3102 18.5002 92.7702 21.2402 90.0502C21.6702 89.6202 22.1602 89.2102 22.5402 88.7302C23.6702 87.3602 23.7002 84.8202 22.9701 83.2802C22.8401 83.0002 22.3902 82.1902 21.9202 82.2902C21.4902 82.3802 21.2802 82.6002 20.9802 82.8802L22.8102 87.0302C22.8902 86.4502 22.6102 87.8202 22.7302 87.4402C22.8302 87.1302 22.9102 86.7902 22.9802 86.4802C22.9402 86.6302 22.7802 86.9602 23.0202 86.4002C23.1202 86.1702 23.2102 85.9402 23.3102 85.7202C23.3602 85.6102 23.6702 85.0202 23.5802 85.1602C23.4402 85.4002 23.6801 85.0002 23.7101 84.9502C23.8201 84.7902 23.9202 84.6302 24.0302 84.4702C24.8502 83.3202 25.8702 82.4102 27.1102 81.7202C28.2202 81.1002 29.4301 80.9302 30.5501 80.4202C32.3401 79.6102 34.0502 78.3502 35.5602 77.1202C38.1102 75.0502 40.2802 72.5702 41.3102 69.4102C41.9502 67.4502 42.0502 65.3802 41.7902 63.3502C41.7202 62.7702 41.7902 63.8002 41.7702 63.2402C41.7702 63.1502 41.7802 62.4702 41.7702 62.8902C41.7602 63.3602 41.8802 62.4302 41.7802 62.8202C41.7002 63.1302 41.8202 62.6502 41.8202 62.6402C41.9802 62.0902 42.1602 61.5902 42.5102 61.0202C43.6202 59.2202 45.0602 58.1102 46.8002 56.9602C47.2802 56.6502 47.7202 56.2702 48.1702 55.9202L49.6602 54.7502C49.8502 54.6002 50.0602 54.4602 50.2302 54.3002C50.5402 54.0002 50.6302 54.2002 50.1502 54.1802C52.2102 54.2802 54.3402 54.0302 56.4002 53.9502C56.5702 53.9502 56.7702 53.9702 56.9302 53.9302C57.3602 53.8402 57.0202 54.1402 56.8102 53.8002C56.9102 53.9602 57.1802 54.1102 57.3202 54.2302L60.1302 56.6102C61.8002 58.0302 63.4802 59.4402 65.1502 60.8602L64.4902 59.9902C65.2002 61.2602 66.4302 62.2902 67.8502 61.2302C68.4802 60.7602 68.9202 60.1102 69.3502 59.4602C70.0502 58.3902 70.7302 57.3102 71.4102 56.2402C74.0502 52.0902 76.6702 47.9402 79.2902 43.7802C85.6102 33.7602 91.9202 23.7402 98.2302 13.7202C99.7002 11.3802 101.17 9.05022 102.64 6.71022L101.89 7.17022C103.35 6.81022 104.9 6.69022 106.4 6.74022C107.58 6.78022 108.78 6.94022 109.87 7.41022C110.43 7.66022 110.98 7.97022 111.44 8.37022C111.77 8.65022 112.28 9.41022 112.38 9.61022C112.42 9.68022 112.57 10.0902 112.42 9.66022C112.47 9.82022 112.49 10.0502 112.57 10.1902C112.28 9.65022 112.47 9.04022 112.51 8.66022C112.56 8.10022 112.6 8.45022 112.4 8.74022C112.1 9.17022 111.85 9.41022 111.52 9.76022C111.35 9.94022 111.19 10.1502 111.04 10.3502C110.33 11.2702 109.66 12.2302 108.98 13.1802C103.1 21.4502 97.4202 29.8602 91.7102 38.2402C86.0002 46.6202 80.7801 54.3102 75.3401 62.3502C74.8301 63.1002 74.3102 63.8502 73.8102 64.6102C72.5902 66.4802 72.8102 68.8102 73.2502 70.9002C73.9102 74.0402 75.5701 76.9402 76.8801 79.8402C78.1901 82.7402 79.5902 85.9202 80.9302 88.9602C81.6202 90.5202 82.2702 92.1002 82.9802 93.6502C84.0202 95.9302 85.4602 97.9502 86.9202 99.9702C89.8802 104.06 92.8502 108.15 95.8102 112.24C96.0502 112.57 96.2902 112.9 96.5302 113.24C97.4202 114.47 98.3402 112.87 98.5602 112.03C98.9302 110.63 98.9202 108.64 98.0302 107.41C94.7102 102.82 91.3802 98.2402 88.0602 93.6502C84.4302 88.6502 82.3801 82.6902 79.8801 77.0702C79.0401 75.1902 78.2002 73.3102 77.3202 71.4402C76.7502 70.2402 76.2302 69.0902 75.9202 67.9402C75.8802 67.7902 75.8502 67.6402 75.8202 67.4802C76.0402 68.3502 75.8601 67.6602 75.8401 67.4302C75.9201 68.6202 75.8801 68.1902 75.8801 67.9202C75.8801 67.4902 75.7901 68.9902 75.8401 68.6402L75.1602 70.6602C77.9102 66.5902 80.6602 62.5302 83.4102 58.4702C88.8602 50.4402 94.3202 42.4102 99.8102 34.4002C103.86 28.4902 107.83 22.5102 112.1 16.7602C112.31 16.4802 112.52 16.2102 112.73 15.9402C112.79 15.8602 112.87 15.7902 112.93 15.7002C112.95 15.6702 112.98 15.6502 113 15.6202C113.05 15.5602 113.15 15.4102 112.86 15.7502C112.44 16.2502 113.36 15.2602 113.37 15.2502C115.89 12.4702 115.97 7.98022 114.44 4.72022C112.4 0.370216 107.51 -0.449784 103.16 0.200216C102.39 0.320216 101.57 0.380216 101.09 1.03022C100.7 1.56022 100.38 2.16022 100.03 2.71022C98.3802 5.33022 96.7302 7.95022 95.0802 10.5702C89.9402 18.7402 84.7902 26.9202 79.6402 35.0902C75.8202 41.1402 72.0302 47.2102 68.1502 53.2302C67.9802 53.4902 67.8202 53.7502 67.6502 54.0002C67.2602 54.5702 66.8502 55.1002 66.4102 54.8702C66.6702 55.0002 66.4601 55.0402 66.3801 54.8002C66.3001 54.5602 66.6602 55.3002 66.6202 55.2302C66.3902 54.8002 66.2702 54.6702 65.9602 54.3602C65.8602 54.2602 65.7302 54.1702 65.6202 54.0702C64.9902 53.5302 64.3502 52.9902 63.7102 52.4502L58.5202 48.0602C58.1202 47.7202 57.7502 47.2602 57.2102 47.1702C56.5702 47.0602 55.7702 47.2202 55.1202 47.2502L51.7002 47.3702C51.1102 47.3902 50.3002 47.2802 49.7502 47.5602C48.4202 48.2302 47.3502 49.5702 46.1202 50.4002C44.6502 51.3902 43.2902 52.3902 42.1102 53.7402C39.8402 56.3602 38.7902 59.8002 38.8202 63.2402C38.8202 63.8202 38.8701 64.4002 38.9201 64.9702C38.9401 65.1702 38.9702 65.3702 39.0002 65.5802C38.9902 65.4802 38.9602 64.8302 38.9802 65.4602C38.9802 65.4402 39.0202 64.8102 38.9802 65.2002C38.9402 65.6602 39.1102 64.7002 39.0002 65.1502C38.9702 65.2702 38.9402 65.4002 38.9102 65.5202C38.7102 66.2802 39.0301 65.2702 38.8501 65.6802C38.4001 66.7402 37.7401 67.6902 36.8501 68.6802C35.3101 70.3902 33.4002 71.7702 31.4402 72.9702C30.9002 73.3002 30.3502 73.6802 29.7702 73.9202C28.9102 74.2902 27.7102 74.5102 26.7302 75.0102C24.2702 76.2502 22.4302 78.4002 21.2602 80.8602C20.6102 82.2202 20.1502 83.7302 19.9502 85.2402C19.8102 86.3002 19.8802 87.5402 20.3302 88.5202C20.5202 88.9202 21.1802 89.9402 21.7702 89.3902C22.0602 89.1202 22.6102 88.8902 21.9202 89.0402L20.8702 88.0502V83.2802C21.2802 82.3002 20.9102 83.0502 20.5202 83.4402C19.8102 84.1602 19.0802 84.8702 18.3502 85.5802C15.2902 88.5802 12.1202 91.3802 10.1402 95.2602C8.51015 98.4702 7.91015 102.13 8.21015 105.7C8.30015 106.8 8.49015 107.9 8.78015 108.96C8.86015 109.27 8.96015 109.57 9.06015 109.87C9.48015 111.09 8.71015 110.3 9.07015 107.85C8.91015 108.93 8.91015 111.42 10.1102 112C11.3702 112.62 11.8202 110.39 11.9402 109.64L11.9602 109.65Z" fill="#1D1D1B"/>
<path d="M34.3 78.9001C36.3 78.7701 38.79 78.7401 40.58 79.7301C41.36 80.1601 42.08 80.9501 42.91 81.2701C43.5 81.5001 44.19 81.0701 44.78 80.9101C46.13 80.5501 47.78 80.3801 49.09 80.9601C50.73 81.6801 52.15 82.9701 53.77 83.7901C54.51 84.1701 55.23 84.6801 56.03 84.3001C57.14 83.7801 58.35 83.2401 59.61 83.6501C61.12 84.1401 62.58 85.6501 63.78 86.6401C64.62 87.3301 65.45 88.0401 66.26 88.7601C67.32 89.7101 68.02 86.9301 68.09 86.4001C68.26 85.0301 68.15 83.2301 67.05 82.2501C65.41 80.7901 63.73 79.3601 61.94 78.0701C59.8 76.5301 57.33 76.4201 55.08 77.8801H55.87C55.08 77.5501 54.31 77.1501 53.56 76.7301C52.11 75.9201 50.79 74.6901 49.2 74.1801C47.16 73.5201 44.86 73.9001 42.92 74.7501H43.71C42.36 73.8501 41.12 72.9301 39.52 72.5201C37.84 72.0901 36.03 72.0101 34.3 72.1201C32.15 72.2601 32.28 79.0001 34.3 78.8701V78.9001Z" fill="#1D1D1B"/>
<path d="M13.9601 121.93C13.9501 122.24 13.9301 122.55 13.9201 122.86C13.9201 122.99 13.9601 123.71 13.9201 123.04C13.9501 123.54 13.8201 124.13 13.7601 124.62C13.6501 125.64 13.5401 126.66 13.4101 127.67C13.2801 128.68 13.2201 129.74 13.1401 130.77C13.1001 131.31 13.0501 131.85 13.0001 132.39C12.8701 133.95 13.0301 135.27 14.1401 136.45C14.5101 136.85 15.2701 136.95 15.7501 136.73L15.8101 136.7C16.6701 136.3 17.2201 135.21 17.3001 134.31C17.5001 132.12 17.6801 129.94 17.6601 127.74C17.6401 125.77 17.5601 123.8 17.5401 121.83C17.5401 121.2 17.3401 120.44 16.9701 119.92C16.7001 119.54 16.2001 119.11 15.6901 119.15C14.3501 119.27 14.0201 120.83 13.9701 121.91L13.9601 121.93Z" fill="#1D1D1B"/>
<path d="M24.4899 122.46C24.0599 127.08 24.1799 131.75 24.1799 136.39C24.1799 137.17 24.4299 138.12 24.8899 138.76C25.2199 139.23 25.8499 139.77 26.4799 139.71C28.0999 139.56 28.6099 137.62 28.6099 136.28C28.6099 131.91 28.7499 127.5 28.3499 123.15C28.2499 122.05 27.8799 120.5 26.5799 120.27C25.3899 120.06 24.5799 121.43 24.4899 122.45V122.46Z" fill="#1D1D1B"/>
<path d="M37.23 123.8C37.03 127.92 37.22 132.05 37.29 136.17C37.3 136.96 37.53 137.89 38 138.54C38.33 139.01 38.96 139.55 39.59 139.49C41.19 139.34 41.75 137.4 41.72 136.06C41.65 131.94 41.69 127.8 41.35 123.7C41.29 122.93 41.15 122.14 40.69 121.49C40.38 121.06 39.8 120.55 39.21 120.61C37.66 120.75 37.29 122.55 37.23 123.8Z" fill="#1D1D1B"/>
<path d="M49.69 123.9C49.62 125.08 49.57 126.24 49.63 127.42L49.8 130.8C49.91 133.1 50.02 135.4 50.14 137.7C50.18 138.51 50.37 139.39 50.85 140.07C51.18 140.54 51.81 141.08 52.44 141.02C54 140.88 54.65 138.93 54.57 137.59C54.29 132.75 54.23 127.82 53.41 123.04C53.24 122.06 52.43 120.73 51.27 121.01C50.02 121.32 49.75 122.82 49.69 123.9Z" fill="#1D1D1B"/>
<path d="M62.7702 123.24C62.6802 124.45 62.5302 125.69 62.5502 126.9C62.5702 127.94 62.5902 128.98 62.6202 130.02C62.6602 132.1 62.7002 134.19 62.7502 136.27C62.7702 137.06 62.9902 137.98 63.4602 138.64C63.7902 139.11 64.4202 139.65 65.0502 139.59C66.6402 139.44 67.2202 137.5 67.1802 136.16C67.1202 134.08 67.0402 132 66.9702 129.91C66.9302 128.87 66.9002 127.83 66.8602 126.79C66.8102 125.57 66.6002 124.35 66.4402 123.14C66.3302 122.31 65.5702 120.96 64.5502 121.05C63.5302 121.14 62.8302 122.27 62.7602 123.23L62.7702 123.24Z" fill="#1D1D1B"/>
<path d="M75.8701 121.5C75.8601 126.06 76.1801 130.63 76.2701 135.19C76.2901 135.98 76.5101 136.91 76.9801 137.56C77.3101 138.03 77.9401 138.57 78.5701 138.51C80.1701 138.36 80.7301 136.42 80.7001 135.08C80.6001 130.27 80.4101 125.39 79.5701 120.64C79.4001 119.67 78.6001 118.34 77.4401 118.63C76.2801 118.92 75.8701 120.43 75.8701 121.5Z" fill="#1D1D1B"/>
<path d="M89.4902 118.87C89.2302 121.71 89.3002 124.52 89.3402 127.36C89.3802 130.04 89.4002 132.72 89.4702 135.39C89.5002 136.66 90.1802 138.75 91.7702 138.71C93.3602 138.67 93.9302 136.53 93.9002 135.28C93.8402 132.6 93.7402 129.93 93.6502 127.25C93.5602 124.4 93.5002 121.6 93.1102 118.77C92.9902 117.89 92.2602 116.69 91.2502 116.72C90.2402 116.75 89.5702 117.98 89.4902 118.86V118.87Z" fill="#1D1D1B"/>
<path d="M21.2301 89.8903C22.2101 89.5703 23.3801 89.7603 24.3801 89.8603C25.5201 89.9703 26.5101 90.5003 27.3401 91.2703C28.1201 91.9903 28.7401 92.9103 29.2201 93.8503C29.9201 95.2503 30.5101 97.0603 32.3801 97.1303C33.0201 97.1603 33.6901 96.9003 34.3301 96.8403C34.9701 96.7803 35.6801 96.7903 36.3301 96.9003C37.4901 97.1003 38.7101 97.5803 39.6901 98.2303C41.8101 99.6403 43.2401 102.05 43.8501 104.16C44.2401 105.52 45.1701 107.32 46.9001 106.67C49.5501 105.69 52.5101 105.67 55.0001 107.12C55.9401 107.67 56.7301 108.4 57.3001 109.16C57.7101 109.71 57.8701 109.95 58.0201 110.27C58.1801 110.6 58.3201 110.94 58.4401 111.29C58.2301 110.7 58.5201 111.66 58.5401 111.78C58.8401 113.2 60.0601 115.2 61.7901 114.45C63.5201 113.7 63.8201 111.12 63.4801 109.56C62.6101 105.66 60.4201 102.17 56.9601 100.09C53.5001 98.0103 49.0401 97.7403 45.4401 99.5603L48.2301 101.19C45.9501 95.1703 40.2801 88.8603 33.1701 90.2303C32.9801 90.2703 32.7801 90.3103 32.5901 90.3503L33.3701 91.2203C33.3101 91.2203 32.9601 90.3103 32.8801 90.1603C32.4801 89.3503 32.0401 88.5403 31.5401 87.8003C30.5601 86.3703 29.3301 85.1703 27.8101 84.3203C24.8101 82.6403 21.6301 83.3103 19.7101 86.1603C18.9601 87.2703 19.3301 90.5003 21.2401 89.8803L21.2301 89.8903Z" fill="#1D1D1B"/>
<path d="M55.5 97.2901C57.4 96.5001 59.79 96.1701 61.84 96.4201C62.85 96.5401 63.85 96.8901 64.74 97.3801C65.29 97.6801 65.83 98.1601 66.5 98.1401C67.2 98.1201 67.96 97.7101 68.62 97.4801C72.96 95.9301 78.2 96.2901 81.97 99.0301C85.74 101.77 87.47 93.2801 83.83 91.6101C81.07 90.3501 77.89 89.5601 74.85 89.4901C73.39 89.4601 71.94 89.6101 70.51 89.9201C68.83 90.2901 67.36 91.0501 65.75 91.5201L66.93 91.4901C65.9 91.0001 65.01 90.3901 63.9 90.0801C62.79 89.7701 61.58 89.5801 60.4 89.6401C57.82 89.7901 55.84 90.7601 54.1 92.6401C53.32 93.4801 53.14 94.7701 53.49 95.8501C53.76 96.6901 54.47 97.7101 55.5 97.2801V97.2901Z" fill="#1D1D1B"/>
<path d="M64.9401 54.4404C63.4601 55.2904 63.2301 57.5804 63.5801 59.0804C63.8201 60.0804 64.2101 61.1204 64.8601 61.9304C65.4401 62.6504 66.0801 63.2104 66.9301 63.6104C67.6901 63.9704 68.5801 63.9804 69.4001 64.1104L68.8101 64.0004C69.2001 64.0704 69.5601 64.1904 69.9101 64.3904L69.3701 64.0604C69.6201 64.2204 69.8401 64.4104 70.0401 64.6304L69.5801 64.1104C69.6701 64.2204 69.7601 64.3304 69.8401 64.4504C69.9101 64.5604 70.1501 64.9904 69.8801 64.4804C69.6101 63.9704 69.8601 64.4704 69.9201 64.5804C69.9801 64.6904 70.0101 64.8004 70.0601 64.9204C70.2401 65.3804 70.3901 65.8304 70.6101 66.2704C71.3201 67.7004 72.3901 69.1404 74.0201 69.5604C74.6701 69.7304 75.2101 69.6404 75.7201 69.1804C76.2301 68.7204 76.6001 67.8304 76.6901 67.1404C76.8001 66.2804 76.7701 65.3404 76.4001 64.5504C76.1301 63.9704 75.7101 63.2004 75.0401 63.0304C74.7401 62.9504 74.4701 62.8404 74.2001 62.6804L74.7401 63.0104C74.5001 62.8504 74.2901 62.6604 74.1001 62.4504L74.5601 62.9704C74.4601 62.8504 74.3601 62.7204 74.2701 62.5804C74.1101 62.3304 73.9601 61.8404 74.3301 62.7304C74.2301 62.4804 74.1001 62.2304 74.0101 61.9804C73.7201 61.2004 73.4001 60.4804 72.9701 59.7704C72.4501 58.9204 71.7101 58.2504 70.8301 57.7904C69.9501 57.3304 69.0101 57.3504 68.1001 57.1904L68.6901 57.3004C68.3401 57.2204 68.0301 57.1104 67.7101 56.9404L68.2501 57.2704C67.9701 57.1004 67.7401 56.9004 67.5101 56.6704L67.9701 57.1904C67.8801 57.0904 67.8001 56.9904 67.7201 56.8904C67.6501 56.7904 67.4501 56.4404 67.6901 56.8904C67.9501 57.3704 67.7301 56.9104 67.6701 56.8004C67.5901 56.5704 67.6001 56.6004 67.6901 56.8904C67.8501 57.4004 67.7901 57.2104 67.5201 56.3404C67.3701 55.9504 67.1601 55.5804 66.9101 55.2404C66.5001 54.6904 65.6601 54.0504 64.9401 54.4604V54.4404Z" fill="black"/>
<path d="M76.3301 74.8803C76.0201 74.5203 75.7001 74.1603 75.3801 73.8103C75.1101 73.5103 75.1101 73.5303 74.8801 73.2603C74.3501 72.6403 73.7901 71.9803 73.1301 71.4903C71.7901 70.4903 70.3101 70.0003 68.6501 70.3403C68.2101 70.4303 67.7701 70.5403 67.3301 70.6503C67.2801 70.6603 66.7301 70.7803 66.9901 70.7303C67.2501 70.6803 66.6301 70.7903 66.6501 70.7803C66.3601 70.8203 66.0801 70.8203 65.7901 70.8303C65.2901 70.8303 65.8901 70.8003 65.8801 70.8603C65.8801 70.8603 65.5401 70.7603 65.5201 70.7503C65.4001 70.7103 65.2801 70.6503 65.1601 70.6003C64.7801 70.4603 65.3101 70.6803 65.2801 70.7003C65.2001 70.7603 64.7201 70.1903 64.6601 70.2003C64.8601 70.1903 64.9501 70.7503 64.7601 70.2803C64.7301 70.2403 64.7001 70.1903 64.6701 70.1403C64.5501 69.9503 64.6101 70.0503 64.8401 70.4503C64.8801 70.2903 64.6001 69.8703 64.5401 69.7103C64.2001 68.8203 63.1501 67.7503 62.1101 68.2803C60.9401 68.8803 60.7001 70.2503 60.6301 71.4403C60.4001 74.9903 63.7401 78.1303 67.2401 77.4503C67.7201 77.3603 68.1901 77.2403 68.6601 77.1203C69.0701 77.0203 68.5501 77.1203 68.8101 77.0803C68.9901 77.0503 69.1601 77.0103 69.3401 76.9903C69.6901 76.9503 70.0401 76.9403 70.3901 76.9703C70.5501 76.9803 70.7001 77.0003 70.8601 77.0103C71.0701 77.0303 71.2401 77.0803 70.9401 77.0103C71.6001 77.1703 72.2701 77.3903 72.9001 77.6603C73.5301 77.9303 73.8901 78.2203 74.5101 78.7103C75.3001 79.3403 76.1501 78.8503 76.5401 78.0403C76.9601 77.1503 77.0201 75.6703 76.3401 74.8703L76.3301 74.8803Z" fill="black"/>
<path d="M56.64 54.0803C55.16 53.6103 53.52 53.8103 52.16 54.5503C50.8 55.2903 49.79 56.5303 49.13 57.9203C47.82 60.7103 48 64.6903 50.71 66.6103C51.33 67.0503 52 67.3403 52.75 67.4603C53.5 67.5803 54.24 67.4803 54.93 67.2003C55.67 66.9103 56.35 66.4403 56.95 65.9203C57.55 65.4003 58.08 64.7303 58.43 63.9803C58.8 63.1903 58.9 62.2303 58.67 61.3903C58.44 60.5503 57.94 59.8203 57.29 59.2303C56.16 58.2103 54.67 57.6203 53.16 57.4803C52.39 57.4103 51.62 57.4803 50.86 57.6703C50.1 57.8603 49.39 58.2103 48.86 58.7703C47.75 59.9303 47.42 61.6603 47.53 63.2103C47.64 64.7603 48.13 66.3503 49.25 67.4803C50.37 68.6103 52.06 68.9003 53.51 68.3603C54.96 67.8203 56.06 66.3803 56.41 64.8603C56.61 63.9903 56.56 63.0003 56.2 62.1803C55.84 61.3603 55.17 60.8003 54.39 60.3803C53.68 60.0003 52.85 59.6203 52.02 59.7003C51.19 59.7803 50.56 60.2203 50.07 60.8403C48.98 62.2103 49.17 64.3003 50.18 65.6703C50.63 66.2703 51.23 66.7603 51.95 66.9903C52.6 67.2003 53.37 67.2303 53.98 66.8803C55.59 65.9703 55.58 63.6603 54.67 62.2603C54.23 61.5803 53.59 61.0903 52.91 60.6903C52.53 60.4703 52.12 60.2303 51.67 60.3803C51.22 60.5303 50.96 60.9903 50.77 61.3703C50.33 62.2003 50.1 63.1403 50.15 64.0803C50.18 64.6603 50.35 65.5003 51.05 65.5803C51.55 65.6403 51.88 65.0903 52.03 64.6903C52.12 64.4503 52.16 64.1803 52.22 63.9203C52.27 63.7203 52.32 63.5203 52.36 63.3203C52.46 62.9003 52.56 62.4803 52.66 62.0603L51.53 62.3103C51.66 62.5603 51.77 62.8103 51.87 63.0703C51.89 63.1203 51.91 63.1803 51.92 63.2303C51.95 63.3203 51.94 63.3003 51.9 63.1703C51.91 63.2103 51.92 63.2403 51.93 63.2803C51.96 63.4103 51.99 63.5303 52.02 63.6603C52.05 63.7903 52.06 63.9203 52.08 64.0403C52.09 64.1403 52.08 64.1103 52.08 63.9603C52.08 64.0003 52.08 64.0303 52.09 64.0703C52.09 64.1303 52.09 64.1803 52.1 64.2403C52.11 64.3003 52.1 64.3503 52.1 64.4103C52.11 64.2303 52.12 64.1903 52.1 64.2803V64.3203C52.14 64.1603 52.14 64.1203 52.11 64.2103C52.13 64.1303 52.18 64.0603 52.24 64.0003C52.19 64.0503 52.21 64.0403 52.29 63.9703C52.26 63.9803 52.24 64.0003 52.21 64.0003L52.37 63.9603C52.31 63.9703 52.26 63.9703 52.21 63.9603L52.37 63.9903C52.37 63.9903 52.26 63.9303 52.21 63.9303C52.25 63.9303 52.31 64.0103 52.24 63.9403C52.21 63.9103 52.18 63.8803 52.15 63.8603C52.08 63.8003 52.23 63.9703 52.18 63.9003C52.16 63.8703 52.14 63.8503 52.12 63.8203C52.08 63.7603 52.04 63.7003 52 63.6403C51.98 63.6103 51.96 63.5803 51.94 63.5403C51.88 63.4303 51.94 63.4803 51.94 63.5603C51.92 63.4903 51.87 63.4203 51.84 63.3603C51.77 63.2203 51.72 63.0703 51.66 62.9203C51.65 62.8903 51.64 62.8503 51.62 62.8103C51.58 62.7003 51.67 62.9903 51.64 62.8703C51.62 62.8003 51.6 62.7303 51.59 62.6603C51.58 62.6103 51.55 62.4203 51.57 62.6003C51.59 62.7803 51.57 62.5703 51.57 62.5203C51.57 62.3903 51.57 62.6403 51.57 62.6503C51.57 62.6503 51.58 62.5803 51.58 62.5703C51.59 62.4503 51.55 62.6703 51.55 62.6803C51.58 62.5703 51.51 62.7703 51.5 62.7703C51.5 62.7603 51.6 62.6303 51.5 62.7503C51.48 62.7703 51.41 62.8503 51.5 62.7503C51.57 62.7103 51.37 62.8003 51.45 62.7803C51.49 62.7803 51.53 62.7503 51.56 62.7403L51.4 62.7803C51.57 62.7503 51.74 62.7703 51.91 62.8003L51.75 62.7703C52.02 62.8203 52.28 62.9103 52.52 63.0403C52.55 63.0503 52.58 63.0703 52.61 63.0903C52.7 63.1403 52.6 63.0903 52.59 63.0703C52.61 63.1103 52.73 63.1603 52.77 63.1903C52.88 63.2703 52.98 63.3603 53.08 63.4603C53.1 63.4803 53.12 63.5103 53.15 63.5303C53.12 63.5103 53.06 63.4203 53.12 63.5003C53.16 63.5503 53.2 63.6003 53.24 63.6603C53.26 63.6903 53.33 63.8203 53.27 63.7003C53.21 63.5903 53.27 63.7003 53.27 63.7203C53.29 63.7603 53.28 63.7503 53.26 63.6803C53.24 63.6403 53.23 63.5903 53.23 63.5403C53.23 63.4903 53.23 63.4403 53.23 63.3903C53.23 63.3103 53.23 63.2903 53.23 63.3303C53.23 63.3803 53.23 63.3603 53.24 63.2803C53.24 63.2103 53.27 63.1503 53.31 63.1003C53.3 63.1103 53.27 63.1603 53.27 63.1703C53.27 63.1403 53.38 63.0503 53.31 63.1203C53.29 63.1403 53.27 63.1603 53.24 63.1803C53.16 63.2503 53.27 63.1603 53.27 63.1603C53.27 63.1603 53.18 63.2103 53.17 63.2103C53.1 63.2403 53.04 63.2603 52.97 63.2703L53.13 63.2303C52.82 63.2903 52.52 63.2303 52.22 63.1803L52.38 63.2103C52.31 63.2003 52.25 63.1803 52.19 63.1603C52.15 63.1503 52.11 63.1303 52.08 63.1103C52.06 63.1003 51.95 63.0403 52.05 63.0903C52.17 63.1503 51.89 62.9403 52.01 63.0603C52.05 63.1103 52.06 63.1203 52.03 63.0803L52.1 63.2003L52.17 63.5603C52.19 63.7903 52.12 63.9903 51.98 64.1603C52.26 63.8503 52.33 63.3303 52.16 62.9503C52.09 62.7903 51.98 62.6103 51.8 62.5503C51.65 62.5003 51.47 62.5203 51.36 62.6503C50.98 63.0603 50.92 63.6403 51.12 64.1503C51.25 64.4803 51.52 64.7203 51.83 64.8903C52.08 65.0303 52.39 65.0603 52.68 65.0903C52.99 65.1203 53.34 65.0903 53.62 64.9503C54.43 64.5203 54.66 63.4603 54.28 62.6603C54 62.0603 53.49 61.6003 52.92 61.2803C52.7 61.1503 52.46 61.0503 52.2 60.9903C51.87 60.9103 51.54 60.8503 51.2 60.9403C50.85 61.0403 50.61 61.3803 50.48 61.7103C50.35 62.0403 50.33 62.3903 50.36 62.7203C50.43 63.4503 50.7 64.1503 51.05 64.7903C51.34 65.3103 51.9 66.0503 52.59 65.7603C53.02 65.5803 53.23 65.0703 53.27 64.6303C53.31 64.1903 53.27 63.7703 53.2 63.3403C53.09 62.6403 52.86 61.9403 52.53 61.3003C52.4 61.0603 52.22 60.7903 51.9 60.8603C51.58 60.9303 51.47 61.2703 51.4 61.5503C51.28 62.0603 51.15 62.5703 51.03 63.0703C51 63.2003 50.97 63.3303 50.94 63.4603C50.93 63.5203 50.91 63.5803 50.9 63.6403V63.7003C50.86 63.8003 50.87 63.7803 50.9 63.6303C50.89 63.6703 50.87 63.7103 50.86 63.7503C50.92 63.6203 50.94 63.6003 50.9 63.6703L50.88 63.7103C50.82 63.8403 51 63.6003 50.9 63.6803C50.84 63.7303 50.86 63.7103 50.96 63.6403C50.94 63.6503 50.92 63.6603 50.9 63.6603L51.06 63.6203C51.06 63.6203 51.01 63.6203 50.99 63.6203L51.16 63.6503L51.09 63.6303C51.11 63.6103 51.24 63.7503 51.25 63.7703C51.28 63.8203 51.38 63.9703 51.36 64.0303C51.36 64.0303 51.35 63.9503 51.34 63.9503C51.35 63.9703 51.36 64.2103 51.35 64.0603C51.35 64.0203 51.35 63.9703 51.35 63.9303C51.35 63.8603 51.35 63.7903 51.35 63.7203C51.35 63.6803 51.35 63.6503 51.35 63.6103C51.35 63.4903 51.33 63.8203 51.35 63.7003C51.35 63.6303 51.36 63.5603 51.37 63.4903C51.38 63.4203 51.39 63.3503 51.41 63.2803C51.41 63.2503 51.43 63.2103 51.43 63.1803C51.45 63.0703 51.37 63.4103 51.42 63.2303C51.46 63.0903 51.5 62.9603 51.56 62.8303C51.59 62.7603 51.62 62.7003 51.64 62.6303C51.63 62.6703 51.56 62.7803 51.62 62.6803C51.64 62.6503 51.65 62.6203 51.67 62.5903C51.74 62.4603 51.82 62.3303 51.91 62.2103C51.92 62.1903 51.99 62.1003 51.92 62.1903C51.85 62.2803 51.92 62.1903 51.94 62.1803C51.95 62.1703 52.04 62.0903 51.96 62.1603C51.89 62.2203 51.98 62.1603 52.01 62.1603L51.84 62.2003C51.91 62.1903 51.98 62.1803 52.05 62.2003L51.88 62.1703C52.1 62.2103 52.3 62.3303 52.49 62.4403C52.51 62.4503 52.67 62.5503 52.58 62.4903C52.49 62.4303 52.63 62.5203 52.65 62.5403C52.75 62.6003 52.84 62.6703 52.93 62.7403C53.1 62.8703 53.26 63.0003 53.42 63.1503C53.46 63.1903 53.5 63.2303 53.54 63.2703C53.64 63.3703 53.45 63.1603 53.54 63.2703C53.61 63.3603 53.68 63.4503 53.74 63.5403C53.77 63.5803 53.79 63.6203 53.82 63.6603C53.83 63.6803 53.84 63.7003 53.86 63.7203C53.92 63.8103 53.78 63.5603 53.83 63.6603C53.87 63.7503 53.91 63.8303 53.94 63.9203C53.94 63.9403 53.96 63.9903 53.97 64.0003C53.97 64.0003 53.91 63.7903 53.93 63.8803C53.93 63.9203 53.95 63.9703 53.96 64.0103C53.97 64.0503 53.98 64.1003 53.98 64.1403C54.01 64.3403 53.96 63.9103 53.98 64.1103C53.98 64.2003 53.98 64.3003 53.98 64.4003C53.98 64.4203 54 64.1603 53.98 64.2603C53.98 64.2803 53.98 64.3003 53.98 64.3203C53.98 64.3703 53.97 64.4203 53.96 64.4703C53.92 64.6503 54.02 64.2903 53.97 64.4303C53.96 64.4703 53.94 64.5103 53.93 64.5503C53.93 64.5603 53.88 64.6603 53.88 64.6703C53.88 64.6703 53.98 64.4703 53.92 64.5903C53.91 64.6103 53.89 64.6403 53.88 64.6603C53.85 64.7003 53.83 64.7403 53.8 64.7803C53.7 64.9203 53.91 64.6703 53.79 64.7903C53.72 64.8603 53.64 64.9303 53.56 64.9903C53.49 65.0503 53.68 64.9203 53.6 64.9603C53.58 64.9703 53.55 64.9903 53.53 65.0003C53.49 65.0203 53.44 65.0503 53.4 65.0603C53.3 65.1003 53.19 65.1403 53.08 65.1603L53.25 65.1203C52.95 65.1803 52.66 65.1803 52.36 65.1203L52.53 65.1503C52.31 65.1103 52.1 65.0403 51.9 64.9503C51.88 64.9403 51.62 64.8203 51.62 64.8103C51.62 64.8103 51.77 64.9003 51.66 64.8303C51.64 64.8203 51.62 64.8103 51.6 64.7903C51.55 64.7603 51.5 64.7203 51.46 64.6903C51.37 64.6203 51.29 64.5503 51.21 64.4703C51.17 64.4303 51.13 64.3903 51.09 64.3503C51.03 64.2903 51.14 64.4003 51.14 64.4003C51.14 64.4003 51.07 64.3103 51.06 64.3103C50.99 64.2203 50.92 64.1303 50.86 64.0303C50.83 63.9803 50.8 63.9303 50.77 63.8803C50.74 63.8303 50.72 63.7503 50.8 63.9403C50.79 63.9103 50.77 63.8803 50.76 63.8503C50.71 63.7403 50.66 63.6303 50.62 63.5103C50.55 63.3203 50.66 63.6703 50.62 63.5303C50.6 63.4703 50.59 63.4003 50.57 63.3403C50.56 63.2803 50.55 63.2303 50.54 63.1703C50.51 62.9503 50.55 63.3703 50.54 63.2103C50.54 63.1503 50.54 63.1003 50.54 63.0403C50.54 62.9503 50.58 62.7203 50.54 63.0303C50.55 62.9403 50.54 62.7803 50.59 62.7003C50.59 62.6803 50.53 62.9103 50.56 62.8203C50.56 62.7903 50.58 62.7603 50.59 62.7303C50.61 62.6703 50.63 62.6203 50.65 62.5603C50.66 62.5303 50.67 62.5103 50.68 62.4803C50.71 62.4003 50.64 62.5903 50.63 62.5703C50.63 62.5403 50.69 62.4603 50.7 62.4303C50.73 62.3803 50.75 62.3403 50.78 62.3003C50.8 62.2803 50.81 62.2503 50.83 62.2303C50.85 62.2103 50.93 62.1003 50.85 62.2003C50.77 62.3003 50.89 62.1503 50.92 62.1203C50.96 62.0803 51 62.0303 51.05 61.9903C51.1 61.9403 51.15 61.9003 51.2 61.8603C51.22 61.8503 51.24 61.8303 51.25 61.8203C51.37 61.7303 51.23 61.8403 51.23 61.8303C51.23 61.8303 51.52 61.6703 51.54 61.6603C51.66 61.6103 51.79 61.5603 51.91 61.5303L51.74 61.5703C52.04 61.5003 52.35 61.5103 52.65 61.5703L52.48 61.5403C52.84 61.6103 53.18 61.7403 53.51 61.8903C53.65 61.9603 53.8 62.0303 53.94 62.1003C54 62.1303 54.06 62.1603 54.12 62.2003C54.16 62.2203 54.19 62.2403 54.23 62.2603C54.27 62.2903 54.26 62.2803 54.19 62.2303C54.21 62.2403 54.23 62.2603 54.25 62.2703C54.37 62.3503 54.49 62.4303 54.6 62.5203C54.66 62.5703 54.73 62.6303 54.79 62.6903C54.81 62.7103 54.84 62.7403 54.86 62.7603C54.98 62.8803 54.76 62.6303 54.86 62.7603C54.91 62.8203 54.95 62.8803 54.99 62.9403C55.01 62.9703 55.03 63.0303 55.05 63.0403C55.05 63.0403 54.96 62.8503 55.02 62.9803C55.05 63.0403 55.08 63.1003 55.1 63.1603C55.12 63.2003 55.13 63.2403 55.14 63.2703C55.17 63.3603 55.08 63.0403 55.13 63.2303C55.15 63.3003 55.16 63.3703 55.18 63.4503C55.18 63.4803 55.18 63.5203 55.2 63.5503C55.23 63.7303 55.18 63.3403 55.2 63.4703C55.2 63.5403 55.2 63.6203 55.21 63.6903C55.21 63.7203 55.21 63.7603 55.21 63.7903C55.21 63.8203 55.21 63.8603 55.21 63.8903V63.7303C55.23 63.8703 55.18 64.0403 55.15 64.1803C55.15 64.2103 55.13 64.2503 55.13 64.2803C55.16 64.0403 55.16 64.1503 55.14 64.2203C55.12 64.3103 55.09 64.3903 55.06 64.4803C55.04 64.5403 55.02 64.6003 54.99 64.6603C54.97 64.7003 54.96 64.7303 54.94 64.7703C54.89 64.8703 55.04 64.5703 54.96 64.7203C54.89 64.8503 54.83 64.9703 54.75 65.0903C54.71 65.1603 54.66 65.2203 54.62 65.2903C54.59 65.3403 54.53 65.3903 54.51 65.4403C54.56 65.3103 54.58 65.3503 54.53 65.4103C54.5 65.4403 54.48 65.4703 54.45 65.5003C54.4 65.5603 54.34 65.6103 54.29 65.6703C54.18 65.7803 54.06 65.8803 53.93 65.9803C53.9 66.0003 53.87 66.0303 53.84 66.0503C53.82 66.0603 53.8 66.0803 53.78 66.0903C53.86 66.0403 53.87 66.0303 53.83 66.0603C53.76 66.1103 53.68 66.1503 53.61 66.1903C53.31 66.3603 52.98 66.4803 52.65 66.5603L52.82 66.5203C52.34 66.6303 51.84 66.6403 51.36 66.5603L51.53 66.5903C51.13 66.5203 50.75 66.3803 50.39 66.1803C50.24 66.1003 50.51 66.2603 50.38 66.1803C50.34 66.1503 50.3 66.1303 50.27 66.1003C50.21 66.0603 50.15 66.0103 50.09 65.9603C50.02 65.9003 49.95 65.8403 49.89 65.7803C49.86 65.7503 49.83 65.7203 49.79 65.6803C49.77 65.6603 49.75 65.6403 49.73 65.6103C49.68 65.5503 49.69 65.5703 49.77 65.6603C49.74 65.6003 49.67 65.5403 49.63 65.4803C49.57 65.4103 49.52 65.3303 49.47 65.2603C49.42 65.1903 49.37 65.1103 49.32 65.0303C49.3 64.9903 49.27 64.9503 49.25 64.9103L49.31 65.0203C49.31 65.0203 49.28 64.9703 49.27 64.9403C49.19 64.7703 49.11 64.6003 49.05 64.4303C49.02 64.3603 49 64.2803 48.97 64.2103C48.95 64.1403 48.92 63.9803 48.98 64.2603C48.97 64.2003 48.95 64.1403 48.93 64.0803C48.89 63.9103 48.85 63.7503 48.82 63.5803C48.8 63.4903 48.79 63.4003 48.78 63.3003C48.78 63.2303 48.76 63.0503 48.78 63.3703C48.78 63.3103 48.77 63.2503 48.76 63.1803C48.75 63.0103 48.74 62.8403 48.74 62.6603C48.74 62.5603 48.74 62.4703 48.74 62.3703C48.74 62.3303 48.74 62.2903 48.74 62.2503C48.74 62.1703 48.74 62.2203 48.74 62.3903C48.74 62.3603 48.74 62.3303 48.74 62.2903C48.76 62.1003 48.78 61.9103 48.82 61.7203C48.83 61.6403 48.85 61.5603 48.87 61.4903C48.91 61.3103 48.81 61.7103 48.86 61.5403C48.88 61.4803 48.89 61.4203 48.91 61.3603C48.96 61.2003 49.04 61.0403 49.09 60.8803C49.02 61.1003 49.04 60.9703 49.08 60.9103C49.1 60.8703 49.12 60.8303 49.15 60.7903C49.2 60.7003 49.26 60.6003 49.32 60.5203C49.34 60.4903 49.36 60.4703 49.37 60.4403C49.39 60.4203 49.41 60.3903 49.43 60.3703C49.36 60.4603 49.34 60.4803 49.4 60.4103C49.47 60.3303 49.55 60.2503 49.63 60.1703C49.7 60.1003 49.78 60.0403 49.86 59.9703C49.9 59.9403 49.94 59.9003 49.98 59.8803C49.82 59.9703 50.02 59.8603 50.05 59.8403C50.45 59.6003 50.9 59.4503 51.35 59.3403L51.19 59.3803C52.06 59.1903 52.95 59.1803 53.83 59.3303L53.67 59.3003C54.45 59.4403 55.17 59.7203 55.86 60.1103C56.01 60.1903 55.74 60.0303 55.89 60.1303C55.93 60.1603 55.98 60.1803 56.02 60.2103C56.09 60.2603 56.16 60.3103 56.23 60.3503C56.39 60.4703 56.55 60.5903 56.7 60.7303C56.77 60.7903 56.83 60.8503 56.9 60.9203C56.93 60.9503 56.96 60.9803 56.99 61.0103L57.02 61.0503C57.07 61.1103 57.07 61.1003 56.99 61.0203C57.05 61.0603 57.1 61.1603 57.15 61.2103C57.22 61.3003 57.29 61.4003 57.35 61.4903C57.37 61.5203 57.4 61.5903 57.42 61.6203C57.41 61.6203 57.33 61.4403 57.39 61.5703C57.43 61.6603 57.47 61.7503 57.51 61.8403C57.54 61.9203 57.54 62.0403 57.51 61.8103C57.51 61.8403 57.53 61.8803 57.54 61.9003C57.55 61.9503 57.56 62.0003 57.57 62.0403C57.57 62.0703 57.58 62.1003 57.59 62.1403C57.57 61.9803 57.57 61.9503 57.58 62.0403C57.58 62.1203 57.58 62.2003 57.58 62.2803C57.58 62.4603 57.61 62.0503 57.58 62.2303C57.58 62.2803 57.57 62.3303 57.56 62.3703C57.55 62.4503 57.46 62.7003 57.56 62.4303C57.52 62.5403 57.5 62.6503 57.46 62.7503C57.43 62.8203 57.38 62.9003 57.36 62.9703L57.41 62.8703C57.41 62.8703 57.38 62.9303 57.36 62.9603C57.34 63.0003 57.31 63.0503 57.29 63.0903C57.2 63.2503 57.09 63.4003 56.98 63.5503C56.96 63.5803 56.87 63.7203 56.98 63.5603C56.95 63.6003 56.91 63.6403 56.88 63.6803C56.82 63.7403 56.77 63.8103 56.71 63.8703C56.57 64.0203 56.42 64.1603 56.27 64.2903C56.1 64.4403 55.92 64.5803 55.74 64.7103C55.7 64.7403 55.65 64.7703 55.61 64.8003C55.55 64.8403 55.55 64.8403 55.61 64.8003C55.59 64.8103 55.56 64.8303 55.54 64.8403C55.44 64.9003 55.34 64.9603 55.24 65.0203C54.84 65.2503 54.41 65.4303 53.96 65.5403L54.12 65.5003C53.64 65.6103 53.15 65.6203 52.66 65.5303L52.82 65.5603C52.55 65.5103 52.28 65.4403 52.02 65.3303C51.9 65.2803 51.79 65.2303 51.68 65.1803C51.62 65.1503 51.56 65.1203 51.49 65.0803C51.46 65.0603 51.44 65.0503 51.41 65.0303C51.51 65.1003 51.34 64.9903 51.41 65.0303C51.17 64.8803 50.95 64.7103 50.74 64.5203C50.65 64.4403 50.56 64.3503 50.47 64.2603C50.36 64.1503 50.55 64.3503 50.48 64.2703C50.46 64.2503 50.44 64.2203 50.42 64.2003C50.37 64.1403 50.32 64.0803 50.28 64.0203C50.2 63.9103 50.13 63.8003 50.06 63.6903C50.03 63.6303 49.99 63.5803 49.96 63.5203C49.89 63.4003 49.98 63.5403 49.98 63.5603C49.97 63.5203 49.93 63.4603 49.91 63.4203C49.85 63.3003 49.8 63.1703 49.75 63.0403C49.72 62.9703 49.7 62.9003 49.67 62.8203C49.66 62.7803 49.65 62.7303 49.63 62.7003C49.67 62.7503 49.68 62.8603 49.64 62.7303C49.56 62.4403 49.51 62.1403 49.47 61.8403C49.51 62.1103 49.47 61.8803 49.47 61.8103C49.47 61.7303 49.46 61.6503 49.46 61.5803C49.46 61.4203 49.46 61.2703 49.46 61.1103C49.46 61.0703 49.46 61.0203 49.46 60.9803C49.46 60.9203 49.49 60.8503 49.46 61.0503C49.47 60.9803 49.47 60.9103 49.48 60.8403C49.5 60.6803 49.52 60.5303 49.54 60.3703C49.56 60.2203 49.59 60.0803 49.63 59.9303V59.9003C49.65 59.8303 49.65 59.8303 49.63 59.9003V59.9503C49.63 59.9503 49.63 59.8803 49.64 59.8503C49.66 59.7803 49.68 59.7003 49.7 59.6303C49.78 59.3603 49.88 59.0903 50 58.8203C50.01 58.7903 50.03 58.7603 50.04 58.7303C50.04 58.7203 50.11 58.5703 50.06 58.6803C50.02 58.7803 50.06 58.6803 50.07 58.6603C50.08 58.6303 50.1 58.6003 50.11 58.5703C50.18 58.4303 50.26 58.3003 50.34 58.1603C50.48 57.9203 50.64 57.6903 50.81 57.4703C50.83 57.4403 50.86 57.4103 50.89 57.3703C50.95 57.3003 50.81 57.4603 50.87 57.3903C50.92 57.3303 50.96 57.2803 51.01 57.2203C51.11 57.1103 51.21 57.0003 51.31 56.9003C51.51 56.7003 51.73 56.5103 51.96 56.3403C52.01 56.3003 52.07 56.2603 52.12 56.2303C52.2 56.1703 51.99 56.3103 52.13 56.2303C52.16 56.2103 52.19 56.1903 52.22 56.1703C52.35 56.0903 52.49 56.0103 52.62 55.9403C52.92 55.7803 53.23 55.6503 53.55 55.5503C53.63 55.5203 53.71 55.5003 53.8 55.4803C53.83 55.4803 53.87 55.4603 53.9 55.4503C53.93 55.4503 53.95 55.4403 53.98 55.4303C53.93 55.4403 53.92 55.4403 53.96 55.4303C54.12 55.4003 54.28 55.3703 54.44 55.3503C54.78 55.3103 55.13 55.3003 55.47 55.3203C55.56 55.3203 55.64 55.3303 55.73 55.3503C55.76 55.3503 55.8 55.3503 55.83 55.3603C55.85 55.3603 56 55.3903 55.89 55.3603C56.06 55.3903 56.23 55.4303 56.39 55.4803C56.75 55.5903 56.99 55.2203 57.03 54.9003C57.07 54.5803 57 54.0303 56.64 53.9203V54.0803Z" fill="black"/>
<path d="M49.71 44.4503C49.52 44.2703 48.03 43.3003 48.68 43.7003C48.15 43.3803 47.66 43.0703 47.06 42.9003C45.99 42.5903 44.81 42.4903 43.71 42.7003C41.1 43.2003 39.18 45.4203 37.9 47.6303C34.97 52.7003 32.75 60.4503 37.75 65.0303C39.5 66.6303 42.01 67.2903 44.27 67.7603C46.9 68.3103 49.47 68.5703 52.11 67.9603C57.35 66.7503 61.23 62.5703 61.7 57.1103C61.98 53.8403 61.36 50.3903 59.15 47.8503C57.5 45.9403 55.36 44.6603 53.01 43.7803C51.79 43.3203 50.42 42.9403 49.1 42.9803C47.44 43.0403 46.05 43.7403 44.72 44.6803C42.58 46.1903 40.67 48.2303 39.78 50.7303C38.57 54.1203 39.3 58.7703 42.32 61.0403C44.44 62.6403 46.95 62.7903 49.47 62.2403C52.38 61.6003 55.01 60.1703 56.13 57.2103C57.03 54.8203 56.96 51.9003 55.46 49.7503C54.59 48.5003 53.01 47.6803 51.71 46.9703C49.08 45.5403 45.49 45.3703 43.33 47.7603C40.34 51.0603 40.21 57.2903 43.92 60.1703C46.63 62.2803 50.59 62.4603 52.63 59.3203C54.08 57.0903 54.36 53.9403 53.27 51.4903C52.48 49.7003 50.95 47.9903 48.83 48.0903C46.49 48.2003 45.54 51.2703 45.64 53.2203C45.74 55.0503 46.65 58.3003 49.08 58.1803C49.46 58.1803 49.4 58.1603 48.89 58.1303C48.5 58.0003 48.23 57.7203 48.08 57.3203C46.92 55.8903 46.86 54.1403 47.92 52.0803C48.32 51.6403 48.36 51.5803 48.04 51.8803L48.36 51.6403C48 51.7703 48.03 51.7803 48.43 51.6703C48.3 51.6703 47.41 51.6203 48.13 51.7503C47.83 51.6903 47.56 51.5403 47.27 51.4603C46.54 51.2503 47.77 51.7103 46.96 51.2703C46.74 51.0703 46.8 51.1603 47.16 51.5303C47.57 52.2203 47.78 52.9903 47.78 53.8203C47.78 54.5203 47.73 55.3203 47.33 55.9203C46.84 56.6803 47.1 56.1803 47.4 55.9403C46.75 56.4603 47.44 56.0203 47.68 55.9503C46.98 56.1403 47.99 56.0003 48.18 56.0003C48.34 56.0003 48.49 56.0203 48.65 56.0403C48.28 55.9703 48.28 55.9903 48.68 56.0903C49.3 56.3603 49.92 56.5903 50.52 56.9303C49.9 56.5803 50.74 57.0803 50.86 57.1603C51.02 57.2603 51.18 57.3703 51.33 57.4803C51.66 57.7503 51.58 57.6603 51.1 57.2003L50.19 54.9903L50.11 54.2203L50.5 51.6503C50.25 52.6203 51.03 50.8703 50.51 51.6503C51.17 50.6603 50.64 51.5803 50.41 51.6103L50.74 51.3903C50.62 51.4603 50.5 51.5303 50.38 51.5903C50.17 51.7003 49.96 51.7903 49.74 51.8803C49.47 51.9803 49.2 52.0603 48.93 52.1503C48.06 52.4503 49.69 52.0503 48.67 52.2203C48.02 52.3203 47.37 52.4303 46.71 52.4203C46.63 52.4203 45.61 52.2803 46.31 52.4303C46.12 52.3903 45.93 52.3303 45.75 52.2603L45.51 52.1603C45.15 51.9803 45.19 52.0103 45.63 52.2603C45.4 52.2703 44.82 51.3103 45.56 52.3203C45.14 51.7403 45.67 52.6003 45.7 52.6803C45.98 53.3903 46.04 54.2503 45.91 55.0003L45.73 55.6803C45.9 55.2403 45.85 55.3303 45.58 55.9503C45.7 55.8703 46.2 54.8903 45.6 55.8103C46.17 54.9403 47.26 54.1203 48.11 53.5203C47.46 53.9803 48.32 53.4303 48.42 53.3803C48.38 53.4003 49.34 53.0003 48.87 53.1603C48.44 53.3103 49.4 53.1103 49.42 53.1103C49.65 53.1103 49.87 53.1103 50.1 53.1403C49.78 53.0603 49.82 53.0703 50.22 53.1603C51.33 53.4603 52.41 53.9003 53.43 54.4203C53.6 54.5103 53.77 54.6103 53.94 54.6903C53.15 54.2903 53.94 54.6903 54.1 54.8003C54.33 54.9603 54.55 55.1303 54.77 55.3203C54.88 55.4103 54.98 55.5003 55.08 55.6003C55.29 55.8103 55.22 55.7203 54.87 55.3303C55.07 55.4403 55.24 55.8203 55.37 56.0003C55.94 56.7603 55.01 55.0903 55.34 55.9903C54.91 54.8003 55.16 55.2703 55.22 55.5903C55.41 56.6203 55.19 54.3003 55.21 55.3503C55.23 56.4003 55.45 54.1003 55.23 55.1203C55.2 55.2703 55.12 56.1803 55.21 55.3403C55.3 54.5503 55.16 55.3403 55.1 55.5403C54.91 55.9803 54.96 55.8903 55.23 55.2703C55.14 55.4403 55.04 55.6003 54.94 55.7603C54.87 55.8703 54.31 56.4203 54.75 56.0403C55.24 55.6203 54.53 56.2303 54.48 56.2703C54.27 56.4703 54.04 56.6503 53.81 56.8403C53.13 57.4303 54.24 56.6503 53.75 56.8803C53.26 57.1103 52.81 57.4003 52.3 57.6003C52.03 57.7103 51.75 57.8103 51.46 57.8903C51.29 57.9403 50.44 58.1103 51.19 57.9803C49.96 58.2003 48.73 58.2703 47.49 58.1803C46.89 58.1403 46.28 58.0703 45.69 57.9603C46.28 58.0703 45.11 57.8203 45.14 57.8303C44.67 57.7203 44.19 57.6003 43.73 57.4703C43.27 57.3403 42.77 57.1903 42.3 57.0203C42.03 56.9203 41.78 56.7903 41.51 56.6903C40.72 56.4103 41.84 57.0003 41.46 56.6903C41.39 56.6303 40.9 56.3403 40.92 56.2603L41.23 56.6303C40.97 56.2503 40.99 56.3403 41.31 56.9103C40.91 56.0003 41.46 58.0103 41.34 57.0303L41.43 57.7903C41.43 57.2503 41.41 57.4103 41.37 58.2503C41.39 58.2003 41.52 57.3803 41.51 57.3703C41.32 58.0803 41.3 58.1803 41.44 57.6903C41.48 57.5403 41.53 57.4003 41.58 57.2503C41.79 56.6303 42.04 56.0203 42.31 55.4203C42.39 55.2303 42.47 55.0503 42.55 54.8703C42.64 54.6903 42.72 54.5003 42.8 54.3103C43 53.8803 42.97 53.9403 42.71 54.4903C42.83 53.9403 43.33 53.3803 43.63 52.9103C44.14 52.1103 43.06 53.3903 43.76 52.7403C44.05 52.4703 44.31 52.2003 44.63 51.9503C44.53 52.0303 44.03 52.3303 44.58 52.0203C44.91 51.8403 45.2 51.6303 45.55 51.4803C45.64 51.4403 46.46 51.2003 45.81 51.3303C46.07 51.2803 46.33 51.3003 46.59 51.2703H46.84C46.52 51.2003 46.52 51.2103 46.84 51.2903C47.15 51.4103 47.15 51.4003 46.84 51.2503C46.98 51.3503 47.11 51.4703 47.22 51.6003C48.61 52.9503 50.4 51.4703 50.87 50.0403C51.49 48.1503 51.23 45.8803 49.77 44.4503H49.71Z" fill="black"/>
<path d="M51.61 53.8102C51.91 53.7502 52.22 53.6902 52.51 53.5902C52.82 53.4702 53.1 53.2402 53.37 53.0602L52.93 53.3602C53.02 53.3002 53.11 53.2402 53.2 53.1802C53.46 53.0402 53.66 52.8302 53.8 52.5602C53.84 52.5102 53.87 52.4602 53.9 52.4202C53.97 52.3102 54.04 52.2002 54.11 52.0902C54.33 51.7002 54.53 51.2902 54.68 50.8602C55.1 49.6802 55.21 48.4502 54.98 47.2202L52.18 50.6602C52.24 50.7102 52.3 50.7602 52.36 50.8102L51.67 49.8102L51.7 49.8802L51.5 49.2102C51.56 49.4202 51.6 49.6202 51.62 49.8402L51.54 49.1002C51.59 49.6202 51.63 50.1302 51.7 50.6502C51.76 51.0902 51.89 51.5302 52.05 51.9402C52.37 52.8202 53.03 53.7002 53.93 54.0302C54.55 54.2602 55.1 53.9802 55.49 53.5002C56 52.8702 56.12 52.1202 56.15 51.3302C56.15 51.1202 56.17 50.9102 56.18 50.7002L54.45 53.4802C54.52 53.4802 54.59 53.4802 54.66 53.5002L54.18 53.4102C54.3 53.4402 54.4 53.4802 54.51 53.5402L54.08 53.2802C54.16 53.3302 54.23 53.3902 54.29 53.4602L53.92 53.0402C53.97 53.1002 54 53.1502 54.04 53.2102L54.41 53.6302C54.6 53.8202 54.83 53.9202 55.08 53.9402C55.52 54.0202 55.87 53.8802 56.21 53.5902C56.62 53.2402 56.94 52.6902 57.1 52.1802C57.36 51.3802 57.43 50.4702 57.23 49.6402L54.68 52.7802C54.89 52.9102 55.08 53.0702 55.24 53.2502L54.87 52.8302C54.92 52.8902 54.96 52.9402 55.01 53.0002C55.32 53.4002 55.75 53.7802 56.29 53.7602C56.8 53.7502 57.28 53.3602 57.53 52.9302C57.87 52.3502 58.04 51.6602 58 51.0002C57.96 50.3402 57.83 49.6302 57.43 49.0902C57.13 48.6902 56.78 48.2902 56.36 48.0202C56.08 47.8402 55.79 47.6602 55.45 47.6702C55.01 47.6802 54.65 47.9502 54.38 48.2802C54.11 48.6102 53.96 48.9702 53.86 49.3802C53.72 49.9402 53.68 50.5802 53.81 51.1502C53.82 51.1902 53.83 51.2402 53.84 51.2802L53.76 50.5602C53.76 50.5602 53.76 50.6502 53.76 50.6902L53.81 49.9602C53.81 49.9602 53.8 50.0502 53.79 50.0902L53.95 49.4302C53.93 49.5002 53.91 49.5602 53.88 49.6202L54.15 49.0602C54.15 49.0602 54.1 49.1402 54.08 49.1702L54.43 48.7302C54.38 48.7802 54.34 48.8302 54.29 48.8702L56.47 49.2402C56.2 48.7602 55.79 48.4602 55.33 48.1902C55.03 48.0202 54.66 47.9502 54.32 47.9402C53.82 47.9202 53.3 48.3702 53.07 48.7702L52.8 49.3302C52.65 49.7802 52.57 50.2402 52.59 50.7202C52.59 50.8402 52.58 50.9602 52.57 51.0802L52.62 50.3502C52.62 50.4402 52.61 50.5302 52.6 50.6202L54.77 48.6502C54.71 48.6202 54.66 48.6002 54.6 48.5702L55.04 48.8402C54.95 48.7802 54.88 48.7202 54.8 48.6402L55.18 49.0602C55.1 48.9602 55.03 48.8602 54.97 48.7502L55.27 49.3002C55.21 49.1802 55.16 49.0602 55.13 48.9402L55.33 49.6002C55.28 49.4302 55.25 49.2602 55.23 49.0802L55.31 49.8202C55.28 49.5302 55.28 49.2302 55.25 48.9402C55.22 48.5802 55.19 48.2302 55.13 47.8702C55.07 47.5102 54.94 47.1602 54.84 46.8102L55.13 48.2302C55.13 47.8702 55.07 47.5002 55.02 47.1502L54.8 46.4402C54.69 46.1202 54.51 45.8502 54.27 45.6102C53.98 45.2802 53.54 44.9502 53.07 45.0002C52.7 45.0302 52.38 45.2002 52.09 45.4302C51.62 45.8102 51.3 46.6602 51.23 47.2402C51.18 47.7002 51.14 48.1602 51.12 48.6202L51.17 47.8102C51.15 48.0802 51.11 48.3502 51.04 48.6102L51.22 47.8902C51.15 48.1502 51.06 48.4102 50.94 48.6602L51.23 48.0602C51.05 48.4402 50.83 48.8002 50.68 49.2002C50.6 49.4102 50.5 49.6202 50.41 49.8302L50.66 49.3002C50.59 49.4502 50.51 49.5902 50.43 49.7302C49.98 50.5102 49.91 51.4802 50.17 52.3302C50.28 52.6802 50.43 52.9902 50.67 53.2702C50.88 53.5102 51.27 53.8202 51.63 53.7602L51.61 53.8102Z" fill="black"/>
<path d="M40.5201 28.8203C40.5101 30.9003 41.6201 32.6303 42.5401 34.4103C43.4601 36.1903 44.3401 37.8203 45.2501 39.5203C45.8201 40.5703 46.6301 42.1903 47.1401 43.5403C47.1801 43.6503 47.5001 44.6103 47.3801 44.2003C47.4901 44.5803 47.5801 44.9703 47.6501 45.3503C47.6801 45.5203 47.7101 45.6803 47.7301 45.8503C47.7001 45.5103 47.7001 45.5503 47.7301 45.9603C47.7301 46.0903 47.6801 47.3503 47.7301 46.7503C47.5901 48.1503 47.8301 50.2803 49.3801 50.8603C50.8501 51.4103 51.9301 49.6703 52.0501 48.4403C52.4701 44.1203 51.1801 40.1903 49.1901 36.4103C48.2301 34.5803 47.2301 32.7603 46.2001 30.9603C45.7101 30.1103 45.2301 29.2603 44.7401 28.4103C44.2501 27.5603 43.6601 26.5303 42.6301 26.2403C41.1101 25.8103 40.5301 27.6603 40.5201 28.8103V28.8203Z" fill="black"/>
<path d="M52.1401 44.0104C52.1801 44.3104 52.2101 44.6004 52.2501 44.9004L52.1901 44.4104C52.2001 44.6304 52.2101 44.8404 52.2301 45.0604C52.2501 45.3604 52.2601 45.6704 52.3201 45.9604C52.3401 46.0704 52.3801 46.1804 52.4101 46.3004C52.5201 46.7104 52.6201 47.1404 52.7801 47.5204C52.8701 47.7304 52.9501 47.9504 53.0401 48.1604C53.3901 49.0104 53.7601 49.8604 54.1501 50.7004C54.2601 50.9304 54.3601 51.1604 54.4701 51.3904C54.5201 51.5004 54.5801 51.6204 54.6301 51.7304C54.6601 51.7904 54.6901 51.8504 54.7201 51.9204C54.8001 52.0804 54.9001 52.2804 55.0001 52.4404C55.1001 52.6004 55.2401 52.7404 55.3901 52.8704L55.7701 53.1004L56.1901 53.1804L56.6101 53.0804C56.8301 52.9804 57.0001 52.8404 57.1301 52.6404C57.2501 52.5204 57.3401 52.3704 57.4001 52.2004C57.5001 52.0404 57.5601 51.8604 57.5901 51.6704C57.6601 51.4704 57.6901 51.2704 57.6801 51.0604C57.7201 50.7404 57.7001 50.4204 57.6301 50.1104C57.6101 49.9804 57.5801 49.9004 57.5301 49.7504C57.4901 49.6104 57.4701 49.5104 57.4101 49.4004C57.3901 49.3604 57.3701 49.3204 57.3501 49.2804C57.3001 49.1804 57.2501 49.0704 57.2001 48.9704C57.1101 48.7804 57.0201 48.5904 56.9301 48.3904C56.7501 48.0004 56.5701 47.6104 56.3901 47.2204C56.2101 46.8304 56.0501 46.4404 55.8801 46.0504C55.8001 45.8504 55.7101 45.6504 55.6301 45.4504C55.5501 45.2504 55.4801 45.0404 55.3701 44.8504C55.2601 44.6504 55.1601 44.4504 55.0601 44.2504C55.0501 44.2304 55.0301 44.2004 55.0201 44.1804L54.7701 43.7204C54.6801 43.5804 54.5701 43.4604 54.4401 43.3504C54.4101 43.3204 54.3801 43.2904 54.3501 43.2604C54.2901 43.1904 54.2301 43.1204 54.1601 43.0504L54.4401 43.3604C54.3201 43.2204 54.2001 43.0904 54.0901 42.9404C53.9801 42.7904 53.8801 42.6304 53.7701 42.4804L53.5601 42.2404C53.4501 42.1304 53.3201 42.0704 53.1801 42.0704C53.0901 42.0404 53.0001 42.0404 52.9101 42.0704C52.7601 42.0904 52.6401 42.1504 52.5401 42.2604C52.3801 42.4204 52.2701 42.6204 52.1901 42.8204C52.1201 43.0104 52.0801 43.2004 52.0801 43.4004C52.0501 43.6104 52.0701 43.8104 52.1101 44.0204L52.1401 44.0104Z" fill="black"/>
<path d="M54.9 53.5403C55.4 53.9903 55.9 54.4303 56.4 54.8803C56.46 54.9303 56.52 54.9903 56.58 55.0403C56.64 55.0903 56.72 55.1303 56.79 55.1803L57.19 55.4403L58 55.9703L58.9 56.5503L60.02 52.1003C59.65 51.9503 59.27 51.8003 58.9 51.6503C58.71 51.5703 58.52 51.5003 58.33 51.4203C58.3 51.4103 58.26 51.4003 58.23 51.3903C58.14 51.3703 57.89 51.3203 57.8 51.3103C57.8 51.3103 57.78 51.3103 57.77 51.3103C57.69 51.3103 57.55 51.3603 57.51 51.3603C57.4 51.3903 57.34 51.3803 57.27 51.4203C56.91 51.6203 56.93 51.6203 56.72 51.8903C56.51 52.1603 56.59 52.0203 56.44 52.3403C56.34 52.5503 56.36 52.5003 56.32 52.6003C56.59 51.9203 56.2 53.0003 56.17 53.1903L56.13 53.8403C56.13 53.9503 56.15 54.0603 56.17 54.1703C56.23 54.6603 56.19 54.3803 56.21 54.5003C56.29 54.9303 56.35 55.0103 56.52 55.3203C56.32 54.9603 56.61 55.5003 56.65 55.5703C56.67 55.6003 56.96 55.9203 56.99 55.9503C56.99 55.9503 56.99 55.9503 57 55.9603C57.03 55.9803 57.36 56.1903 57.4 56.2003C57.4 56.2003 57.42 56.2003 57.43 56.2103C57.45 56.2103 57.84 56.2903 57.86 56.2903C57.88 56.2903 58.27 56.2003 58.29 56.1903C58.29 56.1903 58.29 56.1903 58.3 56.1903C58.32 56.1903 58.66 55.9403 58.68 55.9303L58.99 55.5403C59.07 55.3703 59.15 55.2003 59.23 55.0403C59.26 54.9403 59.28 54.8403 59.3 54.7403L59.37 54.4503L59.41 53.8003C59.41 53.6603 59.35 53.2803 59.34 53.1403C59.29 52.8503 59.19 52.5703 59.03 52.3203C58.93 52.0803 58.77 51.8803 58.57 51.7103C58.4 51.5403 58.2 51.4503 57.97 51.4403C57.76 51.3703 57.55 51.3903 57.34 51.5003L56.97 51.7503C56.72 52.0003 56.53 52.3003 56.42 52.6303L56.27 53.2103C56.2 53.6403 56.22 54.0703 56.3 54.5003C56.28 54.2903 56.25 54.0803 56.23 53.8703C56.29 53.4703 56.35 53.0603 56.42 52.6503C56.5 52.4903 56.58 52.3203 56.66 52.1603C56.76 52.0403 56.87 51.9103 56.97 51.7803C57.09 51.7003 57.22 51.6103 57.34 51.5303C57.34 51.5303 57.34 51.5303 57.33 51.5303L57.75 51.4303C57.75 51.4303 57.75 51.4303 57.74 51.4303L58.17 51.5103C58.17 51.5103 58.15 51.5103 58.13 51.5003L58.52 51.7403C58.52 51.7403 58.51 51.7403 58.5 51.7203L58.83 52.0903C58.83 52.0903 58.83 52.0903 58.83 52.0803L59.09 52.5603C59.15 52.7403 59.21 52.9403 59.26 53.1303C59.28 53.3403 59.31 53.5503 59.33 53.7703C59.32 53.9803 59.3 54.1903 59.29 54.4103C59.24 54.6003 59.19 54.7903 59.14 54.9903C59.06 55.1503 58.98 55.3103 58.9 55.4803C58.8 55.6003 58.69 55.7303 58.59 55.8603C58.59 55.8603 58.6 55.8503 58.61 55.8403L58.24 56.0903C58.24 56.0903 58.26 56.0803 58.27 56.0703L57.85 56.1703C57.85 56.1703 57.9 56.1703 57.93 56.1703L57.5 56.0903C57.57 56.1003 57.63 56.1303 57.7 56.1603L57.93 56.2503C58.08 56.3103 58.23 56.3703 58.39 56.4303C58.69 56.5503 59 56.6703 59.31 56.7903C59.52 56.8903 59.73 56.8903 59.94 56.8203C60.17 56.7903 60.36 56.6903 60.52 56.5203L60.83 56.1303C60.99 55.8903 61.09 55.6203 61.14 55.3403C61.21 55.1403 61.24 54.9403 61.23 54.7303C61.27 54.4103 61.25 54.0903 61.18 53.7703L61.01 53.2003C60.88 52.8703 60.68 52.5803 60.42 52.3503C59.88 52.0103 59.34 51.6803 58.81 51.3403L58.39 51.0803L58.2 50.9603C58.01 50.8403 57.83 50.7103 57.63 50.6303L56.81 50.3003C56.49 50.1703 56.18 50.0403 55.86 49.9203C55.68 49.8403 55.51 49.8303 55.34 49.9003C55.15 49.9203 54.99 50.0003 54.86 50.1503L54.6 50.4703C54.47 50.6703 54.39 50.8903 54.35 51.1203C54.29 51.2803 54.27 51.4503 54.27 51.6203C54.24 51.8903 54.25 52.1503 54.31 52.4103L54.45 52.8803C54.56 53.1503 54.72 53.3903 54.94 53.5803L54.9 53.5403Z" fill="black"/>
<path d="M53.73 50.0001C53.7 49.9401 53.66 49.8801 53.63 49.8301L53.83 50.1901C53.73 49.9501 53.58 49.6901 53.37 49.5201C53.26 49.4301 53.14 49.3801 53.02 49.3101C52.97 49.2801 52.92 49.2501 52.86 49.2201C52.75 49.1601 52.64 49.0901 52.52 49.0401C52.3 48.9501 52.07 48.8901 51.83 48.9101C51.7 48.9201 51.58 48.9301 51.45 48.9501C50.86 49.0801 50.27 49.2201 49.68 49.3901C48.91 49.6101 48.12 49.8401 47.44 50.2601C47.14 50.4401 46.84 50.6401 46.58 50.8701C46.5 50.9401 46.42 51.0201 46.35 51.0901C46.31 51.1301 46.28 51.1701 46.24 51.2101C46.12 51.3501 45.99 51.4801 45.9 51.6301C45.7 51.9601 45.57 52.3201 45.52 52.7101C45.5 52.9301 45.49 53.1501 45.48 53.3701C45.48 53.6901 45.53 54.0001 45.64 54.2901C45.7 54.5701 45.82 54.8201 45.99 55.0601L46.32 55.4301C46.55 55.6301 46.82 55.7401 47.12 55.7401H47.13C47.37 55.7401 47.57 55.6701 47.74 55.5201C47.95 55.4001 48.12 55.2301 48.24 55.0101V54.9901C48.15 55.1201 48.05 55.2501 47.94 55.3801C48.13 55.1401 48.37 54.9401 48.62 54.7601L48.25 55.0101C48.62 54.7601 49.04 54.5701 49.46 54.4201C49.95 54.2401 50.45 54.0901 50.95 53.9601C51.26 53.8801 51.57 53.8001 51.88 53.7301L51.46 53.8301C51.73 53.7701 51.99 53.7201 52.25 53.6301C52.31 53.6101 52.36 53.5901 52.42 53.5701C52.61 53.5001 52.78 53.3501 52.93 53.2201C53.03 53.1301 53.13 53.0301 53.22 52.9401C53.27 52.8901 53.32 52.8301 53.37 52.7801C53.39 52.7601 53.41 52.7401 53.44 52.7101C53.76 52.4001 53.88 51.9901 53.98 51.5701L53.87 52.0101C53.87 52.0101 53.9 51.9101 53.92 51.8601C53.92 51.8501 53.92 51.8401 53.93 51.8301C54 51.6501 54.03 51.4601 54.03 51.2601C54.05 51.0601 54.04 50.8601 54 50.6601C53.95 50.4201 53.86 50.2001 53.73 50.0001Z" fill="black"/>
<path d="M53.3202 47.3801C53.6402 47.6101 54.0102 47.7701 54.3502 47.9701L54.2702 47.9201C54.9002 48.3001 55.4902 48.7701 55.9802 49.3201L55.9002 49.2301C56.2502 49.6201 56.5602 50.0601 56.8102 50.5201L56.7502 50.4101C56.9502 50.7801 57.1102 51.1701 57.2402 51.5801L57.2002 51.4501C57.2502 51.6101 57.2902 51.7701 57.3302 51.9401C57.3602 52.0601 57.4102 52.1901 57.5102 52.2701C57.5902 52.3301 57.7002 52.3701 57.7902 52.3201C58.0302 52.2001 58.0802 51.8601 58.0302 51.6301C57.8302 50.7001 57.4302 49.8101 56.8802 49.0301C56.6102 48.6501 56.2902 48.2901 55.9502 47.9701C55.6102 47.6501 55.2402 47.3601 54.8402 47.1301C54.6302 47.0101 54.4202 46.9001 54.2002 46.8101C53.9602 46.7101 53.7002 46.6201 53.4402 46.6201C53.3002 46.6201 53.2102 46.8001 53.1902 46.9201C53.1902 46.9901 53.1902 47.0601 53.1902 47.1301C53.2002 47.2101 53.2502 47.3201 53.3202 47.3701V47.3801Z" fill="white"/>
</g>
<defs>
<clipPath id="clip0_3416_10651">
<rect width="115.47" height="308.02" fill="white"/>
</clipPath>
</defs>
</svg>
