<svg width="112" height="278" viewBox="0 0 112 278" fill="none" xmlns="http://www.w3.org/2000/svg">
<g clip-path="url(#clip0_3416_9944)">
<path d="M55.69 16.07C47.13 26.66 39.05 37.77 31.99 49.43L33.82 48.21H33.69C32.25 48.23 31.38 49.99 31.23 51.21C29.87 62.07 28.22 72.89 26.76 83.73C24.58 99.83 22.33 115.91 20.03 131.99C17.51 149.66 14.94 167.32 12.29 184.97C9.99999 200.23 7.63999 215.49 5.21999 230.73C3.75999 239.93 2.42999 249.21 0.399994 258.31C0.339994 258.58 0.279994 258.86 0.209994 259.13C0.179994 259.25 0.149994 259.38 0.119994 259.5C-0.0500064 260.21 0.539994 257.84 0.339994 258.63C-0.420006 261.58 -0.130007 266.09 3.59999 266.68C11.62 267.94 19.65 269.2 27.67 270.46C40.45 272.47 53.23 274.47 66.01 276.48C68.94 276.94 71.86 277.4 74.79 277.86C75.72 278.01 76.86 276.9 77.26 276.22C77.96 275.02 78.14 273.75 78.2 272.38C78.2 272.3 78.26 272.07 78.22 272C77.91 271.45 78.1 273.75 78.15 273.03C78.17 272.72 78.19 272.42 78.22 272.11C78.28 271.41 78.35 270.71 78.42 270.01C78.61 268.17 78.82 266.33 79.05 264.5C79.69 259.29 80.41 254.09 81.15 248.9C83.25 234.14 85.52 219.4 87.83 204.67C90.58 187.1 93.41 169.54 96.29 151.99C98.98 135.57 101.72 119.16 104.53 102.75C106.52 91.12 108.52 79.49 110.7 67.89C110.87 66.98 111.04 66.08 111.22 65.17C111.63 63.05 110.93 59.41 108.58 58.59L108.46 58.55L111.03 62.26C109.46 55.46 107.69 48.71 105.71 42.02C104.65 38.44 103.54 34.87 102.38 31.32C101.83 29.66 101.35 27.94 100.65 26.34C100.34 25.63 100.01 24.93 99.68 24.23C99.48 23.81 99.29 23.39 99.09 22.97C98.96 22.7 98.26 21.06 98.49 21.71C97.86 19.97 95.85 18.71 94.27 20.14C92.57 21.68 92.61 24.55 93.33 26.53C93.14 26 93.5 27.35 93.49 27.31C93.61 27.78 93.74 28.25 93.86 28.72C94.12 29.72 94.35 30.73 94.65 31.72C95.23 33.62 95.91 35.49 96.53 37.38C97.08 39.06 97.62 40.74 98.14 42.42C98.28 42.88 98.42 43.34 98.56 43.8C98.3 42.94 98.66 44.15 98.73 44.36C98.98 45.21 99.23 46.05 99.48 46.9C100.49 50.37 101.44 53.85 102.33 57.35C102.77 59.06 103.19 60.77 103.6 62.49C104.14 64.75 104.42 68.17 106.95 69.05L104.31 62.47C102.23 73.24 100.38 84.07 98.51 94.88C95.73 111 93.03 127.13 90.37 143.26C87.47 160.88 84.61 178.51 81.83 196.15C79.42 211.45 77.04 226.77 74.82 242.1C73.5 251.22 72.03 260.38 71.29 269.57C71.21 270.56 71.14 271.55 71.1 272.55L74.51 267.06C66.49 265.8 58.46 264.54 50.44 263.28C37.66 261.27 24.88 259.27 12.1 257.26C9.16999 256.8 6.24999 256.34 3.31999 255.88L6.57999 263.93C8.74999 255.54 9.94999 246.87 11.33 238.33C13.72 223.56 15.86 208.75 17.98 193.94C20.5 176.32 22.95 158.7 25.35 141.06C27.61 124.46 29.82 107.85 31.96 91.24C33.47 79.53 34.84 67.79 36.04 56.04C36.14 55.1 36.23 54.15 36.32 53.21L33.86 56.21C35.8 56.1 36.62 53.54 37.44 52.08C38.26 50.62 39.16 49.04 40.03 47.53C41.9 44.3 43.82 41.11 45.79 37.94C49.69 31.69 53.79 25.56 58.08 19.57C59.31 17.86 57.6 13.68 55.66 16.08L55.69 16.07Z" fill="#1D1D1B"/>
<path d="M61.92 8.22998C70.56 10.2 79.47 11.02 88.2 12.55C88.59 12.62 90.04 12.86 88.5 12.6C89.07 12.7 89.63 12.79 90.2 12.85C90.86 12.92 90.76 12.87 91.38 13.07C91.63 13.15 91.87 13.23 92.11 13.34C92.07 13.32 93.11 13.88 92.65 13.59C92.27 13.35 92.84 13.76 92.93 13.83C93.1 13.96 93.41 14.46 93.13 13.98C92.73 13.31 93.28 14.71 92.97 13.76C92.6 12.63 92.17 12.1 92.52 10.65C92.51 10.7 92.51 10.76 92.5 10.81C92.32 11.75 92.21 12.71 92.07 13.66L91.44 17.8C91.32 18.58 91.08 19.43 91.07 20.22C91.07 19.94 91.35 19.12 91.54 18.82C91.6 18.72 92.23 18.08 91.69 18.56C92.25 18.05 92.03 18.38 91.79 18.49C91.39 18.68 91.01 18.88 90.58 19C91.17 18.83 90.42 19.01 90.26 19.03C89.94 19.06 89.62 19.08 89.3 19.08C86.61 19.04 83.85 18.22 81.2 17.79C78.09 17.28 74.98 16.81 71.86 16.35C70.26 16.11 68.66 15.89 67.05 15.68C65.75 15.51 64.3 15.46 63.14 15.12C62.89 15.05 62.65 14.96 62.41 14.87C62.25 14.8 61.51 14.41 61.67 14.52C61.96 14.72 61.42 14.31 61.37 14.26C60.99 13.93 61.11 13.8 61.28 14.2C60.95 13.43 61.43 14.58 61.48 14.73C61.69 15.32 61.35 17.58 61.67 16.54C61.9 15.82 62.02 15.04 62.14 14.3C62.7 10.7 62.55 7.01998 61.87 3.43998C61.54 1.70998 60.01 -0.680016 57.94 0.209984C55.87 1.09998 55.54 4.21998 55.9 6.11998C55.97 6.50998 56.02 6.90998 56.1 7.28998C56.28 8.12998 56.05 6.21998 56.15 7.65998C56.19 8.35998 56.23 9.04998 56.23 9.74998C56.23 9.96998 56.18 10.97 56.24 10.09C56.22 10.39 56.19 10.7 56.15 11C56.06 11.76 55.92 12.51 55.77 13.26C55.96 12.37 55.6 13.84 55.53 14.28C55.44 14.81 55.39 15.46 55.4 15.95C55.4 16.86 55.56 17.71 55.82 18.57C56.29 20.11 57.1 21.43 58.28 22.52C60.52 24.59 63.46 24.8 66.33 25.19C69.38 25.6 72.43 26.03 75.46 26.56C78.49 27.09 81.26 27.7 84.14 28.34C87.02 28.98 89.97 30.01 93.01 29.17C97.15 28.03 97.84 23.81 98.39 20.19C98.74 17.92 99.14 15.65 99.43 13.37C99.88 9.79998 98.68 5.97998 95.58 3.92998C93.93 2.83998 92.25 2.34998 90.29 2.11998C88.67 1.92998 87.04 1.89998 85.42 1.82998C82.51 1.69998 79.6 1.46998 76.69 1.26998C71.94 0.939984 67.18 0.469984 62.42 0.499984C60.75 0.509984 60.05 2.64998 59.97 3.97998C59.89 5.30998 60.31 7.87998 61.93 8.24998L61.92 8.22998Z" fill="#1D1D1B"/>
</g>
<defs>
<clipPath id="clip0_3416_9944">
<rect width="111.33" height="277.86" fill="white"/>
</clipPath>
</defs>
</svg>
