<svg width="266" height="279" viewBox="0 0 266 279" fill="none" xmlns="http://www.w3.org/2000/svg">
<g clip-path="url(#clip0_3416_10385)">
<path d="M3.90001 111.02C6.15001 111.05 8.41001 111.07 10.66 111.1C16.77 111.17 22.88 111.25 28.99 111.32C38.02 111.43 47.05 111.54 56.08 111.64C67.13 111.77 78.19 111.9 89.24 112.04C101.35 112.18 113.46 112.33 125.57 112.47C137.68 112.61 149.85 112.76 161.99 112.91C173.39 113.05 184.78 113.18 196.18 113.32C205.81 113.44 215.44 113.55 225.06 113.67C231.96 113.75 238.85 113.83 245.75 113.92C249 113.96 252.3 114.15 255.55 114.04C255.69 114.04 255.83 114.04 255.97 114.04L253.92 111.37C254.03 111.84 254.13 112.32 254.22 112.8C254.27 113.04 254.28 113.3 254.36 113.53C254.31 113.36 254.07 111.94 254.22 112.76C254.25 112.95 254.29 113.14 254.32 113.34C254.45 114.09 254.57 114.85 254.68 115.6C254.99 117.64 255.23 119.69 255.43 121.74C255.55 123.01 255.65 124.28 255.74 125.55C255.75 125.71 255.76 125.87 255.77 126.03C255.83 126.85 255.73 125.29 255.73 125.32C255.73 125.65 255.77 125.98 255.78 126.3C255.82 127.06 255.85 127.82 255.87 128.59C255.97 131.74 255.95 134.9 255.8 138.05C255.78 138.45 255.75 138.84 255.74 139.24C255.74 139.19 255.83 137.81 255.77 138.7C255.76 138.9 255.74 139.1 255.73 139.3C255.67 140.17 255.6 141.03 255.52 141.9C255.36 143.68 255.15 145.46 254.9 147.24C254.78 148.1 254.65 148.95 254.5 149.81C254.43 150.24 254.35 150.67 254.28 151.1C254.17 151.77 254.47 150.12 254.34 150.79C254.29 151.06 254.24 151.33 254.18 151.61C253.81 153.49 253.38 155.35 252.9 157.2C252.42 159.05 251.84 160.98 251.24 162.84C251.18 163.03 250.96 163.64 251.27 162.74C251.19 162.96 251.12 163.18 251.04 163.4C250.88 163.84 250.72 164.29 250.56 164.73C250.19 165.73 249.8 166.73 249.38 167.72C248.61 169.56 247.78 171.37 246.88 173.15C246.41 174.08 245.92 175 245.41 175.91C245.37 175.99 245.05 176.53 245.34 176.03C245.22 176.25 245.09 176.46 244.96 176.67C244.67 177.15 244.38 177.63 244.09 178.11C241.78 181.82 239.11 185.25 236.28 188.58C230.32 195.56 223.87 202.12 216.98 208.18C203.7 219.85 188.8 229.99 172.55 237.03C165.45 240.11 158.07 242.57 150.45 244C144.23 245.16 137.96 245.49 131.64 245.18C119.07 244.56 106.37 241.99 94.46 238.32C80.4 233.99 66.77 227.93 54.4 219.93C42.03 211.93 31.14 202.12 23.06 189.57C20.56 185.69 18.41 181.59 16.46 177.42C15.34 175.03 14.3 172.61 13.33 170.16C12.89 169.04 12.46 167.91 12.05 166.78C11.85 166.22 11.65 165.66 11.45 165.1C11.15 164.25 11.33 164.75 11.39 164.94C11.25 164.52 11.11 164.11 10.98 163.69C9.54001 159.25 8.34001 154.73 7.37001 150.15C7.25001 149.57 7.13001 148.98 7.01001 148.4C6.95001 148.08 6.62001 146.56 6.89001 147.77C6.66001 146.71 6.51001 145.63 6.35001 144.56C6.03001 142.51 5.75001 140.45 5.52001 138.38C5.31001 136.5 5.14001 134.61 5.01001 132.72C4.98001 132.28 4.96001 131.84 4.92001 131.4C5.06001 133.09 4.94001 131.64 4.92001 131.22C4.87001 130.28 4.84001 129.35 4.81001 128.41C4.72001 125.28 4.74001 122.14 4.87001 119.01C4.90001 118.38 4.94001 117.74 4.97001 117.11C4.97001 117.06 4.87001 118.67 4.93001 117.86C4.94001 117.71 4.95001 117.56 4.96001 117.42C4.98001 117.1 5.00001 116.77 5.03001 116.45C5.11001 115.36 5.21001 114.26 5.32001 113.17C5.48001 111.66 5.67001 110.16 5.90001 108.66C5.96001 108.27 6.03001 107.89 6.09001 107.5C6.14001 107.17 5.76001 109.19 5.94001 108.33C6.40001 106.06 6.64001 102.89 5.09001 100.94C3.54001 98.9903 2.14001 101.4 1.84001 102.88C0.140009 111.23 -0.169991 119.95 0.0700091 128.42C0.610009 147.44 4.62001 166.41 12.51 183.76C16.27 192.02 20.82 199.95 26.57 206.98C31.46 212.97 37.1 218.37 43.15 223.18C55.07 232.64 68.72 239.84 82.93 245.21C95.91 250.11 109.51 253.65 123.3 255.26C129.03 255.93 134.84 256.31 140.6 256C148.33 255.58 155.92 253.85 163.26 251.46C179.92 246.03 195.32 236.87 209.11 226.15C216.68 220.26 223.82 213.81 230.49 206.92C237.16 200.03 243.05 193.44 247.66 185.51C256.13 170.93 259.87 154.33 260.58 137.59C261.01 127.48 260.29 117.24 258.32 107.3C258.23 106.84 258.14 106.37 258.03 105.91C257.81 104.98 257.2 103.25 255.98 103.24C253.73 103.21 251.47 103.19 249.22 103.16C243.11 103.09 237 103.01 230.89 102.94C221.86 102.83 212.83 102.72 203.8 102.62C192.75 102.49 181.69 102.36 170.64 102.22C158.53 102.08 146.42 101.93 134.31 101.79C122.2 101.65 110.03 101.5 97.89 101.35C86.49 101.21 75.1 101.08 63.7 100.94C54.07 100.82 44.44 100.71 34.82 100.59C27.92 100.51 21.03 100.43 14.13 100.34C10.87 100.3 7.58001 100.13 4.33001 100.22C4.19001 100.22 4.05001 100.22 3.91001 100.22C1.85001 100.2 1.51001 104.25 1.53001 105.62C1.55001 106.99 1.80001 110.99 3.91001 111.02H3.90001Z" fill="#1D1D1B"/>
<path d="M90.89 244.36C90.02 247.68 89.65 251.14 89.49 254.56C89.21 260.35 89.94 266.86 93.31 271.75C96.01 275.65 100.27 276.87 104.73 277.41C109.19 277.95 113.98 278.1 118.6 278.17C129.69 278.35 140.78 277.99 151.86 277.5C155.87 277.32 159.87 277.12 163.87 276.9C165.17 276.83 166.48 276.68 167.78 276.69C169.69 276.69 171.17 275.78 172.36 274.31C173.75 272.6 174.56 270.32 175.1 268.22C176.03 264.64 176.28 260.86 176.3 257.18C176.3 254.73 176.16 252.28 175.99 249.84C175.9 248.63 174.97 244.99 173.07 246.07C171.17 247.15 171.28 250.93 171.41 252.71C171.43 253.02 171.48 253.33 171.47 253.64C171.47 253.59 171.42 252.7 171.45 253.32C171.47 253.82 171.5 254.31 171.51 254.81C171.54 255.78 171.55 256.75 171.54 257.73C171.54 258.14 171.52 258.55 171.51 258.97C171.51 259.17 171.46 259.44 171.48 259.64C171.48 259.69 171.58 258.42 171.52 259.01C171.45 259.74 171.4 260.47 171.3 261.2C171.26 261.51 171.21 261.81 171.16 262.11C170.99 263.24 171.39 261.14 171.2 261.9C171.06 262.46 170.92 263.01 170.77 263.56C170.59 264.25 171.16 262.56 170.9 263.19C170.81 263.4 170.74 263.62 170.64 263.84C170.58 263.99 170.5 264.13 170.44 264.28C170.15 264.94 170.31 264.43 170.54 264.15C170.36 264.39 170.22 264.66 170.03 264.9C169.95 265.01 169.85 265.11 169.77 265.21C169.35 265.74 169.9 264.98 169.97 265.04C170.01 265.08 169.02 265.71 168.92 265.76C168.75 265.85 168.22 265.97 168.74 265.86C169.32 265.73 168.72 265.86 168.59 265.87C168.38 265.89 168.17 265.9 167.95 265.9C163.61 265.9 159.22 266.35 154.89 266.56C144.46 267.05 134.01 267.41 123.57 267.41C118.7 267.41 113.83 267.34 108.97 267C107.12 266.87 105.27 266.71 103.44 266.43C101.61 266.15 100.28 265.91 98.8 265.13C98.31 264.87 97.84 264.57 97.39 264.24C97.18 264.08 96.97 263.9 96.77 263.73C96.51 263.51 96.91 263.87 96.92 263.88C96.79 263.74 96.66 263.61 96.53 263.47C96.18 263.08 95.86 262.66 95.57 262.23C95.49 262.11 95.42 261.97 95.33 261.85C95.07 261.52 95.58 262.23 95.53 262.21C95.38 262.15 95.2 261.57 95.13 261.41C95.02 261.17 94.92 260.93 94.82 260.68C94.51 259.9 94.85 260.31 94.85 260.81C94.85 260.29 94.51 259.55 94.38 259.03C94.18 258.23 94.56 260.23 94.45 259.41C94.41 259.14 94.37 258.88 94.33 258.61C94.25 258.04 94.22 257.46 94.16 256.89C94.38 258.94 94.19 257.09 94.18 256.51C94.17 255.93 94.2 255.34 94.22 254.76C94.24 253.94 94.1 256.34 94.19 255.25C94.21 255.01 94.23 254.77 94.25 254.54C94.29 254.06 94.34 253.58 94.4 253.1C94.5 252.31 94.63 251.53 94.75 250.75C94.86 250.09 94.45 252.26 94.62 251.45C94.65 251.32 94.67 251.18 94.7 251.05C94.75 250.82 94.8 250.59 94.85 250.36C94.89 250.17 94.94 249.98 94.98 249.8C95.56 247.6 95.63 244.29 94.13 242.41C92.63 240.53 91.25 242.93 90.88 244.35L90.89 244.36Z" fill="#1D1D1B"/>
<path d="M68.35 107.74C67.56 113.57 67.19 120.45 72.17 124.61C77.15 128.77 83.79 127.68 89.52 127.17C98.33 126.38 107.18 125.97 116.02 126.03C123.38 126.08 132.01 125.53 139.01 128.22C146.99 131.28 147.1 139.32 147.89 146.66C148.85 155.54 149.81 164.42 150.77 173.3C151.79 182.69 151.52 207.74 168.04 201.45C182.85 195.81 177.44 176.4 173.77 165.36C171.16 157.49 169.03 149.63 168.78 141.28C168.64 136.78 168.87 120.94 176.98 127.95C189.48 138.77 179.01 158.36 188.43 170.43C196.64 180.94 211.49 176.25 215.04 164.13C217.43 155.97 214.14 146.92 212.33 138.95C211.45 135.08 209.03 129.33 210.09 125.44C210.8 122.82 211.55 124.71 212.2 126.34C212.72 127.63 213.05 129.02 213.83 130.19C217.42 135.58 224.64 133.36 227.86 128.83C229.77 126.15 230.27 122.96 231.55 119.99C233.28 115.99 236.1 112.71 239.77 110.38C244.86 107.16 241.33 100.76 236.16 104.03C230.99 107.3 226.44 111.83 223.63 117.54C223.1 118.62 220.29 124.08 220.76 125.19C221.11 126.02 222.04 125.01 222.05 124.95C222.09 124.78 221.49 123.77 221.4 123.57C220.83 122.24 220.52 120.81 219.78 119.55C217.11 115 211.59 114.68 207.26 117.03C201.47 120.19 200.05 126.31 201.09 132.41C202.37 139.95 204.7 147.29 206.05 154.82C206.68 158.34 207.18 162.3 205.51 165.61C203.65 169.32 200.43 168.96 197.62 166.36C192.02 161.19 193.38 152.31 193.12 145.48C192.86 138.65 191.52 131.37 187.68 125.72C180.87 115.7 167.16 115.67 161.87 127.21C156.02 139.98 160.75 156.64 164.89 169.12C167.09 175.76 170.29 184.2 168.1 191.22C166.57 196.11 163.27 193.03 162.28 189.69C161.29 186.35 161.2 182.66 160.82 179.21C159.9 170.66 158.97 162.11 158.05 153.56C157.27 146.32 157.34 138.25 154.91 131.34C149.79 116.81 130.53 118.2 118.09 118.11C108.92 118.05 99.77 118.42 90.64 119.24C87.17 119.55 82.46 120.62 79.48 118.34C76.07 115.73 76.94 110.49 77.45 106.78C78.21 101.22 68.94 103.17 68.32 107.73L68.35 107.74Z" fill="#1D1D1B"/>
<path d="M126.77 106.39C128.56 104.43 130.44 102.54 132.32 100.68C132.78 100.22 133.25 99.7701 133.71 99.3101C133.96 99.0701 134.21 98.8301 134.46 98.5801C134.56 98.4801 134.67 98.3801 134.77 98.2801C134.83 98.2201 135.46 97.6201 135.12 97.9401C134.84 98.2101 135.52 97.5601 135.65 97.4301C135.93 97.1601 136.22 96.8901 136.5 96.6301C137.13 96.0401 137.75 95.4601 138.38 94.8701C141.09 92.3701 143.85 89.9201 146.66 87.5301C159.74 76.4501 174.32 65.8101 190.71 60.2701C192.54 59.6501 194.31 59.1501 196.27 58.7001C197.8 58.3501 199.87 58.3601 201.01 57.2501C201.65 56.6101 202.29 55.9701 202.93 55.3301C206.35 51.9101 209.77 48.4901 213.18 45.0801C221.61 36.6501 230.03 28.2301 238.46 19.8001L241.42 16.8401C241.57 16.6901 241.74 16.5401 241.89 16.3701C240.74 17.6401 241.94 16.3501 242.3 16.0501C244.34 14.3401 246.62 12.8401 249.09 11.8101C249.46 11.6501 249.84 11.5201 250.22 11.3801C250.95 11.1201 249.96 11.4501 250.4 11.3201C250.59 11.2601 250.79 11.2101 250.99 11.1601C251.78 10.9701 252.58 10.8401 253.39 10.8101C254.2 10.7801 255.01 10.8501 255.81 10.9901C256.37 11.0901 256.96 11.3101 257.78 11.7801C258.18 12.0101 258.56 12.2601 258.92 12.5401C259.11 12.6901 259.3 12.8401 259.47 13.0101C259.88 13.3801 259.01 12.4801 259.66 13.2101C260.03 13.6201 260.38 14.0401 260.7 14.4901C260.84 14.6801 260.97 14.8801 261.1 15.0701C261.1 15.0701 261.71 16.1001 261.39 15.5201V7.88013C261.3 8.05013 261.2 8.23013 261.1 8.40013C261 8.58013 260.89 8.77013 260.79 8.95013C261.49 7.63013 260.74 9.04013 260.56 9.35013C259.54 11.1001 258.48 12.8301 257.39 14.5301C254.38 19.2401 251.13 23.8401 247.38 28.0001C246.19 29.3201 244.94 30.5901 243.68 31.8401C243.01 32.5101 242.34 33.1701 241.66 33.8201C241.33 34.1401 241.01 34.4501 240.68 34.7701C240.02 35.4101 241.11 34.3601 240.44 35.0001C240.23 35.2001 240.03 35.4001 239.82 35.5901C236.52 38.7301 233.18 41.8201 229.82 44.8901C225.19 49.1201 220.51 53.2901 215.84 57.4801C214.75 58.4601 214.37 59.4201 213.88 60.7201C213.03 62.9801 212.15 65.2301 211.26 67.4701C208.54 74.2901 205.68 81.0801 202.33 87.6201C201.95 88.3601 201.57 89.0901 201.17 89.8201C200.97 90.1801 200.77 90.5501 200.57 90.9101C200.27 91.4601 200.7 90.6901 200.72 90.6401C200.6 90.9001 200.43 91.1401 200.29 91.3801C199.58 92.5801 198.83 93.7701 197.99 94.8901C197.65 95.3501 197.29 95.7901 196.91 96.2101C196.88 96.2401 196.46 96.7201 196.44 96.7001C196.32 96.6301 197.14 96.1301 196.64 96.5001C196.55 96.5701 196.46 96.6501 196.37 96.7201C196.14 96.9001 195.61 97.0701 195.43 97.2801C195.37 97.3501 196.09 97.2101 195.59 97.2201C195.47 97.2201 195.34 97.2501 195.22 97.2601C190.91 97.7401 186.45 97.4801 182.13 97.4601C174.81 97.4201 167.49 97.2901 160.16 97.1401C148.83 96.9201 137.5 96.6401 126.18 96.3201C125.98 96.3201 125.78 96.3101 125.57 96.3001C123.52 96.2401 123.17 100.36 123.19 101.7C123.21 103.04 123.46 107.04 125.57 107.1C130.87 107.25 136.18 107.39 141.48 107.52C151.88 107.78 162.28 108.01 172.68 108.15C177.27 108.22 181.86 108.27 186.45 108.26C189.24 108.26 192.05 108.3 194.83 108.08C197.8 107.85 199.65 105.34 201.21 103.04C204.01 98.9001 206.23 94.3301 208.33 89.8001C211.74 82.4501 215.04 74.8901 217.66 67.2101C217.71 67.0601 217.77 66.9201 217.82 66.7701L216.77 68.1601C225.24 60.6801 233.64 53.1001 241.8 45.2901C244.14 43.0501 246.49 40.7901 248.72 38.4401C251.95 35.0301 254.8 31.2601 257.44 27.3801C259.51 24.3501 261.46 21.2401 263.29 18.0601C263.77 17.2301 264.3 16.4001 264.72 15.5301C266.56 11.7301 265.01 7.36013 262.48 4.33013C260.14 1.52013 256.86 -0.259873 253.14 -0.00987304C250.06 0.190127 247.03 1.52013 244.44 3.14013C242.27 4.49013 240.38 6.13013 238.58 7.93013C231.71 14.8001 224.85 21.6601 217.98 28.5301C211.63 34.8801 205.13 41.1101 198.91 47.6001C198.8 47.7101 198.69 47.8201 198.58 47.9301L199.78 47.1901C184.88 49.6001 171.2 57.6701 159.11 66.3501C148.63 73.8801 138.88 82.4201 129.73 91.5201C127.91 93.3301 126.1 95.1501 124.38 97.0401C123.69 97.7901 123.41 99.3301 123.29 100.27C123.13 101.57 123.16 103.16 123.53 104.43C123.99 105.99 125.15 108.15 126.78 106.37L126.77 106.39Z" fill="#1D1D1B"/>
<path d="M199.94 59.4199C200.3 60.3599 200.78 61.0199 201.45 61.7499C201.6 61.9099 201.75 62.0799 201.9 62.2399C202.21 62.5599 202.52 62.8799 202.83 63.1999C203.5 63.8599 204.19 64.4999 204.91 65.1099C206.33 66.3299 207.79 67.4999 209.34 68.5599C209.73 68.9399 210.19 69.1499 210.71 69.1899C211.2 69.3399 211.68 69.2999 212.16 69.0599C213.16 68.6299 213.95 67.4399 214.28 66.4499C214.72 65.0899 214.88 63.5599 214.54 62.1599C214.24 60.9299 213.75 59.7499 212.78 58.8799C211.41 57.6599 210.06 56.4099 208.66 55.2199C207.98 54.6399 207.29 54.0599 206.61 53.4799C206.27 53.1899 205.93 52.8999 205.58 52.6099C205.41 52.4699 205.24 52.3199 205.07 52.1799C204.98 52.1099 204.9 52.0399 204.81 51.9799C204.5 51.7599 204.06 51.4199 203.69 51.3499L202.7 51.1699C202.15 51.1699 201.68 51.3499 201.28 51.6899C200.47 52.2399 199.87 53.1099 199.56 54.0499C199.25 54.9899 199.13 55.9499 199.12 56.9199C199.12 57.6699 199.24 58.3999 199.49 59.0899C199.64 59.7399 199.91 60.3399 200.3 60.8899C200.68 61.5699 201.34 62.1099 201.94 62.5999C202.28 62.8799 202.63 63.1699 202.97 63.4499C203.68 64.0399 204.39 64.6199 205.1 65.2099C206.48 66.3599 207.92 67.4399 209.34 68.5499L211.9 58.3299C211.73 58.2299 211.56 58.1299 211.4 58.0299L212.28 58.5699C210.81 57.6699 209.4 56.6799 208.09 55.5499C207.45 54.9999 206.84 54.4299 206.24 53.8299C205.43 53.0399 204.72 52.0299 203.61 51.6499C203.04 51.4599 202.35 51.4499 201.79 51.6899L200.99 52.2399C200.57 52.6299 200.26 53.0799 200.06 53.6099C199.2 55.4099 199.23 57.5599 199.93 59.4099L199.94 59.4199Z" fill="#1D1D1B"/>
<path d="M203.74 60.2599C202.47 61.8199 201 63.1699 199.8 64.7799C199.53 65.1299 199.26 65.4799 198.99 65.8299C198.99 65.8199 198.55 66.3899 198.78 66.0899C199.01 65.7899 198.56 66.3599 198.57 66.3499C197.96 67.0899 197.33 67.8099 196.69 68.5299C194.29 71.2399 191.88 73.9399 189.42 76.5999C184.55 81.8699 179.4 86.8499 173.72 91.2499C172.95 91.8499 172.16 92.4399 171.36 93.0099C171.19 93.1299 171.02 93.2499 170.85 93.3699C170.79 93.4099 170.14 93.8599 170.44 93.6599C170.78 93.4299 170.21 93.8199 170.2 93.8199C169.97 93.9699 169.73 94.1299 169.5 94.2799C167.53 95.5499 165.44 96.5899 163.51 97.9099C162.59 98.5399 161.97 100.42 161.84 101.43C161.68 102.71 161.75 103.97 162.13 105.21C162.74 107.22 164.36 109.32 166.71 108.46C168.39 107.85 169.97 106.76 171.48 105.81C173.21 104.71 174.9 103.56 176.54 102.34C179.49 100.15 182.22 97.6999 184.85 95.1299C190.21 89.8999 195.09 84.1799 199.94 78.4799C201.48 76.6799 203.01 74.8599 204.46 72.9899C206.01 70.9999 207.01 68.6499 207.93 66.3099C208.58 64.6699 208.37 62.3299 207.33 60.8699C206.57 59.7899 204.77 58.9799 203.73 60.2499L203.74 60.2599Z" fill="#1D1D1B"/>
<path d="M150.42 104.08C161.84 90.7801 174.48 78.42 188.6 67.99C190.47 66.61 191.92 65.5901 194.1 64.4101C195.17 63.8301 196.25 63.31 197.41 62.92C198.76 62.47 199.16 62.3801 200.57 62.1901C206.09 61.4401 205.1 49.5801 199.3 51.0201C194.79 52.1401 190.69 54.6101 186.9 57.2401C183.11 59.8701 179.63 62.6501 176.17 65.5501C169.11 71.4501 162.74 77.99 156.82 85.03C153.36 89.14 150.05 93.36 147.04 97.81C146.05 99.27 146.11 101.64 146.96 103.13C147.61 104.27 149.25 105.45 150.41 104.09L150.42 104.08Z" fill="#1D1D1B"/>
<path d="M79.1599 112.38C79.1399 112 79.0799 111.65 78.9199 111.3C78.7499 110.93 78.4399 110.41 77.9999 110.28C77.5599 110.15 77.1899 110.24 76.8599 110.54C76.5899 110.78 76.4399 111.05 76.2899 111.37C76.0299 111.92 75.9299 112.5 75.9299 113.11C75.9299 113.81 76.1399 114.49 76.3599 115.14C76.5299 115.65 76.7899 116.13 77.0599 116.59C77.2499 116.92 77.4499 117.25 77.6699 117.55C78.5499 118.75 79.6499 119.8 80.9199 120.57C81.5999 120.99 82.2699 121.36 83.0099 121.65C83.6199 121.89 84.2499 122.07 84.8799 122.2C86.2799 122.49 87.6999 122.62 89.1299 122.45C89.9799 122.35 90.8299 122.15 91.6399 121.86C91.9799 121.74 92.3199 121.6 92.6499 121.45C92.9799 121.3 93.2299 121.13 93.5299 120.92C93.5999 120.87 93.6699 120.82 93.7299 120.77C94.2699 120.37 94.4999 119.58 94.6199 118.96L94.6699 118.22C94.6699 117.85 94.6099 117.49 94.4899 117.15C94.3399 116.66 94.1099 116.18 93.7099 115.84L93.6799 115.82C93.2899 115.49 92.7199 115.35 92.2299 115.57C91.6899 115.81 91.1699 116.1 90.6199 116.31C90.0699 116.52 89.4999 116.69 88.9199 116.82L89.4099 116.71C87.8899 117.06 86.3099 117.09 84.7799 116.83L85.2499 116.91C83.8799 116.66 82.5499 116.18 81.3499 115.46L81.7499 115.7C80.9299 115.2 80.1899 114.6 79.5499 113.88L79.8799 114.25C79.5699 113.9 79.2899 113.53 79.0599 113.12L79.3099 113.59C79.1299 113.25 78.9799 112.9 78.8699 112.53L79.0399 113.08C78.9899 112.9 78.9399 112.72 78.9099 112.54L78.9799 113.16C78.9799 113.1 78.9799 113.04 78.9799 112.98L78.9399 113.6C78.9399 113.49 78.9699 113.38 78.9999 113.27L78.8599 113.83C78.8799 113.77 78.8999 113.72 78.9199 113.66L78.6999 114.13C78.8999 113.77 79.0399 113.46 79.0999 113.05C79.1599 112.66 79.1499 112.2 79.0599 111.81L79.1199 112.37V112.35C79.1099 112.53 79.0999 112.72 79.0799 112.9C79.0799 112.89 79.0799 112.87 79.0799 112.86L78.9599 113.34C78.9599 113.34 78.9699 113.3 78.9799 113.27L78.7999 113.65C78.9999 113.24 79.1499 112.84 79.1299 112.37L79.1599 112.38Z" fill="#1D1D1B"/>
<path d="M78.47 115.6C79.62 116.6 80.83 116.74 82.28 116.95C83.54 117.14 84.8 117.38 86.06 117.57C88.5 117.94 90.95 118.32 93.41 118.53C98.29 118.95 103.29 118.68 108.17 118.44C118.07 117.96 127.91 116.64 137.83 116.33C140.54 116.24 143.25 116.23 145.96 116.31C146.53 116.33 147.1 116.35 147.67 116.4C147.91 116.42 148.14 116.45 148.38 116.47C149 116.54 147.54 116.23 148.59 116.51C149.04 116.63 149.47 116.76 149.9 116.95C150.09 117.04 150.32 117.14 150.5 117.25C149.68 116.75 150.88 117.8 150.07 116.87L151.5 107.23C149.2 108.04 147.2 109.2 145.54 111.02C144.52 112.15 144.19 113.63 144.36 115.13C144.5 116.33 145.07 118.05 146.37 118.48C147.47 118.85 148.86 119.09 149.95 119.1C151.18 119.12 152.6 118.58 153.78 118.26C155.33 117.84 156.1 115.53 156.32 114.18C156.6 112.43 156.38 110.06 155.21 108.61C153.43 106.42 151.4 105.4 148.64 105.01C146.42 104.69 144.11 104.81 141.87 104.87C136.76 104.99 131.65 105.4 126.56 105.91C116.4 106.93 106.24 108.42 96.03 108.77C93.27 108.86 90.51 109.03 87.75 109.05C86.33 109.06 84.92 109 83.5 108.91C81.9 108.81 80.4 108.27 78.88 108.99C76.63 110.06 76.78 114.11 78.48 115.6H78.47Z" fill="#1D1D1B"/>
<path d="M114.79 120.43C125.5 122.93 136.8 123.31 147.72 122.09C153.26 121.47 158.58 119.82 164.08 119.01C169.58 118.2 175.32 118.28 180.95 118.33C187.32 118.38 193.68 118.47 200.05 118.55L197.87 107.8C197.75 107.92 196.89 108.55 197.65 108.09C197.35 108.28 197.03 108.43 196.71 108.57C196.43 108.69 196.15 108.79 195.87 108.88C195.61 108.96 195.08 109.09 195.63 108.97C194.29 109.27 192.92 109.38 191.58 109.65C188.36 110.29 185.4 111.82 183.67 114.73C182.31 117.01 181.99 119.81 182.43 122.4C182.8 124.58 183.9 126.43 185.1 128.24C187.12 131.29 189.14 134.35 191.16 137.39C192.18 138.92 194.3 139.6 195.72 138.17C197.26 136.62 197.9 133.77 197.28 131.68C195.81 126.71 194.29 121.55 191.12 117.34C188.2 113.45 183.83 110.36 178.82 110.19C177.54 110.15 175.7 110.25 174.76 111.18C172.92 113.02 172.63 116.17 173.14 118.6C173.85 121.95 176.23 123.85 178.65 125.98C180.72 127.79 182.78 129.61 184.84 131.42C185.79 132.25 186.74 133.08 187.68 133.92C188.04 134.24 188.4 134.57 188.75 134.9C188.95 135.09 189.15 135.28 189.35 135.48C189.4 135.53 190.27 136.51 189.71 135.83C190.06 136.25 190.4 136.68 190.71 137.13C190.86 137.36 191.01 137.59 191.15 137.83C191.04 137.65 190.77 136.99 191.12 137.83C191.34 138.35 191.54 138.87 191.73 139.4C191.85 139.74 192.16 140.14 191.69 139.27C191.85 139.56 191.88 139.98 191.95 140.3C192.55 142.79 192.99 145.33 193.36 147.86C193.45 148.49 193.54 149.12 193.62 149.75C193.66 150.06 193.72 150.39 193.74 150.7C193.73 150.5 193.62 149.51 193.73 150.61C193.86 151.96 193.98 153.31 194.07 154.66C194.25 157.51 194.09 160.47 194.67 163.28C195.28 166.23 196.94 169.57 199.95 170.72C202.96 171.87 205.77 170.02 207.28 167.53C210.91 161.54 207.53 154.4 205.59 148.44C203.65 142.48 201.84 136.91 199.97 131.15C199.75 130.48 199.53 129.81 199.32 129.13C199.27 128.93 199.01 128.16 199.32 129.13C199.2 128.69 199.07 128.25 198.96 127.81C198.8 127.15 198.7 126.47 198.55 125.81C198.36 125.01 198.58 126.75 198.55 125.93C198.54 125.55 198.53 125.17 198.5 124.8C198.44 123.84 198.53 124.99 198.46 125.15C198.56 124.92 198.54 124.47 198.59 124.21C198.63 123.98 198.91 123.28 198.63 123.96C198.32 124.71 198.75 123.72 198.8 123.55C199.14 122.52 198.75 123.71 198.72 123.67C198.67 123.6 199.26 122.79 199.31 122.72C199.21 122.88 198.71 123.33 199.3 122.76C199.57 122.5 199.84 122.24 200.13 122.01L194.67 118.81C194.95 120.24 194.74 117.72 194.73 119.17C194.73 119.32 194.7 120.61 194.75 119.83C194.8 119.05 194.68 120.34 194.66 120.49C194.6 120.96 194.53 121.43 194.46 121.89C194.17 123.77 193.91 125.62 193.87 127.53C193.78 131.47 194.94 135.31 197.7 138.16C198.69 139.18 200.27 138.95 201.23 138.07C202.46 136.95 202.91 135.02 202.85 133.42C202.72 129.76 202.63 126.11 202.55 122.45C202.53 121.52 202.52 120.59 202.49 119.66C202.46 118.65 202.34 120.29 202.48 119.67C202.6 119.14 202.02 120.39 202.48 119.61C202.36 119.81 201.87 120.65 202.31 120.02C202.62 119.77 202.67 119.72 202.46 119.87C202.24 120.01 202.31 119.98 202.66 119.78C203.29 119.52 203.88 119.27 204.55 119.1C204.8 119.04 204.79 119.04 204.53 119.1L204.89 119.03C205.36 118.96 205.83 118.86 206.3 118.79C207.16 118.65 208.03 118.53 208.9 118.43C210.64 118.23 212.38 118.09 214.13 118.04C217.71 117.94 221.28 118.18 224.82 118.69L222.19 109.9C220.92 111.96 219.64 114.02 218.39 116.1L223.65 117C223.24 116.06 222.83 115.13 222.42 114.19C221.68 112.51 219.65 110.88 217.99 112.55C216.24 114.31 216.26 117.07 217 119.26C217.34 120.26 217.68 121.26 218.02 122.27C218.9 124.87 221.73 125.51 223.28 123.17C224.6 121.17 225.88 119.14 227.18 117.13C228.98 114.34 228.26 108.98 224.55 108.34C220.63 107.66 216.64 107.41 212.66 107.57C210.59 107.65 208.53 107.85 206.49 108.17C204.67 108.45 202.75 108.72 201.05 109.44C196.43 111.39 195.49 116.35 195.59 120.87C195.69 125.11 195.79 129.35 195.84 133.59L200.99 128.86C201.39 129.3 201.16 128.98 200.94 128.68C200.6 128.22 201.3 129.62 200.97 128.63C201.08 128.94 201.16 129.51 201.05 128.87C201.02 128.68 200.84 127.61 200.96 128.5C201.08 129.39 200.97 128.21 200.96 128.1C200.96 127.88 201.03 127.56 200.97 127.35C201.1 127.81 200.88 128.39 200.98 127.5C201.02 127.16 201.07 126.83 201.12 126.49C201.7 122.84 202.29 119.37 201.62 115.67C201.14 113.01 198.77 110.45 196.16 112.47C193.09 114.85 191.58 118.98 191.28 122.74C190.91 127.36 192.08 131.6 193.51 135.95C195.98 143.41 198.46 150.87 200.93 158.33C201.03 158.64 201.14 158.96 201.24 159.27C201.26 159.34 201.74 160.89 201.44 159.83C201.57 160.29 201.68 160.76 201.78 161.23L201.74 160.74C201.75 161.38 201.76 161.37 201.78 160.72C201.78 160.75 202.24 158.85 201.98 159.92L202.26 159.59C201.91 159.89 201.93 159.91 202.32 159.66C202.14 159.78 201.92 159.87 201.71 159.94C202.13 159.85 202.12 159.82 201.67 159.86C202.06 159.95 202.05 159.92 201.62 159.78L201.9 159.98C201.7 159.84 201.52 159.68 201.35 159.51C202.14 160.32 201.17 158.66 201.74 159.98C202.23 161.12 201.69 160.01 201.73 159.65C201.61 160.8 201.79 160.24 201.79 159.86C201.8 157.84 201.66 155.79 201.51 153.78C201.21 149.78 200.73 145.79 200.02 141.84C199.31 137.89 198.46 133.71 196.37 130.12C194.28 126.53 191.04 124.22 188.04 121.71C186.39 120.33 184.75 118.96 183.1 117.58C182.21 116.84 181.32 116.09 180.45 115.33C180.13 115.05 179.79 114.77 179.51 114.46C179.8 114.79 179.79 114.76 179.49 114.36C180.21 115.61 180.33 117.01 179.83 118.58L176.79 121.37C179.03 120.99 180.1 121.15 182.1 122.08C182.24 122.14 183.49 122.87 182.9 122.49C183.23 122.7 183.54 122.93 183.85 123.17C184.26 123.49 184.66 123.83 185.03 124.19C185.22 124.37 185.4 124.56 185.58 124.75C185.25 124.38 185.25 124.38 185.58 124.77C186.24 125.67 186.87 126.56 187.42 127.53C186.87 126.55 187.52 127.78 187.58 127.9C187.82 128.41 188.04 128.92 188.25 129.44C188.67 130.49 189.05 131.55 189.39 132.62C189.48 132.89 189.56 133.16 189.64 133.43C189.44 132.76 189.42 132.71 189.6 133.3C189.76 133.84 189.91 134.38 190.07 134.92L196.2 129.21C194.55 126.69 192.89 124.17 191.24 121.65C190.79 120.97 190.35 120.29 189.9 119.61C189.74 119.37 189.6 119.11 189.43 118.89C189.24 118.58 189.28 118.66 189.55 119.14L189.39 118.77C189.66 119.85 189.78 120.78 189.54 121.87C189.28 123.06 189.8 121.33 189.38 122.31C189.18 122.72 189.18 122.74 189.4 122.37L189.04 122.8C189.02 122.68 189.54 122.32 189.62 122.25C189.7 122.18 190.27 121.79 189.84 122.06C189.34 122.37 190.17 121.9 190.27 121.85C190.73 121.62 191.2 121.43 191.69 121.27C192.05 121.15 192.37 121.11 191.82 121.21C192.06 121.17 192.3 121.12 192.55 121.08C193.17 120.98 193.79 120.9 194.4 120.8C197.18 120.37 199.82 119.73 201.92 117.72C203.55 116.16 204.02 113.27 203.51 111.14C203.06 109.29 201.93 107.01 199.74 106.98C194.11 106.9 188.48 106.88 182.84 106.86C177.2 106.84 171.55 106.78 165.95 107.49C160.35 108.2 154.76 109.77 149.29 111.08C144.2 112.3 138.93 113.09 133.7 113.53C127.58 114.05 121.33 113.87 115.2 113.52C112.33 113.36 112.22 119.86 114.76 120.45L114.79 120.43Z" fill="#1D1D1B"/>
<path d="M168.56 110.08C166.46 110.58 164.91 111.62 163.31 113.04C161.95 114.25 160.59 115.45 159.2 116.62C157.81 117.79 156.63 118.69 154.89 119.36C153.29 119.98 151.72 120 150.17 119.47L150.4 128.74C154.57 127.33 158.96 126.63 163.18 125.38C167.4 124.13 170.28 120.93 170.16 116.35C170.12 114.87 169.58 112.94 168.19 112.18C166.8 111.42 165.8 112.11 164.9 113.22C163.24 115.28 161.54 117.29 159.84 119.32C158.01 121.51 155.59 123.72 154.67 126.47C153.53 129.89 154.77 133.21 155.56 136.53C156.18 139.13 156.71 141.76 157.15 144.39C157.59 147.02 157.96 149.68 158.27 152.34C158.14 151.25 158.35 153.07 158.37 153.31C158.43 153.94 158.5 154.56 158.56 155.19C158.69 156.6 158.81 158.01 158.92 159.43C159.33 164.7 159.69 169.98 160.04 175.26C160.24 178.25 160.46 181.24 160.71 184.23C161.03 188 161.49 191.52 163.48 194.82C164.13 195.89 165.31 196.51 166.52 196.24C167.92 195.94 168.51 194.77 169.07 193.58C170.57 190.4 171.18 186.76 171.14 183.26C171.1 179.76 170.46 175.49 168.22 172.67C167.25 171.45 165.6 170.71 164.31 172C162.92 173.39 162.57 175.69 162.97 177.55C163.09 178.11 163.18 178.68 163.33 179.24C163.4 179.48 163.87 181.19 163.58 180.05C163.65 180.32 163.73 180.59 163.79 180.87C163.88 181.27 164.21 182.14 164.09 182.54C164.18 182.25 164.04 181.65 164.05 182.38C164.05 182.73 164.08 183.08 164.08 183.44C164.08 183.58 164.04 184.52 164.08 183.78C164.12 183.04 164.05 183.97 164.03 184.11C163.96 184.67 163.85 185.22 163.74 185.77C163.6 186.49 164.02 185.01 163.74 185.69C163.64 185.95 163.57 186.23 163.48 186.49C163.27 187.09 163.02 187.67 162.75 188.25L168.34 187.01C169 188.09 167.81 185.63 168.31 187.1C168.15 186.64 168.08 186.14 168 185.66C167.97 185.47 167.81 184.57 167.94 185.33C168.07 186.09 167.93 185.19 167.91 184.99C167.84 184.29 167.78 183.59 167.72 182.9C167.51 180.46 167.32 178.02 167.14 175.59C166.78 170.63 166.48 165.66 166.02 160.71C165.09 150.65 163.74 140.56 160.88 130.85C160.81 130.63 160.75 130.41 160.68 130.19C160.61 129.97 160.56 129.75 160.51 129.52C160.44 129.17 160.44 129.22 160.5 129.68C160.48 129.84 160.24 130.87 160.3 130.99C160.19 131.25 160.25 131.18 160.48 130.79L160.72 130.47C161.6 129.31 162.53 128.18 163.44 127.04C165.2 124.82 166.94 122.6 168.74 120.42L164.08 116.55C164.07 115.97 164.24 115.44 164.5 114.94C164.2 115.53 164.93 114.71 164.36 115.1C164.3 115.14 163.67 115.63 163.98 115.42C164.29 115.21 163.57 115.63 163.5 115.67C162.24 116.3 160.88 116.62 159.53 116.95C156.15 117.78 152.75 118.8 149.32 119.37C145.26 120.04 145.38 127.27 148.71 128.84C153.08 130.89 158.07 128.26 161.35 125.36C162.93 123.96 164.16 122.23 165.65 120.74C167.14 119.25 168.78 117.75 170.48 116.52C172.61 114.99 171.63 109.4 168.54 110.13L168.56 110.08Z" fill="#1D1D1B"/>
</g>
<defs>
<clipPath id="clip0_3416_10385">
<rect width="265.53" height="278.22" fill="white"/>
</clipPath>
</defs>
</svg>
