<svg width="226" height="235" viewBox="0 0 226 235" fill="none" xmlns="http://www.w3.org/2000/svg">
<g clip-path="url(#clip0_3416_9969)">
<path d="M164.13 8.24979C158.93 5.11979 153.52 2.44979 147.86 0.239793C145.45 -0.700207 145.06 4.48979 147.06 5.39979C190.24 25.0998 221.71 70.0898 221.16 118.17C220.65 162.81 191.98 206.58 149.29 221.29C107.36 235.75 56.24 221.94 27.32 188.23C-3.44999 152.36 -1.99999 96.8998 24.8 59.2098C37.21 41.7498 54.83 28.1898 74.96 20.8498C98.24 12.3498 124.65 12.7398 148.16 20.2798C154.05 22.1698 159.78 24.4898 165.38 27.1098C166.48 27.6298 166.73 25.0898 165.77 24.6198C141.62 12.6698 114.18 6.76979 87.46 12.0998C65.53 16.4698 45.5 28.2498 30.43 44.7098C-1.83999 79.9398 -9.98999 136.67 14.02 178.57C37.51 219.58 89.39 240.67 135.19 231.98C158.42 227.57 179.64 215.54 195.08 197.61C210.33 179.9 220.39 157.75 223.83 134.64C231.09 85.8698 206.42 33.7398 164.13 8.25979V8.24979Z" fill="black" stroke="black" stroke-width="0.25" stroke-miterlimit="10"/>
<path d="M206.82 71.3899C208.39 70.5599 207.92 66.3399 205.95 67.1999C191.74 73.4199 177.71 80.0799 163.81 86.9899C159.03 84.1699 154.25 81.3499 149.46 78.5299C149.2 78.3699 148.95 78.3699 148.73 78.4799C148.69 78.4899 148.66 78.5099 148.62 78.5299C142.83 81.5599 137.05 84.5899 131.26 87.6199V71.4399C131.52 69.8899 131.26 68.0099 130.51 67.1099C130.34 66.8499 130.13 66.6699 129.88 66.6199C115.97 58.4199 102.06 50.2099 88.15 42.0099C87.89 41.8499 87.64 41.8499 87.42 41.9599C87.38 41.9699 87.35 41.9899 87.31 42.0099C72.33 49.8499 57.36 57.6999 42.38 65.5399C42.17 65.5699 41.99 65.6999 41.83 65.8799C40.96 66.6799 40.69 68.6799 40.97 70.3199V121.84C40.97 122.7 41.14 125.07 42.29 125.39C50.78 130.35 59.27 135.3 67.76 140.26C64.81 142.15 61.87 144.06 58.95 146C45.53 154.91 32.59 164.53 20.01 174.59C19.1 175.32 19.75 177.98 21.02 177.05C37.58 164.9 54.71 153.58 72.24 142.88C77.16 145.75 82.07 148.62 86.98 151.49C87.17 151.67 87.4 151.78 87.67 151.78C87.94 151.78 88.17 151.67 88.36 151.48C93 148.57 97.64 145.66 102.28 142.75V158.36C102.28 159.22 102.45 161.59 103.6 161.91C118.5 170.61 133.4 179.31 148.29 188.01C148.48 188.19 148.71 188.3 148.98 188.3C149.25 188.3 149.48 188.19 149.67 188C162.37 180.03 175.08 172.06 187.78 164.1C189.17 163.23 191.29 162.4 192.1 160.9C192.96 159.33 192.56 156.42 192.56 154.68V107.96C192.82 106.41 192.56 104.53 191.81 103.63C191.64 103.37 191.43 103.19 191.18 103.14C183.92 98.8599 176.65 94.5699 169.39 90.2899C181.92 84.0999 194.45 77.9299 206.8 71.3899H206.82ZM149.89 127.27C149.33 127.65 148.91 127.73 148.87 127.8C147.49 127.23 146.03 126.04 144.82 125.35C140.31 122.77 135.79 120.19 131.28 117.61V109.63C141.66 104.19 152.1 98.8799 162.58 93.6799C169.96 98.0299 177.34 102.38 184.72 106.74C174.09 113.01 163.46 119.28 152.83 125.55C151.86 126.12 150.82 126.64 149.89 127.28V127.27ZM118.67 110.41C115.98 108.88 113.3 107.34 110.61 105.81C116.44 102.75 122.28 99.6999 128.11 96.6399V105.35C124.95 107.02 121.81 108.71 118.67 110.41ZM105.45 110.26C107.65 111.52 109.84 112.77 112.04 114.03C109.84 115.25 107.64 116.47 105.45 117.71V110.27V110.26ZM117.33 117.05C119.78 118.45 122.24 119.86 124.69 121.26C118.28 125.28 111.86 129.3 105.45 133.33V123.58C109.4 121.38 113.35 119.21 117.33 117.06V117.05ZM124.02 113.46C125.39 112.73 126.75 112 128.12 111.28V115.8C126.75 115.02 125.39 114.24 124.02 113.46ZM131.52 103.54C131.44 103.58 131.36 103.63 131.28 103.67V94.9899C137.2 91.8899 143.11 88.7899 149.03 85.6899C151.69 87.2599 154.35 88.8299 157.01 90.3999C148.47 94.7099 139.97 99.0999 131.52 103.55V103.54ZM103.71 102.06C103.5 102.09 103.32 102.22 103.16 102.4C102.29 103.2 102.02 105.2 102.3 106.84V119.49C97.94 121.97 93.61 124.48 89.3 127.04C89.31 117.27 89.32 107.5 89.33 97.7299C102.26 90.0999 115.19 82.4799 128.13 74.8499V89.2699C119.99 93.5299 111.86 97.7899 103.72 102.06H103.71ZM87.72 49.1599C99.62 56.1799 111.51 63.1899 123.41 70.2099C112.78 76.4799 102.15 82.7499 91.52 89.0199C90.55 89.5899 89.51 90.1099 88.58 90.7499C88.02 91.1299 87.6 91.2099 87.56 91.2799C86.18 90.7099 84.72 89.5199 83.51 88.8299C75.93 84.4999 68.35 80.1699 60.77 75.8299C56.95 73.6499 53.13 71.4599 49.31 69.2799C62.11 62.5699 74.92 55.8699 87.72 49.1599ZM60.46 128.58C55.02 125.4 49.58 122.23 44.15 119.05V73.7299C58.16 81.7299 72.16 89.7399 86.17 97.7399C86.16 108.13 86.15 118.51 86.14 128.9C82.03 131.36 77.95 133.87 73.89 136.41C69.42 133.8 64.94 131.19 60.47 128.57L60.46 128.58ZM78.5 139.12C81.03 137.6 83.58 136.1 86.12 134.6C86.12 137.65 86.12 140.7 86.12 143.76C85.28 143.22 84.46 142.6 83.77 142.19C82.02 141.17 80.26 140.14 78.51 139.12H78.5ZM91.72 141.93C90.92 142.43 90.07 142.91 89.27 143.43C89.27 139.87 89.27 136.31 89.28 132.75C93.6 130.24 97.94 127.77 102.29 125.33V135.31C98.77 137.52 95.24 139.73 91.72 141.94V141.93ZM121.77 165.11C116.33 161.93 110.89 158.76 105.46 155.58V140.77C112.47 136.37 119.49 131.97 126.5 127.58C127.8 126.76 129.73 125.98 130.64 124.65C136.25 127.86 141.87 131.06 147.48 134.27C147.46 149.61 147.45 164.94 147.43 180.28C146.59 179.74 145.77 179.12 145.08 178.71C137.31 174.17 129.55 169.64 121.78 165.1L121.77 165.11ZM153.03 178.46C152.23 178.96 151.38 179.44 150.58 179.96C150.6 164.73 150.61 149.49 150.63 134.26C163.56 126.63 176.49 119.01 189.43 111.38V155.64C177.3 163.25 165.17 170.86 153.03 178.47V178.46Z" fill="black" stroke="black" stroke-width="0.25" stroke-miterlimit="10"/>
</g>
<defs>
<clipPath id="clip0_3416_9969">
<rect width="225.22" height="234.04" fill="white"/>
</clipPath>
</defs>
</svg>
