<svg width="282" height="293" viewBox="0 0 282 293" fill="none" xmlns="http://www.w3.org/2000/svg">
<g clip-path="url(#clip0_3416_9890)">
<path d="M204.08 149.71C208.31 154.48 213.61 158.37 218.91 161.88C224.48 165.58 230.31 169.32 234.93 174.2C235.08 174.36 235.23 174.53 235.38 174.69C235.35 174.66 234.93 174.13 235.21 174.51C235.44 174.81 235.71 175.09 235.95 175.39C236.46 176.02 236.94 176.68 237.39 177.35C237.79 177.95 238.16 178.57 238.53 179.19C238.95 179.9 238.18 178.47 238.66 179.44C238.87 179.88 239.08 180.31 239.28 180.75C239.56 181.38 239.81 182.02 240.04 182.67C240.14 182.95 240.21 183.47 240.39 183.71C240.33 183.63 240.07 182.53 240.28 183.36C240.33 183.56 240.39 183.76 240.44 183.96C240.62 184.66 240.76 185.36 240.89 186.07C240.95 186.42 240.98 186.78 241.05 187.13C241.17 187.69 240.98 186.45 240.98 186.49C240.98 186.74 241.03 187 241.05 187.25C241.11 187.95 241.13 188.66 241.14 189.37C241.14 189.72 241.14 190.08 241.13 190.43C241.13 190.58 241.11 190.73 241.11 190.88C241.12 191.51 241.24 189.47 241.13 190.54C240.99 191.95 240.78 193.32 240.48 194.7C240.3 195.55 240.78 193.64 240.46 194.74C240.36 195.08 240.27 195.41 240.16 195.75C239.94 196.47 239.69 197.18 239.41 197.88C239.15 198.54 238.85 199.17 238.58 199.83C238.39 200.3 238.76 199.41 238.78 199.41C238.76 199.41 238.55 199.88 238.51 199.95C238.33 200.31 238.14 200.67 237.94 201.02C237.24 202.32 236.45 203.57 235.6 204.77C235.22 205.31 234.81 205.83 234.4 206.35C235.09 205.47 234.39 206.35 234.22 206.55C233.95 206.86 233.68 207.16 233.4 207.46C232.4 208.55 231.33 209.57 230.2 210.52C229.65 210.98 229.1 211.42 228.52 211.85C228.23 212.06 227.94 212.26 227.65 212.48C227.3 212.75 227.82 212.37 227.85 212.35C227.64 212.49 227.42 212.63 227.21 212.77C224.75 214.32 222.1 215.56 219.31 216.41C218.97 216.51 218.62 216.61 218.28 216.7C218.02 216.77 217.16 216.96 217.87 216.81C217.11 216.97 216.35 217.11 215.58 217.21C214.07 217.42 212.55 217.51 211.03 217.48C209.33 217.45 207.63 217.28 205.95 217.03C205.7 216.99 205.45 216.95 205.2 216.91C205.28 216.92 205.64 216.99 205.21 216.91C204.78 216.83 204.34 216.74 203.91 216.64C202.98 216.43 202.06 216.2 201.15 215.93C197.6 214.89 194.2 213.41 191 211.55C190.61 211.33 190.97 211.54 191.04 211.58C190.82 211.45 190.61 211.31 190.39 211.17C190.07 210.96 189.75 210.75 189.43 210.54C188.64 210 187.87 209.44 187.12 208.85C185.67 207.71 184.29 206.48 183 205.15C182.82 204.97 182.65 204.78 182.47 204.6C182.44 204.56 182.01 204.1 182.32 204.45C182.63 204.8 182.22 204.33 182.18 204.29C182.01 204.1 181.85 203.9 181.69 203.71C181.08 202.97 180.5 202.21 179.94 201.43C179.38 200.65 178.85 199.83 178.36 199C178.24 198.8 178.13 198.6 178.01 198.4C178.11 198.58 178.36 199.11 177.95 198.28C177.69 197.75 177.43 197.21 177.19 196.67C176.81 195.81 176.52 194.92 176.19 194.04C175.92 193.32 176.39 194.84 176.2 194.1C176.15 193.89 176.09 193.69 176.03 193.49C175.89 192.95 175.76 192.4 175.65 191.85C175.55 191.37 175.46 190.89 175.39 190.41C175.35 190.14 175.32 189.86 175.27 189.59C175.16 188.97 175.3 189.96 175.31 189.99C175.13 188.98 175.14 187.9 175.11 186.88C175.08 185.86 175.1 184.93 175.14 183.96C175.14 183.85 175.1 183.41 175.17 183.33C175.13 183.38 175.07 184.64 175.17 183.51C175.22 182.95 175.26 182.39 175.32 181.83C175.53 179.85 175.83 177.88 176.19 175.92C176.93 171.79 177.91 167.7 178.77 163.59C179.63 159.48 180.57 154.98 179.72 150.65C179.24 148.23 178.17 145.85 176.09 144.4C174.39 143.21 172.74 144.01 171.9 145.79C170.97 147.74 171 150.53 172.32 152.33C172.47 152.53 172.59 152.74 172.74 152.94C172.68 152.86 172.47 152.25 172.58 152.7C172.64 152.93 172.84 153.64 173.03 153.82C172.61 153.42 172.84 152.91 172.92 153.52C172.95 153.71 172.98 154.04 173.04 154.21C173.03 154.18 172.98 153.08 172.96 153.66C172.95 153.95 172.96 154.27 172.98 154.56C173 154.97 172.77 155.36 173.02 154.22C172.98 154.39 172.99 154.59 172.97 154.77C172.93 155.2 172.87 155.62 172.8 156.05C172.64 157.1 172.43 158.14 172.22 159.18C171.36 163.44 170.34 167.67 169.52 171.95C167.75 181.25 167.22 190.76 170.28 199.85C175.63 215.73 191.71 226.27 207.9 228.06C221.37 229.55 233.99 222.49 241.4 211.43C249.42 199.46 250.29 183.35 242.79 170.95C239.14 164.91 233.35 160.24 227.45 156.52C224.37 154.58 221.24 152.7 218.04 150.97C216.59 150.19 215.15 149.39 213.73 148.56C213.37 148.35 213 148.13 212.64 147.92C213 148.14 212.23 147.67 212.13 147.6C211.49 147.2 210.85 146.78 210.23 146.35C209.08 145.55 207.96 144.7 206.91 143.77C205.72 142.71 204.33 143.62 203.76 144.81C203.11 146.17 203 148.51 204.07 149.73L204.08 149.71Z" fill="#1D1D1B"/>
<path d="M204.07 155.76C210.22 144.94 213.07 132.32 212.22 119.9C211.37 107.48 207 95.26 197.23 87.46C186.59 78.96 171.43 77.46 159.24 83.45C145.03 90.45 136.69 106.52 140.06 122.18C141.89 130.67 147.24 137.72 153.6 143.41C156.35 145.88 159.29 148.23 162.42 150.21C163.96 151.18 165.53 152.09 167.04 153.11C167.73 153.58 168.41 154.06 169.05 154.59C169.34 154.83 169.63 155.08 169.91 155.34C170.15 155.57 170.97 156.64 170.39 155.8C170.6 156.11 170.86 156.39 171.07 156.7C171.16 156.83 171.25 156.98 171.34 157.11C171.83 157.82 171.23 157.02 171.25 156.9C171.2 157.16 172.35 159.03 172.27 158.89C172.32 158.97 172.44 159.23 172.52 159.28C172.92 159.54 172.1 158.42 172.51 159.28C173.16 160.66 174.49 162.16 176.18 161.43C177.87 160.7 178.52 158.31 178.41 156.67C178.23 153.9 177.6 151.55 176.09 149.2C175.12 147.68 173.81 146.31 172.42 145.17C169.75 142.97 166.62 141.39 163.81 139.37C161 137.35 158.18 135.05 155.63 132.6C155 131.99 154.38 131.37 153.77 130.73C153.59 130.54 152.83 129.71 153.37 130.32C153.04 129.94 152.71 129.56 152.39 129.18C151.2 127.74 150.1 126.21 149.15 124.6C149.06 124.44 148.97 124.27 148.87 124.12C148.58 123.65 148.99 124.38 149.01 124.4C148.73 124.04 148.54 123.48 148.35 123.07C147.96 122.22 147.61 121.36 147.31 120.48C147.26 120.32 147.22 120.09 147.14 119.95C147.22 120.08 147.44 121.09 147.22 120.17C147.12 119.74 147.01 119.32 146.92 118.88C146.83 118.44 146.76 118.01 146.69 117.57C146.67 117.42 146.59 116.75 146.68 117.54C146.78 118.42 146.68 117.36 146.66 117.17C146.6 116.35 146.58 115.52 146.59 114.7C146.59 114.29 146.62 113.89 146.63 113.49C146.65 112.87 146.59 114.13 146.59 114.1C146.65 113.83 146.64 113.52 146.67 113.25C146.76 112.47 146.88 111.69 147.03 110.91C147.08 110.65 147.37 109.98 147.28 109.77C147.31 109.85 146.93 111.01 147.2 110.12C147.27 109.91 147.32 109.7 147.39 109.48C147.62 108.75 147.87 108.02 148.15 107.31C148.29 106.96 148.45 106.61 148.6 106.26C149.05 105.21 148.25 106.89 148.78 105.9C149.52 104.51 150.34 103.18 151.29 101.92C151.42 101.75 151.55 101.58 151.68 101.41C151.6 101.52 151.09 102.11 151.6 101.52C151.81 101.27 152.02 101.03 152.24 100.78C152.82 100.13 153.42 99.51 154.05 98.92C155.2 97.83 156.47 96.91 157.71 95.93C158.06 95.66 157.6 96 157.55 96.03C157.73 95.91 157.91 95.79 158.1 95.67C158.42 95.46 158.75 95.26 159.08 95.07C159.79 94.65 160.51 94.26 161.25 93.89C162.68 93.18 164.17 92.56 165.68 92.06C166.42 91.81 167.16 91.59 167.92 91.4C168.02 91.37 168.7 91.21 168.26 91.31C167.86 91.4 168.4 91.28 168.44 91.27C168.88 91.18 169.32 91.09 169.76 91.02C171.42 90.73 173.11 90.57 174.8 90.54C176.49 90.51 178.11 90.57 179.75 90.76C180.12 90.8 180.49 90.85 180.86 90.91C181.02 90.93 182.01 91.1 181.62 91.03C181.27 90.97 182.16 91.14 182.36 91.18C182.75 91.26 183.14 91.35 183.53 91.45C186.19 92.11 188.78 93.09 191.19 94.4C191.47 94.55 191.74 94.71 192.02 94.87C192.83 95.34 191.69 94.64 192.24 95.01C192.83 95.41 193.43 95.8 194 96.22C195.02 96.98 196 97.79 196.93 98.67C197.37 99.09 197.8 99.53 198.22 99.97C198.85 100.63 197.89 99.57 198.34 100.09C198.57 100.36 198.79 100.62 199.02 100.89C199.82 101.87 200.57 102.91 201.26 103.97C201.59 104.49 201.91 105.02 202.22 105.55C202.29 105.66 202.35 105.78 202.42 105.9C202.8 106.57 202.28 105.68 202.29 105.66C202.24 105.73 202.71 106.48 202.78 106.61C203.36 107.78 203.87 108.98 204.35 110.19C204.58 110.78 204.8 111.37 205.01 111.97C205.11 112.27 205.22 112.57 205.31 112.88C205.3 112.84 205.47 113.4 205.48 113.4C205.46 113.4 205.21 112.47 205.4 113.14C205.78 114.49 206.12 115.84 206.4 117.21C206.68 118.58 206.85 119.91 207.05 121.27C207.12 121.73 207.01 120.91 207.01 120.91C207.05 121.09 207.05 121.3 207.07 121.49C207.1 121.83 207.13 122.16 207.16 122.5C207.22 123.23 207.27 123.95 207.3 124.68C207.36 126.1 207.38 127.51 207.34 128.93C207.32 129.62 207.28 130.3 207.26 130.99C207.24 131.53 207.31 130.38 207.26 130.93C207.25 131.08 207.24 131.23 207.23 131.38C207.2 131.78 207.17 132.17 207.13 132.57C206.57 138.46 205.46 143.88 203.51 149.33C203.02 150.69 202.49 152.03 201.91 153.35C201.56 154.14 201.73 155.37 202.32 156C202.86 156.58 203.68 156.53 204.09 155.8L204.07 155.76Z" fill="#1D1D1B"/>
<path d="M228.75 209.41C229.97 207.21 230.64 204.84 230.74 202.32C230.83 200.1 230.49 197.7 229.51 195.69C228.53 193.68 226.97 191.87 224.68 191.38C223.5 191.13 222.49 191.09 221.35 191.57C220.92 191.75 220.54 192 220.16 192.26C219.39 192.78 219.05 193.59 218.68 194.4C218.31 195.21 218.4 196.24 218.65 197.04C218.83 197.62 219.25 198.59 219.95 198.72C220.36 198.8 220.79 198.98 221.22 198.95C221.54 198.92 221.86 198.85 222.18 198.85C222.84 198.85 223.54 198.87 224.2 198.98L223.52 198.86C224.08 198.98 224.59 199.17 225.09 199.45L224.47 199.08C224.77 199.26 225.07 199.45 225.37 199.63L224.76 199.26C224.95 199.38 225.14 199.51 225.31 199.66C225.39 199.72 225.92 200.25 225.55 199.86C225.18 199.47 225.66 200.03 225.72 200.12C225.79 200.22 225.85 200.31 225.91 200.41C226.08 200.7 226.03 200.61 225.77 200.14C225.83 200.3 225.92 200.47 225.99 200.63C226.11 200.92 226.21 201.65 226.03 200.63C226.1 201.04 226.24 201.44 226.3 201.86C226.32 202 226.34 202.14 226.36 202.28C226.3 201.76 226.29 201.63 226.31 201.9C226.32 202.15 226.35 202.4 226.35 202.64C226.36 203.13 226.35 203.63 226.35 204.12C226.33 204.47 226.34 204.4 226.36 203.93C226.35 204.07 226.33 204.22 226.32 204.36C226.3 204.58 226.27 204.79 226.23 205C226.19 205.27 226.16 205.59 226.06 205.85C226.29 205.24 225.98 206.12 225.94 206.24C225.6 207.37 225.66 208.75 226.47 209.66C227.15 210.42 228.24 210.33 228.76 209.4L228.75 209.41Z" fill="#1D1D1B"/>
<path d="M227.64 188.3C229 186.32 229.41 183.58 229.22 181.22C229.02 178.72 228.15 176.18 226.58 174.2C225.18 172.44 223.34 171.05 221.21 170.3C220.14 169.92 219 169.68 217.86 169.7C216.72 169.72 215.63 170.07 214.6 170.62C213.57 171.17 213.32 172.48 213.44 173.53C213.55 174.46 214.06 175.76 215.19 175.76C216.07 175.76 216.95 175.88 217.82 175.95C218.23 175.98 218.63 176.05 219.04 176.11C219.07 176.11 219.71 176.23 219.28 176.14C219.48 176.18 219.68 176.23 219.87 176.28C220.69 176.5 221.47 176.82 222.21 177.23C222.35 177.31 222.33 177.29 222.15 177.19C222.24 177.24 222.32 177.3 222.4 177.36C222.6 177.49 222.79 177.63 222.97 177.78C223.29 178.03 223.58 178.3 223.87 178.59C224.33 179.04 223.59 178.21 224 178.73C224.13 178.89 224.25 179.05 224.37 179.22C224.49 179.39 224.59 179.57 224.71 179.74C225.05 180.23 224.56 179.37 224.78 179.86C224.97 180.27 225.13 180.68 225.29 181.1C225.36 181.3 225.34 181.23 225.23 180.89C225.26 180.99 225.28 181.09 225.31 181.19C225.37 181.42 225.42 181.66 225.47 181.89C225.51 182.09 225.54 182.29 225.58 182.49C225.69 183.06 225.56 181.92 225.58 182.56C225.6 182.87 225.75 183.52 225.6 183.8C225.62 183.44 225.62 183.41 225.6 183.72L225.57 183.93C225.54 184.14 225.5 184.34 225.47 184.55C225.41 184.82 225.41 184.82 225.47 184.56C225.41 184.79 225.35 185.03 225.3 185.26C225.28 185.34 225.13 186.01 225.23 185.64C224.98 186.59 224.95 187.77 225.68 188.53C226.32 189.19 227.1 189.06 227.61 188.31L227.64 188.3Z" fill="#1D1D1B"/>
<path d="M214.55 189.08C216.57 185.57 216.26 181.2 214.37 177.71C213.37 175.86 211.98 174.33 210.16 173.28C209.25 172.75 208.25 172.49 207.19 172.53C205.8 172.59 204.75 173.35 203.97 174.47C203.44 175.24 203.43 176.42 203.69 177.26C203.9 177.96 204.42 178.8 205.26 178.79C205.99 178.79 206.7 178.84 207.43 178.84C207.87 178.84 207.11 178.73 207.57 178.85C207.74 178.9 207.92 178.95 208.09 178.99C208.44 179.08 208.79 179.15 209.13 179.28C209.32 179.35 209.52 179.43 209.7 179.52C209.76 179.55 210.27 179.81 209.99 179.66C209.71 179.51 210.24 179.83 210.29 179.87C210.42 179.96 210.54 180.06 210.67 180.16C210.91 180.36 211.14 180.58 211.37 180.79C211.72 181.12 211.13 180.48 211.41 180.83C211.52 180.97 211.64 181.12 211.75 181.27C211.95 181.55 212.13 181.83 212.31 182.13C212.55 182.52 212.13 181.71 212.33 182.17C212.39 182.32 212.47 182.46 212.53 182.61C212.59 182.76 212.65 182.9 212.7 183.05C212.74 183.15 212.77 183.25 212.8 183.35L212.72 183.08C212.88 183.33 212.9 183.82 212.96 184.1C212.99 184.26 213.02 184.41 213.05 184.57C213.08 184.74 213.27 185.22 213.08 184.7C213.18 184.97 213.12 185.38 213.12 185.67C213.12 185.74 213.07 186.25 213.12 185.81C213.1 185.98 213.09 186.14 213.06 186.31C213.03 186.48 213.01 186.64 212.98 186.8C212.96 186.91 212.94 187.02 212.91 187.12C212.94 187 212.93 187.03 212.88 187.22C212.69 187.87 212.69 188.72 213.2 189.24C213.62 189.68 214.23 189.65 214.55 189.08Z" fill="#1D1D1B"/>
<path d="M192.1 132.87C195.21 129.99 194.92 124.76 192.85 121.39C190.78 118.02 186.47 116.14 182.72 117.1C182 117.28 181.73 118.55 181.76 119.15C181.8 119.91 182.07 120.81 182.82 121.15C184.21 121.78 185.71 122.15 187.08 122.84C187.25 122.93 187.41 123.02 187.58 123.11C187.96 123.31 187.39 122.96 187.77 123.23C188.05 123.43 188.33 123.63 188.6 123.84C188.89 124.06 189.19 124.27 189.47 124.5C189.61 124.62 189.74 124.74 189.87 124.87C189.92 124.92 190.3 125.36 190.11 125.11C189.92 124.86 190.2 125.24 190.24 125.29C190.34 125.42 190.44 125.56 190.53 125.7C190.59 125.79 190.65 125.89 190.7 125.99L190.56 125.73C190.66 125.82 190.72 126.06 190.78 126.19C190.92 126.48 191 126.83 191.15 127.1C190.9 126.66 191.08 126.87 191.15 127.13C191.19 127.29 191.21 127.45 191.24 127.62C191.34 128.17 191.24 127.07 191.24 127.64C191.24 127.81 191.24 127.97 191.24 128.14C191.24 128.61 191.33 127.69 191.23 128.2C191.2 128.36 191.18 128.53 191.14 128.69C191.21 128.34 191.14 128.65 191.09 128.82C191.04 128.95 190.99 129.08 190.94 129.21C190.89 129.32 190.9 129.31 190.96 129.18C190.92 129.26 190.88 129.33 190.83 129.41C190.73 129.58 190.61 129.75 190.5 129.92C190.02 130.59 190.07 131.74 190.46 132.43C190.8 133.03 191.48 133.45 192.09 132.88L192.1 132.87Z" fill="#1D1D1B"/>
<path d="M190.66 112.34C191.13 107.75 189.95 102.48 186.25 99.4197C184.56 98.0297 182.42 97.1297 180.21 97.1797C178 97.2297 175.71 98.3197 174.5 100.32C173.88 101.34 174.1 104.41 175.93 103.8C176.67 103.55 177.32 103.27 177.89 103.19C178.7 103.08 179.53 102.95 180.35 102.97C180.55 102.97 180.76 102.99 180.96 103.01C180.96 103.01 181.58 103.08 181.25 103.03C181.55 103.07 181.86 103.13 182.16 103.18C181.84 103.13 182.45 103.25 182.45 103.25C183.19 103.43 184.13 103.81 184.63 104.13C185.8 104.87 186.98 106.21 187.57 107.3C188.37 108.77 188.76 110.34 188.86 112.02C188.89 112.53 189.09 113.27 189.68 113.36C190.24 113.45 190.61 112.83 190.65 112.34H190.66Z" fill="#1D1D1B"/>
<path d="M178.26 115.1C178.99 111.52 177.82 107.73 175.3 105.12C174.21 103.99 172.73 103.08 171.22 102.64C170.4 102.4 169.51 102.34 168.66 102.39C168.2 102.42 167.67 102.45 167.24 102.61C166.88 102.75 166.54 103 166.21 103.21C165.37 103.77 165.1 104.72 165.21 105.7C165.31 106.58 165.74 107.51 166.71 107.61C166.87 107.63 167.03 107.65 167.18 107.67C166.85 107.62 167.29 107.7 167.36 107.71C167.8 107.8 168.19 107.77 168.63 107.79C168.95 107.79 169.28 107.83 169.6 107.88C170.12 107.95 169.24 107.79 169.75 107.91C169.91 107.95 170.06 107.99 170.22 108.02C170.85 108.15 171.46 108.3 172.06 108.55C172.35 108.67 172.63 108.81 172.91 108.97C173.36 109.22 172.61 108.75 173.03 109.05C173.16 109.14 173.29 109.23 173.42 109.33C173.67 109.52 173.9 109.73 174.12 109.95C174.2 110.03 174.5 110.39 174.2 110.02C174.3 110.14 174.4 110.26 174.49 110.38C174.68 110.63 174.84 110.89 175.01 111.15L175.09 111.28C174.89 110.91 174.94 111 175.24 111.55C175.07 111.25 175.16 111.41 175.26 111.62C175.36 111.83 175.6 112.23 175.6 112.48C175.6 112.26 175.51 112.17 175.6 112.48C175.64 112.63 175.67 112.78 175.7 112.94C175.73 113.1 175.75 113.25 175.78 113.4C175.8 113.56 175.8 113.5 175.76 113.23C175.76 113.31 175.77 113.39 175.78 113.47C175.78 113.63 175.79 113.78 175.79 113.94C175.79 114.05 175.75 114.63 175.79 114.13C175.73 114.94 175.84 116.17 176.74 116.51C177.64 116.85 178.14 115.8 178.28 115.11L178.26 115.1Z" fill="#1D1D1B"/>
<path d="M52.9101 221.54C60.5001 222.25 68.5801 222.02 75.3601 218.08C82.1401 214.14 86.1901 207.56 89.2501 200.66C92.4701 193.39 94.4501 185.62 98.5101 178.84C102.05 172.93 106.28 168.4 110.99 163.25C115.7 158.1 120.31 152.58 123.75 146.38C125.66 142.94 127.23 139.33 128.32 135.55C128.98 133.28 129.51 130.97 130.07 128.67C130.18 128.22 130.29 127.77 130.4 127.33C130.16 128.31 130.53 126.86 130.59 126.62C130.87 125.58 131.17 124.55 131.5 123.53C131.8 122.61 132.14 121.7 132.51 120.8C132.66 120.45 132.82 120.1 132.97 119.75C132.55 120.75 133.14 119.41 133.28 119.15C134.07 117.64 134.96 116.18 135.91 114.77C136.86 113.36 137.9 111.98 138.97 110.64C139.49 109.99 139.1 110.48 138.99 110.61C139.11 110.46 139.23 110.31 139.36 110.17C139.6 109.87 139.85 109.58 140.1 109.29C140.72 108.55 141.35 107.82 141.98 107.1C146.66 101.72 151.64 96.4399 155.17 90.1999C163.24 75.9499 162.12 59.3599 164.42 43.6699C164.7 41.7599 165.05 39.8599 165.48 37.9799C165.91 36.0999 165.24 32.9899 163.38 31.9699C161.52 30.9499 159.72 32.2899 159.22 34.1699C157.17 41.9199 156.55 49.7599 155.87 57.7099C155.55 61.4699 155.17 65.2399 154.54 68.9599C154.39 69.8599 154.21 70.7599 154.02 71.6599C153.93 72.0699 153.84 72.4799 153.75 72.8899C153.71 73.0499 153.5 73.9199 153.66 73.2699C153.82 72.6199 153.59 73.5299 153.56 73.6399C153.06 75.4699 152.47 77.2699 151.76 79.0199C151.6 79.4099 151.44 79.7999 151.27 80.1899C151.16 80.4399 150.72 81.3299 151.08 80.6299C150.67 81.4399 150.25 82.2399 149.8 83.0299C148.94 84.5199 147.99 85.9499 146.98 87.3399C146.49 88.0099 145.99 88.6699 145.48 89.3299C145.24 89.6299 145 89.9299 144.77 90.2299C145.28 89.5799 144.38 90.6999 144.25 90.8599C143.18 92.1499 142.08 93.4099 140.98 94.6699C136.35 99.9499 131.48 105.23 128.18 111.49C126.26 115.13 124.95 118.92 123.94 122.9C123.62 124.15 123.32 125.41 123.01 126.66C122.88 127.18 122.76 127.71 122.63 128.23C122.62 128.29 122.43 129.03 122.57 128.48C122.71 127.93 122.47 128.86 122.45 128.95C121.95 130.86 121.39 132.75 120.68 134.59C120.38 135.36 120.06 136.12 119.72 136.87C119.64 137.04 119.56 137.21 119.48 137.39C119.5 137.34 119.84 136.68 119.59 137.15C119.39 137.54 119.19 137.94 118.99 138.33C118.2 139.84 117.33 141.31 116.4 142.75C114.56 145.6 112.48 148.24 110.42 150.93C106.2 156.45 101.74 161.85 97.8601 167.62C95.9001 170.53 94.0201 173.47 92.4901 176.63C90.6301 180.45 89.1601 184.4 87.7401 188.4C85.2801 195.3 82.9701 202.03 77.8601 207.4C72.7501 212.77 65.6601 214.48 58.4901 215.36C56.5801 215.59 54.6901 215.95 52.7901 216.24C50.4401 216.61 50.5301 221.34 52.9201 221.56L52.9101 221.54Z" fill="#1D1D1B"/>
<path d="M52.0202 221.48C55.2702 224.78 58.5002 228.15 62.4702 230.59C66.4402 233.03 70.8402 235.02 75.7102 235.66C84.5302 236.83 93.7002 233.53 100.37 227.79C107.38 221.76 111.71 213.07 113.52 204.1C114.43 199.57 114.49 194.92 114.95 190.34C115.05 189.34 115.17 188.33 115.32 187.33C115.41 186.76 115.5 186.2 115.62 185.64C115.68 185.36 115.74 185.08 115.8 184.8C115.99 183.84 115.65 185.23 115.84 184.65C116.17 183.63 116.51 182.62 116.88 181.61C116.94 181.45 117.25 180.76 116.88 181.56C116.99 181.32 117.12 181.08 117.25 180.84C117.5 180.37 117.77 179.9 118.06 179.44C118.63 178.53 119.26 177.66 119.92 176.81C119.48 177.37 120.25 176.42 120.38 176.27C120.78 175.81 121.19 175.36 121.61 174.91C123.1 173.32 124.69 171.81 126.27 170.31C129.44 167.29 132.5 164.18 135.31 160.82C141.45 153.5 146.51 145.52 150.54 136.86C151.54 134.73 152.43 132.55 153.34 130.38C153.77 129.35 154.21 128.32 154.67 127.3C154.79 127.03 154.92 126.76 155.04 126.49C155.35 125.78 154.72 127.11 155.07 126.42C155.38 125.83 155.67 125.23 155.99 124.64C156.97 122.84 158.09 121.13 159.33 119.5C159.48 119.3 159.64 119.11 159.79 118.91C160.19 118.38 159.34 119.44 159.77 118.93C160.05 118.6 160.33 118.26 160.61 117.93C161.26 117.17 161.93 116.43 162.61 115.69C168.35 109.48 174.6 103.76 178.2 95.9599C182.73 86.1599 181.42 74.9099 178.31 64.9199C175.42 55.6599 170.28 47.3299 167.25 38.1299C167.18 37.9099 167.11 37.6899 167.04 37.4699C166.65 36.2699 167.09 37.5099 167.06 37.5499C167.07 37.5299 166.93 36.9799 166.9 36.8899C166.7 36.2099 167.2 36.8499 166.9 37.2999C167.02 37.1099 166.9 36.2299 166.9 35.9699C166.9 36.6499 166.86 37.6699 166.33 38.1899C167.89 36.6499 168.09 34.0599 167.49 32.0699C167.01 30.4899 165.57 28.4799 163.65 29.3399C160.73 30.6399 159.69 34.1799 159.8 37.1299C159.9 39.8699 160.81 42.4699 161.71 45.0399C163.3 49.5699 165.25 53.9599 167.15 58.3699C168.1 60.5699 169.05 62.7799 169.95 64.9999C170.38 66.0699 170.79 67.1399 171.18 68.2199C171.38 68.7799 171.58 69.3499 171.77 69.9199C171.84 70.1299 171.91 70.3499 171.98 70.5599C172.44 71.9899 171.69 69.4999 172.09 70.9499C172.71 73.1999 173.24 75.4799 173.55 77.7999C173.58 78.0099 173.65 78.2599 173.64 78.4699C173.71 77.3499 173.59 77.9599 173.61 78.3099C173.65 78.8999 173.7 79.4999 173.72 80.0899C173.74 80.6099 173.75 81.1299 173.75 81.6499C173.75 81.9499 173.75 82.2399 173.73 82.5399C173.71 83.2399 173.81 83.2999 173.73 82.5899C173.83 83.5999 173.47 84.8799 173.27 85.8699C173.24 86.0299 173.05 86.9599 173.2 86.2699C173.33 85.6399 173.18 86.3499 173.15 86.4499C172.96 87.0899 172.77 87.7299 172.54 88.3599C172.37 88.8399 172.18 89.3099 171.98 89.7699C171.96 89.8199 171.8 90.2699 171.76 90.2799C171.84 90.2799 172.19 89.4399 171.83 90.1199C171.38 90.9899 170.9 91.8399 170.38 92.6599C169.86 93.4799 169.3 94.2899 168.71 95.0699C168.45 95.4099 168.18 95.7499 167.92 96.0899C167.52 96.6199 168.38 95.5499 167.95 96.0599C167.75 96.2999 167.56 96.5399 167.36 96.7699C166.11 98.2399 164.79 99.6599 163.46 101.06C160.78 103.88 158.04 106.63 155.58 109.65C152.46 113.47 150.11 117.52 148.12 122.04C147.19 124.16 146.34 126.31 145.44 128.45C145.02 129.45 144.58 130.45 144.13 131.44C144.01 131.7 143.89 131.96 143.77 132.22C143.85 132.05 144.17 131.41 143.75 132.25C143.5 132.76 143.25 133.28 142.99 133.79C140.95 137.81 138.64 141.69 136.08 145.4C134.82 147.23 133.49 149 132.12 150.74C132.06 150.82 131.61 151.38 132.01 150.88C131.87 151.05 131.74 151.21 131.6 151.38C131.24 151.82 130.87 152.26 130.5 152.7C129.76 153.57 129 154.43 128.23 155.27C125.27 158.5 122 161.4 118.93 164.52C115.61 167.89 112.71 171.57 110.8 175.93C108.89 180.29 108.23 185.11 107.86 189.82C107.68 192.14 107.55 194.47 107.3 196.79C107.19 197.8 107.07 198.81 106.91 199.81C106.82 200.35 106.73 200.88 106.62 201.41C106.57 201.67 106.51 201.93 106.45 202.19C106.42 202.34 106.13 203.43 106.33 202.71C106.51 202.07 106.32 202.73 106.29 202.83C106.22 203.09 106.15 203.34 106.07 203.6C105.92 204.11 105.75 204.62 105.58 205.12C105.23 206.13 104.84 207.12 104.42 208.1C104.31 208.34 104.2 208.59 104.09 208.83C104.16 208.67 104.51 208 104.09 208.8C103.88 209.21 103.66 209.63 103.44 210.03C102.93 210.96 102.37 211.87 101.78 212.75C101.48 213.19 101.18 213.62 100.86 214.05C100.73 214.23 99.9602 215.19 100.46 214.6C99.7902 215.42 99.0702 216.2 98.3202 216.95C97.5702 217.7 96.7802 218.41 95.9602 219.08C95.5902 219.38 95.2202 219.67 94.8402 219.95C94.6202 220.11 94.4002 220.27 94.1802 220.42C93.5702 220.84 94.9302 219.96 93.8302 220.64C90.3002 222.82 86.4102 224.35 82.6902 224.85C80.6302 225.13 78.5302 225.18 76.4602 224.98C74.5102 224.8 72.8902 224.38 70.7702 223.69C66.6502 222.35 62.8402 220.08 59.0802 217.98C57.2802 216.97 55.4702 215.96 53.6802 214.93C52.3402 214.16 51.2102 216.08 50.9702 217.06C50.5902 218.62 50.8902 220.32 52.0402 221.48H52.0202Z" fill="#1D1D1B"/>
<path d="M53.8001 216.48C50.8901 213.51 48.0901 210.51 45.8001 207.01C44.7601 205.42 44.1301 204.24 43.4001 202.46C42.5601 200.42 42.3601 199.76 41.9401 197.61C41.8601 197.21 41.7901 196.8 41.7301 196.39C41.6901 196.16 41.6701 195.92 41.6301 195.69C41.7501 196.49 41.6501 195.89 41.6301 195.71C41.5601 194.77 41.5001 193.82 41.5001 192.88C41.5001 192.4 41.5301 191.92 41.5401 191.45C41.5201 192.47 41.5801 191 41.6101 190.79C41.7101 189.82 41.8601 188.86 42.0501 187.9C42.0901 187.72 42.4201 186.28 42.2001 187.16C42.3201 186.68 42.4601 186.19 42.6101 185.72C42.9101 184.74 43.2501 183.77 43.6401 182.82C43.7801 182.47 43.9401 182.12 44.0901 181.78C43.7501 182.53 44.0201 181.93 44.2301 181.54C44.6601 180.73 45.1201 179.95 45.6101 179.18C46.5901 177.63 47.6701 176.14 48.8001 174.7C48.9501 174.5 49.1101 174.31 49.2601 174.12C49.6601 173.61 48.8901 174.57 49.3001 174.07C49.5801 173.73 49.8601 173.4 50.1401 173.06C50.8401 172.24 51.5201 171.41 52.2301 170.6C54.6601 167.79 57.2401 165.1 59.9901 162.61C66.3301 156.86 73.6201 151.68 76.4201 143.16C77.9101 138.63 78.0901 133.87 78.1701 129.14C78.1901 128.16 78.2001 127.19 78.2201 126.21C78.2301 125.69 78.2501 125.18 78.2801 124.66C78.2801 124.46 78.3301 123.61 78.2801 124.42C78.2401 125.32 78.3101 124.08 78.3201 124C78.4101 123.07 78.5301 122.13 78.7101 121.21C78.7601 120.97 78.8101 120.73 78.8601 120.48C78.9701 119.91 78.7801 120.87 78.7601 120.88C79.0401 120.65 79.1901 119.5 79.3301 119.14C79.4001 118.97 79.4801 118.8 79.5401 118.63C79.7701 117.99 79.1401 119.32 79.4901 118.74C79.7401 118.31 79.9701 117.87 80.2501 117.45C80.3901 117.24 81.1101 116.33 80.5901 116.93C80.9701 116.49 81.3601 116.08 81.7801 115.69C82.4801 115.03 83.2301 114.44 84.0001 113.87C84.6201 113.41 84.2601 113.67 84.1201 113.77C84.3301 113.62 84.5501 113.48 84.7701 113.34C85.2601 113.02 85.7601 112.72 86.2701 112.41C90.0001 110.16 93.7501 107.97 96.7901 104.79C100.08 101.35 102.65 97.2798 104.35 92.8298C106.05 88.3798 106.72 83.2598 107.53 78.4098C107.71 77.3098 107.91 76.2198 108.15 75.1298C108.21 74.8398 108.28 74.5498 108.35 74.2598C108.31 74.4498 108.08 75.2198 108.35 74.2598C108.51 73.6898 108.67 73.1198 108.86 72.5598C109.05 71.9998 109.24 71.4698 109.45 70.9398C109.56 70.6598 110.18 69.3298 109.71 70.2698C110.17 69.3398 110.67 68.4398 111.23 67.5698C111.75 66.7498 112.33 65.9798 112.91 65.1898C113.3 64.6498 112.5 65.6498 112.95 65.1398C113.12 64.9498 113.29 64.7398 113.46 64.5498C113.85 64.1098 114.24 63.6798 114.65 63.2598C116.06 61.8098 117.59 60.4798 119.21 59.2698C119.42 59.1098 119.63 58.9598 119.84 58.8098C119.91 58.7598 120.56 58.2998 120.23 58.5298C119.9 58.7598 120.56 58.3098 120.63 58.2698C120.79 58.1598 120.96 58.0598 121.12 57.9498C122.15 57.2998 123.21 56.6898 124.28 56.1198C126.41 54.9898 128.61 54.0098 130.85 53.1298C135.2 51.4398 139.69 50.1698 144.19 48.9598C151.5 46.9898 159.35 44.7698 164.89 39.2798C166.41 37.7798 167.68 36.0798 168.62 34.1698C169.7 31.9598 170.05 28.8898 168.44 26.7998C167.03 24.9698 164.89 24.8998 163.6 26.9198C163.35 27.3098 163.09 27.6798 162.83 28.0498C162.37 28.6898 162.8 28.0998 162.89 27.9898C162.59 28.3698 162.29 28.7498 161.98 29.1198C162.58 28.3898 161.75 29.3598 161.56 29.5598C161.21 29.9298 160.84 30.2898 160.46 30.6398C159.82 31.2198 159.15 31.7498 158.46 32.2498C157.85 32.6898 158.31 32.3498 158.44 32.2698C158.24 32.3998 158.05 32.5198 157.85 32.6398C157.4 32.9198 156.95 33.1798 156.49 33.4298C153.05 35.3098 149.3 36.5498 145.54 37.6298C136.53 40.2198 127.37 42.3698 119.31 47.3698C111.25 52.3698 104.92 59.3098 102.28 68.3198C100.83 73.2698 100.37 78.3798 99.3101 83.3998C99.2401 83.7198 98.8501 85.2898 99.1301 84.2698C98.9901 84.7698 98.8601 85.2698 98.7001 85.7698C98.3601 86.8698 97.9401 87.9398 97.4901 88.9998C97.1401 89.8198 97.4301 89.1298 97.5101 88.9698C97.3901 89.2098 97.2701 89.4398 97.1501 89.6798C96.9001 90.1498 96.6401 90.6098 96.3701 91.0598C95.8301 91.9698 95.2301 92.8498 94.6001 93.6998C94.4401 93.9098 94.2801 94.1198 94.1101 94.3298C94.5701 93.7598 94.1401 94.2898 94.0501 94.3898C93.7001 94.7798 93.3501 95.1798 92.9801 95.5698C92.2001 96.3798 91.3801 97.1498 90.5101 97.8698C88.7701 99.3198 87.8701 99.8198 85.8101 101.05C81.8001 103.44 77.8201 105.85 75.1501 109.79C72.3001 114 71.5201 119.1 71.2301 124.06C71.1101 126.13 71.1001 128.21 71.0601 130.28C71.0501 130.8 71.0401 131.32 71.0201 131.85C71.0201 132.04 70.9501 133.73 70.9801 132.89C71.0101 132.05 70.9301 133.5 70.9101 133.72C70.8501 134.36 70.7701 135 70.6701 135.63C70.5901 136.13 70.4901 136.63 70.3901 137.13C70.2001 138.04 70.6601 136.24 70.2801 137.49C70.1301 137.98 69.9601 138.47 69.7701 138.94C69.6701 139.18 69.5601 139.42 69.4701 139.66C69.2601 140.18 69.8601 139 69.4001 139.77C68.8701 140.66 68.3601 141.55 67.7601 142.39C67.6101 142.6 67.4501 142.81 67.3001 143.01C67.2101 143.13 66.7801 143.63 67.2701 143.06C66.9301 143.46 66.5901 143.85 66.2401 144.24C63.4101 147.33 60.0801 149.86 56.9901 152.67C51.0501 158.07 45.6201 164.39 41.5401 171.32C33.0301 185.8 34.0901 206.11 47.6701 217.24C49.2801 218.56 50.9201 219.62 52.8201 220.47C53.6701 220.85 54.3101 219.84 54.4701 219.17C54.7101 218.21 54.5201 217.18 53.8201 216.47L53.8001 216.48Z" fill="#1D1D1B"/>
<path d="M82.8602 201.99C80.3602 204.15 78.3502 206 75.2502 207.09C74.8802 207.22 74.5002 207.34 74.1302 207.44C73.9402 207.49 73.7502 207.54 73.5602 207.59C73.6902 207.56 73.9902 207.5 73.4302 207.61C72.6702 207.75 71.9102 207.87 71.1502 207.94C70.3902 208.01 69.6402 208.02 68.8802 207.98C68.5102 207.96 68.1402 207.91 67.7702 207.87C67.1902 207.81 67.6002 207.85 67.7302 207.87C67.5102 207.83 67.2802 207.78 67.0602 207.72C66.3602 207.54 65.6802 207.31 65.0202 207.01C64.8902 206.95 64.0002 206.49 64.3102 206.67C64.6802 206.88 64.1902 206.59 64.1102 206.53C63.9302 206.4 63.7402 206.27 63.5702 206.14C63.2902 205.92 63.0102 205.68 62.7602 205.43C62.6302 205.3 62.5002 205.17 62.3802 205.04C62.4802 205.14 62.8502 205.66 62.4802 205.13C61.9202 204.32 61.4102 203.5 60.9102 202.64C60.3602 201.69 59.8002 200.75 59.2602 199.8C59.1202 199.55 58.9702 199.29 58.8302 199.04C59.1202 199.57 58.7702 198.93 58.7402 198.86C58.4102 198.22 58.0902 197.58 57.8002 196.93C57.5702 196.41 57.3402 195.89 57.1402 195.36C57.0602 195.16 56.9902 194.97 56.9202 194.77C56.8802 194.65 56.5802 193.82 56.7702 194.36C56.9602 194.9 56.6902 194.07 56.6602 193.94C56.5902 193.67 56.5302 193.4 56.4702 193.13C56.4102 192.86 56.3602 192.59 56.3102 192.32C56.2202 191.8 56.2402 191.51 56.2802 192.2C56.2502 191.65 56.2602 191.09 56.2302 190.54C56.2802 191.5 56.1902 190.9 56.2302 190.61C56.2702 190.32 56.3002 190.04 56.3502 189.76C56.4302 189.24 56.5402 188.73 56.6702 188.21C56.4202 189.27 56.8702 187.65 56.9602 187.36C57.1302 186.87 57.3102 186.39 57.5002 185.91C57.6002 185.67 57.7002 185.43 57.8002 185.2C57.8502 185.08 58.1902 184.34 57.9602 184.84C57.7702 185.24 58.3102 184.16 58.4102 183.97C58.7202 183.39 59.0402 182.83 59.3802 182.27C60.4702 180.45 61.7102 178.72 63.0002 177.04C63.3302 176.61 63.6602 176.19 63.9902 175.77C64.0702 175.67 65.0302 174.47 64.5802 175.03C65.3002 174.14 66.0202 173.26 66.7502 172.38C68.2902 170.49 69.8102 168.59 71.2902 166.65C71.6202 166.22 71.9502 165.79 72.2902 165.36C71.8202 165.94 72.8102 164.75 72.9102 164.65C73.6802 163.79 74.5002 163.01 75.4102 162.31C75.9302 161.9 75.0102 162.54 75.5302 162.22C75.6802 162.13 75.8402 162.03 75.9902 161.95C76.4102 161.72 76.8402 161.51 77.2802 161.33C77.7202 161.15 78.1802 161.01 78.6402 160.87C79.3502 160.66 78.9102 160.81 78.7502 160.84C79.1002 160.78 79.4602 160.72 79.8202 160.68C80.7102 160.58 81.6202 160.56 82.5202 160.64C82.7602 160.66 83.0002 160.69 83.2402 160.72C83.8402 160.8 82.7602 160.6 83.3602 160.74C83.8902 160.86 84.4102 161 84.9202 161.18C85.4902 161.38 86.0202 161.64 86.5702 161.89C86.6902 161.94 87.2102 162.26 86.6402 161.9C86.8402 162.03 87.0402 162.16 87.2302 162.3C87.9902 162.86 88.6802 163.51 89.3402 164.18C89.4702 164.32 89.6002 164.46 89.7302 164.59C90.1002 164.95 89.1702 163.91 89.6702 164.53C89.9502 164.89 90.2502 165.23 90.5202 165.6C90.7902 165.97 91.0702 166.36 91.3202 166.76C91.4402 166.94 91.5502 167.12 91.6602 167.3C91.7402 167.44 91.8202 167.58 91.9002 167.72C92.0702 168.03 92.0102 167.91 91.7002 167.36C91.9602 167.54 92.2002 168.43 92.3202 168.72C92.4002 168.93 92.4802 169.14 92.5602 169.35C92.9102 170.33 92.7002 169.28 92.5302 169.21C92.7002 169.28 92.8402 170.55 92.8702 170.75L92.9002 170.93C92.9702 171.4 92.9702 171.4 92.9102 170.93C92.8602 170.45 92.8502 170.45 92.9002 170.93L92.9202 171.3C92.9202 171.55 92.9202 171.8 92.9302 172.05C92.9702 173.33 93.0902 170.85 92.9302 172.15C92.8502 172.76 92.8002 173.37 92.7002 173.98C92.6702 174.19 92.6302 174.4 92.5902 174.61C92.3402 176 92.8502 173.66 92.4802 175.11C92.2502 176 92.0902 176.72 92.0902 177.68C92.0902 178.16 92.3102 180.28 92.1802 178.95C92.3402 180.65 93.3102 183.76 95.7002 182.84C98.7002 181.69 99.6802 176.96 99.9002 174.09C100.16 170.76 99.7802 167.59 98.7602 164.41C97.4302 160.25 94.7002 156.43 91.4102 153.57C87.5102 150.18 82.1602 149.1 77.2102 150.34C71.7802 151.7 68.5402 156.19 65.3602 160.44C59.1502 168.75 51.5402 176.53 49.9702 187.25C49.0202 193.76 51.1202 199.8 54.2502 205.41C56.4702 209.37 58.8202 213.53 63.1102 215.51C71.3002 219.28 82.7602 214.04 85.3402 205.45C85.6402 204.45 85.6302 203.21 85.0002 202.32C84.4902 201.61 83.6302 201.36 82.9302 201.97L82.8602 201.99Z" fill="#1D1D1B"/>
<path d="M110.55 155.9C107.38 154.88 104.13 154.22 101 153.07C98.0701 151.99 95.5801 150.55 93.2601 148.43C92.1401 147.41 91.6101 146.81 90.6301 145.34C90.4901 145.13 90.3501 144.91 90.2201 144.69C90.1801 144.62 89.5801 143.52 89.9801 144.29C89.5701 143.49 89.2201 142.67 88.9101 141.83C88.8501 141.67 88.5301 140.46 88.7901 141.5C88.7001 141.13 88.6001 140.76 88.5201 140.39C88.4401 140.02 88.3901 139.64 88.3101 139.27C88.0701 138.03 88.3301 140.29 88.2801 139.04C88.2701 138.66 88.2401 138.28 88.2301 137.9V137.52C88.2501 136.96 88.2301 137.02 88.2001 137.68C88.0501 137.05 88.4101 136.05 88.5201 135.44C88.7401 134.24 88.1801 136.29 88.6101 135.15C88.7501 134.78 88.8601 134.4 89.0001 134.04C89.0301 133.97 89.5501 132.76 89.1601 133.59C89.3301 133.23 89.5201 132.88 89.7101 132.54C90.1001 131.85 90.5301 131.18 90.9801 130.53C91.2101 130.2 91.4401 129.88 91.6801 129.56C91.8401 129.35 92.0001 129.14 92.1701 128.93C91.9501 129.2 91.9901 129.16 92.2901 128.79C94.4101 126.32 96.7101 124.02 98.8601 121.57C101.13 118.98 103.3 116.37 106 114.21C106.8 113.57 108.55 112.67 109.94 112.23C110.64 112.01 110.7 112.01 111.43 111.93C111.84 111.89 112.25 111.87 112.65 111.88C112.82 111.88 114.2 112.07 113.67 111.96C114.52 112.15 115.29 112.49 116.07 112.86C117.04 113.31 115.62 112.45 116.47 113.11C116.86 113.41 117.26 113.7 117.64 114.03C117.92 114.28 118.18 114.55 118.45 114.81C118.79 115.17 118.79 115.17 118.47 114.81C118.63 115 118.79 115.2 118.94 115.4C119.39 116 119.81 116.63 120.17 117.28C119.63 116.3 120.29 117.59 120.34 117.71C120.58 118.24 120.79 118.79 120.99 119.34C121.05 119.5 121.47 120.89 121.14 119.73C121.3 120.29 121.45 120.86 121.59 121.43C122.16 123.83 122.29 126.49 123.89 128.48C124.58 129.34 125.36 129.95 126.51 129.71C127.57 129.48 128.43 128.45 128.7 127.42C129.19 125.55 129.33 123.99 129.08 122.09C128.94 120.99 128.71 119.9 128.46 118.83C127.94 116.55 127.29 114.25 126.34 112.12C124.59 108.2 121.96 104.86 118.19 102.74C114.65 100.76 110.34 100.96 106.71 102.58C102.86 104.29 99.8901 107.37 97.2301 110.54C92.2201 116.5 85.8101 122.1 83.2001 129.63C80.4601 137.53 82.1501 147.03 87.4601 153.51C92.7701 159.99 102.48 164.68 110.69 161.28C112.46 160.55 112.44 156.53 110.56 155.93L110.55 155.9Z" fill="#1D1D1B"/>
<path d="M135.83 102.72C135.13 102.65 134.4 102.48 133.7 102.51C132.92 102.54 132.16 102.69 131.37 102.68C129.93 102.66 128.56 102.4 127.21 101.94C124.33 100.95 121.98 99.47 119.89 97.24C119.84 97.18 119.63 96.96 119.89 97.24C119.78 97.11 119.67 96.97 119.56 96.84C119.31 96.52 119.06 96.2 118.83 95.87C118.63 95.58 118.45 95.29 118.26 95C118.24 94.97 117.95 94.47 118.15 94.83C118.36 95.21 117.84 94.2 117.85 94.22C117.51 93.48 117.2 92.72 116.96 91.94C117.16 92.58 116.84 91.41 116.8 91.22C116.7 90.76 116.62 90.29 116.53 89.83C116.5 89.66 116.42 88.96 116.51 89.81C116.49 89.61 116.47 89.41 116.46 89.2C116.43 88.79 116.41 88.39 116.4 87.98C116.39 87.5 116.41 87.03 116.41 86.55C116.41 87.42 116.44 86.23 116.47 85.93C116.57 85.05 116.73 84.17 116.91 83.3C117.08 82.48 116.79 83.62 117.03 82.83C117.18 82.31 117.34 81.78 117.52 81.27C117.79 80.5 118.1 79.74 118.43 78.99C118.17 79.58 118.68 78.5 118.77 78.32C118.99 77.9 119.23 77.49 119.47 77.08C119.92 76.33 120.4 75.59 120.91 74.88C121.18 74.5 121.47 74.12 121.75 73.74C121.75 73.74 122.16 73.23 121.93 73.5C121.75 73.72 122.21 73.17 122.26 73.12C124.64 70.34 127.42 67.93 130.39 65.79C130.72 65.55 131.06 65.31 131.39 65.08C131.75 64.83 131.5 65 131.42 65.06C131.59 64.95 131.76 64.83 131.93 64.72C132.72 64.2 133.53 63.7 134.34 63.21C136 62.21 137.71 61.24 139.5 60.5C141.29 59.76 142.59 59.41 144.58 59.46C144.88 59.46 145.18 59.49 145.47 59.52C146.32 59.59 145.14 59.39 145.77 59.56C146.4 59.73 147 59.88 147.6 60.11C148.32 60.38 148.99 60.72 149.67 61.08C149.85 61.18 150.22 61.5 149.61 61.04C149.78 61.16 149.96 61.27 150.13 61.39C150.43 61.6 150.72 61.83 151 62.06C151.32 62.33 151.63 62.62 151.93 62.9C152.05 63.01 152.14 63.13 152.26 63.24C152.04 63.04 151.82 62.7 152.15 63.12C152.41 63.45 152.67 63.78 152.9 64.13C152.99 64.26 153.07 64.39 153.15 64.53C153.21 64.62 153.26 64.71 153.31 64.8C153.44 65.02 153.41 64.98 153.24 64.67C153.25 64.36 153.09 64.34 153.23 64.69C153.32 64.93 153.4 65.2 153.53 65.42C153.78 65.85 153.37 64.95 153.39 64.89C153.36 65.02 153.51 65.37 153.54 65.5C153.57 65.65 153.59 65.82 153.63 65.97C153.81 66.59 153.6 64.7 153.59 65.66C153.59 65.81 153.58 66.01 153.6 66.15C153.71 66.77 153.74 65.08 153.64 65.72C153.2 68.5 154.17 73.9 158.1 72.77C159.53 72.36 160.31 70.21 160.48 68.94C161.58 60.71 157.09 52.62 149.23 49.66C141.37 46.7 133.12 51.88 126.87 56.75C120.26 61.9 114.48 68.71 111.99 76.84C109.44 85.19 109.71 95.46 115.42 102.53C117.96 105.68 121.4 108.3 125.36 109.32C127.2 109.79 129.13 110.05 131.03 109.91C132.08 109.83 133.11 109.62 134.13 109.36C135.15 109.1 136.05 108.25 136.79 107.51C138.01 106.29 137.91 102.93 135.81 102.71L135.83 102.72Z" fill="#1D1D1B"/>
<path d="M131.25 73.0299C132.79 72.5899 134.23 71.8999 135.7 71.2799C136.4 70.9799 137.1 70.6599 137.81 70.3999C138.19 70.2599 138.58 70.1399 138.97 70.0299C139.36 69.9199 138.51 70.0699 139.07 70.0199C139.22 70.0099 139.38 69.9799 139.53 69.9599C140.14 69.8999 140.73 69.9599 141.34 70.0099C140.84 69.9699 141.25 69.9899 141.39 70.0299C141.54 70.0699 141.69 70.1099 141.85 70.1599C142.14 70.2499 142.43 70.3699 142.72 70.4699C142.84 70.5099 143.48 70.6999 143.53 70.8299C143.51 70.7799 143.09 70.5299 143.4 70.7699C143.53 70.8699 143.67 70.9499 143.81 71.0499C144.13 71.2699 144.42 71.5099 144.77 71.6999C145.34 72.0099 144.54 71.4599 144.96 71.8299C146.14 72.8599 147.37 71.3399 147.45 70.1999C147.57 68.6899 147.45 67.2999 146.66 65.9499C146.18 65.1299 145.53 64.5199 144.72 64.0299C143.31 63.1699 141.65 62.9399 140.02 63.2099C138.13 63.5299 136.47 64.3599 134.92 65.4699C133.37 66.5799 132.03 67.9799 130.41 69.0099C129.55 69.5599 129.31 70.6499 129.51 71.6199C129.69 72.4799 130.28 73.3199 131.24 73.0399L131.25 73.0299Z" fill="#1D1D1B"/>
<path d="M98.9102 135.36C101.17 132.56 103.97 130.15 106.85 128.01C107.04 127.87 107.23 127.74 107.42 127.6C107.9 127.25 107.25 127.69 107.55 127.51C107.94 127.26 108.33 127.01 108.74 126.79C109.19 126.55 109.66 126.33 110.14 126.17C110.36 126.1 110.58 126.04 110.81 125.98C110.93 125.94 111.56 125.78 110.95 125.9C111.38 125.81 111.78 125.87 112.21 125.84C111.64 125.88 111.97 125.79 112.22 125.84C112.41 125.89 112.59 125.95 112.76 126.02C112.81 126.04 113.33 126.23 113.35 126.29C113.3 126.15 112.83 125.95 113.28 126.29C113.32 126.32 113.64 126.54 113.64 126.54C113.51 126.61 113.02 125.42 113.26 126.03C113.55 126.77 114.21 127.57 115.08 127.55C115.95 127.53 116.54 126.7 116.83 125.95C118.09 122.67 116.49 118.33 113.12 117.03C110.16 115.89 107.42 117.54 105.24 119.44C101.17 122.99 98.2602 127.63 96.5702 132.74C96.2702 133.64 96.3302 134.87 97.0102 135.58C97.6902 136.29 98.3602 136.05 98.9102 135.36Z" fill="#1D1D1B"/>
<path d="M69.23 180.23C69.89 177.17 71.91 174.82 74.35 172.95C75.48 172.09 76.77 171.33 78.19 170.68C78.9 170.35 79.62 170.05 80.36 169.81C80.38 169.81 81.05 169.61 80.7 169.69C81.04 169.6 81.42 169.59 81.75 169.45C81.97 169.36 82.18 169.2 82.39 169.1C82.66 168.97 82.45 169.04 82.75 169.02C83.73 168.93 84.3 167.88 84.41 167C84.54 165.96 84.36 164.7 83.52 163.97C83.03 163.55 82.43 163.18 81.81 162.99C81.06 162.76 80.42 162.87 79.72 163.19C78.75 163.64 77.85 164.28 76.98 164.88C75.38 165.98 73.91 167.27 72.6 168.7C69.9 171.68 67.75 175.38 67.12 179.39C67.01 180.06 67.19 181.13 67.93 181.4C68.67 181.67 69.11 180.8 69.23 180.22V180.23Z" fill="#1D1D1B"/>
<path d="M207.41 30.69C192.62 23.3 176.75 17.79 160.47 14.81C144.19 11.83 127.99 11.64 111.9 14.5C97.9901 16.97 84.6501 21.71 72.3101 28.59C59.9701 35.47 48.9601 44.05 39.3701 54.19C29.7801 64.33 20.9401 76.94 14.6401 90.11C7.96009 104.06 3.58009 119.06 1.48009 134.38C-0.61991 149.7 -0.49991 165.86 2.16009 181.36C4.76009 196.5 9.96009 211.1 17.7001 224.38C24.9301 236.79 34.4301 247.9 45.3301 257.23C55.8701 266.26 67.8001 273.69 80.4601 279.38C94.0001 285.47 108.41 289.54 123.11 291.58C137.81 293.62 153.09 293.44 167.84 290.78C182.59 288.12 197.38 282.94 210.59 275.3C222.86 268.21 233.93 259.13 243.28 248.47C252.63 237.81 260.77 225.25 266.98 212.08C273.19 198.91 277.67 184.46 279.98 169.89C282.41 154.52 282.48 138.9 280.12 123.51C277.76 108.12 272.72 92.21 265.72 77.82C258.79 63.59 249.94 50.41 239.39 38.62C228.84 26.83 217.43 17.3 204.21 9.48001C201.13 7.66001 197.98 5.93001 194.76 4.37001C191.54 2.81001 188.28 1.52001 185 0.150007C182.07 -1.06999 181.39 5.52001 183.99 6.61001C190.57 9.36001 196.96 12.98 202.97 16.81C208.98 20.64 215.05 25.17 220.67 29.87C232.18 39.53 242.25 50.83 250.61 63.31C258.97 75.79 265.62 89.49 270.22 104C274.82 118.51 277.03 133.13 276.83 148.17C276.81 150.03 276.74 151.9 276.64 153.76C276.63 153.97 276.58 154.82 276.59 154.64C276.61 154.27 276.57 154.92 276.57 154.92C276.55 155.19 276.53 155.45 276.51 155.72C276.44 156.65 276.36 157.57 276.28 158.5C275.95 162.06 275.47 165.61 274.86 169.13C274.25 172.65 273.52 176.13 272.66 179.58C272.76 179.19 272.5 180.19 272.46 180.36C272.36 180.74 272.26 181.12 272.16 181.5C271.9 182.45 271.64 183.4 271.37 184.35C270.88 186.05 270.36 187.74 269.8 189.42C265.41 202.82 259.51 214.92 251.58 226.65C247.69 232.4 243.77 237.4 239.17 242.46C234.57 247.52 229.88 251.99 224.72 256.19C213.53 265.3 200.67 272.29 187.05 277.02C173.43 281.75 158.84 284.13 144.31 284.24C129.78 284.35 115.16 282.22 101.17 278.04C88.2201 274.17 75.3801 268.45 64.1601 261.4C58.4601 257.82 53.0101 253.85 47.8801 249.49C45.2401 247.25 42.6901 244.9 40.2401 242.46C37.7901 240.02 35.6601 237.72 33.5901 235.29C29.0401 229.92 24.9401 224.17 21.3801 218.1C19.6001 215.06 18.2501 212.49 16.6701 209.11C15.0901 205.73 13.7601 202.47 12.5401 199.06C11.9301 197.35 11.3501 195.62 10.8101 193.88C10.9801 194.42 10.7801 193.77 10.7601 193.7C10.7001 193.51 10.6401 193.31 10.5901 193.12C10.4601 192.67 10.3301 192.21 10.2001 191.75C9.94009 190.84 9.70009 189.92 9.46009 189C8.55009 185.44 7.78009 181.84 7.17009 178.22C6.86009 176.4 6.59009 174.57 6.35009 172.74C6.29009 172.26 6.23009 171.79 6.17009 171.31C6.08009 170.56 6.19009 171.5 6.11009 170.76C6.01009 169.8 5.92009 168.85 5.83009 167.89C5.50009 164.12 5.33009 160.33 5.30009 156.55C5.24009 148.86 5.66009 142.57 6.76009 134.91C7.86009 127.25 9.33009 120.54 11.4601 113.55C15.6801 99.68 21.8101 86.87 30.1201 74.97C38.0101 63.66 47.6701 53.61 58.5901 45.2C69.5101 36.79 80.7801 30.65 93.2001 26.11C107.45 20.9 122.44 18.24 137.61 18.13C153.63 18.01 169.77 20.27 185.05 25.14C192.53 27.53 199.83 30.44 206.93 33.8C208.31 34.45 208.62 31.28 207.42 30.68L207.41 30.69Z" fill="#1D1D1B"/>
<path d="M26.0501 221.71C40.3301 211.21 55.0701 201.4 69.9301 191.74C84.7901 182.08 99.6501 173.2 114.79 164.39C129.93 155.58 145.08 147.26 160.46 139.14C175.84 131.02 191.19 123.26 206.69 115.59C222.19 107.92 237.9 100.39 253.23 92.2699C255.11 91.2799 256.98 90.2799 258.86 89.2899C260.74 88.2999 260.24 82.9599 257.78 84.0399C241.99 90.9499 226.41 98.3099 210.96 105.96C195.51 113.61 179.88 121.5 164.51 129.59C149.14 137.68 133.71 146.1 118.58 154.84C103.45 163.58 88.2901 173.04 73.5801 182.81C58.6701 192.71 44.2401 203.3 30.1701 214.36C28.3701 215.77 26.5801 217.2 24.7901 218.63C23.6501 219.54 24.4701 222.88 26.0601 221.71H26.0501Z" fill="#1D1D1B"/>
</g>
<defs>
<clipPath id="clip0_3416_9890">
<rect width="281.84" height="292.96" fill="white"/>
</clipPath>
</defs>
</svg>
