<svg width="181" height="80" viewBox="0 0 181 80" fill="none" xmlns="http://www.w3.org/2000/svg">
<g clip-path="url(#clip0_3416_9948)">
<path d="M2.67001 65.5001C9.94001 60.4601 17.3 55.5601 24.82 51.0301C22.21 53.7601 20.52 58.3601 19.6 61.1001C18.39 64.6801 15.72 73.8901 18.94 77.1801C23.64 81.9801 26.73 71.4401 27.5 69.0601C29.33 63.3901 33.8 53.6201 30.85 47.7701C30.82 47.7001 30.78 47.6601 30.74 47.6001C45.94 39.0101 61.91 32.2701 79.37 29.5901C78.89 29.8301 78.42 30.0701 77.96 30.3301C72.69 31.7001 67.77 34.1501 63.49 37.7101C60.42 40.2701 53.59 46.0801 56.93 50.7301C60.33 55.4701 68.37 50.9501 72.45 48.3401C76.02 47.0701 79.3 44.9801 81.87 42.0901C83.84 39.8701 85.7 36.9701 86.18 34.0001C86.72 33.0501 87.3 32.1401 87.78 31.1401C88.08 30.5201 88.08 29.5301 87.83 28.6601C88.92 28.5801 90 28.4701 91.1 28.4201C99.03 28.0701 107.15 28.8401 115.13 30.5701C112.22 31.4001 109.41 32.5501 107.11 33.8601C100.69 35.6201 96.44 38.5501 98.92 43.3701C101.88 49.1301 111.79 46.5401 116.48 45.2601C120.8 44.0801 131.2 41.4101 132.35 35.9701C144.4 40.9801 155.44 48.3601 164.19 57.8601C159.59 55.2701 154.64 53.5601 149.24 52.7301C145.27 52.1301 134.56 49.8801 134.22 56.3801C133.96 61.4101 140.65 64.2301 144.48 65.6101C151.4 68.0901 158.66 67.9101 165.66 65.8701C166.63 65.5901 166.96 64.6001 166.93 63.5401C167.64 63.8901 168.34 64.2201 169.05 64.6001C169.32 64.7501 169.53 64.7101 169.72 64.6001C172.88 68.9201 175.64 73.5401 177.81 78.5401C178.98 81.2401 180.95 78.1101 180.26 76.2501C171.96 53.9101 154.07 36.0001 132.57 26.3901C132.84 25.9201 132.99 25.2701 132.93 24.8901C130.96 12.5101 118.96 3.28006 107.56 0.110064C107 -0.0499363 106.34 0.0100637 105.92 0.480064C102.83 3.89006 103.43 8.28006 106.13 11.8201C108.71 15.2001 112.45 18.1701 116.2 20.9101C110.66 19.6301 105.02 18.8401 99.31 18.7001C94.42 18.5801 89.64 18.7901 84.96 19.2701C83.16 15.1001 80.39 11.8201 75.74 10.1101C70.52 8.19006 60.75 6.86006 55.5 8.67006C51.79 9.95006 51.02 13.7401 53.73 16.4801C56.12 18.8901 61.2 19.5501 64.35 20.1701C67.47 20.7901 70.58 21.0301 73.7 21.0501C63.37 23.1801 53.54 26.6801 44.15 31.2501C42.29 30.6001 40.41 30.0401 38.51 29.6001C34.74 24.9601 20.21 25.8201 17.34 28.9701C17.27 29.0501 17.24 29.1201 17.17 29.2001C17.15 29.2001 17.13 29.2001 17.11 29.2001C15.7 29.2601 15.49 31.0401 15.87 32.3301C16.1 36.5001 24.75 38.8501 29.35 39.4701C19.38 45.7101 9.88001 53.0101 0.78001 60.9701C-0.83999 62.3801 0.22001 67.2601 2.68001 65.5701L2.67001 65.5001ZM153.41 61.9301C154.27 61.7201 155.12 61.4801 155.97 61.1701C156.1 61.1201 156.21 61.0101 156.32 60.9201C157.08 61.1601 157.81 61.4401 158.54 61.7601C156.84 61.9401 155.13 62.0401 153.41 61.9301ZM118.52 35.8101C117.53 36.6201 116.48 37.3801 115.22 38.0001C113.69 38.7501 109.47 40.4301 106.72 40.0601C109.13 38.2001 113.16 36.9601 115.38 36.3501C115.74 36.2501 116.96 36.0301 118.51 35.8101H118.52ZM124.78 35.2101C125.52 35.1901 126.2 35.2001 126.79 35.2501C125.87 35.8701 124.9 36.4201 123.89 36.9301C124.23 36.3801 124.51 35.8001 124.78 35.2101ZM130.62 25.5001C128.86 24.7601 127.07 24.0701 125.26 23.4401C125.29 23.2501 125.3 23.0701 125.3 22.9001C125.27 20.9601 124.98 19.0301 124.5 17.1601C126.72 19.6801 128.67 22.4901 130.61 25.5001H130.62ZM108 6.79006C108.13 6.56006 110.78 7.68006 112.59 8.48006C115.93 10.7201 118.69 13.3701 120.22 16.7901C117.91 14.7501 115.58 12.7401 113.21 10.7801C112.9 10.5201 108.15 6.53006 108.01 6.79006H108ZM21.78 71.5701C20.62 72.4001 20.28 72.0801 20.75 70.6101C20.75 69.5901 20.83 68.5801 21 67.5701C21.25 65.7901 21.72 64.0301 22.3 62.3301C22.55 61.6001 22.9 60.6101 23.35 59.5301C23.24 59.9701 23.1 60.4101 23 60.8501C22.6 62.5601 24.5 64.6401 25.52 62.6601C24.88 65.5201 23.79 71.1101 21.78 71.5501V71.5701ZM68.23 44.3601C71.68 40.4101 75.84 37.2701 80.53 34.9501C79.04 36.9501 77.34 38.8101 75.45 40.4801C74.59 41.2401 73.3 42.3501 71.8 43.4801C70.64 43.8901 69.45 44.1701 68.23 44.3601ZM61.36 47.9201C58.14 47.1801 61.59 44.6901 63.14 43.1401C63.64 42.6401 64.19 42.2001 64.72 41.7301C63.85 42.9001 63.01 44.1101 62.26 45.3901C61.9 46.0001 61.74 47.0701 61.91 47.9901C61.73 47.9701 61.54 47.9601 61.37 47.9201H61.36ZM81.08 19.7401C81.32 19.2301 81.42 18.6001 81.36 18.0001C81.75 18.4801 82.13 19.0001 82.47 19.5601C82 19.6201 81.54 19.6801 81.07 19.7401H81.08ZM62.7 15.1901C61.53 14.9401 56.19 14.2501 56.13 12.6801C56.13 12.6101 56.29 12.5601 56.52 12.5201C56.62 12.6201 56.73 12.7101 56.86 12.7501C60.39 14.1101 64.18 14.0501 67.83 15.1201C68.9 15.4301 69.94 15.8001 70.97 16.2001C68.2 16.0901 65.44 15.7801 62.7 15.1901ZM163.14 43.3301C164.27 40.9101 164.97 38.3201 165.31 35.7201C166.28 39.4001 166.66 43.2701 166.87 47.3701C166.93 48.5001 168.26 49.7101 168.8 48.1101C172.84 36.0801 166.25 22.3101 157.16 14.5201C156.71 14.1401 156.05 13.9801 155.51 14.2301C145.01 19.0301 157 37.5101 159.87 43.4101C160.75 45.2201 162.33 45.0801 163.14 43.3301ZM155.76 22.3901C156.25 20.8901 157.48 21.9201 158.47 23.0701C161.23 27.2701 162.45 31.6001 161.4 36.1801C160.31 33.4601 159.19 30.7601 158.04 28.0701C157.71 27.3001 155.46 23.3301 155.77 22.3901H155.76Z" fill="black"/>
</g>
<defs>
<clipPath id="clip0_3416_9948">
<rect width="180.37" height="79.57" fill="white"/>
</clipPath>
</defs>
</svg>
