<svg width="284" height="299" viewBox="0 0 284 299" fill="none" xmlns="http://www.w3.org/2000/svg">
<g clip-path="url(#clip0_3416_12042)">
<path d="M27.1501 205.28C19.5801 213.57 12.0101 221.86 4.44007 230.15C3.36007 231.33 2.28007 232.51 1.20007 233.69C-0.0599345 235.07 -0.139935 238.07 0.110065 239.79C0.280065 240.96 0.760065 243.78 2.40007 243.75C4.90007 243.71 7.40007 243.67 9.90007 243.63C16.6701 243.53 23.4501 243.42 30.2201 243.32C40.2301 243.16 50.2401 243.01 60.2501 242.85C72.5001 242.66 84.7501 242.47 97.0001 242.28C110.34 242.07 123.67 241.87 137.01 241.66C150.55 241.45 164.09 241.24 177.64 241.03C190.23 240.84 202.81 240.64 215.4 240.45C226.04 240.29 236.67 240.12 247.31 239.96C254.98 239.84 262.65 239.72 270.31 239.6C273.91 239.54 277.54 239.6 281.14 239.43C281.3 239.43 281.45 239.43 281.61 239.43C283.48 239.4 283.87 235.98 283.94 234.75C284.06 232.77 283.87 230.2 282.24 228.83C274.89 222.68 267.54 216.53 260.19 210.37L256.12 206.96C255.73 206.63 255.41 206.44 254.88 206.39C253.83 206.29 252.74 206.37 251.68 206.36C246.04 206.31 240.39 206.27 234.75 206.22C225.49 206.14 216.23 206.07 206.97 205.99L172.08 205.7C159.41 205.6 146.74 205.49 134.07 205.39C121.4 205.29 109.32 205.19 96.9501 205.09C86.1201 205 75.2901 204.91 64.4601 204.82C56.4401 204.75 48.4301 204.69 40.4101 204.62C36.5501 204.59 32.6801 204.45 28.8201 204.53C28.6601 204.53 28.4901 204.53 28.3301 204.53C26.2701 204.51 25.9301 208.56 25.9501 209.93C25.9701 211.3 26.2301 215.31 28.3301 215.33C30.9801 215.35 33.6301 215.37 36.2801 215.39L57.5601 215.56C67.8401 215.64 78.1301 215.73 88.4101 215.81C100.52 215.91 112.64 216.01 124.75 216.11C137.44 216.21 150.12 216.32 162.81 216.42C174.78 216.52 186.75 216.62 198.72 216.71C208.69 216.79 218.65 216.87 228.62 216.95C235.31 217 242 217.06 248.69 217.11L253.75 217.15C254.1 217.15 254.52 217.23 254.86 217.15C254.89 217.15 255 217.17 255.03 217.15C254.34 217.83 254.26 216.67 254.52 217.05C254.61 217.19 254.84 217.32 254.97 217.42C262.9 224.06 270.82 230.69 278.75 237.33C279.49 237.95 280.23 238.57 280.97 239.19L281.6 228.58C279.1 228.62 276.6 228.66 274.1 228.7C267.33 228.8 260.55 228.91 253.78 229.01C243.77 229.17 233.76 229.32 223.75 229.48C211.5 229.67 199.25 229.86 187 230.05C173.66 230.26 160.33 230.46 146.99 230.67C133.45 230.88 119.91 231.09 106.36 231.3C93.7701 231.49 81.1901 231.69 68.6001 231.88C57.9601 232.04 47.3301 232.21 36.6901 232.37C29.0201 232.49 21.3501 232.61 13.6901 232.73C10.0801 232.79 6.47007 232.78 2.86007 232.9C2.70007 232.9 2.55007 232.9 2.39007 232.9L3.59007 242.96C11.1601 234.67 18.7301 226.38 26.3001 218.09C27.3801 216.91 28.4601 215.73 29.5401 214.55C30.2301 213.8 30.5101 212.26 30.6301 211.32C30.7901 210.02 30.7601 208.43 30.3901 207.16C29.9301 205.6 28.7701 203.44 27.1401 205.22L27.1501 205.28Z" fill="black"/>
<path d="M0.0301782 238.36C0.220178 243.02 0.410178 247.67 0.600178 252.33C0.920178 260.26 1.24018 268.19 1.56018 276.12L1.85018 283.24C1.92018 284.9 2.00018 286.51 2.51018 288.11C3.57018 291.46 5.62018 294.3 8.71018 296.07C12.5102 298.24 17.0902 298.74 21.3802 298.74C23.9002 298.74 26.4202 298.74 28.9502 298.73C33.3902 298.73 37.8302 298.71 42.2602 298.7C48.2602 298.69 54.2602 298.67 60.2602 298.66C67.5002 298.64 74.7502 298.62 81.9902 298.61C90.0502 298.59 98.1202 298.57 106.18 298.55C114.74 298.53 123.3 298.51 131.86 298.48C140.42 298.45 149.27 298.43 157.98 298.41C166.69 298.39 174.97 298.37 183.47 298.34C191.44 298.32 199.41 298.3 207.37 298.28C214.38 298.26 221.38 298.24 228.39 298.22C234.12 298.2 239.86 298.19 245.59 298.17C249.7 298.16 253.8 298.15 257.91 298.14C260.03 298.14 262.16 298.13 264.28 298.12C266.4 298.11 268.6 298.47 270.84 298.01C274.4 297.27 277.53 295.37 279.46 292.22C282.87 286.65 282.71 280.19 282.77 273.89C282.89 262.7 283.27 251.51 283.71 240.33C283.79 238.23 283.88 236.14 283.97 234.04C284.03 232.66 283.63 228.64 281.59 228.64C279.55 228.64 279.27 232.78 279.21 234.04C278.88 241.34 278.61 248.65 278.39 255.95C278.21 261.93 278.06 267.91 278 273.89C277.99 275.22 277.98 276.55 277.98 277.88C277.98 278.21 277.98 278.55 277.98 278.88C277.98 279.43 277.65 280.14 278.01 278.85C277.85 279.43 277.72 280.48 277.75 281.09C277.7 279.94 277.88 280.42 277.75 280.95C277.68 281.22 277.6 281.49 277.53 281.76C277.29 282.7 277.92 280.8 277.56 281.67C277.46 281.9 277.38 282.14 277.27 282.37C277.16 282.6 277.05 282.8 276.96 283.03C276.65 283.78 277.45 282.35 276.98 282.99C276.68 283.4 276.42 283.84 276.09 284.23C275.92 284.43 274.97 285.29 275.67 284.72C275.37 284.97 275.08 285.23 274.76 285.46C274.11 285.93 273.4 286.32 272.66 286.64C272.33 286.78 272 286.9 271.67 287.01C271.1 287.21 272.22 286.87 271.64 287.01C271.48 287.05 271.31 287.1 271.15 287.13C270.48 287.29 269.8 287.39 269.11 287.46C267.68 287.59 266.33 287.43 264.91 287.32C263.72 287.23 262.48 287.32 261.29 287.32C252.97 287.34 244.64 287.36 236.32 287.39C222.4 287.43 208.48 287.46 194.57 287.5C177.81 287.54 161.04 287.59 144.28 287.63C127.52 287.67 110.72 287.72 93.9402 287.76C79.7102 287.8 65.4902 287.83 51.2602 287.87C42.4202 287.89 33.5802 287.91 24.7502 287.93C19.9902 287.93 14.9302 288.11 10.7802 286.08C10.0002 285.7 9.24018 285.25 8.55018 284.72C8.25018 284.49 7.97018 284.24 7.68018 283.99C8.42018 284.64 7.50018 283.76 7.32018 283.54C7.13018 283.3 6.95018 283.06 6.78018 282.81C6.70018 282.69 6.63018 282.57 6.55018 282.45C6.20018 281.97 6.98018 283.38 6.77018 282.83C6.68018 282.61 6.55018 282.4 6.46018 282.18C6.42018 282.08 6.38018 281.98 6.34018 281.88C6.02018 281.18 6.67018 283.07 6.55018 282.51C6.39018 281.75 6.33018 281.14 6.57018 282.92C6.49018 282.29 6.56018 281.91 6.62018 284.05C6.61018 283.64 6.59018 283.23 6.57018 282.82C6.02018 269.23 5.47018 255.63 4.92018 242.04C4.87018 240.81 4.82018 239.58 4.77018 238.35C4.71018 236.96 4.51018 232.95 2.39018 232.95C0.270178 232.95 -0.0198218 237.1 0.0301782 238.36Z" fill="black"/>
<path d="M115.81 250.27C115.2 249.14 114.11 248.45 112.86 248.28C112.2 248.19 111.52 248.17 110.86 248.14C109.59 248.09 108.32 248.04 107.05 247.99C106.06 247.95 105.03 248.86 104.57 249.64C103.87 250.85 103.7 252.12 103.62 253.5C103.41 257.34 103.26 261.19 103.13 265.04C103.06 267 103.01 268.95 102.96 270.91C102.92 272.37 103 273.77 103.55 275.16C104.28 277 105.79 278.09 107.75 277.96C109.71 277.83 111.57 277.67 113.48 277.52C114.72 277.43 116.11 277.44 117.06 276.49C118.64 274.91 118.89 272.77 118.96 270.64C119.08 266.92 119.14 263.2 119.23 259.49C119.3 256.63 119.57 253.77 118.16 251.15C116.75 248.53 114.19 247.27 111.4 248.2C110.32 248.56 109.48 250.03 109.13 251C108.63 252.36 108.51 254.19 108.85 255.6C109.31 257.51 111.18 261.04 113.77 259.65C114 259.53 114.19 259.45 114.43 259.39L113.41 259.63C113.66 259.6 113.87 259.59 114.11 259.61L113.09 259.43C113.19 259.45 113.68 259.66 113.76 259.63C113.19 259.25 113.08 259.19 113.41 259.46L112.41 258.02C112.24 257.64 112.14 257.25 112.12 256.84C112.07 256.31 112.06 256.27 112.07 256.72C112.04 257.09 112.05 257.47 112.05 257.83C112.02 259.31 111.99 260.8 111.95 262.28C111.91 263.76 111.89 265.25 111.85 266.73C111.84 267.41 111.82 268.09 111.81 268.78C111.81 269.15 111.79 269.53 111.79 269.9C111.79 270.09 111.79 270.27 111.78 270.46C111.72 271.81 111.96 270.98 112.5 268L114.05 266.55L113.82 266.65L114.77 266.43C113.46 266.6 112.13 266.66 110.82 266.76C109.51 266.86 108.18 267.04 106.87 267.06L107.83 267.23L108.29 267.56L109.63 269.49L109.57 269.32L110.13 272.07C110.04 268.99 110.27 265.87 110.38 262.8C110.49 259.73 110.62 256.49 110.76 253.34L107.34 258.84C108.97 258.88 110.61 258.99 112.24 258.97C113.87 258.95 114.93 258.57 115.84 257.2C117.24 255.08 117 252.43 115.84 250.29L115.81 250.27Z" fill="black"/>
<path d="M113.36 260.01C114.46 263.27 117.68 263.29 120.55 263.37C122.8 263.43 125.03 263.49 127.28 263.69C131.6 264.07 135.92 264.39 140.25 264.6C149.07 265.01 157.85 265.25 166.68 265.2C169.79 265.19 171.06 260.86 170.92 258.38C170.78 255.9 169.58 251.76 166.35 251.78C157.21 251.82 148.09 252 138.95 252.17C134.47 252.25 130 252.48 125.52 252.65C123.2 252.74 120.87 252.59 118.55 252.52C117.26 252.48 115.44 252.71 114.47 253.68C112.83 255.33 112.65 257.91 113.36 260.01Z" fill="black"/>
<path d="M114.68 272.4C115.53 273.4 116.14 274.11 117.51 274.26C117.99 274.31 118.49 274.29 118.98 274.31C120.12 274.35 121.27 274.37 122.41 274.46C124.54 274.63 126.66 274.99 128.79 275.24C133.2 275.76 137.72 275.89 142.16 276.12C146.6 276.35 150.63 276.05 154.89 275.88C156.99 275.8 159.09 275.77 161.18 275.92C161.64 275.95 162.1 276 162.56 276.05C162.72 276.07 164.41 276.35 163.66 276.2C165.23 276.52 166.62 277.09 168.19 276.38C171.67 274.82 172.1 268.26 169.78 265.62C168.95 264.68 168.29 263.82 167.04 263.45C166.6 263.32 166.13 263.25 165.69 263.16C164.39 262.91 163.09 262.7 161.77 262.59C159.61 262.41 157.43 262.45 155.27 262.56C151.03 262.78 146.81 263.17 142.56 263.23C138.31 263.29 133.83 263.12 129.47 263.2C127.19 263.24 124.91 263.5 122.63 263.58C121.49 263.62 120.34 263.56 119.21 263.53C117.64 263.49 116.32 263.31 115.15 264.62C113.46 266.5 112.92 270.33 114.68 272.41V272.4Z" fill="black"/>
<path d="M172.54 250.34C171.05 247.6 167.92 247.92 166.02 249.95C163.61 252.52 163.43 256.14 163.99 259.45C164.07 259.95 164.2 260.43 164.3 260.93C164.34 261.11 164.36 261.3 164.4 261.48C164.58 262.23 164.33 260.29 164.36 261.06C164.38 261.49 164.41 261.91 164.41 262.34C164.41 262.59 164.41 262.83 164.4 263.08C164.4 263.3 164.33 264.42 164.4 263.4C164.47 262.38 164.36 263.85 164.34 264.09C164.3 264.58 164.25 265.07 164.21 265.56C164.09 266.95 163.98 268.35 163.94 269.75C163.87 272.61 164.13 276.08 165.84 278.47C166.87 279.9 168.24 280.55 169.97 280.64C171.03 280.7 172.1 280.66 173.16 280.62C175.62 280.53 178.48 280.64 180.16 278.56C181.84 276.48 182.13 273.35 182.45 270.67C183.06 265.59 183.22 260.43 182.83 255.33C182.72 253.94 182.48 252.65 181.82 251.41C181.37 250.57 180.55 249.37 179.54 249.13C178.53 248.89 177.55 248.75 176.5 248.8C175.74 248.83 175 248.87 174.25 248.78L175.41 248.99C174.12 248.76 172.95 248.2 171.72 247.8C169.79 247.18 168.26 247.15 166.32 247.66C165.09 247.98 164.07 249.86 163.69 250.9C163.11 252.48 162.97 254.59 163.36 256.23C164 258.88 165.88 262.02 169.05 260.91C169.24 260.83 169.44 260.77 169.64 260.73L168.45 261C169.06 260.9 169.64 260.91 170.25 261L169.06 260.79C170.71 261.1 172.27 261.69 173.95 261.93C175.44 262.14 176.9 261.68 178.39 261.86L177.25 261.66L177.59 261.73L174.3 255.54C174.57 258.54 174.66 261.56 174.54 264.57C174.53 264.9 174.51 265.24 174.49 265.57C174.43 267.02 174.62 264.02 174.49 265.47C174.42 266.21 174.36 266.94 174.28 267.67C174.2 268.4 174.11 269.14 174 269.87C173.98 269.99 173.91 270.99 173.82 271.06L174.09 270.07C176.22 268.3 176.72 267.59 175.59 267.94L176.69 267.69C174.27 268.05 171.52 268.39 169.08 268.1L170.17 268.3C171.89 271.81 172.55 272.77 172.14 271.18C172.08 270.94 172.03 270.71 171.99 270.47C172.09 272.01 171.71 269.28 171.99 270.47C171.93 269.55 171.93 268.63 171.96 267.7C172.01 265.97 172.15 264.24 172.06 262.51C171.95 260.35 171.49 258.38 170.99 256.29C170.93 256.05 170.88 255.81 170.84 255.57C170.95 256.06 170.97 256.55 170.9 257.05C170.82 257.66 170.62 258.45 170.12 258.88C169.64 259.16 169.59 259.2 169.96 259C169.43 259.07 169.36 259.09 169.76 259.05C170.32 258.93 170.82 258.8 171.33 258.57C172.65 257.98 173.29 256.42 173.5 255.08C173.78 253.35 173.37 251.83 172.55 250.32L172.54 250.34Z" fill="black"/>
<path d="M28.25 208.29C25.99 212.85 26.83 218.12 27.11 223.03C27.38 227.69 27.53 232.43 28.24 237.05C28.53 238.91 30.45 241.85 32.69 240.71C35.07 239.5 35.36 236.32 35 234.01C34.95 233.72 34.91 233.43 34.88 233.14C34.95 233.77 34.97 233.88 34.93 233.47C34.9 232.94 34.84 232.41 34.8 231.88C34.73 230.9 34.65 229.93 34.59 228.95C34.44 226.75 34.3 224.56 34.17 222.36C33.9 217.62 34.33 212.41 31.83 208.19C31.01 206.81 28.99 206.77 28.24 208.28L28.25 208.29Z" fill="black"/>
<path d="M248.4 210.6C248.14 211.6 247.79 212.6 247.71 213.63C247.66 214.39 247.61 215.15 247.5 215.9C247.29 217.34 247.08 218.77 246.9 220.21C246.54 223.18 246.12 226.14 245.69 229.09C245.47 230.59 245.61 232.32 246.2 233.73C246.62 234.72 247.51 236.1 248.64 236.44C251.35 237.27 253.1 234.44 253.41 232.11C253.81 229.06 254.11 226 254.33 222.93C254.47 221.02 254.62 219.09 254.58 217.17C254.56 216.09 254.47 218.37 254.55 217.2C254.57 216.85 254.6 216.5 254.62 216.14C254.7 214.97 254.71 214.07 254.57 212.92C254.52 212.49 254.46 212.06 254.4 211.63C254.21 210.17 253.11 208.4 251.59 208.13C250.07 207.86 248.75 209.21 248.39 210.59L248.4 210.6Z" fill="black"/>
<path d="M239.39 184.87C239.22 187.99 240.29 190.73 241.54 193.53L244.71 200.59C246.79 205.22 248.87 209.86 250.95 214.49C251.78 216.34 254 218.15 255.85 216.31C257.7 214.47 257.96 211.17 256.94 208.89C254.83 204.18 252.71 199.47 250.6 194.76L247.53 187.92C246.89 186.5 246.24 185.12 245.44 183.78C244.64 182.44 243.8 181.74 242.45 181.13C240.26 180.13 239.46 183.52 239.39 184.86V184.87Z" fill="black"/>
<path d="M41.53 191.64C43.4 191.64 45.28 191.61 47.15 191.6C52.05 191.57 56.95 191.53 61.85 191.5C69.07 191.45 76.3 191.4 83.52 191.35C92.27 191.29 101.02 191.22 109.76 191.16C119.37 191.09 128.97 191.02 138.58 190.95C148.19 190.88 157.87 190.81 167.52 190.74C176.51 190.68 185.5 190.61 194.49 190.55C202.12 190.5 209.74 190.44 217.37 190.39C222.85 190.35 228.33 190.31 233.8 190.27C236.37 190.25 238.98 190.38 241.55 190.21C241.66 190.21 241.77 190.21 241.88 190.21C243.48 190.2 244.05 187.36 244.17 186.25C244.66 181.68 245.16 177.12 245.65 172.55C246.83 161.67 248.01 150.8 249.18 139.92C250.61 126.73 252.04 113.55 253.47 100.36C254.7 88.9701 255.94 77.5701 257.17 66.1801C257.77 60.6601 258.41 55.1401 258.96 49.6201C258.96 49.5401 258.98 49.4601 258.99 49.3801C259.14 48.0101 259.23 42.5601 256.7 42.5401C254.64 42.5401 252.58 42.5201 250.52 42.5101C244.97 42.4801 239.42 42.4601 233.87 42.4301C225.6 42.3901 217.34 42.3501 209.07 42.3101C199.06 42.2601 189.05 42.2201 179.04 42.1701C168 42.1201 156.95 42.0701 145.91 42.0101C134.87 41.9501 123.78 41.9101 112.71 41.8501C102.32 41.8001 91.92 41.7501 81.53 41.7001C72.81 41.6601 64.09 41.6201 55.37 41.5801C49.05 41.5501 42.74 41.5201 36.42 41.4901C33.46 41.4801 30.47 41.3301 27.51 41.4501C27.38 41.4501 27.25 41.4501 27.12 41.4501C24.59 41.4401 24.69 46.9401 24.83 48.2901C25.31 53.0401 25.79 57.7901 26.26 62.5401C27.41 73.9401 28.55 85.3401 29.7 96.7401C31.08 110.48 32.46 124.23 33.85 137.97C35.04 149.85 36.24 161.73 37.43 173.61C38.01 179.39 38.51 185.19 39.17 190.96C39.17 191.04 39.19 191.13 39.2 191.21L39.81 185.96C38.25 188.83 36.69 191.69 35.13 194.56C34.39 195.92 33.65 197.28 32.91 198.64C32.52 199.35 32.16 200.09 31.74 200.79C31.59 201.05 31.72 200.93 31.43 201.25C30.98 201.74 31.24 201.28 31.66 201.45C29.64 200.64 28.88 203.8 28.74 205.22C28.6 206.64 28.59 208.05 28.98 209.38C29.21 210.16 29.56 211.53 30.4 211.86C32.21 212.58 33.41 211.32 34.3 209.86C35.39 208.08 36.33 206.18 37.33 204.34C39.05 201.19 40.76 198.04 42.48 194.88C43.65 192.74 44.01 190.68 43.78 188.21C43.76 187.98 43.73 187.76 43.71 187.53C43.46 185 43.2 182.47 42.95 179.95C41.86 169.08 40.76 158.2 39.67 147.33C38.22 132.89 36.77 118.45 35.31 104.02C34 90.9901 32.69 77.9701 31.38 64.9401C30.74 58.5301 30.22 52.1001 29.45 45.7001C29.44 45.6101 29.43 45.5201 29.42 45.4301L27.13 52.2701C29.19 52.2701 31.25 52.2901 33.31 52.3001C38.86 52.3301 44.41 52.3501 49.96 52.3801C58.23 52.4201 66.49 52.4601 74.76 52.5001C84.77 52.5501 94.78 52.5901 104.79 52.6401C115.83 52.6901 126.88 52.7401 137.92 52.8001C148.96 52.8601 160.05 52.9001 171.12 52.9601C181.51 53.0101 191.91 53.0601 202.3 53.1101C211.02 53.1501 219.74 53.1901 228.46 53.2301C234.78 53.2601 241.09 53.2901 247.41 53.3201C250.37 53.3301 253.36 53.4501 256.32 53.3601C256.45 53.3601 256.58 53.3601 256.71 53.3601L254.42 46.5201C253.93 51.0901 253.43 55.6501 252.94 60.2201C251.76 71.1001 250.58 81.9701 249.41 92.8501C247.98 106.04 246.55 119.22 245.12 132.41C243.89 143.8 242.65 155.2 241.42 166.59C240.82 172.1 240.03 177.63 239.63 183.15C239.63 183.23 239.61 183.31 239.6 183.39L241.89 179.43C240.11 179.44 238.32 179.46 236.54 179.47C231.71 179.5 226.88 179.54 222.06 179.57C214.89 179.62 207.72 179.67 200.55 179.72C191.83 179.78 183.12 179.85 174.4 179.91C164.81 179.98 155.21 180.05 145.62 180.12C136.03 180.19 126.31 180.26 116.66 180.33C107.64 180.39 98.63 180.46 89.61 180.52C81.94 180.57 74.26 180.63 66.59 180.68C61.05 180.72 55.5 180.76 49.96 180.8C47.3 180.82 44.61 180.72 41.96 180.86C41.83 180.86 41.69 180.86 41.55 180.86C39.49 180.86 39.15 184.87 39.17 186.26C39.19 187.65 39.45 191.66 41.55 191.66L41.53 191.64Z" fill="black"/>
<path d="M31.22 213.7C31.66 212.27 31.57 210.7 31.49 209.22C31.38 207.18 31.25 205.15 31.12 203.11C30.75 197.43 30.35 191.75 29.94 186.07C29.36 177.9 28.76 169.72 28.16 161.55C27.46 152.04 26.76 142.52 26.05 133.01C25.34 123.5 24.59 113.4 23.85 103.6C23.17 94.5899 22.5 85.5699 21.82 76.5599C21.28 69.4199 20.74 62.2799 20.2 55.1299C19.88 50.9299 19.56 46.7299 19.24 42.5299C19.19 41.8899 19.17 41.2399 19.09 40.6099C19.04 40.1899 19.19 42.4699 19.18 42.0099C19.15 41.1999 19.13 42.9799 19.12 43.0499C19.2 42.5399 19.19 42.0099 19.24 41.4999C19.32 40.7199 19.41 39.9499 19.52 39.1699C19.59 38.6899 19.66 38.2099 19.74 37.7299C19.77 37.5299 19.82 37.3199 19.85 37.1199C19.58 38.9299 19.75 37.6699 19.83 37.2499C20.05 36.1799 20.31 35.1099 20.61 34.0499C20.7 33.7499 20.79 33.4499 20.88 33.1599C20.91 33.0499 20.96 32.9399 20.99 32.8299C21.14 32.2999 20.64 33.7699 20.85 33.2599C21.07 32.7199 21.25 32.1599 21.49 31.6299C21.7 31.1299 21.94 30.6499 22.18 30.1699C22.61 29.2899 21.95 30.4699 22.25 30.0299C22.41 29.7799 22.56 29.5299 22.73 29.2799C23.01 28.8599 23.32 28.4599 23.65 28.0799C23.81 27.8899 23.98 27.7199 24.15 27.5399C24.43 27.2299 23.71 27.9099 24.03 27.6499C24.16 27.5399 24.29 27.4199 24.42 27.3199C24.79 27.0199 25.18 26.7499 25.6 26.5199C25.81 26.3999 26.02 26.2999 26.24 26.1999C26.39 26.1399 27.04 25.9099 26.79 25.9799C26.5 26.0599 27.18 25.8999 27.29 25.8799C27.54 25.8399 27.79 25.8099 28.04 25.7899C29.18 25.6999 30.34 25.6999 31.48 25.6599C35.13 25.5299 38.78 25.3799 42.43 25.2099C43.78 25.1499 45.14 25.0899 46.49 25.0199C48.56 24.9199 48.89 21.0899 48.87 19.6199C48.84 18.3299 48.72 16.9899 48.17 15.7999C47.88 15.1599 47.33 14.1799 46.49 14.2199C41.26 14.4799 36.02 14.6899 30.78 14.8799C28.07 14.9799 25.47 15.0799 23.25 16.8299C21.17 18.4699 19.72 20.6799 18.58 23.0499C16.43 27.4999 15.4 32.5699 14.82 37.4399C14.57 39.5399 14.41 41.6299 14.56 43.7399C14.77 46.6599 15 49.5799 15.23 52.4999C15.71 58.8099 16.19 65.1099 16.66 71.4199C17.31 79.9999 17.96 88.5799 18.6 97.1599C19.33 106.91 20.06 116.65 20.79 126.4C21.52 136.15 22.25 146.01 22.97 155.81C23.61 164.53 24.25 173.25 24.88 181.97C25.36 188.57 25.83 195.18 26.28 201.78C26.43 203.92 26.57 206.06 26.7 208.2C26.75 208.98 26.82 210.3 26.7 208.03C26.72 208.36 26.74 208.69 26.76 209.02C26.78 209.48 26.8 209.95 26.83 210.41C26.83 210.53 26.83 210.66 26.83 210.78C26.83 210.82 26.82 210.87 26.83 210.9C26.68 210.38 26.98 208.77 27.15 208.25C26.49 210.39 26.54 213.81 28 215.64C29.55 217.58 30.83 215.07 31.25 213.7H31.22Z" fill="black"/>
<path d="M46.7702 9.05032C46.7302 12.5003 46.6902 15.9403 46.6502 19.3903L46.5802 25.4703C46.5802 25.8903 46.5602 26.3203 46.5702 26.7403C46.5502 25.4903 46.5502 24.3103 46.5702 26.9203C46.5702 27.6503 46.6102 28.3803 46.7202 29.1003C47.0302 31.1403 47.6902 33.2003 49.3002 34.5903C50.5502 35.6603 52.2202 35.9203 53.8102 36.0403C56.8902 36.2803 59.9902 36.2703 63.0802 36.2103C63.4902 36.2103 63.9302 36.2303 64.3402 36.1603C65.7302 35.9303 66.5702 34.7003 67.1402 33.5103C68.6302 30.4303 68.5002 26.7303 68.4602 23.3803C68.4102 18.6103 68.2202 13.8303 68.0202 9.06032L66.8402 13.7203C67.6802 12.3003 68.0502 10.8203 68.1502 9.16032C68.2902 6.82032 67.9702 3.89032 66.0602 2.26032C64.0402 0.540316 60.4002 0.680316 57.8802 0.580316C55.8202 0.500316 53.5902 0.310316 51.5302 0.550316C48.9002 0.850316 47.7702 4.23032 47.1202 6.33032C46.4702 8.43032 46.5102 11.8903 47.9702 13.7203C49.5202 15.6603 50.8002 13.1503 51.2202 11.7803C51.0002 12.4803 51.1702 11.8803 51.2502 11.7503C51.7702 10.8703 51.1302 12.1503 51.2902 11.6703C51.3202 11.5903 51.7002 11.1303 51.3802 11.5003C51.0902 11.8403 51.4202 11.4803 51.5002 11.4203C51.5302 11.4003 51.8702 11.1703 51.9002 11.2003C53.4202 12.8303 51.2402 11.1803 51.4102 11.3503C51.4102 11.3503 51.4802 11.3503 51.4602 11.3503C51.6502 11.4703 52.3002 11.3303 52.5102 11.3303C53.3102 11.3203 54.1102 11.3103 54.9202 11.3203C56.8602 11.3303 58.8102 11.3803 60.7502 11.5603C61.6602 11.6403 62.6802 11.6803 63.5502 11.9603C63.8502 12.0603 64.1102 12.2203 64.4002 12.3603C64.6502 12.4903 64.6102 12.7203 64.4902 12.4003C64.2502 12.2203 64.0902 11.9703 64.0102 11.6703C63.6402 10.8203 63.5102 9.92032 63.6202 8.97032C63.5502 7.70032 63.6202 6.05032 64.0002 5.15032C63.8802 5.44032 63.4702 6.07032 64.4402 4.39032C64.0602 5.04032 63.7702 5.56032 63.5902 6.33032C63.3502 7.31032 63.2502 8.32032 63.2802 9.32032C63.3002 10.2303 63.3502 11.1403 63.3902 12.0403C63.5102 15.2103 63.6202 18.3803 63.6802 21.5403C63.7102 22.9303 63.7302 24.3103 63.7102 25.7003C63.7102 25.9603 63.7002 26.2303 63.6902 26.4903C63.6702 27.6403 63.9202 25.1403 63.6802 26.4003C63.7002 26.2703 63.9702 25.3503 63.7202 26.1203C64.0802 25.0103 63.9402 25.5503 63.8202 25.7703C64.3202 24.8403 64.1402 25.2803 63.9902 25.4503C63.5902 25.9203 64.5002 24.9903 64.1402 25.3303C63.8702 25.5903 63.7102 25.3303 64.0402 25.4403C64.4202 25.5603 64.2902 25.4103 64.1802 25.3803C63.9502 25.3103 63.5802 25.4003 63.3402 25.4003C61.6602 25.4403 59.9702 25.4503 58.2902 25.4203C56.3102 25.3903 54.2402 25.4203 52.2902 25.0803C51.8702 25.0103 51.7002 24.9503 51.3202 24.7403C51.1702 24.6603 51.0402 24.5503 50.9002 24.4703C50.4302 24.2203 51.1002 24.5103 50.9702 24.5703C50.9602 24.5703 50.7402 24.3003 50.7202 24.2503C51.2702 25.2003 51.0202 24.8303 50.9202 24.6103C50.6302 23.9503 51.2302 25.6603 51.1002 25.1603C50.9602 24.6203 51.3302 26.6103 51.2502 25.9703C51.1602 25.2703 51.3102 27.5903 51.3102 27.0403C51.3102 26.7803 51.3402 26.4303 51.2702 27.5903C51.1502 29.6703 51.3302 26.4103 51.3202 26.7803C51.3202 26.6403 51.3202 26.5003 51.3202 26.3603C51.3302 25.5203 51.3402 24.6703 51.3502 23.8303C51.4102 18.9003 51.4602 13.9803 51.5202 9.05032C51.5402 7.66032 51.2102 3.65032 49.1402 3.65032C47.0702 3.65032 46.7802 7.79032 46.7602 9.05032H46.7702Z" fill="black"/>
<path d="M215.49 8.62014C215.45 12.0701 215.41 15.5101 215.37 18.9601L215.3 25.0401C215.3 25.4601 215.28 25.8901 215.29 26.3101C215.27 25.0601 215.27 23.8801 215.29 26.4901C215.29 27.2201 215.33 27.9501 215.44 28.6701C215.75 30.7101 216.41 32.7701 218.02 34.1601C219.27 35.2301 220.94 35.4901 222.53 35.6101C225.61 35.8501 228.71 35.8401 231.8 35.7801C232.21 35.7801 232.65 35.8001 233.06 35.7301C234.45 35.5001 235.29 34.2701 235.86 33.0801C237.35 30.0001 237.22 26.3001 237.18 22.9501C237.13 18.1801 236.94 13.4001 236.74 8.63014L235.56 13.2901C236.4 11.8701 236.77 10.3901 236.87 8.73014C237.01 6.39014 236.69 3.46014 234.78 1.83014C232.76 0.11014 229.12 0.25014 226.6 0.15014C224.54 0.0701404 222.31 -0.11986 220.25 0.12014C217.62 0.42014 216.49 3.80014 215.84 5.90014C215.19 8.00014 215.23 11.4601 216.69 13.2901C218.24 15.2301 219.52 12.7201 219.94 11.3501C219.72 12.0501 219.89 11.4501 219.97 11.3201C220.49 10.4401 219.85 11.7201 220.01 11.2401C220.04 11.1601 220.42 10.7001 220.1 11.0701C219.81 11.4101 220.14 11.0501 220.22 10.9901C220.25 10.9701 220.59 10.7401 220.62 10.7701C222.14 12.4001 219.96 10.7501 220.13 10.9201C220.13 10.9201 220.2 10.9201 220.18 10.9201C220.37 11.0401 221.02 10.9001 221.23 10.9001C222.03 10.8901 222.83 10.8801 223.64 10.8901C225.58 10.9001 227.53 10.9501 229.47 11.1301C230.38 11.2101 231.4 11.2501 232.27 11.5301C232.57 11.6301 232.83 11.7901 233.12 11.9301C233.37 12.0601 233.33 12.2901 233.21 11.9701C232.97 11.7901 232.81 11.5401 232.73 11.2401C232.36 10.3901 232.23 9.49014 232.34 8.54014C232.27 7.27014 232.34 5.62014 232.72 4.72014C232.6 5.01014 232.19 5.64014 233.16 3.96014C232.78 4.61014 232.49 5.13014 232.31 5.90014C232.07 6.88014 231.97 7.89014 232 8.89014C232.02 9.80014 232.07 10.7101 232.11 11.6101C232.23 14.7801 232.34 17.9501 232.4 21.1101C232.43 22.5001 232.45 23.8801 232.43 25.2701C232.43 25.5301 232.42 25.8001 232.41 26.0601C232.39 27.2101 232.64 24.7101 232.4 25.9701C232.42 25.8401 232.69 24.9201 232.44 25.6901C232.8 24.5801 232.66 25.1201 232.54 25.3401C233.04 24.4101 232.86 24.8501 232.71 25.0201C232.31 25.4901 233.22 24.5601 232.86 24.9001C232.59 25.1601 232.43 24.9001 232.76 25.0101C233.14 25.1301 233.01 24.9801 232.9 24.9501C232.67 24.8801 232.3 24.9701 232.06 24.9701C230.38 25.0101 228.69 25.0201 227.01 24.9901C225.03 24.9601 222.96 24.9901 221.01 24.6501C220.59 24.5801 220.42 24.5201 220.04 24.3101C219.89 24.2301 219.76 24.1201 219.62 24.0401C219.15 23.7901 219.82 24.0801 219.69 24.1401C219.68 24.1401 219.46 23.8701 219.44 23.8201C219.99 24.7701 219.74 24.4001 219.64 24.1801C219.35 23.5201 219.95 25.2301 219.82 24.7301C219.68 24.1901 220.05 26.1801 219.97 25.5401C219.88 24.8401 220.03 27.1601 220.03 26.6101C220.03 26.3501 220.06 26.0001 219.99 27.1601C219.87 29.2401 220.05 25.9801 220.04 26.3501C220.04 26.2101 220.04 26.0701 220.04 25.9301C220.05 25.0901 220.06 24.2401 220.07 23.4001C220.13 18.4701 220.18 13.5501 220.24 8.62014C220.26 7.23014 219.93 3.22014 217.86 3.22014C215.79 3.22014 215.5 7.36014 215.48 8.62014H215.49Z" fill="black"/>
<path d="M226.97 9.28025C224.21 9.16025 223.89 11.8203 223.69 13.5903C223.67 13.7403 223.66 13.8903 223.64 14.0503C223.57 14.7503 223.49 15.4703 223.49 16.1703C223.49 16.7703 223.5 17.3803 223.52 17.9803C223.56 19.1903 223.62 20.3903 223.72 21.5903L230.65 19.9803C230.55 19.4303 230.47 18.8703 230.41 18.3103L230.57 19.7403C230.41 18.3503 230.36 16.9603 230.41 15.5603C230.41 14.8403 230.3 14.1503 230.05 13.4903C229.91 12.8703 229.65 12.3003 229.27 11.7703C228.74 11.0203 227.74 10.1603 226.72 10.2503C225.7 10.3403 224.79 10.9803 224.25 11.8903C223.55 13.0803 223.35 14.3603 223.31 15.7303C223.23 18.1603 223.46 20.6103 223.88 23.0003C223.99 23.6603 224.21 24.2603 224.56 24.8203C224.79 25.3503 225.14 25.8103 225.59 26.1903L226.45 26.7103C226.93 26.9203 227.4 26.9403 227.87 26.7703C228.21 26.7503 228.51 26.6203 228.76 26.3803C229.24 26.1103 229.61 25.7303 229.87 25.2403C230.53 24.1103 230.92 22.7103 230.81 21.4003C230.71 20.2003 230.65 18.9903 230.61 17.7903C230.56 16.1803 230.56 14.5603 230.27 12.9603C230.11 12.1503 229.8 11.4003 229.35 10.7103C228.97 10.1303 228.46 9.70025 227.83 9.42025C227.55 9.36025 227.27 9.27025 226.97 9.26025V9.28025Z" fill="black"/>
<path d="M56.14 12.53C55.92 13.27 55.7 14 55.6 14.77L55.41 16.28C55.28 17.29 55.22 18.32 55.13 19.33C55.01 20.01 55 20.69 55.13 21.37C55.16 22.02 55.31 22.65 55.57 23.26C55.76 23.81 56.06 24.28 56.47 24.67C56.77 25.08 57.15 25.37 57.63 25.56L58.53 25.72C59.18 25.68 59.74 25.44 60.21 24.98C61.05 24.14 61.46 23.04 61.68 21.89C62.11 19.6 62.19 17.24 62.08 14.91C62.02 13.62 61.71 12.19 60.95 11.12C60.66 10.64 60.27 10.27 59.78 10.03C59.38 9.71995 58.93 9.56995 58.4 9.59995C57.35 9.69995 56.47 10.33 55.93 11.24C55.26 12.39 54.92 13.75 54.99 15.08C55.04 16.02 55.06 16.95 55.05 17.89C55.04 18.83 55.06 19.75 55.06 20.69L61.77 20.53C61.61 19.09 61.49 17.63 61.26 16.19L61.03 14.69C60.91 13.91 60.65 13.17 60.4 12.42C60.11 11.53 59.23 10.59 58.23 10.62C57.23 10.65 56.42 11.63 56.15 12.53H56.14Z" fill="black"/>
<path d="M67.6801 23.2401C72.6701 23.2301 77.6601 23.2201 82.6501 23.2001C94.5401 23.1701 106.43 23.1401 118.32 23.1101C132.78 23.0801 147.24 23.0401 161.69 23.0101C174.11 22.9801 186.53 22.9501 198.96 22.9201C203.08 22.9201 207.19 22.9001 211.31 22.8901C213.23 22.8901 215.21 23.0101 217.13 22.8801C217.21 22.8801 217.3 22.8801 217.38 22.8801C219.44 22.8801 219.78 18.8701 219.76 17.4801C219.74 16.0901 219.48 12.0701 217.38 12.0801C212.39 12.0901 207.4 12.1001 202.41 12.1201C190.52 12.1501 178.63 12.1801 166.74 12.2101C152.28 12.2401 137.82 12.2801 123.37 12.3101C110.95 12.3401 98.5301 12.3701 86.1001 12.4001C81.9801 12.4001 77.8701 12.4201 73.7501 12.4301C71.8301 12.4301 69.8501 12.3101 67.9301 12.4401C67.8501 12.4401 67.7601 12.4401 67.6801 12.4401C65.6201 12.4401 65.2801 16.4501 65.3001 17.8401C65.3201 19.2301 65.5801 23.2501 67.6801 23.2401Z" fill="black"/>
<path d="M236.31 25.39C242.96 25.27 249.62 25.06 256.27 25.04C256.61 25.04 256.86 25.07 257.2 25.13C257.23 25.13 257.61 25.23 257.61 25.24C257.59 25.32 256.86 24.98 257.32 25.16C257.43 25.2 257.55 25.24 257.66 25.28C258.15 25.46 258.62 25.68 259.08 25.93C259.66 26.24 260.21 26.6 260.73 27C261.03 27.23 261.31 27.48 261.6 27.72C262.11 28.15 261.26 27.33 261.6 27.72C261.74 27.88 261.89 28.03 262.04 28.18C262.67 28.88 263.21 29.65 263.72 30.44C264.23 31.23 263.45 29.87 263.74 30.47C263.86 30.72 263.99 30.96 264.11 31.21C264.38 31.78 264.61 32.37 264.85 32.95C265.15 33.69 264.6 32.09 264.83 32.89C264.92 33.21 265.02 33.53 265.11 33.85C265.2 34.17 265.29 34.52 265.36 34.86C265.39 35.01 265.43 35.16 265.46 35.31C265.67 36.22 265.35 35.15 265.43 35.12C265.38 35.14 265.71 37.11 265.73 37.32C265.77 37.67 265.95 38.27 265.84 38.59C265.84 38.59 265.79 37.47 265.81 38.1C265.81 38.43 265.84 38.75 265.84 39.08C265.87 40.37 265.84 41.66 265.79 42.94C265.75 43.89 265.71 44.83 265.66 45.78C265.63 46.34 265.6 46.89 265.57 47.45C265.54 48.01 265.45 49.36 265.6 47.04C265.58 47.35 265.56 47.67 265.54 47.98C265.14 54.57 264.65 61.16 264.16 67.75C263.5 76.52 262.8 85.29 262.09 94.05C261.3 103.85 260.49 113.64 259.66 123.44C258.84 133.26 258 143.07 257.16 152.88C256.41 161.57 255.66 170.26 254.91 178.95C254.35 185.39 253.79 191.83 253.22 198.26C252.94 201.41 252.66 204.55 252.39 207.7C252.38 207.84 252.37 207.98 252.35 208.11C252.23 209.49 252.23 210.92 252.59 212.27C252.8 213.04 253.23 214.31 254.01 214.75C255.94 215.84 256.83 212.08 256.93 210.98C257.13 208.76 257.32 206.54 257.52 204.32C258.04 198.45 258.55 192.59 259.06 186.72C259.79 178.34 260.52 169.96 261.24 161.58C262.08 151.78 262.92 141.97 263.75 132.17C264.58 122.37 265.43 112.16 266.25 102.15C267 93 267.73 83.84 268.43 74.69C268.97 67.61 269.5 60.52 269.96 53.43C270.37 47.08 270.99 40.6 270.3 34.26C269.44 26.36 265.94 16.43 257.26 14.35C255.59 13.95 253.65 14.29 251.96 14.32C247.64 14.4 243.32 14.47 239.01 14.55C238.11 14.57 237.22 14.58 236.32 14.6C234.25 14.64 233.92 18.59 233.94 20C233.97 21.31 234.22 25.44 236.32 25.4L236.31 25.39Z" fill="black"/>
<path d="M34.1202 249.5C34.0702 252.93 34.0202 256.35 33.9702 259.78L33.8902 265.32C33.8902 265.5 33.8802 265.68 33.8902 265.85C33.9102 266.59 33.9902 264.06 33.9702 264.61C33.8602 266.74 33.8702 268.89 34.7402 270.89C36.1502 274.13 39.0402 274.79 42.3102 274.97C45.5802 275.15 48.7302 275.15 51.9402 275.11C53.2702 275.09 54.6102 275.25 55.7002 274.34C58.6502 271.87 58.5602 267.13 58.5402 263.59C58.5102 258.89 58.2702 254.19 58.0202 249.51L56.8402 254.17C57.9202 252.72 58.2102 250.7 58.2202 248.95C58.2202 246.83 57.8302 244.17 56.0102 242.81C54.8502 241.94 53.1702 241.73 51.7702 241.57C50.2002 241.39 48.6202 241.32 47.0402 241.26C44.5502 241.18 42.0402 241.12 39.5402 241.21C37.0402 241.3 35.6302 243.66 34.8502 245.68C33.9702 247.96 33.7302 251.06 34.8502 253.32C35.1802 253.98 35.6602 254.9 36.5302 254.9C37.3402 254.9 37.9602 253.96 38.2102 253.32C38.2502 253.23 38.8002 252.16 38.3402 252.89C38.4402 252.73 38.5802 252.58 38.6702 252.42C38.9302 251.98 38.7502 252.33 38.6002 252.45C38.7502 252.33 38.8902 252.21 39.0602 252.12C39.1202 252.09 39.5102 251.85 39.5402 251.89C39.9502 252.36 38.7802 251.93 39.1902 252.02C40.0802 252.21 41.2502 251.99 42.1502 251.99C44.1502 251.99 46.1502 252.01 48.1502 252.11C49.9202 252.19 52.3602 252.22 53.7802 252.71C54.0602 252.81 54.3402 253.05 54.6202 253.12C55.1002 253.25 54.2802 252.75 54.4202 252.92C54.0502 252.47 53.6202 250.72 53.5502 250.21C53.3702 248.88 53.5502 246.63 54.0502 245.55C54.3202 244.96 54.7102 244.07 53.9702 245.68C53.2302 247.29 53.2502 249.06 53.3402 250.79C53.4902 253.84 53.6302 256.89 53.7202 259.95C53.7602 261.43 53.8002 262.92 53.8002 264.41C53.8002 264.71 53.8002 265.01 53.7902 265.31C53.7802 265.61 53.7302 266.58 53.8002 265.33C53.8902 263.84 53.8602 265.35 53.7502 265.49C53.8602 265.34 53.9402 264.53 54.0602 264.27C53.7302 265.03 54.4602 263.74 54.1702 264.12C53.7602 264.67 54.5902 264 54.2102 264.12C54.1702 264.13 54.0002 264.25 53.9902 264.26C53.8102 264.47 53.6502 264.2 54.0102 264.29C54.3102 264.37 54.2102 264.27 54.0102 264.26C53.8302 264.26 53.6402 264.26 53.4602 264.27C51.9202 264.3 50.3702 264.31 48.8302 264.31C46.7702 264.31 44.7002 264.28 42.6402 264.17C41.5902 264.12 40.4902 264.1 39.4602 263.85C39.1302 263.77 39.1302 263.78 38.7002 263.55C38.5402 263.47 38.3902 263.36 38.2302 263.27C37.9602 263.12 37.8002 262.7 38.2302 263.33C38.1702 263.24 38.0802 263.16 38.0202 263.08C37.6502 262.57 38.4302 263.88 38.2402 263.48C38.0602 263.11 38.1002 262.79 38.4502 264.16C38.3002 263.57 38.6502 265.32 38.6202 265.13C38.5002 264.27 38.6802 266.77 38.6702 266.1C38.7502 271.87 38.6202 267.8 38.5902 267.42C38.5602 266.94 38.6702 266.42 38.6802 265.96C38.6902 265.47 38.6902 264.97 38.7002 264.48C38.7702 259.48 38.8402 254.49 38.9202 249.49C38.9402 248.27 38.7402 246.79 38.2202 245.67C37.9402 245.05 37.3602 244.09 36.5402 244.09C34.4602 244.09 34.1802 248.23 34.1602 249.49L34.1202 249.5Z" fill="black"/>
<path d="M226.09 250.52C226.04 253.95 225.99 257.37 225.94 260.8L225.86 266.34C225.86 266.52 225.85 266.7 225.86 266.87C225.88 267.61 225.96 265.08 225.94 265.63C225.83 267.76 225.84 269.91 226.71 271.91C228.12 275.15 231.01 275.81 234.28 275.99C237.55 276.17 240.7 276.17 243.91 276.13C245.24 276.11 246.58 276.27 247.67 275.36C250.62 272.89 250.53 268.15 250.51 264.61C250.48 259.91 250.24 255.21 249.99 250.53L248.81 255.19C249.89 253.74 250.18 251.72 250.19 249.97C250.19 247.85 249.8 245.19 247.98 243.83C246.82 242.96 245.14 242.75 243.74 242.59C242.17 242.41 240.59 242.34 239.01 242.28C236.52 242.2 234.01 242.14 231.51 242.23C229.01 242.32 227.6 244.68 226.82 246.7C225.94 248.98 225.7 252.08 226.82 254.34C227.15 255 227.63 255.92 228.5 255.92C229.31 255.92 229.93 254.98 230.18 254.34C230.22 254.25 230.77 253.18 230.31 253.91C230.41 253.75 230.55 253.6 230.64 253.44C230.9 253 230.72 253.35 230.57 253.47C230.72 253.35 230.86 253.23 231.03 253.14C231.09 253.11 231.48 252.87 231.51 252.91C231.92 253.38 230.75 252.95 231.16 253.04C232.05 253.23 233.22 253.01 234.12 253.01C236.12 253.01 238.12 253.03 240.12 253.13C241.89 253.21 244.33 253.24 245.75 253.73C246.03 253.83 246.31 254.07 246.59 254.14C247.07 254.27 246.25 253.77 246.39 253.94C246.02 253.49 245.59 251.74 245.52 251.23C245.34 249.9 245.52 247.65 246.02 246.57C246.29 245.98 246.68 245.09 245.94 246.7C245.2 248.31 245.22 250.08 245.31 251.81C245.46 254.86 245.6 257.91 245.69 260.97C245.73 262.45 245.77 263.94 245.77 265.43C245.77 265.73 245.77 266.03 245.76 266.33C245.75 266.63 245.7 267.6 245.77 266.35C245.86 264.86 245.83 266.37 245.72 266.51C245.83 266.36 245.91 265.55 246.03 265.29C245.7 266.05 246.43 264.76 246.14 265.14C245.73 265.69 246.56 265.02 246.18 265.14C246.14 265.15 245.97 265.27 245.96 265.28C245.78 265.49 245.62 265.22 245.98 265.31C246.28 265.39 246.18 265.29 245.98 265.28C245.8 265.28 245.61 265.28 245.43 265.29C243.89 265.32 242.34 265.33 240.8 265.33C238.74 265.33 236.67 265.3 234.61 265.19C233.56 265.14 232.46 265.12 231.43 264.87C231.1 264.79 231.1 264.8 230.67 264.57C230.51 264.49 230.36 264.38 230.2 264.29C229.93 264.14 229.77 263.72 230.2 264.35C230.14 264.26 230.05 264.18 229.99 264.1C229.62 263.59 230.4 264.9 230.21 264.5C230.03 264.13 230.07 263.81 230.42 265.18C230.27 264.59 230.62 266.34 230.59 266.15C230.47 265.29 230.65 267.79 230.64 267.12C230.72 272.89 230.59 268.82 230.56 268.44C230.53 267.96 230.64 267.44 230.65 266.98C230.66 266.49 230.66 265.99 230.67 265.5C230.74 260.5 230.81 255.51 230.89 250.51C230.91 249.29 230.71 247.81 230.19 246.69C229.91 246.07 229.33 245.11 228.51 245.11C226.43 245.11 226.15 249.25 226.13 250.51L226.09 250.52Z" fill="black"/>
<path d="M43.4801 254.32C43.4101 255.24 43.3601 256.08 43.4201 256.99C43.4501 257.4 43.4801 257.81 43.5201 258.23C43.6501 259.53 43.8001 260.83 44.0201 262.12C44.1301 262.78 44.3501 263.38 44.7001 263.94C44.9301 264.47 45.2801 264.93 45.7301 265.31C46.1101 265.68 46.5501 265.89 47.0601 265.92C47.5401 266.07 48.0101 266.03 48.4701 265.79L49.3001 265.23C49.8601 264.67 50.2701 264.02 50.5201 263.26C50.9601 261.9 51.0301 260.5 50.7801 259.09C50.6601 258.4 50.5601 257.71 50.4801 257.01L50.6401 258.44C50.5901 257.95 50.5401 257.46 50.5101 256.97C50.4901 256.73 50.4801 256.49 50.4701 256.26C50.4401 255.56 50.3501 254.87 50.2601 254.17L49.8701 252.9C49.6701 252.33 49.3501 251.83 48.9301 251.42C48.7301 251.12 48.4701 250.89 48.1401 250.75C47.7501 250.44 47.2901 250.3 46.7701 250.32L45.8401 250.53L45.0101 251.09C44.5801 251.49 44.2601 251.96 44.0601 252.49C43.7401 253.06 43.5501 253.67 43.4701 254.33L43.4801 254.32Z" fill="black"/>
<path d="M235.01 253.44C234.75 254 234.6 254.38 234.51 255.11C234.43 255.74 234.4 256.38 234.46 257.02L234.57 258.27C234.64 259.11 234.72 259.94 234.81 260.78C234.81 261.5 234.92 262.19 235.17 262.85C235.31 263.47 235.57 264.04 235.95 264.57C236.24 265.05 236.63 265.42 237.12 265.66C237.52 265.97 237.97 266.12 238.5 266.09L239.44 265.87C240.09 265.55 240.6 265.07 240.97 264.44L241.5 263.33C241.81 262.44 241.94 261.53 241.92 260.59C241.85 259.74 241.75 258.89 241.66 258.04L241.53 256.79C241.42 255.72 241.36 254.68 240.93 253.67C240.65 253.01 240.48 252.75 240.12 252.31C239.75 251.75 239.26 251.34 238.66 251.07C238.22 250.87 237.79 250.86 237.36 251.01C236.9 251.06 236.5 251.27 236.17 251.63C235.65 252.14 235.28 252.74 235.05 253.43L235.01 253.44Z" fill="black"/>
</g>
<defs>
<clipPath id="clip0_3416_12042">
<rect width="283.99" height="298.74" fill="white"/>
</clipPath>
</defs>
</svg>
