<svg width="292" height="197" viewBox="0 0 292 197" fill="none" xmlns="http://www.w3.org/2000/svg">
<g clip-path="url(#clip0_3416_10636)">
<path d="M140.92 15.28C140.84 15.49 140.8 15.71 140.79 15.93C140.76 17.09 140.73 18.26 140.76 19.42C140.76 19.72 141.02 20.02 141.22 20.46C142.15 20.17 142.97 20.05 143.23 19.54C143.85 18.32 145.1 17.37 145.46 16.05C145.55 15.73 145.65 15.39 145.61 15.07C145.58 14.82 145.41 14.51 145.17 14.35C143.67 13.36 141.45 13.85 140.92 15.27" fill="#1D1D1B"/>
<path d="M171.06 3.03022C170.7 4.10022 170.27 5.16022 169.81 6.20022C168.91 8.23022 167.96 10.2402 167.04 12.2602C166.99 12.3602 166.97 12.4702 166.96 12.5802C166.93 13.0402 167.37 13.4702 168.08 13.7002C168.63 13.8802 169.05 13.7602 169.36 13.3902C170.38 12.2102 171.65 11.1202 172.35 9.83022C173.27 8.16022 174.2 6.51022 175.32 4.92022C175.91 4.09022 176.11 3.16022 176.24 2.04022C176.19 1.76022 176.16 1.31022 176.03 0.880222C175.8 0.140222 174.78 -0.259778 174.05 0.160222C172.75 0.900222 171.51 1.70022 171.07 3.03022" fill="#1D1D1B"/>
<path d="M165.61 15.8301C164.89 16.2101 164.41 16.7201 164.12 17.3801C162.95 20.1001 161.71 22.7901 160.12 25.3701C159.8 25.8801 159.72 26.4201 159.7 26.9801C159.67 27.7601 159.68 27.7801 161.01 28.2201C161.16 28.1201 161.37 28.0501 161.48 27.9201C163.89 25.0601 165.63 21.9301 167.2 18.7301C167.52 18.0701 167.71 17.3501 167.85 16.6501C167.98 15.9901 167.22 15.4701 166.37 15.5901C166.1 15.6301 165.82 15.7101 165.6 15.8301" fill="#1D1D1B"/>
<path d="M176.71 33.9204C176.61 34.2204 177.18 34.6204 177.54 34.5104C178 34.3804 178.49 34.2404 178.84 34.0004C179.89 33.2804 180.96 32.5604 181.85 31.7304C182.62 31.0104 183.45 30.3504 184.37 29.7604C184.9 29.4104 185.41 29.0304 185.85 28.6004C186.3 28.1504 186.14 27.6004 185.51 27.3104C185.09 27.1104 184.6 27.0004 184.37 26.9204C182.73 26.8404 181.69 27.2804 180.87 28.1404C179.62 29.4504 178.6 30.8804 177.42 32.2304C177.01 32.7004 176.9 33.3504 176.71 33.9204Z" fill="#1D1D1B"/>
<path d="M191.16 24.34C191 23.59 190.71 22.84 190.43 22.1C190.38 21.96 190.17 21.84 190 21.74C189.32 21.34 188.55 21.37 187.9 21.87C186.88 22.65 186.34 23.68 185.82 24.69C185.47 25.38 186.64 26.52 187.81 26.64C189.02 26.59 190.06 26.08 190.83 25.26C191.06 25.02 191.21 24.63 191.15 24.34" fill="#1D1D1B"/>
<path d="M286.8 175.34C286.81 174.69 286.92 173.67 287.06 173.11C286.91 173.7 287.62 171.74 287.25 172.51C287.05 172.92 287.97 171.55 287.47 172.1C287.36 172.22 287.25 172.37 287.15 172.5C286.72 173.05 287.67 172.1 287.28 172.38C287.11 172.5 286.96 172.65 286.79 172.77C286.41 173.06 286 173.31 285.59 173.54C284.57 174.12 283.48 174.59 282.38 175.02C281.73 175.27 281.07 175.5 280.4 175.72C280.22 175.78 280.03 175.84 279.84 175.9C279.75 175.93 279.22 176.09 279.58 175.98C279.96 175.86 279.32 176.06 279.22 176.09C278.99 176.16 278.76 176.22 278.52 176.29C269.73 178.77 260.58 180.03 251.53 181.13C238.3 182.74 225 183.73 211.69 184.44C195.24 185.32 178.76 185.74 162.29 185.84C144.71 185.94 127.12 185.67 109.55 184.98C94.12 184.38 78.69 183.47 63.32 182.06C51.51 180.98 39.69 179.65 28 177.56C23.77 176.8 19.55 175.95 15.4 174.84C14.57 174.62 13.74 174.38 12.91 174.13C12.63 174.05 13.1 174.19 13.11 174.19C13 174.15 12.88 174.12 12.77 174.08C12.6 174.03 12.44 173.97 12.27 173.92C11.87 173.79 11.47 173.66 11.07 173.52C9.81001 173.08 8.56001 172.6 7.36001 172.01C6.47001 171.58 5.59001 171.1 4.81001 170.49C4.65001 170.36 4.50001 170.2 4.33001 170.09C4.39001 170.13 4.88001 170.73 4.44001 170.17C4.34001 170.05 4.25001 169.91 4.15001 169.79C3.66001 169.23 4.61001 170.68 4.36001 170.17C4.01001 169.44 4.71001 171.34 4.58001 170.82C4.46001 170.34 4.84001 172.44 4.77001 171.85C4.80001 172.1 4.83001 173.17 4.80001 173.66C4.77001 174.23 4.70001 174.75 4.57001 175.29C4.71001 174.69 4.10001 176.52 4.32001 176.01C4.64001 175.28 3.65001 176.81 4.22001 176.2C4.37001 176.03 4.90001 175.57 4.44001 175.91C3.93001 176.29 4.75001 175.66 4.92001 175.54C5.47001 175.14 6.06001 174.8 6.66001 174.49C10.69 172.41 14.42 171.62 18.91 170.65C25.62 169.19 32.44 168.19 39.25 167.35C43.42 166.83 47.61 166.39 51.8 165.98L50.6 165.24C54.56 169.75 59.9 172.93 65.34 175.34C71.52 178.08 78.12 179.92 84.75 181.19C92.63 182.71 100.52 183.22 108.51 183.65C121.71 184.36 134.94 184.72 148.16 184.61C161.38 184.5 174.55 184.21 187.51 182.25C194.35 181.22 201.15 179.92 207.87 178.27C212.15 177.22 216.4 176.02 220.56 174.54C224.26 173.23 227.99 171.71 231.24 169.47C232.63 168.51 233.92 167.38 235 166.08L233.8 166.82C244.72 167.92 255.64 169.24 266.43 171.31C270.27 172.05 274.11 172.88 277.87 173.97C278.77 174.23 278.67 174.2 279.58 174.49C280.31 174.73 281.04 174.98 281.76 175.26C282.88 175.68 283.99 176.15 285.04 176.72C285.52 176.98 285.99 177.25 286.43 177.56C286.61 177.68 286.78 177.81 286.95 177.94C287.03 178 287.1 178.07 287.18 178.13C287.68 178.51 286.93 178.16 286.99 177.93C287 177.88 287.99 179.37 287.42 178.37C287.05 177.72 287.23 178.03 287.3 178.18C287.47 178.52 287.52 179.11 287.05 177.4C287.06 177.45 287.08 177.51 287.09 177.56C286.96 177.05 286.82 175.59 286.82 175.31C286.84 176.7 287.1 180.71 289.2 180.71C291.3 180.71 291.59 176.57 291.58 175.31C291.54 171.57 290.19 168.58 286.98 166.67C284.05 164.92 280.63 163.93 277.37 163.02C265.99 159.82 254.09 158.3 242.37 156.94C240.65 156.74 238.93 156.55 237.2 156.37C236.25 156.27 235.25 156.07 234.29 156.07C233.04 156.07 232.65 156.79 231.85 157.6C232.27 157.17 231.55 157.86 231.53 157.87C231.37 158.01 231.21 158.14 231.04 158.27C230.51 158.69 229.96 159.07 229.4 159.44C228.02 160.33 226.56 161.1 225.08 161.79C218.83 164.7 212.08 166.51 205.38 168.06C196.38 170.14 187.28 171.71 178.08 172.51C155.15 174.5 131.97 174.09 109.01 172.87C93.41 172.04 77.42 170.64 63.3 163.34C60.75 162.02 58.28 160.5 56.02 158.72C55.54 158.34 55.06 157.94 54.6 157.53C54.4 157.35 54.2 157.17 54.01 156.99C54.47 157.41 54.15 157.13 54.06 157.03C53.78 156.74 53.5 156.45 53.23 156.16C52.98 155.9 52.75 155.54 52.44 155.37C51.81 155.02 51.01 155.25 50.34 155.32C43.35 156.01 36.37 156.82 29.43 157.91C24.15 158.74 18.86 159.7 13.69 161.11C10.45 162 6.96001 162.95 4.12001 164.81C-1.21999 168.31 -1.35999 177.32 3.79001 181.07C5.48001 182.3 7.49001 183.09 9.44001 183.79C12.46 184.87 15.57 185.71 18.69 186.44C27.3 188.47 36.08 189.76 44.85 190.86C56.84 192.37 68.89 193.42 80.94 194.25C110.86 196.29 140.9 196.93 170.89 196.54C196.91 196.2 223.01 195.2 248.88 192.23C257.47 191.24 266.1 190.07 274.53 188.1C277.49 187.41 280.46 186.61 283.31 185.55C285.06 184.9 286.9 184.15 288.36 182.95C290.71 181.01 291.5 178.33 291.57 175.33C291.6 173.94 291.25 169.93 289.19 169.93C287.13 169.93 286.84 174.07 286.81 175.33L286.8 175.34Z" fill="#1D1D1B"/>
<path d="M233.03 156.19C233.23 155.81 232.86 156.4 232.85 156.42C232.7 156.61 232.56 156.8 232.41 156.98C232.34 157.06 231.6 157.84 231.97 157.48C231.27 158.15 230.48 158.73 229.68 159.26C227.88 160.46 225.92 161.44 223.94 162.31C219.5 164.25 214.84 165.67 210.16 166.89C202.58 168.87 194.86 170.36 187.12 171.51C180.77 172.46 174.33 172.88 167.92 173.22C159.09 173.7 150.25 173.86 141.41 173.82C128.13 173.77 114.85 173.3 101.6 172.43C90.4799 171.71 79.2999 170.04 68.8999 165.88C66.0499 164.74 63.2599 163.42 60.6199 161.85C58.7399 160.74 56.9299 159.5 55.2599 158.1C54.9599 157.85 54.6699 157.6 54.3799 157.34C54.2499 157.22 54.1199 157.1 53.9899 156.98C54.4499 157.4 54.1299 157.12 54.0399 157.02C53.5899 156.55 53.1399 156.1 52.7299 155.6C52.2699 155.04 51.8699 154.43 51.4899 153.82C51.3499 153.6 51.2099 153.37 51.0799 153.14C51.1599 153.28 51.3499 153.65 51.0099 153C50.7499 152.49 50.4899 151.98 50.2599 151.46C50.1799 151.28 49.7299 150.5 49.7999 150.31C49.7999 150.31 50.1099 151.39 49.9099 150.59C49.8699 150.41 49.8099 150.24 49.7699 150.07C49.7299 149.91 49.7099 149.72 49.6599 149.56C49.6599 149.56 49.9599 150.88 49.7799 150.12C49.7499 149.98 49.7799 149.78 49.7299 149.65C49.7799 149.76 49.7899 151.21 49.7799 150.31C49.7699 149.2 49.6299 151.77 49.7699 150.72C49.7899 150.56 49.3999 152.11 49.7199 151.07C49.7699 150.92 49.3799 152.27 49.6499 151.31C49.6799 151.21 49.8499 151.01 49.8399 150.92C49.8599 151.05 49.2699 151.77 49.6599 151.25C49.9199 150.89 50.1899 150.56 50.4699 150.22C50.8899 149.7 49.9499 150.61 50.4799 150.22C50.6699 150.08 50.8399 149.92 51.0299 149.78C51.6999 149.29 52.4299 148.9 53.1899 148.58C53.4999 148.45 53.8199 148.35 54.1299 148.23C54.6899 148.01 53.6599 148.34 54.0199 148.26C54.1699 148.23 54.3299 148.17 54.4799 148.14C54.7399 148.08 55.0599 147.96 55.3299 147.96C56.2399 147.98 57.3199 148.43 58.2199 148.63C59.5499 148.93 60.8799 149.2 62.2099 149.46C71.2699 151.19 80.4699 151.94 89.6799 152.18C95.5899 152.33 101.45 152.44 107.35 152.85C114.54 153.34 121.74 153.73 128.92 154.45C133.16 154.87 137.26 155.84 141.48 156.4C147.18 157.15 152.91 157.68 158.63 158.21C162.48 158.56 166.37 159.05 170.24 159.21C171.7 159.27 173.2 159.09 174.66 158.99C177.21 158.82 179.76 158.6 182.3 158.33C186.85 157.85 191.38 157.21 195.87 156.4C206.78 154.44 217.78 151.65 227.98 147.25C228.45 147.05 228.92 146.84 229.38 146.62H228.12C230.27 147.57 232.5 148.46 234.25 150.07C233.83 149.69 234.59 150.45 234.66 150.54C234.83 150.74 234.99 150.95 235.14 151.17C235.24 151.31 235.33 151.45 235.42 151.59C235.15 151.1 235.11 151.03 235.3 151.39C235.38 151.61 235.49 151.83 235.59 152.04C235.95 152.79 235.26 150.95 235.54 151.93C235.83 152.98 235.36 150.76 235.49 151.63C235.66 152.82 235.5 150.75 235.48 151.18C235.45 151.71 235.26 152.48 235.54 150.72C235.51 150.93 235.49 151.15 235.47 151.36C235.36 152.56 235.73 150.32 235.53 151.11C235.41 151.55 235.22 152.04 235.15 152.49C235.32 151.37 235.44 151.7 235.26 152.13C235.16 152.36 235.07 152.59 234.97 152.82C234.81 153.19 234.63 153.56 234.45 153.91C234.38 154.05 234.3 154.18 234.23 154.33C233.96 154.89 234.81 153.4 234.36 154.1C234.22 154.32 234.08 154.55 233.94 154.77C233.81 154.96 233.68 155.16 233.54 155.34C232.09 157.23 232.05 160.53 232.69 162.73C233.09 164.11 234.43 166.64 235.94 164.67C239.38 160.17 240.89 153.87 240.02 148.32C239.28 143.62 236.79 139.8 232.52 137.61C231.41 137.04 229.34 135.72 228.14 136.19C227.99 136.25 227.85 136.33 227.7 136.4C217.01 141.07 206.19 143.82 194.57 145.82C189.49 146.69 184.37 147.36 179.23 147.82C176.03 148.11 172.69 148.59 169.48 148.33C164.17 147.9 158.87 147.43 153.57 146.92C148.27 146.41 142.43 146.07 137.04 144.88C130.75 143.49 124.24 143.19 117.83 142.74C111.01 142.27 104.17 141.64 97.3199 141.51C88.2299 141.35 79.1599 141.13 70.1299 139.93C67.2499 139.55 64.3799 139.08 61.5299 138.52C60.1099 138.24 58.6899 137.94 57.2799 137.61C56.6599 137.47 55.8999 137.15 55.2699 137.17C53.9599 137.2 52.3999 137.91 51.2499 138.49C44.0299 142.09 44.0899 151.83 46.6199 158.39C49.6399 166.21 56.4799 171.15 63.8099 174.64C71.5699 178.33 80.0499 180.51 88.4999 181.86C98.8099 183.51 109.37 183.78 119.79 184.17C138.56 184.88 157.43 184.98 176.16 183.48C182.52 182.97 188.75 182.15 195.02 181C205.41 179.1 216.12 176.83 225.79 172.47C230.07 170.54 234.12 168.07 236.41 163.83C237.54 161.73 237.38 158.32 236.41 156.19C236.1 155.52 235.58 154.61 234.73 154.61C233.88 154.61 233.39 155.56 233.05 156.19H233.03Z" fill="#1D1D1B"/>
<path d="M56.2401 137.89C55.7801 137.14 56.6501 138.67 56.3701 138.13C56.1201 137.64 55.8601 137.15 55.6201 136.65C55.3101 135.99 55.1101 135.28 54.7901 134.63C54.7901 134.61 55.1601 135.82 54.9801 135.2C54.9501 135.11 54.9201 135.02 54.9001 134.93C54.8501 134.75 54.7901 134.56 54.7401 134.38C54.6801 134.16 54.6301 133.94 54.5701 133.72C54.3301 132.8 54.6501 134.31 54.6401 134.15C54.6301 133.96 54.5801 133.76 54.5601 133.57C54.4001 132.48 54.4501 133.95 54.5701 134.13C54.5001 134.02 54.5701 133.68 54.5701 133.54C54.5201 132.91 54.3601 135.11 54.5501 134.01C54.6801 133.25 54.2701 135.29 54.4501 134.54C54.6601 133.68 54.2201 135 54.3301 134.81C54.4001 134.67 54.5301 134.43 54.5601 134.28C54.6301 133.91 54.3801 134.77 54.3101 134.7C54.3001 134.7 54.5001 134.39 54.5201 134.37C54.6601 134.18 54.8101 134 54.9501 133.81C55.3101 133.35 54.8501 133.86 54.9801 133.76C55.4201 133.44 55.8301 133.11 56.3101 132.85C57.2801 132.33 58.3101 131.87 59.4101 131.88C59.8701 131.88 60.4001 132.08 60.8401 132.18C62.4501 132.55 64.0501 132.98 65.6401 133.42C66.9401 133.78 68.2401 134.16 69.5401 134.55C69.9201 134.66 70.2901 134.78 70.6701 134.89C70.8501 134.94 71.0301 135 71.2101 135.06C70.6001 134.87 71.3701 135.11 71.5201 135.16C72.4401 135.44 73.3601 135.73 74.2801 136.02C79.0701 137.54 83.8301 139.13 88.5801 140.77C95.3901 143.12 102.17 145.57 108.93 148.06C110.92 148.8 112.9 149.69 114.97 150.18L118.71 151.06C125.82 152.74 132.93 154.42 140.03 156.1L140.55 156.22V145.42C135.25 144.88 129.96 144.33 124.66 143.79C120.74 143.39 116.79 142.78 112.85 142.63C101.33 142.19 89.8001 141.75 78.2801 141.31C76.7201 141.25 75.1601 141.33 73.5901 141.22C67.4801 140.8 61.4401 139.38 55.6801 137.35C53.6401 136.63 52.9101 139.63 52.7601 141.12C52.6201 142.49 52.6101 143.95 53.0001 145.28C53.2201 146.03 53.5901 147.47 54.4201 147.76C61.9701 150.43 69.7301 152.1 77.7501 152.09C82.5801 152.09 87.4401 152.46 92.2601 152.65C98.7301 152.9 105.2 153.15 111.66 153.39C115.09 153.52 118.5 153.96 121.92 154.31C128.13 154.95 134.34 155.59 140.56 156.22C141.35 156.3 141.99 155.17 142.24 154.64C142.75 153.52 142.96 152.03 142.94 150.82C142.91 149.06 142.69 145.92 140.56 145.42C133.87 143.84 127.19 142.26 120.5 140.68L115.84 139.58C115.43 139.48 115.01 139.4 114.61 139.29C114.53 139.27 114.45 139.26 114.38 139.23C114.32 139.21 114.89 139.41 114.29 139.16C113.69 138.91 113.06 138.7 112.45 138.48C105.32 135.84 98.1801 133.25 91.0001 130.75C82.6901 127.86 74.3301 125.06 65.8601 122.68C64.2001 122.21 62.5301 121.76 60.8401 121.38C60.1701 121.23 59.6101 121.04 58.9401 121.17C56.3501 121.66 53.8601 122.7 52.2501 124.88C50.3701 127.42 49.7901 130.84 49.8401 133.93C49.9101 138.09 51.0801 142.25 53.1001 145.89C53.3501 146.34 53.6001 146.79 53.8701 147.23C55.1701 149.33 56.8201 146.53 57.1201 145.29C57.7001 142.87 57.6101 140.06 56.2701 137.9L56.2401 137.89Z" fill="#1D1D1B"/>
<path d="M60.04 121.27C59.28 120.81 58.55 120.29 57.84 119.75C57.2 119.26 56.57 118.75 55.97 118.21C55.91 118.16 55.28 117.55 55.76 118.02C55.63 117.89 55.5 117.76 55.37 117.63C54.95 117.19 54.54 116.74 54.17 116.27C53.85 115.87 53.57 115.44 53.27 115.02C53.15 114.85 52.97 114.41 53.33 115.15C53.21 114.9 53.08 114.67 52.97 114.41C52.95 114.37 52.83 113.96 52.77 113.91L52.97 114.5C52.92 114.33 52.87 114.16 52.84 113.99L52.98 114.76C52.94 114.35 52.93 114.41 52.98 114.95C53 115.49 53.01 115.56 53.01 115.14C53.03 115.7 52.96 116.26 52.81 116.8C52.77 116.22 53.16 115.31 53.32 114.76C53.36 114.61 53.78 113.4 53.4 114.42C53.48 114.2 53.56 113.98 53.64 113.77C53.86 113.23 54.15 112.72 54.37 112.18C54.59 111.64 53.88 112.87 54.4 112.16C54.59 111.91 54.75 111.65 54.95 111.4C55.08 111.23 55.23 111.08 55.36 110.92C55.84 110.32 54.89 111.23 55.49 110.79C55.8 110.56 56.09 110.3 56.42 110.09C57.07 109.67 57.98 109.26 58.5 109.14C60.67 108.64 63.05 108.85 65.23 109.16C65.37 109.18 66.5 109.48 66.59 109.38C66.41 109.58 65.63 108.96 66.3 109.36C67.08 109.82 67.94 110.19 68.75 110.6C76.8 114.58 85.11 118.11 93.65 120.91C96.3 121.78 98.98 122.59 101.68 123.28C103.02 123.63 104.37 123.94 105.73 124.23C106.7 124.43 107.76 124.76 108.75 124.8C109.23 124.82 108.2 124.6 108.46 124.71C108.58 124.76 108.72 124.8 108.85 124.84C109.24 124.98 109.63 125.11 110.03 125.25C111.39 125.72 112.77 126.14 114.16 126.53C122.31 128.78 131.24 129.61 139.66 128.85C146.77 128.2 153.94 127.69 161.09 127.76C164.84 127.79 168.4 128.39 172.1 128.86C177.3 129.53 182.52 129.95 187.73 130.56C190.1 130.84 192.47 131.13 194.81 131.58C197.15 132.03 199.51 132.52 201.99 132.37C207.45 132.03 213.53 129.42 217.12 125.18C217.53 124.7 216.76 125.36 217.06 125.25C217.13 125.22 217.2 125.17 217.28 125.15C217.59 125.06 217.89 124.88 218.2 124.76C218.62 124.59 219.05 124.43 219.48 124.29C219.63 124.24 219.78 124.19 219.93 124.14C220.49 123.96 219.36 124.3 219.94 124.14C220.29 124.04 220.64 123.95 220.99 123.86C222.35 123.54 223.74 123.33 225.13 123.33C225.85 123.33 226.58 123.39 227.29 123.52C227.47 123.55 228.53 123.85 227.97 123.66C228.37 123.79 228.75 123.95 229.13 124.14C229.78 124.47 230.36 124.89 230.9 125.37C230.3 124.83 231.14 125.68 231.27 125.85C231.42 126.04 231.54 126.26 231.7 126.45C232.2 127.07 231.4 125.75 231.74 126.51C231.83 126.71 232.4 127.6 232.3 127.81L232.12 127.29C232.18 127.49 232.24 127.69 232.3 127.9C232.35 128.1 232.4 128.34 232.46 128.54C232.57 128.96 232.51 129.61 232.3 127.67C232.33 127.99 232.4 128.31 232.44 128.62C232.5 129.13 232.42 130.45 232.46 128.56C232.45 128.99 232.42 129.51 232.46 129.94C232.3 128.48 232.52 129.17 232.46 129.71C232.46 129.8 232.36 130.32 232.38 130.34L232.51 129.69C232.47 129.91 232.42 130.12 232.36 130.33C232.29 130.62 231.89 131.42 232.33 130.52C232.18 130.83 232.06 131.15 231.92 131.46C232.21 130.86 231.88 131.52 231.78 131.67C231.36 132.29 230.85 132.84 230.37 133.42L228.36 135.81C228.1 136.12 227.83 136.44 227.57 136.75C226.06 138.54 226.1 142.02 226.72 144.14C227.15 145.62 228.4 147.95 229.97 146.08C232.1 143.55 234.58 141.14 235.76 137.99C237.6 133.08 237.79 127.18 236.32 122.13C235.03 117.69 232.5 113.92 227.81 112.81C224.77 112.09 221.59 112.77 218.67 113.7C217.81 113.98 216.92 114.26 216.11 114.67C215.99 114.73 215.85 114.77 215.73 114.85C215.21 115.18 214.73 115.84 214.26 116.26C213.66 116.79 213.04 117.28 212.39 117.74C207.83 120.99 202.25 122.33 196.74 121.17C191.82 120.13 186.83 119.62 181.84 119.11C176.85 118.6 172.05 117.98 167.16 117.3C163.18 116.74 159.08 116.9 155.08 117.04C151.08 117.18 146.87 117.45 142.78 117.78C134.47 118.45 126.16 118.36 117.97 116.64C116.3 116.29 114.65 115.87 113.02 115.39C112.4 115.21 113.54 115.56 112.95 115.37C112.79 115.32 112.62 115.27 112.46 115.22C112.21 115.14 111.97 115.06 111.72 114.98C111.25 114.82 110.79 114.66 110.33 114.5C109.06 114.06 107.82 113.85 106.5 113.59C103.76 113.05 101.06 112.36 98.38 111.58C88.99 108.84 79.88 104.99 71.09 100.71C69.55 99.9602 67.96 98.8602 66.27 98.5302C62.3 97.7702 57.52 97.6302 54.27 100.39C52.37 102 51.07 104.17 50.2 106.48C48.83 110.11 47.89 114.03 48.48 117.92C49.28 123.14 52.53 127.09 56.63 130.2C57.34 130.74 58.07 131.26 58.83 131.72C60.74 132.86 61.63 129.1 61.75 127.95C61.89 126.58 61.9 125.12 61.51 123.79C61.26 122.92 60.92 121.81 60.09 121.31L60.04 121.27Z" fill="#1D1D1B"/>
<path d="M66.59 98.57C65.59 98.31 64.59 98.05 63.59 97.79L61.84 97.33C61.68 97.29 61.52 97.22 61.36 97.2C61.47 97.21 62.19 97.54 61.66 97.25C60.64 96.7 59.51 96.35 58.51 95.78C57.87 95.42 57.28 94.92 56.72 94.46C56.53 94.3 56.34 94.14 56.16 93.98C56.1 93.93 55.66 93.52 55.92 93.76C56.22 94.05 55.58 93.41 55.61 93.44C55.45 93.28 55.3 93.11 55.15 92.94C54.67 92.39 54.25 91.8 53.84 91.2C53.75 91.07 53.67 90.92 53.58 90.78C54.1 91.61 53.76 91.12 53.66 90.89C53.5 90.54 53.34 90.18 53.18 89.83C52.78 88.91 53.43 90.81 53.18 89.85C53.11 89.57 53.07 89.14 52.94 88.87C52.95 88.9 53.12 90.22 53.07 89.5C53.07 89.36 53.03 89.2 53.01 89.06C52.83 87.81 52.98 90.43 53.01 89.17C53.01 89.03 53.01 88.87 53.01 88.73C52.99 87.82 52.89 90.05 52.96 89.39C53 89.06 53.03 88.73 53.07 88.4C53.21 87.26 52.86 89.21 53.03 88.59C53.13 88.22 53.2 87.85 53.3 87.49C53.38 87.21 53.53 86.9 53.56 86.61C53.46 87.58 53.28 87.38 53.45 86.94C53.51 86.8 53.56 86.65 53.61 86.51C53.88 85.82 54.18 85.14 54.5 84.47C54.64 84.19 54.78 83.91 54.93 83.63C55 83.49 55.08 83.35 55.16 83.21C55.53 82.49 54.8 83.78 55.09 83.33C55.49 82.69 55.87 82.04 56.28 81.41C57.04 80.27 57.85 79.17 58.7 78.1C60.23 76.18 61.89 74.37 63.64 72.65C63.74 72.55 64.38 71.93 63.97 72.33C63.56 72.73 64.18 72.13 64.27 72.05C64.58 71.76 64.89 71.48 65.2 71.19C65.64 70.8 66.08 70.41 66.53 70.03C68.27 68.56 69.96 67.06 71.82 65.74C83.17 57.68 96.94 53.45 110.39 50.81C111.94 50.51 113.49 50.22 115.06 49.99C115.27 49.96 115.49 49.94 115.7 49.9C116.88 49.65 118.05 48.39 119.03 47.7C120.19 46.89 121.38 46.12 122.61 45.41C126.09 43.37 130.14 41.56 133.8 40.55C135.94 39.96 138.06 39.68 140.25 39.36C140.35 39.35 140.6 39.39 140.68 39.34C140.68 39.34 139.72 39 140.44 39.26C141.69 39.71 142.95 40.12 144.21 40.53C148.23 41.86 152.29 43.13 156.4 44.17C159.9 45.05 163.39 45.89 166.76 47.18C168.44 47.82 170.1 48.56 171.62 49.52C172.28 49.94 172.9 50.4 173.49 50.91C173 50.49 173.76 51.21 173.88 51.36C173.98 51.48 174.08 51.61 174.18 51.74C174.28 51.87 174.63 52.58 174.38 52.02C174.13 51.46 174.42 52.19 174.48 52.33C174.58 52.56 174.67 52.79 174.76 53.03L175.36 54.52C175.59 55.1 176.26 56.14 177.04 56.1C180.74 55.93 184.59 56.71 188.16 57.58C197.59 59.87 206.86 64.55 214.99 70.24C217.23 71.81 219.46 73.45 221.58 75.17C221.99 75.5 222.39 75.84 222.79 76.19C223.02 76.39 223.25 76.6 223.48 76.8C223.64 76.94 224.57 77.83 223.95 77.23C225.15 78.4 226.3 79.61 227.38 80.89C228.64 82.39 229.81 83.96 230.85 85.62C231.11 86.04 231.37 86.46 231.62 86.89C231.15 86.09 231.66 86.98 231.73 87.1C231.85 87.32 231.97 87.55 232.08 87.78C232.6 88.8 233.07 89.85 233.49 90.92C233.59 91.17 233.68 91.42 233.77 91.67C234.14 92.66 233.61 90.99 233.77 91.65C233.91 92.23 234.12 92.8 234.27 93.38C234.35 93.7 234.78 94.73 234.64 95C234.65 94.98 234.44 93.75 234.58 94.7C234.64 95.15 234.71 95.6 234.76 96.05C234.79 96.28 234.81 96.51 234.83 96.74C234.96 97.97 234.81 95.45 234.83 96.7C234.83 97.29 234.83 97.89 234.84 98.48C234.84 98.62 234.85 98.77 234.86 98.91C234.86 99.35 234.86 99.8 234.86 100.24C234.86 100.53 234.84 100.81 234.83 101.1C234.81 101.54 234.69 102.17 234.88 100.28C234.86 100.5 234.85 100.72 234.83 100.94C234.76 101.75 234.65 102.55 234.54 103.36C234.47 103.84 234.15 104.33 234.62 102.98C234.55 103.19 234.53 103.46 234.48 103.68C234.38 104.16 234.26 104.63 234.13 105.1C234.06 105.34 233.99 105.58 233.92 105.82C233.8 106.2 233.4 106.73 233.97 105.68C233.73 106.11 233.6 106.64 233.4 107.1C233.29 107.35 232.5 108.8 233.07 107.85C232.81 108.29 232.53 108.72 232.23 109.14C231.93 109.56 231.58 109.93 231.25 110.33C230.89 110.76 231.17 110.42 231.27 110.33C231.02 110.57 230.75 110.79 230.48 111.01C229.61 111.68 228.66 112.19 227.64 112.59C226.88 112.88 226.39 114.45 226.22 115.07C225.88 116.35 225.79 117.92 225.98 119.23C226.19 120.67 226.83 123.8 228.9 123C237.31 119.75 239.27 108.79 239.6 100.88C239.96 92.05 237.9 83.54 233.11 76.08C229.97 71.19 225.8 66.95 221.15 63.48C216.5 60.01 211.63 56.57 206.39 53.8C201.81 51.38 197.03 49.39 192.07 47.88C187.11 46.37 182.07 45.1 177.06 45.33L178.74 46.91C178.22 45.62 177.76 44.34 177.05 43.14C176.18 41.68 174.9 40.48 173.51 39.52C170.19 37.22 166.14 36.02 162.3 34.93C158.46 33.84 154.75 33.02 151.02 31.9C147.83 30.94 144.69 29.86 141.54 28.8C140.24 28.37 138.85 28.71 137.52 28.94C133.98 29.56 130.5 30.66 127.2 32.08C124.94 33.05 122.75 34.18 120.65 35.46C119.49 36.17 118.35 36.92 117.24 37.72C116.65 38.14 116.07 38.57 115.5 39.02C114.93 39.47 115.93 39.03 115.69 39.14C115.39 39.27 114.93 39.25 114.61 39.3C113.88 39.42 113.15 39.54 112.43 39.67C106.43 40.75 100.51 42.24 94.7 44.07C87.01 46.49 79.42 49.59 72.63 53.98C69.02 56.32 65.69 59.14 62.58 62.11C58.38 66.11 54.62 70.5 51.83 75.62C48.17 82.33 46.83 91.02 50.1 98.15C51.56 101.35 54.19 104.51 57.28 106.26C59.28 107.39 61.39 108.06 63.59 108.63C64.59 108.89 65.59 109.15 66.59 109.41C67.33 109.6 68.08 108.25 68.27 107.83C68.78 106.71 68.99 105.22 68.97 104.01C68.93 102.2 68.71 99.16 66.59 98.61V98.57Z" fill="#1D1D1B"/>
<path d="M115.32 44.4901C115.32 44.7201 115.31 44.9401 115.3 45.1701C115.3 45.3401 115.28 45.5101 115.27 45.6801C115.27 45.8301 115.29 45.4301 115.27 45.6201C115.27 45.6601 115.27 45.7101 115.27 45.7501C115.27 45.8701 115.26 45.9901 115.25 46.1001C115.18 47.1601 115.11 48.2201 115.03 49.2801C114.87 51.4701 114.71 53.6601 114.54 55.8501C114.5 56.3401 114.46 56.8301 114.43 57.3101C114.41 57.6201 114.38 58.4301 114.83 58.5101C115.91 58.7001 116.99 58.9001 118.07 59.1001C120.71 59.5901 123.35 60.1001 125.99 60.6301C129.25 61.2901 132.5 61.9801 135.74 62.7301C138.69 63.4101 141.65 64.1301 144.55 65.0201C145.12 65.1901 145.68 65.3801 146.24 65.5701C146.5 65.6601 146.76 65.7501 147.01 65.8501C147.22 65.9301 147.45 66.0601 147.67 66.0901C148.05 66.1401 148.47 66.0901 148.85 66.0901H150.86C151.4 66.0901 152.02 66.2001 152.53 65.9801C153.15 65.7201 153.77 65.4501 154.39 65.1901C156.84 64.1601 159.29 63.1401 161.75 62.1501C164.21 61.1601 166.82 60.1201 169.41 59.2801C170.06 59.0701 170.78 58.8301 171.53 58.7401C172.67 58.6001 173.38 57.5101 173.9 56.5901C174.61 55.3301 175.1 53.9501 175.53 52.5701C175.86 51.5101 176.15 50.4401 176.39 49.3601C176.43 49.1901 176.47 49.0201 176.5 48.8501C176.58 48.4501 176.62 47.8901 176.35 47.5501C176.09 47.2201 175.83 47.6301 175.78 47.8901C175.65 48.5201 175.5 49.1401 175.34 49.7701C175.18 50.4001 175 51.0301 174.8 51.6501C174.75 51.8101 174.7 51.9701 174.65 52.1301C174.63 52.1801 174.56 52.4101 174.61 52.2401C174.58 52.3401 174.54 52.4401 174.5 52.5401C174.38 52.8701 174.26 53.2001 174.13 53.5301C174 53.8601 173.86 54.1601 173.72 54.4701C173.65 54.6101 173.58 54.7601 173.51 54.9001C173.47 54.9801 173.43 55.0501 173.39 55.1301C173.39 55.1501 173.32 55.2501 173.36 55.1801C173.4 55.1101 173.33 55.2401 173.32 55.2501C173.16 55.5101 173 55.7601 172.81 55.9901C172.73 56.0901 172.65 56.1901 172.56 56.2801C172.54 56.3001 172.41 56.4201 172.5 56.3401C172.45 56.3801 172.4 56.4301 172.35 56.4701C172.18 56.6101 171.99 56.7301 171.77 56.8001C171.84 56.7801 171.71 56.8201 171.77 56.8001C171.75 56.8001 171.72 56.8101 171.7 56.8201C171.65 56.8201 171.61 56.8401 171.56 56.8401C171.5 56.8401 171.44 56.8501 171.38 56.8601C171.04 56.9101 170.71 57.0001 170.38 57.0901C167.98 57.7601 165.65 58.7001 163.34 59.6101C160.7 60.6401 158.08 61.7201 155.47 62.8201C154.62 63.1801 153.77 63.5401 152.92 63.9001C152.71 63.9901 152.49 64.0801 152.28 64.1701C152.26 64.1801 152.17 64.2001 152.15 64.2201C152.13 64.2601 152.25 64.2101 152.24 64.1901C152.24 64.1901 152.11 64.1901 152.1 64.1901H147.9C147.84 64.1901 147.77 64.1901 147.71 64.1901C147.59 64.1901 147.79 64.2401 147.67 64.1901C147.2 63.9601 146.66 63.8101 146.17 63.6401C143.45 62.7201 140.66 62.0101 137.87 61.3401C134.64 60.5601 131.4 59.8501 128.15 59.1801C125.31 58.5901 122.46 58.0301 119.61 57.4901C118.08 57.2001 116.56 56.9201 115.03 56.6501C114.96 56.6401 114.89 56.6201 114.82 56.6101L115.22 57.8101C115.33 56.4501 115.43 55.1001 115.53 53.7401C115.7 51.4501 115.88 49.1601 116.02 46.8701C116.07 46.0701 116.15 45.2701 116.15 44.4701C116.15 44.2201 116.1 43.5301 115.73 43.5201C115.36 43.5101 115.31 44.2601 115.31 44.4701L115.32 44.4901Z" fill="#1D1D1B"/>
<path d="M72.56 58.16C69.99 60.14 77.67 70.71 78.81 72.54C83.02 79.31 88.18 84.54 89.52 92.49C90.42 97.83 90.6 103.36 92.86 108.37C93.66 110.14 94.96 111.99 97.06 112.37C102.07 113.27 104.4 105.5 109.5 105.5C114.19 113.13 108.85 122.3 107.45 130.9C106.42 137.23 107.67 143.84 110.97 149.52C112.31 151.82 114.61 154.25 117.51 153.91C118.76 153.76 119.85 153.11 120.84 152.42C126.03 148.86 130.09 144.01 132.45 138.57C133.08 137.11 133.61 135.58 134.7 134.35C137.1 131.64 142.17 131.28 145.04 133.6C146.74 134.99 148.4 137.32 150.59 136.66C151.18 136.48 151.66 136.09 152.11 135.7C155.23 132.99 157.87 129.86 159.92 126.44C161.52 123.77 162.77 120.91 164.76 118.46C166.75 116.01 169.7 113.93 173.1 113.75C176.14 113.59 179.02 114.93 182.04 115.21C186.73 115.64 191.57 113.18 193.54 109.38C195.3 105.99 195.22 101.45 198.77 99.45C201.5 97.92 205.07 98.72 208.23 98.15C214.46 97.04 217.91 90.81 218.14 85.17C218.37 79.53 216.35 74 216.08 68.36C215.67 59.93 208.2 58.1 200.51 55.05C194.31 52.59 184.8 48.14 177.76 49.58L176.31 49.31L172.94 56.11L153.65 62.43L147.68 62.84C147.68 62.84 116.9 56.11 115.3 56.31L115.99 44.48C115.99 44.48 85.44 48.36 72.58 58.15L72.56 58.16Z" fill="#1D1D1B"/>
</g>
<defs>
<clipPath id="clip0_3416_10636">
<rect width="291.56" height="196.66" fill="white"/>
</clipPath>
</defs>
</svg>
