<svg width="263" height="248" viewBox="0 0 263 248" fill="none" xmlns="http://www.w3.org/2000/svg">
<g clip-path="url(#clip0_3416_11893)">
<path d="M233.28 113.62L235.61 123.89L236.78 129.03L237.07 130.31L237.22 130.95L237.24 131.03V131.08L237.28 131.18C237.29 131.25 237.32 131.32 237.34 131.39C237.52 131.94 237.83 132.45 238.24 132.86C238.44 133.07 238.67 133.25 238.92 133.41L239.11 133.52L239.3 133.62C239.36 133.65 239.43 133.68 239.5 133.71L239.55 133.73L239.63 133.76L239.78 133.82L242.23 134.8L247.12 136.75L252.01 138.7L260.16 141.91L252.56 146.48L247.95 149.23L243.34 151.98L242.19 152.67L241.61 153.01L241.32 153.18L241.18 153.26L241.07 153.33C240.51 153.68 240.03 154.17 239.68 154.74C239.33 155.31 239.11 155.96 239.04 156.63V156.76L239.02 156.92L239 157.26L238.96 157.93L238.87 159.27L238.52 164.63L238.17 169.99L237.68 177.92C235.63 176.14 233.59 174.36 231.55 172.58L227.37 168.92L224.37 166.29L222.87 164.98L222.12 164.32L221.75 163.99L221.66 163.91L221.58 163.84L221.42 163.71C220.57 163.05 219.47 162.69 218.38 162.74C218.11 162.74 217.83 162.78 217.57 162.84C217.5 162.86 217.45 162.86 217.36 162.89L217.12 162.95L216.64 163.07L214.71 163.56L206.99 165.52L197.71 167.89L200.45 161.46L202.57 156.52L204.69 151.58L205.74 149.12C206.05 148.38 206.18 147.56 206.12 146.75C206.06 145.94 205.8 145.15 205.38 144.46L203.95 142.19L201.08 137.64L195.01 128.02C199.49 128.43 203.97 128.84 208.45 129.25L211.65 129.54L213.25 129.69C213.78 129.73 214.32 129.81 214.84 129.8C215.9 129.8 216.95 129.47 217.84 128.9C218.29 128.61 218.69 128.26 219.05 127.86C219.4 127.46 219.74 127.04 220.08 126.63C222.28 123.99 224.65 121.03 226.67 118.92C228.65 116.85 230.26 115.68 232.04 114.11C230.4 116.58 228.91 119.28 227.1 121.47C225.28 123.66 223.46 125.86 221.64 128.05L220.96 128.87L220.79 129.08L220.55 129.35C220.39 129.53 220.22 129.7 220.04 129.86C219.32 130.51 218.49 131.03 217.59 131.37C217.14 131.54 216.68 131.68 216.2 131.76C215.73 131.85 215.25 131.89 214.77 131.89C214.65 131.89 214.53 131.89 214.41 131.88H214.23L214.07 131.86L213.54 131.81L212.48 131.71C209.65 131.44 206.81 131.17 203.98 130.9C202.6 130.77 201.23 130.63 199.85 130.5C199.6 130.46 199.31 130.41 198.96 130.36C199.07 130.58 199.21 130.83 199.37 131.12C200.07 132.25 200.77 133.37 201.46 134.5L206.03 141.87L206.6 142.79L206.89 143.25L206.96 143.37L207.05 143.51C207.1 143.61 207.17 143.7 207.21 143.8C207.62 144.59 207.89 145.46 207.98 146.35C208.08 147.23 208 148.13 207.76 148.99C207.7 149.2 207.63 149.41 207.55 149.62L207.43 149.92L207.32 150.17L206.88 151.16L203.4 159.1L201.67 163.04L200.63 165.32L202.1 164.98L202.88 164.8L203.4 164.68L204.05 164.52L209.27 163.24L214.49 161.96L217.11 161.32C218.07 161.1 219.08 161.1 220.02 161.34C220.97 161.57 221.85 162.03 222.59 162.67L224.6 164.46L228.61 168.03L236.47 175.03C236.73 171.53 236.99 168.03 237.25 164.53L237.64 159.17C237.71 158.28 237.77 157.38 237.84 156.5C237.93 155.65 238.21 154.82 238.66 154.1C239.11 153.38 239.73 152.77 240.44 152.32C241.19 151.87 241.98 151.42 242.75 150.97L247.39 148.26L252.03 145.55L257.89 142.09L252.38 139.87L248.21 138.17L239.88 134.77L239.36 134.56L239.23 134.51L239.13 134.46C239.06 134.43 238.99 134.4 238.92 134.36C238.65 134.23 238.39 134.06 238.15 133.87C237.67 133.5 237.27 133.03 236.97 132.51C236.82 132.25 236.7 131.97 236.6 131.69C236.55 131.55 236.51 131.4 236.48 131.26C236.46 131.2 236.44 131.1 236.42 131.01L236.36 130.74L235.88 128.54L233.96 119.75C233.46 117.44 233.05 115.18 232.6 112.9L233.29 113.6L233.28 113.62Z" fill="#1D1D1B"/>
<path d="M231.23 116.34C232.49 121.9 233.76 127.45 235.02 133.01C235.56 135.37 236.57 137.91 238.92 138.96C239.99 139.44 241.11 139.83 242.2 140.27C245.13 141.44 248.07 142.61 251 143.78C253.93 144.95 256.69 146.02 259.54 147.14V136.73C254.12 139.99 248.69 143.24 243.25 146.49C242.26 147.08 241.22 147.61 240.29 148.28C237.54 150.23 236.86 153.63 236.66 156.79C236.46 159.95 236.26 162.95 236.06 166.03C235.83 169.52 235.62 173.02 235.4 176.51L238.32 172.74C233.12 168.22 227.94 163.69 222.76 159.15C221.16 157.75 219.24 157.09 217.12 157.59C216.12 157.83 215.13 158.1 214.14 158.35C211.66 158.98 209.19 159.6 206.71 160.23C203.71 161 200.71 161.76 197.71 162.53L199.39 171.75C201.66 166.44 203.93 161.13 206.21 155.82C206.87 154.29 207.63 152.75 208.04 151.13C208.83 148.03 208.7 144.37 207.42 141.41C206.96 140.36 206.28 139.38 205.67 138.41C204.4 136.4 203.13 134.38 201.86 132.37C199.97 129.38 198.09 126.39 196.2 123.41L195 133.47C201.41 134.05 207.82 134.81 214.24 135.23C218.97 135.54 221.54 131 224.2 127.83C225.58 126.18 226.96 124.49 228.51 122.99C229.83 121.71 231.29 120.59 232.67 119.38L230.84 109.51C229.69 111.25 228.64 113.06 227.46 114.78C226.28 116.5 224.84 118.15 223.48 119.8C222.38 121.13 221.28 122.45 220.18 123.78C219.47 124.63 219.08 125.12 218.07 125.7C216.01 126.9 213.76 126.5 211.52 126.28C207.34 125.88 203.1 125.66 198.95 125.02C197.57 124.81 196.92 127.57 196.78 128.34C196.44 130.15 196.4 132.55 197.27 134.24C198.8 137.19 200.72 139.98 202.47 142.81C203.54 144.53 204.58 146.28 205.68 147.98C205.94 148.38 205.6 147.85 205.52 147.69L205.71 148.09C205.63 147.76 205.63 147.75 205.71 148.05L205.77 148.27C205.68 147.96 205.63 147.64 205.63 147.31C205.62 146.99 205.63 146.65 205.69 146.33C205.85 145.52 205.9 145.81 205.79 146.01C205.68 146.21 205.59 146.48 205.49 146.7C205.17 147.42 204.86 148.14 204.54 148.86C203.59 151.02 202.65 153.17 201.7 155.33C200.75 157.49 199.87 159.49 198.93 161.56C198.12 163.33 198.09 165.59 198.44 167.46C198.58 168.24 199.27 171.09 200.61 170.78C205.26 169.71 209.89 168.53 214.53 167.4C216.26 166.98 218.22 166.24 220 166.79C221.54 167.27 222.77 168.67 223.95 169.71C225.55 171.13 227.15 172.56 228.75 173.98L235.83 180.28C236.44 180.82 237.3 180.19 237.66 179.74C238.34 178.89 238.67 177.56 238.75 176.51C239.06 172.32 239.37 168.13 239.68 163.94C239.76 162.86 239.84 161.78 239.92 160.69C239.95 160.23 239.99 159.77 240.02 159.31C240.04 159.01 240.07 158.72 240.09 158.42C240.14 157.44 240.05 158.23 240.04 158.42C240.06 158.13 239.95 158.87 239.86 158.8C239.83 158.77 240.34 158.14 240.41 158.07C240.63 157.84 241.2 157.49 241.65 157.23C245.31 155.07 249 152.94 252.67 150.79C254.62 149.64 256.58 148.49 258.53 147.33C260.01 146.46 260.3 143.61 260.27 142.12C260.25 141.2 260.16 140.29 259.95 139.39C259.8 138.76 259.28 137.21 258.53 136.91C254.32 135.21 250.12 133.5 245.92 131.79C243.7 130.88 241.26 130.14 239.16 128.95C238.54 128.6 239 128.89 238.58 128.47C238.16 128.05 238.4 128.18 238.49 128.44C238.59 128.75 238.42 128.04 238.39 127.91C238.24 127.23 238.09 126.55 237.94 125.87C237.74 124.95 237.54 124.03 237.34 123.11C236.4 118.81 235.5 114.51 234.65 110.19L231.4 117.58L232.09 118.28C233.7 119.9 234.94 118 235.34 116.34C235.66 115 235.78 113.55 235.58 112.18C235.43 111.15 235.25 109.72 234.49 108.95L233.8 108.25C232.63 107.07 231.53 107.65 230.92 109.09C230.05 111.16 230.12 113.47 230.55 115.63C231.33 119.59 232.14 123.54 233.01 127.49C233.6 130.19 233.93 133.43 235.09 135.95C235.99 137.89 237.38 139.24 239.33 140.03C240.51 140.51 241.68 140.99 242.86 141.47C245.13 142.4 247.4 143.33 249.68 144.25C252.21 145.28 254.74 146.3 257.27 147.32V136.91C253.77 138.97 250.27 141.03 246.76 143.08C244.57 144.36 242.36 145.6 240.2 146.92C235.72 149.65 235.56 154.9 235.22 159.6C234.88 164.3 234.53 168.95 234.18 173.62L237.1 169.85C233.23 166.4 229.35 162.95 225.48 159.5C224.63 158.74 223.81 157.92 222.9 157.23C220.69 155.56 218.2 155.68 215.69 156.3C213.44 156.85 211.2 157.4 208.95 157.95C206.18 158.63 203.41 159.32 200.63 159.96L202.31 169.18C204.23 164.97 206.06 160.72 207.91 156.48C208.25 155.7 208.59 154.93 208.93 154.15C210.45 150.65 210.77 146.73 209.92 143.01C209.26 140.15 207.52 137.74 206 135.27L203.34 130.99C203.12 130.63 202.89 130.27 202.67 129.91C202.31 129.34 201.96 128.76 201.6 128.19C201.13 127.43 200.91 127.12 200.63 126.58L198.95 135.8C203.25 136.47 207.66 136.7 211.99 137.11C214.55 137.35 216.99 137.46 219.33 136.09C221.86 134.62 223.76 131.65 225.57 129.46C226.94 127.81 228.37 126.2 229.61 124.44C230.85 122.68 232.02 120.67 233.25 118.81C234.48 116.95 234.63 114.27 234.22 112.07C234.06 111.23 232.96 107.6 231.42 108.94C228.33 111.64 225.36 114.29 222.7 117.43C221.25 119.15 219.83 120.89 218.39 122.62C217.17 124.08 215.77 124.53 213.87 124.37C207.59 123.83 201.31 123.22 195.03 122.65C193.46 122.51 192.84 125.64 192.74 126.61C192.53 128.68 192.7 130.91 193.83 132.71C196.75 137.34 199.67 141.96 202.59 146.59C202.82 146.96 203.06 147.34 203.29 147.71C203.52 148.08 203.75 148.46 203.99 148.82C203.99 148.82 204.17 149.12 204.18 149.11C203.86 148.52 203.83 148.49 204.08 149.01C203.83 148.43 203.73 147.82 203.78 147.17C203.78 147.07 203.85 145.72 204.08 145.33C204.05 145.39 204.03 145.46 204 145.52C203.83 145.89 203.68 146.28 203.51 146.66C203.31 147.14 203.1 147.61 202.9 148.09C201.77 150.72 200.65 153.34 199.52 155.96C198.39 158.58 197.21 161.37 196.05 164.08C195.28 165.9 195.2 168.07 195.56 169.98C195.7 170.73 196.4 173.64 197.73 173.3C202.87 171.99 208 170.68 213.14 169.37C214.21 169.1 215.28 168.83 216.36 168.55C218.13 168.1 219.59 167.9 221.1 169.15C223.02 170.75 224.87 172.45 226.75 174.1C230.19 177.11 233.63 180.11 237.08 183.11C237.69 183.64 238.55 183.02 238.91 182.57C239.58 181.72 239.94 180.38 240 179.34C240.38 173.2 240.78 167.06 241.18 160.91C241.22 160.37 241.25 159.83 241.29 159.28C241.31 158.98 241.34 158.69 241.35 158.39C241.38 157.55 241.16 158.97 241.18 158.98C241.12 158.92 243.78 157.31 244.12 157.11C246.93 155.43 249.75 153.76 252.56 152.08C255.37 150.4 258.08 148.76 260.84 147.1C262.32 146.21 262.61 143.39 262.58 141.89C262.56 140.97 262.47 140.06 262.26 139.16C262.11 138.54 261.59 136.97 260.84 136.68C255.67 134.64 250.51 132.6 245.35 130.54C244.05 130.02 242.75 129.5 241.45 128.99C240.93 128.78 240.37 128.6 239.88 128.34C239.75 128.27 238.93 127.73 239.04 127.63C239.11 127.57 239.45 128.9 239.3 128.14C238.82 125.68 238.19 123.23 237.63 120.79C236.88 117.48 236.13 114.17 235.37 110.86C235.04 109.39 233.59 107.08 232.12 108.92C230.65 110.76 230.77 114.12 231.27 116.31L231.23 116.34Z" fill="#1D1D1B"/>
<path d="M53.8099 8.89023L52.6499 19.3602L52.0699 24.6002L51.9299 25.9102L51.8599 26.5602V26.6402L51.8499 26.6902V26.8002C51.8299 26.8702 51.8399 26.9402 51.8299 27.0202C51.8299 27.6002 51.9499 28.1802 52.1999 28.7102C52.3199 28.9702 52.4799 29.2202 52.6599 29.4502L52.7999 29.6202L52.9499 29.7802C52.9999 29.8302 53.0599 29.8802 53.1099 29.9302L53.1499 29.9702L53.2099 30.0202L53.3299 30.1302L55.3199 31.8502L59.3099 35.2902L63.2899 38.7302L69.9399 44.4302L61.2599 46.2602L55.9999 47.3502L50.7399 48.4402L49.4199 48.7102L48.7599 48.8502L48.4299 48.9202L48.2699 48.9502L48.1499 48.9802C47.4999 49.1302 46.8899 49.4302 46.3699 49.8502C45.8499 50.2702 45.4299 50.8202 45.1499 51.4302L45.0999 51.5402L45.0399 51.6902L44.9099 52.0002L44.6499 52.6202L44.1299 53.8602L42.0399 58.8102L39.9499 63.7602L36.8899 71.0902C35.5399 68.7402 34.1899 66.3902 32.8399 64.0402L30.0899 59.2102L28.1199 55.7502L27.1299 54.0202L26.6399 53.1502L26.3899 52.7202L26.3299 52.6102L26.2799 52.5202L26.1699 52.3502C25.5799 51.4402 24.6599 50.7502 23.6099 50.4402C23.3499 50.3602 23.0799 50.3002 22.8099 50.2702C22.7399 50.2702 22.6799 50.2502 22.5999 50.2502L22.3499 50.2302L21.8499 50.1902L19.8699 50.0202L11.9299 49.3402L2.38989 48.5402L7.07989 43.3602L10.6999 39.3902L14.3199 35.4202L16.1199 33.4402C16.6599 32.8402 17.0499 32.1102 17.2499 31.3302C17.4599 30.5502 17.4699 29.7102 17.2999 28.9202L16.6899 26.3102L15.4699 21.0802L12.8799 10.0002C16.9799 11.8502 21.0799 13.7102 25.1799 15.5602L28.1099 16.8902L29.5699 17.5502C30.0599 17.7602 30.5399 18.0102 31.0399 18.1802C32.0399 18.5202 33.1399 18.5602 34.1699 18.3202C34.6899 18.2002 35.1799 18.0002 35.6499 17.7302C36.1099 17.4602 36.5699 17.1802 37.0299 16.9002C39.9699 15.1302 43.1899 13.1102 45.7799 11.7702C48.3299 10.4602 50.2399 9.88023 52.4299 8.98023C50.0699 10.7702 47.7799 12.8402 45.3499 14.3202C42.9099 15.8002 40.4699 17.2702 38.0399 18.7502L37.1299 19.3002L36.8999 19.4402L36.5799 19.6202C36.3699 19.7302 36.1499 19.8402 35.9299 19.9402C35.0399 20.3202 34.0799 20.5402 33.1199 20.5602C32.6399 20.5802 32.1599 20.5502 31.6799 20.4702C31.1999 20.4002 30.7299 20.2802 30.2799 20.1202C30.1699 20.0802 30.0499 20.0402 29.9399 19.9902L29.7699 19.9202L29.6199 19.8502L29.1299 19.6302L28.1599 19.1902C25.5699 18.0102 22.9799 16.8302 20.3999 15.6402C19.1399 15.0602 17.8799 14.4902 16.6299 13.9102C16.4099 13.7902 16.1499 13.6502 15.8399 13.4802C15.8699 13.7202 15.9199 14.0002 15.9699 14.3402C16.2599 15.6302 16.5499 16.9302 16.8399 18.2202L18.7499 26.6802L18.9899 27.7402L19.1099 28.2702L19.1399 28.4102L19.1699 28.5702C19.1899 28.6802 19.2199 28.7902 19.2299 28.9002C19.3599 29.7802 19.3299 30.6902 19.1299 31.5602C18.9299 32.4302 18.5599 33.2502 18.0599 33.9802C17.9299 34.1602 17.7999 34.3402 17.6599 34.5002L17.4499 34.7402L17.2699 34.9402L16.5299 35.7402L10.6399 42.1002L7.71989 45.2602L5.99989 47.0702L7.49989 47.2302L8.29989 47.3102L8.82989 47.3602L9.49989 47.4202L14.8499 47.9202L20.1999 48.4202L22.8799 48.6702C23.8599 48.7702 24.8099 49.1102 25.6299 49.6402C26.4499 50.1702 27.1399 50.9002 27.6199 51.7402L28.9399 54.0902L31.5599 58.7802L36.6899 67.9702C38.0799 64.7502 39.4699 61.5302 40.8599 58.3002L42.9899 53.3702C43.3499 52.5502 43.6999 51.7202 44.0599 50.9102C44.4199 50.1302 44.9599 49.4402 45.6199 48.9102C46.2799 48.3802 47.0599 48.0002 47.8899 47.8102C48.7499 47.6302 49.6399 47.4602 50.5099 47.2902L55.7799 46.2502L61.0499 45.2102L67.7199 43.8602L63.2399 39.9602L59.8599 36.9902L53.0999 31.0502L52.6799 30.6802L52.5799 30.5902L52.4999 30.5102C52.4499 30.4602 52.3899 30.4102 52.3399 30.3502C52.1199 30.1302 51.9399 29.8902 51.7699 29.6402C51.4299 29.1302 51.2099 28.5602 51.0999 27.9702C51.0499 27.6702 51.0199 27.3702 51.0199 27.0702C51.0199 26.9202 51.0199 26.7702 51.0499 26.6202C51.0499 26.5502 51.0699 26.4602 51.0799 26.3602L51.1099 26.0802L51.3799 23.8502L52.4399 14.9102C52.7199 12.5702 53.0799 10.2902 53.3999 7.99023L53.8199 8.88023L53.8099 8.89023Z" fill="#1D1D1B"/>
<path d="M51.52 7.45032C50.89 13.1203 50.27 18.7903 49.64 24.4703C49.22 28.2303 49.52 32.4403 52.47 35.1303C53.31 35.9003 54.19 36.6203 55.06 37.3703C57.47 39.4503 59.88 41.5403 62.29 43.6203C64.7 45.7003 66.97 47.6303 69.31 49.6403L69.94 39.0303C63.75 40.3403 57.55 41.6303 51.35 42.9103C50.29 43.1303 49.21 43.3103 48.16 43.5803C45.24 44.3103 43.92 46.5603 42.84 49.1303C41.64 51.9903 40.43 54.8403 39.23 57.6903C37.89 60.8803 36.56 64.0703 35.22 67.2703L38.1 66.4303C35.86 62.5303 33.63 58.6403 31.4 54.7303C30.78 53.6403 30.16 52.5603 29.54 51.4703C29.3 51.0503 29.06 50.6303 28.83 50.2203C28.62 49.8603 27.86 48.5203 28.78 50.1403C28.47 49.5903 28.16 49.0403 27.84 48.4903C27.67 48.1803 27.31 47.5503 28.04 48.8503C27.86 48.5403 27.69 48.2103 27.5 47.9103C27.26 47.5303 26.99 47.1903 26.67 46.8603C25.5 45.6603 24.14 45.0103 22.47 44.8303C21.45 44.7203 20.43 44.6603 19.41 44.5703C16.85 44.3503 14.29 44.1303 11.73 43.9203C8.62001 43.6603 5.50001 43.4003 2.39001 43.1403L3.59001 53.2003C7.46001 48.9403 11.33 44.6803 15.21 40.4303C16.13 39.4203 17.19 38.4503 17.92 37.2903C20.34 33.3803 19.98 28.8303 18.98 24.5503C18.44 22.2103 17.89 19.8703 17.35 17.5303C16.55 14.1103 15.75 10.6903 14.95 7.28032L12.27 15.2103C18.13 17.8603 23.95 20.6703 29.88 23.1703C32.04 24.0803 34.23 24.0503 36.31 22.9403C38.26 21.9003 40.1 20.6403 42 19.5003C43.9 18.3603 45.71 17.2903 47.66 16.3903C49.43 15.5703 51.28 14.9303 53.08 14.2003L51.82 3.79032C50.16 5.06032 48.58 6.42032 46.9 7.66032C45.22 8.90032 43.32 9.99032 41.49 11.1003C40.02 11.9903 38.54 12.8903 37.07 13.7803C36.21 14.3003 35.36 14.8403 34.37 15.0403C31.92 15.5403 30.08 14.5803 27.96 13.6203C24.14 11.8803 20.2 10.2803 16.5 8.31032C13.64 6.79032 13.39 13.6803 13.58 14.9503C14.08 18.3903 15.01 21.8103 15.78 25.2003C16.22 27.1503 16.6 29.1203 17.1 31.0503C17.12 31.1103 17.12 31.1803 17.14 31.2403C16.99 30.8103 16.95 30.2603 16.97 29.8203C16.97 29.9203 17.25 28.3903 17.06 29.0503C16.91 29.6003 17.61 28.3903 16.98 29.2103C17.32 28.7703 16.61 29.7203 16.49 29.8703C16.33 30.0603 16.17 30.2303 16 30.4103C15.45 31.0103 14.89 31.6003 14.34 32.2003C12.72 33.9503 11.1 35.7103 9.47001 37.4603C7.84001 39.2103 6.38001 40.7903 4.82001 42.4403C3.55001 43.7803 3.48001 46.8503 3.73001 48.5403C3.92001 49.8603 4.35001 52.3203 6.02001 52.5003C10.76 53.0103 15.5 53.4203 20.25 53.8603C22.03 54.0303 23.82 53.9803 25.32 55.1003C25.46 55.2003 26.3 55.8303 26.25 56.1303C26.28 55.9603 25.82 55.3503 26.07 55.7903C26.16 55.9503 26.25 56.1103 26.34 56.2703C26.65 56.8303 26.97 57.3903 27.28 57.9503C28.34 59.8403 29.4 61.7303 30.45 63.6203C31.98 66.3603 33.51 69.0903 35.03 71.8303C35.37 72.4403 35.85 73.4103 36.71 73.4103C37.57 73.4103 38.11 72.4703 38.39 71.8303C40.06 67.9703 41.72 64.1103 43.39 60.2503C43.82 59.2503 44.25 58.2403 44.69 57.2403C44.87 56.8203 45.05 56.4103 45.23 55.9903C45.35 55.7203 45.48 55.4503 45.59 55.1703C46.04 53.9803 45.39 55.3303 45.74 54.8203C46.34 53.9503 47.2 53.4103 48.35 53.1703C52.58 52.2603 56.84 51.5003 61.09 50.6503C63.31 50.2003 65.53 49.7503 67.76 49.3003C69.65 48.9203 70 46.1603 70.09 44.6203C70.21 42.6003 70.01 40.1103 68.39 38.7003C65.03 35.7703 61.68 32.8303 58.33 29.8903L54.73 26.7203C54.43 26.4503 54.12 26.1903 53.82 25.9203C53.69 25.8003 53.56 25.6803 53.42 25.5703C52.81 25.0503 53.98 26.4303 53.27 25.3803L53.14 25.1903C52.96 24.9403 52.96 24.9403 53.14 25.2103L53.27 25.6203C53.43 26.3503 53.47 27.0903 53.4 27.8303C53.46 27.6903 53.45 27.4403 53.46 27.2903C53.54 26.6303 53.62 25.9803 53.7 25.3203C53.82 24.3203 53.94 23.3203 54.06 22.3203C54.57 18.0303 55.12 13.7503 55.72 9.46032L51.75 11.8403L52.17 12.7303C52.47 13.3503 53.02 14.3103 53.85 14.3103C54.68 14.3103 55.27 13.3503 55.53 12.7303C56.46 10.5203 56.59 7.30032 55.53 5.09032L55.11 4.20032C54.69 3.32032 53.92 2.19032 52.8 2.81032C51.62 3.47032 51.3 5.41032 51.14 6.58032C50.57 10.6203 50.05 14.6603 49.56 18.7103C49.16 22.0403 48.41 25.6403 48.78 28.9803C49.11 31.9503 50.3 34.3403 52.52 36.2903C53.43 37.0903 54.34 37.8903 55.25 38.6903C57.09 40.3103 58.94 41.9303 60.78 43.5503C62.89 45.4103 65.01 47.2503 67.13 49.1003L67.76 38.4903C63.78 39.2903 59.8 40.0903 55.82 40.8803C53.48 41.3403 51.14 41.8003 48.79 42.2703C47.45 42.5403 46.12 42.8703 45.03 43.7403C43.81 44.7103 42.97 45.9303 42.33 47.3303C41.73 48.6303 41.19 49.9603 40.62 51.2803C38.76 55.5803 36.91 59.8803 35.05 64.1903H38.41C35.86 59.6303 33.31 55.0603 30.76 50.5003C30.02 49.1803 29.36 47.7203 28.46 46.5103C26.77 44.2503 24.38 43.4503 21.7 43.2003C19.36 42.9803 17.01 42.7603 14.67 42.5403C11.79 42.2703 8.91001 42.0103 6.04001 41.7003L7.24001 51.7603C10.43 48.4103 13.55 44.9903 16.69 41.6003C17.26 40.9803 17.84 40.3603 18.41 39.7403C20.38 37.6003 21.35 34.7903 21.63 31.9303C21.97 28.4203 21.1 25.1103 20.34 21.7303L19.23 16.8103C19.14 16.4003 19.04 15.9803 18.95 15.5703C18.8 14.9103 18.65 14.2503 18.51 13.6003C18.44 13.2803 18.37 12.9503 18.29 12.6303C17.97 11.3703 18.36 13.3603 18.18 12.0903L15.26 18.7303C19.11 20.7703 23.19 22.4303 27.16 24.2403C29.47 25.2903 31.78 26.3603 34.4 25.8503C37.32 25.2803 39.9 23.2703 42.38 21.7703C44.21 20.6603 46.1 19.6003 47.84 18.3503C49.58 17.1003 51.35 15.5803 53.12 14.2203C54.89 12.8603 55.08 9.64032 54.78 7.58032C54.57 6.17032 53.92 2.97032 51.86 3.81032C50.05 4.54032 48.21 5.18032 46.44 6.00032C44.67 6.82032 42.89 7.86032 41.17 8.88032C39.45 9.90032 37.58 11.0603 35.78 12.1403C33.98 13.2203 32.41 13.3303 30.46 12.4503C24.84 9.90032 19.21 7.36032 13.59 4.82032C12.24 4.21032 11.46 5.66032 11.09 6.76032C10.44 8.67032 10.45 10.8103 10.9 12.7603C12.15 18.1303 13.41 23.4903 14.66 28.8603C14.75 29.2503 14.84 29.6403 14.93 30.0403C15.03 30.4703 15.12 30.9003 15.23 31.3203C15.26 31.4303 15.27 31.5503 15.31 31.6603C15.1 30.8303 15.05 29.9903 15.17 29.1403C15.21 28.8603 15.27 28.5803 15.37 28.3203L15.47 28.1903C15.32 28.4203 15.16 28.6303 14.98 28.8303C14.93 28.8903 14.88 28.9403 14.83 28.9903C14.56 29.3003 14.28 29.6003 14 29.9003C13.68 30.2503 13.35 30.6103 13.03 30.9603C11.08 33.1003 9.13001 35.2403 7.18001 37.3803C5.23001 39.5203 3.22001 41.7403 1.24001 43.9203C-0.049988 45.2703 -0.139988 48.2603 0.110012 49.9803C0.300012 51.2703 0.730012 53.8103 2.40001 53.9403C7.68001 54.3803 12.97 54.8203 18.25 55.2703C19.35 55.3603 20.45 55.4603 21.56 55.5503C22.14 55.6003 22.79 55.5803 23.34 55.7603C23.72 55.8803 24.42 56.3203 24.55 56.4403C24.97 56.8503 25.55 57.9203 24.73 56.5403C24.92 56.8603 25.09 57.1803 25.27 57.5003C25.72 58.3003 24.71 56.5103 25.1 57.2003C25.39 57.7103 25.68 58.2103 25.97 58.7203C26.29 59.2903 26.61 59.8503 26.94 60.4203C27.59 61.5703 28.25 62.7203 28.9 63.8603C31.16 67.8303 33.44 71.8003 35.71 75.7603C36.61 77.3303 38.13 76.0103 38.59 74.9203C40.97 69.2303 43.36 63.5403 45.75 57.8503C45.95 57.3603 46.16 56.8803 46.36 56.3903C46.48 56.1003 46.59 55.8103 46.72 55.5303C46.75 55.4603 46.78 55.3903 46.81 55.3203C46.75 55.4403 46.78 55.2503 47.01 55.0703C48.09 54.2003 49.51 54.1003 50.83 53.8303C54.02 53.1703 57.2 52.5103 60.39 51.8503C63.58 51.1903 66.75 50.5103 69.94 49.8403C71.83 49.4403 72.18 46.7203 72.27 45.1603C72.39 43.1603 72.2 40.6303 70.57 39.2403C66.41 35.6803 62.27 32.1103 58.12 28.5303C57.06 27.6203 56 26.7003 54.94 25.7903C54.65 25.5403 54.14 24.8803 53.76 24.7703C53.52 24.7003 54.22 25.2903 53.98 24.9703C53.96 24.9403 53.75 24.6603 53.86 24.9003C54.18 25.5803 54.24 27.4403 54.12 28.1403C54.14 27.9903 54.15 27.8303 54.17 27.6803C54.43 25.2403 54.71 22.8003 54.98 20.3603C55.35 17.0203 55.72 13.6803 56.09 10.3403C56.24 8.99032 56.2 7.50032 55.85 6.18032C55.64 5.41032 55.21 4.14032 54.43 3.70032C52.48 2.60032 51.63 6.38032 51.51 7.47032L51.52 7.45032Z" fill="#1D1D1B"/>
<path d="M209.36 6.26014L208.67 16.7701L208.33 22.0301L208.24 23.3401L208.2 24.0001V24.0801V24.1301V24.2401C208.19 24.3101 208.2 24.3801 208.2 24.4601C208.22 25.0401 208.37 25.6101 208.64 26.1301C208.78 26.3901 208.94 26.6301 209.13 26.8501L209.28 27.0101L209.44 27.1601C209.49 27.2101 209.55 27.2501 209.61 27.3001L209.65 27.3401L209.71 27.3901L209.84 27.4901L211.91 29.1201L216.05 32.3801L220.19 35.6401L227.09 41.0401L218.5 43.2601L213.29 44.5801L208.08 45.9001L206.78 46.2301L206.13 46.4001L205.8 46.4801L205.64 46.5201L205.52 46.5501C204.88 46.7301 204.28 47.0601 203.78 47.5001C203.28 47.9501 202.89 48.5101 202.63 49.1301L202.58 49.2501L202.52 49.4001L202.4 49.7201L202.17 50.3501L201.7 51.6101L199.84 56.6501L197.98 61.6901L195.25 69.1501C193.8 66.8601 192.34 64.5801 190.89 62.2901L187.92 57.5901L185.79 54.2201L184.73 52.5401L184.2 51.7001L183.93 51.2801L183.86 51.1701L183.8 51.0801L183.69 50.9101C183.06 50.0301 182.11 49.3801 181.05 49.1101C180.79 49.0401 180.52 49.0001 180.24 48.9801C180.17 48.9801 180.11 48.9701 180.03 48.9701H179.78L179.28 48.9401L177.29 48.8601L169.33 48.5401L159.76 48.1701L164.22 42.7901L167.66 38.6601L171.1 34.5301L172.81 32.4701C173.32 31.8501 173.68 31.1001 173.85 30.3101C174.02 29.5201 174 28.6901 173.79 27.9001L173.07 25.3201L171.62 20.1501L168.54 9.20014C172.72 10.8701 176.9 12.5301 181.07 14.2001L184.06 15.3901L185.55 15.9901C186.05 16.1801 186.54 16.4101 187.04 16.5501C188.05 16.8501 189.15 16.8301 190.17 16.5501C190.68 16.4001 191.17 16.1801 191.62 15.9001C192.07 15.6101 192.51 15.3101 192.96 15.0101C195.81 13.1101 198.94 10.9401 201.47 9.50014C203.95 8.08014 205.84 7.41014 207.99 6.42014C205.72 8.32014 203.52 10.4801 201.16 12.0701C198.79 13.6601 196.42 15.2401 194.05 16.8201L193.16 17.4101L192.93 17.5601L192.62 17.7501C192.41 17.8701 192.2 17.9901 191.98 18.0901C191.11 18.5101 190.16 18.7701 189.2 18.8401C188.72 18.8801 188.24 18.8701 187.76 18.8201C187.28 18.7701 186.81 18.6801 186.35 18.5301C186.23 18.5001 186.12 18.4601 186.01 18.4201L185.84 18.3601L185.69 18.3001L185.19 18.1001L184.2 17.7001C181.56 16.6301 178.92 15.5701 176.28 14.5101C175 13.9901 173.71 13.4701 172.43 12.9501C172.2 12.8401 171.94 12.7101 171.62 12.5601C171.66 12.8001 171.72 13.0801 171.79 13.4101C172.14 14.6901 172.49 15.9701 172.84 17.2501L175.12 25.6101L175.41 26.6601L175.55 27.1801L175.59 27.3201L175.63 27.4801C175.65 27.5901 175.69 27.7001 175.7 27.8101C175.87 28.6901 175.88 29.6001 175.71 30.4701C175.55 31.3501 175.22 32.1901 174.75 32.9301C174.63 33.1201 174.51 33.3001 174.37 33.4701L174.17 33.7201L174 33.9301L173.3 34.7601L167.71 41.3801L164.93 44.6701L163.29 46.5601L164.8 46.6501L165.6 46.7001L166.13 46.7301L166.8 46.7601L172.17 47.0201L177.54 47.2801L180.23 47.4101C181.21 47.4701 182.18 47.7601 183.02 48.2601C183.86 48.7501 184.58 49.4501 185.1 50.2601L186.52 52.5501L189.35 57.1201L194.89 66.0701C196.13 62.7901 197.38 59.5101 198.62 56.2301L200.52 51.2101C200.84 50.3801 201.15 49.5301 201.47 48.7101C201.8 47.9201 202.31 47.2101 202.94 46.6401C203.58 46.0801 204.34 45.6701 205.15 45.4401C206 45.2201 206.88 45.0101 207.75 44.8001L212.97 43.5201L218.19 42.2401L224.8 40.5901L220.15 36.8901L216.64 34.0701L209.62 28.4401L209.18 28.0901L209.07 28.0001L208.98 27.9201C208.92 27.8701 208.86 27.8201 208.81 27.7701C208.58 27.5601 208.39 27.3301 208.21 27.0801C207.85 26.5901 207.61 26.0201 207.46 25.4401C207.39 25.1501 207.35 24.8501 207.34 24.5501C207.34 24.4001 207.34 24.2501 207.34 24.1001C207.34 24.0301 207.34 23.9301 207.36 23.8401L207.38 23.5601L207.55 21.3201L208.21 12.3501C208.38 10.0001 208.64 7.71014 208.85 5.39014L209.31 6.26014H209.36Z" fill="#1D1D1B"/>
<path d="M207.07 4.82015C206.7 10.5101 206.33 16.2101 205.96 21.9001C205.71 25.6801 205.88 29.8601 208.97 32.5101C209.84 33.2501 210.76 33.9301 211.66 34.6301C214.16 36.6001 216.67 38.5801 219.17 40.5501C221.67 42.5201 224.03 44.3501 226.46 46.2501L227.09 35.6401C220.96 37.2301 214.83 38.8001 208.7 40.3601C207.65 40.6301 206.59 40.8701 205.54 41.1701C202.66 41.9801 201.37 44.2601 200.4 46.8801C199.33 49.7901 198.25 52.6901 197.18 55.6001C195.98 58.8501 194.8 62.1001 193.61 65.3501L196.49 64.5101C192.79 58.7001 189.11 52.8801 185.44 47.0501C184.17 45.0401 182.39 43.7301 179.95 43.5801C178.93 43.5201 177.9 43.5001 176.88 43.4601C174.31 43.3601 171.75 43.2501 169.18 43.1501C166.06 43.0301 162.93 42.9101 159.81 42.7901L161.01 52.8501C164.68 48.4201 168.36 43.9901 172.04 39.5701C172.98 38.4401 174.01 37.3501 174.75 36.0701C176.96 32.2201 176.58 27.6801 175.43 23.5701C174.78 21.2601 174.13 18.9401 173.48 16.6301C172.53 13.2501 171.58 9.87015 170.63 6.49015L167.95 14.4201C173.92 16.8001 179.86 19.3501 185.9 21.5801C188.09 22.3901 190.27 22.3301 192.31 21.1201C194.21 19.9901 196 18.6501 197.84 17.4301C199.68 16.2101 201.45 15.0601 203.36 14.0601C205.09 13.1601 206.91 12.4401 208.68 11.6301L207.42 1.22015C205.82 2.56015 204.3 3.99015 202.68 5.31015C201.14 6.56015 199.47 7.62015 197.83 8.72015C196.19 9.82015 194.7 10.8101 193.14 11.8601C192.33 12.4001 191.53 12.9701 190.58 13.2501C188.11 13.9801 186.02 12.9701 183.8 12.0801C179.98 10.5401 176.05 9.15015 172.33 7.38015C170.99 6.75015 170.2 8.25015 169.83 9.32015C169.17 11.2701 169.26 13.3201 169.64 15.3201C170.22 18.3401 171.22 21.3401 172.03 24.3101C172.55 26.2001 172.99 28.1401 173.59 30.0101C173.73 30.4601 173.58 29.9301 173.56 29.7201C173.51 29.2701 173.58 28.8601 173.61 28.4201C173.63 28.0901 174.03 27.6401 173.57 28.3701C173.48 28.5201 172.97 29.1901 172.66 29.5501C172.15 30.1501 171.65 30.7501 171.14 31.3501C169.62 33.1501 168.1 34.9501 166.58 36.7501C165.06 38.5501 163.65 40.2201 162.16 41.9301C160.92 43.3601 160.81 46.2701 161.07 48.0301C161.25 49.2901 161.7 51.8901 163.36 51.9901C168.13 52.2901 172.9 52.4801 177.67 52.7101C179.43 52.7901 181.24 52.6701 182.76 53.6901C183.87 54.4301 184.61 56.0001 185.39 57.2401C186.52 59.0601 187.65 60.8801 188.77 62.7001C190.43 65.3901 192.1 68.0701 193.76 70.7601C194.68 72.2501 196.19 71.0901 196.64 69.9201C198.13 65.9901 199.62 62.0601 201.11 58.1301C201.5 57.1101 201.88 56.0901 202.27 55.0701C202.58 54.2501 203.08 52.7401 203.32 52.3201C203.08 52.7301 203.74 51.8101 203.71 51.8401C203.67 51.8801 202.83 52.5301 203.98 51.6001C204.48 51.2001 205.06 50.9401 205.66 50.7601C209.78 49.5201 214.09 48.7001 218.27 47.6701C220.47 47.1301 222.67 46.5701 224.87 46.0201C226.76 45.5501 227.11 42.9601 227.2 41.3401C227.31 39.4001 227.15 36.7301 225.5 35.4201C221.98 32.6201 218.47 29.8101 214.96 27.0001L211.18 23.9601C210.9 23.7401 210.63 23.5201 210.35 23.2901C210.2 23.1701 209.47 22.4901 209.87 22.9301L209.67 22.7001C209.45 22.3801 209.43 22.3801 209.59 22.6801L209.44 22.3501L209.75 23.6001C210.15 25.8801 209.69 25.7401 209.76 24.9101C209.82 24.2101 209.86 23.5101 209.92 22.8101C209.99 21.8001 210.07 20.7901 210.14 19.7801C210.46 15.4701 210.82 11.1701 211.22 6.86015L207.25 9.24015L207.71 10.1101C208.04 10.7201 208.53 11.6901 209.39 11.6901C210.2 11.6901 210.81 10.7301 211.07 10.1101C211.96 7.99015 212.2 4.59015 211.07 2.47015L210.61 1.60015C210.15 0.750146 209.44 -0.429854 208.3 0.210146C207.16 0.850146 206.75 2.83015 206.64 3.98015C206.26 8.04015 205.91 12.1001 205.61 16.1701C205.36 19.5101 204.77 23.1501 205.16 26.4601C205.51 29.4501 206.75 31.8201 209.06 33.6801C209.94 34.3901 210.83 35.1001 211.71 35.8101C213.69 37.4001 215.66 38.9801 217.64 40.5701C219.83 42.3301 222.03 44.0801 224.23 45.8301L224.86 35.2201C220.92 36.2001 216.98 37.1801 213.04 38.1501C210.72 38.7201 208.4 39.2801 206.08 39.8601C204.73 40.1901 203.45 40.5501 202.38 41.4601C201.21 42.4601 200.36 43.7001 199.78 45.1201C199.24 46.4501 198.76 47.8001 198.25 49.1401C196.59 53.5201 194.93 57.9001 193.27 62.2801L196.15 61.4401C193.4 57.0001 190.65 52.5501 187.89 48.1101C187.26 47.0901 186.69 45.9801 185.93 45.0501C184.13 42.8501 181.79 42.1201 179.06 41.9901C176.67 41.8701 174.28 41.7601 171.89 41.6501C169.04 41.5101 166.19 41.3801 163.35 41.2101L164.55 51.2701C167.58 47.7801 170.55 44.2301 173.53 40.6901C174.08 40.0401 174.63 39.4001 175.17 38.7501C177.34 36.1601 178.26 32.7601 178.27 29.4101C178.27 26.3001 177.37 23.4301 176.57 20.4801C175.62 16.9901 174.42 13.4401 173.74 9.88015L171.06 17.8101C174.85 19.6101 178.86 21.0301 182.75 22.6001C185.32 23.6401 187.84 24.7801 190.69 24.0401C193.54 23.3001 196.05 21.1801 198.49 19.5501C200.27 18.3601 202.09 17.2201 203.76 15.8801C205.43 14.5401 207.02 13.0401 208.68 11.6501C210.44 10.1701 210.65 7.14015 210.34 5.01015C210.15 3.68015 209.45 0.310146 207.42 1.24015C205.65 2.05015 203.83 2.77015 202.1 3.67015C200.37 4.57015 198.63 5.68015 196.96 6.79015C195.29 7.90015 193.48 9.13015 191.73 10.2901C189.98 11.4501 188.43 11.7001 186.43 10.9001C180.7 8.61015 174.96 6.32015 169.23 4.04015C167.86 3.49015 167.12 4.82015 166.73 5.98015C166.1 7.83015 166.01 10.0901 166.54 11.9801C168.03 17.2801 169.53 22.5901 171.02 27.8901C171.13 28.2801 171.24 28.6601 171.35 29.0501C171.47 29.4701 171.57 29.9001 171.7 30.3201C171.71 30.3601 171.75 30.6301 171.79 30.6601C171.84 30.8501 171.81 30.6901 171.7 30.1901C171.55 29.2001 171.64 28.2501 171.99 27.3201C171.94 27.7101 171.84 27.6401 171.53 28.0301C171.27 28.3501 171 28.6601 170.74 28.9801C170.43 29.3501 170.13 29.7201 169.82 30.0901C167.97 32.3201 166.12 34.5401 164.26 36.7701C162.4 39.0001 160.5 41.3001 158.62 43.5701C157.4 45.0501 157.27 47.8701 157.53 49.6701C157.71 50.9001 158.16 53.5701 159.82 53.6301C165.12 53.8301 170.42 54.0401 175.71 54.2501C176.82 54.2901 177.92 54.3401 179.03 54.3801C180.64 54.4401 181.89 54.6401 182.75 55.9401C184.14 58.0201 185.42 60.1801 186.76 62.2901C189.2 66.1601 191.65 70.0101 194.1 73.8701C195.03 75.3301 196.54 74.2301 196.98 73.0301C199.1 67.2301 201.23 61.4501 203.37 55.6601C203.55 55.1601 203.74 54.6701 203.92 54.1701C204.03 53.8801 204.14 53.5801 204.24 53.2901C204.27 53.2201 204.29 53.1501 204.32 53.0801C204.35 53.0201 204.39 52.8501 204.23 53.1501C204.34 52.9401 204.54 52.6701 204.72 52.5101C204.94 52.3101 205.34 52.1701 205.62 52.0301C206.12 51.7601 205.41 52.0701 205.71 51.9701C205.99 51.8801 206.29 51.8201 206.58 51.7501C207.12 51.6101 207.66 51.4801 208.2 51.3401C211.35 50.5401 214.51 49.7401 217.66 48.9301C220.81 48.1201 223.96 47.3001 227.11 46.4901C229 46.0001 229.35 43.4401 229.44 41.8101C229.55 39.8801 229.4 37.1801 227.74 35.8901C223.43 32.5201 219.12 29.1401 214.83 25.7501C213.73 24.8801 212.63 24.0201 211.53 23.1501C211.39 23.0401 210.49 22.1401 210.3 22.1801C210.21 22.2001 210.66 22.7001 210.5 22.3901C210.46 22.3101 209.98 21.8401 210.08 21.8801C210.49 22.0401 210.6 24.7701 210.59 24.2301C210.58 23.7201 210.46 26.2801 210.54 25.1501C210.7 22.7001 210.86 20.2501 211.02 17.8001C211.24 14.4501 211.46 11.0901 211.68 7.74015C211.77 6.34015 211.81 4.95015 211.44 3.58015C211.23 2.81015 210.8 1.54015 210.02 1.10015C208.1 0.0201459 207.17 3.76015 207.1 4.87015L207.07 4.82015Z" fill="#1D1D1B"/>
<path d="M56.5501 130.27C56.1501 131.39 55.4901 132.46 54.9701 133.53C53.6001 136.31 52.2201 139.1 50.8401 141.88C46.4501 150.73 42.0401 159.58 37.6401 168.43C32.5501 178.66 27.4501 188.89 22.3601 199.12C18.3701 207.12 14.3901 215.12 10.4001 223.12C9.39012 225.15 8.38012 227.18 7.37012 229.21C6.10012 231.75 5.94012 234.54 6.29012 237.34C6.64012 240.14 7.54011 243.05 9.61011 245.05C11.9001 247.25 15.1601 247.59 18.1901 247.12C19.8801 246.86 21.1401 246.11 22.6501 245.34C29.2501 241.99 35.8401 238.63 42.4401 235.28C52.3201 230.25 62.2101 225.23 72.0901 220.2C81.9701 215.17 90.9401 210.61 100.37 205.82L116.37 197.68C116.62 197.55 116.88 197.42 117.13 197.29C118.48 196.6 118.76 194.02 118.83 192.8C118.92 191.27 118.89 188.61 117.7 187.42C111.12 180.87 104.55 174.33 97.9701 167.78C87.5001 157.36 77.0401 146.95 66.5701 136.53C64.1901 134.16 61.8101 131.79 59.4301 129.43C58.8901 128.9 58.3801 128.45 57.6001 128.89C56.8201 129.33 56.3601 130.61 56.1801 131.37C55.8601 132.71 55.7401 134.16 55.9401 135.53C56.0901 136.55 56.2701 138 57.0301 138.76C63.6101 145.31 70.1801 151.85 76.7601 158.4C87.2301 168.82 97.6901 179.23 108.16 189.65C110.54 192.02 112.92 194.39 115.3 196.75L115.87 186.88C111.83 188.93 107.8 190.98 103.76 193.04C94.4401 197.78 85.1201 202.52 75.7901 207.26C65.3601 212.57 54.9201 217.87 44.4901 223.18C37.1201 226.93 29.7501 230.68 22.3701 234.43C21.1601 235.04 19.9401 235.82 18.6701 236.31C18.6701 236.31 18.6601 236.31 18.6501 236.31C19.3001 236.07 18.5301 236.26 18.3501 236.29C18.0601 236.34 17.7701 236.38 17.4701 236.41C16.5701 236.51 15.6501 236.55 14.7501 236.47C14.4101 236.44 14.0801 236.39 13.7401 236.32C13.7701 236.32 13.0101 236.14 13.3801 236.25C13.7501 236.36 13.0601 236.13 13.0701 236.13C12.5101 235.9 12.0401 235.6 11.5401 235.26C10.8901 234.81 11.7601 235.64 11.4001 235.14C11.2601 234.94 11.0901 234.74 10.9301 234.54C10.4401 233.9 11.1301 235.07 11.0001 234.69C10.9201 234.46 10.8001 234.2 10.6901 233.98C10.4801 233.55 11.1901 235.24 10.8201 234.3C10.6401 233.85 10.7401 232.89 10.9001 234.85C10.8901 234.68 10.8501 234.51 10.8301 234.35C10.6901 233.32 10.9901 234.83 10.8601 235.12C10.9301 234.97 10.8601 234.56 10.8601 234.38C10.8401 233.79 10.7201 236.25 10.8001 235.5L10.1901 237.88C11.8301 234.58 13.4801 231.29 15.1201 227.99C19.0501 220.1 22.9801 212.21 26.9101 204.32C31.6901 194.72 36.4701 185.12 41.2501 175.52C45.3901 167.21 49.5201 158.9 53.6501 150.58C55.7001 146.44 57.9001 142.35 59.7901 138.14C59.8201 138.06 59.8701 137.99 59.8901 137.91C60.7401 135.54 60.9701 132.62 59.8901 130.27C59.5801 129.6 59.0601 128.69 58.2101 128.69C57.4101 128.69 56.7601 129.62 56.5301 130.27H56.5501Z" fill="#1D1D1B"/>
<path d="M92.0099 168.95C90.6799 172.34 91.1399 176.03 91.5899 179.56C91.9399 182.31 92.5199 185.03 93.1099 187.73C94.2899 193.16 95.9399 198.39 99.5199 202.75C100.17 203.54 100.95 204.3 102.07 204.27C103.08 204.25 104.05 203.47 104.54 202.63C105.76 200.55 105.98 196.98 104.35 195C103.63 194.12 102.96 193.2 102.37 192.22C102.22 191.98 102.08 191.73 101.94 191.48C102.19 191.93 102.18 191.91 101.94 191.42C101.77 191.03 101.58 190.64 101.42 190.25C101.2 189.71 101.01 189.16 100.82 188.61C101.2 189.73 100.65 187.95 100.59 187.75C100.31 186.66 100.08 185.56 99.8399 184.46C99.3199 182.07 98.8199 179.67 98.4699 177.25C98.4399 177.01 98.3999 176.77 98.3699 176.52C98.4399 177.15 98.4399 177.14 98.3699 176.5C98.3199 175.85 98.2599 175.21 98.2299 174.56C98.1599 172.98 98.0399 171.48 97.6899 169.93C97.3799 168.58 96.5799 166.85 95.0499 166.63C93.5199 166.41 92.5499 167.64 92.0399 168.95H92.0099Z" fill="#1D1D1B"/>
<path d="M44.6499 155.16C42.4899 156.73 42.2899 160.64 42.2599 163.07C42.2299 165.3 42.4399 167.55 42.6899 169.77C43.1899 174.16 44.0299 178.47 45.2799 182.71C47.8499 191.42 51.6599 199.58 56.1399 207.47C58.4999 211.63 61.0599 215.67 63.6299 219.69C64.8899 221.66 67.4699 221.57 68.6399 219.57C69.9799 217.27 69.8799 214.17 68.4499 211.94C66.2799 208.56 64.1599 205.14 62.1399 201.67C61.6399 200.8 61.1399 199.93 60.6499 199.06C60.4199 198.66 60.1999 198.25 59.9699 197.85C59.8599 197.65 59.2099 196.46 59.5599 197.11C58.6199 195.34 57.7099 193.56 56.8499 191.75C55.1299 188.13 53.5899 184.42 52.3399 180.61C52.2399 180.32 52.1499 180.02 52.0499 179.73C52.0299 179.67 51.7999 178.94 51.9699 179.48C52.1399 180.02 51.9099 179.29 51.8999 179.23C51.8399 179.01 51.7699 178.78 51.7099 178.56C51.4199 177.52 51.1499 176.47 50.8999 175.42C50.4399 173.47 50.0699 171.5 49.7799 169.51C49.6999 168.98 49.6199 168.44 49.5699 167.91C49.5699 167.98 49.6499 168.83 49.6099 168.19C49.5899 167.88 49.5499 167.58 49.5299 167.27C49.4399 166.12 49.3699 164.97 49.3499 163.82C49.2899 161.18 49.3199 157.84 47.6399 155.68C46.7899 154.59 45.7599 154.36 44.6399 155.17L44.6499 155.16Z" fill="#1D1D1B"/>
<path d="M21.3601 205.39H21.2601C19.8601 205.48 18.9101 206.7 18.4901 207.94C16.5101 213.81 18.5401 220.64 20.8601 226.15C21.8901 228.59 23.1501 230.96 24.5901 233.19C26.1101 235.55 28.5401 239.67 31.7101 237.05C33.6101 235.48 33.8001 231.67 32.8001 229.62L32.7501 229.52C32.2801 228.56 31.6401 227.49 30.5701 227.09C29.6501 226.75 28.5401 227.01 27.8501 227.7C25.9401 229.61 25.8901 232.73 26.7601 235.12L26.8001 235.23L28.7301 227.24C31.2001 228.63 32.0101 228.82 31.1501 227.83C30.9901 227.62 30.8301 227.41 30.6801 227.2C30.3701 226.77 30.0601 226.34 29.7701 225.9C29.1801 225.02 28.6401 224.12 28.1101 223.2C27.8501 222.73 27.8501 222.74 28.1301 223.24C28.0101 223.01 27.8901 222.77 27.7701 222.53C27.5401 222.06 27.3101 221.58 27.1001 221.09C26.7001 220.18 26.3301 219.26 26.0001 218.33C25.8501 217.9 25.6501 217.46 25.5601 217.02C25.8501 218.36 25.4701 216.65 25.4001 216.4C25.1301 215.37 24.7501 214.18 24.7301 213.11C24.7501 214.58 24.7601 212.7 24.7501 212.42C24.7201 211.86 24.6901 211.3 24.6701 210.74C24.6101 209 23.9101 205.24 21.3701 205.4L21.3601 205.39Z" fill="#1D1D1B"/>
<path d="M55.9001 65.29C56.5501 66 57.1301 66.92 57.7501 67.72C58.2301 68.34 58.8101 68.88 59.3601 69.44C59.5501 69.64 59.7401 69.84 59.9301 70.04C59.4001 69.46 60.2701 70.45 60.2801 70.47C61.7501 72.27 63.0501 74.2 64.2701 76.18C65.6301 78.39 66.9101 80.65 68.2201 82.89C68.8301 83.93 69.4301 84.98 70.0101 86.04C70.0801 86.17 70.5401 87.01 70.2301 86.43C69.9201 85.85 70.3701 86.69 70.4401 86.83C70.7501 87.43 71.0601 88.03 71.3601 88.64C72.5001 90.92 73.5501 93.25 74.4901 95.62C74.9301 96.74 75.3401 97.86 75.7301 99C75.8901 99.47 76.2901 100.21 76.2901 100.71C76.2901 100.58 75.9201 99.42 76.2301 100.53C76.3301 100.89 76.4301 101.25 76.5301 101.61C77.1601 103.94 77.6501 106.32 77.9801 108.71C78.0001 108.87 78.1301 109.39 78.0901 109.58C78.2801 108.67 77.9801 108.54 78.0401 109.2C78.0901 109.78 78.1401 110.36 78.1801 110.95C78.2601 112.26 78.3001 113.57 78.2801 114.89C78.2801 115.18 78.2701 115.47 78.2601 115.76C78.2601 115.98 78.2401 116.2 78.2301 116.41C78.2101 116.91 78.2301 116.7 78.2801 115.78C78.4601 115.98 78.1301 117.45 78.1001 117.73C77.9401 119.1 77.7201 120.45 77.4401 121.8C77.3901 122.05 77.2501 122.41 77.2501 122.65C77.2501 122.03 77.5201 121.64 77.2701 122.54C77.1001 123.17 76.9101 123.79 76.7001 124.4C75.9701 126.59 75.1501 128.61 75.3001 130.99C75.4401 133.19 77.1101 138.43 80.4901 136.72C83.8701 135.01 84.6301 130.1 85.4301 126.77C86.1601 123.72 86.4801 120.65 86.6601 117.52C86.9801 111.88 86.3601 106.12 85.0401 100.64C82.3601 89.52 77.0001 79.11 70.4301 69.81C68.8101 67.52 67.2001 65.19 65.4001 63.04C64.3401 61.77 63.2601 60.39 61.9801 59.34C60.8501 58.41 59.2601 57.87 57.8801 57.45C56.1401 56.91 55.0101 58.51 54.6301 60.01C54.1501 61.93 54.5701 63.86 55.9101 65.32L55.9001 65.29Z" fill="#1D1D1B"/>
<path d="M162.49 69.5703C153.71 79.6603 146.22 89.7103 137.46 99.8603C128.7 110.01 120.39 119.26 111.69 128.81C106.7 134.28 101.64 139.59 98.5901 146.43C97.4501 148.99 97.9701 153.56 100.35 155.32C102.95 157.25 105.06 155.27 106.15 152.84C106.75 151.5 105.55 153.9 106.26 152.62C106.4 152.37 106.53 152.11 106.66 151.85C107 151.22 107.37 150.59 107.76 149.98C108.53 148.76 109.38 147.58 110.27 146.43C110.36 146.31 111.27 145.18 110.53 146.09C110.71 145.86 110.9 145.64 111.09 145.42C111.56 144.86 112.03 144.31 112.51 143.75C113.5 142.6 114.51 141.46 115.51 140.32C119.83 135.39 124.08 130.41 128.29 125.38C132.5 120.35 136.57 115.4 140.65 110.35C141.75 108.98 142.86 107.62 143.96 106.25C144.47 105.62 144.97 104.99 145.48 104.36C145.68 104.11 145.88 103.86 146.09 103.6C146.43 103.17 146.33 103.3 146.76 102.78C148.98 100.07 151.19 97.3403 153.4 94.6103C157.97 88.9503 162.54 83.3103 166.72 77.3503C168 75.5303 167.82 72.6203 166.82 70.7503C166.04 69.3003 163.97 67.9103 162.53 69.5603L162.49 69.5703Z" fill="#1D1D1B"/>
<path d="M108.91 166.26C111.39 167.04 113.57 165.45 115.73 164.42C117.73 163.47 119.77 162.58 121.84 161.79C123.91 161 126.02 160.28 128.15 159.66C129.08 159.39 130.02 159.13 130.97 158.89C132.13 158.6 132.51 158.51 133.84 158.23C142.48 156.47 151.51 156.41 160.23 157.65C160.85 157.74 161.48 157.84 162.1 157.94C162.22 157.96 163.09 158.11 162.54 158.01C161.99 157.91 163.2 158.14 163.18 158.13C164.41 158.37 165.63 158.65 166.85 158.94C169.3 159.52 171.71 160.19 174.1 160.98C177.27 162.03 179.41 158.56 179.76 155.84C179.99 154.02 179.93 152.02 179.15 150.33C178.58 149.09 177.68 147.5 176.26 147.11C158.24 142.09 138.54 143.72 121.21 150.63C118.87 151.56 116.58 152.6 114.35 153.76C113.17 154.38 112 155.02 110.86 155.69C109.04 156.76 107.96 158.1 107.08 160.01C106.3 161.71 106.75 165.57 108.91 166.25V166.26Z" fill="#1D1D1B"/>
</g>
<defs>
<clipPath id="clip0_3416_11893">
<rect width="262.55" height="247.29" fill="white"/>
</clipPath>
</defs>
</svg>
