<svg width="254" height="264" viewBox="0 0 254 264" fill="none" xmlns="http://www.w3.org/2000/svg">
<g clip-path="url(#clip0_3416_12151)">
<path d="M159.32 30.4895L171.44 7.62949C171.44 7.62949 174.01 4.96949 180.21 7.62949C186.41 10.2895 214.91 31.5995 214.91 31.5995C214.91 31.5995 226.57 35.3695 219.46 43.1095C212.35 50.8595 202.91 69.4795 202.91 69.4795" fill="#1D1D1B"/>
<path d="M115.43 30.31C113.78 29.92 112.12 29.56 110.46 29.22C109.53 29.04 108.69 28.74 107.75 28.67C106.86 28.6 105.96 28.57 105.07 28.52C101.63 28.34 98.24 28.36 94.8 28.58C87.72 29.02 80.69 30.02 73.8 31.68C61.29 34.7 48.71 39.4 38.48 47.39C29.51 54.4 22.28 63.9 16.86 73.85C11.07 84.47 7.00999 95.91 4.08999 107.62C-2.73001 134.95 -1.36001 165.18 10.77 190.86C16.44 202.87 24.1 213.66 33.45 223.08C42.8 232.5 52.69 239.58 63.69 245.87C86.93 259.13 114.67 266.31 141.37 261.95C162.94 258.43 182.88 248.11 198.46 232.79C214.04 217.47 225.52 196.6 230.88 174.67C237.23 148.67 234.31 120.47 223.71 95.98C218.47 83.89 211.41 72.54 202.66 62.68C193.91 52.82 183.97 44.69 172.68 37.98C151.77 25.56 126.66 19.46 102.38 21.89C99.49 22.18 96.63 22.61 93.79 23.19C91.73 23.61 89.68 24.03 87.7 24.75C85.89 25.41 84.09 26.37 82.25 26.91C80.86 27.32 79.74 29.33 79.31 30.53C78.67 32.3 78.5 34.66 78.94 36.49C79.69 39.61 81.72 42.79 85.31 41.73L85.77 41.59L84.43 41.9C85.67 41.86 86.93 41.58 88.16 41.42C89.26 41.28 90.36 41.2 91.45 41.03C93.54 40.69 95.61 40.27 97.71 39.99C101.55 39.47 105.39 39.06 109.26 38.92C117.03 38.63 124.81 39.21 132.46 40.56L130.93 40.29C145.11 42.84 158.71 48.06 171.03 55.52L169.64 54.67C176.07 58.59 182.13 63.1 187.7 68.17C190.52 70.74 193.15 73.47 195.74 76.27C194.28 74.69 195.61 76.13 195.91 76.48C196.18 76.79 196.45 77.11 196.72 77.42C197.39 78.21 198.04 79 198.69 79.81C199.94 81.37 201.15 82.95 202.32 84.57C204.66 87.81 206.83 91.16 208.82 94.62C209.27 95.4 209.7 96.18 210.14 96.96C210.61 97.8 209.34 95.46 209.79 96.3C209.89 96.48 209.98 96.66 210.08 96.85C210.34 97.34 210.59 97.83 210.84 98.32C211.75 100.1 212.61 101.9 213.42 103.72C215.02 107.3 216.45 110.96 217.69 114.68C217.99 115.59 218.23 116.54 218.57 117.43C218.56 117.4 217.94 115.29 218.3 116.54C218.36 116.74 218.42 116.94 218.47 117.13C218.62 117.66 218.77 118.19 218.92 118.72C219.45 120.64 219.92 122.58 220.35 124.53C220.78 126.48 221.15 128.44 221.47 130.41C221.63 131.36 221.77 132.32 221.9 133.27C221.98 133.83 222.05 134.39 222.12 134.94C222.16 135.31 222.3 136.44 222.12 134.98C221.94 133.52 222.08 134.7 222.12 135.02C222.59 139.66 222.76 144.33 222.66 148.99C222.64 149.96 222.6 150.93 222.56 151.9C222.54 152.31 222.51 152.71 222.49 153.12C222.48 153.41 222.65 150.74 222.58 151.66C222.56 151.95 222.54 152.24 222.52 152.53C222.4 154.15 222.24 155.76 222.04 157.37C221.64 160.69 221.08 163.99 220.38 167.25C220.21 168.04 220.03 168.82 219.85 169.6C219.77 169.93 219.69 170.27 219.61 170.6C220.3 167.73 219.89 169.49 219.71 170.16C219.29 171.76 218.83 173.36 218.33 174.94C217.34 178.09 216.22 181.21 214.96 184.26C214.35 185.73 213.71 187.19 213.05 188.63C212.95 188.84 212.86 189.04 212.76 189.25C212.43 189.97 213.3 188.05 213.25 188.23C213.15 188.59 212.9 188.96 212.73 189.3C212.35 190.06 211.97 190.82 211.58 191.57C210.06 194.48 208.42 197.32 206.65 200.08C204.88 202.84 203.07 205.42 201.11 207.97C200.87 208.28 200.63 208.59 200.38 208.9C200.2 209.13 199.27 210.29 200.1 209.26C200.93 208.23 199.98 209.4 199.81 209.61C199.52 209.96 199.23 210.3 198.94 210.65C197.92 211.85 196.88 213.03 195.81 214.18C191.42 218.92 186.61 223.27 181.44 227.13C180.14 228.11 178.81 229.05 177.46 229.96L178.81 229.05C168.71 235.86 157.46 240.82 145.59 243.58L147.11 243.23C133.58 246.32 119.6 246.41 105.95 243.98L107.48 244.25C91.55 241.35 76.34 235.19 62.52 226.8L63.9 227.64C56.06 222.85 48.66 217.33 41.94 211.05C40.29 209.51 38.68 207.92 37.12 206.29C36.39 205.52 35.67 204.74 34.95 203.96C34.18 203.13 35.27 204.31 35.33 204.39C35.12 204.13 34.89 203.89 34.67 203.64C34.28 203.19 33.89 202.74 33.5 202.28C33.33 202.08 33.16 201.87 32.99 201.67L31.81 200.35L32.47 201.08C32.26 200.62 31.66 200.11 31.33 199.71C30.58 198.79 29.84 197.86 29.12 196.92C27.76 195.14 26.45 193.32 25.21 191.46C23.97 189.6 22.71 187.59 21.56 185.59C21.3 185.13 21.04 184.67 20.78 184.21C20.66 183.99 20.5 183.75 20.4 183.52C20.43 183.59 21.26 185.16 20.72 184.12C20.18 183.08 19.59 181.93 19.06 180.83C16.9 176.34 15.33 171.71 13.67 167.02C14.47 169.27 13.72 167.15 13.56 166.59C13.4 166.03 13.25 165.47 13.1 164.91C12.77 163.65 12.46 162.38 12.17 161.1C11.63 158.69 11.17 156.27 10.79 153.83C10.6 152.61 10.44 151.39 10.28 150.17C10.22 149.69 10.18 148.73 10.36 150.88C10.34 150.59 10.3 150.3 10.27 150.01C10.2 149.28 10.13 148.56 10.07 147.83C9.85999 145.36 9.72999 142.88 9.67999 140.4C9.62999 137.92 9.63999 135.44 9.73999 132.96C9.75999 132.38 9.78999 131.79 9.81999 131.21C9.82999 130.92 9.84999 130.63 9.86999 130.34C9.92999 129.11 9.83999 130.83 9.82999 130.94C9.87999 129.62 10.05 128.31 10.16 127L10.28 125.1L10.23 126.12C10.2 125.78 10.3 125.37 10.34 125.02C10.4 124.44 10.47 123.85 10.54 123.27C10.7 121.96 10.87 120.65 11.06 119.34C11.43 116.88 11.86 114.43 12.35 111.99C12.6 110.77 12.86 109.56 13.14 108.35C13.25 107.88 13.36 107.41 13.47 106.95C13.53 106.72 13.58 106.48 13.64 106.25C13.95 104.96 13.27 107.7 13.6 106.4C14.12 104.38 14.66 102.37 15.27 100.37C16.5 96.35 17.87 92.37 19.46 88.47C19.86 87.49 20.27 86.52 20.69 85.56C20.89 85.11 21.09 84.65 21.3 84.2C21.43 83.92 21.56 83.64 21.69 83.36C21.76 83.22 22.22 82.25 21.88 82.95C21.57 83.6 21.92 82.87 22 82.71C22.11 82.49 22.22 82.26 22.33 82.04C22.58 81.54 22.83 81.04 23.09 80.54C23.57 79.6 24.07 78.68 24.58 77.76C26.64 74.06 28.92 70.46 31.54 67.13C31 67.82 31.8 66.81 31.99 66.58C32.3 66.21 32.62 65.84 32.93 65.47C33.65 64.65 34.38 63.84 35.13 63.05C36.55 61.56 38.04 60.13 39.59 58.78C41.14 57.43 42.87 56.06 44.6 54.84C44.8 54.7 45 54.56 45.2 54.42C45.72 54.06 44.75 54.71 45.28 54.37C45.74 54.07 46.2 53.77 46.67 53.47C47.56 52.91 48.47 52.38 49.38 51.87C58.05 47.08 67.76 43.75 77.39 41.51C79.58 41 82.11 40.43 84.58 39.97C87.05 39.51 89.74 39.08 92.33 38.75C94.92 38.42 97.37 38.17 99.9 38C102.43 37.83 104.94 37.48 107.47 37.4C108.68 37.36 109.81 37.05 111.02 36.88C112.34 36.7 113.67 36.53 115 36.38C116.33 36.23 116.87 34.79 116.94 33.63C117 32.58 116.68 30.56 115.39 30.25L115.43 30.31Z" fill="#1D1D1B"/>
<path d="M195.38 35.87C195.43 35.7 195.5 35.53 195.55 35.36C196.15 33.34 195.65 34.75 195.49 35.17C195.6 34.88 196.18 34.19 196.37 33.96C196.74 33.51 197.62 32.51 198.21 31.86C199.66 30.3 201.25 28.9 202.75 27.4C204.25 25.9 205.84 24.49 207.5 23.17C208.33 22.51 209.18 21.87 210.04 21.25C210.24 21.1 210.45 20.96 210.65 20.82C210.74 20.76 211.27 20.41 210.75 20.75C211.27 20.4 211.8 20.07 212.33 19.73C215.94 17.48 219.79 15.61 223.78 14.16C225.78 13.43 227.82 12.84 229.88 12.32C230.61 12.13 230.19 12.24 230.03 12.28C230.27 12.22 230.52 12.17 230.76 12.12C231.25 12.02 231.74 11.92 232.23 11.83C233.33 11.62 234.44 11.44 235.56 11.29C240.4 10.64 245.29 10.61 250.13 11.23C251.1 11.35 252.15 10.29 252.6 9.58996C253.27 8.52996 253.61 6.97996 253.54 5.74996C253.41 3.40996 252.47 0.769964 249.86 0.439964C240.38 -0.760036 230.78 0.509964 221.81 3.73996C217.4 5.32996 213.17 7.41996 209.23 9.96996C205.29 12.52 201.17 15.51 198.01 19.1C196.09 21.28 194.37 23.7 192.83 26.17C190.92 29.21 188.69 35.21 192.83 37.5C193.92 38.1 195.08 36.75 195.35 35.85L195.38 35.87Z" fill="#1D1D1B"/>
<path d="M28.1299 128.07C28.6599 125.75 29.4999 122.98 30.4399 120.48C30.9299 119.19 31.4599 117.92 32.0199 116.66C32.3399 115.92 32.1399 116.37 32.0699 116.53C32.3199 115.97 32.5899 115.42 32.8499 114.86C33.1899 114.11 32.9799 114.59 32.8999 114.75C33.1299 114.28 33.3599 113.81 33.5999 113.35C34.8599 110.89 36.2599 108.49 37.7899 106.2C38.5199 105.1 39.2899 104.02 40.0899 102.97C40.3299 102.65 40.5799 102.34 40.8199 102.03C40.8999 101.92 41.3299 101.39 40.8699 101.96C41.3699 101.35 41.8799 100.75 42.3999 100.15C44.2299 98.0699 46.1799 96.0999 48.2599 94.2699C49.3199 93.3399 50.4099 92.4399 51.5299 91.5699C52.1199 91.1099 52.7199 90.6699 53.3299 90.2299C53.5499 90.0699 53.7799 89.9199 53.9999 89.7599C54.4299 89.4699 54.4499 89.4499 54.0599 89.7099C54.2799 89.5599 54.5099 89.4099 54.7399 89.2699C59.5899 86.2199 64.8199 84.0199 70.2099 82.1299C73.3199 81.0399 76.5199 80.2199 79.7099 79.3999C81.2999 78.9899 82.9399 78.5999 84.4699 77.9999C85.1999 77.7199 85.9199 77.4799 86.5899 77.0699C86.8899 76.8899 87.1899 76.5999 87.5099 76.4799C87.2299 76.5099 87.3099 76.4999 87.7699 76.4599C88.0399 76.4299 88.3199 76.4099 88.5899 76.3899C91.0899 76.1799 92.1199 73.0499 91.9999 70.8999C91.8899 68.9299 90.9199 65.4799 88.3199 65.5899C87.2299 65.6399 87.3299 65.7799 86.4799 65.4499C85.6299 65.1199 84.6999 64.9799 83.7799 64.8699C82.1199 64.6799 80.5399 64.7799 78.8799 64.9999C75.5999 65.4399 72.3699 66.4199 69.2699 67.5599C63.2699 69.7699 57.7299 73.1299 52.6199 76.9499C42.4599 84.5599 34.3199 94.5499 29.1299 106.16C26.2799 112.54 24.5099 119.41 23.6999 126.34C23.5299 127.76 23.8199 129.96 25.3899 130.54C26.9599 131.12 27.8399 129.27 28.1199 128.06L28.1299 128.07Z" fill="#1D1D1B"/>
</g>
<defs>
<clipPath id="clip0_3416_12151">
<rect width="253.56" height="263.23" fill="white"/>
</clipPath>
</defs>
</svg>
