<svg width="234" height="309" viewBox="0 0 234 309" fill="none" xmlns="http://www.w3.org/2000/svg">
<g clip-path="url(#clip0_3416_10511)">
<path d="M143.36 6.70991C141.47 9.81991 139.52 12.8999 137.59 15.9899C133.04 23.3099 128.48 30.6399 123.92 37.9599C118.09 47.3299 112.26 56.7099 106.43 66.0799C100.68 75.3199 94.93 84.5699 89.18 93.8099C84.87 100.74 80.5499 107.67 76.2399 114.61C75.0499 116.52 73.8699 118.43 72.6799 120.34C71.3799 122.42 70.42 124.13 70.48 126.87C70.53 128.92 70.62 130.96 70.62 133.01C70.62 134.58 70.5999 136.15 70.5299 137.72C70.5299 137.93 70.45 139.35 70.51 138.27C70.57 137.19 70.4799 138.67 70.4499 138.93C70.3899 139.66 70.3099 140.4 70.2099 141.13C70.1699 141.45 70.1099 141.76 70.0599 142.08C69.9699 142.71 70.36 140.72 70.15 141.56C70.12 141.7 70.0899 141.84 70.0599 141.97C69.9999 142.2 69.8599 142.5 69.8499 142.73C69.8499 142.69 70.32 141.65 70.05 142.14C69.99 142.25 69.9299 142.39 69.8899 142.51C69.7299 142.99 70.2699 141.95 69.7799 142.71C69.5299 143.09 69.2899 143.47 69.0199 143.84C68.4799 144.6 67.9099 145.33 67.3199 146.05C65.5799 148.16 63.6599 150.07 61.7599 152.03C62.7299 151.03 62.06 151.66 61.65 151.94C61.01 152.37 60.3899 152.84 59.7799 153.31C57.6099 155.02 55.5699 156.96 53.7799 159.07C48.1299 165.72 45.4299 174.4 46.3899 183.1C47.4099 192.34 53.0899 199.71 59.7999 205.74C63.1499 208.75 66.7799 211.45 70.4899 214.01C73.9199 216.38 77.37 218.75 81.18 220.48C88.33 223.74 96.8099 225.55 104.56 223.52C108.49 222.49 111.87 220.66 114.77 217.8C118.13 214.49 120.69 210.28 122.07 205.78C122.4 204.71 122.55 203.64 122.79 202.55C122.91 202.03 122.6 203.4 122.77 202.68C122.83 202.41 122.89 202.13 122.95 201.86C123.09 201.25 123.25 200.64 123.43 200.03C123.51 199.76 123.59 199.5 123.68 199.23C123.46 199.94 123.67 199.26 123.72 199.14C123.94 198.55 124.17 197.97 124.42 197.39C124.64 196.88 124.88 196.37 125.13 195.87C125.25 195.62 125.38 195.37 125.51 195.13C125.56 195.03 125.97 194.33 125.75 194.7C126.36 193.68 127.02 192.69 127.74 191.74C127.86 191.58 128.39 191.11 128.39 190.91C128.39 190.62 127.79 191.45 128.12 191.17C129.25 190.22 130.34 189.26 131.58 188.43C133.18 187.36 134.87 186.5 136.73 186.02C138.05 185.68 139.37 185.28 140.61 184.68C143.59 183.25 146.01 180.79 148.21 178.38C153.41 172.65 157.99 166.27 162.75 160.18C169.69 151.3 176.61 142.41 183.53 133.52C190.45 124.63 197.01 116.21 203.74 107.55C206.93 103.44 210.05 99.2599 213.33 95.2199C218.2 89.2099 223.35 83.4099 228.36 77.5099C229.05 76.6999 229.53 75.7699 230.02 74.8299C231.38 72.2199 232.42 69.3799 233.06 66.4999C234.1 61.7799 234.33 56.6899 232.91 52.0299C232.22 49.7599 231.19 47.5599 229.67 45.7199C228.69 44.5399 227.51 43.4999 226.39 42.4499C217.31 33.9399 207.43 26.2299 197.68 18.5099C195.99 17.1699 194.35 15.6199 192.45 14.5699C188.31 12.2799 184.17 9.98991 180.03 7.70991C177.4 6.25991 174.8 4.56991 172.06 3.32991C168.14 1.54991 163.61 0.459906 159.34 0.0999057C153.22 -0.420094 146.82 1.21991 143.4 6.71991C142.1 8.80991 141.86 11.7499 142.55 14.1099C142.89 15.2899 144.45 18.2199 145.8 16.0499C146.1 15.5699 146.42 15.0999 146.78 14.6599C146.95 14.4499 147.14 14.2499 147.32 14.0499C147.87 13.4099 146.87 14.3799 147.52 13.8599C148.33 13.1999 149.15 12.6199 150.1 12.1599C151.8 11.3299 153.52 10.9799 155.7 10.8499C159.55 10.6299 163.39 11.3599 167.07 12.4199C167.73 12.6099 166.57 12.2599 167.2 12.4599C167.38 12.5199 167.56 12.5699 167.73 12.6299C168 12.7199 168.27 12.8099 168.54 12.8999C169.07 13.0799 169.6 13.2799 170.12 13.4799C170.45 13.6099 170.79 13.7399 171.11 13.8999C173.26 14.9799 175.33 16.2299 177.43 17.3899C180.78 19.2399 184.12 21.0899 187.47 22.9399C188.96 23.7599 190.57 24.4999 191.99 25.4499C193.51 26.4599 194.91 27.7399 196.35 28.8799C199.48 31.3599 202.6 33.8499 205.71 36.3699C209.39 39.3499 213.06 42.3599 216.67 45.4199C218.39 46.8799 220.1 48.3499 221.79 49.8399C222.48 50.4499 223.17 51.0699 223.86 51.6999C224.21 52.0199 224.55 52.3299 224.89 52.6499C225.05 52.7999 225.22 52.9499 225.38 53.1099C225.51 53.2299 226.22 53.9199 225.58 53.2999C226.29 53.9999 227.01 54.6899 227.61 55.4899C227.82 55.7699 228.01 56.0599 228.21 56.3399C228.82 57.1899 227.97 55.7299 228.4 56.6599C228.49 56.8599 228.59 57.0499 228.68 57.2499C228.77 57.4499 228.85 57.6499 228.93 57.8499C229.1 58.3099 229.08 58.2499 228.87 57.6599C229.02 57.8199 229.06 58.3599 229.11 58.5699C229.4 59.6399 228.99 57.4099 229.1 58.5099C229.13 58.7999 229.13 59.1599 229.2 59.4299C228.85 58.1099 229.16 58.6399 229.17 59.2199C229.17 59.4199 229.17 59.6299 229.17 59.8299C229.17 60.9599 229.32 58.4799 229.18 59.5999C229.14 59.8999 229.12 60.1899 229.08 60.4899C229.01 60.9799 228.57 61.9999 229.08 60.6499C228.9 61.1199 228.85 61.6899 228.72 62.1799C228.6 62.6399 228.35 63.1499 228.29 63.6199C228.43 62.5399 228.47 63.0999 228.32 63.5099C228.24 63.7399 228.15 63.9699 228.06 64.1999C227.89 64.6199 227.72 65.0499 227.53 65.4599C227.24 66.1199 226.92 66.7699 226.58 67.4099C226.48 67.5899 226.36 67.7699 226.28 67.9599C226.81 66.6199 226.71 67.3399 226.47 67.6199C221.01 74.0799 215.27 80.3799 210.07 87.0699C203.01 96.1499 195.95 105.23 188.88 114.31C179.17 126.78 169.47 139.25 159.74 151.71C156.71 155.58 153.69 159.46 150.65 163.31C150.26 163.8 149.87 164.29 149.48 164.78C148.47 166.05 147.43 167.3 146.36 168.51C145.87 169.06 145.38 169.6 144.87 170.13C144.64 170.37 144.41 170.61 144.17 170.84C143.74 171.27 144.31 170.73 143.84 171.15C142.38 172.48 140.8 173.66 139 174.47C138.61 174.64 138.21 174.79 137.81 174.94C137.68 174.99 137.54 175.03 137.4 175.08C137.97 174.9 137.28 175.11 137.2 175.13C135.72 175.51 134.27 175.9 132.89 176.57C130.79 177.59 128.85 179 127.12 180.57C125.15 182.36 123.77 184.65 122.49 186.96C120.82 189.98 119.6 193.27 118.84 196.63C118.75 197.04 118.67 197.45 118.59 197.87C118.59 197.85 117.76 200.93 118.43 198.78C118.39 198.91 118.04 200.36 118.02 200.35C117.98 200.33 118.39 199.37 118 200.39C117.92 200.59 117.84 200.78 117.76 200.98C117.63 201.29 117.49 201.59 117.35 201.89C117.3 202 116.66 203.19 116.98 202.64C114.25 207.41 110.36 211.12 104.94 212.67C99.52 214.22 94.15 213.74 89 212.43C83.34 210.98 78.4099 208.08 73.6099 204.85C68.8099 201.62 63.5499 197.87 59.2999 193.64C57.2999 191.65 55.4399 189.5 53.88 187.15C53.69 186.86 53.5 186.56 53.31 186.26C53.27 186.2 52.6999 185.21 53.0899 185.91C52.7599 185.31 52.4499 184.7 52.1699 184.08C51.9399 183.57 51.7399 183.05 51.5299 182.53C51.1199 181.48 51.7599 183.45 51.4799 182.36C51.3699 181.93 51.2599 181.51 51.1399 181.08C51.2799 182.22 50.8399 179.96 51.1399 181.08C51.0999 180.75 51.0599 180.42 51.0099 180.1C50.8399 178.92 51.0099 181.41 51.0099 180.21C51.0099 179.98 51.0099 179.75 51.0099 179.51V179.17C51.0399 178.57 51.0199 178.71 50.9799 179.59C51.0799 179.31 51.04 178.89 51.08 178.59C51.08 178.53 51.21 177.61 51.22 177.61C51.07 178.36 51.0599 178.47 51.1599 177.94C51.2099 177.73 51.25 177.52 51.31 177.31C51.42 176.85 51.5199 176.19 51.7499 175.78C51.1999 176.75 51.6899 175.98 51.7999 175.69C51.9099 175.4 52.03 175.11 52.15 174.83C52.39 174.27 52.6499 173.72 52.9399 173.18C52.9399 173.17 53.42 172.3 53.13 172.81C52.88 173.26 53.44 172.3 53.49 172.21C54.66 170.33 56.0499 168.58 57.5699 166.98C57.9099 166.62 58.2599 166.27 58.6099 165.92C58.0899 166.43 58.8999 165.66 59.0599 165.51C59.6799 164.95 60.3199 164.4 60.9799 163.88C62.4399 162.72 63.8599 161.78 65.1799 160.46C66.7499 158.88 68.27 157.26 69.69 155.55C71.2 153.74 72.7899 151.73 73.5999 149.49C75.3199 144.79 75.39 139.48 75.44 134.54C75.47 131.93 75.4399 129.32 75.2899 126.72L74.1099 131.38C76.4599 127.61 78.8 123.84 81.15 120.07C86.82 110.96 92.48 101.86 98.15 92.7499C105.01 81.7299 111.86 70.7099 118.72 59.6899C124.69 50.0899 130.67 40.4899 136.64 30.8799C139.65 26.0499 142.69 21.2299 145.65 16.3799C145.71 16.2799 145.77 16.1899 145.83 16.0899C147.11 13.9799 147.37 11.0699 146.68 8.69991C146.34 7.53991 144.76 4.56991 143.43 6.75991L143.36 6.70991Z" fill="#1D1D1B"/>
<path d="M62.23 164.81C62.23 164.81 61.48 165.59 61.82 165.24C62.18 164.87 61.82 165.61 61.52 165.32C61.57 165.37 62.4 165.13 62.51 165.12C63.62 164.95 64.75 164.88 65.87 164.85C69.55 164.75 73.24 165.09 76.86 165.74C77.99 165.94 79.12 166.18 80.24 166.44C80.83 166.58 81.41 166.73 81.99 166.89C82.27 166.97 82.55 167.04 82.83 167.12C82.95 167.16 83.87 167.43 83.36 167.27C85.89 168.04 88.36 169 90.76 170.12C93.37 171.34 95.88 172.76 98.27 174.37C99.54 175.23 100.76 176.14 101.95 177.1C102.56 177.6 103.16 178.11 103.75 178.63C104.03 178.88 104.31 179.13 104.59 179.39C104.73 179.52 104.87 179.65 105.01 179.78C105.25 180.01 104.78 179.54 105.17 179.93C107.94 182.71 110.44 185.72 112.61 189C113.18 189.87 113.73 190.76 114.26 191.66C114.33 191.77 114.62 192.28 114.28 191.69C114.45 191.99 114.61 192.28 114.78 192.58C115.03 193.04 115.27 193.49 115.51 193.95C116.58 196.04 117.54 198.19 118.4 200.39C118.64 201.01 119.29 201.97 120.08 201.97C120.87 201.97 121.5 201.01 121.76 200.39C122.75 198.04 122.68 195.11 121.76 192.75C116.46 179.22 107.07 167.41 94.04 160.68C85.74 156.39 76.16 153.97 66.79 154.03C65.42 154.03 64.04 154.09 62.68 154.29C61.66 154.44 60.51 154.59 59.85 155.49C58.43 157.42 58.35 160.65 59 162.88C59.39 164.22 60.77 166.83 62.25 164.82L62.23 164.81Z" fill="#1D1D1B"/>
<path d="M68.3899 156.41C68.3899 156.41 67.6399 157.19 67.9799 156.84C68.3399 156.47 67.9799 157.21 67.6799 156.92C67.7299 156.97 68.5599 156.73 68.6699 156.72C69.7799 156.55 70.9099 156.48 72.0299 156.45C75.7099 156.35 79.3999 156.69 83.0199 157.34C84.1499 157.54 85.2799 157.78 86.3999 158.04C86.9899 158.18 87.5699 158.33 88.1499 158.49C88.4299 158.57 88.7099 158.64 88.9899 158.72C89.1099 158.76 90.0299 159.03 89.5199 158.87C92.0499 159.64 94.5199 160.6 96.9199 161.72C99.5299 162.94 102.04 164.36 104.43 165.97C105.7 166.83 106.92 167.74 108.11 168.7C108.72 169.2 109.32 169.71 109.91 170.23C110.19 170.48 110.47 170.73 110.75 170.99C110.89 171.12 111.03 171.25 111.17 171.38C111.41 171.61 110.94 171.14 111.33 171.53C114.1 174.31 116.6 177.32 118.77 180.6C119.34 181.47 119.89 182.36 120.42 183.26C120.49 183.37 120.78 183.88 120.44 183.29C120.61 183.59 120.77 183.88 120.94 184.18C121.19 184.64 121.43 185.09 121.67 185.55C122.74 187.64 123.7 189.79 124.56 191.99C124.8 192.61 125.45 193.57 126.24 193.57C127.03 193.57 127.66 192.61 127.92 191.99C128.91 189.64 128.84 186.71 127.92 184.35C122.62 170.82 113.23 159.01 100.2 152.28C91.8999 147.99 82.3199 145.57 72.9499 145.63C71.5799 145.63 70.1999 145.69 68.8399 145.89C67.8199 146.04 66.6699 146.19 66.0099 147.09C64.5899 149.02 64.5099 152.25 65.1599 154.48C65.5499 155.82 66.9299 158.43 68.4099 156.42L68.3899 156.41Z" fill="#1D1D1B"/>
<path d="M84.36 138.92V132.58L83.18 137.24C86.89 131.1 90.6 124.95 94.31 118.81C100.18 109.09 106.05 99.3799 111.92 89.6599C113.28 87.4099 114.64 85.1499 116 82.8999C117.28 80.7799 117.54 77.8899 116.85 75.5099C116.6 74.6499 116.27 73.4999 115.43 73.0299C114.78 72.6599 113.99 72.9299 113.6 73.5699C109.26 80.7499 104.93 87.9299 100.59 95.1099C94.58 105.05 88.58 115 82.57 124.94C81.99 125.9 81.4 126.86 80.82 127.83C78.99 130.91 79.6 135.4 79.6 138.91C79.6 140.3 79.89 144.31 81.98 144.31C84.07 144.31 84.36 140.17 84.36 138.91V138.92Z" fill="#1D1D1B"/>
<path d="M90.54 138.92C90.71 138.11 93.57 118.29 105.71 113.16C117.85 108.03 155.08 97.55 155.08 97.55C155.08 97.55 169.42 94.52 174.39 95.34C179.36 96.16 188.73 102.79 185.7 108.58C184.64 110.61 181.38 114.14 177.58 117.88C165.57 129.71 154.72 142.66 145.23 156.6L145.06 156.85C145.06 156.85 137.1 171.25 132.41 169.6C127.72 167.95 126.95 170.36 121.71 162.64C116.47 154.92 104.33 148.85 103.23 148.57C102.13 148.29 89.23 145.08 90.54 138.92Z" fill="black"/>
<path d="M92.5899 141.64C92.7099 141.04 92.8199 140.43 92.9199 139.82C93.0999 138.78 92.6899 141.01 92.7999 140.45C92.8499 140.2 92.8999 139.96 92.9499 139.71C93.2399 138.28 93.5899 136.86 93.9799 135.45C94.0999 135.01 94.2299 134.58 94.3699 134.14C94.4799 133.79 95.0599 132.2 94.5199 133.62C94.8799 132.65 95.2199 131.68 95.6199 130.72C96.0399 129.72 96.4899 128.73 96.9799 127.76C97.1899 127.35 97.4099 126.94 97.6299 126.54C97.1499 127.4 97.6199 126.57 97.7099 126.42C97.8999 126.1 98.0999 125.79 98.3099 125.47C98.8699 124.61 99.4799 123.79 100.14 123C100.5 122.57 100.87 122.16 101.26 121.76C101.3 121.71 101.97 121.09 101.49 121.53C101.76 121.28 102.04 121.04 102.32 120.8C103.89 119.51 105.63 118.62 107.5 117.86C111.01 116.46 114.59 115.25 118.18 114.06C126.85 111.19 135.22 108.68 143.96 106.12C147.94 104.96 151.94 103.54 156.01 102.73C160.08 101.92 163.88 101.26 167.86 100.84C169.83 100.63 171.87 100.43 173.85 100.64C174.96 100.76 175.22 100.85 176.14 101.22C177.24 101.66 178.3 102.22 179.3 102.86C180.21 103.44 181.42 104.35 182.01 104.9C182.11 105 182.73 105.64 182.99 105.96C183.18 106.19 183.36 106.42 183.54 106.66C183.68 106.85 184.22 107.92 183.81 107.03C183.86 107.13 184.07 107.74 184.15 107.78L183.96 107.19C184.01 107.36 184.06 107.53 184.1 107.7L183.95 106.92C183.99 107.33 183.99 107.26 183.95 106.71C183.94 105.97 183.94 105.28 184.12 104.55C183.89 105.47 184.55 103.58 184.15 104.47C183.75 105.36 184.66 103.77 184.15 104.49C183.75 105.06 183.35 105.63 182.92 106.18C180.74 108.91 178.22 111.36 175.75 113.82C173.28 116.28 170.63 119.01 168.15 121.68C163.3 126.91 158.67 132.33 154.26 137.94C152.01 140.8 149.82 143.72 147.7 146.67C146.17 148.8 144.59 150.92 143.28 153.2C144.19 151.62 143.26 153.21 143.04 153.59C142.63 154.28 142.2 154.96 141.77 155.63C140.69 157.3 139.54 158.93 138.28 160.46C137.69 161.17 137.08 161.85 136.43 162.5C136.96 161.96 135.98 162.89 135.8 163.03C135.43 163.33 135.03 163.61 134.62 163.85C134.35 164 134.08 164.13 133.8 164.25C134.33 164.2 133.28 164.47 133.8 164.25C133.64 164.26 133.49 164.3 133.33 164.3C133.21 164.3 132.98 164.24 132.88 164.28C132.48 164.4 133.5 164.49 132.83 164.28C132.16 164.07 131.52 163.86 130.85 163.71C130.18 163.56 129.52 163.48 128.85 163.36C128.53 163.31 128.22 163.23 127.91 163.16C128.64 163.3 127.7 163.06 127.46 162.94C127.11 162.76 126.79 162.55 126.49 162.31C126.31 162.17 126.14 162.02 125.96 161.86C126.51 162.35 125.83 161.71 125.77 161.64C124.71 160.49 123.82 159.21 122.93 157.93C119.79 153.42 115.26 149.89 110.66 146.97C108.2 145.41 105.6 143.75 102.76 143C102.52 142.94 102.27 142.87 102.03 142.8C101.86 142.75 101.02 142.49 101.7 142.71C100.82 142.43 99.9499 142.13 99.0899 141.79C97.2699 141.08 95.4699 140.22 93.8999 139.04C93.7299 138.91 92.8399 138.11 93.4099 138.68C93.0999 138.37 92.8399 138.03 92.5599 137.69C92.3999 137.49 92.0399 136.8 92.6099 137.83C92.4299 137.5 92.2999 136.82 92.6799 138.18C92.4499 137.36 92.8599 139.54 92.7699 138.69C92.8899 139.71 92.7899 140.61 92.6099 141.6C93.0399 139.31 93.3299 136.18 91.7599 134.21C90.2899 132.38 88.7899 134.65 88.5099 136.15C87.8199 139.87 87.9099 144.04 90.2899 147.19C91.5899 148.9 93.4699 150.16 95.3599 151.12C97.0399 151.97 98.8099 152.62 100.6 153.18C101.33 153.41 102.06 153.63 102.79 153.82C102.91 153.85 103.09 153.93 103.21 153.93C102.84 153.95 102.53 153.67 103.07 153.92C106.97 155.73 110.68 158.04 114.07 160.69C116.34 162.46 118.09 164.04 119.85 166.35C121.61 168.66 123.06 171.23 125.45 172.92C126.78 173.86 128.38 174.07 129.95 174.35C130.35 174.42 130.75 174.5 131.14 174.59C131.25 174.62 131.77 174.76 131.62 174.72C131.6 174.72 132.34 174.97 132.56 175.02C133.4 175.21 134.16 175 134.96 174.7C136.79 174.02 138.29 172.44 139.57 171.04C141 169.49 142.26 167.78 143.45 166.03C144.32 164.74 145.15 163.41 145.94 162.07C146.17 161.67 146.4 161.26 146.64 160.85C146.73 160.69 146.92 160.31 146.56 161.01C146.12 161.85 146.7 160.87 146.84 160.68C147.1 160.3 147.36 159.93 147.62 159.55C148.18 158.74 148.75 157.93 149.32 157.13C153.71 150.95 158.38 144.96 163.3 139.18C168.22 133.4 173.41 127.86 178.8 122.52C181.28 120.06 183.84 117.57 185.92 114.75C188.25 111.59 189.11 107.69 188.51 103.8C187.57 97.72 182.92 92.96 177.29 90.76C173.09 89.12 168.53 89.88 164.19 90.51C159.43 91.2 154.91 92.16 150.31 93.49C141.68 95.97 133.08 98.52 124.51 101.21C120.1 102.59 115.7 104.01 111.35 105.55C107.7 106.84 103.85 108.03 100.86 110.56C94.0399 116.34 90.6199 125.63 88.8799 134.17C88.7099 135.02 88.5499 135.87 88.3999 136.72C88.3699 136.87 88.3499 137.02 88.3199 137.17C88.1899 137.94 88.5299 136.04 88.5099 136.17C88.0499 138.44 87.8099 141.61 89.3599 143.56C90.8399 145.41 92.3099 143.1 92.6099 141.62L92.5899 141.64Z" fill="#1D1D1B"/>
<path d="M64.34 178.69C64.24 178.38 64.08 178.08 63.87 177.83C63.42 177.29 62.93 176.75 62.14 176.78C61.61 176.8 61.19 177.09 60.79 177.4C60.75 177.43 60.71 177.47 60.67 177.51C60.49 177.7 60.29 177.93 60.15 178.17C60.14 178.19 60.12 178.22 60.11 178.25C59.99 178.49 59.86 178.74 59.76 179C59.64 179.3 59.58 179.63 59.51 179.95C59.38 180.56 59.42 181.41 59.56 182.02C59.59 182.16 59.68 182.43 59.69 182.45C59.71 182.51 59.77 182.75 59.82 182.88C59.87 183.01 59.97 183.17 60.03 183.28C60.09 183.39 60.16 183.56 60.25 183.68C60.25 183.68 60.26 183.7 60.27 183.71C60.41 183.89 60.59 184.09 60.75 184.25C60.79 184.29 60.83 184.32 60.88 184.36C61 184.44 61.32 184.67 61.54 184.75C61.57 184.75 61.59 184.77 61.62 184.77C61.83 184.81 62.06 184.86 62.27 184.88C62.32 184.88 62.38 184.88 62.43 184.88C62.68 184.86 62.93 184.78 63.16 184.72C63.21 184.71 63.27 184.69 63.32 184.66C63.37 184.63 63.42 184.61 63.47 184.58C63.64 184.47 63.92 184.3 64.11 184.13C64.31 183.95 64.52 183.65 64.65 183.48C64.68 183.44 64.71 183.39 64.74 183.34C64.87 183.1 65.04 182.8 65.12 182.52C65.2 182.24 65.28 181.94 65.34 181.65C65.34 181.64 65.34 181.63 65.34 181.62C65.34 181.61 65.34 181.6 65.34 181.59L65.4 180.69C65.42 180.34 65.35 179.97 65.29 179.65C65.29 179.62 65.28 179.6 65.27 179.57C65.21 179.34 65.1 178.98 65.02 178.75C65.02 178.73 65.01 178.72 65 178.7C64.76 178.1 64.47 177.72 64.02 177.28C63.98 177.24 63.94 177.21 63.9 177.18C63.71 177.05 63.51 176.93 63.31 176.82C63.29 176.81 63.26 176.79 63.24 176.78C63.18 176.75 63.12 176.73 63.06 176.72C62.81 176.65 62.55 176.61 62.3 176.58C62.18 176.57 62.06 176.58 61.94 176.6C61.76 176.64 61.42 176.69 61.2 176.79C61.17 176.8 61.14 176.82 61.12 176.83C60.92 176.94 60.73 177.09 60.54 177.22C60.49 177.26 60.44 177.3 60.4 177.34L60.18 177.61C59.92 177.88 59.74 178.2 59.63 178.57C59.62 178.61 59.46 179.14 59.42 179.41C59.38 179.73 59.37 180.05 59.36 180.37C59.36 180.81 59.43 181.23 59.58 181.63C59.67 182.01 59.82 182.36 60.05 182.67L60.5 183.17C60.81 183.45 61.18 183.59 61.6 183.59C61.62 183.59 61.63 183.59 61.65 183.59C61.77 183.59 61.65 183.59 61.97 183.52C62.18 183.51 62.37 183.43 62.52 183.28C62.63 183.24 62.72 183.17 62.79 183.09C62.83 183.05 62.87 183.01 62.92 182.98L62.4 183.33C62.49 183.27 62.59 183.23 62.69 183.2L62.1 183.33C62.24 183.3 62.38 183.3 62.53 183.32L61.94 183.21C62.07 183.23 62.19 183.28 62.3 183.35L61.76 183.02C61.83 183.06 61.88 183.11 61.94 183.17L61.48 182.65C61.48 182.65 61.55 182.74 61.58 182.78L61.22 182.11C61.22 182.11 61.26 182.19 61.27 182.23L61.03 181.43C61.03 181.43 61.05 181.51 61.06 181.55L60.96 180.66C60.96 180.66 60.96 180.74 60.96 180.78L61.02 179.88C61.02 179.88 61.02 179.95 61 179.98L61.2 179.17C61.2 179.17 61.17 179.27 61.15 179.31L61.48 178.62C61.45 178.68 61.42 178.73 61.38 178.78L61.82 178.24C61.76 178.31 61.69 178.37 61.61 178.43L62.13 178.08C62.03 178.15 61.91 178.2 61.79 178.23L62.38 178.1C62.27 178.12 62.17 178.13 62.06 178.11L62.65 178.22C62.57 178.21 62.5 178.18 62.43 178.14L62.97 178.47C62.97 178.47 62.88 178.4 62.84 178.36L63.3 178.88C63.3 178.88 63.24 178.81 63.22 178.77L63.58 179.44C63.58 179.44 63.55 179.38 63.54 179.35L63.78 180.15C63.78 180.15 63.76 180.09 63.76 180.06L63.86 180.95C63.86 180.95 63.86 180.87 63.86 180.84L63.8 181.74C63.8 181.74 63.81 181.65 63.82 181.61L63.62 182.42C63.63 182.37 63.65 182.31 63.68 182.26L63.35 182.95C63.39 182.87 63.44 182.8 63.49 182.73L63.05 183.27C63.11 183.2 63.18 183.13 63.25 183.08L62.73 183.43C62.96 183.28 63.14 183.25 63.39 183C63.48 182.92 63.55 182.83 63.61 182.73C63.7 182.65 63.78 182.55 63.83 182.45C63.83 182.44 63.84 182.43 63.85 182.41C63.87 182.39 63.88 182.36 63.9 182.34L63.48 182.85C63.52 182.8 63.57 182.75 63.63 182.71L63.16 183.03C63.16 183.03 63.24 182.98 63.28 182.97C63.63 182.8 63.9 182.54 64.1 182.21C64.29 181.92 64.41 181.61 64.47 181.27C64.58 180.91 64.63 180.54 64.61 180.16C64.61 179.66 64.5 179.18 64.32 178.71L64.34 178.69Z" fill="#1D1D1B"/>
<path d="M73.74 177.67C73.61 177.48 73.45 177.31 73.29 177.15C73.24 177.1 73.19 177.06 73.14 177.03C72.93 176.89 72.68 176.71 72.42 176.65C72.21 176.6 71.88 176.51 71.63 176.55C71.1 176.64 70.94 176.68 70.52 177.03C70.33 177.19 70.11 177.5 70 177.64C69.97 177.68 69.94 177.73 69.92 177.77C69.82 177.96 69.68 178.24 69.6 178.44C69.6 178.45 69.6 178.46 69.59 178.47C69.49 178.74 69.43 179.03 69.37 179.32C69.26 179.91 69.28 180.77 69.42 181.35C69.45 181.49 69.51 181.66 69.55 181.78C69.59 181.9 69.63 182.07 69.68 182.21C69.68 182.23 69.7 182.26 69.71 182.28C69.84 182.56 69.98 182.84 70.16 183.1C70.18 183.12 70.2 183.15 70.21 183.17C70.29 183.27 70.39 183.38 70.46 183.45C70.52 183.52 70.63 183.65 70.72 183.74C70.74 183.76 70.76 183.77 70.78 183.79C70.98 183.92 71.18 184.05 71.39 184.16C71.66 184.3 72.04 184.33 72.3 184.37C72.42 184.39 72.54 184.38 72.66 184.36C72.83 184.32 73.18 184.27 73.39 184.18C73.63 184.07 73.86 183.89 74.06 183.74C74.11 183.7 74.15 183.66 74.19 183.62C74.36 183.44 74.52 183.23 74.67 183.03C74.69 183 74.71 182.98 74.73 182.95C75.11 182.34 75.24 181.82 75.4 181.13C75.41 181.07 75.43 181.01 75.43 180.95C75.46 180.6 75.51 180.23 75.49 179.88C75.47 179.53 75.44 179.17 75.37 178.82C75.37 178.79 75.36 178.76 75.35 178.73C75.28 178.47 75.18 178.16 75.1 177.91C75.1 177.89 75.09 177.87 75.08 177.85C74.98 177.56 74.79 177.28 74.65 177.03C74.52 176.8 74.23 176.47 74.09 176.36C73.87 176.19 73.64 176.05 73.39 175.93C73.32 175.9 73.25 175.87 73.17 175.85C72.95 175.8 72.72 175.76 72.5 175.73C72.47 175.73 72.43 175.73 72.4 175.72C72.32 175.72 72.24 175.72 72.17 175.72C71.91 175.76 71.65 175.82 71.4 175.9C71.33 175.92 71.26 175.95 71.2 175.99C70.96 176.12 70.73 176.28 70.51 176.46C70.28 176.65 70.1 176.92 69.93 177.15C69.71 177.49 69.57 177.85 69.5 178.25C69.37 178.67 69.31 179.11 69.34 179.55C69.34 180 69.41 180.43 69.56 180.85C69.65 181.24 69.81 181.6 70.04 181.92L70.5 182.44C70.82 182.73 71.2 182.87 71.63 182.87L72.22 182.74C72.63 182.54 72.95 182.24 73.18 181.85C73.18 181.84 73.2 181.83 73.21 181.82L72.77 182.36C72.83 182.29 72.9 182.23 72.97 182.18L72.45 182.53C72.56 182.46 72.69 182.4 72.82 182.37L72.23 182.5C72.38 182.47 72.54 182.46 72.69 182.49L72.1 182.38C72.23 182.4 72.34 182.45 72.45 182.51L71.91 182.18C71.91 182.18 71.97 182.22 72 182.24L71.54 181.72C71.58 181.77 71.62 181.83 71.65 181.89L71.29 181.22C71.32 181.28 71.35 181.34 71.37 181.41L71.13 180.61C71.15 180.68 71.16 180.74 71.17 180.81L71.07 179.92C71.07 179.99 71.07 180.06 71.07 180.12L71.13 179.22C71.13 179.29 71.11 179.37 71.1 179.44L71.3 178.63C71.28 178.7 71.26 178.77 71.23 178.84L71.56 178.15C71.52 178.22 71.48 178.29 71.43 178.35L71.87 177.81C71.81 177.88 71.75 177.94 71.68 177.99L72.2 177.64C72.12 177.69 72.03 177.73 71.93 177.76L72.52 177.63C72.39 177.66 72.26 177.66 72.14 177.63L72.73 177.74C72.6 177.72 72.48 177.67 72.37 177.6L72.91 177.93C72.68 177.79 72.45 177.65 72.21 177.51L72.74 177.83C72.68 177.79 72.62 177.74 72.57 177.69L73.02 178.19C73.02 178.19 72.96 178.11 72.93 178.06L73.28 178.71C73.28 178.71 73.25 178.63 73.23 178.59L73.46 179.36C73.46 179.36 73.44 179.29 73.44 179.25L73.54 180.1C73.54 180.1 73.54 180.02 73.54 179.99L73.49 180.84C73.49 180.84 73.5 180.75 73.51 180.71L73.32 181.47C73.33 181.41 73.35 181.35 73.38 181.3L73.08 181.94C73.22 181.66 73.36 181.37 73.49 181.08L73.19 181.7C73.23 181.61 73.28 181.53 73.35 181.45L72.98 181.91C73.05 181.83 73.12 181.75 73.21 181.69L72.79 181.97C72.87 181.92 72.95 181.88 73.04 181.86L72.59 181.96C72.59 181.96 72.68 181.94 72.73 181.94L73.16 181.84L73.54 181.58L73.86 181.18C74.02 180.93 74.13 180.66 74.18 180.37C74.25 180.17 74.28 179.96 74.28 179.74C74.31 179.52 74.31 179.3 74.26 179.08C74.26 178.86 74.21 178.66 74.13 178.46C74.06 178.17 73.95 177.91 73.77 177.67H73.74Z" fill="#1D1D1B"/>
<path d="M87.83 182.94C87.71 182.83 87.57 182.76 87.43 182.67C87.29 182.58 87.16 182.48 87 182.44C86.77 182.37 86.53 182.34 86.3 182.31C86.24 182.31 86.17 182.31 86.11 182.31C86.08 182.31 86.05 182.31 86.01 182.33C85.8 182.37 85.58 182.42 85.38 182.48C85.32 182.5 85.25 182.52 85.2 182.55C84.91 182.69 84.63 182.88 84.4 183.1C84.38 183.12 84.36 183.14 84.34 183.16C84.17 183.34 84.01 183.55 83.86 183.75C83.82 183.8 83.79 183.85 83.76 183.91C83.63 184.16 83.47 184.44 83.38 184.73C83.34 184.87 83.3 185.05 83.27 185.17C83.25 185.25 83.19 185.46 83.16 185.6C83.16 185.63 83.15 185.67 83.15 185.7C83.08 186.46 83.06 186.87 83.2 187.63C83.26 187.96 83.36 188.29 83.5 188.6C83.61 188.85 83.76 189.1 83.89 189.33C83.91 189.36 83.92 189.38 83.94 189.41C84.1 189.64 84.3 189.85 84.51 190.05C84.55 190.09 84.6 190.12 84.64 190.16C84.82 190.28 85.03 190.41 85.23 190.52C85.26 190.54 85.29 190.55 85.32 190.56C85.37 190.58 85.43 190.6 85.48 190.62C85.51 190.62 85.54 190.63 85.57 190.64C85.79 190.68 86.01 190.73 86.23 190.76C86.35 190.77 86.48 190.77 86.6 190.76C86.85 190.72 87.1 190.66 87.34 190.59C87.4 190.57 87.47 190.55 87.53 190.52C87.58 190.5 87.63 190.47 87.67 190.44C87.86 190.32 88.07 190.18 88.25 190.05C88.27 190.03 88.3 190.01 88.32 189.99C88.57 189.76 88.81 189.48 88.96 189.17C89.08 188.93 89.22 188.67 89.31 188.42C89.32 188.39 89.33 188.36 89.34 188.33C89.41 188.08 89.5 187.75 89.55 187.49C89.55 187.47 89.55 187.45 89.56 187.43C89.61 187.1 89.62 186.76 89.63 186.43C89.63 186.4 89.63 186.36 89.63 186.33C89.63 186.31 89.63 186.29 89.63 186.27C89.61 185.99 89.57 185.63 89.53 185.35C89.53 185.32 89.52 185.28 89.51 185.25C89.51 185.23 89.51 185.22 89.5 185.2C89.43 184.93 89.33 184.61 89.24 184.35C89.13 184.04 88.93 183.72 88.78 183.47C88.74 183.4 88.69 183.33 88.64 183.27C88.46 183.04 88.25 182.79 88.01 182.59C87.8 182.41 87.53 182.27 87.29 182.13C86.97 181.94 86.61 181.9 86.24 181.85C85.87 181.8 85.51 181.91 85.17 182.01C84.86 182.15 84.61 182.35 84.43 182.63C84.17 182.9 83.99 183.22 83.88 183.59C83.73 184 83.65 184.42 83.65 184.85C83.6 185.3 83.62 185.75 83.72 186.19L83.96 186.99C84.14 187.45 84.42 187.85 84.78 188.18L85.32 188.51C85.72 188.66 86.11 188.65 86.5 188.48C86.53 188.48 86.55 188.47 86.58 188.46L85.99 188.59C86.13 188.56 86.26 188.56 86.4 188.59L85.81 188.48C85.97 188.51 86.12 188.57 86.26 188.66L85.72 188.33C85.84 188.4 85.94 188.49 86.04 188.6L85.58 188.08C85.65 188.16 85.71 188.24 85.76 188.33L85.4 187.66C85.44 187.73 85.47 187.8 85.49 187.87L85.25 187.07C85.27 187.13 85.28 187.2 85.29 187.27L85.19 186.38C85.19 186.44 85.19 186.5 85.19 186.56L85.25 185.66C85.25 185.71 85.24 185.76 85.23 185.81L85.43 185C85.41 185.06 85.4 185.12 85.37 185.17L85.7 184.48C85.67 184.54 85.63 184.6 85.59 184.65L86.03 184.11C85.97 184.18 85.9 184.25 85.82 184.3L86.34 183.95C86.21 184.04 86.07 184.09 85.92 184.13L86.51 184C86.34 184.04 86.16 184.04 85.99 184.01L86.58 184.12C86.45 184.09 86.32 184.05 86.2 183.98L86.74 184.31C86.67 184.26 86.6 184.21 86.54 184.14L87 184.66C87 184.66 86.93 184.56 86.9 184.51L87.26 185.18C87.26 185.18 87.22 185.09 87.2 185.04L87.44 185.84C87.42 185.78 87.41 185.71 87.4 185.65L87.5 186.54C87.5 186.54 87.5 186.45 87.5 186.41L87.44 187.3C87.44 187.24 87.45 187.18 87.47 187.13L87.27 187.93C87.29 187.86 87.31 187.8 87.34 187.74L87.02 188.42C87.06 188.33 87.12 188.25 87.18 188.17L86.76 188.69C86.84 188.59 86.93 188.51 87.03 188.44L86.53 188.78C86.65 188.7 86.78 188.64 86.92 188.61L86.36 188.74C86.46 188.72 86.57 188.71 86.67 188.74L86.11 188.64C86.19 188.66 86.27 188.69 86.35 188.73L85.85 188.43C85.85 188.43 85.88 188.45 85.89 188.45C86.11 188.67 86.37 188.78 86.67 188.8C86.95 188.89 87.22 188.86 87.49 188.72C87.78 188.59 88.01 188.4 88.18 188.14C88.42 187.89 88.59 187.59 88.69 187.25L88.88 186.49C88.96 185.93 88.95 185.37 88.84 184.82L88.61 184.08C88.44 183.65 88.19 183.28 87.84 182.97L87.83 182.94Z" fill="#1D1D1B"/>
<path d="M72.57 187.3C72.45 187.36 72.35 187.44 72.24 187.52C72.15 187.58 72.01 187.66 71.91 187.75C71.7 187.94 71.52 188.18 71.36 188.42C71.28 188.55 71.2 188.73 71.15 188.84C71.08 188.98 71 189.12 70.95 189.27C70.9 189.4 70.85 189.67 70.84 189.7C70.83 189.76 70.76 189.99 70.73 190.13C70.73 190.15 70.73 190.17 70.72 190.19V190.22C70.7 190.52 70.68 190.82 70.66 191.12C70.66 191.3 70.69 191.47 70.71 191.66C70.73 191.85 70.74 192.02 70.78 192.2C70.83 192.4 70.96 192.82 71.03 193.02C71.03 193.04 71.04 193.05 71.05 193.07C71.05 193.09 71.07 193.11 71.08 193.13C71.18 193.35 71.33 193.62 71.46 193.84C71.48 193.88 71.5 193.91 71.53 193.94C71.68 194.14 71.87 194.34 72.05 194.52C72.11 194.58 72.17 194.63 72.24 194.68C72.44 194.81 72.65 194.94 72.85 195.05C72.89 195.07 72.92 195.09 72.96 195.11C73.04 195.14 73.12 195.17 73.2 195.18C73.46 195.23 73.73 195.3 73.99 195.31C74.06 195.31 74.14 195.31 74.21 195.3C74.47 195.26 74.73 195.2 74.98 195.12C75.05 195.1 75.13 195.07 75.2 195.03C75.26 195 75.32 194.96 75.38 194.93C75.61 194.78 75.86 194.63 76.06 194.45C76.11 194.4 76.16 194.35 76.21 194.3C76.41 194.08 76.6 193.84 76.77 193.6C76.99 193.28 77.16 192.91 77.29 192.54C77.4 192.23 77.47 191.89 77.54 191.56C77.59 191.34 77.59 191.12 77.6 190.89C77.61 190.69 77.64 190.46 77.63 190.25C77.61 189.93 77.57 189.59 77.52 189.28C77.52 189.24 77.51 189.2 77.5 189.16C77.43 188.87 77.33 188.57 77.24 188.28C77.23 188.25 77.22 188.22 77.21 188.19C77.2 188.16 77.18 188.13 77.17 188.1C77.05 187.85 76.91 187.59 76.77 187.35C76.74 187.3 76.7 187.25 76.67 187.2C76.49 186.98 76.3 186.75 76.08 186.55C76.03 186.51 75.98 186.47 75.93 186.43C75.71 186.28 75.48 186.14 75.25 186.02C75.13 185.96 75.01 185.91 74.88 185.88C74.62 185.82 74.36 185.77 74.09 185.74C74.01 185.74 73.94 185.73 73.86 185.73C73.53 185.73 73.18 185.84 72.87 185.92C72.73 185.96 72.59 186.02 72.47 186.1C72.25 186.24 72.01 186.38 71.81 186.56C71.59 186.76 71.41 187.02 71.23 187.25C71.01 187.59 70.87 187.95 70.8 188.35C70.67 188.77 70.61 189.21 70.64 189.65C70.64 190.1 70.71 190.53 70.86 190.95C70.95 191.34 71.11 191.7 71.34 192.02L71.8 192.54C72.12 192.83 72.5 192.97 72.93 192.97L73.52 192.84C73.93 192.64 74.25 192.34 74.48 191.95L74.5 191.93L74.06 192.47C74.14 192.38 74.23 192.3 74.33 192.23L73.81 192.58C73.95 192.49 74.1 192.42 74.27 192.39L73.68 192.52C73.9 192.47 74.13 192.47 74.35 192.51L73.76 192.4C73.95 192.44 74.14 192.51 74.31 192.61L73.77 192.28C73.88 192.35 73.98 192.43 74.07 192.52L73.61 192C73.68 192.08 73.74 192.16 73.79 192.25L73.43 191.58C73.46 191.64 73.49 191.71 73.51 191.77L73.27 190.97C73.29 191.04 73.31 191.11 73.32 191.19L73.22 190.3C73.22 190.38 73.23 190.47 73.22 190.55L73.28 189.65C73.28 189.73 73.26 189.82 73.24 189.9L73.44 189.09C73.41 189.19 73.38 189.29 73.33 189.39L73.66 188.7C73.6 188.82 73.53 188.92 73.46 189.02L73.9 188.48C73.8 188.6 73.68 188.71 73.55 188.81L74.07 188.46C73.92 188.56 73.76 188.63 73.59 188.68L74.18 188.55C74.02 188.58 73.87 188.59 73.71 188.57L74.3 188.68C74.14 188.65 74 188.6 73.86 188.52L74.4 188.85C74.32 188.8 74.25 188.74 74.18 188.67L74.64 189.19C74.59 189.14 74.55 189.08 74.52 189.02L74.88 189.69C74.85 189.64 74.83 189.58 74.81 189.53L75.05 190.33C75.05 190.33 75.04 190.27 75.03 190.24L75.13 191.13C75.13 191.08 75.13 191.02 75.13 190.97L75.07 191.87C75.07 191.82 75.08 191.76 75.1 191.71L74.9 192.52C74.9 192.52 74.93 192.44 74.94 192.4L74.61 193.08C74.64 193.02 74.67 192.97 74.71 192.92L74.28 193.45C74.28 193.45 74.37 193.36 74.42 193.32C74.69 193.08 74.88 192.79 75.01 192.45C75.2 192.1 75.32 191.72 75.37 191.32L75.43 190.44C75.43 190 75.36 189.58 75.21 189.17C75.16 188.91 75.06 188.67 74.91 188.45C74.77 188.12 74.56 187.85 74.28 187.61L73.75 187.29C73.36 187.14 72.98 187.15 72.6 187.32L72.57 187.3Z" fill="#1D1D1B"/>
<path d="M64.1999 194.35C64.1999 194.35 64.29 194.39 64.33 194.41L63.9 194.15C63.98 194.2 64.0399 194.25 64.0999 194.32L63.72 193.89C63.77 193.95 63.8099 194.01 63.8499 194.08L63.54 193.51C63.58 193.58 63.61 193.65 63.63 193.72L63.4199 193.03C63.4399 193.09 63.45 193.14 63.45 193.2L63.36 192.42C63.36 192.47 63.36 192.53 63.36 192.58L63.41 191.78C63.41 191.78 63.4099 191.86 63.3899 191.9L63.57 191.17C63.57 191.17 63.5499 191.25 63.5299 191.28L63.83 190.65C63.83 190.65 63.7899 190.73 63.7599 190.76L64.16 190.26C64.16 190.26 64.0799 190.34 64.0299 190.37L64.5199 190.04C64.3299 190.17 64.1399 190.3 63.9599 190.43L64.4499 190.1C64.3699 190.15 64.2899 190.19 64.1999 190.21L64.76 190.08C64.63 190.11 64.5099 190.11 64.3799 190.08L64.9599 190.18C64.8499 190.16 64.7399 190.12 64.6399 190.06L65.1699 190.38C65.0999 190.34 65.0499 190.29 64.9899 190.23L65.4499 190.75C65.2799 190.56 65.11 190.36 64.93 190.17L65.3899 190.69C65.3899 190.69 65.32 190.61 65.3 190.56L65.66 191.23C65.66 191.23 65.62 191.14 65.61 191.1L65.8499 191.9C65.8499 191.9 65.83 191.81 65.82 191.76L65.9199 192.65C65.9199 192.6 65.9199 192.54 65.9199 192.49L65.86 193.39C65.86 193.34 65.8699 193.28 65.8899 193.23L65.69 194.04C65.71 193.98 65.73 193.92 65.76 193.86L65.43 194.55C65.46 194.49 65.5 194.43 65.54 194.37L65.0999 194.91C65.1499 194.85 65.2099 194.79 65.2699 194.75L64.75 195.1C64.81 195.06 64.8799 195.03 64.9499 195.01C65.2599 194.87 65.51 194.67 65.69 194.39C65.95 194.12 66.1299 193.8 66.2399 193.43C66.3899 193.02 66.47 192.6 66.47 192.17C66.52 191.72 66.5 191.27 66.4 190.83L66.16 190.03C65.98 189.57 65.6999 189.17 65.3399 188.84L64.8 188.51C64.4 188.36 64.0099 188.37 63.6199 188.54C63.5799 188.55 63.5399 188.56 63.5099 188.58C63.4899 188.58 63.47 188.6 63.45 188.61C63.26 188.72 63.0699 188.86 62.8899 188.99C62.8599 189.01 62.8299 189.04 62.7999 189.06C62.7799 189.07 62.7699 189.09 62.7599 189.11C62.5999 189.29 62.44 189.49 62.29 189.68C62.27 189.71 62.24 189.74 62.22 189.78C62.07 190.03 61.95 190.31 61.83 190.58C61.81 190.61 61.8 190.65 61.79 190.69C61.79 190.7 61.79 190.71 61.79 190.72C61.72 190.97 61.64 191.29 61.58 191.55C61.58 191.57 61.58 191.59 61.57 191.61C61.56 191.63 61.57 191.65 61.57 191.67C61.57 191.68 61.57 191.69 61.57 191.7C61.55 191.97 61.5199 192.34 61.5099 192.61C61.5099 192.65 61.5099 192.7 61.5099 192.74C61.5399 193.06 61.55 193.41 61.63 193.74C61.63 193.76 61.6299 193.78 61.6399 193.79C61.7099 194.03 61.8099 194.37 61.8899 194.61C61.8899 194.62 61.89 194.63 61.9 194.65C61.9 194.67 61.9099 194.68 61.9199 194.7C61.9199 194.7 61.92 194.72 61.93 194.73C62.03 194.93 62.1899 195.22 62.2999 195.42C62.3199 195.46 62.3499 195.49 62.3699 195.53C62.5199 195.71 62.69 195.97 62.91 196.12C63.11 196.26 63.32 196.4 63.54 196.5C63.57 196.52 63.61 196.53 63.65 196.54C63.67 196.54 63.69 196.54 63.7 196.55C63.9 196.59 64.1299 196.64 64.3399 196.66C64.4199 196.67 64.4999 196.66 64.5899 196.66C64.8599 196.62 65.1299 196.57 65.3899 196.47C65.4299 196.45 65.47 196.44 65.5 196.42C65.52 196.41 65.5399 196.4 65.5599 196.39C65.7399 196.28 65.9299 196.15 66.0999 196.02C66.1299 196 66.16 195.97 66.19 195.94C66.21 195.92 66.2199 195.91 66.2399 195.89C66.2399 195.89 66.25 195.87 66.26 195.86L66.6699 195.35H66.68C67.01 194.85 67.1499 194.28 67.2699 193.72C67.2699 193.68 67.28 193.64 67.29 193.6C67.31 193.36 67.3399 193 67.3399 192.76C67.3399 192.75 67.3399 192.74 67.3399 192.73C67.3399 192.71 67.3399 192.69 67.3399 192.67C67.3199 192.43 67.28 192.08 67.25 191.84C67.25 191.83 67.25 191.82 67.25 191.81C67.25 191.79 67.2499 191.77 67.2399 191.75C67.2099 191.62 67.16 191.47 67.12 191.35C67.08 191.23 67.0399 191.07 66.9899 190.94C66.9899 190.92 66.9699 190.9 66.9599 190.88C66.8699 190.69 66.7399 190.46 66.6299 190.27C66.6299 190.26 66.62 190.25 66.61 190.24C66.59 190.2 66.56 190.17 66.54 190.14C66.41 189.98 66.26 189.81 66.11 189.66C66.09 189.64 66.0799 189.63 66.0599 189.62C65.9599 189.54 65.8399 189.47 65.7399 189.41C65.5899 189.32 65.4499 189.22 65.2799 189.18C65.1099 189.14 64.92 189.11 64.75 189.09C64.73 189.09 64.7 189.09 64.68 189.09C64.63 189.09 64.5799 189.09 64.5299 189.11C64.2699 189.11 64.05 189.19 63.86 189.36C63.62 189.49 63.44 189.68 63.31 189.93L63.0499 190.48C62.9299 190.8 62.8699 191.14 62.8699 191.48C62.8299 191.72 62.8399 191.95 62.8899 192.19C62.9099 192.53 62.9799 192.86 63.1199 193.18L63.41 193.71C63.61 194.01 63.8699 194.23 64.1999 194.38V194.35Z" fill="#1D1D1B"/>
<path d="M77.48 200.56C77.4 198.82 77.42 201.46 77.44 201.22C77.44 201.07 77.48 200.71 77.48 200.57C77.48 200.45 77.45 200.32 77.44 200.21C77.4 199.82 77.4 199.84 77.29 199.47C77.25 199.34 77.21 199.19 77.16 199.06C77.12 198.95 77.05 198.85 77 198.75C76.8 198.37 76.9 198.52 76.63 198.22C76.5 198.08 76.49 198.03 76.38 197.96C76.22 197.86 75.99 197.7 75.79 197.61C75.68 197.56 75.63 197.57 75.46 197.54C75.09 197.47 75.25 197.47 74.88 197.55C74.72 197.59 74.67 197.57 74.57 197.63C74.47 197.69 74.36 197.77 74.27 197.83C74.18 197.89 74.06 197.96 73.97 198.04C73.95 198.06 73.93 198.07 73.91 198.09C73.91 198.09 73.9 198.1 73.89 198.11C73.75 198.27 73.58 198.48 73.45 198.65C73.35 198.79 73.29 198.94 73.22 199.1C73.18 199.18 73.08 199.36 73.04 199.49C73.04 199.5 73.04 199.51 73.03 199.53L72.83 200.32C72.83 200.32 72.83 200.34 72.83 200.35C72.83 200.37 72.83 200.39 72.83 200.42L72.8 200.86C72.79 201.01 72.78 201.17 72.77 201.32C72.77 201.33 72.77 201.35 72.77 201.36C72.77 201.51 72.83 201.88 72.82 201.82C72.82 201.82 72.85 202.15 72.87 202.29C72.87 202.3 72.87 202.31 72.87 202.32C72.9 202.46 72.95 202.6 73 202.74C73.03 202.88 73.07 203.01 73.12 203.14C73.12 203.16 73.14 203.19 73.15 203.21C73.27 203.45 73.4 203.71 73.54 203.93C73.57 203.98 73.6 204.02 73.64 204.06C73.74 204.18 74 204.49 74.12 204.59C74.12 204.59 74.14 204.6 74.14 204.61C74.16 204.62 74.18 204.64 74.2 204.65C74.41 204.8 74.63 204.93 74.86 205.05C74.95 205.1 75.05 205.13 75.16 205.15C75.42 205.2 75.75 205.29 76.04 205.28C76.33 205.27 76.64 205.18 76.92 205.1C77.02 205.07 77.11 205.03 77.19 204.98C77.38 204.86 77.58 204.73 77.76 204.59C77.78 204.58 77.8 204.56 77.81 204.55C78.01 204.37 78.22 204.08 78.34 203.91C78.37 203.87 78.4 203.83 78.42 203.78C78.48 203.66 78.56 203.48 78.6 203.41C78.64 203.33 78.73 203.16 78.78 203.03C78.79 203 78.8 202.97 78.81 202.95C78.86 202.81 78.9 202.58 78.92 202.51C78.94 202.43 79 202.21 79.03 202.07C79.03 202.04 79.03 202.02 79.04 201.99C79.04 201.98 79.04 201.96 79.04 201.95C79.06 201.74 79.09 201.25 79.1 201.04C79.1 201.01 79.1 200.97 79.1 200.94C79.1 200.93 79.1 200.91 79.1 200.9C79.08 200.68 79.03 200.22 79 199.99C79 199.96 79 199.94 78.99 199.91C78.99 199.88 78.98 199.85 78.97 199.82C78.89 199.53 78.81 199.23 78.71 198.96C78.7 198.93 78.68 198.9 78.67 198.87C78.55 198.62 78.41 198.36 78.27 198.13C78.24 198.08 78.21 198.03 78.17 197.98C77.99 197.75 77.8 197.53 77.59 197.33C77.54 197.29 77.49 197.25 77.44 197.21C77.25 197.08 77.05 196.96 76.85 196.85C76.82 196.83 76.79 196.82 76.76 196.81C76.61 196.75 76.45 196.73 76.3 196.71C76.15 196.68 75.99 196.64 75.83 196.64C75.8 196.64 75.77 196.64 75.74 196.64C75.52 196.68 75.28 196.74 75.07 196.79C74.76 196.93 74.51 197.13 74.33 197.41C74.07 197.68 73.89 198 73.78 198.37C73.63 198.78 73.55 199.2 73.55 199.63C73.5 200.08 73.52 200.53 73.62 200.97L73.86 201.77C74.04 202.23 74.32 202.63 74.68 202.96L75.22 203.29C75.62 203.44 76.01 203.43 76.4 203.26C76.41 203.26 76.43 203.26 76.44 203.25L75.85 203.38C75.95 203.36 76.05 203.36 76.16 203.38L75.57 203.27C75.68 203.29 75.78 203.33 75.87 203.39L75.33 203.06C75.42 203.12 75.5 203.18 75.57 203.26L75.11 202.74C75.17 202.81 75.22 202.88 75.27 202.96L74.91 202.29C74.95 202.36 74.97 202.43 75 202.5L74.76 201.7C74.78 201.76 74.79 201.81 74.8 201.87L74.7 200.98C74.7 201.03 74.7 201.08 74.7 201.13L74.76 200.23C74.76 200.28 74.75 200.33 74.74 200.38L74.94 199.57C74.93 199.62 74.91 199.67 74.89 199.72L75.22 199.03C75.19 199.09 75.16 199.14 75.12 199.19L75.56 198.65C75.51 198.71 75.45 198.76 75.39 198.81L75.91 198.46C75.8 198.53 75.69 198.58 75.57 198.61L76.16 198.48C76 198.52 75.84 198.52 75.67 198.49L76.26 198.6C76.12 198.57 75.99 198.53 75.86 198.45L76.4 198.78C76.3 198.72 76.2 198.64 76.12 198.55L76.58 199.06C76.58 199.06 76.54 199.01 76.52 198.98L76.88 199.65C76.88 199.65 76.86 199.6 76.85 199.58L77.09 200.37C77.09 200.37 77.08 200.32 77.07 200.29L77.17 201.17C77.17 201.17 77.17 201.1 77.17 201.07L77.11 201.95C77.11 201.95 77.11 201.88 77.13 201.85L76.93 202.64C76.93 202.64 76.96 202.55 76.98 202.5L76.66 203.17C76.69 203.11 76.72 203.06 76.77 203.01L76.35 203.53C76.53 203.32 76.7 203.17 76.86 202.91C77.02 202.65 77.1 202.39 77.22 202.13L76.92 202.76C76.92 202.76 76.97 202.68 76.99 202.63C77.26 202.18 77.27 202.08 77.38 201.65C77.42 201.51 77.45 201.4 77.47 201.27L77.3 201.96C77.3 201.96 77.32 201.89 77.33 201.86C77.48 201.45 77.56 201 77.54 200.56H77.48Z" fill="#1D1D1B"/>
<path d="M88.0399 194.97C87.8499 194.83 87.6499 194.71 87.4399 194.6C87.3899 194.57 87.3299 194.55 87.2799 194.54C87.0399 194.49 86.7099 194.39 86.4399 194.44C86.2399 194.47 86.0399 194.53 85.8499 194.57C85.8299 194.57 85.7999 194.58 85.7799 194.59C85.7299 194.61 85.6699 194.63 85.6199 194.66C85.4099 194.77 85.2099 194.92 85.0199 195.06C84.9699 195.09 84.9299 195.13 84.8899 195.17C84.4299 195.64 84.2699 195.97 84.0099 196.56C84.0099 196.58 83.9899 196.61 83.9799 196.63C83.9799 196.64 83.9799 196.65 83.9699 196.66C83.8999 196.88 83.8199 197.23 83.7699 197.45C83.7699 197.47 83.7599 197.5 83.7499 197.52C83.7499 197.53 83.7499 197.54 83.7499 197.56C83.7399 197.71 83.7299 197.86 83.7199 198.01C83.7099 198.16 83.6999 198.31 83.6899 198.46C83.6899 198.49 83.6899 198.51 83.6899 198.54C83.6999 198.79 83.7599 199.18 83.7899 199.43C83.7899 199.44 83.7899 199.46 83.7899 199.47C83.7899 199.49 83.7899 199.52 83.8099 199.54C83.8699 199.77 83.9799 200.11 84.0499 200.34C84.0499 200.36 84.0599 200.37 84.0699 200.39C84.1699 200.66 84.3399 200.92 84.4799 201.16C84.5099 201.21 84.5399 201.25 84.5699 201.29C84.7399 201.5 84.9799 201.82 85.2399 201.99C85.5099 202.17 85.7399 202.35 86.0399 202.41C86.2699 202.46 86.5099 202.51 86.7499 202.53C86.7999 202.53 86.8599 202.53 86.9099 202.53C87.1999 202.51 87.4999 202.44 87.7699 202.34C87.8099 202.32 87.8499 202.3 87.8899 202.28C87.9099 202.27 87.9299 202.26 87.9499 202.24C88.1399 202.12 88.3399 201.99 88.5199 201.85C88.5599 201.82 88.5899 201.78 88.6199 201.75C88.7599 201.59 88.9399 201.37 89.0699 201.2C89.0699 201.2 89.0799 201.18 89.0899 201.17C89.1099 201.15 89.1199 201.12 89.1399 201.1C89.4599 200.51 89.6599 200 89.7599 199.33C89.7799 199.16 89.7899 198.96 89.7999 198.82C89.7999 198.67 89.8299 198.47 89.8299 198.3C89.8299 197.95 89.7699 197.61 89.7199 197.26C89.6699 196.91 89.5399 196.59 89.4399 196.3C89.4199 196.24 89.3999 196.19 89.3699 196.13C89.2499 195.89 89.1099 195.63 88.9699 195.4C88.9499 195.37 88.9399 195.34 88.9199 195.32C88.7499 195.09 88.5499 194.88 88.3499 194.68C88.3099 194.64 88.2599 194.6 88.2099 194.56C87.9999 194.41 87.7699 194.26 87.5299 194.15C87.4799 194.12 87.4199 194.1 87.3599 194.09C87.3499 194.09 87.3399 194.09 87.3199 194.09C87.1199 194.05 86.8899 194 86.6899 193.98C86.6599 193.98 86.6299 193.98 86.5899 193.98C86.2599 193.98 85.9799 194.08 85.7399 194.29C85.4399 194.46 85.2099 194.69 85.0399 195.01C84.8199 195.35 84.6799 195.71 84.6099 196.11C84.4799 196.53 84.4199 196.97 84.4499 197.41L84.5499 198.3C84.6499 198.83 84.8599 199.32 85.1599 199.77L85.6199 200.29C85.9399 200.58 86.3199 200.72 86.7499 200.72C86.7899 200.72 86.8299 200.72 86.8699 200.73L86.2799 200.62C86.3899 200.64 86.4899 200.68 86.5799 200.73L86.0399 200.4C86.1299 200.45 86.1999 200.52 86.2699 200.6L85.8099 200.08C85.8699 200.14 85.9099 200.21 85.9499 200.29L85.5899 199.62C85.6299 199.69 85.6599 199.76 85.6799 199.83L85.4399 199.03C85.4599 199.09 85.4699 199.15 85.4799 199.22L85.3799 198.33C85.3799 198.39 85.3799 198.44 85.3799 198.5L85.4399 197.6C85.4399 197.65 85.4299 197.7 85.4199 197.75L85.6199 196.94C85.6199 196.94 85.5899 197.04 85.5699 197.08L85.8999 196.39C85.8699 196.45 85.8399 196.5 85.7999 196.55L86.2399 196.01C86.1899 196.06 86.1399 196.11 86.0899 196.15L86.6099 195.8C86.5199 195.86 86.4199 195.9 86.3099 195.93L86.8999 195.8C86.7599 195.83 86.6099 195.83 86.4599 195.8L87.0499 195.91C86.8999 195.88 86.7399 195.83 86.5999 195.75L87.1299 196.07C87.0699 196.03 87.0199 195.99 86.9699 195.94L87.4199 196.45C87.4199 196.45 87.3499 196.36 87.3299 196.32L87.6799 196.98C87.6799 196.98 87.6499 196.9 87.6299 196.86L87.8699 197.64C87.8699 197.64 87.8499 197.57 87.8499 197.53L87.9499 198.39C87.9499 198.39 87.9499 198.3 87.9499 198.26L87.8999 199.12C87.8999 199.12 87.9099 199.03 87.9199 198.99L87.7299 199.76C87.7499 199.69 87.7699 199.63 87.7999 199.57L87.4899 200.22C87.5299 200.15 87.5699 200.08 87.6199 200.01L87.2099 200.51C87.2799 200.42 87.3699 200.34 87.4699 200.27L86.9899 200.6C87.0799 200.54 87.1899 200.49 87.2899 200.46L86.7599 200.58C86.8499 200.56 86.9499 200.55 87.0399 200.57L86.5099 200.48C86.5599 200.48 86.6099 200.5 86.6599 200.52C86.9199 200.64 87.1899 200.65 87.4499 200.55C87.7299 200.52 87.9699 200.39 88.1699 200.18L88.5599 199.7C88.7499 199.4 88.8799 199.07 88.9399 198.72C89.0199 198.47 89.0599 198.22 89.0599 197.96C89.1099 197.56 89.0899 197.16 88.9999 196.76L88.7799 196.05C88.6199 195.64 88.3699 195.29 88.0499 194.99L88.0399 194.97Z" fill="#1D1D1B"/>
<path d="M98.2299 191.09C98.1699 191.06 98.1199 191.04 98.0599 191.02C97.8099 190.95 97.5599 190.91 97.3099 190.89C97.2499 190.89 97.1899 190.89 97.1299 190.89C97.0999 190.89 97.0799 190.89 97.0499 190.9C96.8299 190.94 96.5999 191 96.3699 191.06C96.2499 191.09 96.1399 191.14 96.0299 191.21C95.8299 191.33 95.6399 191.47 95.4499 191.6C95.4299 191.62 95.3999 191.63 95.3799 191.65C95.3299 191.69 95.2799 191.74 95.2299 191.79C95.2099 191.81 95.1899 191.84 95.1699 191.86C95.0099 192.05 94.8399 192.25 94.6999 192.45C94.6599 192.51 94.6199 192.56 94.5899 192.63C94.4599 192.87 94.3399 193.13 94.2299 193.38C94.2199 193.41 94.2099 193.44 94.1999 193.46C94.0899 193.78 94.0099 194.11 93.9499 194.44C93.8199 195.15 93.8699 195.86 93.9899 196.56C93.9899 196.59 93.9999 196.61 94.0099 196.64C94.0499 196.79 94.0999 196.95 94.1399 197.08C94.1699 197.19 94.2199 197.37 94.2699 197.51C94.3799 197.82 94.5399 198.12 94.7299 198.39C94.8799 198.61 95.0699 198.81 95.2599 198.99C95.2699 199 95.2899 199.01 95.2999 199.02C95.3099 199.02 95.3199 199.04 95.3399 199.04L95.8799 199.37C96.1099 199.49 96.4099 199.51 96.6399 199.53C96.6699 199.53 96.7099 199.53 96.7399 199.53C96.8499 199.51 96.9899 199.47 97.0699 199.45C97.1599 199.43 97.2999 199.4 97.4099 199.37C97.4399 199.36 97.4799 199.34 97.5099 199.33C97.7199 199.21 97.9199 199.06 98.1099 198.92L97.5899 199.27C97.7899 199.14 98.0099 199.01 98.1899 198.86C98.2199 198.83 98.2499 198.81 98.2699 198.78C98.4399 198.58 98.6199 198.39 98.7599 198.17C98.7699 198.15 98.7799 198.14 98.7899 198.12C98.7899 198.12 98.7999 198.1 98.8099 198.09L99.1399 197.39C99.2799 197.07 99.3599 196.71 99.4099 196.36C99.4599 196.01 99.4799 195.68 99.4699 195.35C99.4699 195.32 99.4699 195.3 99.4699 195.27C99.4399 194.96 99.4099 194.62 99.3599 194.32C99.2499 193.64 98.9299 192.9 98.5499 192.32C98.5499 192.31 98.5399 192.3 98.5299 192.29L98.0599 191.76C98.0599 191.76 98.0299 191.72 98.0099 191.7C97.9799 191.67 97.9499 191.64 97.9199 191.61C97.8499 191.54 97.7799 191.48 97.7099 191.42C97.4699 191.19 97.1899 191.06 96.8799 191.04C96.5799 190.95 96.2899 190.97 95.9999 191.12L95.4799 191.47C95.2099 191.72 95.0099 192.01 94.8799 192.35C94.7399 192.58 94.6499 192.83 94.6099 193.1C94.4799 193.52 94.4199 193.96 94.4499 194.4L94.5499 195.29C94.6499 195.82 94.8599 196.31 95.1599 196.76C95.2499 196.9 95.3399 197.04 95.4199 197.19L95.0499 196.5C95.0499 196.5 95.0699 196.53 95.0799 196.55L95.4499 197.24C95.4499 197.24 95.4899 197.29 95.4999 197.32C95.5299 197.37 95.5599 197.42 95.5899 197.47L95.2199 196.78C95.2599 196.85 95.2899 196.92 95.3099 197L95.0599 196.19C95.0699 196.24 95.0899 196.29 95.0899 196.35L94.9899 195.44C94.9899 195.44 94.9899 195.52 94.9899 195.57L95.0499 194.66C95.0499 194.66 95.0499 194.73 95.0299 194.77L95.2399 193.95C95.2299 194 95.2099 194.05 95.1899 194.1L95.5199 193.4C95.4899 193.46 95.4599 193.51 95.4199 193.55L95.8599 193.01C95.8599 193.01 95.7799 193.1 95.7299 193.14L96.2499 192.79C96.1899 192.83 96.1199 192.87 96.0399 192.89L96.6299 192.76C96.5699 192.77 96.5099 192.78 96.4499 192.76L97.0399 192.87C97.0399 192.87 96.9499 192.84 96.9099 192.82L97.4499 193.15C97.4499 193.15 97.3699 193.09 97.3399 193.05L97.7999 193.57C97.7999 193.57 97.7499 193.5 97.7199 193.46L98.0799 194.13C98.0499 194.08 98.0299 194.02 98.0099 193.97L98.2499 194.77C98.2299 194.72 98.2199 194.66 98.2199 194.61L98.3199 195.5C98.3199 195.45 98.3199 195.39 98.3199 195.34L98.2599 196.24C98.2599 196.18 98.2699 196.12 98.2899 196.06L98.0899 196.87C98.1099 196.8 98.1299 196.73 98.1699 196.66L97.8399 197.35C97.8799 197.26 97.9299 197.18 97.9899 197.11L97.5499 197.65C97.6399 197.54 97.7399 197.45 97.8599 197.37L97.3399 197.72C97.4699 197.63 97.6199 197.57 97.7699 197.53L97.1799 197.66C97.3099 197.63 97.4299 197.63 97.5599 197.65L96.9699 197.54C97.0599 197.56 97.1399 197.58 97.2199 197.62C97.5199 197.75 97.8099 197.77 98.0999 197.66C98.4199 197.62 98.6899 197.48 98.9099 197.24C99.1799 196.99 99.3799 196.7 99.5099 196.36C99.7099 196 99.8299 195.62 99.8799 195.2L99.9399 194.3C99.9299 193.71 99.8099 193.15 99.5999 192.6L99.2399 191.93C98.9899 191.55 98.6599 191.27 98.2399 191.09H98.2299Z" fill="#1D1D1B"/>
<path d="M103.72 203.01C103.44 202.72 103.06 202.5 102.69 202.33C102.6 202.29 102.5 202.25 102.41 202.23C102.14 202.16 101.85 202.1 101.57 202.08C101.02 202.05 100.47 202.49 100.11 202.9C99.87 203.18 99.58 203.51 99.39 203.84C98.33 205.68 98.2 208.06 99.03 210.02L99.42 210.74C99.61 211.06 99.87 211.31 100.2 211.47C100.37 211.62 100.57 211.7 100.8 211.7C101.12 211.8 101.43 211.77 101.74 211.61C102.14 211.5 102.46 211.24 102.79 211.01C103.12 210.78 103.37 210.42 103.63 210.09C103.91 209.73 104.1 209.29 104.27 208.86C104.29 208.82 104.3 208.78 104.31 208.73C104.41 208.41 104.49 208.06 104.56 207.73C104.62 207.48 104.61 207.21 104.63 206.95C104.65 206.69 104.68 206.43 104.65 206.17C104.61 205.76 104.6 205.33 104.49 204.92C104.28 204.09 104.06 203.48 103.61 202.76C103.38 202.39 103.06 202.05 102.72 201.79C102.17 201.37 101.95 201.35 101.27 201.26C101.18 201.25 101.08 201.24 100.99 201.25L100.35 201.4C100.01 201.55 99.74 201.78 99.54 202.08C99.35 202.27 99.21 202.49 99.12 202.75C98.9 203.14 98.77 203.56 98.72 204.01C98.64 204.66 98.65 205.32 98.77 205.97C98.92 206.79 99.34 207.57 99.93 208.14C99.98 208.19 100.03 208.24 100.07 208.29L99.56 207.71C99.62 207.79 99.68 207.86 99.74 207.95C99.94 208.24 100.2 208.47 100.43 208.72L99.9 208.12C100.04 208.28 100.17 208.45 100.27 208.64L99.85 207.86C99.9 207.95 99.94 208.05 99.97 208.15L99.69 207.24C99.72 207.34 99.74 207.44 99.75 207.55L99.64 206.54C99.64 206.63 99.64 206.72 99.64 206.82L99.7 205.81C99.7 205.9 99.68 205.99 99.66 206.09L99.89 205.19C99.86 205.31 99.82 205.43 99.77 205.55L100.13 204.79C100.06 204.93 99.98 205.07 99.88 205.19L100.35 204.6C100.24 204.73 100.11 204.85 99.97 204.95L100.53 204.57C100.45 204.62 100.37 204.67 100.28 204.71L102.6 205.58C102.6 205.58 102.56 205.51 102.54 205.47L102.93 206.19C102.88 206.09 102.83 205.98 102.8 205.87L103.06 206.71C103.02 206.59 103 206.46 102.98 206.33L103.09 207.26C103.08 207.13 103.07 207 103.09 206.86L103.03 207.79C103.04 207.64 103.06 207.49 103.1 207.35L102.89 208.18C102.93 208.03 102.98 207.89 103.04 207.76L102.71 208.45C102.76 208.34 102.82 208.24 102.9 208.15L102.46 208.69C102.56 208.57 102.68 208.45 102.81 208.36L101.7 208.85C101.75 208.85 101.8 208.86 101.85 208.87L101.26 208.76C101.46 208.8 101.64 208.87 101.82 208.98L101.28 208.65C101.39 208.72 101.5 208.81 101.59 208.9C101.83 209.13 102.11 209.26 102.42 209.28C102.72 209.37 103.01 209.35 103.3 209.2C103.61 209.06 103.86 208.86 104.04 208.58C104.3 208.31 104.48 207.99 104.59 207.62C104.86 206.8 104.95 205.86 104.75 205.01L104.51 204.21C104.33 203.75 104.05 203.35 103.69 203.02L103.72 203.01Z" fill="#1D1D1B"/>
<path d="M87.6899 203.6C87.4299 203.62 87.1599 203.7 86.8999 203.77C86.8299 203.79 86.7599 203.82 86.6899 203.85C86.3899 204.01 86.0699 204.2 85.8399 204.46C85.6099 204.72 85.3299 205.02 85.1699 205.35C85.0299 205.63 84.8699 205.92 84.7699 206.22C84.6499 206.55 84.5799 206.9 84.5099 207.24C84.4199 207.67 84.3899 208.13 84.4199 208.57C84.4699 209.33 84.5799 209.94 84.8399 210.65C84.9799 211.02 85.1599 211.39 85.4199 211.69C85.6099 211.91 85.7899 212.16 86.0199 212.34C86.0499 212.36 86.0799 212.38 86.1099 212.4C86.3099 212.54 86.5299 212.67 86.7399 212.78C86.8099 212.82 86.8799 212.84 86.9499 212.87C87.2099 212.95 87.4899 212.99 87.7699 213.02C87.9299 213.04 88.0999 213.02 88.2599 212.99C88.5899 212.92 88.9799 212.86 89.2899 212.69C89.5399 212.56 89.7599 212.39 89.9899 212.23C90.0599 212.18 90.1299 212.12 90.1999 212.06C90.4199 211.86 90.5899 211.61 90.7699 211.37C90.8199 211.3 90.8699 211.24 90.9099 211.17C91.2599 210.55 91.4599 209.96 91.5899 209.26C91.5899 209.22 91.5999 209.18 91.6099 209.13C91.6399 208.8 91.6699 208.46 91.6699 208.13C91.6699 208.08 91.6699 208.04 91.6699 207.99C91.6399 207.66 91.6099 207.32 91.5499 206.99C91.4099 206.26 91.1399 205.7 90.7799 205.07C90.7299 204.98 90.6699 204.89 90.5999 204.81C90.3999 204.56 90.1899 204.31 89.9399 204.09C89.8599 204.02 89.7799 203.96 89.6899 203.9C89.4499 203.74 89.1799 203.56 88.8999 203.44C88.7999 203.4 88.6999 203.36 88.5999 203.34C88.3199 203.27 88.0399 203.21 87.7499 203.19C87.6499 203.19 87.5399 203.19 87.4399 203.19C87.3199 203.21 87.2099 203.24 87.0999 203.27C86.9899 203.27 86.8799 203.31 86.7699 203.35L86.2499 203.7C86.2499 203.7 86.1599 203.79 86.1199 203.84L85.6999 204.36L85.3799 205.03L85.1799 205.81C85.0999 206.25 85.0999 206.68 85.1799 207.11C85.1799 207.39 85.2399 207.67 85.3499 207.93C85.3999 208.19 85.4999 208.42 85.6399 208.64C85.7299 208.86 85.8599 209.05 86.0399 209.21C86.2299 209.47 86.4799 209.66 86.7799 209.78C86.9399 209.84 87.0399 209.86 87.2299 209.89C87.4599 209.93 87.5099 209.94 87.6999 209.93C87.8299 209.93 87.9499 209.93 88.0799 209.95L87.4899 209.84C87.7099 209.88 87.9199 209.96 88.1099 210.07L87.5699 209.74C87.7299 209.84 87.8799 209.96 87.9999 210.1L87.5399 209.58C87.6299 209.68 87.7099 209.8 87.7799 209.92L87.4199 209.25C87.4599 209.33 87.4999 209.42 87.5299 209.5L87.2899 208.7C87.3199 208.79 87.3399 208.88 87.3499 208.97L87.2499 208.08C87.2499 208.15 87.2499 208.22 87.2499 208.29L87.3099 207.39C87.3099 207.48 87.2899 207.56 87.2699 207.64L87.4699 206.83C87.4499 206.91 87.4199 206.99 87.3799 207.06L87.7099 206.37C87.6599 206.47 87.5999 206.57 87.5299 206.66L87.9699 206.12C87.8699 206.24 87.7499 206.34 87.6199 206.43L88.1399 206.08C87.9499 206.2 87.7499 206.29 87.5399 206.34L88.1299 206.21C87.9399 206.25 87.7399 206.26 87.5499 206.23L88.1399 206.34C87.9899 206.31 87.8499 206.26 87.7099 206.18L88.2499 206.51C88.1599 206.45 88.0699 206.38 87.9999 206.3L88.4599 206.82C88.3999 206.76 88.3599 206.69 88.3099 206.61L88.6699 207.28C88.6299 207.2 88.5999 207.13 88.5699 207.05L88.8099 207.85C88.7899 207.78 88.7699 207.7 88.7599 207.63L88.8599 208.52C88.8499 208.42 88.8499 208.33 88.8599 208.23L88.7999 209.13C88.7999 209.03 88.8199 208.94 88.8399 208.84L88.6399 209.65C88.6699 209.54 88.7099 209.43 88.7599 209.32L88.4299 210.01C88.4799 209.91 88.5399 209.81 88.6099 209.72L88.1699 210.26C88.2499 210.17 88.3299 210.08 88.4299 210.01L87.9099 210.36C88.0199 210.29 88.1399 210.23 88.2599 210.2L87.6699 210.33C87.7299 210.32 87.7799 210.31 87.8399 210.3C88.1699 210.3 88.4499 210.2 88.6899 209.99C88.9899 209.82 89.2199 209.59 89.3899 209.27C89.6099 208.93 89.7499 208.57 89.8199 208.17C89.9499 207.75 90.0099 207.31 89.9799 206.87L89.8799 205.98C89.7799 205.45 89.5699 204.96 89.2699 204.51C88.8899 204.02 88.3599 203.5 87.6799 203.56L87.6899 203.6Z" fill="#1D1D1B"/>
<path d="M69.16 224.13C68.78 223.71 68.26 223.33 67.72 223.14C67.38 223.02 67.03 222.99 66.69 223.05C66.35 223.11 65.93 223.18 65.6 223.35C64.9 223.7 64.28 224.42 63.89 225.07C63.42 225.85 63.1 226.77 62.98 227.67C62.52 231.1 64.1 234.59 67.11 236.33C69.2 237.54 72.06 236.9 73.61 235.09C74.77 233.74 75.34 232.15 75.45 230.38C75.56 228.61 75.14 226.78 74.23 225.17C73.52 223.91 72.31 222.93 70.99 222.38C70.34 222.11 69.61 221.97 68.92 221.91C68.66 221.89 68.38 221.88 68.12 221.91C67.38 221.99 66.97 222.31 66.37 222.72L65.92 223.27C65.7 223.62 65.55 223.99 65.48 224.4C65.3 225.12 65.24 225.93 65.42 226.66C65.55 227.19 65.74 227.71 66.04 228.18C66.42 228.77 66.99 229.09 67.67 229.16C67.85 229.18 68.05 229.23 68.23 229.22C68.44 229.21 68.65 229.15 68.86 229.13C69.26 229.1 69.66 229.13 70.05 229.2L69.43 229.09C69.96 229.19 70.44 229.38 70.9 229.66L70.34 229.32C70.66 229.52 70.94 229.76 71.2 230.04L70.73 229.51C70.93 229.74 71.1 229.98 71.25 230.25L70.88 229.57C71.02 229.84 71.14 230.11 71.23 230.4L70.99 229.59C71.05 229.81 71.1 230.03 71.13 230.26L71.03 229.37C71.05 229.6 71.06 229.82 71.05 230.05L71.11 229.15C71.09 229.42 71.05 229.67 70.99 229.93L71.19 229.12C71.13 229.34 71.06 229.55 70.96 229.76L71.29 229.07C71.16 229.34 71.01 229.58 70.82 229.82L71.26 229.28C71.02 229.56 70.76 229.8 70.46 230.02L70.98 229.67C70.55 229.96 70.09 230.16 69.59 230.28L70.18 230.15C69.71 230.25 69.25 230.26 68.78 230.19L69.37 230.3C68.93 230.21 68.52 230.05 68.13 229.82L68.67 230.15C68.2 229.86 67.79 229.5 67.42 229.09L67.88 229.61C67.61 229.29 67.37 228.96 67.17 228.59L67.53 229.26C67.38 228.97 67.25 228.67 67.15 228.35L67.39 229.15C67.32 228.91 67.28 228.68 67.24 228.44L67.34 229.33C67.32 229.13 67.32 228.93 67.32 228.73L67.26 229.63C67.28 229.43 67.31 229.23 67.35 229.03L67.15 229.84C67.2 229.67 67.26 229.5 67.33 229.34L67 230.03C67.1 229.83 67.21 229.66 67.35 229.48L66.91 230.02C67.23 229.64 67.62 229.25 68.03 228.95L67.54 229.28C67.82 229.09 68.12 228.92 68.37 228.68C68.5 228.56 68.63 228.45 68.77 228.35L68.35 228.63C68.52 228.52 68.7 228.43 68.89 228.36C69.61 228.09 69.88 227.08 69.92 226.42C69.98 225.55 69.73 224.8 69.14 224.15L69.16 224.13Z" fill="#1D1D1B"/>
<path d="M75.1899 244.23C74.7599 244.01 74.2999 243.82 73.8299 243.71C73.2299 243.57 73.1599 243.58 72.5699 243.74C72.4499 243.77 72.3299 243.81 72.2099 243.84C71.9299 243.93 71.6799 244.05 71.4299 244.21C70.0999 245.07 69.0899 246.28 68.6099 247.81C68.0299 249.65 67.9799 251.79 68.7899 253.58C69.4799 255.1 70.6499 256.3 72.1899 256.97C74.4199 257.94 77.2399 257.47 78.9599 255.72C81.2999 253.32 81.7499 249.63 80.6399 246.55C80.1599 245.22 79.1899 243.95 77.9899 243.19C77.6099 242.95 77.2199 242.7 76.7999 242.54C76.3799 242.38 75.9399 242.32 75.5099 242.26C74.5599 242.12 73.7899 242.51 73.0999 243.15C72.2099 243.98 71.9999 245.4 72.1199 246.54C72.2399 247.57 72.6999 248.9 73.7799 249.31C74.2199 249.48 74.5999 249.61 75.0899 249.66C75.3599 249.69 75.6299 249.68 75.9099 249.73L75.2599 249.61C75.7999 249.72 76.3099 249.88 76.7899 250.16L76.2099 249.81C76.5499 250.02 76.8499 250.27 77.1199 250.57L76.6399 250.03C76.7999 250.22 76.9499 250.43 77.0699 250.65L76.6999 249.96C76.8199 250.19 76.9199 250.42 76.9899 250.67L76.7399 249.86C76.7799 250 76.8099 250.15 76.8399 250.29L76.7399 249.39C76.7699 249.65 76.7699 249.91 76.7599 250.17L76.8199 249.27C76.7999 249.53 76.7599 249.79 76.6899 250.05L76.8899 249.24C76.8099 249.53 76.7099 249.81 76.5799 250.09L76.9099 249.4C76.7599 249.71 76.5799 249.99 76.3599 250.26L76.7999 249.72C76.5599 250.01 76.2799 250.26 75.9699 250.48L76.4899 250.13C76.0399 250.43 75.5599 250.63 75.0399 250.76L75.6299 250.63C74.9799 250.77 74.3299 250.78 73.6799 250.68L74.2699 250.79C73.6999 250.68 73.1699 250.48 72.6599 250.19L73.1999 250.52C72.8299 250.29 72.4999 250.01 72.2099 249.69L72.6699 250.21C72.5299 250.04 72.3999 249.86 72.2899 249.67L72.6499 250.34C72.5499 250.16 72.4699 249.97 72.4099 249.78L72.6499 250.58C72.5899 250.39 72.5499 250.19 72.5299 249.99L72.6299 250.88C72.6099 250.68 72.6099 250.48 72.6299 250.28L72.5699 251.18C72.5899 250.98 72.6199 250.78 72.6699 250.58L72.4699 251.39C72.5299 251.15 72.6099 250.92 72.7099 250.7L72.3799 251.39C72.5099 251.13 72.6499 250.89 72.8299 250.66L72.3899 251.2C72.6599 250.88 72.9599 250.6 73.2999 250.36L72.7799 250.71C73.0599 250.53 73.3399 250.34 73.6099 250.15L73.0899 250.5C73.5499 250.2 74.0699 250 74.4799 249.64C74.7799 249.38 75.0499 249.12 75.3799 248.89L74.9699 249.17C75.0799 249.09 75.1899 249.02 75.3099 248.95C76.8299 248 76.8499 245.1 75.1899 244.25V244.23Z" fill="#1D1D1B"/>
<path d="M63.76 262.62L64.44 264.96L64.39 265.79C64.68 264.24 64.04 262.07 62.41 261.47C61.88 261.28 61.25 261.18 60.69 261.26C60.13 261.34 59.58 261.47 59.11 261.76C58.34 262.22 57.84 262.73 57.31 263.45C56.52 264.52 56.06 266.01 55.87 267.31C55.57 269.4 55.97 271.66 57.57 273.15C58.3 273.83 59.31 274.21 60.25 274.49C61.19 274.77 62.14 275 63.1 275.01C64.22 275.03 65.34 274.65 66.18 273.89C67.49 272.69 68.03 270.7 67.91 268.97C67.79 267.24 67.22 265.45 66.04 264.09C65.53 263.5 65 262.97 64.4 262.47C64.19 262.29 63.97 262.11 63.75 261.94C63.39 261.66 62.96 261.46 62.57 261.22L63.16 261.58C63 261.48 62.84 261.38 62.69 261.27C62.12 260.88 61.52 260.66 60.84 260.95C60.16 261.24 59.67 262.01 59.46 262.65C59.17 263.54 59.07 264.54 59.29 265.45L59.55 266.31C59.75 266.81 60.04 267.24 60.44 267.59C60.67 267.85 60.92 268.1 61.17 268.34C61.42 268.58 61.74 268.76 62.03 268.95C62.59 269.32 63.13 269.71 63.59 270.2L63.09 269.65C63.3 269.88 63.47 270.13 63.62 270.41L63.23 269.69C63.34 269.91 63.43 270.13 63.51 270.36L63.25 269.52C63.3 269.68 63.33 269.85 63.36 270.02L63.25 269.08C63.27 269.25 63.27 269.41 63.27 269.58L63.33 268.64C63.32 268.77 63.3 268.9 63.27 269.03L63.48 268.18C63.45 268.31 63.4 268.43 63.35 268.55L63.69 267.83C63.62 267.98 63.53 268.12 63.43 268.26L63.88 267.7C63.74 267.87 63.59 268.01 63.42 268.14L63.96 267.78C63.68 267.97 63.38 268.09 63.06 268.16L63.66 268.02C62.96 268.17 62.24 268.11 61.53 267.99L62.13 268.1C61.26 267.94 60.35 267.72 59.58 267.27L60.12 267.6C59.9 267.46 59.7 267.31 59.52 267.12L59.98 267.64C59.87 267.52 59.78 267.39 59.71 267.25L60.07 267.92C60.02 267.82 59.98 267.71 59.94 267.6L60.18 268.4C60.15 268.28 60.12 268.17 60.11 268.05L60.21 268.94C60.19 268.78 60.19 268.62 60.2 268.45L60.14 269.35C60.16 269.03 60.22 268.72 60.29 268.41L60.09 269.22C60.19 268.83 60.32 268.45 60.49 268.09L60.16 268.78C60.31 268.49 60.48 268.22 60.68 267.96L60.24 268.5C60.43 268.28 60.63 268.09 60.87 267.92L60.35 268.27C60.62 268.09 60.91 267.97 61.23 267.89L60.64 268.02C60.96 267.96 61.27 267.94 61.59 267.99L61 267.88C61.16 267.91 61.3 267.96 61.45 268.01C61.75 268.11 62.06 268.13 62.37 268.17L62.94 268.04L63.44 267.7C63.89 267.29 64.13 266.7 64.28 266.12C64.43 265.54 64.45 265.01 64.38 264.43C64.31 263.81 64.15 263.08 63.75 262.57L63.76 262.62Z" fill="#1D1D1B"/>
<path d="M48.62 239.03L48.59 238.97C48.31 238.46 47.61 238.03 47.03 238.04C46.26 238.04 45.64 238.47 45.04 238.92C44.57 239.27 44.19 239.75 43.84 240.23C42.95 241.47 42.6 243.08 42.59 244.58C42.59 246.34 43.26 248.05 44.43 249.35C45.2 250.21 46.22 250.92 47.37 251.17C48.6 251.44 49.73 251.43 50.93 250.97C52.04 250.55 53.01 249.64 53.59 248.62C54.36 247.26 54.76 245.66 54.66 244.09C54.6 243.13 54.42 242.23 54.07 241.33C53.72 240.43 53.24 239.79 52.62 239.11C51.68 238.09 50.4 237.6 49.07 237.38C48.57 237.3 48.07 237.26 47.56 237.27C47.31 237.27 47.08 237.32 46.83 237.38C46.44 237.47 46.18 237.52 45.85 237.74C45.64 237.89 45.58 237.91 45.45 238.06C45.22 238.34 44.99 238.62 44.77 238.91C44.48 239.39 44.3 239.91 44.22 240.46C44.14 240.93 44.13 241.39 44.22 241.85C44.32 242.75 44.62 243.79 45.38 244.37C45.49 244.45 45.59 244.54 45.7 244.62C46.18 244.98 46.65 245.15 47.23 245.14C47.54 245.14 47.85 245.1 48.16 245.08C48.75 245.05 49.34 245.08 49.92 245.18L49.25 245.06C49.7 245.15 50.12 245.29 50.52 245.51L49.93 245.15C50.19 245.31 50.42 245.49 50.63 245.71L50.13 245.16C50.28 245.33 50.41 245.52 50.52 245.72L50.14 245.01C50.2 245.14 50.25 245.27 50.29 245.41L50.03 244.57C50.09 244.77 50.12 244.96 50.15 245.17L50.04 244.23C50.06 244.44 50.06 244.64 50.04 244.85L50.1 243.91C50.08 244.12 50.05 244.32 50 244.53L50.21 243.69C50.15 243.92 50.07 244.15 49.97 244.37L50.31 243.66C50.18 243.93 50.02 244.18 49.83 244.42L50.28 243.87C50.08 244.1 49.86 244.3 49.61 244.48L50.14 244.12C49.79 244.35 49.41 244.52 49 244.62L49.59 244.48C49.05 244.59 48.5 244.6 47.96 244.51L48.56 244.62C48.05 244.52 47.56 244.34 47.11 244.08L47.65 244.41C47.3 244.19 46.99 243.93 46.71 243.62L47.17 244.14C46.98 243.92 46.82 243.68 46.68 243.42L47.04 244.1C46.95 243.92 46.87 243.73 46.81 243.53L47.05 244.33C47.01 244.19 46.98 244.05 46.96 243.91L47.06 244.81C47.04 244.64 47.04 244.47 47.04 244.29L46.98 245.19C46.99 244.99 47.03 244.79 47.07 244.59L46.87 245.4C46.93 245.17 47.01 244.96 47.11 244.75L46.78 245.44C46.9 245.2 47.04 244.98 47.2 244.78L46.76 245.32C46.98 245.05 47.23 244.81 47.52 244.61L47 244.96C47.4 244.7 47.82 244.54 48.2 244.24L47.68 244.59C48 244.38 48.25 244.22 48.48 243.93C48.88 243.44 49.13 242.82 49.22 242.19C49.26 241.91 49.28 241.57 49.28 241.28C49.28 240.45 49 239.74 48.61 239.03H48.62Z" fill="#1D1D1B"/>
<path d="M49.98 210C49.58 209.46 49.05 208.96 48.4 208.75C47.75 208.54 47.01 208.57 46.4 208.81C45.68 209.09 45.12 209.81 44.72 210.45C44.36 211.02 44.09 211.65 43.83 212.27C42.62 215.11 42.39 219.07 45.01 221.23C45.87 221.93 46.99 222.36 48.11 222.34C49.29 222.32 50.36 221.78 51.26 221.05C52.23 220.26 52.92 219.11 53.37 217.96C54.05 216.23 54.11 214.1 53.35 212.39C52.72 210.98 51.63 209.82 50.19 209.23C49.54 208.96 48.82 208.85 48.13 208.76C47.52 208.69 46.95 208.79 46.34 208.8C45.69 208.81 45.13 209.31 44.8 209.83C44.38 210.49 44.17 211.46 44.21 212.23C44.25 213 44.41 213.94 44.92 214.6C45.31 215.11 45.82 215.56 46.51 215.55C46.93 215.55 47.32 215.61 47.73 215.64C48.14 215.67 48.53 215.68 48.93 215.74L48.33 215.63C48.86 215.73 49.35 215.88 49.82 216.16L49.28 215.83C49.54 215.99 49.78 216.18 50 216.41L49.54 215.89C49.68 216.04 49.79 216.2 49.9 216.38L49.54 215.71C49.62 215.86 49.68 216.01 49.74 216.17L49.5 215.37C49.54 215.51 49.56 215.65 49.58 215.79L49.48 214.9C49.48 215.03 49.49 215.15 49.48 215.27L49.54 214.37C49.52 214.58 49.49 214.78 49.44 214.98L49.64 214.17C49.56 214.44 49.47 214.7 49.35 214.95L49.68 214.26C49.52 214.57 49.34 214.87 49.12 215.15L49.56 214.61C49.29 214.94 49 215.22 48.65 215.46L49.17 215.11C48.79 215.36 48.39 215.55 47.96 215.65L48.55 215.52C48.16 215.6 47.78 215.61 47.39 215.55L47.98 215.66C47.6 215.59 47.24 215.45 46.9 215.25L47.44 215.58C47.22 215.44 47.03 215.29 46.85 215.1L47.31 215.62C47.18 215.48 47.08 215.33 46.98 215.16L47.34 215.83C47.26 215.68 47.2 215.53 47.15 215.36L47.39 216.16C47.35 216 47.32 215.84 47.3 215.68L47.4 216.57C47.39 216.4 47.39 216.24 47.4 216.08L47.34 216.98C47.36 216.73 47.4 216.48 47.46 216.24L47.26 217.05C47.47 216.22 47.79 215.38 48.16 214.61L47.83 215.29C47.95 215.04 48.09 214.81 48.26 214.59L47.83 215.12C48.11 214.77 48.4 214.44 48.68 214.09L48.27 214.6C48.41 214.43 48.57 214.29 48.75 214.16L48.29 214.47C48.54 214.31 48.8 214.16 49.09 214.09L48.64 214.19C48.76 214.17 48.87 214.16 48.99 214.17C49.26 214.19 49.59 213.99 49.78 213.82C50.11 213.52 50.29 213.08 50.4 212.65C50.61 211.81 50.54 210.74 50.01 210.02L49.98 210Z" fill="#1D1D1B"/>
<path d="M30.97 229.6C30.92 229.07 30.87 228.54 30.66 228.04C30.55 227.78 30.39 227.52 30.24 227.27C29.94 226.79 29.49 226.32 28.94 226.15C28.44 226 27.86 225.95 27.34 226.05C26.24 226.25 25.23 226.69 24.44 227.51C23.22 228.8 22.71 230.41 22.65 232.17C22.6 233.69 23.11 235.4 24.05 236.61C24.8 237.57 25.82 238.46 27.03 238.76C28.24 239.06 29.41 239 30.51 238.43C33.23 237.02 34.52 233.79 34.19 230.84C34.04 229.47 33.57 228.25 32.61 227.25C32.12 226.74 31.44 226.36 30.79 226.12C29.38 225.58 27.86 225.62 26.45 226.14C25.83 226.37 25.37 227.16 25.16 227.72C24.88 228.49 24.81 229.53 25 230.33C25.31 231.61 26.24 233.18 27.78 232.62C27.96 232.55 28.15 232.5 28.34 232.45L27.75 232.58C28.33 232.45 28.91 232.44 29.5 232.53L28.91 232.42C29.46 232.52 29.97 232.7 30.45 232.98L29.91 232.65C30.13 232.79 30.33 232.94 30.51 233.12L30.05 232.6C30.15 232.72 30.23 232.84 30.3 232.97L29.94 232.3C29.99 232.41 30.03 232.51 30.07 232.62L29.83 231.82C29.87 231.97 29.9 232.12 29.92 232.28L29.82 231.39C29.83 231.58 29.83 231.77 29.82 231.96L29.88 231.06C29.86 231.26 29.83 231.45 29.79 231.65L29.99 230.84C29.92 231.1 29.84 231.35 29.73 231.59L30.06 230.9C29.9 231.23 29.71 231.54 29.48 231.82L29.92 231.28C29.66 231.58 29.37 231.85 29.05 232.08L29.57 231.73C29.18 231.98 28.77 232.17 28.32 232.27L28.91 232.14C28.51 232.22 28.12 232.24 27.72 232.18L28.31 232.29C27.88 232.21 27.48 232.06 27.1 231.83L27.64 232.16C27.32 231.96 27.04 231.73 26.79 231.45L27.25 231.97C27.07 231.77 26.92 231.55 26.79 231.32L27.15 231.99C27.04 231.78 26.95 231.58 26.88 231.35L27.12 232.15C27.08 231.99 27.04 231.83 27.02 231.67L27.12 232.56C27.1 232.39 27.1 232.23 27.1 232.07L27.04 232.97C27.05 232.82 27.07 232.67 27.11 232.51L26.91 233.32C26.95 233.15 27.01 232.99 27.08 232.84L26.75 233.53C26.85 233.32 26.97 233.13 27.11 232.95L26.67 233.49C26.87 233.24 27.1 233.03 27.37 232.85L26.85 233.2C27.19 232.97 27.55 232.81 27.95 232.71L27.36 232.84C27.75 232.75 28.14 232.73 28.53 232.8L27.94 232.69C28.54 232.82 28.96 232.85 29.51 232.55C29.93 232.32 30.19 232.12 30.46 231.71C30.84 231.13 31.06 230.3 30.99 229.6H30.97Z" fill="#1D1D1B"/>
<path d="M29.61 249.16C29.44 248.23 28.98 247.42 28.33 246.75C27.8 246.21 27.15 245.93 26.41 245.83C24.93 245.64 23.69 246.71 22.99 247.91C21.38 250.72 21.44 254.35 23.03 257.15C23.33 257.67 23.74 258.15 24.19 258.55C24.64 258.95 25.17 259.27 25.73 259.44C26.87 259.78 28.14 259.71 29.2 259.14C32.38 257.44 32.93 253.28 31.79 250.15C31.22 248.59 30.05 247.31 28.56 246.6C27.94 246.31 27.24 246.17 26.56 246.11C25.88 246.05 25.14 246.22 24.49 246.46C23.89 246.68 23.39 247.48 23.2 248.04C22.97 248.74 22.91 249.46 22.99 250.2C23.06 250.85 23.24 251.59 23.65 252.12C23.99 252.57 24.6 253.2 25.24 253.07C25.88 252.94 26.58 252.92 27.23 253.03L26.63 252.92C27.12 253.02 27.59 253.19 28.02 253.45L27.48 253.12C27.76 253.3 28.01 253.51 28.24 253.75L27.78 253.23C27.95 253.43 28.1 253.64 28.23 253.87L27.87 253.2C27.98 253.41 28.06 253.61 28.13 253.83L27.89 253.03C27.95 253.25 28 253.47 28.03 253.7L27.93 252.81C27.95 253.01 27.95 253.2 27.95 253.4L28.01 252.5C27.99 252.73 27.96 252.95 27.91 253.17L28.11 252.36C28.06 252.55 27.99 252.73 27.91 252.91L28.24 252.22C28.14 252.42 28.03 252.6 27.89 252.78L28.33 252.24C28.13 252.48 27.91 252.68 27.66 252.85L28.18 252.5C27.84 252.72 27.48 252.88 27.09 252.97L27.68 252.84C27.29 252.92 26.9 252.94 26.51 252.88L27.1 252.99C26.77 252.93 26.47 252.81 26.17 252.64L26.71 252.97C26.46 252.81 26.24 252.63 26.05 252.41L26.51 252.93C26.34 252.73 26.19 252.52 26.07 252.28L26.43 252.95C26.31 252.71 26.21 252.46 26.13 252.21L26.37 253.01C26.3 252.75 26.24 252.48 26.21 252.21L26.31 253.1C26.28 252.82 26.28 252.55 26.29 252.27L26.23 253.17C26.25 252.87 26.29 252.57 26.36 252.27L26.16 253.08C26.24 252.78 26.34 252.49 26.47 252.2L26.14 252.89C26.26 252.64 26.4 252.41 26.57 252.19L26.13 252.73C26.36 252.45 26.65 252.19 26.94 251.98L26.43 252.32C26.63 252.19 26.83 252.1 27.06 252.04L26.51 252.17C26.83 252.1 27.15 252.04 27.46 251.96L26.93 252.08C27.14 252.04 27.34 252.02 27.55 252.05L27.05 251.96C27.19 251.99 27.32 252.03 27.45 252.09L27.03 251.83C27.11 251.88 27.18 251.93 27.25 252L26.9 251.61L26.95 251.66C27.23 251.98 27.47 252.25 27.91 252.33C28.29 252.4 28.67 252.29 28.95 252.01C29.68 251.28 29.81 250.13 29.64 249.16H29.61Z" fill="#1D1D1B"/>
<path d="M43 263.74C42.73 262.97 42.26 262.35 41.71 261.77C41.16 261.19 40.5 261.01 39.74 260.89C38.62 260.71 37.5 261.14 36.63 261.85C36.17 262.22 35.79 262.74 35.52 263.27C35.13 264.07 34.81 264.88 34.72 265.77C34.55 267.59 34.81 269.53 35.92 271.04C36.65 272.02 37.7 272.87 38.9 273.16C40.1 273.45 41.29 273.44 42.44 272.92C45.72 271.46 46.55 267.28 45.36 264.17C44.84 262.8 43.67 261.37 42.18 261.07C41.37 260.91 40.64 260.84 39.87 261.24C39.1 261.64 38.46 262.23 38.03 262.97C37.25 264.34 37.22 266.14 37.96 267.53C38.22 268.01 38.62 268.58 39.17 268.74C39.75 268.92 40.5 268.86 40.92 268.35C41.03 268.21 41.15 268.1 41.3 268L40.76 268.37C40.95 268.25 41.15 268.17 41.37 268.11L40.75 268.25C41.18 268.16 41.61 268.09 42.04 268.16L41.41 268.05C41.66 268.1 41.9 268.18 42.12 268.31L41.56 267.97C41.72 268.08 41.86 268.19 42 268.34L41.52 267.81C41.61 267.92 41.69 268.03 41.76 268.15L41.39 267.46C41.47 267.61 41.54 267.76 41.59 267.92L41.34 267.1C41.39 267.26 41.42 267.43 41.45 267.6L41.35 266.68C41.37 266.85 41.37 267.02 41.37 267.19L41.43 266.27C41.42 266.44 41.39 266.61 41.35 266.78L41.56 265.95C41.51 266.12 41.46 266.28 41.38 266.44L41.72 265.73C41.61 265.95 41.48 266.14 41.33 266.33L41.77 265.78C41.57 266.01 41.36 266.21 41.11 266.38L41.64 266.02C41.26 266.28 40.85 266.46 40.41 266.57L41 266.43C40.51 266.54 40.01 266.55 39.51 266.47L40.11 266.58C39.65 266.49 39.22 266.33 38.81 266.08L39.35 266.41C39.08 266.24 38.84 266.04 38.63 265.8L39.09 266.32C38.94 266.14 38.81 265.96 38.7 265.76L39.07 266.44C38.99 266.29 38.93 266.14 38.88 265.98L39.12 266.78C39.06 266.59 39.03 266.4 39 266.21L39.1 267.11C39.08 266.94 39.08 266.78 39.09 266.61L39.03 267.51C39.04 267.31 39.07 267.12 39.12 266.93L38.92 267.74C38.96 267.58 39.02 267.42 39.09 267.27L38.76 267.96C38.86 267.76 38.97 267.58 39.11 267.4L38.67 267.94C38.81 267.77 38.97 267.63 39.15 267.5L38.63 267.85C38.87 267.69 39.12 267.59 39.4 267.52L38.81 267.65C39.17 267.57 39.52 267.57 39.88 267.63L39.29 267.52C39.71 267.61 40.1 267.74 40.53 267.81L39.94 267.71C40.17 267.75 40.38 267.82 40.58 267.93L40.08 267.63C40.19 267.7 40.3 267.78 40.4 267.88L40.87 268.17C41.13 268.29 41.39 268.3 41.65 268.2C42.12 268.09 42.51 267.77 42.75 267.35C43.4 266.24 43.38 264.92 42.97 263.74H43Z" fill="#1D1D1B"/>
<path d="M49.78 280.88C49.54 280.66 49.28 280.48 48.99 280.31C48.67 280.11 48.6 280.09 48.23 280.02C48.03 279.98 47.83 279.94 47.62 279.92C47 279.86 46.38 280 45.79 280.17C44.55 280.52 43.56 281.36 42.84 282.41C41.74 284.03 41.56 286.15 41.82 288.04C41.96 289.01 42.34 289.96 42.86 290.78C43.2 291.32 43.68 291.85 44.23 292.2C45.3 292.9 46.49 293.31 47.78 293.23C49.07 293.15 50.17 292.67 51.18 291.91C51.69 291.53 52.12 290.98 52.46 290.46C52.83 289.9 53.12 289.26 53.29 288.61C53.55 287.63 53.74 286.66 53.68 285.64C53.62 284.62 53.45 283.65 53.06 282.71C52.46 281.26 51.33 279.95 49.82 279.4C49.44 279.26 49.03 279.21 48.64 279.14C48.41 279.1 48.2 279.09 47.97 279.14C47.56 279.22 47.18 279.29 46.82 279.51C46.45 279.75 46.07 279.99 45.76 280.3C44.82 281.24 44.53 282.87 44.84 284.14C44.97 284.66 45.15 285.17 45.45 285.61C45.75 286.05 46.44 286.64 47.04 286.56C47.35 286.52 47.63 286.56 47.93 286.59C48.23 286.62 48.56 286.64 48.87 286.69L48.21 286.57C48.6 286.65 48.96 286.78 49.3 286.99L48.7 286.63C48.93 286.78 49.14 286.95 49.32 287.14L48.81 286.56C48.96 286.73 49.08 286.9 49.19 287.09L48.79 286.34C48.88 286.51 48.96 286.69 49.02 286.88L48.75 285.99C48.82 286.21 48.86 286.43 48.89 286.66L48.78 285.67C48.8 285.87 48.8 286.06 48.78 286.26L48.84 285.26C48.82 285.46 48.79 285.65 48.75 285.85L48.98 284.95C48.92 285.21 48.83 285.45 48.71 285.69L49.07 284.92C48.95 285.16 48.81 285.38 48.64 285.58L49.12 284.98C48.88 285.26 48.62 285.49 48.32 285.7L48.89 285.31C48.45 285.6 47.96 285.81 47.44 285.93L48.08 285.78C47.52 285.9 46.96 285.91 46.4 285.81L47.04 285.92C46.63 285.84 46.25 285.7 45.89 285.5L46.47 285.85C46.21 285.69 45.97 285.5 45.77 285.27L46.26 285.82C46.14 285.68 46.05 285.53 45.96 285.38L46.35 286.1C46.26 285.93 46.19 285.76 46.14 285.58L46.4 286.43C46.35 286.25 46.31 286.07 46.29 285.88L46.4 286.83C46.38 286.66 46.38 286.49 46.39 286.31L46.33 287.26C46.34 287.06 46.37 286.86 46.42 286.66L46.21 287.52C46.27 287.29 46.35 287.07 46.45 286.85L46.1 287.58C46.24 287.3 46.39 287.03 46.58 286.79L46.13 287.35C46.35 287.08 46.6 286.84 46.89 286.64L46.36 287C46.66 286.8 46.97 286.67 47.32 286.58L46.73 286.71C47.18 286.62 47.63 286.61 48.08 286.69L47.49 286.58C47.81 286.64 48.11 286.71 48.43 286.68C48.58 286.67 48.72 286.67 48.86 286.68L49.4 286.56C49.69 286.43 49.91 286.24 50.08 285.99C50.45 285.53 50.7 284.94 50.77 284.35C50.93 283.13 50.7 281.72 49.74 280.85L49.78 280.88Z" fill="#1D1D1B"/>
<path d="M27.65 286.25C27.1 284.86 25.92 283.93 24.43 283.82C24.26 283.81 24.1 283.82 23.94 283.85C23.69 283.89 23.39 283.94 23.15 284.03C22.9 284.13 22.64 284.36 22.43 284.53C22.11 284.79 21.86 285.14 21.61 285.46C21.47 285.64 21.35 285.82 21.25 286.02C20.8 286.9 20.53 287.67 20.33 288.64C20.13 289.61 20.17 290.59 20.29 291.56C20.5 293.22 21.47 294.86 23.03 295.56C23.53 295.79 24.13 295.88 24.67 295.88C25.21 295.88 25.82 295.74 26.33 295.53C27.55 295.03 28.43 294.03 29.21 293.01C30.08 291.89 30.77 290.64 31 289.22C31.2 288.02 31.04 286.79 30.63 285.65C30.34 284.86 29.86 284.22 29.29 283.62C28.39 282.68 27.03 282.19 25.74 282.18C24.36 282.17 23.03 282.7 21.78 283.22C21.16 283.47 20.71 284.21 20.49 284.8C20.21 285.57 20.14 286.61 20.33 287.41C20.63 288.64 21.59 290.32 23.11 289.7C23.82 289.41 24.55 289.15 25.3 288.97L24.71 289.11C25.32 288.97 25.94 288.91 26.56 289.01L25.97 288.9C26.38 288.98 26.76 289.12 27.11 289.34L26.57 289.01C26.81 289.16 27.02 289.34 27.22 289.54L26.76 289.02C26.9 289.18 27.02 289.35 27.12 289.54L26.76 288.87C26.81 288.98 26.86 289.09 26.9 289.2L26.66 288.4C26.69 288.52 26.72 288.63 26.74 288.75L26.64 287.86C26.65 287.98 26.66 288.1 26.65 288.22L26.71 287.32C26.7 287.47 26.67 287.61 26.64 287.75L26.84 286.94C26.79 287.12 26.72 287.29 26.65 287.46L26.98 286.77C26.68 287.38 26.26 287.95 25.83 288.49L26.27 287.95C25.91 288.38 25.52 288.78 25.05 289.1L25.57 288.75C25.24 288.96 24.89 289.12 24.51 289.21L25.1 289.08C24.74 289.15 24.38 289.17 24.01 289.11L24.6 289.22C24.33 289.17 24.09 289.08 23.85 288.95L24.39 289.28C24.24 289.19 24.1 289.08 23.98 288.95L24.44 289.47C24.33 289.35 24.24 289.22 24.16 289.08L24.52 289.75C24.46 289.63 24.41 289.51 24.37 289.38L24.61 290.18C24.56 290.02 24.53 289.85 24.51 289.69L24.61 290.58C24.6 290.41 24.59 290.24 24.61 290.07L24.55 290.97C24.57 290.69 24.62 290.42 24.68 290.15L24.48 290.96C24.55 290.69 24.64 290.44 24.75 290.19L24.42 290.88C24.54 290.63 24.68 290.4 24.84 290.18L24.4 290.72C24.55 290.54 24.72 290.38 24.91 290.24L24.39 290.59C24.7 290.38 24.98 290.15 25.28 289.94L24.77 290.28C24.99 290.13 25.23 290.03 25.49 289.96L24.95 290.08C25.19 290.03 25.43 290.02 25.68 290.05L25.17 289.96C25.32 289.99 25.45 290.04 25.59 290.11L25.15 289.84C25.21 289.88 25.27 289.92 25.32 289.98C26.02 290.61 27 290.26 27.43 289.51C27.99 288.55 28.03 287.3 27.62 286.27L27.65 286.25Z" fill="#1D1D1B"/>
<path d="M14.47 269.66C14.25 268.92 13.69 268.14 13.06 267.69C12.75 267.47 12.39 267.24 12.02 267.11C11.4 266.89 10.94 266.96 10.32 267.16C9.69997 267.36 9.06997 267.83 8.61997 268.32C7.94997 269.05 7.51997 269.77 7.10997 270.66C6.36997 272.25 6.25997 274.04 6.49997 275.75C6.62997 276.7 6.99997 277.57 7.46997 278.4C7.78997 278.95 8.23997 279.48 8.74997 279.84C9.74997 280.56 10.93 280.93 12.17 280.82C13.23 280.72 14.31 280.38 15.2 279.8C15.76 279.44 16.31 279.06 16.76 278.56C17.42 277.82 17.89 277.1 18.28 276.19C18.67 275.28 18.85 274.14 18.76 273.15C18.64 271.95 18.36 270.73 17.6 269.75C15.54 267.11 11.68 266.85 8.72997 267.95C8.10997 268.18 7.64997 268.96 7.43997 269.53C7.15997 270.3 7.08997 271.34 7.27997 272.14C7.44997 272.85 7.73997 273.68 8.34997 274.13C8.88997 274.53 9.40997 274.64 10.07 274.43C10.31 274.35 10.56 274.28 10.8 274.22L10.21 274.36C11.34 274.11 12.48 274.1 13.62 274.3L13.02 274.19C13.68 274.32 14.31 274.51 14.88 274.86L14.34 274.53C14.57 274.68 14.78 274.85 14.97 275.05L14.51 274.53C14.62 274.66 14.72 274.79 14.8 274.93L14.44 274.26C14.5 274.38 14.56 274.5 14.6 274.63L14.36 273.83C14.39 273.94 14.41 274.04 14.43 274.15L14.33 273.26C14.35 273.41 14.35 273.55 14.34 273.69L14.4 272.79C14.39 272.94 14.36 273.08 14.33 273.22L14.53 272.41C14.48 272.59 14.42 272.76 14.34 272.93L14.67 272.24C14.52 272.55 14.34 272.84 14.12 273.11L14.56 272.57C14.23 272.97 13.85 273.32 13.42 273.62L13.94 273.27C13.37 273.65 12.74 273.93 12.07 274.1L12.66 273.97C12.08 274.1 11.49 274.14 10.9 274.03L11.49 274.14C11.14 274.07 10.8 273.95 10.49 273.76L11.03 274.09C10.79 273.94 10.58 273.77 10.39 273.57L10.85 274.09C10.7 273.91 10.57 273.73 10.45 273.52L10.81 274.19C10.72 274.01 10.65 273.83 10.59 273.64L10.83 274.44C10.78 274.25 10.74 274.06 10.71 273.86L10.81 274.75C10.78 274.51 10.78 274.28 10.79 274.05L10.73 274.95C10.75 274.68 10.79 274.41 10.85 274.14L10.65 274.95C10.74 274.61 10.85 274.29 11 273.98L10.67 274.67C10.83 274.35 11.02 274.05 11.23 273.77L10.79 274.31C11 274.05 11.24 273.82 11.51 273.62L10.99 273.97C11.23 273.81 11.49 273.68 11.77 273.6L11.18 273.73C11.49 273.66 11.8 273.62 12.09 273.49C12.22 273.43 12.36 273.39 12.5 273.35L11.95 273.48C12.16 273.44 12.36 273.43 12.57 273.46L12.06 273.37C12.2 273.4 12.32 273.44 12.44 273.51L12.01 273.25C12.01 273.25 12.1 273.31 12.14 273.35C12.86 273.93 13.79 273.66 14.24 272.88C14.83 271.87 14.76 270.74 14.43 269.66H14.47Z" fill="#1D1D1B"/>
<path d="M8.65997 298.11C7.92997 297.22 6.99997 296.48 5.83997 296.25C5.52997 296.19 5.12997 296.07 4.78997 296.1C4.42997 296.13 4.04997 296.25 3.69997 296.36C3.13997 296.54 2.63997 296.87 2.17997 297.22C0.999973 298.11 0.329973 299.6 0.0899731 301.02C-0.220027 302.89 0.219973 304.85 1.21997 306.45C2.53997 308.55 5.35997 309.78 7.61997 308.36C8.90997 307.55 9.77997 306.39 10.34 304.98C10.94 303.46 11.07 301.57 10.67 299.99C10.24 298.28 9.36997 296.68 7.97997 295.55C7.40997 295.09 6.74997 294.66 6.05997 294.42C5.32997 294.17 4.61997 294.12 3.85997 294.18C2.41997 294.3 1.82997 295.94 1.75997 297.16C1.71997 297.87 1.77997 298.65 2.07997 299.3C2.33997 299.86 2.77997 300.68 3.43997 300.82C3.91997 300.92 4.35997 301.12 4.81997 301.28C5.27997 301.44 5.70997 301.64 6.11997 301.89L5.55997 301.55C5.97997 301.81 6.34997 302.12 6.67997 302.48L6.19997 301.95C6.38997 302.18 6.55997 302.42 6.70997 302.68L6.33997 301.99C6.45997 302.22 6.56997 302.46 6.64997 302.71L6.39997 301.9C6.45997 302.1 6.50997 302.31 6.52997 302.52L6.42997 301.62C6.44997 301.8 6.44997 301.97 6.43997 302.14L6.49997 301.24C6.47997 301.49 6.43997 301.73 6.38997 301.97L6.58997 301.16C6.51997 301.43 6.41997 301.69 6.29997 301.95L6.62997 301.26C6.48997 301.54 6.31997 301.8 6.11997 302.05L6.55997 301.51C6.33997 301.77 6.08997 302 5.79997 302.2L6.31997 301.85C5.99997 302.06 5.66997 302.21 5.29997 302.3L5.88997 302.17C5.54997 302.24 5.20997 302.25 4.85997 302.2L5.44997 302.31C5.07997 302.24 4.72997 302.11 4.39997 301.92L4.93997 302.25C4.63997 302.07 4.37997 301.85 4.14997 301.59L4.60997 302.11C4.42997 301.9 4.26997 301.68 4.12997 301.43L4.48997 302.1C4.37997 301.89 4.27997 301.67 4.20997 301.43L4.44997 302.23C4.39997 302.06 4.36997 301.9 4.33997 301.73L4.43997 302.62C4.41997 302.45 4.40997 302.28 4.41997 302.11L4.35997 303.01C4.36997 302.84 4.39997 302.67 4.43997 302.5L4.23997 303.31C4.27997 303.15 4.33997 303 4.39997 302.85L4.06997 303.54C4.16997 303.34 4.27997 303.16 4.40997 302.99L3.96997 303.53C4.16997 303.29 4.39997 303.08 4.64997 302.91L4.12997 303.26C4.49997 303.02 4.89997 302.85 5.33997 302.74L4.74997 302.87C5.18997 302.78 5.61997 302.64 6.05997 302.53L5.48997 302.66C5.87997 302.58 6.26997 302.55 6.66997 302.61L6.14997 302.52C6.43997 302.57 6.70997 302.66 6.96997 302.81C7.33997 303.01 7.84997 302.85 8.15997 302.64C8.55997 302.37 8.85997 301.94 9.00997 301.48C9.15997 301.02 9.21997 300.55 9.22997 300.07C9.22997 299.48 9.02997 298.58 8.64997 298.11H8.65997Z" fill="#1D1D1B"/>
</g>
<defs>
<clipPath id="clip0_3416_10511">
<rect width="233.89" height="308.96" fill="white"/>
</clipPath>
</defs>
</svg>
