<svg width="200" height="225" viewBox="0 0 200 225" fill="none" xmlns="http://www.w3.org/2000/svg">
<g clip-path="url(#clip0_3416_10006)">
<path d="M71.28 90.51C71.28 90.51 64.36 85.57 68.81 75.36C73.26 65.15 76.71 58.4 70.13 47.53L58.11 32.05C58.11 32.05 46.5 20.03 32.75 27.93L2.85 56.26C2.85 56.26 -3.57 65.65 2.85 79.15C9.27 92.65 28.05 129.21 47.97 155.23C67.9 181.25 96.39 213.69 103.3 218.47C110.22 223.25 118.78 229.34 134.26 219.46L159.62 206.12C159.62 206.12 170.65 194.1 166.87 184.05C163.08 174 152.05 162.48 152.05 162.48C152.05 162.48 145.79 156.39 137.06 157.21C137.06 157.21 126.85 162.15 123.06 160.17C119.27 158.19 77.44 100.22 77.44 100.22L71.26 90.5L71.28 90.51Z" fill="#1D1D1B"/>
<path d="M126.43 42.7596C129.43 42.6296 131.59 42.9796 134.36 43.9496C135.66 44.4096 136.93 44.9596 138.17 45.5796C138.79 45.8996 139.4 46.2296 140.01 46.5796C140.4 46.8096 140.67 46.9796 141.29 47.3996C143.7 49.0096 145.94 50.8596 148.05 52.8396C149.01 53.7396 149.94 54.6696 150.84 55.6196C151.02 55.8096 151.2 55.9996 151.38 56.1996C151.43 56.2496 152.3 57.2296 151.7 56.5496C152.18 57.0896 152.65 57.6396 153.11 58.1996C154.83 60.2796 156.42 62.4596 157.88 64.7196C158.59 65.8196 159.27 66.9496 159.92 68.0896C160.05 68.3196 160.18 68.5496 160.31 68.7796C160.96 69.9296 159.88 67.9296 160.48 69.0996C160.81 69.7396 161.14 70.3896 161.46 71.0396C162.64 73.4696 163.68 75.9596 164.58 78.4996C164.8 79.1196 165.01 79.7396 165.21 80.3696C165.29 80.6196 165.38 80.8696 165.45 81.1196C165.12 79.8496 165.45 81.1396 165.51 81.3596C165.89 82.6896 166.23 84.0296 166.53 85.3696C166.86 86.8496 167.14 88.3296 167.37 89.8296C167.49 90.5796 167.69 91.4096 167.69 92.1696C167.69 92.0196 167.57 90.9296 167.66 91.9196C167.7 92.3796 167.75 92.8396 167.79 93.2896C168.04 96.3696 168.08 99.4596 167.91 102.55C167.8 104.57 169.14 107.88 171.56 107.82C174.21 107.75 174.84 104.35 174.95 102.37C175.61 90.3396 173.16 78.0196 168.16 67.0596C163.21 56.2196 155.7 46.0296 145.99 38.9896C140.21 34.7996 133.44 31.6996 126.16 32.0096C123.67 32.1196 122.66 35.3996 122.77 37.4596C122.88 39.5196 123.85 42.8396 126.42 42.7296L126.43 42.7596Z" fill="#1C1A1C"/>
<path d="M124.99 77.7301C127.84 77.6401 130.21 78.9401 132.37 80.7301C132.98 81.2401 133.57 81.7701 134.13 82.3301C134.36 82.5601 134.59 82.7901 134.82 83.0301C134.96 83.1701 135.09 83.3101 135.22 83.4601C134.97 83.1701 134.94 83.1401 135.14 83.3701C136.08 84.5501 137 85.7101 137.81 86.9901C138.02 87.3201 138.21 87.6601 138.42 88.0001C138.89 88.7601 138.25 87.6301 138.5 88.1301C138.82 88.7701 139.14 89.4101 139.43 90.0701C139.74 90.7901 140.03 91.5201 140.29 92.2601C140.4 92.5801 140.63 93.0401 140.66 93.3801L140.5 92.8601C140.57 93.1101 140.64 93.3601 140.71 93.6201C140.89 94.3201 141.04 95.0201 141.18 95.7201C141.24 96.0401 141.29 96.3601 141.34 96.6901C141.38 96.9501 141.42 97.2101 141.45 97.4701L141.38 96.8301C141.23 97.5001 141.51 98.4701 141.52 99.1701C141.54 99.9501 141.52 100.74 141.48 101.52C141.38 103.54 142.71 106.85 145.13 106.79C147.77 106.73 148.42 103.32 148.52 101.34C148.91 93.6301 146.7 85.8101 142.6 79.3001C138.83 73.3301 132.32 66.7901 124.73 67.0201C122.24 67.1001 121.23 70.4401 121.34 72.4701C121.45 74.5001 122.41 77.8201 124.99 77.7401V77.7301Z" fill="#1C1A1C"/>
<path d="M130.8 10.7399C135.14 11.4099 139.91 12.9499 144.17 14.7699C146.34 15.6999 148.46 16.7299 150.55 17.8299C152.48 18.8499 154.88 20.2299 156.42 21.1799C160.42 23.6499 164.33 26.2799 168.04 29.1599C169.88 30.5899 171.67 32.0899 173.38 33.6599C174.16 34.3699 174.92 35.0999 175.67 35.8499C176.07 36.2499 176.46 36.6499 176.85 37.0599C177.04 37.2599 177.24 37.4699 177.43 37.6799C177.58 37.8399 178.07 38.3899 177.69 37.9499C179.21 39.6699 180.63 41.4799 181.93 43.3699C182.53 44.2399 183.11 45.1299 183.66 46.0299C183.9 46.4199 184.13 46.8199 184.36 47.2199C184.49 47.4499 184.62 47.6799 184.75 47.8999C185.4 49.0399 184.32 47.0499 184.92 48.2099C185.88 50.0599 186.76 51.9499 187.54 53.8899C187.93 54.8599 188.29 55.8299 188.63 56.8199C188.8 57.3099 188.97 57.8099 189.13 58.2999C189.21 58.5399 189.3 58.7999 189.37 59.0499C189.07 57.8899 189.3 58.8399 189.37 59.0899C190.58 63.2699 191.41 67.5499 191.95 71.8599C191.98 72.1199 192.01 72.3899 192.05 72.6499C192.13 73.2699 192 72.2399 192 72.2199C191.93 72.6899 192.12 73.3399 192.16 73.8199C192.27 75.0199 192.36 76.2299 192.44 77.4299C192.57 79.5899 192.65 81.7499 192.67 83.9199C192.7 86.4399 192.67 88.9599 192.58 91.4799C192.54 92.7099 192.49 93.9399 192.42 95.1599C192.39 95.7699 192.35 96.3899 192.32 96.9999C192.25 98.1299 192.36 96.8299 192.33 96.7999C192.4 96.8699 192.25 97.9199 192.25 98.0299C191.9 103.03 191.4 108.02 190.85 113C190.61 115.21 191.02 118.62 193.47 119.53C195.92 120.44 197.49 117.63 197.71 115.68C199.78 96.8799 201.43 77.2899 196.8 58.7199C194.48 49.4099 190.6 40.4099 184.64 32.8199C178.68 25.2299 170.78 18.8899 162.52 13.5599C152.65 7.19987 142.25 1.81987 130.53 0.00986865C129.58 -0.140131 128.51 0.969869 128.08 1.63987C127.41 2.68987 127.08 4.22987 127.14 5.45987C127.27 7.83987 128.21 10.3399 130.79 10.7299L130.8 10.7399Z" fill="#1C1A1C"/>
</g>
<defs>
<clipPath id="clip0_3416_10006">
<rect width="199.77" height="224.76" fill="white"/>
</clipPath>
</defs>
</svg>
