<svg width="289" height="278" viewBox="0 0 289 278" fill="none" xmlns="http://www.w3.org/2000/svg">
<g clip-path="url(#clip0_3416_10054)">
<path d="M132.076 44.3447C131.59 44.8665 130.93 45.1859 130.056 45.246L129.863 45.3943C129.074 45.4595 128.026 45.4498 127.179 45.2548L127.087 45.166C126.781 45.107 126.499 45.046 126.204 44.974C125.935 45.502 125.678 45.8964 125.465 46.0826L124.85 45.7842C124.426 45.169 124.163 44.6007 123.905 43.8153L124.04 43.6958L123.962 43.4855C124.089 43.4148 124.243 43.39 124.365 43.404L124.589 43.2049C125.001 43.2311 125.393 43.3191 125.787 43.4191C125.89 43.2059 125.978 42.9578 126.077 42.6968C125.489 42.5768 125.657 42.2859 125.357 42.1541L125.35 41.4805C125.524 41.5504 125.608 41.3989 125.681 41.2605L126.638 41.1815C127.055 40.1115 127.585 38.948 128.397 37.9899L128.382 37.8105C128.679 37.6174 128.878 37.3963 129.045 37.3825C129.213 37.3687 129.543 37.4257 130.042 37.4929C130.127 37.6544 130.286 37.6774 130.532 37.7414C130.592 37.8809 130.693 38.0893 130.707 38.2567C130.75 38.7829 130.498 39.6587 129.817 40.4614C129.577 40.3247 129.39 40.3883 129.408 40.0256C129.424 39.639 129.182 39.6228 129.44 39.2404L129.383 39.1367C128.985 39.4224 128.54 40.1575 128.083 41.0381C128.643 40.9678 129.179 40.8994 129.57 40.819C129.751 40.8281 129.884 40.8292 129.994 40.8562L129.689 40.9536C129.866 41.0474 130.103 41.0037 130.304 40.963C130.493 41.0678 130.577 41.2054 130.955 41.2585C130.968 41.7149 130.276 41.4952 130.106 41.7741L130.656 41.7287L130.786 41.8384C130.451 41.866 128.254 42.2401 127.455 42.3301L127.415 42.4298L127.762 42.4011C127.846 42.3942 128.003 42.4053 127.975 42.5039L127.343 42.5802C127.17 42.9557 126.985 43.3443 126.81 43.7079C126.884 43.7259 126.959 43.7558 127.032 43.7738C127.201 43.7719 127.01 43.9442 126.957 43.8764L126.759 43.8204L126.72 43.932C128.176 44.3537 128.489 44.4964 130.735 43.4079C130.696 43.5195 130.572 43.626 130.448 43.7206L130.514 43.7994L130.939 43.5476C131.23 43.7162 131.333 43.9485 131.533 44.1729C131.764 44.0574 131.936 44.2479 132.076 44.3447ZM125.724 43.5326C125.416 43.4497 125.122 43.3897 125.062 43.3827C124.904 43.3716 124.836 43.4253 124.827 43.4622C125.145 43.5202 125.415 43.5822 125.673 43.6452C125.694 43.6074 125.703 43.5705 125.724 43.5326ZM131.339 43.2858C131.396 43.3895 131.332 43.4911 131.217 43.5607L131.065 43.465L131.339 43.2858ZM127.598 43.9197C127.752 43.883 127.767 44.0624 127.573 44.0542C127.474 44.0143 127.302 43.9803 127.142 43.9333L127.18 43.8098C127.339 43.8448 127.487 43.8808 127.598 43.9197Z" fill="#1D1D1B"/>
<path d="M18.57 133.86C22.38 138.52 26.2 143.18 30.01 147.85L29.53 139.37C28.75 141.04 27.9 142.68 27.02 144.29C26.83 144.65 26.63 145 26.43 145.36C26.33 145.54 26.22 145.73 26.12 145.91C25.85 146.4 26.59 145.1 26.15 145.86C25.65 146.72 25.14 147.59 24.61 148.44C23.63 150.01 22.59 151.56 21.46 153.03C20.93 153.72 20.38 154.39 19.79 155.04C19.52 155.34 19.23 155.63 18.95 155.92C19.48 155.37 18.6 156.23 18.43 156.37C17.94 156.77 17.42 157.15 16.86 157.44C16.6 157.58 16.33 157.68 16.05 157.8C16.78 157.5 15.38 157.97 15.15 158.03C11.62 158.98 7.82005 160.03 5.03005 162.52C0.500047 166.57 -0.339953 172.71 0.110047 178.52C0.390047 182.09 0.710047 185.66 1.01005 189.22C1.63005 196.51 2.26005 203.79 2.88005 211.08C3.28005 215.74 4.80005 220.43 9.21005 222.85C11.2 223.94 13.52 224.38 15.76 224.43C16.47 224.45 17.15 224.49 17.85 224.61C18.93 224.8 19.22 224.89 20.02 225.17C23.92 226.54 27.51 228.82 30.82 231.27C34.58 234.05 37.69 236.86 40.71 240.26C42.06 241.78 43.33 243.37 44.46 245.06C44.72 245.44 44.97 245.83 45.21 246.23C45.24 246.28 45.69 247.04 45.38 246.5C45.07 245.96 45.49 246.7 45.52 246.76C46.06 247.77 46.5 248.83 46.89 249.9C46.54 248.95 47.03 250.37 47.11 250.67C47.27 251.23 47.41 251.79 47.54 252.35C47.66 252.85 47.75 253.35 47.86 253.85C48.1 255.01 47.67 252.71 47.86 253.87C47.91 254.19 47.97 254.52 48.03 254.84C48.43 257.22 48.76 259.64 49.35 261.98C50.43 266.23 52.58 270.43 56.91 272.06C59.3 272.96 61.92 273.41 64.42 273.89C66.92 274.37 69.25 274.74 71.7 274.98C76 275.41 80.68 275.55 84.74 273.82C88.8 272.09 90.22 267.78 91.66 264.04C93.25 259.91 94.59 255.68 95.82 251.44C96.02 250.73 96.23 250.02 96.42 249.3L94.37 251.97C102.5 252.54 110.63 253.12 118.75 253.69C131.69 254.6 144.63 255.52 157.57 256.43C160.52 256.64 163.47 256.85 166.41 257.05L164.12 253.09C164.48 258.58 166.83 264.72 170.63 268.71C172.15 270.3 173.85 271.69 175.84 272.66C178 273.72 180.39 274.25 182.7 274.89C186.87 276.05 191.21 277.33 195.58 277.2C199.95 277.07 203.74 275.17 206.73 271.98C208.94 269.62 210.53 266.72 211.86 263.8C214.63 257.73 216.73 251.32 218.82 244.99C223.26 231.47 227.21 217.77 230.76 203.99C231.24 202.15 231.71 200.3 232.13 198.44C232.33 197.56 232.54 196.66 232.65 195.77C232.73 195.19 232.74 194.65 232.77 194.04C232.81 193.18 232.64 195.85 232.71 195.08C233.04 191.08 233.24 187.06 233.19 183.04C232.97 167.46 229.77 150.96 220.3 138.22C217.66 134.67 214.49 131.46 210.96 128.77C207.16 125.87 202.92 123.48 198.82 121.05C189.96 115.79 180.8 110.99 171.22 107.18C161.64 103.37 150.71 100.27 139.99 98.9301C128.31 97.4801 116.45 97.9601 104.9 100.22C102.4 100.71 99.98 101.21 97.63 102.15L90.93 104.83C84.91 107.24 78.88 109.65 72.86 112.06C70.76 112.9 68.66 113.74 66.56 114.58C66.2 114.72 65.72 114.83 65.4 115.04C65.25 115.14 66.17 114.95 65.9 114.87C65.76 114.83 65.53 114.89 65.38 114.9C60.46 115.23 55.54 115.56 50.61 115.88C44.45 116.29 38.28 116.7 32.12 117.11C30.74 117.2 29.3 117.42 27.92 117.39C26.46 117.36 25.17 117.17 23.72 117.58C18.69 118.99 17.47 124.51 17.41 129.15C17.39 130.54 17.72 134.55 19.79 134.55C21.86 134.55 22.15 130.41 22.17 129.15C22.19 127.89 22.03 130.43 22.17 129.28C22.21 128.95 22.39 128.39 22.08 129.71C22.29 128.81 21.7 130.42 21.98 129.93C22.04 129.82 22.11 129.42 22.23 129.38C22.36 129.33 21.69 130.06 22.1 129.64C22.23 129.5 22.39 129.3 22.5 129.14C22.62 128.96 22.92 128.87 22.37 129.26C22.53 129.15 22.68 129.01 22.84 128.9C23.1 128.72 23.39 128.57 23.68 128.44C23.85 128.36 24.03 128.3 24.2 128.24C24.13 128.27 23.66 128.37 24.09 128.28C24.67 128.15 25.25 128.07 25.84 128.05C26.75 128.02 27.61 128.21 28.51 128.15C33.25 127.83 37.98 127.52 42.72 127.2C48.85 126.79 54.98 126.38 61.11 125.97C62.64 125.87 64.21 125.85 65.74 125.66C66.57 125.56 67.36 125.16 68.13 124.85C78.3 120.78 88.47 116.71 98.64 112.65C99.19 112.43 99.73 112.19 100.28 111.99C100.36 111.96 100.44 111.92 100.52 111.9C99.95 112.08 100.94 111.85 100.82 111.87C101.13 111.82 101.44 111.73 101.74 111.66C102.65 111.46 103.56 111.26 104.47 111.08C110.27 109.92 116.16 109.19 122.07 108.95C132.88 108.51 143.71 109.72 154.19 112.38C164.07 114.89 173.58 118.72 182.7 123.26C187.11 125.46 191.44 127.83 195.7 130.31C199.96 132.79 203.96 135.11 207.88 137.8C211.49 140.28 214.04 142.64 216.73 145.95C217.98 147.49 219.13 149.12 220.18 150.8C220.44 151.22 220.69 151.64 220.94 152.06C221.45 152.91 220.57 151.36 221.04 152.23C221.13 152.4 221.23 152.57 221.32 152.74C221.8 153.63 222.25 154.54 222.68 155.46C223.48 157.18 224.2 158.94 224.84 160.73C224.92 160.94 224.97 161.19 225.07 161.39C224.58 160.42 224.9 160.89 225.01 161.23C225.14 161.63 225.27 162.03 225.39 162.42C225.68 163.39 225.96 164.36 226.21 165.33C226.41 166.12 226.6 166.91 226.78 167.7C226.88 168.13 226.97 168.57 227.06 169C227.14 169.4 227.44 171.3 227.17 169.52C227.43 171.2 227.72 172.86 227.92 174.55C228.11 176.12 228.25 177.7 228.36 179.28C228.45 180.59 228.29 177.87 228.36 179.19C228.38 179.55 228.4 179.92 228.41 180.28C228.44 180.98 228.46 181.68 228.47 182.37C228.52 184.69 228.48 187.01 228.37 189.33C228.36 189.56 228.35 189.78 228.33 190.01C228.28 191.03 228.44 188.35 228.37 189.33C228.35 189.7 228.32 190.06 228.3 190.43C228.26 190.96 228.22 191.49 228.18 192.02C228.14 192.62 228.13 193.23 228.07 193.83C227.99 194.63 228.19 192.04 228.13 192.71C228.05 193.65 228.42 191.28 228.28 191.93C228.22 192.21 228.17 192.48 228.1 192.76C225.57 204.15 222.17 215.41 218.8 226.57C217.7 230.23 216.56 233.89 215.38 237.53C214.81 239.29 214.21 241.03 213.64 242.79C213.66 242.73 214 241.74 213.76 242.44C213.69 242.64 213.62 242.85 213.55 243.05C213.42 243.41 213.3 243.78 213.17 244.14C212.87 245 212.57 245.86 212.26 246.72C211.28 249.44 210.26 252.14 209.12 254.79C208.67 255.83 208.21 256.85 207.7 257.86C207.59 258.08 207.48 258.29 207.36 258.51C207.32 258.59 207.27 258.67 207.23 258.75C206.91 259.37 207.32 258.36 207.45 258.37C207.24 258.35 206.12 260.45 205.92 260.72C203.7 263.74 200.68 265.86 196.86 266.26C192.73 266.68 188.55 265.61 184.6 264.54C182.4 263.95 180.1 263.46 178.01 262.58C177.16 262.22 176.33 261.79 175.55 261.29C175.14 261.03 174.74 260.75 174.36 260.45C174.17 260.31 173.99 260.16 173.81 260C173.72 259.92 173 259.26 173.45 259.7C172.88 259.14 172.35 258.54 171.86 257.9C171.6 257.56 171.35 257.21 171.12 256.86C170.98 256.65 170.86 256.43 170.72 256.23C171.06 256.93 170.3 255.62 170.72 256.23C170.4 255.57 170.06 254.93 169.78 254.25C169.66 253.95 169.54 253.65 169.43 253.34C169.27 252.93 169.31 252.42 169.53 253.66C169.5 253.47 169.41 253.28 169.35 253.1C169.19 252.57 169.05 252.03 168.93 251.48C168.88 251.26 168.84 251.04 168.79 250.82C168.65 250.19 169.04 252.41 168.9 251.35C168.84 250.95 168.78 250.55 168.75 250.15C168.67 248.93 168.06 246.3 166.46 246.19C158.33 245.62 150.2 245.04 142.08 244.47C129.14 243.56 116.2 242.64 103.26 241.73C100.31 241.52 97.36 241.31 94.42 241.11C93.2 241.02 92.59 242.94 92.37 243.78C91.71 246.23 90.98 248.67 90.2 251.08C90.03 251.6 89.87 252.11 89.69 252.63C89.62 252.84 89.55 253.05 89.48 253.26C89.81 252.28 89.55 253.04 89.47 253.29C89.08 254.42 88.67 255.54 88.24 256.65C87.88 257.56 87.51 258.47 87.12 259.37C86.91 259.83 86.7 260.29 86.48 260.75C86.4 260.92 86.31 261.1 86.22 261.27C86.14 261.44 86.05 261.6 85.96 261.76C86.24 261.28 86.31 261.16 86.15 261.4C85.92 261.61 85.73 261.94 85.52 262.19C86.02 261.61 85.25 262.39 85.04 262.53C84.36 263 83.6 263.35 82.82 263.62C82.4 263.76 81.25 264.01 80.45 264.12C79.41 264.27 78.36 264.34 77.32 264.36C72.54 264.47 67.73 263.7 63.06 262.73C61.02 262.31 58.84 261.99 56.98 261C56.6 260.8 56.24 260.58 55.89 260.33C55.67 260.17 55.46 260 55.26 259.82C55.63 260.24 55.36 259.9 55.26 259.82C54.98 259.49 54.7 259.17 54.46 258.81C54.36 258.67 54.28 258.52 54.18 258.38C54.72 259.19 54.28 258.54 54.17 258.31C54.01 257.97 53.9 257.37 53.66 257.08C54.14 257.66 53.88 257.81 53.74 257.26C53.68 257.03 53.61 256.81 53.55 256.59C53.44 256.17 53.35 255.75 53.26 255.33C53.21 255.09 53.18 254.84 53.11 254.61C53.51 255.98 53.2 255.07 53.13 254.71C52.71 252.25 52.35 249.78 51.81 247.34C50.82 242.81 49.03 238.62 46.34 234.85C43.65 231.08 40.67 228.07 37.41 225.12C34.15 222.17 30.58 219.45 26.74 217.25C23.75 215.53 20.32 213.91 16.83 213.61C14.85 213.44 12.95 213.49 11.24 212.73C10.47 212.39 9.81005 211.93 9.13005 211.44C9.01005 211.35 8.90005 211.24 8.79005 211.15C9.34005 211.59 8.96005 211.33 8.82005 211.17C8.58005 210.9 8.34005 210.63 8.12005 210.33C7.97005 210.13 7.81005 209.72 7.62005 209.59C7.65005 209.61 8.06005 210.48 7.86005 210.01C7.81005 209.89 7.74005 209.78 7.69005 209.67C7.60005 209.49 7.53005 209.3 7.45005 209.11C7.03005 208.16 7.80005 210.1 7.58005 209.51C7.53005 209.37 7.52005 209.21 7.47005 209.06C7.98005 210.54 7.72005 210.69 7.68005 210.01C7.32005 204.11 6.67005 198.22 6.16005 192.33C5.82005 188.38 5.49005 184.44 5.15005 180.49C5.02005 178.92 4.92005 177.35 4.75005 175.78C4.66005 174.93 4.73005 177.12 4.76005 175.9C4.76005 175.69 4.79005 175.4 4.76005 175.2C4.91005 176.3 4.67005 176.09 4.74005 175.63L4.78005 175.31C4.86005 174.77 4.84005 174.89 4.70005 175.68C4.76005 175.6 4.83005 175.16 4.84005 175.1C5.03005 174.17 4.50005 175.75 4.78005 175.24C4.89005 175.04 4.95005 174.81 5.05005 174.6C5.17005 174.35 5.61005 173.79 5.08005 174.5C5.34005 174.15 5.56005 173.78 5.84005 173.44C5.95005 173.31 6.06005 173.18 6.18005 173.05C6.18005 173.05 6.78005 172.47 6.44005 172.77C6.10005 173.07 6.74005 172.53 6.74005 172.53C6.87005 172.42 7.01005 172.31 7.15005 172.21C7.57005 171.9 8.00005 171.61 8.45005 171.35C9.98005 170.46 11.64 169.82 13.33 169.29C13.03 169.38 13.95 169.11 14.09 169.07C14.46 168.96 14.84 168.86 15.21 168.76C16.07 168.53 16.96 168.34 17.77 167.99C19.18 167.38 20.33 166.25 21.4 165.18C26.11 160.47 29.39 154.13 32.32 148.21C32.53 147.79 32.74 147.36 32.94 146.93C33.97 144.71 34.11 140.46 32.46 138.45C28.65 133.79 24.83 129.13 21.02 124.46C19.52 122.63 18.12 124.92 17.77 126.4C17.25 128.55 17.1 131.93 18.62 133.79L18.57 133.86Z" fill="#0D0802"/>
<path d="M230.78 177.18C241.85 184.24 255.16 187.57 268.26 186.09C271.29 185.75 274.48 185.22 277.25 183.89C280.44 182.35 282.83 179.83 284.18 176.56C286.86 170.03 285.14 161.78 280.62 156.47C276.73 151.91 271.4 149.14 265.46 148.4C259.52 147.66 253.06 149.49 249.21 154.02C244.17 159.96 244.1 168.25 245.12 175.58C246.01 182.03 248.41 188.22 251.59 193.87C254.95 199.84 259.61 205.33 264.97 209.59C270.65 214.1 279.06 218.43 286.35 215.24C288.61 214.25 289.12 211.05 288.88 208.92C288.68 207.11 287.49 203.8 285.08 204.07C283.76 204.22 282.39 204.36 281.05 204.35C280.37 204.35 279.71 204.28 279.04 204.21C278.94 204.2 278.27 204.08 278.89 204.2C278.49 204.12 278.09 204.02 277.7 203.92C276.37 203.56 275.06 203.09 273.8 202.53C273.22 202.27 272.66 202 272.1 201.7C271.79 201.54 271.48 201.36 271.18 201.19C270 200.53 271.81 201.62 270.67 200.88C268.4 199.4 266.29 197.69 264.33 195.83C263.85 195.38 263.39 194.92 262.93 194.45C262.75 194.26 262.57 194.07 262.38 193.88C262.4 193.9 261.52 192.96 261.97 193.44C262.42 193.92 261.55 192.96 261.57 192.98C261.4 192.78 261.23 192.58 261.06 192.38C260.56 191.77 260.07 191.15 259.59 190.52C258.88 189.58 258.2 188.61 257.56 187.61C257.2 187.06 256.86 186.5 256.53 185.94C256.36 185.66 256.2 185.37 256.04 185.09C255.43 184 256.22 185.49 255.79 184.63C255.27 183.57 254.75 182.52 254.3 181.43C254.05 180.83 253.8 180.22 253.58 179.61C253.47 179.3 253.36 178.99 253.26 178.68C253.2 178.49 253.14 178.31 253.08 178.12C253.26 178.71 253.29 178.83 253.18 178.46C252.84 177.26 252.53 176.06 252.29 174.85C252.16 174.21 252.05 173.57 251.95 172.92C251.91 172.66 251.88 172.4 251.84 172.14C251.68 171.02 251.94 173.26 251.82 171.81C251.72 170.54 251.69 169.28 251.7 168.01C251.7 166.66 251.59 168.86 251.69 168.01C251.73 167.67 251.75 167.33 251.8 166.99C251.84 166.72 251.88 166.45 251.92 166.18C252.01 165.69 252.05 165.02 251.95 165.89C252.03 165.25 252.37 164.58 252.62 163.98C252.26 164.86 252.6 164.05 252.73 163.83C252.9 163.54 253.09 163.26 253.28 162.98C253.73 162.31 253.4 162.83 253.28 162.96C253.53 162.68 253.78 162.42 254.05 162.16C254.23 161.99 254.42 161.83 254.6 161.67C254.71 161.58 255.51 160.99 254.96 161.36C255.99 160.67 257.16 160.15 258.33 159.76C258.57 159.68 258.81 159.61 259.05 159.54C260.18 159.18 258.72 159.59 259.4 159.44C260.08 159.29 260.77 159.19 261.46 159.13C262.65 159.01 263.85 159.01 265.04 159.11C265.27 159.13 265.5 159.16 265.73 159.18C265.67 159.18 266.8 159.34 266.29 159.25C265.78 159.16 266.9 159.38 266.84 159.37C267.18 159.45 267.52 159.54 267.85 159.63C268.91 159.93 269.95 160.32 270.95 160.78C271.42 161 271.88 161.25 272.34 161.49C273.33 162 271.75 161.05 272.66 161.68C272.94 161.88 273.23 162.06 273.51 162.27C274.39 162.92 275.15 163.66 275.95 164.4C276.44 164.86 275.32 163.61 276 164.45C276.14 164.63 276.28 164.8 276.42 164.98C276.68 165.32 277.53 166.23 277.54 166.65C277.54 166.59 277.05 165.63 277.43 166.46C277.55 166.71 277.67 166.96 277.78 167.22C277.89 167.48 277.98 167.74 278.08 168C278.45 168.92 277.95 167.68 277.99 167.68C278.15 167.68 278.24 169.15 278.34 169.35L278.27 168.74C278.29 168.95 278.3 169.15 278.3 169.36C278.3 169.57 278.31 169.77 278.3 169.98C278.36 169.23 278.37 169.16 278.3 169.77C278.27 169.93 278.26 170.5 278.17 170.58L278.3 170.08C278.25 170.28 278.18 170.47 278.11 170.66C278.02 170.92 277.59 171.65 278.06 170.86C277.92 171.09 277.77 171.32 277.64 171.56C277.13 172.48 278 171.28 277.56 171.68C277.34 171.88 277.15 172.11 276.93 172.31C276.75 172.47 276.57 172.61 276.39 172.76C276.02 173.03 276.01 173.04 276.35 172.81C276.2 172.91 276.04 173 275.89 173.08C274.88 173.65 273.8 174.08 272.7 174.41C272.4 174.5 272.11 174.58 271.81 174.66C271.14 174.84 272.64 174.51 271.48 174.73C270.81 174.86 270.14 174.98 269.46 175.07C266.31 175.52 263.12 175.68 259.95 175.57C256.98 175.46 253.82 175.1 251.23 174.55C248.19 173.9 245.2 173 242.31 171.86C240.86 171.29 239.45 170.65 238.05 169.96C237.29 169.58 236.54 169.2 235.8 168.79C235.55 168.65 235.31 168.52 235.06 168.38C234.82 168.24 234.57 168.1 234.33 167.96C233.92 167.72 233.85 167.67 234.1 167.82C233.21 167.27 232.42 166.89 231.37 167.35C230.41 167.77 229.64 168.91 229.33 169.87C228.66 171.91 228.63 175.81 230.77 177.17L230.78 177.18Z" fill="#0D0802"/>
<path d="M88.8701 153.97C88.1901 154.57 88.9101 153.92 89.0901 153.81L89.4601 153.56C89.0801 153.81 89.0701 153.86 89.4201 153.69L89.0601 153.79L89.9901 153.58C90.2501 153.49 90.4801 153.37 90.7301 153.27C91.8901 152.77 93.1001 152.49 94.3201 152.2C96.8901 151.57 99.7501 150.99 102.51 150.51C108.19 149.52 113.93 148.88 119.68 148.59C131.17 148.01 142.94 148.78 154.02 151.12C157.29 151.81 160.53 152.61 163.74 153.53C165.35 153.99 166.94 154.48 168.53 155C170.29 155.57 171.97 156.32 173.83 156.39C175.69 156.46 176.97 153.9 177.17 152.31C177.42 150.38 177.15 147.43 175.38 146.21C172.7 144.36 169.21 143.69 166.08 142.84C162.95 141.99 160.05 141.32 157.01 140.72C150.9 139.5 144.71 138.62 138.5 138.1C126.26 137.08 113.89 137.64 101.79 139.78C98.1901 140.42 94.6101 141.2 91.0701 142.1C89.6401 142.46 88.1601 142.87 87.0501 143.91C85.3201 145.53 84.5301 148.12 84.5901 150.41C84.6401 152.42 86.4701 156.1 88.8601 153.97H88.8701Z" fill="#0D0802"/>
<path d="M58.3401 163.53C62.0845 163.53 65.1201 160.495 65.1201 156.75C65.1201 153.006 62.0845 149.97 58.3401 149.97C54.5956 149.97 51.5601 153.006 51.5601 156.75C51.5601 160.495 54.5956 163.53 58.3401 163.53Z" fill="#1D1D1B"/>
<path d="M114.62 51.15C114.18 50.52 113.75 49.89 113.35 49.23C113.26 49.09 112.83 48.34 112.97 48.6C113.16 48.95 112.89 48.44 112.87 48.41C112.74 48.15 112.6 47.9 112.47 47.64C112.16 47.02 111.87 46.4 111.61 45.76C111.46 45.39 111.31 45.02 111.17 44.65C111.11 44.49 111.06 44.33 110.99 44.17C110.76 43.58 111.21 44.91 111.03 44.3C110.82 43.6 110.6 42.9 110.43 42.19C110.35 41.86 110.27 41.54 110.2 41.21C110.16 41.05 110.13 40.88 110.1 40.72C109.96 40.07 110.29 41.98 110.13 40.86C110.03 40.2 109.94 39.54 109.88 38.88C109.86 38.66 109.75 37.31 109.82 38.27C109.89 39.18 109.82 37.9 109.82 37.66C109.82 37.33 109.82 37 109.82 36.67C109.82 36.41 109.88 35.15 109.83 36.06C109.78 36.97 109.86 35.84 109.88 35.62C109.92 35.24 109.96 34.85 110.01 34.47C110.06 34.09 110.13 33.71 110.18 33.33C110.25 32.77 110.11 33.82 110.09 33.81C110.07 33.79 110.18 33.37 110.19 33.32C110.36 32.57 110.54 31.82 110.75 31.07C110.84 30.75 110.95 30.44 111.04 30.12C111.17 29.64 110.94 30.4 110.93 30.43C111.01 30.22 111.08 30.01 111.16 29.81C111.43 29.08 111.73 28.37 112.06 27.66C112.34 27.05 112.65 26.46 112.96 25.87C112.98 25.83 113.25 25.35 113.05 25.71C112.83 26.1 113.18 25.5 113.23 25.41C113.43 25.07 113.64 24.74 113.86 24.41C117.19 19.33 121.76 15.54 127.45 13.11C132.79 10.83 138.79 10.24 144.51 11.18C150.23 12.12 155.63 14.8 159.95 18.67C161.92 20.43 164.27 23.37 165.6 25.73C166.41 27.17 167.02 28.69 167.63 30.22C167.82 30.69 167.56 30 167.55 29.96C167.62 30.18 167.69 30.4 167.76 30.63C167.86 30.96 167.96 31.3 168.05 31.64C168.14 31.98 168.23 32.31 168.31 32.65C168.36 32.88 168.41 33.1 168.46 33.33C168.61 33.97 168.44 33.35 168.42 33.06C168.46 33.74 168.64 34.43 168.72 35.11C168.76 35.51 168.79 35.91 168.83 36.31C168.89 36.92 168.8 35.7 168.8 35.73C168.79 35.96 168.82 36.19 168.82 36.42C168.84 37.17 168.82 37.91 168.8 38.65C168.79 39.26 168.84 38.04 168.84 38.07C168.81 38.24 168.81 38.41 168.8 38.58C168.76 39.04 168.71 39.49 168.65 39.94C168.61 40.28 168.54 40.62 168.5 40.96C168.43 41.52 168.59 40.52 168.59 40.51C168.55 40.67 168.52 40.85 168.49 41.01C168.33 41.79 168.13 42.57 167.91 43.34C167.8 43.73 167.67 44.11 167.56 44.49C167.79 43.75 167.62 44.31 167.47 44.69C167.19 45.44 166.87 46.18 166.53 46.91C166.24 47.54 165.92 48.15 165.59 48.76C165.91 48.16 165.38 49.11 165.29 49.27C165.08 49.62 164.86 49.96 164.63 50.3C163.75 51.62 162.77 52.87 161.7 54.04C159.68 56.25 157.08 58.27 154.3 59.83C142.79 66.31 127.71 64.51 118.16 55.31C116.85 54.05 115.68 52.63 114.61 51.16C113.19 49.21 111.69 51.72 111.36 53.1C110.81 55.37 110.76 58.5 112.21 60.49C116.89 66.92 123.49 71.44 131.16 73.47C138.17 75.32 145.63 74.66 152.29 71.86C166.48 65.89 174.24 50.56 173.53 35.58C173.13 27.23 170.56 19.01 165.23 12.46C160.92 7.16002 155.21 3.34002 148.67 1.38002C135.59 -2.54998 121.26 2.30002 112.92 13.04C103.81 24.77 102.49 42.46 109.25 55.61C110.12 57.3 111.1 58.94 112.2 60.5C113.6 62.48 115.13 59.91 115.45 58.56C116 56.27 116.03 53.19 114.6 51.17L114.62 51.15Z" fill="black"/>
</g>
<defs>
<clipPath id="clip0_3416_10054">
<rect width="288.93" height="277.22" fill="white"/>
</clipPath>
</defs>
</svg>
