<svg width="314" height="277" viewBox="0 0 314 277" fill="none" xmlns="http://www.w3.org/2000/svg">
<g clip-path="url(#clip0_3416_11947)">
<path d="M19.78 95.18C16.96 94.93 14.12 94.73 11.34 94.19C8.88002 93.72 6.02002 92.93 4.12002 91.2C3.97002 91.06 3.49002 90.5 3.27002 90.15C3.50002 90.5 3.10002 89.78 3.04002 89.65C2.88002 89.29 3.20002 90.08 3.07002 89.7C2.94002 89.32 2.94002 89.37 3.05002 89.73C3.03002 89.67 2.94002 88.91 3.00002 89.47C3.05002 89.97 3.02002 89.42 3.00002 89.3C2.95002 88.83 2.92002 89.89 2.99002 89.41C3.01002 89.23 3.02002 89.04 3.04002 88.86C3.05002 88.71 3.18002 88.11 3.06002 88.66C3.10002 88.46 3.14002 88.25 3.19002 88.05C3.29002 87.62 3.41002 87.2 3.53002 86.87C4.55002 84.1 7.51002 81.88 10.4 80.79C13.76 79.53 17.98 79.73 20.47 82.58C21.28 83.51 22.11 82.87 22.5 81.93C29.96 63.81 45.04 49.39 63.19 42.14C68.38 40.07 73.81 38.65 79.34 37.87C81.46 37.57 81.04 33.27 80.67 31.95C80.16 30.11 79.62 28.26 79.31 26.36C79.05 24.74 78.94 23.26 79.27 21.89C79.51 20.91 80.17 19.56 80.99 18.51C81.86 17.39 83.03 16.48 84.36 15.95C87.13 14.84 90.22 15.87 92.31 17.86C93.37 18.86 94.25 20.09 94.89 21.39C95.53 22.69 95.88 23.88 96.09 25.27C96.19 25.93 96.21 25.96 96.21 26.38C96.21 26.59 96.21 26.81 96.21 27.02C96.21 27.72 96.25 26.54 96.2 27.23C96.17 27.72 96.12 28.2 96.06 28.68C96.06 28.68 95.96 29.35 96.02 28.99C96.08 28.63 95.89 29.6 95.87 29.68C95.37 31.8 94.99 33.22 94.05 35.19C93.37 36.62 93.45 38.63 93.76 40.11C93.93 40.94 94.44 42.88 95.62 42.83C113.81 42.02 130.36 52.41 144.93 62.05C159.5 71.69 173.94 83.58 186.82 96.27C194.2 103.54 201.27 111.12 208.06 118.95C208.45 119.39 209 119.74 209.57 119.36C212.95 117.16 216.99 116.35 220.98 116.96C224.54 117.51 228.22 119.71 229.89 122.5C230.12 122.88 230.32 123.29 230.5 123.7C230.59 123.9 230.68 124.11 230.76 124.32C230.7 124.18 230.57 123.71 230.78 124.39C230.91 124.82 231.03 125.25 231.14 125.68C230.85 124.54 231.32 126.82 231.19 126.05C231.1 125.46 231.21 126.63 231.21 126.82C231.23 127.63 231.2 126.82 231.21 126.68C231.18 126.9 231.17 127.13 231.15 127.35C231.08 128.1 231.13 127.47 231.16 127.32C231.11 127.54 231.07 127.76 231.02 127.98C230.97 128.2 230.91 128.42 230.85 128.63C231.05 128 230.68 129 230.67 129.03C229.49 131.9 226.5 134.06 223.25 134.7C219.53 135.43 215.35 134.61 212.8 131.63C211.62 130.25 210.71 132.07 210.43 133.13C209.36 137.14 207.95 141.13 206.13 145.17C204.4 149 202.38 152.63 200.02 156.13C195.36 163.05 189.57 169.12 182.88 174.1C179.39 176.69 175.74 179.11 171.86 181.08C169.86 182.1 167.82 183.03 165.74 183.88C163.77 184.68 161.68 185.29 159.8 186.29C153.84 189.47 155.94 196.73 156.66 202.1C156.7 202.41 156.75 202.72 156.79 203.02C156.77 202.89 156.94 204.4 156.88 203.82C156.84 203.35 156.91 204.29 156.91 204.39C156.93 204.77 156.93 205.16 156.94 205.54C156.94 205.64 156.91 206.41 156.94 205.73C156.92 206.03 156.9 206.34 156.87 206.64C156.84 206.94 156.81 207.25 156.76 207.55C156.86 207.01 156.6 208.17 156.57 208.28C156.43 208.84 156.01 209.9 155.66 210.51C155.17 211.35 154.57 212.18 153.88 212.87C150.32 216.47 144.95 216.52 141.26 213.08C139.57 211.5 138.62 209.75 138.19 207.58C138.32 208.26 138 205.74 138.08 206.74C138.05 206.37 138.04 205.99 138.04 205.62C138.04 205.37 138.04 204.59 138.02 205.23C138.04 204.4 138.13 203.57 138.23 202.74C138.36 201.67 138.34 201.83 138.51 200.91C138.79 199.42 138.83 197.87 138.4 196.4C138.21 195.76 137.65 194.08 136.66 194.23C115.05 197.36 96.46 181.2 81.26 168.11C65.27 154.34 50.08 139.29 37.24 122.5C30.15 113.23 23.71 103.52 18.56 93.13C18.3 92.6 17.78 91.76 17.06 91.78C16.34 91.8 15.84 92.66 15.63 93.21C14.86 95.19 14.83 97.99 15.79 99.93C20.65 109.74 26.22 119.11 32.71 127.93C39.2 136.75 46.05 144.79 53.55 152.45C61.05 160.11 69.01 167.43 77.19 174.43C85.37 181.43 93.63 188.51 102.84 194.15C113.02 200.39 124.77 204.9 136.88 203.17L135.03 196.48C133.81 203.06 133.4 210.47 136.5 216.63C138.65 220.91 142.8 224.75 147.86 224.68C152.92 224.61 156.89 220.54 158.89 216.19C161.76 209.93 161.09 202.43 159.57 195.92C159.52 195.72 159.19 194.16 159.15 194.16C159.29 194.15 159.03 195.42 159.09 195.03C158.88 196.35 159.09 195.37 159.09 195.37C159.86 194.59 160.5 193.95 161.51 193.42C163.51 192.35 165.76 191.73 167.85 190.84C172.13 189.02 176.3 186.85 180.25 184.38C187.88 179.61 194.6 173.06 199.96 165.86C206.35 157.28 210.83 147.42 213.59 137.11L211.22 138.61C213.95 141.93 218.29 143.5 222.53 143.03C227.16 142.51 230.99 139.79 233.08 135.65C237.71 126.48 234.24 112.34 223.88 108.86C218.68 107.11 212.93 107.77 208.31 110.76L209.82 111.17C197.66 97.15 184.64 83.86 170.49 71.83C163.36 65.77 156.04 59.96 148.37 54.58C140.7 49.2 133.1 44.31 124.8 40.37C115.56 35.99 105.66 33.35 95.39 33.81L96.97 41.46C99.4 36.37 100.02 30.83 99.45 25.26C98.98 20.61 97.78 15.96 94.77 12.27C92.32 9.25996 88.48 6.99996 84.51 8.10996C80.29 9.28996 77.67 13.17 76.47 17.18C74.62 23.36 76.13 29.92 77.8 35.95L79.13 30.03C58.84 32.78 40.22 44.49 28.36 61.09C24.95 65.86 22.11 71.05 19.96 76.51L21.99 75.86C15.8 69.02 4.86002 73.83 1.57002 81.24C-0.199982 85.22 -0.749982 90.82 1.34002 94.78C2.88002 97.68 5.70002 98.97 8.82002 99.41C12.47 99.92 16.2 99.53 19.86 99.29C21.13 99.21 21.04 95.28 19.76 95.17L19.78 95.18Z" fill="black"/>
<path d="M38.77 86.4999C39.95 83.5799 41.72 80.9399 44.01 78.7699C45.74 77.1299 47.69 75.7499 49.58 74.2999C55.38 69.8499 61.93 66.4699 68.81 64.0199C72.9 62.5599 77.31 61.9099 80.98 59.4899C82.45 58.5199 82.37 53.8199 80.47 53.3599C76.61 52.4299 72.78 54.0399 69.24 55.4899C65.7 56.9399 62.02 58.8499 58.66 61.0099C53.17 64.5399 47.96 68.8899 43.47 73.6399C40.76 76.4999 38.72 79.8899 37.43 83.6199C37.13 84.4999 37.05 85.6799 37.5 86.5399C37.87 87.2299 38.45 87.2999 38.77 86.5099V86.4999Z" fill="black"/>
<path d="M109.78 59.47C119.23 64.27 128.56 69.56 137.41 75.4C146.26 81.24 154.07 87.79 161.41 95.13C163.41 97.13 165.38 99.18 167.31 101.25C168.32 102.34 169.24 103.52 170.25 104.6C171.2 105.61 172.32 106.51 173.37 107.41C174.29 108.19 175.02 106.17 175.13 105.69C175.45 104.36 175.46 102.49 174.77 101.27C174.02 99.94 173.24 98.63 172.41 97.35C171.62 96.14 170.59 95.06 169.66 93.95C167.98 91.93 166.26 89.97 164.44 88.08C160.7 84.2 156.71 80.56 152.55 77.13C144.57 70.56 135.83 64.39 126.42 60.06C121.07 57.6 115.66 55.64 109.97 54.13C108.55 53.75 108.57 58.86 109.79 59.48L109.78 59.47Z" fill="black"/>
<path d="M43.79 138.76C42.03 141.48 40.32 144.15 38.77 146.99C37.22 149.83 35.71 152.67 34.18 155.52C31.12 161.22 27.96 166.97 25.48 172.96C20.56 184.84 19.59 198.5 26.19 209.96C31.49 219.17 40.23 225.96 49.96 230.02C61.65 234.9 74.3 236.6 86.54 239.55C98.78 242.5 110.26 247.16 121.35 252.83C126.88 255.66 132.23 258.8 137.56 261.98C142.89 265.16 148.1 268.2 153.82 270.36C164.27 274.3 177.08 274.68 186.11 267.23C194.4 260.39 198.25 249.85 204.57 241.43C218.33 223.09 239.36 212 253.71 194.16C261.04 185.05 266.12 174.45 267.4 162.74C268.1 156.37 267.79 149.94 267.57 143.55C267.46 140.56 267.4 137.57 267.45 134.57C267.48 133.11 267.39 135.44 267.47 133.99C267.49 133.69 267.5 133.4 267.52 133.1C267.56 132.36 267.62 131.63 267.69 130.9C267.76 130.17 267.85 129.44 267.94 128.71C268.12 127.31 267.87 129.08 268 128.27C268.09 127.76 268.18 127.26 268.29 126.76C270.54 116 278.7 107.8 286.18 99.9299C294.34 91.3499 302.06 81.7199 303.41 69.5299C303.78 66.1699 303.64 62.7399 302.93 59.4399C302.37 56.8399 301.3 53.9699 299.41 52.0199C298.58 51.1599 297.61 50.4299 296.49 49.9999C295.01 49.4399 293.57 49.4399 292.04 49.2399C289.13 48.8599 286.23 48.4499 283.34 47.9599C277.66 47.0099 272.22 44.6999 267.08 42.1399C261.94 39.5799 256.88 36.3299 252.22 32.7699C242.35 25.2399 233.7 16.2699 224.59 7.86992C222.28 5.73992 220.01 3.37992 217.4 1.61992C214.93 -0.0500784 212.2 -0.440078 209.36 0.389922C206.52 1.21992 204.01 2.65992 201.24 3.54992C199.44 4.12992 197.62 4.49992 195.77 4.94992C187.87 6.90992 180.11 9.49992 172.8 13.0999C163.75 17.5599 155.52 23.4899 148.16 30.3699C143.63 34.5999 139.41 39.1599 135.45 43.9299C134.2 45.4399 134.39 48.3499 134.9 50.0999C135.27 51.3699 136.35 53.1799 137.63 51.6499C144.83 42.9799 152.95 35.0599 162.26 28.6799C169.42 23.7699 177.22 19.8799 185.42 17.0399C188.89 15.8399 192.44 14.8499 196 13.9599C197.71 13.5399 199.41 13.1799 201.14 12.8599C203.84 12.3699 206.36 11.2599 209.03 10.6599C211.7 10.0599 214.14 10.1699 216.44 11.7099C218.74 13.2499 220.92 15.4499 223.02 17.3999C227.44 21.4899 231.76 25.6899 236.17 29.7999C244.83 37.8599 254.03 45.5499 264.64 50.9199C267.14 52.1799 269.75 53.4399 272.42 54.3099C275.09 55.1799 277.91 55.7699 280.67 56.3899C283.43 57.0099 286.16 57.3799 289.02 57.3099C291.88 57.2399 294.55 56.9199 296.9 58.8599C297.46 59.3199 298.27 60.3299 298.46 60.6399C298.76 61.1299 299 61.6799 299.21 62.2199C298.98 61.6299 299.24 62.3499 299.29 62.4999C299.35 62.6899 299.62 63.9399 299.44 62.9899C299.48 63.2199 299.52 63.4499 299.56 63.6799C299.56 63.6999 299.73 64.8399 299.64 64.1499C299.55 63.4299 299.67 64.7599 299.67 64.7599C299.68 65.0299 299.67 65.3099 299.69 65.5799C299.74 66.8999 299.79 64.6999 299.69 66.0099C299.67 66.2799 299.65 66.5499 299.63 66.8199C299.6 67.1599 299.56 67.4899 299.51 67.8299C299.47 68.1199 299.47 68.0999 299.53 67.7499C299.48 68.0199 299.43 68.2799 299.38 68.5499C298.87 70.9999 298.1 73.0499 296.88 75.5199C295.66 77.9899 294.2 80.1599 292.62 82.3099C286.16 91.0799 277.41 97.9199 271.34 107C268.06 111.91 265.74 117.36 264.65 123.17C263.47 129.48 263.42 135.9 263.63 142.29C263.73 145.3 263.87 148.31 263.92 151.32C263.94 152.75 263.95 154.17 263.92 155.6C263.92 155.79 263.88 156.76 263.92 155.97C263.91 156.27 263.89 156.57 263.88 156.87C263.83 157.76 263.77 158.66 263.69 159.55C263.43 162.35 263.08 164.3 262.25 167.21C262.18 167.46 262.1 167.72 262.03 167.97C262.22 167.38 261.81 168.61 261.83 168.56C261.66 169.06 261.48 169.56 261.3 170.05C260.79 171.41 260.22 172.74 259.59 174.05C250.18 193.81 230.31 205.76 214.8 220.24C210.65 224.11 206.69 228.21 203.21 232.69C199.96 236.87 197.36 241.43 194.65 245.96C192.15 250.14 189.48 254.36 185.71 257.52C181.65 260.93 176.76 262.69 171.49 263C159.92 263.68 149.37 257.99 139.76 252.22C129.37 245.98 118.92 240.01 107.65 235.48C101.93 233.18 96.07 231.23 90.12 229.64C84.17 228.05 78.16 226.9 72.17 225.63C61.14 223.3 49.94 220.48 40.58 213.92C36.63 211.15 33.21 207.92 30.42 203.92C30.14 203.53 29.88 203.13 29.62 202.72C29.6 202.69 28.99 201.68 29.36 202.32C29.24 202.11 29.12 201.91 29.01 201.7C28.4 200.61 27.86 199.48 27.4 198.32C27.31 198.1 27.03 197.33 27.35 198.22C27.27 198 27.19 197.77 27.12 197.54C26.93 196.97 26.77 196.4 26.62 195.82C26.54 195.53 26.48 195.24 26.41 194.95C26.23 194.21 26.61 196.16 26.43 194.98C26.33 194.32 26.24 193.66 26.16 193C26.06 192.2 26.21 194.42 26.16 192.97C26.16 192.67 26.14 192.37 26.13 192.07C26.13 191.63 26.09 191.17 26.13 190.73C26.11 190.92 26.05 191.82 26.14 190.8C26.2 190.06 26.27 189.32 26.36 188.58C26.48 187.63 26.4 188.31 26.36 188.51C26.45 187.99 26.55 187.48 26.66 186.97C27.29 184.03 27.98 182.06 29.16 179.13C31.55 173.25 34.58 167.64 37.35 161.93C38.75 159.05 40.14 156.17 41.51 153.28C43.02 150.11 44.3 146.86 45.62 143.6C46.12 142.37 46.11 140.73 45.62 139.5C45.35 138.8 44.54 137.66 43.84 138.74L43.79 138.76Z" fill="black"/>
<path d="M182.79 268.07L182.87 268.2L182.64 267.36C182.95 268.96 183.95 270.33 185.11 271.45C186.11 272.41 187.15 273.36 188.29 274.15C189.23 274.81 190.36 275.4 191.47 275.72C191.83 275.83 192.26 276 192.65 276.01C192.93 276.01 193.23 275.96 193.5 275.92C194.21 275.83 194.84 275.66 195.52 275.43C195.94 275.29 196.16 274.54 196.27 274.18C196.48 273.51 196.57 272.79 196.54 272.09C196.49 271.05 196.35 269.42 195.36 268.8C194.84 268.48 194.31 268.19 193.78 267.9C193.53 267.76 193.29 267.61 193.04 267.47C192.68 267.27 192.27 267.19 191.87 267.08L192.39 267.22C191.36 266.92 190.32 266.71 189.29 266.42L189.77 266.56C188.97 266.33 188.16 266.14 187.35 265.92L187.78 266.04C186.91 265.79 186.07 265.45 185.2 265.19C185 265.13 184.55 264.99 184.26 264.89C183.7 264.7 183.38 264.72 182.97 265.19L183.38 264.92C183.28 264.9 183.19 264.87 183.09 264.85C182.62 264.72 182.42 265.91 182.4 266.13C182.33 266.8 182.44 267.48 182.79 268.06V268.07Z" fill="black"/>
<path d="M191.52 260.8C193.53 261.75 195.55 262.69 197.56 263.64C198.54 264.1 199.51 264.54 200.54 264.89C201.07 265.07 201.62 265.31 202.18 265.36C202.69 265.41 203.2 265.41 203.71 265.44C204.4 265.47 204.52 264.06 204.54 263.66C204.56 262.93 204.48 261.93 203.85 261.45L202.35 260.31C201.9 259.97 201.33 259.77 200.82 259.54C199.88 259.11 198.92 258.8 197.94 258.48C195.94 257.83 193.94 257.17 191.93 256.52C190.46 256.04 190.37 260.27 191.52 260.81V260.8Z" fill="black"/>
<path d="M200.03 245.88C200.33 246.45 200.64 246.98 201.05 247.48L202.03 248.69C202.67 249.48 203.39 250.2 204.1 250.93C204.81 251.66 205.57 252.47 206.47 253.04C206.81 253.25 207.18 253.44 207.56 253.57C208.12 253.76 208.55 253.66 209.1 253.47C209.32 253.29 209.48 253.07 209.58 252.8C209.72 252.43 209.81 252.05 209.84 251.66C209.92 250.81 209.81 249.97 209.49 249.17C209.03 248.01 208.37 246.99 207.5 246.09C206.77 245.34 205.98 244.76 205.1 244.21C204.41 243.78 203.74 243.31 203 242.98L201.91 242.49C201.69 242.39 201.48 242.28 201.25 242.22C201.04 242.16 200.83 242.18 200.61 242.18C200.04 242.18 199.84 243.14 199.78 243.53C199.66 244.26 199.67 245.21 200.03 245.88Z" fill="black"/>
<path d="M208.14 238.32C210.03 239.74 211.97 241.11 214 242.32C214.94 242.88 215.96 243.41 216.97 243.84C217.98 244.27 219.25 244.54 220.37 244.74C220.74 244.81 221.09 244.16 221.18 243.93C221.37 243.43 221.45 242.91 221.46 242.38C221.49 241.51 221.41 239.97 220.55 239.45C219.57 238.87 218.58 238.22 217.55 237.74C216.52 237.26 215.5 236.82 214.46 236.41C212.45 235.62 210.49 234.72 208.58 233.72C207.72 233.27 207.39 234.88 207.35 235.41C207.28 236.33 207.33 237.69 208.15 238.31L208.14 238.32Z" fill="black"/>
<path d="M215.22 229.39C216.53 231.15 218.12 232.71 219.9 233.98C220.73 234.57 221.61 235.17 222.55 235.55C223.08 235.76 223.63 236 224.2 236.08C224.7 236.14 225.21 236.16 225.72 236.17C226.48 236.19 226.61 234.69 226.62 234.22C226.64 233.54 226.59 232.18 225.87 231.8C225.39 231.55 224.91 231.28 224.45 231C224.03 230.74 223.57 230.57 223.12 230.35C222.22 229.91 221.3 229.51 220.44 229C218.74 227.99 217.37 226.83 216.13 225.37C215.48 224.6 214.9 225.6 214.77 226.23C214.56 227.22 214.58 228.53 215.21 229.38L215.22 229.39Z" fill="black"/>
<path d="M225.49 223.54C227.03 224.62 228.6 225.55 230.34 226.26C231.21 226.62 232.16 226.82 233.08 227.02C233.94 227.21 234.82 227.15 235.69 227.12C236.56 227.09 236.65 225.55 236.67 225.01C236.69 224.51 236.67 223.96 236.51 223.48C236.4 223.13 236.23 222.53 235.86 222.39C235.01 222.06 234.17 221.64 233.29 221.4L233.62 221.49C232.42 221.15 231.24 220.73 230.04 220.39L230.38 220.48C228.89 220.05 227.38 219.6 225.93 219.06C225.06 218.74 224.78 220.1 224.73 220.71C224.66 221.58 224.7 222.97 225.5 223.54H225.49Z" fill="black"/>
<path d="M234.24 214.96L239.18 217.21C239.98 217.58 240.78 217.98 241.61 218.28C242.44 218.58 243.32 218.76 244.22 218.92C244.49 218.97 244.74 218.5 244.8 218.34C244.94 217.98 244.99 217.6 245.01 217.22C245.03 216.58 244.97 215.5 244.35 215.11C243.53 214.6 242.74 214.13 241.85 213.75C241.09 213.43 240.27 213.2 239.49 212.93L234.58 211.27C233.33 210.85 233.23 214.5 234.23 214.96H234.24Z" fill="black"/>
<path d="M244.04 204.4C245.31 205.36 246.73 206.34 248.22 206.92C248.99 207.22 249.81 207.43 250.62 207.62C251.38 207.8 252.2 207.78 252.98 207.77C253.33 207.77 253.58 207.33 253.69 207.07C253.86 206.64 253.92 206.18 253.94 205.72C253.96 205.23 253.94 204.7 253.78 204.23C253.68 203.91 253.5 203.27 253.14 203.17C252.25 202.91 251.39 202.56 250.49 202.31L250.8 202.4C249.7 202.08 248.61 201.68 247.53 201.3C246.45 200.92 245.45 200.45 244.47 199.9C243.63 199.43 243.29 201.07 243.25 201.57C243.18 202.48 243.23 203.82 244.04 204.43V204.4Z" fill="black"/>
<path d="M252.97 194.26C253.82 194.38 254.66 194.56 255.49 194.79L255.22 194.72C256.21 195 257.17 195.36 258.1 195.79C258.54 196 258.99 196.19 259.46 196.35C259.93 196.51 260.47 196.58 260.96 196.71C261.18 196.77 261.39 196.42 261.46 196.28C261.62 195.97 261.71 195.61 261.74 195.27C261.77 194.93 261.76 194.58 261.71 194.24C261.67 193.93 261.54 193.33 261.29 193.09C260.65 192.47 260.03 191.87 259.25 191.44C258.64 191.1 257.93 190.91 257.27 190.72C255.82 190.3 254.35 190.04 252.85 189.96C252.53 189.94 252.3 190.38 252.2 190.61C252.01 191.06 251.94 191.66 251.96 192.14C251.99 192.79 252.11 194.15 252.95 194.27L252.97 194.26Z" fill="black"/>
<path d="M260.04 179.96C261.61 180.63 263.18 181.31 264.74 181.98L267.05 182.97C267.81 183.3 268.72 183.49 269.54 183.62C269.81 183.66 270.07 183.2 270.13 183.03C270.27 182.67 270.33 182.28 270.34 181.89C270.36 181.26 270.31 180.11 269.67 179.75C268.92 179.32 268.11 178.9 267.28 178.65L265.03 177.98C263.47 177.51 261.91 177.05 260.36 176.58C259.69 176.38 259.49 177.33 259.45 177.82C259.42 178.26 259.42 178.74 259.56 179.17C259.64 179.43 259.76 179.85 260.04 179.96Z" fill="black"/>
<path d="M267.2 168.03C268.05 168.82 268.93 169.63 269.95 170.2C270.97 170.77 271.95 171.19 273.01 171.54C274.07 171.89 275.19 172.24 276.29 172.3C277.39 172.36 278.54 172.23 279.59 171.92C280.49 171.65 280.6 170.31 280.57 169.52C280.54 168.83 280.41 167.28 279.48 167.17C277.42 166.94 275.32 166.79 273.3 166.29C271.42 165.82 269.51 164.93 267.87 163.91C267.16 163.47 266.81 164.84 266.74 165.24C266.62 166.01 266.57 167.45 267.21 168.04L267.2 168.03Z" fill="black"/>
<path d="M266.3 159.34C268.34 159.83 270.37 160.28 272.42 160.68C273.43 160.88 274.46 161.16 275.48 161.26C276.66 161.38 277.66 160.91 278.69 160.4C279.13 160.18 279.34 159.52 279.47 159.09C279.69 158.39 279.79 157.63 279.75 156.9C279.7 155.81 279.55 154.11 278.51 153.46C278 153.14 277.52 152.8 276.94 152.61C276.36 152.42 275.83 152.28 275.25 152.26C274.25 152.22 273.21 152.39 272.21 152.45C270.18 152.59 268.16 152.78 266.13 153.01C264.92 153.15 264.79 155.31 264.83 156.2C264.88 157.25 265.04 159.02 266.28 159.32L266.3 159.34Z" fill="black"/>
<path d="M266.29 143.54C268.93 144.15 271.58 144.73 274.26 145.16C275.55 145.37 276.88 145.54 278.18 145.61C279.56 145.69 280.88 145.55 282.25 145.39C283.17 145.28 283.27 143.64 283.24 142.96C283.21 142.19 283.08 140.77 282.13 140.58C280.77 140.31 279.43 140.03 278.04 139.93C276.74 139.84 275.43 139.78 274.13 139.75C271.48 139.67 268.84 139.6 266.2 139.42C264.96 139.33 265.05 143.26 266.3 143.54H266.29Z" fill="black"/>
<path d="M265.6 128.3C268.41 128.32 271.24 128.71 273.93 129.53C275.27 129.94 276.58 130.44 277.85 131.02C278.46 131.3 279.07 131.52 279.69 131.76C280.49 132.07 281.11 132.36 281.8 131.7C282.7 130.83 282.56 129.15 282.13 128.09C281.73 127.1 281.18 126.49 280.25 125.99C279.65 125.67 279.06 125.4 278.41 125.2C277 124.78 275.57 124.46 274.11 124.25C271.25 123.84 268.35 123.87 265.5 124.29C264.27 124.47 264.36 128.28 265.6 128.29V128.3Z" fill="black"/>
<path d="M271.59 115.9C273.72 116.42 275.83 117 277.93 117.66C278.94 117.98 279.95 118.27 280.97 118.56C281.53 118.72 282.11 118.95 282.69 119.03C283.22 119.11 283.77 119.13 284.3 119.19C285.1 119.27 285.25 117.54 285.27 117.11C285.3 116.37 285.24 114.94 284.46 114.52C283.94 114.24 283.41 113.93 282.87 113.68C282.37 113.45 281.78 113.33 281.24 113.18C280.16 112.87 279.1 112.61 277.99 112.41C275.83 112.02 273.66 111.71 271.48 111.47C271.16 111.43 270.9 111.93 270.81 112.14C270.61 112.6 270.54 113.22 270.56 113.72C270.59 114.46 270.71 115.7 271.58 115.91L271.59 115.9Z" fill="black"/>
<path d="M278.89 105.67C281.75 106.28 284.57 107.07 287.33 108.04C288.69 108.52 290.06 109 291.42 109.5C292.78 110 294.04 110.26 295.41 110.54C296.04 110.67 296.19 109.14 296.2 108.84C296.22 108.18 296.16 107.14 295.54 106.73C294.26 105.87 293.04 105.14 291.58 104.62C290.12 104.1 288.78 103.7 287.34 103.35C284.52 102.67 281.67 102.18 278.79 101.86C277.69 101.74 277.7 105.42 278.88 105.67H278.89Z" fill="black"/>
<path d="M294.5 94.7899C296.66 95.7599 298.82 96.7199 300.98 97.6899L304.16 99.1099C304.7 99.3499 305.26 99.5199 305.82 99.7099C306.07 99.7899 306.36 99.9199 306.61 99.9599C306.91 99.9999 307.25 99.9399 307.55 99.9199C308.35 99.8599 308.47 98.4399 308.49 97.8899C308.52 97.0199 308.4 95.9699 307.7 95.3699C307.17 94.9099 306.72 94.5799 306.08 94.2999C305.53 94.0599 304.99 93.8299 304.42 93.6499L301.32 92.6499L294.89 90.5699C293.44 90.0999 293.33 94.2899 294.49 94.7999L294.5 94.7899Z" fill="black"/>
<path d="M297.93 80.5498C299.84 81.1898 301.76 81.8198 303.67 82.4598C305.58 83.0998 307.48 83.8198 309.5 83.9598C310.25 84.0098 310.39 82.4398 310.4 82.0098C310.42 81.3298 310.37 79.9598 309.65 79.5898C307.82 78.6498 305.82 78.2098 303.83 77.7298C301.84 77.2498 299.99 76.7798 298.07 76.3098C297.78 76.2398 297.48 76.7898 297.42 76.9598C297.26 77.3598 297.21 77.7798 297.19 78.1998C297.17 78.6498 297.19 79.1398 297.34 79.5698C297.43 79.8698 297.59 80.4398 297.93 80.5498Z" fill="black"/>
<path d="M298.85 70.7701C300.85 71.0601 302.85 71.3501 304.84 71.6301C305.82 71.7701 306.8 71.9401 307.78 72.0401C308.81 72.1401 309.79 72.1101 310.82 72.0401C311.68 71.9901 311.77 70.3601 311.75 69.7701C311.72 69.0601 311.6 67.7101 310.71 67.5401C309.69 67.3501 308.7 67.1801 307.66 67.1501C306.69 67.1201 305.71 67.1701 304.73 67.1801C302.74 67.2101 300.75 67.2301 298.76 67.2601C298.09 67.2601 298.03 68.5901 298.04 69.0301C298.05 69.5601 298.16 70.6601 298.85 70.7601V70.7701Z" fill="black"/>
<path d="M299.68 57.8397C300.16 58.2897 300.64 58.8097 301.2 59.1697C301.66 59.4597 302.26 59.5997 302.77 59.7597C303.79 60.0797 304.89 60.2797 305.96 60.3897C306.96 60.4897 307.97 60.4297 308.97 60.3197C310.07 60.1997 311.14 59.7997 312.19 59.4597C313.34 59.0797 313.5 57.4097 313.45 56.3697C313.41 55.4397 313.24 53.5197 312.04 53.3397C311.04 53.1897 310.03 52.9397 309.02 52.8597C308.01 52.7797 306.94 52.7097 305.89 52.7197C304.91 52.7297 303.87 52.7397 302.9 52.8597C302.41 52.9197 301.89 52.9397 301.42 53.0697C300.83 53.2397 300.34 53.5697 299.82 53.8897C299.3 54.2097 299.21 55.1897 299.19 55.6997C299.17 56.2997 299.2 57.3797 299.69 57.8397H299.68Z" fill="black"/>
</g>
<defs>
<clipPath id="clip0_3416_11947">
<rect width="313.45" height="276.01" fill="white"/>
</clipPath>
</defs>
</svg>
