<svg width="253" height="246" viewBox="0 0 253 246" fill="none" xmlns="http://www.w3.org/2000/svg">
<g clip-path="url(#clip0_3416_12015)">
<path d="M180.12 64.1099C178.49 66.5399 177.65 69.4899 177.4 72.3899C177.1 75.8099 176.92 79.1999 177 82.6399C177.14 89.1999 177.46 95.7999 178.28 102.31C179.04 108.38 181.12 114.27 185.68 118.53C189.61 122.21 194.84 124.28 199.9 125.88C205.87 127.77 212.06 129.05 218.29 129.75C223.86 130.38 229.71 130.68 235.28 129.86C240.85 129.04 245.87 126.93 248.6 122C250.22 119.08 250.97 115.83 251.35 112.54C251.76 109.01 252.01 105.46 252.2 101.91C252.38 98.6999 252.43 95.4899 252.53 92.2799C252.62 89.5499 252.69 86.8199 252.47 84.0899C251.97 77.6899 250.19 71.3699 245.23 66.9799C243.35 65.3099 241.07 67.0599 240.43 69.0399C239.65 71.4199 239.89 74.6299 241.88 76.3899C242.06 76.5499 242.24 76.7099 242.42 76.8799C242.42 76.8799 243.22 77.7299 242.79 77.2399C242.42 76.8299 242.9 77.3899 242.98 77.4899C243.16 77.7199 243.33 77.9499 243.49 78.1799C243.62 78.3699 243.74 78.5599 243.86 78.7499C244.12 79.1399 243.89 79.2099 243.78 78.5599C243.86 79.0499 244.3 79.6399 244.48 80.1099C244.56 80.3199 244.63 80.5399 244.72 80.7499C245.07 81.6699 244.66 80.4699 244.64 80.4499C244.85 80.6199 244.96 81.6899 245.01 81.9699C245.12 82.4899 245.21 83.0099 245.29 83.5399C245.32 83.7699 245.34 84.0199 245.38 84.2499C245.1 82.7399 245.33 83.9099 245.36 84.2499C245.72 88.7699 245.4 93.3499 245.26 97.8799C245.22 99.2799 245.16 100.67 245.08 102.07C245.06 102.4 245.04 102.73 245.02 103.05C245.09 101.97 245.02 103.06 245 103.33C244.94 104.15 244.88 104.97 244.81 105.79C244.69 107.13 244.57 108.48 244.41 109.82C244.34 110.38 244.27 110.94 244.18 111.5C244.12 111.85 244.06 112.2 244 112.54C243.9 113.05 243.79 113.36 244 112.68C243.82 113.29 243.6 113.86 243.39 114.45C243.16 115.12 243.97 113.63 243.27 114.65C243.12 114.87 242.96 115.12 242.82 115.36C242.71 115.55 242.3 115.93 242.87 115.33C242.71 115.5 242.56 115.67 242.4 115.84C242 116.25 241.56 116.6 241.1 116.95C241.69 116.49 240.71 117.17 240.48 117.3C240.02 117.55 239.55 117.77 239.06 117.96C238.57 118.15 238.07 118.34 237.56 118.49C237.33 118.56 237.1 118.62 236.87 118.69C235.78 119 237.52 118.59 236.4 118.8C231.5 119.7 226.44 119.56 221.49 119.27C216.08 118.95 210.76 118.16 205.51 116.84C202.91 116.19 200.32 115.44 197.8 114.53C196.69 114.13 195.59 113.7 194.52 113.21C194.04 112.99 193.57 112.77 193.11 112.53C192.88 112.41 192.65 112.29 192.42 112.17C192.44 112.17 191.42 111.6 191.9 111.89C190.97 111.33 190.08 110.67 189.26 109.97C188.82 109.6 188.42 109.2 188.01 108.79C187.92 108.7 187.52 108.2 187.94 108.72C187.7 108.42 187.46 108.12 187.23 107.81C186.91 107.37 186.62 106.9 186.35 106.43C186.72 107.08 186.38 106.47 186.32 106.34C186.21 106.09 186.09 105.84 185.98 105.58C185.85 105.26 185.72 104.94 185.6 104.61C185.55 104.48 185.27 103.65 185.46 104.22C185.68 104.9 185.29 103.59 185.3 103.61C185.21 103.27 185.13 102.93 185.06 102.59C184.91 101.9 184.78 101.21 184.67 100.52C184.61 100.17 184.56 99.8199 184.52 99.4699C184.5 99.3399 184.35 98.1599 184.44 98.8699C184.54 99.6499 184.38 98.2799 184.38 98.2699C184.34 97.9099 184.31 97.5499 184.28 97.1899C184.2 96.3699 184.13 95.5599 184.07 94.7399C183.8 91.4699 183.6 88.1899 183.46 84.9199C183.32 81.6499 183.26 78.3699 183.02 75.0899C182.78 71.8099 182.14 69.1799 182.55 66.1499C182.65 65.3599 182.52 64.2399 181.83 63.7099C181.21 63.2299 180.52 63.4799 180.11 64.0899L180.12 64.1099Z" fill="#1D1D1B"/>
<path d="M244.58 71.6699C244.74 67.9499 244.84 64.2299 244.72 60.4999C244.61 57.1799 244.26 54.6099 243.73 51.0599C243.15 47.1899 242.68 43.2499 241.64 39.4599C240.99 37.0599 240.14 34.7899 238.94 32.6099C238.54 31.8899 238.12 31.1799 237.64 30.5099C237.11 29.7499 236.3 28.7699 235.87 28.2999C224.15 15.1999 205.06 15.6799 189.79 9.47987C181.48 6.10987 173.54 1.93987 164.6 0.429867C157.35 -0.800133 150.11 0.709867 143.34 3.35987C136.57 6.00987 130.63 9.41987 124.03 11.8799C120.42 13.2299 117.29 14.0699 113.61 14.5199C109.32 15.0399 104.98 15.0199 100.67 14.8799C91.8401 14.6099 83.0301 14.0499 74.4001 16.3599C66.2601 18.5399 59.7301 23.8699 52.5601 27.9999C50.7101 29.0699 48.82 30.0499 46.84 30.8599C45.07 31.5899 43.11 32.2399 41.46 32.5199C37.64 33.1799 33.8201 33.6999 30.0301 34.5399C26.2401 35.3799 22.4501 36.0999 19.0901 37.8899C16.0101 39.5399 13.5401 41.8199 11.4401 44.5799C8.18005 48.8499 6.47005 54.2199 4.34005 59.0999C1.13005 66.5499 -0.479949 74.7099 0.130051 82.8199C0.740051 90.9299 2.97005 98.4399 5.24005 106.06C5.95005 108.43 6.65005 110.8 7.42005 113.15C7.76005 114.19 8.11005 115.22 8.46005 116.26C8.63005 116.78 8.80005 117.3 8.97005 117.82C9.04005 118.04 9.11005 118.27 9.18005 118.49C9.30005 118.85 9.49005 119.48 9.28005 118.77C9.91005 120.85 10.4501 122.97 10.8001 125.11C10.8501 125.42 10.8901 125.72 10.9401 126.03C10.9501 126.13 11.0501 126.89 10.9701 126.23C10.8901 125.57 10.9701 126.33 10.9801 126.43C11.0001 126.74 11.0301 127.04 11.0501 127.35C11.1301 128.5 11.1701 129.65 11.1701 130.81C11.2001 135.21 10.8201 139.6 10.8101 144C10.8001 148.96 11.3701 153.87 12.8801 158.6C15.4401 166.65 20.8801 173.6 26.5301 179.73C31.8101 185.45 38.18 190.54 45.55 193.26C52.92 195.98 61.0201 196.18 68.1301 192.87C71.4901 191.3 74.5501 189 77.0701 186.29C78.8201 184.4 79.2401 181.22 78.1601 178.87C77.3501 177.11 75.0901 175.08 73.2601 177.05C72.0401 178.36 70.7201 179.54 69.2901 180.62C68.7301 181.04 69.4901 180.52 68.8901 180.9C68.5201 181.13 68.1601 181.36 67.7801 181.57C67.0301 182 66.2601 182.38 65.4701 182.73C64.7401 183.05 63.99 183.33 63.23 183.58C62.82 183.71 62.4101 183.83 61.9901 183.94C61.8101 183.99 61.6301 184.04 61.4501 184.08C61.9401 183.97 61.3 184.1 61.12 184.13C59.44 184.44 57.73 184.58 56.03 184.55C54.16 184.52 52.5201 184.31 51.0401 183.96C49.2701 183.55 47.55 182.98 45.87 182.28C45.07 181.95 44.2901 181.59 43.5201 181.2C43.1001 180.99 42.69 180.77 42.28 180.55C42.11 180.45 41.93 180.36 41.76 180.26C41.68 180.22 40.86 179.73 41.16 179.91C40.87 179.73 39.7901 179.03 39.2401 178.64C38.4701 178.1 37.72 177.54 36.98 176.96C35.5 175.79 34.0801 174.54 32.7201 173.22C32.0901 172.61 31.4601 171.98 30.8501 171.35C30.5701 171.06 30.2901 170.76 30.0101 170.46C29.8301 170.26 29.6401 170.06 29.4601 169.86C28.9901 169.35 29.8401 170.3 29.3901 169.78C26.8501 166.88 24.4301 163.83 22.3801 160.56C22.1101 160.14 21.8601 159.71 21.6001 159.28C21.5001 159.11 20.9601 158.15 21.1601 158.51C21.4301 159.01 21.0101 158.22 20.9601 158.1C20.8601 157.91 20.7701 157.72 20.6801 157.53C20.4301 157.02 20.2001 156.5 19.9701 155.98C19.6101 155.13 19.3201 154.26 18.9901 153.39C18.7801 152.84 19.0501 153.59 19.0601 153.65C19.0001 153.44 18.9401 153.24 18.8901 153.03C18.7301 152.44 18.6001 151.85 18.4801 151.26C18.3701 150.74 18.2801 150.21 18.2001 149.68C18.1401 149.25 17.9601 148.34 18.1301 149.3C17.9301 148.19 17.9501 146.99 17.9201 145.87C17.8601 143.79 17.9201 141.72 17.9901 139.64C18.1501 135.4 18.4301 131.15 18.1201 126.92C17.7501 121.99 16.6001 117.34 15.0901 112.64C14.4201 110.56 13.7001 108.5 13.0301 106.42C12.8901 105.97 12.7501 105.53 12.6101 105.08C12.9001 106 12.4701 104.61 12.3901 104.33C12.0801 103.3 11.7801 102.28 11.4701 101.25C10.3801 97.5899 9.31005 93.9199 8.47005 90.1999C8.08005 88.4799 7.74005 86.7399 7.47005 84.9999C7.42005 84.6399 7.37005 84.2699 7.32005 83.9099C7.18005 82.9199 7.42005 84.9699 7.30005 83.7099C7.22005 82.8699 7.16005 82.0199 7.12005 81.1799C7.09005 80.3999 7.07005 79.6099 7.09005 78.8299C7.09005 78.4099 7.11005 77.9799 7.13005 77.5599C7.13005 77.3799 7.16005 77.1899 7.16005 77.0099C7.16005 77.5799 7.09005 77.9699 7.16005 77.1699C7.31005 75.4699 7.58005 73.7899 7.95005 72.1199C7.99005 71.9299 8.04005 71.7399 8.08005 71.5499C8.23005 70.8199 7.84005 72.4099 8.04005 71.6899C8.15005 71.2999 8.25005 70.9099 8.37005 70.5199C8.67005 69.5099 8.99005 68.5099 9.35005 67.5199C9.98005 65.7799 10.7301 64.1099 11.4701 62.4199C12.3601 60.3899 13.1001 58.2999 14.0101 56.2799C14.0601 56.1599 14.1201 56.0399 14.1801 55.9199C14.4201 55.3799 13.7201 56.8199 14.0001 56.2899C14.1301 56.0499 14.2401 55.8099 14.3701 55.5699C14.6901 54.9599 15.0301 54.3599 15.3901 53.7699C15.7101 53.2499 16.0501 52.7399 16.4201 52.2499C16.5101 52.1199 17.1001 51.4099 16.6901 51.8799C16.2801 52.3499 17.0701 51.4599 17.2101 51.3099C17.6501 50.8299 18.1201 50.3799 18.6101 49.9599C18.8801 49.7199 19.1601 49.4999 19.4501 49.2799C19.5701 49.1799 19.7001 49.0899 19.8301 48.9999C20.4001 48.5599 19.5301 49.1399 19.9401 48.9299C21.3501 48.1999 22.6601 47.4299 24.1801 46.9199C27.7401 45.7099 30.74 45.1899 34.46 44.5099C38.18 43.8299 42.3201 43.4799 46.1101 42.3099C53.8401 39.9199 60.1401 34.6599 67.1001 30.7399C70.4501 28.8499 74.2201 27.1999 77.8501 26.4499C81.9201 25.6099 86.0901 25.3899 90.2401 25.3999C98.5701 25.4299 106.96 26.3999 115.26 25.1599C122.52 24.0699 129.19 21.2099 135.78 18.0999C138.83 16.6599 141.87 15.2099 145 13.9499C146.57 13.3199 148.16 12.7399 149.78 12.2499C150.53 12.0199 151.28 11.8199 152.04 11.6199C152.69 11.4599 151.86 11.6399 152.51 11.5099C152.99 11.4199 153.46 11.3199 153.94 11.2399C157.37 10.6599 160.86 10.6199 164.29 11.1399C164.71 11.1999 164.43 11.1599 164.34 11.1399C164.61 11.1899 164.88 11.2399 165.15 11.2999C165.6 11.3999 166.06 11.4999 166.51 11.6099C167.63 11.8799 168.75 12.1899 169.86 12.5299C171.85 13.1399 173.81 13.8499 175.75 14.6199C179.72 16.1899 183.58 18.0199 187.52 19.6699C191.46 21.3199 195.67 22.5799 199.87 23.6399C204.07 24.6999 208.24 25.5699 212.42 26.3999C216.21 27.1599 220.01 27.9799 223.62 29.3699C226.83 30.6099 229.52 32.0399 232.08 34.2799C234.64 36.5199 236.26 39.3099 237.31 42.6699C238.36 46.0299 238.95 49.6299 239.64 53.0899C239.93 54.5299 240.2 55.9699 240.45 57.4099C240.74 59.0899 240.91 59.8699 241.19 61.4899C241.78 64.8799 242.18 68.2999 242.52 71.7299C242.58 72.3199 242.82 73.2999 243.59 73.2799C244.36 73.2599 244.56 72.2599 244.59 71.6799L244.58 71.6699Z" fill="#1D1D1B"/>
<path d="M64.15 90.8797C64.78 99.0797 64.62 107.28 64.76 115.5C64.91 124.17 64.97 132.84 65.57 141.5C66.17 150.16 67.19 159.52 69.14 168.34C70.84 176.03 73.56 184.79 80.05 189.83C82.91 192.05 86.3 193.86 89.83 194.74C93.36 195.62 97.7 195.86 100.97 193.66C103.11 192.23 103.88 189.45 103.28 186.96C103.01 185.82 102.55 184.5 101.57 183.77C100.85 183.24 99.69 182.71 98.83 183.29C98.29 183.65 97.73 183.96 97.12 184.19C96.79 184.32 96.46 184.41 96.13 184.51C96.87 184.3 95.88 184.52 95.58 184.55C94.91 184.62 94.23 184.62 93.56 184.58C93.19 184.56 92.82 184.51 92.44 184.47C92.39 184.47 91.86 184.38 92.27 184.45C92.68 184.52 92.01 184.39 91.94 184.38C90.42 184.03 88.95 183.52 87.51 182.9C86.86 182.62 86.22 182.31 85.59 181.97C85.26 181.8 84.95 181.6 84.62 181.43C84.23 181.22 84.77 181.52 84.81 181.55C84.64 181.44 84.47 181.33 84.3 181.22C83.24 180.52 82.33 179.71 81.39 178.87C81.28 178.77 81.02 178.44 81.45 178.95C81.97 179.57 81.39 178.87 81.27 178.71C81.01 178.39 80.76 178.06 80.51 177.72C79.9 176.88 79.36 176 78.84 175.1C79.23 175.75 78.74 174.91 78.63 174.67C78.41 174.23 78.21 173.79 78.01 173.35C77.62 172.46 77.26 171.55 76.94 170.63C76.78 170.17 76.62 169.71 76.47 169.24C76.18 168.34 76.61 169.76 76.36 168.85C76.07 167.8 75.8 166.75 75.55 165.7C74.58 161.66 73.82 157.56 73.21 153.45C72.9 151.35 72.62 149.24 72.38 147.12C72.47 147.94 72.35 146.85 72.32 146.58C72.26 146.05 72.21 145.52 72.16 144.99C72.05 143.93 71.96 142.86 71.86 141.8C71.14 133.52 70.68 125.22 70.16 116.92C69.59 107.99 68.63 99.0197 67 90.2197C66.86 89.4497 66.27 88.4797 65.37 88.6697C64.47 88.8597 64.1 90.0797 64.16 90.8697L64.15 90.8797Z" fill="#1D1D1B"/>
<path d="M118.26 83.5796C118.9 86.8396 118.68 90.0796 118.81 93.3696C118.91 95.9196 119.03 98.4696 119.17 101.01C119.45 106.09 120.3 111.15 120.99 116.19C121.68 121.23 122.45 126.71 123.16 131.98C123.6 135.25 124.03 138.52 124.44 141.79C124.45 141.91 124.68 143.52 124.52 142.35C124.38 141.34 124.52 142.35 124.52 142.54C124.56 143.06 124.59 143.57 124.61 144.09C124.66 145.37 124.68 146.65 124.73 147.94C124.86 151.14 125.2 154.37 126.38 157.37C126.92 158.74 127.67 160.09 128.63 161.21C129.21 161.89 129.79 162.53 130.51 163.06C131.82 164.02 132.71 164.1 134.24 163.7C135.53 163.36 136.18 161.4 136.36 160.29C136.63 158.6 136.23 157.11 135.44 155.64L135.65 156C135.37 155.28 134.94 154.65 134.36 154.14C134.19 153.97 134.04 153.84 133.86 153.69C133.62 153.48 133.39 153.27 133.15 153.06C132.44 152.45 133.43 153.59 133.18 153.11C133.07 152.9 132.87 152.71 132.74 152.51C132.68 152.42 132.14 151.59 132.58 152.29C133.02 152.99 132.54 152.17 132.49 152.04C132.42 151.87 132.03 150.66 132.28 151.56C132.53 152.46 132.27 151.47 132.24 151.33C132.18 151.08 132.13 150.83 132.08 150.58C132.03 150.33 132 150.07 131.95 149.82C131.75 148.68 132.05 151.17 131.96 150C131.87 148.83 131.81 147.76 131.78 146.63C131.61 140.69 130.72 134.83 129.92 128.94C129.23 123.84 128.5 118.76 127.77 113.67C127.13 109.17 126.7 104.6 125.83 100.14C124.62 93.8896 123.91 87.3196 121.47 81.3996C121.1 80.4896 120.15 79.6896 119.2 80.3396C118.25 80.9896 118.03 82.5096 118.24 83.5896L118.26 83.5796Z" fill="#1D1D1B"/>
<path d="M191.91 101.28C191.08 98.4197 191.86 95.3497 193.94 93.1997C196.32 90.7397 199.64 90.0397 202.94 89.8797C207 89.6697 211.12 89.9797 215.18 90.2597C217.45 90.4197 219.72 90.6597 221.99 90.7697C223.94 90.8697 225.9 90.8197 227.85 90.9997C228.21 91.0297 228.56 91.0697 228.91 91.1197C229.15 91.1497 229.38 91.1897 229.62 91.2197C229.55 91.2097 229.13 91.1197 229.54 91.2197C230.33 91.3897 231.12 91.5997 231.88 91.8897C232.25 92.0297 232.6 92.1997 232.96 92.3697C233.61 92.6697 232.67 92.0997 233.24 92.5297C233.52 92.7497 233.83 93.0797 234.13 93.2597C234.49 93.4697 234.03 93.1297 233.96 93.0397C234.12 93.2497 234.28 93.5197 234.46 93.7197C234.76 94.0597 234.39 93.5697 234.36 93.4897C234.41 93.5997 234.71 94.1797 234.67 94.2197C234.65 94.2397 234.45 93.2797 234.57 93.8897C234.61 94.0897 234.67 94.2797 234.71 94.4797C234.76 94.7397 234.8 95.0097 234.85 95.2797C234.87 95.4097 234.97 96.1097 234.87 95.3697C234.77 94.6297 234.86 95.3297 234.87 95.4597C234.89 95.8097 234.92 96.1597 234.94 96.5197C235.08 98.7597 235.16 101 235.17 103.24C235.17 103.82 235.17 104.4 235.17 104.98C235.17 105.04 235.13 105.71 235.17 105.73C235.01 105.67 235.37 104.3 235.37 104.31C235.27 104.68 235.09 104.56 235.37 104.35C235.75 104.06 235.37 104.06 235.31 104.35C235.34 104.16 235.96 103.74 235.37 104.2C235.01 104.48 235.15 104.29 235.42 104.2C235.27 104.26 235.13 104.35 234.98 104.41C234.87 104.45 234.23 104.61 234.66 104.53C235.09 104.45 234.51 104.53 234.47 104.52C234.28 104.51 234.07 104.52 233.88 104.52C232.64 104.5 231.41 104.45 230.17 104.41C225.64 104.27 221.11 104.14 216.58 104C214.03 103.92 211.47 103.85 208.92 103.77C206.81 103.71 204.28 103.68 202.43 103.36C200.72 103.07 198.51 102.31 196.74 101.42C196.18 101.14 195.23 100.56 194.56 100.03C194.41 99.9097 194.27 99.7897 194.13 99.6697C194.08 99.6197 193.55 99.1097 193.83 99.3997C194.26 99.8397 193.21 98.6997 193.36 98.8697C193.39 98.9097 192.46 97.8097 193.02 98.4897C192.08 97.3397 190.69 96.7497 189.45 97.8797C188.13 99.0797 187.89 101.31 188.23 102.95C188.8 105.72 190.3 108.52 192.54 110.31C194.39 111.79 196.81 112.8 199.08 113.42C203.89 114.73 208.94 114.56 213.88 114.71C219.23 114.87 224.58 115.03 229.94 115.19C232.3 115.26 235.04 115.74 237.26 114.71C239.94 113.47 241.45 110.77 242.03 107.99C242.61 105.21 242.28 102.28 242.18 99.5697C242.08 96.8597 242.03 93.9397 241.43 91.2397C240.32 86.2197 237.09 82.2797 232.03 80.9597C227.6 79.7997 222.85 79.8597 218.33 80.1997C213.46 80.5697 208.5 81.1197 203.71 82.0997C198.92 83.0797 194.08 84.9197 191.23 89.2197C188.69 93.0497 188.01 98.2897 190.23 102.42C191.01 103.87 192.27 102.5 191.91 101.28Z" fill="#1D1D1B"/>
<path d="M239.71 123.24C239.62 124.33 239.54 125.43 239.45 126.52C239.4 127.16 239.35 127.81 239.29 128.45C239.26 128.82 239.23 129.19 239.2 129.55C239.18 129.81 239.15 130.07 239.12 130.33C238.98 131.8 239.17 130.05 239.05 130.68C238.99 131.01 238.94 131.34 238.88 131.66C238.83 131.94 238.66 132.93 238.83 132.13C238.71 132.69 238.57 133.17 238.53 133.74C238.45 134.94 238.5 134.15 238.53 133.89C238.49 134.31 238.46 134.74 238.42 135.16C238.27 136.86 238.09 138.56 237.9 140.26C237.51 143.7 237.26 147.16 236.86 150.6C236.46 154.04 235.73 157.71 235.09 161.26C234.19 166.21 233.42 171.2 232.33 176.12C232.24 176.51 232.16 176.89 232.07 177.28C232.03 177.47 231.98 177.65 231.93 177.84C232.33 176.02 232.13 177.04 232.02 177.47C231.81 178.28 231.58 179.08 231.33 179.87C230.74 181.78 230.08 183.66 229.36 185.52C228.9 186.73 228.4 187.92 227.87 189.11C227.64 189.62 227.25 190.19 227.12 190.74C227.4 189.6 227.25 190.47 227.05 190.86C226.89 191.18 226.73 191.5 226.57 191.82C225.29 194.34 223.89 196.79 222.39 199.19C220.82 201.71 219.14 204.16 217.37 206.53C216.93 207.12 216.48 207.71 216.02 208.3C215.81 208.57 215.6 208.84 215.38 209.11C215.27 209.24 215.17 209.38 215.06 209.51C215.28 209.23 215.4 209.09 215.11 209.45C214.12 210.65 213.12 211.83 212.08 212.99C208.06 217.48 203.64 221.64 198.78 225.21C198.24 225.6 197.7 225.99 197.16 226.37C197.07 226.44 196.48 226.82 196.9 226.55C197.28 226.3 196.82 226.6 196.77 226.63C196.45 226.84 196.13 227.05 195.81 227.25C194.58 228.03 193.33 228.77 192.04 229.46C189.65 230.74 187.17 231.85 184.6 232.72C183.98 232.93 183.35 233.13 182.71 233.31C182.37 233.41 182.03 233.5 181.69 233.59C181.55 233.63 181.39 233.66 181.25 233.7C180.73 233.86 181.84 233.58 181.31 233.69C180.04 233.94 178.78 234.18 177.49 234.32C174.9 234.6 172.27 234.58 169.69 234.22C169.5 234.19 168.58 234.04 168.99 234.11C169.43 234.19 168.57 234.02 168.44 233.99C167.75 233.84 167.07 233.67 166.39 233.47C165.1 233.09 163.84 232.63 162.61 232.09C161.98 231.81 161.35 231.51 160.74 231.19C159.98 230.79 159.19 230.35 158.78 230.09C157.22 229.1 155.72 228.02 154.28 226.86C148.41 222.16 143.73 216.15 137.8 211.54C131.87 206.93 125.1 204 118.35 200.81C116.89 200.12 115.45 199.39 114.05 198.58C113.89 198.49 113.73 198.39 113.57 198.3C113.02 197.98 114.01 198.58 113.47 198.25C113.16 198.05 112.84 197.85 112.53 197.65C111.81 197.18 111.11 196.68 110.44 196.15C109.87 195.71 109.31 195.24 108.77 194.76C108.46 194.48 108.15 194.19 107.86 193.9C107.73 193.77 107.61 193.65 107.48 193.52C107.42 193.45 106.9 192.88 107.25 193.28C107.56 193.64 106.92 192.87 106.82 192.74C106.56 192.42 106.32 192.08 106.08 191.74C105.88 191.45 105.69 191.15 105.5 190.85C105.41 190.7 105.32 190.54 105.23 190.39C104.89 189.83 105.7 191.41 105.23 190.37C105.06 189.99 104.73 188.57 104.42 188.37C104.45 188.39 104.67 189.32 104.54 188.76C104.49 188.52 104.42 188.28 104.37 188.05C104.29 187.66 104.29 187.15 104.15 186.79C104.15 186.8 104.23 187.92 104.22 187.32C104.22 187.14 104.19 186.96 104.18 186.78C104.16 186.36 104.18 185.93 104.17 185.51C104.15 184.91 104.13 186.03 104.13 186.04C104.17 185.87 104.16 185.67 104.18 185.5C104.23 185.08 104.29 184.66 104.36 184.24C104.39 184.07 104.73 182.74 104.51 183.46C104.29 184.18 104.64 183.05 104.7 182.87C104.83 182.46 104.98 182.05 105.13 181.65C105.2 181.48 105.27 181.31 105.34 181.13C105.38 181.03 105.7 180.27 105.46 180.83C105.23 181.36 105.7 180.37 105.78 180.21C105.99 179.82 106.21 179.44 106.43 179.07C106.86 178.37 107.32 177.7 107.81 177.05C107.88 176.95 108.38 176.34 108.05 176.74C107.74 177.11 108.15 176.63 108.19 176.59C108.44 176.31 108.69 176.03 108.95 175.75C109.55 175.11 110.19 174.51 110.86 173.94C111.44 173.44 112.04 172.98 112.66 172.54C113.32 172.07 113.01 172.31 112.86 172.4C113.03 172.29 113.21 172.18 113.39 172.07C113.8 171.81 114.22 171.57 114.64 171.33C117.86 169.53 121.36 168.28 124.94 167.4C127.95 166.66 131.97 166.1 135.45 165.82C136.45 165.74 137.46 165.75 138.46 165.8C139.91 165.86 141.36 166.01 142.8 166.19C143.64 166.3 144.48 166.42 145.32 166.56C145.49 166.59 146.3 166.73 145.65 166.62C145 166.51 145.75 166.64 145.9 166.67C146.4 166.77 146.9 166.87 147.4 166.97C151.69 167.87 155.91 169.14 159.98 170.78C162.22 171.69 164.42 172.71 166.55 173.86C167.04 174.13 167.53 174.4 168.02 174.68C168.3 174.84 168.59 175.01 168.87 175.18C169.27 175.42 168.55 174.99 168.55 174.99C168.71 175.05 168.88 175.19 169.03 175.29C170.08 175.94 171.1 176.64 172.09 177.36C174.16 178.87 176.11 180.53 177.9 182.36C178.14 182.6 178.38 182.85 178.61 183.1C178.71 183.21 178.81 183.32 178.91 183.42C179.26 183.78 178.61 183.08 178.61 183.08C178.69 183.52 179.66 184.31 179.95 184.67C180.76 185.69 181.53 186.75 182.24 187.84C182.6 188.4 182.95 188.96 183.28 189.53C183.44 189.8 183.58 190.07 183.74 190.34C184.02 190.82 183.47 189.83 183.48 189.85C183.51 190 183.69 190.25 183.77 190.41C184.39 191.64 184.94 192.91 185.43 194.2C186.24 196.29 188.82 198.13 190.77 196.18C192.82 194.13 192.95 190.67 191.96 188.09C187.66 176.93 179.01 168.37 168.55 162.86C160.48 158.61 151.41 156.13 142.36 155.15C139.54 154.84 136.76 154.74 133.94 155.07C126.21 155.97 118.16 157.49 111.43 161.6C104.44 165.88 99.5301 172.46 97.6801 180.47C95.8301 188.48 98.4301 197.09 104.26 203.07C109.31 208.25 116.14 210.91 122.55 213.92C124.3 214.74 126.04 215.61 127.74 216.55C128.37 216.9 129.46 217.52 129.8 217.73C130.21 217.98 131.3 218.69 131.96 219.14C135.18 221.35 137.98 223.95 140.73 226.71C146.35 232.35 152 237.95 159.13 241.67C164.23 244.33 170.12 245.59 175.86 245.3C188 244.69 199.07 237.96 207.99 230.13C217.41 221.85 225.39 211.55 231.23 200.45C235.7 191.96 238.56 183.13 240.28 173.72C241.49 167.14 242.92 160.53 243.73 153.89C244.66 146.34 244.83 138.59 243.73 131.06C243.7 130.85 243.66 130.63 243.64 130.41C243.67 130.62 243.72 131.15 243.64 130.22C243.56 129.29 243.61 129.82 243.62 130.02C243.61 129.86 243.59 129.7 243.58 129.53C243.53 128.81 243.47 128.09 243.41 127.37C243.32 126.19 243.22 125.02 243.13 123.84C243.05 122.88 242.71 121.49 241.57 121.3C240.53 121.13 239.8 122.31 239.73 123.23L239.71 123.24Z" fill="#1D1D1B"/>
<path d="M183.96 175.84C184.85 171.5 184.93 167.06 185.04 162.64C185.15 157.9 185.19 153.15 185.19 148.41C185.2 139.29 184.85 130.17 184.91 121.04C184.94 116.74 185.14 112.51 184.52 108.24C184.22 106.14 181.77 105.35 180.99 107.63C179.73 111.36 179.66 115.28 179.61 119.19C179.56 123.54 179.61 127.9 179.67 132.25C179.81 141.67 180.14 151.09 180.27 160.51C180.33 165.42 180.18 170.32 180.55 175.22C180.62 176.18 180.98 177.57 182.11 177.76C183.24 177.95 183.77 176.73 183.95 175.83L183.96 175.84Z" fill="#1D1D1B"/>
<path d="M181.92 155.94C184.27 156.3 186.61 156.63 188.97 156.91C190.04 157.04 190.66 157.15 191.87 157.5C192.96 157.81 194.06 158.05 195.15 158.37C196.16 158.67 197.15 159.04 198.1 159.49C198.62 159.74 199.14 160.01 199.64 160.3C199.01 159.94 200.14 160.64 200.37 160.81C201.26 161.45 202.06 162.18 202.84 162.94C203.42 163.51 202.59 162.6 202.91 163C203.21 163.38 203.66 163.99 203.98 164.22C204.73 164.78 205.49 164.91 206.39 164.9C208.5 164.87 209.37 161.92 209.27 160.27C209.18 158.85 209.04 157.45 208.36 156.18C207.89 155.32 207.21 154.62 206.55 153.9C205.73 153.02 204.83 152.21 203.86 151.5C201.72 149.93 199.33 148.67 196.78 147.92C191.24 146.28 185.14 147.77 181.1 151.92C180.05 153 180.18 155.68 181.92 155.95V155.94Z" fill="#1D1D1B"/>
<path d="M181.7 146.34C186.02 147.41 190.65 147.95 195.07 147.2C199.49 146.45 204.23 144.99 207.65 141.81C208.98 140.57 208.65 136.27 206.18 136.98C202.25 138.12 198.55 139.96 194.5 140.76C190.45 141.56 186.24 142.07 182 141.7C180.08 141.53 180.02 145.93 181.7 146.35V146.34Z" fill="#1D1D1B"/>
<path d="M105.89 199.33C107.06 198.2 107.94 196.9 108.92 195.62C109.39 195.01 108.65 195.95 109.12 195.38C109.54 194.87 109.9 194.35 110.25 193.79C110.7 193.07 111.18 192.37 111.68 191.69C112.15 191.05 112.64 190.43 113.12 189.8C113.27 189.6 113.42 189.41 113.57 189.21C113.53 189.26 113.14 189.73 113.46 189.35C113.78 188.97 114.1 188.6 114.43 188.23C115.54 186.99 116.73 185.82 117.99 184.73C118.64 184.17 119.32 183.62 120.01 183.1C120.31 182.88 120.61 182.66 120.91 182.45C121 182.38 121.52 182.03 120.99 182.39C121.2 182.25 121.4 182.12 121.61 181.99C123.07 181.06 124.58 180.23 126.15 179.52C127.72 178.81 129.25 178.22 130.86 177.76C131.6 177.54 132.3 177.45 133.21 177.42C133.65 177.41 134.86 177.79 135.21 177.97C136.27 178.52 137.88 180.22 138.98 181.36C140.55 182.99 142.12 184.62 143.7 186.26C145.28 187.9 146.84 189.52 148.42 191.16C148.74 191.49 149.06 191.82 149.38 192.15C149.52 192.3 149.66 192.45 149.8 192.6C149.87 192.68 150.44 193.32 150.12 192.94C149.83 192.6 150.26 193.12 150.28 193.14C150.41 193.3 150.53 193.46 150.66 193.62C150.82 193.84 150.98 194.06 151.13 194.28C151.19 194.37 151.6 195.11 151.35 194.6C151.1 194.09 151.38 194.7 151.41 194.78C151.82 195.74 151.33 194.66 151.37 194.52C151.32 194.71 151.52 195.16 151.56 195.36C151.59 195.53 151.6 195.75 151.65 195.91C151.66 195.95 151.58 194.6 151.55 195.14C151.54 195.4 151.51 196.71 151.6 195.63C151.69 194.55 151.6 195.6 151.56 195.83C151.52 196.13 151.41 196.45 151.39 196.75C151.39 196.77 151.77 195.63 151.55 196.08C151.49 196.2 151.47 196.34 151.43 196.46C151.32 196.8 151.18 197.13 151.04 197.47C150.74 198.24 151.57 196.54 151.04 197.45C150.88 197.73 150.72 198.01 150.55 198.29C150.4 198.53 150.24 198.76 150.08 198.99C150 199.11 149.91 199.22 149.83 199.33C149.3 200.07 149.95 199.34 149.92 199.24C149.98 199.45 148.8 200.46 148.63 200.63C148.13 201.12 147.61 201.58 147.07 202.02C146.76 202.28 146.44 202.52 146.11 202.76C145.99 202.85 145.86 202.94 145.74 203.03C144.95 203.61 146.2 202.77 145.71 203.05C145.04 203.43 144.41 203.86 143.73 204.23C142.34 204.98 140.9 205.61 139.41 206.11C139.03 206.24 138.66 206.36 138.28 206.47C138.14 206.51 138 206.55 137.86 206.59C137.75 206.62 136.94 206.8 137.5 206.69C137.97 206.59 137.03 206.76 136.86 206.79C136.49 206.85 136.13 206.9 135.76 206.93C134.39 207.07 133 207.1 131.63 207.17C129.33 207.3 128.39 210.03 128.26 211.94C128.13 213.85 128.73 217.12 130.94 217.8C134.19 218.8 137.44 218.03 140.62 217.07C143.8 216.11 146.88 214.46 149.65 212.47C155.94 207.97 159.68 200.73 158.56 192.94C158.21 190.54 157.31 188.23 155.94 186.23C154.57 184.23 152.82 182.62 151.17 180.92C147.77 177.42 144.46 173.8 140.95 170.42C139.41 168.93 137.51 167.45 135.39 166.94C132.78 166.31 130.35 166.86 127.84 167.68C124.03 168.92 120.56 170.83 117.29 173.12C109.77 178.39 102.59 187.2 102.95 196.85C103 198.17 104.3 200.93 105.94 199.34L105.89 199.33Z" fill="#1D1D1B"/>
</g>
<defs>
<clipPath id="clip0_3416_12015">
<rect width="252.6" height="245.35" fill="white"/>
</clipPath>
</defs>
</svg>
