<svg width="208" height="180" viewBox="0 0 208 180" fill="none" xmlns="http://www.w3.org/2000/svg">
<g clip-path="url(#clip0_3416_11731)">
<path d="M158.2 146.65C157.3 147.83 155.66 148.45 154.34 149.31C145.44 155.09 135.92 159.89 128.19 167.5C125.48 170.17 121.14 171.32 117.39 172.74C114.77 173.73 111.55 173.37 109.17 174.67C99.0701 180.13 89.2001 181.2 77.5701 178.53C67.5901 176.23 57.6601 175.22 47.8701 170.96C36.2301 165.9 27.3301 157.81 17.8401 150.19C16.4701 149.09 15.5401 147.2 14.9001 145.49C10.6601 134.12 6.25009 122.8 2.54009 111.26C0.250094 104.14 -0.959906 96.9501 0.940094 89.0701C3.48009 78.5601 3.97009 67.6501 2.92009 56.7401C1.85009 45.6701 6.84009 37.4501 15.4901 31.0401C23.4801 25.1001 31.3801 19.0301 39.4401 13.1701C42.9801 10.6001 46.5301 7.57014 50.5701 6.23014C67.4901 0.630137 84.9801 -2.40986 102.48 2.38014C112.04 5.00014 121.33 9.44014 129.96 14.4301C140.23 20.3601 151.29 25.2001 158.03 36.4901C161.61 42.4901 167.67 46.9301 168.9 54.6101C169.32 57.2601 170.84 60.1501 172.73 62.0801C176.84 66.2601 177.8 71.4301 178.17 76.7401C179.07 89.7701 179.7 102.84 177.26 115.79C176.57 119.44 175.03 122.94 174.41 124.86C168.33 133.09 163.36 139.95 158.21 146.67L158.2 146.65ZM48.8301 49.8201C59.5601 44.6601 70.2801 39.4901 80.8401 34.0001C90.1201 29.1901 99.5801 29.6601 109.23 32.1601C115.5 33.7801 121.72 35.5501 129.64 37.7101C120.32 27.2901 110.99 22.3201 98.6601 25.2401C97.2201 25.5801 95.5601 24.9601 94.0101 24.8601C85.7701 24.3201 78.0401 25.1601 70.4301 29.3501C63.3501 33.2501 55.3301 35.4101 47.7901 38.5001C41.2001 41.2001 37.6201 46.1501 36.3401 54.8601C41.4501 52.8201 45.2501 51.5501 48.8301 49.8301V49.8201Z" fill="black"/>
<path d="M207.52 17.43C207.8 17.18 207.52 16.75 207.16 16.86C199.72 19.13 188.04 19.51 181.26 22C180.24 22.37 179.29 22.9 177.7 23.64C176.95 18.85 176.41 15.27 175.85 11.71C175.09 6.99995 172.81 -1.20005 170.99 2.29995C168.79 5.52995 167.48 9.85995 166.01 12.83C164.33 16.23 160.04 16.52 157.49 19.36C155.59 21.47 152.23 23.78 152.23 23.78C152.23 23.78 155.27 27.27 157.04 28.61C163.7 33.66 166.68 41.28 171.7 47.44C173.82 50.03 175.48 55.45 175.48 55.45C175.48 55.45 179.53 51.99 182.78 51.09C187.84 49.7 190.19 47.2 195.2 49.38C197.2 50.25 203.57 50.93 203.57 50.93C203.57 50.93 201.1 43.85 198.52 42.03C195.38 39.82 189.31 39.81 185.41 37.16C190.42 32.66 201.98 22.36 207.51 17.43H207.52Z" fill="black"/>
</g>
<defs>
<clipPath id="clip0_3416_11731">
<rect width="207.64" height="179.91" fill="white"/>
</clipPath>
</defs>
</svg>
