<svg width="147" height="251" viewBox="0 0 147 251" fill="none" xmlns="http://www.w3.org/2000/svg">
<g clip-path="url(#clip0_3416_11048)">
<path d="M98.07 174.12C97.59 173.62 100.26 169.39 104.66 166.66C106.42 165.57 110.34 163.14 113.08 164.75C114.38 165.52 115.44 167.23 115.09 168.68C114.64 170.54 112.06 171.24 111.08 171.5C107.94 172.35 106.84 170.92 103.7 171.47C100.13 172.1 98.44 174.49 98.07 174.11V174.12Z" fill="white"/>
<path d="M44.78 132.13C44.29 132.32 42.08 129.24 41.43 125.36C41.17 123.81 40.58 120.36 42.5 118.9C43.42 118.2 44.92 117.95 45.84 118.61C47.02 119.46 46.77 121.47 46.67 122.24C46.37 124.69 45.05 125.05 44.54 127.42C43.96 130.11 45.16 131.98 44.78 132.13Z" fill="white"/>
<path d="M59.38 249.38C54.87 249.38 49.82 249.1 45.52 248.6C37.23 247.64 27.69 242.4 26.43 241.69C25.96 240.99 23.75 237.74 21.85 234.84C20.43 232.69 18.85 230.57 17.16 228.32C16.26 227.12 15.33 225.88 14.37 224.56C11.58 220.72 7.24 213.96 5.78 211.16C4.35 208.44 1.99 201.14 0.980004 196.91C0.520004 194.96 0.740004 192.89 0.980004 190.69C1.23 188.43 1.48 186.08 0.960004 183.78C0.640004 182.38 1.26 180.85 2.78 179.23C4.33 177.59 6.43001 176.43 8.85001 175.87C11.6 175.24 16.85 174.05 21.15 173.2C23.01 172.83 26.36 172.64 30.85 172.64C39.83 172.64 51.59 173.42 56.52 174.35C57.47 174.53 58.67 174.75 60.04 175C69.06 176.65 85.84 179.72 92.06 182.35C99.34 185.43 106.95 191.8 108.65 195.23C110.33 198.63 107.92 206.05 105.89 210.2C103.87 214.32 93.29 228.86 90.67 231.79C89 233.66 85.62 237.08 82.9 239.82C81.36 241.37 79.98 242.76 79.13 243.66C77.14 245.74 76.83 245.88 73.87 247.2C73.41 247.4 72.89 247.64 72.29 247.91C70.19 248.86 65.6 249.38 59.37 249.38H59.38Z" fill="white"/>
<path d="M8.69 175.19C6.25 175.75 3.98 176.94 2.27 178.75C0.920002 180.18 -0.169998 182 0.270002 183.94C1.26 188.31 -0.699998 192.94 0.290002 197.08C1.28 201.23 3.66 208.64 5.15 211.49C6.65 214.35 11.04 221.18 13.8 224.98C16.56 228.78 19.1 231.96 21.25 235.23C23.4 238.5 25.93 242.22 25.93 242.22C25.93 242.22 36.32 248.25 45.43 249.3C54.54 250.35 68.12 250.57 72.58 248.55C77.04 246.53 77.22 246.67 79.63 244.15C82.04 241.63 88.58 235.18 91.19 232.26C93.8 229.34 104.49 214.66 106.52 210.51C108.55 206.37 111.13 198.66 109.28 194.91C107.43 191.17 99.58 184.76 92.33 181.7C85.09 178.64 63.89 175.02 56.64 173.66C49.39 172.29 27.49 171.23 21.01 172.51C16.79 173.34 11.71 174.49 8.68 175.18L8.69 175.19Z" fill="#1D1D1B"/>
<path d="M38.61 175.01C38.61 175.01 31.5 175.82 25.16 176.62C18.82 177.42 14.08 176.06 10.73 178.67C7.39 181.28 3.82 183.75 8.74 186.98C13.67 190.21 26.8 196.95 37.83 198.2C48.86 199.45 58.86 203.11 69.78 203.21C80.7 203.32 98.3 201.22 100.65 199.93C103 198.64 106.34 195.45 101.59 192.37C96.83 189.29 90.94 185.25 82.29 182.61C73.64 179.97 62.53 177.51 56.35 176.33C50.17 175.15 38.61 174.99 38.61 174.99V175.01Z" fill="white"/>
<path d="M39 183.63C39.95 183.94 52.69 175.67 47.54 160.91C47.42 160.55 47.97 160.34 48.29 160.53C50.71 161.95 52.9 166.03 54.21 168.27C55.66 170.76 57.92 173.37 60.77 173.09C62.92 172.88 64.52 171.08 66.26 169.8C68 168.52 70.76 167.83 72.12 169.52C73.05 170.68 72.8 172.35 73.11 173.8C73.57 175.95 75.47 177.71 77.64 178.01C80.17 178.36 83.14 176.99 85.1 178.64C86.61 179.91 86.51 182.21 86.42 184.18C86.32 186.15 86.59 188.54 88.36 189.4C75.37 187.91 42.09 184.66 39.01 183.63H39Z" fill="white" stroke="white" stroke-width="0.83" stroke-linecap="round" stroke-linejoin="round"/>
<path d="M38.69 165.52C36.5 164.28 33.75 165.88 31.45 165.77C28.38 165.63 26.03 162.4 27.79 159.57C29.25 157.24 32.17 156.96 34.59 157.72C37.5 158.63 40.68 161.77 41 164.94C41.03 165.27 41.02 165.64 40.8 165.89C40.29 166.48 39.37 165.89 38.69 165.51V165.52Z" fill="white"/>
<path d="M41.97 144C42.99 143.17 38.97 134.54 31.32 128.34C28.57 126.12 22.09 120.83 15.87 122.72C15.26 122.9 12.14 123.86 11.09 126.52C9.99 129.33 11.6 133.01 13.93 135.03C18.48 138.98 23.49 134.61 31.97 137.66C38.53 140.03 41.14 144.67 41.97 143.99V144Z" fill="white"/>
<path d="M112.36 155.65C111.93 154.99 111.28 154.6 110.48 154.7C109.77 154.78 109.07 155.3 108.89 156.03C108.79 156.17 108.7 156.31 108.64 156.46C108.64 156.48 108.62 156.51 108.61 156.53C108.38 157.08 108.77 157.77 109.29 158.02C109.29 158.02 109.31 158.04 109.31 158.05C109.85 158.68 110.95 158.84 111.65 158.41C112.42 157.94 112.76 157.11 112.59 156.23C112.56 156.05 112.46 155.81 112.36 155.66V155.65Z" fill="white"/>
<path d="M95.86 135.71C94.96 135.67 94.04 135.76 93.14 135.88C92.19 136 91.47 136.77 91.44 137.7C91.42 138.26 91.52 139.35 91.69 139.87C92.19 141.37 92.64 141.21 93.2 142.69C93.68 143.96 94.61 145.97 96.87 145.67C99.12 145.37 99.66 142.58 99.51 139.95C99.36 137.33 97.24 135.77 95.86 135.7V135.71Z" fill="white"/>
<path d="M6.6 153.46C6.04 152.6 5.17 152.08 4.12 152.21C3.19 152.32 2.26 153 2.02 153.95C1.88 154.13 1.77 154.32 1.69 154.51C1.68 154.54 1.66 154.57 1.65 154.6C1.34 155.32 1.86 156.23 2.54 156.56C2.55 156.57 2.56 156.58 2.57 156.6C3.27 157.43 4.73 157.64 5.65 157.08C6.66 156.46 7.11 155.37 6.89 154.21C6.84 153.97 6.72 153.66 6.59 153.46H6.6Z" fill="white"/>
<path d="M48.73 149.43C48.37 148.88 47.82 148.55 47.15 148.63C46.55 148.7 45.96 149.14 45.81 149.75C45.72 149.86 45.65 149.99 45.6 150.11C45.6 150.13 45.58 150.15 45.57 150.17C45.37 150.63 45.71 151.21 46.14 151.42C46.14 151.42 46.15 151.44 46.16 151.44C46.61 151.97 47.54 152.1 48.13 151.74C48.78 151.34 49.06 150.65 48.92 149.91C48.89 149.76 48.81 149.56 48.73 149.43Z" fill="white"/>
<path d="M73.47 125.41C72.4 124.84 66.49 131.35 63.94 140.1C62.92 143.59 60.66 151.4 64.69 155.27C66.61 157.12 70.01 158.1 72.3 156.83C75.24 155.2 75.21 150.49 75.19 148.7C75.15 142.97 72.2 141.79 71.66 136.21C71.04 129.87 74.3 125.86 73.47 125.42V125.41Z" fill="white"/>
<mask id="mask0_3416_11048" style="mask-type:luminance" maskUnits="userSpaceOnUse" x="69" y="33" width="75" height="116">
<path d="M143.48 33.3301C143.48 33.3301 114.83 91.5201 92.27 93.8201L80.46 116.31C80.46 116.31 80.88 121.67 76.48 129.35C70.67 139.48 75.64 147.04 71.99 148.86C69.78 149.96 67.13 123.07 75.49 112.23C80.44 105.81 78.2 94.4501 84.54 89.3901C100.21 76.9001 125.32 53.8301 143.49 33.3301H143.48Z" fill="white"/>
</mask>
<g mask="url(#mask0_3416_11048)">
<path d="M129.11 35.9898L141.37 37.4298L119.15 72.6898L108.03 89.5398L90.4 97.7598L81.96 113.45L76.79 115.54L66.17 108.9L85.6 71.8998L121.26 28.8398L133.22 32.4098" fill="white"/>
</g>
<path d="M65.02 95.9599C67.96 91.8099 70.31 87.1799 71.14 82.1099C72.03 76.6999 70.79 71.1799 72.1 65.8199C73.39 60.5499 76.39 55.7599 79.04 51.0899C81.98 45.9299 85.03 40.8299 88.13 35.7599C90.71 31.5499 93.23 27.3599 95.54 22.9999C97.8 18.7299 100.05 14.3799 103.04 10.5699C104.59 8.58993 106.44 6.38993 108.85 5.46993C111.5 4.45993 114.37 5.02993 116.86 6.19993C120.04 7.68993 123.09 9.59993 126.22 11.1899C129.94 13.0799 133.66 15.0099 137.08 17.4099C139.65 19.2099 143.32 21.7899 144.11 25.0399C144.97 28.5799 141.76 33.0699 139.94 35.8099C137.62 39.2999 135.12 42.6399 132.94 46.2299C126.97 56.0799 121.51 66.5099 114.67 75.7799C111.84 79.6199 108.59 83.1599 104.79 86.0499C100.85 89.0499 96.07 90.6399 92.25 93.7899C88.19 97.1499 84.99 101.93 82.99 106.78C82.28 108.52 81.77 110.74 80.24 111.98C78.64 113.28 76.63 112.73 74.92 111.98C70.9 110.21 67.41 107.21 63.92 104.61C63.53 104.32 60.06 101.39 59.6 101.63L59.79 102.19C59.91 103 60.1 102.95 60.36 102.03C60.88 101.47 61.33 100.75 61.79 100.15C62.87 98.7499 63.95 97.3599 65 95.9399C65.95 94.6499 64.05 90.1899 63.21 91.3399C60.4 95.1699 55.09 99.7199 58.45 104.85C59.37 106.25 60.87 106.95 62.2 107.89C63.91 109.11 65.57 110.4 67.27 111.65C70.29 113.88 73.89 116.88 77.69 117.59C81.89 118.38 83.57 114.85 84.86 111.54C86.89 106.35 90.18 101.35 94.62 97.9099C96.79 96.2299 99.28 95.2099 101.64 93.8699C103.88 92.5999 106.02 91.1499 108 89.4999C116.87 82.1199 122.33 71.4199 128.18 61.6999C131.39 56.3699 134.4 50.8399 137.97 45.7499C140.55 42.0699 143.37 38.4599 145.2 34.3299C148.79 26.2199 144.96 18.7899 138.32 13.7699C134.71 11.0399 130.67 8.88993 126.66 6.82993C123.17 5.03993 119.76 2.94993 116.22 1.27993C113.92 0.199931 111.28 -0.370069 108.76 0.179932C105.99 0.779932 103.91 2.76993 102.13 4.85993C98.85 8.70993 96.42 13.2399 94.05 17.6799C87.73 29.5399 80.22 40.7199 73.8 52.5399C70.53 58.5699 68.87 64.4099 68.91 71.2799C68.93 74.9999 69.08 78.5199 67.94 82.1199C66.89 85.4399 65.22 88.4899 63.21 91.3299C62.28 92.6399 64.19 97.0699 65 95.9299L65.02 95.9599Z" fill="black"/>
</g>
<defs>
<clipPath id="clip0_3416_11048">
<rect width="146.6" height="250.09" fill="white"/>
</clipPath>
</defs>
</svg>
