<svg width="243" height="153" viewBox="0 0 243 153" fill="none" xmlns="http://www.w3.org/2000/svg">
<g clip-path="url(#clip0_3416_11798)">
<path d="M240.12 134.76C239.66 134.42 239.14 134.05 238.57 133.9C238.06 133.76 237.45 133.63 236.9 133.67C236.46 133.7 236.02 133.84 235.6 133.94C235.46 133.97 235.32 134.01 235.19 134.06C234.63 134.27 234.12 134.67 233.65 135.02C233.14 135.4 232.76 135.96 232.37 136.46C232.17 136.72 231.98 136.99 231.83 137.28C231.33 138.22 230.92 139.18 230.57 140.18C230 141.81 230.01 143.55 230.51 145.19C230.66 145.84 230.93 146.43 231.32 146.98C231.74 147.61 232.29 148.08 232.98 148.39C233.66 148.6 234.4 148.75 235.11 148.71C235.32 148.7 235.52 148.66 235.73 148.62C236.24 148.51 236.77 148.42 237.26 148.22C237.45 148.14 237.64 148.04 237.82 147.93C238.27 147.66 238.72 147.36 239.12 147.03C239.28 146.9 239.42 146.75 239.56 146.59C239.93 146.16 240.33 145.72 240.62 145.22C240.91 144.72 241.17 144.17 241.38 143.63C241.42 143.53 241.45 143.43 241.48 143.33C241.64 142.79 241.81 142.22 241.88 141.65C241.99 140.79 241.98 140.03 241.88 139.19C241.78 138.35 241.7 137.71 241.33 136.91C241.03 136.25 240.72 135.74 240.25 135.21C240.03 134.97 239.91 134.79 239.67 134.62C239.23 134.29 238.79 134.01 238.26 133.9C237.71 133.79 237.16 133.69 236.59 133.66C236.02 133.63 235.5 133.66 234.96 133.74C233.42 133.95 231.87 134.37 230.52 135.14L229.65 135.73C229.2 136.15 228.86 136.64 228.65 137.2C228.15 138.25 227.88 139.46 227.94 140.63C227.99 141.59 228.17 142.55 228.51 143.46C228.72 144.06 229.05 144.58 229.5 145.01C229.82 145.46 230.25 145.78 230.78 145.99C232.12 146.46 233.59 146.71 235.01 146.68C236.1 146.66 237.03 145.83 237.58 144.97C237.94 144.4 238.18 143.8 238.3 143.14C238.52 142.44 238.61 141.71 238.56 140.97C238.49 139.62 238.23 138.12 237.38 137.02C236.73 136.17 235.88 135.41 234.73 135.44C234.13 135.45 233.55 135.41 232.96 135.31L233.95 135.49C233.45 135.4 232.96 135.27 232.48 135.1L232.75 145.94C233.57 145.48 234.44 145.14 235.36 144.92L234.38 145.14C235.4 144.91 236.51 144.8 237.56 144.96L236.57 144.78C236.75 144.82 236.92 144.87 237.08 144.95L236.18 144.4C236.26 144.45 236.31 144.5 236.38 144.56L235.61 143.7C235.61 143.7 235.68 143.79 235.7 143.85L235.09 142.73L235.13 142.83L234.72 141.5L234.74 141.6L234.57 140.11C234.57 140.18 234.58 140.25 234.57 140.33L234.67 138.83C234.66 138.94 234.64 139.04 234.61 139.15L234.95 137.8C234.9 137.97 234.84 138.14 234.77 138.3L235.32 137.15C235.2 137.39 235.06 137.61 234.89 137.83L235.62 136.93C235.39 137.21 235.13 137.44 234.83 137.65L235.7 137.06C235.32 137.31 234.91 137.49 234.47 137.6L235.45 137.38C235.01 137.48 234.57 137.5 234.12 137.43L235.11 137.61C234.96 137.58 234.82 137.55 234.68 137.5L237.09 145.71C237.26 145.22 237.44 144.73 237.66 144.26L237.11 145.41C237.3 145.01 237.52 144.64 237.8 144.29L237.07 145.19C237.27 144.95 237.49 144.75 237.74 144.57L236.87 145.16C237.17 144.97 237.49 144.82 237.83 144.73L236.86 144.95C237.17 144.88 237.47 144.86 237.79 144.9L236.81 144.72C237.02 144.76 237.22 144.83 237.41 144.93L236.52 144.39C236.57 144.42 236.63 144.45 236.68 144.49C237.07 144.88 237.53 145.09 238.06 145.12C238.55 145.27 239.04 145.23 239.52 144.98C240.03 144.75 240.44 144.41 240.74 143.95C241.16 143.5 241.47 142.97 241.65 142.36C242.1 140.99 242.25 139.46 241.91 138.05C241.63 136.88 241.16 135.5 240.14 134.75L240.12 134.76Z" fill="#1D1D1B"/>
<path d="M95.92 152.58C101.37 152.63 106.81 152.68 112.26 152.72C120.94 152.8 129.62 152.87 138.31 152.95C140.31 152.97 142.3 152.99 144.3 153C145.62 153.01 146.14 151.15 146.44 150.21C146.61 149.7 147.07 148.39 146.38 150.37C146.66 149.56 146.95 148.74 147.24 147.93C148.23 145.19 149.3 142.47 150.44 139.79C151.96 136.2 153.59 132.65 155.39 129.18C155.83 128.33 156.28 127.48 156.74 126.64C156.99 126.18 157.25 125.72 157.51 125.26C156.97 126.22 157.43 125.41 157.53 125.22C157.71 124.92 157.89 124.61 158.07 124.31C159.14 122.51 160.27 120.75 161.47 119.04C162.67 117.33 163.85 115.81 165.18 114.3C165.81 113.58 166.48 112.91 167.14 112.22C167.69 111.64 166.63 112.67 167.22 112.14C167.33 112.04 167.44 111.93 167.56 111.83C167.95 111.48 168.35 111.13 168.75 110.8C170.06 109.73 171.47 108.76 172.99 108.02C173.7 107.67 174.43 107.37 175.19 107.13C174.5 107.35 175.64 107.03 175.84 106.99C176.21 106.91 176.59 106.85 176.97 106.8C179.63 106.49 182.53 106.54 185.21 106.79C186.69 106.93 188.15 107.15 189.61 107.45C190.37 107.61 191.12 107.78 191.86 107.98C192.29 108.09 192.72 108.22 193.15 108.35C192.56 108.17 193.3 108.4 193.37 108.42C193.67 108.52 193.97 108.62 194.26 108.72C205.63 112.71 213.82 120.98 219.69 131.25L218.8 123.55C218.1 126.54 217.99 129.63 218.23 132.68C218.55 136.9 220.03 141.53 223.61 144.11C225.42 145.42 227.8 146 230 146.13C231.65 146.23 232.45 145.96 233.69 145.03C238.27 141.59 240.37 136.32 240.04 130.62C239.83 127.03 238.7 122.75 235.89 120.29C233.72 118.38 230.71 117.13 227.8 117.35L229.94 120.14C229.13 116.98 227.66 113.92 226.09 111.09C222.09 103.9 216.82 97.6498 210.67 92.1998C206.37 88.3898 201.66 84.6998 196.47 82.1498C191.02 79.4698 185 77.7898 178.99 77.0198C167.54 75.5498 156.01 77.6498 145.39 82.0398H146.71C145.96 81.6498 145.26 81.1798 144.57 80.6998C143.82 80.1798 143.09 79.6198 142.38 79.0398C141.96 78.6998 141.56 78.3398 141.16 77.9798C140.97 77.8098 140.78 77.6298 140.59 77.4498C141.37 78.1698 140.47 77.3298 140.27 77.1298C139.29 76.1298 138.36 75.0698 137.51 73.9498C137.07 73.3698 136.64 72.7798 136.24 72.1698C136.03 71.8498 135.83 71.5398 135.63 71.2098C135.55 71.0798 135.47 70.9398 135.39 70.8198C135.02 70.2498 135.82 71.6498 135.31 70.6798C134.54 69.1998 133.96 67.6798 133.31 66.1598C133.9 67.5398 133.33 66.1898 133.22 65.7998C133.09 65.3698 132.98 64.9398 132.87 64.4998C132.76 64.0598 132.69 63.5898 132.57 63.1498C133.03 64.8698 132.57 63.0298 132.5 62.5298C132.42 61.9398 132.37 61.3598 132.32 60.7698C132.24 59.8598 132.36 61.3098 132.35 61.3598C132.37 60.9498 132.32 60.5298 132.31 60.1298C132.31 59.5498 132.32 58.9698 132.34 58.3798C132.35 57.8998 132.59 57.2798 132.31 58.7298C132.37 58.4098 132.36 58.0598 132.39 57.7298C132.46 57.0398 132.54 56.3598 132.65 55.6798C132.69 55.3898 132.75 55.0998 132.79 54.8098C132.86 54.4198 132.83 54.5698 132.7 55.2698C132.75 55.0298 132.8 54.7898 132.85 54.5498C133.17 53.0398 133.58 51.5498 134.04 50.0698L133.15 52.0898C137.64 44.3498 142.13 36.6198 146.63 28.8798C147.28 27.7698 147.92 26.6598 148.57 25.5498L146.66 26.1198C148.99 26.9598 151.56 27.3998 154.03 27.2298C156.01 27.0898 158.11 26.5198 159.76 25.3698C162.32 23.5798 163.74 20.8198 164.66 17.9098C166.16 13.1798 165.9 8.02976 163.2 3.79976C162.24 2.28976 160.8 1.07976 159.1 0.509758C156.28 -0.440242 153.5 0.119758 150.74 1.05976C148.61 1.77976 146.73 2.63976 145.13 4.25976C141.41 8.03976 141.78 14.5098 143.43 19.1098L144.52 9.70976C136.95 13.7598 129.99 19.3698 123.74 25.1898C113.76 34.4998 105.19 45.3498 99.83 57.9598C95.92 67.1698 92.98 77.3798 93.48 87.4698L96.61 82.0498C92.09 80.3398 87.31 79.1498 82.58 78.2098C73.45 76.3998 63.79 75.6798 54.64 77.7598C50.68 78.6598 46.72 80.0398 43.26 82.1898C41.16 83.4998 39.14 84.9298 37.14 86.3898C29.95 91.6698 22.49 97.8398 18.31 105.87C15.75 110.8 13.27 115.79 10.72 120.73L12.47 119.08C10.43 119.02 8.30999 119.47 6.41999 120.19C1.58999 122.01 -0.0900081 127.23 -8.11229e-06 132.01C0.0399919 133.92 0.289992 135.85 0.829992 137.68C1.27999 139.21 1.68999 140.66 2.87999 141.76C3.67999 142.5 4.56999 143.15 5.51999 143.69C7.09999 144.59 9.00999 145.27 10.85 145.21C13.45 145.13 15.61 143.66 17.25 141.73C19.16 139.49 20.49 136.65 20.49 133.69C20.49 132.67 20.33 131.65 20.21 130.63C19.99 128.87 19.77 127.11 19.55 125.34L18.41 131.69C19.54 129.92 20.78 128.22 22.05 126.56C23.32 124.9 24.62 123.28 25.99 121.71C26.76 120.83 27.54 119.96 28.35 119.11C28.75 118.69 29.15 118.28 29.55 117.87C29.77 117.65 30 117.42 30.22 117.2C30.49 116.94 30.52 116.91 30.31 117.11C30.46 116.96 30.62 116.82 30.77 116.68C32.52 115.06 34.38 113.53 36.38 112.22C37.29 111.63 38.22 111.08 39.19 110.59C39.7 110.34 40.21 110.1 40.74 109.89C40.95 109.8 41.17 109.72 41.39 109.64C41.48 109.61 42.29 109.36 41.9 109.47C45.41 108.49 49.15 108.05 52.79 107.96C61.56 107.75 69.69 110 76.43 115.78C77.47 116.67 77.65 116.85 78.62 117.89C79.59 118.93 80.41 119.95 81.22 121.05C82.03 122.15 82.73 123.25 83.42 124.4C84.06 125.45 83.09 123.74 83.67 124.85C83.85 125.2 84.04 125.54 84.22 125.89C84.41 126.26 84.61 126.63 84.77 127.01C85.59 128.92 86.3 130.9 87.06 132.84C89.43 138.87 91.8 144.91 94.17 150.94C94.42 151.59 95.09 152.59 95.92 152.59C96.75 152.59 97.4 151.59 97.67 150.94C98.7 148.49 98.63 145.44 97.67 142.99C95.31 136.99 92.96 130.99 90.6 124.99C89.75 122.83 89.02 120.56 87.99 118.47C85.13 112.7 81.24 107.47 76.05 103.59C68.32 97.8098 58.3 95.9698 48.84 96.9798C44.33 97.4598 39.87 98.4298 35.95 100.82C31.23 103.69 27.19 107.75 23.58 111.89C21.03 114.81 18.65 117.9 16.48 121.12C15 123.31 14.48 125.73 14.78 128.44C14.97 130.17 15.21 131.9 15.43 133.63C15.5 134.15 15.56 134.67 15.63 135.19L16.27 129.72C15.6 131.08 14.69 132.45 13.18 133.32C12.89 133.49 12.6 133.62 12.29 133.75C11.62 134.04 12.59 133.7 12.17 133.79C12.02 133.82 11.88 133.86 11.73 133.88C11.05 134 10.36 134 9.67999 133.9C9.39999 133.86 9.12999 133.8 8.84999 133.74C8.37999 133.64 8.81999 133.74 8.90999 133.77C8.74999 133.72 8.58999 133.66 8.42999 133.6C7.87999 133.39 7.34999 133.14 6.83999 132.85C6.05999 132.41 5.30999 131.88 4.62999 131.3C4.29999 131.02 3.87999 130.41 4.73999 131.44C4.71999 131.41 5.29999 132.37 4.96999 131.65C5.49999 132.83 4.96999 131.27 4.84999 131.01C5.29999 132 4.98999 131.98 4.93999 131.41C4.91999 131.16 4.86999 130.51 4.92999 131.53C4.98999 132.55 4.94999 131.93 4.95999 131.68C4.95999 130.98 4.79999 133.31 4.91999 132.39C5.01999 131.59 4.51999 133.81 4.86999 132.72C4.36999 134.3 4.53999 133.56 4.66999 133.31C4.68999 133.27 4.90999 132.83 4.89999 132.8C5.03999 133.2 4.36999 133.58 4.66999 133.21C4.73999 133.12 4.79999 133.01 4.86999 132.92C5.00999 132.73 5.26999 132.53 5.38999 132.32C5.55999 132.01 4.75999 132.79 5.24999 132.47C5.33999 132.41 5.42999 132.32 5.51999 132.25C5.74999 132.08 5.98999 131.92 6.23999 131.77C6.65999 131.52 7.09999 131.31 7.54999 131.13C7.75999 131.05 7.96999 130.98 8.18999 130.9C8.53999 130.77 7.53999 131.05 8.08999 130.93C8.21999 130.9 8.34999 130.86 8.47999 130.83C9.75999 130.51 11.12 130.32 12.45 130.36C13.32 130.38 13.88 129.33 14.2 128.71C16.46 124.34 18.83 120.01 20.97 115.58C21.19 115.13 21.37 114.66 21.6 114.21C21.73 113.95 22.46 112.72 21.9 113.62C22.21 113.13 22.51 112.63 22.84 112.15C24.06 110.35 25.47 108.69 26.96 107.11C29.69 104.21 32.97 101.41 36.46 98.7298C41.23 95.0798 46.16 91.5098 51.97 89.7198C60.74 87.0198 70.42 87.4298 79.39 88.8998C83.32 89.5398 87.22 90.4298 91.05 91.5398C91.41 91.6398 91.76 91.7498 92.12 91.8598C92.71 92.0298 91.55 91.6698 92.11 91.8598C92.26 91.9098 92.41 91.9498 92.56 91.9998C93.05 92.1598 93.55 92.3198 94.04 92.4798C94.46 92.6198 94.87 92.7598 95.28 92.9198C97.88 93.8998 98.49 89.0298 98.41 87.4998C98.36 86.5098 98.35 85.5098 98.38 84.5198C98.38 84.2698 98.42 84.0098 98.41 83.7698C98.41 83.8998 98.3 85.1298 98.39 84.1298C98.44 83.5598 98.49 82.9998 98.56 82.4298C98.62 81.9298 98.69 81.4198 98.76 80.9198C98.81 80.6198 99.05 79.9198 98.97 79.6098C99.11 80.1398 98.81 80.4298 98.93 79.8298C98.98 79.5798 99.03 79.3298 99.08 79.0898C99.21 78.4698 99.35 77.8598 99.5 77.2498C99.96 75.3398 100.52 73.4598 101.13 71.5998C101.39 70.7898 101.13 71.5998 101.08 71.7298C101.16 71.5098 101.23 71.2898 101.31 71.0698C101.46 70.6398 101.62 70.2098 101.78 69.7898C102.1 68.9298 102.44 68.0698 102.78 67.2198C103.79 64.7498 104.9 62.3198 106.12 59.9398C106.41 59.3798 106.7 58.8398 107 58.2898C107.4 57.5498 106.18 59.6798 106.82 58.6198C107.46 57.5598 108.09 56.5098 108.76 55.4698C116.62 43.2798 126.69 33.4098 138.51 25.1998C140.87 23.5598 143.29 21.9398 145.83 20.5798C147.05 19.9298 147.41 17.8398 147.56 16.6498C147.79 14.7698 147.56 12.9498 146.92 11.1798C146.92 11.1998 147.18 11.9998 147.05 11.5098C146.87 10.8398 147.16 12.4798 147.17 12.5598C147.24 13.4698 147.19 12.9598 147.19 12.7498C147.19 13.2298 147.13 13.6798 147.06 14.1498C146.94 14.9598 146.99 14.5398 147.04 14.3398C147.04 14.3698 146.63 15.4798 146.9 14.8098C147.13 14.2598 146.39 15.4398 146.91 14.8098C147.07 14.6198 147.24 14.4198 147.39 14.2298C147.73 13.7998 146.95 14.5198 147.39 14.2298C147.75 13.9998 148.06 13.7098 148.43 13.4898C149.95 12.5798 151.75 11.9198 153.46 11.5498C154.61 11.2998 155.8 11.1798 156.98 11.2998C157.23 11.3298 157.48 11.3698 157.73 11.4098C157.98 11.4498 158.3 11.5598 157.85 11.4098C158.26 11.5398 158.65 11.7098 159.03 11.9198C159.35 12.0998 159.62 12.3398 159.93 12.5398C160.48 12.9098 159.59 12.0998 159.86 12.4598C159.97 12.5998 160.1 12.7298 160.21 12.8598C160.39 13.0898 160.54 13.4398 160.75 13.6398C160.53 13.4298 160.29 12.6998 160.55 13.3098C160.61 13.4498 160.68 13.5898 160.74 13.7298C160.8 13.8798 160.85 14.0398 160.92 14.1898C161.13 14.6298 160.55 12.8298 160.71 13.5898C160.76 13.8098 160.81 14.0598 160.88 14.2698C161.02 14.7298 160.61 12.5298 160.72 13.4598C160.72 13.5198 160.74 13.5798 160.74 13.6398V10.6498C160.71 10.8798 160.68 11.0998 160.64 11.3198C160.8 10.5198 160.82 10.3898 160.71 10.9298C160.63 11.2198 160.55 11.5198 160.48 11.8198C160.28 12.6398 160.89 10.8298 160.4 12.0098C160.3 12.2498 160.18 12.4898 160.07 12.7298C159.8 13.3598 160.58 12.0498 159.95 12.9098C159.81 13.0998 159.68 13.2898 159.54 13.4698C159.35 13.6998 159.15 13.9198 158.95 14.1398C159.5 13.5298 159.08 14.0198 158.91 14.1498C158.13 14.7298 157.35 15.1698 156.45 15.5498C155.76 15.8298 156.6 15.5498 156.17 15.6398C155.98 15.6798 155.79 15.7298 155.6 15.7698C155.13 15.8698 154.66 15.9298 154.18 15.9698C152.61 16.0998 151.02 15.9698 149.48 15.6598C148.96 15.5598 148.45 15.4198 147.94 15.2898C148.65 15.5398 147.43 15.1598 147.94 15.2898C147.23 15.0398 146.48 15.0898 146.03 15.8598C141.23 24.1198 136.43 32.3898 131.64 40.6498C131.34 41.1698 131.03 41.6998 130.73 42.2198C129.77 43.8798 129.29 45.7698 128.84 47.6198C127.53 52.9698 127.08 58.4398 127.52 63.9398C128.11 71.3398 130.86 78.6598 135.55 84.4498C138.08 87.5698 141.17 90.4298 144.62 92.5098C144.85 92.6498 145.08 92.7998 145.32 92.9098C146.3 93.3498 147.31 92.6498 148.23 92.2898C149.68 91.7198 151.14 91.1998 152.63 90.7298C157.62 89.1498 162.84 88.2098 168.07 87.9198C172.41 87.6798 176.77 87.9098 181.05 88.6198C182.84 88.9198 184.62 89.2998 186.37 89.7698C187.98 90.1998 188.71 90.4198 190.47 91.0698C194 92.3698 197.21 94.0598 200.32 96.1498C208.09 101.38 214.75 107.51 220.09 115.23C220.98 116.52 221.8 117.86 222.61 119.2C223.02 119.88 222.24 118.52 222.49 118.99C222.57 119.15 222.66 119.3 222.75 119.46C222.9 119.73 223.04 120 223.19 120.27C223.49 120.85 223.79 121.43 224.07 122.02C224.47 122.87 224.85 123.73 225.19 124.6C225.32 124.94 225.44 125.28 225.57 125.61C225.86 126.39 225.13 124.19 225.46 125.28C225.52 125.47 225.58 125.65 225.63 125.85C225.86 126.72 226.5 128.73 227.77 128.64C229.78 128.49 231.5 129.05 233.16 130.14C233.65 130.46 234.08 130.82 234.54 131.18C235.09 131.61 234.19 130.89 234.22 130.87C234.22 130.87 234.69 131.57 234.66 131.52C235.11 132.19 234.55 131.15 234.87 131.91C234.96 132.11 235.05 132.32 235.15 132.52C235.46 133.2 235.06 132.27 235.08 132.28C235.16 132.28 235.18 132.78 235.23 132.86C234.91 132.4 235.06 131.75 235.13 132.36C235.26 133.4 235.1 131.09 235.1 131.81C235.1 132.5 235.22 130.42 235.15 131.09C235.03 132.2 235.37 129.74 235.11 131.21C235.01 131.78 235.61 130.11 235.21 130.86C235.14 130.99 235.07 131.15 235.02 131.29C234.98 131.39 234.87 131.65 234.81 131.71C235.22 131.35 235.21 131.11 234.96 131.42C234.55 131.94 234.2 132.49 233.75 132.98C233.64 133.11 233.5 133.22 233.39 133.35C233.13 133.68 233.87 132.95 233.55 133.2C233.33 133.37 233.14 133.57 232.92 133.75C232.57 134.04 232.2 134.32 231.82 134.58C231.59 134.74 231.35 134.89 231.11 135.04C231.07 135.07 231.02 135.1 230.97 135.12C231.77 134.83 230.5 134.93 230.28 134.92C229.45 134.89 228.62 134.79 227.8 134.62C227.1 134.47 226.89 134.42 226.01 133.97C225.49 133.71 225.02 133.38 224.56 133.04C223.86 132.53 224.77 133.39 224.34 132.85C224.14 132.6 223.91 132.36 223.72 132.1C223.64 132 223.58 131.88 223.5 131.78C223.16 131.36 223.64 131.48 223.66 132.09C223.66 131.91 223.4 131.59 223.32 131.42C223.22 131.2 223.16 130.94 223.04 130.73C223.74 131.96 223.25 131.37 223.1 130.82C223.04 130.59 222.82 129.48 223.04 130.61C223.26 131.74 223.06 130.65 223.04 130.41C223.01 130.18 223 129.95 222.98 129.73C223.24 131.88 223.04 130.81 223.03 130.24C223.03 129.45 223.2 128.23 222.98 130.33C223.02 129.94 223.04 129.56 223.09 129.17C223.12 128.93 223.17 128.69 223.2 128.45C223.28 127.85 222.85 130.18 223.05 129.3C223.55 127.06 223.58 124.6 222.67 122.45C222.09 121.07 221.1 119.72 220.29 118.46C219.05 116.52 217.7 114.65 216.23 112.87C213.54 109.6 210.47 106.6 207.08 104.07C202.07 100.33 196.29 97.7098 190.18 96.3498C186.11 95.4398 182.05 95.3298 177.9 95.4998C172.47 95.7298 167.96 99.1398 164.3 102.86C159.88 107.34 156.52 112.77 153.48 118.25C150.69 123.28 148.28 128.51 146.11 133.83C144.76 137.16 143.22 140.62 142.31 144.1C142.27 144.25 142.21 144.4 142.16 144.55L144.3 141.76C138.85 141.71 133.41 141.66 127.96 141.62C119.28 141.54 110.6 141.47 101.91 141.39C99.91 141.37 97.92 141.35 95.92 141.34C95.07 141.34 94.46 142.35 94.17 142.99C93.64 144.15 93.42 145.71 93.45 146.97C93.48 148.23 93.58 149.75 94.17 150.95C94.52 151.65 95.01 152.59 95.92 152.6V152.58Z" fill="#1D1D1B"/>
<path d="M13.96 123.31C13.66 123 13.22 122.75 12.84 122.57C12.46 122.39 11.89 122.31 11.53 122.29C11.22 122.27 10.98 122.34 10.67 122.41C10.36 122.48 10.07 122.53 9.79002 122.67C8.92002 123.12 8.28002 123.76 7.76002 124.59C7.24002 125.42 6.93002 126.42 6.79002 127.35C6.72002 127.81 6.67002 128.51 6.69002 128.98C6.71002 129.5 6.76002 130.15 6.90002 130.65C7.07002 131.54 7.41002 132.36 7.91002 133.11C8.33002 133.74 8.88002 134.21 9.57002 134.52C11.03 134.85 12.51 135.11 14 135.26L11.88 124.83C11.68 124.99 11.48 125.15 11.26 125.29L12.13 124.7C11.23 125.3 10.25 125.72 9.20002 125.97L10.18 125.75C9.04002 126 7.88002 126.04 6.73002 125.85L7.72002 126.03C7.30002 125.95 6.88002 125.85 6.47002 125.71L6.74002 136.55C7.30002 136.21 7.90002 135.97 8.54002 135.81L7.56002 136.03C8.39002 135.85 9.22002 135.83 10.05 135.97L7.93002 125.54C7.71002 125.8 7.46002 126.02 7.18002 126.22L8.05002 125.63C7.65002 125.89 7.23002 126.07 6.77002 126.17L7.75002 125.95C7.41002 126.02 7.08002 126.04 6.74002 126.02C5.69002 125.95 4.67002 126.95 4.17002 127.73C3.47002 128.83 3.12002 130.44 3.19002 131.73C3.31002 134.03 4.30002 137.09 7.02002 137.26C8.78002 137.37 10.76 136.5 11.9 135.16L12.63 134.26C12.99 133.69 13.23 133.09 13.35 132.43C13.64 131.26 13.73 129.94 13.45 128.76C13.24 127.9 12.93 127.05 12.44 126.3C12.14 125.8 11.73 125.42 11.22 125.17C10.81 124.85 10.33 124.7 9.79002 124.72C9.03002 124.58 8.26002 124.58 7.50002 124.73C6.45002 124.94 5.44002 125.18 4.52002 125.74L3.65002 126.33C3.20002 126.75 2.86002 127.24 2.65002 127.8C2.15002 128.85 1.88002 130.06 1.94002 131.23C1.99002 132.19 2.17002 133.15 2.51002 134.06C2.85002 134.97 3.76002 136.25 4.78002 136.59C6.48002 137.15 8.38002 137.38 10.15 137.04C11.17 136.84 12.2 136.61 13.14 136.17C14.08 135.73 15.03 135.1 15.86 134.42L16.59 133.52C16.95 132.95 17.19 132.35 17.31 131.69C17.6 130.52 17.69 129.2 17.41 128.02C17.2 127.16 16.89 126.31 16.4 125.56C16.1 125.06 15.69 124.68 15.18 124.43C14.77 124.11 14.29 123.96 13.75 123.98C13.01 123.91 12.28 123.81 11.55 123.67L12.54 123.85C12.12 123.77 11.71 123.69 11.3 123.59L13.98 127.45C13.95 127.36 13.94 127.27 13.93 127.18L14.1 128.67C14.1 128.61 14.09 128.55 14.1 128.49L14.01 129.98C14.01 129.92 14.02 129.86 14.03 129.8L13.7 131.14C13.72 131.05 13.75 130.96 13.79 130.87L13.25 132C13.31 131.88 13.38 131.78 13.46 131.67L12.76 132.54C12.87 132.41 12.98 132.3 13.12 132.21L12.29 132.77C12.45 132.66 12.61 132.59 12.8 132.54L11.89 132.75C12.01 132.73 12.12 132.72 12.24 132.73L11.33 132.57C11.45 132.59 11.55 132.63 11.66 132.68C12.45 133.1 13.66 132.68 14.24 132.1C14.93 131.41 15.32 130.55 15.55 129.62C15.82 128.56 15.9 127.36 15.64 126.28L15.27 125.07C14.99 124.37 14.58 123.77 14.02 123.26L13.96 123.31Z" fill="#1D1D1B"/>
<path d="M155.56 6.07963C155.11 5.81963 154.64 5.59963 154.13 5.46963C153.72 5.36963 153.3 5.22963 152.89 5.27963C152.5 5.32963 151.92 5.48963 151.65 5.55963C151.38 5.62963 151.13 5.69963 150.88 5.80963C150.66 5.89963 150.45 6.00963 150.24 6.13963C149.76 6.43963 149.26 6.74963 148.83 7.12963C147.9 7.92963 147.11 9.05963 146.71 10.2196C146.53 10.7396 146.4 11.3096 146.3 11.8596C146.43 11.1796 146.18 12.9896 146.2 13.4596C146.22 13.8696 146.28 14.6196 146.38 15.0196C146.5 15.5396 146.62 16.0696 146.84 16.5496C146.99 16.8896 147.27 17.4196 147.48 17.7296C147.52 17.7896 147.56 17.8396 147.6 17.8896C148.21 18.6396 148.73 19.1196 149.61 19.5296C150.09 19.7596 150.68 19.7996 151.19 19.8796C151.7 19.9596 152.17 19.9296 152.66 19.8996C152.92 19.8796 153.18 19.8496 153.44 19.7996C153.99 19.6896 154.58 19.5896 155.11 19.3696C155.64 19.1496 156.11 18.7896 156.55 18.4496C156.65 18.3696 156.74 18.2796 156.83 18.1896C157.15 17.8496 157.47 17.4596 157.73 17.0696C158.07 16.5596 158.33 15.9796 158.54 15.4096C158.72 14.8996 158.84 14.3496 158.95 13.8196C158.98 13.6796 159 13.5496 159.02 13.4096C159.22 11.5396 159.06 9.74963 158.4 7.97963C158.18 7.39963 157.88 6.84963 157.54 6.33963C157.38 6.09963 157.17 5.88963 156.98 5.67963C156.77 5.43963 156.56 5.17963 156.32 4.97963C155.73 4.48963 154.99 4.03963 154.23 3.85963C153.72 3.73963 153.17 3.61963 152.64 3.61963C152.08 3.61963 151.5 3.77963 150.97 3.91963C150.74 3.97963 150.52 4.04963 150.32 4.15963C149.94 4.35963 149.57 4.62963 149.23 4.88963C149.12 4.96963 149.02 5.04963 148.93 5.14963C148.51 5.57963 148.1 6.04963 147.83 6.57963C147.6 7.02963 147.35 7.48963 147.2 7.96963C146.94 8.77963 146.83 9.47963 146.77 10.3096C146.68 11.6996 146.82 13.1596 147.42 14.4296C147.74 15.1096 148.05 15.6196 148.54 16.1696C148.73 16.3796 148.9 16.6196 149.13 16.7896C150.03 17.4396 151.11 17.8696 152.24 17.6596C153.13 17.4896 153.85 17.2896 154.6 16.8296C155.15 16.4996 155.72 16.2196 156.34 16.0696L155.37 16.2896C155.55 16.2496 155.72 16.2396 155.9 16.2596L154.94 16.0896C155.09 16.1196 155.22 16.1696 155.36 16.2396C155.84 16.4496 156.31 16.4796 156.78 16.2996C157.29 16.2396 157.73 16.0196 158.09 15.6196L158.79 14.7496C159.14 14.1996 159.37 13.6196 159.48 12.9896C159.76 11.8596 159.85 10.5896 159.57 9.44963C159.28 8.22963 158.79 7.11963 157.85 6.24963C157.06 5.50963 156.18 5.23963 155.13 5.14963C154.44 5.08963 153.7 5.32963 153.07 5.62963C152.38 5.95963 151.8 6.42963 151.04 6.60963L152.02 6.38963C151.74 6.44963 151.46 6.47963 151.17 6.43963L152.16 6.61963C152.02 6.58963 151.89 6.54963 151.76 6.47963L152.66 7.02963C152.56 6.96963 152.47 6.89963 152.39 6.80963L153.16 7.66963C153.11 7.60963 153.07 7.54963 153.03 7.48963L153.64 8.60963C153.64 8.60963 153.59 8.50963 153.57 8.45963L153.98 9.78963C153.96 9.70963 153.94 9.63963 153.93 9.54963L154.1 11.0396C154.1 10.9896 154.1 10.9296 154.1 10.8796L154 12.3796C154 12.2996 154.02 12.2196 154.04 12.1396L153.7 13.4896C153.72 13.4096 153.75 13.3296 153.78 13.2596L153.23 14.4096C153.29 14.2796 153.37 14.1596 153.46 14.0396L152.73 14.9396C152.88 14.7496 153.05 14.5996 153.25 14.4596L152.38 15.0496C152.63 14.8996 152.9 14.7896 153.18 14.7196L152.2 14.9396C152.6 14.8596 153 14.8496 153.41 14.9196L152.42 14.7396C152.76 14.8096 153.08 14.9296 153.39 15.0996L152.49 14.5496C152.71 14.6896 152.91 14.8496 153.08 15.0496L152.31 14.1896C152.42 14.3196 152.51 14.4496 152.6 14.5996L151.99 13.4796C152.07 13.6296 152.13 13.7796 152.18 13.9396L151.77 12.6096C151.82 12.7696 151.85 12.9296 151.87 13.0996L151.7 11.6096C151.71 11.7496 151.72 11.8896 151.7 12.0196L151.8 10.5196C151.79 10.6896 151.76 10.8496 151.73 11.0096L152.07 9.65963C152.03 9.81963 151.97 9.96963 151.9 10.1196L152.45 8.96963C152.38 9.11963 152.29 9.24963 152.19 9.38963L152.92 8.48963C152.77 8.66963 152.6 8.81963 152.4 8.95963L153.27 8.36963C152.97 8.55963 152.65 8.67963 152.3 8.76963L153.28 8.54963C152.5 8.71963 151.6 8.78963 150.81 8.64963L151.8 8.82963C151.57 8.77963 151.36 8.71963 151.15 8.59963L152.05 9.14963C151.97 9.09963 151.9 9.04963 151.83 8.97963L152.6 9.83963C152.55 9.78963 152.52 9.73963 152.48 9.67963L153.09 10.7996C153.09 10.7996 153.05 10.7196 153.04 10.6796L153.45 12.0096C153.45 12.0096 153.42 11.9196 153.42 11.8696L153.59 13.3596C153.59 13.2996 153.58 13.2496 153.59 13.1896L153.49 14.6896C153.49 14.6296 153.51 14.5596 153.53 14.4996L153.19 15.8496C153.21 15.7896 153.23 15.7296 153.26 15.6696L152.71 16.8196C152.79 16.6696 152.88 16.5396 152.98 16.4096L152.25 17.3096C152.52 16.9796 152.82 16.7096 153.17 16.4696L152.3 17.0596C152.78 16.7396 153.3 16.5196 153.85 16.3796L152.87 16.5996C153.45 16.4696 154.03 16.3696 154.57 16.1396C154.83 16.0296 155.09 15.9396 155.36 15.8796L154.46 16.0896C154.6 16.0596 154.75 16.0296 154.9 16.0196C155.87 15.9196 156.71 15.3296 157.2 14.4896C157.73 13.5896 157.97 12.6096 158.04 11.5796C158.11 10.5496 158.02 9.34963 157.57 8.37963L157.03 7.36963C156.66 6.79963 156.16 6.37963 155.54 6.10963L155.56 6.07963Z" fill="#1D1D1B"/>
<path d="M100.96 135.46C114.56 136 128.16 136.48 141.77 136.77C144.49 136.83 144.39 130.6 141.62 130.58C128.02 130.48 114.44 130.57 100.85 130.73C98.75 130.75 98.86 135.38 100.97 135.46H100.96Z" fill="#1D1D1B"/>
</g>
<defs>
<clipPath id="clip0_3416_11798">
<rect width="242.07" height="153.01" fill="white"/>
</clipPath>
</defs>
</svg>
