<svg width="306" height="159" viewBox="0 0 306 159" fill="none" xmlns="http://www.w3.org/2000/svg">
<g clip-path="url(#clip0_3416_12115)">
<path d="M57.2 75.2099C68.32 77.5299 79.54 79.5799 90.8 81.0599C98.39 82.0599 106.75 81.9399 113.83 84.1999C117.67 85.4299 121.45 87.3099 123.99 90.3899C124.14 90.5699 124.25 90.9799 123.98 90.3299C123.97 90.2999 124.19 90.8399 124.21 90.8399C124.01 90.7799 123.9 89.6799 123.87 89.4699C124 90.3999 123.84 88.5099 123.86 88.3099C123.86 88.2399 124.15 86.5399 123.99 87.1499C123.85 87.6999 124.29 86.2299 124.1 86.7699C124.01 87.0399 123.64 87.4099 124.14 86.7399C124 86.9299 123.88 87.1199 123.74 87.3099C123.11 88.1199 123.08 88.1199 122.19 88.8099C121.3 89.4999 120.41 90.0399 119.47 90.5599C114.92 93.0799 109.9 94.1499 105 95.7499C101.97 96.7399 98.92 97.8699 96.17 99.4899C94.76 100.32 93.72 101.39 93.14 102.98C92.07 105.9 91.77 109.23 92.59 112.25C93.54 115.72 95.91 117.83 99.24 118.94C102.74 120.1 106.42 120.55 110.09 120.75C114.87 121.01 119.66 120.87 124.44 121.22C128.4 121.51 132.33 121.82 136.3 121.87C155.02 122.12 173.62 120.05 192.28 118.89C198.14 118.53 204.01 118.41 209.87 118.11C213.68 117.92 217.55 117.46 221.14 116.12C223.1 115.38 224.98 114.2 226.12 112.4C227.76 109.81 228.14 106.53 227.76 103.53C227.55 101.84 227.07 100.19 226.23 98.7099C226.18 98.6199 225.78 97.8099 225.62 97.6999C226.03 97.9699 226.02 98.4699 225.81 97.9899C225.73 97.7999 225.59 97.3899 225.84 98.1499C226.11 98.9699 225.93 98.4299 225.89 98.2399C225.86 98.1099 226.14 99.7399 226.06 99.0899C226.21 100.36 226.15 101.22 225.89 102.27C226.03 101.7 225.6 103.05 225.64 102.96C225.69 102.83 225.74 102.7 225.81 102.57C225.08 103.9 226 102.57 226.17 102.26C226.34 101.95 225.56 102.74 226.02 102.41C226.11 102.34 226.19 102.26 226.28 102.19C226.51 102 226.75 101.83 227 101.66C227.98 101 229.05 100.49 230.14 100.05C230.72 99.8099 231.32 99.5999 231.91 99.3899C232.2 99.2899 232.49 99.1999 232.78 99.1099C232.35 99.2499 233.3 98.9599 233.47 98.9099C234.77 98.5499 236.09 98.2299 237.42 97.9599C239.4 97.5499 241.41 97.2099 243.42 96.9599C246.59 96.5599 249.34 95.5999 251.62 93.2799C255.36 89.5099 256.28 83.3799 255.57 78.3299C255.35 76.7799 254.96 75.2999 254.4 73.8399C254.26 73.4799 254.18 72.9299 254.52 74.2599C254.35 73.5799 254.65 75.1199 254.64 75.0399C254.55 74.3199 254.69 76.1399 254.69 75.9999C254.71 76.9799 254.57 78.0499 254.16 78.9599C254.34 78.5499 253.59 79.8499 254.04 79.1699C254.43 78.5799 253.59 79.4199 254.09 79.0999C254.59 78.7799 255.05 78.4699 255.6 78.2299C255.86 78.1199 256.12 78.0199 256.38 77.9299C256.83 77.7699 256.48 77.8899 256.38 77.9199C256.53 77.8699 256.68 77.8299 256.83 77.7899C257.59 77.5899 258.36 77.4299 259.14 77.2899C260.71 77.0199 262.29 76.8499 263.88 76.7099C266.8 76.4599 269.74 76.4099 272.65 76.0799C282.16 74.9999 283.77 61.4599 279.11 54.8299C276.98 51.7999 273.16 50.8799 269.76 50.0499C266.01 49.1399 262.16 48.6599 258.32 48.3399C251.33 47.7699 244.28 47.7799 237.27 48.1099C236.27 48.1599 235.28 48.2099 234.28 48.2699C233.94 48.2899 233.61 48.3199 233.27 48.3399C233.15 48.3399 233.04 48.3599 232.92 48.3699C231.92 48.4299 232.26 47.8899 232.92 49.2599L233.53 51.6399L233.5 51.4899V54.3599L232.7 56.9099C232.89 56.6999 232.91 56.6699 232.78 56.8099C232.41 56.9799 233.24 56.4799 233.21 56.4999C233.61 56.2099 234.04 55.9499 234.47 55.6999C235.55 55.0699 236.85 54.6499 237.82 53.8699C240.61 51.6199 241.05 47.3899 240.65 44.0799C240.3 41.1499 239 38.4199 236.1 37.3999C233.61 36.5299 231.01 36.1699 228.38 36.1199C225 36.0499 221.66 36.5399 218.3 36.8499C215.4 37.1199 212.5 37.3499 209.6 37.5799C202.12 38.1599 194.63 38.6699 187.14 39.1599C183.79 39.3799 180.45 39.5899 177.1 39.7899C175.77 39.8699 174.44 39.9499 173.11 40.0199C172.09 40.0799 170.96 40.2699 169.95 40.1599C169.64 40.1299 169.13 39.8799 169.04 39.8599L169.07 39.9099C168.66 39.3499 168.73 39.5999 169.28 40.6799L168.96 43.5899C168.16 46.3999 168.1 47.3099 168.78 46.3099C168.32 46.5399 168.66 46.3899 168.8 46.2999C169.03 46.1399 169.25 45.9799 169.48 45.8399C170.06 45.4899 170.71 45.2399 171.24 44.8199C174.4 42.3299 174.23 36.4399 172.76 33.1099C171.47 30.1999 168.17 28.4199 165.36 27.2299C158.45 24.2999 150.69 23.4599 143.27 23.0599C134.09 22.5699 124.86 22.9399 115.7 23.6599C106.54 24.3799 97.16 25.4999 87.99 27.0199C83.68 27.7299 79.15 28.5999 75.18 30.4899C72.49 31.7699 70.64 33.7199 69.9 36.6599C68.89 40.6599 69.77 45.0899 72.82 47.9199C74.57 49.5399 76.76 50.6399 78.95 51.5399C79.59 51.8099 80.24 52.0499 80.9 52.2899C81.28 52.4299 81.68 52.5399 82.05 52.6999C82.22 52.7799 82.46 52.9599 82.65 53.0199L82.52 52.8499C83.17 53.7199 82.95 52.9999 81.85 50.6899V47.8199L82.3 46.1099C82.59 45.6399 82.6 45.5699 82.34 45.9099L82.47 45.7599C82.3 45.8899 82.11 45.9999 81.92 46.1099C81.56 46.3099 81.16 46.4599 80.78 46.6099C79.99 46.9199 78.7 47.3599 78.19 47.5199C76.01 48.1899 73.79 48.7299 71.57 49.2399C67.31 50.2099 63.01 51.0199 58.7 51.7399C56.44 52.1099 54.12 52.2899 51.94 53.0299C45.8 55.1199 45.31 63.5399 47.92 68.5899C49.77 72.1599 53.32 74.3299 57.16 75.2199C57.91 75.3899 58.64 74.0799 58.84 73.6399C59.35 72.5199 59.56 71.0299 59.54 69.8199C59.51 68.0599 59.29 64.9099 57.16 64.4199C57.05 64.3899 56.94 64.3599 56.82 64.3299C56.32 64.1999 57.09 64.4299 56.93 64.3699C56.7 64.2799 56.46 64.2099 56.23 64.1299C55.2 63.7499 54.21 63.2699 53.28 62.6799C53.03 62.5199 52.78 62.3399 52.53 62.1599C52.42 62.0699 51.8 61.5499 52.01 61.7499C52.26 61.9799 51.94 61.6799 51.91 61.6499C51.79 61.5099 51.67 61.3799 51.55 61.2499C51.32 60.9699 50.9 60.2399 51.27 60.9699C51.19 60.8099 51.11 60.6299 51.03 60.4699C50.85 60.1299 50.83 60.3399 51.02 60.4899L51.12 60.7699C51.02 60.3699 51.02 60.3999 51.12 60.8599C51.16 61.2899 51.24 61.7199 51.24 62.1599C51.24 62.9199 51.01 64.2399 50.86 64.5799C51.04 64.1699 50.35 65.1299 50.7 64.8899C50.8 64.8199 50.96 64.5899 51.03 64.4899C50.71 64.8699 50.8 64.6899 51.1 64.4899C51.34 64.3299 51.57 64.1799 51.83 64.0399C52.02 63.9399 52.21 63.8499 52.41 63.7599C52.54 63.6999 52.67 63.6499 52.8 63.5999C52.87 63.5699 53.42 63.3899 53.07 63.4999C52.8 63.5899 53.39 63.4199 53.51 63.3899C53.71 63.3399 53.91 63.2999 54.11 63.2599C54.44 63.1999 54.77 63.1499 55.1 63.1099C56.45 62.9399 57.79 62.7199 59.13 62.4899C64.95 61.5099 70.78 60.4099 76.47 58.8399C79.08 58.1199 82.55 57.4799 84.51 55.4699C86.72 53.2099 86.94 48.9699 86.11 46.1199C85.45 43.8599 84.29 42.6699 82.14 41.9099C80.15 41.1999 78.18 40.3699 76.37 39.2699C75.65 38.8299 75 38.3199 74.34 37.7999C73.82 37.3899 74.69 38.2299 74.41 37.8699C74.31 37.7399 74.18 37.6299 74.08 37.4999C73.7 37.0399 73.39 36.4199 73.94 37.4399C73.86 37.2999 73.81 37.1599 73.75 37.0099C73.77 37.0699 74.17 38.3099 74 37.6699C74.28 38.7199 74.37 39.7999 74.19 41.0699C74.26 40.5599 73.83 42.6499 74.06 41.8199C74.02 41.9699 73.57 43.1199 73.89 42.4299C73.92 42.3699 73.26 43.2599 73.71 42.7899C73.81 42.6799 73.93 42.5399 74.02 42.4199C74.37 41.9399 73.5 42.8099 74.01 42.4399C75.83 41.1199 77.93 40.2099 80 39.5999C86.96 37.5499 94.41 36.8099 101.6 35.9299C108.79 35.0499 116.29 34.3499 123.66 33.9799C131.03 33.6099 137.87 33.5299 144.95 33.9999C148.02 34.2099 151.09 34.5199 154.13 35.0199C155.55 35.2499 156.97 35.5299 158.37 35.8599C158.99 36.0099 159.6 36.1599 160.21 36.3299C160.98 36.5399 160.89 36.5099 161.69 36.7799C163.79 37.4799 165.86 38.3699 167.72 39.5899C168.14 39.8699 168.56 40.1599 168.95 40.4799C169.1 40.5999 169.25 40.7299 169.4 40.8599C169.81 41.2199 169.32 40.7999 169.33 40.7799L169.52 41.0099C169.39 40.8199 169.31 40.6099 169.26 40.3799C169.1 39.8999 169.21 35.6699 169.44 35.1599C169.45 35.1299 169.69 34.5999 169.73 34.6299C169.68 34.5899 168.58 35.2499 168.53 35.2799C167.74 35.7299 166.94 36.2999 166.37 37.0299C163.54 40.6599 164.01 50.8299 170.1 50.9999C171.78 51.0499 173.5 50.8399 175.18 50.7399C186.29 50.0999 197.4 49.3499 208.5 48.4999C212.62 48.1899 216.75 47.8899 220.85 47.4299C224.6 47.0099 228.38 46.6999 232.14 47.2599C232.92 47.3799 233.72 47.5199 234.48 47.7399C234.87 47.8599 235.26 47.9999 235.63 48.1699C235.77 48.2299 235.92 48.2899 236.06 48.3699C236.15 48.4199 236.69 48.6699 236.46 48.6099C236.28 48.5699 236.44 48.5999 236.55 48.7399C236.12 48.1399 236.36 48.3499 236.46 48.5999C235.81 46.9899 236.1 45.4699 236.35 43.8399C236.43 43.2999 236.42 43.5899 236.35 43.7899C236.71 42.7699 236.55 43.6299 236.38 43.6299C236.32 43.6299 237.08 43.2299 236.32 43.6599C236.15 43.7599 235.98 43.8699 235.8 43.9599C233.98 44.9299 232.1 45.7399 230.64 47.2499C228.41 49.5399 228.24 54.2599 229.58 57.0099C230.82 59.5499 232.95 59.1899 235.26 59.0599C240.37 58.7599 245.5 58.6599 250.62 58.7899C257.01 58.9499 263.5 59.3899 269.73 60.8999C271.15 61.2399 272.07 61.4999 273.4 61.9999C274.06 62.2499 274.7 62.5099 275.29 62.8899C275.52 63.0299 275.72 63.2099 275.94 63.3599C276.38 63.6599 276.06 63.4499 275.95 63.3399C276.1 63.4899 276.24 63.6499 276.37 63.8099C276.55 64.0299 276.69 64.2999 276.88 64.5199C276.48 64.0599 276.66 64.1499 276.9 64.6499C277.32 65.4999 276.67 63.8699 276.87 64.5899C276.92 64.7599 277.01 65.2399 276.85 64.4199C276.67 63.5199 276.8 64.2699 276.83 64.4899C276.83 64.5099 276.77 62.9499 276.77 63.7699C276.77 63.9199 276.87 62.3499 276.82 62.9299C276.73 63.9499 277.03 61.8799 276.88 62.6999C276.86 62.7899 276.73 63.1099 276.75 63.1599C276.73 63.1099 277.13 62.2899 276.92 62.6299C276.84 62.7499 276.75 62.9299 276.72 63.0699C276.64 63.4499 277.1 62.5599 276.85 62.8599C276.67 63.0699 276.54 63.3299 276.36 63.5499C276.29 63.6399 275.71 64.2199 275.98 63.9899C276.25 63.7599 275.6 64.2699 275.49 64.3399C275.17 64.5599 274.84 64.7399 274.49 64.8999C273.69 65.2699 272.61 65.3699 271.46 65.4599C269.02 65.6599 266.57 65.7599 264.13 65.9599C259.68 66.3299 253 66.5799 250.83 71.2599C249.87 73.3399 249.76 75.8399 250.05 78.0699C250.16 78.9599 250.46 80.6199 250.96 81.3899C251.28 81.8999 250.8 80.6799 250.92 81.2699C250.95 81.4299 251.01 81.5999 251.05 81.7599C251.26 82.5299 250.92 81.4599 251 81.4499C251.02 81.4499 251.05 82.0499 251.07 82.0999C250.77 81.3699 251.03 81.0499 251.02 81.6399C251.02 81.4699 251.29 80.3699 251.05 81.1599C250.78 82.0499 251.33 80.2199 251.08 81.1199C251.07 81.1599 250.99 81.6699 250.92 81.7299C250.94 81.7199 251.34 80.7299 250.98 81.5299C250.89 81.7399 250.35 82.7799 250.77 82.0799C250.39 82.6999 249.96 83.2999 249.45 83.8199C249.71 83.5499 249.07 84.1499 248.97 84.2299C248.63 84.4899 248.28 84.7299 247.91 84.9499C246.33 85.8799 244.66 86.0799 242.9 86.3199C241.14 86.5599 239.52 86.8299 237.85 87.1699C233.69 88.0099 228.95 89.0199 225.44 91.5499C220.52 95.0899 220.25 102.66 223.45 107.47C223.86 108.09 222.98 106.46 223.22 107.06C223.27 107.18 223.33 107.3 223.38 107.41C223.78 108.2 223.22 106.95 223.22 106.88C223.23 107.03 223.3 107.26 223.36 107.39C223.56 107.85 223.1 105.91 223.18 106.42C223.22 106.7 223.25 107.35 223.18 106.12C223.11 104.89 223.15 105.48 223.15 105.75C223.14 106.35 223.29 103.96 223.21 104.72C223.13 105.48 223.59 103.12 223.28 104.23C223.32 104.11 223.78 102.94 223.49 103.57C223.2 104.2 223.63 103.24 223.75 103.16C223.57 103.27 223.36 103.71 223.23 103.89C223.22 103.9 222.94 104.24 222.92 104.23C222.85 104.19 223.6 103.7 222.96 104.16C222.63 104.39 222.31 104.64 221.96 104.84C219.82 106.11 218.16 106.42 215.69 106.83C211.55 107.5 207.36 107.49 203.18 107.65C198.32 107.84 193.46 108.1 188.61 108.44C180.9 108.98 173.2 109.69 165.48 110.19C157.76 110.69 150.13 111.07 142.45 111.17C139.03 111.22 135.61 111.21 132.2 111.07C128.79 110.93 125.11 110.52 121.55 110.35C114.79 110.02 107.85 110.58 101.23 108.83C100.4 108.61 99.15 108.17 98.13 107.6C97.67 107.35 97.27 107.04 96.86 106.73C96.59 106.53 97.04 106.92 97.05 106.93C96.96 106.83 96.86 106.74 96.78 106.64C96.75 106.6 96.33 106.01 96.33 106.02C96.44 105.98 96.76 106.85 96.55 106.36C96.51 106.26 96.88 107.45 96.77 107.01C96.63 106.46 96.95 108.31 96.89 107.73C96.83 107.15 96.94 108.87 96.94 108.67C96.97 110.38 96.83 109.9 96.89 109.48C96.91 109.36 96.63 110.75 96.75 110.22C96.79 110.03 96.98 109.54 96.73 110.19C96.6 110.54 96.59 110.6 96.67 110.38C96.76 110.16 96.73 110.22 96.56 110.55C96.3 110.65 96.85 110.4 97 110.31C97.32 110.11 97.64 109.92 97.96 109.74C104.1 106.33 111.12 105.37 117.53 102.65C120.76 101.28 124.23 99.4399 126.34 96.5299C129.1 92.7199 129.41 86.8599 127.3 82.6899C125.66 79.4399 122.29 76.9699 119.02 75.4299C113.17 72.6699 106.71 71.8299 100.32 71.3899C88.38 70.5599 76.48 68.2899 64.74 66.0299C62.23 65.5499 59.73 65.0599 57.23 64.5399C56.47 64.3799 55.76 65.6699 55.55 66.1199C55.04 67.2399 54.83 68.7299 54.85 69.9399C54.88 71.6499 55.1 74.8999 57.23 75.3399L57.2 75.2099Z" fill="black"/>
<path d="M170.33 10.8001C171.21 10.8301 172.08 10.9501 172.93 11.2001L172.3 11.0101C173.32 11.3301 174.28 11.8201 175.1 12.5101C175.21 12.6001 175.33 12.7601 175.46 12.8201C175.26 12.7201 174.92 12.2501 175.29 12.6701C175.48 12.8901 175.68 13.1001 175.86 13.3301C176.07 13.6001 176.26 13.8701 176.44 14.1601C176.69 14.5501 176.59 14.8501 176.34 13.9501C176.38 14.1001 176.51 14.2701 176.58 14.4101C176.74 14.7401 176.89 15.0701 177.03 15.4101C177.1 15.5901 177.17 15.7701 177.24 15.9501C177.53 16.6801 176.89 14.7801 177.16 15.7201C177.43 16.6601 177.64 17.5401 177.84 18.4701C177.44 16.7001 177.84 18.6401 177.91 19.0901C177.99 19.7001 178.05 20.3101 178.1 20.9201C178.13 21.2201 178.14 21.5201 178.17 21.8201C178.02 20.1101 178.14 21.2801 178.15 21.6401C178.18 22.4201 178.19 23.2101 178.2 23.9901L181.21 18.7801C178.65 17.2401 176.1 15.6901 173.54 14.1501L168.36 11.0201C167.51 10.5001 166.53 10.0401 165.76 9.40014C166.16 9.73014 165.88 9.49014 165.79 9.36014C166.21 9.94014 166.32 10.6501 166.43 11.3501C166.29 10.5001 166.45 12.5101 166.43 12.6901C166.38 13.2701 166.38 13.3701 166.43 12.9901L166.26 13.8601C166.2 13.8601 166.61 12.8401 166.26 13.7701C165.97 14.5201 166.24 13.8501 166.31 13.6801C166.38 13.5101 166.5 13.3401 166.56 13.1601C166.71 12.7501 166.1 13.8301 166.5 13.2901C166.76 12.9401 167.01 12.5901 167.3 12.2601C167.36 12.1801 167.71 11.8101 167.43 12.1101C167.15 12.4101 167.68 11.9001 167.76 11.8401C168.37 11.3601 169.04 10.9901 169.78 10.7501L169.15 10.9401C169.55 10.8301 169.94 10.7801 170.36 10.7801C171.18 10.7801 171.76 9.81014 172.04 9.20014C172.55 8.08014 172.76 6.59014 172.74 5.38014C172.72 4.17014 172.62 2.71014 172.04 1.56014C171.71 0.890139 171.23 -0.0198606 170.36 -0.0198606C166.22 -0.0298606 163.32 4.35014 162.32 7.87014C161.17 11.9001 161.3 17.9101 165.3 20.3301C168.91 22.5101 172.51 24.6801 176.12 26.8601C177.4 27.6301 178.68 28.4101 179.97 29.1801C182.36 30.6201 182.98 24.9701 182.98 23.9701C182.96 18.4501 182.52 12.6201 180.3 7.49014C179.13 4.78014 177.21 2.03014 174.39 0.860139C173.11 0.330139 171.74 0.0301394 170.36 -0.0198606C169.55 -0.0498606 168.95 0.970139 168.68 1.56014C168.17 2.68014 167.96 4.17014 167.98 5.38014C168 6.59014 168.1 8.05014 168.68 9.20014C169.02 9.88014 169.48 10.7501 170.36 10.7801L170.33 10.8001Z" fill="black"/>
<path d="M280.83 87.2704C281.47 86.8204 282.15 86.4304 282.87 86.1004C283.32 85.8904 283.77 85.7104 284.23 85.5404C284.35 85.5004 284.47 85.4604 284.59 85.4204C284.93 85.3004 284.16 85.5404 284.52 85.4404C284.82 85.3604 285.11 85.2804 285.42 85.2104C288.4 84.5204 291.52 84.5904 294.53 85.1004C296.57 85.4404 298.56 85.9804 300.5 86.6704C300.84 86.7904 301.19 86.9104 301.52 87.0504L301.73 87.1304C301.97 87.2804 302 87.2704 301.82 87.1004L301.7 86.9704C301.07 85.9304 300.99 84.7504 301.47 83.4404V80.3904C301.56 80.1604 301.68 79.9604 301.86 79.8004C301.86 79.5704 301.99 79.7204 301.68 79.8304C301.54 79.8804 301.41 79.9504 301.27 80.0004C300.94 80.1404 300.61 80.2704 300.28 80.3904C297.36 81.5104 294.32 82.3204 290.99 82.5204C289.05 82.6404 287.07 82.5204 285.19 82.0104C284.53 81.8304 283.55 81.4104 282.82 81.0104C282.36 80.7604 281.91 80.4704 281.49 80.1604C281.32 80.0404 281.15 79.8704 280.98 79.7604C283.08 81.0404 282.78 85.6404 280.86 87.2604C282.62 85.7704 282.83 82.7604 282.52 80.6204C282.4 79.7804 281.34 75.3704 279.6 76.8504C277.73 78.4304 277.17 81.0104 277.18 83.3704C277.19 85.7304 277.62 88.3304 279.47 89.9604C281.32 91.5904 283.61 92.4804 285.95 92.9804C290.34 93.9104 294.88 92.9804 299.08 91.6604C300.82 91.1104 303.17 90.6104 304.28 89.0604C305.7 87.0904 305.88 84.2104 305.61 81.8804C305.41 80.1604 304.82 77.6704 303.11 76.7604C301.82 76.0704 300.2 75.7004 298.8 75.2904C297.51 74.9104 296.2 74.5904 294.88 74.3504C292.75 73.9704 290.58 73.8004 288.42 73.9604C285.34 74.1804 282.14 75.0704 279.59 76.8504C277.75 78.1304 277.64 81.5104 277.93 83.4904C278.08 84.4904 278.99 88.5604 280.85 87.2604L280.83 87.2704Z" fill="black"/>
<path d="M287.93 113.111C288.22 112.991 288.51 112.881 288.81 112.791L288.18 112.981C289.44 112.601 290.76 112.511 292.03 112.881L291.4 112.691C291.79 112.811 292.2 112.941 292.5 113.221L291.93 112.681C292.04 112.791 292.13 112.901 292.21 113.031L291.73 112.191C291.78 112.281 291.83 112.381 291.86 112.481L291.49 111.391C291.52 111.471 291.54 111.551 291.56 111.641L291.32 110.351C291.33 110.441 291.34 110.521 291.35 110.611L291.27 109.171C291.27 109.241 291.27 109.301 291.27 109.361L291.35 107.921C291.35 107.981 291.34 108.051 291.33 108.111L291.57 106.821C291.55 106.901 291.53 106.991 291.51 107.071L291.88 105.981C291.84 106.081 291.8 106.181 291.75 106.271L292.23 105.431C292.16 105.541 292.08 105.641 291.99 105.741L292.56 105.201C292.08 105.661 291.34 105.941 290.72 106.141L291.35 105.951C290.38 106.241 289.38 106.251 288.41 105.971L289.04 106.161C288.52 106.001 287.93 105.781 287.52 105.401L288.09 105.941C287.98 105.831 287.89 105.721 287.81 105.591L288.29 106.431C288.24 106.341 288.2 106.241 288.16 106.141L288.53 107.231C288.5 107.151 288.48 107.071 288.47 106.981L288.71 108.271C288.7 108.211 288.69 108.141 288.69 108.081L288.77 109.521C288.77 109.431 288.77 109.351 288.77 109.271L288.69 110.711C288.69 110.651 288.7 110.581 288.71 110.521L288.47 111.811C288.49 111.731 288.51 111.651 288.53 111.561L288.16 112.651C288.19 112.551 288.24 112.461 288.29 112.361L287.81 113.201C287.89 113.071 287.97 112.961 288.08 112.851L287.51 113.391C287.64 113.271 287.78 113.181 287.94 113.101C288.31 112.851 288.57 112.531 288.75 112.131C289.05 111.671 289.25 111.161 289.36 110.611C289.54 109.951 289.63 109.281 289.64 108.601C289.71 107.881 289.7 107.161 289.6 106.451L289.36 105.161C289.2 104.461 288.91 103.811 288.51 103.221L287.94 102.681C287.52 102.421 287.1 102.421 286.68 102.681C286.56 102.731 286.45 102.801 286.34 102.881C286.05 103.111 285.76 103.381 285.53 103.671C285.27 104.011 285.05 104.421 284.87 104.811C284.66 105.261 284.51 105.751 284.39 106.231C284.01 107.761 283.91 109.421 284.12 110.991C284.19 111.521 284.28 112.071 284.42 112.591C284.55 113.061 284.7 113.561 284.93 114.011C285.32 114.771 285.73 115.431 286.45 115.931C286.8 116.171 287.21 116.341 287.6 116.481C288.53 116.801 289.45 117.031 290.44 116.911C291.28 116.811 292.14 116.531 292.9 116.161C293.18 116.031 293.47 115.881 293.71 115.691C294.4 115.141 294.8 114.561 295.18 113.771C295.39 113.331 295.54 112.841 295.66 112.371C295.86 111.581 295.94 110.841 295.99 110.041C296.04 109.241 296.04 108.401 295.94 107.561C295.88 107.021 295.78 106.451 295.62 105.921C295.48 105.461 295.34 104.971 295.12 104.531C294.92 104.151 294.73 103.721 294.43 103.401C294.03 102.961 293.67 102.611 293.13 102.401C292.04 101.971 290.9 101.721 289.74 101.831C288.69 101.931 287.65 102.261 286.68 102.661C286.31 102.911 286.05 103.231 285.87 103.631C285.57 104.091 285.37 104.601 285.26 105.151C285.08 105.811 284.99 106.481 284.98 107.161C284.91 107.881 284.92 108.601 285.02 109.311L285.26 110.601C285.42 111.301 285.71 111.951 286.11 112.541L286.68 113.081C287.1 113.341 287.52 113.341 287.94 113.081L287.93 113.111Z" fill="black"/>
<path d="M47.44 43.6603C47.96 41.4603 47.93 38.9403 46.97 36.8503C46.82 36.5203 46.61 36.2103 46.49 35.8703L47.1 38.2503C47.27 39.8303 47.2 42.3103 46.15 43.8303C46.2 43.7603 46.26 43.7003 46.32 43.6403L45.75 44.1803C46.28 43.7003 46.99 43.4603 47.66 43.2503L47.03 43.4403C48.98 42.8503 51.04 42.6203 53.07 42.5303C54.24 42.4703 55.42 42.4803 56.6 42.5303C57.78 42.5803 58.96 42.6403 60.06 42.9503L59.43 42.7603C59.75 42.8803 60.02 43.0303 60.28 43.2603L59.71 42.7203C60 43.0103 60.19 43.5403 59.7 42.5003C59.88 42.9003 59.81 42.6803 59.5 41.8403C59.72 42.7303 59.64 42.0203 59.27 39.7203C59.27 39.0103 59.35 38.3003 59.53 37.6103C59.85 36.7703 59.92 36.5603 59.74 36.9603C60.24 35.9203 60.03 36.4703 59.74 36.7603L60.31 36.2203C59.58 36.8303 58.56 37.1903 57.66 37.4803L58.29 37.2903C55.41 38.1703 52.38 37.9103 49.52 37.0503L50.15 37.2403C48.81 36.8203 47.51 36.2803 46.25 35.6603C44.28 34.6903 43.46 38.1403 43.33 39.4303C43.19 40.8003 43.18 42.2603 43.57 43.5903C43.81 44.4203 44.15 45.6603 44.99 46.0703C48.25 47.6803 51.98 48.9103 55.66 48.5903C57.04 48.4703 58.41 48.1203 59.7 47.6103C61.3 46.9903 62.44 46.0503 63.17 44.4503C64.04 42.5303 64.18 40.1903 63.94 38.1303C63.76 36.6103 63.34 35.0103 62.43 33.7503C61.21 32.0703 59.25 31.9303 57.35 31.7903C54.12 31.5403 50.69 31.6703 47.54 32.5103C46.13 32.8903 44.71 33.2903 43.78 34.5003C42.43 36.2503 42.28 39.0303 42.54 41.1203C42.66 42.0603 42.89 42.9703 43.3 43.8203C43.55 44.3303 43.91 45.4703 43.36 43.6303V38.1803V38.2003C43.04 39.5503 42.94 40.9903 43.12 42.3603C43.24 43.3203 43.53 44.8103 44.21 45.5903C44.67 46.1103 45.33 46.6103 46.04 46.1303C46.83 45.6003 47.25 44.5303 47.46 43.6503L47.44 43.6603Z" fill="black"/>
<path d="M242.81 117.991C243.03 117.921 243.25 117.841 243.47 117.771C243.86 117.651 243.33 117.801 243.88 117.651C244.43 117.501 244.94 117.351 245.48 117.211C246.65 116.911 247.84 116.661 249.03 116.451C251.88 115.951 254.78 115.691 257.68 115.641C261.12 115.581 264.57 115.831 267.97 116.321C269.92 116.601 271.85 116.961 273.77 117.401C275.42 117.771 277.1 118.031 278.51 118.971C278.79 119.161 278.51 118.951 278.46 118.891C278.48 118.911 278.7 119.201 278.72 119.201L278.8 119.301L278.59 118.901C278.69 119.211 278.77 119.561 278.49 118.501C278.19 117.341 278.2 115.891 278.51 114.741C278.5 114.791 278.87 113.791 278.67 114.231C278.59 114.401 278.92 114.051 278.75 114.051C278.71 114.051 278.52 114.331 278.49 114.361C278.55 114.301 278.8 114.111 278.52 114.291C278.21 114.501 277.91 114.691 277.57 114.861C277.27 115.011 276.95 115.131 276.64 115.261C276.3 115.391 275.96 115.521 275.62 115.641C275.45 115.701 275.29 115.751 275.12 115.801C275.62 115.641 275.2 115.781 274.96 115.841C274.08 116.081 273.2 116.281 272.31 116.451C267.47 117.331 262.47 117.181 257.6 116.641C253.63 116.201 249.69 115.481 245.8 114.581C244.73 114.331 243.54 114.151 242.52 113.781C242.25 113.681 241.99 113.481 241.72 113.361C241.63 113.321 241.24 112.981 241.65 113.381C241.53 113.271 241.45 113.081 241.32 112.981C241.32 112.981 241.65 113.651 241.5 113.291C241.66 113.661 241.88 115.171 241.88 115.951C241.88 116.231 241.93 118.741 241.29 118.911C241.33 118.901 241.61 118.511 241.62 118.511C241.38 118.761 241.48 118.611 241.69 118.511C242.07 118.331 242.41 118.111 242.81 117.961C243.57 117.681 244.07 116.091 244.23 115.481C244.57 114.201 244.66 112.631 244.47 111.321C244.26 109.851 243.63 106.781 241.55 107.551C236.55 109.401 236.29 117.211 238.31 121.251C239.37 123.371 241.02 124.211 243.23 124.761C245.44 125.311 247.86 125.861 250.19 126.311C256.73 127.561 263.53 128.361 270.18 127.571C272.41 127.311 274.59 126.821 276.72 126.111C277.58 125.821 278.48 125.511 279.27 125.061C281.13 123.991 282.22 121.991 282.68 119.951C283.37 116.891 283.19 113.371 281.59 110.611C280.49 108.711 278.89 107.901 276.84 107.341C272.45 106.151 267.94 105.351 263.4 105.011C256 104.451 248.6 105.221 241.55 107.561C240.8 107.811 240.28 109.461 240.13 110.041C239.79 111.321 239.7 112.891 239.89 114.201C240.11 115.731 240.71 118.671 242.81 117.971V117.991Z" fill="black"/>
<path d="M100.54 139.02C101.23 138.94 102.03 138.56 102.7 138.34C102.93 138.27 103.16 138.19 103.39 138.12C103.98 137.93 102.84 138.28 103.47 138.1C103.6 138.06 103.73 138.02 103.86 137.99C104.67 137.75 105.49 137.52 106.31 137.31C110.22 136.3 114.24 135.57 118.29 135.43C120.51 135.35 122.75 135.46 124.93 135.87C125.85 136.04 126.67 136.25 127.48 136.54C127.96 136.72 128.44 136.92 128.9 137.14C129.02 137.2 129.45 137.51 129.57 137.49C129.75 137.62 129.74 137.59 129.53 137.41C128.35 135.4 128.37 133.11 129.6 130.53C129.5 130.73 129.24 130.78 129.59 130.54C128.92 130.98 129.72 130.54 129.36 130.68C129 130.82 128.57 130.9 128.18 131C127.23 131.25 126.28 131.47 125.32 131.65C123.15 132.08 120.96 132.35 118.75 132.45C112.71 132.72 106.78 131.58 101.6 128.39C99.7 127.22 98.79 131.03 98.68 132.16C98.49 134.02 98.42 137.62 100.34 138.8C105.63 142.05 111.87 143.44 118.04 143.27C120.58 143.2 123.12 142.89 125.62 142.38C127.67 141.96 130.57 141.64 131.93 139.93C133.52 137.93 133.69 134.93 133.47 132.5C133.29 130.47 132.57 128.09 130.72 126.97C128.63 125.7 125.91 125.12 123.52 124.81C118.72 124.19 113.8 124.8 109.1 125.82C107.08 126.26 105.09 126.79 103.11 127.39C102.32 127.63 101.54 127.88 100.75 128.13C100.57 128.19 100.4 128.24 100.22 128.3C99.77 128.46 100.95 128.15 100.54 128.2C98.46 128.44 98.13 132.03 98.16 133.6C98.19 134.89 98.31 136.23 98.86 137.42C99.14 138.03 99.72 139.1 100.54 139V139.02Z" fill="black"/>
<path d="M149.01 146.62C153.04 145.21 157.01 144.1 161.37 143.18C166.8 142.04 172.32 141.34 177.87 141.14C184.25 140.91 190.66 141.35 196.93 142.52C200.22 143.13 203.48 143.93 206.65 144.97C208.35 145.52 210.03 146.14 211.68 146.8C212.27 147.04 212.87 147.26 213.42 147.59C213.67 147.74 213.89 147.91 214.13 148.08C214.65 148.44 214.02 147.82 214.34 148.29C214.49 148.5 214.65 148.7 214.79 148.92C214.18 148.01 214.82 149.53 214.45 148.12C214.65 148.87 214.37 147.56 214.37 147.54C214.51 148.55 214.42 145.74 214.4 145.88C214.29 146.83 214.72 144.63 214.46 145.54C214.8 144.37 214.67 144.94 214.52 145.25C214.29 145.7 215.1 144.55 214.55 145.16C214.45 145.27 213.72 145.97 214.24 145.57C212.53 146.93 210.36 147.1 208.21 147.37C201.95 148.14 195.54 147.93 189.24 147.94C178.92 147.95 168.61 147.79 158.29 147.51C155.96 147.45 153.74 147.39 151.44 147C149.93 146.75 148.71 146.64 147.46 145.78C147.25 145.63 147.03 145.47 146.84 145.29C147.22 145.65 146.88 145.27 146.73 145.09C146.49 144.79 146.43 144.29 146.7 145.1C146.37 144.08 146.77 145.47 146.7 145.18C146.54 144.56 146.88 146.55 146.79 145.65C146.83 146.69 146.85 146.93 146.85 146.38C146.87 146.99 146.8 147.58 146.64 148.17C146.83 147.48 146.49 148.53 146.47 148.57C146.53 148.42 146.59 148.27 146.66 148.12C146.37 148.6 146.33 148.67 146.54 148.32C146.7 148.12 146.85 147.92 147.01 147.72C147.41 147.22 146.65 147.89 147.22 147.55C147.79 147.21 148.35 146.85 149.01 146.6C149.77 146.32 150.27 144.73 150.43 144.12C150.77 142.84 150.86 141.27 150.67 139.96C150.46 138.5 149.82 135.41 147.75 136.19C144.91 137.26 143.25 139.85 142.54 142.71C141.6 146.46 141.95 151.22 144.35 154.4C146.28 156.96 149.22 157.45 152.21 157.91C153.06 158.04 153.89 158.17 154.75 158.19C164.28 158.49 173.82 158.66 183.36 158.71C190.45 158.75 197.61 158.91 204.69 158.48C207.54 158.31 210.5 158.05 213.23 157.17C216.15 156.23 217.9 153.64 218.64 150.76C219.59 147.04 219.33 142.05 216.76 138.97C214.64 136.42 210.96 135.55 207.93 134.56C200.72 132.2 193.26 130.78 185.68 130.39C172.8 129.73 159.89 131.93 147.75 136.19C147 136.45 146.49 138.08 146.33 138.67C145.99 139.95 145.9 141.52 146.09 142.83C146.31 144.33 146.92 147.33 149.01 146.6V146.62Z" fill="black"/>
<path d="M4.64997 111.73V111.71C4.64997 112.67 4.64997 113.62 4.64997 114.58C4.19997 117.04 3.73997 117.54 4.13997 116.73C3.49997 118.05 3.66997 117.49 3.85997 117.24C3.99997 117.05 4.11997 116.85 4.25997 116.66C4.69997 116.07 5.20997 115.53 5.70997 114.99C6.24997 114.4 5.21997 115.39 5.85997 114.85C6.02997 114.71 6.18997 114.56 6.34997 114.42C6.73997 114.09 7.13997 113.78 7.55997 113.49C8.46997 112.85 9.44997 112.3 10.48 111.87C12.68 110.96 15.02 111.06 17.36 111.06H36.66C38.77 111.06 41.24 110.75 43.14 111.83C43.37 111.96 43.6 112.11 43.81 112.26C43.79 112.25 44.75 113.1 44.32 112.66C44.5 112.85 44.65 113.06 44.82 113.26C45.15 113.66 44.61 112.5 44.89 113.37C44.44 112.01 44.62 110.92 44.74 109.54C44.79 108.94 44.78 109.4 44.68 109.66C44.32 110.54 45.09 109.25 44.5 109.94C44.27 110.21 44.07 110.51 43.82 110.77C43.45 111.15 44.34 110.39 43.63 110.92C43.4 111.09 43.18 111.26 42.93 111.41C42.54 111.66 42.13 111.87 41.7 112.05C40.93 112.38 40.35 112.52 39.31 112.66C37.1 112.96 34.78 112.79 32.54 112.79C28.9 112.79 25.26 112.81 21.62 112.81C19.35 112.81 17.08 112.86 14.81 112.78C12.87 112.71 10.93 112.53 9.02997 112.17C7.88997 111.96 6.98997 111.74 6.06997 111.38C5.56997 111.19 5.07997 110.97 4.61997 110.7C4.39997 110.58 4.18997 110.44 3.97997 110.3C3.83997 110.2 3.08997 109.51 3.64997 110.08C2.04997 108.45 0.789972 110.37 0.399972 112.02C0.0799723 113.36 -0.0400277 114.81 0.159972 116.18C0.309972 117.21 0.489972 118.63 1.24997 119.41C4.44997 122.67 9.51997 123.29 13.89 123.54C15.99 123.66 18.11 123.62 20.21 123.62C24.11 123.62 28.02 123.61 31.92 123.6C34.43 123.6 37.07 123.81 39.55 123.43C42.03 123.05 44.32 122.07 46.1 120.21C49.28 116.89 49.94 111.4 48.71 107.14C47.69 103.61 44.87 100.91 41.18 100.36C40.4 100.25 39.62 100.27 38.83 100.27H18.34C15.06 100.27 11.99 100.22 8.88997 101.59C6.48997 102.65 4.39997 104.38 2.65997 106.33C0.539973 108.7 -0.290028 111.35 0.0299723 114.61C0.149972 115.81 1.02997 119.47 2.94997 118.38C4.86997 117.29 4.77997 113.5 4.60997 111.74L4.64997 111.73Z" fill="black"/>
</g>
<defs>
<clipPath id="clip0_3416_12115">
<rect width="305.68" height="158.79" fill="white"/>
</clipPath>
</defs>
</svg>
