<svg width="225" height="231" viewBox="0 0 225 231" fill="none" xmlns="http://www.w3.org/2000/svg">
<g clip-path="url(#clip0_3416_11776)">
<path d="M159.86 24.4802C161.49 23.7302 161.77 20.8802 161.86 19.3802C161.95 17.7902 161.8 16.2102 161.38 14.6702C160.83 12.7102 159.99 10.8302 159.11 8.99016C157.9 6.47016 156.59 3.99016 155.21 1.56016C154.61 0.500156 154.11 -0.329844 152.8 0.110156C146.57 2.24016 140.53 5.16016 134.79 8.34016C124.26 14.1802 113.58 21.8402 107.32 32.3602C102.84 39.8802 100.98 48.2902 101.77 57.0202C101.91 58.6202 102.68 61.6302 104.81 60.9502C104.35 61.1002 104.1 61.1502 104.68 61.0002C105.09 60.8902 105.5 60.7902 105.91 60.7002C107.22 60.4202 108.55 60.2202 109.88 60.1502C111.46 60.0602 113.07 60.1302 114.62 60.4702C115.32 60.6202 115.83 60.7902 116.61 61.1902C117.01 61.3902 117.39 61.6202 117.76 61.8802C117.92 62.0002 118.08 62.1202 118.24 62.2502C118.32 62.3102 118.78 62.7802 118.44 62.4202C121.18 65.2402 122.07 59.1902 122.16 57.5602C122.16 57.4002 121.98 59.6702 122.09 58.8602C122.11 58.6802 122.13 58.5102 122.15 58.3302C122.19 58.0602 122.24 57.7902 122.28 57.5202C122.34 57.1102 121.92 59.2802 122.14 58.2802C122.18 58.0902 122.22 57.8902 122.26 57.7002C122.48 56.7002 122.78 55.7302 123.08 54.7602C123.26 54.1602 122.64 55.9802 122.87 55.3802C122.93 55.2302 122.98 55.0702 123.04 54.9102C123.15 54.6102 123.27 54.3102 123.38 54.0102C123.65 53.3302 123.94 52.6702 124.24 52.0102C124.57 51.3102 124.91 50.6202 125.28 49.9402C125.37 49.7702 125.46 49.6102 125.55 49.4402C125.94 48.7202 125.15 50.1102 125.48 49.5602C125.71 49.1902 125.92 48.8102 126.15 48.4502C127.19 46.8002 128.34 45.2102 129.58 43.7102C130.26 42.8802 130.97 42.0802 131.7 41.3002C132.09 40.8902 132.48 40.4902 132.88 40.0902C132.97 40.0002 133.49 39.4902 133.26 39.7202C133.05 39.9202 133.64 39.3702 133.76 39.2602C135.69 37.4902 137.74 35.8602 139.89 34.3602C146.01 30.0902 152.82 26.9202 159.85 24.4802C160.63 24.2102 161.16 22.5102 161.33 21.8902C161.69 20.5602 161.78 18.9202 161.58 17.5602C161.35 15.9902 160.71 12.8702 158.54 13.6302C146.99 17.6402 135.97 23.7502 127.87 33.0702C123.29 38.3402 119.75 44.7302 118.09 51.5402C117.6 53.5402 117.32 55.5102 117.2 57.5602L120.92 52.7002C116.36 48.0202 109.31 48.2402 103.48 50.1102L106.52 54.0402C106.5 53.8702 106.49 53.6902 106.48 53.5202C106.39 52.5102 106.53 54.8302 106.51 54.1102C106.51 53.7302 106.48 53.3402 106.48 52.9602C106.48 52.6202 106.48 52.2802 106.49 51.9502C106.54 50.5502 106.35 53.3302 106.49 51.9502C106.56 51.2502 106.65 50.5602 106.75 49.8602C106.92 48.7102 106.47 51.1302 106.72 50.0002C106.81 49.6002 106.89 49.2002 106.99 48.8102C107.04 48.6102 107.4 46.8502 107.57 46.8202C107.57 46.8202 107.18 47.8902 107.42 47.2702C107.48 47.1202 107.53 46.9602 107.59 46.8102C107.73 46.4302 107.88 46.0502 108.04 45.6802C108.32 45.0102 108.62 44.3402 108.95 43.6902C109.09 43.4002 109.24 43.1102 109.4 42.8202C109.48 42.6802 109.56 42.5302 109.63 42.3902C110.03 41.6102 109.16 43.1702 109.61 42.4202C111.11 39.9202 112.81 37.5802 114.74 35.4002C115.75 34.2602 116.8 33.1702 117.9 32.1102C117.38 32.6202 118.09 31.9402 118.23 31.8002C118.51 31.5402 118.79 31.2802 119.08 31.0302C119.68 30.4902 120.29 29.9602 120.91 29.4502C128.93 22.7502 138.24 17.5902 147.82 13.4702C149.89 12.5802 151.97 11.7102 154.1 10.9802L151.69 9.53016C152.74 11.3902 153.75 13.2902 154.72 15.2002C155.43 16.6102 156.13 18.0302 156.74 19.4902C156.87 19.8002 156.99 20.1202 157.12 20.4302C157.52 21.4402 156.8 19.2602 157.09 20.3602C157.33 21.2602 157.09 20.4702 157.01 19.7902C156.94 19.2302 156.91 18.0002 157.02 17.2202L158.07 14.1002C158.64 13.6602 158.79 13.5002 158.53 13.6302C157.73 14.0002 157.24 15.5002 157.05 16.2202C156.69 17.5502 156.6 19.1902 156.8 20.5502C157 21.9102 157.73 25.4502 159.84 24.4802H159.86Z" fill="#1D1D1B"/>
<path d="M94.44 61.85C88.52 72.18 83.45 82.96 79.51 94.2C74.18 109.43 70.82 125.23 70.09 141.36C69.27 159.52 72.19 177.85 79.01 194.72C82.78 204.05 87.8 212.92 93.7 221.07C97.17 225.87 101.74 229.49 107.71 230.26C112.37 230.86 117.12 229.3 121.02 226.81C127.89 222.43 133.06 215.5 137.25 208.65C139.26 205.36 140.69 202.06 141.54 198.29C141.85 196.91 142.15 195.52 142.44 194.13C143.35 189.77 144.17 185.4 144.93 181.01C146.85 169.87 148.27 158.62 149.01 147.34C149.91 133.65 149.99 119.84 148.23 106.21C146.58 93.42 143.36 80.57 136.7 69.41C133.8 64.56 130.13 60.19 125.75 56.61C119.32 51.35 110.71 49.95 103.14 53.66C99.54 55.43 96.46 58.38 94.44 61.83C93.13 64.06 92.82 67.03 93.55 69.53C93.81 70.42 94.16 71.62 95.03 72.12C95.7 72.5 96.54 72.23 96.94 71.55C98.93 68.16 101.44 65.85 105.09 64.22C108.45 62.72 112.3 62.41 115.9 63.11C116.37 63.2 116.84 63.34 117.31 63.44C117.93 63.57 116.71 63.23 117.38 63.45C117.64 63.54 117.91 63.62 118.17 63.72C119.27 64.12 120.34 64.62 121.35 65.22C122.65 65.99 123.85 66.95 125 67.92C125.49 68.33 125.96 68.76 126.44 69.2C126.56 69.31 126.67 69.42 126.79 69.53C126.28 69.05 126.61 69.36 126.72 69.46C126.97 69.72 127.23 69.97 127.48 70.23C128.4 71.18 129.28 72.18 130.11 73.21C131.79 75.28 133.2 77.5 134.6 79.77C134.87 80.21 134.23 79.08 134.47 79.54C134.55 79.69 134.63 79.83 134.71 79.98C134.87 80.27 135.03 80.57 135.18 80.86C135.51 81.49 135.84 82.13 136.15 82.77C136.76 84.03 137.33 85.32 137.87 86.62C138.41 87.92 138.91 89.29 139.38 90.64C139.65 91.4 139.03 89.57 139.38 90.62C139.49 90.96 139.6 91.29 139.7 91.63C139.93 92.35 140.15 93.07 140.35 93.8C141.18 96.68 141.86 99.6 142.44 102.54C142.49 102.78 142.69 103.88 142.52 102.96C142.33 101.97 142.58 103.33 142.62 103.52C142.76 104.3 142.88 105.08 143 105.87C143.24 107.4 143.45 108.94 143.63 110.48C144 113.56 144.24 116.64 144.45 119.74C144.32 117.83 144.42 119.22 144.45 119.68C144.47 120.06 144.49 120.45 144.51 120.83C144.55 121.65 144.58 122.46 144.61 123.28C144.66 124.87 144.69 126.45 144.71 128.04C144.74 131.15 144.7 134.27 144.59 137.38C144.54 138.94 144.47 140.51 144.39 142.07C144.37 142.45 144.35 142.82 144.33 143.2C144.32 143.39 144.31 143.58 144.3 143.76C144.3 143.74 144.39 142.21 144.34 143.11C144.29 143.85 144.25 144.6 144.19 145.34C143.98 148.34 143.73 151.34 143.43 154.34C142.88 159.81 142.19 165.27 141.37 170.71C141.01 173.09 140.63 175.46 140.22 177.83C140.03 178.93 139.84 180.03 139.64 181.13C139.6 181.35 139.56 181.58 139.52 181.8C139.5 181.93 139.47 182.05 139.45 182.18C139.32 182.91 139.61 181.32 139.6 181.4C139.5 181.94 139.4 182.49 139.29 183.03C138.69 186.15 138.05 189.27 137.36 192.37C137.24 192.91 137.12 193.45 136.99 193.98C136.96 194.12 136.59 195.5 136.71 195.08C136.87 194.56 136.6 195.39 136.55 195.51C136.45 195.77 136.34 196.03 136.23 196.29C135.68 197.53 135.43 197.91 134.66 199.16C132.32 202.97 129.73 206.65 126.73 209.97C125.38 211.46 124.72 212.12 123.28 213.36C122.16 214.31 120.99 215.2 119.75 215.99C118.65 216.69 117.49 217.32 116.29 217.83C115.76 218.06 115.23 218.25 114.69 218.44C114.06 218.66 115.01 218.38 114.37 218.54C114.08 218.61 113.8 218.69 113.51 218.75C111.65 219.17 109.73 219.28 107.83 219.04C106.98 218.93 106.17 218.72 105.34 218.53C104.91 218.44 105.94 218.75 105.3 218.52C105.12 218.46 104.94 218.4 104.76 218.33C104.42 218.2 104.07 218.06 103.74 217.92C100.25 216.38 98.01 213.86 95.83 210.81C94.37 208.77 92.97 206.69 91.63 204.57C90.29 202.45 89.24 200.66 88.23 198.8C86.04 194.79 84.09 190.65 82.39 186.41C82.01 185.46 81.64 184.51 81.29 183.55C81.1 183.04 80.92 182.54 80.74 182.03C80.65 181.78 80.56 181.52 80.47 181.27C80.81 182.25 80.38 180.99 80.34 180.89C79.68 178.88 79.07 176.85 78.53 174.81C77.99 172.77 77.48 170.66 77.05 168.57C76.95 168.07 76.84 167.57 76.75 167.06C76.49 165.74 76.85 167.65 76.68 166.71C76.48 165.59 76.3 164.46 76.13 163.34C75.84 161.36 75.59 159.37 75.4 157.38C75.31 156.39 75.22 155.41 75.15 154.42C75.13 154.17 75.12 153.93 75.1 153.68C75.06 153.13 75.32 153.15 75.12 154.07C75.22 153.6 75.06 152.9 75.04 152.42C74.87 148.51 74.9 144.59 75.1 140.68C75.11 140.45 75.14 140.2 75.14 139.97C75.17 141.41 75.09 140.77 75.12 140.4C75.15 139.93 75.18 139.46 75.22 138.99C75.29 137.99 75.38 137 75.48 136.01C75.67 134.1 75.89 132.2 76.16 130.3C76.43 128.4 76.7 126.68 77.02 124.88C77.02 124.84 77.18 124.3 77.14 124.21C77.28 124.55 76.95 125.24 77.08 124.55C77.16 124.11 77.25 123.67 77.34 123.22C77.53 122.29 77.72 121.36 77.92 120.43C78.68 116.97 79.55 113.53 80.54 110.13C81.02 108.46 81.53 106.8 82.07 105.14C82.2 104.75 82.33 104.35 82.46 103.96C82.51 103.81 82.94 102.5 82.71 103.21C82.48 103.92 82.91 102.62 82.97 102.47C83.12 102.04 83.27 101.61 83.43 101.18C84.51 98.14 85.68 95.13 86.92 92.16C89.08 86.99 91.47 81.91 94.07 76.95C94.63 75.89 95.19 74.84 95.77 73.79C96.03 73.32 96.28 72.86 96.54 72.4C96.67 72.16 96.81 71.92 96.95 71.68C97.38 70.92 96.47 72.52 97 71.59C98.29 69.34 98.62 66.41 97.89 63.89C97.63 63 97.28 61.8 96.41 61.3C95.74 60.92 94.89 61.19 94.5 61.87L94.44 61.85Z" fill="#1D1D1B"/>
<path d="M100.2 58.6501C96.91 56.0401 93 54.3701 89.01 53.1501C85.02 51.9301 80.71 51.2201 76.48 51.4301C68.49 51.8301 61.01 54.7401 54.58 59.4301C47.61 64.5101 43.14 71.6701 39.7 79.4401C36.09 87.6001 32.36 96.1801 31.24 105.1C30.61 110.09 31.06 114.96 31.34 119.95C31.59 124.56 31.14 129.16 30.92 133.77C30.46 143.34 31.95 152.9 34.1 162.2C36.25 171.5 38.81 179.76 42.04 188.24C45.03 196.08 48.42 203.92 52.81 211.1C56.81 217.65 62.08 223.56 69 227.08C72.92 229.07 77.34 229.9 81.68 230.32C85.34 230.67 89.48 231.07 92.94 229.52C95.44 228.4 96.95 226.18 97.95 223.72C99.06 220.98 98.55 217.14 96.58 214.93C94.74 212.87 92.19 213.35 90.7 215.61C90.37 216.09 90.48 215.96 91.04 215.23C90.9 215.37 90.76 215.5 90.6 215.62C90.65 215.33 91.68 214.96 90.68 215.52C90.01 215.89 89.31 216.14 88.57 216.32L89.81 216.03C85.84 216.89 81.27 216.27 77.32 215.58L78.56 215.8C76.79 215.47 75.05 215.03 73.36 214.38C72.66 214.11 71.97 213.81 71.3 213.48C70.97 213.32 70.64 213.15 70.31 212.97C70.09 212.85 69.88 212.73 69.67 212.61C70.27 212.98 70.32 213.01 69.85 212.72C68.62 211.89 67.43 211.03 66.32 210.05C65.86 209.64 65.4 209.22 64.96 208.79C64.69 208.53 64.43 208.26 64.17 207.99C64 207.81 63.83 207.63 63.66 207.44C63.25 206.99 63.32 207.07 63.87 207.68C63.36 207.43 62.78 206.38 62.43 205.93C61.96 205.33 61.51 204.72 61.07 204.1C60.11 202.75 59.21 201.35 58.37 199.92C58.04 199.37 57.72 198.81 57.41 198.26C57.2 197.88 56.79 196.74 57.42 198.31C57.28 197.96 57.06 197.63 56.88 197.29C56.08 195.75 55.33 194.19 54.59 192.63C51.38 185.77 48.6 178.72 46.24 171.52C45.95 170.64 45.68 169.75 45.4 168.87C45.3 168.55 45.01 167.69 45.48 169.16C45.34 168.72 45.21 168.27 45.08 167.83C44.51 165.9 43.98 163.96 43.47 162.02C42.53 158.38 41.68 154.7 40.95 151.01C40.57 149.1 40.24 147.18 39.96 145.25C39.89 144.77 39.83 144.29 39.76 143.8C39.53 142.13 39.89 145.3 39.74 143.62C39.63 142.49 39.53 141.36 39.47 140.22C39.25 136.27 39.47 132.34 39.64 128.39C39.81 124.44 39.69 120.4 39.39 116.38C39.25 114.53 39.12 112.67 39.13 110.81C39.13 110.39 39.05 109.78 39.16 109.37L39.11 110.12C39.13 109.81 39.16 109.5 39.19 109.19C39.3 108.11 39.45 107.04 39.64 105.98C39.81 105.07 39.97 104.15 40.22 103.26C39.8 104.74 40.24 103.22 40.31 102.97C40.44 102.52 40.57 102.07 40.7 101.63C41.25 99.8401 41.87 98.0701 42.54 96.3201C43.91 92.7101 45.38 89.1301 46.93 85.5901C47.24 84.9001 47.53 84.1801 47.87 83.5101C47.27 84.6701 47.98 83.3101 48.06 83.1501C48.27 82.7401 48.48 82.3401 48.69 81.9401C49.58 80.2801 50.56 78.6601 51.68 77.1401C51.91 76.8301 52.15 76.5201 52.38 76.2101C53.17 75.1701 51.69 76.9701 52.56 76.0001C53.08 75.4201 53.58 74.8401 54.12 74.2801C55.2 73.1601 56.35 72.1101 57.55 71.1401C58.25 70.5701 58.98 70.0301 59.72 69.5101C58.88 70.1001 59.94 69.3701 60.05 69.3001C60.49 69.0201 60.93 68.7501 61.38 68.4901C62.95 67.5801 64.58 66.7801 66.26 66.1101C67.82 65.4801 69.42 64.9801 71.05 64.5601C72.29 64.2401 70.18 64.7001 71.52 64.4601C72.07 64.3601 72.63 64.2501 73.18 64.1701C74.15 64.0201 75.13 63.9101 76.11 63.8401C78.07 63.7001 80.05 63.7301 82.01 63.8201C82.85 63.8601 83.69 63.9201 84.52 64.0101C84.94 64.0601 85.35 64.1101 85.77 64.1701C86.05 64.2101 86.32 64.2501 86.6 64.3001C86.26 64.2401 86.33 64.2501 86.81 64.3501C90.68 65.1901 94.15 66.7801 97.72 68.4401C99.79 69.4101 101.35 66.8701 101.76 65.2601C102.29 63.1501 102.01 60.1301 100.17 58.6601L100.2 58.6501Z" fill="#1D1D1B"/>
<path d="M128.82 67.4099C129.53 67.3399 130.25 67.3199 130.96 67.2399C131.89 67.1299 132.79 66.7899 133.69 66.5499C134.72 66.2799 136.09 65.9899 137.56 65.7899C140.38 65.3899 143.3 65.2799 146.14 65.6199C146.54 65.6699 146.95 65.7299 147.35 65.7899C146.75 65.6899 147.42 65.7999 147.51 65.8199C148.24 65.9699 148.96 66.1399 149.67 66.3399C151.16 66.7599 152.62 67.3099 154.02 67.9799C154.64 68.2799 155.23 68.5999 155.83 68.9399C155.12 68.5399 155.74 68.8799 155.87 68.9699C156.22 69.2099 156.58 69.4399 156.92 69.6999C158.19 70.6199 159.37 71.6499 160.49 72.7499C160.98 73.2399 161.57 73.7399 161.98 74.2999C161.22 73.2599 162.05 74.3999 162.19 74.5599C162.38 74.7799 162.56 74.9999 162.74 75.2199C163.79 76.4999 164.78 77.8199 165.75 79.1599C167.7 81.8599 169.59 84.6099 171.34 87.4399C172.16 88.7699 172.98 90.0999 173.75 91.4499C173.98 91.8499 174.25 92.2499 174.43 92.6699C173.79 91.1999 174.18 92.2099 174.37 92.5899C174.79 93.3999 175.19 94.2199 175.57 95.0499C176.95 98.0199 178.11 101.08 179.12 104.19C179.24 104.55 179.35 104.92 179.47 105.28C179.79 106.28 178.94 103.46 179.38 104.97C179.59 105.7 179.8 106.43 180 107.16C180.44 108.77 180.85 110.4 181.23 112.03C182.02 115.39 182.69 118.78 183.25 122.19C183.5 123.74 183.75 125.29 183.97 126.84C184.08 127.62 184.18 128.39 184.28 129.17C184.34 129.64 184.38 130.11 184.45 130.57C184.08 128.1 184.36 129.8 184.42 130.33C184.78 133.76 185.02 137.2 185.14 140.65C185.26 144.1 185.27 147.23 185.17 150.52C185.15 151.3 185.12 152.08 185.08 152.87C185.06 153.34 185.03 153.81 185.01 154.28C184.94 155.63 185.05 153.67 185.06 153.56C184.97 155.36 184.79 157.15 184.61 158.94C184.27 162.29 183.8 165.62 183.22 168.94C182.95 170.48 182.65 172.02 182.33 173.55C182.15 174.39 181.97 175.23 181.78 176.07C181.69 176.45 181.6 176.83 181.51 177.21C181.44 177.51 181.36 177.82 181.29 178.12C181.57 177.03 181.63 176.77 181.49 177.34C181.03 179.1 180.56 180.86 179.99 182.59C179.7 183.45 179.4 184.31 179.06 185.15C178.92 185.5 178.78 185.85 178.63 186.2C178.51 186.48 178.39 186.75 178.26 187.03C178.69 186.14 178.79 185.93 178.55 186.41C177.67 188.01 176.77 189.54 175.68 191C175.46 191.3 175.23 191.6 175 191.9C174.82 192.14 174.63 192.38 174.44 192.61C174.95 191.98 175.06 191.84 174.76 192.21C174.19 192.89 173.62 193.57 173.05 194.24C168.51 199.53 163.56 204.5 157.77 208.43L159.01 207.59C154.67 210.48 149.95 212.68 144.87 213.87L146.27 213.55C142.2 214.45 138.04 214.66 133.91 213.97L135.32 214.22C133.6 213.9 131.92 213.49 130.39 212.62L131.67 213.4C131.25 213.13 130.86 212.82 130.44 212.55C130.22 212.41 129.74 211.85 130.4 212.62C131.12 213.46 130.49 212.65 130.37 212.46C128.79 209.86 125.58 209.73 123.72 212.02C121.47 214.8 121.55 218.75 122.66 221.98C124.28 226.67 128.29 228.94 132.88 229.8C137.13 230.59 141.34 230.68 145.59 229.84C154.05 228.17 161.45 224.16 168.05 218.67C171.09 216.14 173.9 213.33 176.55 210.38C179.47 207.13 182.44 203.78 184.79 200.09C187.14 196.4 188.89 191.96 190.11 187.62C191.4 183.02 192.48 178.34 193.32 173.63C196.52 155.82 196.44 137.43 193.54 119.58C192.13 110.86 189.93 102.13 186.84 93.8499C183.75 85.5699 179.3 78.1599 173.81 71.2999C168.78 65.0299 163.28 58.6599 155.52 55.8099C147.76 52.9599 139.95 53.6099 132.48 55.6499C131.64 55.8799 130.71 56.0799 129.92 56.4399C128.88 56.9099 127.91 57.7299 126.97 58.3699C125.49 59.3899 125.26 62.3599 125.63 63.9199C125.97 65.3299 126.99 67.6099 128.81 67.4299L128.82 67.4099Z" fill="#1D1D1B"/>
<path d="M161.43 65.6302C168.36 67.0302 175.27 69.0602 181.82 71.7302C187.87 74.2002 193.19 77.7802 197.67 82.5402C199.58 84.5602 201.52 87.1602 203.16 89.6402C204.04 90.9602 204.86 92.3202 205.65 93.6902C205.85 94.0402 206.04 94.3802 206.23 94.7302C206 94.3002 206.31 94.8802 206.34 94.9302C206.77 95.7502 207.19 96.5802 207.6 97.4202C209 100.29 210.23 103.24 211.35 106.23C211.92 107.77 212.46 109.32 212.97 110.88C213.57 112.71 213.81 113.5 214.35 115.44C215.36 119.08 216.21 122.76 216.86 126.48C217.14 128.11 217.4 129.75 217.61 131.39C217.61 131.44 217.79 132.92 217.69 131.97C217.74 132.42 217.79 132.87 217.83 133.31C217.93 134.35 218.01 135.4 218.08 136.45C218.18 138.09 218.23 139.73 218.24 141.38C218.24 142.27 218.24 143.17 218.2 144.06C218.19 144.51 218.17 144.95 218.15 145.4C218.14 145.7 218.12 145.99 218.1 146.29C218.13 145.81 218.13 145.85 218.09 146.4C217.77 149.95 217.26 153.45 216.47 156.93C216.15 158.34 216.7 156.15 216.32 157.55C216.2 157.98 216.09 158.41 215.96 158.84C215.71 159.7 215.45 160.55 215.17 161.4C214.59 163.12 213.94 164.81 213.22 166.48C211.92 169.48 210.23 172.59 208.4 175.68C206.57 178.77 204.53 181.92 202.53 184.99C200.65 187.87 198.67 190.94 196.51 193.43C191.42 199.33 184.74 203.86 178.29 208.15C174.92 210.39 171.35 212.45 167.41 213.51C163.47 214.57 159.35 214.48 155.53 213.91C153.76 213.65 152.95 216.46 152.88 217.66C152.78 219.21 153.26 221.7 154.99 222.28C158.82 223.55 162.73 223.92 166.7 223.13C170.67 222.34 174.01 220.92 177.34 218.93C180.67 216.94 183.88 214.61 187.07 212.34C190.08 210.2 193.04 207.99 195.77 205.5C201.55 200.23 205.7 193.55 209.85 187C214 180.45 218.01 173.41 220.5 165.91C225.51 150.84 225.11 134.4 221.54 119.06C218.36 105.35 213.18 91.0302 204.27 79.9502C199.9 74.5102 194.67 69.9602 188.45 66.7302C181.93 63.3502 174.75 61.7202 167.56 60.5002C165.83 60.2102 164.1 59.9302 162.38 59.5802C160.94 59.2902 160.12 60.5102 159.91 61.8202C159.74 62.8802 160.02 65.3402 161.44 65.6302H161.43Z" fill="#1D1D1B"/>
<path d="M55.08 62.29C51.53 60.48 47.29 61.66 43.85 63.21C40.6 64.68 37.56 66.63 34.63 68.65C29.1 72.46 24.15 77.22 19.86 82.38C10.78 93.29 4.50998 106.25 1.63998 120.15C0.0999765 127.59 -0.300023 135.23 0.199977 142.8C0.779977 151.66 2.06998 160.63 4.16998 169.27C7.84998 184.41 15.2 198.16 26.29 209.16C31.51 214.33 37.53 218.88 44.06 222.25C50.59 225.62 59.63 227.85 66.34 223.63C68.16 222.48 69.54 221.11 70.81 219.38C72.38 217.24 70.84 210.73 67.52 213.26C62.44 217.13 55.45 217.27 49.5 215.05C43.02 212.64 37.37 208.61 32.14 204.03C26.91 199.45 23.13 195.08 19.38 189.41C18.44 187.99 17.55 186.54 16.71 185.07C16.52 184.73 16.33 184.39 16.14 184.04C15.92 183.65 16.11 183.99 16.15 184.06C16.06 183.89 15.97 183.71 15.88 183.54C15.46 182.73 15.05 181.91 14.66 181.08C13.11 177.82 11.81 174.44 10.74 170.98C10.84 171.31 10.56 170.36 10.52 170.22C10.39 169.77 10.26 169.32 10.14 168.87C9.86998 167.89 9.61998 166.91 9.37998 165.92C8.89998 163.94 8.47998 161.95 8.09998 159.95C7.33998 155.96 6.73998 151.93 6.23998 147.9C6.06998 146.51 5.83998 144.05 5.71998 142.17C5.58998 140.13 5.50998 138.08 5.50998 136.03C5.50998 135.16 5.52998 134.28 5.55998 133.41C5.56998 133.03 5.58998 132.66 5.60998 132.28C5.60998 132.22 5.64998 131.6 5.60998 132.09C5.56998 132.58 5.62998 131.79 5.63998 131.71C5.75998 130.09 5.92998 128.47 6.15998 126.85C6.38998 125.23 6.63998 123.76 6.94998 122.22C7.10998 121.42 7.27998 120.63 7.46998 119.83C7.50998 119.65 7.55998 119.46 7.59998 119.28C7.59998 119.25 7.75998 118.65 7.65998 119.05C7.55998 119.45 7.70998 118.85 7.71998 118.82C7.77998 118.58 7.84998 118.34 7.90998 118.09C8.74998 115.01 9.77998 111.97 10.97 109.01C12.24 105.88 13.24 103.79 14.86 100.85C16.48 97.91 18.18 95.22 20.07 92.56C23.67 87.51 27.92 82.87 32.72 78.74C35.14 76.65 37.69 74.67 40.33 72.87C42.97 71.07 45.99 69 49.17 67.98C50.79 67.46 52.56 67.48 54.16 68.04C56.97 69.03 57.17 63.36 55.06 62.28L55.08 62.29Z" fill="#1D1D1B"/>
<path d="M103.95 68.1602C103.78 68.2802 103.59 68.4002 103.47 68.5702C103.34 68.7502 103.22 68.9302 103.1 69.1202C102.85 69.4902 102.61 69.8502 102.37 70.2202C101.89 70.9602 101.43 71.7202 100.99 72.4802C100.1 74.0002 99.28 75.5502 98.51 77.1302C96.96 80.3202 95.64 83.6202 94.59 87.0102C93.54 90.4002 92.69 94.1602 92.13 97.8202C91.55 101.67 91.24 105.56 91.06 109.44C90.97 111.36 90.92 113.28 90.89 115.21C90.86 117.14 90.82 119.1 90.87 121.04C90.88 121.5 90.89 121.97 90.91 122.43C90.91 122.62 91.02 122.94 91.26 122.94C91.5 122.94 91.58 122.61 91.59 122.42C91.62 121.45 91.66 120.48 91.67 119.51C91.68 118.54 91.68 117.61 91.7 116.65C91.72 114.73 91.76 112.8 91.83 110.88C91.87 109.91 91.91 108.94 91.96 107.97C91.97 107.75 91.98 107.53 92 107.3C92 107.18 92.01 107.06 92.02 106.94C92.02 106.94 92.03 106.73 92.02 106.86C92.02 106.79 92.02 106.72 92.03 106.65C92.06 106.18 92.09 105.7 92.13 105.23C92.28 103.32 92.47 101.41 92.73 99.5102C92.99 97.6102 93.3 95.7202 93.7 93.8402C93.88 92.9702 94.08 92.1002 94.3 91.2302C94.3 91.2502 94.27 91.3302 94.3 91.2202C94.31 91.1702 94.33 91.1102 94.34 91.0602C94.37 90.9502 94.39 90.8502 94.42 90.7402C94.48 90.5302 94.53 90.3102 94.59 90.1002C94.71 89.6702 94.82 89.2502 94.95 88.8202C95.93 85.4602 97.15 82.1602 98.6 78.9702C98.68 78.7902 98.77 78.6002 98.85 78.4202C98.9 78.3202 98.94 78.2202 98.99 78.1202C99.01 78.0702 99.04 78.0202 99.06 77.9702C99.08 77.9402 99.09 77.9002 99.11 77.8702C99.09 77.9102 99.1 77.9002 99.12 77.8402C99.3 77.4602 99.49 77.0702 99.68 76.6902C100.08 75.9002 100.49 75.1102 100.92 74.3302C101.76 72.7902 102.67 71.2802 103.61 69.8002C103.72 69.6302 103.84 69.4602 103.94 69.2902C104.07 69.0802 104.13 68.8102 104.21 68.5802C104.27 68.4202 104.17 68.0102 103.94 68.1802L103.95 68.1602Z" fill="#1D1D1B"/>
<path d="M178.48 155.86C178.53 156.94 178.54 158.01 178.53 159.09C178.53 159.63 178.51 160.17 178.49 160.7C178.48 160.97 178.47 161.24 178.45 161.51C178.45 161.64 178.44 161.77 178.43 161.9C178.43 161.93 178.43 161.97 178.43 162C178.43 162.09 178.43 161.9 178.43 162C178.43 162.07 178.43 162.15 178.42 162.22C178.27 164.36 177.98 166.5 177.54 168.6C177.43 169.13 177.31 169.65 177.19 170.17C177.16 170.3 177.13 170.42 177.1 170.55C177.08 170.61 177.07 170.68 177.05 170.74C177.05 170.76 177.02 170.85 177.05 170.74C177.05 170.78 177.03 170.82 177.02 170.86C176.95 171.12 176.89 171.38 176.81 171.64C176.53 172.68 176.21 173.71 175.86 174.73C175.51 175.75 175.13 176.76 174.72 177.75C174.52 178.24 174.3 178.73 174.09 179.21C173.98 179.46 173.87 179.7 173.75 179.94C173.74 179.97 173.72 180 173.71 180.03C173.75 179.94 173.71 180.02 173.71 180.03C173.68 180.09 173.65 180.15 173.63 180.21C173.57 180.33 173.51 180.46 173.45 180.58C172.5 182.51 171.42 184.38 170.22 186.17C169.62 187.06 169 187.94 168.34 188.79C168.18 189 168.01 189.22 167.84 189.43C167.8 189.48 167.76 189.53 167.72 189.58C167.7 189.61 167.68 189.63 167.66 189.66C167.66 189.66 167.6 189.73 167.65 189.67C167.56 189.78 167.48 189.88 167.39 189.99C167.05 190.41 166.7 190.81 166.34 191.22C164.92 192.83 163.39 194.34 161.77 195.74C160.15 197.14 158.43 198.41 156.74 199.72C155.05 201.03 153.38 202.34 151.84 203.81C150.3 205.28 148.93 206.88 147.86 208.7C147.73 208.92 147.61 209.14 147.49 209.37C147.36 209.63 147.27 209.91 147.14 210.17C147.03 210.39 147.1 210.77 147.29 210.93C147.51 211.11 147.69 210.91 147.79 210.72C147.75 210.79 147.84 210.66 147.85 210.63C147.88 210.58 147.91 210.52 147.94 210.47C148.01 210.35 148.08 210.23 148.15 210.11C148.27 209.89 148.4 209.67 148.53 209.45C148.8 209 149.08 208.57 149.39 208.15C149.55 207.93 149.71 207.72 149.87 207.51C149.91 207.46 149.95 207.41 149.99 207.36C150.01 207.34 150.11 207.21 150.06 207.28C150.14 207.18 150.23 207.07 150.32 206.97C150.66 206.57 151 206.19 151.36 205.81C152.83 204.27 154.47 202.91 156.14 201.6C157.81 200.29 159.55 199.01 161.21 197.65C162.87 196.29 164.45 194.83 165.92 193.26C167.39 191.69 168.79 189.96 170.06 188.18C171.33 186.4 172.44 184.57 173.45 182.66C174.46 180.75 175.37 178.73 176.14 176.69C176.91 174.65 177.54 172.54 178.03 170.41C178.52 168.28 178.86 166.16 179.06 164.01C179.26 161.86 179.33 159.62 179.18 157.43C179.14 156.91 179.1 156.39 179.05 155.87C179.03 155.72 178.97 155.46 178.77 155.47C178.58 155.47 178.51 155.73 178.51 155.88L178.48 155.86Z" fill="#1D1D1B"/>
</g>
<defs>
<clipPath id="clip0_3416_11776">
<rect width="224.23" height="230.63" fill="white"/>
</clipPath>
</defs>
</svg>
