<svg width="246" height="251" viewBox="0 0 246 251" fill="none" xmlns="http://www.w3.org/2000/svg">
<g clip-path="url(#clip0_3416_12110)">
<path d="M120.49 109.549C123.18 107.079 125.88 104.609 128.57 102.139C129.89 100.929 131.18 99.6991 132.45 98.4391C133.85 97.0691 135.06 95.4491 136.33 93.9491C137.05 93.1091 137.22 91.8891 136.78 90.8591C136.4 89.9591 135.58 89.4591 134.74 90.0991C133.34 91.1691 131.81 92.1691 130.52 93.3791C129.23 94.5891 127.84 95.9191 126.54 97.2291C123.91 99.8591 121.29 102.489 118.66 105.119C117.78 106.009 117.67 107.559 118.14 108.669C118.54 109.609 119.57 110.379 120.49 109.539V109.549Z" fill="black"/>
<path d="M175.35 10.8196C175 10.8596 174.66 10.4096 174.95 10.7396C175.06 10.8696 175.26 10.9796 175.39 11.0896C175.91 11.5196 176.4 11.9896 176.88 12.4496C177.04 12.6096 177.21 12.7596 177.37 12.9196C177.72 13.2496 177.19 12.7696 177.1 12.6596C177.2 12.7696 177.31 12.8596 177.42 12.9596C177.83 13.3496 178.23 13.7496 178.63 14.1396C179.6 15.0896 180.57 16.0496 181.53 17.0096C186.99 22.4596 192.38 27.9796 197.77 33.5096C204.22 40.1396 210.65 46.7796 217.07 53.4396C222.6 59.1696 228.12 64.9196 233.63 70.6596C236.3 73.4496 238.9 76.3396 241.66 79.0396C241.7 79.0796 241.74 79.1196 241.78 79.1596V69.8296C241.7 69.9496 241.6 70.0696 241.51 70.1796C241.4 70.3096 241.29 70.4396 241.17 70.5696C241.1 70.6496 241.03 70.7196 240.96 70.7896C240.58 71.1996 240.84 70.7896 241.15 70.6196C240.6 70.9296 240.11 71.5396 239.59 71.9196C238.86 72.4496 238.09 72.9296 237.3 73.3696C236.31 73.9096 235.27 74.3696 234.21 74.7596C233.94 74.8596 233.66 74.9596 233.39 75.0496C233.21 75.1096 233.03 75.1696 232.85 75.2196C232.95 75.1896 233.3 75.0896 232.81 75.2196C232.09 75.4196 231.37 75.5996 230.64 75.7496C227.06 76.4796 223.38 76.6096 219.74 76.3696C217.45 76.2196 215.18 75.9196 212.93 75.5096C212.34 75.3996 211.76 75.2896 211.17 75.1696C210.18 74.9596 209.82 74.9496 209.07 75.7096C209.05 75.7296 209.03 75.7496 209.01 75.7696C208.63 76.1596 208.27 76.5596 207.9 76.9496L202.12 83.1396C195.21 90.5396 188.3 97.9396 181.39 105.34C173.91 113.35 166.42 121.36 158.94 129.37L150.77 138.12C149.44 139.55 148.02 140.93 146.75 142.42C146.69 142.49 146.63 142.55 146.57 142.61C145.67 143.58 145.51 145.32 145.44 146.55C145.35 148.14 145.56 149.59 146.09 151.09C146.12 151.19 146.15 151.29 146.19 151.38C146.44 151.99 145.74 150.02 145.95 150.67C146.01 150.85 146.07 151.03 146.13 151.21C146.48 152.28 146.8 153.36 147.11 154.44C147.56 156.03 147.98 157.64 148.36 159.25C148.59 160.23 148.81 161.22 149.02 162.21C149.13 162.74 149.24 163.27 149.34 163.8C149.39 164.03 149.43 164.27 149.47 164.5C149.59 165.1 149.26 163.32 149.36 163.93C149.39 164.09 149.42 164.25 149.45 164.41C149.87 166.81 150.22 169.22 150.47 171.64C150.53 172.23 150.59 172.83 150.64 173.42C150.67 173.74 150.69 174.07 150.72 174.39C150.74 174.64 150.82 175.97 150.76 174.93C150.7 173.89 150.76 174.97 150.77 175.2C150.79 175.53 150.8 175.86 150.81 176.19C150.84 176.91 150.85 177.62 150.86 178.34C150.87 179.65 150.86 180.95 150.8 182.25C150.8 182.45 150.72 183.72 150.78 182.7C150.84 181.68 150.76 182.89 150.74 183.15C150.69 183.83 150.62 184.51 150.55 185.19C150.48 185.87 150.39 186.55 150.29 187.23C150.25 187.52 150.2 187.81 150.15 188.1C150.12 188.29 150.08 188.49 150.05 188.68C149.94 189.36 150.08 188.43 150.13 188.26C149.75 189.57 149.56 190.94 149.19 192.25C149.08 192.63 148.97 193 148.86 193.37C148.82 193.51 148.77 193.65 148.73 193.79C148.47 194.61 148.86 193.86 148.78 193.67C148.92 194.03 148.16 195.34 148.01 195.72C147.72 196.44 147.4 197.15 147.06 197.85C146.89 198.2 146.72 198.55 146.54 198.89C146.45 199.07 145.94 200 146.15 199.62C146.36 199.24 145.88 200.06 145.79 200.21C145.58 200.54 145.37 200.87 145.16 201.2C144.72 201.86 144.26 202.5 143.78 203.12C143.32 203.71 142.84 204.29 142.34 204.84C142.07 205.14 141.8 205.44 141.52 205.73C141.41 205.84 141.31 205.95 141.2 206.06C141.2 206.06 140.52 206.72 140.89 206.37L142.72 206.91C139.3 203.54 135.87 200.16 132.45 196.79C124.23 188.69 116.01 180.58 107.79 172.48C97.84 162.68 87.9 152.87 77.95 143.07C69.35 134.59 60.75 126.11 52.15 117.64C47.97 113.52 43.89 109.27 39.6 105.27C39.54 105.21 39.48 105.15 39.42 105.1L38.85 114.97C42.28 112.15 46.25 109.86 50.2 107.87C58.56 103.67 67.73 101.06 77.16 101.38C83.53 101.59 89.64 103.21 95.29 106.15C95.71 106.41 96.13 106.41 96.55 106.15C100.86 102.57 105.16 98.9896 109.47 95.4096C118.53 87.8796 127.58 80.3496 136.64 72.8196C144.65 66.1596 152.67 59.4896 160.68 52.8296C162.48 51.3296 164.31 49.8496 166.1 48.3296C169.07 45.7996 167.96 40.8696 167.72 37.2896C167.67 36.5296 167.81 38.9796 167.76 37.8996C167.74 37.6096 167.73 37.3096 167.72 37.0196C167.69 36.4196 167.67 35.8096 167.65 35.2096C167.61 33.8896 167.59 32.5696 167.6 31.2496C167.6 29.7596 167.69 28.2796 167.73 26.7996C167.73 26.7796 167.62 28.3396 167.69 27.5096C167.7 27.3496 167.71 27.1896 167.72 27.0296C167.75 26.6296 167.78 26.2196 167.82 25.8196C167.89 25.0496 167.97 24.2796 168.06 23.5196C168.15 22.7996 168.25 22.0796 168.37 21.3596C168.4 21.1596 168.45 20.9696 168.47 20.7696C168.47 20.7696 168.2 22.1096 168.36 21.3596C168.44 20.9696 168.52 20.5896 168.6 20.1996C168.75 19.5196 168.92 18.8496 169.11 18.1796C169.21 17.8396 169.38 17.4596 169.44 17.0996C169.44 17.1296 169.04 18.2096 169.28 17.5596C169.36 17.3596 169.43 17.1496 169.51 16.9496C169.74 16.3596 169.99 15.7696 170.27 15.1996C170.35 15.0396 170.85 14.0996 170.51 14.7196C170.17 15.3396 170.79 14.2896 170.89 14.1296C171.21 13.6596 171.56 13.2096 171.94 12.7796C172.2 12.4896 172.5 12.2596 172.02 12.6696C172.27 12.4596 172.52 12.2296 172.78 12.0396C173.21 11.7196 173.67 11.4396 174.15 11.2096C174.39 11.0896 174.64 10.9996 174.9 10.8996C175.32 10.7296 174.86 10.8996 174.79 10.9196C174.97 10.8696 175.15 10.8296 175.33 10.7796C177.4 10.3096 177.74 7.12961 177.71 5.37961C177.68 4.08961 177.56 2.74961 177.01 1.55961C176.75 0.999605 176.11 -0.200395 175.33 -0.020395C168.09 1.6296 165.4 9.91961 164.17 16.3696C162.79 23.6196 162.61 31.0596 163.03 38.4096C163.14 40.3796 163.25 42.3496 163.48 44.3096L165.14 37.6696C162.83 39.5896 160.52 41.5096 158.2 43.4396C152.65 48.0596 147.09 52.6796 141.54 57.2896C134.82 62.8796 128.1 68.4696 121.38 74.0596C115.56 78.8996 109.75 83.7296 103.93 88.5696L98.15 93.3796C97.31 94.0796 96.09 94.7896 95.42 95.6496C95.39 95.6896 95.33 95.7196 95.29 95.7496H96.55C86.46 90.5096 75.01 89.3796 63.99 91.9596C56 93.8296 48.37 97.2396 41.52 101.74C40.17 102.63 38.82 103.54 37.57 104.57C36.32 105.6 35.96 107.49 35.87 109.06C35.78 110.63 35.81 113.26 37 114.44C40.42 117.81 43.85 121.19 47.27 124.56C55.49 132.66 63.71 140.77 71.93 148.87C81.88 158.67 91.82 168.48 101.77 178.28C110.37 186.76 118.97 195.24 127.57 203.71C131.75 207.83 135.92 211.97 140.12 216.08C140.18 216.14 140.24 216.2 140.3 216.25C140.69 216.64 141.5 217.39 142.13 216.79C151.86 207.62 155.17 194.37 155.57 181.38C155.89 170.94 154.28 160.36 151.56 150.3C150.93 147.99 150.24 145.69 149.43 143.43L148.95 151.91C151.03 149.69 153.1 147.46 155.18 145.24C160.14 139.93 165.09 134.63 170.05 129.32C176.08 122.87 182.1 116.42 188.13 109.97C193.34 104.39 198.55 98.8196 203.76 93.2396L208.89 87.7496C209.69 86.8896 210.61 86.0596 211.33 85.1296C211.36 85.0896 211.4 85.0496 211.44 85.0096L210.24 85.7496C217.43 87.3096 225.12 88.0396 232.32 86.1196C235.99 85.1496 239.57 83.6196 242.38 80.9996C242.99 80.4296 243.67 79.8196 244.15 79.1196C245.07 77.7696 245.33 76.0596 245.33 74.4596C245.33 73.0796 245.19 70.8796 244.15 69.7996C241.93 67.4796 239.71 65.1596 237.48 62.8396C232.17 57.2996 226.85 51.7696 221.53 46.2396C215.06 39.5196 208.58 32.8196 202.08 26.1296C196.48 20.3696 190.87 14.6196 185.2 8.92961C183.32 7.03961 181.43 5.1596 179.51 3.3096C178.5 2.3396 177.38 0.929605 176.13 0.229605C175.89 0.099605 175.57 -0.080395 175.31 -0.050395C173.23 0.189605 172.9 3.77961 172.93 5.34961C172.96 6.63961 173.08 7.97961 173.63 9.16961C173.91 9.77961 174.49 10.8396 175.31 10.7496L175.35 10.8196Z" fill="black"/>
<path d="M3.03999 250.05C6.06999 247.41 9.09999 244.77 12.13 242.13C19.41 235.79 26.69 229.46 33.96 223.12C42.76 215.46 51.56 207.79 60.37 200.13C67.95 193.53 75.53 186.93 83.12 180.33C86.82 177.11 90.56 173.93 94.22 170.66C94.27 170.61 94.32 170.57 94.38 170.52C96.13 169 96.35 166.04 96.04 163.88C95.92 163.07 94.84 158.61 93.12 160.11C90.09 162.75 87.06 165.39 84.03 168.03C76.75 174.37 69.47 180.7 62.2 187.04C53.4 194.7 44.6 202.37 35.79 210.03C28.21 216.63 20.63 223.23 13.04 229.83C9.33999 233.05 5.59999 236.23 1.93999 239.5C1.88999 239.55 1.83999 239.59 1.77999 239.64C0.0299932 241.16 -0.190007 244.12 0.119993 246.28C0.239993 247.09 1.31999 251.55 3.03999 250.05Z" fill="black"/>
</g>
<defs>
<clipPath id="clip0_3416_12110">
<rect width="245.36" height="250.35" fill="white"/>
</clipPath>
</defs>
</svg>
