<svg width="251" height="209" viewBox="0 0 251 209" fill="none" xmlns="http://www.w3.org/2000/svg">
<g clip-path="url(#clip0_3416_10819)">
<path d="M34.41 3.92015C37.3 3.84015 40.24 4.04015 43.07 3.62015C47.97 2.91015 52.8501 1.97015 57.6501 0.830154C62.4101 -0.289846 67.2601 -0.479846 71.6601 1.52015C77.4301 4.15015 83.47 4.61015 89.5201 5.43015C91.5301 5.71015 93.6601 5.88015 95.4901 6.67015C100.09 8.68015 104.66 9.91015 109.76 10.4602C117.38 11.2802 124.86 13.6202 132.42 15.2102C138.39 16.4602 144.39 17.5602 150.37 18.7202C159.29 20.4502 166.87 24.9402 174.07 30.1602C183.26 36.8202 188.38 45.5402 189.04 56.7002C189.22 59.7402 190.14 62.8002 191.03 65.7802C193.75 74.8702 193.94 84.0402 192.97 93.2602C192.81 94.7402 192.23 96.2002 191.69 97.6102C188.85 105.03 185.99 112.44 183.06 119.83C182.67 120.82 182.06 121.83 181.27 122.54C175.26 127.95 169.57 133.79 163 138.46C158.24 141.85 153.49 145.24 150.32 149.91C144.34 158.71 135.44 162.57 125.59 165.29C123.86 165.77 122 166.04 120.44 166.83C107.93 173.16 95.8801 169.3 83.9101 164.46C73.7801 160.36 66.66 152.14 58.09 145.9C47.2 137.97 39.1101 127.76 33.8801 115.66C31.4601 110.04 27.0301 106.24 23.1201 101.94C18.9601 97.3702 15.0401 92.8302 13.6901 86.6802C13.3701 85.2002 12.4601 83.8102 11.7201 82.4302C8.95005 77.2902 4.94005 72.8802 4.68005 66.4702C4.45005 60.8102 3.12005 55.0502 1.39005 49.5702C-1.90995 39.0802 1.58005 29.0202 2.06005 18.7902C2.17005 16.5002 4.21005 13.9002 6.12005 12.2702C9.79005 9.12015 13.64 5.71015 18.09 3.99015C23.08 2.06015 28.81 1.63015 34.39 3.92015H34.41ZM143.5 100.11C142.84 101.75 142.16 102.71 142.11 103.71C141.87 108.82 147.95 117.36 153.08 118.55C155 119 157.77 118.57 159.16 117.42C160.1 116.64 159.94 113.6 159.18 112.08C156.11 105.96 150.69 102.48 143.5 100.12V100.11ZM38.51 43.1402C37.78 35.5702 33.83 30.4602 27.96 26.4802C25.2867 24.6668 22.5167 24.9402 19.65 27.3002C23.11 37.6302 29.3101 43.0702 38.5201 43.1402H38.51ZM155.6 78.8302C158.5 89.2202 165.77 94.8401 174.04 93.3801C174.64 89.1301 172.23 85.8302 169.94 82.5502C166.56 77.7002 165.99 77.5902 159.94 78.7402C158.66 78.9802 157.29 78.8102 155.6 78.8302ZM132.77 71.2202C129.28 78.1402 134.51 82.0502 137.34 86.1402C140.91 91.2902 143.52 91.7202 148.94 89.3902C145.81 81.7602 140.61 76.0202 132.77 71.2102V71.2202ZM109.58 93.5901C113.1 87.0601 112.75 85.1602 106.97 82.1402C103.3 80.2202 99.3401 78.8202 94.8801 76.9202C97.5901 86.5902 101.79 91.2201 109.58 93.5901ZM65.7501 120.01C65.2701 121.23 64.8901 121.7 65.0001 122.02C67.2501 128.78 71.8101 133.86 77.8301 137.67C78.8201 138.3 81.2801 138.15 81.9501 137.4C82.6301 136.64 82.4501 134.42 81.7801 133.33C78.0801 127.3 72.5701 123.25 65.7601 120.01H65.7501ZM87.7701 89.9202C85.9001 82.6802 78.7901 75.6102 72.4501 74.1902C70.2001 79.0402 70.0101 79.1902 71.7801 81.2802C75.7901 86.0102 80.37 89.9402 87.7701 89.9202ZM128.83 64.4501C128.49 57.1401 124.36 51.0202 118.84 49.4602C117.35 49.0402 114.91 49.2602 114.05 50.1902C113.29 51.0202 113.49 53.7002 114.33 54.7702C117.9 59.3002 121.96 63.4001 128.83 64.4501ZM25.7701 50.9702C23.9201 60.5102 30.73 68.4101 41.21 69.9501C39.69 61.1901 34.9401 55.2202 25.7701 50.9702ZM132.2 30.2902C132.37 36.1602 135.72 40.1902 140.02 43.5502C142.62 45.5702 145.6 47.5002 149.09 45.1902C150.51 35.2802 138.92 30.9002 132.2 30.3002V30.2902ZM104.72 58.9702C103.29 56.2202 102.49 53.8502 100.98 52.0302C99.0101 49.6402 96.73 47.2902 94.09 45.7202C92.82 44.9602 90.1401 45.5802 88.6801 46.4802C88.0501 46.8702 88.3301 49.8902 89.1801 51.0502C92.7301 55.9002 97.3101 59.2102 104.71 58.9802L104.72 58.9702ZM99.8801 136.43C99.7401 142.87 103.72 149.82 108.76 151.73C110.23 152.29 112.11 151.77 113.8 151.73C113.69 150.12 114.14 148.18 113.36 146.96C110.19 142.01 105.64 138.59 99.8801 136.42V136.43ZM51.14 22.4202C52.79 32.5902 58.6001 39.0302 66.3201 39.8002C67.1901 32.7902 60.33 27.9602 51.14 22.4202ZM96.8801 117.1C95.9301 108.61 93.3401 105.68 84.1201 102.64C84.4401 112.08 89.4501 117.76 96.8801 117.1ZM126.89 122.9C126.15 123.05 125.42 123.2 124.68 123.35C124.35 124.88 123.2 126.93 123.82 127.84C126.18 131.25 128.96 134.44 131.95 137.35C132.66 138.05 135.32 137.93 136.08 137.2C136.8 136.5 136.79 134.08 136.08 133.17C133.24 129.58 129.99 126.29 126.9 122.9H126.89ZM39.39 82.5002C39.52 91.1802 44.49 96.8502 50.8 96.3302C51.27 88.3602 44.41 86.1502 39.39 82.5002ZM57.21 51.9102C59.53 61.1902 65.7601 65.5602 72.6901 62.4702C68.8701 55.2402 63 52.2502 57.21 51.9102ZM119.42 118.54C118.12 112.18 110.84 107.96 104.72 104.44C106 108.05 106.98 110.51 107.74 113.03C109.21 117.9 112.83 118.88 119.42 118.53V118.54ZM96.0301 35.5502C102.63 24.5002 87.4001 23.7402 81.6701 21.2702C82.9101 28.4902 88.8401 34.3202 96.0301 35.5502ZM122.98 91.0302C120.07 97.8902 122.05 100.47 130.8 101.89C130.09 97.0902 127.04 94.1402 122.98 91.0302ZM56.32 100.55C56.32 106.38 64.4001 111.68 67.7901 111.66C67.3201 107.11 60.64 97.2502 56.32 100.55Z" fill="black"/>
<path d="M222.3 162.68C221.95 165 219.53 165.06 217.37 164.98C208.32 164.63 194.22 156.42 185.18 156.19C183.25 156.14 181.32 156.54 180.14 156.66C179.6 161.96 178.95 166.4 178.73 170.87C178.25 180.74 182.97 198.5 182.73 208.38C177.04 195.77 162.25 185.82 156.44 173.25C155.88 172.05 155.05 170.94 154.23 169.87C152.34 167.42 148.21 163.65 148.21 163.65C148.21 163.65 152.39 158.65 154.61 156.61C160.27 151.42 164.64 147.61 171.03 143.31C174.82 140.75 178.23 137.07 180.33 132.84C185.39 128.34 189.05 125.6 192.93 119.49C194.91 116.36 196.8 108.19 198.45 104.87C199.86 102.05 200.72 94.4902 200.72 94.4902C200.72 94.4902 207.53 99.5102 210.68 101.44C212.59 102.61 216.32 107.43 218.46 108.02C226.78 110.3 225.97 110.35 234.31 112.56L250.91 121.99L225.43 126.82C218.26 127.52 209.76 131.1 204.51 131.71C207.08 137.26 207.59 146.35 211.23 150.19" fill="black"/>
</g>
<defs>
<clipPath id="clip0_3416_10819">
<rect width="250.91" height="208.38" fill="white"/>
</clipPath>
</defs>
</svg>
