<svg width="248" height="221" viewBox="0 0 248 221" fill="none" xmlns="http://www.w3.org/2000/svg">
<g clip-path="url(#clip0_3416_12157)">
<path d="M215.9 144.44C223.87 155.99 233.28 166.18 244.88 174.2C245.47 174.62 246.05 175.44 247.04 174.96C246.96 173.62 245.98 172.79 245.16 171.95C234.91 160.77 226.35 148.44 219.08 135.17C218.24 133.67 217.36 133.22 216.94 132.89C216.77 133.14 217.06 133.74 216.92 134.05C215.57 136.5 214.14 139.08 212.84 141.34C212.77 141.42 213 140.22 215.91 144.43L215.9 144.44Z" fill="black"/>
<path d="M172.43 192.52C170.58 197.81 169.46 203.21 170.22 208.94C171.18 215.94 176.73 220.64 183.65 220.31C188.48 220.05 193.14 218.94 197.48 216.83C203.43 213.86 209.22 210.53 214.12 205.9C215.3 204.77 215.76 204.5 216.47 204.15C214.28 202.77 214.09 202.66 210.96 200.86C210.78 201.3 210.33 201.59 209.44 202.24C203.28 206.87 196.78 211.26 189.19 212.71C183.32 213.79 179.5 211.39 179.88 204.67C179.99 202.68 180.35 200.66 180.88 198.78C181.03 198.26 181.22 197.76 181.38 197.2C182.2 194.65 183.24 192.21 184.39 189.76C184.51 189.49 184.64 189.22 184.79 189.06C184.79 189.06 184.84 189.07 184.85 189.03C187.41 183.53 190.47 178.07 192.47 174.74L192.51 174.6C192.6 174.47 192.63 174.33 192.72 174.21C192.82 174.04 192.87 173.85 193.02 173.69C193.12 173.52 193.28 173.31 193.38 173.13C194.04 172.05 194.41 171.45 194.41 171.45C199.71 163.24 204.89 154.89 210.16 146.61C210.35 146.31 210.55 145.96 210.79 145.62C210.99 145.27 211.19 144.92 211.45 144.54L211.48 144.45C211.95 143.67 212.44 142.85 212.99 141.94C213.02 141.85 213.04 141.75 213.12 141.67C214.42 139.41 215.85 136.83 217.2 134.38C217.34 134.06 217.47 133.8 217.64 133.54C217.94 133.02 218.19 132.48 218.49 131.96C219.95 129.29 221.2 127.01 221.84 125.83C221.94 125.66 221.98 125.51 222.07 125.39C222.14 125.31 222.17 125.22 222.19 125.12C223.11 123.1 223.91 121 224.62 118.83C227.1 111.09 229.56 103.28 228.09 95.0302C226.15 84.3202 220.1 79.4302 209.7 81.0002C205.31 81.6802 200.91 82.9202 197.3 85.3402C193.3 88.0502 193.45 87.4102 190.92 88.6502C189.2 89.4902 195.82 92.9002 194.24 92.0502C197.18 95.6902 199.17 97.7102 198.8 97.2102C199.38 96.9002 199.81 96.6702 200.9 96.2202C203.41 95.2102 205.95 94.2602 208.67 94.1102C210.42 94.0002 212.14 94.1802 213.54 95.3302C215.59 97.0202 216.56 99.3202 216.65 102.78C216.94 108.22 215.66 113.27 213.51 118.23L213.47 118.37C213.37 118.54 213.32 118.73 213.21 118.95C212.97 119.44 212.91 120.18 212.49 120.42C210.92 123.47 208.74 127.81 206.6 131.8L206.57 131.89C206.39 132.55 206.11 133.18 205.66 133.86C205.1 134.76 204.54 135.67 203.92 136.61C203.63 137.09 203.35 137.56 203.06 138.04C199.91 143.12 196.85 148.22 193.65 153.29C190.85 157.86 187.93 162.29 185.17 166.88C185.17 166.88 184.8 167.48 184.21 168.48C184.01 168.83 183.8 169.22 183.53 169.65C183.3 170.09 183.02 170.57 182.72 171.09C180.11 175.66 175.94 183.29 173.37 189.89C173.2 190.3 173.02 190.75 172.9 191.17C172.68 191.61 172.54 192.08 172.43 192.5V192.52Z" fill="#1D1D1B"/>
<path d="M116.41 40.5996C116.41 40.5996 115.53 40.4996 114.73 40.2796C106.43 37.9896 98.2002 35.7696 89.9502 33.4896L86.4202 32.5496L84.1202 31.8996C84.1202 31.8996 83.7002 31.7796 83.0602 31.5496C80.9002 30.7896 76.0502 29.1696 73.9102 28.3096C72.7702 27.8896 72.8102 27.8996 71.2202 27.2496C71.0802 27.2096 69.3202 26.4596 69.1302 26.4096C68.6802 26.2296 68.2702 26.0696 67.8202 25.8396C66.1402 25.1596 64.5402 24.4096 63.4002 23.7796C58.9302 21.7096 54.4902 19.6996 50.4302 16.8896C49.1202 15.9696 43.5402 12.2696 42.9002 13.2996C42.2302 14.4296 44.0902 16.0596 45.1302 17.2196C49.4602 21.7796 54.3702 25.6896 59.4802 29.2596C66.0202 33.8796 73.2902 37.2996 80.9502 39.9196C90.5902 43.1996 100.46 45.5196 110.21 48.4196C111.56 48.8496 111.19 48.8896 112.24 49.1896" fill="black"/>
<path d="M70.92 27.1303C72.5 27.7803 72.76 27.8903 73.91 28.3103C76.04 29.1603 79.48 30.2903 81.64 31.0503C82 30.3703 82.24 30.5003 83.2 29.6103C85.83 27.2703 88.63 25.0703 91.55 23.1203C96.97 19.4903 102.58 16.1203 109.23 15.1103C112.14 14.6703 114.96 14.8603 117.02 16.3503C119.93 18.5903 120.63 21.3103 120.64 24.3003C120.58 29.5403 118.85 34.4103 117.04 39.2103C117.01 39.3003 113.73 46.2703 111.73 50.1503L111.69 50.2903C111.58 50.5103 111.47 50.7303 111.35 50.9503C110.94 51.6903 110.59 52.4003 110.32 52.9903C110.22 53.1603 110.12 53.3403 110.02 53.5103C105.73 61.0003 100.75 68.0903 95.8 75.0903C89.87 83.3803 83.82 91.5803 78.62 100.33C78.62 100.33 78.32 100.85 77.76 101.76C77.62 102.08 77.41 102.47 77.15 102.85C76.63 103.81 76 104.95 75.22 106.3C72.54 111.31 68.67 118.76 65.89 125.57L65.86 125.66C65.89 125.92 65.83 126.11 65.71 126.38C64.74 129.09 63.7 131.73 62.87 134.48C60.03 143.64 57.79 152.87 59.21 162.52C60.69 172.34 65.84 179.36 75.65 182.22C82.29 184.14 88.83 183 95.23 180.92C103.97 178.07 111.82 173.56 119.34 168.4C120.71 167.47 121.85 167.39 123.2 168.17C120.25 166.27 114.93 161.99 113.32 154.61C114.26 159.17 111.7 160.73 108.52 162.31C108.23 162.43 107.97 162.66 107.67 162.83C101.86 166.05 96.06 169.21 89.31 170.19C80.12 171.59 72.85 166.51 71.28 157.37C70.42 152.17 71.03 147.14 72.23 142.16C72.43 140.9 72.83 139.3 73.44 137.5C73.52 137.22 73.61 136.89 73.75 136.58L74.01 135.64C74.05 135.5 74.09 135.36 74.16 135.28C74.19 135.19 74.2 135.14 74.27 135.06C76.38 129.03 79.64 121.56 81.72 117.09L81.76 116.95C81.76 116.6 81.91 116.23 82.11 115.89C82.46 115.18 82.81 114.47 83.21 113.77C83.45 113.28 83.58 113.01 83.58 113.01C88.1 104.32 93.42 96.0603 99.11 88.0603C103.17 82.2803 107.21 76.5403 111.22 70.7403C114.25 66.4403 117.07 62.0203 119.59 57.3703C119.68 57.2403 119.75 57.1603 119.79 57.0203C120.25 56.2903 120.6 55.5803 121.01 54.8403C121.17 54.6303 121.28 54.4103 121.4 54.1903C121.56 53.9803 121.67 53.7603 121.79 53.5403C121.86 53.4603 121.89 53.3703 121.95 53.3303C124.1 49.2903 125.59 45.6103 126.63 42.8203L126.66 42.7303C126.67 42.3303 126.74 41.8903 126.94 41.3903C127.42 40.0603 127.91 38.6803 128.29 37.3203C129.45 33.4003 130.24 29.3203 130.41 25.1303C130.78 14.6703 125.54 7.98034 115.25 6.09034C108.89 4.96034 102.88 6.55034 97.13 9.02034C88.11 12.8503 80.34 18.5403 73.32 25.3103C72.13 26.4903 71.69 26.7203 70.91 27.1203L70.92 27.1303Z" fill="#1D1D1B"/>
<g style="mix-blend-mode:darken">
<mask id="mask0_3416_12157" style="mask-type:luminance" maskUnits="userSpaceOnUse" x="140" y="0" width="84" height="87">
<path d="M188.121 0.0131697L140.331 30.2832L176.032 86.6479L223.822 56.3779L188.121 0.0131697Z" fill="white"/>
</mask>
<g mask="url(#mask0_3416_12157)">
<mask id="mask1_3416_12157" style="mask-type:luminance" maskUnits="userSpaceOnUse" x="140" y="0" width="84" height="87">
<path d="M188.112 0.0180144L140.339 30.2773L176.051 86.659L223.824 56.3996L188.112 0.0180144Z" fill="white"/>
</mask>
<g mask="url(#mask1_3416_12157)">
<path d="M177 9.30991C176.89 16.0299 172.17 23.6999 169.46 30.2699C166.28 38.0599 164.66 46.6099 158.8 53.3499C157.18 55.2499 154.61 54.4399 154.79 52.2099C155.42 43.9999 160.76 36.4699 164.28 28.7899C167.26 22.2599 169.48 13.9499 174.6 8.60991C175.42 7.74991 177.01 8.26991 177.01 9.29991M205.44 29.3399C204.06 31.1499 202.33 33.7699 200.11 34.7299C194.43 37.2299 190.51 42.8199 186.28 47.0499C180.46 52.7899 173.38 61.6099 165.12 62.7499C164.07 62.8899 163.45 62.1399 163.79 61.1299C166.06 53.9599 174.26 49.2099 180.28 44.8299C184.61 41.6799 189.14 38.8499 193.49 35.6699C197.55 32.6699 199 29.5099 203.6 27.1299C205.14 26.3199 206.47 27.9999 205.45 29.3399M216 61.1999C210.95 65.1899 202.57 66.9999 196.58 68.7399C191.19 70.3099 182.48 74.4799 178.45 70.2999C178.17 70.0099 178.12 69.4299 178.33 69.0099C180.93 63.6199 188.52 63.2099 193.54 62.1399C200.25 60.7299 209.54 57.8999 215.81 59.3799C216.59 59.5599 216.67 60.6399 216 61.1899" fill="#1D1D1B"/>
</g>
</g>
</g>
<path d="M22.0901 29.1799C21.8701 28.3599 22.2101 27.4999 23.1001 26.6799C24.6101 25.2799 25.7401 23.5799 26.6601 21.7699C27.1101 20.8899 27.5801 19.7499 26.6701 19.0399C25.6801 18.2499 24.8301 19.2799 24.0001 19.6999C23.6901 19.9199 23.3001 20.2099 23.1501 20.5699C22.3901 22.1799 21.0101 23.1499 19.7201 24.3099C18.8501 25.0799 19.3701 26.0799 18.3601 25.5399C19.7601 26.8499 21.0801 28.0799 22.0901 29.1699V29.1799Z" fill="#1D1D1B"/>
<path d="M6.52783e-05 69.3201C-0.0499347 72.7401 0.640065 76.0201 2.79007 78.8001C6.03007 82.9001 10.5401 83.7701 15.3901 83.4201C23.3601 82.7801 30.1401 79.1801 36.4901 74.7601C37.8901 73.7401 38.5401 73.7701 39.2501 74.8301C37.7901 72.2901 37.3701 71.3201 32.7101 64.2401C33.3201 65.2101 32.9401 65.4701 31.7601 66.2501C27.3701 69.2601 22.9001 72.2001 17.8601 73.9601C9.91007 76.6801 6.09007 73.7301 6.93007 65.3701C7.62007 58.2801 10.2201 51.7301 12.9501 45.2701C13.4601 44.0001 14.0301 43.6001 14.5401 43.7501C13.0501 42.4201 11.1301 40.6101 9.44006 39.0801C9.65006 39.5901 9.52007 40.2201 9.14007 40.8701C8.02007 42.8801 7.03007 44.9301 6.04007 47.0201C2.72007 54.1101 0.0300653 61.3401 6.52783e-05 69.3201Z" fill="#1D1D1B"/>
<path d="M2.19995 32.1203C3.38995 33.1103 4.43995 34.2204 5.53995 35.3404C5.85995 35.6304 6.37995 36.1304 6.97995 36.7104C7.53995 37.2204 8.11995 37.6904 8.70995 38.1104C9.07995 38.4204 9.34995 38.7003 9.45995 39.0303V39.0804C11.14 40.6204 13.05 42.4204 14.55 43.7504C14.79 43.8204 15.04 43.9904 15.26 44.3004C15.78 44.8004 16.25 45.2903 16.67 45.7603L17.07 46.1304C18.06 47.1204 18.88 47.9604 19.69 48.8404C21.41 50.6404 23.1 52.5303 24.68 54.4403C31.4 61.8003 37.7999 72.3004 39.2599 74.8304C39.5099 75.2004 39.61 75.3803 39.61 75.3803C43.48 81.9303 46.91 88.7604 50.36 95.5504C55.19 104.95 59.56 114.58 65.47 123.37C65.95 124.16 65.86 123.76 66.43 124.33C69.21 117.53 71.99 112.39 74.67 107.38C74.3433 107.034 74.0133 106.494 73.68 105.76C73.42 105.23 73.15 104.75 72.9 104.23C62.91 83.1604 51.71 62.8104 36.66 44.8104C32.5 39.8404 28.5199 34.5804 23.2099 30.6504C22.5799 30.1704 22.21 29.7104 22.11 29.1804C21.1 28.0904 19.7799 26.8604 18.3799 25.5504C18.3299 25.5404 18.29 25.5204 18.25 25.4604H18.2C16.79 24.7004 15.31 23.3204 13.97 21.9804C13.1 21.1304 12.32 20.3004 11.65 19.6104L2.20995 32.1203H2.19995Z" fill="black"/>
<path d="M74.5701 134.11C74.8701 134.19 75.5401 134.61 76.2801 135.22C78.8101 137.35 81.6201 139.05 84.5301 140.58C88.9601 142.99 104.43 150.69 114.78 131.21C116.69 127.65 122.63 117.35 131.92 106.46C156.38 77.8105 153.1 61.4605 143.27 53.2805C138.84 49.6005 133.93 46.9505 128.64 44.9105C127.31 44.4305 126.55 44.0705 126.31 43.7305C125.27 46.5205 124.53 48.5105 122.38 52.5605C122.86 52.4305 123.07 52.6505 124.16 53.1105C131.31 56.1305 137.95 59.9805 142.73 66.3405C146.1 70.8805 145.93 74.5205 144.29 79.8205C144.29 79.8205 141.53 91.2305 129.6 103.59C115.31 118.42 111.54 134.45 103.73 132.4C95.3901 130.25 88.5301 125.69 82.5401 119.7C81.7201 118.86 81.4601 118.39 81.3101 118.08C79.2401 122.55 76.6901 128.09 74.5801 134.12L74.5701 134.11Z" fill="black"/>
<path d="M113.33 154.62C114.94 162 120.26 166.28 123.21 168.18C123.38 168.28 123.51 168.37 123.69 168.47C124.09 168.68 124.44 168.88 124.83 169.09C125.1 169.22 125.22 169.3 125.22 169.3C130.08 171.78 135.35 173.37 140.6 174.85C150.54 177.6 160.69 179.65 170.48 182.92C175.49 184.53 174.36 184.12 175.65 184.48C175.65 184.48 179.28 176.97 181.89 172.4C181.15 172.61 181.31 172.32 179.86 171.92C169.86 169.2 159.73 166.75 149.69 163.97C143.9 162.44 138.27 160.55 133.18 157.24C127.99 153.96 126.46 148.97 129.02 143.48C131.23 138.69 134.26 134.39 137.91 130.61C143.16 125.26 148.14 119.79 150.25 112.3C151.68 107.04 154.6 102.61 158.51 98.8001C164.59 92.8301 172.49 91.3601 180.26 94.8201C182.54 95.8701 184.75 97.2001 186.44 98.7401C189.35 100.98 191.58 103.48 193.67 106.09C198.83 112.55 202 120.12 205.88 127.33C206.73 128.99 206.46 128.28 207.23 130.51C209.37 126.51 211.85 121.98 211.79 121.79C211.35 120.37 211.033 119.463 210.84 119.07C208.03 113.42 205.52 107.61 202.37 102.12C202.37 102.12 202.1 101.64 201.57 100.83C201.44 100.59 201.25 100.34 201.07 100.08C200.89 99.8301 200.71 99.5701 200.54 99.2701C197.55 94.9901 191.1 86.6501 182.56 81.2601C182.47 81.2301 182.43 81.1701 182.34 81.1501C174.85 77.2201 166.84 77.8401 159.17 82.8101C148.78 89.5401 141.57 98.7801 138.67 110.86C136.65 119.29 132.36 126.07 126.43 132.03C122.35 136.09 118.77 140.54 115.97 145.62C114.41 148.47 112.68 151.57 113.33 154.63V154.62Z" fill="black"/>
<path d="M185.28 188.12C185.78 188.35 185.96 188.45 186.92 188.82C190.05 190.26 193.24 191.51 196.3 193.03C198.87 194.31 201.41 195.69 203.97 197.01C204.54 197.32 205.16 197.65 205.72 197.96C206.87 198.54 208.01 199.16 209.09 199.82C209.23 199.86 209.4 199.96 209.53 200.05C212.66 201.84 215.52 203.56 217.71 204.94L217.8 204.97C218.13 205.06 218.43 205.25 218.72 205.48C219.4 205.93 220.03 206.4 220.71 206.85C221.6 207.46 222.11 207.8 222.11 207.8C223.63 208.88 225.2 209.94 226.86 210.86L237.43 199.02C236.22 198.12 208.1 181.45 193.93 176.49C192.68 176.09 192.3 175.61 191.99 175.52C189.99 178.85 187.84 182.62 185.28 188.11V188.12Z" fill="black"/>
</g>
<defs>
<clipPath id="clip0_3416_12157">
<rect width="247.03" height="220.33" fill="white"/>
</clipPath>
</defs>
</svg>
