<svg width="208" height="202" viewBox="0 0 208 202" fill="none" xmlns="http://www.w3.org/2000/svg">
<g clip-path="url(#clip0_3416_10904)">
<path d="M5.93001 125.55C5.93001 125.55 5.80001 124.86 5.87001 125.25C5.94001 125.64 5.82001 124.95 5.82001 124.95C5.75001 124.53 5.67001 124.11 5.60001 123.69C5.45001 122.78 5.30001 121.88 5.17001 120.97C4.92001 119.22 4.70001 117.47 4.52001 115.72C4.43001 114.81 4.34001 113.9 4.27001 112.99C4.24001 112.57 4.21001 112.15 4.18001 111.73C4.17001 111.52 4.15001 111.31 4.14001 111.1C4.17001 111.57 4.16001 111.41 4.14001 111.03C4.05001 109.28 3.99001 107.53 3.97001 105.77C3.95001 104.01 3.97001 102.27 4.03001 100.52C4.06001 99.6799 4.10001 98.8399 4.14001 98.0099C4.10001 98.7799 4.15001 97.7999 4.17001 97.5299C4.20001 97.0399 4.24001 96.5599 4.28001 96.0699C4.57001 92.5299 5.01001 88.9899 5.61001 85.4899C5.68001 85.0799 5.75001 84.6699 5.83001 84.2599C5.72001 84.8699 5.91001 83.8699 5.94001 83.6899C6.12001 82.7999 6.30001 81.9199 6.50001 81.0299C6.88001 79.3299 7.29001 77.6399 7.74001 75.9599C8.67001 72.4899 9.62001 69.4799 10.8 66.3299C13.22 59.8299 16.22 53.5199 19.82 47.5899C23.33 41.8199 27.3 36.2899 32.21 31.6199C36.75 27.2899 41.95 23.6699 47.47 20.6999C59.28 14.3599 72.47 10.9299 85.76 9.63995C99.05 8.34995 112.07 9.04995 125.04 11.0199C135.22 12.5599 145.43 14.8899 155.13 18.0699C159.58 19.5299 164.36 20.9799 168.27 23.6399C169.89 24.7499 171.46 25.9299 172.99 27.1699C174.05 28.0199 175.08 28.8999 176.1 29.7999C176.67 30.2999 177.23 30.8099 177.79 31.3299C178.07 31.5899 178.35 31.8499 178.63 32.1199C178.99 32.4599 178.63 32.1099 178.72 32.2099C178.89 32.3699 179.05 32.5299 179.22 32.6999C184.97 38.3399 190.02 44.7099 194.09 51.6699C194.19 51.8399 194.5 52.3799 194.23 51.9099C194.37 52.1499 194.5 52.3899 194.63 52.6299C194.92 53.1599 195.21 53.6799 195.49 54.2199C196.06 55.2999 196.61 56.3999 197.13 57.5099C198.17 59.7199 199.11 61.9799 199.94 64.2799C200.04 64.5599 200.14 64.8499 200.24 65.1299C200.29 65.2699 200.34 65.4199 200.39 65.5599C200.38 65.5199 200.2 64.9599 200.32 65.3699C200.51 65.9999 200.73 66.6299 200.92 67.2699C201.31 68.5599 201.67 69.8699 201.99 71.1799C202.31 72.4899 202.57 73.7799 202.85 75.0799C202.95 75.5499 202.81 74.8299 202.8 74.7999C202.83 74.9599 202.86 75.1199 202.89 75.2799C202.95 75.5999 203 75.9299 203.05 76.2499C203.17 76.9599 203.27 77.6699 203.37 78.3799C203.56 79.7799 203.71 81.1799 203.82 82.5799C203.85 82.9199 203.87 83.2699 203.9 83.6099C203.94 84.1399 203.89 83.2999 203.88 83.2799C203.92 83.4399 203.9 83.6399 203.91 83.7999C203.95 84.6199 203.98 85.4399 204 86.2599C204.03 87.7599 204.02 89.2599 203.97 90.7699C203.96 91.1399 203.94 91.5099 203.92 91.8699C203.9 92.2299 203.85 92.97 203.91 92.16C203.85 92.97 203.79 93.7899 203.72 94.5999C203.57 96.2099 203.38 97.8099 203.14 99.3999C203.02 100.19 202.9 100.97 202.76 101.76C202.69 102.17 202.61 102.58 202.54 102.99C202.65 102.41 202.42 103.6 202.39 103.79C201.72 107.24 200.96 110.68 200.09 114.09C199.27 117.3 198.36 120.49 197.35 123.65C196.78 125.43 196.56 126.1 195.93 127.85C195.4 129.33 194.84 130.81 194.27 132.27C192.04 137.9 189.47 143.41 186.49 148.68C186.63 148.43 186.26 149.08 186.21 149.17C186.04 149.47 185.86 149.76 185.69 150.06C185.31 150.7 184.93 151.33 184.54 151.96C183.8 153.15 183.05 154.33 182.27 155.49C180.72 157.8 179.09 160.04 177.36 162.22C174.2 166.2 170.72 169.97 167.02 173.27C159.84 179.66 151.51 184.79 142.4 187.89C135.29 190.31 127.68 191.18 120.22 191.8C111.99 192.48 103.71 192.63 95.46 192.29C86.32 191.91 77.2 190.93 68.23 189.15C59.26 187.37 50.7 184.84 42.49 181.04C38.57 179.22 34.78 177.12 31.21 174.69C29.43 173.48 27.71 172.18 26.07 170.79C24.32 169.31 23.29 168.35 21.8 166.78C20.31 165.21 18.97 163.61 17.7 161.9C17.08 161.06 16.48 160.2 15.91 159.32C15.64 158.9 15.37 158.47 15.11 158.04C14.98 157.82 14.85 157.6 14.72 157.39C14.45 156.94 14.9 157.73 14.55 157.1C13.49 155.17 12.55 153.19 11.74 151.14C11.55 150.65 11.36 150.15 11.18 149.66C11.05 149.29 10.95 148.97 11.14 149.56C11.04 149.26 10.94 148.97 10.85 148.67C10.51 147.59 10.2 146.5 9.93001 145.4C8.32001 138.88 7.21001 132.2 5.93001 125.61C5.69001 124.36 4.43001 122.48 3.22001 124C1.93001 125.61 2.15001 128.29 2.51001 130.16C3.83001 136.97 4.94001 143.9 6.68001 150.62C7.88001 155.25 9.63001 159.75 11.99 163.92C16.43 171.77 22.71 178.31 30.14 183.39C37.66 188.53 46.12 192.15 54.81 194.81C63.5 197.47 73.27 199.36 82.72 200.38C91.64 201.34 100.63 201.66 109.59 201.41C117.05 201.2 124.51 200.62 131.88 199.45C141.19 197.97 150.07 194.62 158.04 189.57C166.98 183.9 174.69 176.31 181.02 167.86C188.33 158.11 193.98 147.1 198.2 135.68C200.64 129.09 202.67 122.34 204.28 115.5C205.89 108.66 207.28 101.52 207.74 94.41C208.53 81.91 206.95 69.4699 202.64 57.6899C199.37 48.7599 194.49 40.3999 188.52 33.0099C184.17 27.6299 179.22 22.6999 173.82 18.3699C170.94 16.0699 168.07 14.0199 164.67 12.5799C156.92 9.29994 148.69 6.98995 140.5 5.06995C128.29 2.13995 115.77 0.369945 103.22 0.049945C89.23 -0.310055 75.17 1.22995 61.82 5.54995C48.47 9.86995 37.37 16.2099 28.14 25.9399C23.2 31.1499 19.25 37.1999 15.72 43.4299C12.19 49.6599 9.22001 56.2899 6.89001 63.1099C1.99001 77.4099 -0.339989 92.55 0.0400115 107.66C0.230011 115.21 1.08001 122.68 2.51001 130.09C2.75001 131.34 4.01001 133.22 5.22001 131.7C6.51001 130.08 6.29001 127.41 5.93001 125.54V125.55Z" fill="black"/>
<path d="M182.9 111.54C182.95 111.51 183.01 111.49 183.06 111.48L182.48 111.61C182.57 111.59 182.65 111.59 182.74 111.61L182.15 111.5C182.21 111.51 182.26 111.53 182.31 111.56L181.77 111.23C181.77 111.23 181.83 111.27 181.86 111.3L181.39 110.78C181.39 110.78 181.43 110.83 181.44 110.86L181.07 110.17C181.07 110.17 181.1 110.22 181.1 110.25L180.85 109.43C180.85 109.43 180.86 109.48 180.87 109.5L180.77 108.58C180.77 108.58 180.77 108.62 180.77 108.64L180.83 107.71C180.83 107.71 180.83 107.75 180.82 107.78L181.03 106.94C181.03 106.94 181.02 106.98 181.01 107L181.35 106.28C181.35 106.28 181.32 106.34 181.3 106.36L181.75 105.8C181.7 105.86 181.63 105.92 181.57 105.96L182.11 105.59C182.03 105.64 181.94 105.68 181.85 105.7L182.46 105.56C182.38 105.58 182.31 105.58 182.23 105.56L182.85 105.67C182.85 105.67 182.76 105.64 182.72 105.62L183.28 105.96C183.28 105.96 183.22 105.92 183.2 105.89L183.68 106.43C183.68 106.43 183.64 106.38 183.63 106.35L184.01 107.06C184.01 107.06 184.01 107.05 184.01 107.04C183.88 106.66 183.67 106.34 183.39 106.06C183.19 105.78 182.92 105.57 182.59 105.45C182.28 105.31 181.97 105.3 181.66 105.41C181.33 105.45 181.04 105.59 180.81 105.85L180.35 106.41C180.06 106.9 179.87 107.42 179.79 107.98L179.73 108.92C179.74 109.53 179.86 110.12 180.09 110.69C180.09 110.69 180.09 110.7 180.09 110.71C180.14 110.8 180.42 111.34 180.47 111.42C180.47 111.42 180.48 111.44 180.49 111.45C180.49 111.45 180.5 111.47 180.51 111.47C180.51 111.47 180.51 111.47 180.52 111.48C180.68 111.67 180.84 111.85 181 112.03C181.17 112.21 181.52 112.37 181.65 112.44C181.69 112.46 181.72 112.47 181.76 112.48C181.76 112.48 181.76 112.48 181.77 112.48C181.87 112.5 182.3 112.58 182.39 112.59C182.4 112.59 182.41 112.59 182.42 112.59C182.44 112.59 182.46 112.59 182.49 112.59C182.53 112.59 182.57 112.59 182.62 112.58C182.81 112.54 183.06 112.48 183.25 112.43C183.26 112.43 183.27 112.43 183.28 112.43C183.3 112.43 183.32 112.42 183.34 112.41C183.38 112.39 183.42 112.37 183.46 112.35C183.46 112.35 183.48 112.34 183.49 112.33C183.67 112.22 183.88 112.07 184.05 111.95C184.07 111.94 184.08 111.92 184.1 111.91C184.1 111.91 184.12 111.9 184.12 111.89C184.14 111.87 184.56 111.35 184.58 111.32C184.59 111.3 184.61 111.28 184.62 111.26C184.78 111 184.92 110.72 185.01 110.43C185.01 110.43 185.01 110.41 185.01 110.4C185.05 110.26 185.11 109.98 185.12 109.97C185.1 110.06 185.2 109.68 185.23 109.54C185.26 109.37 185.26 109.14 185.27 109.02C185.27 108.91 185.31 108.67 185.3 108.51C185.3 108.51 185.3 108.5 185.3 108.49C185.3 108.43 185.2 107.62 185.2 107.56C185.2 107.55 185.2 107.54 185.2 107.53C185.17 107.39 185.09 107.18 185.07 107.1C185.04 107.02 184.99 106.8 184.94 106.66C184.94 106.66 184.94 106.64 184.93 106.63C184.93 106.63 184.93 106.63 184.93 106.62L184.56 105.93C184.56 105.93 184.54 105.89 184.52 105.87C184.45 105.78 184.22 105.54 184.28 105.6C184.28 105.6 184.12 105.41 184.04 105.33C184.04 105.33 184.03 105.32 184.02 105.31C184.01 105.3 183.99 105.29 183.97 105.28C183.92 105.24 183.48 104.98 183.42 104.95C183.42 104.95 183.42 104.95 183.41 104.95C183.41 104.95 183.39 104.95 183.38 104.94C183.36 104.94 183.34 104.93 183.33 104.92H183.31C183.17 104.89 182.84 104.83 182.71 104.81C182.71 104.81 182.7 104.81 182.69 104.81C182.65 104.81 182.6 104.81 182.56 104.81C182.45 104.83 182.33 104.86 182.24 104.88C182.15 104.9 182.02 104.93 181.92 104.96C181.9 104.96 181.87 104.97 181.85 104.98C181.8 105 181.76 105.02 181.72 105.05C181.54 105.17 181.36 105.29 181.18 105.41C181.18 105.41 181.16 105.42 181.15 105.43C181.13 105.45 181.11 105.46 181.09 105.48C180.82 105.73 180.63 106.01 180.5 106.35C180.3 106.7 180.18 107.08 180.14 107.49L180.08 108.37C180.08 108.81 180.15 109.23 180.3 109.64C180.35 109.9 180.45 110.14 180.6 110.36C180.74 110.69 180.95 110.97 181.23 111.2L181.76 111.52C182.15 111.67 182.53 111.66 182.92 111.49L182.9 111.54Z" fill="black"/>
<path d="M167.61 153.4C167.61 153.4 167.61 153.35 167.63 153.32L167.49 153.89C167.51 153.82 167.53 153.75 167.57 153.68L167.34 154.17C167.38 154.1 167.42 154.03 167.47 153.96L167.16 154.34C167.24 154.24 167.33 154.16 167.44 154.09L167.07 154.34C167.22 154.24 167.38 154.17 167.56 154.13L167.13 154.23C167.31 154.19 167.5 154.18 167.69 154.21L167.25 154.13C167.39 154.16 167.53 154.21 167.65 154.28L167.25 154.04C167.34 154.1 167.42 154.16 167.49 154.24L167.14 153.85C167.14 153.85 167.16 153.88 167.17 153.89L167.8 149.65L167.56 149.71L166.92 150.14L166.38 150.8C166.38 150.8 166.37 150.82 166.36 150.83C166.34 150.86 166.32 150.89 166.3 150.92L166.84 150.26C166.77 150.35 166.68 150.43 166.59 150.49L167.23 150.06C167.12 150.13 167 150.19 166.87 150.22L167.59 150.05C167.44 150.08 167.3 150.08 167.15 150.05L167.88 150.18C167.7 150.15 167.54 150.08 167.39 149.99L168.05 150.39C167.92 150.31 167.81 150.21 167.71 150.1L168.28 150.73C168.21 150.65 168.15 150.57 168.1 150.48L168.54 151.31C168.5 151.24 168.47 151.16 168.44 151.08L168.74 152.06C168.72 152 168.71 151.94 168.7 151.87L168.82 152.96C168.82 152.89 168.82 152.83 168.82 152.76L168.75 153.86C168.75 153.86 168.75 153.82 168.75 153.8C168.85 153.25 168.85 152.7 168.75 152.15C168.72 151.62 168.6 151.11 168.39 150.62C168.24 150.18 167.99 149.8 167.66 149.48C167.42 149.15 167.11 148.91 166.72 148.76L166 148.63C165.48 148.66 165.02 148.86 164.65 149.23L164.12 149.89C163.78 150.46 163.56 151.07 163.47 151.73C163.47 151.76 163.47 151.79 163.47 151.81C163.44 152.18 163.4 152.59 163.4 152.97C163.4 153 163.4 153.03 163.4 153.07C163.42 153.34 163.49 153.91 163.52 154.18C163.52 154.2 163.52 154.22 163.52 154.23C163.52 154.28 163.54 154.34 163.56 154.39C163.66 154.73 163.75 155.09 163.88 155.42C163.89 155.45 163.9 155.48 163.92 155.51C163.94 155.54 163.95 155.57 163.96 155.6C164.11 155.89 164.26 156.19 164.43 156.47C164.46 156.52 164.5 156.57 164.53 156.62C164.73 156.88 164.96 157.12 165.19 157.36C165.24 157.41 165.29 157.45 165.34 157.49C165.38 157.53 165.43 157.56 165.48 157.59C165.74 157.76 166 157.93 166.28 158.07C166.39 158.12 166.5 158.16 166.62 158.19C166.9 158.25 167.19 158.32 167.48 158.34C167.54 158.34 167.61 158.34 167.67 158.34C167.7 158.34 167.73 158.34 167.75 158.33C168.01 158.28 168.27 158.22 168.52 158.15C168.58 158.13 168.64 158.12 168.69 158.09C168.74 158.06 168.8 158.04 168.85 158C169.08 157.86 169.33 157.69 169.54 157.53C169.56 157.51 169.59 157.5 169.61 157.48C169.66 157.44 169.7 157.4 169.74 157.35C169.94 157.12 170.13 156.88 170.31 156.64C170.33 156.61 170.35 156.59 170.37 156.56C170.71 155.99 170.93 155.37 171.03 154.71C171.14 153.97 171.12 153.23 170.98 152.5C170.85 151.84 170.6 151.24 170.23 150.68C169.92 150.21 169.51 149.86 169 149.64L168.65 149.57L169.05 149.81C169.05 149.81 168.95 149.72 168.9 149.69C168.73 149.58 168.55 149.46 168.37 149.37C168.14 149.27 167.86 149.23 167.62 149.2C167.49 149.18 167.37 149.19 167.24 149.2C166.99 149.24 166.72 149.29 166.48 149.4C166.24 149.51 166.01 149.67 165.8 149.83C165.7 149.9 165.61 149.99 165.53 150.09C165.4 150.25 165.24 150.43 165.12 150.61C165 150.81 164.9 151.03 164.81 151.24C164.68 151.53 164.61 151.85 164.57 152.16C164.51 152.48 164.51 152.79 164.57 153.11C164.59 153.41 164.65 153.71 164.78 153.99C164.87 154.24 165.01 154.46 165.2 154.65C165.34 154.84 165.52 154.98 165.74 155.06L166.16 155.13C166.46 155.11 166.72 155 166.94 154.79L167.25 154.41C167.45 154.08 167.57 153.73 167.63 153.35L167.61 153.4Z" fill="black"/>
<path d="M127.4 176.05L127.3 175.65L127.02 174.72C126.87 174.3 126.64 173.94 126.33 173.64C126.19 173.42 125.99 173.26 125.75 173.15C125.46 172.92 125.13 172.82 124.75 172.84L124.07 173L123.47 173.41C123.16 173.7 122.92 174.04 122.78 174.43C122.55 174.84 122.41 175.29 122.35 175.77L122.25 176.17C122.14 176.89 122.16 177.61 122.3 178.33C122.43 178.97 122.67 179.56 123.03 180.11L123.59 180.73C123.98 181.07 124.43 181.25 124.95 181.25C125.34 181.25 125.68 181.12 125.97 180.88C126.33 180.68 126.61 180.39 126.81 180.02C127.14 179.46 127.36 178.86 127.45 178.21C127.56 177.49 127.54 176.77 127.4 176.05Z" fill="black"/>
<path d="M74.6 177.73C74.59 177.58 74.57 177.43 74.56 177.28C74.56 176.69 74.47 176.12 74.27 175.58C74.15 175.07 73.94 174.6 73.63 174.17L73.02 173.49C72.71 173.18 72.34 173.02 71.92 172.99C71.66 172.89 71.4 172.9 71.15 173.01C70.73 173.06 70.38 173.24 70.08 173.56L69.51 174.27C69.14 174.88 68.91 175.54 68.81 176.25C68.8 176.4 68.78 176.54 68.77 176.69C68.65 177.49 68.67 178.29 68.83 179.08L69.15 180.15C69.39 180.77 69.76 181.3 70.25 181.74C70.57 182.05 70.94 182.22 71.36 182.25C71.76 182.37 72.15 182.34 72.54 182.14C72.95 181.96 73.28 181.68 73.52 181.31C73.86 180.94 74.1 180.52 74.25 180.03C74.5 179.29 74.62 178.53 74.6 177.75V177.73Z" fill="black"/>
<path d="M31.15 149.16C33.8 149.16 33.69 143.16 31 143.16C28.31 143.16 28.46 149.16 31.15 149.16Z" fill="black"/>
<path d="M23.1901 116.53C26.3901 116.53 26.2501 109.28 23.0101 109.28C19.7701 109.28 19.9501 116.53 23.1901 116.53Z" fill="black"/>
<path d="M38.4699 46.9198C41.2799 46.9198 41.1599 40.5498 38.3099 40.5498C35.4599 40.5498 35.6199 46.9198 38.4699 46.9198Z" fill="black"/>
<path d="M59.6199 72.4598L59.4999 72.1298C59.3199 71.6798 59.0599 71.2898 58.6999 70.9698C58.3899 70.6898 58.0199 70.5498 57.5999 70.5498C57.1799 70.5698 56.8199 70.7298 56.5199 71.0198C56.1799 71.3598 55.9299 71.7598 55.7799 72.2198L55.6499 72.5598C55.4499 73.1298 55.3599 73.7298 55.3799 74.3298C55.3899 74.9398 55.5099 75.5198 55.7399 76.0898C55.9299 76.5698 56.2099 76.9798 56.5899 77.3298C56.9299 77.6298 57.3199 77.7798 57.7599 77.7798C58.2099 77.7498 58.5899 77.5898 58.9099 77.2698C59.2699 76.9098 59.5399 76.4798 59.6999 75.9898C59.8999 75.4198 59.9899 74.8198 59.9699 74.2198C59.9599 73.6098 59.8399 73.0298 59.6099 72.4598H59.6199Z" fill="black"/>
<path d="M85.2599 59.7499C88.4899 59.7499 88.3499 52.4399 85.0799 52.4399C81.8099 52.4399 81.9899 59.7499 85.2599 59.7499Z" fill="black"/>
<path d="M102.11 74.9799C105.47 74.9799 105.33 67.3599 101.92 67.3599C98.51 67.3599 98.7001 74.9799 102.11 74.9799Z" fill="black"/>
<path d="M130.49 59.91C133.85 59.91 133.71 52.29 130.3 52.29C126.89 52.29 127.08 59.91 130.49 59.91Z" fill="black"/>
<path d="M147.35 75.39C151.07 75.39 150.91 66.96 147.14 66.96C143.37 66.96 143.58 75.39 147.35 75.39Z" fill="black"/>
<path d="M63.07 126.45L63.46 126.21L64 125.85C64.28 125.59 64.48 125.29 64.62 124.94C64.76 124.7 64.85 124.44 64.89 124.17C65.03 123.74 65.08 123.29 65.05 122.83L64.95 121.91L64.7 121.09C64.57 120.72 64.37 120.4 64.09 120.13C63.89 119.85 63.63 119.65 63.3 119.53L62.89 119.29C62.45 119.12 62.02 119.13 61.59 119.32C61.14 119.54 60.79 119.87 60.54 120.3L60.18 121.06C59.97 121.67 59.87 122.3 59.89 122.94C59.89 123.43 59.97 123.91 60.14 124.37C60.24 124.8 60.42 125.19 60.67 125.55C60.95 125.97 61.31 126.28 61.77 126.48C62.21 126.65 62.64 126.64 63.07 126.45Z" fill="black"/>
<path d="M107 119.56C110.53 119.56 110.38 111.56 106.8 111.56C103.22 111.56 103.42 119.56 107 119.56Z" fill="black"/>
<path d="M86.3899 132.51C90.1999 132.51 90.0299 123.89 86.1799 123.89C82.3299 123.89 82.5399 132.51 86.3899 132.51Z" fill="black"/>
<path d="M121.63 134.23C125.19 134.23 125.04 126.17 121.43 126.17C117.82 126.17 118.02 134.23 121.63 134.23Z" fill="black"/>
<path d="M146.89 128.47C150.06 128.47 149.93 121.28 146.71 121.28C143.49 121.28 143.67 128.47 146.89 128.47Z" fill="black"/>
<path d="M57.8599 104C56.5299 102.86 55.2199 101.7 53.8999 100.55C51.9899 98.8901 50.0799 97.2201 48.1799 95.5601C47.7499 95.1901 47.3199 94.8101 46.8899 94.4401L46.6299 98.8601C48.2399 98.5701 49.8499 98.2701 51.4699 98.0301C51.9799 97.9601 52.3799 97.6401 52.7499 97.3001C53.6699 96.4601 54.3699 95.4501 54.8899 94.3101C55.2499 93.5201 55.5199 92.6801 55.7099 91.8401C55.9499 90.7401 56.1299 89.5701 56.0999 88.4401C56.0599 86.8601 55.6699 85.3201 54.4599 84.2401C53.7499 83.6001 52.7999 83.2901 51.8999 83.0801C50.9399 82.8601 49.9499 82.7801 48.9599 82.7801C47.6099 82.7701 46.2199 82.8501 44.8899 83.1001C44.8699 83.1001 44.8399 83.1001 44.8199 83.1101C44.3599 83.1901 44.1799 83.6001 44.0399 84.0001C43.8199 84.6501 43.8199 85.2901 43.8599 85.9601C43.8999 86.6301 43.9499 87.3201 43.9899 88.0001C44.0999 89.6501 44.1999 91.3001 44.3099 92.9501C44.4399 94.9901 44.5699 97.0401 44.6899 99.0801C44.7499 100.06 44.8099 101.04 44.8699 102.02C44.8699 102.13 44.8799 102.25 44.8899 102.36C44.8899 102.42 44.8899 102.48 44.8999 102.54C44.9199 102.88 44.8599 101.91 44.8799 102.17C44.8899 102.39 44.9099 102.62 44.9199 102.84C44.9399 103.26 44.9699 103.67 44.9899 104.09C45.0499 105.18 45.1299 106.28 45.1499 107.37C45.1499 107.42 45.1499 107.48 45.1499 107.53C45.1499 108.04 45.2199 108.65 45.4399 109.12C45.5399 109.34 45.8099 109.81 46.1399 109.78C46.4899 109.74 46.7099 109.42 46.8399 109.12C47.0499 108.62 47.1299 108.07 47.1299 107.53C47.1299 106.57 47.0499 105.6 46.9999 104.64C46.8899 102.66 46.7699 100.68 46.6499 98.7101C46.5299 96.7401 46.3899 94.5801 46.2599 92.5201C46.1499 90.7901 46.0399 89.0501 45.9299 87.3201C45.8799 86.4801 45.8299 85.6401 45.7699 84.8101C45.7699 84.8001 45.7699 84.7901 45.7699 84.7701L44.8199 87.6201C46.5999 87.3001 48.4699 87.2001 50.2699 87.3501C50.9999 87.4101 51.7299 87.5301 52.4299 87.7401L52.1699 87.6601C52.8399 87.8701 53.4899 88.1701 54.0099 88.6601L53.7699 88.4301C53.9099 88.5701 54.0499 88.7301 54.1599 88.8901C54.1899 88.9301 54.2099 88.9701 54.2299 89.0101C53.9199 88.5401 54.0599 88.7001 54.1199 88.8301C54.2099 89.0201 54.2999 89.4301 54.0999 88.7101C54.1299 88.8001 54.1499 88.9001 54.1799 88.9901C54.2299 89.1901 54.0799 88.3301 54.1199 88.6701C54.1199 88.7301 54.1299 88.7901 54.1399 88.8501C54.1699 89.0701 54.1199 88.1101 54.1199 88.4801C54.1199 88.5401 54.1199 88.5901 54.1199 88.6501C54.1199 88.6901 54.1199 88.7301 54.1199 88.7701C54.1199 89.0101 54.1499 88.3401 54.1399 88.4101C54.1199 88.5501 54.1199 88.6801 54.1099 88.8201C54.0899 89.0401 54.0599 89.2601 54.0299 89.4701C54.0099 89.5701 53.9499 89.9401 54.0299 89.5301C54.1099 89.1201 54.0299 89.5601 53.9999 89.6601C53.9599 89.8501 53.9099 90.0401 53.8599 90.2201C53.8399 90.3001 53.8099 90.3901 53.7899 90.4701C53.7799 90.5201 53.7599 90.5601 53.7499 90.6101C53.6699 90.8701 53.8999 90.1901 53.8199 90.3901C53.6999 90.7101 53.5699 91.0301 53.4199 91.3401C53.3599 91.4701 53.2899 91.5901 53.2199 91.7201C53.1299 91.9001 53.4499 91.3301 53.2699 91.6201C53.2299 91.6801 53.1899 91.7501 53.1499 91.8101C52.8499 92.2701 52.5099 92.7101 52.1099 93.0901L52.3499 92.8601C52.0699 93.1301 51.7099 93.4801 51.3199 93.6001L51.5799 93.5201C51.4399 93.5601 51.2799 93.5601 51.1399 93.5801C50.7599 93.6401 50.3699 93.7101 49.9899 93.7701C49.0799 93.9201 48.1799 94.0801 47.2699 94.2401C47.0599 94.2801 46.8499 94.3101 46.6399 94.3501C45.8499 94.4901 45.6999 95.6701 45.6699 96.3001C45.6199 97.1401 45.6999 98.1801 46.3799 98.7701C47.5599 99.8001 48.7499 100.83 49.9299 101.86C51.8799 103.56 53.8199 105.25 55.7699 106.95C56.2999 107.41 56.8199 107.87 57.3499 108.33C57.6099 108.55 57.9599 108.29 58.1099 108.1C58.3799 107.76 58.5199 107.17 58.5599 106.76C58.6499 105.85 58.6199 104.64 57.8699 103.99L57.8599 104Z" fill="black"/>
<path d="M62.6101 87.63C62.6501 92.78 62.9501 97.94 63.1201 103.09C63.1401 103.81 63.1701 104.53 63.1901 105.25C63.2201 106.06 63.3401 108.4 64.5801 108.4C65.8201 108.4 65.9901 105.98 65.9701 105.25C65.8001 100.16 65.6301 95.07 65.4601 89.98C65.4301 89.2 65.3901 88.41 65.3901 87.63C65.3901 86.85 65.2201 84.48 64.0001 84.48C62.7801 84.48 62.6101 86.9 62.6101 87.63Z" fill="black"/>
<path d="M78.13 84.1502C74.16 84.6602 70.79 87.3302 69.75 91.2402C69.17 93.4102 69.34 95.6102 69.51 97.8302C69.64 99.4902 69.81 101.16 70.2 102.78C70.76 105.08 71.91 106.98 74.15 107.91C76.39 108.84 79.82 109.66 81.27 106.99C81.94 105.77 81.83 103.77 81.27 102.54C80.71 101.31 79.89 101.48 79.31 102.54C79.81 101.62 79.65 102 79.52 102.15C79.32 102.4 79.68 102.06 79.64 102.05C79.56 102.04 78.88 102.47 78.9 102.46C77.93 102.73 76.41 102.4 75.34 102C74.57 101.72 73.86 101.37 73.22 100.85C73.57 101.14 73.22 100.84 73.12 100.73C73.01 100.6 72.92 100.39 72.79 100.27C72.62 100.11 72.89 100.65 72.88 100.42C72.88 100.34 72.79 100.25 72.77 100.17C72.75 100.11 72.62 99.9002 72.64 99.8402C72.61 99.9302 72.82 100.47 72.69 99.9702C72.64 99.7602 72.58 99.5402 72.53 99.3302C72.37 98.6802 72.61 99.9202 72.49 99.0702C72.39 98.4002 72.32 97.7302 72.26 97.0602C72.19 96.3202 72.15 95.5802 72.08 94.8402C72.14 95.5802 72.01 94.5602 72.08 94.4502C71.97 94.6002 72.02 95.0702 72.08 94.6402C72.17 93.9902 71.92 95.1602 72.08 94.6002C72.11 94.4802 72.16 94.3502 72.18 94.2302C72.09 94.7302 72.07 94.5002 72.15 94.3402C72.21 94.2202 72.51 93.5802 72.4 93.7802C72.27 94.0002 72.63 93.4502 72.68 93.3802C72.85 93.1602 73.03 92.9502 73.21 92.7502C73.39 92.5502 73.02 92.9202 73.23 92.7302C73.31 92.6602 73.39 92.5902 73.47 92.5202C73.65 92.3702 73.84 92.2202 74.03 92.0902C74.4 91.8302 74.79 91.6002 75.19 91.4002C75.59 91.2002 75.97 91.0402 76.37 90.8902C76.54 90.8302 76.71 90.7702 76.88 90.7202C76.52 90.8402 77.01 90.6902 77.12 90.6602C77.45 90.5702 77.79 90.5002 78.13 90.4502C79.34 90.2902 79.53 88.2302 79.52 87.3002C79.51 86.6502 79.32 84.0002 78.13 84.1502Z" fill="black"/>
<path d="M88.2001 106.17C88.0701 99.4699 88.0201 92.7599 87.9301 86.0499C87.9201 85.2199 87.7701 82.9799 86.5601 82.9299C85.3501 82.8799 85.1801 85.3599 85.1901 86.0499C85.2801 92.7599 85.3301 99.4599 85.4601 106.17C85.4801 107.01 85.6101 109.24 86.8301 109.29C88.0501 109.34 88.2101 106.86 88.2001 106.17Z" fill="black"/>
<path d="M92.85 93.8298C92.65 93.8298 92.44 93.8398 92.24 93.8498L90.77 93.8998C90.18 93.9198 89.58 93.9398 88.99 93.9598L87.46 94.0098C87.21 94.0098 86.96 94.0198 86.71 94.0298C86.71 94.0298 86.71 94.0298 86.7 94.0298C86.55 94.0298 86.43 94.0998 86.35 94.2098C86.21 94.3198 86.11 94.4698 86.06 94.6398C85.96 94.8498 85.9 95.0798 85.87 95.3098C85.81 95.5698 85.78 95.8398 85.79 96.1098L85.82 96.6598C85.85 96.9798 85.93 97.2798 86.06 97.5798C86.18 97.8298 86.37 98.1998 86.71 98.1898C86.91 98.1898 87.12 98.1798 87.32 98.1698L88.79 98.1198L90.57 98.0598L92.1 98.0098C92.35 98.0098 92.6 97.9998 92.85 97.9898C92.85 97.9898 92.85 97.9898 92.86 97.9898C93.01 97.9898 93.13 97.9198 93.21 97.8098C93.35 97.6998 93.45 97.5498 93.5 97.3798C93.6 97.1698 93.66 96.9398 93.69 96.7098C93.75 96.4498 93.78 96.1798 93.77 95.9098L93.74 95.3598C93.71 95.0398 93.63 94.7398 93.5 94.4398C93.38 94.1898 93.19 93.8198 92.85 93.8298Z" fill="black"/>
<path d="M92.7301 85.48C92.5901 86.38 92.6501 87.37 92.6501 88.28C92.6401 89.84 92.6301 91.4 92.6301 92.95C92.6201 96.46 92.6201 99.97 92.6101 103.48C92.6101 104.3 92.6101 105.11 92.6101 105.93C92.6101 106.75 92.7701 109 93.9801 109.05C95.1901 109.1 95.3501 106.62 95.3501 105.93C95.3501 100.29 95.3501 94.65 95.3801 89.01C95.3801 88.39 95.3801 87.78 95.4001 87.16C95.4001 86.66 95.6001 85.68 95.3701 87.13C95.5301 86.1 95.5001 83.88 94.4101 83.3C93.2601 82.68 92.8201 84.83 92.7201 85.48H92.7301Z" fill="black"/>
<path d="M116.2 87.3901C117.04 87.3901 117.88 87.4101 118.73 87.4201C120.17 87.4401 121.61 87.4501 123.06 87.4701L124.83 87.4901C126.05 87.5001 127.28 87.5201 128.5 87.5301C129.59 87.5401 130.69 87.5901 131.79 87.5601C131.81 87.5601 131.83 87.5601 131.85 87.5601C132.19 87.5601 132.43 87.1501 132.55 86.9001C132.76 86.4301 132.85 85.8101 132.84 85.3101C132.83 84.8101 132.79 84.2001 132.55 83.7201C132.41 83.4401 132.21 83.0601 131.85 83.0601C130.92 83.0601 129.99 83.0401 129.07 83.0301L125.1 82.9901L123.5 82.9701C122.09 82.9601 120.69 82.9401 119.28 82.9301C118.28 82.9201 117.27 82.8701 116.27 82.9001C116.25 82.9001 116.24 82.9001 116.22 82.9001C115.88 82.9001 115.64 83.3101 115.52 83.5601C115.31 84.0301 115.22 84.6501 115.23 85.1501C115.24 85.6501 115.28 86.2601 115.52 86.7401C115.66 87.0201 115.86 87.4001 116.22 87.4001L116.2 87.3901Z" fill="black"/>
<path d="M125.42 103.01C125.52 98.2398 125.61 93.4698 125.71 88.6998C125.72 88.0098 125.74 87.3298 125.75 86.6398C125.77 85.7698 125.55 83.2598 124.26 83.2598C122.97 83.2598 122.79 85.8498 122.77 86.6398C122.67 91.4098 122.58 96.1798 122.48 100.95C122.47 101.64 122.45 102.32 122.44 103.01C122.42 103.88 122.64 106.39 123.93 106.39C125.22 106.39 125.4 103.8 125.42 103.01Z" fill="black"/>
<path d="M143.98 93.25C143.77 93.26 143.55 93.28 143.34 93.29L141.8 93.39C141.18 93.43 140.55 93.47 139.93 93.51C139.39 93.54 138.85 93.58 138.32 93.61C138.06 93.63 137.8 93.64 137.53 93.66C137.53 93.66 137.53 93.66 137.52 93.66C137.37 93.66 137.26 93.72 137.18 93.83C137.05 93.94 136.95 94.08 136.89 94.25C136.8 94.46 136.74 94.68 136.71 94.9C136.65 95.16 136.63 95.42 136.63 95.68L136.66 96.22C136.69 96.53 136.77 96.83 136.89 97.11L137.07 97.43C137.18 97.59 137.33 97.69 137.52 97.71C137.73 97.7 137.95 97.68 138.16 97.67C138.67 97.64 139.19 97.6 139.7 97.57C140.32 97.53 140.95 97.49 141.57 97.45C142.11 97.42 142.65 97.38 143.18 97.35C143.44 97.33 143.7 97.32 143.97 97.3C143.97 97.3 143.97 97.3 143.98 97.3C144.13 97.3 144.24 97.24 144.32 97.13C144.45 97.02 144.55 96.88 144.61 96.71C144.7 96.5 144.76 96.28 144.79 96.06C144.85 95.8 144.87 95.54 144.87 95.28L144.84 94.74C144.81 94.43 144.73 94.13 144.61 93.85L144.43 93.53C144.32 93.37 144.17 93.27 143.98 93.25Z" fill="black"/>
<path d="M154.22 100.36C154.4 100.36 154.59 100.36 154.77 100.36L156.08 100.34C156.61 100.34 157.14 100.32 157.67 100.31L159.04 100.29C159.26 100.29 159.49 100.29 159.71 100.28C159.87 100.28 160 100.21 160.09 100.09C160.24 99.9698 160.35 99.8098 160.41 99.6198C160.51 99.3898 160.58 99.1498 160.61 98.8998C160.67 98.6198 160.7 98.3298 160.7 98.0298L160.66 97.4298C160.62 97.0898 160.54 96.7598 160.41 96.4398L160.21 96.0898C160.09 95.9098 159.92 95.7998 159.71 95.7798C159.53 95.7798 159.34 95.7798 159.16 95.7798L157.85 95.7998C157.32 95.7998 156.79 95.8198 156.26 95.8298L154.89 95.8498C154.67 95.8498 154.44 95.8498 154.22 95.8598C154.06 95.8598 153.93 95.9298 153.84 96.0498C153.69 96.1698 153.58 96.3298 153.52 96.5198C153.42 96.7498 153.35 96.9898 153.32 97.2398C153.26 97.5198 153.23 97.8098 153.23 98.1098L153.27 98.7098C153.31 99.0498 153.39 99.3798 153.52 99.6998L153.72 100.05C153.84 100.23 154.01 100.34 154.22 100.36Z" fill="black"/>
<path d="M135.79 85.2599C135.46 86.2999 135.54 87.4999 135.51 88.5799C135.48 89.8799 135.47 91.1899 135.46 92.4899C135.44 95.4399 135.43 98.3999 135.42 101.35C135.42 102.04 135.42 102.73 135.42 103.42C135.42 104.29 135.6 106.8 136.91 106.8C138.22 106.8 138.39 104.21 138.4 103.42C138.4 98.7399 138.4 94.0499 138.48 89.3699C138.48 88.8499 138.5 88.3199 138.52 87.7999C138.52 87.5899 138.57 86.8499 138.52 87.7099C138.48 88.4599 138.48 88.1399 138.51 87.9799C138.56 87.5999 138.33 88.8399 138.38 88.6699C138.8 87.3399 138.76 85.1899 137.85 84.0499C136.88 82.8399 136.09 84.4099 135.82 85.2599H135.79Z" fill="black"/>
<path d="M145.14 83.5499C144.87 83.5499 144.6 83.5399 144.34 83.5299L142.42 83.4899L140.09 83.4399L138.08 83.3999C137.75 83.3999 137.42 83.3799 137.1 83.3799C137.1 83.3799 137.1 83.3799 137.09 83.3799C136.93 83.3799 136.8 83.4499 136.71 83.5699C136.56 83.6899 136.45 83.8499 136.39 84.0399C136.29 84.2699 136.22 84.5099 136.19 84.7599C136.13 85.0399 136.1 85.3299 136.1 85.6299L136.14 86.2299C136.18 86.5699 136.26 86.8999 136.39 87.2199C136.53 87.4999 136.73 87.8699 137.09 87.8799C137.36 87.8799 137.63 87.8899 137.89 87.8999L139.81 87.9399L142.14 87.9899L144.15 88.0299C144.48 88.0299 144.81 88.0499 145.13 88.0499C145.13 88.0499 145.13 88.0499 145.14 88.0499C145.3 88.0499 145.43 87.9799 145.52 87.8599C145.67 87.7399 145.78 87.5799 145.84 87.3899C145.94 87.1599 146.01 86.9199 146.04 86.6699C146.1 86.3899 146.13 86.0999 146.13 85.7999L146.09 85.1999C146.05 84.8599 145.97 84.5299 145.84 84.2099C145.7 83.9299 145.5 83.5599 145.14 83.5499Z" fill="black"/>
<path d="M153.07 105.67C154.17 100.43 155.27 95.1901 156.38 89.9401C156.54 89.1701 156.65 88.3701 156.89 87.6201L156.39 88.7501C156.66 88.2801 156.44 88.6801 156.41 88.6701C156.3 88.6001 156.51 88.7101 156.54 88.6601C156.45 88.8301 156.91 87.7401 156.66 88.7101C156.66 88.7001 156.38 88.3601 156.38 88.3501C156.37 88.3501 156.43 88.5001 156.44 88.5201C156.5 88.8801 156.7 89.2601 156.81 89.6001L158.27 93.8301L161.8 104.06C162.08 104.87 162.36 105.68 162.64 106.49C162.77 106.85 163.17 107.41 163.62 107.41C164.1 107.41 164.44 106.85 164.6 106.49C165.23 105.11 165.08 103.42 164.6 102.04C162.71 96.5601 160.82 91.0801 158.93 85.5901C158.67 84.8301 158.47 83.8901 157.98 83.2201C156.95 81.8101 155.36 82.4001 154.71 83.8101C154.52 84.2201 154.43 84.6401 154.34 85.0701L152.44 94.1001C151.85 96.9001 151.26 99.7001 150.67 102.49C150.39 103.81 150.26 105.67 151.17 106.8C152.08 107.93 152.89 106.53 153.07 105.67Z" fill="black"/>
<path d="M145.85 102.59C145.58 102.59 145.31 102.58 145.05 102.57L143.13 102.53L140.8 102.48L138.79 102.44C138.46 102.44 138.13 102.42 137.81 102.42C137.81 102.42 137.81 102.42 137.8 102.42C137.64 102.42 137.51 102.49 137.42 102.61C137.27 102.73 137.16 102.89 137.1 103.08C137 103.31 136.93 103.55 136.9 103.8C136.84 104.08 136.81 104.37 136.81 104.67L136.85 105.27C136.89 105.61 136.97 105.94 137.1 106.26C137.24 106.54 137.44 106.91 137.8 106.92C138.07 106.92 138.34 106.93 138.6 106.94L140.52 106.98L142.85 107.03L144.86 107.07C145.19 107.07 145.52 107.09 145.84 107.09C145.84 107.09 145.84 107.09 145.85 107.09C146.01 107.09 146.14 107.02 146.23 106.9C146.38 106.78 146.49 106.62 146.55 106.43C146.65 106.2 146.72 105.96 146.75 105.71C146.81 105.43 146.84 105.14 146.84 104.84L146.8 104.24C146.76 103.9 146.68 103.57 146.55 103.25C146.41 102.97 146.21 102.6 145.85 102.59Z" fill="black"/>
<path d="M68.73 30.4097C71.35 30.4097 71.24 24.4697 68.58 24.4697C65.92 24.4697 66.07 30.4097 68.73 30.4097Z" fill="black"/>
<path d="M107.72 21.6702L107.66 21.4502L107.38 20.5302L106.96 19.7602L106.43 19.1702C106.16 18.9002 105.84 18.7602 105.47 18.7302C105.24 18.6402 105.02 18.6502 104.79 18.7502C104.54 18.7602 104.33 18.8602 104.15 19.0302C103.92 19.1502 103.73 19.3202 103.6 19.5402C103.31 19.8502 103.1 20.2202 102.97 20.6402L102.92 20.8402C102.7 21.4902 102.59 22.1602 102.61 22.8502C102.62 23.5402 102.76 24.2002 103.01 24.8402C103.22 25.3802 103.55 25.8502 103.98 26.2402C104.26 26.5102 104.59 26.6602 104.96 26.6902C105.31 26.8002 105.65 26.7702 106 26.5902C106.48 26.3502 106.85 26.0002 107.12 25.5402C107.45 24.9902 107.66 24.4002 107.75 23.7702C107.86 23.0602 107.84 22.3602 107.7 21.6602L107.72 21.6702Z" fill="black"/>
<path d="M161.86 38.8398C165.17 38.8398 165.03 31.3398 161.68 31.3398C158.33 31.3398 158.51 38.8398 161.86 38.8398Z" fill="black"/>
<path d="M185.13 68.6399C185.48 68.6399 185.78 68.5299 186.04 68.3099C186.36 68.1299 186.61 67.8799 186.79 67.5399C187.02 67.1799 187.18 66.7799 187.25 66.3599C187.39 65.9099 187.45 65.4399 187.42 64.9599L187.31 63.9999C187.2 63.4299 186.98 62.8999 186.66 62.4199L186.16 61.8699C185.81 61.5599 185.41 61.4099 184.95 61.3999C184.6 61.3999 184.3 61.5099 184.04 61.7299C183.72 61.9099 183.47 62.1599 183.29 62.4999C183.06 62.8599 182.9 63.2599 182.83 63.6799C182.69 64.1299 182.63 64.5999 182.66 65.0799L182.77 66.0399C182.88 66.6099 183.1 67.1399 183.42 67.6199L183.92 68.1699C184.27 68.4799 184.67 68.6299 185.13 68.6399Z" fill="black"/>
<path d="M24.7901 75.1201C25.7801 75.1201 25.7401 72.8701 24.7301 72.8701C23.7201 72.8701 23.7801 75.1201 24.7901 75.1201Z" fill="black"/>
<path d="M24.5199 77.7498C24.8799 77.7498 25.1999 77.6298 25.4599 77.3998C25.7899 77.2198 26.0499 76.9498 26.2299 76.6098C26.4699 76.2298 26.6299 75.8298 26.7099 75.3898C26.8599 74.9198 26.9199 74.4398 26.8899 73.9398L26.7799 72.9498C26.6599 72.3598 26.4399 71.8098 26.1099 71.3098L25.5999 70.7398C25.2399 70.4198 24.8199 70.2598 24.3499 70.2598C23.9899 70.2598 23.6699 70.3798 23.4099 70.6098C23.0799 70.7898 22.8199 71.0598 22.6399 71.3998C22.3999 71.7798 22.2399 72.1798 22.1599 72.6198C22.0099 73.0898 21.9499 73.5698 21.9799 74.0698L22.0899 75.0598C22.2099 75.6498 22.4299 76.1998 22.7599 76.6998L23.2699 77.2698C23.6299 77.5898 24.0499 77.7498 24.5199 77.7498Z" fill="black"/>
<path d="M73.6102 148.15C73.3502 148.4 73.3602 148.37 73.1802 148.72C73.1802 148.74 73.1602 148.76 73.1502 148.78C73.1202 148.85 73.0902 148.92 73.0602 148.99C72.9602 149.23 72.8602 149.48 72.7602 149.73C72.4402 150.53 72.1202 151.34 71.8102 152.14C71.4302 153.1 71.0602 154.07 70.6902 155.03C70.3702 155.86 70.0502 156.69 69.7302 157.53C69.5802 157.93 69.4202 158.34 69.2702 158.74C69.2702 158.74 69.2702 158.75 69.2702 158.76C69.0802 159.25 68.9902 159.75 68.9902 160.28C68.9902 160.56 69.0102 160.83 69.0702 161.11C69.1002 161.35 69.1702 161.58 69.2702 161.8C69.3902 162.04 69.6002 162.46 69.9402 162.43C70.2802 162.4 70.5002 162.09 70.6102 161.8C70.7302 161.48 70.8502 161.16 70.9702 160.85C71.2602 160.08 71.5602 159.31 71.8602 158.54C72.2202 157.6 72.5802 156.66 72.9502 155.72C73.2802 154.88 73.6002 154.04 73.9402 153.2C74.1202 152.74 74.2902 152.27 74.5102 151.82C74.5102 151.8 74.5302 151.79 74.5402 151.77L74.3502 152.11C74.3502 152.11 74.3502 152.1 74.3602 152.09L74.1302 152.31C74.2802 152.21 74.3802 152.08 74.4502 151.93C74.5702 151.75 74.6502 151.55 74.6902 151.33C74.7602 151.07 74.8002 150.8 74.8002 150.53C74.8302 150.25 74.8202 149.96 74.7802 149.68L74.6802 149.17C74.6202 148.89 74.5002 148.64 74.3402 148.4L74.1102 148.18C73.9402 148.08 73.7802 148.08 73.6102 148.18V148.15Z" fill="black"/>
<path d="M84.2903 148.97C84.2903 148.97 84.2902 148.97 84.2802 148.97L84.4902 148.91C84.3502 148.94 84.1602 148.88 84.0202 148.87C83.7202 148.85 83.4202 148.87 83.1302 148.93C82.6502 149.04 82.2103 149.24 81.8303 149.55C81.4203 149.88 81.0502 150.28 80.7402 150.71C80.4302 151.14 80.1802 151.57 79.9902 152.04C79.6902 152.77 79.5602 153.51 79.5202 154.3C79.4802 155.03 79.6103 155.79 79.8903 156.47C80.1103 157 80.4603 157.4 80.8703 157.78C81.4303 158.31 82.1503 158.62 82.7203 159.15L82.5302 158.97C82.8502 159.28 83.1203 159.64 83.3903 160C83.6603 160.36 83.9102 160.72 84.1302 161.1L83.9703 160.82C84.1003 161.05 84.2103 161.28 84.2903 161.52L84.1702 161.16C84.1902 161.24 84.2202 161.31 84.2402 161.39C84.2802 161.56 84.1603 160.9 84.1903 161.11C84.1903 161.15 84.1902 161.19 84.2002 161.23C84.2002 161.27 84.1703 160.65 84.1803 160.9C84.1803 161.09 84.2302 160.35 84.2002 160.57C84.1702 160.79 84.3103 160.09 84.2503 160.3C84.2403 160.34 84.2303 160.37 84.2203 160.41L84.3402 160.05C84.3202 160.11 84.2903 160.17 84.2603 160.23L84.4202 159.95C84.3502 160.08 84.2603 160.19 84.1503 160.29L84.3402 160.11C84.0002 160.42 83.5802 160.65 83.1702 160.86C82.7402 161.08 82.2903 161.25 81.8303 161.39L82.0403 161.33C81.5803 161.47 81.1102 161.58 80.6302 161.61C80.1902 161.64 79.8002 161.6 79.3802 161.47L79.5902 161.53C79.1502 161.4 78.6502 161.26 78.2702 161C78.0502 160.85 77.8102 161 77.6702 161.18C77.4502 161.45 77.3502 161.91 77.3102 162.24C77.2602 162.69 77.2603 163.17 77.3903 163.61C77.4803 163.91 77.5903 164.24 77.8603 164.42C78.0103 164.52 78.2003 164.6 78.3703 164.66C78.6103 164.76 78.8603 164.84 79.1103 164.92C79.4003 165.01 79.6902 165.11 79.9902 165.14C80.4502 165.19 80.9203 165.14 81.3703 165.04C81.9603 164.92 82.5402 164.73 83.0902 164.5C83.5702 164.3 84.0503 164.05 84.4803 163.75C84.7503 163.56 85.0202 163.33 85.2002 163.05C85.5102 162.57 85.6802 162.02 85.7402 161.45C85.8502 160.42 85.6803 159.34 85.1803 158.42C84.8403 157.78 84.4203 157.19 83.9803 156.61C83.5603 156.06 83.0803 155.56 82.5003 155.18C82.0903 154.91 81.6603 154.67 81.3003 154.32L81.4902 154.5C81.3002 154.31 81.1103 154.11 80.9803 153.88L81.1403 154.16C81.0803 154.05 81.0302 153.94 80.9902 153.83L81.1103 154.19C81.0903 154.13 81.0802 154.07 81.0602 154.02C80.9902 153.78 81.1302 154.5 81.1002 154.25C81.1002 154.22 81.1002 154.18 81.0902 154.15C81.0902 154.09 81.1103 154.7 81.1103 154.5C81.1103 154.4 81.1203 154.13 81.1103 154.53C81.1003 154.93 81.1103 154.67 81.1103 154.58C81.1103 154.54 81.1202 154.51 81.1302 154.47C81.1302 154.43 81.0303 154.96 81.0803 154.77C81.1103 154.64 81.1503 154.51 81.1903 154.38L81.0703 154.74C81.1603 154.49 81.2703 154.25 81.4003 154.01L81.2402 154.29C81.5102 153.81 81.8603 153.38 82.2503 152.99L82.0602 153.17C82.4002 152.85 82.7803 152.59 83.2303 152.45L83.0202 152.51C83.3502 152.41 83.7003 152.38 84.0503 152.41C84.3003 152.43 84.5002 152.5 84.7402 152.38C84.9802 152.26 85.1502 151.79 85.2102 151.57C85.3202 151.15 85.3503 150.63 85.2903 150.2C85.2403 149.85 85.1703 149.41 84.9303 149.14C84.7603 148.95 84.5903 148.84 84.3303 148.96L84.2903 148.97Z" fill="black"/>
<path d="M97.91 151.03L98.12 150.97C98.01 151 97.89 150.99 97.77 151C97.54 151.01 97.3 151.03 97.07 151.05C96.33 151.13 95.61 151.29 94.92 151.53C94.06 151.84 93.32 152.32 92.68 152.97C92.33 153.32 92.06 153.74 91.79 154.15C91.45 154.68 91.13 155.24 90.83 155.8C90.31 156.8 89.88 157.86 89.58 158.95C89.28 160.04 89.09 161.29 89.28 162.44C89.45 163.53 89.92 164.63 90.6 165.5C90.91 165.89 91.28 166.25 91.69 166.53C92.1 166.81 92.6 167 93.1 167.12C93.67 167.25 94.27 167.26 94.85 167.25C95.43 167.24 95.96 167.2 96.52 167.14C97.01 167.08 97.49 166.98 97.98 166.93L98.3 166.9C98.58 166.87 98.75 166.61 98.85 166.38C99.02 166.01 99.09 165.52 99.08 165.13C99.07 164.74 99.04 164.25 98.85 163.88C98.75 163.68 98.58 163.33 98.3 163.36C97.95 163.39 97.61 163.43 97.27 163.49C96.38 163.64 95.48 163.72 94.58 163.71C93.99 163.71 93.4 163.68 92.83 163.51L93.04 163.57C92.49 163.39 92 163.1 91.58 162.7L91.77 162.88C91.46 162.58 91.2 162.23 90.98 161.85L91.14 162.13C90.95 161.8 90.8 161.45 90.68 161.09L90.8 161.45C90.77 161.35 90.74 161.26 90.72 161.16C90.67 160.97 90.8 161.67 90.78 161.47C90.78 161.45 90.78 161.42 90.78 161.4C90.77 161.3 90.76 161.06 90.78 161.47C90.81 161.9 90.78 161.48 90.79 161.36C90.79 161.12 90.76 161.76 90.77 161.71C90.77 161.67 90.77 161.64 90.77 161.6C90.77 161.54 90.78 161.48 90.79 161.42C90.8 161.36 90.81 161.29 90.82 161.23C90.82 161.2 90.83 161.17 90.84 161.13C90.88 160.9 90.78 161.44 90.79 161.42C90.82 161.29 90.85 161.15 90.88 161.02C90.95 160.72 91.04 160.42 91.14 160.12L91.02 160.48C91.34 159.54 91.77 158.63 92.26 157.76L92.1 158.04C92.52 157.31 92.96 156.54 93.57 155.95L93.38 156.13C94.02 155.52 94.81 155.11 95.64 154.86L95.43 154.92C96.02 154.74 96.63 154.64 97.25 154.58C97.61 154.55 98 154.58 98.34 154.44C98.59 154.35 98.75 153.83 98.81 153.63C98.92 153.21 98.95 152.69 98.89 152.26C98.84 151.91 98.77 151.47 98.53 151.2L98.34 151.02C98.2 150.94 98.06 150.94 97.93 151.02L97.91 151.03Z" fill="black"/>
<path d="M103.29 154.76C103.29 155.13 103.28 155.49 103.28 155.86C103.28 156.71 103.3 157.57 103.34 158.42C103.4 159.56 103.46 160.71 103.64 161.84C103.73 162.41 103.83 162.98 103.98 163.53C104.06 163.84 104.17 164.14 104.28 164.43C104.38 164.68 104.51 164.91 104.64 165.14C104.84 165.48 105.14 165.73 105.48 165.91C106.03 166.21 106.66 166.39 107.27 166.52C107.88 166.65 108.53 166.71 109.16 166.7C109.87 166.69 110.56 166.56 111.24 166.35C111.88 166.15 112.41 165.8 112.91 165.37C113.52 164.85 114.06 164.26 114.37 163.51C114.95 162.1 114.86 160.54 114.69 159.06C114.57 158.04 114.42 157.02 114.27 156C114.16 155.24 114.04 154.49 113.93 153.73C113.93 153.69 113.92 153.65 113.91 153.61C113.85 153.22 113.76 152.73 113.5 152.41C113.34 152.21 113.07 152.04 112.82 152.21L112.61 152.41C112.46 152.63 112.35 152.87 112.29 153.13C112.17 153.63 112.12 154.17 112.2 154.68C112.29 155.26 112.38 155.84 112.47 156.42C112.63 157.49 112.79 158.56 112.92 159.63C112.98 160.07 113.03 160.51 113.06 160.96L113.03 160.43C113.05 160.7 113.06 160.97 113.04 161.24L113.07 160.71C113.07 160.84 113.05 160.97 113.02 161.1L113.11 160.62C113.09 160.73 113.06 160.84 113.02 160.95L113.16 160.54C113.11 160.68 113.05 160.82 112.97 160.96L113.15 160.65C112.98 160.95 112.75 161.22 112.5 161.46L112.71 161.26C112.39 161.57 112.04 161.86 111.66 162.09C111.36 162.28 111.03 162.41 110.69 162.52L110.92 162.45C109.83 162.78 108.64 162.78 107.52 162.59C107.22 162.54 106.92 162.47 106.63 162.38L106.86 162.45C106.58 162.36 106.3 162.26 106.04 162.13C105.86 162.04 105.67 161.95 105.52 161.81L105.73 162.01C105.63 161.92 105.56 161.81 105.49 161.69L105.67 162C105.57 161.82 105.49 161.63 105.43 161.44L105.57 161.85C105.45 161.49 105.36 161.12 105.29 160.74L105.38 161.22C105.2 160.26 105.12 159.29 105.06 158.32L105.09 158.85C105.02 157.58 104.99 156.3 105.01 155.02C105.01 154.93 105.01 154.84 105.01 154.75C105.01 154.49 104.99 154.23 104.93 153.98C104.9 153.76 104.84 153.54 104.75 153.33C104.69 153.16 104.6 153.02 104.47 152.92C104.39 152.81 104.27 152.75 104.13 152.75C103.82 152.78 103.62 153.07 103.51 153.34C103.32 153.79 103.26 154.27 103.25 154.76H103.29Z" fill="black"/>
<path d="M119.99 151.5C119.96 151.59 119.91 151.94 119.89 152.02C119.86 152.23 119.85 152.41 119.86 152.61C119.86 152.82 119.87 153.03 119.9 153.24C119.9 153.31 119.92 153.38 119.93 153.45C120 153.87 120.08 154.28 120.16 154.7C120.31 155.51 120.47 156.32 120.64 157.13C120.84 158.11 121.03 159.08 121.23 160.06C121.4 160.9 121.58 161.75 121.75 162.59C121.83 163 121.91 163.41 122 163.82C122 163.82 122 163.83 122 163.84C122.04 164.06 122.13 164.26 122.24 164.45C122.31 164.61 122.42 164.74 122.56 164.84C122.84 164.99 123.12 164.86 123.29 164.62C123.56 164.25 123.68 163.77 123.73 163.33C123.79 162.77 123.75 162.22 123.63 161.67C123.46 160.85 123.29 160.03 123.12 159.21C122.8 157.64 122.48 156.07 122.16 154.5C122.02 153.79 121.88 153.09 121.75 152.38L121.85 152.9C121.8 152.63 121.73 152.35 121.71 152.07L121.74 152.64C121.74 152.64 121.74 152.63 121.74 152.62L121.71 153.19L121.61 153.71C121.68 153.45 121.72 153.18 121.72 152.91C121.75 152.62 121.74 152.34 121.7 152.05C121.68 151.8 121.62 151.55 121.53 151.32C121.48 151.12 121.39 150.93 121.26 150.76C121.08 150.55 120.81 150.35 120.53 150.54L120.3 150.76C120.14 151 120.02 151.25 119.96 151.53L119.99 151.5Z" fill="black"/>
<path d="M126.83 151.46H126.85L126.64 151.52C127 151.41 127.37 151.35 127.74 151.27C128.46 151.11 129.19 150.96 129.91 150.81C130.75 150.63 131.59 150.46 132.43 150.29C133.14 150.14 133.86 150 134.57 149.85C134.91 149.78 135.26 149.71 135.6 149.64C135.6 149.64 135.6 149.64 135.61 149.64C135.74 149.64 135.84 149.58 135.91 149.49C136.03 149.39 136.11 149.27 136.16 149.12C136.24 148.94 136.3 148.74 136.32 148.55C136.37 148.32 136.39 148.1 136.39 147.86C136.39 147.44 136.35 146.98 136.16 146.6L136 146.32C135.91 146.18 135.77 146.09 135.6 146.08C135.31 146.14 135.01 146.2 134.72 146.26C134.01 146.4 133.31 146.55 132.6 146.7C131.74 146.88 130.88 147.06 130.02 147.24C129.27 147.4 128.52 147.55 127.77 147.72C127.39 147.8 127 147.87 126.62 147.98C126.54 148 126.46 148.02 126.39 148.05C126.27 148.13 126.18 148.24 126.12 148.37C126.02 148.52 125.95 148.69 125.92 148.87C125.86 149.09 125.83 149.31 125.83 149.53C125.81 149.77 125.81 150 125.84 150.24L125.92 150.67C125.97 150.9 126.07 151.11 126.2 151.31L126.39 151.49C126.53 151.57 126.67 151.57 126.81 151.49L126.83 151.46Z" fill="black"/>
<path d="M135.19 159.32C135.07 158.94 134.95 158.56 134.84 158.18L133.99 155.46L132.96 152.16L132.07 149.32C131.93 148.86 131.78 148.39 131.64 147.93C131.64 147.93 131.64 147.92 131.64 147.91C131.56 147.65 131.44 147.24 131.17 147.09C130.94 146.96 130.71 147.07 130.57 147.27C130.35 147.57 130.25 147.97 130.21 148.34C130.16 148.79 130.15 149.28 130.29 149.71C130.41 150.09 130.53 150.47 130.64 150.85L131.49 153.57L132.52 156.87L133.41 159.71C133.55 160.17 133.7 160.64 133.84 161.1C133.84 161.1 133.84 161.11 133.84 161.12C133.92 161.38 134.04 161.79 134.31 161.94C134.54 162.07 134.77 161.96 134.91 161.76C135.13 161.46 135.23 161.06 135.27 160.69C135.32 160.24 135.33 159.75 135.19 159.32Z" fill="black"/>
<path d="M143 142.41C142.43 142.44 141.83 142.61 141.32 142.86C140.81 143.11 140.44 143.53 140.16 144.03C139.85 144.59 139.76 145.26 139.71 145.89C139.6 147.3 139.69 148.74 140.21 150.07C140.42 150.6 140.72 151.07 141.15 151.44C141.54 151.78 142.06 151.88 142.56 151.89C143.15 151.89 143.7 151.75 144.27 151.58C144.8 151.43 145.3 151.38 145.84 151.53L145.65 151.47C146.07 151.6 146.49 151.74 146.9 151.9C147.22 152.02 147.54 152.16 147.79 152.39L147.62 152.23C147.7 152.31 147.76 152.39 147.82 152.48L147.68 152.23C147.68 152.23 147.72 152.31 147.74 152.35C147.82 152.52 147.62 151.97 147.68 152.19C147.73 152.36 147.62 151.8 147.63 151.92C147.63 151.95 147.63 151.98 147.64 152.01C147.64 152.06 147.62 151.51 147.62 151.69C147.62 151.72 147.62 151.75 147.62 151.79C147.62 151.93 147.66 151.29 147.64 151.51C147.64 151.54 147.64 151.57 147.64 151.6C147.64 151.67 147.62 151.74 147.62 151.81C147.6 151.95 147.59 152.09 147.57 152.22C147.57 152.28 147.55 152.34 147.54 152.4C147.51 152.55 147.62 151.99 147.59 152.14C147.59 152.17 147.58 152.21 147.57 152.24C147.55 152.35 147.52 152.47 147.48 152.58C147.48 152.61 147.46 152.64 147.45 152.67C147.42 152.79 147.59 152.3 147.52 152.47C147.5 152.52 147.48 152.58 147.46 152.63C147.41 152.74 147.36 152.85 147.3 152.95L147.44 152.7C147.27 152.99 147.06 153.25 146.82 153.48L146.99 153.32C146.39 153.89 145.66 154.35 144.87 154.6L145.06 154.54C144.76 154.63 144.44 154.69 144.13 154.76C144.02 154.76 143.93 154.81 143.86 154.9C143.75 154.99 143.68 155.1 143.63 155.23C143.48 155.56 143.42 156 143.42 156.36C143.42 156.72 143.46 157.15 143.63 157.49C143.71 157.65 143.89 158.01 144.13 157.96C144.75 157.81 145.37 157.68 145.95 157.39C146.6 157.07 147.19 156.61 147.69 156.08C148.19 155.55 148.47 154.92 148.68 154.24C148.88 153.61 148.97 152.93 149.02 152.27C149.09 151.23 149 150.05 148.18 149.31C147.84 149 147.4 148.85 146.97 148.7C146.69 148.6 146.41 148.51 146.13 148.41C145.83 148.31 145.53 148.22 145.22 148.22C144.71 148.22 144.24 148.4 143.76 148.53C143.18 148.68 142.51 148.77 141.93 148.6L142.12 148.66C141.88 148.59 141.67 148.46 141.49 148.29L141.66 148.45C141.51 148.31 141.39 148.14 141.29 147.96L141.43 148.21C141.35 148.07 141.28 147.92 141.22 147.76C141.22 147.74 141.2 147.72 141.2 147.7C141.16 147.58 141.18 147.66 141.28 147.93C141.27 147.89 141.25 147.84 141.24 147.8C141.22 147.72 141.2 147.64 141.18 147.56C141.17 147.51 141.16 147.47 141.15 147.42C141.15 147.4 141.15 147.37 141.14 147.35C141.11 147.21 141.14 147.3 141.19 147.63C141.18 147.55 141.16 147.46 141.15 147.38C141.14 147.28 141.13 147.19 141.12 147.09C141.12 147.04 141.12 146.99 141.11 146.95C141.09 146.73 141.14 147.46 141.13 147.21C141.13 147.03 141.12 146.86 141.13 146.68C141.13 146.64 141.13 146.6 141.13 146.56C141.13 146.54 141.13 146.51 141.13 146.49C141.13 146.34 141.13 146.44 141.11 146.81C141.11 146.73 141.12 146.65 141.13 146.56C141.15 146.41 141.17 146.26 141.19 146.11C141.21 145.98 141.09 146.6 141.15 146.35C141.15 146.33 141.16 146.31 141.17 146.28C141.21 146.16 141.18 146.24 141.09 146.51C141.12 146.43 141.16 146.35 141.2 146.28L141.06 146.53C141.14 146.39 141.24 146.27 141.35 146.16L141.18 146.32C141.49 146.02 141.88 145.84 142.29 145.71L142.1 145.77C142.4 145.68 142.72 145.61 143.04 145.59C143.29 145.58 143.45 145.32 143.54 145.12C143.69 144.79 143.75 144.35 143.75 143.99C143.75 143.63 143.71 143.2 143.54 142.86C143.45 142.67 143.3 142.38 143.04 142.39L143 142.41Z" fill="black"/>
<path d="M59.6901 149.29C60.4901 149.62 61.3101 149.89 62.1301 150.14C63.1001 150.43 64.0801 150.69 65.0801 150.84C66.0001 150.98 66.9901 151.07 67.8901 150.76C68.7901 150.45 69.1301 149.56 69.2701 148.71C69.4301 147.76 69.2601 146.77 69.0501 145.84C68.9701 145.47 68.8701 145.1 68.7801 144.73C68.6801 144.3 68.5601 143.9 68.3301 143.52C67.6901 142.44 66.2801 141.99 65.1501 141.68C64.6001 141.53 64.0401 141.41 63.4801 141.32C63.1701 141.27 62.8501 141.2 62.5301 141.19C62.5101 141.19 62.5001 141.19 62.4801 141.19C62.3501 141.2 62.2501 141.26 62.1801 141.37C61.9201 141.76 61.6701 142.16 61.4201 142.55C60.8101 143.5 60.2001 144.45 59.5901 145.41C58.8501 146.58 58.1101 147.74 57.3701 148.92C56.7201 149.96 56.0801 151 55.4601 152.05C55.2101 152.48 54.9601 152.91 54.7201 153.34C54.5601 153.63 54.4101 153.92 54.3201 154.24C54.2801 154.37 54.2601 154.5 54.2401 154.63C54.2001 154.96 54.2101 155.35 54.3001 155.67C54.3701 155.9 54.4501 156.15 54.6501 156.29C55.4301 156.81 56.2501 157.28 57.0701 157.72C58.4901 158.48 60.0301 159.25 61.6401 159.52C62.2401 159.62 62.9301 159.64 63.4801 159.32C63.6301 159.23 63.7601 159.11 63.8801 158.98C63.9201 158.94 63.9601 158.89 63.9901 158.84C64.0101 158.82 64.0201 158.79 64.0401 158.76C64.0701 158.72 64.0901 158.67 64.1201 158.62C64.2001 158.49 64.2001 158.48 64.1301 158.6C64.1501 158.57 64.1701 158.54 64.1801 158.51C64.5201 157.94 64.9101 157.42 65.3101 156.9C65.6201 156.5 65.9501 156.08 66.1301 155.59C66.4701 154.67 66.4501 153.67 66.1101 152.75C65.9001 152.2 65.5201 151.7 65.1101 151.28C64.7001 150.86 64.2201 150.44 63.7401 150.07C62.9501 149.47 62.1101 148.95 61.2501 148.47C61.0701 148.37 60.8701 148.29 60.6901 148.17C60.4701 148.03 60.2801 147.82 60.0901 147.66L59.8301 147.44C59.6801 147.31 59.4601 147.46 59.3701 147.58C59.2101 147.79 59.1201 148.14 59.1001 148.39C59.0401 148.94 59.0701 149.66 59.5101 150.05C59.8601 150.35 60.1801 150.69 60.5801 150.9C61.3701 151.32 62.1401 151.78 62.8701 152.3C63.4101 152.68 63.9301 153.08 64.4101 153.54L64.2701 153.4C64.6001 153.72 64.9101 154.06 65.1501 154.45C65.1701 154.48 65.1801 154.51 65.2001 154.53C65.2001 154.54 65.1001 154.34 65.1401 154.42C65.1601 154.47 65.1901 154.51 65.2101 154.56C65.2301 154.6 65.2401 154.64 65.2601 154.67C65.3101 154.79 65.1701 154.37 65.2201 154.58C65.2601 154.75 65.1701 154.21 65.1901 154.41C65.2101 154.62 65.1801 154.04 65.1801 154.2C65.1801 154.38 65.2101 153.8 65.1901 153.97C65.1601 154.19 65.2601 153.68 65.2201 153.81C65.2001 153.86 65.1601 154.02 65.2201 153.81C65.2801 153.6 65.2401 153.75 65.2201 153.8C65.2101 153.83 65.1901 153.86 65.1801 153.9C65.1701 153.92 65.1601 153.94 65.1501 153.96C65.1001 154.07 65.2101 153.85 65.2201 153.85C65.1601 153.89 65.1101 154.02 65.0701 154.08C65.0101 154.16 64.9501 154.24 64.8901 154.32C64.5901 154.71 64.2801 155.09 64.0001 155.5C63.7601 155.84 63.5501 156.19 63.3501 156.55C63.3801 156.5 63.4601 156.37 63.3901 156.48C63.3701 156.5 63.3601 156.52 63.3401 156.54C63.3001 156.59 63.2601 156.64 63.2201 156.68L63.3601 156.54C63.2101 156.68 63.0301 156.78 62.8301 156.84L62.9901 156.79C62.2301 157.02 61.3801 156.79 60.6401 156.58L60.8001 156.63C58.8801 156.04 57.0701 155.02 55.3701 153.96C55.2301 153.87 55.0801 153.78 54.9401 153.69L55.3501 155.35C55.3301 155.55 55.3101 155.68 55.2201 155.86C55.2401 155.82 55.2501 155.78 55.2701 155.74C55.3201 155.63 55.3801 155.52 55.4301 155.41C55.5101 155.26 55.5901 155.11 55.6801 154.96C55.7301 154.88 55.8401 154.68 55.6501 155.02C55.6801 154.97 55.7001 154.92 55.7301 154.88C55.7901 154.78 55.8401 154.68 55.9001 154.59C56.4901 153.58 57.1101 152.58 57.7301 151.58C58.4601 150.41 59.1901 149.25 59.9301 148.1C60.5501 147.12 61.1801 146.14 61.8101 145.16C62.0201 144.84 62.2301 144.51 62.4301 144.19C62.5301 144.04 62.6401 143.89 62.7201 143.74C62.7201 143.74 62.7201 143.73 62.7301 143.72L62.4301 143.9C63.4301 143.99 64.4401 144.19 65.4001 144.48L65.2401 144.43C66.0301 144.67 66.8701 144.99 67.4701 145.57L67.3301 145.43C67.4201 145.52 67.5101 145.62 67.5801 145.72C67.6001 145.74 67.6101 145.77 67.6301 145.79C67.7201 145.92 67.5601 145.7 67.5701 145.68C67.5701 145.71 67.6401 145.83 67.6501 145.86C67.7101 145.98 67.5701 145.56 67.5901 145.69C67.5901 145.72 67.6001 145.74 67.6101 145.77C67.6301 145.87 67.6601 145.97 67.6801 146.07C67.7201 146.26 67.7701 146.45 67.8201 146.64C67.8701 146.83 67.9101 147 67.9501 147.18C67.9701 147.27 67.9901 147.36 68.0101 147.46C68.0101 147.5 68.0301 147.54 68.0401 147.59C68.0701 147.76 67.9801 147.23 68.0101 147.45C68.0401 147.62 68.0601 147.8 68.0801 147.97C68.1001 148.18 68.0701 147.68 68.0701 147.76C68.0701 147.8 68.0701 147.85 68.0701 147.89C68.0701 147.93 68.0701 147.96 68.0701 148C68.0701 148.17 68.1101 147.59 68.0801 147.8C68.0801 147.84 68.0701 147.88 68.0701 147.92C68.0601 148.06 68.1601 147.54 68.1001 147.76C68.1001 147.8 68.0801 147.83 68.0701 147.87C68.0701 147.91 68.1901 147.56 68.1101 147.73C68.0901 147.76 68.0801 147.8 68.0601 147.83C68.0501 147.86 68.2101 147.61 68.1101 147.74C68.0601 147.81 68.0101 147.88 67.9501 147.94L68.0901 147.8C67.9001 147.98 67.6701 148.09 67.4201 148.17L67.5801 148.12C66.7301 148.36 65.7801 148.25 64.9201 148.12C63.9501 147.97 63.0001 147.72 62.0601 147.44L62.2201 147.49C61.4501 147.25 60.6801 147 59.9401 146.69C59.4401 146.48 59.2501 147.28 59.2101 147.63C59.1701 147.98 59.1701 148.34 59.2701 148.67C59.3301 148.87 59.4201 149.21 59.6201 149.29H59.6901Z" fill="black"/>
</g>
<defs>
<clipPath id="clip0_3416_10904">
<rect width="207.94" height="201.42" fill="white"/>
</clipPath>
</defs>
</svg>
