<svg width="232" height="254" viewBox="0 0 232 254" fill="none" xmlns="http://www.w3.org/2000/svg">
<g clip-path="url(#clip0_3416_11854)">
<path d="M25.22 205.25C29.83 201.05 34.16 196.52 38.4 191.95C48.22 181.35 57.36 170.1 65.58 158.23C75.77 143.5 84.74 127.67 90.8 110.77C93.71 102.66 96 94.3099 98.46 86.0599C100.19 80.2499 101.9 74.4299 103.55 68.5999C104.72 64.4499 105.97 60.2899 106.85 56.0599C107.04 55.1699 107.23 54.2699 107.34 53.3599L102.48 51.8599C102.5 56.4199 102.53 60.9799 102.55 65.5399C102.61 76.4499 102.66 87.3499 102.72 98.2599C102.79 111.45 102.86 124.63 102.93 137.82C102.99 149.25 103.05 160.68 103.11 172.11C103.14 177.62 103.02 183.16 103.2 188.67C103.2 188.75 103.2 188.83 103.2 188.91L105.68 183.29C96.51 184.52 87.35 185.76 78.18 186.99C63.66 188.94 49.15 190.89 34.63 192.85C31.28 193.3 27.93 193.75 24.59 194.2C22.42 194.49 22.08 198.16 22.11 199.82C22.14 201.14 22.24 202.6 22.83 203.8C23.14 204.42 23.71 205.56 24.58 205.45C33.75 204.22 42.91 202.98 52.08 201.75C66.6 199.8 81.11 197.85 95.63 195.89C98.98 195.44 102.33 194.99 105.67 194.54C107.84 194.25 108.15 190.48 108.15 188.92C108.13 184.36 108.1 179.8 108.08 175.24C108.02 164.33 107.97 153.43 107.91 142.52C107.84 129.33 107.77 116.15 107.7 102.96C107.64 91.5299 107.58 80.0999 107.52 68.6699C107.49 63.1499 107.52 57.6299 107.43 52.1099C107.43 52.0299 107.43 51.9499 107.43 51.8699C107.43 50.4099 107.18 46.7699 105.28 46.3499C103.38 45.9299 102.72 49.1099 102.56 50.3799C102.53 50.5899 102.49 50.7999 102.46 51.0099C102.74 49.0099 102.66 49.9799 102.51 50.6599C102.34 51.4399 102.15 52.2099 101.96 52.9899C101.43 55.1199 100.85 57.2499 100.27 59.3699C98.71 65.0099 97.07 70.6199 95.42 76.2299C93.04 84.2899 90.67 92.3699 88.14 100.39C88.11 100.49 88.08 100.58 88.05 100.68C87.97 100.91 87.69 101.75 88 100.83C87.92 101.07 87.83 101.32 87.75 101.56C87.56 102.11 87.36 102.66 87.17 103.2C86.4 105.33 85.58 107.44 84.73 109.53C83.04 113.65 81.18 117.7 79.18 121.68C78.17 123.69 77.13 125.68 76.06 127.65C75.57 128.55 75.08 129.44 74.58 130.33C74.46 130.55 74.33 130.77 74.2 130.99C74.5 130.46 74.18 131.02 74.13 131.1C73.81 131.65 73.5 132.2 73.18 132.74C70.97 136.51 68.66 140.21 66.25 143.85C58.07 156.23 48.85 167.92 38.93 178.95C35.61 182.64 32.21 186.25 28.71 189.76C27.62 190.86 26.51 191.94 25.4 193.02C24.84 193.56 26.03 192.42 25.33 193.08C25.16 193.24 24.99 193.41 24.82 193.57C24.6 193.78 24.37 193.99 24.14 194.2C24.07 194.27 23.99 194.34 23.92 194.41C22.13 196.05 21.86 199.04 22.19 201.33C22.36 202.47 22.59 203.77 23.33 204.69C23.73 205.19 24.6 205.84 25.24 205.26L25.22 205.25Z" fill="black"/>
<path d="M112.77 55.4098C114.05 59.9898 115.17 64.6098 116.25 69.2398C117.33 73.8698 118.35 78.6398 119.26 83.3698C119.39 84.0198 119.51 84.6798 119.64 85.3298C119.86 86.5098 119.42 84.1298 119.64 85.3098C119.7 85.6398 119.76 85.9798 119.82 86.3098C120.07 87.6698 120.3 89.0198 120.53 90.3798C121 93.1598 121.42 95.9398 121.81 98.7298C122.2 101.52 122.56 104.56 122.84 107.49C122.96 108.76 123.07 110.03 123.16 111.3C123.21 111.98 123.24 112.67 123.3 113.35C123.15 111.62 123.27 112.84 123.29 113.21C123.31 113.66 123.33 114.11 123.35 114.55C123.46 117.14 123.49 119.73 123.42 122.32C123.4 122.94 123.37 123.55 123.35 124.17C123.29 125.44 123.42 123.14 123.36 123.97C123.34 124.28 123.32 124.59 123.3 124.9C123.19 126.55 123.04 128.19 122.87 129.83C122.54 132.94 122.12 136.03 121.64 139.12C121.4 140.67 121.13 142.22 120.86 143.77C120.79 144.16 120.73 144.54 120.65 144.93C120.68 144.77 120.86 143.8 120.68 144.74C120.51 145.63 120.34 146.52 120.16 147.41C119.01 153.15 117.69 158.85 116.23 164.51C114.49 171.26 112.62 178 110.42 184.62C109.85 186.34 109.96 188.57 110.42 190.3C110.64 191.14 111.3 193.21 112.56 193.09C115.8 192.76 119.04 192.43 122.27 192.1C129.92 191.32 137.57 190.54 145.22 189.76C154.23 188.84 163.24 187.92 172.25 187.01C179.44 186.28 186.62 185.55 193.81 184.81L199.68 184.21C200.08 184.17 200.49 184.15 200.88 184.09C201.92 183.92 202.43 183.09 202.85 182.19C205.58 176.41 206.83 169.64 207.24 163.32C208.14 149.51 204.94 136.05 198.01 124.07C193.91 116.99 188.54 110.96 182.89 105.1C177.24 99.2398 171.77 93.9598 166 88.6198C155.86 79.2398 145.32 70.2898 134.53 61.6698C128.59 56.9198 122.58 52.2498 116.45 47.7598C116.16 47.5498 115.87 47.3398 115.58 47.1298C114.89 46.6298 114.1 47.1698 113.67 47.6998C112.98 48.5498 112.64 50.0198 112.53 51.0598C112.31 53.1498 112.31 56.5698 114.26 57.9798C118.73 61.2098 123.1 64.5798 127.45 67.9698C137.83 76.0798 147.97 84.4798 157.8 93.2398C163.53 98.3398 169.15 103.56 174.6 108.96C180.4 114.71 186.32 120.54 191.16 127.14C192.36 128.78 193.5 130.46 194.56 132.19C194.81 132.6 195.06 133.02 195.31 133.44C195.34 133.49 195.68 134.09 195.42 133.63C195.52 133.81 195.62 133.98 195.71 134.16C196.16 134.97 196.59 135.79 197 136.62C197.81 138.26 198.55 139.92 199.22 141.62C199.5 142.35 199.77 143.08 200.03 143.81C200.21 144.31 199.94 143.54 199.93 143.51C200 143.73 200.08 143.95 200.15 144.17C200.29 144.61 200.42 145.05 200.55 145.49C200.98 146.98 201.36 148.48 201.67 149.99C201.73 150.3 201.77 150.63 201.86 150.93C201.84 150.84 201.64 149.65 201.78 150.52C201.8 150.67 201.83 150.83 201.86 150.98C201.98 151.74 202.09 152.49 202.18 153.25C202.26 153.89 202.32 154.53 202.38 155.17C202.41 155.51 202.43 155.84 202.46 156.18C202.52 157 202.39 154.69 202.45 156.1C202.5 157.36 202.51 158.63 202.48 159.9C202.48 160.16 202.46 160.42 202.45 160.68C202.45 160.92 202.38 162.09 202.45 160.95C202.52 159.81 202.45 160.92 202.43 161.2C202.4 161.52 202.38 161.85 202.35 162.17C202.25 163.24 202.11 164.3 201.95 165.36C201.9 165.7 201.63 167.22 201.82 166.16C202.01 165.1 201.84 166.05 201.79 166.29C201.74 166.55 201.68 166.81 201.63 167.06C201.45 167.89 201.25 168.71 201.03 169.53C200.84 170.23 200.64 170.93 200.41 171.62C200.36 171.77 200.31 171.93 200.26 172.08C200.04 172.76 200.59 171.17 200.48 171.43C200.37 171.69 200.28 171.99 200.18 172.26C199.93 172.92 199.63 173.56 199.38 174.21C199.35 174.3 199.3 174.38 199.26 174.46L201.01 172.81C198.09 173.11 195.17 173.4 192.25 173.7C185.2 174.42 178.14 175.14 171.09 175.86C162.59 176.73 154.09 177.59 145.59 178.46C138.21 179.21 130.82 179.96 123.44 180.72C119.88 181.08 116.26 181.28 112.72 181.81C112.67 181.81 112.62 181.82 112.57 181.83L114.71 190.29C116.57 184.7 118.18 179.02 119.7 173.33C122.92 161.28 125.62 149.04 127.22 136.66C128.01 130.53 128.51 124.34 128.44 118.16C128.37 111.98 127.9 106.21 127.2 100.28C125.89 89.0998 123.81 77.9998 121.36 67.0198C120.07 61.2198 118.69 55.4198 117.09 49.6898C116.7 48.2998 115.2 45.6098 113.7 47.6698C112.2 49.7298 112.17 53.0698 112.81 55.3698L112.77 55.4098Z" fill="black"/>
<path d="M2.51003 218.73C4.54003 218.5 6.57003 218.27 8.60003 218.04C14.1 217.41 19.59 216.79 25.09 216.16C33.21 215.23 41.34 214.31 49.46 213.38C59.41 212.25 69.36 211.11 79.31 209.98C90.12 208.75 100.94 207.51 111.75 206.28C122.56 205.05 133.75 203.77 144.74 202.52C154.96 201.36 165.17 200.19 175.39 199.03C184.03 198.05 192.66 197.06 201.3 196.08C207.53 195.37 213.76 194.66 220 193.95C222.93 193.62 225.89 193.36 228.81 192.95C228.94 192.93 229.06 192.92 229.19 192.91L227.05 184.45C226.68 185.94 226.18 187.39 225.71 188.84C226.32 186.94 225.85 188.43 225.69 188.88C225.55 189.29 225.4 189.7 225.25 190.1C224.92 190.99 224.58 191.87 224.23 192.74C223.4 194.82 222.5 196.88 221.54 198.91C221.01 200.03 220.46 201.14 219.89 202.23C219.57 202.84 219.25 203.45 218.93 204.05C218.78 204.32 218.63 204.6 218.48 204.87C218.33 205.14 217.73 206.3 218.28 205.24C216.95 207.83 215.24 210.3 213.58 212.69C211.8 215.24 209.89 217.7 207.85 220.05C206.77 221.29 205.66 222.5 204.5 223.67C204.23 223.94 203.96 224.21 203.69 224.48C203.52 224.65 203.35 224.81 203.18 224.98C202.82 225.33 203.51 224.67 203.15 225.01C202.51 225.6 201.87 226.19 201.22 226.77C195.87 231.48 189.8 235.38 183.21 238.13C181.45 238.87 179.65 239.53 177.83 240.09C177.41 240.22 176.89 240.41 176.39 240.46C175.66 240.54 174.88 240.48 174.14 240.49C165.24 240.61 156.34 240.73 147.43 240.85C136.77 240.99 126.11 241.14 115.45 241.28C111.57 241.33 107.7 241.38 103.82 241.44C94.48 241.58 85.14 241.73 75.8 241.87C66.46 242.01 56.78 242.16 47.26 242.31C43.61 242.37 40.18 242.15 36.61 241.18C36.37 241.12 36.14 241.05 35.9 240.98C35.31 240.82 36.41 241.15 35.67 240.91C35.16 240.74 34.65 240.57 34.15 240.39C33.11 240.01 32.08 239.59 31.08 239.14C28.67 238.04 26.36 236.72 24.17 235.21C22.92 234.35 21.71 233.42 20.55 232.44C19.95 231.93 19.36 231.41 18.78 230.88C18.64 230.75 18.5 230.62 18.36 230.49C18.77 230.87 18.4 230.53 18.33 230.46C17.98 230.11 17.63 229.77 17.29 229.42C14.63 226.68 12.27 223.66 10.19 220.46C9.62003 219.59 9.08003 218.71 8.55003 217.82C8.42003 217.6 8.30003 217.39 8.17003 217.17C7.85003 216.61 8.42003 217.62 8.11003 217.05C7.83003 216.54 7.55003 216.03 7.27003 215.51C6.18003 213.43 5.18003 211.31 4.26003 209.15C3.98003 208.5 3.35003 207.5 2.51003 207.5C1.67003 207.5 1.03003 208.5 0.760034 209.15C-0.249966 211.54 -0.259966 214.71 0.760034 217.1C6.51003 230.58 15.77 243.47 29.38 249.81C34.05 251.98 39.4 253.65 44.61 253.6C52.04 253.52 59.47 253.37 66.9 253.26C77.65 253.09 88.4 252.93 99.15 252.76C102.91 252.7 106.66 252.65 110.42 252.59C120.15 252.46 129.87 252.33 139.6 252.2C149.84 252.06 160.09 251.92 170.33 251.79C172.34 251.76 174.5 251.96 176.5 251.71C177.81 251.54 179.16 250.95 180.41 250.53C182.16 249.94 183.88 249.28 185.56 248.53C188.93 247.05 192.17 245.27 195.23 243.23C206.42 235.78 215.03 225.18 221.58 213.56C225.54 206.52 228.79 198.99 231.03 191.22C231.14 190.85 231.24 190.49 231.33 190.12C231.79 188.3 231.82 186.26 231.33 184.44C231.11 183.61 230.45 181.51 229.19 181.65C227.16 181.88 225.13 182.11 223.1 182.34L206.61 184.22C198.49 185.15 190.36 186.07 182.24 187C172.29 188.13 162.34 189.27 152.39 190.4C141.58 191.63 130.76 192.87 119.95 194.1C109.14 195.33 97.95 196.61 86.96 197.86C76.74 199.02 66.53 200.19 56.31 201.35C47.67 202.33 39.04 203.32 30.4 204.3C24.17 205.01 17.94 205.72 11.7 206.43C8.77003 206.76 5.81003 207.02 2.89003 207.43C2.76003 207.45 2.64003 207.46 2.51003 207.47C0.340034 207.72 3.39132e-05 211.46 0.0300339 213.09C0.0600339 214.41 0.160034 215.87 0.750034 217.07C1.06003 217.7 1.63003 218.82 2.50003 218.72L2.51003 218.73Z" fill="black"/>
<path d="M107.39 4.63C107.39 15.13 107.39 25.63 107.39 36.13V40.58L109.62 37.67C108.56 36.22 107.07 35 105.64 33.95C102 31.28 97.7001 29.59 93.3201 28.59C86.0901 26.94 78.7501 27.63 71.4201 28.06C64.8701 28.44 58.2501 28.87 51.7001 28.27C45.1501 27.67 39.3401 25.8 34.0301 22.13L34.6901 23C34.2001 21.89 33.7001 20.78 33.2101 19.66L31.7701 25.3C33.7901 26.57 36.5001 27.06 38.8301 27.26C45.6701 27.85 52.2301 25.43 58.3101 22.54C65.0401 19.34 71.4701 15.61 78.0501 12.12C82.9701 9.51 87.8001 7.13 93.4401 6.82C98.5701 6.53 103.85 7.04 108.88 8.01C110.67 8.35 111.12 1.69 108.88 1.26C104.65 0.44 100.28 0 95.9901 0C93.1301 0 90.2701 0.21 87.5201 1.04C85.0401 1.79 82.6801 2.86 80.3601 4.01C74.0201 7.16 67.9401 10.79 61.6301 14C55.3201 17.21 48.5101 20.53 41.1301 20.59C38.1901 20.62 34.9901 20.33 32.5501 18.79C31.6301 18.21 31.0301 19.74 30.8701 20.34C30.5301 21.63 30.5601 23.2 31.1001 24.43C31.4801 25.28 31.8501 26.12 32.2301 26.97C32.3501 27.24 32.4501 27.51 32.5801 27.77C33.0201 28.65 33.9101 29.11 34.7101 29.61C37.2601 31.21 40.0001 32.44 42.8801 33.32C49.0301 35.21 55.5001 35.41 61.8801 35.25C75.4301 34.89 90.3501 31.69 102.68 39.03C103.57 39.56 104.43 40.13 105.25 40.76C105.58 41.01 105.9 41.27 106.21 41.53C106.35 41.65 106.49 41.77 106.62 41.89C106.69 41.95 107.12 42.35 106.9 42.14C106.68 41.93 107.01 42.25 107.08 42.32C107.17 42.41 107.26 42.5 107.35 42.6C107.5 42.76 107.64 42.92 107.78 43.08C107.9 43.22 108.01 43.35 108.12 43.5C109.54 45.45 110.35 41.34 110.35 40.59V4.63C110.35 3.73 110.17 1.3 108.86 1.25C107.55 1.2 107.37 3.88 107.37 4.63H107.39Z" fill="black"/>
</g>
<defs>
<clipPath id="clip0_3416_11854">
<rect width="231.68" height="253.58" fill="white"/>
</clipPath>
</defs>
</svg>
