<svg width="246" height="307" viewBox="0 0 246 307" fill="none" xmlns="http://www.w3.org/2000/svg">
<g clip-path="url(#clip0_3416_10276)">
<path d="M231.62 11.81C230.06 12.4 228.48 12.92 226.9 13.44C226.06 13.71 225.22 13.98 224.38 14.24C223.72 14.44 224.45 14.22 224.07 14.34C223.84 14.41 223.61 14.48 223.38 14.55C222.86 14.71 222.34 14.86 221.82 15.01C219.4 15.71 216.98 16.37 214.54 16.99C201.15 20.39 187.4 22.65 173.59 23.17C165.58 23.47 157.54 23.17 149.6 22.01C140.87 20.73 132.4 18.12 123.94 15.67C109.28 11.43 94.7601 6.58996 79.9401 2.89996C74.9201 1.64996 69.8301 0.519963 64.6601 0.109963C60.6401 -0.210037 56.9501 0.139963 53.1101 1.36996C52.8801 1.43996 52.6501 1.51996 52.4101 1.58996C52.9901 1.40996 52.1701 1.65996 52.0501 1.68996C51.5601 1.82996 51.0801 1.96996 50.5901 2.10996C49.6501 2.36996 48.7101 2.62996 47.7701 2.89996C45.9001 3.42996 44.0101 3.96996 42.2201 4.73996C38.7601 6.21996 36.0801 8.83996 34.7701 12.42C32.3701 18.97 33.2701 26.25 34.7401 32.9C35.1701 34.85 35.6901 36.78 36.2501 38.7C36.4001 39.2 36.5501 39.7 36.7001 40.2C36.8301 40.61 37.3101 42.59 37.0301 40.7C37.0401 40.8 37.0601 40.89 37.0701 40.99C37.1501 41.61 37.2101 42.22 37.2601 42.84C37.3001 43.27 37.3301 43.71 37.3601 44.14C37.3601 44.25 37.4101 44.47 37.3901 44.56C37.3501 44.69 37.3201 43.13 37.3401 43.67C37.3501 44.02 37.3801 44.37 37.3901 44.72C37.4401 46.05 37.4601 47.39 37.4401 48.72C37.4301 49.4 37.3701 50.09 37.3601 50.77C37.3601 50.71 37.4601 49.34 37.3901 50.23C37.3801 50.38 37.3701 50.53 37.3601 50.68C37.3201 51.14 37.2801 51.59 37.2301 52.05C37.1501 52.76 37.0601 53.47 36.9401 54.18C36.9101 54.37 36.8401 54.59 36.8401 54.78C36.8401 54.81 37.0701 53.71 36.9401 54.24C36.8301 54.68 36.7501 55.13 36.6401 55.57C36.5601 55.91 36.4601 56.25 36.3701 56.59C36.3301 56.73 36.2801 56.87 36.2401 57.02C36.0001 57.84 36.3401 56.77 36.3301 56.77C36.4901 57.06 35.6001 58.58 35.4401 58.89C35.3801 59.01 35.2901 59.14 35.2501 59.26C35.0801 59.74 35.6201 58.73 35.3201 59.14C35.1401 59.4 34.9801 59.68 34.8001 59.94C34.5801 60.26 34.3401 60.56 34.1101 60.87C33.7601 61.35 33.4301 61.84 33.1201 62.34C32.1701 63.83 31.3101 65.37 30.4901 66.93C25.7801 75.89 22.5801 85.72 19.9901 95.48C15.9001 110.9 13.5701 126.82 12.5401 142.73C11.3301 161.52 11.6801 180.37 12.5001 199.17C13.1101 213.09 14.2701 227.05 14.0501 240.99C14.0301 242.26 13.9901 243.53 13.9301 244.8C13.9101 245.26 13.7501 246.5 13.9501 244.55C13.9201 244.82 13.9101 245.09 13.8901 245.36C13.8501 245.91 13.8001 246.47 13.7501 247.02C13.6501 248.03 13.5101 249.04 13.3601 250.05C13.1901 251.13 13.5601 249.08 13.4301 249.68C13.3901 249.89 13.3501 250.09 13.3001 250.3C13.2101 250.72 13.1101 251.14 13.0001 251.55C12.9201 251.85 12.5201 253.1 12.8101 252.22C13.1001 251.34 12.8701 252.03 12.7901 252.24C12.6601 252.55 12.5401 252.87 12.4101 253.18C11.8201 254.62 11.2201 256.05 10.6001 257.48C9.24006 260.65 7.87006 263.8 6.56006 266.99C3.87006 273.54 1.24006 280.32 0.300055 287.38C-0.449945 293.01 -0.239944 301.02 5.42006 304.17C10.0801 306.76 16.1901 306.86 21.3801 306.84C28.3201 306.82 35.2701 306.1 42.1401 305.17C47.1801 304.49 52.1901 303.34 57.2501 302.94C61.8801 302.57 66.5401 302.59 71.1801 302.66C84.2501 302.85 97.3101 303.66 110.36 304.45C123.41 305.24 136.31 306.14 149.29 306.7C156.31 307 163.41 307.15 170.34 305.76C175.39 304.75 180.48 302.96 184.44 299.57C187.95 296.57 190.48 292.7 192.18 288.42C194.92 281.54 196.36 274.04 195.83 266.64C195.64 263.95 195.06 261.24 194.04 258.73C193.65 257.78 193.18 256.78 192.53 255.99L193.01 264.47C194.17 261.36 195.33 258.24 196.49 255.13C199.21 247.83 201.93 240.53 204.65 233.23C207.84 224.68 211.02 216.12 214.21 207.57C216.72 200.82 219.24 194.07 221.75 187.32C222.56 185.14 223.27 182.87 224.22 180.75C225.45 178.02 226.42 175.19 227.26 172.32C229.37 165.12 230.69 157.67 231.73 150.25C233.52 137.39 234.28 124.39 234.56 111.42C234.65 107.23 234.68 103.03 234.67 98.84C234.67 96.41 234.77 93.93 234.46 91.52C234.09 88.6 233.71 85.69 233.34 82.77C232.32 74.84 231.31 66.92 230.29 58.99C230.22 58.47 230.16 57.94 230.09 57.42L229 63.52C232.67 58.77 236.04 53.73 239.03 48.52C241.27 44.6 243.42 40.52 244.54 36.11C245.17 33.63 245.36 31.13 245.25 28.58C245.12 25.39 244.8 22.16 243.8 19.12C242.93 16.48 241.66 13.69 239.2 12.16C236.74 10.63 234.15 11.05 231.61 11.86C230.86 12.1 230.34 13.77 230.19 14.34C229.85 15.62 229.76 17.19 229.95 18.5C230.18 20.06 230.77 22.94 232.87 22.27C234.85 21.64 236.74 21.75 238.13 22.7C238.32 22.83 238.5 22.98 238.68 23.13C238.11 22.68 238.68 23.13 238.78 23.27C238.93 23.47 239.09 23.65 239.23 23.86C239.27 23.92 239.71 24.63 239.4 24.09C239.09 23.55 239.5 24.31 239.53 24.37C239.65 24.62 239.75 24.88 239.86 25.13C240.27 26.04 239.6 24.14 239.86 25.13C239.94 25.42 240.03 25.71 240.1 26C240.14 26.18 240.18 26.79 240.3 26.92L240.18 26.26C240.22 26.48 240.25 26.69 240.28 26.91C240.37 27.53 240.44 28.15 240.49 28.77C240.58 29.9 240.44 28.58 240.49 28.57C240.49 28.57 240.52 29.58 240.52 29.66C240.52 29.97 240.52 30.27 240.52 30.58C240.54 31.43 240.73 28.97 240.55 29.99C240.52 30.15 240.5 30.32 240.48 30.48C240.39 31.34 240.79 29.16 240.57 30.01C240.47 30.4 240.38 30.8 240.27 31.2C240.22 31.39 240.16 31.57 240.1 31.76C239.94 32.31 240.16 32.47 240.17 31.58C240.17 32.03 239.75 32.7 239.58 33.12C238.77 35.1 237.8 37.01 236.77 38.88C236.65 39.09 236.53 39.3 236.42 39.52C235.94 40.39 236.82 38.84 236.32 39.69C236.02 40.19 235.73 40.7 235.43 41.2C234.86 42.15 234.28 43.08 233.69 44.01C231.8 46.97 229.81 49.85 227.72 52.67C227.35 53.17 226.95 53.66 226.59 54.17C225.26 56.1 225.28 58.6 225.56 60.85C225.84 63.1 226.13 65.32 226.42 67.56C227.33 74.66 228.24 81.77 229.15 88.87C229.4 90.82 229.61 92.78 229.9 94.72C230.04 95.64 229.9 92.91 229.86 94.49C229.82 96.4 229.9 98.32 229.9 100.23C229.9 103.67 229.88 107.11 229.81 110.55C229.75 113.7 229.65 116.84 229.52 119.99C229.46 121.39 229.39 122.8 229.32 124.2C229.29 124.82 229.25 125.43 229.22 126.05C229.3 124.47 229.24 125.75 229.22 126.07C229.19 126.55 229.16 127.02 229.13 127.5C228.8 132.41 228.37 137.31 227.8 142.19C227.34 146.1 226.8 149.99 226.13 153.87C226.07 154.24 226 154.6 225.94 154.97C225.9 155.18 225.86 155.4 225.82 155.61C225.66 156.49 226.07 154.29 225.9 155.16C225.75 155.96 225.59 156.76 225.43 157.56C225.15 158.93 224.85 160.29 224.53 161.65C224.03 163.77 223.47 165.89 222.82 167.97C222.7 168.36 222.58 168.75 222.45 169.14C222.39 169.32 222.33 169.5 222.27 169.67C222.07 170.27 222.76 168.27 222.41 169.26C222.2 169.84 222 170.42 221.77 170.99C220.29 174.78 218.8 178.57 217.38 182.39C212.57 195.3 207.77 208.21 202.96 221.12C198.86 232.12 194.77 243.12 190.67 254.12C190.35 254.99 190.02 255.85 189.7 256.72C188.7 259.48 188.55 262.8 190.16 265.36C190.27 265.53 190.38 265.72 190.5 265.87C190.12 265.4 190.03 264.97 190.33 265.6C190.44 265.84 190.55 266.07 190.65 266.31C190.85 266.8 190.92 267.75 190.67 266.28C190.73 266.62 190.88 266.97 190.96 267.3C191 267.47 191.04 267.65 191.08 267.82C191.3 268.7 190.9 266.5 191.01 267.43C191.07 267.94 191.16 268.44 191.2 268.95C191.24 269.42 191.1 270.23 191.2 268.65C191.18 268.95 191.22 269.26 191.22 269.56C191.22 269.88 191.22 270.2 191.22 270.53C191.22 270.67 191.22 271.79 191.22 270.84C191.22 269.89 191.19 271.06 191.18 271.19C191.14 271.57 191.1 271.94 191.05 272.32C191 272.72 190.93 273.11 190.88 273.51C190.78 274.07 190.79 274.06 190.9 273.47C190.86 273.69 190.82 273.9 190.77 274.12C190.51 275.35 190.2 276.56 189.86 277.76C189.75 278.14 189.64 278.52 189.52 278.9C189.46 279.1 189.39 279.31 189.32 279.51C189.08 280.29 189.72 278.39 189.38 279.32C188.84 280.82 188.24 282.29 187.5 283.71C187.42 283.86 187.34 284.01 187.26 284.16C186.91 284.84 187.75 283.38 187.34 284.03C187.12 284.37 186.92 284.73 186.7 285.07C186.27 285.72 185.81 286.36 185.31 286.96C184.81 287.56 184.27 288.15 183.71 288.72C184.26 288.16 183.55 288.86 183.35 289.04C183 289.35 182.64 289.64 182.27 289.93C179.23 292.26 175.53 293.77 172.12 294.6C162.29 296.99 151.97 296.1 141.97 295.58C121.37 294.49 100.79 292.86 80.1601 292.13C72.4701 291.86 64.6701 291.55 56.9901 292.2C53.4001 292.5 49.8601 293.27 46.3001 293.81C41.0301 294.61 35.7401 295.27 30.4301 295.68C25.4201 296.07 20.3501 296.28 15.3301 295.86C13.3101 295.69 11.3001 295.39 9.33006 294.88C9.27006 294.86 8.54006 294.63 9.08006 294.81C8.90006 294.75 8.73006 294.69 8.56006 294.63C8.20006 294.5 7.84006 294.36 7.48006 294.2C6.78006 293.88 6.16006 293.48 5.53006 293.04C5.34006 292.91 5.01006 292.49 5.56006 293.11C5.46006 292.99 5.34006 292.89 5.25006 292.77C5.16006 292.65 5.06006 292.52 4.96006 292.4C4.45006 291.78 5.21006 292.43 5.05006 292.61C5.05006 292.61 4.82006 292.13 4.80006 292.09C4.50006 291.5 4.97006 291.69 4.90006 292.44C4.90006 292.36 4.80006 292.11 4.79006 292.05C4.48006 290.89 4.89006 293.14 4.82006 292.3C4.80006 292.08 4.77006 291.86 4.74006 291.64C4.60006 290.73 4.76006 292.95 4.78006 292.27C4.78006 291.86 4.86006 291.34 4.78006 290.94C5.01006 292.23 4.70006 292.01 4.76006 291.36C4.78006 291.1 4.81006 290.83 4.84006 290.57C4.91006 290.02 5.03006 289.48 5.09006 288.93C4.90006 290.6 5.14006 288.77 5.23006 288.36C5.36006 287.81 5.49006 287.27 5.63006 286.73C5.96006 285.48 6.34006 284.24 6.74006 283.02C6.80006 282.83 7.17006 281.75 6.80006 282.84C6.91006 282.52 7.02006 282.2 7.14006 281.88C7.33006 281.34 7.53006 280.8 7.73006 280.26C8.22006 278.94 8.73006 277.64 9.25006 276.33C12.5301 268.16 17.0301 260.26 18.1601 251.43C19.2901 242.6 18.8301 233.67 18.4601 224.87C17.9501 212.73 17.2201 200.61 16.8301 188.46C16.6001 181.41 16.4801 174.35 16.5001 167.29C16.5101 163.58 16.5701 159.88 16.6701 156.17C16.7201 154.38 16.7801 152.59 16.8501 150.8C16.8901 149.85 16.9301 148.9 16.9801 147.96C17.0001 147.49 17.0301 147.02 17.0601 146.56C17.1401 145 16.9901 147.69 17.0901 146.14C17.5201 139.47 18.1601 132.82 19.0801 126.2C19.5001 123.2 19.9701 120.2 20.4901 117.22C20.5601 116.85 20.6201 116.47 20.6901 116.1C20.9201 114.83 20.4801 117.17 20.7201 115.91C20.8401 115.3 20.9501 114.7 21.0701 114.09C21.3501 112.68 21.6401 111.26 21.9501 109.85C23.0101 104.97 24.2401 100.13 25.6801 95.34C25.9901 94.32 26.3001 93.3 26.6301 92.28C26.8001 91.75 26.9701 91.21 27.1501 90.68C27.2401 90.42 27.3401 90.16 27.4101 89.9C27.0801 91.12 27.2901 90.26 27.3901 89.97C28.0201 88.13 28.6901 86.31 29.4001 84.5C30.5801 81.49 31.8701 78.52 33.3301 75.64C33.6101 75.08 33.9001 74.53 34.2001 73.98C34.3401 73.72 34.4801 73.47 34.6201 73.21C35.0201 72.47 34.1101 74.08 34.7001 73.08C35.2001 72.23 35.7201 71.39 36.2901 70.58C37.3401 69.09 38.3501 67.63 39.1001 65.95C40.3101 63.23 40.9701 60.34 41.4801 57.42C42.2701 52.82 42.3501 48.06 42.0901 43.41C42.0001 41.76 41.9001 40.11 41.7001 38.46C41.4501 36.34 40.6501 34.33 40.0701 32.28C39.6701 30.88 39.3001 29.47 38.9801 28.05C38.8501 27.47 38.7201 26.89 38.6001 26.3L38.5301 25.96C38.4301 25.41 38.4401 25.52 38.5901 26.26C38.5701 26.26 38.4001 25.1 38.3801 25C38.2201 23.95 38.1301 22.9 38.0301 21.84C38.2101 23.76 38.0601 22.21 38.0601 21.74C38.0601 21.5 38.0601 21.26 38.0601 21.02C38.0601 19.69 37.9301 22.19 38.0301 21.31C38.0701 20.96 38.1101 20.6 38.1501 20.25C38.2001 19.79 38.5001 19.23 38.0401 20.74C38.0901 20.56 38.1201 20.36 38.1601 20.17C38.2301 19.88 38.3601 19.58 38.4101 19.28C38.2001 20.51 38.1001 20.12 38.2801 19.71C38.3701 19.5 38.4601 19.29 38.5501 19.09C38.5901 18.99 38.6601 18.89 38.7001 18.79C38.9201 18.18 38.1501 19.59 38.5401 19.07C38.7301 18.82 38.8801 18.54 39.0701 18.29C39.2301 18.08 39.4001 17.89 39.5601 17.69C39.6601 17.57 39.7801 17.47 39.8801 17.36C39.2701 18.09 39.6601 17.56 39.8801 17.38C41.9001 15.76 44.2501 14.84 46.7001 14.08C46.0101 14.29 47.0001 13.99 47.1301 13.96C47.4901 13.85 47.8601 13.75 48.2201 13.65C48.9801 13.44 49.7301 13.23 50.4901 13.02C51.2501 12.81 51.9301 12.61 52.6401 12.4C53.1201 12.26 53.5901 12.11 54.0701 11.96C54.3001 11.89 55.6801 11.46 54.9001 11.68C57.6101 10.89 60.4601 10.76 63.2701 10.9C71.5801 11.3 79.8101 13.63 87.7801 15.86C99.5101 19.14 111.13 22.82 122.84 26.22C129.54 28.17 136.26 30.26 143.09 31.71C149.1 32.99 155.22 33.7 161.35 33.99C181.93 34.96 202.76 31.49 222.47 25.68C225.97 24.65 229.48 23.59 232.9 22.29C233.66 22 234.16 20.43 234.32 19.81C234.66 18.53 234.75 16.96 234.56 15.65C234.35 14.2 233.71 11.09 231.64 11.88L231.62 11.81Z" fill="black"/>
<path d="M73.3701 42.4402C75.9601 47.6102 81.8601 49.4702 86.8901 51.4002C91.9201 53.3302 97.2701 55.1002 102.52 56.7402C112.79 59.9302 123.53 62.2202 134.34 62.0402C140.34 61.9402 146.83 61.2202 152.46 59.0302C155.05 58.0302 155.59 53.9102 155.03 51.5802C154.44 49.1402 152.88 46.7102 150.08 47.5102C148.9 47.8402 147.75 48.2402 146.57 48.5702C145.15 48.9602 144.6 49.0902 143.15 49.3702C140.75 49.8302 138.32 50.1302 135.88 50.3002C130.83 50.6502 125.76 50.4302 120.74 49.7802C110.56 48.4702 100.51 45.2502 90.7601 41.7702C88.1001 40.8202 85.4001 39.9902 82.7501 39.0202C81.5901 38.6002 80.4101 38.3602 79.2301 38.0102C77.8901 37.6102 76.7101 36.9502 75.3101 36.8502C72.8801 36.6702 72.6501 41.0102 73.3601 42.4302L73.3701 42.4402Z" fill="black"/>
<path d="M185.24 54.4497C186.77 54.4197 188.3 54.4697 189.82 54.6197C190.59 54.6897 191.36 54.7897 192.12 54.9097C192.2 54.9197 193.08 55.0697 192.64 54.9897C193.02 55.0597 193.39 55.1297 193.76 55.1997C195.22 55.4797 196.65 55.8397 198.07 56.2797C199.76 56.8097 201.28 57.5097 203.09 57.5397C204.9 57.5697 206.05 55.2097 206.25 53.6897C206.37 52.7797 206.34 51.8597 206.18 50.9597C206.02 50.0597 205.4 48.4797 204.55 47.9297C204 47.5697 203.44 47.1297 202.83 46.8797C202.28 46.6597 201.67 46.5997 201.1 46.4997C200.31 46.3697 199.51 46.2597 198.72 46.1797C197.22 46.0297 195.7 45.9597 194.19 45.9897C190.91 46.0497 187.6 46.7297 184.46 47.6197C183.85 47.7897 183.31 48.7197 183.13 49.2597C182.89 49.9897 182.83 50.7297 182.91 51.4897C183.05 52.6997 183.74 54.4897 185.23 54.4597L185.24 54.4497Z" fill="black"/>
<path d="M140.83 272.13C142.63 273.29 144.4 274.5 146.23 275.62C147.95 276.68 149.86 277.47 151.67 278.36C155.22 280.11 158.8 281.79 162.34 283.53C165.88 285.27 169.28 286.97 172.69 288.79C176.1 290.61 179.72 292.76 183.37 294.41C185.49 295.37 187.06 292.84 187.47 291.18C187.96 289.22 187.81 285.73 185.85 284.47C182.37 282.25 178.66 280.42 174.97 278.56C171.28 276.7 167.93 275.01 164.39 273.27C160.85 271.53 157.46 269.85 153.92 268.3C152.17 267.53 150.43 266.65 148.63 266.01C146.74 265.33 144.68 264.95 142.74 264.46C139.04 263.53 138.32 270.51 140.82 272.12L140.83 272.13Z" fill="black"/>
<path d="M40.27 267.41C44.43 267.84 48.54 268.44 52.69 269.02C54.75 269.31 56.81 269.69 58.9 269.76L65.1 269.99C72.75 270.27 80.55 270.88 88.17 269.89C92.34 269.35 96.49 268.28 100.21 266.27C102.44 265.06 103.08 261.89 102.52 259.57C102.1 257.84 100.4 254.64 98.07 255.91C93.99 258.13 90.11 258.97 85.56 259.35C81.01 259.73 76.21 259.53 71.54 259.55C68.98 259.55 66.42 259.57 63.87 259.58C61.32 259.59 58.57 259.47 55.95 259.76C50.68 260.34 45.44 260.97 40.14 261.35C37.4 261.55 37.63 267.15 40.29 267.42L40.27 267.41Z" fill="black"/>
<path d="M55.4901 225.67C57.2201 220.94 59.5101 216.37 61.7501 211.87C66.1001 203.11 70.5801 195.04 75.6101 186.84C81.9701 176.47 88.9001 166.44 96.5401 156.98C104.18 147.52 113.35 137.77 123.31 129.83C133.27 121.89 143.48 115.8 155.16 112.22C156.55 111.79 157.95 111.42 159.36 111.08C161.59 110.54 161.08 103.91 159.36 104.33C147.3 107.23 136.21 113.08 126.28 120.43C116.35 127.78 106.72 137.29 98.4101 147.1C90.1001 156.91 83.0501 166.81 76.3901 177.37C70.8901 186.08 65.7801 195.06 61.1001 204.24C58.4701 209.41 55.8601 214.65 53.7301 220.05C53.6201 220.34 53.5101 220.62 53.4001 220.91C52.8601 222.39 52.7301 224.22 53.4001 225.68C53.9101 226.8 55.0201 227 55.5001 225.68L55.4901 225.67Z" fill="black"/>
<path d="M164.14 111.12C166.5 110.9 168.8 109.94 171.15 109.57C173.5 109.2 175.87 109.12 178.23 109.3C180.59 109.48 182.94 109.98 185.19 110.77C187.04 111.42 188.77 112.19 189.98 113.78C189.8 113.54 190.14 113.97 190.08 114C190.05 114.01 189.97 113.6 189.97 113.55C190.02 112.49 190.27 112.7 189.81 113.06C188.94 113.75 187.92 114.21 186.92 114.68C184.83 115.66 182.66 116.47 180.44 117.1C176 118.37 171.32 118.86 166.7 118.68C161.42 118.47 156.27 117.29 151.41 115.21C148.47 113.95 147.76 120.62 150.39 121.75C160.59 126.12 172.2 126.58 182.77 123.28C185.34 122.48 187.9 121.47 190.25 120.15C193.19 118.5 194.83 115.66 194.27 112.23C193.32 106.37 186.93 104.03 181.83 103.07C178.66 102.47 175.45 102.3 172.24 102.7C169.03 103.1 165.58 103.81 163.05 105.86C161.76 106.91 161.84 111.34 164.12 111.12H164.14Z" fill="black"/>
<path d="M147.85 123.51C154.62 124.64 161.28 126.24 167.33 129.61C169.81 130.99 172.24 132.74 173.94 135.04C174.61 135.94 175.24 137.08 175.43 137.86C175.43 137.86 175.6 138.99 175.55 138.39C175.55 138.37 175.55 139.53 175.58 138.95C175.53 139.62 175.47 139.9 175.14 140.59C174.1 142.77 171.52 144.41 169.19 145.29C166.18 146.42 162.74 146.65 159.61 145.88C154.4 144.61 150.28 141.13 146.42 137.58C144.17 135.51 141.97 133.37 139.59 131.44C137.21 129.51 134.35 127.34 131.32 126.46C127.62 125.38 127.49 132.45 130.17 133.81C132.85 135.17 135.14 136.41 137.5 138.28C139.86 140.15 142.02 142.17 144.25 144.14C149.01 148.34 154.21 152.14 160.67 152.96C167.67 153.84 175.83 150.97 178.9 144.22C182.19 136.99 177.75 129.41 171.84 125.22C168.43 122.8 164.52 120.91 160.53 119.71C158.46 119.09 156.35 118.64 154.22 118.3C152.09 117.96 149.93 117.99 147.72 118.24C145.31 118.51 145.6 123.11 147.85 123.49V123.51Z" fill="black"/>
<path d="M132.26 137.91C136.47 139.67 140.89 141.63 144.35 144.66C145.93 146.04 147.49 147.64 148.45 149.53C148.87 150.36 149.08 151.05 149.24 151.83C149.26 151.92 149.3 152.48 149.27 151.98C149.28 152.2 149.3 152.44 149.28 152.67C149.31 152.12 149.26 152.7 149.24 152.78C149.4 152.31 149.06 153.25 149.06 153.25C148.4 154.54 145.97 155.2 144.37 155.43C141.9 155.78 139.38 155.88 136.89 155.81C131.78 155.67 126.77 154.66 121.97 152.89C119.22 151.88 116.61 150.59 114.07 149.15C112.97 148.53 111.86 147.92 110.61 147.64C108.8 147.23 107.45 147.49 105.93 148.56C104.53 149.55 104.52 152.21 104.97 153.62C105.38 154.89 106.55 156.63 108.15 155.88C110.27 154.87 112.88 157.04 114.78 157.95C117.32 159.17 119.97 160.16 122.68 160.92C128.24 162.48 134.12 163.17 139.9 162.84C145.14 162.54 151.35 161.73 153.2 155.94C155.05 150.15 152 144.45 148.15 140.41C144.08 136.15 138.59 132.92 132.56 133.21C130.5 133.31 130.66 137.25 132.26 137.91Z" fill="black"/>
<path d="M108.74 157.41C110.97 157.66 113.03 158.33 115.14 159.04C117.25 159.75 119.06 160.71 120.68 162.13C122.14 163.41 123.17 164.9 123.79 166.68C124.31 168.19 124.41 169.74 124.02 171.18C123.6 172.75 122.37 174.39 120.8 175.49C119.1 176.68 117.03 177.41 115.06 178.01C110 179.54 104.72 180.45 99.4601 180.96C96.4901 181.25 93.5001 181.39 90.5101 181.38C87.3601 181.37 84.2201 180.94 81.0801 180.93C79.4201 180.93 78.7201 183.08 78.6401 184.38C78.5601 185.68 78.97 188.33 80.59 188.63C83.74 189.21 87.0301 189.18 90.2301 189.12C93.4301 189.06 96.5201 188.84 99.6401 188.46C105.55 187.73 111.58 186.54 117.18 184.48C122.78 182.42 126.88 178.97 128.23 173.27C129.46 168.09 128.06 162.12 124.56 158.09C122.6 155.83 120.15 154.1 117.39 152.96C114.63 151.82 111.56 151.59 108.58 151.82C106.06 152.01 106.28 157.13 108.72 157.4L108.74 157.41Z" fill="black"/>
<path d="M80.1301 188.12C82.2101 188 84.2001 187.06 86.3101 186.88C88.4201 186.7 90.4501 186.82 92.4201 187.41C94.3901 188 96.2101 188.92 97.7601 190.28C98.4301 190.87 98.8701 191.59 99.4601 192.21C100.34 193.12 99.5301 192.56 99.5701 192.49V191.95C99.5401 192.09 99.5101 192.22 99.4901 192.36C99.2701 192.82 98.9701 193.31 98.6701 193.76C93.6701 201.07 84.8801 205.99 76.3201 207.64C73.7701 208.13 71.1701 208.38 68.5801 208.36C67.3401 208.36 66.1001 208.28 64.8701 208.16C63.5301 208.02 62.1701 207.67 60.8301 207.66C59.2401 207.66 58.5701 209.73 58.4901 210.97C58.4001 212.41 58.8301 214.44 60.3501 215.04C62.8601 216.03 66.0901 215.98 68.7601 215.91C71.4301 215.84 73.9501 215.5 76.4901 214.93C81.7701 213.75 86.7201 211.66 91.2301 208.67C93.5301 207.14 95.6901 205.46 97.6501 203.51C99.7201 201.46 101.82 199.13 103.03 196.46C104.58 193.05 104.08 189.15 101.66 186.29C99.9101 184.22 97.7201 182.58 95.2201 181.52C90.1801 179.37 82.4701 179.19 78.8901 184.03C78.1401 185.05 78.3401 188.23 80.1101 188.12H80.1301Z" fill="black"/>
<path d="M65.31 191.15C65.81 188.81 65.48 186.16 65.47 183.77C65.46 181.38 65.49 178.94 65.58 176.52C65.75 172 66.21 167.41 67.1 162.91C67.94 158.66 69.24 154.43 71.15 150.53C71.92 148.96 72.8 146.92 74.5 146.18C75.13 145.9 75.95 145.76 76.6 146.06C77.19 146.32 77.27 146.91 77.37 147.27C79.03 152.94 80.21 158.78 81.06 164.62C81.24 165.86 82.42 167.53 83.84 166.91C85.36 166.25 85.48 164.09 85.29 162.72C84.43 156.79 83.2 150.89 81.53 145.13C80.82 142.68 79.75 139.97 76.98 139.34C74.49 138.77 72.1 139.88 70.47 141.76C68.68 143.82 67.53 146.4 66.47 148.89C65.41 151.38 64.62 153.72 63.95 156.21C62.54 161.46 61.74 166.81 61.38 172.23C61.17 175.38 61.05 178.53 61.03 181.69C61.03 183.15 61.03 184.62 61.06 186.08C61.1 187.79 61 189.59 61.44 191.25C61.68 192.18 62.26 193.47 63.42 193.44C64.58 193.41 65.09 192.1 65.29 191.16L65.31 191.15Z" fill="black"/>
<path d="M84.02 156.21C84.54 151.48 85.18 146.67 86.31 142.04C87.27 138.12 88.68 133.93 91.64 131.05C94.21 128.56 98.41 127.04 101.81 128.72C103.13 129.37 103.84 130.47 104.25 131.45C104.38 131.81 104.39 131.84 104.29 131.55C104.34 131.75 104.38 131.95 104.41 132.16C104.25 131.25 104.3 133.13 104.41 132.19C104.39 132.39 104.36 132.59 104.31 132.78C104.39 132.45 104.37 132.47 104.26 132.83C104.53 132.49 103.91 133.38 103.84 133.47C102.91 134.75 103.07 136.99 103.96 138.24C104.85 139.49 106.22 139.37 107.09 138.16C109.55 134.75 109.19 129.96 107.22 126.43C105.25 122.9 101.76 121.1 97.87 121.4C88.49 122.12 84.29 131.69 82.33 139.62C80.97 145.12 80.56 150.65 81.36 156.26C81.63 158.17 83.79 158.09 84 156.2L84.02 156.21Z" fill="black"/>
<path d="M109.81 125.98C110.4 119.66 113.6 113.67 118.31 109.45C120.71 107.3 123.44 105.58 126.46 104.42C127.97 103.84 129.62 103.31 131.25 103.24C131.61 103.23 131.92 103.31 132.26 103.33C132.8 103.36 132.58 103.87 132.32 103.04C132.25 102.82 132.36 102.35 132.25 102.65C132.07 103.17 132.2 103.02 132.01 103.55C130.32 108.48 128.3 113.32 126.45 118.19C125.91 119.61 126.12 121.77 127.36 122.79C128.6 123.81 129.89 122.75 130.36 121.51C131.34 118.92 132.33 116.34 133.31 113.75C134.24 111.31 135.32 108.87 136.08 106.37C136.84 103.87 137.08 100.82 135.48 98.5598C134 96.4598 131.59 96.2798 129.27 96.7698C121.13 98.4898 113.99 104.05 110.23 111.48C108.02 115.84 106.89 120.61 107.14 125.5C107.18 126.25 107.49 127.35 108.36 127.5C109.18 127.64 109.74 126.71 109.81 125.99V125.98Z" fill="black"/>
<path d="M137.91 108.62C143.35 104.33 148.65 99.93 154.98 96.97C156.52 96.25 158.1 95.6 159.71 95.02C161.39 94.41 163.14 93.75 164.96 93.8C165.62 93.82 166.29 93.96 166.85 94.34C166.92 94.39 167.4 94.8 167.36 94.82C167.3 94.85 167.22 93.77 167.25 93.8C167.25 93.8 167.27 93.68 167.29 93.68C167.28 93.68 167.02 94.11 167 94.14C166.81 94.41 166.58 94.65 166.35 94.89C165.75 95.51 165.1 96.08 164.49 96.68C161.42 99.73 158.85 103.28 156.92 107.15C156.19 108.61 156.05 110.52 157.04 111.92C157.84 113.04 159.48 113.23 160.17 111.84C162.11 107.97 164.63 104.55 167.78 101.57C169.37 100.07 170.83 98.46 171.38 96.29C172.05 93.68 171.42 90.82 169.47 88.91C166.14 85.63 161.15 87.46 157.41 88.89C153.44 90.41 149.72 92.48 146.23 94.89C142.21 97.66 138.7 101.16 136.13 105.31C135.42 106.45 136.07 110.06 137.91 108.62Z" fill="black"/>
</g>
<defs>
<clipPath id="clip0_3416_10276">
<rect width="245.28" height="306.88" fill="white"/>
</clipPath>
</defs>
</svg>
