<svg width="135" height="275" viewBox="0 0 135 275" fill="none" xmlns="http://www.w3.org/2000/svg">
<g clip-path="url(#clip0_3416_9951)">
<path d="M10.6 97.2402C10.75 106.25 10.57 115.26 10.79 124.28C11.04 134.37 11.61 144.46 12.09 154.54C13.13 176.37 14.47 198.18 15.91 219.99C16.72 232.24 17.6 244.49 18.54 256.73C18.7 258.76 19.6 262.11 22.22 262.04C24.69 261.98 25.78 258.54 25.63 256.55C23.95 234.62 22.37 212.68 20.89 190.73C20.16 179.91 19.39 169.09 18.59 158.27C17.84 148.09 17.28 137.88 16.36 127.71C15.43 117.51 14.13 107.36 13.17 97.1602C13.1 96.4102 12.8 95.2402 11.84 95.2402C10.88 95.2402 10.6 96.5202 10.61 97.2202L10.6 97.2402Z" fill="#1D1D1B"/>
<path d="M25.94 261.03C28.7 262.9 31.49 264.75 34.57 266.06C37.65 267.37 40.62 268.51 43.71 269.55C46.8 270.59 49.88 271.41 53.06 272.07C56.24 272.73 59.58 273.43 62.86 273.71C75.6 274.8 88.5 273.98 100.98 271.26C104.58 270.47 108.14 269.57 111.66 268.5C113.34 267.99 115 267.44 116.65 266.86C117.48 266.57 118.3 266.27 119.12 265.96C120.61 265.4 121.54 264.58 122.3 263.17C123.63 260.68 123.41 257.08 120.79 255.56C119.67 254.91 118.83 254.95 117.6 255.37C116.84 255.63 116.1 255.94 115.34 256.21C113.83 256.76 112.31 257.27 110.78 257.76C107.86 258.69 104.9 259.5 101.91 260.21C96.3 261.54 89.85 262.5 83.82 262.99C71.36 263.99 58.96 262.82 46.59 261.38C43.25 260.99 39.93 260.46 36.64 259.77C33.35 259.08 29.82 258.62 26.38 258.1C25.13 257.91 25.2 260.55 25.93 261.05L25.94 261.03Z" fill="#1D1D1B"/>
<path d="M124.08 98.07C123.22 102.99 122.49 107.94 121.87 112.9C121.51 115.76 121.54 118.71 121.42 121.6C121.31 124.22 121.19 126.84 121.11 129.46C120.79 140.02 120.47 150.58 120.14 161.14C119.49 182.34 118.79 203.54 118.05 224.74C117.64 236.38 116.84 248.09 117.11 259.73C117.15 261.5 117.98 264.22 120.05 264.52C122.12 264.82 123.35 262.65 123.53 260.89C124.59 250.26 124.7 239.53 125.07 228.86C125.44 218.19 125.78 207.74 126.11 197.18C126.78 175.98 127.43 154.78 128.07 133.58C128.25 127.79 128.36 122.01 128.47 116.22C128.52 113.32 128.18 110.4 127.96 107.51C127.74 104.62 127.46 101.59 127.14 98.63C127.05 97.76 126.78 96.51 125.74 96.34C124.7 96.17 124.22 97.26 124.08 98.07Z" fill="#1D1D1B"/>
<path d="M4.08 74.2503C20.28 75.5103 36.58 74.6803 52.81 74.6803C69.04 74.6803 85.54 75.2203 101.89 76.0503C111.41 76.5303 120.92 77.0303 130.44 77.5203L126.76 72.2103C126.82 74.3503 126.82 76.4703 126.73 78.6103C126.7 79.2703 126.67 79.9203 126.64 80.5803C126.62 80.8703 126.57 82.3503 126.62 81.0303C126.58 82.0803 126.47 83.1403 126.38 84.1903C125.98 88.8903 125.12 93.5403 124.9 98.2403L128.74 92.0603C128.45 92.1103 128.15 92.1603 127.86 92.2203L126.82 92.4603C127.37 92.3303 127.43 92.2903 126.99 92.3403C126.43 92.3003 125.84 92.4003 125.28 92.4303C124.18 92.4903 123.07 92.5403 121.97 92.6003C119.9 92.7003 117.82 92.8003 115.75 92.8903C111.99 93.0603 108.22 93.2003 104.45 93.3203C97.43 93.5403 90.39 93.4603 83.37 93.3903C62.23 93.1903 41.09 92.4703 19.95 92.3603C16.69 92.3403 13.34 92.5803 10.1 92.1703C9.78 92.1303 9.46 92.0903 9.14 92.0303C10.19 92.2203 8.87 91.9203 8.67 91.8503C8.39 91.7503 8.12 91.6203 7.84 91.5203C7.44 91.3103 7.49 91.3503 8.01 91.6503C7.85 91.5403 7.7 91.4203 7.55 91.3003C6.78 90.7903 8.03 92.1103 7.53 91.3003C7.03 90.4903 7.8 92.1703 7.47 91.1803L7.65 91.7503C7.54 91.1403 7.54 91.2303 7.64 92.0303C7.47 91.6103 7.59 90.8303 7.59 90.3803C7.56 86.4303 7.44 82.4903 7.26 78.5503C7.19 77.0603 7.12 75.5603 7.11 74.0603C7.11 73.7903 7.11 73.5303 7.11 73.2603C7.13 71.9203 6.94 74.3903 7.08 73.6103C7.11 73.4603 7.15 73.2703 7.15 73.1203C7.13 73.9103 6.33 75.4203 5.89 75.7603C9.39 73.0603 6.74 62.9403 2.08 66.5303C-0.240001 68.3303 -0.020001 72.5403 0.029999 75.1403C0.099999 78.5103 0.339999 81.8703 0.439999 85.2303C0.559999 89.4103 -0.200001 93.8503 1.52 97.8003C3.1 101.42 6.27 103.45 10.07 104.06C13.09 104.54 16.23 104.36 19.27 104.41C22.98 104.47 26.68 104.56 30.39 104.58C36.95 104.62 43.52 104.68 50.08 104.73C67.11 104.87 84.15 105.12 101.18 104.75C105.47 104.65 109.77 104.61 114.06 104.51C116.44 104.45 118.81 104.39 121.19 104.32C122.46 104.28 123.74 104.24 125.01 104.2C125.67 104.18 126.33 104.16 126.99 104.13C127.23 104.13 128.14 103.9 127.1 103.97C127.59 103.93 128.47 104.19 129.03 104.24C131.33 104.45 132.38 101.33 132.77 99.6803C133.3 97.4403 133.42 95.1303 133.57 92.8403C133.74 90.3403 133.88 87.8403 133.96 85.3303C134.1 80.9103 133.96 76.4703 133.84 72.0503C133.78 69.8803 132.73 66.8703 130.16 66.7403C113.32 65.8703 96.47 64.8403 79.62 64.3203C62.77 63.8003 46.92 63.4203 30.64 64.4103C26.11 64.6903 21.52 64.8503 17.04 65.5203C12.56 66.1903 7.89 67.0403 3.37 68.1503C2.11 68.4603 1.87 70.6303 1.99 71.6003C2.14 72.7803 2.71 74.1403 4.06 74.2503H4.08Z" fill="#1D1D1B"/>
<path d="M13.61 70.0002C15.61 66.7002 17.22 63.2202 19.69 60.2002C22.32 56.9902 25.55 54.2602 29.1 52.1302C36.39 47.7602 44.81 45.1002 53.2 43.9702C57.51 43.3902 61.9 43.2102 66.25 43.2702C70.6 43.3302 75.02 43.7802 78.94 44.6102C82.86 45.4402 86.82 46.6502 90.58 48.1902C92.41 48.9402 94.21 49.7602 95.96 50.6602C96.78 51.0802 97.59 51.5202 98.39 51.9702C99.54 52.6202 99.55 52.6202 100.57 53.2702C104.33 55.6602 107.86 58.4102 111.09 61.4702C111.85 62.1902 112.59 62.9202 113.31 63.6802C113.72 64.1002 114.11 64.5402 114.51 64.9602C114.86 65.3202 114.46 64.9002 114.41 64.8402C114.63 65.0802 114.84 65.3302 115.05 65.5802C116.52 67.2902 117.92 69.0802 119.28 70.8802C120.64 72.6802 123.08 72.8902 124.33 70.7602C125.67 68.4602 125.6 65.3002 124.14 63.0702C114.96 49.0502 99.22 38.8002 83.1 34.7402C74.03 32.4602 64.55 31.7602 55.31 33.3402C46.07 34.9202 37.03 38.1102 29.15 43.2602C24.69 46.1702 20.79 49.6102 17.53 53.8302C14.27 58.0502 11.73 62.6502 10.86 67.6902C10.71 68.5602 10.91 69.8302 11.66 70.4202C12.33 70.9502 13.16 70.7002 13.59 69.9902L13.61 70.0002Z" fill="#1D1D1B"/>
<path d="M24.01 52.38C23.79 45.55 22.6 36.61 28.93 32.05C31.53 30.18 34.7 29.33 37.85 29.48C41.25 29.64 44.44 31.19 46.94 33.11C48.64 34.41 50.21 35.89 51.68 37.44C52.04 37.82 52.39 38.2 52.74 38.59C53.06 38.95 52.73 38.57 52.67 38.51C52.88 38.75 53.09 38.99 53.31 39.24C54.31 40.39 55.17 41.51 56.55 42.23C58.01 43 59.5 41.45 60.05 40.3C60.84 38.65 61 36.27 60.17 34.59C59.05 32.3 57.12 30.57 55.29 28.84C53.77 27.41 52.18 26.05 50.44 24.9C46.77 22.47 42.64 20.74 38.17 20.82C29.05 20.98 22.22 28.32 20.87 37C20.04 42.34 20.97 47.62 21.9 52.87C22.23 54.72 24.07 54.01 24.02 52.38H24.01Z" fill="#1D1D1B"/>
<path d="M42.48 25.1202C44.96 19.9002 50.61 17.4202 55.91 16.0302C62.6 14.2802 69.67 14.2702 76.51 13.5902C91.2 12.1302 105.99 11.0302 120.76 10.7502C122.52 10.7202 124.47 10.6002 125.87 11.1102C126.14 11.2102 126.39 11.3302 126.65 11.4402C127.06 11.6602 127.08 11.6702 126.71 11.4602C126.89 11.5902 127.07 11.7202 127.24 11.8702C127.45 12.0502 128.01 12.7902 127.41 11.9602C127.49 12.0702 127.99 12.6602 127.94 12.7202C128.03 12.6102 127.45 11.8002 127.91 12.7702C128.31 13.6102 127.75 11.6602 127.93 12.8702C127.96 13.0702 127.97 13.5102 128.07 13.6702C127.98 12.8102 127.96 12.6802 128.01 13.2602C128.02 13.4902 128.03 13.7102 128.04 13.9402C128.04 14.2902 128.04 14.6402 128.03 14.9802C128.02 16.0502 128.17 13.8402 128.03 15.0002C127.92 15.8502 127.85 16.7102 127.75 17.5702L130.92 13.7102C125.81 14.5002 120.53 15.0502 115.37 14.6302C114.49 14.5602 113.53 15.4402 113.13 16.1202C112.5 17.2002 112.31 18.3702 112.27 19.6102C112.17 22.7202 112.36 25.8702 112.42 28.9902C112.48 32.1102 112.54 35.2402 112.6 38.3702C112.66 41.5002 112.72 44.4602 112.77 47.5002C112.84 50.9602 112.69 54.5402 113.45 57.9302C113.79 59.4402 114.83 61.5302 116.67 61.4902C118.51 61.4502 119.46 59.3102 119.71 57.7802C120.26 54.4202 119.94 50.9602 119.81 47.5702C119.69 44.4502 119.57 41.3202 119.45 38.2002C119.33 35.0802 119.21 32.1202 119.1 29.0702C118.98 25.8702 118.99 22.6402 118.7 19.4502L115.6 24.4302C120.75 24.0002 125.99 23.9802 131.16 24.0002C133.12 24.0002 133.99 21.6802 134.33 20.1402C135.81 13.3302 135.14 3.57021 127.5 0.710214C125.73 0.0802142 123.76 -0.0097858 121.91 0.000214198C119.8 0.0102142 117.68 0.0702142 115.57 0.130214C111.63 0.250214 107.69 0.420214 103.75 0.650214C95.54 1.12021 87.36 1.93021 79.2 2.92021C75.32 3.39021 71.46 3.92021 67.61 4.64021C63.76 5.36021 59.85 6.09021 56.21 7.53021C49.1 10.3402 42.74 15.8402 40.3 23.2802C40.04 24.0802 40.09 25.2702 40.8 25.8302C41.51 26.3902 42.15 25.7902 42.47 25.1202H42.48Z" fill="#1D1D1B"/>
<path d="M51.94 32.6401C56.26 30.3001 60.78 28.3101 65.6 27.2101C70.42 26.1101 75.77 25.9801 80.81 26.6901L77.67 22.1501C77.75 20.8001 77.53 22.5301 77.47 22.8801C77.3 23.8201 77.25 24.7501 77.21 25.7101C77.16 26.9701 77.12 28.2401 77.07 29.5001C76.97 32.2201 76.59 35.1001 77.2 37.7701C77.53 39.2201 78.39 41.0901 80.05 41.3301C81.6 41.5501 82.88 40.2701 83.3 38.8301C84.19 35.8201 83.97 32.6401 83.99 29.5301C83.99 28.2601 84.01 27.0001 84.01 25.7301C84.01 24.7801 83.9 23.8401 83.78 22.8901C83.74 22.6101 83.7 22.3301 83.67 22.0501C83.56 21.0901 83.73 23.0301 83.72 21.9901C83.7 20.1701 82.74 17.5201 80.58 17.4501C69.84 17.1101 58.37 20.9301 50.75 28.6701C50.07 29.3601 49.94 30.5101 50.23 31.4001C50.44 32.0501 51.11 33.0701 51.95 32.6201L51.94 32.6401Z" fill="#1D1D1B"/>
<path d="M75.93 39.75L75.79 39.68L78.15 44.13V44C77.87 45.11 77.6 46.22 77.33 47.34L76.96 47.83L75.41 48.51L75.58 48.48L73.99 47.87L74.14 47.97L72.98 46.29L73.08 46.58L72.67 42.89L72.62 43.19L73.38 41.04C73.18 41.38 73.17 41.42 73.35 41.17C73.14 41.41 72.93 41.65 72.73 41.89C72.29 42.4 71.86 42.91 71.44 43.44C70.78 44.28 70.11 45.1 69.45 45.94C68.07 47.67 66.67 49.38 65.33 51.15C63.82 53.14 64.11 56.6 65.22 58.66C66.2 60.49 68.3 61.66 70.09 60.01C73.09 57.25 76.09 54.5 79.04 51.7L74.06 42.44C72.21 45.9 70.37 49.35 68.52 52.81C67.36 54.97 67.02 57.89 68.08 60.19C68.79 61.73 70.68 64.03 72.65 62.87C76.41 60.67 79.88 58.01 82.86 54.83L77.71 45.25C75.72 47.96 73.73 50.68 71.74 53.4C70.12 55.62 70.39 59.33 71.62 61.62C72.78 63.77 74.87 64.71 76.96 63.1C79.47 61.16 81.97 59.23 84.48 57.29L79.21 47.49C77.38 49.78 75.55 52.08 73.71 54.37C72.21 56.25 72.28 60.02 73.24 62.12C74.02 63.8 75.92 66.07 78.04 64.94C81.55 63.06 84.87 60.8 87.9 58.21L82.52 48.2C80.62 50.66 78.71 53.11 76.81 55.57C75.3 57.52 75.34 61.32 76.33 63.48C77.23 65.43 78.93 67.2 81.23 66.36C85.13 64.94 88.75 62.61 91.73 59.72L86.23 49.5C84.79 51.63 83.36 53.76 81.92 55.89C80.48 58.02 80.36 61.63 81.44 63.96C82.38 66.01 84.06 67.66 86.44 66.89C89.73 65.83 92.88 64.43 95.86 62.69L91.3 51.57C90.19 53.28 89.07 54.98 87.97 56.7C86.62 58.82 86.53 61.76 87.24 64.09C87.73 65.7 89.25 68.47 91.39 68.14C94.97 67.58 98.52 66.72 101.95 65.55L98.27 53.41C97.53 54.24 96.79 55.07 96.05 55.89C94.27 57.88 93.59 60.86 94.22 63.47C94.74 65.63 96.03 68.19 98.56 68.26C101.09 68.33 103.83 68.53 106.46 68.85C109.09 69.17 111.66 69.28 114.25 69.73C115.17 69.89 116.16 68.97 116.66 68.35C117.39 67.44 117.88 66.29 118.03 65.13C118.17 64.05 118.14 62.94 117.95 61.87C117.76 60.8 117.02 58.91 116.01 58.25C109.38 53.91 103.56 48.41 96.69 44.4C90.53 40.81 83.37 39.29 76.29 38.97C69.21 38.65 61.74 39.59 54.63 40.96C47.52 42.33 39.77 44.21 32.57 46.56C29.26 47.64 26.04 48.96 23.07 50.8C21.45 51.81 19.86 52.89 18.47 54.21C17.6 55.03 16.86 55.9 16.1 56.82C16.97 55.76 15.65 57.35 15.38 57.71C15.07 58.12 14.77 58.54 14.49 58.97C13.3 60.76 13.26 63.37 13.86 65.33C14.3 66.79 15.56 69.02 17.43 68.81C19.48 68.59 21.41 68.05 23.26 67.16C24.04 66.78 24.79 66.31 25.59 65.99C26.45 65.66 27.33 65.36 28.19 65.04C31.76 63.72 35.15 62.84 38.96 62.62C47.22 62.14 55.55 62.25 63.83 62.09C68.71 62 73.59 61.91 78.47 61.82C81.02 61.77 82.05 58.3 81.94 56.24C81.82 53.93 80.85 51.08 78.2 50.83C69.94 50.06 61.79 49.52 53.5 50.15C49.44 50.46 45.38 50.94 41.36 51.58C37.01 52.28 32.84 53.39 28.62 54.62C27.6 54.92 26.7 56.45 26.4 57.35C26 58.57 25.89 59.8 26.04 61.07C26.27 63.1 27.42 66.06 29.92 66.02C45.86 65.8 62.05 62.75 77.92 65.43L77.63 53.45C66.71 54.13 55.74 54.29 44.81 53.98C41.89 53.9 40.7 58.13 40.82 60.39C40.95 62.85 42.07 66.54 45.12 66.6C56.08 66.81 67.01 66.4 77.93 65.43C80.7 65.18 81.85 61.73 81.72 59.34C81.58 56.71 80.53 53.85 77.64 53.45C61.62 51.18 45.69 55.46 29.65 54.38L29.94 66.02C33.9 65.2 37.93 64.59 41.93 63.91C45.93 63.23 50.01 62.71 54.07 62.36C62.14 61.67 70.41 61.19 78.5 61.8L78.23 50.81C69.71 51.07 61.2 51.33 52.68 51.59C44.16 51.85 36.31 51.59 28.66 54.64C26.95 55.32 25.03 56.44 23.34 56.8C21.38 57.22 19.17 57.29 17.17 57.18L19.36 67.95C20.29 66.89 21.3 65.92 22.41 65.06C22.65 64.87 22.9 64.69 23.15 64.51C24.14 63.78 22.36 65 23.4 64.34C24.08 63.91 24.76 63.48 25.47 63.09C28.03 61.67 30.79 60.65 33.57 59.73C36.66 58.71 39.81 57.89 42.96 57.09C46.57 56.16 49.98 55.29 53.11 54.62C59.99 53.16 67.03 52.06 74.08 52.03C75.66 52.03 77.24 52.08 78.81 52.2C79.52 52.25 80.23 52.32 80.94 52.41C81.36 52.46 81.79 52.51 82.21 52.58C82.36 52.6 84.02 52.89 83.17 52.73C86.37 53.35 89.5 54.31 92.44 55.72C93.24 56.1 94.01 56.53 94.78 56.96C96.07 57.69 94.07 56.47 95.31 57.28C95.82 57.61 96.33 57.94 96.84 58.29C98.52 59.43 100.18 60.59 101.86 61.73C105.35 64.09 108.93 66.35 112.25 68.94L115.08 57.64C112.23 56.87 109.36 56.03 106.43 55.62C103.73 55.24 101.01 55.02 98.29 54.91C99.13 59.04 99.97 63.16 100.81 67.29C101.55 66.47 102.3 65.65 103.04 64.84C105.1 62.58 105.5 59.3 104.63 56.44C103.91 54.06 102.09 51.79 99.35 52.69C97.89 53.17 96.42 53.6 94.92 53.96C95.4 53.84 94.98 53.95 94.74 54C94.36 54.08 93.99 54.16 93.61 54.23C92.78 54.39 91.95 54.52 91.11 54.64L94.52 66.07C95.63 64.36 96.72 62.63 97.82 60.91C99.23 58.69 99.41 55.16 98.31 52.76C97.91 51.88 97.39 51.04 96.67 50.39C95.88 49.67 94.26 49.19 93.26 49.8C90.29 51.58 87.15 53.03 83.86 54.13L88.38 65.13C89.8 62.98 91.22 60.82 92.64 58.67C94.26 56.21 94.12 52.52 92.77 50.01C91.67 47.97 89.15 46.45 87.15 48.45C86.5 49.09 85.84 49.71 85.13 50.29C84.75 50.6 84.36 50.89 83.97 51.19C83.17 51.81 84.53 50.87 83.59 51.45C82.03 52.4 80.42 53.22 78.71 53.87L83.14 64.66C85.02 62.17 86.91 59.69 88.79 57.2C89.64 56.08 89.99 53.95 89.92 52.61C89.85 51.27 89.57 49.94 88.91 48.72C87.77 46.61 85.47 45.38 83.4 47.19C82.1 48.33 80.75 49.41 79.34 50.4C79.13 50.55 78.49 50.97 79.03 50.62C78.65 50.87 78.27 51.11 77.89 51.35C77.12 51.83 76.34 52.27 75.55 52.71L79.89 63.27C81.7 60.95 83.52 58.63 85.33 56.3C86.17 55.23 86.51 53.09 86.44 51.8C86.37 50.51 86.1 49.18 85.46 47.99C84.3 45.84 82.16 44.84 80.07 46.49C77.58 48.46 75.09 50.44 72.6 52.41L77.82 62.11C79.79 59.36 81.75 56.61 83.72 53.85C85.3 51.63 85.07 48.01 83.84 45.73C82.86 43.91 80.38 42.29 78.57 44.27C77.27 45.69 75.89 47.03 74.41 48.27C73.7 48.86 72.97 49.43 72.22 49.97C72.11 50.05 71.14 50.71 71.75 50.3C71.27 50.61 70.79 50.92 70.3 51.21L74.43 61.27C76.24 57.77 78.06 54.26 79.87 50.76C81.13 48.32 81.31 45.38 79.98 42.91C78.98 41.05 76.72 39.7 74.89 41.5C71.94 44.39 69.03 47.32 66.12 50.26L70.88 59.12C73.27 55.66 75.74 52.12 77.8 48.46C78.57 47.09 78.96 45.63 78.93 44.05C78.9 42.33 78.12 39.95 76.38 39.24C75.32 38.81 74.31 39.17 73.53 39.93C72.07 41.36 71.86 43.66 72.19 45.56C72.38 46.66 73.16 48.47 74.41 48.77L74.56 48.8C79.12 49.88 79.37 41.39 75.96 39.78L75.93 39.75Z" fill="#1D1D1B"/>
<path d="M13.27 104.45C12.87 106.31 12.48 108.17 12.08 110.03C11.71 111.78 12.28 114.51 13.97 115.44C15.66 116.37 17.01 115.02 17.71 113.46C18.41 111.9 19.15 110.22 19.87 108.6L14.39 103.96C13.95 105.6 13.52 107.24 13.08 108.88C12.87 109.66 12.66 110.44 12.44 111.21C12.26 111.83 12.11 112.47 11.95 113.1C11.92 113.24 11.59 114.54 11.77 113.81C11.22 115.96 11.19 118.4 12.76 120.16C13.98 121.53 16.11 121.46 17.01 119.67C18.63 116.44 19.77 113.07 20.24 109.47C20.48 107.61 20.16 105.16 18.6 103.87C17.22 102.73 15.56 103.35 14.65 104.75L14.51 104.96L15.92 103.64C17.18 103.44 18.05 104.23 18.52 106.01L18.59 108.67C18.65 108.14 18.62 108.17 18.48 108.76C19.16 106.04 18.94 103.02 16.33 101.45C15.87 101.18 15.42 100.9 14.96 100.63C13.95 100.02 12.71 100.85 12.11 101.6C11.22 102.7 10.84 104.17 10.91 105.57C11.15 110.76 11.43 115.94 11.71 121.12C11.8 122.82 12.42 125.2 14.24 125.88C15.89 126.5 17.45 125 17.89 123.49C19.23 118.84 20.53 114.18 21.97 109.55L15.93 105.88C14.86 111.35 14 116.93 12.69 122.35C12.21 124.34 12.96 127.52 14.86 128.57C16.76 129.62 18.42 128.12 19.16 126.29C21.68 120.09 23.69 113.77 25.25 107.26C25.77 105.11 24.94 101.98 22.99 100.79C21.04 99.6 19.14 101.27 18.51 103.16C16.48 109.26 14.91 115.53 13.81 121.87C13.46 123.87 13.91 127 15.71 128.33C17.29 129.5 19.28 129.07 20.27 127.32C23.64 121.36 26.46 115.09 28.68 108.61L21.84 102.82L17.05 118.93C16.29 121.48 16.4 124.55 18.25 126.62C19.82 128.38 22.16 128.07 23.4 126.03C26.58 120.76 29.22 115.14 31.21 109.31L24.18 103.35C22.91 108.05 21.64 112.74 20.37 117.44C19.65 120.09 19.67 123.17 21.6 125.33C23.1 127.01 25.78 126.96 26.88 124.72C29.61 119.14 32.34 113.56 35.06 107.98L28.45 100.59C25.82 107.26 23.79 114.13 22.23 121.13C21.75 123.28 22.41 126.81 24.31 128.23C26.21 129.65 28.11 128.96 29.32 127.12C33.14 121.3 36.69 115.31 39.99 109.18L33.17 101.55C30.8 106.55 28.81 111.71 27.19 117C26.45 119.43 26.41 122.74 28.05 124.87C29.22 126.39 31.69 127.62 33.25 125.76C37.87 120.26 42.23 114.56 46.25 108.6L39.89 99.41C36.03 106.06 32.58 112.94 29.47 119.97C28.46 122.25 28.8 126.04 30.36 128.06C31.6 129.67 34.05 130.83 35.71 128.98C41.08 122.99 45.95 116.57 50.18 109.73L43.66 100.31C40.43 106.05 37.2 111.78 33.97 117.52C32.41 120.3 32.17 124.54 34.21 127.18C34.97 128.16 36.07 129.23 37.43 129.1C38.87 128.97 39.7 128.11 40.55 127.02C45.48 120.74 50.4 114.45 55.33 108.17L48.67 98.55C44.55 104.52 40.87 110.77 37.65 117.26C36.21 120.16 35.94 123.52 37.52 126.44C38.59 128.43 41.5 130.42 43.48 128.09C48.63 122.03 53.76 115.95 58.9 109.88L53.06 99.03C49.6 105.16 46.15 111.29 42.69 117.42C41.12 120.2 41.04 123.8 42.56 126.62C43.68 128.69 46.48 130.51 48.53 128.28C54.47 121.82 60.4 115.34 66.33 108.88C64.39 105.28 62.46 101.68 60.52 98.08C56.82 103.38 53.12 108.69 49.41 113.99C47.59 116.59 47.72 121.29 49.65 123.8C50.42 124.8 51.54 125.88 52.92 125.75C54.39 125.61 55.21 124.74 56.09 123.64C57.06 122.43 55.37 124.5 56.36 123.3C56.61 123 56.85 122.7 57.1 122.4C57.65 121.75 58.2 121.1 58.75 120.45C59.86 119.16 61 117.89 62.16 116.65C64.48 114.15 66.9 111.75 69.39 109.43L63.6 98.66C58.95 104.9 54.58 111.34 50.48 117.96C48.83 120.62 48.89 124.39 50.35 127.09C51.48 129.18 54.21 130.92 56.28 128.74C62.86 121.8 69.43 114.87 76.01 107.93L70.21 97.14C65.63 103.62 61.05 110.1 56.47 116.58C54.69 119.09 54.95 123.15 56.34 125.73C57.44 127.77 60.26 129.63 62.28 127.38C68.5 120.44 75.12 113.88 82.1 107.7L76.25 96.81C71.85 103.02 67.43 109.23 63.05 115.46C61.25 118.01 61.5 122.11 62.92 124.73C64.09 126.9 66.8 128.55 68.94 126.4C74.93 120.39 80.91 114.37 86.9 108.36L81.06 97.5C76.29 103.94 71.52 110.38 66.75 116.81C65.84 118.04 65.45 120.29 65.53 121.76C65.61 123.23 65.91 124.64 66.61 125.95C67.7 127.97 70.54 129.87 72.54 127.6C78.4 120.96 84.72 114.76 91.45 109.01L85.61 98.15C81.58 103.71 77.55 109.27 73.52 114.83C71.69 117.35 71.99 121.53 73.38 124.13C74.47 126.16 77.41 128.15 79.42 125.81C81.91 122.9 84.41 119.99 87.18 117.34C88.53 116.05 89.94 114.82 91.43 113.71C91.75 113.47 92.08 113.18 92.43 112.98C91.29 113.6 92.84 112.73 93.05 112.6C93.88 112.1 94.72 111.64 95.59 111.21L90.72 99.35C86.38 105.34 82.02 111.31 77.7 117.31C75.83 119.9 76.13 124.17 77.56 126.84C78.8 129.14 81.48 130.68 83.74 128.56C90.33 122.36 97.2 116.48 104.33 110.92L97 104.82C97.13 103.55 97.14 103.31 97.04 104.07L97.29 103.09C97.21 103.34 97.12 103.59 97.01 103.84C97.41 103.03 97.5 102.83 97.27 103.26C96.81 103.95 96.4 104.65 95.9 105.32C94.7 106.94 93.46 108.54 92.24 110.15C89.75 113.44 87.25 116.73 84.76 120.01C83.8 121.27 83.4 123.68 83.49 125.19C83.58 126.7 83.89 128.2 84.62 129.58C85.81 131.8 88.64 133.55 90.83 131.3C98.39 123.55 105.98 115.79 114.5 109.08L108.41 97.76C104.29 104.77 99.71 111.5 94.74 117.94C93.77 119.19 93.38 121.64 93.46 123.14C93.54 124.64 93.86 126.16 94.6 127.54C95.74 129.66 98.73 131.65 100.83 129.27C106.27 123.1 111.71 116.92 117.15 110.75L112.04 98.34C107.04 104.44 102.37 110.77 98.14 117.43C96.41 120.16 96.5 124.12 98 126.9C99.15 129.03 102.04 130.92 104.15 128.61C110.17 122 115.87 115.11 121.25 107.98C122.19 106.73 122.59 104.36 122.51 102.87C122.43 101.38 122.12 99.9 121.39 98.54C120.27 96.46 117.32 94.49 115.26 96.84C110.14 102.66 105.6 108.94 101.86 115.72C100.27 118.59 100.16 122.26 101.72 125.16C103 127.54 105.53 128.84 107.85 126.86C114.58 121.12 119.62 113.28 122.13 104.81C122.67 102.98 122.87 101.09 122.47 99.2C122.17 97.78 121.4 95.83 120.17 94.91C117.39 92.85 114.76 94.85 113.71 97.68C111.21 104.4 109.54 111.48 108.83 118.62C108.57 121.26 108.86 125.08 111.25 126.85C113.35 128.41 115.68 127.7 117.06 125.56C120.54 120.17 122.75 113.78 123.21 107.37C123.35 105.41 123.36 103.54 122.58 101.68C122.07 100.47 120.97 98.77 119.59 98.35C116.05 97.27 114.4 100.89 113.74 103.66C112.02 110.89 110.32 118.12 108.63 125.35C107.95 128.24 109.03 132.43 111.66 134.03C114.29 135.63 116.69 133.3 117.67 130.85C121.16 122.13 124.66 113.41 128.16 104.69L119.57 97.41C116.76 107.55 113.36 117.51 109.39 127.25L118.45 132.76C118.93 130.83 119.42 128.9 119.9 126.96C120.14 125.99 120.38 125.03 120.63 124.06C120.06 126.27 120.79 123.4 120.99 122.61C121.35 121.19 120.63 124.03 121.09 122.23C122.09 118.3 123.1 114.37 124.1 110.44C124.6 108.47 124.88 106.65 124.46 104.61C124.15 103.14 123.35 101.11 122.07 100.16C120.97 99.35 119.57 98.82 118.23 99.49C116.89 100.16 115.74 101.56 115.36 103.03C113.65 109.47 112 115.92 110.41 122.38C110.06 123.81 109.71 125.23 109.37 126.66C109.18 127.45 108.99 128.25 108.8 129.04C108.72 129.35 108.63 129.67 108.57 129.99C108.97 127.54 108.38 130.77 108.28 131.18C107.55 134.28 106.87 137.39 106.18 140.5L116.26 142.32C116.19 140.47 116.16 138.62 116.2 136.77C116.22 135.88 116.26 135 116.3 134.12C116.37 132.37 116.15 136.01 116.29 134.26C116.33 133.78 116.37 133.3 116.41 132.82C116.74 129.13 117.32 125.47 118.12 121.86L108.19 117.97C107.5 128.34 106.81 138.71 106.11 149.09C105.97 151.15 105.95 153.1 106.77 155.05C107.31 156.32 108.46 158.1 109.9 158.54C113.63 159.68 115.3 155.87 116.02 152.98C118.66 142.47 120.86 131.85 122.68 121.16C123 119.28 122.77 117.01 122.03 115.25C121.5 113.99 120.36 112.23 118.93 111.79C115.32 110.69 113.45 114.4 112.86 117.31C110.53 128.72 109.88 140.6 111.09 152.19C111.38 155.02 112.27 158.96 115.61 159.56C118.72 160.12 120.6 156.58 120.96 153.97C122.22 144.8 123.48 135.64 124.81 126.48L115.03 124.71C115.1 127.16 115.05 129.61 114.94 132.06C114.89 132.9 114.91 132.71 114.98 131.5C114.96 131.83 114.93 132.15 114.91 132.48C114.86 133.13 114.8 133.78 114.74 134.43C114.63 135.65 114.49 136.87 114.34 138.08C113.74 143.04 112.89 147.96 112.04 152.88L122.03 154.68C122.03 149.73 122.03 144.79 122.26 139.85C122.31 138.7 122.38 137.55 122.44 136.39C122.49 135.54 122.48 135.73 122.4 136.97C122.42 136.64 122.44 136.31 122.47 135.98C122.52 135.32 122.57 134.66 122.62 134.01C122.81 131.54 123.05 129.08 123.31 126.62C123.53 124.63 123.44 122.56 122.65 120.69C122.12 119.42 120.97 117.66 119.54 117.22C115.84 116.09 114.14 119.87 113.44 122.76C110.84 133.55 108.75 144.46 107.17 155.44L117.17 157.25C117.46 145.94 117.77 134.62 118.08 123.31C118.15 120.88 116.85 116.73 114.15 115.9C111.45 115.07 109.22 117.15 108.47 119.62C104.08 134.14 101.74 149.09 101.45 164.25L111.76 164C110.88 152.13 109.97 140.26 109.08 128.39C108.86 125.47 107.8 121.38 104.41 120.77C101.02 120.16 99.5 123.91 98.88 126.55C95.72 139.95 94.57 153.9 95.4 167.65L105.74 167.4C104.77 155.4 103.8 143.39 102.83 131.39C102.59 128.47 101.56 124.38 98.16 123.77C94.76 123.16 93.14 126.88 92.63 129.55C90.13 142.6 88.97 155.91 89.04 169.19C89.06 172.09 90.46 176.23 93.71 176.81C96.96 177.39 98.87 173.73 99.24 171.03C100.9 158.91 101.41 146.61 100.66 134.4C100.56 132.72 100.24 131.15 99.43 129.66C98.85 128.58 97.92 127.29 96.68 126.9C94.06 126.1 91.62 128.15 90.93 130.66C87.43 143.4 85.74 156.52 86.2 169.74C86.3 172.65 87.57 176.77 90.87 177.36C94.17 177.95 95.77 174.22 96.4 171.58C99.57 158.41 99.8 144.63 97.59 131.3C97.21 128.98 95.62 126.21 93.15 125.77C90.68 125.33 88.93 127.54 88.09 129.65C83.46 141.26 81.18 153.69 81.04 166.17C81.02 167.89 81.62 170.3 82.69 171.7C83.49 172.74 84.91 174.23 86.4 173.92C87.78 173.63 88.72 173.35 89.83 172.45C90.61 171.82 91.22 170.96 91.73 170.1C92.94 168.05 93.4 165.74 93.89 163.44C94.57 160.23 95.08 156.99 95.4 153.72C96.12 146.57 96.2 139.37 95.4 132.22C95.1 129.54 94.54 126.62 92.05 125.1C90.11 123.92 87.46 124.75 86.44 126.87C83.47 133.04 80.86 139.34 79.06 145.96C77.09 153.19 75.93 160.41 75.6 167.9C75.49 170.44 76.75 173.67 78.95 175.02C80.9 176.21 83.52 175.36 84.56 173.25C90.64 160.89 93.53 147.07 92.21 133.29C91.95 130.63 91.32 127.67 88.86 126.17C86.85 124.94 84.37 125.88 83.25 127.94C76.68 139.99 72.17 153.03 69.96 166.58C69.44 169.74 70.25 174.01 73.18 175.79C76.11 177.57 78.53 175.03 79.56 172.41C83.13 163.32 85.39 153.64 86.15 143.91C86.4 140.65 86.03 136.58 82.93 134.7C80.1 132.98 77.52 135.43 76.55 138.08C73.67 145.95 71.06 153.91 68.73 161.96C68.15 163.96 67.93 165.98 68.36 168.04C68.68 169.58 69.52 171.7 70.85 172.69C73.94 174.98 76.61 172.69 77.85 169.69C80.91 162.34 83.15 154.67 84.72 146.86C85.35 143.75 84.35 139.38 81.5 137.65C80.51 137.05 79.23 136.77 78.12 137.34C76.58 138.12 75.8 139.5 75.12 141.03C72.38 147.22 69.88 153.51 67.61 159.88C66.94 161.75 66.83 164.02 67.24 165.96C67.56 167.5 68.4 169.62 69.73 170.61C72.75 172.85 75.58 170.66 76.73 167.61C78.78 162.2 80.6 156.7 82.17 151.13C83.12 147.75 83.05 143.76 80.59 141.01C78.56 138.74 75.38 139.05 73.82 141.79C71.07 146.61 68.32 151.44 65.56 156.26C64.59 157.96 64.13 159.91 64.18 161.86C64.22 163.63 64.72 165.94 65.83 167.39C66.7 168.52 67.97 169.75 69.54 169.61C71.11 169.47 72.18 168.49 73.14 167.21C74.26 165.71 75.38 164.22 76.5 162.72L68.92 151.77C68.7 152.13 68.19 152.61 68.07 153L68.61 152.32C68.45 152.51 68.28 152.69 68.1 152.87C67.48 153.49 66.81 154.04 66.09 154.54L67.31 153.72C65.71 154.77 64.09 155.64 62.22 156.12L63.53 155.82C63.16 155.9 62.79 155.98 62.42 156.04L67.28 161.4C66.44 156.78 63.05 153.46 58.3 153.44C56.6 153.44 54.94 154.01 53.34 154.49C52.94 154.61 52.54 154.72 52.14 154.83C51.82 154.91 51.87 154.9 52.3 154.79C52.1 154.83 51.9 154.86 51.7 154.88C51.26 154.93 48.94 155.24 50.53 155.16C51.71 155.1 50.41 154.91 50 154.7C48.96 154.17 47.57 154.72 46.79 155.42C45.79 156.33 45.13 157.97 44.96 159.28C44.59 162.16 45.28 165.62 48.07 167.05C48.55 167.29 49.01 167.46 49.53 167.57L50.65 167.77C49.89 167.82 50.15 167.9 51.42 168.02C52.29 168.11 53.16 168.04 54.03 167.92C55.64 167.71 57.17 167.36 58.8 167.6L57.56 167.38C57.97 167.46 58.37 167.55 58.76 167.68C59 167.76 59.36 168.04 59.59 168.04C58.9 167.59 58.72 167.49 59.04 167.73C59.15 167.81 59.26 167.9 59.36 168C58.01 167.4 57.81 164.8 57.71 163.62C57.95 166.41 59.14 171.04 62.79 170.96C68.6 170.84 73.47 167.59 76.5 162.74C77.5 161.13 77.92 159.01 77.88 157.14C77.84 155.37 77.34 153.06 76.23 151.61C75.36 150.48 74.09 149.25 72.52 149.39C70.95 149.53 69.88 150.51 68.92 151.79C67.8 153.29 66.68 154.78 65.56 156.28L73.14 167.23C75.89 162.41 78.64 157.58 81.4 152.76L73.05 143.42C71.48 148.99 69.66 154.49 67.61 159.9L76.73 167.63C78.99 161.25 81.5 154.96 84.24 148.78L74.64 142.95C74.46 143.86 74.26 144.78 74.06 145.69C73.96 146.15 73.85 146.6 73.74 147.05C73.68 147.32 73.34 148.68 73.64 147.46C73.94 146.24 73.53 147.85 73.47 148.09C73.37 148.47 73.27 148.84 73.16 149.21C72.91 150.11 72.65 151 72.37 151.9C71.32 155.32 70.09 158.68 68.72 161.98L77.84 169.71C80.18 161.66 82.79 153.7 85.66 145.83L76.06 140C75.71 144.48 75.05 148.93 74.06 153.31C74.01 153.54 73.54 155.48 73.87 154.17C74.2 152.86 73.7 154.8 73.64 155.02C73.36 156.07 73.06 157.11 72.74 158.14C72.05 160.36 71.28 162.55 70.43 164.71L80.03 170.54C80.52 167.55 81.08 164.55 81.85 161.62C81.69 162.24 81.47 163.1 81.77 161.97C81.87 161.6 81.97 161.24 82.07 160.87C82.27 160.14 82.48 159.41 82.7 158.68C83.13 157.23 83.59 155.78 84.09 154.35C85.05 151.55 86.12 148.79 87.3 146.08C87.6 145.38 87.91 144.69 88.23 144C88.38 143.68 88.5 143.26 88.71 142.97C87.78 144.24 88.39 143.63 88.63 143.15C89.33 141.72 90.07 140.31 90.83 138.91L81.87 133.56C82.14 136.38 82.24 139.22 82.13 142.06C82.12 142.43 82.09 142.81 82.08 143.18C82.04 144.2 82.22 141.41 82.13 142.42C82.06 143.16 82 143.91 81.92 144.65C81.76 146.06 81.56 147.46 81.31 148.86C81.06 150.26 80.75 151.49 80.48 152.8C80.97 150.49 80.42 152.94 80.26 153.5C80.07 154.15 79.88 154.79 79.67 155.43C79.23 156.78 78.75 158.11 78.22 159.43C77.94 160.12 77.65 160.81 77.35 161.49C77.23 161.76 77.1 162.03 76.98 162.31C77.68 160.89 76.33 163.76 76.98 162.31L85.94 167.66C85.96 167.28 85.98 166.9 86 166.52C86.05 165.52 85.84 168.43 85.97 167.03C86.04 166.27 86.1 165.52 86.18 164.76C86.34 163.33 86.53 161.9 86.76 160.48C86.99 159.06 87.26 157.64 87.57 156.23C87.73 155.49 87.88 154.74 88.08 154.01C87.91 154.63 87.7 155.49 88 154.36C88.1 153.99 88.2 153.63 88.3 153.26C89.07 150.48 89.98 147.73 91 145.03C91.54 143.61 92.11 142.19 92.71 140.8C92.98 140.17 93.26 139.54 93.54 138.92C93.7 138.57 93.85 138.23 94.01 137.88C94.2 137.48 94.84 136.13 94.02 137.84L85.06 132.49C85.37 135.27 85.57 138.07 85.63 140.87C85.66 142.23 85.66 143.59 85.63 144.95C85.61 145.67 85.59 146.39 85.55 147.11C85.53 147.43 85.52 147.75 85.5 148.07C85.45 149.07 85.66 145.97 85.52 147.65C85.29 150.36 84.98 153.06 84.53 155.75C84.29 157.17 84.02 158.58 83.71 159.99C83.65 160.27 83.63 160.68 83.5 160.93C83.53 160.87 84.03 159.04 83.7 160C83.34 161.06 84.42 158.8 83.98 159.45C83.6 160 85.12 158.31 84.27 159L85.49 158.18C85.32 158.3 85.14 158.39 84.95 158.45L86.32 158.14L86.01 158.2L91.37 165.95C91.39 164.64 91.44 163.33 91.49 162.02C91.53 161.02 91.35 163.92 91.46 162.5C91.48 162.19 91.51 161.88 91.53 161.58C91.59 160.89 91.65 160.2 91.73 159.5C92.01 156.81 92.42 154.14 92.94 151.49C93.2 150.2 93.49 148.92 93.79 147.65C94.01 146.69 93.39 149.15 93.65 148.2C93.75 147.83 93.85 147.45 93.95 147.08C94.11 146.48 94.28 145.89 94.46 145.3C95.25 142.63 96.17 140.01 97.2 137.43L87.71 135.78C87.84 136.56 87.96 137.33 88.07 138.11C88.11 138.42 88.16 138.73 88.2 139.05C88.24 139.37 88.41 140.79 88.25 139.41C88.09 138.03 88.26 139.58 88.28 139.77C88.31 140.08 88.34 140.4 88.37 140.71C88.43 141.42 88.49 142.12 88.53 142.83C88.72 145.82 88.76 148.81 88.66 151.8C88.63 152.51 88.62 153.22 88.56 153.92C88.59 153.62 88.69 152.14 88.6 153.24C88.57 153.63 88.54 154.02 88.5 154.42C88.37 155.91 88.2 157.4 87.99 158.88C87.58 161.84 87.01 164.78 86.31 167.69L96.51 169.53C96.41 166.66 96.41 163.78 96.51 160.91C96.54 160.19 96.58 159.47 96.61 158.76C96.66 157.71 96.48 160.47 96.57 159.42C96.6 159.02 96.63 158.62 96.66 158.23C96.77 156.8 96.92 155.37 97.08 153.94C97.41 151.16 97.83 148.4 98.36 145.65C98.63 144.24 98.93 142.83 99.25 141.43C99.34 141.04 99.43 140.65 99.53 140.26C99.76 139.28 99.5 140.41 99.4 140.76C99.62 139.99 99.8 139.21 100.02 138.44L90.29 134.7C90.64 140.38 90.72 146.07 90.52 151.75C90.47 153.13 90.4 154.51 90.32 155.89C90.26 156.94 90.44 154.2 90.36 155.25C90.33 155.66 90.3 156.06 90.27 156.47C90.22 157.12 90.17 157.77 90.11 158.41C89.86 161.32 89.53 164.23 89.13 167.13L99.33 168.97C99.31 165.86 99.36 162.76 99.49 159.65C99.52 158.91 99.56 158.18 99.6 157.45C99.62 157.04 99.63 156.63 99.67 156.23L99.6 157.35C99.62 157.11 99.63 156.86 99.65 156.62C99.76 155.07 99.88 153.52 100.03 151.98C100.61 145.79 101.49 139.64 102.66 133.54L92.46 131.7C93.43 143.7 94.4 155.71 95.37 167.71C95.53 169.63 95.87 171.62 97.02 173.24C97.79 174.33 99.26 175.59 100.73 175.46C104.36 175.12 105.89 170.57 105.71 167.46C105.53 164.35 105.43 161.08 105.46 157.88C105.48 156.28 105.52 154.69 105.59 153.09C105.61 152.61 105.64 152.13 105.66 151.65C105.72 150.55 105.62 152 105.62 152.31C105.64 151.44 105.75 150.55 105.82 149.68C106.38 143.23 107.43 136.84 108.92 130.54L98.72 128.7C99.62 140.57 100.52 152.44 101.43 164.31C101.58 166.22 101.94 168.22 103.08 169.83C103.85 170.92 105.31 172.18 106.78 172.04C110.58 171.69 111.69 167.18 111.74 164.06C111.77 162.32 111.82 160.58 111.91 158.84C111.93 158.44 111.95 158.05 111.97 157.65C112.02 156.66 111.82 159.75 111.94 158.08C112 157.29 112.06 156.5 112.12 155.71C112.41 152.32 112.82 148.94 113.34 145.57C113.86 142.2 114.47 139.02 115.2 135.77C115.39 134.92 115.59 134.07 115.79 133.23C116.02 132.26 115.76 133.37 115.66 133.72C115.79 133.26 115.9 132.8 116.02 132.34C116.46 130.66 116.94 128.98 117.44 127.31L107.83 123.62C107.55 134.93 107.29 146.25 107 157.56C106.93 160.39 108.46 164.47 111.58 165.03C114.7 165.59 116.63 162 117 159.37C118.57 148.38 120.67 137.48 123.27 126.69L113.4 122.83C112.24 133.47 111.53 144.29 111.87 155C111.96 157.85 113.21 161.88 116.44 162.46C119.67 163.04 121.42 159.43 121.85 156.81C123.61 146.15 125.28 135.38 124.88 124.54C124.78 121.75 123.58 117.8 120.4 117.24C117.22 116.68 115.45 120.2 115.1 122.78C113.84 131.94 112.5 141.09 111.17 150.24L121.03 152.02C120.51 146.62 120.36 141.2 120.63 135.78C120.65 135.46 120.65 135.14 120.68 134.82C120.65 135.15 120.56 136.49 120.65 135.43C120.7 134.79 120.75 134.16 120.81 133.52C120.93 132.17 121.08 130.82 121.25 129.48C121.61 126.71 122.08 123.96 122.64 121.23L112.81 117.38C110.97 128.06 108.71 138.66 106.07 149.17L115.98 153.05C116.68 142.68 117.38 132.31 118.08 121.94C118.22 119.87 118.24 117.92 117.42 115.97C116.88 114.7 115.73 112.92 114.29 112.48C110.61 111.36 108.8 115.13 108.15 118.06C106.38 126.11 105.7 134.43 106.02 142.66C106.13 145.54 107.36 149.6 110.63 150.19C113.9 150.78 115.52 147.1 116.09 144.48C117.39 138.58 118.72 132.68 120.1 126.8C120.77 123.94 121.45 121.08 122.15 118.22C122.52 116.71 122.89 115.21 123.26 113.7C123.34 113.38 123.42 113.07 123.5 112.75C123.56 112.51 123.62 112.27 123.68 112.04L123.46 112.91C123.67 112.12 123.86 111.32 124.06 110.53L114.86 104.94C112.89 113.01 110.91 121.07 108.9 129.12C108.5 130.74 108.84 133.33 109.53 134.83C110.09 136.04 110.78 137.11 111.94 137.81C114.67 139.47 116.96 137.07 117.96 134.62C121.93 124.88 125.32 114.91 128.12 104.77C128.65 102.87 128.88 101.01 128.47 99.05C128.17 97.6 127.38 95.61 126.12 94.67C123.24 92.53 120.66 94.65 119.53 97.49C116.04 106.21 112.54 114.93 109.04 123.64L118.08 129.14C119.79 121.91 121.48 114.68 123.16 107.44L113.7 103.74C113.62 104.96 113.48 106.17 113.26 107.37C113.2 107.72 113.12 108.07 113.05 108.42C112.88 109.35 113.09 108.19 113.19 107.9C112.98 108.51 112.84 109.15 112.64 109.76C112.26 110.91 111.66 112.01 111.3 113.16C111.4 112.83 111.85 112.07 111.45 112.81C111.31 113.06 111.18 113.32 111.04 113.57C110.69 114.2 110.32 114.81 109.93 115.42L118.16 122.36C118.46 119.15 118.95 115.97 119.65 112.83C119.74 112.45 119.83 112.07 119.91 111.68C120.2 110.41 119.64 112.68 119.87 111.84C120.08 111.08 120.28 110.32 120.5 109.57C120.97 107.99 121.49 106.42 122.06 104.87L113.65 97.74C113.12 99.57 112.44 101.32 111.71 103.08C111.43 103.7 111.49 103.57 111.9 102.7C111.78 102.94 111.66 103.19 111.54 103.43C111.36 103.79 111.17 104.15 110.97 104.51C110.51 105.34 110.03 106.16 109.52 106.96C109.01 107.76 108.47 108.54 107.9 109.3C107.69 109.59 107.32 109.95 107.16 110.27C107.66 109.65 107.72 109.58 107.31 110.06C107.13 110.27 106.96 110.47 106.78 110.67C105.52 112.09 104.16 113.4 102.72 114.63L108.71 125.77C110.43 122.66 112.29 119.65 114.33 116.74C115.33 115.32 116.36 113.92 117.43 112.56C117.71 112.2 117.98 111.84 118.27 111.5C117.64 112.25 118.16 111.65 118.49 111.25C119.07 110.56 119.66 109.87 120.26 109.19L114.27 98.05C113.02 99.7 111.76 101.34 110.47 102.97C110.17 103.34 109.88 103.72 109.58 104.09C109.38 104.34 109.18 104.59 108.98 104.84C109.36 104.37 109.42 104.3 109.16 104.62C108.5 105.42 107.85 106.22 107.19 107.02C104.54 110.2 101.81 113.31 99.01 116.36L105.02 127.54C106.96 124.5 108.99 121.52 111.11 118.59C112.12 117.19 113.16 115.81 114.21 114.44C114.78 113.69 115.36 112.95 115.95 112.22C116.13 111.99 117.01 110.87 116.19 111.91C116.48 111.54 116.79 111.18 117.08 110.82C119.3 108.12 120.05 104.13 118.54 100.85C117.95 99.57 117.06 98.03 115.61 97.59C114.36 97.21 112.89 97.37 111.96 98.41C106.51 104.56 101.06 110.7 95.6 116.85L101.69 128.18C106.68 121.76 111.24 115.01 115.35 108C117.02 105.15 117.05 101.3 115.49 98.41C114.15 95.92 111.68 94.78 109.26 96.68C100.74 103.39 93.15 111.16 85.6 118.93L91.67 130.22C94.46 126.53 97.25 122.85 100.04 119.16C101.33 117.46 102.73 115.8 103.85 113.98C105.6 111.13 106.46 108.01 106.43 104.66C106.4 100.9 103.3 95.28 99.1 98.56C91.97 104.13 85.11 110.02 78.52 116.23L84.57 127.47C88.9 121.46 93.2 115.42 97.51 109.4C99.11 107.16 99.16 103.15 98.03 100.7C97.14 98.77 95.05 96.32 92.64 97.54C85.17 101.31 79.63 107.5 74.32 113.79L80.22 124.77C84.22 119.17 88.23 113.58 92.23 107.98C94.03 105.47 93.75 101.36 92.36 98.78C91.12 96.48 88.64 95.17 86.39 97.12C79.7 102.92 73.39 109.17 67.51 115.79L73.31 126.58C78.1 120.16 82.88 113.75 87.67 107.33C88.59 106.1 88.97 103.82 88.89 102.35C88.81 100.88 88.51 99.45 87.8 98.13C86.64 95.97 83.96 94.34 81.83 96.47C75.83 102.46 69.84 108.44 63.84 114.43L69.72 125.37C74.13 119.15 78.5 112.91 82.89 106.67C84.68 104.13 84.43 100.05 83.02 97.45C81.79 95.18 79.26 93.79 77.03 95.79C70.07 102.01 63.48 108.61 57.25 115.56L63.06 126.36C67.64 119.88 72.21 113.4 76.79 106.91C78.56 104.4 78.31 100.35 76.92 97.77C75.79 95.68 73.05 93.94 70.98 96.12C64.41 103.06 57.83 110 51.26 116.94L57.06 127.72C61.15 121.1 65.53 114.66 70.17 108.41C71.08 107.19 71.46 104.93 71.38 103.47C71.3 102.01 71 100.6 70.3 99.29C69.11 97.08 66.55 95.62 64.38 97.65C58.92 102.74 53.94 108.26 49.28 114.09L55.96 123.74C59.67 118.44 63.38 113.16 67.1 107.87C68.87 105.35 68.63 101.31 67.23 98.72C66.12 96.65 63.34 94.85 61.29 97.07C55.35 103.52 49.4 109.96 43.46 116.41L49.3 127.26C52.76 121.13 56.21 115 59.67 108.87C61.24 106.09 61.32 102.49 59.8 99.67C58.73 97.68 55.8 95.68 53.83 98.01C48.69 104.09 43.55 110.16 38.42 116.25L44.25 127.08C47.45 120.55 51.11 114.27 55.2 108.27C56.99 105.65 56.9 101.02 54.96 98.5C54.19 97.51 53.08 96.43 51.7 96.55C50.25 96.68 49.4 97.54 48.54 98.65C43.64 104.97 38.74 111.29 33.83 117.61L40.41 127.12C43.62 121.35 46.83 115.59 50.04 109.82C51.58 107.06 51.83 102.88 49.81 100.25C48.01 97.92 45.16 97.73 43.53 100.4C41.59 103.58 39.52 106.67 37.31 109.67C36.77 110.4 36.22 111.13 35.66 111.85C35.38 112.21 35.1 112.57 34.82 112.93C34.72 113.05 33.84 114.15 34.26 113.64C34.68 113.13 33.78 114.22 33.68 114.34C33.39 114.69 33.1 115.04 32.8 115.39C32.16 116.14 31.51 116.89 30.86 117.63L37.1 126.64C37.79 125.06 38.49 123.49 39.22 121.93C39.35 121.65 39.49 121.36 39.62 121.08L39.37 121.6C39.57 121.17 39.78 120.75 39.98 120.33C40.36 119.56 40.74 118.78 41.13 118.02C42.72 114.87 44.38 111.77 46.13 108.7C47.65 106.02 47.86 101.9 45.9 99.36C44.09 97.01 41.44 96.99 39.77 99.51C37.95 102.26 36.06 104.96 34.09 107.61C33.16 108.87 32.21 110.12 31.24 111.36C30.71 112.04 30.17 112.71 29.63 113.39C29.09 114.07 30.39 112.47 29.43 113.63C29.13 113.99 28.83 114.36 28.53 114.72L34.6 123.48C36.19 118.16 38.15 112.98 40.49 107.95C41.64 105.47 40.98 101.68 39.2 99.68C37.59 97.87 34.88 98.02 33.67 100.32C30.41 106.5 26.88 112.53 23.1 118.4L30.19 124.38C30.36 123.61 30.53 122.83 30.71 122.06C30.82 121.61 30.9 121.12 31.04 120.67C30.89 121.13 30.83 121.47 31.01 120.8C31.43 119.19 31.88 117.59 32.36 115.99C33.3 112.88 34.36 109.81 35.54 106.78C36.52 104.26 36.11 100.81 34.29 98.77C32.77 97.07 30.03 97.1 28.93 99.39C26.23 105.01 23.53 110.64 20.83 116.26L27.34 123.54C28.58 118.82 29.83 114.1 31.07 109.38C31.48 107.8 31.7 106.32 31.36 104.69C31.11 103.5 30.47 101.87 29.44 101.11C27.17 99.43 24.85 101.02 24.04 103.42C23.15 106.06 22.14 108.66 20.99 111.2C20.87 111.47 20.74 111.75 20.61 112.02C20.26 112.78 21.16 110.92 20.51 112.21C20.21 112.82 19.9 113.42 19.59 114.02C18.92 115.29 18.22 116.53 17.49 117.76L23.84 124.86C25.41 119.46 26.97 114.06 28.54 108.67C29.26 106.18 29.29 102.37 26.95 100.63C24.75 98.99 22.48 100.54 21.7 102.88C20.7 105.86 19.59 108.79 18.34 111.67C18.04 112.37 17.72 113.07 17.4 113.77C17.32 113.95 16.86 114.91 17.29 114.03C17.06 114.5 16.83 114.98 16.6 115.45C15.68 117.37 17 114.69 16.29 116.11C16.12 116.45 15.95 116.8 15.77 117.14C15.38 117.89 14.99 118.64 14.59 119.38L21.04 124.82C21.49 121.94 22.03 119.07 22.69 116.22C22.76 115.91 22.83 115.61 22.91 115.3C22.96 115.1 23.23 114.02 22.97 115.04C23.15 114.35 23.33 113.66 23.51 112.98C23.91 111.53 24.33 110.09 24.78 108.66L18.04 104.56C17.87 105.32 17.69 106.08 17.51 106.84C17.29 107.8 17.6 106.52 17.44 107.11C17.34 107.49 17.24 107.87 17.14 108.24C16.76 109.68 16.34 111.1 15.91 112.52C15.01 115.43 14 118.31 12.86 121.13L19.33 125.07C20.02 119.5 21.18 113.96 22.11 108.42C22.43 106.51 21.95 103.65 20.08 102.63C18.35 101.68 16.58 102.95 16.07 104.76C14.77 109.41 13.33 114.03 11.94 118.65L18.11 121.02C17.87 115.83 17.62 110.65 17.34 105.47L13.29 110.41C13.75 110.68 14.2 110.95 14.66 111.22L12.21 105.11C11.61 107.6 11.95 110.98 14.02 112.76C15.83 114.31 18.09 113.65 19.29 111.76L13.7 107.04C13.63 107.63 13.55 108.21 13.44 108.79C13.39 109.08 13.32 109.37 13.26 109.66C13.41 109 13.26 109.66 13.16 109.97C12.99 110.54 12.8 111.1 12.59 111.65C12.48 111.93 12.37 112.2 12.26 112.47C12.22 112.57 11.82 113.42 12.09 112.87L17.63 117.54C18.45 114.21 19.2 110.87 19.99 107.54C20.41 105.76 19.76 102.94 18.05 102C16.34 101.06 14.89 102.4 14.22 104.03C13.55 105.66 12.87 107.34 12.19 109L17.82 112.42C18.17 110.54 18.51 108.66 18.86 106.78C19.21 104.9 18.63 102.03 16.66 101.3C14.57 100.52 13.44 102.95 13.1 104.53L13.27 104.45Z" fill="#1D1D1B"/>
<path d="M91.61 118.45C90.25 116.44 88.58 114.65 86.91 112.9L89.12 115.38C87.6 113.62 86.15 111.49 83.72 110.88C82.43 110.55 80.86 110.33 79.65 110.13C78.73 109.98 77.81 109.86 76.88 109.78C74.9 109.61 72.84 109.47 70.86 109.66C68.77 109.85 66.68 110.05 64.59 110.24C62.39 110.44 60.26 110.94 58.1 111.39C54.17 112.21 50.24 113.13 46.29 113.82C44.71 114.09 43.11 114.3 41.5 114.32C39.89 114.34 38.34 114.47 36.77 114.23L40.28 114.86C38.92 114.61 37.51 114.26 36.13 114.14L39.62 114.76C38.12 114.18 36.48 114.16 34.91 113.89L38.34 114.51C37.52 114.34 36.77 114.07 36.05 113.66L39.03 115.47C37.93 114.79 36.75 113.9 35.56 113.4L38.5 115.19C37.39 114.27 35.98 113.48 34.67 112.85C34.26 112.65 33.87 112.53 33.42 112.43C32.15 112.15 30.79 111.74 29.49 111.95C28.4 112.13 27.07 112.36 26.07 112.84C25.16 113.27 23.72 114.23 23.05 114.99L25.65 113.23C24.73 113.83 23.57 114.44 22.77 115.18C22.18 115.72 21.71 116.4 21.21 117.01C20.46 117.94 19.89 118.62 19.37 119.64C18.26 121.81 17.14 124.03 16.47 126.39C15.06 131.36 14.13 136.56 14.55 141.75C14.83 145.26 15.42 148.49 17.11 151.63C18.32 153.88 20.25 156.58 22.85 157.37C24.79 157.96 26.67 157.91 28.58 157.23C31.5 156.18 33.94 152.25 34.83 149.53C37.52 141.34 37.11 132.87 35.12 124.59C34.3 121.18 32.81 117.33 29.99 115.02C27.81 113.23 24.43 112.22 21.74 113.59C18.74 115.11 16.59 118.03 15.56 121.2C14.26 125.17 13.82 129.63 14.79 133.72C15.98 138.73 17.23 143.71 18.18 148.77C18.94 152.81 19.83 156.74 21.79 160.39C23.94 164.38 27.35 167.71 31.84 168.88C37.39 170.33 43.17 170.86 48.88 170.61C53.79 170.4 58.63 169.39 63.47 168.59C68.59 167.74 74.1 166.59 79.29 167.4L75.82 166.78C77.3 167.05 78.67 167.51 79.97 168.26L76.78 166.32C77.7 166.9 78.49 167.59 79.22 168.39L76.46 165.3C77.44 166.44 78.22 167.69 78.93 169L76.74 164.93C79.01 169.27 81.06 173.73 82.61 178.38L81.14 173.53C81.27 173.96 81.36 174.37 81.43 174.81L80.82 169.39V169.82C80.95 168.01 81.06 166.19 81.18 164.38L81.13 164.8L82.36 159.89L82.24 160.3L84.24 156.11C84.16 156.3 84.06 156.48 83.94 156.65L86.58 153.39C86.37 153.63 86.18 153.81 85.92 154L89.07 151.86C88.6 152.14 88.12 152.31 87.59 152.45L91.14 151.63C88.06 152.29 84.69 152.16 81.55 152.26C78.17 152.37 74.78 152.44 71.4 152.6C63.83 152.96 55.97 153.83 48.8 156.41C39.95 159.6 32.69 167.34 30.02 176.37C28.71 180.8 27.81 185.25 28.12 189.91C28.58 196.86 30.61 204.96 36.55 209.37C39.82 211.8 42.06 212.2 45.99 212.84C47.75 213.12 49.53 213.3 51.31 213.39C58.96 213.8 66.54 213.25 74.14 214.57L70.56 213.93C73.8 214.51 76.99 215.31 80.11 216.35C83.07 217.34 86.12 218.44 88.82 220.02L85.57 218.04C86.24 218.46 86.84 218.92 87.39 219.48L84.6 216.36C84.93 216.74 85.21 217.13 85.45 217.57L83.25 213.49C83.36 213.71 83.46 213.94 83.53 214.17L82.06 209.33C82.17 209.69 82.24 210.02 82.28 210.4L81.67 204.99C81.69 205.23 81.69 205.47 81.67 205.7L82.02 200.26L81.97 200.61L83.2 195.7C83.15 195.93 83.08 196.16 82.99 196.37L84.98 192.19C84.88 192.4 84.77 192.6 84.63 192.79L87.26 189.53C86.97 189.88 86.66 190.16 86.29 190.43L89.44 188.29C88.73 188.71 87.99 188.96 87.19 189.15L90.73 188.33C84.45 189.59 77.75 189.27 71.38 189.23C65.01 189.19 58.44 189.13 52.05 190.09C47.85 190.72 43.61 191.65 39.6 193.07C34.66 194.82 30.1 197.68 27.46 202.38C22.9 210.48 22.47 220.64 25.89 229.25C27.29 232.78 29.72 236.85 33 238.99C34.59 240.03 36.23 241.2 38.1 241.7C39.79 242.15 41.54 242.4 43.26 242.66C45.13 242.94 47.02 243.13 48.91 243.29C52.89 243.63 56.87 243.77 60.86 243.88C64.85 243.99 68.93 243.83 72.86 244.52L69.29 243.88C70.94 244.21 72.51 244.71 73.96 245.58L70.71 243.6C71.54 244.13 72.28 244.74 72.95 245.47L70.16 242.35C70.55 242.81 70.89 243.29 71.2 243.81L69.01 239.74C69.23 240.17 69.42 240.59 69.57 241.05L68.1 236.22C68.2 236.57 68.28 236.91 68.34 237.27L67.73 231.87C67.77 232.11 67.78 232.35 67.77 232.6L68.11 227.17L68.06 227.53L69.29 222.63L69.17 222.97L71.16 218.8L70.98 219.09L73.61 215.84C73.47 216.01 73.3 216.16 73.11 216.28L76.25 214.15C75.83 214.38 75.41 214.52 74.94 214.63L78.48 213.82C70.88 215.31 63.03 214.42 55.44 215.99C52.66 216.56 49.52 217.1 46.89 218.31C38.84 222.01 35.86 231.87 36.06 240.09C36.26 247.99 39.56 258.04 47.52 261.42C50.88 262.85 55.37 262.78 58.5 260.74C60.38 259.91 61.86 258.66 62.96 256.98C64.5 255.33 65.61 253.4 66.26 251.18C67.19 248.72 67.66 246.18 67.66 243.57C67.99 240.85 67.85 238.15 67.22 235.46C66.18 231.17 64.47 226.19 60.78 223.44L57.54 221.47C55.15 220.56 52.78 220.62 50.43 221.64C49.87 222 49.32 222.26 48.67 222.42L52.21 221.61C51.81 221.67 51.48 221.69 51.08 221.66L54.65 222.3C54.28 222.23 53.99 222.14 53.66 221.97L56.9 223.94C56.73 223.84 56.58 223.71 56.44 223.57L59.22 226.69C59.08 226.55 58.96 226.39 58.86 226.22L61.05 230.29C60.95 230.12 60.87 229.94 60.81 229.75L62.28 234.58L62.21 234.3L62.82 239.7C62.79 239.51 62.78 239.32 62.8 239.13L62.46 244.55L62.52 244.28L61.29 249.18L61.39 248.92L59.4 253.09L59.55 252.84L56.92 256.09C57.07 255.9 57.24 255.73 57.45 255.6L54.31 257.73C55.75 256.88 57.5 256.47 59.11 256.07L55.57 256.88C60.45 255.76 65.45 255.68 70.43 255.45C72.97 255.33 75.51 255.16 78.02 254.78C79.11 254.61 80.15 254.37 81.23 254.13C82.22 253.9 83.24 253.76 84.16 253.32C90.07 250.53 93.06 243.82 94.1 237.72C94.45 235.67 94.56 233.29 94.46 231.21C94.35 228.96 94.15 226.87 93.61 224.75C93.2 223.13 92.57 220.72 91.75 218.92C90.93 217.12 89.99 215.22 88.81 213.63C86.12 209.99 82.81 207.14 78.62 205.34C77.02 204.65 75.33 204.38 73.63 204.08C71.82 203.76 70.06 203.46 68.23 203.36C65.52 203.21 62.8 203.19 60.09 203.12C54.01 202.96 47.85 202.8 41.84 201.82L45.42 202.46C44.35 202.26 43.35 201.98 42.38 201.47L45.63 203.45C45.18 203.17 44.81 202.88 44.44 202.51L47.23 205.63C46.98 205.33 46.78 205.05 46.58 204.71L48.77 208.78C48.65 208.56 48.56 208.34 48.48 208.1L49.95 212.94C49.88 212.71 49.83 212.47 49.81 212.23L50.42 217.64V217.28C50.3 219.09 50.18 220.9 50.07 222.71C50.07 222.47 50.12 222.23 50.19 221.99L48.96 226.89L49.08 226.56L47.09 230.74C47.25 230.42 47.41 230.16 47.63 229.88L45 233.13C45.32 232.78 45.67 232.49 46.05 232.22L42.9 234.35C45.76 232.52 49.31 231.55 52.59 230.79L49.05 231.61C55.91 230.08 62.95 229.97 69.95 230.01C76.95 230.05 84.12 230.4 91.03 229.27C95.2 228.58 97.33 227.88 100.67 225.33C102.21 224.16 103.44 222.5 104.46 220.9C107.44 216.2 108.43 210.5 108.46 205.04C108.47 202.81 108.17 200.39 107.73 198.2C107.01 194.59 105.53 191 103.5 187.93C101.06 184.23 98.1 182.15 94.28 180.11C87.03 176.22 78.47 174.42 70.4 173.33C61.85 172.17 53.14 173.46 44.64 171.95L48.22 172.59C47.41 172.43 46.67 172.21 45.95 171.8L49.2 173.78C48.91 173.59 48.69 173.4 48.45 173.15L51.24 176.28C51.1 176.11 50.98 175.93 50.88 175.73L53.08 179.81L52.93 179.41L54.4 184.25L54.31 183.83L54.92 189.25C54.88 188.81 54.88 188.4 54.9 187.96L54.55 193.4C54.61 192.89 54.69 192.38 54.8 191.88L53.57 196.79C53.76 196.04 54.01 195.32 54.33 194.62L52.34 198.8C52.85 197.74 53.46 196.77 54.19 195.86L51.56 199.12C52.58 197.9 53.74 196.87 55.05 195.96L51.9 198.1C54.69 196.27 57.82 195.19 61.05 194.44L57.5 195.26C64.37 193.73 71.42 193.45 78.43 193.26C81.97 193.16 85.52 193.08 89.06 192.85C91.41 192.7 93.74 192.34 96 191.61C97.57 191.11 99.04 189.97 100.31 188.96C102.53 187.21 103.74 184.91 104.91 182.46C106.96 178.15 107.79 173.54 107.64 168.75C107.5 164.3 106.67 161.37 105.27 157.2C104.72 155.57 104.12 153.97 103.47 152.38C101.7 148.05 99.61 143.69 97.14 139.74C94.35 135.3 90.47 131.48 85.64 129.34C82.07 127.76 77.67 127.49 73.82 128.03C65.3 129.22 57.05 132.08 48.69 134.04L51.9 133.3C49.46 133.86 47.03 134.46 44.59 135.03L47.74 134.3C42.92 135.39 37.72 136.26 32.79 135.56L35.73 136.09C34.96 135.95 34.25 135.74 33.56 135.37L36.19 136.97C35.86 136.75 35.59 136.54 35.31 136.26L37.56 138.77C37.31 138.47 37.1 138.18 36.9 137.85L38.66 141.11C38.42 140.63 38.25 140.15 38.09 139.65L39.26 143.5C37.5 137.29 36.36 130.93 35.11 124.6L14.79 133.73C15.11 135.36 15.43 136.99 15.64 138.64L15.15 134.31C15.3 135.64 15.36 136.97 15.28 138.31L15.56 133.95C15.49 134.68 15.38 135.4 15.22 136.12L16.21 132.18C16.1 132.61 15.97 133.03 15.82 133.45C22.58 136.05 29.34 138.64 36.09 141.24C36.03 140.36 36.03 139.48 36.08 138.6L35.8 142.98C35.87 142.1 36.01 141.25 36.2 140.39L35.2 144.36C35.52 143.09 35.95 141.87 36.51 140.68L34.88 144.1C35.24 143.38 35.63 142.68 36.09 142.02L33.92 144.7C34.14 144.43 34.35 144.22 34.63 144L32.03 145.76L32.31 145.59L29.38 146.26C29.59 146.3 29.8 146.33 30.01 146.36L27 145.82C27.2 145.87 27.39 145.94 27.57 146.05L24.81 144.37C25.1 144.56 25.31 144.76 25.55 145.01L23.14 142.31C23.45 142.7 23.71 143.1 23.95 143.53L22 139.91C22.83 141.46 23.56 143.07 24.52 144.55L22.54 140.86C23.2 142.48 24.14 144.08 25.06 145.58C25.35 146.05 25.68 146.49 26.04 146.92C27.12 148.2 28.22 149.53 29.45 150.67C29.63 150.83 29.81 150.99 30 151.14C30.93 151.88 32.51 152.87 33.62 153.3L30.45 151.37C32.3 152.53 33.85 153.65 35.9 154.2C37.75 154.69 39.69 155.15 41.59 155.21C43.3 155.26 45.07 154.94 46.74 154.61C52.22 153.53 57.64 152.05 63.06 150.73C65.42 150.16 67.67 149.56 69.94 148.74C72.21 147.92 74.55 147.24 76.69 146.2C78.83 145.16 80.81 144.2 82.98 143.47C83.54 143.28 84.18 143.19 84.72 142.96C85.89 142.48 87.02 141.44 87.91 140.54C88.67 139.76 89.52 139.07 90.41 138.44C91.73 137.13 92.69 135.58 93.29 133.81C93.87 132.27 94.16 130.69 94.16 129.07C94.4 125.34 93.73 121.61 91.61 118.46V118.45Z" fill="#1D1D1B"/>
<path d="M16.75 148.44C14.56 151.74 14.78 155.85 14.95 159.65C15.05 161.95 15.19 164.24 15.29 166.54C15.5 171.38 15.77 176.22 15.84 181.07C15.86 182.3 15.86 183.53 15.86 184.76C15.86 185.25 15.85 185.74 15.83 186.24C15.81 186.57 15.8 186.9 15.78 187.23C15.72 188.29 15.74 187.89 15.86 186.02C15.69 188.27 15.5 190.51 15.28 192.75C14.92 196.51 14.96 199.95 15.46 203.68C15.93 207.19 17.23 210.37 18.98 213.42C19.86 214.95 22.2 216.63 24.07 216.46C26.25 216.26 27.81 214.96 29 213.18C30.69 210.65 31.85 207.41 32.61 204.46C32.93 203.22 33.26 201.97 33.52 200.71C33.83 199.16 33.2 201.81 33.16 201.98C33.44 200.98 33.68 199.95 33.92 198.94C34.19 197.75 34.4 196.55 34.56 195.34C35.35 189.46 35.27 183.53 35.64 177.62L35.43 180.86C35.58 178.62 35.87 176.4 36.4 174.21L35.66 177.18C36.09 175.51 36.64 173.87 37.39 172.31L36.18 174.85C36.4 174.42 36.62 174.02 36.92 173.63L35.32 175.61C35.47 175.44 35.64 175.29 35.83 175.18L33.92 176.48L34.22 176.35L32.07 176.85C32.27 176.8 32.46 176.79 32.66 176.83L30.49 176.44L30.73 176.52L28.76 175.32C28.91 175.39 29.04 175.49 29.14 175.61L27.45 173.72L27.6 173.92L26.27 171.45C26.36 171.61 26.44 171.77 26.49 171.94L25.6 169.01C25.66 169.2 25.7 169.39 25.73 169.58L25.36 166.3C25.39 166.61 25.4 166.9 25.39 167.22L25.6 163.93C25.31 167.22 24.16 170.51 23.41 173.71C22.44 177.86 21.89 182.02 21.81 186.3C21.66 195.11 24.52 204.41 31.07 210.52C32.69 212.03 35.29 212.48 37.31 211.6C39.52 210.65 41.27 208.03 41.99 205.84C43.8 200.3 43.14 193.27 38.69 189.12C38.32 188.78 37.98 188.43 37.64 188.05L39.32 189.93C38.68 189.17 38.12 188.37 37.63 187.5L38.95 189.95C38.42 188.96 38 187.93 37.65 186.86L38.54 189.78C38.18 188.56 37.93 187.33 37.77 186.07L38.14 189.33C37.97 187.81 37.94 186.29 38.03 184.76L37.82 188.04C38.07 184.49 38.9 181.03 39.76 177.6L39.02 180.57C39.73 177.75 40.48 174.94 41.08 172.1C41.89 168.26 41.81 164.36 40.66 160.6C39.4 156.43 36.39 151.86 31.47 152.12C28.56 152.27 26.48 154.37 24.9 156.58C23.98 157.86 23.37 159.44 22.74 160.87C21.11 164.56 20.3 168.71 20 172.72C19.7 176.73 19.46 181.17 19.85 185.36C20.19 189.01 20.52 192.67 20.32 196.33L20.5 193.52C20.47 194.02 20.44 194.52 20.36 195.01C20.32 195.25 20.26 195.49 20.21 195.72C19.91 197.14 20.85 193.37 20.53 194.45C20.24 195.44 19.92 196.4 19.52 197.35L20.54 195.21C19.97 196.25 19.27 197.21 18.63 198.2L28.65 197.95L28.44 197.6L29.6 199.76C29.22 199.04 28.91 198.3 28.67 197.51L29.45 200.07C29.23 199.28 29.08 198.48 28.97 197.67L29.29 200.53C28.88 196.79 29.15 192.94 29 189.18C28.84 185 28.7 180.81 28.44 176.63C28.15 171.86 27.69 167.11 27.15 162.37C26.58 157.37 26.64 150.76 22.66 147.2C20.62 145.37 18.09 146.52 16.77 148.51L16.75 148.44Z" fill="#1D1D1B"/>
<path d="M20.99 208.1C19.93 210.7 19.3 213.42 18.73 216.16C18.25 218.45 17.79 220.75 17.63 223.09C17.25 228.53 17.05 233.93 17.2 239.38C17.35 245.22 18.04 251.49 21.62 256.34C23.47 258.85 26.06 260.92 29.16 261.54C31.76 262.06 34.38 262.03 36.98 262.47L34.84 262.09C36.92 262.49 39.04 263.15 41.17 263.18C42.42 263.2 43.83 262.89 44.99 262.44C47.09 261.62 48.39 259.88 49.73 258.18C51.42 256.03 52.09 251.73 51.95 249.14C51.78 246.04 51.15 242.78 49.29 240.22C47.28 237.45 44.85 234.8 42.01 232.85C40.4 231.75 38.7 230.7 36.94 229.86C35.18 229.02 32.97 228.08 31.05 228.41L28.87 228.91C27.71 229.42 26.79 230.19 26.12 231.23C24.62 233.09 23.63 235.45 23.32 237.83C23.04 240.05 23.09 242.31 23.48 244.51C23.91 246.95 25.39 250.37 27.46 251.93C28.47 252.69 29.52 253.43 30.72 253.81C31.27 253.99 31.82 254.18 32.36 254.4C33.44 254.84 34.47 255.37 35.46 255.96L33.42 254.72C35.29 255.88 36.97 257.27 38.45 258.9L36.71 256.95C37.14 257.44 37.54 257.93 37.93 258.45C37.78 252.46 37.64 246.48 37.49 240.49L37.3 240.74L38.94 238.71C38.73 238.94 38.52 239.12 38.27 239.3L40.23 237.97C39.79 238.25 39.35 238.42 38.85 238.54L41.03 238.04C39.35 238.35 37.67 238.07 35.98 238.07C33.92 238.07 31.92 238.49 29.87 238.15L31.94 238.52C31.17 238.35 30.48 238.1 29.8 237.69L31.67 238.83C31.22 238.52 30.82 238.17 30.46 237.77L32.05 239.55C31.78 239.21 31.54 238.87 31.31 238.49L32.56 240.81C32.24 240.22 31.99 239.61 31.78 238.97L32.61 241.71C32.25 240.48 32.03 239.23 31.87 237.96L32.21 240.98C31.77 237.1 31.45 233.21 31.01 229.33L31.33 232.19C31.13 230.42 30.95 228.64 30.8 226.86C30.73 226.05 30.69 225.25 30.63 224.44C30.57 223.63 30.11 218.86 30.49 222.99C30.45 222.59 30.4 222.19 30.36 221.78C30.02 218.35 29.98 214.91 29.89 211.47C29.83 209.19 28.83 205.4 26.25 204.61C23.67 203.82 21.89 205.84 20.99 208.05V208.1Z" fill="#1D1D1B"/>
<path d="M42.95 260.7C43.85 261.08 44.33 261.62 45.04 262.31C46.12 263.37 47.14 264.26 48.52 264.93C50.42 265.86 52.35 266.61 54.38 267.21C58.85 268.54 63.42 269.09 68.06 269.42C72.18 269.71 76.2 269.9 80.32 269.53C85.11 269.1 89.74 268.08 94.38 266.81C96.65 266.19 98.9 265.49 101.12 264.72C103.34 263.95 105.43 263.03 107.65 262.45L105.15 263.03C106.41 262.74 107.64 262.63 108.93 262.82L106.45 262.38C106.98 262.49 107.48 262.63 107.98 262.87L105.75 261.51L106.01 261.71L104.1 259.57L104.25 259.82L101.34 250.08V250.27C101.47 251.49 101.6 252.71 101.74 253.93L102.73 257.21C103.68 259.46 105.1 261.47 107.2 262.75C108.72 263.67 110.18 263.98 111.92 263.58C114.06 263.09 115.93 261.6 117.03 259.65C121.33 252.04 120.4 239.33 111.49 235.35C109.97 234.67 108.2 234.41 106.56 234.24C105.71 234.15 104.85 234.19 104 234.3C99.27 234.9 95.06 236.99 90.61 238.5C86.86 239.77 83.02 240.78 79.22 241.91C77.32 242.47 75.41 242.98 73.48 243.44C71.55 243.9 69.55 244.63 67.55 245.09L69.72 244.59C64.9 245.68 60 246.32 55.19 247.44L57.01 247.02C54.39 247.62 51.78 248.16 49.19 248.88C48.65 249.03 48.01 249.11 47.51 249.36C46.85 249.68 46.22 250.23 45.61 250.66C45.18 250.96 45.16 250.97 45.57 250.69C45.31 250.86 45.05 251.04 44.8 251.21C44.34 251.6 44.19 251.59 43.54 251.66C39.65 252.08 39.78 259.39 42.96 260.72L42.95 260.7Z" fill="#1D1D1B"/>
<path d="M113.12 150.47C111.86 153.19 111.15 155.93 110.44 158.85C110.13 160.1 109.83 161.36 109.52 162.61C109.37 163.23 109.27 163.89 109.06 164.49C109.23 163.99 109.85 161.28 109.12 164.19C108.94 164.92 108.77 165.64 108.61 166.38C107.46 171.53 106.3 176.66 105.36 181.86C104.42 187.06 103.94 192.32 103.24 197.53C102.54 202.74 101.89 207.74 101.12 212.84C100.26 218.56 99.4 224.26 97.99 229.88L98.87 226.38C98.28 228.7 97.7 231.11 96.79 233.34L98.23 230.33C98.08 230.63 97.94 230.87 97.73 231.13L99.63 228.78L99.41 228.98L101.68 227.44C101.52 227.56 101.34 227.64 101.14 227.67L103.7 227.08H103.36C104.22 227.24 105.08 227.4 105.95 227.55C105.58 227.47 105.3 227.36 104.97 227.18L107.32 228.61C106.82 228.3 106.39 227.94 105.98 227.52L108 229.78C107.62 229.34 107.29 228.88 107 228.37L108.59 231.31C108.26 230.67 108 230.02 107.79 229.34L108.85 232.83C108.62 232.01 108.47 231.19 108.37 230.35L108.81 234.25C108.64 232.53 108.68 230.81 108.59 229.09C108.36 224.9 107.67 221.36 106.33 217.4L104.75 214.47L102.75 212.23L100.41 210.81C99.12 210.23 97.83 210.17 96.57 210.64C91.8 211.74 89.65 216.99 88.83 221.34C88.29 224.19 87.74 227.04 87.2 229.88C86.66 232.72 85.96 235.57 85.6 238.44C85.14 242.13 85.37 246.14 86.84 249.61C87.84 251.99 90 255.32 92.7 256.14C99.46 258.2 103.13 251.23 104.18 245.71C104.33 244.91 104.48 244.12 104.64 243.32L103.78 246.75C109.02 226.49 113.97 206.18 114.08 185.12C114.11 179.83 113.77 174.53 114.06 169.24L113.82 172.99C113.96 170.75 114.23 168.54 114.67 166.34L96.47 163.05C96.83 182.22 98.67 201.42 101.73 220.34C102.55 225.41 103.41 230.48 103.99 235.59L103.55 231.69C104.15 237.14 104.42 242.68 104.12 248.15C104.1 250.09 104.42 251.97 105.09 253.77C105.48 255.45 106.18 257.01 107.19 258.43C108.67 260.36 110.34 261.88 112.81 262.32C113.67 262.65 114.52 262.63 115.36 262.26C116.73 262.1 117.91 261.5 118.89 260.44C121.2 258.13 122.74 254.82 123.09 251.59C123.72 245.72 123.84 239.98 123.22 234.12C122.6 228.26 121.74 222.36 120.68 216.5C118.98 207.11 117.42 197.72 116.33 188.24L116.75 191.99C115.65 182.22 115.05 172.43 114.91 162.6C114.83 157.42 112.4 150.05 106.58 149.01C104.47 148.63 102.31 149.25 100.74 150.82C98.41 153.15 97.37 156.14 96.71 159.32C94.46 170.15 95.98 181.35 95.3 192.3L95.54 188.54C94.69 201.36 92.02 213.94 88.9 226.37L89.76 222.94C88.75 226.96 87.81 231.02 86.48 234.94L103.3 249.19C105.1 242.45 106.23 235.51 107.58 228.67L90.07 232.6L90.21 233.02L89.15 229.54C89.39 230.39 89.55 231.25 89.65 232.13L89.21 228.24C89.61 232.66 89.26 237.13 90.5 241.46C91.44 244.75 92.47 247.92 94.6 250.69C96.85 253.62 100.12 256.62 104.09 256.56C109.2 256.48 112.37 251.75 113.96 247.45C114.95 244.77 115.54 241.76 116.21 239.02C117.08 235.47 117.76 231.88 118.3 228.26C119.43 220.74 119.92 213.15 120.52 205.57C121.21 196.78 121.98 188.01 122.19 179.19C122.29 174.91 122.19 170.62 122.06 166.35C121.91 161.47 121.87 156.63 120.89 151.82C120.5 149.92 119.34 147.67 117.27 147.3C115.2 146.93 113.92 148.78 113.14 150.47H113.12Z" fill="#1D1D1B"/>
</g>
<defs>
<clipPath id="clip0_3416_9951">
<rect width="134.95" height="274.19" fill="white"/>
</clipPath>
</defs>
</svg>
