<svg width="286" height="263" viewBox="0 0 286 263" fill="none" xmlns="http://www.w3.org/2000/svg">
<g clip-path="url(#clip0_3416_10026)">
<path d="M50.73 139.46C51.47 169.98 57.59 200.26 66.96 229.26C68.02 232.54 69.32 237.17 73.71 236.6C75.43 236.38 77.15 235.75 78.82 235.29C80.6 234.81 82.77 234.57 84.39 233.67C88.2 231.56 87.26 226.34 86.91 222.78C86.53 218.82 86.07 214.87 85.55 210.94C83.51 195.67 80.33 180.59 76.86 165.59C75.87 161.32 74.86 157.05 73.82 152.79C72.78 148.53 72.09 144.42 70.73 140.43C70.02 138.37 68.64 136.53 66.42 136.03C64.38 135.57 62.23 135.42 60.16 135.25C55.71 134.88 51.19 134.86 46.86 136.08C45.28 136.52 44.99 139.13 45.14 140.39C45.3 141.82 46.06 143.63 47.73 143.7C51.28 143.85 54.86 143.46 58.41 143.3C60.19 143.22 61.97 143.19 63.75 143.22C64.39 143.23 65.07 143.2 65.69 143.34C66 143.41 66.24 143.48 66.46 143.72C66.22 143.46 66.45 143.77 66.48 143.93C66.35 143.32 66.63 144.48 66.63 144.46C66.75 144.93 66.86 145.4 66.98 145.88C67.18 146.67 67.37 147.45 67.57 148.24C68 149.97 68.43 151.7 68.86 153.44C69.71 156.91 70.56 160.37 71.39 163.85C74.71 177.73 77.71 191.7 79.88 205.81C80.94 212.72 81.87 219.58 82.35 226.54C82.35 226.68 82.31 227.54 82.39 227.62C81.37 226.63 83.23 226.95 82.85 226.22C82.89 226.29 81.1 226.77 80.97 226.8C79.26 227.21 77.56 227.61 75.85 228.01C75.21 228.16 74.56 228.34 73.91 228.44C73.54 228.5 73.1 228.59 72.73 228.52C72.57 228.49 73.03 228.6 72.84 228.69C72.71 228.76 72.59 228.15 72.8 228.64C72.67 228.33 72.56 228 72.45 227.68C72.14 226.78 71.83 225.88 71.53 224.98C67.11 211.97 63.5 198.66 60.51 185.16C58.83 177.57 57.72 169.88 56.38 162.23C55.04 154.58 53.97 146.71 53.05 138.92C52.97 138.27 52.43 137.53 51.72 137.66C50.97 137.8 50.72 138.83 50.74 139.46H50.73Z" fill="#1D1D1B"/>
<path d="M90.4 142.06C89.22 154.14 89.25 166.2 89.63 178.31C90.01 190.44 91.15 202.55 92.83 214.57C93.78 221.34 94.81 228.14 96.18 234.84C96.51 236.43 97.44 237.91 99.13 238.1C102.44 238.48 105.89 238.74 109.16 238.01C113.01 237.16 115.91 234.98 117.61 231.37C119.58 227.17 119.24 222.27 119.21 217.76C119.18 213.09 119.14 208.41 119.01 203.74C118.48 184.73 116.79 165.75 114 146.93C113.66 144.61 113.47 142.11 112.43 139.97C111.2 137.45 109.21 136.42 106.55 135.95C101.39 135.04 95.98 135.07 90.92 136.47C89.2 136.95 88.88 139.8 89.04 141.17C89.18 142.39 90.11 145.15 91.86 144.78C95.92 143.92 99.95 143.15 104.12 143.17C105.39 143.17 107.64 143 108.49 144.01C108.54 144.07 108.66 144.32 108.66 144.31C108.57 144.03 108.73 144.6 108.73 144.59C108.77 144.77 108.81 144.95 108.84 145.14C109.04 146.16 109.18 147.2 109.33 148.24C110.58 156.6 111.61 164.99 112.39 173.4C113.19 181.97 113.75 190.57 114.08 199.17C114.24 203.43 114.35 207.69 114.39 211.96C114.41 214.09 114.42 216.22 114.39 218.36C114.38 219.43 114.36 220.49 114.34 221.56C114.34 221.97 114.32 222.38 114.31 222.79C114.31 223 114.3 223.2 114.28 223.41C114.24 224.15 114.4 222.57 114.24 223.86C114.04 225.5 113.91 226.78 112.86 227.81C111.81 228.84 110.76 229.38 109.2 229.74C106.27 230.42 102.64 229.85 99.69 229.16L101.85 232.28C97.75 208.82 94.72 186.34 93.83 162.54C93.58 155.86 93.2 149.18 92.9 142.51C92.87 141.8 92.57 140.76 91.75 140.63C90.97 140.5 90.45 141.38 90.38 142.06H90.4Z" fill="#1D1D1B"/>
<path d="M127.35 143.14C125.41 154.55 125.6 166.23 125.29 177.77C124.98 189.31 125.22 200.86 125.68 212.38C125.94 218.85 126.28 225.31 126.69 231.77C126.79 233.27 127.45 235.55 129.33 235.58C131.49 235.61 133.66 235.64 135.82 235.66C137.8 235.68 139.85 235.86 141.82 235.68C146.82 235.23 146.83 229.67 147.09 225.84C147.68 216.96 148.07 208.07 148.3 199.18C148.74 181.72 148.29 164.23 146.96 146.82C146.78 144.52 146.55 142.07 145.04 140.21C143.53 138.35 141.25 138.09 138.97 138.33C134.38 138.81 129.7 139.91 125.46 141.76C122.57 143.02 123.5 150.38 126.96 149.05C130.42 147.72 133.74 146.65 137.33 146.09C138.78 145.86 140.5 145.44 141.93 145.91C142.06 145.95 141.74 145.69 141.86 145.65L141.99 145.96C141.89 145.62 141.89 145.65 141.99 146.07C142.15 147.18 141.96 145.63 142.03 146.29C142.09 146.84 142.12 147.39 142.17 147.94C142.8 155.83 143.25 163.72 143.5 171.63C144 187.28 143.85 202.96 142.74 218.58C142.59 220.71 142.43 222.84 142.25 224.97C142.16 226.01 142.03 227.06 141.97 228.1C141.92 228.86 142.24 227.86 141.88 228.5C142.5 227.41 142.3 228.13 141.84 228.07C141.02 227.96 140.09 228.08 139.26 228.07L135.89 227.99C133.64 227.94 131.4 227.89 129.15 227.85L131.79 231.66C131.08 220.23 130.64 208.78 130.35 197.33C130.06 185.89 129.83 174.42 130.1 162.98C130.25 156.52 130.28 150.04 129.83 143.6C129.78 142.91 129.52 141.9 128.7 141.76C127.88 141.62 127.48 142.5 127.37 143.15L127.35 143.14Z" fill="#1D1D1B"/>
<path d="M156.32 136.85C155.99 142.91 155.48 148.98 155.35 155.05C155.22 161.12 155.26 167 155.14 172.98C154.91 185.02 154.71 197.06 154.52 209.09C154.41 215.9 154.34 222.7 154.31 229.51C154.31 231.4 155.28 233.65 157.34 233.89C160.47 234.26 163.63 234.45 166.79 234.55C169.95 234.65 173.14 234.77 176.26 234.32C177.77 234.1 178.5 232.68 178.74 231.3C181.32 216.07 181.89 200.56 181.48 185.15C181.28 177.58 180.84 170.02 180.28 162.46C180 158.64 179.68 154.82 179.36 151.01C179.04 147.2 178.92 143.34 178.32 139.58C177.99 137.54 177.01 135.23 174.93 134.43C173.12 133.74 170.89 134.1 169 134.08C164.53 134.02 160.05 133.87 155.58 133.95C153.48 133.99 152.63 136.85 152.72 138.54C152.81 140.23 153.63 143.12 155.8 142.99C159.44 142.77 163.08 142.37 166.71 142.04C168.52 141.87 170.35 141.64 172.17 141.58C172.19 141.58 173.83 141.68 173.8 141.71C173.81 141.7 173.34 141.12 173.48 141C173.48 141 173.66 142.19 173.57 141.41C174.38 148.52 174.81 155.7 175.32 162.83C176.34 177.1 176.94 191.42 176.22 205.72C175.83 213.38 174.94 221.51 173.58 229.29L176.06 226.27C172.91 225.98 169.73 226.07 166.57 225.88C163.41 225.69 160.26 225.36 157.12 224.99L160.15 229.37C160.25 205.31 159.68 181.25 159.71 157.19C159.71 150.4 159.2 143.58 158.89 136.8C158.86 136.04 158.49 134.86 157.55 134.86C156.61 134.86 156.34 136.15 156.31 136.86L156.32 136.85Z" fill="#1D1D1B"/>
<path d="M190.08 144.76C189 151.64 187.77 158.55 187.17 165.49C186.57 172.43 186.08 179.9 185.76 187.11C185.44 194.32 185.33 201.25 185.41 208.33C185.45 211.87 185.54 215.4 185.66 218.94C185.78 222.48 185.78 226.01 186.03 229.54C186.14 231.16 186.36 233.01 187.71 234.12C188.26 234.57 189.04 234.9 189.72 235.12C191.03 235.54 192.5 235.7 193.86 235.5C196.86 235.05 199.41 233.62 201.36 231.3C205.83 225.96 206.42 218.9 206.51 212.22C206.7 198.1 206.17 183.99 205.37 169.9C205.14 165.94 204.92 161.98 204.68 158.03C204.56 156.05 204.44 154.07 204.32 152.1C204.2 150.13 204.15 148 203.57 146.04C202.61 142.8 200.27 140.53 196.93 139.92C194.04 139.39 191.09 139.84 188.39 140.97C185.16 142.33 186.06 149.91 190.04 148.98C190.64 148.84 192.45 148.41 193.2 148.27C194.44 148.03 195.81 147.86 197.07 148.08C196.63 148 197.54 148.22 197.52 148.21C197.79 148.3 198.07 148.4 198.31 148.55C197.93 148.32 198.33 148.62 198.38 148.65C199.05 149 198.12 148.32 198.64 148.89L198.81 149.14C198.66 148.85 198.68 148.91 198.86 149.34C198.75 148.67 198.94 149.98 198.93 149.95C198.91 149.76 198.88 149.29 198.93 150.1C198.97 150.73 199.01 151.36 199.05 151.99C199.52 159.49 200 166.99 200.35 174.5C200.7 182.01 200.98 189.51 201.08 197.02C201.13 200.82 201.14 204.61 201.1 208.41C201.06 212.06 201.1 214.66 200.62 217.79C200.57 218.14 200.51 218.48 200.44 218.82C200.39 219.09 200.33 219.37 200.26 219.64C200.35 219.28 200.33 219.34 200.2 219.82C200.07 220.21 199.95 220.61 199.8 221C199.76 221.09 199.33 222.07 199.55 221.63C199.37 222 199.14 222.33 198.91 222.68C198.66 223.01 198.64 223.04 198.85 222.76C198.7 222.93 198.54 223.09 198.38 223.25C198.22 223.41 198.05 223.57 197.88 223.71C197.78 223.8 196.78 224.51 197.22 224.24C196.12 224.93 194.39 225.8 193.62 225.9C191.96 226.12 191.29 226.04 189.91 225.34L192.33 229.89C192.24 228.58 192.17 227.26 192.09 225.95C192.03 225.04 191.91 224.14 191.82 223.23C191.72 222.24 191.81 222.81 191.82 222.99C191.8 222.5 191.77 222 191.74 221.51C191.6 218.8 191.49 216.09 191.4 213.38C191.21 207.87 191.17 202.37 191.09 196.86C190.94 186 191.33 175.19 191.72 164.34C191.95 158.12 192.01 151.9 192.42 145.69C192.47 144.93 192.38 143.78 191.53 143.46C190.68 143.14 190.19 144.11 190.09 144.77L190.08 144.76Z" fill="#1D1D1B"/>
<path d="M221.26 144.73C219.61 156.37 218.7 168.05 218.1 179.79C217.5 191.53 216.99 203.03 217.14 214.67C217.2 219.16 216.92 226.52 222.05 228.53C224.5 229.49 227.09 228.47 228.75 226.56C230.79 224.2 231.37 221.06 231.78 218.06C233.35 206.69 234.45 195.26 235.21 183.81C235.64 177.27 235.96 170.72 236.13 164.17C236.3 157.62 236.11 151.08 236 144.53C235.98 143.12 235.29 141.36 233.7 141.21C228.54 140.72 222.76 141.57 218.91 145.29C217.77 146.39 217.59 148.35 218.06 149.79C218.45 150.98 219.44 152.38 220.89 151.8C223.02 150.95 225.06 149.85 227.23 149.1C229.4 148.35 231.59 147.97 233.87 147.96L231.57 144.64C231.66 150.06 231.44 155.44 231.34 160.86C231.24 166.28 231.05 171.5 230.76 176.82C230.2 187.32 229.18 197.86 227.83 208.32C227.49 210.92 227.14 213.51 226.76 216.1C226.61 217.1 226.49 218.38 226.2 219C225.95 219.52 225.65 220 224.87 220.28C224.62 220.37 224.35 220.37 224.05 220.38C224.14 220.38 223.77 220.27 223.78 220.28C224.39 220.52 223.65 220.23 223.74 220.21C223.85 220.18 224.08 220.69 223.77 220.24C223.67 220.1 223.55 219.9 223.43 219.76L223.63 220.15L223.5 219.87C223.37 219.5 223.35 219.49 223.45 219.83C223.55 220.18 223.54 220.15 223.44 219.76C223.36 219.39 223.32 219 223.23 218.64C223.08 218.03 223.24 219.51 223.27 218.88C223.27 218.67 223.24 218.45 223.24 218.24C223.19 216.92 223.21 215.6 223.2 214.28C223.13 203.41 222.95 192.54 222.98 181.66C223.01 169.48 223.4 157.3 223.46 145.13C223.46 143.48 221.55 142.81 221.27 144.73H221.26Z" fill="#1D1D1B"/>
<path d="M18.32 121C17.94 125.55 19.02 130.03 19.93 134.47C20.77 138.56 21.73 142.63 22.63 146.71C24.43 154.88 26.03 163.09 27.92 171.25C31.67 187.46 35.75 203.6 39.87 219.71C42.17 228.73 44.47 237.74 46.77 246.76C47.24 248.59 48.33 251.78 50.57 252.25L50.76 252.29C52.79 252.71 54.42 252.1 55.52 250.24C57.03 247.68 57.31 244.65 56.65 241.79C56.41 240.74 56.12 239.7 55.85 238.65C55.32 236.56 54.78 234.46 54.25 232.37C53.2 228.26 52.16 224.16 51.11 220.05C49.02 211.84 46.89 203.65 44.75 195.45C40.41 178.84 35.97 162.29 30.9 145.89C30.83 145.66 30.76 145.43 30.68 145.19C30.84 145.7 30.87 145.81 30.7 145.23C30.53 144.65 30.38 144.12 30.22 143.56L29.18 139.99C28.53 137.77 27.89 135.55 27.24 133.32C26.5 130.79 25.7 128.28 24.9 125.76C24.18 123.52 23.44 121.29 21.99 119.4C20.54 117.51 18.49 118.96 18.32 120.98V121Z" fill="#1D1D1B"/>
<path d="M50.48 248.62C53.28 250.34 56.11 252.01 59.04 253.5C61.63 254.82 64.86 255.31 67.68 255.97C73.76 257.39 79.92 258.62 86.08 259.64C98.03 261.63 110.27 262.12 122.36 262.42C148.24 263.06 174.11 262.08 199.89 259.82C207.02 259.2 214.15 258.52 221.25 257.6C224.73 257.14 228.2 256.61 231.64 255.95C233.61 255.57 235.58 255.14 237.53 254.67C238.36 254.47 239.27 254.26 240.05 253.9C241.55 253.2 242.22 251.67 242.98 250.31L241.54 251.66C242.11 251.29 242.69 250.92 243.26 250.55C244.95 249.44 245.48 247.52 245.25 245.56C245.07 243.94 244.19 241.77 242.25 241.73C241.63 241.72 241.02 241.7 240.4 241.68L242.11 242.33C240.8 241.27 239.67 240.15 237.82 240.48C236.39 240.73 234.99 241.1 233.58 241.43L234.8 241.15C222.92 243.88 210.68 245 198.56 246.15C186.44 247.3 173.66 248.2 161.18 248.76C137.35 249.84 113.24 250.7 89.46 248.44C83.15 247.84 76.98 247.26 70.87 245.9C67.59 245.17 64.34 244.03 61.05 243.41C57.76 242.79 54.62 242.72 51.45 242.26C50.23 242.08 49.49 243.93 49.35 244.82C49.17 245.96 49.36 247.96 50.47 248.65L50.48 248.62Z" fill="#1D1D1B"/>
<path d="M269.09 118.03C268.4 122.23 267.54 126.4 266.59 130.54C265.64 134.68 264.82 138.96 263.88 143.16C263.43 145.2 262.94 147.23 262.44 149.26C262.2 150.21 262.38 149.48 262.44 149.29C262.38 149.51 262.33 149.72 262.27 149.94C262.14 150.44 262.01 150.95 261.88 151.45C261.6 152.53 261.31 153.61 261.02 154.69C259.89 158.85 258.62 162.96 257.29 167.06C251.94 183.49 246.25 199.84 241.95 216.59C240.66 221.63 239.43 226.68 238.39 231.78C237.89 234.2 237.43 236.63 237.02 239.07C236.82 240.25 236.6 241.43 236.45 242.62C236.06 245.71 236.76 248.28 238.79 250.54C239.51 251.35 240.63 251.24 241.53 251.02C244.82 250.2 244.97 245.62 245.44 242.84C245.81 240.7 246.21 238.56 246.64 236.44C247.07 234.32 247.53 232.19 248.02 230.07C248.24 229.12 248.46 228.17 248.69 227.22C248.83 226.64 248.97 226.05 249.12 225.47C249.17 225.25 249.23 225.03 249.28 224.81C249.49 223.95 248.89 226.34 249.26 224.89C251.41 216.5 253.83 208.18 256.27 199.88C258.71 191.58 261.28 183.18 263.51 174.75C264.07 172.62 264.63 170.48 265.17 168.34C265.38 167.53 265.58 166.71 265.78 165.9C265.85 165.61 265.93 165.32 266 165.02C266.02 164.95 266.2 164.22 266.05 164.8C265.9 165.38 266.09 164.66 266.11 164.58C266.19 164.29 266.26 164 266.34 163.71C266.49 163.13 266.64 162.54 266.79 161.96C267.94 157.46 269.03 152.95 270 148.41C270.97 143.87 272 139 272.39 134.22C272.8 129.06 273.01 123.9 272.95 118.73C272.94 117.67 272.42 116.04 271.19 115.86C269.96 115.68 269.28 116.99 269.11 118.03H269.09Z" fill="#1D1D1B"/>
<path d="M3.99 120.52C8.39 121.54 12.8 122.48 17.25 123.28C19.59 123.7 21.96 124.25 24.32 124.47C26.68 124.69 28.91 124.92 31.2 125.12C40.2 125.9 49.26 126.6 58.3 126.7C76.63 126.91 94.96 126.75 113.29 126.82C131.62 126.89 150.02 126.82 168.38 126.77C186.74 126.72 205.11 126.65 223.47 126.82C232.52 126.91 241.58 127.04 250.64 126.88C259.7 126.72 268.25 126.4 276.84 124.76C278.11 124.52 279.62 124.12 280.79 123.53C281.96 122.94 283.1 121.98 284.19 121.19C285.69 120.1 285.93 117.37 285.75 115.77C285.59 114.35 284.81 111.7 283.1 111.34C281.93 111.1 280.74 110.74 279.56 110.63C278.38 110.52 277.15 110.63 276.03 110.82C273.91 111.17 271.79 111.55 269.66 111.84C265.31 112.42 260.93 112.8 256.55 113.05C247.59 113.56 238.61 113.57 229.65 113.78C211.38 114.2 193.11 114.45 174.83 114.65C156.47 114.85 138.11 114.98 119.76 115.3C101.41 115.62 83.4 116.03 65.21 115.96C56.18 115.92 47.15 116 38.12 115.92C33.62 115.88 29.11 115.78 24.61 115.61C20.11 115.44 15.62 115.67 11.15 115.69C8.87 115.69 6.59 115.69 4.32 115.65C2.3 115.62 2.21 120.1 4.01 120.52H3.99Z" fill="#1D1D1B"/>
<path d="M281.46 117.63C283.12 111.77 284.04 105.51 283.68 99.4102C283.49 96.2402 283.08 93.0602 282.42 89.9602C281.72 86.6802 280.93 83.2502 279.55 80.1902C278.92 78.7802 277.68 77.2802 275.96 77.7002C274.15 78.1402 273.5 80.0102 273.11 81.6402C272.81 82.9002 272.93 84.1002 273.13 85.3602C273.44 87.3602 276 90.6402 278.15 88.3002C279.26 87.0802 279.64 85.9102 280.02 84.3402L273.57 85.7902C274.66 88.2202 275.9 90.5302 276.75 93.0602C276.86 93.4002 276.98 93.7402 277.08 94.0802C276.9 93.5002 277.12 94.2302 277.18 94.4502C277.36 95.0802 277.52 95.7102 277.68 96.3502C278 97.6902 278.28 99.0402 278.5 100.4C279.32 105.48 279.53 110.65 278.78 116C278.66 116.87 278.84 118.11 279.68 118.59C280.45 119.03 281.25 118.44 281.47 117.64L281.46 117.63Z" fill="#1D1D1B"/>
<path d="M6.84001 116.59L6.68001 116.18L7.56001 117.45C7.38001 117.11 7.14001 116.77 7.01001 116.42C7.09001 116.63 7.09001 117.01 7.13001 116.54C7.16001 116.25 7.04001 115.87 7.01001 115.57C6.91001 114.78 7.05001 115.97 6.96001 115.19C6.85001 114.27 6.74001 113.35 6.63001 112.43C6.63001 112.38 6.54001 111.69 6.59001 112.09C6.55001 111.77 6.52001 111.45 6.49001 111.13C6.22001 108.34 6.06001 105.54 6.02001 102.73C6.00001 101.37 6.01001 100 6.04001 98.6401C6.06001 98.0001 6.08001 97.3601 6.11001 96.7101C6.12001 96.3901 6.14001 96.0701 6.16001 95.7501C6.24001 94.2101 6.11001 96.2001 6.18001 95.3301C6.31001 93.7101 6.46001 92.0901 6.57001 90.4701C6.53001 91.0001 6.57001 90.6002 6.58001 90.3002C6.64001 89.4302 6.66001 88.6301 6.52001 87.7701C6.36001 86.7701 6.04001 85.7001 5.42001 84.8901C4.87001 84.1601 3.88001 83.4301 2.92001 83.9501C1.00001 85.0001 0.510011 87.3301 0.310011 89.3401C0.120011 91.2001 0.0700106 93.0801 0.0300106 94.9501C-0.0399894 98.1601 0.0300106 101.37 0.270011 104.57C0.510011 107.77 0.890011 111.23 1.42001 114.52C1.85001 117.21 2.30001 122.81 5.90001 122.94C8.35001 123.03 8.24001 119.08 7.75001 117.64L7.73001 117.33C7.82001 116.84 7.33001 115.9 6.85001 116.59H6.84001Z" fill="#1D1D1B"/>
<path d="M3.80004 88.33C5.97004 88.55 8.18004 88.93 10.37 88.85C12.56 88.77 14.73 88.68 16.92 88.52C21.28 88.19 25.65 87.91 30.02 87.7C38.7 87.27 47.34 86.2 56.02 85.92C73.51 85.35 91.02 85.53 108.5 86.13C117.33 86.43 126.13 87.17 134.95 87.51C143.77 87.85 152.43 88.24 161.17 88.66C178.74 89.52 196.32 90.29 213.89 90.98C222.71 91.32 231.54 91.64 240.37 91.84C249.2 92.04 257.86 92.18 266.57 91.83C268.77 91.74 270.97 91.64 273.17 91.54C276.49 91.38 277.84 87.02 277.7 84.26C277.56 81.5 276.28 77.34 272.82 77.22C255.18 76.59 237.53 76.27 219.88 75.63C202.23 74.99 184.73 74.14 167.15 73.38C158.33 73 149.51 72.74 140.69 72.5C131.87 72.26 123.25 72.46 114.51 72.53C96.93 72.67 79.35 73.21 61.82 74.46C53.15 75.08 44.47 75.66 35.81 76.49C31.42 76.91 27.07 77.68 22.73 78.42C18.39 79.16 13.86 80.02 9.48004 81.12C7.33004 81.66 5.29004 82.69 3.25004 83.57C1.50004 84.33 1.80004 88.15 3.79004 88.35L3.80004 88.33Z" fill="#1D1D1B"/>
<path d="M198.23 85.3996C210.72 61.0796 223.95 37.3195 237.89 14.1895C240.31 10.1795 243.33 5.78955 247.3 5.63955C251.34 5.48955 254.31 9.79955 256.68 13.7295C257.57 15.1995 258.5 16.8695 258.31 18.7395C258.19 19.9195 257.63 20.9695 257.09 21.9695C244.61 44.9695 232.14 67.9696 219.66 90.9696C219.4 91.4496 219.13 91.9395 218.72 92.2095C218.26 92.5095 217.72 92.4596 217.21 92.3996C212.99 91.9196 208.78 91.4295 204.56 90.9495C202.54 90.7195 199.85 89.2796 200.55 86.8696" fill="#0D0802"/>
<path d="M199.27 86.9098C211.66 64.7898 225.26 43.3998 238.26 21.6498C239.74 19.1698 241.16 16.6198 242.88 14.2998C242.85 14.3398 243.65 13.3298 243.25 13.8098C242.85 14.2898 243.68 13.3398 243.65 13.3698C244.06 12.9198 244.5 12.4898 244.97 12.0998C245.15 11.9498 245.34 11.7998 245.52 11.6698C244.92 12.1098 245.52 11.6898 245.7 11.5998C245.94 11.4698 246.2 11.3698 246.45 11.2498C246.81 11.1298 246.86 11.1098 246.6 11.1798C246.34 11.2398 246.4 11.2498 246.77 11.2198C246.76 11.2198 247.82 11.3398 247.26 11.2298C246.7 11.1198 247.72 11.3998 247.72 11.3998C247.93 11.4798 248.12 11.5798 248.33 11.6698C249.24 12.0398 247.8 11.1198 248.52 11.8098C248.91 12.1798 249.33 12.4998 249.71 12.8998C250.35 13.5698 249.66 13.2398 249.7 12.8698C249.7 12.9598 250.35 13.6798 250.41 13.7598C251.19 14.8098 251.88 15.9398 252.59 17.0498C252.9 17.5398 253.21 18.0398 253.51 18.5398C253.64 18.7598 253.99 19.1598 254.01 19.3998C253.63 18.6798 253.54 18.5298 253.74 18.9298C253.83 19.1198 253.92 19.2998 253.99 19.4998C254.48 20.5898 253.85 18.8498 253.82 18.5398L253.78 18.0298C253.79 18.7798 253.8 18.5898 253.81 17.4698C253.98 16.0998 254.03 16.5898 253.83 17.0498C254.46 15.5698 253.89 16.8698 253.73 17.1698C252.94 18.6298 252.13 20.0898 251.33 21.5498C249.74 24.4798 248.15 27.4098 246.56 30.3398C243.38 36.1998 240.2 42.0498 237.02 47.9098C233.44 54.4998 229.86 61.0898 226.29 67.6798C224.54 70.8998 222.79 74.1298 221.05 77.3598C220.18 78.9798 219.31 80.5998 218.44 82.2098L217.02 84.8598L216.55 85.7398C216.41 86.0098 216.26 86.2698 216.11 86.5398C216.35 86.2098 216.63 85.9198 216.96 85.6798L218.18 85.3998C216.72 85.5598 215.06 85.0198 213.62 84.7698L214.9 84.9998C211.31 84.3298 207.68 83.9298 204.09 83.2898L205.43 83.5298C204.63 83.3498 203.94 82.8398 203.18 82.6498C203.97 83.1598 204.14 83.2398 203.69 82.8898C203.24 82.4598 203.4 82.6398 204.17 83.4498C202.89 82.0298 202.79 81.9098 203.86 83.0698C204.69 87.2698 205.1 88.4998 205.09 86.7798C205.12 84.5198 204.14 81.7498 202.15 80.5398C200.41 79.4798 198.18 80.2598 197.24 82.0898C195.53 85.4098 195.14 89.2898 196.59 92.8098C197.54 95.1098 199.55 97.2998 201.97 98.0698C203.79 98.6498 205.77 98.6798 207.67 98.8198C209.57 98.9598 211.56 99.1398 213.5 99.2698C215.44 99.3998 217.85 99.8598 219.75 99.1098C222.17 98.1598 223.28 95.2898 224.44 93.1798C226.36 89.6798 228.28 86.1798 230.19 82.6698C237.9 68.4598 245.6 54.2398 253.3 40.0198C255.29 36.3598 257.29 32.6998 259.25 29.0198C260.22 27.1998 261.33 25.3698 262.03 23.4198C263.27 19.9698 263.09 16.0998 261.8 12.6998C261.1 10.8498 260.01 9.12979 258.94 7.46979C258.32 6.50979 257.69 5.64979 256.91 4.79979C258.45 6.46979 255.66 3.40979 256.18 3.96979C255.89 3.65979 255.6 3.34979 255.29 3.05979C252.74 0.609787 249.34 -0.660213 245.87 0.329787C239.07 2.27979 235.67 9.75979 232.33 15.3598C228.35 22.0398 224.68 28.8798 221.03 35.7498C212.55 51.7098 204.67 67.9698 196.97 84.3198C196.58 85.1398 196.79 86.4598 197.41 87.1198C197.98 87.7198 198.84 87.6798 199.28 86.8998L199.27 86.9098Z" fill="#1D1D1B"/>
<path d="M100.48 85.4C87.9901 61.08 74.7601 37.32 60.8201 14.19C58.4001 10.18 55.3801 5.79004 51.4101 5.64004C47.3701 5.49004 44.4001 9.80004 42.0301 13.73C41.1401 15.2 40.2101 16.87 40.4001 18.74C40.5201 19.92 41.0801 20.97 41.6201 21.97C54.1001 44.97 66.5701 67.97 79.0501 90.97C79.3101 91.45 79.5801 91.94 79.9901 92.21C80.4501 92.51 80.9901 92.46 81.5001 92.4C85.7201 91.92 89.9301 91.43 94.1501 90.95C96.1701 90.72 98.8601 89.28 98.1601 86.87" fill="#0D0802"/>
<path d="M101.68 84.2698C94.88 69.8298 87.95 55.4498 80.52 41.3198C76.8 34.2498 73.13 27.1198 69.13 20.2098C67.14 16.7798 65.1 13.3698 63.03 9.98981C61.34 7.21981 59.41 4.26981 56.75 2.33981C54.09 0.409813 50.69 -0.580187 47.37 0.469813C44.05 1.51981 41.37 4.77981 39.53 7.63981C38.53 9.18981 37.56 10.7998 36.89 12.5198C35.53 15.9698 35.56 19.7198 36.73 23.2098C37.32 24.9798 38.31 26.5998 39.19 28.2398C40.31 30.3198 41.44 32.3898 42.56 34.4698C50.34 48.8298 58.13 63.1998 65.91 77.5598C68.05 81.5098 70.2 85.4598 72.36 89.3998C73.4 91.2998 74.44 93.1898 75.47 95.0898C76.11 96.2698 76.74 97.4598 77.83 98.3098C79.12 99.3198 80.57 99.5398 82.17 99.4598C84.45 99.3398 86.72 99.1798 88.99 99.0098C90.95 98.8598 92.97 98.8298 94.91 98.5298C97.52 98.1198 99.8 96.8998 101.28 94.6498C103.34 91.5198 103.71 86.6998 101.99 83.3098C101.08 81.5098 99.16 79.0698 96.8 80.2698C94.44 81.4698 93.61 84.5198 93.64 86.9998C93.63 85.6698 93.95 84.4198 94.61 83.2298C95.33 82.3398 95.49 82.1298 95.1 82.6098C94.96 82.7498 94.02 83.5998 94.83 82.9498C95.64 82.2998 94.59 83.0098 94.36 83.1198C93.99 83.2898 93.61 83.4198 93.21 83.5298L94.54 83.2198C92.21 83.7498 89.78 83.9798 87.42 84.3398C86.2 84.5298 84.99 84.7198 83.78 84.9298C82.63 85.1298 81.37 85.5198 80.2 85.3898L81.43 85.6098L82.59 86.7098C82.26 86.1798 82.29 86.2698 82.68 86.9598C82.52 86.6698 82.36 86.3698 82.21 86.0798L81.02 83.8798C80.23 82.4098 79.44 80.9398 78.65 79.4698C76.9 76.2098 75.15 72.9598 73.38 69.7098C70.2 63.8498 67.02 57.9998 63.84 52.1398C60.66 46.2798 57.48 40.4298 54.3 34.5698C52.71 31.6398 51.12 28.7098 49.53 25.7798C48.73 24.3198 47.94 22.8498 47.14 21.3898C46.78 20.7298 46.43 20.0698 46.07 19.4098C45.66 18.6598 45 17.8198 44.75 17.0098C45.46 19.2998 44.21 14.5498 44.83 17.2598C44.97 17.8898 44.97 18.5998 44.88 19.2398C44.64 20.9398 44.74 19.8298 44.91 19.3098C45.2 18.4198 44.76 19.5798 44.77 19.5998C44.72 19.4898 45.19 18.8498 45.27 18.7198C45.63 18.0998 46 17.4898 46.39 16.8898C47.1 15.7798 47.82 14.6898 48.56 13.6098C48.81 13.2498 48.75 12.9898 48.42 13.7598C48.52 13.5198 48.86 13.2598 49.04 13.0698C49.49 12.5798 49.97 12.1598 50.47 11.7098C49.8 12.3098 50.25 11.8498 50.53 11.6998C50.78 11.5698 51.03 11.4698 51.28 11.3598C51.87 11.0798 51.45 11.2898 51.24 11.3198C51.57 11.2598 51.89 11.2698 52.22 11.2298C52.47 11.1998 52.77 11.3798 52.22 11.1998C52.48 11.2898 52.73 11.3898 52.98 11.5098C53.17 11.5998 53.75 12.0098 53.14 11.5698C53.43 11.7698 53.71 11.9798 53.98 12.1998C54.45 12.5898 54.89 13.0198 55.3 13.4698C54.77 12.8898 55.22 13.3898 55.31 13.5098C55.54 13.8198 55.8 14.1198 56.03 14.4398C56.82 15.5098 57.53 16.6298 58.22 17.7598C61.52 23.1698 64.73 28.6298 68.07 34.0198C71.41 39.3898 74.7 44.7798 77.95 50.1998C85.27 62.3898 92.58 74.5798 99.51 86.9898C99.94 87.7598 100.87 87.7198 101.39 87.1098C101.99 86.3998 102.08 85.1198 101.69 84.2998L101.68 84.2698Z" fill="#1D1D1B"/>
</g>
<defs>
<clipPath id="clip0_3416_10026">
<rect width="285.8" height="262.61" fill="white"/>
</clipPath>
</defs>
</svg>
