<svg width="265" height="62" viewBox="0 0 265 62" fill="none" xmlns="http://www.w3.org/2000/svg">
<g clip-path="url(#clip0_3416_9999)">
<path d="M44.89 4.56003L16.84 3.19003C8.60995 2.79003 1.62995 9.05002 1.26995 17.14L0.0199524 44.77C-0.350048 52.86 6.02995 59.77 14.25 60.17L42.31 61.54C50.52 61.94 57.51 55.68 57.88 47.59L59.13 19.96C59.5 11.87 53.11 4.97003 44.89 4.56003ZM51.64 47.28C51.43 51.99 47.36 55.63 42.58 55.4L14.53 54.03C9.73995 53.8 6.03995 49.78 6.24995 45.08L7.49995 17.45C7.70995 12.74 11.78 9.10003 16.56 9.33003L44.61 10.7C49.39 10.93 53.1 14.95 52.89 19.66L51.64 47.28Z" fill="black"/>
<path d="M29.8399 19.1901C22.4599 19.0101 16.3299 24.7801 16.1799 32.0501C16.0399 39.3201 21.9199 45.3701 29.2999 45.5401C36.6799 45.7201 42.8099 39.9501 42.9499 32.6901C43.0999 25.4201 37.2199 19.3601 29.8399 19.1901ZM29.4199 39.4001C25.4799 39.3001 22.3399 36.0701 22.4199 32.1901C22.5099 28.3101 25.7799 25.2401 29.7199 25.3401C33.6599 25.4401 36.7999 28.6601 36.7099 32.5401C36.6299 36.4201 33.3599 39.5001 29.4199 39.4101" fill="black"/>
<path d="M129.25 12.77L129.34 17.36L138.6 17.17L137.74 28.66L129.09 28.84L129.6 57.53L117.95 57.77L117.44 29.08L111.61 29.2L111.41 17.73L117.18 17.61L117.09 12.43C117 7.74 119.15 0.36 129.13 0.15L138.13 0L138.3 9.83L131.77 9.96C130.71 9.98 129.2 10.53 129.24 12.77" fill="black"/>
<path d="M255.5 14.7402C258.51 14.6502 261.41 14.1302 264.15 13.2202C261.94 15.9202 259.24 18.2202 256.19 19.9802C256.17 20.6002 256.13 21.2202 256.08 21.8402C254.54 40.7202 237.95 61.2102 210.85 58.8902C202.54 58.1802 194.98 55.1602 188.78 50.5502C189.93 50.7802 191.09 50.9402 192.28 51.0502C199.18 51.6402 205.72 49.8902 211.09 46.5002C204.65 45.8302 199.55 41.2302 198.14 35.4002C199.03 35.6402 199.94 35.8002 200.89 35.8902C202.24 36.0102 203.55 35.9402 204.82 35.7302C198.19 33.8302 193.59 27.6302 194.14 20.7102L194.16 20.5302C196.06 21.7702 198.28 22.6102 200.68 22.8902C196.95 20.0002 194.7 15.4002 195.1 10.4402C195.32 7.83018 196.25 5.43018 197.68 3.43018C204.24 12.6902 214.63 19.3102 226.83 20.9502C226.67 19.8802 226.62 18.7802 226.71 17.6702C227.35 9.77018 234.48 3.95018 242.61 4.64018C246.84 5.00018 250.54 7.06018 252.99 10.0702C256.4 9.71018 259.64 8.80018 262.63 7.40018C261.25 10.6602 258.69 13.2502 255.51 14.7502" fill="black"/>
</g>
<defs>
<clipPath id="clip0_3416_9999">
<rect width="264.14" height="61.56" fill="white"/>
</clipPath>
</defs>
</svg>
