<svg width="279" height="53" viewBox="0 0 279 53" fill="none" xmlns="http://www.w3.org/2000/svg">
<g clip-path="url(#clip0_3416_10075)">
<path d="M37.97 30.0902L50 18.8902C50.14 18.7602 50.19 18.5602 50.14 18.3902C50.08 18.2102 49.93 18.0802 49.75 18.0502L33.79 15.3502C33.63 15.3202 33.56 15.3102 33.46 15.2802C33.37 15.2602 33.28 15.2302 33.21 15.2002C33.05 15.1402 32.89 15.0602 32.73 14.9502C32.43 14.7502 32.18 14.4802 31.94 14.0802L26.36 2.03024C26.32 1.95024 26.26 1.88024 26.18 1.83024L25.57 1.43024C25.39 1.31024 25.15 1.32024 24.98 1.46024C24.81 1.60024 24.76 1.83024 24.84 2.03024L24.97 2.33024C24.86 2.36024 24.76 2.42024 24.68 2.52024C24.36 2.95024 24.06 3.34024 23.75 3.74024C23.04 4.65024 22.31 5.58025 21.53 6.86025C20.62 8.33025 19.63 10.2402 18.67 12.0802L17.74 13.8502C17.63 14.0702 17.51 14.2902 17.4 14.4902C17.22 14.8002 17.01 15.0802 16.77 15.3102C16.27 15.8002 15.63 16.1502 14.97 16.3002C14.72 16.3602 14.45 16.3902 14.19 16.4202L0.439962 18.0602C0.249962 18.0802 0.0999618 18.2102 0.0299618 18.3902C-0.0300382 18.5702 0.00996181 18.7602 0.139962 18.9002L8.76996 27.7402L10.13 29.1402C10.49 29.5302 10.75 29.9902 10.9 30.4902C11.05 30.9902 11.08 31.5302 10.97 32.1402L8.07996 46.8002C8.03996 46.9802 8.11996 47.1702 8.26996 47.2902C8.34996 47.3502 8.43996 47.3802 8.52996 47.3902C8.61996 47.4002 8.70996 47.3902 8.78996 47.3402L20.39 41.6002L22.32 40.6502C22.48 40.5802 22.64 40.5202 22.82 40.4802C23.49 40.3102 24.23 40.3802 24.84 40.6802L25.05 40.2302L24.96 40.7402L38.72 48.4002C38.88 48.4902 39.08 48.4802 39.24 48.3702C39.39 48.2602 39.47 48.0802 39.45 47.8902L37.16 32.3202C37.11 31.9102 37.16 31.4802 37.29 31.0902C37.43 30.7002 37.66 30.3502 37.95 30.0702" fill="black"/>
<path d="M98.26 29.9604L110.29 18.7604C110.43 18.6304 110.48 18.4304 110.43 18.2604C110.37 18.0804 110.22 17.9504 110.04 17.9204L94.08 15.2204C93.92 15.1904 93.85 15.1804 93.75 15.1504C93.66 15.1304 93.57 15.1004 93.5 15.0704C93.34 15.0104 93.18 14.9304 93.02 14.8204C92.72 14.6204 92.47 14.3504 92.23 13.9504L86.65 1.90036C86.61 1.82036 86.55 1.75036 86.47 1.70036L85.87 1.30036C85.69 1.18036 85.45 1.19036 85.28 1.33036C85.11 1.47036 85.06 1.70036 85.14 1.90036L85.27 2.20036C85.16 2.23036 85.06 2.29036 84.98 2.39036C84.67 2.82036 84.36 3.21036 84.05 3.61036C83.34 4.52036 82.61 5.45036 81.82 6.73036C80.91 8.20036 79.92 10.1104 78.96 11.9504L78.04 13.7204C77.93 13.9404 77.81 14.1604 77.7 14.3604C77.52 14.6704 77.31 14.9504 77.07 15.1804C76.57 15.6704 75.93 16.0204 75.27 16.1704C75.02 16.2304 74.75 16.2604 74.49 16.2904L60.74 17.9304C60.55 17.9504 60.39 18.0804 60.33 18.2604C60.27 18.4404 60.31 18.6304 60.44 18.7704L69.07 27.6104L70.44 29.0104C70.8 29.3904 71.06 29.8604 71.21 30.3604C71.36 30.8604 71.39 31.4004 71.28 32.0104L68.39 46.6704C68.35 46.8504 68.42 47.0504 68.57 47.1604C68.65 47.2204 68.74 47.2504 68.83 47.2604C68.92 47.2704 69.01 47.2604 69.09 47.2104L80.69 41.4704L82.62 40.5204C82.78 40.4504 82.94 40.3904 83.11 40.3504C83.78 40.1804 84.52 40.2504 85.13 40.5504L85.34 40.1004L85.25 40.6104L99.01 48.2704C99.17 48.3604 99.38 48.3504 99.53 48.2404C99.69 48.1304 99.77 47.9504 99.74 47.7604L97.45 32.1904C97.4 31.7804 97.45 31.3504 97.58 30.9604C97.72 30.5704 97.95 30.2204 98.24 29.9404" fill="black"/>
<path d="M151.29 33.7201L163.32 22.5201C163.46 22.3901 163.51 22.1901 163.46 22.0201C163.4 21.8401 163.25 21.7101 163.07 21.6801L147.11 18.9801C146.95 18.9501 146.88 18.9401 146.78 18.9101C146.69 18.8901 146.6 18.8601 146.53 18.8301C146.37 18.7701 146.2 18.6901 146.05 18.5801C145.75 18.3801 145.5 18.1101 145.26 17.7101L139.68 5.66013C139.64 5.58013 139.58 5.51013 139.5 5.46013L138.89 5.06013C138.71 4.94013 138.47 4.95013 138.3 5.09013C138.13 5.23013 138.08 5.46013 138.16 5.66013L138.29 5.96013C138.18 5.99013 138.08 6.05013 138 6.15013C137.69 6.58013 137.38 6.97013 137.07 7.37013C136.36 8.28013 135.63 9.21013 134.85 10.4901C133.94 11.9601 132.95 13.8701 131.99 15.7101L131.06 17.4801C130.95 17.7001 130.83 17.9201 130.72 18.1201C130.54 18.4301 130.33 18.7101 130.09 18.9401C129.59 19.4301 128.95 19.7801 128.29 19.9301C128.04 19.9901 127.77 20.0201 127.51 20.0501L113.76 21.6901C113.57 21.7101 113.42 21.8401 113.36 22.0201C113.3 22.2001 113.34 22.3901 113.47 22.5301L122.09 31.3701L123.46 32.7701C123.82 33.1501 124.08 33.6201 124.23 34.1201C124.38 34.6201 124.41 35.1601 124.3 35.7701L121.41 50.4301C121.37 50.6101 121.44 50.8001 121.59 50.9201C121.67 50.9801 121.76 51.0101 121.85 51.0201C121.94 51.0301 122.03 51.0201 122.11 50.9701L133.71 45.2301L135.64 44.2801C135.8 44.2101 135.96 44.1501 136.13 44.1101C136.8 43.9401 137.54 44.0101 138.15 44.3101L138.36 43.8601L138.27 44.3701L152.03 52.0301C152.19 52.1201 152.4 52.1101 152.55 52.0001C152.7 51.8901 152.78 51.7101 152.76 51.5201L150.47 35.9501C150.42 35.5401 150.47 35.1101 150.6 34.7201C150.74 34.3301 150.97 33.9801 151.26 33.7001" fill="black"/>
<path d="M211.65 28.7401L223.68 17.5401C223.82 17.4101 223.87 17.2101 223.82 17.0401C223.76 16.8601 223.61 16.7301 223.43 16.7001L207.47 14.0001C207.31 13.9701 207.24 13.9601 207.14 13.9301C207.05 13.9101 206.96 13.8801 206.89 13.8501C206.73 13.7901 206.57 13.7101 206.41 13.6001C206.11 13.4001 205.86 13.1301 205.62 12.7301L200.04 0.680147C200 0.600147 199.94 0.530147 199.86 0.480147L199.26 0.0801472C199.08 -0.0398528 198.84 -0.0298528 198.67 0.110147C198.5 0.250147 198.45 0.480147 198.53 0.680147L198.66 0.980147C198.55 1.01015 198.45 1.07015 198.37 1.17015C198.06 1.60015 197.75 1.99015 197.44 2.39015C196.73 3.30015 196 4.23015 195.22 5.51015C194.31 6.98015 193.32 8.89015 192.36 10.7301L191.43 12.5001C191.32 12.7201 191.2 12.9401 191.09 13.1401C190.91 13.4501 190.7 13.7301 190.46 13.9601C189.96 14.4501 189.32 14.8001 188.66 14.9501C188.41 15.0101 188.14 15.0401 187.88 15.0701L174.13 16.7101C173.94 16.7301 173.78 16.8601 173.72 17.0401C173.66 17.2201 173.7 17.4101 173.83 17.5501L182.46 26.3901L183.83 27.7901C184.19 28.1701 184.45 28.6401 184.6 29.1401C184.75 29.6401 184.78 30.1801 184.67 30.7901L181.78 45.4501C181.74 45.6301 181.81 45.8301 181.96 45.9401C182.04 46.0001 182.13 46.0301 182.22 46.0401C182.31 46.0501 182.4 46.0402 182.48 45.9902L194.08 40.2501L196.01 39.3001C196.17 39.2301 196.33 39.1701 196.5 39.1301C197.17 38.9601 197.91 39.0302 198.52 39.3302L198.73 38.8801L198.64 39.3901L212.4 47.0501C212.56 47.1401 212.77 47.1301 212.92 47.0201C213.08 46.9101 213.16 46.7301 213.13 46.5401L210.84 30.9701C210.79 30.5601 210.84 30.1301 210.97 29.7401C211.11 29.3501 211.34 29.0001 211.63 28.7201" fill="black"/>
<path d="M266.32 33.6801L278.35 22.4801C278.49 22.3501 278.54 22.1501 278.49 21.9801C278.43 21.8001 278.28 21.6601 278.1 21.6401L262.14 18.9401C261.98 18.9101 261.91 18.9001 261.81 18.8701C261.72 18.8501 261.63 18.8201 261.56 18.7901C261.4 18.7301 261.24 18.6501 261.08 18.5401C260.78 18.3401 260.53 18.0701 260.29 17.6701L254.71 5.62009C254.67 5.54009 254.61 5.47009 254.53 5.42009L253.92 5.02009C253.74 4.90009 253.5 4.91009 253.33 5.05009C253.16 5.19009 253.11 5.42009 253.19 5.63009L253.32 5.93009C253.21 5.96009 253.11 6.02009 253.04 6.12009C252.72 6.54009 252.42 6.94009 252.11 7.34009C251.4 8.25009 250.67 9.18009 249.89 10.4601C248.98 11.9401 247.99 13.8401 247.03 15.6901L246.1 17.4601C245.99 17.6801 245.87 17.9001 245.76 18.1001C245.58 18.4101 245.37 18.6901 245.13 18.9201C244.63 19.4101 243.99 19.7601 243.33 19.9101C243.08 19.9701 242.81 20.0001 242.55 20.0301L228.8 21.6701C228.61 21.6901 228.46 21.8201 228.39 22.0001C228.33 22.1801 228.37 22.3801 228.5 22.5101L237.13 31.3501L238.49 32.7501C238.85 33.1301 239.11 33.6001 239.26 34.1001C239.41 34.6001 239.44 35.1401 239.33 35.7501L236.44 50.4101C236.4 50.5901 236.48 50.7801 236.63 50.9001C236.71 50.9601 236.8 50.9901 236.89 51.0001C236.98 51.0101 237.07 51.0001 237.15 50.9501L248.75 45.2101L250.68 44.2601C250.84 44.1901 251 44.1301 251.17 44.0901C251.84 43.9201 252.58 43.9901 253.19 44.2901L253.4 43.8401L253.31 44.3501L267.07 52.0101C267.23 52.1001 267.43 52.0901 267.59 51.9801C267.74 51.8701 267.82 51.6901 267.8 51.5001L265.51 35.9301C265.46 35.5201 265.51 35.0901 265.64 34.7001C265.78 34.3101 266.01 33.9601 266.3 33.6801" fill="black"/>
</g>
<defs>
<clipPath id="clip0_3416_10075">
<rect width="278.51" height="52.1" fill="white"/>
</clipPath>
</defs>
</svg>
