<svg width="204" height="232" viewBox="0 0 204 232" fill="none" xmlns="http://www.w3.org/2000/svg">
<g clip-path="url(#clip0_3416_11075)">
<path d="M52.85 74.3599C47.04 64.5299 46.42 62.4899 40.88 52.5299C33.37 39.0099 25.86 25.4799 18.36 11.9499C17.57 10.5199 16.49 9.0299 15.9 7.5099C15.8 7.2599 15.62 6.9999 15.49 6.7699C15.97 7.5999 16.42 7.1099 15.82 7.1199C15.35 7.1199 14.69 6.8199 14.23 6.7299C10.95 6.0399 6.48999 5.6699 3.90999 8.1399C3.52999 8.4999 3.29999 9.1399 2.92999 9.4599C1.85999 10.3699 3.45999 9.4599 2.88999 8.8699C3.28999 9.2799 3.75999 10.2499 4.15999 10.7799C4.47999 11.2199 4.76999 11.6799 5.04999 12.1399C12.39 23.8299 18.92 36.0399 25.69 48.0299C32.04 59.2699 34.43 64.5999 40.74 75.8599C41.44 77.1099 41.4 78.8299 40.9 80.1399C40.64 80.8299 39.59 82.3799 38.86 81.0899C25.91 57.9199 17.37 40.2999 3.38999 17.6999C2.12999 15.6599 0.539985 13.9099 0.129985 11.4899C-0.580015 7.2699 1.59999 2.3799 5.88999 0.789902C8.90999 -0.330098 12.85 -0.190098 15.92 0.819902C17.16 1.2299 17.4 1.6199 17.99 2.6799C24.76 14.8899 31.53 27.0899 38.3 39.2999C45.32 51.9399 47.35 56.6899 54.72 69.1499C55.45 70.3799 55.38 72.1399 54.88 73.4299C54.61 74.1399 53.59 75.6399 52.84 74.3799L52.85 74.3599Z" fill="#1D1C1A"/>
<path d="M157.94 59.4297C155.39 84.8897 152.17 110.29 148.71 135.68C145.23 161.24 142.76 186.97 138.56 212.45C138.29 214.1 136.61 216.18 134.38 215.49C131.98 214.75 131.87 211.84 132.06 210.12C134.9 184.81 139.47 159.6 143.02 134.35C146.57 109.15 150.33 83.9697 154.78 58.8697C155.19 56.5797 158.15 57.3197 157.94 59.4297Z" fill="#1D1C1A"/>
<path d="M7.68999 61.7499C18.05 111.79 27.12 162.01 36.52 212.19C36.06 211.4 35.6 210.62 35.14 209.83C36 210.08 35.46 210.02 35.14 209.83C35.66 209.98 36.2 210.39 36.67 210.62C38.59 211.58 40.58 212.46 42.6 213.28C49.13 215.93 56.04 217.94 63.1 219.3C87.1 223.92 110.73 219.78 132.55 210.61C136.96 208.76 138.01 217.3 134.28 219.02C105.42 232.38 69.7 233.28 40.39 220.78C37.79 219.67 34.7 218.49 32.45 216.88C30.97 215.83 30.73 214.52 30.39 212.92C29.27 207.55 28.49 202.11 27.54 196.72C23.89 176.02 20.06 155.35 16.5 134.65C12.39 110.73 8.35 86.8099 4.59 62.8499C4.25 60.6899 7.12999 59.0099 7.69999 61.7499H7.68999Z" fill="#1D1C1A"/>
<path d="M18.71 55.1399C16.64 55.7599 9.1 58.0999 7.12 58.7899C7.7 58.5899 6.27 59.3499 6.38 59.3699C6.68 59.4199 6.44 57.1999 6.44 57.1899C6.47 55.5299 5.87 56.4499 6.62 56.6499C8.51 57.1599 10.35 58.5099 12.34 59.0999C20.13 61.4099 28.67 62.2099 36.83 62.9099C61.33 65.0199 86.33 64.7199 110.85 62.7999C121.03 61.9999 131.24 60.9099 141.21 58.9499C144.69 58.2599 148.19 57.4899 151.5 56.3399C152.66 55.9399 153.81 55.4999 154.89 54.9499C155.38 54.6999 156.43 53.7399 156.92 53.6699C157.54 53.5799 156.86 52.5599 157.01 54.3099C157.01 54.4099 157.12 56.9199 157.22 56.8499C156.99 57.0099 157.53 56.7899 157.1 56.7599C156.69 56.7299 155.54 55.7499 155.12 55.5499C152.65 54.3599 149.82 53.6699 147.08 53.0799C138.21 51.1699 128.97 50.3699 119.86 49.7799C92.28 47.9999 73.15 47.2099 45.74 50.5699C43.28 50.8699 42.74 43.5299 45.58 43.1899C74 39.6999 94.28 40.4999 122.85 42.6199C132.39 43.3299 142.25 44.2199 151.38 46.7899C156.89 48.3399 161.42 50.8899 160.63 56.4299C159.9 61.4999 153.84 63.2499 148.84 64.6199C138.59 67.4199 127.71 68.6699 117.06 69.6799C88.95 72.3199 59.89 72.7999 31.82 69.8199C23.86 68.9699 13.11 68.3199 6.34 64.1899C3.86 62.6799 2.79 60.4899 2.8 57.8999C2.82 52.8299 12.36 49.5999 17.55 48.0599C20.45 47.1999 21.09 54.4599 18.72 55.1599L18.71 55.1399Z" fill="#1D1C1A"/>
<path d="M136.55 89.4697C134.6 107.92 132.24 126.34 129.73 144.74C127.18 163.43 125.18 182.19 122.26 200.84C122.09 201.91 121.05 203.12 119.65 202.74C118.15 202.33 118.08 200.41 118.2 199.39C120.43 180.95 123.55 162.57 126.14 144.17C128.72 125.8 131.43 107.44 134.58 89.1297C134.83 87.6997 136.69 88.1597 136.55 89.4797V89.4697Z" fill="white" stroke="white" stroke-width="0.25" stroke-miterlimit="10"/>
<path d="M27.08 91.2197C32.96 120.14 38.4 149.11 43.71 178.11C45 185.17 45.68 192.61 47.69 199.54C47.73 199.66 46.78 199.09 47.51 199.64C48.24 200.19 49.26 200.52 50.07 200.89C57.29 204.19 65.32 206.34 73.45 207.27C89.2 209.07 104.16 206.01 118.3 200.06C121.05 198.9 121.73 204.24 119.38 205.32C98.19 215.01 72.2 215.75 50.75 206.47C49.04 205.73 46.86 204.95 45.43 203.84C44.79 203.35 44.54 202.91 44.26 202.19C42.81 198.52 42.8 193.94 42.12 190.1C39.43 174.88 36.61 159.68 33.98 144.45C30.95 126.95 27.96 109.44 25.15 91.9098C24.93 90.5598 26.75 89.5097 27.09 91.2197H27.08Z" fill="white" stroke="white" stroke-width="0.25" stroke-miterlimit="10"/>
<path d="M138.74 89.5701C125.55 85.2101 111.42 83.0201 97.24 83.1501C89.99 83.2201 82.74 83.8901 75.64 85.1601C69.28 86.3001 63.09 88.8701 56.68 89.5301C55.17 89.6901 55.13 87.0101 56.06 86.4801C61.54 83.3601 68.87 82.3501 75.27 81.3801C82.52 80.2801 89.9 79.8201 97.26 79.9801C111.73 80.2901 125.88 83.0701 139.07 88.0801C139.75 88.3401 139.57 89.8401 138.74 89.5601V89.5701Z" fill="white" stroke="white" stroke-width="0.25" stroke-miterlimit="10"/>
<path d="M110.87 96.0101C108.44 100.51 102.56 101.06 97.31 101.32C89.47 101.71 81.53 100.85 74.02 98.9601C68.72 97.6301 31.77 82.2901 31.27 92.9801C31.22 94.0701 29.78 95.2201 29.11 93.7301C27.1 89.2201 31.14 85.3101 36.45 84.8701C43.96 84.2501 52 87.0901 58.74 89.4901C66.73 92.3201 74.56 95.1901 83.22 96.2501C87.64 96.7901 92.13 96.9601 96.6 96.7601C100.36 96.5901 106.22 96.7801 108.76 93.9001C110.19 92.2801 111.48 94.8901 110.87 96.0201V96.0101Z" fill="white" stroke="white" stroke-width="0.25" stroke-miterlimit="10"/>
<path d="M46.2277 110.117C47.1876 109.39 46.5172 106.887 44.7303 104.527C42.9434 102.167 40.7167 100.843 39.7568 101.57C38.7969 102.297 39.4673 104.799 41.2542 107.159C43.0411 109.519 45.2678 110.843 46.2277 110.117Z" fill="black"/>
<path d="M45.64 111.21C46.03 111.21 46.4 111.1 46.73 110.88C48.42 109.74 47.42 106.62 45.57 104.12C44.65 102.88 43.57 101.84 42.53 101.2C40.79 100.13 39.74 100.5 39.26 100.82C38.79 101.14 38.06 101.96 38.55 103.87C38.84 105.02 39.5 106.34 40.43 107.58C41.93 109.6 44.01 111.25 45.65 111.22L45.64 111.21ZM40.43 102.25C40.92 102.25 42.49 103.07 44.03 105.15C45.68 107.38 45.91 109.16 45.64 109.43C45.29 109.58 43.6 108.77 41.94 106.55C40.29 104.32 40.06 102.54 40.33 102.27C40.36 102.26 40.39 102.25 40.42 102.25H40.43Z" fill="black"/>
<path d="M65.1583 124.268C68.1527 123.667 70.3942 122.253 70.1649 121.111C69.9356 119.968 67.3222 119.529 64.3278 120.13C61.3334 120.731 59.0919 122.145 59.3212 123.287C59.5505 124.43 62.1639 124.869 65.1583 124.268Z" fill="black"/>
<path d="M62.84 125.43C63.67 125.41 64.55 125.31 65.4 125.14C68.55 124.5 71.51 122.84 71.08 120.92C70.96 120.38 70.45 119.43 68.4 119.1C67.18 118.91 65.64 118.97 64.08 119.29C60.93 119.93 57.97 121.59 58.41 123.51C58.73 124.91 60.62 125.48 62.85 125.44L62.84 125.43ZM66.7 120.76C68.21 120.73 69.14 121.05 69.25 121.29C69.25 121.65 67.82 122.82 65.01 123.39C62.21 123.97 60.39 123.46 60.24 123.12C60.24 122.76 61.67 121.59 64.48 121.02C65.32 120.85 66.07 120.77 66.71 120.76H66.7Z" fill="black"/>
<path d="M94.9285 142.533C95.621 141.575 94.2088 139.371 91.7741 137.611C89.3395 135.85 86.8044 135.2 86.1119 136.157C85.4194 137.115 86.8316 139.319 89.2663 141.079C91.7009 142.84 94.236 143.49 94.9285 142.533Z" fill="black"/>
<path d="M93.86 143.88C94.86 143.86 95.39 143.44 95.64 143.13C96 142.69 96.44 141.71 95.38 140.01C94.75 138.99 93.71 137.92 92.44 136.99C89.89 135.11 86.65 134.03 85.39 135.58C85.03 136.02 84.6 137 85.65 138.7C86.28 139.72 87.32 140.79 88.59 141.72C89.85 142.65 91.2 143.34 92.4 143.67C92.97 143.83 93.46 143.88 93.86 143.88ZM91.3 138.4C93.56 140.07 94.33 141.71 94.16 142.05C93.87 142.3 92.01 142 89.74 140.32C87.47 138.65 86.71 137.01 86.88 136.67C87.17 136.44 89.04 136.73 91.3 138.4Z" fill="black"/>
<path d="M54.1173 162.574C55.3375 162.547 56.2761 160.167 56.2136 157.257C56.1511 154.348 55.1113 152.01 53.891 152.036C52.6707 152.062 51.7322 154.442 51.7946 157.352C51.8571 160.262 52.897 162.6 54.1173 162.574Z" fill="black"/>
<path d="M54.13 163.46C56.2 163.42 57.22 160.3 57.15 157.24C57.08 154.18 55.94 151.1 53.87 151.14C51.8 151.18 50.78 154.3 50.85 157.36C50.92 160.42 52.06 163.5 54.13 163.46ZM53.91 152.92C54.28 152.99 55.22 154.55 55.27 157.28C55.33 160 54.46 161.6 54.08 161.68C53.7 161.61 52.77 160.05 52.72 157.32C52.66 154.6 53.53 153 53.91 152.92Z" fill="black"/>
<path d="M108.71 125.341C109.747 124.718 109.355 122.163 107.835 119.636C106.315 117.109 104.243 115.565 103.207 116.188C102.17 116.812 102.562 119.366 104.082 121.893C105.602 124.421 107.674 125.964 108.71 125.341Z" fill="black"/>
<path d="M108.23 126.36C108.63 126.36 108.93 126.24 109.13 126.13C109.64 125.86 110.44 125.12 110.17 123.16C110.01 121.99 109.49 120.61 108.71 119.29C107.14 116.62 104.6 114.41 102.79 115.38C100.98 116.34 101.63 119.55 103.21 122.22C103.99 123.55 104.95 124.68 105.92 125.43C106.88 126.16 107.65 126.37 108.22 126.36H108.23ZM103.77 116.93C104.22 116.93 105.74 117.9 107.07 120.17C108.47 122.55 108.5 124.34 108.2 124.59C107.85 124.72 106.24 123.74 104.84 121.36C103.44 118.98 103.41 117.19 103.7 116.94C103.72 116.94 103.74 116.94 103.76 116.94L103.77 116.93Z" fill="black"/>
<path d="M92.5809 171.288C95.1987 169.78 96.8449 167.732 96.2578 166.712C95.6707 165.693 93.0726 166.089 90.4547 167.597C87.8369 169.104 86.1907 171.153 86.7778 172.172C87.3649 173.192 89.963 172.796 92.5809 171.288Z" fill="black"/>
<path d="M88.27 173.61C89.72 173.58 91.55 172.93 93.17 171.98C95.91 170.37 98.12 167.87 97.03 166.19C95.94 164.51 92.6 165.27 89.86 166.87C87.12 168.48 84.92 170.98 86 172.66C86.44 173.34 87.27 173.62 88.27 173.6V173.61ZM94.83 167.01C95.15 167.01 95.36 167.05 95.44 167.13C95.57 167.47 94.62 169.03 92.19 170.46C89.75 171.9 87.86 172 87.59 171.72C87.46 171.38 88.4 169.82 90.84 168.39C92.58 167.37 94.04 167.02 94.83 167.01Z" fill="black"/>
<path d="M84.158 196.314C85.3008 195.901 85.4215 193.335 84.4276 190.581C83.4337 187.828 81.7015 185.931 80.5587 186.343C79.4158 186.756 79.2951 189.322 80.289 192.075C81.283 194.829 83.0152 196.726 84.158 196.314Z" fill="black"/>
<path d="M83.86 197.27C84.05 197.27 84.23 197.24 84.42 197.18C84.97 197.01 85.91 196.42 86.02 194.45C86.09 193.27 85.85 191.83 85.34 190.39C84.32 187.49 82.26 184.86 80.29 185.5C79.74 185.67 78.8 186.26 78.68 188.23C78.61 189.41 78.85 190.85 79.36 192.29C80.29 194.92 82.07 197.3 83.85 197.27H83.86ZM80.9 187.19C81.3 187.19 82.66 188.41 83.56 190.96C84.47 193.54 84.15 195.31 83.81 195.5H83.79C83.39 195.5 82.03 194.28 81.13 191.73C80.22 189.15 80.54 187.38 80.88 187.19C80.88 187.19 80.88 187.19 80.89 187.19H80.9Z" fill="black"/>
<path d="M168.08 132.12C166.89 135.02 164.9 137.57 162.38 139.43C164.36 136.49 166.33 133.55 168.31 130.62C166.22 133.09 164.13 135.57 162.04 138.04C164.41 135.61 166.77 133.19 169.14 130.76C165.78 134.04 161.55 136.43 157.01 137.62C160.67 135.57 164.33 133.52 167.98 131.47C162.47 133.11 157.2 135.57 152.4 138.75C156.51 134.89 161.57 132.05 167 130.55C161.01 132.78 155.26 135.63 149.85 139.03C152.05 136.28 154.9 134.07 158.11 132.62C154.12 134.54 150.49 137.23 147.49 140.48C147.71 139.37 148.42 138.36 149.39 137.78C150.06 139.35 150.28 141.1 150.03 142.78C149.46 140.98 148.89 139.18 148.32 137.38C147.65 139.26 146.97 141.13 146.3 143.01C146.48 141.75 146.66 140.48 146.84 139.22C146.59 141.27 146.33 143.33 146.08 145.38C146.53 143.17 147.32 141.03 148.41 139.05C149.08 141.85 149.28 144.77 148.98 147.64C150.12 144.18 151.25 140.71 152.39 137.25C153.22 139.98 153.67 142.81 153.73 145.66C154.21 142.57 154.69 139.48 155.17 136.39C156.68 139.58 158.2 142.78 159.71 145.97C159.5 142.5 159.29 139.02 159.08 135.55C160.85 138.36 162.61 141.17 164.38 143.98C163.83 140.68 162.92 137.45 161.68 134.35C163.5 136.76 165.32 139.17 167.14 141.58C166.38 138.48 164.96 135.54 162.99 133.03C164.77 135.4 166.55 137.76 168.33 140.13C167.43 138.93 166.53 137.73 165.63 136.53C167.08 139.11 168.95 141.43 170.81 143.72C171.03 143.99 170.59 144.41 170.29 144.24C169.99 144.08 169.98 143.6 170.21 143.34C171.63 144.86 172.83 146.58 173.76 148.44C173.17 147.89 172.58 147.34 171.99 146.79C172.16 147.42 172.32 148.05 172.49 148.68C169.61 146.62 165.76 146 162.38 147.05C165.31 147.25 168.23 147.45 171.16 147.65C166.08 149.51 160.63 150.37 155.23 150.18C159.71 148.96 164.39 148.49 169.03 148.79C162.93 148.9 156.83 148.83 150.73 148.58C153.83 147.3 156.92 146.01 160.02 144.73C156.51 145.43 153.42 147.97 152.06 151.28C152.82 147.9 153.58 144.52 154.33 141.13C153.43 144.51 152.12 147.77 150.44 150.84C150.12 148.39 150.39 145.85 151.24 143.53C152.43 147.58 153.26 151.73 153.71 155.92C152.66 153.17 151.98 150.27 151.7 147.34C153.1 151.74 154.25 156.22 155.16 160.75C154.45 157.33 153.74 153.91 153.02 150.49C154.17 155.42 155.32 160.35 156.47 165.28C155.68 161.8 154.63 158.38 153.32 155.05C153.81 158.11 154.58 161.13 155.62 164.05C154.67 158.17 154.44 152.17 154.96 146.24C155.2 152.37 155.45 158.49 155.69 164.62C152.54 160.51 148.98 156.7 145.09 153.28C147.85 157.2 150.84 160.95 154.06 164.5C150.82 161.93 147.85 159.01 145.24 155.8C147.65 158.59 150.05 161.38 152.46 164.17C150.77 162.05 149.08 159.93 147.38 157.82C149.37 160.54 151.72 163 154.36 165.09C153.35 160.2 153.53 155.08 154.87 150.27C155.69 156.13 156.52 162 157.34 167.86C154.14 161.11 151.44 154.12 149.25 146.97C148.06 151.28 147.44 155.75 147.41 160.22C147.45 155.63 148.01 151.04 149.07 146.58C148.01 150.46 145.56 153.94 142.27 156.26C141.99 152.22 144.29 148.12 147.89 146.26C146.48 151.02 143.06 155.16 138.64 157.43C140.41 153.7 142.73 150.24 145.5 147.19C142.4 151.5 139.59 156.01 137.09 160.69C138.79 156.67 141.14 152.93 144.02 149.64C141.72 154.39 139.09 158.99 136.16 163.38C135.95 161.26 136.38 159.07 137.39 157.19C136.48 159.79 135.57 162.39 134.67 164.99C134.15 162.44 133.64 159.88 133.12 157.33C132.78 158.9 132.61 160.51 132.64 162.11C131.94 159.82 131.25 157.53 130.55 155.24C131.16 157.13 131.48 159.11 131.49 161.09C130.49 159.86 129.74 158.44 129.28 156.92C130.18 160.01 131.08 163.1 131.99 166.19C137.02 164.13 141.56 160.87 145.11 156.76C146.41 155.25 147.75 153.52 149.71 153.11C151.67 152.7 154.03 154.76 153.03 156.49C150.93 154.38 148.84 152.27 146.74 150.15C146.68 151.6 146.63 153.04 146.57 154.49C144.65 150.76 143.62 146.57 143.6 142.37C141.18 146.54 137.78 150.15 133.76 152.82C135.88 148.15 139.23 144.04 143.38 141.01C140.61 145.24 137.84 149.47 135.08 153.71C137.17 151.79 139.04 149.65 140.67 147.33C139.18 149.49 137.69 151.65 136.2 153.81C136.79 150.38 138.15 147.09 140.15 144.25C138.39 147.52 135.81 150.33 132.7 152.37C131.45 151.24 132.75 149.24 134.01 148.12C136.7 145.73 139.38 143.34 142.07 140.96C137.44 143.65 132.81 146.34 128.18 149.03C132.17 146.89 136.17 144.75 140.16 142.61C135.2 144.46 130.61 147.3 126.73 150.9C128.75 149.18 131.23 148 133.84 147.54C131.41 149.18 128.99 150.82 126.56 152.46C128.1 151.34 129.65 150.23 131.19 149.11C128.84 150.38 126.48 151.65 124.13 152.91C124.53 151.91 124.93 150.9 125.33 149.9C124.09 150.87 122.76 151.74 121.38 152.49C126.95 147.24 133.63 143.17 140.85 140.61C136.98 145.14 131.56 148.31 125.72 149.47C122.81 150.05 120.25 152.12 119.07 154.84" fill="white"/>
<path d="M170.25 132.85C168.59 136.71 166.43 139.83 163.2 142.56C160.11 145.17 159.16 139.67 160.4 137.7C162.28 134.7 164.28 131.76 166.23 128.8C167.43 130.29 168.62 131.78 169.82 133.27C167.75 135.77 165.67 138.26 163.59 140.75C162.56 138.95 161.52 137.14 160.49 135.34C162.85 132.9 165.2 130.46 167.56 128.02C168.39 130.08 169.21 132.14 170.04 134.19C166.33 137.66 162.05 140.14 157.18 141.59C152.39 143.02 154.11 135.21 156.83 133.66C160.49 131.58 164.14 129.49 167.8 127.41C167.92 130.12 168.04 132.83 168.16 135.54C162.93 137.22 157.99 139.44 153.38 142.44C148.56 145.58 148.86 137.4 151.43 135.06C155.89 131 161.05 128.04 166.82 126.28C171.69 124.8 170.66 133.47 167.19 134.82C161.51 137.03 156.04 139.63 150.86 142.85C146.24 145.72 145.94 138.51 148.09 135.97C150.86 132.7 154.07 130.19 157.92 128.31C162.4 126.12 161.65 135.25 158.3 136.96C154.91 138.69 151.91 140.84 149.26 143.59C145.97 147.01 143.29 143.1 144.55 139.51C145.36 137.21 146.47 135.49 148.36 133.93C150.06 132.54 151.85 133.41 152.51 135.32C153.35 137.75 153.44 140 153.24 142.55C153 145.61 148.36 149.92 146.89 145.26C146.32 143.46 145.75 141.66 145.18 139.86C147.2 139.37 149.22 138.87 151.24 138.38C150.57 140.26 149.89 142.13 149.22 144.01C147.69 148.26 142.3 148.74 143.07 143.27C143.25 142.01 143.43 140.74 143.61 139.48C144.32 134.52 150.81 132.8 150.04 139C149.79 141.05 149.53 143.11 149.28 145.16C147.24 144.91 145.19 144.67 143.15 144.42C143.8 141.78 144.77 139.37 145.99 136.95C147.11 134.72 150.81 133.19 151.52 136.62C152.28 140.25 152.49 143.72 152.24 147.42C150.16 147.17 148.08 146.92 146 146.67C147.11 143.2 148.22 139.72 149.33 136.25C150.22 133.47 154.42 130.48 155.64 134.71C156.54 137.82 157.05 140.96 157.22 144.19C154.91 144.77 152.61 145.36 150.3 145.94C150.75 142.85 151.2 139.76 151.67 136.67C152.01 134.45 156.16 128.57 158.16 132.77C159.68 135.96 161.19 139.15 162.71 142.34C160.52 144.06 158.33 145.79 156.14 147.51C155.93 144.04 155.71 140.56 155.5 137.09C155.33 134.32 159.33 127.52 162.09 131.9C163.86 134.71 165.63 137.52 167.39 140.32C165.25 142.44 163.1 144.55 160.96 146.67C160.35 143.35 159.46 140.19 158.25 137.04C156.97 133.7 161.46 126.4 164.7 130.67C166.52 133.08 168.34 135.49 170.17 137.89C168.02 140.02 165.86 142.14 163.71 144.27C162.92 141.44 161.68 139.07 159.95 136.71C157.45 133.31 162.63 124.82 166.03 129.33C167.81 131.69 169.59 134.06 171.37 136.42C169.34 138.89 167.31 141.35 165.27 143.82C164.37 142.62 163.46 141.43 162.56 140.23C164.6 137.76 166.63 135.29 168.67 132.82C170.78 136.35 174.98 139.46 174.3 143.88C173.93 146.3 172.49 148.65 170 149.2L169.54 149.3C168.63 149.5 167.62 148.67 167.2 147.96C166.13 146.13 166.29 144.21 166.94 142.25C167.47 140.64 170.49 136.43 172.65 138.85C174.27 140.67 175.66 142.55 176.82 144.7C178.34 147.52 175.07 156.45 171.28 152.93C170.69 152.38 170.1 151.83 169.5 151.28C171.48 148.87 173.47 146.45 175.45 144.04C175.62 144.67 175.78 145.3 175.95 145.92C176.78 149.04 173.97 155.65 169.99 153.17C167.35 151.52 164.57 151.41 161.61 152.14C162.1 148.74 162.59 145.34 163.09 141.94C166.02 142.14 168.94 142.34 171.87 142.53C176.78 142.86 174.86 151.28 171.34 152.5C165.85 154.4 160.27 155.38 154.45 155.28C148.91 155.18 152.08 146.03 155.93 145.06C160.49 143.91 165.03 143.45 169.73 143.66C174.88 143.89 172.66 153.82 168.25 153.89C162.15 153.98 156.05 153.91 149.95 153.69C144.85 153.5 147.21 145.05 150.48 143.69C153.58 142.41 156.67 141.12 159.77 139.84C159.91 143.09 160.05 146.35 160.2 149.6C157.67 150.26 155.91 151.24 154.75 153.66C152.67 157.98 147.33 156.32 148.41 151.54C149.17 148.16 149.93 144.78 150.69 141.39C152.99 141.67 155.28 141.94 157.58 142.22C156.48 146.05 154.98 149.69 153.12 153.21C151.3 156.67 147.09 156.71 146.74 152.4C146.46 148.92 146.91 145.75 147.94 142.42C148.86 139.44 153.42 136.24 154.7 140.77C155.95 145.23 156.79 149.75 157.33 154.35C157.77 158.12 152.22 164.35 150.2 158.65C149.06 155.44 148.42 152.26 148.02 148.89C147.58 145.19 153.34 138.83 155.13 144.6C156.5 149.02 157.64 153.49 158.57 158.02C159.06 160.44 158.3 163.45 156.24 164.98C154.49 166.28 152.15 165.79 151.67 163.45C150.96 160.03 150.25 156.6 149.55 153.18C149.05 150.77 149.82 147.77 151.87 146.25C153.65 144.93 155.89 145.47 156.42 147.77C157.57 152.7 158.71 157.64 159.86 162.57C160.41 164.94 159.56 167.97 157.55 169.47C155.77 170.79 153.56 170.24 153.02 167.96C152.19 164.47 151.16 161.08 149.89 157.72C152.16 155.93 154.43 154.15 156.69 152.36C157.22 155.44 157.97 158.41 158.96 161.38C156.71 163.15 154.46 164.92 152.21 166.69C151.21 159.92 150.92 153.31 151.44 146.48C151.76 142.27 158.23 138.58 158.48 144.7C158.73 150.82 158.99 156.95 159.23 163.07C159.35 166.12 155.75 172.27 152.65 168.25C149.66 164.38 146.31 160.86 142.69 157.58C144.46 154.94 146.24 152.31 148.01 149.67C150.6 153.35 153.38 156.84 156.38 160.19C158.98 163.09 155.62 171.98 151.67 168.77C148.44 166.14 145.52 163.28 142.85 160.08C140.19 156.9 144.53 147.96 147.57 151.47C149.98 154.25 152.39 157.03 154.81 159.8C153.22 162.69 151.63 165.59 150.05 168.48C148.15 166.13 146.26 163.76 144.38 161.4C146.36 158.99 148.35 156.58 150.33 154.17C152.2 156.63 154.34 158.75 156.71 160.72C154.8 163.05 152.89 165.37 150.97 167.7C149.83 161.37 150.13 155.42 151.76 149.21C152.81 145.21 157.67 143.96 158.3 148.76C159.07 154.63 159.93 160.49 160.77 166.35C161.14 168.96 156.48 175.79 154.4 171.37C151.06 164.28 148.25 157.02 145.94 149.53C148.06 149.01 150.18 148.49 152.3 147.97C151.38 151.49 150.89 155.07 150.84 158.71C148.54 159.69 146.24 160.68 143.94 161.66C144.02 156.64 144.51 151.71 145.57 146.8C147.78 147.07 149.99 147.33 152.21 147.6C150.61 152.78 147.66 157.14 143.37 160.47C141.02 162.3 138.67 160.48 138.63 157.78C138.54 151.49 141.21 145.25 146.73 141.89C150.66 139.5 152.27 144.05 151.18 147.34C148.99 153.98 144.89 159 138.85 162.49C134.37 165.08 134.82 156.87 135.79 154.91C137.83 150.78 140.37 146.99 143.4 143.52C144.89 141.82 147.3 141.02 148.74 143.21C150.25 145.52 148.97 148.83 147.57 150.8C144.77 154.77 142.26 158.91 139.95 163.18C138.94 165.05 136.51 167.08 134.45 165.44C132.29 163.72 133.31 160.15 134.2 158.13C136.17 153.69 138.76 149.63 141.88 145.91C143.26 144.27 145.36 143.48 146.98 145.19C148.68 147 147.84 150.25 146.9 152.16C144.58 156.91 141.94 161.46 139.01 165.87C136.95 168.98 132.43 169.98 132.27 165.01C132.14 161.27 132.96 158.04 134.53 154.67C137.18 148.99 142.63 153.17 140.8 158.31C139.88 160.9 138.96 163.5 138.03 166.09C137.06 168.79 132 172.81 131.04 167.8C130.54 165.23 130.05 162.66 129.55 160.09C131.95 159.07 134.35 158.04 136.76 157.02C136.5 158.16 136.36 159.31 136.35 160.48C136.3 162.77 135.47 165.55 133.31 166.73C131.41 167.76 129.71 166.97 129.08 164.87C128.38 162.58 127.69 160.29 126.99 158C129.36 156.14 131.72 154.27 134.09 152.41C134.75 154.74 135.1 157.05 135.21 159.46C135.35 162.56 131.5 169.16 128.34 164.87C127.15 163.25 126.39 161.57 125.72 159.69L132.82 154.1C133.72 157.19 134.62 160.28 135.53 163.37C134.28 162.66 133.02 161.94 131.77 161.23C135.2 159.75 138.37 157.85 141.11 155.29C143.38 153.16 145.09 150.32 147.91 148.83C154.36 145.43 157.85 152 156.35 157.59C155.85 159.47 152.76 163.35 150.5 161.07C148.4 158.96 146.3 156.85 144.21 154.74C146.3 152.67 148.38 150.61 150.47 148.54C150.42 149.99 150.36 151.43 150.31 152.88C150.23 155.04 149.57 157.49 147.73 158.86C146.4 159.85 144.27 160.07 143.42 158.3C141.21 153.73 140.02 149.04 139.86 143.96C142.03 144.24 144.2 144.51 146.37 144.79C143.36 149.72 139.67 153.92 134.93 157.26C130.19 160.6 129.55 153.29 130.95 150.35C133.57 144.86 137.37 140.19 142.17 136.47C146.75 132.92 148.14 140.56 146.23 143.52C143.48 147.77 140.73 152.01 137.97 156.25C136.6 153.87 135.23 151.49 133.85 149.1C135.6 147.42 137.11 145.56 138.53 143.6C139.91 141.7 142.59 141.18 143.98 143.29C145.53 145.66 144.19 149 142.79 151.03C141.3 153.19 139.81 155.35 138.32 157.51C135.62 161.43 131.53 157.93 132.32 154.08C133.23 149.62 134.71 145.48 137.22 141.67C141.32 135.43 146.15 141.5 143.07 146.81C140.72 150.87 137.77 154.31 133.92 157.01C132.34 158.12 130.44 158.21 129.34 156.42C124.35 148.23 135.78 140.84 140.84 136.33C141.32 139.61 141.81 142.89 142.29 146.17C137.66 148.87 133.03 151.58 128.4 154.28C128.25 150.78 128.09 147.28 127.94 143.77C131.93 141.62 135.93 139.48 139.92 137.33C140.07 140.84 140.23 144.35 140.38 147.87C135.71 149.71 131.69 152.22 127.96 155.57C127.14 152.45 126.31 149.34 125.49 146.22C128.29 144.03 131.19 142.76 134.64 141.98C139.7 140.84 137.41 150.62 135.07 152.21C132.65 153.85 130.22 155.5 127.8 157.15C122 161.09 121.44 150.58 125.32 147.76C126.86 146.64 128.4 145.52 129.95 144.41C130.44 147.74 130.93 151.08 131.42 154.41C129.07 155.67 126.71 156.94 124.35 158.19C120.51 160.25 119.64 153.97 120.56 151.71C120.96 150.71 121.38 149.71 121.79 148.71C123.38 150.65 124.96 152.59 126.55 154.53C124.95 155.67 123.31 156.68 121.6 157.64C119.49 158.82 117.87 156.56 117.57 154.78C117.15 152.25 118.28 149.6 120.17 147.92C126.22 142.53 133.03 138.23 140.61 135.36C145.94 133.34 145.06 142.02 142.99 144.35C140.15 147.55 136.94 150.21 133.13 152.19C129.95 153.84 123.57 154.03 121.8 157.25C120.83 159.02 118.53 160.98 116.55 159.41C114.54 157.81 115.39 154.32 116.31 152.44C120.91 143.11 132.06 144.14 138.69 136.87C139.48 139.87 140.27 142.87 141.07 145.86C134.1 148.36 127.97 151.97 122.58 157.05C122.1 153.81 121.63 150.57 121.15 147.32C122.18 146.69 123.16 146 124.1 145.25C128.1 142.22 130.09 147.89 128.86 151.07C128.47 152.08 128.08 153.08 127.69 154.09C126.43 151.93 125.16 149.77 123.9 147.61C126.25 146.33 128.61 145.06 130.96 143.79C133.14 142.61 134.79 144.87 135.1 146.74C135.5 149.16 134.47 152.32 132.43 153.8C130.89 154.92 129.34 156.03 127.8 157.15C126.97 154.02 126.15 150.89 125.32 147.76C127.75 146.13 130.17 144.49 132.6 142.85C132.74 146.26 132.89 149.67 133.03 153.08C131.09 153.51 129.51 154.36 127.95 155.57C125.91 157.16 123.66 156.26 122.92 153.89C122.08 151.2 123.49 148.01 125.48 146.23C129.74 142.41 134.58 139.44 139.91 137.34C145.88 134.99 144.16 145.85 140.37 147.88C136.38 150.02 132.38 152.15 128.39 154.28C125.95 155.58 124.34 152.75 124.19 150.73C123.99 147.91 125.54 145.16 127.93 143.78C132.56 141.1 137.19 138.42 141.82 135.74C143.94 134.51 145.6 136.86 145.89 138.64C146.31 141.2 145.17 143.89 143.26 145.58C141.72 146.94 140.19 148.31 138.66 149.68C137.89 150.37 137.13 151.05 136.36 151.74C134.58 153.75 134.47 152.61 136.02 148.31C134.49 148.11 132.97 147.92 131.44 147.72C133.83 146.05 135.72 144.22 137.19 141.69C139.14 143.4 141.09 145.11 143.04 146.83C141.64 148.95 140.54 151.03 140.03 153.53C138.03 152.39 136.03 151.24 134.03 150.1C135.52 147.94 137.01 145.79 138.51 143.63C139.93 146.11 141.35 148.58 142.77 151.06C140.82 153.72 138.65 156.06 136.26 158.33C131.98 162.4 130.28 154.03 132.14 151.18C134.91 146.95 137.7 142.73 140.48 138.52C141.83 140.87 143.19 143.22 144.54 145.57C141.02 148.23 138.46 151.35 136.53 155.3C135.2 153 133.88 150.69 132.55 148.39C135.89 146.09 138.67 143.43 140.8 139.95C142.72 136.81 147.17 136.08 147.31 140.78C147.42 144.32 148.15 147.49 149.69 150.68C147.39 152.49 145.1 154.3 142.8 156.1C142.86 154.65 142.91 153.21 142.97 151.76C143.05 149.56 145.96 142.26 149.23 145.56C151.33 147.67 153.42 149.79 155.52 151.9C153.57 153.06 151.62 154.22 149.67 155.38L149.91 154.5C149.84 155.8 149.76 157.11 149.69 158.41C149.49 157.62 146.38 161.09 146.2 161.28C144.84 162.73 143.4 164.11 141.86 165.36C138.94 167.73 135.64 169.62 132.19 171.11C130.39 171.89 128.92 170.65 128.43 168.97C127.53 165.88 126.63 162.79 125.72 159.7C124.48 155.47 130.62 147.92 132.82 154.11C133.25 155.31 133.87 156.24 134.62 157.26C132.33 159.06 130.04 160.86 127.75 162.67C127.68 161.02 127.43 159.61 126.99 158.02C125.79 153.75 132.19 146.2 134.09 152.43C134.79 154.72 135.48 157.01 136.18 159.3C133.76 160.76 131.33 162.23 128.91 163.69C128.95 161.62 129.09 159.63 129.46 157.59C129.8 155.69 130.89 153.1 132.9 152.38C134.61 151.77 136.28 152.7 136.66 154.52C137.2 157.06 137.73 159.59 138.27 162.13C135.94 162.7 133.61 163.27 131.28 163.84C132.17 161.23 133.06 158.63 133.96 156.03C136.05 157.24 138.14 158.46 140.23 159.67C139.97 160.32 139.9 161 140.03 161.7C137.78 161.41 135.53 161.13 133.29 160.84C136.18 156.4 138.76 151.81 141.12 147.07C142.79 149.15 144.47 151.23 146.14 153.32C143.56 156.35 141.59 159.56 139.96 163.19C138.04 161.51 136.13 159.83 134.21 158.14C136.97 153.07 140.06 148.23 143.4 143.52C144.79 145.95 146.19 148.38 147.58 150.81C145.1 153.63 143.14 156.54 141.47 159.9C140.45 157.37 139.43 154.85 138.41 152.32C141.39 150.68 143.47 148.35 144.57 145.13C145.74 147.13 146.92 149.14 148.09 151.14C146.71 151.95 145.87 153.07 145.88 154.68C144.3 153.78 142.72 152.88 141.14 151.99C143.48 150.23 144.99 148.31 145.9 145.5C147.4 140.87 153.87 140.52 152.54 146.3C151.6 150.4 150.97 154.52 150.85 158.73C150.79 160.91 149.92 163.94 147.6 164.77C145.52 165.52 143.89 163.76 143.95 161.68C144.1 156.29 144.82 151.14 146.16 145.92C146.93 142.91 151.23 140.29 152.52 144.36C154.67 151.18 157.24 157.81 160.24 164.29C158.12 165.96 155.99 167.63 153.87 169.31C153.11 163.82 152.39 158.32 151.57 152.83C153.69 152.31 155.82 151.79 157.94 151.27C157.04 154.93 157.03 158.72 157.7 162.41C158.16 164.92 155.71 172.48 151.96 169.39C149.08 167.02 146.64 164.36 144.38 161.39C141.87 158.1 146.87 149.84 150.33 154.16C152.02 156.28 153.72 158.39 155.4 160.52C157.66 163.37 152.9 171.81 150.05 168.47C147.65 165.67 145.26 162.86 142.85 160.06C144.42 157.19 146 154.32 147.57 151.45C150.24 154.65 153.15 157.53 156.38 160.16C154.81 163.02 153.24 165.88 151.67 168.74C148.27 164.93 145.08 160.95 142.1 156.81C140.11 154.05 143.91 145.79 147.42 148.9C151.56 152.57 155.24 156.57 158.66 160.9C156.47 162.63 154.27 164.36 152.08 166.08C151.83 159.95 151.61 153.82 151.37 147.69C153.72 147.1 156.06 146.5 158.41 145.91C158.01 151.04 158.16 156.24 158.95 161.33C159.32 163.74 158.75 166.59 156.67 168.14C154.77 169.55 152.93 168.78 152.2 166.65C151.19 163.7 150.42 160.74 149.87 157.68C149.44 155.27 150.1 152.35 152.17 150.81C154.14 149.34 155.87 150.21 156.68 152.32C157.96 155.67 159.01 159.05 159.84 162.54C157.56 164.33 155.28 166.13 153.01 167.92C151.85 163 150.69 158.07 149.54 153.15C151.83 151.35 154.12 149.54 156.41 147.74C157.13 151.16 157.84 154.58 158.56 157.99C156.26 159.8 153.96 161.61 151.66 163.42C150.72 158.89 149.56 154.44 148.18 150.03C150.55 148.6 152.92 147.17 155.29 145.74C155.6 148.3 156.28 150.72 157.14 153.14C154.76 154.57 152.39 156.01 150.01 157.44C149.55 153.62 148.75 149.92 147.71 146.23C149.96 145.68 152.21 145.13 154.47 144.58C153.96 146.22 153.93 147.54 154.07 149.23C151.94 148.96 149.82 148.69 147.69 148.42C149.12 145.7 150.17 142.95 151.01 140C152.42 135.06 159.22 134.89 157.9 140.83C157.15 144.21 156.39 147.59 155.64 150.97C153.53 150.26 151.41 149.56 149.3 148.85C151.39 144.49 155.04 141.04 159.78 139.81C165.47 138.34 164.1 147.96 160.21 149.57C157.11 150.85 154.02 152.14 150.92 153.42C151.1 150.09 151.27 146.75 151.45 143.42C157.55 143.65 163.65 143.72 169.75 143.63C169.26 147.04 168.76 150.45 168.27 153.86C163.57 153.64 159.03 154.1 154.47 155.25C154.96 151.84 155.46 148.44 155.95 145.03C161.11 145.12 166.04 144.44 170.93 142.75C170.75 146.07 170.58 149.39 170.4 152.72C167.47 152.52 164.55 152.32 161.62 152.12C156.11 151.74 159.18 142.88 163.1 141.92C167.42 140.86 171.24 141.81 174.94 144.15C172.95 146.57 170.97 148.98 168.98 151.4C168.81 150.77 168.65 150.14 168.48 149.51C167.81 146.97 170.84 138.91 174.43 142.27C175.02 142.82 175.61 143.37 176.2 143.93C174.35 146.67 172.5 149.42 170.66 152.16C169.82 150.58 168.92 149.16 167.73 147.81C169.63 146.68 171.54 145.55 173.44 144.41C173.39 144.57 173.33 144.73 173.28 144.89C173.22 143.29 173.16 141.68 173.1 140.08L173.34 140.49C172.56 140.04 171.78 139.6 171 139.15C171.15 139.12 171.3 139.08 171.46 139.05C170.03 140.82 168.59 142.6 167.16 144.37C167.18 144.23 167.2 144.09 167.23 143.95C167.6 145.35 167.97 146.76 168.34 148.16C166.27 145.59 164.25 143.04 162.56 140.19C160.46 136.65 165.21 128.15 168.67 132.78C169.57 133.98 170.47 135.18 171.37 136.39C173.91 139.79 168.66 148.32 165.27 143.79C163.5 141.42 161.72 139.05 159.94 136.68C161.97 134.22 163.99 131.76 166.02 129.3C168.15 132.21 169.6 135.37 170.56 138.84C171.46 142.1 167.46 149.67 164.1 145.22C162.28 142.81 160.46 140.39 158.65 137.98C160.8 135.86 162.95 133.74 165.1 131.61C166.3 134.76 167.19 137.93 167.79 141.25C168.31 144.12 164.46 152.55 161.36 147.6C159.6 144.79 157.83 141.97 156.07 139.16C158.27 137.43 160.46 135.7 162.66 133.97C162.87 137.45 163.07 140.92 163.28 144.4C163.43 146.89 158.95 154.31 156.71 149.57C155.2 146.37 153.69 143.18 152.17 139.98C154.33 138.68 156.5 137.38 158.66 136.08C158.18 139.18 157.67 142.27 157.16 145.36C156.53 149.22 150.46 153.33 150.24 147.11C150.15 144.58 149.79 142.21 149.13 139.77C151.23 139.26 153.34 138.74 155.44 138.23C154.28 141.69 153.11 145.14 151.95 148.6C150.42 153.13 145.26 153.27 145.71 147.85C145.89 145.67 145.74 143.61 145.29 141.47C147.13 141.36 148.98 141.25 150.82 141.14C149.95 142.88 149.45 144.45 148.99 146.32C147.87 150.91 142.21 150.84 142.86 145.58C143.11 143.53 143.36 141.47 143.62 139.42C145.76 139.26 147.91 139.1 150.05 138.94L149.51 142.73C147.46 142.48 145.41 142.24 143.36 141.99C144.03 140.11 144.71 138.24 145.38 136.36C146.33 133.7 150.15 130.83 151.44 134.88C152.01 136.68 152.58 138.48 153.16 140.28C151.04 141.18 148.92 142.08 146.81 142.99C146.86 142.01 146.68 141.09 146.27 140.21C147.65 140.67 149.04 141.14 150.42 141.6V141.43C148.86 140.07 147.29 138.71 145.72 137.35C149.34 133.6 153.28 130.62 157.93 128.26C158.06 131.14 158.18 134.03 158.31 136.91C155.67 138.19 153.53 139.83 151.62 142.06C150.7 139.77 149.77 137.47 148.85 135.18C154.59 131.65 160.51 128.61 166.82 126.24C166.94 129.09 167.07 131.93 167.19 134.78C161.95 136.31 157.45 138.76 153.38 142.4C152.73 139.94 152.08 137.48 151.43 135.02C156.58 131.74 161.96 129.13 167.81 127.37C172.68 125.9 171.01 133.93 168.17 135.5C164.51 137.52 160.85 139.54 157.19 141.56C157.07 138.92 156.96 136.27 156.84 133.63C161.21 132.4 164.9 130.39 168.24 127.32C171.68 124.16 172.88 131.3 170.72 133.49C168.35 135.9 165.97 138.31 163.6 140.72C159.79 144.59 158.04 138.18 160.5 135.31C162.6 132.85 164.69 130.39 166.8 127.95C167.93 126.64 169.56 126.22 170.68 127.73C171.87 129.32 170.77 131.88 169.83 133.25C167.84 136.15 165.89 139.08 163.83 141.93C163.07 140.05 162.32 138.17 161.56 136.28C163.71 134.66 165.12 132.92 166.29 130.52C167.99 127.02 171.66 129.57 170.26 132.83L170.25 132.85Z" fill="black"/>
<path d="M173.2 139.94C173.2 139.94 197.23 146.85 199.31 181.08C199.39 182.47 202.71 196.12 196.32 209.69C189.93 223.26 189.57 225.54 182.78 226.53C175.99 227.52 149.5 220.4 141 210.27C132.5 200.15 124.94 190.31 124.23 182.07C123.52 173.83 124.23 164.27 124.81 162.38C125.39 160.49 126.92 160.02 126.92 160.02C126.92 160.02 131.85 168.58 131.39 169.44C130.93 170.3 142.51 159.86 142.51 159.86L155.79 170.92C155.79 170.92 158.68 165 158.36 162.17C158.04 159.34 157.44 152.02 157.44 152.02L173.24 151.77L171.43 140.74L173.22 139.92L173.2 139.94Z" fill="#020303"/>
<path d="M127.2 161.07C122.65 175.56 127.27 191.17 138.02 201.73C147.85 211.39 162.26 219.88 176.13 221.78C182.73 222.68 189.43 221.14 192.37 214.56C195.35 207.9 198.19 200.09 198.21 192.72C198.24 184.5 196.57 175.32 194.58 167.36C193.73 163.97 192.72 160.37 190.78 157.41C188.68 154.21 185.3 151.51 182.4 149.06C179.25 146.4 175.79 143.67 171.56 143.25C168.88 142.99 164.24 144.09 163.49 140.65C162.47 135.98 167.21 130.98 169.61 127.47C169.13 129.05 168.64 130.62 168.16 132.2L168.2 131.57C168.56 132.53 168.91 133.48 169.27 134.44C167.65 133.43 163.69 134.2 161.9 134.44C159.34 134.79 157.05 135.65 154.65 136.54C151.34 137.77 148.51 138.76 145.82 141.05C143.87 142.71 141.88 144.09 139.44 144.96C135.54 146.34 131.68 147.51 127.95 149.4C126.19 150.29 124.99 151.13 123.7 152.64C122.97 153.49 122.28 154.38 121.61 155.28C120.24 157.11 119.9 159.32 120.99 154.67C120.85 153.43 120.7 152.19 120.56 150.95C122 152.87 126.58 151.1 128.47 152.19C130.48 153.35 129.98 158.02 130.39 159.93C130.61 160.96 131.35 164.26 132.68 164.5C133.06 164.57 134.9 162.58 135.51 161.98C136.83 160.68 138.28 159.35 139.38 157.84C140.08 156.89 140.5 155.62 141.43 154.86C145.01 151.94 150.9 161.38 153.17 163.45C153.77 164 154.6 164.46 155.11 165.06C155.48 165.36 155.88 165.61 156.3 165.82C155.62 167.21 154.95 168.6 154.27 170C153.97 169.67 155.12 165.39 155.18 164.74C155.58 160.57 153.79 156.87 154.27 152.82C154.49 150.92 155.62 148.29 157.48 147.5C159.34 146.71 162.54 147.69 164.49 147.79C167.62 147.95 170.83 147.98 173.85 147.01C173.22 147.6 172.59 148.19 171.96 148.79C172.09 148.58 172.23 148.37 172.36 148.15C171.89 150.08 171.41 152 170.94 153.93C170.56 150.48 169.86 145.37 166.53 143.47C163.65 141.82 167.14 132.8 169.41 134.1C174.59 137.06 177.33 146.81 175.25 152.31C173.69 156.43 170.89 157.06 166.77 157.23C164.87 157.31 162.96 157.25 161.06 157.14C159.62 157.05 157.14 156.31 155.8 156.88C156.87 155.11 157.94 153.33 159.01 151.56C158.99 151.76 158.96 151.97 158.94 152.17C158.91 151.14 158.88 150.11 158.85 149.08C161.04 154.82 160.53 161.35 159.33 167.27C158.4 171.84 156.77 177.79 151.47 173.98C149.33 172.44 147.5 170.48 145.72 168.55C144.86 167.61 141.26 164.86 141.01 163.7C140.99 163.58 143.85 159.68 142.2 162.63C141.96 163.06 141.68 163.44 141.4 163.85C140.67 164.92 139.83 165.91 138.96 166.87C137.11 168.91 135.11 170.94 133.02 172.73C131.55 173.99 130.7 174.83 129.01 173.48C127.02 171.88 126.15 169.12 125.65 166.75C125.32 165.19 125.09 163.62 124.92 162.04C124.86 161.52 124.81 161 124.77 160.48C124.71 159.54 125.5 161.13 124.89 161.41C123.59 162 119.08 161.18 117.83 160.52C112.93 157.96 118.72 150.46 120.74 147.77C124.23 143.13 127.72 140.78 132.98 138.5C135.48 137.42 138 136.67 140.56 135.8C144.44 134.48 146.84 131.21 150.48 129.48C154.13 127.75 158.39 125.97 162.38 125.26C164.75 124.84 170.01 123.72 172.16 125.07C173.15 125.69 173.3 126.83 173.23 127.94C172.93 132.73 169.69 136.3 167.09 140.1C167.57 138.52 168.06 136.95 168.54 135.37C168.52 135.57 168.5 135.77 168.49 135.97C168.3 135.13 168.11 134.28 167.92 133.44C168.78 134.08 172.1 133.81 173.07 133.85C174.74 133.93 176.16 134.04 177.74 134.66C181.34 136.06 184.56 138.82 187.42 141.33C193.84 146.97 197.3 152.2 199.32 160.54C201.34 168.86 202.72 177.73 203.19 186.27C203.63 194.24 201.48 202.33 198.87 209.79C196.51 216.53 194.09 224.11 187.95 228.37C182.81 231.93 176.82 231.91 170.93 230.75C164.33 229.46 158.06 226.72 152.24 223.42C144.85 219.23 137.23 214.21 131.66 207.73C120.2 194.42 117.97 176.22 123.12 159.8C123.5 158.6 124.81 155.19 126.62 155.75C128.41 156.3 127.58 159.98 127.24 161.07H127.2Z" fill="#020303"/>
<path d="M143.22 148.46C141.44 144.87 136.45 141.75 133.2 139.62C129.01 136.87 124.27 134.87 119.3 134.17C114.51 133.5 118.02 121.2 122.93 123.32C131.71 127.12 147.96 133.35 147.51 145.08C147.45 146.54 144.81 151.67 143.22 148.46Z" fill="#020303"/>
<path d="M143.95 148.91C141.95 147.42 140.9 144.99 139.18 143.18C137.54 141.46 135.68 139.93 133.7 138.63C129.18 135.66 124.32 135.11 119.45 133.21C114.47 131.26 117.5 120.78 122.43 120.73C133.49 120.62 147.55 133.1 148.94 143.97C149.23 146.25 146.65 150.92 143.95 148.91Z" fill="#020303"/>
<path d="M171.97 130.09C171.89 131.19 171.11 132.11 170.53 132.99C170.03 133.74 169.54 134.5 169.07 135.27C168.14 136.78 167.23 138.3 166.31 139.81C165.86 140.54 164.72 141.68 163.84 140.83C162.96 139.98 163.24 138.51 163.73 137.55C164.75 135.54 166.02 133.63 167.46 131.89C168.05 131.18 169.12 130.71 169.81 131.56C170.53 132.46 170.25 133.82 169.77 134.76C169.26 135.77 168.7 136.76 168.11 137.73C167.82 138.2 167.52 138.66 167.21 139.12C166.76 139.79 166.3 140.67 165.62 141.13C165.71 139.63 165.79 138.13 165.88 136.62C165.97 136.67 166.05 136.72 166.14 136.77C167.69 137.65 166.96 139.87 165.91 140.86C165.81 140.95 165.72 141.04 165.62 141.13C165.07 141.64 164.19 141.64 163.72 141.05C163.18 140.37 163.2 139.29 163.48 138.51C163.79 137.67 164.31 137.01 164.81 136.28C164.88 136.17 164.96 136.07 165.03 135.96C165.24 135.66 164.8 136.32 164.99 136.02C165.15 135.77 165.31 135.53 165.46 135.29C166.05 134.36 166.59 133.4 167.1 132.43C167.87 133.39 168.64 134.35 169.41 135.3C168.76 136.05 168.17 136.83 167.6 137.64C167.5 137.79 167.53 137.74 167.68 137.51C167.61 137.62 167.54 137.72 167.47 137.83C167.33 138.04 167.2 138.26 167.06 138.48C166.8 138.92 166.55 139.36 166.31 139.81C165.45 139.05 164.59 138.3 163.73 137.54C164.77 135.89 165.88 134.29 167.01 132.7C167.53 131.98 168.04 131.25 168.56 130.53C169.18 129.66 169.79 128.5 170.92 128.3C171.87 128.13 172.02 129.48 171.98 130.08L171.97 130.09Z" fill="#020303"/>
<path d="M182.879 160.304C183.656 160.067 183.755 158.141 183.102 156.001C182.448 153.862 181.289 152.321 180.512 152.558C179.736 152.795 179.636 154.721 180.29 156.861C180.943 159 182.103 160.541 182.879 160.304Z" fill="#FFC600"/>
<path d="M178.98 157.28C178.25 154.89 178.11 151.88 180.1 151.27C180.46 151.16 181.02 151.1 181.69 151.45C183.27 152.29 184.16 154.85 184.4 155.62C185.13 158.01 185.27 161.01 183.27 161.63C182.86 161.76 182.47 161.75 182.1 161.63C180.67 161.19 179.56 159.17 178.98 157.27V157.28ZM181.59 156.48C181.75 156.99 181.93 157.43 182.1 157.79C182.04 157.4 181.95 156.94 181.79 156.42C181.63 155.9 181.45 155.47 181.28 155.11C181.34 155.5 181.43 155.96 181.59 156.48Z" fill="#FFC600"/>
<path d="M183.248 177.438C184.025 177.201 184.124 175.274 183.471 173.135C182.817 170.996 181.658 169.454 180.882 169.692C180.105 169.929 180.006 171.855 180.659 173.994C181.313 176.133 182.472 177.675 183.248 177.438Z" fill="#FFC600"/>
<path d="M179.35 174.41C178.62 172.02 178.48 169.01 180.48 168.4C182.47 167.78 184.04 170.36 184.77 172.75C185 173.52 185.7 176.14 184.86 177.72C184.51 178.38 184 178.65 183.64 178.76C183.23 178.89 182.84 178.88 182.47 178.76C181.04 178.32 179.93 176.3 179.35 174.4V174.41ZM181.96 173.61C182.12 174.13 182.3 174.56 182.47 174.92C182.41 174.53 182.32 174.07 182.16 173.55C182 173.03 181.82 172.6 181.65 172.24C181.71 172.63 181.8 173.09 181.96 173.61Z" fill="#FFC600"/>
<path d="M193.837 185.923C194.614 185.686 194.713 183.76 194.06 181.621C193.406 179.481 192.247 177.94 191.47 178.177C190.694 178.414 190.594 180.341 191.248 182.48C191.901 184.619 193.061 186.161 193.837 185.923Z" fill="#FFC600"/>
<path d="M191.4 185.93C190.82 185.16 190.3 184.08 189.94 182.89C189.21 180.5 189.07 177.49 191.07 176.88C193.06 176.27 194.63 178.85 195.36 181.23C195.72 182.41 195.89 183.6 195.84 184.57C195.74 186.5 194.79 187.07 194.23 187.24C193.96 187.33 193.55 187.38 193.07 187.24C192.57 187.09 192 186.72 191.41 185.93H191.4ZM192.55 182.1C192.71 182.61 192.88 183.05 193.06 183.41C193 183.02 192.91 182.56 192.75 182.04C192.59 181.52 192.42 181.09 192.24 180.73C192.29 181.12 192.39 181.58 192.55 182.1Z" fill="#FFC600"/>
<path d="M167.432 168.922C168.209 168.685 168.308 166.759 167.655 164.62C167.001 162.48 165.842 160.939 165.065 161.176C164.289 161.413 164.189 163.34 164.843 165.479C165.497 167.618 166.656 169.16 167.432 168.922Z" fill="#FFC600"/>
<path d="M163.53 165.9C162.8 163.51 162.66 160.5 164.66 159.89C166.66 159.28 168.22 161.85 168.95 164.24C169.68 166.63 169.82 169.64 167.82 170.25C167.41 170.38 167.02 170.37 166.65 170.25C165.22 169.81 164.11 167.79 163.53 165.89V165.9ZM166.13 165.11C166.29 165.62 166.47 166.06 166.64 166.42C166.58 166.03 166.49 165.57 166.33 165.05C166.17 164.53 165.99 164.1 165.82 163.74C165.88 164.13 165.97 164.59 166.13 165.11Z" fill="#FFC600"/>
<path d="M192.652 206.848C193.428 206.611 193.528 204.685 192.874 202.545C192.221 200.406 191.062 198.864 190.285 199.102C189.509 199.339 189.409 201.265 190.063 203.404C190.716 205.544 191.876 207.085 192.652 206.848Z" fill="#FFC600"/>
<path d="M188.75 203.81C188.39 202.63 188.22 201.44 188.27 200.47C188.37 198.54 189.32 197.97 189.88 197.8C190.44 197.63 191.55 197.57 192.71 199.12C193.29 199.89 193.81 200.97 194.17 202.16C194.9 204.55 195.04 207.56 193.04 208.17C192.63 208.29 192.24 208.28 191.87 208.17C190.44 207.73 189.33 205.71 188.75 203.81ZM191.36 203.01C191.52 203.53 191.69 203.96 191.87 204.32C191.81 203.93 191.72 203.47 191.56 202.95C191.4 202.43 191.23 202 191.05 201.64C191.11 202.03 191.2 202.49 191.36 203.01Z" fill="#FFC600"/>
<path d="M176.047 192.747C176.823 192.509 176.923 190.583 176.269 188.444C175.616 186.305 174.456 184.763 173.68 185C172.903 185.237 172.804 187.164 173.458 189.303C174.111 191.442 175.27 192.984 176.047 192.747Z" fill="#FFC600"/>
<path d="M172.14 189.72C171.78 188.54 171.61 187.35 171.66 186.38C171.76 184.45 172.71 183.88 173.27 183.71C173.83 183.54 174.94 183.48 176.1 185.03C176.68 185.8 177.2 186.88 177.56 188.07C178.29 190.46 178.43 193.47 176.43 194.08C176.02 194.2 175.63 194.19 175.26 194.08C173.83 193.64 172.72 191.62 172.14 189.72ZM174.75 188.92C174.91 189.44 175.08 189.87 175.26 190.23C175.2 189.84 175.11 189.38 174.95 188.86C174.79 188.34 174.62 187.91 174.44 187.55C174.5 187.94 174.59 188.4 174.75 188.92Z" fill="#FFC600"/>
<path d="M180.949 218.604C181.725 218.367 181.825 216.44 181.171 214.301C180.518 212.162 179.358 210.62 178.582 210.858C177.806 211.095 177.706 213.021 178.36 215.16C179.013 217.299 180.172 218.841 180.949 218.604Z" fill="#FFC600"/>
<path d="M177.05 215.58C176.32 213.19 176.18 210.18 178.17 209.57C178.53 209.46 179.09 209.4 179.76 209.75C181.34 210.59 182.23 213.15 182.47 213.92C183.2 216.31 183.34 219.31 181.34 219.93C180.93 220.06 180.54 220.05 180.17 219.93C178.74 219.49 177.63 217.47 177.05 215.57V215.58ZM179.66 214.79C179.82 215.3 180 215.74 180.17 216.1C180.11 215.71 180.02 215.25 179.86 214.73C179.7 214.21 179.52 213.78 179.35 213.42C179.41 213.81 179.5 214.27 179.66 214.79Z" fill="#FFC600"/>
<path d="M170.483 208.226C171.259 207.989 171.359 206.062 170.705 203.923C170.052 201.784 168.892 200.242 168.116 200.48C167.339 200.717 167.24 202.643 167.894 204.782C168.547 206.922 169.706 208.463 170.483 208.226Z" fill="#FFC600"/>
<path d="M166.59 205.2C166.23 204.02 166.06 202.83 166.11 201.86C166.21 199.93 167.16 199.36 167.72 199.19C168.08 199.08 168.65 199.03 169.31 199.37C170.9 200.21 171.78 202.78 172.02 203.54C172.75 205.93 172.89 208.94 170.89 209.55C170.48 209.68 170.09 209.67 169.72 209.55C168.29 209.11 167.18 207.09 166.6 205.19L166.59 205.2ZM169.19 204.4C169.35 204.92 169.52 205.35 169.7 205.71C169.64 205.32 169.55 204.86 169.39 204.34C169.23 203.82 169.06 203.39 168.88 203.03C168.94 203.42 169.03 203.88 169.19 204.4Z" fill="#FFC600"/>
<path d="M162.216 217.747C162.992 217.51 163.092 215.583 162.438 213.444C161.784 211.305 160.625 209.763 159.849 210.001C159.072 210.238 158.973 212.164 159.626 214.303C160.28 216.443 161.439 217.984 162.216 217.747Z" fill="#FFC600"/>
<path d="M159.77 217.75C159.19 216.98 158.67 215.9 158.31 214.71C157.58 212.32 157.44 209.31 159.44 208.7C161.44 208.1 163 210.67 163.73 213.05C164.09 214.23 164.26 215.42 164.21 216.39C164.11 218.32 163.16 218.89 162.6 219.06C162.33 219.15 161.92 219.2 161.44 219.06C160.94 218.91 160.37 218.54 159.78 217.75H159.77ZM160.92 213.92C161.08 214.43 161.25 214.87 161.43 215.23C161.38 214.84 161.28 214.38 161.12 213.86C160.96 213.35 160.79 212.91 160.61 212.56C160.67 212.95 160.76 213.41 160.92 213.93V213.92Z" fill="#FFC600"/>
<path d="M156.725 195.234C157.501 194.997 157.601 193.071 156.947 190.932C156.293 188.792 155.134 187.251 154.358 187.488C153.581 187.725 153.482 189.652 154.135 191.791C154.789 193.93 155.948 195.472 156.725 195.234Z" fill="#FFC600"/>
<path d="M154.29 195.24C153.71 194.47 153.19 193.39 152.83 192.21C152.47 191.03 152.3 189.84 152.35 188.87C152.45 186.94 153.4 186.37 153.96 186.2C154.52 186.03 155.63 185.97 156.79 187.52C157.37 188.29 157.89 189.37 158.25 190.56C158.48 191.33 159.18 193.95 158.34 195.53C157.99 196.19 157.48 196.46 157.12 196.57C156.85 196.66 156.44 196.71 155.96 196.57C155.46 196.42 154.89 196.05 154.3 195.26L154.29 195.24ZM155.43 191.4C155.59 191.92 155.76 192.35 155.94 192.71C155.88 192.32 155.79 191.86 155.63 191.34C155.47 190.82 155.3 190.39 155.12 190.03C155.18 190.42 155.27 190.88 155.43 191.4Z" fill="#FFC600"/>
<path d="M162.548 181.087C163.325 180.85 163.424 178.924 162.771 176.785C162.117 174.646 160.958 173.104 160.182 173.341C159.405 173.578 159.306 175.505 159.959 177.644C160.613 179.783 161.772 181.325 162.548 181.087Z" fill="#FFC600"/>
<path d="M158.65 178.06C157.92 175.67 157.78 172.66 159.78 172.05C161.78 171.44 163.34 174.02 164.07 176.4C164.8 178.79 164.95 181.79 162.94 182.41C162.53 182.54 162.14 182.53 161.77 182.41C160.34 181.97 159.23 179.95 158.65 178.05V178.06ZM161.26 177.26C161.42 177.77 161.6 178.21 161.77 178.56C161.71 178.17 161.62 177.71 161.46 177.19C161.3 176.68 161.13 176.24 160.95 175.89C161.01 176.28 161.1 176.74 161.26 177.26Z" fill="#FFC600"/>
<path d="M141.906 177.93C142.683 177.692 142.782 175.766 142.129 173.627C141.475 171.488 140.316 169.946 139.539 170.183C138.763 170.42 138.663 172.347 139.317 174.486C139.971 176.625 141.13 178.167 141.906 177.93Z" fill="#FFC600"/>
<path d="M138 174.9C137.27 172.51 137.13 169.5 139.12 168.89C139.68 168.72 140.79 168.66 141.95 170.21C142.53 170.99 143.05 172.06 143.41 173.25C144.14 175.64 144.29 178.64 142.28 179.26C141.87 179.39 141.48 179.38 141.11 179.26C139.68 178.82 138.57 176.8 137.99 174.9H138ZM140.61 174.1C140.77 174.61 140.94 175.05 141.12 175.41C141.06 175.02 140.97 174.56 140.81 174.04C140.65 173.53 140.48 173.09 140.3 172.73C140.36 173.12 140.45 173.58 140.61 174.1Z" fill="#FFC600"/>
<path d="M132.734 187.396C133.51 187.158 133.61 185.232 132.956 183.093C132.303 180.954 131.143 179.412 130.367 179.649C129.59 179.886 129.491 181.813 130.144 183.952C130.798 186.091 131.957 187.633 132.734 187.396Z" fill="#FFC600"/>
<path d="M130.29 187.41C129.71 186.64 129.19 185.56 128.83 184.37C128.6 183.6 127.9 180.98 128.74 179.4C129.09 178.74 129.6 178.47 129.96 178.36C130.52 178.19 131.63 178.13 132.79 179.68C133.37 180.45 133.89 181.53 134.25 182.71C134.61 183.89 134.78 185.08 134.73 186.05C134.63 187.98 133.68 188.55 133.12 188.72C132.85 188.81 132.44 188.86 131.96 188.72C131.46 188.57 130.89 188.2 130.3 187.41H130.29ZM131.44 183.57C131.6 184.08 131.77 184.52 131.95 184.88C131.9 184.49 131.8 184.03 131.64 183.51C131.48 183 131.31 182.56 131.13 182.21C131.19 182.6 131.28 183.06 131.44 183.58V183.57Z" fill="#FFC600"/>
<path d="M145.612 203.998C146.389 203.761 146.488 201.834 145.835 199.695C145.181 197.556 144.022 196.014 143.245 196.252C142.469 196.489 142.369 198.415 143.023 200.554C143.676 202.694 144.836 204.235 145.612 203.998Z" fill="#FFC600"/>
<path d="M144.41 205.13C142.83 204.29 141.94 201.73 141.7 200.96C141.47 200.19 140.77 197.58 141.61 195.99C141.96 195.33 142.47 195.06 142.82 194.95C143.18 194.84 143.75 194.78 144.41 195.13C145.99 195.97 146.88 198.53 147.12 199.3C147.48 200.48 147.65 201.67 147.6 202.64C147.5 204.57 146.55 205.14 145.99 205.31C145.71 205.4 145.3 205.45 144.82 205.31C144.69 205.27 144.55 205.21 144.4 205.14L144.41 205.13ZM144.32 200.16C144.48 200.68 144.65 201.11 144.83 201.47C144.77 201.08 144.68 200.62 144.52 200.1C144.36 199.58 144.18 199.15 144.01 198.79C144.07 199.18 144.16 199.64 144.32 200.16Z" fill="#FFC600"/>
<path d="M169.44 135.95C170.44 137.62 171.39 139.33 172.29 141.05C173.45 143.27 174.91 145.79 175.16 148.33C175.31 149.79 174.83 151.57 173.63 152.49C172.92 153.04 171.99 153.27 171.13 153.43C168.59 153.9 165.95 153.89 163.38 153.86C161.57 153.84 159.76 153.79 157.96 153.67C158.55 152.71 159.13 151.74 159.72 150.78C159.75 152.99 159.72 155.19 159.64 157.4C159.53 160.71 159.47 164.21 158.56 167.41C158.24 168.54 157.68 170.14 156.37 170.44C155.49 170.64 154.5 170.22 153.72 169.87C151.09 168.68 148.69 166.88 146.4 165.15C144.75 163.91 143.13 162.63 141.56 161.29C141.91 161.2 142.26 161.12 142.62 161.03C140.49 163.93 138.33 167.16 135.59 169.53C134.05 170.87 130.38 172.07 128.94 170C127.85 168.42 127.19 166.41 126.44 164.65C125.75 163.01 124.63 161.16 124.47 159.35L126.49 158.36C126.41 158.62 126.34 158.89 126.26 159.15C125.8 158.62 125.34 158.1 124.88 157.57C125.08 157.28 125.28 156.99 125.48 156.7C125.84 156.17 126.55 155.47 126.96 156.34C127.34 157.14 126.88 158.61 126.41 159.29C126.21 159.58 126.01 159.87 125.81 160.16C125.54 160.55 124.99 161.28 124.48 160.8C123.97 160.32 124.26 159.13 124.42 158.58C124.5 158.32 124.57 158.05 124.65 157.79C124.81 157.24 125.2 156.27 125.8 156.06C126.33 155.87 126.62 156.26 126.67 156.8C126.7 157.19 126.57 156.67 126.71 157.07C126.8 157.31 126.9 157.55 127 157.79C127.34 158.62 127.68 159.44 128.02 160.26C128.8 162.12 129.56 164.01 130.48 165.8C130.78 166.38 131.37 166.86 132.36 166.86C133.49 166.86 134.72 166.44 135.61 165.75C135.72 165.67 135.94 165.44 136.22 165.15C136.57 164.78 136.91 164.39 137.24 164.01C137.95 163.18 138.64 162.32 139.32 161.46C140.31 160.21 141.27 158.94 142.22 157.66C142.48 157.31 142.91 157.09 143.28 157.4C146.44 160.09 149.77 162.75 153.37 164.82C154.28 165.34 155.24 165.88 156.26 166.14C156.58 166.22 156.97 166.24 157.07 166.24C157.44 166.24 157.15 166.18 157.19 166.24C157.15 166.18 156.72 166.9 156.67 167.01C156.83 166.67 156.37 167.43 156.64 167.09C156.67 167.05 156.71 166.88 156.72 166.82C156.82 166.3 156.62 167.33 156.73 166.77C156.78 166.5 156.83 166.24 156.88 165.97C157.02 165.11 157.04 164.88 157.12 164.07C157.27 162.46 157.35 160.84 157.41 159.23C157.49 156.95 157.52 154.66 157.5 152.37C157.49 151.49 158.09 149.4 159.26 149.48C162.77 149.71 166.35 149.81 169.86 149.5C170.83 149.41 171.81 149.3 172.76 149.04C172.92 149 173.07 148.95 173.23 148.9C173.27 148.89 173.73 148.71 173.5 148.8C173.54 148.79 173.85 148.61 173.84 148.58C173.84 148.55 173.53 148.95 173.51 148.98C172.61 150.27 173.36 150.07 172.99 150.85C173.11 150.6 172.87 150.21 172.77 149.88C172.6 149.33 172.39 148.8 172.17 148.27C171.67 147.08 171.1 145.91 170.51 144.76C169.64 143.08 168.73 141.42 167.75 139.79C167.26 138.97 167.53 137.85 167.9 137.03C168.03 136.73 169 135.13 169.47 135.92L169.44 135.95Z" fill="#FFC600"/>
<path d="M124.88 159.03C122.85 159.34 119.72 159.86 118.98 157.44C118.2 154.86 120.81 150.78 122.26 148.96C124.72 145.87 128.49 144.06 131.92 142.25C134.66 140.81 137.34 139.21 140.49 139.01C140.07 140.13 139.66 141.25 139.24 142.38C137.95 136.88 129.58 134.31 124.81 132.74C120.99 131.48 121.27 129.06 122.69 125.53C123.69 123.06 124.63 125.4 123.97 127.02C123.25 128.82 126.43 129.14 127.43 129.47C129.86 130.27 132.05 131.35 134.29 132.59C137.34 134.28 140.21 135.76 141.06 139.41C141.24 140.18 140.97 142.7 139.81 142.78C135.74 143.03 131.98 145.55 128.54 147.52C126.32 148.79 123.81 150.09 122.4 152.32C120.12 155.93 122.49 155.76 125.54 155.3C126.82 155.1 126.05 158.87 124.87 159.05L124.88 159.03Z" fill="#FFC600"/>
</g>
<defs>
<clipPath id="clip0_3416_11075">
<rect width="203.22" height="231.45" fill="white"/>
</clipPath>
</defs>
</svg>
