<svg width="204" height="199" viewBox="0 0 204 199" fill="none" xmlns="http://www.w3.org/2000/svg">
<g clip-path="url(#clip0_3416_10686)">
<path d="M104.68 12.1599C105.26 18.5099 107.61 24.6899 111.41 29.8099C109.32 22.8999 107.23 15.9999 105.14 9.08988C107.73 15.1599 110.32 21.2299 112.91 27.2999C109.75 21.1599 106.6 15.0199 103.44 8.87988C108.02 17.2899 114.82 24.4699 122.97 29.4999C117.07 23.3099 111.18 17.1299 105.28 10.9399C115.04 17.4399 123.83 25.3899 131.27 34.4399C125.58 24.4599 117.43 15.8899 107.73 9.71988C118.05 17.6599 127.56 26.6499 136.07 36.5099C133.44 29.8399 129.2 23.8099 123.82 19.0799C130.44 25.2199 135.9 32.6099 139.81 40.7499C140.04 38.4499 139.26 36.0699 137.72 34.3499C135.48 36.9999 134 40.2899 133.48 43.7199C135.67 40.5599 137.86 37.3899 140.05 34.2299C140.24 38.2899 140.43 42.3499 140.62 46.4099L141.84 38.6999C141.1 42.8499 140.37 47.0099 139.63 51.1599C140.07 46.5799 139.81 41.9399 138.87 37.4399C135.88 42.4999 133.76 48.0599 132.62 53.8299C132.48 46.3999 132.34 38.9699 132.2 31.5399C128.95 36.3499 126.37 41.6099 124.55 47.1199C125.47 40.8099 126.39 34.4999 127.3 28.1999C122.44 33.5099 117.58 38.8299 112.71 44.1399C115.2 37.4999 117.69 30.8599 120.18 24.2099C115.06 28.6299 109.94 33.0499 104.81 37.4599C107.86 31.3699 111.56 25.6099 115.84 20.3099C110.85 23.9199 105.86 27.5199 100.87 31.1299C104.2 25.5399 108.74 20.6799 114.08 16.9499C109.2 20.4899 104.32 24.0399 99.44 27.5799C101.91 25.7799 104.39 23.9899 106.86 22.1899C102.5 26.3599 97.46 29.7399 92.46 33.0999C91.87 33.4899 92.47 34.5699 93.16 34.4399C93.85 34.3099 94.15 33.3799 93.85 32.7399C90.17 34.8399 86.8 37.4799 83.88 40.5499C85.36 39.8299 86.84 39.1099 88.33 38.3899C87.63 39.5099 86.93 40.6399 86.23 41.7599C93.07 39.4699 100.95 40.5699 106.9 44.6399C101.08 43.2799 95.26 41.9099 89.44 40.5499C98.23 47.2099 108.31 52.1599 118.96 55.0199C110.96 49.9699 102.12 46.2399 92.91 44.0499C104.73 47.9099 116.66 51.4299 128.68 54.5999C123.42 50.2499 118.15 45.8899 112.89 41.5399C119.31 44.9999 123.81 51.7999 124.48 59.0599C125.03 52.0199 125.58 44.9799 126.13 37.9399C125.86 45.0599 126.46 52.1999 127.89 59.1799C129.99 54.5899 130.96 49.4899 130.71 44.4599C125.97 51.6299 121.87 59.2299 118.48 67.1299C122.17 62.3899 125.22 57.1699 127.54 51.6299C122.18 59.3699 117.25 67.3999 112.77 75.6799C116.21 69.4399 119.64 63.1999 123.08 56.9699C117.89 65.8799 112.69 74.7999 107.5 83.7099C111.12 77.3999 115.22 71.3699 119.75 65.6699C116.96 71.3399 113.66 76.7499 109.88 81.8199C115.26 70.9399 119.28 59.3899 121.83 47.5199C117.69 59.3099 113.55 71.0999 109.41 82.8899C118.01 76.7599 127.22 71.4799 136.85 67.1499C129.13 73.1399 121.05 78.6499 112.65 83.6399C120.51 80.5799 128.03 76.6599 135.04 71.9699C128.68 75.9599 122.33 79.9599 115.97 83.9499C120.53 80.8399 125.1 77.7199 129.66 74.6099C124.16 78.7199 118.11 82.0899 111.71 84.5999C116.6 75.6799 119.32 65.5899 119.58 55.4299C114.47 66.3599 109.35 77.2899 104.24 88.2199C114.51 76.9799 123.97 64.9899 132.51 52.3799C132.24 61.4899 130.77 70.5599 128.16 79.2899C130.82 70.3199 132.48 61.0599 133.09 51.7199C132.84 59.9099 135.52 68.1699 140.54 74.6499C143.51 66.9499 141.48 57.5799 135.58 51.8099C135.47 61.9299 139.66 72.0299 146.91 79.0999C145.7 70.7799 143.25 62.6499 139.67 55.0399C143.12 65.2799 145.89 75.7599 147.96 86.3699C147.05 77.5199 144.72 68.8199 141.08 60.7099C142.72 71.3399 145.09 81.8699 148.16 92.1799C149.84 88.1699 150.3 83.6599 149.47 79.3899C149.68 84.9999 149.89 90.5999 150.11 96.2099C152.64 91.5499 155.18 86.8799 157.71 82.2199C157.44 85.4799 156.79 88.7099 155.78 91.8199C158.51 87.7699 161.24 83.7299 163.97 79.6799C161.65 82.9899 159.84 86.6599 158.64 90.5099C161.32 88.7199 163.64 86.3999 165.44 83.7199C161.83 89.1999 158.23 94.6699 154.62 100.15C146.05 93.1299 139.17 84.0599 134.71 73.9199C133.07 70.1999 131.5 66.0299 127.94 64.0699C124.38 62.1099 118.53 64.6999 119.44 68.6599C124.79 65.7999 130.14 62.9399 135.49 60.0899C134.73 62.9399 133.97 65.7899 133.21 68.6399C139.19 62.5199 143.7 54.9699 146.25 46.7999C148.47 56.3799 152.93 65.4399 159.16 73.0499C157.83 62.6799 153.77 52.6699 147.5 44.2899C150.36 54.1899 153.21 64.0899 156.07 73.9899C153.16 68.9999 150.78 63.6999 149 58.2099C150.61 63.3099 152.22 68.3999 153.83 73.4999C154.74 66.4799 154.06 59.2499 151.85 52.5199C153.32 59.9299 156.67 66.9699 161.5 72.7899C164.61 71.3399 163.28 66.6699 161.5 63.7399C157.7 57.4799 153.89 51.2199 150.09 44.9599C157.5 52.9699 164.91 60.9899 172.32 68.9999C165.82 62.4399 159.32 55.8799 152.83 49.3199C161.38 55.8999 168.63 64.1699 174.02 73.5199C171.12 68.9499 166.99 65.1799 162.18 62.7099C165.92 67.3599 169.66 72.0099 173.4 76.6499C171.06 73.5499 168.72 70.4499 166.39 67.3499C170.22 71.2299 174.05 75.1099 177.87 78.9899C177.69 76.7999 177.51 74.5999 177.33 72.4099C179.17 75.0399 181.23 77.5199 183.48 79.8199C175.77 66.2599 165.2 54.3199 152.67 45.0199C157.5 56.1599 166.16 65.5899 176.84 71.3499C182.16 74.2099 185.91 79.7899 186.57 85.7999" fill="white"/>
<path d="M102.05 12.2297C102.68 19.6897 105.11 26.8397 109.45 32.9697C110.3 34.1697 111.79 34.6297 112.96 33.5697C114.19 32.4497 114.61 30.1397 114.16 28.5897C112.16 21.6497 110.07 14.7397 108 7.8197L102.61 11.4697C105.18 17.5597 107.75 23.6397 110.33 29.7197L115.49 24.8997C112.35 18.7497 109.21 12.5897 106.07 6.4397L101.33 12.2997C106.07 20.9897 113.09 28.4897 121.47 33.7597C122.27 34.2597 123 34.5997 123.94 34.1897C124.81 33.8097 125.51 32.7797 125.79 31.9097C126.55 29.5997 126.17 27.0697 124.48 25.2897C118.6 19.0697 112.71 12.8497 106.83 6.6297L103.74 15.3097C108.54 18.5497 113.12 22.1197 117.42 26.0097C119.54 27.9297 121.59 29.9297 123.57 31.9997C125.55 34.0697 127.03 35.7497 129 38.1397C129.61 38.8897 130.36 39.5997 131.41 39.5797C132.37 39.5597 133.28 38.8197 133.75 38.0197C135.07 35.7497 134.83 32.9997 133.57 30.7897C127.71 20.5097 119.32 11.5997 109.37 5.1797C104.52 2.0497 102.78 11.7197 106.12 14.3097C111.21 18.2597 116.12 22.4297 120.8 26.8497C125.48 31.2697 129.92 35.9197 133.72 40.3297C135.04 41.8597 136.84 42.4097 138.29 40.6297C139.74 38.8497 139.87 35.9397 139.02 33.7897C136.07 26.3997 131.43 19.7597 125.48 14.4697C123.63 12.8197 121.39 14.5497 120.76 16.4897C119.98 18.8897 120.26 21.9197 122.19 23.7197C123.76 25.1897 125.29 26.7097 126.72 28.3197C126.3 27.8497 127.31 29.0097 127.41 29.1297C127.78 29.5697 128.15 30.0097 128.51 30.4597C129.19 31.2997 129.84 32.1497 130.48 33.0097C131.76 34.7397 132.95 36.5297 134.07 38.3697C134.63 39.2897 135.17 40.2197 135.68 41.1597C135.22 40.3197 136.04 41.8497 136.11 41.9997C136.37 42.5097 136.62 43.0297 136.87 43.5397C137.53 44.9197 138.69 46.4197 140.42 45.9997C142.03 45.6097 143.12 43.6897 143.24 42.1097C143.55 38.0297 142.87 33.7497 140.13 30.5297C139.14 29.3597 137.16 28.2197 135.86 29.7997C132.82 33.4897 130.86 37.6597 130.09 42.3997C129.77 44.3597 130.21 47.0397 131.85 48.3897C133.35 49.6297 135.07 48.9097 136.08 47.4497C138.27 44.2897 140.46 41.1197 142.65 37.9597L136.58 34.3397C136.77 38.3997 136.96 42.4597 137.15 46.5197C137.24 48.4297 138.05 51.3497 140.31 51.6797C142.57 52.0097 143.76 49.6497 144.05 47.7697C144.46 45.1997 144.86 42.6297 145.27 40.0597C145.61 37.8897 145.03 34.4597 142.67 33.5697C140.31 32.6797 138.8 35.4897 138.46 37.3897C137.72 41.5397 136.99 45.6997 136.25 49.8497L143.05 52.5097C143.55 46.9497 143.33 41.4397 142.22 35.9597C141.93 34.5497 141.15 32.8497 139.69 32.3097C138.34 31.8097 137.01 32.5897 136.33 33.7597C132.92 39.5997 130.55 45.8697 129.18 52.4897L136.19 53.7597C136.08 46.3297 135.98 38.8997 135.87 31.4697C135.84 29.6297 135.14 27.4397 133.5 26.4397C131.98 25.5097 130.47 26.3197 129.54 27.6897C126.06 32.8297 123.27 38.4797 121.27 44.3597L128.19 48.5697C129.14 42.2697 130.09 35.9697 131.01 29.6697C131.31 27.5997 130.92 25.2197 129.5 23.6297C128.44 22.4397 126.51 21.9297 125.27 23.2797C120.41 28.5897 115.54 33.8997 110.68 39.2097L116.08 47.0097C118.57 40.3697 121.06 33.7297 123.56 27.0897C124.34 25.0197 124.2 21.8897 122.79 20.0597C121.59 18.5097 119.76 17.8697 118.14 19.2597C113.02 23.6697 107.89 28.0897 102.77 32.4997C104.39 35.5097 106.01 38.5197 107.63 41.5297C110.7 35.4397 114.39 29.7097 118.66 24.3897C121.22 21.2097 118.7 11.7897 113.79 15.3297C108.88 18.8697 103.81 22.5297 98.82 26.1397L103.7 35.2097C104.52 33.8497 105.4 32.5197 106.36 31.2497C106.61 30.9197 106.87 30.5897 107.12 30.2597C107.45 29.8397 106.71 30.7297 107.28 30.0697C107.85 29.4097 108.37 28.8197 108.94 28.2097C111.12 25.8897 113.55 23.8097 116.15 21.9797L112.01 11.9497C107.13 15.4897 102.25 19.0297 97.36 22.5697L101.51 32.6297C103.98 30.8397 106.46 29.0397 108.93 27.2497L104.78 17.1697C102.81 19.0297 100.71 20.7497 98.54 22.3797C97.45 23.1897 96.35 23.9797 95.23 24.7597C94.61 25.1897 93.99 25.6197 93.36 26.0397C93.72 25.7897 93.26 26.1097 93.15 26.1797C92.84 26.3897 92.52 26.5997 92.21 26.8097C91.54 27.2597 90.75 27.6597 90.19 28.2297C88.99 29.4497 88.48 31.1397 88.37 32.8197C88.21 35.3697 88.98 38.3897 91.29 39.7997C93.27 41.0097 95.39 39.9897 96.56 38.1597C98.22 35.5897 97.99 32.4597 97.11 29.6797C96.61 28.0997 94.46 26.0297 92.65 27.0697C88.66 29.3697 84.96 32.1597 81.76 35.4797C79.89 37.4197 79.59 40.4497 80.35 42.9297C80.92 44.7997 82.72 47.3797 85.03 46.2597C86.51 45.5397 87.99 44.8297 89.48 44.1097C88.13 40.8297 86.79 37.5497 85.44 34.2697C84.74 35.3897 84.04 36.5197 83.34 37.6397C82.1 39.6297 81.92 42.7297 82.91 44.8697C83.75 46.6997 85.25 48.1897 87.39 47.4997C87.83 47.3597 88.28 47.2197 88.73 47.0997C89.01 47.0297 88.99 47.0297 88.67 47.0997C88.87 47.0597 89.06 47.0197 89.26 46.9797C90.11 46.8197 90.97 46.6997 91.84 46.6397C93.51 46.5097 95.18 46.5697 96.83 46.7797C97.03 46.7997 97.23 46.8297 97.42 46.8597C97.1 46.7997 97.08 46.7897 97.36 46.8497C97.82 46.9397 98.27 47.0397 98.73 47.1597C99.5 47.3597 100.27 47.5997 101.02 47.8797C101.77 48.1597 102.51 48.4697 103.22 48.8297C103.58 49.0097 103.93 49.1997 104.28 49.3897C104.72 49.6397 104.74 49.6597 104.36 49.4297C104.59 49.5697 104.81 49.7197 105.03 49.8697L107.78 38.8897C101.96 37.5197 96.14 36.1597 90.32 34.7897C84.85 33.5097 84.22 43.2597 87.57 45.7797C96.68 52.6597 107.02 57.8397 118.04 60.8297C120.5 61.4997 122.04 59.4197 122.59 57.2497C123.14 55.0797 122.98 51.1897 120.8 49.8197C112.43 44.5597 103.43 40.5897 93.8 38.2597C91.11 37.6097 89.38 40.1097 89.07 42.5597C88.76 45.0097 89.27 48.9597 91.99 49.8497C103.81 53.7097 115.74 57.2297 127.76 60.4097C130.23 61.0597 131.77 59.0097 132.32 56.8297C132.93 54.4097 132.58 51.0897 130.53 49.3897C125.27 45.0297 120 40.6797 114.74 36.3197C113.82 39.9997 112.9 43.6697 111.98 47.3497C112.2 47.4697 112.41 47.5897 112.63 47.7097C112.2 47.4497 112.2 47.4497 112.62 47.7097C112.92 47.9197 113.23 48.1297 113.53 48.3397C114.23 48.8497 114.89 49.4097 115.52 49.9897C115.79 50.2397 116.05 50.4997 116.31 50.7697C116.64 51.1097 116.99 51.5797 116.49 50.9497C117.03 51.6297 117.57 52.2997 118.06 53.0197C118.27 53.3297 118.47 53.6397 118.66 53.9597C118.79 54.1697 118.91 54.3797 119.03 54.5997C118.71 53.9997 118.64 53.8697 118.82 54.2197C119.16 54.9497 119.51 55.6697 119.8 56.4197C119.89 56.6497 119.97 56.8797 120.05 57.1197C120.2 57.5897 120.21 57.5897 120.06 57.1197C119.92 56.6397 119.92 56.6397 120.06 57.1197C120.12 57.3597 120.19 57.5997 120.24 57.8397C120.32 58.1997 120.4 58.5597 120.47 58.9297C120.55 59.3397 120.74 61.1097 120.54 59.1697C120.77 61.3997 121.47 64.4997 124.1 64.9697C126.47 65.3897 128.15 62.6397 128.31 60.5697C128.86 53.5297 129.4 46.4897 129.95 39.4397L122.2 38.0397C121.94 45.6797 122.63 53.3697 124.15 60.8597C124.51 62.6197 125.59 64.7097 127.51 65.0497C129.43 65.3897 130.64 63.6797 131.34 62.1097C133.81 56.5897 134.88 50.3897 134.61 44.3597C134.52 42.3697 133.86 40.0697 132.07 38.9797C130.45 37.9997 128.8 38.8397 127.83 40.3197C122.85 47.8797 118.61 55.8997 115.03 64.2197C114.02 66.5597 114.54 69.9697 116.22 71.8597C116.8 72.5097 117.67 73.1597 118.61 73.0797C119.85 72.9597 120.59 72.2297 121.32 71.2697C125.28 66.1497 128.44 60.5097 130.95 54.5397C131.94 52.1897 131.45 48.8197 129.76 46.9297C128.07 45.0397 125.99 45.5997 124.67 47.5197C119.32 55.2697 114.4 63.2997 109.92 71.5897C108.61 74.0197 108.35 77.6097 110.12 79.9197C111.62 81.8697 114.26 82.1997 115.59 79.7897C119.02 73.5497 122.45 67.2997 125.89 61.0597C127.21 58.6597 127.44 55.0497 125.69 52.7597C124.16 50.7797 121.62 50.5297 120.24 52.8897C115.05 61.8097 109.86 70.7297 104.67 79.6497L110.29 87.7697C113.92 81.4597 118.02 75.4297 122.53 69.7197L116.94 61.6397C114.15 67.3197 110.86 72.7297 107.1 77.8197L112.65 85.8297C112.81 85.4997 112.98 85.1597 113.13 84.8297C113.44 84.1797 113.5 84.0397 113.33 84.4097C113.18 84.7197 113.22 84.6397 113.45 84.1697L114.01 82.9897C114.34 82.2997 114.67 81.5997 114.99 80.8997C115.63 79.4997 116.25 78.0997 116.85 76.6797C118.08 73.7797 119.21 70.8397 120.25 67.8697C122.41 61.6897 124.13 55.3597 125.52 48.9697C126.01 46.6997 125.23 43.4697 123.16 42.2097C121.09 40.9497 119.17 42.7297 118.48 44.6897C114.33 56.4697 110.15 68.2497 106.04 80.0497C105.31 82.1597 105.38 85.2197 106.81 87.0697C108.09 88.7297 109.72 89.0997 111.45 87.8597C113.67 86.2697 115.1 85.2997 117.4 83.8197C119.7 82.3397 121.82 81.0597 124.08 79.7597C128.59 77.1597 133.24 74.7897 137.98 72.6297L134.84 62.2797C127.22 68.2197 119.81 73.2797 111.53 78.2097C109.23 79.5797 108.5 82.7297 109.1 85.2397C109.61 87.3297 111.2 90.0897 113.77 89.0797C121.63 86.0097 129.13 82.0997 136.16 77.4297C138.41 75.9297 139.23 72.9897 138.59 70.3797C138.19 68.6997 136.29 65.0297 133.9 66.5197C127.55 70.5097 121.18 74.4797 114.82 78.4497L117.98 88.8597C122.38 85.8797 127.06 82.6797 131.68 79.5297L127.63 69.7097C126.91 70.2397 126.18 70.7697 125.45 71.2797C125.09 71.5297 124.8 71.7297 124.1 72.1697C122.66 73.0997 121.18 73.9797 119.68 74.8097C116.74 76.4397 113.69 77.8597 110.57 79.0997L114.46 88.5797C120.04 78.2997 122.97 67.0097 123.26 55.3297C123.3 53.5697 122.37 50.5797 120.42 49.9797C118.35 49.3497 117.1 50.9797 116.32 52.6597C111.26 63.6097 106.11 74.5197 100.98 85.4397C100.1 87.3197 100.44 90.5597 101.72 92.2297C102.77 93.5897 104.8 94.5397 106.21 92.9997C116.76 81.4797 126.44 69.1897 135.19 56.2497L128.82 52.4397C128.79 53.5597 128.76 54.6797 128.67 55.7897C128.77 54.4397 128.63 56.1897 128.61 56.4497C128.56 57.0097 128.52 57.5697 128.46 58.1197C128.25 60.2697 127.97 62.4097 127.63 64.5397C127.29 66.6697 126.89 68.7897 126.4 70.8997C126.29 71.3697 126.18 71.8297 126.07 72.2997C126.34 71.1697 125.86 73.0897 125.81 73.2797C125.52 74.3597 125.21 75.4297 124.89 76.4997L131.39 81.9997C134.2 72.5897 136.06 62.9197 136.76 53.1197L129.3 51.7697C129.03 61.3597 132.09 71.1797 137.9 78.8397C139.99 81.5997 142.84 80.4097 143.94 77.4997C147.93 67.0097 145.34 54.4697 137.43 46.5197C136.3 45.3797 134.54 45.6197 133.44 46.6197C132 47.9197 131.63 50.0297 131.61 51.8697C131.5 63.9697 136.33 75.9997 144.95 84.5097C146.34 85.8797 148.41 85.2597 149.49 83.9097C150.99 82.0597 151.13 79.5797 150.8 77.3097C149.5 68.4997 146.9 59.8297 143.13 51.7497C142.61 50.6297 141.82 49.3797 140.59 48.9197C139.52 48.5197 138.23 48.8197 137.43 49.6297C135.17 51.8897 135.22 55.4397 136.16 58.2597C136.57 59.4797 136.97 60.7097 137.36 61.9397C137.58 62.6297 137.8 63.3297 138.01 64.0197C138.05 64.1497 138.36 65.1597 138.14 64.4297C137.92 63.6997 138.22 64.7097 138.26 64.8397C139.02 67.3897 139.74 69.9597 140.41 72.5297C141.76 77.6797 142.94 82.8797 143.96 88.0997C144.38 90.2597 146.05 93.1097 148.63 92.5197C151.21 91.9297 152.32 88.4997 152.08 86.2197C151.04 76.2497 148.65 66.5297 144.58 57.3497C143.66 55.2797 141.55 53.3297 139.28 54.8697C136.89 56.4897 136.64 59.8697 137.04 62.4597C138.67 73.0997 141.07 83.5997 144.17 93.8997C144.73 95.7597 145.55 97.9397 147.72 98.3297C149.75 98.6897 151.09 96.9097 151.77 95.2197C154.02 89.6497 154.45 83.4597 153.34 77.5697C152.94 75.4297 151.26 72.6197 148.72 73.1997C146.18 73.7797 145.22 77.1497 145.31 79.4297C145.54 85.0397 145.77 90.6397 146 96.2497C146.09 98.3097 146.77 100.7 148.63 101.83C150.2 102.79 152.15 102.06 153.02 100.45C155.54 95.7597 158.03 91.0597 160.57 86.3897L153.77 80.6597C153.63 82.2097 153.43 83.7597 153.13 85.2897C153.07 85.5997 153.01 85.8997 152.94 86.2097C152.89 86.4397 152.84 86.6697 152.78 86.8897C152.7 87.2097 152.71 87.1897 152.79 86.8397C152.9 86.4097 152.88 86.4697 152.74 87.0097L152.61 87.4597C152.48 87.9097 152.34 88.3497 152.2 88.7997C151.38 91.3497 151.57 94.5297 153.42 96.5897C155.07 98.4397 157.3 97.9697 158.63 95.9897C161.36 91.9397 164.09 87.8997 166.82 83.8497C168.38 81.5397 168.32 77.4997 166.61 75.2797C164.9 73.0597 162.56 73.1497 160.98 75.4197C158.42 79.1097 156.42 83.2197 155.05 87.4997C154.33 89.7397 154.33 92.8597 155.85 94.8297C156.33 95.4597 156.91 96.0197 157.64 96.3497C158.79 96.8597 159.78 96.2897 160.69 95.6597C163.72 93.5997 166.21 90.9197 168.27 87.8997L162.43 79.4697C158.82 84.9497 155.22 90.4197 151.61 95.8997L156.41 94.8297C154.7 93.4197 153.05 91.9397 151.48 90.3797C150.69 89.5997 149.93 88.7997 149.18 87.9897C149.05 87.8597 148.56 87.3097 149.18 87.9897C149 87.7797 148.81 87.5697 148.63 87.3697C148.27 86.9497 147.91 86.5297 147.56 86.0997C144.69 82.6197 142.19 78.8797 140 74.9397C139.7 74.4097 140.14 75.2097 140.16 75.2397C140.01 75.0597 139.89 74.7197 139.78 74.4997C139.53 74.0097 139.28 73.5097 139.04 73.0097C138.54 71.9797 138.08 70.9397 137.63 69.8897C136.7 67.7497 135.73 65.6097 134.49 63.6297C132.28 60.0697 128.45 56.7297 123.97 57.3697C121.76 57.6797 119.64 58.5497 118.09 60.2097C115.55 62.9297 114.87 66.7497 115.56 70.3397C115.95 72.3397 117.99 75.8397 120.57 74.4597C125.92 71.5997 131.27 68.7497 136.62 65.8897C135.04 62.9497 133.47 60.0097 131.89 57.0697C131.13 59.9197 130.37 62.7697 129.61 65.6197C128.99 67.9397 128.84 70.9297 130.42 72.9697C131.58 74.4797 133.71 75.4197 135.28 73.7997C141.86 67.0097 146.84 58.7597 149.7 49.7497L142.36 48.4697C144.84 58.9897 149.52 69.0197 156.33 77.4397C157.57 78.9697 159.63 79.9197 161.26 78.2797C163.11 76.4197 163.27 73.7097 162.95 71.2597C161.48 59.9297 157.02 48.8997 150.23 39.7197C149.03 38.0997 146.82 37.2297 145.19 38.8597C143.47 40.5797 142.8 43.6997 143.46 46.0197C146.29 55.9297 149.13 65.8397 151.98 75.7497L158.83 69.3697C158.49 68.7797 158.16 68.1797 157.82 67.5797C157.48 66.9797 158.24 68.4097 157.75 67.4497C157.61 67.1797 157.47 66.9097 157.33 66.6397C156.67 65.3497 156.05 64.0497 155.47 62.7297C154.33 60.1597 153.33 57.5297 152.45 54.8497C151.68 52.4997 148.7 50.6297 146.64 52.6897C144.31 55.0297 144.43 58.5797 145.35 61.4897C146.96 66.5897 148.57 71.6897 150.17 76.7897C150.72 78.5397 152.56 80.1897 154.44 79.7497C156.45 79.2897 157.59 76.9597 157.83 75.0697C158.93 66.2697 158.03 57.5697 155.32 49.1397C154.61 46.9297 152.11 45.1897 149.97 46.6297C147.64 48.2097 147.19 51.7297 147.71 54.2897C149.41 62.6797 153.06 70.7597 158.51 77.3897C159.5 78.5997 161.02 79.8097 162.68 78.9497C166.39 77.0397 167.69 72.7597 167.49 68.8197C167.3 65.1197 165.93 61.7597 164.02 58.6297C160.3 52.5197 156.56 46.4197 152.85 40.2997L148 50.4997C155.4 58.5297 162.81 66.5497 170.21 74.5797L174.22 63.3297C167.73 56.7597 161.23 50.1997 154.73 43.6297L150.71 54.9197C152.82 56.5497 154.85 58.2697 156.79 60.0897C157.76 60.9997 158.71 61.9297 159.64 62.8897C160.08 63.3397 160.51 63.7997 160.94 64.2597C161.18 64.5197 161.41 64.7797 161.65 65.0397C162.18 65.6197 160.86 64.1197 161.74 65.1497C165.22 69.1997 168.33 73.5097 171.01 78.1297L176.81 68.7997C173.39 63.4797 168.64 59.2797 163.05 56.3597C160.95 55.2597 158.86 57.7497 158.31 59.4597C157.53 61.8597 157.51 65.2497 159.17 67.3197C162.91 71.9697 166.65 76.6297 170.38 81.2797C171.15 82.2397 172.12 83.1497 173.45 83.1197C174.67 83.0897 175.84 82.1497 176.43 81.1397C177.95 78.5297 178.09 74.4297 176.2 71.9197C173.87 68.8197 171.53 65.7197 169.19 62.6197L164.25 72.9897C168.08 76.8597 171.92 80.7297 175.74 84.6097C176.96 85.8397 178.86 85.5797 180.05 84.4997C181.5 83.1797 182.18 80.7397 182.03 78.8397C181.85 76.6497 181.65 74.4497 181.45 72.2597L174.34 76.9897C176.46 79.9397 178.84 82.7097 181.4 85.2997C183.31 87.2297 185.82 85.4297 186.73 83.5397C188.01 80.8597 187.67 77.7497 186.2 75.2197C178.14 61.3597 167.38 48.9997 154.56 39.3497C152.76 37.9997 150.58 38.5497 149.45 40.4897C148.12 42.7697 147.93 45.8997 148.98 48.3297C149.85 50.3497 150.89 52.2597 151.91 54.1997C151.76 53.9097 151.17 52.8197 151.94 54.2397C152.12 54.5697 152.3 54.8997 152.48 55.2297C152.71 55.6297 152.94 56.0197 153.18 56.4097C153.66 57.1897 154.16 57.9497 154.67 58.6997C156.88 61.9097 159.43 64.8997 162.2 67.6397C164.74 70.1597 167.53 72.4797 170.53 74.4197C172.23 75.5197 173.98 76.5197 175.77 77.4697C175.93 77.5597 176.09 77.6497 176.25 77.7297C176.85 78.0097 175.64 77.2997 176.18 77.6797C176.48 77.8897 176.79 78.0897 177.09 78.2997C177.83 78.8397 178.53 79.4397 179.18 80.0797C179.31 80.2097 179.43 80.3497 179.56 80.4697C180.06 80.9397 179.02 79.7897 179.44 80.3297C179.74 80.7197 180.06 81.0897 180.35 81.4897C180.64 81.8897 180.91 82.2897 181.16 82.7097C181.81 83.7697 180.91 82.0997 181.3 82.9197C181.72 83.8097 182.01 84.7397 182.4 85.6397C182.27 85.3497 181.89 83.9897 182.39 85.6197C182.65 86.4597 182.68 86.5797 182.49 85.9697C182.37 85.5397 182.34 85.4797 182.41 85.7797C182.45 86.3197 182.6 86.8797 182.67 87.4197C182.92 89.5197 185.18 92.7597 187.64 91.5097C190.36 90.1297 190.54 86.6397 190.22 84.0297C189.72 79.8997 188.16 75.8297 185.78 72.4097C183.4 68.9897 180.38 66.7097 176.81 64.6197C176.69 64.5497 175.98 64.1197 176.48 64.4197C176.94 64.6997 176.38 64.3597 176.32 64.3197C175.93 64.0697 175.55 63.8297 175.17 63.5697C174.41 63.0597 173.65 62.5497 172.91 62.0097C171.43 60.9397 170 59.7997 168.63 58.5897C167.26 57.3797 165.95 56.0997 164.71 54.7597C164.61 54.6597 164.36 54.4597 164.31 54.3297C164.34 54.4297 165.07 55.2097 164.42 54.4497C164.16 54.1497 163.91 53.8597 163.66 53.5597C163.03 52.8097 162.42 52.0397 161.84 51.2597C160.63 49.6397 159.5 47.9597 158.48 46.2097C158.22 45.7597 157.96 45.3097 157.7 44.8597C157.62 44.7297 157.3 44.1297 157.67 44.8197C158.06 45.5497 157.64 44.7497 157.56 44.5997C157.05 43.6097 156.58 42.6097 156.13 41.5997L150.55 50.5697C156.76 55.1497 162.51 60.3497 167.66 66.0997C166.91 65.2597 167.75 66.2097 167.91 66.3897C168.28 66.8097 168.64 67.2397 169.01 67.6697C169.6 68.3697 170.18 69.0697 170.75 69.7797C171.94 71.2597 173.09 72.7597 174.2 74.2997C176.52 77.4997 178.6 80.8397 180.53 84.2897C182.13 80.9297 183.73 77.5697 185.33 74.2097C185.07 73.9297 184.8 73.6497 184.54 73.3697C184.3 73.1097 183.86 72.5997 184.33 73.1397C183.83 72.5597 183.33 71.9797 182.85 71.3797C181.88 70.1897 180.97 68.9497 180.1 67.6897C179.02 66.1297 177.13 65.3297 175.45 66.4697C173.66 67.6797 172.84 70.3397 172.99 72.4197C173.15 74.6097 173.32 76.8097 173.5 78.9997L179.78 73.2297C175.95 69.3497 172.13 65.4497 168.3 61.5697C166.34 59.5797 163.75 61.4397 162.82 63.3897C161.62 65.9197 161.62 69.6297 163.37 71.9497C165.7 75.0497 168.04 78.1497 170.38 81.2497C172.32 78.1297 174.27 74.9997 176.21 71.8797C172.46 67.2397 168.72 62.5997 164.98 57.9497L161.1 68.9097C161.4 69.0697 161.7 69.2197 161.99 69.3897C162.16 69.4797 162.98 69.9697 162.18 69.4797C162.7 69.7997 163.2 70.1397 163.7 70.4897C164.75 71.2297 165.75 72.0397 166.7 72.8997C167.15 73.3097 167.59 73.7297 168.01 74.1697C168.23 74.3997 168.53 74.6497 168.71 74.9097C168.49 74.5797 168.25 74.3697 168.62 74.8297C169.48 75.8797 170.28 76.9597 171.02 78.0997C172.54 80.4597 175.64 80.3697 177.05 77.9497C178.72 75.0897 178.45 71.5597 176.82 68.7697C171.19 59.0797 163.61 50.4397 154.74 43.5897C152.38 41.7697 149.8 43.5397 148.98 46.0597C147.99 49.0797 148.44 52.5797 150.72 54.8797C157.22 61.4397 163.72 67.9897 170.22 74.5397C172.37 76.7097 175.23 74.3097 175.96 72.0797C176.97 68.9797 176.44 65.6797 174.22 63.2797C166.81 55.2797 159.39 47.2797 151.98 39.2797C151.25 38.4897 149.66 38.2297 148.72 38.7097C147.72 39.2197 147.06 40.0697 146.59 41.0597C145.32 43.7297 145.6 46.9597 147.13 49.4697C150.16 54.4497 153.18 59.4397 156.2 64.4297C156.93 65.6397 157.67 66.8497 158.4 68.0697C158.49 68.2197 158.94 69.0397 158.49 68.1797C158.02 67.2697 158.52 68.2597 158.58 68.3897C158.77 68.7897 158.91 69.1997 159.08 69.5997C159.47 70.5597 158.84 68.4397 158.95 69.1597C158.98 69.3697 159.04 69.5797 159.09 69.7797C159.15 70.0297 159.24 70.8597 159.09 69.6897C159.03 69.0397 159.01 68.9497 159.03 69.4297L159.12 68.2797C159.01 69.0997 159.33 67.6097 159.36 67.5297C159.12 68.2497 159.64 67.0097 159.69 66.9297C159.26 67.6497 160.41 66.2097 159.95 66.6097C159.56 66.9497 161 66.0297 160.13 66.4797L164.3 68.0397C163.14 66.6297 162.06 65.1697 161.07 63.6397C160.58 62.8797 160.11 62.0997 159.66 61.2997C158.93 60.0097 159.96 61.9697 159.46 60.9297C159.28 60.5497 159.08 60.1797 158.9 59.7997C158.12 58.1597 157.43 56.4697 156.85 54.7497C156.72 54.3697 156.43 53.0797 156.81 54.6797C156.71 54.2697 156.58 53.8697 156.47 53.4697C156.22 52.5197 156 51.5697 155.8 50.6097L148.19 55.7597C148.68 57.2597 147.85 54.4797 148.27 55.9997C148.37 56.3697 148.48 56.7397 148.57 57.1097C148.78 57.9297 148.97 58.7497 149.14 59.5797C149.29 60.3297 149.43 61.0897 149.55 61.8497C149.61 62.2397 149.6 62.8597 149.74 63.2197L149.65 62.4297C149.67 62.6597 149.7 62.8897 149.72 63.1197C149.87 64.7297 149.93 66.3497 149.91 67.9597C149.91 68.3397 149.9 68.7297 149.88 69.1097C149.85 70.0197 149.77 69.7297 149.9 69.0097C149.73 69.8997 149.74 70.8697 149.63 71.7697L157.3 70.0497C155.69 64.9597 154.07 59.8597 152.46 54.7697L145.36 61.4097C147.32 67.3697 149.98 73.0397 153.13 78.4597C154.17 80.2597 156.7 80.8697 158.24 79.3297C159.97 77.5897 160.67 74.4197 159.99 72.0697C157.13 62.1697 154.25 52.2797 151.36 42.3897L144.6 48.6897C146.1 50.6997 147.49 52.7797 148.73 54.9497C148.91 55.2597 149.11 55.5597 149.26 55.8797C149.09 55.4897 148.91 55.1997 149.2 55.7597C149.49 56.3197 149.79 56.9097 150.07 57.4897C150.63 58.6497 151.16 59.8297 151.64 61.0197C152.1 62.1497 152.53 63.2897 152.92 64.4397C153.04 64.7797 153.15 65.1197 153.26 65.4597C153.31 65.6097 153.6 66.5497 153.35 65.7497C153.1 64.9497 153.39 65.8897 153.43 66.0397C153.53 66.3797 153.62 66.7297 153.71 67.0797C154.37 69.5697 154.86 72.0997 155.21 74.6597L161.84 68.4897C160.35 66.6697 158.95 64.7797 157.67 62.8097C157.01 61.7997 156.37 60.7697 155.77 59.7197C155.57 59.3797 154.8 58.0897 155.39 59.0797C155.06 58.5397 154.79 57.9397 154.51 57.3697C153.47 55.2597 152.54 53.0997 151.73 50.8897C151.54 50.3497 151.35 49.8197 151.17 49.2697C151.08 48.9997 150.99 48.7297 150.9 48.4597C150.68 47.7797 150.82 48.3097 150.96 48.6797C150.51 47.4997 150.27 46.1897 149.98 44.9597C149.56 43.1597 148.56 41.0397 146.55 40.6797C144.68 40.3497 143.17 42.0197 142.64 43.6797C142 45.6897 141.27 47.6597 140.41 49.5797C140.3 49.8397 140.18 50.0897 140.06 50.3497C140.36 49.7397 140.37 49.6997 140.11 50.2397C139.92 50.6197 139.73 50.9897 139.54 51.3697C139.05 52.2997 138.54 53.2197 138 54.1297C136.96 55.8797 135.82 57.5697 134.59 59.1897C134.48 59.3397 133.37 60.7097 134.07 59.8697C133.8 60.1897 133.53 60.5197 133.26 60.8397C132.53 61.6897 131.77 62.5097 130.98 63.3197L136.65 71.4997C137.41 68.6497 138.17 65.7997 138.92 62.9497C139.53 60.6697 139.6 58.3497 138.44 56.2097C137.69 54.8097 135.93 53.1997 134.19 54.1397C128.84 56.9997 123.49 59.8597 118.14 62.7197L123.15 66.8397C123.05 66.3097 123.23 66.1097 123.24 67.6397C123.24 68.1797 123.18 68.7097 123.05 69.2297C122.8 70.1797 122.92 69.6797 123 69.4797C122.47 70.8297 122.53 70.3897 122.75 70.0497C123.15 69.4497 121.88 70.7897 122.72 70.1397C122.82 70.0597 122.93 69.9697 123.02 69.8797C123.57 69.3797 122.42 70.1297 122.88 69.9897C123.18 69.8997 123.48 69.6897 123.77 69.5797C123.88 69.5397 124.08 69.5097 124.18 69.4397C124.56 69.1697 123.79 69.5297 123.82 69.4997C124.24 69.1297 125.47 69.4197 125.97 69.3997C126.47 69.3797 125.29 69.1297 125.75 69.3697C125.87 69.4297 126.03 69.4497 126.16 69.4897C126.34 69.5497 127.16 69.9597 126.76 69.7297C126.39 69.5197 127.27 70.1197 127.45 70.2797C127.59 70.3997 127.72 70.5197 127.85 70.6397C128.6 71.3497 127.95 70.5997 127.88 70.6397C128.07 70.5697 129.19 72.5097 129.33 72.7497C129.85 73.6097 128.94 71.9397 129.39 72.8497C129.61 73.2997 129.83 73.7497 130.04 74.2097C131.81 78.0697 133.53 81.8897 135.69 85.5597C137.69 88.9597 139.98 92.1897 142.52 95.2097C145.6 98.8697 148.95 102.28 152.64 105.32C154.35 106.73 156.33 105.94 157.44 104.25C161.05 98.7697 164.65 93.2997 168.26 87.8197C169.79 85.4897 169.77 81.4897 168.05 79.2497C166.33 77.0097 163.98 77.0997 162.42 79.3897C162.18 79.7397 161.94 80.0797 161.69 80.4197C161.17 81.1497 161.93 80.1897 161.56 80.5997C161.04 81.1797 160.54 81.7497 159.99 82.2997C158.89 83.3797 157.69 84.3497 156.41 85.2197L162.06 93.3797C162.37 92.4197 162.7 91.4597 163.08 90.5297C163.24 90.1297 163.41 89.7297 163.58 89.3297C163.7 89.0697 163.82 88.7997 163.94 88.5397C163.69 89.0597 163.65 89.1497 163.82 88.8097C164.75 87.0897 165.69 85.3997 166.81 83.7897L160.97 75.3597C158.24 79.4097 155.51 83.4497 152.78 87.4997C154.92 89.8997 157.07 92.2897 159.21 94.6897C160.36 91.0997 161.18 87.3897 161.51 83.6397C161.7 81.4497 161.51 78.3197 159.51 76.8397C157.87 75.6197 155.72 76.0397 154.71 77.9097C152.18 82.5597 149.61 87.1897 147.06 91.8297L154.08 96.0197C153.89 90.4097 153.7 84.8097 153.5 79.1997L145.47 81.0597C145.51 81.2597 145.69 83.0397 145.64 82.0097C145.59 80.9797 145.66 82.5497 145.66 82.7497C145.67 83.0797 145.85 84.0597 145.66 84.3197L145.72 83.5497C145.7 83.8497 145.67 84.1497 145.64 84.4397C145.54 85.3197 145.44 86.2497 145.17 87.0897C145.63 85.6397 145.17 86.9797 145.06 87.2997C144.87 87.8697 144.66 88.4297 144.43 88.9797L152.04 90.2997C149 79.9697 146.67 69.4497 145 58.8097L137.46 63.9197C138.34 65.8797 139.15 67.8697 139.88 69.8797C140.24 70.8897 140.58 71.9097 140.91 72.9297C141.11 73.5797 141.09 73.5097 140.86 72.7397C140.93 72.9597 140.99 73.1797 141.06 73.3997C141.21 73.9197 141.36 74.4297 141.5 74.9497C142.06 77.0197 142.54 79.1197 142.93 81.2297C143.13 82.2797 143.31 83.3397 143.46 84.3997C143.53 84.8497 143.59 85.3097 143.65 85.7697C143.69 86.0697 143.73 86.3797 143.77 86.6797C143.67 85.7597 143.66 85.6597 143.73 86.3697L151.85 84.4897C149.66 73.3697 146.69 62.4197 143.08 51.6897L136.11 58.2097C137.02 60.1497 137.86 62.1097 138.63 64.1097C138.96 64.9697 139.27 65.8297 139.57 66.6897C139.77 67.2697 139.96 67.8497 140.15 68.4297C140.26 68.7697 140.82 70.0197 140.24 68.6897C141.01 70.4397 141.33 72.5897 141.75 74.4497C142.22 76.5397 142.6 78.6397 142.92 80.7597L148.77 73.5597C148.34 73.1297 147.92 72.6997 147.5 72.2597C147.43 72.1797 146.82 71.5597 147.24 71.9997C147.71 72.4997 146.96 71.6597 146.88 71.5597C146.15 70.6797 145.46 69.7697 144.81 68.8197C144.12 67.8197 143.51 66.7797 142.91 65.7297C142.53 65.0697 143.33 66.5797 143 65.8897C142.86 65.5897 142.7 65.2897 142.55 64.9897C142.29 64.4397 142.04 63.8897 141.8 63.3297C141.59 62.8297 141.39 62.3297 141.2 61.8297C141.01 61.3297 140.9 60.5397 140.61 60.1097C140.92 60.5697 140.88 61.0597 140.64 60.1997C140.57 59.9397 140.5 59.6797 140.43 59.4197C140.28 58.8297 140.14 58.2397 140.02 57.6497C139.9 57.0597 139.79 56.4597 139.7 55.8597C139.66 55.5897 139.63 55.3197 139.59 55.0597C139.45 54.2397 139.7 56.2897 139.63 55.4597C139.52 54.1797 139.45 52.9097 139.45 51.6197L133.63 56.9697C133.81 57.1397 134.86 58.3497 134.07 57.3897C134.38 57.7697 134.69 58.1497 134.98 58.5397C135.4 59.1197 136.22 59.9897 136.37 60.6997C136.02 60.0397 135.98 59.9697 136.24 60.4797C136.35 60.6997 136.45 60.9197 136.55 61.1497C136.75 61.5997 136.94 62.0497 137.11 62.5097C137.2 62.7397 137.28 62.9697 137.36 63.1997C137.55 63.7897 137.52 63.6697 137.26 62.8397C137.26 62.8397 137.55 63.9797 137.57 64.0897C137.66 64.5097 137.74 64.9297 137.81 65.3597C137.85 65.5997 137.88 65.8497 137.92 66.0897C137.82 65.1197 137.8 64.9597 137.85 65.6097C137.87 66.0997 137.91 66.5897 137.91 67.0797C137.91 67.2997 137.77 68.8297 137.92 67.7597C138.07 66.6897 137.86 68.2397 137.84 68.4397C137.78 68.9297 137.7 69.4097 137.6 69.8897C137.55 70.1297 137.5 70.3697 137.44 70.6097C137.65 69.7897 137.67 69.6697 137.51 70.2597C137.35 70.7297 137.21 71.1997 137.04 71.6597L143.08 70.3197C142.48 69.5397 141.9 68.7397 141.36 67.9097C141.09 67.4997 140.83 67.0797 140.58 66.6497C140.45 66.4397 139.72 65.0797 140.28 66.1597C139.4 64.4697 138.65 62.7197 138.04 60.9097C137.97 60.7097 137.91 60.5097 137.84 60.3097C138.05 61.0197 138.07 61.0697 137.9 60.4697C137.79 60.0597 137.68 59.6497 137.58 59.2397C137.35 58.2797 137.16 57.3097 137.01 56.3297C136.97 56.0497 136.93 55.7697 136.89 55.4897L136.96 56.1797C136.86 55.6397 136.85 55.0397 136.82 54.4897C136.76 53.4997 136.75 52.5097 136.77 51.5197C136.81 49.3997 135.69 46.3597 133.35 45.9497C131.01 45.5397 129.43 48.1897 129.3 50.1797C129.01 54.7697 128.48 59.3497 127.69 63.8897C127.31 66.0797 126.87 68.2597 126.38 70.4197C126.24 71.0397 126.09 71.6597 125.94 72.2697C125.64 73.5097 126.12 71.6397 125.81 72.7597C125.48 73.9897 125.15 75.2097 124.79 76.4297C124.1 78.7997 124.07 82.4197 126.3 84.0697C128.34 85.5797 130.62 84.1997 131.29 81.9397C134.13 72.2297 135.73 62.2997 136.07 52.1897C136.13 50.3697 135.27 48.0897 133.68 47.1297C132.09 46.1697 130.63 47.0097 129.69 48.3897C125.45 54.6197 121 60.6997 116.33 66.6097C114.2 69.2997 112.19 71.7697 109.68 74.7297C107.17 77.6897 104.7 80.4997 102.14 83.3197L107.38 90.8797C109.93 85.4097 112.48 79.9397 115.03 74.4697L118.8 66.3797C119.11 65.7097 119.43 65.0297 119.74 64.3597C119.84 64.1497 120.06 63.6897 119.84 64.1597C120.13 63.5597 120.42 62.9497 120.7 62.3497L122.72 58.0997L115.78 55.4297C115.76 56.0097 115.8 56.6497 115.7 57.2197C115.78 56.7897 115.76 56.3797 115.7 57.0597C115.67 57.3597 115.65 57.6597 115.62 57.9497C115.51 59.1397 115.36 60.3297 115.18 61.5097C115 62.6897 114.79 63.8697 114.55 65.0397C114.43 65.6297 114.29 66.2097 114.16 66.7897C114.03 67.3697 114.09 67.1897 114.18 66.7197C114.11 67.0797 113.99 67.4397 113.89 67.7997C113.26 70.1097 112.5 72.3797 111.61 74.5997C111.17 75.7097 110.68 76.7997 110.19 77.8897C109.87 78.5997 110.53 77.2397 110.17 77.9297C110.03 78.1997 109.9 78.4697 109.77 78.7297C109.47 79.3297 109.15 79.9197 108.83 80.5097C107.73 82.5297 107.42 85.3097 108.41 87.4597C109.18 89.1297 110.71 90.7797 112.72 89.9897C119.46 87.3297 125.74 83.7297 131.56 79.4097C132.5 78.7097 133.04 76.9997 133.21 75.9397C133.43 74.5797 133.31 72.7997 132.72 71.5297C132.25 70.5197 131.55 69.2997 130.4 68.9497C129.25 68.5997 128.47 68.9497 127.51 69.5997C122.94 72.7097 118.38 75.8197 113.82 78.9497C112.91 79.5797 112.3 81.4197 112.17 82.4197C112.01 83.6797 112.08 84.9297 112.45 86.1497C112.94 87.7497 114.85 90.6997 116.97 89.3597C123.32 85.3497 129.67 81.3297 136.03 77.3297L133.78 66.4197C126.76 71.1097 119.26 75.0197 111.4 78.1097L113.65 88.9897C122.54 83.6897 130.64 78.1697 138.74 71.9397C140.7 70.4297 140.73 66.8697 140.1 64.7797C139.54 62.9397 137.86 60.5797 135.6 61.5897C125.62 66.0497 116.17 71.5297 107.24 77.8297L112.65 85.6497C116.82 73.8697 120.92 62.0597 125.06 50.2697L118.02 45.9897C117.71 47.4197 117.37 48.8397 117.04 50.2597C116.89 50.9097 117.26 49.4097 117 50.4397C116.9 50.8097 116.81 51.1797 116.71 51.5597C116.53 52.2297 116.35 52.8997 116.16 53.5597C115.35 56.4497 114.45 59.3097 113.47 62.1397C112.49 64.9697 111.47 67.6297 110.35 70.3197C109.79 71.6697 109.21 73.0097 108.61 74.3397C108.29 75.0397 107.97 75.7397 107.65 76.4297C107.48 76.7897 107.39 76.9597 107.62 76.4997C107.42 76.9097 107.21 77.3197 107.01 77.7397C105.81 80.1697 105.44 83.5797 107.21 85.8797C108.86 88.0197 111 87.8397 112.56 85.7497C116.33 80.6797 119.64 75.2997 122.45 69.6397C123.67 67.1897 124.04 63.7497 122.25 61.4297C121.61 60.5897 120.67 59.6897 119.51 59.7997C118.28 59.9097 117.59 60.6397 116.86 61.5697C112.33 67.2597 108.23 73.2897 104.59 79.5897C103.23 81.9397 103.07 85.5997 104.79 87.8397C106.31 89.8197 108.84 90.0497 110.21 87.7097C115.41 78.7997 120.61 69.8997 125.81 60.9897L120.16 52.8297C116.72 59.0597 113.28 65.2897 109.84 71.5297L115.51 79.7197C120 71.4497 124.93 63.4297 130.29 55.6897L124.01 48.6697C123.72 49.3597 123.41 50.0397 123.11 50.7297C122.71 51.6297 123.29 50.3897 123.02 50.9397C122.85 51.2797 122.69 51.6097 122.52 51.9497C121.87 53.2197 121.19 54.4697 120.47 55.6997C118.98 58.2197 117.33 60.6397 115.54 62.9497L121.84 69.9997C122.27 69.0097 122.7 68.0297 123.14 67.0497C123.36 66.5597 123.59 66.0797 123.82 65.5897C123.98 65.2497 123.95 65.3097 123.73 65.7697C123.86 65.4897 124 65.2197 124.13 64.9397C125.04 63.0797 125.99 61.2297 126.97 59.4097C128.98 55.6997 131.16 52.0797 133.49 48.5597L126.71 44.5097C126.74 45.0997 126.75 45.6997 126.75 46.2897C126.75 46.6597 126.9 48.5797 126.75 46.9297C126.85 48.0397 126.48 49.3697 126.28 50.4597C126.23 50.7297 125.91 52.6697 126.14 51.1997C126.05 51.7697 125.81 52.3597 125.63 52.9097C125.26 54.0397 124.82 55.1397 124.34 56.2197L131.53 57.4697C131.18 55.7197 130.87 53.9697 130.61 52.2097C130.55 51.8097 130.5 51.4097 130.45 51.0097C130.36 50.3497 130.31 50.0897 130.43 50.9097C130.31 50.0297 130.25 49.1397 130.18 48.2497C129.9 44.7797 129.84 41.2997 129.96 37.8197C130.04 35.6297 128.81 32.4597 126.41 32.0297C124.01 31.5997 122.37 34.3597 122.21 36.4197C121.66 43.4597 121.11 50.4997 120.55 57.5397L128.32 58.9397C127.34 49.1897 122.41 40.4997 113.7 35.7097C112.78 35.2097 111.35 35.7197 110.68 36.3897C109.87 37.1997 109.41 38.1997 109.14 39.2997C108.53 41.7197 108.87 45.0397 110.93 46.7497C116.19 51.0997 121.46 55.4597 126.72 59.8097C127.64 56.1397 128.56 52.4597 129.48 48.7897C117.46 45.6097 105.53 42.0997 93.71 38.2497L91.9 49.8397C96.43 50.9297 100.87 52.3697 105.17 54.1697C107.25 55.0397 109.29 55.9897 111.3 57.0197C112.37 57.5697 113.43 58.1397 114.47 58.7297C114.99 59.0297 115.51 59.3297 116.03 59.6397C116.48 59.9097 116.55 59.9497 116.23 59.7597C116.49 59.9197 116.74 60.0797 116.99 60.2397C117.91 56.5697 118.83 52.9097 119.75 49.2397C114.5 47.8197 109.38 45.9097 104.48 43.5297C103.31 42.9597 102.14 42.3597 101 41.7397C100.43 41.4297 99.86 41.1097 99.29 40.7797C98.98 40.5997 98.66 40.4197 98.35 40.2297C98.17 40.1197 97.5 39.7197 98 40.0197C95.65 38.5797 93.38 37.0097 91.18 35.3497L88.43 46.3397C94.25 47.6997 100.07 49.0697 105.89 50.4297C108.36 51.0097 109.87 49.0897 110.43 46.8597C110.99 44.6297 110.79 40.8897 108.64 39.4497C101.58 34.7197 93.05 33.4097 84.94 36.0597L88.99 45.9097C89.69 44.7797 90.39 43.6597 91.09 42.5297C92.33 40.5397 92.51 37.4497 91.52 35.3097C90.77 33.6797 89.06 31.7097 87.04 32.6897C85.56 33.4097 84.08 34.1297 82.6 34.8497L85.87 45.6297C88.79 42.5897 91.69 40.2997 94.92 38.4297L90.46 35.8197L90.55 36.1097L89.95 33.1297L95.41 30.6797L96.01 33.6497L95.99 33.4097L95.53 36.4097L95.6 36.1897L94.26 38.3497C93.83 38.5897 93.77 38.6097 94.08 38.4097C94.21 38.3297 94.33 38.2397 94.46 38.1597C94.77 37.9497 95.09 37.7397 95.4 37.5297C96.2 36.9897 97.01 36.4397 97.81 35.8897C99.12 34.9897 100.42 34.0797 101.69 33.1397C104.18 31.3097 106.59 29.3697 108.83 27.2397C110.84 25.3297 111.14 21.5897 110.02 19.1497C108.9 16.7097 106.96 15.5097 104.68 17.1697C102.21 18.9697 99.74 20.7697 97.27 22.5697C96.31 23.2697 95.75 25.0497 95.58 26.1297C95.36 27.5297 95.48 29.3497 96.08 30.6497C97.16 32.9897 99.14 34.2897 101.41 32.6297C106.29 29.0797 111.17 25.5297 116.05 21.9797C117.01 21.2797 117.56 19.5097 117.73 18.4297C117.95 17.0397 117.83 15.2197 117.23 13.9197C116.14 11.5497 114.2 10.3297 111.91 11.9497C106.26 15.9297 101.52 21.1597 97.95 27.0697C96.59 29.3397 96.6 32.4597 97.84 34.7597C98.95 36.8197 100.84 37.5797 102.83 36.1497C107.82 32.5397 112.8 28.9297 117.79 25.3197L112.92 16.2597C108.65 21.5797 104.96 27.3197 101.9 33.4197C100.69 35.8197 100.48 38.6497 101.79 41.0797C102.82 42.9997 104.89 44.0797 106.76 42.4597C111.88 38.0397 117 33.6197 122.12 29.1897L116.7 21.3697C114.21 28.0097 111.73 34.6597 109.24 41.2997C108.47 43.3697 108.6 46.4897 110.01 48.3097C111.09 49.7197 113.19 50.6897 114.64 49.0997C119.5 43.7797 124.36 38.4597 129.22 33.1397L123.48 26.7497C122.56 33.0597 121.68 39.3797 120.79 45.6997C120.47 47.9997 120.97 51.0397 123.11 52.3397C125.11 53.5597 127.07 51.8397 127.71 49.8997C128.15 48.5497 128.63 47.2197 129.16 45.9097C129.41 45.2897 129.67 44.6697 129.94 44.0497C130.09 43.7097 130.24 43.3697 130.4 43.0297C130.48 42.8697 130.94 41.9497 130.52 42.7697C131.8 40.2297 133.18 37.7697 134.76 35.3997L128.43 31.6197C128.6 39.0497 128.77 46.4797 128.95 53.8997C128.99 55.8397 129.9 58.8097 132.16 59.1397C134.42 59.4697 135.59 57.0697 135.96 55.1697C136.09 54.4997 136.25 53.8397 136.38 53.1797C136.5 52.5897 136.18 53.8797 136.44 52.9397C136.52 52.6497 136.6 52.3597 136.68 52.0697C137.07 50.6897 137.52 49.3297 138.03 47.9897C138.27 47.3497 138.52 46.7197 138.78 46.0997C138.9 45.8197 139.02 45.5397 139.14 45.2697C139.18 45.1797 139.66 44.1297 139.45 44.5797C139.27 44.9597 139.65 44.1797 139.68 44.1097C139.85 43.7697 140.02 43.4397 140.2 43.1097C140.55 42.4497 140.93 41.7897 141.31 41.1397L135.42 38.9397C135.64 40.0297 135.82 41.1197 135.98 42.2197C136.2 43.7697 135.91 41.1397 136.03 42.6997C136.07 43.2497 136.12 43.8097 136.15 44.3597C136.21 45.3897 136.23 46.4197 136.22 47.4497C136.22 47.9297 136.19 48.3997 136.18 48.8797C136.15 49.5097 136.15 49.5097 136.18 48.8797C136.16 49.1997 136.13 49.5097 136.1 49.8297C135.9 52.0397 136.24 55.3897 138.7 56.3097C141.16 57.2297 142.57 54.3897 142.9 52.4897C143.64 48.3397 144.38 44.1897 145.12 40.0297L138.31 37.3597L137.08 45.0697L143.99 46.3197C143.8 42.2597 143.61 38.1997 143.43 34.1397C143.35 32.4197 142.78 30.2097 141.16 29.3197C139.65 28.4897 138.3 29.1597 137.36 30.5197C135.17 33.6797 132.98 36.8397 130.79 40.0097L136.78 45.0597C136.85 44.6497 136.93 44.2397 137.01 43.8297C136.88 44.5197 136.91 44.1997 137.06 43.6997C137.28 42.9697 137.56 42.2597 137.85 41.5497C137.6 42.1697 137.79 41.6597 137.97 41.3297C138.13 41.0197 138.3 40.7197 138.48 40.4197C138.7 40.0597 138.92 39.7197 139.16 39.3697C139.24 39.2497 139.96 38.3197 139.49 38.8997L135.22 38.1697C135.56 38.5597 135.85 38.9697 136.13 39.4097C135.64 38.6397 136.29 39.4297 136.22 39.7297C136.06 39.1297 136.03 39.0197 136.12 39.3797C136.17 39.5697 136.21 39.7497 136.25 39.9397C136.34 40.5397 136.33 40.4497 136.22 39.6697C136.22 40.2697 136.24 40.1797 136.28 39.3997L142.65 37.9697C138.36 29.1097 132.56 21.1497 125.35 14.4397L122.06 23.6897C122.73 24.2797 123.39 24.8897 124.02 25.5197C124.31 25.8097 124.6 26.1097 124.89 26.3997C125 26.5197 125.72 27.2897 125.51 27.0597C125.33 26.8597 125.39 26.9297 125.7 27.2697C125.88 27.4797 126.06 27.6897 126.24 27.8997C126.5 28.2197 126.77 28.5397 127.02 28.8597C127.53 29.5097 128.03 30.1697 128.5 30.8497C129.45 32.1997 130.33 33.6097 131.13 35.0497C130.66 34.2097 131.24 35.2697 131.33 35.4497C131.52 35.8197 131.7 36.1897 131.88 36.5597C132.29 37.4297 132.67 38.3197 133.03 39.2097L138.32 32.6697C129.56 22.5497 119.88 13.2597 109.25 5.1097L106 14.2397C110.79 17.2897 115.21 20.8797 119.15 24.9697C119.62 25.4597 120.09 25.9597 120.55 26.4697C120.83 26.7697 120.35 26.2297 120.8 26.7497C121.02 27.0097 121.25 27.2697 121.47 27.5297C122.4 28.6197 123.29 29.7497 124.15 30.8897C125.87 33.1897 127.44 35.5897 128.88 38.0697L133.45 30.7197C125.73 21.4197 116.8 13.2297 106.72 6.5497C104.84 5.2997 102.96 6.3897 102.29 8.4497C101.52 10.8097 101.89 13.4297 103.63 15.2397C109.54 21.3897 115.45 27.5397 121.36 33.6897L124.38 25.2197C116.19 20.1697 110.07 13.7497 105.46 5.4397C104.54 3.7797 102.48 3.8097 101.37 5.1697C100.12 6.7097 99.8 9.5197 100.72 11.2997C103.89 17.4297 107.06 23.5497 110.23 29.6797C111.06 31.2797 112.75 32.7897 114.45 31.2497C116.15 29.7097 116.21 26.7597 115.39 24.8597C112.79 18.7997 110.18 12.7497 107.57 6.6997C106.86 5.0497 105.03 3.7097 103.43 5.1597C101.7 6.7297 101.9 9.4397 102.51 11.4297C104.65 18.4097 106.76 25.4097 108.88 32.0497L113.27 26.6197C111.43 24.1897 110.24 22.1497 109.14 19.4297C108.88 18.7797 108.64 18.1097 108.41 17.4497C108.27 17.0697 108.19 16.7697 107.99 15.9997C107.79 15.2297 107.63 14.4897 107.49 13.7197C107.43 13.3697 107.37 13.0297 107.31 12.6797C107.29 12.5597 107.14 11.3997 107.21 12.0597C107.04 10.5597 106.46 8.0797 104.49 8.1297C102.67 8.1697 101.84 10.7197 101.96 12.1897L102.05 12.2297Z" fill="black"/>
<path d="M90.02 24.32C90.02 24.32 39.07 23.4 14.53 88.83C13.53 91.49 -1.1 116.1 3.22 146.36C7.54 176.62 6.88 181.28 19.51 187.26C32.15 193.25 88.01 195.24 110.63 180.61C133.25 165.98 153.86 151.35 160.18 135.72C166.5 120.09 170.85 101.06 170.85 97.02C170.85 92.98 168.16 91.16 168.16 91.16C168.16 91.16 153.44 104.88 153.82 106.83C154.2 108.78 137.9 81.51 137.9 81.51L105.41 95.11C105.41 95.11 103.32 81.84 105.65 76.52C107.98 71.2 113.52 57.31 113.52 57.31L82.88 47.37L93.01 26.98L90.02 24.32Z" fill="#010202"/>
<path d="M168.89 93.0299C168.92 95.2199 168.91 97.4199 168.82 99.6099C168.81 99.8499 168.8 100.09 168.79 100.33C168.74 101.32 168.8 100.03 168.82 99.9199C168.77 100.4 168.75 100.88 168.72 101.36C168.64 102.38 168.54 103.39 168.42 104.41C168.2 106.31 167.91 108.19 167.58 110.08C167.46 110.79 167.78 109.08 167.63 109.79C167.58 110.02 167.54 110.26 167.49 110.49C167.41 110.9 167.32 111.3 167.24 111.71C167.01 112.75 166.77 113.79 166.51 114.82C166.05 116.65 165.52 118.46 164.94 120.25C164.85 120.54 164.38 121.87 164.77 120.78C164.63 121.17 164.5 121.56 164.36 121.94C164.02 122.88 163.67 123.81 163.3 124.73C161.92 128.2 160.31 131.59 158.51 134.86C158.4 135.06 158.28 135.27 158.17 135.47C158.52 134.85 158.22 135.38 158.15 135.5C157.92 135.9 157.68 136.31 157.44 136.71C156.93 137.56 156.41 138.4 155.87 139.23C154.86 140.8 153.8 142.33 152.7 143.84C150.45 146.89 148.01 149.81 145.4 152.55C142.79 155.29 140.46 157.44 137.49 159.86C134.52 162.28 131.38 164.51 128.12 166.53C120.88 171.02 113.09 174.16 105.07 176.96C96.54 179.94 87.85 182.46 79.01 184.31C66.2 187 52.93 188.36 39.86 186.95C35.4 186.47 30.87 185.72 26.57 184.38C19.22 182.09 13.52 177.37 9.6 170.99C9.53 170.87 9.23 170.34 9.58 170.97C9.47 170.77 9.36 170.57 9.25 170.36C9.06 170 8.88 169.64 8.71 169.28C8.28 168.39 7.92 167.48 7.56 166.56C7.48 166.35 7.22 165.74 7.6 166.71C7.52 166.5 7.45 166.26 7.39 166.04C7.25 165.59 7.12 165.14 7.01 164.69C6.91 164.29 6.81 163.89 6.72 163.49C6.68 163.29 6.43 162.57 6.67 163.29C6.92 164.07 6.64 163.11 6.61 162.91C6.05 159.35 5.81 155.71 5.54 152.11C5.47 151.22 5.41 150.33 5.35 149.43C5.34 149.21 5.35 148.93 5.3 148.7C5.54 150.02 5.34 149.49 5.32 149.1C5.29 148.55 5.26 147.99 5.23 147.44C5.13 145.36 5.05 143.27 5.01 141.19C4.92 137.03 4.96 132.87 5.18 128.71C5.19 128.45 5.22 128.19 5.22 127.93C5.22 128.07 5.13 129.27 5.2 128.26C5.24 127.74 5.27 127.22 5.31 126.71C5.39 125.68 5.48 124.65 5.58 123.62C5.79 121.6 6.04 119.58 6.36 117.57C6.44 117.08 6.52 116.59 6.61 116.09C6.77 115.16 6.61 116.2 6.56 116.34C6.63 116.11 6.65 115.85 6.7 115.62C6.9 114.61 7.12 113.6 7.36 112.6C7.57 111.74 7.79 110.88 8.04 110.02C8.17 109.57 8.3 109.13 8.44 108.68C8.51 108.46 8.58 108.24 8.65 108.02C8.91 107.18 8.45 108.56 8.65 108.02C10.07 104.05 11.91 100.22 13.62 96.3599C15.47 92.1899 17.34 88.0199 19.27 83.8899C21.2 79.7599 23.18 75.6299 25.27 71.5699C26.26 69.6399 27.28 67.7199 28.33 65.8199C28.59 65.3599 28.84 64.8899 29.11 64.4299C29.15 64.3599 29.55 63.6499 29.35 64.0099C29.17 64.3299 29.49 63.7699 29.49 63.7699C30.04 62.8199 30.59 61.8799 31.16 60.9399C33.19 57.5899 35.35 54.3199 37.75 51.2199C38.82 49.8399 39.93 48.4999 41.1 47.2099C41.65 46.5999 42.23 46.0199 42.81 45.4299C42.88 45.3599 43.25 45.0099 42.86 45.3699C43 45.2299 43.15 45.0999 43.29 44.9699C43.57 44.7099 43.86 44.4499 44.16 44.1899C46.83 41.8699 49.81 40.2799 52.94 38.6699C57.34 36.4099 61.79 34.2299 66.34 32.2799C70.28 30.5899 74.32 29.0199 78.48 27.9699C81.89 27.1099 85.49 26.4899 89.01 26.9199C90.93 27.1499 92.77 27.8199 94.64 28.3199C96.51 28.8199 98.52 29.3199 100.47 29.7399C102.19 30.1099 104.58 31.0799 106.09 29.8699C108.63 27.8399 108.57 23.0999 107.79 20.2999C106.64 16.1999 105.26 12.1499 104 8.07985L103.19 5.44985C103.02 4.90985 102.67 3.27985 103.05 5.39985V8.38986L102.91 9.15985L102.02 11.1799C102.42 10.5199 102.02 11.2499 101.94 11.2199C102.04 11.2599 102.31 11.2899 102.45 11.3199C102.81 11.4099 103.17 11.5299 103.52 11.6299C103.76 11.6999 104 11.7699 104.24 11.8399C103.85 11.7199 104.29 11.8599 104.35 11.8699C104.91 12.0399 105.46 12.2199 106.02 12.3999C108.28 13.1399 110.53 13.9399 112.73 14.8199C115.08 15.7699 117.4 16.8099 119.62 18.0299C121.84 19.2499 123.75 20.7399 125.73 22.2899C130.26 25.8399 135.17 29.0399 139.32 33.0499C139.85 33.5699 140.78 34.5599 141.39 35.3299C141.73 35.7499 142.05 36.1799 142.34 36.6299C142.44 36.7799 142.92 37.6699 142.47 36.7899C142.62 37.0899 142.77 37.3899 142.92 37.6899C144.31 40.4699 146.04 43.0799 148.14 45.3799C150.04 47.4699 152.18 49.3999 154.53 50.9799C155.89 51.8899 157.31 52.6599 158.65 53.6099C161.89 55.9099 164.95 58.4599 167.96 61.0499C169.6 62.4699 171.23 63.9099 172.82 65.3799C173.17 65.6999 173.51 66.0299 173.85 66.3499C174.51 66.9799 173.4 65.9099 174.03 66.5299C174.15 66.6499 174.28 66.7699 174.4 66.8899C175 67.4799 175.59 68.0799 176.16 68.6999C176.57 69.1399 176.97 69.5899 177.33 70.0599C177.55 70.3499 177.75 70.6399 177.95 70.9499C178.06 71.1199 178.16 71.2899 178.26 71.4599C178.79 72.2999 177.96 70.8499 178.33 71.5899C179.3 73.4899 180.19 75.4199 180.99 77.4099C181.79 79.3999 182.58 81.5499 183.31 83.6399C183.39 83.8799 183.48 84.1199 183.56 84.3599C183.89 85.3199 183.3 83.5699 183.5 84.1899C183.64 84.6299 183.79 85.0599 183.94 85.4999C184.2 86.2799 184.45 87.0599 184.69 87.8399C184.78 88.1299 184.87 88.4199 184.96 88.7099C185.9 91.5699 184.49 83.9099 185.88 82.1699C186.44 81.4699 186.38 81.7199 185.96 81.9399C186.68 81.5599 186 81.8999 185.62 81.9399C184.04 82.0899 182.4 81.8199 180.84 81.5699C178.92 81.2599 177.03 80.8499 175.14 80.3999C173.71 80.0599 172.27 79.5399 170.83 79.2999C168.38 78.8899 167.52 81.7099 166.78 83.4999C166.04 85.2899 165.22 87.1699 164.37 88.9699C163.91 89.9499 163.43 90.9199 162.93 91.8799C162.68 92.3599 162.42 92.8299 162.17 93.3099C161.66 94.2499 162.59 92.6299 162.05 93.5299C161.89 93.7899 161.74 94.0599 161.58 94.3199C161.09 95.1199 160.56 95.9099 159.99 96.6599C159.74 96.9899 159.47 97.2999 159.2 97.6099C159.16 97.6499 158.63 98.1699 159.03 97.7999C159.43 97.4299 158.79 97.9899 158.71 98.0399C157.7 98.8099 156.61 99.4799 155.56 100.19C155.17 100.45 154.79 100.71 154.4 100.96C154.17 101.11 153.51 101.53 153.54 101.41C153.57 101.29 153.95 101.73 153.86 101.58C153.79 101.46 153.7 101.33 153.64 101.2C153.52 100.95 153.35 100.71 153.21 100.47C152.83 99.8299 152.46 99.1999 152.09 98.5599C151.88 98.2099 151.68 97.8499 151.48 97.4899C151.36 97.2799 151.04 96.7099 151.53 97.5699C151.42 97.3699 151.31 97.1799 151.19 96.9799C150.69 96.0999 150.2 95.2099 149.71 94.3199C148.66 92.4099 147.64 90.4899 146.67 88.5399C145.7 86.5899 144.84 84.7999 144.05 82.8799C143.72 82.0999 143.48 81.2599 143.13 80.4899C143.76 81.8899 143.22 80.7399 143.11 80.3399C143 79.9399 142.94 79.5699 142.83 79.1899C143.32 80.8599 143.01 80.1399 142.94 79.5499C142.87 78.9199 142.83 78.4799 142.65 77.7699C142.41 76.8399 142.06 75.8899 141.44 75.1399C140.71 74.2599 139.67 73.9699 138.58 74.1999C135.83 74.7799 133.27 76.3899 130.87 77.7799C124.14 81.6699 117.07 86.4499 109.86 88.6899C109.46 88.8099 108.35 89.0999 107.67 89.2299C107.29 89.2999 106.91 89.3699 106.53 89.4099C106.36 89.4299 106.14 89.4099 105.97 89.4699H105.66C106 89.5899 106.24 89.8199 106.4 90.1299L107.04 92.6099C107.21 94.6299 107.12 93.4999 107.14 92.9599C107.21 91.5499 107.04 94.4899 107.12 93.2699C107.18 92.3499 107.25 91.4399 107.34 90.5199C107.55 88.2999 107.83 86.0899 108.19 83.8899C108.26 83.4899 108.69 81.5799 108.29 83.2499C108.44 82.6299 108.53 81.9999 108.67 81.3699C108.97 79.9699 109.3 78.5799 109.68 77.1999C109.86 76.5499 110.05 75.9099 110.25 75.2599C110.35 74.9499 110.42 74.5999 110.56 74.2999C110.06 75.3999 110.53 74.3899 110.61 74.1599C111.1 72.7899 111.65 71.4399 112.27 70.1199C112.51 69.6199 112.75 69.1199 113.01 68.6299C113.16 68.3399 113.32 68.0499 113.48 67.7599C113.03 68.5699 113.57 67.6299 113.64 67.5099C114.37 66.3199 115.24 65.2699 116.07 64.1499C118.04 61.4899 118.12 56.8799 116.74 53.9499C116.24 52.8799 115.55 52.0299 114.38 51.7199C113.91 51.5899 113.44 51.5199 112.96 51.4299C108.28 50.5799 103.62 49.5599 99.03 48.2799C96.25 47.4999 93.49 46.6199 90.81 45.5099C89.51 44.9799 88.22 44.3899 86.98 43.7199C86.42 43.4199 85.87 43.0999 85.34 42.7499C85.12 42.6099 84.92 42.4599 84.7 42.3199C84.56 42.2199 84.43 42.1299 84.3 42.0299C84.52 42.2999 84.52 42.2699 84.3 41.9299L85.19 43.9499L85.11 43.6399L85.45 46.4799V46.1599C85.34 47.1099 85.22 48.0499 85.11 48.9999C84.71 50.4699 85.02 49.3299 85.19 48.9299C85.34 48.5799 85.5 48.2299 85.66 47.8899C86.08 46.9799 86.52 46.0699 86.98 45.1799C87.22 44.7199 87.46 44.2599 87.71 43.7999C87.86 43.5199 88.02 43.2399 88.17 42.9599C88.31 42.7099 88.26 42.7999 88.02 43.2299C88.11 43.0599 88.21 42.8999 88.31 42.7399C88.96 41.6299 89.65 40.5399 90.38 39.4799C91.11 38.4199 91.92 37.3299 92.77 36.3299C93.22 35.7899 93.69 35.2699 94.18 34.7699C94.27 34.6799 94.88 34.0799 94.43 34.5099C94.64 34.3099 94.86 34.1199 95.08 33.9299C95.99 33.1399 96.97 32.4199 98.03 31.8499C98.57 31.5599 99.13 31.2999 99.71 31.0999C100.47 30.8299 99.26 31.1899 100.04 31.0099C100.37 30.9299 100.7 30.8699 101.04 30.8299C103.21 30.5199 103.55 26.8799 103.52 25.2099C103.49 23.8899 103.39 22.4299 102.8 21.2299C102.49 20.6099 101.91 19.4599 101.05 19.5799C96.29 20.2499 92.6 23.7299 89.72 27.3399C86.84 30.9499 84.64 34.8699 82.68 38.9399C81.56 41.2799 80.56 43.5099 80.53 46.1899C80.5 48.8699 81.07 51.4599 83.22 53.0699C84.08 53.7099 85.01 54.2499 85.96 54.7499C90.57 57.1899 95.69 58.6899 100.71 60.0199C103.34 60.7099 105.99 61.3299 108.66 61.8799C109.71 62.0999 110.77 62.3099 111.82 62.5099C112.28 62.5999 112.74 62.6799 113.21 62.7699C113.39 62.7999 113.59 62.8599 113.78 62.8699C114.55 62.8999 113.56 62.7199 113.38 62.2199L112.74 59.7399L112.77 60.0199V57.0299L112.74 57.3099L113.38 54.8299C113.41 54.7399 113.82 54.3299 113.51 54.5999C113.36 54.7299 113.24 54.9299 113.11 55.0899C112.91 55.3399 112.72 55.5899 112.53 55.8399C112.05 56.4899 111.6 57.1499 111.18 57.8399C110.26 59.3399 109.41 60.8999 108.67 62.4999C107.26 65.5599 106.19 68.7899 105.32 72.0399C103.85 77.5399 102.95 83.2299 102.5 88.8999C102.24 92.2199 101.55 96.5299 103.63 99.3799C105.4 101.8 109.09 100.23 111.39 99.4799C116.5 97.8099 121.25 95.0699 125.88 92.3699C129.74 90.1099 133.56 87.4699 137.71 85.7699C137.89 85.6899 138.82 85.3699 138.38 85.5099C137.94 85.6499 138.76 85.4199 138.96 85.3899C139.16 85.3599 139.41 85.4199 139.6 85.3699C139.95 85.2799 139.37 85.2899 139.3 85.2499C139.54 85.3699 139.58 85.5199 139.28 85.1399C138.76 84.4699 139.44 85.9399 138.7 84.2699C138.78 84.4499 138.85 84.6899 138.56 83.8499C138.51 83.7199 138.09 82.2199 138.18 82.1999C138.13 82.2099 138.29 83.1999 138.3 83.2699C138.51 84.5699 138.8 85.8299 139.21 87.0799C141.02 92.5299 143.71 97.6399 146.47 102.66C147.74 104.96 149.03 107.23 150.36 109.5C150.88 110.38 151.35 111.45 152.18 112.08C153.62 113.17 154.92 112.36 156.19 111.51C158.61 109.9 161.02 108.41 162.78 106.04C164.54 103.67 166.04 100.81 167.38 98.0699C168.54 95.6899 169.61 93.2699 170.6 90.8199C170.73 90.4999 171.02 90.0499 171.05 89.6999C171.09 89.2499 170.59 90.6299 170.52 90.4599C170.52 90.4799 171.12 90.5799 171.21 90.6099C172.17 90.8499 173.13 91.1099 174.09 91.3499C176.52 91.9499 178.97 92.4999 181.45 92.8699C183.33 93.1499 185.67 93.5799 187.46 92.7199C189.06 91.9499 189.52 89.6799 189.73 88.1299C190.01 86.1099 189.66 84.1399 189.06 82.2299C188.22 79.5799 187.34 76.9499 186.41 74.3299C185.4 71.4899 184.32 68.6599 183.05 65.9199C182.03 63.7099 180.9 61.4499 179.3 59.6099C175.83 55.6199 171.67 52.1299 167.63 48.7399C165.56 46.9999 163.46 45.2999 161.3 43.6799C159.56 42.3799 157.71 41.3299 155.91 40.1299C152.93 38.1299 150.46 35.7099 148.36 32.7899C146.51 30.2099 145.37 27.0899 142.94 24.4399C140.51 21.7899 137.42 19.2899 134.44 17.0099C131.26 14.5699 128.08 12.1299 124.9 9.68985C119.9 5.84985 113.61 3.57985 107.67 1.62985C106.31 1.17985 104.94 0.759855 103.57 0.359855C103.09 0.219855 102.5 -0.0501452 101.99 -0.0601452C100.98 -0.0801452 100.1 0.649855 99.58 1.43985C97.63 4.39985 98.08 8.21985 99.08 11.4399L102.74 23.2399L103.36 25.2299C103.52 25.7599 103.77 27.0399 103.43 25.0599V22.0699L103.4 22.3899L104.04 19.9099C104.4 18.9199 105.12 19.3199 104.02 19.1599C103.54 19.0899 103.07 18.9899 102.6 18.8999C101.87 18.7599 101.13 18.6099 100.4 18.4499C98.5 18.0399 96.6 17.5699 94.72 17.0599C92.95 16.5799 91.19 15.9499 89.37 15.6899C87.83 15.4799 86.27 15.4899 84.73 15.6199C76.71 16.2999 68.86 19.6599 61.62 22.9599C57.36 24.9099 53.18 27.0099 49.04 29.1899C46.44 30.5499 44.1 32.1999 41.95 34.1999C36.8 38.9899 32.7 44.7299 29.04 50.7099C20.16 65.2399 13.34 81.0199 6.58 96.6199C3.43 103.88 1.87 111.81 1.01 119.64C-7.15256e-07 127.84 -0.160001 136.08 0.129999 144.27C0.269999 148.36 0.519999 152.45 0.849999 156.52C1.12 159.88 1.35 163.3 1.92 166.62C3.28 174.45 6.67 181.86 12.44 187.43C17.32 192.15 23.08 194.89 29.63 196.47C34.02 197.53 38.5 198.18 43 198.51C55.74 199.45 68.6 197.9 81.04 195.14C89.54 193.25 97.92 190.77 106.14 187.91C113.72 185.27 121.13 182.35 128.04 178.23C140.44 170.84 151.12 160.43 158.82 148.23C166.91 135.4 171.93 120.73 173.37 105.62C173.77 101.44 173.91 97.2399 173.85 93.0399C173.83 91.7399 173.68 90.2599 173.13 89.0599C172.83 88.4199 172.24 87.4099 171.38 87.4099C169.24 87.4099 168.89 91.7199 168.9 93.0299H168.89Z" fill="#010202"/>
<path d="M142.77 55.7197C142.97 55.3697 143.18 55.0197 143.42 54.6997C143.65 54.3897 143.47 54.6397 143.42 54.6997C143.53 54.5697 143.65 54.4497 143.76 54.3297C144.04 54.0397 144.33 53.7697 144.64 53.5197C144.78 53.3997 145.73 52.7397 145.31 52.9997C145.61 52.8097 145.91 52.6397 146.21 52.4497C147.65 51.5297 147.13 51.8297 146.82 52.0297C146.98 51.9297 147.13 51.8297 147.29 51.7297C148.03 51.2597 148.8 50.8397 149.59 50.4397C153.17 48.6197 156.97 47.0397 160.72 45.5897C168.5 42.5897 175.92 40.8197 184.16 40.0897C188.92 39.6597 193.58 39.6597 198.33 40.2097C199.51 40.3497 200.75 39.0897 201.29 38.2397C202.1 36.9697 202.5 35.1097 202.42 33.6297C202.29 31.2497 201.12 27.1397 198 27.2497C189.05 27.5797 180.28 28.5997 171.56 30.6597C162.84 32.7197 154.88 35.5397 147.63 40.1497C145.71 41.3797 143.79 42.6397 142.34 44.4197C140.69 46.4297 139.34 48.6597 138.69 51.1997C138.27 52.8197 138.21 54.8197 139.46 56.1197C140.47 57.1797 141.97 57.1097 142.75 55.7397L142.77 55.7197Z" fill="#010202"/>
<path d="M141.76 54.8497L140.73 55.8297L139.03 55.8697C139.79 56.0097 140.48 56.2197 141.23 55.8897C141.87 55.6097 142.39 55.0097 142.9 54.5497C143.71 53.8197 144.5 53.0797 145.31 52.3397C146.88 50.8997 148.53 49.5897 150.28 48.3697C150.49 48.2197 150.7 48.0797 150.91 47.9297C150.77 48.0297 150.27 48.3497 150.96 47.8997C151.39 47.6197 151.82 47.3397 152.25 47.0697C153.17 46.4897 154.11 45.9397 155.05 45.4197C156.9 44.3897 158.79 43.4497 160.73 42.5997C162.67 41.7497 164.66 40.9897 166.67 40.3197C167.59 40.0197 168.51 39.7297 169.44 39.4597C169.94 39.3197 170.44 39.1797 170.94 39.0497C171.19 38.9797 171.44 38.9197 171.69 38.8597C171.84 38.8197 173.12 38.5297 172 38.7797C176.16 37.8597 180.38 37.2197 184.64 37.0197C186.97 36.9097 189.31 36.9297 191.63 37.0697C192.8 37.1397 193.96 37.2397 195.12 37.3697C195.77 37.4397 196.41 37.5297 197.06 37.6197C198.02 37.7597 198.97 37.5797 199.88 37.1997C202.17 36.2397 203.06 33.1697 203.2 30.9797C203.35 28.6097 202.8 25.2097 200.71 23.6797C199.57 22.8497 198.7 22.4197 197.27 22.2597C196.69 22.1997 196.11 22.1497 195.53 22.1097C194.37 22.0297 193.21 21.9797 192.04 21.9597C189.77 21.9297 187.51 22.0097 185.25 22.2197C180.38 22.6597 175.51 23.6097 170.83 25.0497C161.73 27.8597 153.2 32.5697 145.87 38.6497C143.88 40.2997 141.86 42.0197 140.07 43.8997C138.76 45.2597 137.31 46.7997 136.84 48.6497C136.27 50.9297 136.46 53.9397 138.38 55.5797C139.52 56.5497 141.04 56.0397 141.75 54.8297L141.76 54.8497Z" fill="#010202"/>
<path d="M99.48 5.98994C99.41 6.33994 99.35 6.67994 99.37 7.04994C99.37 7.14994 99.38 7.24994 99.39 7.33994C99.42 7.85994 99.52 8.21994 99.67 8.71994L99.49 8.13994C100.03 9.94994 100.6 11.7499 101.15 13.5599L100.97 12.9599C102.11 16.7199 103.12 20.5199 104.09 24.3299C104.36 25.4099 104.66 26.4799 104.94 27.5599C105.09 28.1599 105.34 28.8199 105.84 29.2299C106.22 29.5399 106.81 29.7199 107.28 29.4799C108.51 28.8499 108.71 27.1699 108.49 25.9599C107.73 21.6199 106.46 17.3399 104.74 13.2799C104.54 12.7999 104.1 12.1299 103.56 11.9599C103.11 11.8199 102.7 11.8699 102.31 12.1399C101.23 12.8699 101.08 14.4399 101.28 15.6199C101.9 19.2199 102.8 22.7599 103.87 26.2499C104.01 26.7199 104.16 27.1799 104.31 27.6399C104.52 28.2899 104.71 28.9499 105.12 29.4999L106.34 24.5299C106.14 24.4999 105.94 24.4799 105.74 24.4499L105.28 24.5499C105.04 24.6599 104.85 24.8199 104.71 25.0299C104.4 25.4199 104.19 25.9099 104.13 26.4099C104.07 26.8699 104.08 27.3399 104.16 27.7999C104.27 28.4299 104.57 28.8899 104.99 29.3499C105.17 29.5399 105.34 29.7399 105.52 29.9299C106.04 30.4999 106.93 30.3399 107.44 29.8799C108.09 29.2899 108.39 28.2099 108.32 27.3599C108.27 26.7199 108.19 26.1899 107.98 25.5699C107.93 25.4299 107.88 25.2899 107.83 25.1399C107.73 24.8399 107.63 24.5399 107.53 24.2399C107.33 23.6399 107.14 23.0299 106.95 22.4199L107.16 23.1199C106.25 20.1099 105.52 17.0399 104.95 13.9399L101.49 16.2799C102.34 18.2299 103.08 20.2299 103.71 22.2699L103.5 21.5899C104.09 23.5399 104.57 25.5199 104.94 27.5199L108.49 25.9199C106.99 20.3399 105.24 14.8299 103.46 9.32994C103.22 8.57994 102.98 7.82994 102.72 7.08994C102.6 6.73994 102.48 6.37994 102.35 6.03994C102.23 5.71994 101.85 5.14994 101.57 4.91994C101.39 4.77994 101.19 4.66994 100.99 4.55994C100.7 4.38994 100.23 4.55994 100.02 4.77994C99.7 5.09994 99.55 5.50994 99.47 5.94994L99.48 5.98994Z" fill="#010202"/>
<path d="M66.0715 53.0816C68.6271 49.3027 69.5899 45.4894 68.222 44.5643C66.8541 43.6393 63.6735 45.9527 61.1179 49.7315C58.5624 53.5104 57.5995 57.3237 58.9674 58.2487C60.3353 59.1738 63.5159 56.8604 66.0715 53.0816Z" fill="white" stroke="white" stroke-width="1.25" stroke-miterlimit="10"/>
<path d="M55.1021 86.2222C57.6577 82.4433 58.6205 78.6301 57.2526 77.705C55.8847 76.7799 52.7041 79.0933 50.1485 82.8722C47.593 86.651 46.6301 90.4643 47.998 91.3894C49.3659 92.3145 52.5465 90.001 55.1021 86.2222Z" fill="white" stroke="white" stroke-width="1.25" stroke-miterlimit="10"/>
<path d="M29.3884 96.4131C31.944 92.6343 32.9068 88.821 31.5389 87.8959C30.1711 86.9708 26.9905 89.2842 24.4349 93.0631C21.8793 96.8419 20.9165 100.655 22.2843 101.58C23.6522 102.505 26.8328 100.192 29.3884 96.4131Z" fill="white" stroke="white" stroke-width="1.25" stroke-miterlimit="10"/>
<path d="M91.0216 79.126C93.5772 75.3471 94.5401 71.5339 93.1722 70.6088C91.8043 69.6837 88.6237 71.9971 86.0681 75.776C83.5125 79.5548 82.5497 83.3681 83.9176 84.2932C85.2855 85.2183 88.4661 82.9048 91.0216 79.126Z" fill="white" stroke="white" stroke-width="1.25" stroke-miterlimit="10"/>
<path d="M19.1879 137.878C21.7435 134.1 22.7063 130.286 21.3384 129.361C19.9705 128.436 16.7899 130.75 14.2343 134.528C11.6787 138.307 10.7159 142.121 12.0838 143.046C13.4517 143.971 16.6323 141.657 19.1879 137.878Z" fill="white" stroke="white" stroke-width="1.25" stroke-miterlimit="10"/>
<path d="M59.9759 120.365C62.5315 116.586 63.4943 112.773 62.1264 111.848C60.7585 110.923 57.5779 113.236 55.0223 117.015C52.4668 120.794 51.5039 124.607 52.8718 125.532C54.2397 126.458 57.4203 124.144 59.9759 120.365Z" fill="white" stroke="white" stroke-width="1.25" stroke-miterlimit="10"/>
<path d="M34.9298 167.802C37.4854 164.023 38.4483 160.21 37.0804 159.285C35.7125 158.359 32.5319 160.673 29.9763 164.452C27.4207 168.231 26.4579 172.044 27.8258 172.969C29.1937 173.894 32.3743 171.581 34.9298 167.802Z" fill="white" stroke="white" stroke-width="1.25" stroke-miterlimit="10"/>
<path d="M61.5275 153.837C64.0831 150.058 65.0459 146.245 63.678 145.32C62.3101 144.395 59.1295 146.708 56.5739 150.487C54.0184 154.266 53.0555 158.079 54.4234 159.004C55.7913 159.929 58.9719 157.616 61.5275 153.837Z" fill="white" stroke="white" stroke-width="1.25" stroke-miterlimit="10"/>
<path d="M71.9512 177.34C74.5067 173.562 75.4696 169.748 74.1017 168.823C72.7338 167.898 69.5532 170.211 66.9976 173.99C64.442 177.769 63.4792 181.582 64.8471 182.508C66.215 183.433 69.3956 181.119 71.9512 177.34Z" fill="white" stroke="white" stroke-width="1.25" stroke-miterlimit="10"/>
<path d="M96.115 136.762C98.6706 132.983 99.6334 129.17 98.2655 128.245C96.8976 127.319 93.717 129.633 91.1614 133.412C88.6059 137.191 87.643 141.004 89.0109 141.929C90.3788 142.854 93.5594 140.541 96.115 136.762Z" fill="white" stroke="white" stroke-width="1.25" stroke-miterlimit="10"/>
<path d="M93.2239 105.737C95.7795 101.958 96.7423 98.1447 95.3744 97.2196C94.0065 96.2945 90.8259 98.608 88.2703 102.387C85.7148 106.166 84.7519 109.979 86.1198 110.904C87.4877 111.829 90.6683 109.516 93.2239 105.737Z" fill="white" stroke="white" stroke-width="1.25" stroke-miterlimit="10"/>
<path d="M135.359 111.937C137.915 108.158 138.878 104.345 137.51 103.42C136.142 102.495 132.961 104.808 130.406 108.587C127.85 112.366 126.887 116.179 128.255 117.104C129.623 118.029 132.804 115.716 135.359 111.937Z" fill="white" stroke="white" stroke-width="1.25" stroke-miterlimit="10"/>
<path d="M147.549 135.881C150.105 132.102 151.068 128.289 149.7 127.364C148.332 126.439 145.151 128.752 142.596 132.531C140.04 136.31 139.077 140.123 140.445 141.048C141.813 141.973 144.994 139.66 147.549 135.881Z" fill="white" stroke="white" stroke-width="1.25" stroke-miterlimit="10"/>
<path d="M112.521 160.484C115.076 156.706 116.039 152.892 114.671 151.967C113.304 151.042 110.123 153.356 107.567 157.134C105.012 160.913 104.049 164.726 105.417 165.652C106.785 166.577 109.965 164.263 112.521 160.484Z" fill="white" stroke="white" stroke-width="1.25" stroke-miterlimit="10"/>
<path d="M99.97 20.68C99.17 21.4 98.39 22.13 97.6 22.86C95.69 24.64 93.82 26.45 91.97 28.3C89.94 30.34 87.94 32.43 86.07 34.63C84.53 36.43 82.97 38.34 81.95 40.5C80.93 42.66 80.81 45.56 82.54 47.39C83.84 48.77 85.55 49.68 87.24 50.49C89.46 51.55 91.78 52.43 94.1 53.24C96.63 54.12 99.2 54.92 101.77 55.67C103.85 56.28 105.94 56.85 108.03 57.4C109.13 57.69 110.24 57.97 111.34 58.23C111.39 58.24 111.44 58.25 111.49 58.27L110.54 54.51C110.16 55.69 109.8 56.88 109.43 58.07C108.57 60.89 107.75 63.72 106.97 66.56C106.05 69.9 105.18 73.26 104.44 76.64C103.75 79.81 103.13 83.01 102.97 86.25C102.87 88.25 102.89 91.26 105.13 92.12C106.95 92.82 109.03 92.55 110.9 92.25C113.61 91.82 116.27 91.1 118.89 90.31C121.84 89.42 124.75 88.43 127.65 87.38C130.04 86.51 132.41 85.59 134.77 84.64C136.01 84.14 137.25 83.63 138.49 83.1C138.55 83.08 138.6 83.05 138.66 83.03L137.59 82.39C137.87 83.19 138.15 83.98 138.44 84.77C139.11 86.64 139.8 88.5 140.51 90.36C141.35 92.56 142.21 94.76 143.14 96.93C143.89 98.7 144.66 100.47 145.61 102.14C146.03 102.88 146.46 103.58 147.04 104.21C148.17 105.42 149.49 106.46 150.95 107.25C153.05 108.38 156.03 109.3 158.05 107.52C159.32 106.4 160.45 105.1 161.57 103.84C163.07 102.15 164.54 100.42 165.99 98.69C167.35 97.07 168.69 95.45 170.03 93.81C170.72 92.97 171.43 92.13 172.1 91.27C172.39 90.9 172.53 90.42 172.71 89.98L170.83 88.21C170.83 88.77 170.81 89.33 170.81 89.89L172.86 88.63C172.65 87.95 172.43 87.26 172.22 86.58C172.11 86.22 171.94 85.64 171.56 85.43C171.24 85.25 170.91 85.4 170.71 85.68C170.4 86.1 170.26 86.66 170.2 87.17C170.14 87.8 170.12 88.49 170.31 89.1C170.52 89.78 170.74 90.47 170.95 91.15C171.07 91.53 171.18 91.89 171.48 92.17C171.67 92.35 171.94 92.47 172.2 92.3C172.9 91.83 173 90.64 173.01 89.89C173.01 89.33 173.03 88.77 173.03 88.21C173.04 87.47 172.91 86.46 172.35 85.93C171.87 85.47 171.35 85.94 171.15 86.45C171.08 86.62 171.01 86.8 170.94 86.97L170.9 87.07C170.81 87.28 170.86 87.22 171.04 86.89C171.03 86.9 171.02 86.92 171.01 86.93C170.95 86.99 170.9 87.06 170.85 87.13C170.62 87.42 170.38 87.7 170.15 87.99C169.31 89.03 168.46 90.06 167.61 91.09C165.34 93.84 163.06 96.57 160.71 99.24C159.7 100.38 158.69 101.53 157.6 102.59L157.86 102.34C157.36 102.82 156.85 103.24 156.17 103.45L156.46 103.36C155.42 103.66 154.31 103.5 153.29 103.2L153.58 103.29C151.62 102.68 149.83 101.52 148.35 100.11L148.61 100.36C148.06 99.83 147.58 99.28 147.19 98.63C147.11 98.5 147.04 98.38 146.96 98.25C147.36 98.92 147 98.32 146.9 98.14C146.72 97.8 146.55 97.46 146.38 97.12C145.54 95.41 144.79 93.66 144.07 91.9C142.62 88.37 141.28 84.8 139.98 81.21C139.7 80.42 139.41 79.64 139.14 78.85C138.97 78.38 138.58 77.99 138.07 78.21C136.78 78.77 135.47 79.3 134.17 79.83C131.16 81.04 128.12 82.2 125.06 83.28C123.07 83.98 121.08 84.65 119.06 85.27L119.35 85.18C117.24 85.82 115.12 86.42 112.96 86.87C111.25 87.23 109.49 87.55 107.74 87.55C107.04 87.55 106.33 87.5 105.66 87.3L105.95 87.39C105.57 87.27 105.19 87.1 104.9 86.82L105.16 87.07C105.07 86.98 105 86.89 104.93 86.79C104.74 86.54 105.17 87.27 105.06 87.02C105.03 86.96 105.01 86.9 104.98 86.84C104.96 86.81 105.18 87.5 105.12 87.24C105.12 87.21 105.11 87.18 105.1 87.15C105.02 86.88 105.22 87.94 105.17 87.51C105.16 87.42 105.15 87.33 105.14 87.25C105.1 86.75 105.18 88.07 105.16 87.56C105.14 87.11 105.16 86.65 105.18 86.2C105.2 85.84 105.13 87 105.15 86.64C105.15 86.57 105.15 86.5 105.16 86.43C105.16 86.3 105.18 86.16 105.19 86.03C105.22 85.75 105.24 85.46 105.28 85.18C105.35 84.57 105.44 83.96 105.53 83.36C105.58 83.03 105.64 82.7 105.7 82.37C105.73 82.21 105.76 82.05 105.79 81.89C105.8 81.81 105.82 81.73 105.83 81.65C105.68 82.48 105.72 82.24 105.75 82.06C105.76 82 105.77 81.94 105.78 81.88C106.06 80.41 106.37 78.95 106.71 77.49C107.42 74.41 108.22 71.36 109.07 68.32C109.78 65.78 110.52 63.25 111.28 60.73C111.65 59.52 112.04 58.32 112.4 57.11C112.4 57.09 112.41 57.08 112.42 57.06C112.67 56.29 112.63 55.31 112.42 54.54C112.28 54 112.06 53.44 111.47 53.3C110.71 53.12 109.96 52.93 109.21 52.74C107.33 52.26 105.46 51.76 103.59 51.23C102.25 50.85 100.91 50.46 99.58 50.05L99.87 50.14C97.31 49.36 94.76 48.52 92.26 47.57C90.08 46.75 87.91 45.85 85.89 44.69C85.07 44.22 84.25 43.7 83.56 43.04L83.82 43.29C83.66 43.14 83.51 42.97 83.37 42.8C83.31 42.72 83.25 42.65 83.2 42.57C83.17 42.53 83.15 42.49 83.12 42.45C83.03 42.33 83.32 42.83 83.3 42.77C83.29 42.74 83.27 42.71 83.25 42.68C83.22 42.61 83.18 42.53 83.15 42.46C83.04 42.21 83.34 43.11 83.27 42.82C83.26 42.77 83.25 42.72 83.24 42.68C83.23 42.65 83.38 43.48 83.33 43.15C83.28 42.82 83.36 43.95 83.36 43.69C83.36 43.43 83.45 43.33 83.32 44.23C83.32 44.19 83.33 44.14 83.33 44.1C83.26 45.02 83.21 44.68 83.3 44.38C83.36 44.19 83.49 43.91 83.19 44.7C83.21 44.63 83.24 44.57 83.26 44.5C83.36 44.24 83.48 43.98 83.62 43.73C83.69 43.6 83.76 43.48 83.83 43.35C83.46 44.03 83.8 43.41 83.9 43.25C84.09 42.94 84.29 42.65 84.49 42.35C86.61 39.28 89.23 36.53 91.83 33.86C93.31 32.34 94.83 30.84 96.36 29.37L96.1 29.62C97.46 28.31 98.84 27.02 100.24 25.75C100.33 25.67 100.42 25.59 100.5 25.51C100.86 25.19 101.03 24.83 101.16 24.36C101.32 23.77 101.36 23.04 101.27 22.43C101.2 21.94 101.11 21.32 100.76 20.94C100.57 20.72 100.21 20.42 99.91 20.69L99.97 20.68Z" fill="white"/>
<path d="M172.91 88.7699C174.07 89.3499 175.27 89.8399 176.48 90.2799C177.55 90.6699 178.65 91.0099 179.77 91.2399C180.66 91.4199 181.63 91.5599 182.53 91.3499C182.95 91.2499 183.38 91.1199 183.71 90.8399C184.16 90.4699 184.47 90.0099 184.66 89.4599C185.17 88.0799 185.33 86.6399 185.39 85.1799C185.51 82.0699 184.97 78.8599 184.07 75.8899C183.12 72.7499 181.73 69.7499 179.72 67.1399C178.38 65.3999 176.92 63.7599 175.44 62.1399C173.63 60.1599 171.76 58.2199 169.87 56.2999C167.98 54.3799 166.06 52.5099 164.1 50.6599C162.68 49.3199 161.25 47.9899 159.74 46.7599C159.32 46.4199 158.9 46.0699 158.44 45.7999C157.26 45.0999 155.96 44.5299 154.69 44.0199C154.48 43.9399 154.27 43.8499 154.06 43.7799L154.5 47.5399C154.62 47.3199 154.31 47.8599 154.36 47.7899C154.41 47.7099 154.45 47.6299 154.5 47.5499C154.68 47.2499 154.87 46.9699 155.07 46.6799C155.72 45.7599 156.45 44.8999 157.26 44.1199L157.02 44.3499C158.42 43.0099 160.07 41.9199 161.94 41.3499L161.68 41.4299C162.96 41.0499 164.28 40.7999 165.58 40.5099C167.09 40.1699 168.61 39.8299 170.13 39.5099C173.17 38.8699 176.22 38.2599 179.3 37.8699C182.38 37.4799 185.31 37.5399 188.32 37.5199C189.31 37.5199 190.31 37.5199 191.3 37.4799C192.12 37.4599 192.92 37.3899 193.7 37.0899C195.41 36.4399 196.02 34.5499 196.23 32.8899C196.46 31.0099 196.48 29.0899 196.31 27.1999C196.31 27.1099 196.29 27.0199 196.28 26.9399C196.23 26.5199 196.1 25.9399 195.83 25.5999C195.65 25.3799 195.35 25.1799 195.07 25.3699C194.74 25.5899 194.57 26.0399 194.48 26.3999C194.34 26.9699 194.31 27.5599 194.38 28.1299C194.41 28.3699 194.42 28.6099 194.44 28.8499C194.44 28.8499 194.4 28.1399 194.42 28.4799C194.42 28.5399 194.42 28.5999 194.42 28.6599C194.42 28.8099 194.43 28.9599 194.44 29.1099C194.44 29.4599 194.44 29.8099 194.44 30.1599C194.44 30.3599 194.43 30.5599 194.42 30.7499C194.4 31.1299 194.45 30.2699 194.43 30.5499C194.43 30.6499 194.42 30.7399 194.41 30.8399C194.39 31.0599 194.37 31.2799 194.35 31.4999C194.34 31.5999 194.33 31.6999 194.31 31.8099C194.28 32.0099 194.18 32.2999 194.35 31.6599C194.31 31.7899 194.28 31.9299 194.25 32.0599C194.39 31.4899 194.36 31.7499 194.3 31.8899C194.3 31.9099 194.23 32.0799 194.2 32.0899C194.21 32.0899 194.44 31.7199 194.28 31.9499C194.25 31.9999 194.22 32.0399 194.18 32.0899C194.1 32.1899 194.02 32.2899 193.93 32.3799L194.17 32.1499C193.82 32.4799 193.41 32.6999 192.95 32.8399L193.21 32.7599C192.45 32.9799 191.65 32.9799 190.86 32.9999C189.5 33.0199 188.14 33.0299 186.78 33.0399C184.98 33.0599 183.16 33.0199 181.36 33.1599C179.85 33.2799 178.34 33.4999 176.84 33.7399C173.35 34.3099 169.9 35.0499 166.45 35.8199C164.97 36.1499 163.48 36.4599 162.02 36.8499C160.39 37.2799 158.9 38.0399 157.58 39.0799C155.9 40.3999 154.42 42.0799 153.34 43.9299C153.26 44.0699 153.17 44.2199 153.09 44.3599C152.76 44.9799 152.75 45.8799 152.84 46.5499C152.88 46.8899 152.96 47.2199 153.09 47.5399C153.18 47.7799 153.33 47.9699 153.53 48.1199C154.33 48.3899 155.1 48.7499 155.87 49.0999C156.74 49.5099 157.63 49.8999 158.41 50.4699C159.68 51.3999 160.85 52.4799 162.01 53.5399C162.95 54.3999 163.89 55.2799 164.81 56.1699L164.57 55.9399C166.58 57.8699 168.55 59.8299 170.49 61.8299C172.43 63.8299 174.22 65.7299 176 67.7599C177.56 69.5399 179.13 71.3499 180.33 73.4099C180.35 73.4499 180.38 73.4899 180.4 73.5299C180.4 73.5399 180.23 73.2299 180.32 73.3799C180.37 73.4799 180.43 73.5699 180.48 73.6699C180.58 73.8599 180.69 74.0599 180.78 74.2499C180.97 74.6299 181.15 75.0099 181.32 75.3999C181.49 75.7899 181.65 76.1699 181.81 76.5699C181.88 76.7599 181.95 76.9499 182.02 77.1399C182.05 77.2299 182.08 77.3099 182.11 77.3999C182.13 77.4399 182.14 77.4899 182.16 77.5299C182.28 77.8599 182.04 77.1799 182.11 77.3799C182.36 78.1599 182.6 78.9399 182.79 79.7299C182.88 80.1099 182.97 80.4999 183.05 80.8899C183.07 80.9699 183.08 81.0599 183.1 81.1399C183.16 81.4599 183 80.5899 183.07 80.9799C183.1 81.1699 183.14 81.3699 183.17 81.5599C183.28 82.2699 183.37 82.9899 183.42 83.7099C183.42 83.8199 183.45 84.1399 183.42 83.6799C183.42 83.5699 183.39 83.2199 183.42 83.6799C183.42 83.8499 183.43 84.0199 183.44 84.1899C183.44 84.4999 183.44 84.8099 183.44 85.1199C183.44 85.1899 183.44 85.2499 183.44 85.3199C183.42 85.7199 183.48 84.7099 183.46 85.0099C183.45 85.1499 183.44 85.2999 183.42 85.4399C183.41 85.5699 183.39 85.6999 183.37 85.8199C183.35 85.9399 183.27 86.4399 183.35 85.9699C183.43 85.4999 183.35 85.9399 183.32 86.0699C183.29 86.1799 183.26 86.2999 183.23 86.4099C183.22 86.4599 183.2 86.4999 183.19 86.5499C183.13 86.7699 183.38 86.0299 183.28 86.2899C183.24 86.3799 183.2 86.4799 183.17 86.5699C183.09 86.7899 183.39 86.2499 183.28 86.3799C183.26 86.4099 183.24 86.4499 183.21 86.4799C183.16 86.5499 183.1 86.6199 183.03 86.6799L183.27 86.4499C183.04 86.6599 182.77 86.7999 182.47 86.8899L182.73 86.8099C182.04 87.0099 181.29 86.9799 180.59 86.8899C179.73 86.7799 178.88 86.5599 178.04 86.3099L178.3 86.3899C176.64 85.8799 174.99 85.2299 173.44 84.4499C172.62 84.0399 172.28 85.4899 172.22 86.0199C172.16 86.5899 172.16 87.1999 172.32 87.7499C172.42 88.0999 172.56 88.6099 172.91 88.7799V88.7699Z" fill="white"/>
<path d="M172.65 85.16C172.58 85.16 172.51 85.16 172.44 85.18C172.41 85.18 172.37 85.18 172.34 85.19H172.32C172.32 85.19 172.32 85.19 172.31 85.19C172.23 85.21 172.14 85.23 172.06 85.25C172.04 85.25 172.02 85.27 172 85.27C171.87 85.33 171.74 85.41 171.62 85.49C171.51 85.56 171.4 85.64 171.29 85.71C171.26 85.73 171.23 85.76 171.21 85.79C171.16 85.85 171.1 85.91 171.05 85.97C170.88 86.17 170.71 86.38 170.57 86.6C170.52 86.67 170.48 86.75 170.44 86.83C170.35 87.02 170.25 87.21 170.17 87.4C170.09 87.6 170.06 87.8 170.06 88.01C170.03 88.23 170.05 88.45 170.1 88.66C170.13 88.86 170.2 89.04 170.31 89.21C170.38 89.37 170.48 89.51 170.62 89.63L170.88 89.79C171.07 89.86 171.26 89.86 171.45 89.78L171.7 89.61C171.87 89.44 171.99 89.24 172.07 89.01C172.11 88.89 172.16 88.78 172.21 88.67L172.05 89C172.16 88.77 172.3 88.54 172.46 88.34L172.25 88.6C172.36 88.46 172.48 88.34 172.59 88.19C172.63 88.13 172.67 88.08 172.72 88.02L172.52 88.27C172.59 88.18 172.67 88.1 172.74 88.02C172.76 88 172.78 87.98 172.8 87.96C172.89 87.87 172.96 87.78 173.04 87.67C173.07 87.62 173.11 87.58 173.14 87.54L172.96 87.76C173.02 87.69 173.07 87.63 173.13 87.56L173.3 87.35C173.38 87.22 173.44 87.08 173.47 86.93C173.51 86.82 173.52 86.71 173.52 86.6C173.54 86.43 173.53 86.25 173.49 86.08L173.4 85.77L173.26 85.51C173.19 85.39 173.1 85.31 172.98 85.25C172.89 85.18 172.77 85.14 172.65 85.15V85.16Z" fill="white"/>
<path d="M171.36 86.06C171.23 86.25 171.11 86.44 170.98 86.63L170.79 86.91C170.79 86.91 170.73 87 170.7 87.05C170.68 87.07 170.67 87.1 170.66 87.13L170.62 87.22L170.44 87.58C170.38 87.67 170.34 87.77 170.33 87.87C170.3 87.98 170.28 88.1 170.29 88.21C170.29 88.33 170.31 88.44 170.35 88.55C170.37 88.65 170.42 88.75 170.48 88.83L170.6 88.97C170.69 89.05 170.78 89.08 170.9 89.08L171.05 89.04C171.16 88.99 171.24 88.91 171.3 88.8L171.49 88.52L171.58 88.38C171.58 88.38 171.64 88.27 171.67 88.22L171.99 87.58L172.17 87.22C172.22 87.14 172.26 87.04 172.28 86.95C172.31 86.84 172.33 86.74 172.32 86.62C172.32 86.51 172.3 86.4 172.26 86.3C172.24 86.2 172.2 86.11 172.14 86.03L172.02 85.9C171.94 85.83 171.85 85.79 171.74 85.79L171.59 85.82C171.49 85.87 171.41 85.94 171.35 86.04L171.36 86.06Z" fill="white"/>
<path d="M174.24 84.7297C174.07 84.5897 173.87 84.4796 173.68 84.3796C173.61 84.3396 173.54 84.3096 173.47 84.2896C173.33 84.2396 173.19 84.2196 173.05 84.1996C172.91 84.1796 172.76 84.1496 172.62 84.1396C172.45 84.1396 172.29 84.1497 172.13 84.1897C171.84 84.2597 171.55 84.3097 171.28 84.4397C171.2 84.4797 171.13 84.5196 171.06 84.5596C170.91 84.6496 170.77 84.7496 170.63 84.8496C170.59 84.8696 170.56 84.8996 170.52 84.9296C170.38 85.0396 170.25 85.1697 170.14 85.2997C169.92 85.5597 169.7 85.8196 169.53 86.1096C169.48 86.1896 169.44 86.2696 169.4 86.3496C169.28 86.5796 169.17 86.8196 169.06 87.0596C168.88 87.4596 168.75 87.8696 168.62 88.2896C168.52 88.5596 168.47 88.8396 168.47 89.1296C168.43 89.4296 168.45 89.7296 168.52 90.0296C168.56 90.2996 168.66 90.5596 168.8 90.7896C168.9 91.0096 169.04 91.1996 169.23 91.3596L169.59 91.5797C169.85 91.6797 170.12 91.6696 170.38 91.5596L170.73 91.3196C170.96 91.0896 171.13 90.8096 171.24 90.4996C171.38 90.0396 171.53 89.5797 171.74 89.1497L171.52 89.6096C171.65 89.3296 171.81 89.0697 172 88.8297L171.71 89.1897C171.86 88.9997 172.04 88.8296 172.24 88.6996L171.89 88.9397C172.12 88.7797 172.38 88.6696 172.65 88.6096L172.26 88.6996C172.5 88.6496 172.74 88.6296 172.99 88.6696L172.6 88.5996C172.77 88.6296 172.94 88.6896 173.09 88.7796L172.73 88.5596C172.78 88.5896 172.83 88.6197 172.87 88.6597C173.03 88.8197 173.21 88.8997 173.43 88.9097C173.63 88.9697 173.82 88.9496 174.02 88.8596C174.23 88.7696 174.39 88.6296 174.51 88.4496C174.68 88.2696 174.8 88.0496 174.87 87.8096L175.01 87.2696C175.07 86.8696 175.06 86.4696 174.98 86.0696L174.82 85.5396C174.7 85.2296 174.52 84.9696 174.27 84.7496L174.24 84.7297Z" fill="white"/>
</g>
<defs>
<clipPath id="clip0_3416_10686">
<rect width="203.23" height="198.78" fill="white"/>
</clipPath>
</defs>
</svg>
