<svg width="230" height="191" viewBox="0 0 230 191" fill="none" xmlns="http://www.w3.org/2000/svg">
<g clip-path="url(#clip0_3416_9727)">
<path d="M1.98 189.56C-0.499999 187.65 -0.639999 183.46 1.47 179.06C2.87 176.14 4.96 173.59 7.02 171.08C40.65 130.15 78.15 94.6799 120.06 63.2599C149.66 41.0699 180.47 20.9299 211.59 1.44988C217.01 -1.94012 224.34 0.849878 227.97 7.68988C231.6 14.5299 230.09 22.8599 224.75 26.2299C189.27 48.4699 153.5 67.6999 119.94 93.3899C85.47 119.77 52.76 148.85 22.25 180.24C18.09 184.52 13.59 189.07 8.08 190.34C5.35 190.97 3.32 190.6 1.98 189.57" fill="#1D1D1B"/>
</g>
<defs>
<clipPath id="clip0_3416_9727">
<rect width="229.96" height="190.63" fill="white"/>
</clipPath>
</defs>
</svg>
