<svg width="307" height="109" viewBox="0 0 307 109" fill="none" xmlns="http://www.w3.org/2000/svg">
<g clip-path="url(#clip0_3416_11805)">
<path d="M36.24 4.95011C25.96 10.7201 15.69 16.5001 5.40999 22.2701C3.96999 23.0801 2.52999 23.8901 1.08999 24.7001C0.0199935 25.3001 -0.0400064 27.3801 0.0299936 28.4001C0.0799936 29.1801 0.319994 31.3501 1.48999 31.3301C4.17999 31.2701 6.86999 31.2201 9.56999 31.1601C16.9 31.0101 24.22 30.8501 31.55 30.7001L64.06 30.0201C77.28 29.7401 90.5 29.4601 103.72 29.1901C118.2 28.8901 132.68 28.5801 147.16 28.2801C161.64 27.9801 176.38 27.6701 191 27.3601C204.58 27.0701 218.17 26.7901 231.75 26.5001C243.23 26.2601 254.72 26.0201 266.2 25.7801C274.48 25.6101 282.77 25.4301 291.05 25.2601L302.82 25.0101C302.99 25.0101 303.15 25.0101 303.32 25.0001C304.49 24.9801 304.74 22.8501 304.78 22.0701C304.84 21.0201 304.81 18.9801 303.72 18.3701C295.09 13.5301 286.46 8.68011 277.83 3.84011C276.49 3.09011 275.16 2.22011 273.77 1.56011C273.45 1.41011 273.23 1.37011 272.9 1.35011C271.69 1.29011 270.45 1.39011 269.24 1.40011C263.2 1.49011 257.15 1.58011 251.11 1.67011C241.37 1.81011 231.64 1.96011 221.9 2.10011C209.8 2.28011 197.7 2.46011 185.6 2.64011C172.46 2.83011 159.33 3.03011 146.19 3.22011C133.05 3.41011 120.5 3.60011 107.66 3.79011C96.44 3.96011 85.21 4.12011 73.99 4.29011C65.72 4.41011 57.44 4.54011 49.17 4.66011C45.17 4.72011 41.18 4.78011 37.18 4.84011C37 4.84011 36.83 4.84011 36.65 4.84011C34.55 4.87011 34.57 11.6201 36.65 11.5901C39.39 11.5501 42.14 11.5101 44.88 11.4701C52.23 11.3601 59.58 11.2501 66.92 11.1401C77.54 10.9801 88.17 10.8301 98.79 10.6701C111.32 10.4801 123.85 10.3001 136.37 10.1101C149.52 9.92011 162.66 9.72011 175.81 9.53011C188.3 9.35011 200.78 9.1601 213.27 8.9801C223.73 8.8301 234.18 8.67011 244.64 8.52011C251.74 8.41011 258.83 8.31011 265.93 8.20011L271.53 8.12011C271.97 8.12011 272.45 8.15011 272.89 8.10011C272.96 8.10011 273.11 8.13011 273.17 8.10011C273.07 8.16011 272.64 7.82011 273.03 8.10011C274.3 9.01011 275.84 9.67011 277.19 10.4401C279.74 11.8701 282.29 13.3001 284.84 14.7401C289.94 17.6001 295.04 20.4701 300.14 23.3301C301.07 23.8501 301.99 24.3701 302.92 24.8901L303.31 18.2601C300.62 18.3201 297.93 18.3701 295.23 18.4301C287.9 18.5801 280.58 18.7401 273.25 18.8901C262.41 19.1201 251.58 19.3501 240.74 19.5701C227.52 19.8501 214.3 20.1301 201.08 20.4001C186.6 20.7001 172.12 21.0101 157.64 21.3101C143.16 21.6101 128.42 21.9201 113.8 22.2301C100.22 22.5201 86.63 22.8001 73.05 23.0901C61.57 23.3301 50.08 23.5701 38.6 23.8101C30.32 23.9801 22.03 24.1601 13.75 24.3301L1.97999 24.5801C1.80999 24.5801 1.64999 24.5801 1.47999 24.5901L1.86999 31.2201C12.15 25.4501 22.42 19.6701 32.7 13.9001C34.14 13.0901 35.58 12.2801 37.02 11.4701C38.82 10.4601 38.12 3.90011 36.23 4.96011L36.24 4.95011Z" fill="black"/>
<path d="M125.35 59.4302C124.14 58.4702 122.69 58.5502 121.22 58.5002C119.91 58.4502 118.6 58.4002 117.3 58.3502C115.65 58.2802 115.22 60.6402 115.16 61.7902C114.94 65.9502 114.78 70.1002 114.64 74.2602C114.57 76.3702 114.51 78.4902 114.46 80.6002C114.4 83.0402 114.9 85.9702 117.94 85.7602C120.01 85.6202 122.07 85.4402 124.14 85.2802C125.17 85.2002 126.37 85.2702 127.19 84.5302C128.34 83.4902 128.44 81.8302 128.48 80.3902C128.61 76.3702 128.67 72.3502 128.77 68.3302C128.83 65.8002 129.29 62.8702 127.84 60.6302C126.66 58.8102 124.58 57.9102 122.49 58.6902C120.88 59.2902 120.55 61.8802 120.89 63.3102C121.19 64.5602 122.32 66.6502 123.96 65.8402C124.25 65.7402 124.27 65.7002 124.04 65.7302C124.17 65.7102 124.29 65.7002 124.42 65.7102C124.59 65.7202 124.59 65.7102 124.42 65.6802C124.58 65.7302 124.74 65.7902 124.89 65.8702C124.73 65.9602 124.48 65.3902 124.46 65.3502C124.33 64.5002 124.28 64.2902 124.31 64.7302C124.32 64.9002 124.32 65.0702 124.31 65.2302C124.31 66.9702 124.23 68.7102 124.19 70.4502C124.15 72.1902 124.11 73.9302 124.07 75.6702C124.05 76.4702 124.03 77.2802 124.02 78.0802C124.02 78.4802 124 78.8902 123.99 79.2902C123.99 79.5602 123.98 79.8302 123.97 80.1002C123.92 80.9402 124.03 80.6502 124.31 79.2202L125.28 78.3102C125.07 78.4102 124.01 78.4302 123.55 78.4602C122.82 78.5202 122.08 78.5802 121.35 78.6302C120.68 78.6802 120.02 78.7402 119.35 78.7902C118.95 78.8202 118.55 78.8502 118.15 78.8902L117.75 78.9202C117.21 78.8902 117.21 78.9802 117.78 79.1802L118.61 80.3902L118.55 80.2002L118.9 81.9202C118.81 78.5902 119.06 75.2202 119.17 71.9002C119.28 68.5802 119.43 65.0802 119.59 61.6802L117.45 65.1202C118.76 65.1602 120.07 65.2002 121.37 65.2502C122.91 65.3002 124.16 65.4202 125.46 64.4902C126.86 63.4902 126.58 60.4202 125.34 59.4302H125.35Z" fill="black"/>
<path d="M125.76 68.7998C127.31 70.4098 130.58 69.9998 132.65 70.0598C134.99 70.1198 137.31 70.2098 139.64 70.3498C144.3 70.6298 148.96 70.8498 153.63 71.0098C162.96 71.3098 172.28 71.4698 181.61 71.4198C185.32 71.3998 185.15 63.0098 181.4 63.0298C172.08 63.0698 162.75 63.1498 153.43 63.2098C148.77 63.2398 144.11 63.2998 139.46 63.3698C137.13 63.4098 134.81 63.3698 132.47 63.3198C130.39 63.2598 127.25 62.6798 125.64 64.2798C124.44 65.4698 124.64 67.6598 125.75 68.8098L125.76 68.7998Z" fill="black"/>
<path d="M126.92 81.1201C127.64 81.5801 128.1 81.7701 128.95 81.8301C129.53 81.8701 130.11 81.8701 130.68 81.8901C131.92 81.9401 133.16 81.9701 134.4 82.0601C136.72 82.2301 139.03 82.4901 141.34 82.6601C146.01 82.9901 150.71 83.1901 155.38 83.3601C160.05 83.5301 164.33 83.2001 168.82 83.0001C170.97 82.9001 173.13 82.8601 175.29 83.0001C176.35 83.0601 177.42 83.1601 178.47 83.3301C179.63 83.5201 180.87 84.0601 182.04 83.9201C185.12 83.5501 185.35 78.0001 183.18 76.4201C181.24 75.0101 178.33 74.8601 175.99 74.6901C173.84 74.5301 171.69 74.5601 169.54 74.6601C164.99 74.8701 160.46 75.2901 155.9 75.3101C151.34 75.3301 146.39 75.1301 141.63 75.1001C139.32 75.0901 137.01 75.1801 134.7 75.2201C133.54 75.2401 132.39 75.2001 131.23 75.1701C129.94 75.1301 128.38 74.8001 127.23 75.4701C125.59 76.4101 125.13 80.0101 126.88 81.1301L126.92 81.1201Z" fill="black"/>
<path d="M186.61 59.5601C185.03 57.8201 182.75 58.9501 181.53 60.5001C179.87 62.6101 179.93 65.4501 180.45 67.9501C180.89 70.0301 181.03 71.1101 180.92 73.3501C180.95 72.8501 180.92 73.5101 180.91 73.5601C180.89 73.8301 180.87 74.0901 180.85 74.3601C180.81 74.8301 180.77 75.2901 180.74 75.7601C180.64 77.0201 180.55 78.2901 180.54 79.5601C180.53 81.9201 180.65 84.9801 182.14 86.9201C183.63 88.8601 186.64 88.3901 188.83 88.2901C191.02 88.1901 193.96 88.4301 195.3 86.3901C196.53 84.5201 196.62 81.8601 196.87 79.6801C197.48 74.4401 197.61 69.1401 197.19 63.8701C197.09 62.6701 196.63 60.3401 195.13 60.0001C193.84 59.7001 192.71 59.7501 191.41 59.8001C190.32 59.8401 189.67 59.7101 188.64 59.3601C186.35 58.5801 184.33 57.8701 181.91 58.5501C181.14 58.7701 180.51 59.9101 180.27 60.5701C179.91 61.5601 179.82 62.8801 180.07 63.9001C180.48 65.5801 181.64 67.4801 183.63 66.8301C184.81 66.4401 186.49 67.2601 188.07 67.6501C189.11 67.9101 190.17 68.0901 191.25 68.0301C192.09 67.9801 193.09 67.6901 193.93 67.8701L191.87 64.0001C192.06 66.1601 192.16 68.3301 192.17 70.5101C192.17 71.6701 192.15 72.8301 192.1 73.9801C192.09 74.2701 192.07 74.5601 192.06 74.8501C192.08 74.5801 192.08 74.5901 192.06 74.8701C192.02 75.3801 191.98 75.8801 191.94 76.3901C191.83 77.5401 191.7 78.7001 191.54 79.8501C191.48 80.2801 191.4 80.7101 191.35 81.1401C191.24 81.6901 191.26 81.7101 191.39 81.1901C191.54 80.6201 191.84 80.2601 192.31 80.1101C192.09 79.9601 190.89 80.2701 190.6 80.2901C190.1 80.3401 189.6 80.3701 189.1 80.4101C188.02 80.4801 186.95 80.5201 185.87 80.5301C185.58 80.5301 185.3 80.5301 185.01 80.5301C184.05 80.4201 184.36 80.9601 185.93 82.1401C185.95 81.8001 185.76 81.3301 185.69 80.9801C185.62 80.5101 185.61 80.4601 185.66 80.8301C185.64 80.5701 185.62 80.3001 185.61 80.0401C185.58 79.5101 185.58 78.9801 185.59 78.4501C185.62 76.4401 185.83 74.4501 185.82 72.4401C185.81 70.2301 185.43 68.1201 184.89 65.9901C184.85 65.8301 184.75 64.9301 184.64 64.8201C184.68 64.9001 184.69 64.9901 184.69 65.0801C184.38 65.8301 184.35 65.9701 184.62 65.5001C184.29 65.6701 184.97 65.3801 184.72 65.4301C185.05 65.3701 185.43 65.3401 185.77 65.3301C186.9 65.2901 187.51 63.9801 187.66 63.0301C187.86 61.7601 187.51 60.5301 186.65 59.5901L186.61 59.5601Z" fill="black"/>
<path d="M39.49 57.5101C39.44 61.2101 39.38 64.9201 39.33 68.6201L39.24 74.6101C39.24 74.8001 39.22 75.0001 39.24 75.1901C39.27 75.7601 39.3 74.1101 39.28 74.5101C39.23 76.0201 39.24 77.4801 39.83 78.9101C41.12 81.9901 44.25 82.4301 47.24 82.6001C50.7 82.7901 54.18 82.7901 57.65 82.7501C58.98 82.7301 60.35 82.9301 61.43 82.0001C63.91 79.8501 63.72 75.7701 63.7 72.7501C63.67 67.6701 63.41 62.5901 63.13 57.5201L62.39 60.4301C63.89 58.4101 63.82 54.2601 61.74 52.6501C60.58 51.7501 58.85 51.5601 57.44 51.4001C55.74 51.2101 54.03 51.1201 52.33 51.0701C49.64 50.9801 46.92 50.9201 44.23 51.0201C42.01 51.1101 40.65 53.2501 39.93 55.1301C39.37 56.5901 39.27 58.4601 39.93 59.9001C40.45 61.0401 41.53 61.2001 42.03 59.9001C42.33 59.1201 42.68 58.4001 43.42 57.9701C43.58 57.8701 43.76 57.7801 43.94 57.7301C43.51 57.8701 43.74 57.7901 43.85 57.7801C44.91 57.7101 45.99 57.7501 47.05 57.7501C49.21 57.7501 51.38 57.7801 53.54 57.8801C55.7 57.9801 57.96 57.9301 59.91 58.6201C60.23 58.7301 60.51 58.9501 60.81 59.0701C61.15 59.2001 60.78 59.1501 60.85 59.1001C60.73 59.1801 60.36 57.3001 60.41 57.6401C60.31 56.9301 60.46 55.4601 60.67 55.0001C60.83 54.6501 61.03 54.1701 60.58 55.1401C60.03 56.3501 60.15 57.6501 60.22 58.9301C60.39 62.2301 60.53 65.5301 60.63 68.8301C60.68 70.4301 60.72 72.0401 60.71 73.6501C60.71 73.9801 60.71 74.3001 60.7 74.6301C60.7 74.8001 60.62 75.7101 60.7 74.9801C60.8 73.9301 60.43 76.0401 60.68 75.2401C60.61 75.4601 60.5 75.6301 60.37 75.7201C60.27 75.7901 59.79 76.0201 60.01 75.9501C60.25 75.8701 59.94 75.9601 59.86 75.9701C59.66 75.9801 59.46 75.9701 59.27 75.9801C57.6 76.0101 55.93 76.0301 54.26 76.0201C52.03 76.0201 49.8 75.9801 47.57 75.8701C45.87 75.7801 43.28 75.6901 42.24 74.6301C42.16 74.5501 42.1 74.4301 42.01 74.3601C41.67 74.0501 42.07 74.6201 42.02 74.4101C41.93 74.0001 42.12 74.8401 42.15 75.1001C42.06 74.3901 42.17 76.0301 42.17 75.4901C42.17 76.2401 42.13 76.8801 42.18 75.3401C42.2 74.8101 42.2 74.2701 42.2 73.7401C42.28 68.3401 42.36 62.9401 42.44 57.5401C42.45 56.6401 42.25 54.2101 40.95 54.1601C39.65 54.1101 39.48 56.7901 39.46 57.5401L39.49 57.5101Z" fill="black"/>
<path d="M247 58.62C246.95 62.32 246.89 66.03 246.84 69.73L246.75 75.72C246.75 75.91 246.73 76.11 246.75 76.3C246.78 76.87 246.81 75.22 246.79 75.62C246.74 77.13 246.75 78.59 247.34 80.02C248.63 83.1 251.76 83.54 254.75 83.71C258.21 83.9 261.69 83.9 265.16 83.86C266.49 83.84 267.86 84.04 268.94 83.11C271.42 80.96 271.23 76.88 271.21 73.86C271.18 68.78 270.92 63.7 270.64 58.63L269.9 61.54C271.4 59.52 271.33 55.37 269.25 53.76C268.09 52.86 266.36 52.67 264.95 52.51C263.25 52.32 261.54 52.23 259.84 52.18C257.15 52.09 254.43 52.03 251.74 52.13C249.52 52.22 248.16 54.36 247.44 56.24C246.88 57.7 246.78 59.57 247.44 61.01C247.96 62.15 249.04 62.31 249.54 61.01C249.84 60.23 250.19 59.51 250.93 59.08C251.09 58.98 251.27 58.89 251.45 58.84C251.02 58.98 251.25 58.9 251.36 58.89C252.42 58.82 253.5 58.86 254.56 58.86C256.72 58.86 258.89 58.89 261.05 58.99C263.21 59.09 265.47 59.04 267.42 59.73C267.74 59.84 268.02 60.06 268.32 60.18C268.66 60.31 268.29 60.26 268.36 60.21C268.24 60.29 267.87 58.41 267.92 58.75C267.82 58.04 267.97 56.57 268.18 56.11C268.34 55.76 268.54 55.28 268.09 56.25C267.54 57.46 267.66 58.76 267.73 60.04C267.9 63.34 268.04 66.64 268.14 69.94C268.19 71.54 268.23 73.15 268.22 74.76C268.22 75.09 268.22 75.41 268.21 75.74C268.21 75.91 268.13 76.82 268.21 76.09C268.31 75.04 267.94 77.15 268.19 76.35C268.12 76.57 268.01 76.74 267.88 76.83C267.78 76.9 267.3 77.13 267.52 77.06C267.76 76.98 267.45 77.07 267.37 77.08C267.17 77.09 266.97 77.08 266.78 77.09C265.11 77.12 263.44 77.14 261.77 77.13C259.54 77.13 257.31 77.09 255.08 76.98C253.38 76.89 250.79 76.8 249.75 75.74C249.67 75.66 249.61 75.54 249.52 75.47C249.18 75.16 249.58 75.73 249.53 75.52C249.44 75.11 249.63 75.95 249.66 76.21C249.57 75.5 249.68 77.14 249.68 76.6C249.68 77.35 249.64 77.99 249.69 76.45C249.71 75.92 249.71 75.38 249.71 74.85C249.79 69.45 249.87 64.05 249.95 58.65C249.96 57.75 249.76 55.32 248.46 55.27C247.16 55.22 246.99 57.9 246.97 58.65L247 58.62Z" fill="black"/>
<path d="M50.02 64.22C49.99 65.13 50.08 66.05 50.17 66.95C50.29 68.12 50.43 69.29 50.64 70.45C50.76 71.14 51.15 71.99 51.71 72.44C52.16 72.81 52.87 73.02 53.43 72.74C54.9 72 55.13 69.99 54.88 68.55C54.75 67.81 54.64 67.06 54.55 66.31L54.65 67.2C54.54 66.17 54.51 65.14 54.43 64.11C54.36 63.29 54.22 62.45 53.73 61.76C53.4 61.3 52.78 60.76 52.15 60.82C51.52 60.88 50.95 61.27 50.62 61.84C50.19 62.58 50.06 63.38 50.03 64.23L50.02 64.22Z" fill="black"/>
<path d="M256.68 63.6299C256.62 63.9699 256.57 64.2899 256.55 64.6399C256.53 65.0099 256.55 65.3399 256.58 65.7099L256.7 67.0099C256.78 67.8999 256.86 68.7799 256.95 69.6699C257.04 70.5099 257.16 71.3299 257.66 72.0399C257.99 72.5099 258.62 73.0499 259.25 72.9899C259.88 72.9299 260.46 72.5299 260.79 71.9599C261.2 71.2599 261.45 70.3699 261.38 69.5599C261.3 68.6599 261.2 67.7499 261.11 66.8499L260.97 65.4999C260.92 65.0299 260.9 64.5499 260.81 64.0899C260.72 63.6299 260.54 63.2199 260.37 62.7999C260.21 62.4099 259.94 61.9799 259.61 61.7099L259.12 61.4099C258.85 61.2899 258.58 61.2799 258.31 61.3699C257.31 61.5999 256.84 62.7099 256.68 63.6299Z" fill="black"/>
<path d="M302.25 19.2099C300.73 22.4399 300.86 26.6599 300.79 30.1399C300.69 35.4599 300.9 40.7799 301.14 46.0899C301.69 58.3299 302.61 70.5499 303 82.7999C303.08 85.2899 303.22 87.8199 303.08 90.3199C303.11 89.8099 303.03 90.7799 303.01 90.9299C302.97 91.2999 302.92 91.6599 302.86 92.0299C302.77 92.6599 302.82 92.2499 302.85 92.1199C302.82 92.2599 302.79 92.4099 302.76 92.5499C302.66 92.9599 302.56 93.3699 302.44 93.7699C302.31 94.2099 302.52 93.6399 302.28 94.2099C302.17 94.4799 302.06 94.7499 301.94 95.0199C301.82 95.2899 301.7 95.5199 301.56 95.7699C301.56 95.7699 301.46 95.9399 301.27 96.2199C299.33 99.1199 296.12 100.65 292.63 101.01C290.58 101.22 288.58 100.87 286.54 100.88C283.56 100.88 280.58 100.9 277.6 100.9C272.28 100.91 266.95 100.93 261.63 100.94C254.39 100.96 247.15 100.98 239.91 101C231.25 101.02 222.59 101.05 213.93 101.07C204.37 101.1 194.81 101.12 185.25 101.15C175.18 101.18 165.11 101.2 155.04 101.23C144.98 101.26 134.92 101.28 124.86 101.31C114.8 101.34 105.71 101.36 96.13 101.38C87.55 101.4 78.97 101.42 70.39 101.44C63.21 101.46 56.02 101.47 48.84 101.49C43.57 101.5 38.3 101.51 33.03 101.52C30.15 101.52 27.27 101.54 24.39 101.53C19.37 101.53 13.91 100.88 9.93996 97.5099C9.86996 97.4499 9.44996 97.0599 9.68996 97.2999C9.54996 97.1599 9.40996 97.0099 9.27996 96.8699C9.00996 96.5799 8.75996 96.2699 8.52996 95.9499C8.33996 95.6799 8.15996 95.3999 7.98996 95.1199C8.37996 95.7699 7.88996 94.8799 7.78996 94.6499C7.74996 94.5499 7.70996 94.4499 7.65996 94.3499C7.41996 93.7999 7.83996 94.4299 7.71996 94.5699C7.74996 94.5399 7.56996 94.0499 7.54996 93.9699C7.31996 93.1999 7.60996 94.8999 7.56996 94.0599C7.33996 89.1799 6.88996 84.3099 6.55996 79.4299C5.90996 70.0799 5.26996 60.7199 4.61996 51.3699L3.65996 37.4399C3.41996 33.9899 3.17996 30.5299 2.93996 27.0799C2.87996 26.2299 2.33996 24.1699 1.10996 24.7199C-0.120044 25.2699 -0.0100439 27.8499 0.0599561 28.8499C0.389956 33.6799 0.729956 38.4999 1.05996 43.3299C1.62996 51.5599 2.19996 59.7799 2.76996 68.0099C3.33996 76.2399 3.89996 84.3399 4.45996 92.5099C4.53996 93.6599 4.55996 94.8199 4.70996 95.9599C5.07996 98.9199 6.54996 101.63 8.71996 103.65C13.72 108.3 21 108.29 27.43 108.28C31.51 108.28 35.59 108.27 39.67 108.26C45.93 108.25 52.2 108.23 58.46 108.22C66.42 108.2 74.39 108.18 82.35 108.16C91.57 108.14 100.79 108.11 110.02 108.09C119.94 108.06 129.86 108.04 139.77 108.01C149.68 107.98 160.11 107.96 170.27 107.93C180.43 107.9 190.22 107.88 200.2 107.85C209.41 107.83 218.63 107.8 227.84 107.78C235.85 107.76 243.87 107.74 251.88 107.72C258.21 107.7 264.54 107.69 270.87 107.67C275.03 107.66 279.19 107.65 283.36 107.64C284.86 107.64 286.4 107.51 287.9 107.63C289.79 107.77 291.57 107.95 293.48 107.66C297.37 107.06 300.91 105.08 303.01 101.68C306.25 96.4499 306.17 90.1999 306.01 84.2599C305.85 78.3199 305.54 72.6299 305.22 66.8199C304.56 54.9299 303.62 42.9899 303.75 31.0699C303.76 30.0599 303.78 29.0499 303.83 28.0399C303.83 27.8099 303.86 27.5799 303.86 27.3499C303.86 27.2499 303.8 28.1299 303.86 27.4099C303.89 27.0099 303.92 26.5999 303.96 26.1999C304 25.8399 304.04 25.4799 304.09 25.1199C304.12 24.9399 304.15 24.7499 304.17 24.5699C304.22 24.0899 303.97 25.4199 304.13 24.8099C304.2 24.5599 304.27 24.2999 304.32 24.0499C304.4 23.5899 304.34 24.5899 304.23 24.3199C304.21 24.2699 304.34 24.0599 304.36 24.0099C305.01 22.6299 304.99 20.6199 304.36 19.2399C303.8 18.0199 302.83 18.0299 302.26 19.2399L302.25 19.2099Z" fill="black"/>
<path d="M2.26001 39.8299C4.95001 39.7699 7.63001 39.7199 10.32 39.6599C17.57 39.5099 24.83 39.3599 32.08 39.2099C42.8 38.9899 53.51 38.7699 64.23 38.5499C77.3 38.2799 90.37 38.0099 103.43 37.7499C117.74 37.4599 132.05 37.1599 146.37 36.8699C160.69 36.5799 175.43 36.2699 189.96 35.9799C203.43 35.6999 216.9 35.4299 230.36 35.1499C241.74 34.9199 253.12 34.6799 264.5 34.4499C272.69 34.2799 280.87 34.1099 289.06 33.9499C292.94 33.8699 296.84 33.8999 300.72 33.7099C300.88 33.7099 301.05 33.7099 301.21 33.6999C303.31 33.6599 303.29 26.9099 301.21 26.9499C298.52 27.0099 295.84 27.0599 293.15 27.1199L271.39 27.5699C260.67 27.7899 249.96 28.0099 239.24 28.2299C226.17 28.4999 213.1 28.7699 200.04 29.0299C185.73 29.3199 171.42 29.6199 157.1 29.9099C142.57 30.2099 128.04 30.5099 113.51 30.7999C100.04 31.0799 86.57 31.3499 73.11 31.6299C61.73 31.8599 50.35 32.0999 38.97 32.3299C30.78 32.4999 22.6 32.6699 14.41 32.8299C10.53 32.9099 6.63001 32.8799 2.75001 33.0699C2.59001 33.0699 2.42001 33.0699 2.26001 33.0799C0.160014 33.1199 0.180014 39.8699 2.26001 39.8299Z" fill="black"/>
<path d="M42.53 55.7398C43.8 54.2498 43.92 52.1198 44.2 50.2498C44.45 48.5998 44.71 46.9598 44.93 45.2998C45.37 41.8498 45.79 38.3898 46.21 34.9398C46.38 33.5498 46.09 31.3998 44.56 30.8298C43.03 30.2598 42.04 32.0298 41.89 33.2498C41.48 36.7098 41.06 40.1698 40.67 43.6398C40.48 45.3198 40.35 46.9998 40.19 48.6798C40 50.7198 39.59 52.9698 40.36 54.9298C40.67 55.6998 41.77 56.6198 42.53 55.7298V55.7398Z" fill="black"/>
<path d="M63.27 54.2902C63.85 49.6902 63.97 45.1202 64.01 40.4802C64.03 38.2502 63.97 36.0102 63.91 33.7802C63.85 31.3902 64.13 28.7702 63.61 26.4302C63.38 25.3902 62.67 23.9602 61.4 23.9902C60.13 24.0202 59.46 25.4802 59.31 26.5402C58.98 28.9302 59.42 31.4802 59.48 33.8902C59.53 36.0402 59.55 38.1902 59.6 40.3402C59.71 44.8102 59.77 49.2502 60.11 53.7202C60.18 54.6102 60.5 55.9102 61.56 56.0802C62.55 56.2402 63.17 55.1402 63.27 54.2902Z" fill="black"/>
<path d="M44.1499 36.71C45.0599 35.71 45.7099 34.51 46.1999 33.25C46.7599 31.82 46.6199 30.65 47.1899 29.49C47.6799 28.49 48.9399 27.61 49.7999 26.84C51.0599 25.71 52.3199 24.59 53.5899 23.47C56.0599 21.29 58.5699 19.15 61.0799 17.02C63.5899 14.89 66.5999 12.75 69.0299 10.33C70.0899 9.27004 70.2799 7.47004 69.8299 6.09004C69.5399 5.18004 68.4099 3.37004 67.1699 4.20004C64.2099 6.17004 61.5599 8.72004 58.8599 11.03C56.1599 13.34 53.6299 15.57 51.0299 17.86C49.7599 18.98 48.4999 20.1 47.2399 21.23C45.9799 22.36 44.7699 23.4 43.9399 24.81C43.1099 26.22 42.6599 27.93 42.4999 29.57C42.3699 30.94 42.5099 32.24 41.9199 33.49C41.5299 34.3 41.6999 35.65 42.2399 36.38C42.6699 36.97 43.5599 37.36 44.1499 36.71Z" fill="black"/>
<path d="M62.83 29.4502C65.49 26.7002 68.21 24.0102 70.82 21.2102C73.43 18.4102 75.87 15.1802 78.86 12.7202C80.3 11.5402 80.18 8.8502 79.39 7.4002C78.52 5.7802 76.94 5.6302 75.85 7.1202C74.76 8.6102 73.47 9.9102 72.23 11.2802C70.88 12.7702 69.55 14.2602 68.26 15.8002C65.62 18.9602 63.18 22.2602 60.76 25.5902C60.13 26.4602 60.2 27.9602 60.71 28.8502C61.13 29.5902 62.07 30.2202 62.83 29.4402V29.4502Z" fill="black"/>
<path d="M40.33 79.7299C41.36 87.4399 41.87 95.3199 41.8 103.09C41.79 104.36 42.54 106.45 44.1 106.41C45.66 106.37 46.22 104.23 46.23 102.98C46.31 94.6699 45.28 86.5399 42.91 78.5599C42.69 77.8099 42.17 76.7899 41.21 77.1599C40.25 77.5299 40.22 78.9199 40.33 79.7199V79.7299Z" fill="black"/>
<path d="M58.96 80.0098C59.05 87.6998 59.44 95.4298 60.28 103.07C60.42 104.31 60.9 106.36 62.53 106.32C64.05 106.28 64.7 104.18 64.62 102.96C64.1 95.0598 63.12 87.1398 61.82 79.3398C61.69 78.5698 61.07 77.5898 60.18 77.7798C59.29 77.9698 58.96 79.1898 58.97 79.9998L58.96 80.0098Z" fill="black"/>
<path d="M52.13 28.9698L52.15 29.1298L52.79 26.4598L52.66 26.5798L53.43 26.2398L53.48 26.2598L54.43 27.3198L54.34 27.0698L54.54 28.8898C54.64 28.0798 55.47 26.7698 55.88 25.9298C56.47 24.7198 57.1 23.5198 57.76 22.3398C59.04 20.0398 60.46 17.8298 61.98 15.6798L59.41 11.9698C57.45 15.4898 55.11 18.7398 52.36 21.6898L54.72 26.0798C57.48 22.1198 60.43 18.3098 63.62 14.6798L61.17 10.1298C59.34 13.4398 57.17 16.5198 54.61 19.3098C53.62 20.3898 53.44 22.0998 54 23.4398C54.47 24.5698 55.64 25.3898 56.73 24.4498C58.5 22.9098 60.14 21.2498 61.63 19.4398L59.09 14.7198C57.92 16.8498 56.75 18.9898 55.58 21.1198C54.91 22.3398 54.82 23.9498 55.52 25.1798C56.04 26.0998 57.22 26.8898 58.15 25.9098C60.63 23.3298 63.11 20.7398 65.58 18.1598L62.65 13.9298C61.78 16.5098 60.53 18.8298 58.9 21.0098L61.98 25.4598C63.05 23.5098 64.28 21.6798 65.67 19.9398L62.23 16.0898C61.62 17.5098 60.75 18.8298 59.71 19.9798L62.45 25.0698C63.21 23.5798 64.11 22.2298 65.26 21.0198C66.41 19.8098 66.54 17.9198 65.93 16.4598C65.37 15.1198 64.17 14.4098 62.92 15.3398C61.26 16.5798 59.89 18.1598 58.85 19.9498C58.16 21.1398 58.07 22.7598 58.61 24.0298C59.03 25.0198 59.99 25.9698 61.14 25.5098C65.88 23.6198 69.85 20.3198 72.78 16.1698C73.81 14.7198 73.52 12.0598 72.2 10.8798C71.65 10.8098 71.75 11.3198 72.48 12.4198C72.65 11.1598 72.42 9.49979 71.37 8.62979C70.38 7.81979 69.39 8.34979 68.7 9.21979C68.29 9.74979 67.87 10.2698 67.46 10.7998L71.24 13.9898C71.18 14.1898 71.09 14.3598 70.95 14.5198C71.11 14.3498 71.28 14.2098 71.47 14.0998C73.38 12.7698 72.47 6.72979 69.61 7.97979C66.75 9.22979 64.55 11.1198 62.68 13.5298C61.26 15.3698 62.65 20.8598 65.49 18.7598L70.07 15.3898C71.18 14.5798 72.58 13.0498 74.04 13.0898L73.29 6.47979C70.08 8.31979 66.92 10.2598 63.84 12.3198C61.07 14.1698 58.3 16.0898 56.1 18.6198C51.69 23.6898 49.47 30.4598 49.99 37.1598L54.32 36.1598C53.96 33.3398 53.61 30.5198 53.25 27.6998C53.12 26.6598 52.24 25.2498 51.05 25.2798C49.86 25.3098 49.08 26.7598 48.97 27.8098C48.41 33.5798 48.2 39.3798 48.39 45.1798L52.83 45.0698C52.47 40.2698 52.27 35.4498 52.23 30.6398C52.22 29.4998 51.71 27.8598 50.51 27.4098C49.39 26.9898 48.32 28.0098 48.03 29.0298C46.42 34.7098 45.53 40.4798 45.35 46.3798L49.83 46.2698C49.83 40.8598 49.83 35.4598 49.82 30.0498C49.82 28.8198 49.2 26.9298 47.78 26.7298C46.36 26.5298 45.5 28.0298 45.37 29.2498C44.79 34.6498 44.21 40.0498 43.63 45.4498L48.1 46.2598C48.05 41.1498 48 36.0398 47.94 30.9398C47.93 29.6998 47.32 27.7898 45.88 27.5798C44.44 27.3698 43.73 28.9198 43.44 30.1198C42.15 35.5698 41.49 41.1098 41.31 46.6998L45.85 46.5898V46.3998C45.64 47.2198 45.44 48.0398 45.24 48.8598L45.35 48.7098L44.37 49.6198L43.38 49.3898L42.54 48.1698L42.64 48.4798L42.35 45.8198C42.86 44.8598 42.89 44.6198 42.44 45.1098C42.2 45.3598 41.97 45.6298 41.77 45.9098C41.5 46.3198 41.31 46.7598 41.16 47.2198C40.69 48.6798 40.85 50.2898 41.49 51.6698C42.61 54.0498 44.78 54.3798 47.15 54.1798C49.52 53.9798 51.74 53.7798 54.04 53.5798C55.11 53.4898 56.17 53.3998 57.24 53.2998C58.25 53.2098 59.29 53.1698 60.13 52.5298C62.15 50.9698 61.96 48.0998 62.07 45.7998C62.18 43.4998 62.27 41.2298 62.33 38.9498C62.46 34.3798 62.48 29.8098 62.42 25.2298C62.41 24.2098 62.06 22.9798 61.23 22.2998C60.6 21.7798 59.54 21.6498 58.96 22.3598C53.5 28.9398 53.16 37.5598 53.29 45.7298L57.77 45.6198C57.39 38.4598 57.02 31.3098 56.64 24.1498C56.58 22.9298 56.07 21.0698 54.62 20.8598C53.26 20.6698 52.34 22.1398 52.23 23.3498C51.6 30.5798 51.27 37.8198 51.35 45.0798L55.93 44.9698C55.38 39.8898 54.83 34.8198 54.28 29.7398C54.14 28.4598 53.73 26.5198 52.17 26.2898C50.74 26.0798 49.79 27.6298 49.67 28.8998C49.2 33.8998 48.73 38.9098 48.25 43.9098L52.9 45.7298C53.2 41.7998 53.8 37.8798 54.86 34.0698L50.36 32.3398C50.79 36.3198 51.23 40.2998 51.66 44.2798C51.81 45.6398 52.34 47.8898 54.13 47.8498C55.92 47.8098 56.36 45.5098 56.42 44.1698C56.51 42.2298 56.97 40.1298 57.65 38.2098L53.29 37.4498C53.65 40.4298 53.68 43.5198 53.52 46.5398L58.23 46.4198C58.11 44.5098 58.27 42.8598 58.86 40.9998L54.45 39.3098C54.45 41.9498 54.45 44.5898 54.45 47.2298L59.11 47.1198C58.98 45.1798 59.04 43.3098 59.33 41.3898L54.85 41.4998C55.35 44.4198 55.84 47.3398 56.34 50.2498C56.52 51.3298 57.36 52.8098 58.64 52.7798C60 52.7498 60.54 51.2198 60.81 50.1398C61.06 49.1198 61.31 48.0898 61.56 47.0698L57 46.2498C56.88 48.7598 57.15 51.3098 57.77 53.7498C58.09 54.9998 59.1 56.8098 60.67 56.1398C62.15 55.4998 62.52 53.1498 62.18 51.7798C61.71 49.8998 61.54 48.0898 61.63 46.1498C61.69 44.8998 60.95 42.9398 59.54 42.7398C58 42.5198 57.37 44.0998 57.06 45.3198C56.81 46.3398 56.56 47.3698 56.31 48.3898L60.77 48.2798C60.28 45.3598 59.79 42.4398 59.3 39.5198C59.12 38.4398 58.28 36.9498 57 36.9798C55.72 37.0098 55 38.5398 54.83 39.6298C54.44 42.1398 54.31 44.6998 54.47 47.2398C54.56 48.5798 55.18 50.7698 56.89 50.7298C58.6 50.6898 59.13 48.4398 59.13 47.1198C59.13 44.4798 59.15 41.8398 59.16 39.1998C59.16 37.9998 58.61 36.2698 57.36 35.7998C56.11 35.3298 55.1 36.4398 54.75 37.5098C53.8 40.4298 53.37 43.4798 53.54 46.5498C53.62 47.8998 54.26 50.1198 55.98 50.0798C57.7 50.0398 58.17 47.7598 58.25 46.4298C58.46 42.7398 58.27 39.0898 57.83 35.4298C57.71 34.3998 56.88 33.0498 55.79 32.8898C54.65 32.7298 53.83 33.6598 53.47 34.6698C52.36 37.7998 51.82 40.9898 51.67 44.2898L56.43 44.1698C56 40.1898 55.58 36.2098 55.15 32.2198C55.02 30.9698 54.67 29.2598 53.31 28.7498C52.12 28.2998 50.96 29.3898 50.65 30.4898C49.42 34.8798 48.57 39.3398 48.26 43.8998C48.16 45.4198 48.34 47.6998 50.04 48.3398C51.61 48.9298 52.8 47.0598 52.92 45.7298C53.36 40.7098 53.8 35.6998 54.24 30.6798L49.73 30.7898C50.31 35.8598 50.9 40.9298 51.48 45.9998C51.62 47.1898 52.7 48.7598 54.05 48.4298C55.49 48.0798 55.97 46.2498 55.95 44.9598C55.83 38.3198 56.01 31.6598 56.6 25.0398L52.2 24.2398C52.57 31.3998 52.94 38.5598 53.32 45.7098C53.39 46.9998 54.01 49.0998 55.64 49.0598C57.27 49.0198 57.81 46.8498 57.8 45.5998C57.72 39.7098 57.4 33.0198 61.41 28.1898L57.96 25.3198C58.04 31.6898 57.94 38.0598 57.66 44.4198C57.63 45.1498 57.59 45.8898 57.55 46.6198C57.54 46.8598 57.5 47.2798 57.52 47.2798L58.25 46.2598C58.18 46.3098 58.1 46.3298 58.02 46.3098C57.44 46.1198 56.25 46.4598 55.63 46.5198C54.89 46.5798 54.15 46.6498 53.41 46.7098C51.77 46.8498 50.13 46.9898 48.49 47.1298C47.77 47.1898 47.04 47.2598 46.32 47.3098C45.99 47.3298 45.63 47.3898 45.3 47.3398C44.02 47.1598 45.44 46.6698 45.46 48.8298L45.19 50.5798C44.81 51.0598 44.8 51.1098 45.16 50.7498C45.42 50.5198 45.66 50.2598 45.85 49.9598C46.13 49.5598 46.39 49.1298 46.55 48.6698C47.12 47.0398 46.96 44.9298 45.81 43.5998C45.13 42.8098 44.14 42.4698 43.14 42.9098C41.76 43.5198 41.3 45.3098 41.37 46.6698C41.44 48.0298 42.07 50.1098 43.72 50.0698C45.37 50.0298 45.86 47.8398 45.9 46.5598C46.06 41.5898 46.78 36.6598 47.93 31.8298L43.44 31.0198C43.49 36.1298 43.56 41.2398 43.62 46.3398C43.63 47.5698 44.24 49.4798 45.67 49.6798C47.1 49.8798 47.97 48.3798 48.1 47.1498C48.67 41.7498 49.24 36.3398 49.82 30.9398L45.37 30.1398C45.38 35.5498 45.4 40.9498 45.41 46.3598C45.41 47.6498 46.14 49.7598 47.73 49.7198C49.32 49.6798 49.85 47.5098 49.89 46.2498C50.02 41.5598 50.74 36.8598 52.02 32.3398L47.82 30.7298C47.87 35.5498 48.08 40.3598 48.44 45.1598C48.54 46.4298 49.1 48.5198 50.74 48.4798C52.38 48.4398 52.92 46.2898 52.87 45.0498C52.69 39.8498 52.82 34.6598 53.33 29.4798L49.06 29.5798C49.42 32.3998 49.77 35.2198 50.13 38.0398C50.28 39.1898 51.3 40.7198 52.62 40.3998C53.94 40.0798 54.56 38.2798 54.46 37.0398C54.26 34.5198 54.48 32.3698 55.33 29.9598C56.18 27.5498 57.57 25.2798 59.39 23.4298C61.41 21.3698 63.78 19.7198 66.18 18.1398C68.95 16.3198 71.78 14.5898 74.66 12.9398C76.73 11.7498 76.93 6.39979 73.91 6.32979C71.79 6.27979 70.13 7.83979 68.52 9.01979L63.15 12.9798L65.96 18.2098C67.27 16.5198 69.04 15.2898 70.98 14.4498L69.12 8.32979C67.83 9.22979 67.18 10.7998 66.95 12.2998C66.76 13.5398 67.02 15.2298 68.06 16.0898C69.1 16.9498 70.04 16.3698 70.73 15.4998C71.14 14.9698 71.56 14.4498 71.97 13.9198L68.19 10.7298C67.89 12.9598 68.4 15.2198 70.13 16.7598L69.55 11.4698C67.12 14.9098 63.71 17.4598 59.83 19.0598L62.11 24.6198C62.93 23.1698 63.96 22.0298 65.29 21.0198L62.95 15.3398C61.5 16.8998 60.27 18.5998 59.32 20.4998C58.66 21.8398 58.49 23.4698 59.26 24.8098C59.8 25.7498 61.1 26.6698 62.06 25.5898C63.75 23.6798 65.04 21.6198 66.03 19.2698C66.94 17.0898 64.9 12.4698 62.59 15.4198C61.21 17.1798 60 19.0298 58.95 20.9998C58.22 22.3598 58.14 24.2198 59.06 25.5198C59.93 26.7498 61.2 26.5798 62.03 25.4498C63.9 22.8898 65.35 20.0198 66.34 16.9998C66.73 15.7998 66.68 14.2598 65.92 13.1998C65.35 12.3998 64.19 11.9398 63.41 12.7698C60.95 15.3898 58.48 17.9998 56.02 20.6198L58.59 25.4098C59.75 23.2598 60.9 21.1098 62.06 18.9598C62.71 17.7498 62.81 16.1698 62.12 14.9598C61.64 14.1198 60.38 13.1898 59.52 14.2398C58.02 16.0598 56.41 17.7498 54.65 19.3198L56.77 24.4598C59.58 21.3298 62.03 17.9198 64.04 14.2198C64.67 13.0598 64.76 11.5298 64.1 10.3598C63.63 9.52979 62.44 8.67979 61.6 9.66979C58.18 13.6398 54.96 17.7898 52.05 22.1498C51.36 23.1798 51.4 24.8198 52 25.8698C52.46 26.6798 53.58 27.4698 54.42 26.5398C57.38 23.2298 59.95 19.6098 62.04 15.6898C62.64 14.5498 62.72 13.0098 61.95 11.9198C61.25 10.9298 60.13 10.9998 59.47 11.9798C56.99 15.6698 54.87 19.5998 53.07 23.6598C52.25 25.5198 50.96 27.7298 51.88 29.7798C52.25 30.5998 53.1 31.2898 54.02 30.8598C55.21 30.3098 55.3 28.7798 55.13 27.6698C54.99 26.7798 54.21 25.6898 53.2 26.0798C52.12 26.4898 52.08 28.0798 52.2 28.9898L52.13 28.9698Z" fill="black"/>
<path d="M42.2 81.6299C42.36 87.4799 43.31 93.2599 44.66 98.9499C44.93 100.07 45.75 101.65 47.15 101.31C48.55 100.97 49.1 99.1899 48.99 97.9499C48.43 91.4499 47.51 84.9799 46.17 78.5999C45.92 77.3799 44.86 75.6699 43.39 76.3099C41.92 76.9499 41.7 79.1499 41.94 80.4999C43.19 87.3299 44.91 94.0599 47 100.68C47.32 101.69 48.46 102.64 49.54 102.17C50.75 101.65 51.07 100.03 51.09 98.8799C51.18 93.1799 50.92 87.4799 50.31 81.8199C50.17 80.5499 49.68 78.4599 48.01 78.4999C46.48 78.5399 45.76 80.6899 45.88 81.9299C46.46 88.1699 47.67 94.2399 49.51 100.24C49.82 101.25 50.97 102.19 52.05 101.73C53.26 101.21 53.58 99.5899 53.6 98.4399C53.68 92.8099 53.4 87.1899 52.77 81.5999C52.63 80.3299 52.14 78.2399 50.47 78.2799C48.94 78.3199 48.22 80.4699 48.34 81.7099C48.85 87.2299 49.96 92.5899 51.72 97.8499C52.06 98.8499 53.17 99.8099 54.26 99.3399C55.44 98.8299 55.84 97.1899 55.81 96.0499C55.69 91.7099 55.57 87.3599 55.45 83.0199L51.02 83.1299C51.55 88.0299 52.52 92.7699 53.96 97.4899C54.27 98.4999 55.42 99.4399 56.5 98.9799C57.7 98.4599 58.03 96.8399 58.05 95.6899C58.1 91.4899 58.15 87.2999 58.21 83.0999L53.88 84.0999C54.56 88.9399 55.24 93.7899 55.91 98.6299C56.07 99.7799 57.07 101.31 58.4 100.99C59.82 100.64 60.23 98.8899 60.24 97.6299C60.27 93.4699 60.3 89.3099 60.33 85.1499L55.9 85.2599C55.9 87.7399 55.9 90.2099 55.9 92.6899L60.33 92.5799C60.29 89.2699 60.4 85.8799 60.65 82.7999L56.28 82.0099C56.84 88.3399 57.44 94.6699 57.95 101.01L60.68 97.6799C55.7 96.1199 50.61 96.0299 45.56 97.3099C44.9 97.4799 44.35 98.4999 44.15 99.0499C43.84 99.8999 43.76 101.03 43.98 101.91C44.34 103.4 45.31 104.93 47.03 104.42C51.1 103.22 55.56 103.15 59.66 104.23C61.52 104.72 62.54 102.46 62.39 100.9C61.78 94.5699 61.27 88.2299 60.72 81.8999C60.61 80.6899 60.18 78.8399 58.72 78.6299C57.38 78.4399 56.45 79.8999 56.35 81.1099C56.03 84.9599 55.87 88.8199 55.91 92.6799C55.92 93.9499 56.63 96.0399 58.21 95.9999C59.79 95.9599 60.34 93.8199 60.34 92.5699C60.34 90.0899 60.34 87.6199 60.34 85.1399C60.34 83.8699 59.61 81.7799 58.04 81.8199C56.47 81.8599 55.92 83.9999 55.91 85.2499C55.88 89.4099 55.85 93.5699 55.82 97.7299L60.15 96.7299C59.47 91.8899 58.79 87.0399 58.12 82.1999C57.96 81.0499 56.96 79.5199 55.63 79.8399C54.21 80.1899 53.81 81.9399 53.79 83.1999C53.74 87.3999 53.69 91.5899 53.63 95.7899L57.72 93.9899C56.67 90.5799 55.83 86.3599 55.46 83.0199C55.32 81.7499 54.83 79.6599 53.16 79.6999C51.49 79.7399 50.99 81.8799 51.03 83.1299C51.15 87.4699 51.27 91.8199 51.39 96.1599L55.48 94.3599C54.14 90.3499 53.16 85.6099 52.79 81.6099L48.36 81.7199C48.99 87.3099 49.27 92.9299 49.19 98.5599L53.28 96.7599C51.84 92.0499 50.78 86.5499 50.34 81.8399L45.91 81.9499C46.52 87.6199 46.78 93.3099 46.69 99.0099L50.78 97.2099C48.88 91.1999 47.35 84.8999 46.21 78.6299L41.98 80.5299C43.21 86.3899 44.1 92.2999 44.6 98.0899L48.93 97.0899C47.66 91.7299 46.69 86.2999 45.61 80.8899C45.43 80.0099 44.74 78.7999 43.67 79.0599C42.6 79.3199 42.21 80.6999 42.24 81.6699L42.2 81.6299Z" fill="black"/>
<path d="M60.11 77.5899C59.49 79.6999 59.75 82.1799 59.93 84.3599C60.09 86.2999 60.26 88.2299 60.4 90.1699C60.7 94.3399 60.77 98.6099 61.38 102.74C61.56 103.95 62.6 105.57 64.01 105.23C65.42 104.89 65.98 103 65.95 101.68C65.87 97.7499 65.23 93.7499 64.85 89.8299C64.67 87.8899 64.51 85.9599 64.34 84.0199C64.25 82.9099 64.14 81.7999 63.96 80.6999C63.78 79.5999 63.71 78.4699 63.22 77.5099C62.9 76.8799 62.45 76.1699 61.63 76.1899C60.89 76.2099 60.3 76.9299 60.11 77.5899Z" fill="black"/>
<path d="M250.88 57.2498C251.44 55.9898 251.42 54.4498 251.49 53.0898C251.56 51.7298 251.6 50.4598 251.63 49.1398C251.68 46.6798 251.59 44.1998 251.52 41.7398C251.37 36.7398 251.31 31.6198 250.61 26.6598C249.91 21.6998 246.07 18.4598 242.69 14.9998C239.11 11.3298 235.52 7.65982 231.94 3.98982C230.8 2.82982 229.35 4.13982 228.94 5.26982C228.38 6.81982 228.69 8.67982 229.85 9.86982C233.2 13.2998 236.55 16.7398 239.91 20.1698C241.48 21.7798 243.08 23.3798 244.63 25.0098C245.77 26.2198 246.35 27.3598 246.52 28.8998C247.04 33.5098 247.17 38.1998 247.33 42.8298C247.41 45.1298 247.41 47.4398 247.51 49.7398C247.61 52.1698 247.33 55.0298 248.24 57.3198C248.85 58.8698 250.29 58.5998 250.89 57.2498H250.88Z" fill="black"/>
<path d="M246.13 8.17994C247.4 10.4299 249.44 12.0599 251.35 13.7499C253.04 15.2399 254.72 16.7399 256.4 18.2399C259.35 20.8799 262.22 23.5899 263.41 27.4799C264.68 31.6099 265.05 36.1499 265.46 40.4299C265.69 42.7999 265.88 45.1799 266.04 47.5599C266.22 50.1399 266.2 52.7999 266.64 55.3499C266.84 56.4899 267.78 58.0399 269.13 57.7099C270.58 57.3499 270.9 55.6099 270.97 54.3499C271.1 51.7599 270.72 49.0599 270.54 46.4699C270.36 43.8799 270.17 41.5499 269.92 39.0999C269.4 34.0099 268.94 28.7099 267.29 23.8399C265.76 19.3399 262.65 15.9399 259.14 12.8499C257.37 11.2899 255.57 9.74994 253.8 8.18994C252.03 6.62994 250.08 4.47994 247.67 3.78994C245.26 3.09994 245.43 6.95994 246.12 8.17994H246.13Z" fill="black"/>
<path d="M233.53 9.19012C235.22 11.1901 236.91 13.1801 238.54 15.2201C239.86 16.8601 241.34 15.5301 241.64 13.8801C242.2 10.8801 241.57 8.06012 240.05 5.45012C239.41 4.34012 238.04 4.33012 237.28 5.27012C236.44 6.30012 236.21 8.22012 236.84 9.42012C238.65 12.8301 240.71 16.0601 243.16 19.0501C243.87 19.9201 244.91 20.3601 245.84 19.5101C246.86 18.5801 246.96 16.9601 246.76 15.7001C246.22 12.2301 244.79 8.89012 242.66 6.10012C241.86 5.05012 240.63 4.82012 239.74 5.91012C238.85 7.00012 238.67 8.96012 239.28 10.2801C241.42 14.9201 244.32 19.0001 247.94 22.5901C248.82 23.4601 250.06 22.8701 250.62 22.0001C251.38 20.8101 251.36 19.1701 250.87 17.9001C249.35 13.9301 247.43 10.1301 245.2 6.52012C244.38 5.20012 242.76 5.36012 241.97 6.60012C241.02 8.09012 241.26 10.0601 242.09 11.5201C244.81 16.3201 248.08 20.7201 251.78 24.8201C252.67 25.8101 254.07 25.0801 254.64 24.1801C255.39 23.0101 255.55 21.0401 254.9 19.7901C253.19 16.5201 251.5 13.2401 249.81 9.97012L246.05 14.6101C248.41 18.7201 251.36 22.4301 254.66 25.8301C255.49 26.6801 256.76 26.2601 257.41 25.4701C258.3 24.3801 258.44 22.8201 258.2 21.4701C257.64 18.2901 256.65 15.1701 255.25 12.2501C254.61 10.9201 253.18 9.74012 251.81 10.9701C250.44 12.2001 250.37 14.6301 251.04 16.1701C252.18 18.7801 253.92 21.1001 256.3 22.7001C258.26 24.0201 259.49 22.1201 259.9 20.3401C260.37 18.2901 259.81 15.9601 258.51 14.3201C257.47 13.0101 256.09 12.1101 254.74 11.1301C251.91 9.08012 249.09 7.03012 246.26 4.99012C245.16 4.19012 243.97 4.54012 243.25 5.66012C242.39 7.02012 242.46 8.81012 242.97 10.2701C245.35 17.0601 247.98 23.7501 250.84 30.3501C251.38 31.6001 252.65 32.7301 254 31.8301C255.35 30.9301 255.72 28.7701 255.34 27.3101C254.56 24.3601 253.79 21.4101 253.01 18.4601C252.68 17.2001 251.8 15.4001 250.19 15.7901C248.58 16.1801 248.04 18.1801 248.11 19.5901C248.39 25.1901 249.08 30.7701 250.19 36.2701C250.45 37.5601 251.46 39.3401 253.03 38.9601C254.6 38.5801 255.13 36.5601 255.13 35.1301C255.13 30.9201 255.13 26.7101 255.12 22.5001L250.04 22.6201C250.13 27.7101 250.65 32.8001 251.58 37.8001C251.82 39.1201 252.88 40.9101 254.46 40.5301C256.15 40.1201 256.5 38.1001 256.59 36.6401C256.85 32.1001 257.12 27.5501 257.38 23.0101L252.33 24.1801C253.14 28.5901 253.95 33.0001 254.77 37.4101C255.02 38.7501 256.09 40.5701 257.7 40.1801C259.38 39.7701 259.83 37.7101 259.86 36.2301C259.97 31.3801 260.06 26.5301 260.12 21.6901L255.1 22.8501C256.14 27.3801 257.15 31.9201 258.15 36.4601C258.44 37.7601 259.41 39.5601 261.01 39.1701C262.61 38.7801 263.06 36.7601 263.12 35.3101C263.3 31.2001 263.49 27.1001 263.67 22.9901L258.68 24.1501C259.45 27.7001 260.22 31.2401 260.98 34.7901C261.24 35.9701 262.06 37.6001 263.49 37.5601C264.92 37.5201 265.75 35.8601 265.86 34.6701C266.18 31.2301 266.07 27.8601 265.5 24.4501C265.26 23.0501 263.98 21.1301 262.33 21.8401C260.68 22.5501 260.44 25.0601 260.68 26.6101C261.25 30.2001 261.81 33.7801 262.38 37.3701L267.24 35.1901L266.37 30.1501C266.14 28.8301 265.06 27.0501 263.5 27.4301C261.94 27.8101 261.33 29.8701 261.38 31.3101C261.53 36.1201 261.67 40.9301 261.83 45.7401L266.88 44.5701C266.25 40.3701 265.63 36.1701 265 31.9801C264.8 30.6401 263.65 28.8401 262.09 29.2201C260.44 29.6201 259.94 31.6801 259.94 33.1501C259.94 36.5501 259.48 40.3101 258.54 43.7401L263.3 44.5701C262.1 39.5601 261.14 34.4901 260.42 29.3901C260.23 28.0401 259.06 26.2401 257.5 26.6201C255.8 27.0301 255.4 29.0801 255.34 30.5601C255.13 35.3701 254.6 40.5201 253.82 45.5101L258.53 44.4501C257.85 42.6201 257.43 40.8001 257.09 38.7601C256.97 38.0701 257.05 38.6401 256.99 37.9901C256.93 37.3801 256.9 36.7701 256.88 36.1601C256.86 35.7001 256.86 35.2501 256.86 34.7901C256.86 34.4901 256.86 34.1801 256.88 33.8801C256.9 33.3801 256.91 33.2701 256.89 33.5601L251.8 32.6401C251.93 37.4101 251.67 41.6001 250.91 46.3301L256 47.2501C255.71 42.3101 255.43 37.3701 255.13 32.4301C255.04 31.0101 254.47 28.8501 252.79 28.6101C251.23 28.3901 250.12 30.1001 250.01 31.5101C249.74 35.2701 249.46 39.0401 249.19 42.8001L254.27 43.7201C254.27 41.6301 254.27 39.5301 254.26 37.4401L249.13 37.5701C249.14 40.1301 249.15 42.7001 249.16 45.2601L254.15 44.1001C253.7 42.0001 253.65 40.2801 253.99 38.1501L249.1 38.2701C249.7 42.7101 249.86 47.5801 249.62 52.2401C249.55 53.6701 250.51 56.1001 252.25 56.0401C254.5 55.9701 256.74 55.8901 258.99 55.8201C261.24 55.7501 263.54 55.8801 265.73 55.5701C268.75 55.1501 269.44 51.8901 269.15 49.3101C268.88 46.9501 268.23 44.6401 267.25 42.4701C266.72 41.3101 265.65 40.1801 264.27 40.7201C261.51 41.8101 258.69 42.3001 255.73 42.2701C252.2 42.2301 252.37 50.0601 255.93 50.2601C258.11 50.3801 260.28 50.6001 262.43 51.0001L260.46 46.1001L260.39 46.4001L261.03 44.6101C261.22 44.4401 261.45 44.3301 261.7 44.2701C259.85 44.6301 259.06 46.6101 259.15 48.3601C259.22 49.5901 260.01 52.6901 261.89 52.3301C264.16 51.8901 265.09 50.2801 265.6 48.1201C266.08 46.0901 265.09 43.4801 262.93 43.0901C260.55 42.6601 258.15 42.3901 255.73 42.2801L255.93 50.2701C259.32 50.2701 262.7 49.6001 265.85 48.3301L262.87 46.5801C263.5 47.9601 263.74 48.7301 264.04 50.1501C264.11 50.6301 264.13 50.7201 264.1 50.4201C263.99 49.4201 264.42 48.5301 265.39 47.7501C265.15 47.7101 264.83 47.7801 264.59 47.7901C263.71 47.8301 262.83 47.8601 261.94 47.9001L252.07 48.3101L254.7 52.1101C254.95 46.7501 254.65 41.4101 253.95 36.0901C253.79 34.9001 252.8 33.2801 251.43 33.3101C250.06 33.3401 249.24 35.0101 249.05 36.2101C248.51 39.5601 248.59 42.9601 249.29 46.2801C249.56 47.5801 250.57 49.3801 252.16 48.9901C253.75 48.6001 254.28 46.5701 254.28 45.1201C254.28 42.5601 254.28 39.9901 254.28 37.4301C254.28 35.9601 253.44 33.5401 251.62 33.5901C249.8 33.6401 249.15 36.1201 249.15 37.5601C249.15 39.6501 249.15 41.7501 249.15 43.8401C249.15 45.2401 249.86 47.4001 251.48 47.6401C253.1 47.8801 254.13 46.1601 254.24 44.7601C254.53 41.0001 254.81 37.2401 255.1 33.4801L249.98 32.5501C250.27 37.4901 250.58 42.4301 250.88 47.3701C250.97 48.7801 251.53 50.9301 253.21 51.1701C254.89 51.4101 255.75 49.6801 255.97 48.2901C256.78 43.0801 257.14 37.7801 257 32.5101C256.96 31.1001 256.31 28.9401 254.67 28.7101C253.11 28.4901 252.01 30.1901 251.91 31.5901C251.47 37.4001 252.18 43.0701 254.2 48.5501C254.59 49.6001 255.63 50.6601 256.83 50.3701C258.09 50.0601 258.73 48.6701 258.91 47.4901C259.8 41.8401 260.33 36.1501 260.58 30.4401L255.5 31.6201C256.22 36.7201 257.19 41.7901 258.39 46.8001C258.66 47.9301 259.31 49.3901 260.62 49.5801C261.81 49.7501 262.85 48.7501 263.16 47.6301C264.46 42.8401 265.15 38.0001 265.16 33.0301L260.1 34.2001C260.73 38.4001 261.36 42.5901 261.99 46.7901C262.19 48.1301 263.34 49.9201 264.89 49.5401C266.44 49.1601 267.08 47.0801 267.04 45.6201C266.88 40.8101 266.7 36.0001 266.53 31.1901L261.54 32.3501C261.84 34.0301 262.13 35.7001 262.43 37.3801C262.68 38.7901 263.96 40.7301 265.63 40.0101C267.3 39.2901 267.54 36.7601 267.29 35.2001L265.55 24.4601L260.73 26.6201C261.07 28.5901 261.16 30.7901 260.97 32.7501L265.86 32.6301C265.1 29.0801 264.35 25.5301 263.59 21.9801C263.31 20.6801 262.32 18.8801 260.72 19.2701C259.12 19.6601 258.67 21.6901 258.6 23.1401C258.41 27.2501 258.24 31.3501 258.06 35.4601L263.04 34.3101C262.03 29.7701 261.01 25.2301 260.03 20.6801C259.75 19.3701 258.75 17.5501 257.14 17.9501C255.53 18.3501 255.05 20.3901 255.01 21.8501C254.87 26.7001 254.77 31.5501 254.68 36.4001L259.77 35.2201C258.95 30.8201 258.12 26.4101 257.3 22.0101C257.05 20.6801 255.99 18.8701 254.4 19.2601C252.7 19.6801 252.34 21.7101 252.26 23.1801C252.01 27.7201 251.76 32.2701 251.51 36.8101L256.52 35.6501C255.68 31.2201 255.26 27.0701 255.17 22.5401C255.14 21.0801 254.36 18.6901 252.53 18.7301C250.7 18.7701 250.08 21.2301 250.08 22.6601C250.1 26.8701 250.11 31.0801 250.12 35.2901L255.06 34.1501C254.05 29.1801 253.44 24.5001 253.18 19.5101L248.28 20.6501C249.06 23.6001 249.84 26.5401 250.63 29.4901L255.12 26.4501C252.24 19.8601 249.62 13.1601 247.24 6.38012L243.96 11.6601C246.13 13.2301 248.3 14.8001 250.47 16.3801C251.52 17.1401 252.57 17.9001 253.62 18.6701C254.08 19.0101 254.55 19.3301 254.98 19.7101C255.96 20.5801 254.78 19.8701 255.1 18.5001L258.7 16.1401C257.14 15.1001 255.93 13.7601 255.29 12.2901L251.09 16.2201C252.25 18.6301 253.03 21.0101 253.5 23.6401L257.04 19.2801C254.1 16.2601 251.61 12.8701 249.44 9.27012C248.57 7.83012 246.8 8.04012 245.96 9.36012C244.92 10.9901 245.22 13.0601 246.09 14.6601C247.71 17.6401 249.33 20.6101 250.93 23.5901L254.05 18.5701C250.67 14.9201 247.74 10.8601 245.23 6.56012L242.12 11.5601C244.12 14.7001 245.79 17.9901 247.16 21.4501L250.08 16.7501C247.15 13.9201 244.77 10.5201 243.06 6.83012L239.68 11.0001C241.2 13.0001 242.16 15.1601 242.59 17.6401L246.19 14.2901C243.86 11.5701 241.82 8.64012 240.08 5.51012L237.21 10.1201C237.79 11.0701 237.99 12.1901 237.96 13.2801L240.72 10.7401C238.83 9.16012 236.99 7.54012 235.14 5.90012C233.49 4.45012 232.64 8.18012 233.54 9.25012L233.53 9.19012Z" fill="black"/>
<path d="M248.77 81.54C248.19 84.86 247.75 88.17 247.75 91.55C247.75 94.93 247.75 98.13 247.75 101.41C247.75 102.75 248.47 104.66 250.05 104.73C252.4 104.83 252.83 101.53 252.53 99.9C252.31 98.67 251.2 96.98 249.75 97.61C248.3 98.24 248.06 100.45 248.3 101.8L248.34 102L248.83 98.7L248.99 98.48L250.1 97.99H249.89C250.66 99.09 251.42 100.19 252.19 101.3C252.19 98.01 252.19 94.72 252.19 91.44C252.19 88.16 251.72 84.78 251.15 81.48C251.05 80.91 250.61 80.12 249.93 80.13C249.25 80.14 248.88 80.96 248.78 81.54H248.77Z" fill="black"/>
<path d="M267.77 81.4501C267.38 83.1901 267.04 84.9301 266.72 86.6801C266.4 88.4301 266.29 90.1301 266.13 91.8701C265.81 95.4301 265.58 99.0101 265.16 102.55L267.27 99.9801C264.28 99.6801 261.31 99.4101 258.31 99.2301C256.89 99.1501 255.47 99.0801 254.05 98.9901C253.97 98.9901 252.88 98.8901 252.93 98.7801C252.96 98.7101 253.51 99.6801 253.55 99.7501L253.59 100.13C253.58 99.9601 253.57 99.7801 253.56 99.6101C253.27 93.7901 253.19 87.9701 253.42 82.1501L251.03 85.9901C256.89 85.1301 262.79 85.2201 268.62 86.2301L265.97 82.4001C265.82 81.1501 266.17 80.3101 267.01 79.8701L266.78 79.9901C266.72 80.0101 266.01 80.2401 266.44 80.1401C265.75 80.3001 265.01 80.3001 264.31 80.3801C262.7 80.5701 261.09 80.8201 259.49 81.1301C257.8 81.4501 256.11 81.8401 254.44 82.2701C252.77 82.7001 250.8 82.9401 249.88 84.5001C248.56 86.7601 248.89 90.1501 250.98 91.8501C252.19 92.8401 253.96 93.2701 255.46 93.5701C257.07 93.8901 258.65 94.0201 260.29 93.9201C260.99 93.8801 261.87 93.7501 262.55 93.9201C262.43 93.8901 263.39 94.2101 263.05 94.1101C262.91 94.0201 262.96 94.0701 263.22 94.2601C262.91 93.9601 262.73 93.5901 262.68 93.1301C263.04 94.4601 263.95 96.3601 265.65 95.9401C267.35 95.5201 267.82 93.4301 267.84 91.9301C267.84 91.7901 267.91 90.2601 267.86 90.9101C267.89 90.4901 267.93 90.0801 267.98 89.6601C268.09 88.6901 268.26 87.7301 268.46 86.7701L263.37 86.8901C263.41 87.1501 263.45 87.4101 263.47 87.6701C263.42 87.2301 263.45 87.5001 263.47 87.7801C263.51 88.3001 263.54 88.8301 263.56 89.3501C263.58 89.8701 263.58 90.4001 263.56 90.9201C263.56 91.1801 263.54 91.4401 263.53 91.7101C263.56 91.1301 263.53 91.7601 263.5 92.0201C263.4 93.0701 263.25 94.1101 263.05 95.1401C263 95.4001 262.94 95.6501 262.89 95.9101C262.75 96.5501 263.02 95.4601 262.85 96.0901C262.7 96.6601 262.53 97.2301 262.35 97.7901L264.57 95.7501C264.4 95.7701 264.22 95.8001 264.04 95.7801C264.46 95.8301 264.02 95.7801 264.02 95.7101C264.02 96.1001 264.36 95.5201 264.02 95.6701C264.37 96.0901 264.04 95.6701 264.02 95.6701C263.78 95.3801 263.92 95.4501 264.02 95.7301C263.95 95.5501 263.88 95.3701 263.8 95.1901C263.91 95.4501 263.94 95.7601 263.88 95.3101C263.96 95.8901 263.92 95.7101 263.89 95.2301C263.74 92.6401 263.56 90.2201 262.15 87.9501C261.44 86.8001 259.97 86.4801 258.96 87.4001C257.76 88.4901 257.59 90.4501 257.87 91.9401C257.93 92.2701 257.99 92.6101 258.04 92.9401C258.07 93.1501 258.17 93.8601 258.1 93.3001C258.18 93.9701 258.22 94.6601 258.24 95.3301C258.26 95.9401 258.26 96.5501 258.24 97.1701C258.24 97.3901 258.19 98.1001 258.24 97.5301C258.21 97.9401 258.16 98.3401 258.12 98.7501L263.17 98.6301C262.63 94.5301 262.09 90.4301 261.54 86.3301C261.38 85.1101 260.36 83.4401 258.95 83.4701C257.54 83.5001 256.62 85.2201 256.51 86.4501C256.2 89.8001 255.88 93.1601 255.57 96.5101L260.59 96.3901C259.71 93.0801 258.83 89.7801 257.96 86.4701C257.64 85.2701 256.89 83.5801 255.38 83.6201C253.87 83.6601 253.23 85.3701 252.94 86.5901C252.36 89.0001 251.78 91.4001 251.2 93.8101L256.24 93.6901C255.93 92.5301 255.62 91.3601 255.3 90.2001C254.98 89.0401 254.22 87.3001 252.7 87.3301C251.18 87.3601 250.4 89.0801 250.25 90.3201C249.92 92.8901 249.8 95.4801 249.94 98.0701C250.02 99.5801 250.75 102.06 252.67 102.01C254.59 101.96 255.19 99.4201 255.2 97.9401C255.22 96.2601 255.23 94.5901 255.24 92.9101C255.25 91.5701 254.61 89.6201 253.22 89.1001C251.9 88.6001 250.65 89.8101 250.3 91.0101C249.33 94.3401 249.79 98.0701 252.26 100.64C254.06 102.51 256.89 102.97 259.24 101.94L257.66 94.2701C256.59 94.8301 255.53 95.3901 254.46 95.9501C251.92 97.2901 252.22 101.46 254.01 103.26C256.73 105.99 261.04 103.91 262.02 100.61C262.38 99.4201 262.43 98.2601 262.06 97.0601C261.81 96.2301 261.26 95.0401 260.31 94.7901C257.36 94.0401 256.13 97.3701 256.41 99.7901C256.69 102.21 258.86 104.71 261.27 102.79C263.82 100.75 261.85 93.2801 258.46 95.9801L258.29 96.1201L259.6 95.5401L260.31 95.9201L261.28 97.3301L261.18 97.1301L261.59 99.1301V98.9101C261.37 99.8601 261.14 100.8 260.91 101.75L260.3 102.43L258.91 102.46L259.12 102.51L257.41 96.6901C257.28 97.1301 257.44 96.6701 257.53 96.5101C257.8 96.2101 257.85 96.1401 257.69 96.3101C257.57 96.4101 257.58 96.4201 257.73 96.3101C258.18 96.2101 256.73 96.6101 257.47 96.4801C257.25 96.5201 256.51 96.4601 257.02 96.5801C256.94 96.5601 256.35 96.3301 256.71 96.5201C257.03 96.6801 256.55 96.3501 256.49 96.2901L256.04 103.6C257.11 103.04 258.17 102.48 259.24 101.92C260.9 101.05 261.36 98.6601 260.95 96.9601C260.61 95.5501 259.45 93.4701 257.66 94.2501C256.85 94.6001 255.9 94.5801 255.25 94.1401C255.42 94.2501 254.9 93.8201 254.85 93.7601C255.32 94.3101 254.47 93.0901 254.99 93.8901L254.88 93.6001C255 93.8501 255.06 94.1201 255.05 94.4001C254.98 93.7001 255.02 94.6601 254.94 94.9101L249.99 93.0101C249.97 94.6901 249.96 96.3601 249.95 98.0401L255.21 97.9101C255.15 96.8601 255.13 95.8201 255.16 94.7701C255.16 94.5601 255.17 94.3501 255.18 94.1401C255.15 94.5101 255.15 94.4401 255.19 93.9501C255.24 93.3901 255.3 92.8401 255.37 92.2801L250.32 92.4001L251.27 95.8901C251.6 97.1001 252.34 98.7901 253.86 98.7501C255.38 98.7101 256.02 96.9901 256.31 95.7601C256.88 93.3501 257.46 90.9401 258.03 88.5301L253.01 88.6501C253.89 91.9601 254.77 95.2601 255.64 98.5701C255.96 99.7701 256.71 101.46 258.22 101.42C259.63 101.39 260.54 99.6801 260.66 98.4501C260.98 95.1001 261.29 91.7501 261.61 88.4001L256.58 88.5201C257.12 92.6201 257.65 96.7201 258.19 100.82C258.35 102.04 259.37 103.72 260.79 103.68C262.21 103.64 263.1 101.93 263.24 100.69C263.67 96.9901 263.57 93.3001 262.9 89.6301L258.61 93.6201C258.25 93.0401 258.71 94.0501 258.58 93.5701C258.48 93.1901 258.65 94.1301 258.56 93.3701C258.63 93.9501 258.62 94.5401 258.65 95.1101C258.73 96.5901 258.92 98.0001 259.44 99.4001C260.24 101.57 262.2 103.98 264.77 103.68C265.89 103.55 266.65 102.68 266.99 101.64C268.79 96.0801 269.2 90.3301 268.4 84.5501C268.23 83.3201 267.21 81.6301 265.78 81.6601C264.26 81.7001 263.57 83.4301 263.31 84.6701C262.81 87.0701 262.59 89.5201 262.55 91.9701L267.71 90.7701C267.21 88.9001 266.32 87.3501 264.58 86.4001C263.34 85.7301 261.88 85.6601 260.49 85.7401C259.1 85.8201 257.71 85.8601 256.34 85.6001C255.81 85.5001 255.28 85.3501 254.76 85.1901C254.39 85.0701 254.03 84.9201 253.66 84.8001L253.3 84.6501C253.63 84.8501 253.84 85.1501 253.95 85.5601L254.36 87.5701L254.34 87.3401L254.03 89.3701L254.11 89.1401L253.2 90.6001C252.92 90.7301 252.94 90.7301 253.27 90.6001C253.53 90.5201 253.79 90.4401 254.05 90.3601C254.44 90.2401 254.83 90.1301 255.22 90.0201C256.13 89.7601 257.05 89.5201 257.97 89.3101C259.65 88.9201 261.36 88.6101 263.07 88.3501C264.78 88.0901 266.52 88.1201 268.06 87.4901C270.16 86.6401 271.22 84.3501 271.05 82.1601C270.92 80.4401 270.3 78.6201 268.4 78.3301C262.58 77.4401 256.64 77.4401 250.82 78.3301C248.99 78.6101 248.49 80.5701 248.43 82.1701C248.31 85.5401 248.26 88.9001 248.31 92.2701C248.33 93.8801 248.37 95.5001 248.44 97.1101C248.51 98.9001 248.46 100.8 248.99 102.53C249.52 104.26 250.57 105.72 252.34 106.15C253.9 106.54 255.6 106.46 257.2 106.53C260.61 106.68 264.01 106.74 267.42 106.74C269.1 106.74 269.52 104.47 269.59 103.25C269.76 100.05 270.16 96.4001 270.44 93.0201C270.59 91.1101 270.79 89.2201 270.77 87.3001C270.75 85.3801 270.72 83.6701 270.64 81.8601C270.6 81.0501 270.26 79.8601 269.32 79.7001C268.38 79.5401 267.93 80.5701 267.76 81.3301L267.77 81.4501Z" fill="black"/>
<path d="M268.57 77.3099C267.55 79.0299 267.42 81.5399 267.26 83.4999C267.09 85.6399 266.97 87.7799 266.98 89.9299C267 94.1999 267.35 98.4499 267.99 102.67C268.18 103.91 269.34 105.58 270.77 104.96C272.29 104.3 272.42 102.14 272.22 100.77C271.67 97.1399 271.35 93.4899 271.26 89.8199C271.22 87.9499 271.2 86.0799 271.25 84.2099C271.3 82.3399 271.6 80.0799 271.11 78.2499C270.8 77.0899 269.48 75.7699 268.57 77.2999V77.3099Z" fill="black"/>
<path d="M235.46 10.68C235.8 10.8 236.18 10.95 236.53 10.9C236.74 10.87 236.96 10.81 237.17 10.77L238.35 10.53C239.34 10.33 240.32 10.07 241.3 9.82C241.61 9.68 241.86 9.48 242.04 9.2C242.3 8.93 242.48 8.61 242.59 8.24C242.82 7.54 242.88 6.82 242.8 6.08C242.73 5.43 242.55 4.69 242.14 4.16L241.68 3.64C241.36 3.35 240.98 3.21 240.55 3.21C239.65 3.06 238.75 2.9 237.85 2.75C237.52 2.75 237.24 2.85 237 3.06C236.7 3.23 236.47 3.46 236.3 3.78C235.95 4.38 235.78 5.04 235.74 5.73C235.65 7.09 236.07 8.76 237.42 9.39C237.79 9.56 238.15 9.72 238.53 9.86C239.12 10.09 239.75 9.89 240.21 9.48C240.73 9.01 241.08 8.15 241.17 7.47C241.28 6.63 241.25 5.7 240.89 4.91L240.53 4.25C240.28 3.87 239.96 3.6 239.55 3.42C239.19 3.22 238.83 3.03 238.46 2.86L238.03 9.5C238.93 9.65 239.83 9.81 240.73 9.96L239.98 3.35C239.18 3.56 238.37 3.76 237.58 4L236.41 4.37C236.22 4.43 236.02 4.48 235.83 4.55C235.45 4.69 235.16 4.98 234.88 5.26C234.11 6.02 233.9 7.22 234.02 8.25C234.08 8.75 234.2 9.2 234.44 9.65C234.68 10.1 235 10.52 235.48 10.69L235.46 10.68Z" fill="black"/>
<path d="M66.21 10.7899C66.53 10.8099 66.86 10.8299 67.19 10.8299H67.43C67.23 10.8099 67.27 10.8299 67.55 10.8799C68.23 11.0999 68.93 11.2499 69.64 11.3499C70.7 11.4899 71.76 11.6199 72.82 11.7799C73.88 11.9399 74.93 12.0199 75.99 12.1399C76.56 12.1999 77.13 12.2699 77.69 12.3399C77.92 12.3699 78.18 12.4299 78.42 12.4299C79.41 12.4299 79.94 11.6699 80.49 10.9799C81.04 10.2899 81.23 8.92991 81.19 8.12991C81.14 7.11991 80.89 6.17991 80.35 5.31991C79.81 4.45991 79.2 4.03991 78.21 3.90991C77.97 3.87991 77.72 3.86991 77.48 3.84991C76.91 3.80991 76.35 3.76991 75.78 3.72991C74.73 3.65991 73.67 3.58991 72.62 3.60991C71.57 3.62991 70.51 3.63991 69.46 3.70991C68.88 3.74991 68.33 3.90991 67.76 4.01991C67.19 4.12991 66.63 4.05991 66.05 4.08991C64.5 4.16991 63.86 6.19991 63.93 7.48991C64 8.87991 64.59 10.6599 66.21 10.7899Z" fill="black"/>
<path d="M228.9 7.71001C229.76 8.14001 230.83 8.02001 231.77 8.15001C232.71 8.28001 233.55 8.33001 234.46 8.35001C236.17 8.38001 237.88 8.32001 239.59 8.35001C240.34 8.37001 241.09 8.40001 241.83 8.47001C242.53 8.53001 243.34 8.65001 243.8 8.75001C244.58 8.91001 245.35 9.08001 246.11 9.35001C246.43 9.46001 246.75 9.58001 247.06 9.72001C247.27 9.81001 247.48 9.91001 247.68 10.01C247.28 9.79001 247.03 9.43001 246.92 8.94001C247.36 9.77001 247.8 10.51 248.69 10.91C249.65 11.34 250.59 10.79 251.18 10.06C252.7 8.18001 252.4 5.50001 251.31 3.51001C250.34 1.73001 247.97 0.950013 246.12 0.510013C244.27 0.0700132 242.46 -0.0499868 240.59 0.0100132C238.72 0.0700132 236.88 0.300013 235.04 0.570013C234.02 0.720013 233 0.870013 231.98 1.06001C230.91 1.26001 229.76 1.12001 228.75 1.51001C227.65 1.94001 227.22 3.60001 227.28 4.64001C227.34 5.84001 227.76 7.13001 228.9 7.70001V7.71001Z" fill="black"/>
</g>
<defs>
<clipPath id="clip0_3416_11805">
<rect width="306.07" height="108.27" fill="white"/>
</clipPath>
</defs>
</svg>
