<svg width="194" height="307" viewBox="0 0 194 307" fill="none" xmlns="http://www.w3.org/2000/svg">
<g clip-path="url(#clip0_3416_10604)">
<path d="M9.75004 174.63C7.61004 192.62 5.49004 210.61 3.84004 228.65C3.01004 237.75 2.16004 246.86 1.32004 255.96C0.930041 260.16 0.470041 264.35 0.190041 268.55C-0.079959 272.43 -0.169959 276.38 0.690041 280.2C1.55004 284.02 3.30004 287.52 6.22004 290.14C8.95004 292.6 12.46 294.07 15.92 295.17C23.97 297.75 32.29 299.68 40.58 301.32C57.66 304.7 75.05 306.46 92.47 306.46C96.83 306.46 101.18 306.33 105.53 306.07C109.32 305.84 114.13 306.17 117.16 303.48C120.19 300.79 120.53 296.79 120.9 293.17C121.36 288.61 121.82 284.04 122.28 279.48C124.11 261.32 126 243.17 127.92 225.02C128.87 216.06 130.05 207.09 130.66 198.11C131.27 189.13 130.68 180.69 126.69 172.75C123.14 165.67 117.93 159.53 112.7 153.63C110.04 150.63 107.17 147.85 103.43 146.24C99.69 144.63 95.78 144.22 91.92 143.9C82.94 143.16 73.95 142.56 64.96 141.9C55.97 141.24 47.45 140.13 38.8 141.44C32.09 142.46 25.7 144.93 20.51 149.38C15.77 153.44 12.42 158.94 10.29 164.77C9.76004 166.22 9.32004 167.7 8.94004 169.2C8.68004 170.21 8.42004 171.22 8.21004 172.24C8.02004 173.18 8.54004 171.6 8.25004 172.03C8.13004 172.22 8.05004 172.47 7.96004 172.68C7.10004 174.62 7.56004 177.78 9.24004 179.17C11.08 180.68 12.73 179.05 13.47 177.36C14.05 176.04 14.28 174.64 14.59 173.24C14.64 173.03 14.8 172.4 14.55 173.35C14.59 173.18 14.64 173.01 14.68 172.84C14.77 172.5 14.86 172.17 14.96 171.84C15.18 171.08 15.43 170.32 15.69 169.57C15.91 168.94 16.15 168.32 16.4 167.7C16.55 167.34 16.7 166.99 16.85 166.64C16.92 166.49 16.99 166.34 17.05 166.19C17.27 165.64 16.73 166.79 17.01 166.27C17.67 165.05 18.3 163.83 19.06 162.67C19.43 162.1 19.82 161.55 20.23 161C20.39 160.79 20.81 160.26 20.4 160.76C20.63 160.48 20.87 160.2 21.11 159.93C22.04 158.88 23.04 157.9 24.11 157C24.59 156.6 25.08 156.21 25.58 155.83C25.76 155.7 26.4 155.25 26.26 155.34C26.12 155.43 26.8 155 26.98 154.89C28.19 154.15 29.45 153.5 30.74 152.93C37.7 149.88 45.27 149.7 52.75 149.81C61.42 149.94 70.09 150.31 78.75 150.57C82.98 150.7 87.21 150.81 91.44 150.95C95.17 151.08 98.93 151.28 102.41 152.77C105.61 154.13 108.14 156.63 110.4 159.22C112.88 162.05 115.34 164.92 117.63 167.91C122.09 173.72 125.69 180.07 126.41 187.48C127.21 195.7 125.82 204.07 124.99 212.23C123.2 229.64 121.45 247.05 119.58 264.45C118.65 273.14 117.72 281.83 116.78 290.53C116.68 291.45 116.61 292.38 116.47 293.29C116.33 294.2 116.25 294.55 115.99 295.31C115.63 296.35 115.01 297.21 113.68 297.68C112.1 298.24 110.31 298.21 108.66 298.32C106.53 298.45 104.39 298.56 102.25 298.64C85.61 299.27 68.99 298.63 52.49 296.28C44.31 295.12 36.19 293.55 28.16 291.6C24.27 290.66 20.37 289.68 16.55 288.47C13.41 287.47 10.27 286.22 7.86004 283.9C3.23004 279.45 4.16004 272.28 4.66004 266.55C5.42004 257.84 6.17004 249.13 6.93004 240.43C8.45004 222.86 9.85004 205.27 10.91 187.67C11.17 183.45 11.42 179.23 11.68 175C11.77 173.52 9.94004 172.95 9.74004 174.65L9.75004 174.63Z" fill="#1D1D1B"/>
<path d="M127.7 185.06C128.19 192.9 128.62 200.77 129.37 208.59C130.12 216.41 130.95 224.26 131.79 232.08C132.63 239.9 133.46 247.8 134.41 255.65C135.29 262.9 136 270.19 137.24 277.39C137.88 281.09 138.59 284.77 139.08 288.5C139.28 289.99 139.43 291.56 139.55 293.4C139.67 295.24 139.67 297.2 139.55 298.42L142.4 295.83C139.4 294.89 137.66 292.47 136.16 289.86C134.84 287.55 133.53 282.38 130.01 282.21C127.93 282.11 126.6 283.78 125.47 285.27C124.34 286.76 123.15 288.28 121.97 289.76C120.98 291 119.98 292.23 118.99 293.47C118.44 294.16 117.89 294.86 117.34 295.56C116.55 296.57 116.03 297.63 115.49 298.79C114.76 300.36 115.98 304.38 118.18 302.68C119.67 301.53 120.7 300 121.86 298.53C122.78 297.37 123.71 296.22 124.63 295.06C125.66 293.77 126.68 292.48 127.68 291.18C128.09 290.65 129.33 288.42 130.16 288.91C130.82 289.3 131.34 291.11 131.77 292.03C132.48 293.53 133.24 295.02 134.11 296.43C135.83 299.2 138.18 301.71 141.31 302.84C142.91 303.42 143.99 301.57 144.16 300.25C145.09 293.14 143.9 286.09 142.6 279.1C141.3 272.11 140.33 264.78 139.39 257.57C137.37 242.04 135.15 226.54 133.19 211.01C132.08 202.21 130.76 193.43 129.62 184.63C129.4 182.95 127.6 183.58 127.7 185.08V185.06Z" fill="#1D1D1B"/>
<path d="M76.2101 146.51C79.7301 141.94 80.9901 136.22 80.7201 130.54C80.4201 124.28 78.4101 118.41 76.4201 112.53C74.5701 107.06 72.4001 101.01 73.1901 95.1503C73.8501 90.3203 77.1001 86.7003 82.0901 86.3703C86.5901 86.0703 91.2201 88.2803 93.1801 92.3503C94.1901 94.4503 94.5101 96.7302 94.2701 98.5202C93.9701 100.8 93.4301 102.59 92.1101 104.6C89.6501 108.34 85.3001 111.16 80.9701 112.91C76.6401 114.66 71.7201 115.4 66.8601 114.83C62.5901 114.33 57.9501 112.6 54.7101 110.14C53.8701 109.5 53.0701 108.8 52.3201 108.04C52.1501 107.86 51.9701 107.68 51.8101 107.5C52.2701 108.02 51.6401 107.28 51.6001 107.23C51.2301 106.77 50.8801 106.3 50.5601 105.81C50.2901 105.4 50.0401 104.99 49.8001 104.56C50.2001 105.29 49.5601 104.01 49.4701 103.8C49.2801 103.35 49.1201 102.89 48.9501 102.43C49.2801 103.38 48.9601 102.45 48.9201 102.26C48.8501 101.97 48.7801 101.68 48.7301 101.39C48.6701 101.06 48.5801 99.5702 48.6001 100.67C48.6001 100.1 48.5301 99.5303 48.5401 98.9603C48.5401 98.7003 48.5501 98.4302 48.5601 98.1702C48.5101 99.2502 48.5801 98.1503 48.6001 97.9703C48.6801 97.3003 48.8101 96.6403 48.9401 95.9803C48.9701 95.8403 49.1401 95.2702 48.9401 95.9502C49.0401 95.6102 49.1401 95.2602 49.2501 94.9202C49.4401 94.3302 49.6501 93.7503 49.8901 93.1803C50.3801 91.9903 50.8601 91.1203 51.6901 89.8703C54.6801 85.4403 59.5601 81.9903 64.3801 79.4703C83.5001 69.4703 106.06 72.7903 126.82 72.1203C134.55 71.8703 142.42 71.1503 149.81 68.7503C156.81 66.4803 163.46 62.0202 165.75 54.6702C166.45 52.4302 166.66 50.2502 166.72 47.9202C166.76 46.4202 165.84 43.9702 164.01 44.0102C162.08 44.0602 161.54 46.5803 161.5 48.0503C161.53 46.7903 161.45 48.4803 161.4 48.8003C161.34 49.2103 161.25 49.6103 161.18 50.0203C161.13 50.2803 161.09 51.0803 161.21 49.9803C161.18 50.2003 161.08 50.4502 161.01 50.6702C160.87 51.1202 160.7 51.5503 160.53 51.9803C160.45 52.1903 160.07 52.8703 160.55 51.9803C160.48 52.1103 160.42 52.2503 160.34 52.3803C160.12 52.7703 159.9 53.1603 159.65 53.5403C159.44 53.8503 159.21 54.1503 159 54.4503C158.56 55.0803 159.49 53.9403 158.96 54.4903C158.8 54.6503 158.66 54.8303 158.51 54.9903C157.94 55.6003 157.32 56.1602 156.67 56.6902C156.31 56.9802 155.93 57.2503 155.56 57.5203C156.13 57.1103 155 57.8703 154.8 57.9903C153.24 58.9203 151.59 59.6803 149.89 60.3103C145.9 61.8103 142.79 62.4203 138.56 63.0003C134.64 63.5403 130.69 63.8103 126.74 63.9403C104.67 64.6703 80.4601 61.1303 60.5201 72.8703C55.1701 76.0203 50.0601 80.0703 46.9101 85.5303C43.7601 90.9903 42.5201 97.0402 43.4801 103.09C45.1101 113.38 54.1201 120.58 63.9601 122.51C69.3701 123.57 74.5801 123.17 79.8001 121.37C85.0201 119.57 89.8101 116.67 93.3101 112.59C97.2101 108.03 99.2601 102.12 98.7001 96.0902C98.1401 90.0602 95.3301 84.4802 89.8501 81.7702C85.2301 79.4902 79.3901 79.8003 75.2301 82.9103C70.3601 86.5503 69.1101 93.4103 69.6101 99.1203C70.2201 106 72.8701 112.4 75.1701 118.85C77.1701 124.46 79.0001 130.44 78.1701 136.46C77.7501 139.47 76.6501 142.25 74.9501 144.76C74.3601 145.63 75.2201 147.78 76.1801 146.53L76.2101 146.51Z" fill="#1D1D1B"/>
<path d="M147.79 37.82C148.96 33.11 149.96 28.37 150.76 23.58C151.21 20.89 151.56 18.18 152.14 15.51C152.31 14.7 151.93 16.18 152.16 15.43C152.22 15.23 152.28 15.02 152.34 14.82C152.4 14.62 152.47 14.43 152.54 14.24C152.64 13.98 153.09 13.16 152.58 14.07C152.78 13.71 152.96 13.34 153.19 12.99C153.3 12.82 153.42 12.66 153.53 12.5C153.89 11.97 153.1 12.93 153.71 12.28C155.64 10.21 158.07 8.06004 160.88 7.39004C165.84 6.22004 171.22 8.35004 175.93 9.66004C178.21 10.3 180.55 10.74 182.81 11.45C183.83 11.77 184.87 12.13 185.81 12.67C186.54 13.09 187.24 13.74 187.61 14.37C187.82 14.73 187.56 13.7 187.74 14.73C187.68 14.37 187.79 15.08 187.78 15.06C187.71 14.39 187.81 15.81 187.81 15.76C187.81 16.05 187.81 16.35 187.81 16.64C187.77 18.12 187.66 19.26 187.49 20.94C187.17 23.99 186.66 27.03 186.01 30.03C185.66 31.66 185.45 32.5 185.02 34.03C184.59 35.56 184.14 37.04 183.63 38.53C183.4 39.22 183.16 39.92 182.9 40.6C182.94 40.51 182.44 41.7 182.66 41.23C182.88 40.76 182.28 41.87 182.33 41.8C182.18 42.04 181.9 42.31 181.7 42.43C181.21 42.72 180.79 42.83 180.35 42.9C177.09 43.4 173.46 42.39 170.26 41.89C166.6 41.32 162.97 40.8 159.29 40.43C157.72 40.27 156.62 40.16 155.33 39.83C154.61 39.65 153.89 39.42 153.2 39.13C152.51 38.84 152.03 38.6 151.8 38.41C151.57 38.22 151.35 38.06 151.13 37.86C150.34 37.15 151.25 38.21 150.8 37.54C150.67 37.35 150.53 37.16 150.4 36.97C149.81 36.15 150.62 37.71 150.33 36.83C150.23 36.54 149.89 35.41 150.29 36.83L150.22 36.5C150.35 37.75 150.32 37.53 150.14 35.84C150.34 37.23 150.24 36.65 150.23 36.29C150.16 37.13 150.17 37.27 150.25 36.7C150.07 37.38 150.07 37.46 150.25 36.95C151.03 34.91 150.71 32.14 149.24 30.49C147.91 29 145.97 29.29 144.92 30.99C140.64 37.93 144.83 47.17 152.13 49.83C155.37 51.01 158.94 51.19 162.34 51.51C165.94 51.85 169.59 51.83 173.21 51.94C176.4 52.04 179.96 52.77 183 51.45C186.45 49.95 187.78 46.24 188.79 42.92C190.93 35.89 192.28 28.66 192.79 21.33C193.05 17.59 193.5 13.48 191.79 9.99004C190.43 7.23004 188.01 5.44004 185.14 4.44004C182.65 3.58004 180.02 3.19004 177.47 2.56004C174.47 1.81004 171.51 0.970038 168.46 0.440038C165.41 -0.0899619 162.46 -0.199962 159.5 0.650038C157.27 1.29004 155.42 2.69004 153.69 4.17004C151.67 5.90004 149.99 7.94004 148.98 10.41C147.82 13.22 147.59 16.39 147.3 19.38C146.74 25.2 145.99 30.98 144.96 36.74C144.8 37.63 145.07 39.08 146.04 39.44C147.09 39.82 147.6 38.63 147.79 37.85V37.82Z" fill="#1D1D1B"/>
<path d="M121.93 245.33C107.84 256.29 88.2501 254.5 71.7301 252.11C56.6201 249.93 40.4101 246.97 25.3801 251.3C16.7001 253.81 7.71009 258.45 2.62009 266.17C1.99009 267.12 1.98009 268.6 2.41009 269.63C2.74009 270.42 3.61009 271.36 4.55009 270.89C8.00009 269.18 11.1501 266.94 14.6201 265.24C18.0901 263.54 21.6001 262.1 25.3101 261.09C27.0001 260.63 28.7701 260.29 30.2101 259.97C32.0001 259.58 33.8001 259.26 35.6101 259C39.1601 258.5 42.7501 258.26 46.3401 258.21C63.6501 257.94 80.9601 262.45 98.2401 260.01C107.47 258.71 116.42 255.27 123.38 248.91C124.61 247.79 123.74 243.89 121.9 245.32L121.93 245.33Z" fill="#1D1D1B"/>
<path d="M45.2501 156.64C48.0201 156.21 50.9301 156.05 53.7401 156.12C56.5501 156.19 59.4301 156.29 62.2301 156.6C63.0901 156.7 63.4801 155.39 63.5201 154.78C63.5601 153.98 63.3301 152.88 62.4901 152.54C59.6401 151.4 56.6901 150.76 53.6101 150.93C50.5301 151.1 47.6801 151.83 44.8401 153.03C44.1101 153.34 43.9401 154.39 44.0301 155.07C44.1001 155.63 44.4801 156.75 45.2501 156.63V156.64Z" fill="#1D1D1B"/>
<path d="M75.2699 158.69C78.0499 158.58 80.94 158.75 83.69 159.12C86.44 159.49 89.14 159.9 91.8 160.51C93.86 160.99 93.86 157.28 92.42 156.52C89.68 155.06 86.83 154.14 83.71 153.96C82.29 153.88 80.83 153.83 79.43 154.04C77.89 154.28 76.35 154.65 74.85 155.09C73.53 155.48 73.76 158.75 75.26 158.69H75.2699Z" fill="#1D1D1B"/>
</g>
<defs>
<clipPath id="clip0_3416_10604">
<rect width="193.05" height="306.46" fill="white"/>
</clipPath>
</defs>
</svg>
