<svg width="360" height="311" viewBox="0 0 360 311" fill="none" xmlns="http://www.w3.org/2000/svg">
<g clip-path="url(#clip0_3416_10083)">
<path d="M5.75046 248.82C5.77046 246.64 5.80046 244.47 5.82046 242.29C5.88046 236.65 5.95046 231.01 6.01046 225.37C6.10046 217.65 6.18046 209.92 6.27046 202.2C6.37046 193.65 6.46046 185.1 6.56046 176.54C6.65046 168.53 6.74046 160.52 6.83046 152.51C6.90046 146.38 6.97046 140.25 7.04046 134.12C7.07046 131.21 7.17046 128.29 7.14046 125.38C7.14046 125.31 7.16046 125.23 7.14046 125.17C7.09046 124.93 7.05046 126.45 7.07046 126.3C7.02046 126.64 6.54046 127.7 6.60046 127.99C6.65046 128.25 6.44046 128.08 6.70046 127.9C6.35046 128.14 7.12046 127.66 7.26046 127.61C8.41046 127.2 10.3005 127.35 11.6105 127.26C15.7705 126.98 19.9305 126.71 24.0905 126.47C34.0905 125.88 44.0905 125.35 54.1105 125.15C58.0005 125.07 61.9005 125.02 65.7805 125.23C66.9705 125.3 68.1605 125.37 69.3305 125.59C69.5305 125.63 69.7405 125.68 69.9405 125.72C70.0605 125.74 70.4105 125.86 69.8905 125.7C69.2605 125.5 69.9105 125.72 70.0105 125.75C70.2505 125.85 70.5005 125.93 70.7405 126.03C72.1505 126.62 73.4805 127.41 74.6805 128.37C74.9205 128.57 75.1605 128.77 75.3905 128.98C75.4105 129 75.7605 129.34 75.5305 129.11C75.2805 128.86 75.6905 129.28 75.7405 129.34C76.1305 129.76 76.5005 130.19 76.8505 130.65C77.1205 131.01 77.3805 131.37 77.6205 131.75C77.7205 131.91 78.1205 132.61 77.7605 131.95C77.4005 131.29 77.7305 131.9 77.8105 132.05C78.6205 133.69 79.4505 135.02 80.8005 136.26C82.1505 137.5 84.0705 138.31 85.9505 137.84C88.6505 137.17 90.6405 134.96 92.1505 132.74C96.0705 126.98 99.2105 120.59 102.46 114.44C107.01 105.86 111.44 97.2104 115.83 88.5504C119.19 81.9304 122.53 75.3004 125.84 68.6604C127.22 65.8904 128.29 63.2904 128.16 60.0504C128.08 57.9804 127.97 55.9204 127.87 53.8504C127.5 45.9004 127.13 37.9504 126.76 30.0004C126.49 24.1204 126.21 18.2404 125.94 12.3604C125.94 12.2104 125.95 12.0204 125.92 11.8704C125.85 11.5604 125.66 13.7404 125.7 13.6204L125.47 14.1604C125.18 14.7304 125.14 14.8604 125.34 14.5604C125.24 14.5404 125.6 14.3704 125.34 14.5004C125.66 14.3304 125.95 14.1204 126.28 13.9704C127.12 13.5704 127.98 13.2104 128.85 12.8904C130.1 12.4204 130.67 12.2404 131.84 11.9504C134.42 11.3204 137.11 11.0204 139.75 11.3604C142.39 11.7004 145.05 12.9404 146.77 14.6604C149.21 17.0904 151.43 19.8004 153.67 22.4104C156.04 25.1704 158.35 28.0004 160.49 30.9404C161.52 32.3604 162.52 33.8004 163.45 35.2904C163.87 35.9504 164.27 36.6104 164.66 37.2904C164.37 36.7804 164.82 37.5904 164.9 37.7404C165.13 38.1804 165.36 38.6204 165.58 39.0604C165.9 39.7104 166.2 40.3604 166.48 41.0204C166.62 41.3404 166.75 41.6704 166.88 41.9904C166.94 42.1504 167 42.3104 167.06 42.4704C167.29 43.0804 167.35 42.8604 167.06 42.4504C167.38 42.9004 167.46 43.8104 167.58 44.3504C167.62 44.5104 167.64 44.6604 167.68 44.8204C167.82 45.3604 167.58 44.2404 167.57 44.2504C167.51 44.5304 167.68 45.0304 167.71 45.3204C167.73 45.5404 167.75 45.7604 167.77 45.9804C167.85 46.7804 167.7 44.3804 167.73 45.2104C167.74 45.6404 167.77 46.0704 167.78 46.5004C167.8 47.4704 167.8 48.4504 167.78 49.4204C167.76 50.5304 167.73 51.6304 167.68 52.7404C167.66 53.2904 167.63 53.8304 167.6 54.3804C167.58 54.7104 167.56 55.0404 167.55 55.3604C167.5 56.2504 167.64 53.9404 167.56 55.1504C167.23 60.3704 166.75 65.5904 166.17 70.7904C165.67 75.2904 165.11 79.8004 164.39 84.2704C164.33 84.6504 164.26 85.0404 164.2 85.4204C164.17 85.6004 164.14 85.7704 164.11 85.9504C163.93 86.9604 164.32 84.8804 164.21 85.4204C164.1 85.9604 164 86.5204 163.86 87.0704C162.95 90.7904 162.51 95.3004 164.97 98.5704C166.57 100.69 168.61 100.71 170.92 100.71C173.45 100.71 175.98 100.71 178.51 100.71C186.5 100.71 194.49 100.71 202.49 100.71C209.82 100.71 217.14 100.71 224.47 100.71C226.16 100.71 227.84 100.71 229.53 100.71C234.48 100.71 239.24 101.85 243.49 104.44C244.98 105.35 246.44 106.41 247.69 107.64C248.21 108.15 248.72 108.74 249.18 109.31C249.43 109.63 249.68 109.95 249.91 110.28C250.03 110.45 250.14 110.61 250.25 110.78C250.35 110.92 250.57 111.3 250.37 110.93C250.57 111.28 250.74 111.64 250.89 112C251.04 112.34 251.18 113.1 251.04 112.35C251.07 112.49 251.28 113.04 251.23 113.12C251.2 113.17 251.14 112.11 251.14 112.76C251.14 113.27 251.25 113.81 251.3 114.31C251.48 115.94 251.71 117.55 251.96 119.17C252.14 120.35 252.34 121.53 252.48 122.72C252.51 122.95 252.52 123.17 252.55 123.4C252.65 124.26 252.55 121.92 252.51 122.75C252.51 122.82 252.56 123.31 252.51 123.34C252.52 123.34 252.74 121.58 252.53 122.68C252.49 122.89 252.9 121.2 252.62 122.13C252.42 122.78 253.12 121.08 252.77 121.67C252.74 121.73 252.52 122.12 252.54 122.17C252.54 122.15 253.02 121.43 252.8 121.71C252.72 121.81 252.66 121.94 252.58 122.05C251.73 123.29 250.67 124.37 249.8 125.6C248.69 127.17 247.53 128.86 246.91 130.68C245.86 133.78 245.89 137.52 247.18 140.56C247.88 142.21 249.12 143.25 250.3 144.54C251.48 145.83 252.51 147.14 253.41 148.59C253.65 148.97 253.45 148.65 253.41 148.57C253.51 148.74 253.59 148.92 253.68 149.09C253.85 149.44 253.98 149.8 254.15 150.15C254.38 150.62 254.09 149.97 254.07 149.9C254.11 150.07 254.16 150.26 254.21 150.43C254.38 150.95 254.16 150.1 254.15 150.07C254.29 150.66 254.37 151.27 254.48 151.86C254.83 153.66 255.33 155.41 255.75 157.19C255.82 157.51 255.83 158.03 256 158.31C255.93 158.19 255.83 157.12 255.94 158.05C255.96 158.22 255.97 158.41 256.01 158.58C256.12 159.18 255.99 157.94 255.99 157.94C255.97 158.09 255.99 158.29 255.99 158.45C256.02 159.07 256.03 157.73 256.03 157.78C255.98 158.48 256.03 157.65 256.1 157.4C256.31 156.65 256.22 157.04 256.02 157.52C256.27 156.89 255.88 157.75 255.76 157.96C255.19 158.95 254.66 159.94 254.19 160.98C253.88 161.68 253.58 162.38 253.28 163.08C253.11 163.47 252.93 163.86 252.75 164.24C252.64 164.46 252.11 165.34 252.5 164.75C252.31 165.03 252.13 165.32 251.92 165.59C251.85 165.68 251.34 166.27 251.61 166.01C251.01 166.59 250.24 166.96 249.52 167.37C248 168.24 246.49 169.12 244.98 170C242.85 171.24 241.76 173.24 241.32 175.64C240.72 178.85 241 182.23 242.69 185.07C243.23 185.98 243.29 186.02 243.65 186.74C243.83 187.11 244.01 187.49 244.17 187.87C244.25 188.06 244.32 188.25 244.4 188.44C244.67 189.1 244.2 187.78 244.39 188.45C244.55 189.03 244.35 188.09 244.35 188.06C244.37 188.24 244.42 188.89 244.38 188.06C244.33 187.15 244.36 188.3 244.37 188.51C244.39 189.35 244.43 190.19 244.47 191.03C244.55 192.68 244.63 194.32 244.59 195.97C244.59 196.15 244.56 196.35 244.57 196.53C244.57 196.55 244.68 195.33 244.6 195.94C244.55 196.29 244.51 196.64 244.48 196.99C244.43 197.56 244.55 196.49 244.58 196.48C244.55 196.48 244.48 196.91 244.47 196.96C244.45 197.05 244.41 197.37 244.34 197.42C244.54 197.25 244.73 196.57 244.34 197.28C244.14 197.63 244.41 197.18 244.44 197.14C244.34 197.32 244.23 197.49 244.13 197.66C243.92 198.01 243.71 198.35 243.49 198.69C243.02 199.42 242.52 200.13 241.97 200.81C241.02 201.98 240 202.91 238.54 203.57C237.08 204.23 235.46 204.45 233.95 204.79C232.3 205.17 230.42 205.3 229.11 206.47C226.99 208.36 226.36 211.43 226.36 214.16C226.36 215.55 226.56 216.94 226.93 218.28C227.02 218.61 227.11 218.94 227.2 219.27C227.24 219.42 227.38 219.81 227.36 219.99C227.39 219.64 227.23 219.14 227.32 219.82C227.38 220.24 227.43 220.66 227.48 221.09C227.6 222.17 227.5 220.29 227.5 221.43C227.5 222.34 227.75 223.81 227.44 224.67C227.44 224.65 227.52 223.62 227.46 224.28C227.44 224.5 227.43 224.71 227.41 224.93C227.37 225.35 227.33 225.77 227.29 226.19C227.25 226.61 227.19 227 227.13 227.4C227.1 227.6 227.06 227.79 227.04 227.99C226.94 228.73 227.24 227.07 227.08 227.78C226.91 228.54 226.73 229.28 226.52 230.03C226.28 230.89 226.82 229.33 226.49 230.12C226.35 230.45 226.23 230.78 226.07 231.1C226 231.25 225.55 231.99 225.86 231.53C226.19 231.05 225.56 231.95 225.46 232.08C225.02 232.71 224.56 233.31 224.06 233.9C223.04 235.12 222.12 236 220.76 236.87C219.06 237.95 217.61 238.06 215.73 238.13C210.67 238.31 205.6 238.4 200.54 238.5C192.47 238.66 184.39 238.8 176.32 238.93C167.28 239.08 158.24 239.22 149.2 239.36C141.24 239.48 133.27 239.6 125.31 239.71C120.48 239.78 115.65 239.85 110.81 239.92C110.14 239.92 109.42 240 108.76 239.88C108.42 239.82 108.08 239.69 107.75 239.59C108.26 239.75 107.65 239.56 107.75 239.59C107.52 239.52 107.3 239.45 107.07 239.38C106.01 239.05 104.96 238.71 103.9 238.36C99.2005 236.81 94.0205 235.28 89.8805 232.48C88.4905 231.54 87.3105 230.31 85.5805 230.08C84.0005 229.86 82.5105 230.7 81.4805 231.83C79.7605 233.71 79.5005 236.38 79.2905 238.8L78.7805 244.71C78.7205 245.46 78.6505 246.22 78.5905 246.97C78.5805 247.12 78.5605 247.27 78.5505 247.42C78.5105 247.93 78.5005 248.43 78.4605 248.94C78.4405 249.27 78.6205 246.94 78.5405 247.58C78.5205 247.7 78.9105 245.85 78.7305 246.51C78.5905 247.03 79.2005 245.19 78.9705 245.77C78.7305 246.4 79.2805 245.34 79.1605 245.44C79.0305 245.55 78.8805 245.78 78.7805 245.92C78.5105 246.31 79.2205 245.65 78.7505 245.94C78.5405 246.07 78.3405 246.25 78.1305 246.38C77.4905 246.79 76.8005 247.11 76.0905 247.37C74.4705 247.96 72.6705 248.15 70.9705 248.37C66.1505 249.02 61.2905 249.42 56.4405 249.81C53.1305 250.07 49.8005 250.4 46.4705 250.53C44.7805 250.6 43.0705 250.43 41.3805 250.36C33.5205 250.06 25.6605 249.76 17.8005 249.45C15.3005 249.35 12.8005 249.26 10.3005 249.16C9.50046 249.13 8.98046 249.05 8.28046 248.52C7.58046 247.99 6.95046 247.43 6.29046 246.89C5.99046 246.65 5.67046 246.28 5.33046 246.1C5.27046 246.07 5.23046 246 5.16046 245.96C5.12046 245.94 5.24046 245.99 5.23046 245.99L5.29046 246.12C5.69046 246.94 5.84046 247.83 5.76046 248.79C5.70046 247.46 5.60046 246.05 5.04046 244.81C4.74046 244.17 4.15046 243.16 3.29046 243.16C1.18046 243.16 0.760463 247.48 0.810463 248.78C0.950463 251.78 1.47046 254.74 3.84046 256.79C4.39046 257.27 4.98046 257.72 5.55046 258.19C6.88046 259.28 7.99046 260.25 9.81046 260.38C11.9605 260.54 14.1205 260.55 16.2805 260.63C24.2905 260.94 32.3005 261.25 40.3105 261.55C42.2105 261.62 44.1205 261.76 46.0205 261.77C49.0605 261.79 52.1705 261.37 55.2005 261.14C60.1005 260.76 65.0105 260.35 69.8905 259.74C74.2005 259.2 79.6605 258.66 82.0305 254.49C82.7205 253.27 83.1205 251.96 83.3005 250.57C83.3605 250.14 83.4705 247.76 83.3605 249.66C83.2705 251.1 83.3205 250.33 83.3605 249.99C83.5205 248.22 83.6605 246.44 83.8205 244.66L84.0705 241.76C84.1105 241.3 84.2805 240.65 84.2005 240.19C84.1705 240.01 84.0505 240.94 84.0605 240.88C84.0005 241.14 83.8405 241.4 83.7905 241.65C83.6805 242.14 83.7005 241.64 83.8705 241.62C83.8905 241.62 83.4505 241.93 83.8105 241.71C83.9305 241.64 84.0505 241.55 84.1705 241.48C84.1905 241.47 84.6305 241.26 84.3005 241.37C84.4705 241.31 84.6805 241.29 84.8605 241.28C86.1905 241.18 87.2405 242.4 88.4805 243.25C92.6305 246.09 97.8505 247.62 102.58 249.19C105.23 250.07 107.88 251.18 110.69 251.14C115.56 251.07 120.43 251 125.3 250.93C133.35 250.81 141.4 250.69 149.45 250.57C158.58 250.43 167.7 250.29 176.83 250.14C184.96 250 193.1 249.86 201.23 249.7C206.18 249.6 211.14 249.52 216.09 249.33C218.62 249.23 220.91 248.63 223 247.04C225.68 245 228.03 242.19 229.51 239.15C231.12 235.84 231.8 231.95 232.14 228.32C232.59 223.51 232.61 218.67 231.55 213.94C231.47 213.59 231.39 213.25 231.29 212.91C231.27 212.85 231.18 212.37 231.11 212.28L231.21 213.21C231.38 213.99 231.33 214.76 231.07 215.52C230.94 216.27 231.02 216.71 230.62 217.23C230.64 217.21 230.95 216.86 230.73 217.04C230.49 217.23 230.9 216.91 230.9 216.91C231.08 216.8 231.26 216.68 231.46 216.6C232.87 216.02 234.85 215.85 236.42 215.46C238.12 215.04 239.81 214.62 241.26 213.6C242.71 212.58 244 211.18 245.07 209.74C247.48 206.47 249.03 203 249.39 198.92C249.71 195.31 249.4 191.76 249.34 188.16C249.29 185.41 248.86 182.85 247.86 180.29C247.56 179.52 247.2 178.78 246.81 178.06C246.52 177.53 246.22 177 245.91 176.48C245.81 176.31 245.71 176.15 245.61 175.98C244.97 174.94 245.66 176.19 245.78 176.58L245.86 178.09C246.05 178.87 246.01 179.64 245.76 180.38C245.94 179.63 245.46 181.58 245.41 181.47C245.34 181.33 245.71 181.2 245.82 181.14C246.65 180.64 247.5 180.17 248.34 179.68C249.78 178.85 251.42 178.12 252.71 177.07C255.51 174.8 256.57 171.35 258.07 168.21C258.57 167.15 258.56 167.26 259.15 166.21C259.72 165.22 260.11 164.18 260.41 163.07C261.08 160.61 261.1 157.91 260.8 155.4C260.55 153.36 260.04 151.35 259.53 149.36C259.32 148.52 259.11 147.68 258.93 146.84C258.88 146.62 258.84 146.4 258.79 146.18C258.85 146.48 259.01 147.33 258.75 145.95C258.63 145.3 258.51 144.67 258.32 144.04C257.17 140.32 254.99 137.1 252.33 134.3C251.84 133.78 251.33 133.27 250.82 132.76C250.36 132.3 250.84 132.89 250.93 133.27C251.21 134.36 251.19 135.92 250.93 137.01C250.94 136.96 250.44 138.28 250.66 137.89C251.52 136.38 252.54 134.94 253.63 133.59C255.57 131.2 256.9 128.89 257.32 125.77C257.69 122.98 257.39 120.17 256.96 117.4C256.73 115.93 256.5 114.46 256.32 112.99C256.05 110.88 255.94 108.73 255.36 106.67C254.22 102.61 251.83 99.3104 248.75 96.5004C243.67 91.8604 236.72 89.4804 229.89 89.4404C228.65 89.4404 227.42 89.4404 226.18 89.4404C219.21 89.4404 212.23 89.4404 205.26 89.4404C197.01 89.4404 188.76 89.4404 180.51 89.4404C177.67 89.4404 174.83 89.4404 171.99 89.4404C170.89 89.4404 169.31 89.7004 168.27 89.3704C168.08 89.3104 167.78 89.1104 167.59 88.9604C167.22 88.6604 167.76 89.2504 167.52 88.8404C167.28 88.4304 167.63 89.0004 167.63 89.0304C167.98 90.2704 167.89 91.9804 168 93.2404C168 93.2404 167.91 93.6204 167.95 93.5704C168 93.5204 168.01 93.3704 168.03 93.3104C168.19 92.8504 168.27 92.3604 168.37 91.8904C168.78 89.9404 169.11 87.9704 169.41 85.9904C170.13 81.3304 170.69 76.6404 171.19 71.9504C171.79 66.2804 172.26 60.6004 172.57 54.9104C172.81 50.4604 173.07 45.8104 172.41 41.3804C171.32 34.1704 167.7 27.7204 163.51 21.8604C159.32 16.0004 154.51 10.4604 149.57 5.19039C145.29 0.620385 139.37 -0.799615 133.32 0.350385C130.9 0.810385 128.51 1.58039 126.24 2.54039C125 3.06039 123.84 3.58039 122.97 4.68039C121.44 6.62039 120.95 9.40039 120.99 11.8104C121.07 16.6804 121.45 21.5604 121.67 26.4204C122.06 34.6704 122.44 42.9204 122.83 51.1704C122.95 53.8104 123.08 56.4504 123.2 59.0904C123.22 59.5204 123.17 60.0204 123.26 60.4504C123.26 60.4804 123.82 57.9004 123.6 58.2004C123.5 58.3404 123.43 58.5404 123.35 58.7004C123.15 59.1004 122.95 59.5004 122.75 59.9004C119.53 66.3604 116.29 72.8104 113.03 79.2404C108.57 88.0304 104.08 96.8104 99.4705 105.53C97.5305 109.2 95.5705 112.87 93.5505 116.5C93.3405 116.88 93.1205 117.26 92.9105 117.64C92.8105 117.81 92.7205 117.98 92.6205 118.15C92.2205 118.86 93.0005 117.49 92.7005 118C92.3305 118.65 91.9605 119.29 91.5805 119.93C90.9805 120.94 90.3805 121.95 89.7205 122.92C89.1805 123.72 88.5305 124.61 87.9205 125.21C87.5805 125.54 87.0105 125.98 86.5105 126.26C86.2405 126.42 85.9505 126.56 85.6505 126.66C86.0605 126.52 85.4305 126.69 85.2705 126.7C84.8005 126.75 84.3705 126.7 83.9105 126.61C84.3405 126.69 84.0705 126.68 83.8205 126.56C83.6205 126.46 83.4105 126.36 83.2205 126.24C82.8705 126.03 82.5905 125.73 82.2605 125.51C82.5705 125.72 82.6605 125.95 82.3605 125.58C82.2405 125.44 82.1105 125.3 82.0005 125.16C81.8205 124.94 81.6705 124.7 81.5005 124.48C81.1905 124.08 81.7905 125.07 81.5205 124.45C81.1205 123.54 80.5805 122.67 80.0405 121.85C78.6005 119.66 76.6105 117.72 74.3805 116.34C71.4005 114.5 68.4005 114.07 65.0005 113.92C60.9305 113.74 56.8505 113.81 52.7805 113.91C42.6205 114.15 32.4705 114.7 22.3305 115.31C18.3305 115.55 14.3305 115.81 10.3305 116.09C8.09046 116.24 5.96046 116.24 4.33046 118.07C2.62046 119.99 2.27046 122.82 2.20046 125.29C2.13046 128.08 2.14046 130.87 2.11046 133.65C2.04046 139.8 1.97046 145.95 1.90046 152.09C1.81046 160.16 1.72046 168.23 1.63046 176.29C1.53046 184.92 1.44046 193.56 1.34046 202.19C1.25046 210.01 1.16046 217.84 1.08046 225.66C1.02046 231.3 0.950463 236.94 0.890463 242.57C0.870463 244.65 0.840463 246.73 0.820463 248.8C0.800463 250.25 1.14046 254.42 3.30046 254.42C5.46046 254.42 5.76046 250.11 5.78046 248.8L5.75046 248.82Z" fill="black"/>
<path d="M86.2402 230.09C86.2702 229.63 86.3802 229.05 86.3202 228.59C86.3502 228.83 85.9902 229.95 86.3202 229C86.7802 227.73 86.8002 226.41 86.8602 225.08C86.8902 224.41 86.9402 223.75 86.9602 223.08C86.9202 224.64 87.0002 222.07 86.9902 221.58C86.9802 221.09 86.9502 220.58 86.9302 220.08C86.7902 216.92 86.6502 213.76 86.5102 210.6C86.2102 204.11 85.9102 197.62 85.6002 191.13C85.0002 178.15 84.3902 165.17 83.7902 152.2C83.4502 144.88 83.0602 137.56 82.7702 130.24L82.3402 133.09L82.5802 132.34C83.2302 130.35 83.2502 128.1 82.4302 126.15C81.8202 124.71 80.6202 123.16 78.8802 123.2C74.7702 123.3 74.4502 129.84 75.6302 132.51L75.9602 133.25L75.3902 130.42C76.7802 156.53 77.8302 182.67 79.0402 208.79C79.2102 212.37 79.3802 215.94 79.5602 219.52C79.6702 221.66 79.8802 223.77 80.1802 225.9C80.3402 227.03 80.5402 228.06 80.9302 229.14C81.0102 229.37 81.1602 229.67 81.2102 229.92C81.0402 229.67 81.0402 229.79 81.1902 230.29L81.3302 231.24C81.5302 232.54 82.6402 234.28 84.1502 233.91C85.8002 233.51 86.1602 231.53 86.2402 230.1V230.09Z" fill="black"/>
<path d="M10.4704 123.431C9.16039 127.751 7.80039 132.061 6.61039 136.411C5.95039 138.811 5.87039 142.431 8.13039 144.111C10.3904 145.791 12.3204 144.141 13.1604 141.961C13.6304 140.731 14.1404 139.521 14.7004 138.331C14.5004 138.771 14.5104 138.721 14.7104 138.321C14.8804 138.001 15.0404 137.671 15.2104 137.351C15.5204 136.771 15.8304 136.201 16.1604 135.631C17.4704 133.351 18.9504 131.191 20.5804 129.121C18.5204 126.821 16.4604 124.511 14.4004 122.211C12.2804 129.081 10.1504 135.941 8.02039 142.811L15.4104 147.301C15.0804 148.661 15.3404 147.611 15.4104 147.311C15.5004 146.971 15.6004 146.621 15.7104 146.281C15.9204 145.601 16.1404 144.921 16.3804 144.251C16.8504 142.921 17.3504 141.551 18.0104 140.301C17.8104 140.691 17.6904 140.961 17.9704 140.411C18.1704 140.031 18.3604 139.651 18.5704 139.281C18.8804 138.721 19.1904 138.161 19.5304 137.611C20.3104 136.331 21.1404 135.091 22.0304 133.881L14.8904 129.611C14.8804 129.881 14.8304 131.561 14.8804 129.881C14.8704 130.281 14.8204 130.691 14.7904 131.091C14.7204 131.981 14.6504 132.871 14.5604 133.751C14.3904 135.521 14.1804 137.291 13.9404 139.061C13.4504 142.591 12.8204 146.101 12.0504 149.581C11.5704 151.781 12.2204 155.391 14.1804 156.841C16.1404 158.291 18.0204 157.541 19.3104 155.701C23.6604 149.471 28.0104 143.231 32.3604 137.001L25.2704 129.071C23.2404 137.061 21.2104 145.051 19.1704 153.041C18.9304 154.001 18.6804 154.961 18.4404 155.921C18.2204 156.801 18.0004 157.671 17.7704 158.551C18.1904 156.931 17.8004 158.421 17.7004 158.791C17.1604 160.861 16.6204 162.931 16.0804 165.001C15.0404 168.981 14.0104 172.961 12.9704 176.931C12.4704 178.831 12.2104 180.611 12.6204 182.571C12.9204 184.001 13.6904 185.961 14.9304 186.881C15.9904 187.671 17.3504 188.181 18.6404 187.531C20.0704 186.801 20.7804 185.521 21.4204 184.101C28.2204 169.091 34.7004 153.931 41.3204 138.841L32.7304 131.561C26.4504 153.631 20.1204 175.751 15.5504 198.251C14.3004 204.431 13.1904 210.641 12.2504 216.881C11.7704 220.051 12.5204 224.281 15.4604 226.071C18.2404 227.761 20.9204 225.381 21.8204 222.701C28.3304 203.391 34.6904 184.021 41.0904 164.671C42.9104 159.161 44.7404 153.651 46.5604 148.151L36.9404 142.301C33.0204 162.201 29.0404 182.101 25.0604 201.991C23.9204 207.701 22.7804 213.401 21.6404 219.111C21.0004 222.321 22.0204 226.821 24.9604 228.611C27.9004 230.401 30.6604 227.921 31.5404 225.121C38.0804 204.261 44.5604 183.381 51.0604 162.501C52.8804 156.651 54.7004 150.791 56.5204 144.941L46.4404 138.811C40.4004 165.001 35.0704 191.371 30.4504 217.861C29.1504 225.291 27.9204 232.721 26.7404 240.171C26.1904 243.641 27.0504 248.301 30.2704 250.261C33.3004 252.101 36.2904 249.521 37.2504 246.561C45.1604 222.101 52.2804 197.371 58.8204 172.501C60.8104 164.941 62.7304 157.371 64.6104 149.791L53.6204 145.491C48.5904 170.681 44.9504 196.151 42.7504 221.751C42.0804 229.591 41.5404 237.441 41.1104 245.291C41.0104 247.051 41.6504 249.001 42.4604 250.521C43.1004 251.711 44.1204 253.141 45.4904 253.561C48.3704 254.441 51.0804 252.191 51.8204 249.421C58.1504 225.841 63.8904 202.101 68.9904 178.221C70.3904 171.671 71.7404 165.101 73.0404 158.531L61.8504 154.151C60.3304 175.501 58.4804 196.821 56.2704 218.111C55.6504 224.111 55.0004 230.111 54.3204 236.101C53.9204 239.681 54.5404 244.291 57.9004 246.341C61.0604 248.271 63.8804 245.511 64.9804 242.581C68.3304 233.751 71.6704 224.921 75.0204 216.101L64.4704 214.271C64.1304 211.311 64.4104 213.731 64.4704 214.371C64.5204 214.941 64.5804 215.501 64.6204 216.071C64.7204 217.291 64.8004 218.501 64.8604 219.721C64.9704 221.991 65.0204 224.271 65.0004 226.551C64.9904 227.691 64.9604 228.831 64.9204 229.961C64.8904 230.611 64.8604 231.261 64.8304 231.911C64.7504 233.551 65.0004 229.771 64.8504 231.531C64.6504 233.961 64.4104 236.391 64.0804 238.811C63.6004 242.361 64.3504 247.031 67.6604 249.051C70.7904 250.951 73.6904 248.251 74.7404 245.291C76.4404 240.511 78.1404 235.721 79.8404 230.941C76.2404 229.561 72.6304 228.171 69.0304 226.791C69.1204 229.741 69.2204 232.681 69.3104 235.631C69.4204 238.981 69.1804 242.621 69.9304 245.901C70.5404 248.551 72.0604 252.071 74.9104 253.011C77.9304 254.001 80.3304 252.161 81.5904 249.501C83.0204 246.501 83.1804 243.131 82.2204 239.961C81.2604 236.791 78.6004 233.591 74.8504 234.921C73.2504 235.491 72.0504 237.571 71.5204 239.021C70.7904 241.021 70.6104 243.701 71.1104 245.771C71.9204 249.111 74.3204 253.131 78.3204 251.711L78.4904 251.651L76.9704 252.001H77.1004C76.1204 251.641 75.1504 251.261 74.1704 250.891L73.1404 249.741L71.5704 245.921C70.8604 242.541 71.5404 239.591 73.6204 237.071L74.9704 236.151L74.8104 236.201L76.3304 235.851H76.1404C76.6504 235.931 77.1604 236.021 77.6704 236.111L77.4004 236.011L78.7904 236.861L79.5904 237.831L80.8304 240.831C81.4104 243.091 81.0204 242.901 80.9804 241.981C80.9504 241.241 80.9304 240.511 80.9104 239.771C80.8604 238.301 80.8204 236.821 80.7704 235.351C80.6804 232.401 80.5804 229.461 80.4904 226.511C80.4304 224.661 80.0004 222.871 79.1304 221.241C78.4804 220.041 77.4604 218.601 76.0704 218.181C73.0204 217.251 70.6504 219.631 69.6804 222.361C67.9804 227.141 66.2804 231.931 64.5804 236.711L75.2404 243.191C76.7804 231.901 76.7304 220.651 75.4104 209.351C75.1104 206.791 73.1204 203.671 70.4804 203.201C67.7004 202.701 65.7504 205.161 64.8604 207.521C61.5104 216.351 58.1704 225.181 54.8204 234.001L65.4804 240.481C67.8804 219.211 69.9304 197.901 71.6404 176.571C72.1204 170.561 72.5804 164.541 73.0004 158.521C73.1604 156.201 73.1804 153.991 72.2604 151.791C71.6604 150.361 70.3604 148.351 68.7304 147.851C64.6404 146.601 62.4704 150.811 61.8204 154.131C59.5404 165.681 57.1204 177.201 54.5504 188.681C53.2604 194.421 51.9404 200.161 50.5804 205.881C49.9004 208.741 49.2104 211.601 48.5104 214.461C48.1604 215.891 47.8104 217.321 47.4604 218.751C47.3004 219.381 47.1404 220.021 46.9904 220.651C46.9104 220.971 46.8304 221.281 46.7504 221.601C46.3404 223.251 47.1804 219.881 46.8004 221.411C45.1604 227.911 43.4804 234.401 41.7504 240.881L52.4704 245.001C52.5604 243.371 52.6504 241.741 52.7504 240.111C52.7704 239.781 52.7904 239.461 52.8104 239.131C52.9004 237.681 52.7604 239.881 52.7604 239.971C52.8204 238.991 52.8904 238.021 52.9504 237.041C53.1604 233.951 53.3904 230.861 53.6504 227.771C54.1704 221.431 54.7804 215.091 55.4804 208.771C56.8704 196.121 58.6204 183.511 60.7104 170.961C61.8904 163.881 63.1804 156.821 64.5804 149.781C64.9904 147.741 64.6504 145.081 63.8504 143.171C63.2604 141.761 61.9804 139.791 60.3804 139.301C56.2504 138.041 54.3904 142.261 53.5904 145.471L53.4704 145.951C53.9204 144.141 53.8404 144.461 53.2304 146.901C53.1104 147.381 52.8504 148.411 53.3904 146.261C53.1904 147.051 52.9904 147.841 52.7904 148.631C52.3904 150.211 51.9904 151.791 51.5804 153.371C50.8104 156.371 50.0304 159.381 49.2404 162.371C47.6204 168.531 45.9604 174.671 44.2604 180.811C40.8604 193.081 37.3104 205.311 33.6104 217.491C31.5204 224.371 29.3804 231.231 27.2204 238.091L37.7304 244.481C41.7504 217.871 46.5004 191.381 52.1004 165.051C53.6704 157.671 55.3004 150.301 56.9804 142.951C57.4004 141.111 57.0604 138.301 56.2804 136.591C55.6604 135.241 54.8904 134.061 53.6004 133.271C50.7204 131.521 47.7904 133.971 46.9004 136.821C40.4304 157.721 33.9004 178.611 27.5004 199.531C25.7104 205.401 23.9004 211.271 22.0904 217.141L31.9904 223.161C35.8604 203.231 39.6904 183.291 43.6204 163.371C44.7504 157.661 45.8704 151.951 47.0004 146.231C47.6204 143.101 46.6404 138.741 43.7704 137.001C40.9004 135.261 38.2804 137.691 37.3804 140.391C30.9604 159.741 24.5304 179.081 18.1104 198.421C16.2804 203.931 14.4704 209.451 12.6704 214.971C15.8604 216.911 19.0504 218.851 22.2404 220.791C23.7904 209.721 25.9004 198.731 28.3604 187.831C28.9704 185.141 29.5904 182.461 30.2404 179.781C30.5404 178.521 30.8504 177.261 31.1604 176.001C31.3204 175.371 31.4504 174.731 31.6304 174.111C31.0604 176.111 31.7604 173.601 31.8904 173.081C33.2504 167.731 34.6804 162.411 36.1504 157.091C37.8304 150.991 39.5404 144.911 41.2604 138.821C41.7904 136.931 42.0204 135.051 41.6104 133.101C41.3104 131.651 40.5204 129.661 39.2604 128.721C38.1804 127.921 36.8004 127.401 35.4904 128.061C34.0404 128.791 33.2904 130.101 32.6604 131.541C26.0604 146.661 19.3104 161.711 12.8904 176.911L21.7904 182.321C25.5804 166.201 29.4404 150.101 33.3204 134.001C33.8604 131.751 33.1104 127.981 31.1204 126.501C29.1304 125.021 27.1304 125.751 25.8304 127.681C21.5504 134.011 17.2604 140.341 12.9804 146.671L20.2404 152.801C21.8304 145.081 22.7004 137.261 23.0304 129.391C23.1204 127.361 22.1204 124.791 20.3604 123.721C18.6004 122.651 16.9804 123.621 15.8904 125.131C11.7704 130.861 9.11039 137.391 7.56039 144.241C7.02039 146.611 7.88039 150.021 10.0404 151.341C12.2004 152.661 14.3404 150.851 14.9504 148.741C16.9804 141.791 19.0104 134.851 21.0504 127.901C21.7804 125.411 21.6904 122.431 19.8804 120.411C18.2304 118.561 16.2504 119.181 14.8704 120.991C11.3204 125.651 8.53039 130.881 6.51039 136.391L13.0604 141.941C14.3304 137.041 15.4304 132.111 16.5604 127.181C17.0004 125.271 16.3204 122.251 14.4804 121.241C12.6404 120.231 10.9204 121.591 10.3704 123.421L10.4704 123.431Z" fill="black"/>
<path d="M25.2501 134.29C38.9401 132.83 52.9901 133.67 66.0501 136.79C66.3201 132.56 66.5901 128.33 66.8601 124.11C57.3201 125.84 47.7301 126.96 38.0001 126.66C33.1501 126.51 28.3101 126.07 23.5201 125.33C21.2501 124.98 20.0001 124.74 17.3501 124.18C14.9001 123.66 12.4701 123.06 10.0701 122.39L9.19006 136.06C18.6001 134.28 28.1201 133.15 37.6901 132.68C40.9101 132.52 42.2101 128.31 42.0701 125.64C41.9801 123.98 41.6601 122.13 40.6201 120.77C39.7201 119.61 38.8201 119.06 37.3501 118.82C31.8401 117.93 26.2601 118.01 20.7801 119.05C17.6101 119.65 16.2401 123.09 16.4101 126.08C16.5401 128.51 17.8101 133.14 21.1201 132.89C29.0101 132.28 36.9301 132.47 44.7801 133.5C45.7001 133.62 46.6201 133.75 47.5401 133.9C48.0001 133.97 48.4601 134.05 48.9201 134.12C49.2301 134.17 49.5301 134.22 49.8401 134.28C49.4601 134.21 49.4301 134.21 49.7601 134.27C51.6601 134.65 53.5601 135.03 55.4401 135.48C59.3601 136.42 63.2301 137.57 67.0301 138.91L63.4801 132.22C62.9101 144.1 64.1001 156.13 66.9301 167.68C67.5201 170.08 69.2001 173.35 72.1901 172.66C74.9901 172.02 76.3501 168.13 76.0701 165.56C74.8601 154.29 73.1301 143.11 70.6901 132.03C70.3601 130.53 69.6401 128.78 68.4001 127.77C67.4301 126.97 65.9201 126.52 64.7301 127.13C61.5401 128.75 61.1601 133 61.6301 136.1C64.2701 153.4 66.9101 170.7 69.5101 188.01C70.2501 192.96 70.9901 197.9 71.7401 202.85C72.1301 205.46 74.8301 209.56 77.9701 207.97C81.3701 206.24 81.6001 201.87 81.2001 198.6C79.1401 181.47 76.1801 164.46 72.3901 147.63C71.3101 142.81 70.1601 138.01 68.9401 133.22C68.5301 131.6 67.8601 129.81 66.5201 128.71C65.4901 127.87 63.9001 127.39 62.6401 128.03C59.4101 129.67 58.6601 134.32 59.3701 137.52C63.2401 155.04 67.1101 172.56 70.9801 190.08C71.5501 192.67 73.4501 196.14 76.6101 195.41C79.7701 194.68 80.7301 190.62 80.7701 187.81C81.0501 168.94 79.2501 150 75.4801 131.51C75.0201 129.26 73.6401 126.6 71.1901 126.16C68.7401 125.72 67.0101 127.85 66.3001 129.92C64.6801 134.6 64.4001 141.73 69.2401 144.67C70.6601 145.53 72.4101 145.85 73.9901 145.16C76.4901 144.06 77.5501 141.46 78.0501 138.96L68.2901 137.2C70.0101 158.24 71.4801 179.3 73.0001 200.36C73.4301 206.33 73.8601 212.3 74.2901 218.26C74.4201 220.09 74.7801 222.01 75.8701 223.55C76.6101 224.59 78.0101 225.8 79.4201 225.67C82.9601 225.34 84.2701 221 84.1801 218.02C83.7101 202.04 82.0401 186.08 79.2501 170.34C78.7901 167.73 76.6901 164.3 73.6201 165.01C70.5501 165.72 69.3801 169.82 69.4601 172.61C69.8801 188 70.9501 203.36 72.6601 218.65C72.8801 220.58 73.1201 222.45 74.2801 224.09C75.0401 225.16 76.4801 226.4 77.9301 226.27C81.5901 225.93 82.8801 221.47 82.8201 218.41C82.5801 206.78 81.2701 195.13 78.9101 183.74C78.3601 181.08 76.3501 177.54 73.1401 178.28C69.9301 179.02 68.9901 183.18 68.8801 186.06C68.3401 200.24 68.4501 214.44 69.1901 228.62L79.5801 228.36C78.3701 212.8 76.72 197.27 74.59 181.81C74.28 179.52 72.1901 175.8 69.3801 176.06C66.3701 176.34 64.9401 179.42 64.4601 182.06C62.0101 195.5 59.5601 208.94 57.1101 222.38L67.2501 222.13C61.9201 201.74 56.5801 181.34 51.2501 160.95C50.8501 159.42 50.3301 158.03 49.2601 156.84C48.4801 155.96 47.3101 155.08 46.0301 155.2C43.0201 155.48 41.6001 158.57 41.1101 161.2C37.3101 181.66 35.7201 202.42 34.1601 223.14L42.9101 219.37C42.7601 219.12 42.6101 218.87 42.4601 218.62C41.8201 217.61 42.6801 218.94 42.6901 219.09C42.6501 218.63 42.1301 217.96 41.9301 217.52C41.4501 216.46 41.0301 215.37 40.6601 214.27C40.5701 214.01 40.4401 213.71 40.3901 213.44C40.4101 213.53 40.9301 215.32 40.5901 214.09C40.4301 213.53 40.2701 212.96 40.1301 212.39C39.8401 211.25 39.5801 210.11 39.3301 208.96C38.2501 203.92 37.2901 198.85 36.2801 193.8C34.2001 183.39 32.1101 172.97 30.0301 162.56C28.8601 156.7 27.6901 150.84 26.5101 144.99C26.0501 142.68 24.1701 138.88 21.2201 139.15C18.2701 139.42 16.6701 142.56 16.2201 145.24C13.3001 162.62 12.4001 180.41 13.5701 197.99C13.7001 199.94 14.1001 202.01 15.2601 203.65C16.0501 204.76 17.5501 206.06 19.0601 205.92C22.8701 205.57 24.2101 200.93 24.1501 197.74C23.7801 177.89 21.5701 158.04 17.5501 138.6C16.8301 135.09 13.4301 130.82 9.75006 134.03C4.64006 138.48 1.35006 145.33 0.890056 152.07C0.750056 154.18 0.720056 156.18 1.57006 158.18C2.12006 159.48 3.30006 161.31 4.78006 161.76C8.41006 162.87 10.5901 159.1 11.0601 156.05C11.5801 152.7 12.1001 149.36 12.6201 146.01L2.57006 146.26C3.07006 149.83 3.54006 153.41 3.98006 156.99C4.20006 158.78 4.42006 160.57 4.62006 162.36C4.65006 162.66 4.82006 164.14 4.67006 162.78C4.52006 161.42 4.71006 163.17 4.74006 163.45C4.84006 164.35 4.94006 165.24 5.03006 166.14C5.79006 173.32 6.41006 180.51 6.92006 187.71C7.06006 189.62 7.43006 191.63 8.57006 193.23C9.34006 194.32 10.8001 195.58 12.2801 195.44C16.1201 195.08 17.1401 190.58 17.2501 187.45C17.7101 173.96 17.7101 160.46 17.2701 146.96C17.1701 144.04 15.9001 139.92 12.5901 139.33C9.48006 138.77 7.25006 142.4 7.05006 145.12C5.62006 164.6 5.65006 184.13 7.47006 203.58C8.03006 209.49 8.71006 215.4 9.54006 221.28C9.92006 224.01 12.2601 227.54 15.3901 226.82C18.5201 226.1 19.8001 221.82 19.7101 218.92C19.1801 201.79 18.1301 184.68 16.5901 167.62C16.1501 162.76 15.6401 157.9 15.1101 153.04C14.8901 151.07 14.6301 149.14 13.4501 147.47C12.6701 146.37 11.2001 145.1 9.71006 145.24C5.83006 145.6 4.80006 150.15 4.70006 153.3C4.03006 173.52 4.54006 193.79 6.25006 213.95C6.78006 220.22 7.44006 226.49 8.18006 232.74C8.50006 235.47 10.9401 238.97 14.0101 238.26C17.2801 237.51 18.3701 233.28 18.3201 230.39C17.9601 211.17 17.6101 191.96 17.2301 172.74C17.1901 170.88 16.6601 168.69 15.5601 167.14C14.7801 166.04 13.3001 164.76 11.8001 164.9C7.89006 165.26 6.89006 169.83 6.77006 172.99C5.94006 193.78 5.11006 214.57 4.28006 235.36C4.21006 237.14 4.92006 239.5 5.95006 240.96C6.73006 242.06 8.21006 243.34 9.71006 243.2C13.6601 242.83 14.5701 238.27 14.7401 235.11C15.4001 223.43 16.0601 211.76 16.7201 200.08L6.26006 200.34C6.40006 214.06 6.09006 227.78 5.31006 241.47L15.7301 241.21C15.7501 240.57 15.7601 239.94 15.7901 239.3C15.8001 238.99 15.7901 238.65 15.8401 238.35C15.7901 238.64 15.7101 240.14 15.8001 239.03C15.9101 237.68 16.0301 236.33 16.1901 234.99C16.5101 232.38 16.9501 229.79 17.5001 227.22L7.23006 225.36C7.15006 232.06 7.06006 238.77 6.98006 245.47C6.95006 248.06 8.08006 251.23 10.3501 252.62C12.3301 253.82 14.9201 252.94 15.9801 250.85C21.4301 240.1 24.2001 228.26 23.7201 216.18C23.6001 213.28 22.3701 209.19 19.0701 208.6C15.7701 208.01 13.8601 211.66 13.5701 214.35C13.0001 219.59 12.4201 224.83 11.8501 230.06C11.5101 233.17 11.1701 236.17 11.6301 239.28C12.0901 242.39 13.8201 246.28 17.0401 247.65C19.6001 248.74 22.6101 248.03 25.2701 247.75C27.7101 247.5 30.1601 247.25 32.6001 247.02C37.8101 246.53 43.0301 246.03 48.2401 245.54C51.5001 245.23 52.8301 241.6 53.0101 238.79C53.1901 235.98 52.3401 231.48 49.2101 230.49C37.9701 226.93 26.1401 225.1 14.3401 225.15C11.0701 225.17 9.71006 229.36 9.55006 231.94C9.36006 234.86 10.2501 239.1 13.3701 240.28C17.8701 241.99 22.5401 243.1 27.3101 243.75C31.5401 244.33 35.8401 244.61 40.0001 243.51C45.4801 242.07 48.3201 237.08 48.4401 231.62C48.5801 225.79 44.8001 220.92 41.3901 216.55C38.1701 212.43 34.6101 208.55 30.7701 205.01C28.9901 203.37 26.5301 204.03 25.1401 205.75C23.3001 208.02 23.0601 211.14 23.5201 213.94C24.8201 221.85 26.7801 229.59 29.1801 237.24C30.0201 239.92 33.0701 242 35.6301 240.26C38.3501 238.42 39.1401 234.03 38.3601 231.02C37.1701 226.45 35.9701 221.89 34.7801 217.32C34.1001 214.71 32.3301 211.12 29.0301 211.88C25.7301 212.64 24.8101 216.78 24.7901 219.64C24.7901 220.58 24.7601 221.53 24.7301 222.47C24.7101 222.93 24.7301 223.43 24.6601 223.88L24.7301 222.75C24.7101 223.06 24.6901 223.38 24.6601 223.69C24.5201 225.49 24.3101 227.29 24.0501 229.08C23.7901 230.87 23.4701 232.65 23.0901 234.42C22.9901 234.88 22.8901 235.34 22.7801 235.8L22.6701 236.26C22.4801 237.04 22.5201 236.87 22.8001 235.76C22.3901 236.48 22.2801 237.69 22.0501 238.49L27.7501 234.76C27.4301 234.61 27.1201 234.45 26.8201 234.28L28.0601 235.04C27.3201 234.59 26.6501 234.07 26.0301 233.47C25.0801 232.53 26.7001 234.37 26.0701 233.51C25.7601 233.09 25.4501 232.67 25.1701 232.22C25.0801 232.07 24.9901 231.92 24.8901 231.77C24.3101 230.84 25.2001 232.37 25.2201 232.4C24.9401 232.06 24.7801 231.5 24.6001 231.1C24.2401 230.26 23.9201 229.41 23.6301 228.54C23.5501 228.31 23.4801 228.08 23.4001 227.85C23.1201 226.99 23.8901 229.53 23.6501 228.66C23.5401 228.26 23.4201 227.85 23.3101 227.45C22.9801 226.25 22.6701 225.04 22.3701 223.83C21.7801 221.48 21.2201 219.13 20.6901 216.76C18.5401 207.15 16.9601 197.44 15.7701 187.67C16.0701 190.09 15.7701 187.71 15.7101 187.08C15.6301 186.36 15.5601 185.63 15.4901 184.91C15.3601 183.54 15.2401 182.18 15.1301 180.81C14.9001 177.99 14.7201 175.18 14.5801 172.35C14.4401 169.52 13.2801 165.48 10.0101 164.89C6.94006 164.34 4.84006 167.89 4.60006 170.54C3.83006 179.05 3.13006 187.58 2.52006 196.1C2.45006 197.09 2.38006 198.09 2.31006 199.08C2.26006 199.84 2.21006 200.59 2.16006 201.35C2.16006 201.39 2.28006 199.71 2.21006 200.57C2.16006 201.15 2.13006 201.73 2.09006 202.31C1.93006 204.46 1.78006 206.61 1.63006 208.76C1.31006 213.49 1.00006 218.22 0.720056 222.96C0.470056 227.18 0.210056 231.41 0.0200559 235.63C-0.229944 240.99 1.72006 247.26 7.41006 248.93C11.4901 250.13 15.8801 250.67 20.0701 251.42C24.2601 252.17 28.2901 252.82 32.4201 253.42C41.8101 254.78 51.2401 255.79 60.7001 256.45C62.1401 256.55 63.7001 255.14 64.3501 254.02C65.1801 252.59 65.5701 251.04 65.6801 249.4C65.7901 247.76 65.6401 245.87 64.9301 244.32C64.2901 242.92 63.3001 241.19 61.7101 240.73C50.9901 237.6 39.7701 236.19 28.6101 236.81C24.8601 237.02 23.3401 241.88 23.5101 245.02C23.7001 248.47 25.1101 252.53 29.0101 252.97C43.3801 254.57 57.9101 254.19 72.1701 251.82C76.1401 251.16 77.0301 247.1 77.2501 243.65C77.6501 237.31 75.74 230.84 72.34 225.51L68.9501 239.29C73.6501 238.98 76.6201 234.81 77.7701 230.59C79.0201 226 78.9201 221.37 78.6701 216.65C78.1801 207.26 76.8901 197.88 74.7501 188.73C74.3601 187.06 73.6101 185.15 72.2301 184.02C71.1601 183.14 69.5001 182.64 68.1801 183.32C64.7701 185.05 64.0901 189.85 64.7601 193.22C64.9801 194.3 64.7101 192.49 64.6901 192.32C64.8201 193.64 64.9501 190.7 64.7601 191.63C64.5701 192.56 65.3401 190.08 64.9701 190.91C64.7701 191.35 64.2901 192.26 65.1801 190.59C64.2301 192.38 63.7401 194.21 63.7901 196.26C63.8301 198.05 64.3301 200.39 65.4601 201.86C66.3401 203.01 67.6301 204.25 69.2201 204.1C70.8101 203.95 72.1401 203.04 72.8601 201.68C74.9901 197.64 75.6601 193.24 74.7701 188.74L64.7801 193.23C65.6001 196.76 66.3001 200.32 66.8601 203.9C67.1501 205.72 67.4501 207.57 67.6101 209.41C67.5501 208.76 67.4201 207.68 67.5601 208.97C67.6001 209.37 67.6401 209.77 67.6801 210.17C67.7701 211.13 67.8601 212.1 67.9301 213.06C68.1901 216.48 68.3101 219.9 68.3501 223.33C68.3601 224.66 68.5901 221.11 68.4101 222.45C68.3701 222.77 68.3401 223.09 68.2801 223.41C68.2401 223.67 68.1701 223.94 68.1301 224.2C67.9801 225.07 68.7301 222.26 68.3301 223.35C68.2301 223.63 68.0901 223.93 68.0101 224.22C68.4001 222.75 68.6301 222.88 68.2501 223.63C67.7901 224.54 69.4001 222.54 68.6001 223.23C68.4001 223.41 68.2101 223.59 67.9901 223.76L69.2301 222.92C68.8401 223.17 68.4601 223.35 68.0201 223.48L69.4101 223.16C69.1201 223.22 68.8501 223.26 68.5601 223.28C65.9201 223.45 64.4401 226.05 63.8701 228.33C63.1301 231.27 63.5401 234.49 65.1701 237.07C65.3201 237.31 65.4701 237.55 65.6201 237.79C65.9901 238.44 65.9101 238.28 65.3701 237.3C65.3701 237.62 65.7901 238.16 65.9101 238.45C66.0801 238.84 66.2201 239.24 66.3801 239.63C66.9101 241.01 65.9001 237.77 66.3601 239.55C66.4801 240.03 66.5901 240.51 66.6801 241C66.8101 241.71 66.6401 242.93 66.6801 240.55C66.6801 240.97 66.7501 241.4 66.7601 241.82C66.7801 242.44 66.6701 244.57 66.8501 241.8L71.7901 235.78C57.5201 238.12 42.9901 238.48 28.6301 236.85L29.0301 253C36.5601 252.59 44.1301 253.04 51.5501 254.36L50.1401 254.11C53.2301 254.67 56.2901 255.38 59.3201 256.24C59.6601 251 59.9901 245.76 60.3301 240.52C45.6601 239.63 31.0501 237.88 16.5701 235.31L17.9401 235.55C16.0901 235.22 14.2401 234.87 12.4001 234.52C10.9401 234.24 9.44006 234.01 8.12006 233.28L9.35006 234.03C9.22006 233.94 9.06006 233.79 8.92006 233.73C8.45006 233.52 9.30006 234.2 9.36006 234.29C10.2601 235.62 9.85006 235.38 9.68006 234.87C9.89006 235.48 10.0501 236.01 10.1101 236.65C10.2601 238.1 10.1501 236.71 10.1501 236.36C10.1501 235.8 10.1901 235.23 10.2101 234.67C10.3101 232.43 10.4201 230.2 10.5301 227.96C10.7601 223.49 11.0001 219.02 11.2701 214.55C11.3301 213.56 11.3901 212.56 11.4501 211.57C11.4701 211.24 11.4901 210.91 11.5101 210.58C11.5201 210.35 11.5801 209.46 11.5101 210.6C11.4401 211.74 11.4901 210.85 11.5101 210.62C11.5301 210.29 11.5501 209.96 11.5701 209.63C11.7201 207.39 11.8601 205.16 12.0401 202.93C12.3901 198.47 12.7301 194.01 13.1101 189.55C13.5401 184.51 13.9901 179.48 14.4801 174.45L4.50006 172.65C5.00006 183.82 6.15006 194.97 7.94006 206.01C8.79006 211.27 9.82006 216.5 11.0001 221.69C12.1801 226.9 13.3801 232.18 15.1701 237.23C17.0401 242.52 20.2201 247.5 25.4301 249.96C27.9401 251.14 30.5101 248.4 31.1301 246.23C33.6501 237.49 34.9701 228.57 35.0301 219.47L25.0401 221.79C26.2401 226.35 27.4401 230.92 28.6401 235.48C31.7001 233.41 34.7601 231.34 37.8201 229.26C37.6801 228.8 37.5401 228.34 37.3901 227.89C38.0601 229.92 37.5101 228.29 37.3901 227.89C37.1701 227.12 36.9501 226.35 36.7301 225.58C36.2401 223.81 35.7801 222.03 35.3601 220.24C34.5301 216.74 33.8301 213.21 33.2401 209.66C30.8201 212.64 28.4001 215.61 25.9801 218.59C27.9801 220.43 29.8801 222.37 31.7201 224.37C32.3001 225 30.7301 223.23 31.6901 224.34C31.8801 224.56 32.0701 224.78 32.2701 225.01C32.7001 225.51 33.1201 226.02 33.5401 226.53C34.4201 227.61 35.2801 228.72 36.1001 229.84C36.8801 230.9 37.6501 231.99 38.3801 233.09C38.5401 233.33 38.7001 233.58 38.8601 233.83C39.6701 235.07 38.3801 232.88 38.7401 233.65C38.8801 234.02 38.8601 233.91 38.6601 233.35C38.4501 232.81 38.3501 232.24 38.3501 231.65C38.3401 230.7 38.4801 229.77 38.7601 228.87C38.4401 229.9 39.4501 227.62 39.1101 228.15C38.8101 228.61 40.2801 227.04 39.5101 227.67C39.3701 227.78 39.2201 227.92 39.0901 228.05C38.4401 228.67 40.0201 227.58 39.4401 227.82C38.5001 228.19 37.6601 228.62 36.6601 228.87L38.0001 228.56C33.7201 229.49 28.9301 228.81 24.6701 228.08L26.0201 228.32C22.5001 227.69 19.0701 226.74 15.7301 225.47C15.4101 230.51 15.0801 235.56 14.7601 240.6C21.5401 240.55 28.3101 241.13 34.9901 242.33L33.6501 242.09C38.1501 242.92 42.5901 244.01 46.9501 245.38C47.2701 240.36 47.5901 235.34 47.9201 230.33C43.0301 230.81 38.1501 231.29 33.2601 231.77C30.8201 232.01 28.3701 232.24 25.9301 232.46C23.6501 232.67 21.1501 233.22 18.8801 232.88L20.2301 233.12C19.9501 233.06 19.6801 232.97 19.4201 232.84C19.8601 232.98 20.2001 233.24 20.4501 233.61C20.8201 234.07 20.8701 234.11 20.6001 233.74C21.0701 234.42 21.3701 235.16 21.5101 235.97C21.4701 235.81 21.4401 235.66 21.4101 235.5C21.3101 234.88 21.3501 235.29 21.5501 236.72C21.5801 236.4 21.5601 236.03 21.5501 235.71C21.4401 237.2 21.4201 237.56 21.4901 236.77C21.5201 236.5 21.5501 236.23 21.5801 235.96C21.6401 235.47 21.7001 234.98 21.7501 234.49L22.1201 231.31C22.6301 226.99 23.1401 222.66 23.6401 218.34L13.4901 216.51C13.5301 217.71 13.5401 218.9 13.5101 220.1C13.4901 220.7 13.4401 221.3 13.4301 221.89C13.4301 219.29 13.4501 221.42 13.3901 222.03C13.1601 224.41 12.8001 226.78 12.2901 229.12C12.1701 229.69 11.4601 231.56 12.2501 229.4C12.0501 229.95 11.9401 230.56 11.7801 231.13C11.4501 232.28 11.0801 233.42 10.6801 234.55C10.2801 235.68 9.84006 236.79 9.37006 237.89C9.31006 238.02 8.65006 239.54 8.64006 239.53C9.09006 238.59 9.16006 238.45 8.83006 239.12C8.70006 239.39 8.56006 239.66 8.43006 239.92L17.4301 245.29C17.5201 238.59 17.6101 231.88 17.7001 225.18C17.7401 222.27 16.2301 218.09 13.0001 217.51C9.77006 216.93 8.01006 220.66 7.43006 223.33C6.14006 229.32 5.53006 235.41 5.37006 241.53C5.32006 243.32 5.99006 245.63 7.03006 247.1C7.81006 248.2 9.28006 249.47 10.7701 249.33C14.7101 248.96 15.6001 244.42 15.7901 241.27C16.5901 227.57 16.9201 213.85 16.7801 200.13C16.7601 198.28 16.2001 196.07 15.1101 194.53C14.3301 193.43 12.8501 192.15 11.3501 192.29C7.40006 192.66 6.49006 197.22 6.32006 200.38C5.66006 212.06 5.00006 223.73 4.34006 235.41L14.8001 235.15C15.6301 214.36 16.4601 193.57 17.2901 172.78L6.83006 173.04C7.21006 192.26 7.61006 211.47 8.00006 230.69L18.1401 228.34C18.0601 227.69 17.9801 227.03 17.9101 226.38C17.8801 226.13 17.8501 225.89 17.8301 225.64C17.7101 224.59 18.0201 227.32 17.9001 226.26C17.7601 225.03 17.6301 223.81 17.5001 222.58C17.2401 220.04 16.9901 217.51 16.7601 214.96C16.3201 209.96 15.9501 204.96 15.6501 199.95C15.0701 190.01 14.7901 180.06 14.8301 170.11C14.8501 164.43 14.9701 158.76 15.1701 153.09L4.75006 153.35C6.57006 170.39 7.94006 187.48 8.77006 204.59C9.01006 209.47 9.20006 214.35 9.36006 219.23L19.5401 216.87C19.2201 214.6 18.9201 212.33 18.6401 210.06C18.5701 209.49 18.5001 208.92 18.4401 208.35C18.4101 208.11 18.3801 207.86 18.3601 207.62C18.6201 209.79 18.4901 208.74 18.4301 208.26C18.3101 207.12 18.1901 205.98 18.0701 204.84C17.6101 200.2 17.2501 195.55 16.9801 190.9C16.4501 181.67 16.3001 172.43 16.5301 163.19C16.5901 160.66 16.6901 158.12 16.8101 155.59C16.8701 154.28 16.9401 152.98 17.0201 151.67C17.0401 151.35 17.1101 150.23 17.0201 151.5C16.9301 152.77 17.0201 151.59 17.0301 151.33C17.0801 150.6 17.1301 149.86 17.1801 149.13L6.96006 147.28C7.42006 160.77 7.42006 174.27 6.97006 187.77L17.2901 187.52C16.1901 172.26 14.6201 157.01 12.5501 141.85C12.2401 139.58 10.1701 135.89 7.38006 136.15C4.44006 136.42 2.91006 139.48 2.50006 142.1C1.97006 145.44 1.45006 148.79 0.920056 152.13L11.0901 156.11C11.1301 155.53 11.1901 154.95 11.2801 154.37C11.3201 154.11 11.3701 153.86 11.4201 153.6C11.7101 152.12 11.3601 154.18 11.2501 154.19C11.3101 154.19 11.7601 152.62 11.7901 152.53C11.8801 152.29 11.9801 152.05 12.0801 151.81C12.3101 151.28 12.8501 150.73 11.8801 152.21C12.4801 151.29 13.0101 150.32 13.6301 149.41C14.0701 148.77 12.6901 150.46 13.4601 149.63C13.6401 149.44 13.8101 149.24 13.9801 149.06C14.4301 148.59 14.9001 148.15 15.3901 147.73L7.59006 143.16C8.53006 147.77 9.38006 152.41 10.1101 157.06C10.4901 159.47 10.8401 161.88 11.1601 164.29C11.3101 165.42 11.4501 166.54 11.5901 167.67C11.6701 168.31 11.7401 168.96 11.8201 169.6C12.0101 171.22 11.6001 167.62 11.8201 169.65C12.8501 179.09 13.4301 188.58 13.5901 198.07L24.1601 197.81C23.6201 189.45 23.5401 181.06 23.9701 172.69C23.9901 172.2 24.0201 171.72 24.0501 171.23C24.1701 169.17 23.9301 172.83 24.0501 171.19C24.1201 170.22 24.1901 169.24 24.2701 168.27C24.4401 166.16 24.6401 164.06 24.8701 161.96C25.3401 157.76 25.9301 153.57 26.6301 149.4L16.3501 149.65C20.6001 170.82 24.6501 192.05 29.1501 213.16C30.4901 219.43 32.3301 225.54 35.7401 231.02C36.8201 232.76 38.9601 233.82 40.9401 232.96C42.9201 232.1 44.3401 229.36 44.4901 227.24C46.0301 206.51 47.5801 185.74 51.3801 165.27L41.2401 165.52C46.5701 185.91 51.9101 206.31 57.2401 226.7C57.6401 228.23 58.1601 229.62 59.2301 230.81C60.0101 231.69 61.1801 232.57 62.4601 232.45C65.4701 232.17 66.9001 229.09 67.3801 226.45C69.8301 213.01 72.2801 199.57 74.7301 186.13L64.59 186.38C65.09 189.99 65.5601 193.6 66.0201 197.21C66.2501 199.02 66.4601 200.82 66.6801 202.63C66.8001 203.62 66.9201 204.6 67.0201 205.59L66.8901 204.46C66.9201 204.71 66.9501 204.95 66.9701 205.2C67.0201 205.69 67.0801 206.19 67.1301 206.68C67.9301 214 68.6201 221.34 69.2201 228.68C69.3801 230.61 69.7301 232.61 70.8801 234.24C71.6601 235.34 73.1301 236.6 74.6101 236.47C78.2701 236.13 79.7801 231.56 79.6101 228.43C78.8201 214.26 78.6801 200.06 79.1701 185.88L69.1401 188.2C70.2501 193.48 71.1001 198.8 71.7601 204.16C71.8901 205.19 71.5801 202.5 71.6901 203.54C71.7201 203.86 71.7601 204.18 71.7901 204.5C71.8601 205.14 71.9201 205.78 71.9801 206.42C72.1101 207.78 72.2201 209.15 72.3101 210.51C72.5001 213.24 72.6201 215.98 72.6801 218.72L82.6101 216.42C82.4101 214.65 82.8101 218.28 82.6101 216.5C82.5601 216.01 82.5001 215.51 82.4501 215.02C82.3501 214.12 82.2601 213.21 82.1601 212.3C81.9601 210.41 81.7801 208.51 81.6001 206.62C81.2501 202.83 80.9301 199.04 80.6601 195.24C80.1101 187.65 79.7301 180.04 79.5001 172.43L69.7001 174.7C70.3601 178.39 70.9701 182.08 71.5001 185.79C71.7801 187.72 72.0401 189.66 72.2801 191.6C72.3901 192.49 72.5001 193.38 72.6001 194.27C72.6301 194.51 72.6601 194.76 72.6801 195C72.5501 193.88 72.52 193.61 72.59 194.2C72.64 194.69 72.7001 195.17 72.7501 195.66C73.5401 203.2 74.0601 210.76 74.3101 218.33L84.1901 218.09C82.5901 197.04 81.0001 175.99 79.4001 154.93C78.9501 148.97 78.5901 142.99 78.2001 137.02C78.0201 134.23 76.9601 130.31 73.7301 129.73C70.5001 129.15 68.9901 132.72 68.4401 135.26L68.3901 135.49L69.5801 132.13C69.8801 131.66 70.2601 131.28 70.7301 131C71.2201 130.72 71.2801 130.65 70.9201 130.78L72.2301 130.48C71.9801 130.52 71.7701 130.52 71.5201 130.48L72.8501 130.72C72.6901 130.69 72.5301 130.64 72.3801 130.57C74.3301 131.51 75.2701 133.32 75.2101 136.01C75.2501 136.78 75.1501 137.53 74.8901 138.25C74.9701 137.99 75.0601 137.73 75.1601 137.47L65.9801 135.88C66.8901 140.34 67.6801 144.82 68.3501 149.33C68.6801 151.58 68.9901 153.84 69.2601 156.1C69.3201 156.58 69.3501 157.07 69.4301 157.55C69.0601 155.25 69.3901 157.18 69.4401 157.71C69.5601 158.84 69.6701 159.97 69.7801 161.11C70.6101 170.1 70.9401 179.12 70.8001 188.14L80.59 185.87C76.72 168.35 72.8601 150.83 68.9901 133.3L59.4101 137.6C63.6401 154.32 67.0801 171.23 69.6801 188.28C70.4201 193.16 71.1501 198.03 71.7801 202.92L81.2401 198.67C78.4901 181.42 75.7501 164.16 73.0501 146.9C72.2801 141.97 71.5001 137.03 70.7301 132.1L61.6801 136.17C62.8301 141.3 63.8501 146.46 64.7301 151.65C65.1601 154.2 65.5601 156.76 65.9201 159.32C66.1001 160.6 66.2701 161.88 66.4401 163.17C66.5201 163.81 66.6001 164.45 66.6801 165.1C66.7401 165.62 67.0101 167.96 66.7701 165.86L75.9101 163.74C75.2401 161.04 74.6501 158.32 74.1701 155.58C73.9401 154.25 73.7301 152.92 73.5401 151.58C73.4401 150.87 73.3601 150.16 73.2601 149.45C73.1301 148.48 73.4101 150.88 73.3101 149.91C73.2701 149.51 73.2301 149.12 73.1901 148.72C72.6501 143.18 72.5101 137.61 72.7501 132.05C72.8501 129.78 71.6101 126.2 69.2001 125.36C53.7401 120.02 37.1401 117.86 20.8301 119.1L21.1701 132.94C26.6501 131.91 32.2401 131.84 37.7401 132.73L37.4001 118.87C27.8301 119.33 18.3101 120.45 8.90006 122.22C5.95006 122.78 4.75006 125.57 4.57006 128.35C4.42006 130.78 5.17006 135.09 8.02006 135.89C27.4401 141.31 48.8301 142.08 68.3501 136.78C69.4701 136.47 70.4901 134.73 70.8101 133.76C71.2501 132.41 71.3701 131.04 71.2101 129.64C70.9201 127.05 69.6901 124.57 66.9201 124.16C53.0301 122.08 38.8601 122.44 25.0801 125.13C22.9701 125.54 22.0601 127.81 22.1701 129.81C22.2501 131.38 23.1101 134.58 25.3101 134.34L25.2501 134.29Z" fill="black"/>
</g>
<defs>
<clipPath id="clip0_3416_10083">
<rect width="360" height="311" fill="white"/>
</clipPath>
</defs>
</svg>
