<svg width="205" height="257" viewBox="0 0 205 257" fill="none" xmlns="http://www.w3.org/2000/svg">
<g clip-path="url(#clip0_3416_9753)">
<path d="M198.56 5.97978C190.47 -1.44022 177.06 -2.52022 169.1 5.97978C121.94 56.3598 84.54 114.74 57.85 178.31C56.97 180.41 56.14 182.53 55.28 184.63C49.51 173.17 43.94 161.61 38.65 149.91C36.63 145.44 30.73 141.59 26.2 140.34C21.21 138.97 14.58 139.59 10.15 142.44C5.70003 145.31 1.79003 149.58 0.580033 154.89C-0.739967 160.67 0.250033 165.57 2.68003 170.94C14.32 196.65 27.12 221.81 41.04 246.36C45.16 253.62 53.71 257.39 61.79 256.3C70.07 255.19 76.64 249.39 79.11 241.38C84.25 224.71 90.19 208.31 96.86 192.2C106.51 169.64 117.59 147.7 130.13 126.6C136.55 115.8 143.33 105.22 150.47 94.8798C154.04 89.7098 157.69 84.5998 161.44 79.5598C163.1 77.3198 164.78 75.1098 166.47 72.8898C166.69 72.6198 166.9 72.3398 167.11 72.0698C168.2 70.6798 169.3 69.2998 170.4 67.9198C179.35 56.7298 188.75 45.8998 198.54 35.4398C205.99 27.4798 207.02 13.7698 198.54 5.97978H198.56Z" fill="#1D1D1B"/>
</g>
<defs>
<clipPath id="clip0_3416_9753">
<rect width="204.54" height="256.49" fill="white"/>
</clipPath>
</defs>
</svg>
