<svg width="278" height="211" viewBox="0 0 278 211" fill="none" xmlns="http://www.w3.org/2000/svg">
<g clip-path="url(#clip0_3416_11697)">
<g style="mix-blend-mode:darken">
<mask id="mask0_3416_11697" style="mask-type:luminance" maskUnits="userSpaceOnUse" x="0" y="0" width="278" height="212">
<path d="M277.06 0H0V211.01H277.06V0Z" fill="white"/>
</mask>
<g mask="url(#mask0_3416_11697)">
<mask id="mask1_3416_11697" style="mask-type:luminance" maskUnits="userSpaceOnUse" x="0" y="0" width="278" height="212">
<path d="M277.06 0H0V211.01H277.06V0Z" fill="white"/>
</mask>
<g mask="url(#mask1_3416_11697)">
<path d="M153.78 208.1C152.48 208.1 151.11 207.92 149.73 207.56C149.37 207.47 149.02 207.4 148.66 207.32C148.22 207.23 147.72 207.13 147.49 207.01C145.84 206.15 144.1 205.59 142.06 205.25C143.38 205.14 144.73 204.61 146.16 203.66C146.98 204.39 148.01 204.8 149.15 204.8C149.77 204.8 150.38 204.69 151.04 204.45C154.74 203.14 158.98 201.43 162.35 197.8C163.53 196.53 164.87 195.41 166.2 194.29L167.86 192.87C169.73 191.23 171.25 190.53 172.92 190.53L173.82 190.56C177.47 190.56 180.26 188.68 182.73 186.64C188.93 181.52 195.81 176.77 203.75 172.1C205.41 171.13 206.87 169.95 208.27 168.81C209.31 167.97 210.35 167.12 211.47 166.39C215.52 163.74 219.2 161.41 223.34 159.67C227.63 157.86 231.62 155.42 235.48 153.07L238.68 151.13C240.11 150.28 241.21 149.11 242.18 148.08C242.18 148.08 244.82 145.3 245.85 144.2C247.64 142.3 249.43 140.4 251.3 138.57C251.83 138.04 252.94 137.6 253.92 137.22C254.95 136.81 256.03 136.51 257.1 136.2L258.8 135.7C263.87 134.13 266.76 130.1 266.34 125.17C266.1 122.29 266.08 119.29 266.07 116.38C266.04 111.51 266.02 106.48 264.96 101.49L264.61 99.8101L262.96 99.3101C262.47 99.1401 261.99 98.9701 261.38 98.9701C260.16 99.0901 259.34 99.5201 258.71 100.2L256.56 102.63C255.09 104.31 253.62 106 252.04 107.57L251.61 108C248.09 111.51 244.44 115.15 240.61 118.33C239.23 119.47 237.47 120.33 235.58 121.24C234.86 121.59 234.12 121.95 233.41 122.32C228.69 124.78 224 127.22 219.8 130.67C217.89 132.25 215.59 133.5 213.8 134.42C207.67 137.59 202.1 141.6 196.72 145.48C194.61 147 192.5 148.52 190.36 149.99C186.53 152.62 182.66 154.45 178.49 155.59C172.62 157.2 166.47 159.15 161.4 163.77C160.66 164.45 159.58 165.02 158.55 165.55C157.69 165.98 156.9 166.2 156.17 166.2C155.44 166.2 154.83 165.99 154.22 165.55C153.54 165.07 152.01 163.74 152.47 161.89C153.83 156.43 152.98 151.43 151.81 145.92C150.5 139.68 150.54 133.21 150.69 127.12C150.8 122.9 152.86 119.64 156.67 117.7C160.64 115.67 164.84 113.85 168.91 112.09C170.9 111.23 172.88 110.37 174.86 109.49C176.05 108.96 177.22 108.37 178.33 107.68C179.39 107.03 180.38 106.28 181.38 105.53C183.31 104.07 184.97 102.81 187 102.43C188.32 102.19 189.17 101.3 189.67 100.76C191.86 98.6401 194.28 97.1901 196.85 95.6501L199.12 94.2701C201.38 92.8601 203.47 91.2301 205.49 89.6501C206.44 88.9101 207.38 88.1701 208.34 87.4601L209.52 86.5501C210.44 85.8301 211.3 85.1501 212.14 84.7701C215.41 83.2901 218.24 81.4701 220.81 79.2201C224.02 76.4001 226.78 74.8501 229.74 74.2001C231.31 73.8501 232.61 73.0901 233.86 72.3501C234.35 72.0601 234.86 71.7601 235.4 71.4801L237.36 70.4801L235.79 62.5801L230.96 59.9501L230.03 60.0701C229.3 60.0901 228.15 60.1101 227.19 60.9901C224.95 63.0401 222.28 64.5401 219.45 66.1301C217.83 67.0401 216.23 67.9501 214.68 68.9601C213.38 69.8101 212.44 70.2501 211.89 70.2701C205.52 70.4901 200.72 73.9201 196.46 77.5901C190.65 82.6001 184.15 87.5701 176.01 93.2601C174.56 94.2601 173.3 95.1301 172.26 96.3401C168.7 100.45 163.7 102.27 158.4 104.2L156.53 104.88C156.19 105.01 155.68 105.19 155.5 105.21C154.72 105.09 153.82 105.04 152.92 105.04C149.24 105.04 145.87 106 142.59 106.93L141.14 107.34C140.28 107.58 139.44 107.7 138.65 107.7C137.01 107.7 135.49 107.19 133.98 106.14C133.34 105.69 132.68 105.27 132.02 104.85C131.08 104.25 130.13 103.67 129.28 102.96C123.43 98.0001 116.8 94.2801 110.39 90.6901L107.42 89.0201C105.8 88.1101 104.24 87.1001 102.68 86.0901C101.44 85.2901 100.2 84.4901 98.94 83.7301L98.21 83.2801C96.7 82.3601 94.99 81.3101 93.06 80.7301C87.24 78.9401 82.27 75.6001 77.02 72.0601L75.74 71.2001C72.01 68.6901 68.06 66.4601 64.24 64.3001C62.42 63.2701 60.6 62.2401 58.81 61.1801C57.16 60.2101 55.53 59.2201 53.91 58.2301L50.29 56.0301L49.16 56.2701C46.85 56.7701 45.18 57.8701 43.7 58.8401C43.19 59.1701 42.68 59.5101 42.16 59.8001L40.12 60.9101L40.74 63.1401C40.94 64.1401 41.17 65.4301 42.46 66.1901C43.94 67.0501 45.37 67.9601 46.8 68.8701C51.08 71.5901 55.5 74.3901 60.88 75.8501C65.95 77.2301 70.58 79.5501 74.63 82.7301C76.06 83.8501 77.59 84.7101 79.07 85.5301L80.52 86.3501C80.94 86.6001 81.41 86.8101 81.89 87.0101C82.13 87.1101 82.5 87.2701 82.61 87.3401C86.19 90.7701 90.44 92.9501 94.55 95.0601C96.12 95.8701 97.69 96.6701 99.22 97.5501C102.4 99.3801 105.37 101.47 107.86 103.27C112.15 106.39 116.82 108.87 122.13 110.83C126.11 112.3 129.65 114.5 132.63 117.36C133.43 118.13 134.51 119.17 134.67 119.76C134.97 120.83 135.29 121.91 135.62 122.98C137 127.53 138.31 131.83 137.19 136.23C136.18 140.21 136.41 143.86 137.91 147.38C138.36 148.44 138.57 149.62 138.45 150.46C137.91 154.43 138.25 158.52 139.53 163.33C139.82 164.42 139.73 165.46 139.24 166.76C139.11 167.1 138.89 167.25 138.82 167.27L136.14 166.06C132.05 164.26 128.19 162.57 124.81 159.95C120.88 156.9 116.76 154 112.78 151.21C110.99 149.95 109.2 148.7 107.43 147.43C107.03 147.14 106.6 146.88 106.18 146.6C105.53 146.19 104.91 145.8 104.59 145.43C101.37 141.75 97.33 139.67 93.43 137.66L91.97 136.91C88.06 134.86 84.27 132.37 80.06 129.09C72.63 123.29 65.39 118.79 57.94 115.33C57.38 115.07 56.54 114.66 55.89 114.17L30.19 95.1401C25.73 91.8501 21.24 88.5901 16.71 85.3801C15.85 84.7801 14.97 84.5001 14.11 84.2201C13.76 84.1101 13.38 83.9901 12.94 83.8301L9.47002 82.5201L9.03002 86.2001C8.88002 87.3701 8.73002 88.4401 8.59002 89.4501C8.29002 91.5401 8.00002 93.5301 7.95002 95.5201C7.78002 102.41 9.83002 107.52 14.21 111.15L17.39 113.85C18.45 114.73 19.54 115.6 20.62 116.47C22.74 118.16 24.85 119.86 26.85 121.69C32.21 126.55 38.12 130.31 43.7 133.65C46.79 135.5 49.67 137.68 52.7 139.99C53.96 140.94 55.21 141.89 56.47 142.82C57.59 143.64 58.7 144.48 59.81 145.33C61.39 146.52 62.97 147.72 64.58 148.86C65.66 149.62 66.75 150.37 67.84 151.12C71.32 153.5 74.6 155.76 77.57 158.5C79.29 160.08 81.19 161.37 83.03 162.61C83.69 163.06 84.36 163.51 85.02 163.98L102.85 176.63C103.55 177.13 104.21 177.69 104.83 178.28C109.79 182.92 115.31 186.56 121.5 190.49C123.75 191.92 125.82 193.71 128.01 195.61C128.82 196.3 129.61 197 130.42 197.67C132.71 199.59 134.67 201.22 136.48 202.99C137.46 203.95 138.5 204.61 139.59 204.96H139.55C138.3 204.88 136.96 204.44 136.13 203.84C132.92 201.5 129.5 199.62 125.67 198.09C125.03 197.83 124.35 197.37 123.62 196.89C123.62 196.89 121.71 195.64 121.27 195.34C120.34 194.71 119.41 194.08 118.41 193.56C111.8 190.16 105.52 185.99 99.18 180.83L97.64 179.54C94.92 177.21 91.83 174.59 87.58 173.61C87.66 173.61 87.38 173.38 87.2 173.23L86.76 172.88C85.97 172.27 85.21 171.59 84.45 170.91C82.54 169.2 80.56 167.43 78.03 166.44C75.98 165.64 74.65 164.12 73.1 162.36C72.47 161.65 71.85 160.94 71.17 160.27C70.9 160 70.59 159.77 70.28 159.56C65.77 156.41 61.23 152.93 56.42 148.92C53.26 146.28 49.59 143.1 46.36 139.54C44.3 137.26 42.21 135.69 39.79 134.62C34.26 132.15 29.05 128.18 23.89 122.49C20.61 118.88 17.28 116.51 13.7 115.24C8.81002 113.5 6.02002 110.39 4.66002 105.13L4.46002 104.24C4.36002 103.74 4.25002 103.24 4.11002 102.75C3.00002 98.8501 2.46002 95.5601 3.45002 92.1801C3.99002 90.3101 4.06002 88.4701 4.13002 86.6901C4.15002 85.9901 4.18002 85.3001 4.23002 84.6201L4.48002 81.7001L4.13002 81.6701C4.14002 81.3801 4.15002 81.0901 4.15002 80.8101C4.13002 77.8701 5.18002 76.2501 7.75002 75.2101C9.21002 74.6301 10.33 73.5801 11.22 72.7201L11.79 72.1901C13.03 71.0801 14.24 69.9101 15.46 68.7401C17.96 66.3301 20.32 64.0501 22.96 62.2101C27.37 59.1301 31.49 56.2401 36.06 54.7001C39.89 53.4101 42.91 51.1401 45.01 47.9701C46.07 46.3601 47.57 45.0201 49.72 43.7301C51.82 42.4801 53.83 40.4601 55.23 38.2001C56.18 36.6801 57.42 35.5801 58.99 34.4001C59.49 34.0301 60 33.6701 60.52 33.3201C62.54 31.9201 64.85 30.3401 66.35 27.5901C66.38 27.5701 66.7 27.3201 67.2 27.1201C70.66 25.7101 73.61 23.6601 76.47 21.6801C79.45 19.6101 82.27 17.6501 85.46 16.5301L86.02 16.3301L86.46 15.9301C88.4 14.1601 91.02 13.3201 93.79 12.4301L94.41 12.2301C97.05 11.3801 99.2 10.0401 101.35 8.64014C106.6 5.19014 111.15 2.89014 116.37 2.89014C116.98 2.89014 117.59 2.92014 118.21 2.99014L120.72 3.26014C123.57 3.56014 126.43 3.86014 129.27 4.26014C131.2 4.54014 133.1 5.28014 135.27 6.61014C140.06 9.54014 144.63 11.7001 149.24 13.2001C155.95 15.3801 162.44 17.9101 169.05 20.5301L169.83 20.8301C173.08 22.1101 176.42 23.4301 179.12 25.3001C182.32 27.5101 185.69 29.1801 188.95 30.7901C194.16 33.3701 199 35.9301 203.84 38.4901C206.49 39.9001 209.14 41.3001 211.81 42.6801C213.28 43.4501 214.82 44.1101 216.36 44.7601L216.85 44.9701C218.02 45.4701 219.21 45.9101 220.4 46.3601C222.72 47.2301 224.91 48.0601 226.82 49.2001C234.5 53.8101 240.78 60.2201 245.47 68.2501C247.15 71.1001 248.94 73.2201 251.13 74.9101C253.07 76.4001 254.96 77.9501 256.85 79.5101C259.09 81.3401 261.32 83.1601 263.62 84.9101C269.52 89.4101 272.71 95.5201 273.36 103.61L273.63 106.6C274.16 112.41 274.66 117.89 273.23 123.28C272.63 125.54 272.14 127.83 271.64 130.12L271.21 132.07C270.78 134.03 269.83 135.58 268.25 136.93C265.97 138.87 263.38 140.22 260.55 140.93C255.88 142.12 252.04 144.68 248.44 148.99C243.54 154.87 237 158.66 230.08 162.68L228.23 163.75C223.94 164.66 220.67 167 217.49 169.26C216.15 170.22 214.82 171.19 213.41 172C209.41 174.32 205.66 177.09 202.05 179.77C200.44 180.97 198.82 182.17 197.18 183.33C196.36 183.91 195.51 184.45 194.65 184.99C192.77 186.18 190.84 187.41 189.12 189.04C185.5 192.5 181.02 194.86 175.42 196.24C172.87 196.88 171.03 197.82 169.45 199.29C168.79 199.91 168.1 200.5 167.41 201.09C166.75 201.64 166.1 202.2 165.46 202.79C161.61 206.33 157.78 208.05 153.77 208.05L153.78 208.1ZM146.05 196.8C145.31 194.36 145.01 191.92 145.15 189.5C145.24 188.03 145.4 186.56 145.58 185.09L145.78 186.34C146.43 190.2 147 193.64 146.05 196.79V196.8Z" fill="#8B6FAF"/>
<g style="mix-blend-mode:darken">
<mask id="mask2_3416_11697" style="mask-type:luminance" maskUnits="userSpaceOnUse" x="0" y="0" width="278" height="212">
<path d="M277.06 0H0V211.01H277.06V0Z" fill="white"/>
</mask>
<g mask="url(#mask2_3416_11697)">
<path d="M0.940007 84.34C1.04001 83.17 1.22001 82 1.22001 80.83C1.20001 76.84 2.82001 74.05 6.65001 72.52C7.85001 72.04 8.83001 70.94 9.82001 70.05C13.63 66.63 17.11 62.74 21.27 59.84C25.59 56.82 29.97 53.69 35.1 51.96C38.17 50.93 40.72 49.15 42.57 46.38C44 44.22 45.93 42.62 48.21 41.26C50.01 40.19 51.63 38.48 52.74 36.7C53.94 34.77 55.48 33.42 57.23 32.1C59.57 30.34 62.27 28.99 63.78 26.23C64.21 25.44 65.21 24.81 66.1 24.45C72.73 21.76 77.69 16.2 84.49 13.81C87.06 11.46 90.33 10.52 93.51 9.49001C95.81 8.75001 97.74 7.55001 99.74 6.23001C105.39 2.51001 111.35 -0.639987 118.51 0.130013C122.23 0.530013 125.96 0.880013 129.67 1.41001C132.22 1.77001 134.51 2.77001 136.78 4.16001C140.97 6.73001 145.38 8.91001 150.13 10.47C156.88 12.66 163.5 15.25 170.1 17.86C173.76 19.31 177.56 20.74 180.75 22.95C183.88 25.11 187.17 26.72 190.53 28.39C198.14 32.16 205.59 36.24 213.13 40.15C214.7 40.97 216.34 41.65 217.98 42.35C221.42 43.81 225.12 44.86 228.3 46.77C236.56 51.72 243.11 58.53 247.97 66.85C249.29 69.11 250.81 71.07 252.89 72.68C257.11 75.94 261.13 79.44 265.37 82.66C272.28 87.92 275.57 94.98 276.26 103.45C276.82 110.34 277.86 117.23 276.04 124.1C275.29 126.97 274.69 129.87 274.06 132.77C273.49 135.37 272.21 137.46 270.14 139.22C267.51 141.45 264.54 143 261.27 143.83C256.84 144.96 253.59 147.44 250.69 150.93C244.89 157.89 236.96 162.1 229.28 166.59C223.58 167.62 219.62 171.85 214.88 174.59C209.27 177.85 204.19 182.02 198.87 185.78C196.29 187.6 193.4 189.07 191.14 191.22C186.84 195.33 181.76 197.75 176.13 199.14C174.33 199.58 172.79 200.23 171.45 201.49C170.16 202.7 168.75 203.8 167.45 205C162.19 209.84 156.23 212.27 149 210.39C148.05 210.14 147.01 210.06 146.16 209.62C144 208.5 141.76 208.06 139.34 207.89C137.65 207.78 135.76 207.2 134.41 206.22C131.34 203.99 128.08 202.22 124.58 200.82C123.32 200.32 122.2 199.44 121.04 198.71C119.71 197.87 118.46 196.89 117.07 196.17C110.01 192.53 103.48 188.12 97.33 183.11C94.15 180.51 91.2 177.46 86.93 176.48C86.21 176.31 85.58 175.68 84.96 175.2C82.31 173.15 79.95 170.35 76.96 169.18C73.31 167.75 71.55 164.8 69.11 162.35C68.97 162.21 68.8 162.1 68.64 161.99C63.78 158.6 59.12 154.99 54.56 151.19C50.91 148.15 47.39 145.04 44.21 141.53C42.59 139.75 40.84 138.31 38.6 137.31C31.99 134.36 26.51 129.74 21.73 124.47C19.1 121.57 16.2 119.24 12.72 118.01C6.72001 115.88 3.37001 111.8 1.84001 105.88C1.64001 105.11 1.52001 104.33 1.31001 103.57C0.170007 99.56 -0.569993 95.6 0.650007 91.39C1.30001 89.18 1.13001 86.73 1.33001 84.4C1.21001 84.39 1.08001 84.37 0.960007 84.36L0.940007 84.34ZM10.86 95.62C10.73 100.73 11.87 105.45 16.07 108.93C17.14 109.81 18.18 110.74 19.24 111.62C22.43 114.26 25.75 116.77 28.81 119.56C33.82 124.1 39.41 127.72 45.19 131.18C49.74 133.91 53.88 137.35 58.18 140.49C60.89 142.47 63.52 144.56 66.27 146.5C70.78 149.68 75.46 152.59 79.55 156.37C81.71 158.36 84.29 159.9 86.71 161.61C92.65 165.84 98.61 170.04 104.54 174.27C105.34 174.84 106.1 175.49 106.81 176.16C111.75 180.78 117.37 184.43 123.05 188.05C126.36 190.15 129.24 192.93 132.27 195.45C134.39 197.22 136.53 198.99 138.5 200.92C140.36 202.75 142.2 202.85 144.63 201.2C142.93 197.5 142.01 193.5 142.25 189.33C142.37 187.36 142.61 185.4 142.88 183.45C142.96 182.89 143.26 182.33 143.56 181.84C144.44 180.39 146.71 180.38 147.55 181.81C147.85 182.32 148.19 182.86 148.27 183.42C149.14 189.26 150.8 195.15 147.55 200.61C148.13 202.06 149.18 202.04 150.09 201.71C153.83 200.39 157.43 198.85 160.24 195.83C161.98 193.96 164.04 192.38 165.98 190.69C168.12 188.82 170.46 187.48 173.46 187.65C176.46 187.81 178.81 186.15 180.92 184.41C187.64 178.86 194.81 174.02 202.32 169.61C205.03 168.02 207.28 165.69 209.92 163.97C213.87 161.39 217.81 158.88 222.24 157.01C227.48 154.8 232.3 151.58 237.22 148.65C238.54 147.86 239.6 146.6 240.69 145.47C243.57 142.49 246.33 139.4 249.3 136.52C250.24 135.6 251.62 135.05 252.88 134.55C254.53 133.9 256.27 133.48 257.97 132.95C261.66 131.8 263.78 129.1 263.47 125.44C262.81 117.65 263.76 109.75 262.14 102.11C261.73 101.99 261.53 101.87 261.35 101.89C261.18 101.91 260.99 102.04 260.86 102.18C258.62 104.67 256.49 107.28 254.11 109.64C250.34 113.39 246.58 117.18 242.49 120.57C240.26 122.42 237.4 123.54 234.78 124.9C230.23 127.27 225.69 129.62 221.68 132.92C219.71 134.54 217.44 135.85 215.16 137.02C206.88 141.29 199.66 147.17 192.03 152.4C188.03 155.15 183.87 157.15 179.29 158.4C173.54 159.98 167.94 161.78 163.39 165.93C162.38 166.85 161.12 167.53 159.89 168.15C157.44 169.39 154.84 169.55 152.56 167.93C150.33 166.34 149.01 163.88 149.67 161.2C150.92 156.18 150.01 151.38 148.99 146.53C147.64 140.1 147.64 133.57 147.8 127.06C147.93 121.64 150.69 117.51 155.36 115.12C161.32 112.08 167.56 109.6 173.67 106.85C174.75 106.37 175.81 105.83 176.81 105.22C179.98 103.26 182.56 100.33 186.46 99.6C186.97 99.5 187.41 98.92 187.83 98.51C190.71 95.74 194.23 93.92 197.58 91.83C200.75 89.86 203.6 87.38 206.61 85.15C208.02 84.1 209.36 82.86 210.93 82.15C213.85 80.83 216.46 79.18 218.88 77.06C221.85 74.45 225.08 72.26 229.11 71.38C230.77 71.02 232.25 69.85 234.06 68.92C233.76 67.38 233.5 66.08 233.19 64.51C232.34 64.04 231.32 63.49 230.38 62.99C229.89 63.05 229.37 62.96 229.14 63.17C225.32 66.66 220.53 68.64 216.26 71.43C214.98 72.27 213.43 73.17 211.98 73.22C206.4 73.41 202.11 76.58 198.35 79.83C191.74 85.52 184.8 90.7 177.67 95.68C176.54 96.47 175.34 97.25 174.46 98.27C169.95 103.48 163.65 105.37 157.54 107.63C156.81 107.9 155.97 108.22 155.23 108.12C150.58 107.47 146.27 108.95 141.92 110.16C138.45 111.13 135.27 110.6 132.32 108.54C130.7 107.41 128.92 106.47 127.42 105.2C120.89 99.67 113.37 95.75 105.99 91.57C103.07 89.92 100.33 87.98 97.45 86.25C95.76 85.24 94.06 84.1 92.2 83.53C85.47 81.47 79.87 77.5 74.11 73.64C68.72 70.02 62.93 67.02 57.32 63.72C54.77 62.22 52.26 60.66 49.76 59.15C47.2 59.7 45.48 61.32 43.53 62.38C43.71 63.03 43.7 63.57 43.93 63.7C49.7 67.06 54.95 71.25 61.63 73.07C66.95 74.51 71.98 76.98 76.42 80.47C78.11 81.8 80.11 82.77 81.98 83.86C82.83 84.36 83.9 84.59 84.57 85.24C89.23 89.69 95.21 91.92 100.66 95.06C103.74 96.83 106.68 98.86 109.55 100.95C113.74 104 118.26 106.35 123.12 108.14C127.42 109.73 131.31 112.11 134.63 115.3C135.75 116.38 137.08 117.62 137.46 119.02C139.07 124.88 141.59 130.66 139.99 136.98C139.19 140.14 139.26 143.19 140.57 146.27C141.17 147.68 141.53 149.4 141.32 150.89C140.77 154.91 141.32 158.79 142.33 162.61C142.82 164.47 142.59 166.13 141.95 167.82C141.27 169.63 139.39 170.73 137.69 169.96C132.66 167.69 127.49 165.74 123.02 162.28C117.41 157.93 111.5 153.96 105.72 149.82C104.6 149.01 103.27 148.38 102.39 147.37C99.16 143.68 94.78 141.7 90.61 139.51C86.2 137.2 82.18 134.46 78.26 131.41C71.57 126.19 64.44 121.58 56.71 117.99C55.82 117.58 54.93 117.11 54.15 116.53C45.57 110.2 37.03 103.83 28.45 97.51C24 94.23 19.53 90.98 15.02 87.79C14.29 87.27 13.31 87.11 11.92 86.58C11.48 90.17 10.93 92.9 10.86 95.63V95.62Z" fill="black"/>
</g>
</g>
</g>
</g>
</g>
</g>
<defs>
<clipPath id="clip0_3416_11697">
<rect width="277.06" height="211.01" fill="white"/>
</clipPath>
</defs>
</svg>
