<svg width="254" height="223" viewBox="0 0 254 223" fill="none" xmlns="http://www.w3.org/2000/svg">
<g clip-path="url(#clip0_3416_9925)">
<path d="M7.79011 51.8996C12.6401 58.6696 18.6301 64.7896 25.3801 69.6896C32.1301 74.5896 39.8701 78.1296 47.7701 80.6696C65.8801 86.4996 85.1901 87.4296 104.07 86.6696C122.95 85.9096 143.09 84.1496 161.92 79.2796C178.71 74.9296 194.83 67.9996 209.44 58.6396C216.82 53.9096 223.98 48.6996 230.51 42.8296C237.04 36.9596 242.95 30.2896 245.75 21.9596C246.15 20.7596 246.46 19.5496 246.77 18.3296C246.39 19.8196 246.93 17.6896 246.96 17.5596C247.02 17.2996 247.09 17.0496 247.15 16.7896C247.27 16.2696 247.37 15.7396 247.47 15.2196C247.83 13.1996 247.28 10.1596 245.32 9.07962C243.51 8.08962 241.57 9.40962 241.07 11.3296C240.84 12.2096 240.6 13.0996 240.28 13.9496C240.1 14.4296 239.89 14.8996 239.68 15.3596C239.6 15.5396 239.52 15.7096 239.44 15.8796C239.18 16.4396 239.86 15.0796 239.41 15.9196C238.53 17.5596 237.54 19.1296 236.54 20.7096C236.01 21.5496 235.45 22.3696 234.86 23.1796C234.59 23.5596 234.31 23.9296 234.02 24.2996C233.9 24.4596 233.77 24.6096 233.65 24.7696C234.27 23.9496 233.69 24.7196 233.55 24.8896C232.26 26.4396 230.88 27.9196 229.45 29.3496C223.62 35.1596 216.98 40.2296 210.21 44.8896C209.61 45.2996 210.69 44.5696 210.08 44.9796C209.9 45.0996 209.72 45.2196 209.55 45.3396C209.13 45.6196 208.72 45.8896 208.3 46.1696C207.34 46.7996 206.38 47.4096 205.41 48.0196C203.65 49.1196 201.88 50.1896 200.08 51.2296C196.36 53.3796 192.57 55.4096 188.72 57.2996C181.14 61.0196 173.28 64.1796 165.23 66.7296C147.53 72.3396 129.07 74.4896 110.53 75.5696C91.9901 76.6496 73.1901 76.6196 55.2201 71.9296C47.6001 69.9396 40.1201 67.0996 33.0601 63.6196C26.0001 60.1396 19.8701 56.4796 14.1301 51.4196C12.6801 50.1396 11.3001 48.7996 9.97011 47.3996C9.13011 46.5096 7.97011 47.3596 7.57011 48.1896C7.03011 49.3096 7.07011 50.8896 7.81011 51.9296L7.79011 51.8996Z" fill="#1D1D1B"/>
<path d="M8.2701 59.2796C12.1101 65.1896 15.5601 71.3296 18.9101 77.5296C19.4501 78.5296 19.3301 78.3596 20.0501 79.6496C20.4401 80.3296 20.8501 80.9996 21.2501 81.6696C22.2201 83.2796 23.1801 84.8896 24.1501 86.4996C25.8801 89.3696 27.6101 92.2496 29.4601 95.0496C36.2701 105.38 43.9001 115.42 53.3701 123.46C55.8301 125.55 58.4301 127.45 61.1701 129.16C62.7101 130.12 64.2701 131.03 65.8601 131.89C67.5401 132.79 69.1801 133.84 71.1501 133.79C72.9501 133.74 74.0201 131.59 74.2201 130.05C74.4801 128.02 74.0501 125.94 72.5801 124.46C71.3501 123.22 69.7301 122.62 68.2101 121.82C66.7801 121.07 65.9001 120.54 64.8901 119.89C62.5101 118.36 60.2401 116.68 58.0301 114.91C55.8201 113.14 53.6101 111.16 51.5401 109.13C50.5301 108.13 49.5301 107.11 48.5601 106.07C48.1001 105.57 47.6401 105.07 47.1901 104.57C47.7001 105.14 47.1101 104.47 46.9901 104.33C46.6801 103.97 46.3701 103.61 46.0601 103.25C42.1101 98.6296 38.5601 93.6996 35.1901 88.6496C31.5701 83.2296 28.2001 77.5696 24.4001 72.2696C20.1501 66.3496 15.6901 60.5496 10.8901 55.0696C10.0601 54.1296 8.9201 53.9696 8.1701 55.1396C7.4201 56.3096 7.5101 58.1096 8.2701 59.2796Z" fill="#1D1D1B"/>
<path d="M3.50006 77.0896C4.14006 72.7396 5.24006 68.5596 6.82006 64.4496C7.24006 63.3596 7.64006 62.2496 8.10006 61.1696C8.24006 60.8296 8.39006 60.4996 8.54006 60.1696C8.72006 59.7896 8.74006 59.7296 8.62006 59.9796C8.73006 59.7596 8.84006 59.5396 8.95006 59.3296C9.34006 58.5696 9.77005 57.8296 10.2301 57.1096C10.6201 56.4996 11.3201 55.5296 11.5201 55.2996C13.9001 52.5396 16.5901 50.9296 20.3601 50.7396C22.5201 50.6296 24.6601 50.7396 26.8201 50.8396C29.1601 50.9496 31.3301 50.7096 33.6101 50.1296C34.8801 49.8096 35.1301 47.6296 35.0101 46.6396C34.8701 45.4996 34.2801 43.9896 32.9101 43.9596C28.1501 43.8396 23.4201 42.0296 18.6301 42.5696C13.8401 43.1096 10.5401 45.5196 7.84006 49.1396C5.31006 52.5196 3.60006 56.7196 2.50006 60.7696C1.09006 65.9096 0.300055 71.1496 5.53099e-05 76.4596C-0.0499447 77.4296 0.530055 78.8996 1.60006 79.0696C2.67006 79.2396 3.36006 78.0196 3.50006 77.0896Z" fill="#1D1D1B"/>
<path d="M192.11 102.27C200.81 93.0498 209.21 83.5098 216.99 73.4998C224.79 63.4698 231.76 52.8598 237.08 41.2898C238.52 38.1498 239.84 34.9498 240.99 31.6898C241.59 29.9898 242.16 28.2798 242.67 26.5498C243.33 24.3098 243.55 22.2198 243.56 19.8898C243.56 18.8098 243.1 17.3498 242.11 16.8098C241.21 16.3098 240.2 16.6598 239.68 17.5798C238.89 18.9798 238.19 20.3098 237.71 21.8598C237.23 23.4098 236.85 24.8098 236.38 26.2698C235.43 29.1798 234.36 32.0498 233.19 34.8798C230.88 40.4198 228.25 45.5098 225.18 50.8698C218.96 61.6898 211.54 71.7798 203.75 81.5098C199.33 87.0298 194.77 92.4398 190.31 97.9298C189.52 98.9098 189.3 100.25 189.8 101.43C190.16 102.29 191.26 103.19 192.11 102.29V102.27Z" fill="#1D1D1B"/>
<path d="M222.38 5.68977C229.27 7.70977 235.89 10.7198 241.24 15.5898C242.55 16.7898 243.23 17.5398 244.23 18.9098C244.7 19.5498 245.17 20.1998 245.6 20.8598C245.82 21.1898 246.03 21.5198 246.23 21.8598C246.36 22.0798 246.49 22.3098 246.62 22.5398C246.47 22.2598 246.45 22.2398 246.58 22.4898C246.95 23.2498 247.28 24.0298 247.58 24.8198C247.72 25.1798 247.85 25.5298 247.99 25.8898C248.01 25.9398 248.4 27.0898 248.16 26.3098C248.38 27.0398 248.53 27.7898 248.68 28.5398C248.89 29.5798 248.93 29.8198 248.97 30.6298C249.03 31.7998 249.52 33.5898 250.91 33.7898C252.3 33.9898 252.95 32.5398 253.2 31.3998C255.1 22.9398 251.21 14.1598 244.9 8.54977C238.59 2.93977 230.69 0.999771 222.75 -0.000229087C221.55 -0.150229 221 1.70977 220.95 2.54977C220.89 3.56977 221.2 5.32977 222.39 5.67977L222.38 5.68977Z" fill="#1D1D1B"/>
<path d="M89.5802 79.5995C87.2702 82.1095 84.8802 84.5095 82.8902 87.2895C80.9002 90.0695 79.0102 92.8795 77.2002 95.7595C73.4102 101.79 70.4702 108.51 67.9702 115.17C63.1402 128.02 60.2402 142 60.8702 155.76C61.5002 169.52 65.0902 182.09 72.0402 193.46C78.6202 204.22 88.4202 212.62 100.08 217.44C111.74 222.26 124.51 223.63 136.81 222.58C143.3 222.02 149.72 220.82 156.03 219.19C162.34 217.56 168.91 215.46 174.83 212.44C181.62 208.98 187.06 204.06 191.57 197.94C195.6 192.47 198.77 186.28 201.12 179.91C206.08 166.48 207.46 151.86 205.8 137.69C202.72 111.5 187.5 87.5095 166.57 71.7895C164.17 69.9795 161.68 68.2895 159.14 66.6895C158.18 66.0895 157.3 65.6795 156.17 66.1695C155.12 66.6195 154.28 67.8695 153.94 68.9095C153.21 71.1295 153.17 75.3895 155.51 76.8795C160.6 80.1095 165.41 83.7495 169.88 87.7895C172.11 89.8095 174.26 91.9195 176.31 94.1295C176.58 94.4195 176.84 94.7095 177.11 94.9995C178 95.9695 176.49 94.2795 177.35 95.2695C177.78 95.7595 178.21 96.2595 178.63 96.7595C179.64 97.9595 180.62 99.1795 181.58 100.42C183.4 102.8 185.12 105.27 186.71 107.81C187.47 109.02 188.2 110.26 188.91 111.51C189.1 111.85 189.29 112.19 189.48 112.53C190.13 113.7 188.98 111.54 189.58 112.73C189.94 113.43 190.3 114.12 190.64 114.82C191.96 117.51 193.15 120.26 194.19 123.07C194.69 124.42 195.14 125.78 195.58 127.14C196.02 128.5 195.25 125.95 195.63 127.31C195.74 127.71 195.86 128.1 195.97 128.5C196.19 129.29 196.39 130.09 196.59 130.89C197.34 133.96 197.87 137.06 198.29 140.2C198.48 141.63 198.16 138.83 198.29 140.27C198.33 140.68 198.37 141.09 198.41 141.5C198.47 142.18 198.52 142.87 198.57 143.55C198.68 145.19 198.73 146.84 198.74 148.48C198.74 149.99 198.71 151.5 198.64 153L198.62 153.41C198.58 154.07 198.59 153.96 198.64 153.06C198.7 153.42 198.58 153.92 198.54 154.29C198.47 155.11 198.39 155.93 198.29 156.74C198.12 158.23 197.9 159.72 197.64 161.21C197.5 162.02 197.34 162.82 197.16 163.62C197.1 163.89 197.04 164.15 196.98 164.42C196.91 164.73 196.56 166.56 196.86 164.97C196.3 167.99 195.1 171.03 193.98 173.88C193.43 175.27 192.83 176.64 192.21 178C191.63 179.27 192.74 176.95 192.12 178.2C191.94 178.56 191.76 178.93 191.57 179.29C191.2 180.02 190.82 180.74 190.42 181.45C188.87 184.24 187.14 186.94 185.19 189.47C185.09 189.6 184.2 190.7 184.96 189.78C184.69 190.11 184.42 190.43 184.14 190.75C183.68 191.28 183.21 191.8 182.72 192.31C181.56 193.53 180.32 194.69 179.02 195.75C178.35 196.3 177.66 196.82 176.95 197.31C177.11 197.2 177.62 196.88 176.85 197.38C176.48 197.62 176.11 197.85 175.73 198.08C174.22 198.99 172.65 199.81 171.04 200.55C167.97 201.97 164.78 203.11 161.56 204.14C158.74 205.04 155.88 205.82 153 206.53C151.74 206.84 153.91 206.34 152.64 206.62C152.32 206.69 152.01 206.76 151.69 206.83C150.99 206.98 150.29 207.12 149.59 207.26C148.06 207.56 146.52 207.83 144.98 208.07C139.1 208.97 133.11 209.42 127.16 209.3C124.22 209.24 121.28 209.04 118.37 208.67C117.74 208.59 117.11 208.5 116.49 208.41C116.11 208.35 115.74 208.29 115.37 208.23C114.11 208.04 116.31 208.42 115.06 208.18C113.58 207.89 112.1 207.58 110.64 207.2C105.04 205.77 99.7502 203.59 94.7302 200.74C93.6202 200.11 95.5902 201.3 94.5202 200.61C94.3102 200.47 94.1002 200.34 93.8802 200.21C93.2502 199.8 92.6202 199.38 92.0002 198.94C90.7602 198.07 89.5502 197.15 88.3802 196.18C87.3202 195.31 86.3002 194.4 85.3202 193.45C84.8702 193.02 84.4402 192.58 84.0102 192.14C83.7502 191.87 83.5002 191.6 83.2502 191.33C83.0802 191.15 82.9202 190.97 82.7502 190.78C83.2402 191.33 83.2902 191.39 82.9102 190.96C81.0802 188.78 79.3602 186.54 77.8302 184.13C77.5002 183.61 77.1802 183.08 76.8602 182.55C76.5402 182.02 75.8902 181.24 75.7602 180.61C75.9902 181.69 76.1102 181.26 75.8402 180.75C75.7002 180.47 75.5602 180.2 75.4202 179.92C75.0302 179.14 74.6602 178.35 74.3002 177.56C73.7402 176.31 73.2102 175.04 72.7302 173.76C72.5102 173.18 72.3002 172.59 72.0902 172C71.9702 171.65 71.8502 171.29 71.7302 170.93C71.6102 170.57 71.1202 168.84 71.6202 170.63C70.8502 167.84 70.1102 165.05 69.5802 162.2C69.3302 160.84 69.1102 159.47 68.9402 158.1C68.9102 157.87 68.9102 157.58 68.8502 157.35C69.2802 158.96 68.9202 157.94 68.8702 157.44C68.7802 156.56 68.7102 155.68 68.6502 154.79C68.4602 151.89 68.4702 148.99 68.5502 146.09C68.5502 145.75 68.6202 144.97 68.5202 146.49C68.7302 143.36 68.7702 145.21 68.5802 145.35C68.8102 145.17 68.7502 143.3 68.7802 142.97C68.9502 141.24 69.1702 139.52 69.4302 137.81C69.6702 136.24 69.9702 134.69 70.3202 133.15C70.3802 132.87 70.4502 132.59 70.5102 132.31C70.5502 132.14 70.9002 130.74 70.5902 131.94C70.8402 130.97 71.1002 130 71.3702 129.03C72.2602 125.92 73.2902 122.86 74.4402 119.84C75.0302 118.29 75.6502 116.76 76.3102 115.24C76.5902 114.58 76.8802 113.92 77.1802 113.26C77.3602 112.86 77.5402 112.47 77.7202 112.08C77.7902 111.93 78.3902 110.65 78.1902 111.06C77.9002 111.67 78.5202 110.39 78.4902 110.44C78.6802 110.05 78.8702 109.66 79.0702 109.27C79.4202 108.56 79.7902 107.85 80.1502 107.14C80.6402 106.2 81.1302 105.26 81.5902 104.3C81.1702 105.18 81.8002 103.85 81.8302 103.79C82.0602 103.32 82.2902 102.85 82.5202 102.39C84.0102 99.3895 85.5802 96.4395 87.2302 93.5295C88.9702 90.4495 90.3702 87.2695 92.0502 84.1695C92.6802 82.9995 92.7802 81.4595 92.1102 80.2795C91.6202 79.4195 90.4702 78.6195 89.5802 79.5795V79.5995Z" fill="#1D1D1B"/>
<path d="M120.96 87.0799C121.55 87.7999 122.29 88.8499 122.61 89.4599C122.69 89.6099 123.02 90.3599 123.16 90.7199C123.25 90.9499 123.33 91.1799 123.41 91.3999C123.67 92.1099 123.38 91.1599 123.47 91.5999C123.58 92.1299 123.73 92.6499 123.83 93.1799C123.87 93.3799 124.2 94.4599 124.07 94.6199C124.18 94.4899 124 93.7399 124.04 94.4499C124.06 94.6899 124.08 94.9299 124.09 95.1799C124.12 95.7899 124.13 96.3999 124.12 97.0199C124.12 97.2699 124.1 97.5099 124.1 97.7599C124.07 98.7299 124.07 97.5999 124.12 97.4799C123.95 97.9199 124 98.6599 123.95 99.1199C123.84 100.24 123.74 101.34 123.57 102.45C123.4 103.56 123.17 104.62 122.92 105.7C122.85 106 122.78 106.3 122.7 106.59C122.75 106.39 122.94 105.66 122.68 106.63C122.48 107.37 122.28 108.11 122.07 108.86C120.45 114.63 118.75 120.35 118.45 126.37C118.17 132.03 119.43 137.68 121.51 142.92C123.69 148.41 126.72 153.91 131.17 157.89C132.18 158.8 133.49 158.25 134.14 157.23C135 155.88 134.91 154.13 134.41 152.68C133.45 149.86 132.25 147.04 130.82 144.42C130.76 144.31 130.41 143.64 130.75 144.3C130.61 144.04 130.47 143.78 130.34 143.51C130.07 142.99 129.8 142.46 129.54 141.93C128.96 140.74 128.42 139.54 127.9 138.33C127.42 137.19 127.03 136.03 126.6 134.88C126.3 134.08 126.9 136.05 126.55 134.72C126.48 134.44 126.4 134.17 126.32 133.89C126.14 133.19 125.98 132.49 125.85 131.79C125.77 131.34 125.48 130.54 125.58 130.09C125.55 130.2 125.68 131.33 125.61 130.24C125.59 129.95 125.57 129.66 125.55 129.37C125.52 128.77 125.51 128.18 125.52 127.58C125.52 127.57 125.57 126.07 125.52 126.94C125.48 127.72 125.57 126.45 125.58 126.3C125.71 125.01 125.91 123.74 126.16 122.47C126.29 121.8 126.44 121.12 126.6 120.46C126.67 120.16 126.74 119.86 126.81 119.57C126.59 120.46 126.86 119.38 126.94 119.09C127.61 116.56 128.36 114.05 129.02 111.51C129.68 108.97 130.35 106.23 130.66 103.52C130.97 100.81 130.89 97.9899 130.52 95.1799C129.83 90.0299 127.69 84.8799 123.52 81.5999C122.38 80.6999 121.18 81.3899 120.62 82.5599C120 83.8499 119.95 85.9199 120.91 87.0799H120.96Z" fill="#1D1D1B"/>
</g>
<defs>
<clipPath id="clip0_3416_9925">
<rect width="253.7" height="222.91" fill="white"/>
</clipPath>
</defs>
</svg>
