<svg width="212" height="413" viewBox="0 0 212 413" fill="none" xmlns="http://www.w3.org/2000/svg">
<g clip-path="url(#clip0_3416_11925)">
<path d="M50.43 171.44C55.39 171.12 60.34 170.8 65.3 170.48C67.04 170.37 67.47 167.6 67.69 166.35C68.83 159.84 69.96 153.33 71.08 146.82C72.98 135.81 74.88 124.81 76.68 113.78C77.2 110.6 77.76 107.41 78.16 104.21C78.18 104.03 78.2 103.85 78.22 103.67C78.24 103.49 78.25 103.32 78.27 103.14C78.3 102.88 78.34 102.63 78.37 102.37C78.49 101.38 78.22 102.99 78.37 102.35C78.88 100.02 79.55 97.7402 80.21 95.4402C81.49 90.9902 82.13 86.6002 82.45 82.0002C82.7 78.4502 82.91 74.8902 83.1 71.3302C83.18 69.8402 82.88 73.2002 83.08 72.0902C83.16 71.6302 83.22 71.1602 83.3 70.7002C83.99 66.2702 84.67 61.8402 85.36 57.4102C86.14 52.3602 86.93 47.3102 87.71 42.2602C87.9 41.0202 88.11 39.7802 88.29 38.5302C88.43 37.5702 87.82 40.3702 88.15 39.3902C88.37 38.7302 88.54 38.0502 88.74 37.3802C89.49 34.8402 90.26 32.3102 91.05 29.7902C91.49 28.3802 91.94 26.9802 92.41 25.5802C92.46 25.4202 92.51 25.2702 92.57 25.1102C92.8 24.4002 92.43 25.5402 92.41 25.5702C92.55 25.3202 92.61 24.9802 92.71 24.7002C92.91 24.1202 93.12 23.5402 93.34 22.9702C93.5 22.5602 93.66 22.1502 93.83 21.7502C93.9 21.5902 93.98 21.4302 94.04 21.2802C94.35 20.5602 93.75 21.7302 93.82 21.6402C94.64 20.6602 95.16 19.3902 95.75 18.2602C96.08 17.6302 96.42 17.0002 96.76 16.3702C96.28 17.2602 96.84 16.2402 96.98 16.0102C97.23 15.6002 97.49 15.2002 97.77 14.8102C98.2 14.2102 98.65 13.6302 99.18 13.1102C98.69 13.5902 99.39 12.9702 99.56 12.8502C99.89 12.6202 100.23 12.4302 100.6 12.2802C100.13 12.4702 100.87 12.2402 101.05 12.2302C101.45 12.2002 101.86 12.2302 102.27 12.2302C103.21 12.2502 104.16 12.3102 105.09 12.4702C105.95 12.6202 106.24 12.6902 106.96 13.0402C107.31 13.2102 107.64 13.4002 107.96 13.6302C108.12 13.7402 108.27 13.8702 108.43 13.9902C107.99 13.6302 108.65 14.2402 108.7 14.3002C108.86 14.4902 109.48 15.4602 109.13 14.8302C109.34 15.2202 109.51 15.6202 109.67 16.0302C109.91 16.6302 110.15 17.2302 110.39 17.8402C110.99 19.3702 111.58 20.9002 112.16 22.4402C112.87 24.3202 113.56 26.2002 114.22 28.0902C114.39 28.5602 114.55 29.0402 114.72 29.5102C114.78 29.7002 115.01 30.3502 114.7 29.4502C114.78 29.6902 114.86 29.9302 114.94 30.1702C115.28 31.2002 115.62 32.2302 115.94 33.2602C117.09 36.9102 117.99 40.5802 118.81 44.3102C120.42 51.7102 122.19 59.0702 123.71 66.4902C123.87 67.2502 124.02 68.0102 124.17 68.7702C124.25 69.1902 124.48 70.6602 124.19 68.8602C124.25 69.2202 124.32 69.5702 124.38 69.9302C124.56 70.9902 124.71 72.0502 124.82 73.1202C125.19 76.5902 125.92 80.0302 126.56 83.4502C126.73 84.3502 126.9 85.2502 127.07 86.1502C127.16 86.6102 127.24 87.0702 127.33 87.5202C127.37 87.7502 127.42 87.9802 127.46 88.2102C127.58 88.8602 127.26 87.1102 127.43 88.0702C127.77 89.9502 128.11 91.8302 128.41 93.7202C128.66 95.3102 128.9 96.9102 129.05 98.5102C129.11 99.1302 129.14 99.7502 129.18 100.37C129.25 101.53 129.09 98.8302 129.16 100.06C129.18 100.45 129.2 100.84 129.22 101.23C129.64 109.28 129.92 117.33 130.47 125.37C130.95 132.46 132.06 139.42 133.3 146.41C133.85 149.52 134.44 152.62 134.97 155.73C135.09 156.41 135.06 157.38 135.32 158.03C135.32 158.03 135.23 156.02 135.24 156.92C135.24 157.12 135.25 157.33 135.26 157.53C135.28 158.2 135.32 158.87 135.35 159.53C135.48 162.12 135.64 164.71 135.8 167.31C135.87 168.43 136.54 171.49 138.19 171.44C143.78 171.28 149.38 171.12 154.97 170.96C157.13 170.9 157.47 166.83 157.45 165.34C157.42 164.02 157.32 162.56 156.73 161.36C156.39 160.68 155.88 159.69 154.98 159.71C149.39 159.87 143.79 160.03 138.2 160.19L140.59 164.32C140.58 164.1 140.56 163.87 140.55 163.65C140.54 163.43 140.52 163.19 140.51 162.95C140.49 162.67 140.41 161.28 140.48 162.47C140.55 163.66 140.48 162.3 140.46 162.07C140.44 161.67 140.41 161.26 140.39 160.86C140.35 160.13 140.31 159.41 140.28 158.68C140.18 156.54 140.06 154.46 139.69 152.34C138.47 145.34 137.08 138.37 136.11 131.33C135.65 127.97 135.39 124.59 135.17 121.21C135.14 120.75 135.11 120.3 135.08 119.84C135.03 119.09 135.15 121.04 135.11 120.29C135.1 120.06 135.08 119.82 135.07 119.59C135.01 118.52 134.95 117.44 134.9 116.37C134.79 114.28 134.69 112.19 134.6 110.1C134.28 103.13 134.11 96.1702 132.95 89.2802C132.24 85.0502 131.49 80.8202 130.62 76.6202C130.94 78.1502 130.65 76.7602 130.58 76.3802C130.51 75.9802 130.43 75.5702 130.36 75.1702C130.21 74.3402 130.07 73.5102 129.94 72.6802C129.75 71.5002 129.63 70.3102 129.49 69.1302C128.61 61.9802 126.74 54.8802 125.16 47.8602C123.47 40.3702 121.98 32.8702 119.58 25.5702C118.19 21.3402 116.69 17.1402 115.1 12.9802C113.93 9.92021 112.94 6.26021 110.56 3.90021C109.09 2.45021 107.41 1.67021 105.39 1.27021C103.81 0.960215 101.85 0.720215 100.28 1.12021C96.68 2.03021 94.64 5.89021 93 8.90021C92.67 9.51021 92.35 10.1202 92.03 10.7302C91.88 11.0202 91.71 11.3102 91.56 11.6102C91.35 12.0402 92.05 10.8602 91.78 11.2302C91.7 11.3402 91.64 11.4702 91.56 11.5802C91.02 12.3902 90.56 13.2402 90.18 14.1402C89.08 16.8102 88.21 19.5902 87.33 22.3402C86.45 25.0902 85.65 27.7202 84.84 30.4202C84.35 32.0402 83.83 33.6402 83.54 35.3202C83.03 38.3602 82.59 41.4202 82.12 44.4702C81.27 49.9302 80.43 55.4002 79.58 60.8602C79.07 64.1702 78.36 67.5102 78.17 70.8602C78.13 71.6402 78.08 72.4302 78.04 73.2102C78.02 73.5602 78 73.9102 77.98 74.2602C77.94 75.0102 78.08 72.6802 78.01 73.7902C78 74.0002 77.98 74.2102 77.97 74.4102C77.91 75.4202 77.84 76.4302 77.78 77.4302C77.65 79.3402 77.52 81.2402 77.36 83.1502C77.32 83.6002 77.28 84.0502 77.22 84.5002C77.2 84.6802 77.19 85.0802 77.11 85.2702C77.49 84.4002 77.22 84.7302 77.14 85.1002C76.87 86.3202 76.57 87.5302 76.23 88.7302C75.09 92.7802 73.92 96.7302 73.43 100.93C73.29 102.11 73.1 103.29 72.92 104.47C71.35 114.69 69.56 124.87 67.82 135.06C66.29 143.99 64.74 152.93 63.18 161.86C63.09 162.35 63.01 162.84 62.92 163.34L65.31 159.21C60.35 159.53 55.4 159.85 50.44 160.17C48.28 160.31 47.93 164.24 47.96 165.79C47.99 167.11 48.09 168.57 48.68 169.77C49.01 170.43 49.54 171.47 50.43 171.42V171.44Z" fill="black"/>
<path d="M93.02 19.9402C93.08 19.9102 93.14 19.8802 93.2 19.8502C93.41 19.7402 92.83 19.9202 93.17 19.8502C93.4 19.8102 93.63 19.7602 93.87 19.7302C94.54 19.6502 95.22 19.6402 95.89 19.6402C97.67 19.6402 99.45 19.7702 101.22 19.9102C104.89 20.2102 108.56 20.6502 112.21 21.1402C113.04 21.2502 113.86 21.3602 114.68 21.4802C116.55 21.7502 116.9 15.0502 114.68 14.7302C108.6 13.8402 102.4 12.9602 96.24 12.8902C94.99 12.8802 93.37 12.7702 92.22 13.4102C90.42 14.4202 91.11 20.9802 93.01 19.9202L93.02 19.9402Z" fill="black"/>
<path d="M198.13 328.9C199.47 337.71 200.76 346.54 201.77 355.4C201.91 356.62 202.04 357.83 202.16 359.05C202.21 359.54 202.25 360.03 202.29 360.52C202.34 361.14 202.38 363.1 202.31 360.62C202.38 363.08 202.48 365.53 202.7 367.97C203.29 374.65 204.25 381.3 205.07 387.96C205.89 394.62 206.31 401.32 206.76 408.01L209.15 400.89C204.53 400.93 199.91 400.94 195.29 400.94C186.35 400.94 177.41 400.9 168.47 400.68C164.62 400.59 160.77 400.48 156.92 400.24C155.55 400.16 154.19 400.06 152.83 399.91C152.34 399.86 151.86 399.8 151.38 399.72C151.19 399.69 151 399.65 150.81 399.61C150.55 399.56 150.14 399.61 150.62 399.58C151.22 399.54 150.92 399.71 150.83 399.64C150.69 399.52 150.31 399.47 150.13 399.41L148.51 398.87L145.64 397.91C144.07 397.39 142.51 396.87 140.94 396.34C139.88 395.99 138.99 395.55 137.88 395.72C133.64 396.39 129.39 396.99 125.13 397.51C120.87 398.03 116.39 398.46 111.99 398.48C108.51 398.49 105.03 398.53 101.55 398.56C92.36 398.65 83.18 398.75 73.99 398.86C70.46 398.9 66.93 398.9 63.4 399.06C55.87 399.4 48.35 399.74 40.82 400.09C36.96 400.27 33.11 400.44 29.25 400.62C27.41 400.7 25.47 400.98 23.62 400.88C21.47 400.76 19.21 400.07 17.09 399.68C13.13 398.94 9.17 398.21 5.21 397.47C4.45 397.33 3.7 397.19 2.94 397.05L5.42 402.67C5.42 402.55 5.45 402.42 5.44 402.3C5.43 402.2 5.45 402.08 5.46 401.98C5.49 401.45 5.34 404.01 5.4 402.92C5.46 401.99 5.52 401.06 5.58 400.13C5.78 396.98 5.99 393.82 6.2 390.67C6.82 381.34 7.43 372.01 8.02 362.68C8.61 353.35 9.24 343.14 9.75 333.37C10.06 327.3 10.21 321.25 10.24 315.17C10.31 304.94 10.42 294.72 10.54 284.5C10.6 279.2 10.86 273.89 10.48 268.6C10.17 264.34 9.88 260.08 9.62 255.82C9.58 255.18 9.54 254.54 9.5 253.9C9.48 253.55 9.46 253.21 9.44 252.86C9.42 252.6 9.34 251.19 9.4 252.26C9.46 253.33 9.4 252.2 9.38 251.96C9.36 251.61 9.34 251.27 9.32 250.92C9.28 250.23 9.24 249.55 9.21 248.86C9.07 246.35 8.95 243.84 8.86 241.33C8.76 238.55 8.81 235.76 8.57 232.98C8.29 229.66 7.4 226.53 6.22 223.43C6.13 223.2 6.05 222.97 5.96 222.75C5.69 222.04 6 222.75 6.08 223.12C6.03 222.89 5.94 222.67 5.88 222.45C5.85 222.35 5.83 222.25 5.81 222.16C5.59 221.41 5.97 223.4 5.92 222.8C5.9 222.59 5.87 222.37 5.84 222.17C5.75 221.56 5.88 223.77 5.89 222.83C5.89 222.69 5.89 222.55 5.89 222.41C5.89 221.39 5.87 220.37 5.85 219.35C5.72 210.96 5.55 202.57 5.39 194.18C5.25 186.88 5.1 179.58 4.96 172.28C4.96 171.88 4.94 171.48 4.94 171.08L2.46 176.7C14.64 175.15 26.84 173.42 39.08 172.44C42.86 172.14 46.65 171.95 50.41 171.42C52.16 171.17 52.57 168.66 52.8 167.29C54.06 159.87 55.31 152.45 56.57 145.03C59.02 130.56 61.47 116.08 63.92 101.61C65.58 91.78 67.24 81.96 68.91 72.13C69.08 71.11 69.43 70.06 68.89 72.16C69.22 70.88 69.5 69.58 69.81 68.29C71.31 62.06 72.85 55.85 74.46 49.65C76.32 42.5 78.23 35.34 80.49 28.3C80.71 27.6 80.95 26.91 81.17 26.22C80.63 27.91 81.07 26.52 81.2 26.13C81.32 25.8 81.43 25.47 81.55 25.15C81.93 24.1 82.34 23.05 82.8 22.03C82.97 21.66 83.16 21.31 83.33 20.95C83.52 20.54 82.65 21.97 83.1 21.37C83.2 21.24 83.31 21.09 83.4 20.95C83.72 20.42 83.36 21.57 83.05 21.26C83.05 21.26 83.63 20.87 83.62 20.88C84.58 20.27 85.53 19.65 86.48 19.03C88.43 17.74 90.36 16.44 92.29 15.13C93.09 14.59 93.89 13.89 94.76 13.46C95.09 13.29 95.48 13.2 95.83 13.08C96.18 12.96 96.53 12.85 96.89 12.73C97.35 12.58 96.95 12.71 96.86 12.73C97.17 12.64 97.48 12.55 97.79 12.46C99.89 11.88 102.04 11.42 104.22 11.28C105.24 11.22 106.28 11.22 107.3 11.37C107.49 11.4 108.54 11.66 108.13 11.53C108.8 11.76 109.38 12.14 110 12.48C112.31 13.76 114.9 14.5 117.16 15.87C118.62 16.76 119.29 17.79 120.39 19.44C120.81 20.07 121.2 20.71 121.59 21.35C122.02 22.05 121.15 20.51 121.54 21.26C121.65 21.47 121.77 21.68 121.88 21.89C122.12 22.34 122.35 22.8 122.57 23.27C123.03 24.24 123.45 25.23 123.83 26.23C123.95 26.53 124.06 26.84 124.17 27.14C124.25 27.35 124.69 28.39 124.23 27.3C124.51 27.98 124.69 28.73 124.89 29.43C125.61 31.91 126.14 34.44 126.66 36.97C127.3 40.06 127.97 43.14 128.66 46.22C130.5 54.54 132.4 62.85 134.31 71.16C135.71 77.25 137.12 83.33 138.53 89.41C138.64 89.89 138.74 90.38 138.87 90.86C139 91.34 138.49 88.79 138.72 90.02C139 91.53 139.28 93.05 139.56 94.56C142.02 107.94 144.49 121.32 146.95 134.7C148.59 143.59 150.11 152.49 151.63 161.4C151.94 163.2 152.24 165.01 152.55 166.81C152.77 168.1 153.18 170.8 154.94 170.94C160.88 171.43 166.81 171.91 172.75 172.4C182.22 173.17 191.68 173.95 201.15 174.72C203.33 174.9 205.51 175.08 207.69 175.26L205.21 169.64C204.95 176.03 204.68 182.42 204.41 188.81C203.82 202.72 203.23 216.64 202.62 230.55C202.01 244.46 201.43 257.58 200.77 271.1C200.65 273.48 200.53 275.86 200.41 278.24C200.36 279.25 200.3 280.26 200.25 281.27C200.23 281.67 200.2 282.07 200.18 282.46C200.12 283.53 200.27 280.98 200.23 281.62C200.22 281.82 200.21 282.03 200.19 282.23C199.7 290.13 199.28 298.01 199.02 305.92C198.85 311.27 198.7 316.62 198.4 321.96C198.38 322.36 198.29 323.26 198.42 321.63C198.39 321.95 198.38 322.28 198.36 322.6C198.33 323.12 198.29 323.63 198.25 324.15C198.17 325.15 198.09 326.14 197.98 327.13C197.76 329.13 197.48 331.12 197.17 333.1C196.82 335.33 196.44 337.55 196.03 339.77C195.97 340.09 195.91 340.41 195.85 340.73C195.69 341.61 195.9 340.44 195.92 340.35C195.79 340.93 195.7 341.51 195.59 342.09C195.38 343.22 195.16 344.34 194.93 345.46C194.29 348.71 193.62 351.95 192.91 355.18C192.8 355.68 192.7 356.17 192.59 356.67C192.07 359.01 191.88 362.36 193.48 364.37C195.08 366.38 196.53 363.87 196.87 362.35C198.29 355.95 199.57 349.52 200.74 343.08C201.52 338.82 202.26 334.55 202.73 330.24C203.28 325.28 203.45 320.28 203.64 315.3C203.86 309.66 204 304.02 204.21 298.38C204.31 295.77 204.54 293.14 204.57 290.52C204.55 292.38 204.59 290.2 204.62 289.77C204.66 289.17 204.7 288.56 204.75 287.96C204.77 287.64 204.8 287.32 204.82 287C205.1 283.07 205.29 279.14 205.49 275.2C206.15 262.25 206.72 249.29 207.29 236.34C207.92 222 208.54 207.65 209.14 193.3C209.47 185.52 209.9 177.74 210.12 169.96C210.12 169.85 210.12 169.73 210.13 169.62C210.19 168.09 209.78 164.17 207.65 164C201.71 163.51 195.78 163.03 189.84 162.54C180.37 161.77 170.91 160.99 161.44 160.22C159.26 160.04 157.08 159.86 154.9 159.68L157.29 163.81C155.84 155.32 154.47 146.8 152.91 138.33C150.48 125.15 148.05 111.97 145.63 98.79C144.89 94.78 144.15 90.77 143.41 86.75C142.67 82.73 141.71 79.14 140.83 75.36C137.35 60.31 133.74 45.26 130.66 30.12C129.53 24.57 127.99 18.96 125.34 13.93C123.53 10.49 121.32 6.51003 117.77 4.64003C116.71 4.08003 115.59 3.65003 114.49 3.18003C113.03 2.55003 111.68 1.79003 110.28 1.05003C108.33 0.0300311 106.04 -0.129969 103.88 0.0300311C101.72 0.190031 99.58 0.660031 97.5 1.25003C96.18 1.62003 94.68 1.95003 93.44 2.56003C92.63 2.95003 91.89 3.59003 91.14 4.10003C89.18 5.43003 87.22 6.75003 85.25 8.06003C83.84 8.99003 82.02 9.81003 80.92 11.13C80.29 11.9 79.83 12.83 79.4 13.73C78.19 16.26 77.34 18.98 76.47 21.63C75.38 24.94 74.4 28.29 73.45 31.64C70.2 43.13 67.18 54.74 64.57 66.39C64.09 68.53 63.8 70.74 63.44 72.9C62.58 77.96 61.73 83.02 60.87 88.08C58.41 102.63 55.95 117.17 53.49 131.72C51.74 142.04 50 152.35 48.25 162.67C48.16 163.21 48.07 163.74 47.98 164.28L50.37 160.15C44 161.05 37.53 161.26 31.13 161.96C23.45 162.81 15.77 163.75 8.1 164.71C6.21 164.95 4.31 165.18 2.42 165.42C0.319999 165.73 -0.0300014 169.54 -1.41026e-06 171.09C0.109999 176.51 0.219999 181.92 0.319999 187.34C0.499999 196.45 0.679999 205.56 0.839999 214.67C0.889999 217.26 0.939999 219.86 0.959999 222.45C0.979999 225.2 1.43 227.74 2.34 230.33C2.5 230.79 2.68 231.24 2.85 231.7C2.93 231.91 3.01 232.12 3.08 232.32C3.48 233.39 2.88 231.64 3.08 232.31C3.26 232.92 3.44 233.53 3.58 234.15C3.61 234.3 3.64 234.45 3.67 234.59C3.8 235.11 3.56 234.04 3.56 234.03C3.44 234.2 3.72 235.15 3.75 235.42C3.77 235.61 3.78 235.8 3.8 235.99C3.89 236.76 3.77 234.89 3.79 235.71C3.79 236.15 3.82 236.6 3.82 237.04C3.82 237.54 3.82 238.04 3.83 238.53C3.85 239.55 3.88 240.57 3.91 241.59C4 244.07 4.12 246.55 4.26 249.03C4.57 254.69 4.93 260.36 5.31 266.02C5.43 267.84 5.56 269.66 5.69 271.48C5.72 271.95 5.76 272.42 5.79 272.89C5.88 274.04 5.72 271.93 5.73 271.83C5.63 272.44 5.71 273.13 5.71 273.74C5.69 275.26 5.67 276.78 5.65 278.3C5.53 288.32 5.42 298.33 5.33 308.35C5.27 314.96 5.33 321.57 5.04 328.18C4.87 332.06 4.66 335.95 4.44 339.83C4.38 340.97 4.31 342.11 4.24 343.26C4.21 343.81 4.18 344.35 4.14 344.9C4.09 345.83 4.14 344.9 4.17 344.43C4.15 344.77 4.13 345.12 4.11 345.46C3.96 347.94 3.81 350.42 3.66 352.9C3.06 362.66 2.42 372.41 1.78 382.16C1.38 388.17 0.969999 394.17 0.599999 400.18C0.549999 401.01 0.459999 401.87 0.459999 402.71C0.449999 404.43 0.769999 407.93 2.94 408.33C9.35 409.52 15.76 410.71 22.17 411.91C23.37 412.13 24.29 412.14 25.52 412.08C28.58 411.94 31.64 411.8 34.69 411.66C42.91 411.29 51.13 410.91 59.35 410.54C62.64 410.39 65.91 410.25 69.2 410.21C77.71 410.11 86.22 410.01 94.73 409.92C99.03 409.88 103.32 409.83 107.62 409.8C110.82 409.77 114.02 409.83 117.21 409.6C122.5 409.22 127.77 408.51 133.01 407.75C134.65 407.51 136.28 407.27 137.92 407.01C138.06 406.99 138.33 407 138.45 406.93C138.79 406.73 138.32 406.85 138.01 406.71C138.72 407.04 139.54 407.22 140.29 407.47C143.62 408.58 146.94 409.89 150.32 410.79C151.15 411.01 152.01 411.11 152.87 411.21C156.01 411.56 159.18 411.68 162.34 411.79C171.27 412.12 180.22 412.19 189.15 412.22C195.48 412.24 201.8 412.23 208.13 412.18C208.46 412.18 208.8 412.18 209.13 412.18C210.25 412.17 210.78 410.83 211.07 409.96C211.62 408.35 211.63 406.74 211.51 405.06C211.11 399.11 210.79 393.13 210.09 387.21C209.3 380.55 208.35 373.91 207.67 367.24C207.53 365.85 207.41 364.45 207.3 363.05C207.23 362.15 207.37 364.69 207.32 363.45C207.32 363.22 207.3 362.99 207.29 362.76C207.28 362.34 207.29 361.92 207.27 361.49C207.21 359.1 206.98 356.72 206.73 354.34C206.12 348.63 205.33 342.93 204.53 337.25C204 333.48 203.45 329.71 202.88 325.94C202.69 324.72 201.88 320.85 199.84 322.01C197.92 323.1 197.84 327.14 198.11 328.93L198.13 328.9Z" fill="black"/>
<path d="M11.99 315.9C12.03 320.89 13.26 325.95 14.2 330.82C15.14 335.69 16.24 340.97 17.34 346.03C17.59 347.16 17.83 348.3 18.08 349.43C18.4 350.87 20 353.47 21.47 351.45C22.94 349.43 22.89 346.14 22.36 343.75C21.71 340.82 21.08 337.88 20.46 334.94C19.9 332.25 19.34 329.56 18.81 326.87C18.54 325.52 18.29 324.16 18.03 322.81C18.01 322.7 18.26 324.08 18.16 323.52C18.13 323.35 18.1 323.19 18.07 323.02C18.02 322.74 17.97 322.45 17.92 322.17C17.81 321.55 17.7 320.93 17.6 320.31C17.41 319.18 17.23 318.06 17.08 316.93C17.02 316.47 16.96 316.01 16.92 315.54C16.79 314.08 16.95 317.18 16.94 315.9C16.93 314.45 16.64 310.28 14.46 310.28C12.28 310.28 11.98 314.59 11.98 315.9H11.99Z" fill="black"/>
<path d="M19.08 200.01C20.76 201.41 22.44 202.81 24.12 204.21C24.36 204.41 24.59 204.6 24.83 204.8C25.16 205.03 25.49 205.07 25.82 204.9C26.22 204.83 26.52 204.61 26.74 204.23C27.06 203.79 27.3 203.31 27.43 202.78C27.67 202.17 27.82 201.53 27.87 200.87C28.02 199.44 28.02 197.92 27.62 196.54L27.23 195.4C27 194.81 26.64 194.33 26.14 193.95C24.46 192.55 22.78 191.15 21.1 189.75C20.86 189.55 20.63 189.36 20.39 189.16C20.06 188.93 19.73 188.89 19.4 189.06C19 189.13 18.7 189.35 18.48 189.73C18.16 190.17 17.92 190.65 17.79 191.18C17.55 191.79 17.4 192.43 17.35 193.09C17.2 194.52 17.2 196.04 17.6 197.42L17.99 198.56C18.22 199.15 18.58 199.63 19.08 200.01Z" fill="black"/>
<path d="M188.06 262.62C187.78 265.14 187.5 267.65 187.22 270.17C187.18 270.53 187.14 270.89 187.1 271.26C186.94 272.67 186.98 274.22 187.35 275.59C187.46 276.16 187.68 276.69 187.99 277.17C188.17 277.58 188.45 277.92 188.83 278.18C190.92 279.15 191.73 275.56 191.87 274.25C192.15 271.73 192.43 269.22 192.71 266.7C192.75 266.34 192.79 265.98 192.83 265.61C192.99 264.2 192.95 262.65 192.58 261.28C192.47 260.71 192.25 260.18 191.94 259.7C191.76 259.29 191.48 258.95 191.1 258.69C189.01 257.72 188.2 261.31 188.06 262.62Z" fill="black"/>
<path d="M15.59 387.49C16.85 389.73 18.11 391.97 19.37 394.21C19.55 394.53 19.73 394.84 19.9 395.16C20.26 395.8 20.75 396.81 21.65 396.81C22.49 396.81 23.13 395.81 23.4 395.16C23.92 393.92 24.15 392.52 24.12 391.18L24.03 389.68C23.94 388.82 23.72 387.99 23.39 387.2C22.13 384.96 20.87 382.72 19.61 380.48C19.43 380.16 19.25 379.85 19.08 379.53C18.72 378.89 18.23 377.88 17.33 377.88C16.49 377.88 15.85 378.88 15.58 379.53C15.06 380.77 14.83 382.17 14.86 383.51L14.95 385.01C15.04 385.87 15.26 386.7 15.59 387.49Z" fill="black"/>
<path d="M61.71 144.91C61.36 145.22 61.01 145.56 60.8 145.99C60.52 146.58 60.25 147.14 60.06 147.76C59.75 148.79 59.47 149.82 59.21 150.86L59.4 150.12C59.32 150.45 59.19 150.82 59.15 151.13C59.07 151.72 59.07 152.34 59.2 152.92C59.27 153.23 59.39 153.5 59.48 153.8L59.28 153.14C59.28 153.14 59.28 153.14 59.28 153.15L59.2 152.42C59.2 152.42 59.2 152.42 59.2 152.43L60.93 149.64C60.44 149.56 59.9 150.13 59.68 150.47C59.34 151.01 59.17 151.79 59.2 152.42C59.23 153.05 59.36 153.81 59.77 154.35L60.14 154.77C60.4 155 60.71 155.12 61.06 155.12C60.75 155 60.45 154.89 60.14 154.77C61.33 155.74 62.51 154.52 62.91 153.41C63.17 152.69 63.22 151.88 63.33 151.13C63.43 150.45 63.59 149.77 63.65 149.09C63.7 148.56 63.81 148 63.79 147.47C63.78 147.18 63.75 146.89 63.75 146.6C63.75 146 63.54 145.27 63.05 144.88C62.63 144.53 62.12 144.56 61.71 144.91Z" fill="black"/>
<path d="M138.15 111.12L138.31 112.36C138.36 112.74 138.44 113.1 138.53 113.48L138.81 114.57C138.99 115.27 139.18 115.96 139.58 116.57C139.8 116.89 140.26 117.28 140.69 117.23C141.79 117.11 142.24 115.79 142.18 114.84C142.16 114.54 142.13 114.24 142.08 113.95C142.03 113.68 141.91 113.4 141.82 113.13C141.67 112.72 141.5 112.33 141.33 111.93C141.11 111.41 140.9 110.91 140.6 110.43L139.99 109.42C139.7 108.95 139.04 108.77 138.62 109.19C138.11 109.7 138.06 110.46 138.15 111.13V111.12Z" fill="black"/>
<path d="M65.29 170.48C73.51 170.59 81.73 170.7 89.94 170.8C103.03 170.97 116.12 171.14 129.2 171.32C132.19 171.36 135.18 171.4 138.17 171.44C139.02 171.45 139.63 170.42 139.92 169.79C140.45 168.63 140.67 167.07 140.64 165.81C140.61 164.39 140.35 160.21 138.16 160.19C129.94 160.08 121.72 159.97 113.51 159.87C100.42 159.7 87.33 159.53 74.25 159.35C71.26 159.31 68.27 159.27 65.28 159.23C64.43 159.22 63.82 160.25 63.53 160.88C63 162.04 62.78 163.6 62.81 164.86C62.84 166.28 63.1 170.46 65.29 170.48Z" fill="black"/>
</g>
<defs>
<clipPath id="clip0_3416_11925">
<rect width="211.59" height="412.21" fill="white"/>
</clipPath>
</defs>
</svg>
