<svg width="145" height="229" viewBox="0 0 145 229" fill="none" xmlns="http://www.w3.org/2000/svg">
<g clip-path="url(#clip0_3416_10062)">
<path d="M30.07 91.7099C28.18 89.0599 27.08 87.2499 25.82 84.7299C25.25 83.5999 24.72 82.4499 24.23 81.2799C23.96 80.6499 23.71 80.0099 23.47 79.3699C23.35 79.0499 23.23 78.7299 23.12 78.4099C23.04 78.1999 22.97 77.9799 22.89 77.7699C23.08 78.3299 23.09 78.3699 22.94 77.8899C22.54 76.5899 22.15 75.2999 21.82 73.9799C21.68 73.4299 21.56 72.8899 21.44 72.3399C21.37 72.0099 21.3 71.6799 21.24 71.3499C21.14 70.8099 21.15 70.9099 21.29 71.6499C21.25 71.4299 21.21 71.2099 21.18 70.9899C20.96 69.6699 20.78 68.3399 20.65 67.0099C20.61 66.5499 20.58 64.3199 20.56 66.1199C20.56 65.3499 20.49 64.5599 20.48 63.7899C20.46 62.5699 20.49 61.3499 20.54 60.1299C20.59 58.9099 20.43 61.4399 20.54 60.2399C20.57 59.9099 20.59 59.5799 20.62 59.2499C20.69 58.4799 20.77 57.7099 20.87 56.9399C20.96 56.2799 21.05 55.6299 21.16 54.9699C21.2 54.7099 21.2 54.2199 21.33 53.9899C20.99 54.5999 21.17 54.8099 21.28 54.2999C21.58 52.8899 21.9 51.4899 22.28 50.0999C22.46 49.4599 22.65 48.8199 22.85 48.1899C22.95 47.8699 23.05 47.5599 23.16 47.2399C22.79 48.3499 23.16 47.2699 23.23 47.0799C23.68 45.8299 24.18 44.5899 24.72 43.3699C25.26 42.1499 25.85 40.9399 26.47 39.7599C26.63 39.4599 26.79 39.1699 26.95 38.8699C27.47 37.8899 26.57 39.4999 27.13 38.5499C27.53 37.8699 27.94 37.1999 28.36 36.5399C34.41 27.0899 43 19.8299 53.37 15.3199C63.74 10.8099 74.33 9.79994 84.93 11.5499C95.53 13.2999 105.55 18.1999 113.52 25.4299C117.55 29.0799 121.67 34.1999 124.35 39.0999C125.87 41.8899 127.14 44.7899 128.21 47.7799C127.84 46.7499 128.4 48.3899 128.5 48.6999C128.71 49.3699 128.9 50.0499 129.08 50.7199C129.26 51.3899 129.43 52.0699 129.59 52.7599C129.67 53.0999 129.74 53.4399 129.81 53.7799C129.88 54.1199 130.37 55.5199 129.9 54.1999C130.34 55.4299 130.35 57.0299 130.48 58.3199C130.54 58.8899 130.58 59.4699 130.63 60.0399C130.74 61.2799 130.58 58.7399 130.63 59.9799C130.65 60.4399 130.67 60.8999 130.68 61.3599C130.72 62.7399 130.68 64.1099 130.64 65.4899C130.6 66.7299 130.74 64.1899 130.64 65.4299C130.61 65.7699 130.59 66.1199 130.56 66.4599C130.5 67.1499 130.43 67.8299 130.34 68.5099C130.25 69.1899 130.16 69.8699 130.05 70.5499C130 70.8599 129.99 71.2699 129.88 71.5699C130.33 70.3599 129.93 71.2699 129.86 71.6299C129.56 73.0899 129.21 74.5399 128.8 75.9699C128.61 76.6299 128.4 77.2899 128.2 77.9499C128.14 78.1499 127.92 78.7499 128.24 77.8399C128.13 78.1699 128.01 78.4899 127.89 78.8099C127.38 80.2199 126.81 81.5999 126.19 82.9599C125.61 84.2199 124.99 85.4599 124.33 86.6799C124.3 86.7399 123.73 87.7299 124.13 87.0499C124.01 87.2499 123.9 87.4499 123.78 87.6499C123.36 88.3499 122.93 89.0399 122.48 89.7199C120.87 92.1799 119.06 94.5199 117.09 96.6999C113.27 100.93 108.61 104.62 103.52 107.54C82.29 119.73 54.53 116.45 36.81 99.4999C34.32 97.1199 32.09 94.4699 30.07 91.6899C28.66 89.7299 27.15 92.2599 26.82 93.6299C26.27 95.9099 26.23 99.0199 27.67 101.02C35.72 112.16 47.27 120.15 60.53 123.74C72.81 127.07 85.93 126.16 97.71 121.4C109.49 116.64 119.58 107.96 126.08 97.1299C132.58 86.2999 135.95 73.1699 135.4 60.3199C134.8 46.3799 130.2 32.7499 121.34 21.8599C113.82 12.6199 103.75 5.89994 92.36 2.46994C80.97 -0.960063 69.84 -0.850063 58.98 2.40994C47.34 5.90994 37 12.8599 29.41 22.3699C21.82 31.8899 17.25 43.7699 16.07 55.8699C14.89 67.9699 16.92 81.6299 22.77 92.9699C24.21 95.7599 25.84 98.4599 27.67 101.02C29.07 102.99 30.6 100.44 30.92 99.0799C31.47 96.7899 31.5 93.7099 30.07 91.6899V91.7099Z" fill="black"/>
<path d="M7.93003 217.86C7.40003 212.04 6.86003 206.22 6.33003 200.4C5.96003 196.39 5.60003 192.38 5.23003 188.37L4.88003 184.55C4.85003 184.19 4.82003 183.84 4.78003 183.48C4.68003 182.49 4.83003 184.66 4.84003 184.57C5.01003 183.22 4.84003 181.73 4.84003 180.37V174.37C4.84003 173.85 4.84003 173.32 4.84003 172.8C4.84003 172.48 4.84003 172.17 4.85003 171.85C4.85003 171.68 4.87003 171.51 4.87003 171.35C4.87003 171.32 4.76003 172.55 4.84003 171.96C4.90003 171.52 4.92003 171.08 4.97003 170.64C5.01003 170.31 5.08003 169.99 5.11003 169.66C5.17003 169.12 5.04003 170.14 5.01003 170.14C5.03003 170.14 5.10003 169.7 5.11003 169.66C5.28003 168.92 5.45003 168.19 5.67003 167.46C5.72003 167.3 6.05003 166.35 5.83003 166.93C5.60003 167.54 6.03003 166.43 6.09003 166.27C6.35003 165.62 6.63003 164.99 6.93003 164.36C7.09003 164.02 7.27003 163.69 7.44003 163.36C7.76003 162.72 7.21003 163.7 7.59003 163.09C7.97003 162.48 8.38003 161.82 8.81003 161.2C9.61003 160.06 10.5 158.97 11.45 157.95C12.4 156.93 13.03 156.36 14.23 155.4C15.43 154.44 16.62 153.63 17.89 152.87C22.97 149.86 28.7 148.4 34.6 148.38C38.13 148.37 41.66 148.38 45.19 148.38H93.73C98.57 148.38 103.42 148.38 108.26 148.38C111.77 148.38 115.29 148.75 118.66 149.78C121.39 150.61 124.02 151.86 126.43 153.39C128.84 154.92 130.93 156.68 132.67 158.66C133.59 159.71 134.44 160.82 135.2 161.99C135.41 162.3 135.6 162.62 135.8 162.94C135.88 163.08 135.97 163.22 136.05 163.35C136.02 163.3 135.76 162.82 135.96 163.21C136.31 163.88 136.65 164.54 136.95 165.23C137.21 165.82 137.42 166.43 137.67 167.02C137.87 167.48 137.57 166.7 137.56 166.69C137.64 166.88 137.7 167.11 137.76 167.31C137.87 167.67 137.97 168.03 138.07 168.4C138.15 168.71 138.23 169.03 138.3 169.35C138.34 169.51 138.37 169.67 138.4 169.83C138.61 170.76 138.32 169.51 138.34 169.5C138.35 169.5 138.6 171.45 138.61 171.62C138.74 172.85 138.6 170.7 138.61 171.68C138.61 172.02 138.63 172.35 138.63 172.69C138.63 172.8 138.63 172.9 138.63 173.01C138.63 173.65 138.63 174.3 138.63 174.94V184.61L139.33 180.79C138.24 183.88 138.03 187.12 137.93 190.38C137.83 193.64 137.93 196.76 138.07 199.95C138.37 206.85 138.9 213.74 139.53 220.62C139.66 222.07 139.8 223.52 139.95 224.97C140.07 226.16 140.94 229.84 142.87 228.74C144.8 227.64 144.71 223.85 144.53 222.1C144.25 219.4 144 216.7 143.77 214C143.54 211.3 143.33 208.66 143.15 205.99C143.1 205.31 143.06 204.64 143.02 203.96C142.99 203.54 142.92 202.15 143.02 204.03C143 203.62 142.97 203.21 142.95 202.8C142.87 201.41 142.81 200.01 142.75 198.62C142.65 196.02 142.59 193.41 142.65 190.81C142.66 190.29 142.69 189.78 142.71 189.27C142.75 188.2 142.59 190.78 142.68 189.76C142.7 189.5 142.72 189.23 142.75 188.97C142.79 188.57 142.84 188.18 142.89 187.79C143 186.89 142.73 188.31 142.76 188.46C142.73 188.29 142.86 188.03 142.9 187.86C142.94 187.64 143.15 187.08 142.84 188C142.35 189.42 143.12 187.01 143.18 186.71C143.35 185.79 143.36 185.86 143.38 184.63C143.38 184.48 143.38 184.33 143.38 184.17C143.38 183.26 143.38 182.34 143.38 181.43V174.22C143.38 167.2 142.11 160.48 138.58 154.35C135.05 148.22 129.44 143.3 122.94 140.53C118.29 138.55 113.33 137.62 108.28 137.62H45.07C39.06 137.62 32.69 137.14 26.81 138.49C19.65 140.13 13.23 143.84 8.37003 149.38C2.99003 155.54 0.400028 163.56 0.100028 171.69C-0.139972 178.22 0.0500282 184.74 0.640028 191.24C1.48003 200.38 2.32003 209.53 3.15003 218.67C3.21003 219.36 3.28003 220.04 3.34003 220.73C3.45003 221.93 4.34003 225.59 6.26003 224.5C8.18003 223.41 8.08003 219.62 7.92003 217.86H7.93003Z" fill="#1D1D1B"/>
</g>
<defs>
<clipPath id="clip0_3416_10062">
<rect width="144.66" height="228.95" fill="white"/>
</clipPath>
</defs>
</svg>
