<svg width="306" height="230" viewBox="0 0 306 230" fill="none" xmlns="http://www.w3.org/2000/svg">
<g clip-path="url(#clip0_3416_12129)">
<path d="M65.53 115.269C60.43 114.179 54.9 113.899 50.08 116.169C48.25 117.039 47.82 119.539 48.02 121.319C48.12 122.219 48.36 123.229 48.92 123.969C49.4 124.589 50.23 125.459 51.11 125.279C52.38 125.019 53.65 124.769 54.92 124.469L54.07 124.659C55.02 124.449 55.97 124.279 56.92 124.059L56.08 124.249C59.01 123.599 62 123.369 64.99 123.589C65.75 123.649 66.58 122.889 66.93 122.299C67.37 121.539 67.58 120.719 67.64 119.849C67.7 118.979 67.62 117.979 67.24 117.159C66.92 116.459 66.36 115.429 65.53 115.249V115.269Z" fill="#1D1D1B"/>
<path d="M57.19 126.849C54.18 126.969 51.19 127.529 48.31 128.429C45.43 129.329 42.73 130.839 40.18 132.609C34.9 136.279 31.11 141.389 28.76 147.349C27.98 149.329 28.32 152.069 29.75 153.659C30.99 155.049 33.03 154.909 33.97 153.169C34.6 152.019 35.29 150.909 36.05 149.849C36.26 149.559 36.48 149.279 36.7 148.989C36.1 149.779 36.95 148.689 37.26 148.279C37.44 148.039 37.63 147.789 37.81 147.549C38.54 146.579 37.25 148.179 38.04 147.269C39.77 145.269 41.69 143.439 43.79 141.829C44.04 141.639 44.28 141.459 44.53 141.279C44.55 141.269 45.52 140.619 44.93 140.989C45.45 140.649 45.97 140.329 46.51 140.019C47.7 139.329 48.88 138.639 50.11 138.039C52.44 136.909 55.01 135.999 57.4 135.549C59.39 135.169 60.25 133.019 60.15 131.129C60.06 129.539 59.28 126.769 57.19 126.849Z" fill="#1D1D1B"/>
<path d="M16.28 141.139C5.48002 149.799 -0.299978 163.579 0.0100216 177.309C0.110022 181.559 0.910022 185.599 2.27002 189.619C2.74002 191.029 4.31002 192.149 5.69002 191.219C7.17002 190.219 7.50002 187.939 7.14002 186.319C6.92002 185.339 6.74002 184.359 6.59002 183.369C6.56002 183.159 6.38002 181.539 6.49002 182.699C6.44002 182.209 6.41002 181.719 6.36002 181.229C6.19002 179.379 6.06002 177.539 6.09002 175.679C6.09002 175.189 6.12002 174.689 6.14002 174.199C6.17002 173.659 6.17002 173.709 6.14002 174.319C6.16002 174.069 6.18002 173.829 6.20002 173.579C6.29002 172.589 6.42002 171.609 6.55002 170.629C6.67002 169.769 6.81002 168.909 6.98002 168.049C7.08002 167.559 7.19002 167.079 7.29002 166.589C7.40002 166.109 7.40002 166.109 7.29002 166.569C7.35002 166.329 7.42002 166.089 7.48002 165.839C7.98002 164.029 8.60002 162.259 9.29002 160.519C10.1 158.489 10.59 157.409 11.64 155.549C13.51 152.219 15.8 149.199 18.51 146.509C19.59 145.439 19.71 143.539 19.15 142.179C18.63 140.949 17.45 140.189 16.29 141.119L16.28 141.139Z" fill="#1D1D1B"/>
<path d="M45.93 150.989C43.27 156.259 41.04 161.749 39.51 167.449C39.22 168.509 39.22 169.949 40.16 170.719C41.02 171.429 42.01 170.719 42.29 169.809C43.93 164.589 45.94 159.509 48.5 154.699C49.1 153.559 49.18 152.019 48.41 150.939C47.78 150.049 46.49 149.909 45.94 150.999L45.93 150.989Z" fill="#1D1D1B"/>
<path d="M30.03 195.369C27.97 205.689 27.73 216.359 29.94 226.669C30.27 228.219 31.6 230.409 33.5 229.599C35.4 228.789 35.59 225.999 35.35 224.249C35.1 222.409 34.89 220.169 34.69 217.789C34.49 215.409 34.43 213.169 34.4 210.859C34.33 205.959 34.56 202.339 35.31 197.439C35.57 195.759 35.13 193.099 33.29 192.409C31.45 191.719 30.32 193.909 30.03 195.369Z" fill="#1D1D1B"/>
<path d="M191.56 62.5596C192.14 64.2696 191.89 63.5796 191.68 62.8096C191.47 62.0396 191.33 61.3396 191.17 60.5996C191.01 59.8596 191.42 62.0196 191.31 61.3696C191.29 61.2496 191.27 61.1296 191.25 60.9996C191.2 60.7196 191.16 60.4296 191.12 60.1496C191.03 59.5196 190.95 58.8796 190.89 58.2396C190.86 57.8896 190.83 57.5396 190.8 57.1896C190.7 55.8196 190.85 58.5796 190.8 57.3296C190.77 56.5196 190.75 55.7196 190.76 54.9096C190.76 54.5096 190.77 54.1196 190.79 53.7196C190.79 53.5196 190.81 53.3096 190.82 53.1096C190.83 52.6096 190.82 54.1396 190.76 54.0296C190.72 53.9396 190.79 53.6196 190.8 53.5096C190.87 52.5996 190.96 51.6996 191.09 50.7896C191.16 50.2996 191.24 49.8096 191.32 49.3196C191.47 48.3896 191.18 50.0096 191.25 49.6796C191.31 49.4096 191.36 49.1296 191.42 48.8596C191.64 47.8096 191.9 46.7596 192.2 45.7296C192.36 45.1896 192.53 44.6596 192.7 44.1196C192.78 43.8596 192.37 45.0496 192.67 44.2096C192.78 43.9196 192.88 43.6196 193 43.3296C193.43 42.1996 193.9 41.0896 194.42 39.9996C194.67 39.4796 194.93 38.9596 195.2 38.4396C195.34 38.1796 195.48 37.9196 195.62 37.6596C195.72 37.4796 195.81 37.3096 195.91 37.1396C195.76 37.4196 195.67 37.5496 195.88 37.1996C196.58 36.0296 197.31 34.8796 198.09 33.7696C201.72 28.6096 206.16 24.3296 211.22 20.5896C216.9 16.3996 223.25 12.8396 230.23 11.4696C240.07 9.52957 249.52 11.9696 257.53 17.7696C258.89 18.7596 260.18 19.8296 261.42 20.9596C262.07 21.5496 261.07 20.5996 261.66 21.1896C261.88 21.4096 262.1 21.6296 262.32 21.8596C262.68 22.2296 263.03 22.6096 263.37 22.9996C265.99 26.0296 268.37 29.1296 270.43 32.5696C270.7 33.0196 270.96 33.4796 271.23 33.9296C271.59 34.5496 270.94 33.3996 271.29 34.0396C271.47 34.3696 271.66 34.6996 271.84 35.0296C272.44 36.1296 273.03 37.2296 273.61 38.3496C274.93 40.9096 276.18 43.4996 277.36 46.1196C278.64 48.9396 279.84 51.7996 280.96 54.6896C281.53 56.1596 282.08 57.6396 282.61 59.1296C282.73 59.4696 282.85 59.8196 282.97 60.1596C283.03 60.3296 283.09 60.4996 283.15 60.6796C283.13 60.6296 282.91 59.9596 283.07 60.4496C283.31 61.1996 283.56 61.9396 283.8 62.6896C284.71 65.5896 285.53 68.5196 286.19 71.4896C286.35 72.1996 286.48 72.9096 286.63 73.6196C286.75 74.1596 286.54 73.1396 286.54 73.1396C286.51 73.1696 286.62 73.5696 286.63 73.6196C286.69 73.9896 286.76 74.3596 286.82 74.7296C287.03 76.0596 287.19 77.3896 287.31 78.7196C287.38 79.5796 287.45 80.4396 287.51 81.3096C287.54 81.7896 287.61 82.5796 287.53 81.6096C287.57 82.1896 287.59 82.7696 287.62 83.3496C287.71 85.2496 287.76 87.1496 287.79 89.0396C287.84 92.7296 287.79 96.4096 287.61 100.1C287.59 100.52 287.57 100.95 287.54 101.37C287.51 102 287.56 101.02 287.56 100.99C287.56 101.26 287.52 101.55 287.51 101.83C287.45 102.73 287.38 103.62 287.31 104.52C287.17 106.25 286.99 107.99 286.79 109.72C286.6 111.36 286.37 112.99 286.12 114.61C286.01 115.32 285.88 116.03 285.76 116.75C285.66 117.31 285.84 116.33 285.84 116.33C285.8 116.5 285.77 116.67 285.74 116.84C285.65 117.29 285.56 117.73 285.47 118.18C285.19 119.49 284.89 120.78 284.53 122.07C284.36 122.69 284.18 123.3 283.99 123.91C283.94 124.08 283.6 124.96 283.87 124.3C284.14 123.64 283.76 124.59 283.7 124.77C283.34 125.76 282.93 126.73 282.46 127.67C282.43 127.72 282.14 128.23 282.16 128.25C282.19 128.29 282.79 126.96 282.19 128.19C281.95 128.69 281.74 129.16 281.58 129.71C280.88 132.11 281.2 134.95 282.43 137.1C285.14 141.84 287.87 146.58 290.59 151.31C294.09 157.4 297.58 163.49 301.08 169.58L301.72 170.7L302.29 160.83C297.31 164.63 292.02 168.08 286.75 171.47C272.45 180.67 257.61 189.04 242.47 196.79C230.41 202.96 218.13 208.71 205.69 214.08H206.95C201.81 210.84 196.67 207.6 191.53 204.36C179.93 197.05 168.33 189.74 156.72 182.42C144.39 174.65 132.05 166.87 119.72 159.1C112.38 154.48 105.05 149.85 97.71 145.23C97.34 145 96.96 144.7 96.57 144.51C95.9 144.19 95.4 144.46 94.72 144.64L91.17 145.6C84.76 147.33 78.35 149.05 71.94 150.78C71.46 150.91 70.98 151.04 70.5 151.17L72.18 160.39C76.25 149.75 80.33 139.1 84.4 128.46C84.98 126.94 85.57 125.41 86.15 123.89L83.27 124.73C85.53 127.91 87.79 131.1 90.05 134.28L94.57 140.65C95.25 141.61 96.04 143.32 97.1 143.96C98.16 144.6 99.53 144.97 100.67 145.44C103.82 146.75 106.98 148.06 110.13 149.37C119.81 153.39 129.5 157.42 139.18 161.44C148.86 165.46 159.16 169.74 169.15 173.89C174.41 176.08 179.64 178.4 184.96 180.46C185.04 180.49 185.11 180.52 185.19 180.55C186.74 181.19 187.58 179.28 187.87 178.07C188.37 176 188.41 173.49 187.5 171.53C184 163.94 180.51 156.35 177.01 148.76C171.44 136.66 165.86 124.56 160.29 112.47C159.01 109.69 157.73 106.92 156.45 104.14C156.25 103.7 155.52 102.39 154.77 102.56C152.98 102.97 151.11 103.17 149.28 103.2C147.75 103.22 146.25 103.09 144.77 102.71C145.2 102.89 144.31 102.6 144.77 102.71C144.62 102.65 144.46 102.6 144.31 102.53C143.97 102.39 143.63 102.22 143.32 102.02C143.07 101.86 142.83 101.59 142.57 101.46C143.18 101.77 142.89 101.83 142.65 101.51C142.55 101.37 142.44 101.2 142.32 101.07C141.99 100.71 142.88 101.94 142.42 101.21C142 100.55 142.57 101.68 142.54 101.59C142.3 100.72 142.71 102.78 142.62 102.08C142.55 101.46 142.62 103.7 142.65 102.52C142.67 101.76 142.53 104.03 142.64 102.96C142.74 101.95 142.39 103.93 142.59 103.16C142.68 102.81 142.77 102.46 142.87 102.1C142.9 101.98 143.07 101.5 142.87 102.08C142.63 102.78 142.98 101.8 143 101.75L141.95 103.14C147.63 99.9596 153.3 96.7796 158.98 93.6096C168.02 88.5496 177.06 83.4896 186.09 78.4296C188.15 77.2796 190.21 76.1196 192.28 74.9696C193.45 74.3096 193.79 72.3696 193.94 71.1996C194.14 69.5696 194.12 67.4396 193.33 65.9496C192.74 64.8296 192.14 63.7196 191.55 62.5996C191.22 61.9896 190.72 61.0196 189.87 61.0196C189.06 61.0196 188.45 61.9796 188.19 62.5996C187.29 64.7296 187.06 68.1196 188.19 70.2396C188.78 71.3596 189.38 72.4696 189.97 73.5896L191.02 64.5596C181.01 70.1696 171 75.7696 160.99 81.3796C155.28 84.5796 149.57 87.7796 143.86 90.9696C142.83 91.5496 141.68 92.0496 140.72 92.7296C139.57 93.5396 139.16 95.3996 138.78 96.6596C138.4 97.9196 138.13 99.3096 138.01 100.66C137.72 103.9 138.01 107.48 139.84 110.27C142.88 114.87 150.03 114.46 154.76 113.37L153.08 111.79C156.58 119.38 160.07 126.97 163.57 134.56C169.14 146.66 174.72 158.76 180.29 170.85C181.57 173.63 182.85 176.4 184.13 179.18L186.44 170.15C182.09 168.34 177.75 166.54 173.4 164.73C163.79 160.74 154.19 156.75 144.58 152.76C134.57 148.6 124.57 144.45 114.56 140.29C111.02 138.82 107.48 137.35 103.94 135.88L100.47 134.44C99.88 134.2 99.25 133.83 98.63 133.68C98.57 133.67 98.4 133.54 98.35 133.56C98.55 133.49 99.07 134.46 98.79 133.92C98.68 133.71 98.5 133.51 98.36 133.32L94.75 128.24L86.2 116.2L85.65 115.42C84.66 114.02 83.25 115.01 82.77 116.26C78.7 126.9 74.62 137.55 70.55 148.19C69.97 149.71 69.38 151.24 68.8 152.76C68.08 154.64 67.94 156.68 68.31 158.66C68.45 159.41 68.64 160.16 69.04 160.82C69.28 161.22 69.86 162.15 70.48 161.98C78.29 159.88 86.09 157.78 93.9 155.68C94.44 155.54 95.06 155.45 95.57 155.23C96.22 154.94 95.5 155.39 95.31 154.96C95.38 155.13 95.95 155.36 96.1 155.46L100.71 158.36C106.94 162.29 113.18 166.22 119.41 170.15C128.11 175.63 136.81 181.12 145.51 186.6C154.21 192.08 163.66 198.04 172.73 203.76C180.09 208.4 187.44 213.03 194.8 217.67L201.96 222.18C203.11 222.91 204.24 223.72 205.44 224.37C205.51 224.41 205.58 224.47 205.65 224.51C206.43 224.88 207.12 224.43 207.84 224.12C209.12 223.57 210.4 223.01 211.68 222.44C216.38 220.37 221.05 218.24 225.7 216.05C234.18 212.06 242.56 207.88 250.84 203.5C263.12 197 275.19 190.07 286.9 182.59C292.32 179.13 297.7 175.58 302.87 171.75C303.09 171.59 303.31 171.43 303.52 171.26C304.83 170.26 305.13 168.28 305.22 166.77C305.33 164.86 305.04 163.06 304.09 161.39C298.45 151.56 292.81 141.74 287.17 131.91C286.38 130.53 285.59 129.16 284.8 127.78V137.11C286.94 133.38 288.25 129.28 289.22 125.1C290.46 119.76 291.24 114.3 291.74 108.84C292.32 102.56 292.58 96.2496 292.52 89.9496C292.47 84.1496 292.32 78.2496 291.47 72.5096C289.95 62.1796 286.51 52.1496 282.46 42.5596C279.17 34.7796 275.45 26.9496 270.69 19.9396C263.46 9.24957 252.32 0.909573 239.11 0.0695731C227.94 -0.640427 217.41 4.40957 208.75 11.0696C200.94 17.0796 194.34 24.6996 190.4 33.7996C187.39 40.7596 185.91 48.3996 186.02 55.9796C186.08 60.2096 186.5 64.5896 187.69 68.6696C187.84 69.1896 188.02 69.6996 188.2 70.2096C188.41 70.8296 189.11 71.7896 189.88 71.7896C190.65 71.7896 191.3 70.8296 191.56 70.2096C192.58 67.7796 192.39 65.0196 191.56 62.5696V62.5596Z" fill="#1D1D1B"/>
<path d="M205.71 57.2898C205.57 56.6098 206 59.0498 205.85 58.0298C205.78 57.5598 205.71 57.0898 205.65 56.6198C205.56 55.9198 205.51 55.2098 205.45 54.5098C205.39 53.7198 205.52 56.0998 205.49 55.1398C205.49 54.9198 205.47 54.6998 205.47 54.4798C205.46 54.0098 205.45 53.5398 205.45 53.0698C205.45 52.5698 205.48 52.0698 205.49 51.5698C205.51 50.7098 205.38 52.9798 205.46 52.1098C205.49 51.7998 205.51 51.4998 205.54 51.1898C205.59 50.6398 205.66 50.0898 205.74 49.5398C205.77 49.3198 205.96 48.2698 205.78 49.2198C205.6 50.1698 205.81 49.1198 205.85 48.8998C205.98 48.3298 206.12 47.7598 206.28 47.1898C206.36 46.8998 206.46 46.6198 206.54 46.3398C206.67 45.8798 206.36 46.8598 206.37 46.8198C206.45 46.6798 206.49 46.4898 206.55 46.3298C206.77 45.7598 207 45.1998 207.27 44.6498C207.4 44.3698 207.54 44.0998 207.69 43.8198C208.09 43.0498 207.45 44.1598 207.8 43.6198C208.53 42.4998 209.29 41.4498 210.2 40.4698C210.3 40.3698 210.4 40.2698 210.49 40.1698C210.45 40.2098 210.18 40.4598 210.43 40.2198C210.68 39.9798 210.93 39.7698 211.19 39.5498C211.77 39.0698 212.37 38.6298 213 38.2298C215.18 36.8298 217.66 35.7998 220.03 34.7498C224.57 32.7298 228.51 31.2098 233.41 30.6598C238.31 30.1098 242.9 30.8798 247.13 33.1198C253.13 36.2998 257.46 41.3498 261.26 46.9098C263.64 50.3998 265.45 53.5498 267.22 57.3598C268.08 59.2098 268.87 61.0998 269.58 63.0098C269.73 63.3998 269.87 63.7898 270.01 64.1798C270.1 64.4398 270.19 64.6998 270.28 64.9598C270.25 64.8798 270.08 64.3498 270.24 64.8398C270.55 65.8098 270.87 66.7798 271.15 67.7598C271.67 69.5398 272.14 71.3398 272.55 73.1498C272.74 73.9698 272.91 74.7898 273.07 75.6198C273.1 75.7698 273.2 76.0298 273.18 76.1798C273.27 75.4598 273.07 75.5598 273.15 76.0098C273.24 76.5098 273.32 76.9998 273.4 77.4998C273.67 79.1798 273.9 80.8798 274.08 82.5698C274.16 83.3298 274.23 84.0898 274.29 84.8398C274.32 85.2398 274.35 85.6398 274.38 86.0398C274.39 86.2098 274.43 86.8198 274.38 85.9998C274.33 85.0698 274.38 86.0798 274.39 86.2898C274.53 89.1698 274.46 92.0298 274.38 94.8998C274.38 95.0098 274.48 93.5698 274.42 94.1598C274.41 94.2998 274.4 94.4298 274.39 94.5698C274.37 94.8798 274.34 95.1898 274.32 95.4998C274.27 96.1298 274.2 96.7698 274.13 97.3998C274.07 97.9098 274 98.4198 273.93 98.9298C273.89 99.1898 273.85 99.4498 273.81 99.7098C273.79 99.8198 273.77 99.9298 273.76 100.03C273.63 100.85 273.83 99.6298 273.87 99.4698C273.47 101.07 273.16 102.69 272.69 104.28C272.63 104.46 272.58 104.65 272.52 104.83C272.48 104.96 272.23 105.72 272.42 105.15C272.59 104.64 272.26 105.57 272.21 105.72C271.95 106.4 271.67 107.07 271.36 107.73C271.24 107.99 271.1 108.24 270.98 108.5C271.3 108.03 270.6 109.26 270.98 108.5C270.75 108.85 270.54 109.2 270.3 109.54C270.12 109.79 269.91 110.02 269.71 110.27C269.65 110.35 269.56 110.42 269.5 110.5C269.26 110.82 270.2 109.99 269.77 110.24C269.63 110.32 269.53 110.45 269.38 110.53C268.03 111.27 267.75 113.76 267.68 115.02C267.57 116.92 267.85 118.75 268.81 120.4C272.23 126.24 275.66 132.07 279.08 137.91C284.56 147.26 290.04 156.6 295.53 165.95C296.78 168.09 298.04 170.23 299.29 172.37C299.66 173.01 300.48 173.27 301.12 172.91C301.88 172.48 302.36 171.19 302.54 170.43C303.13 167.96 302.98 165.25 301.69 163.04C298.27 157.2 294.84 151.37 291.42 145.53C285.94 136.18 280.46 126.84 274.97 117.49C273.72 115.35 272.46 113.21 271.21 111.07L270.64 120.94C271.46 120.49 272.15 119.61 272.7 118.86C274.53 116.36 275.64 113.37 276.57 110.44C278.53 104.29 279.2 97.7898 279.26 91.3598C279.43 75.3298 275.85 58.7098 268.04 44.6498C261.54 32.9498 251.5 19.7998 236.79 19.6198C231.55 19.5598 226.39 21.1298 221.58 23.0798C216.32 25.2098 210.8 27.4598 207.07 31.9098C203.34 36.3598 201.45 42.7198 200.93 48.5898C200.57 52.6698 200.6 56.8498 201.29 60.8898C201.39 61.4798 201.5 62.0798 201.62 62.6598C201.93 64.1398 203.41 66.4298 204.87 64.5998C206.33 62.7698 206.19 59.4298 205.72 57.2098L205.71 57.2898Z" fill="#1D1D1B"/>
<path d="M189.32 76.5193C198.36 71.8093 207.39 67.1093 216.43 62.3993C221.7 59.6593 226.96 56.9093 232.23 54.1693C233.32 53.5993 234.45 53.0793 235.51 52.4593C235.55 52.4393 235.6 52.4193 235.64 52.3993C235.66 52.3793 235.82 52.3493 235.81 52.3393C235.85 52.6193 235 52.5093 235.44 52.4593C235.53 52.4493 235.62 52.4093 235.71 52.3993C236.8 52.2093 237.84 52.1793 238.93 52.3993C238.96 52.3993 239.54 52.5793 239.17 52.4593C238.8 52.3393 239.4 52.5593 239.42 52.5693C239.74 52.7193 240.06 52.8693 240.37 53.0593C240.74 53.2893 241.08 53.5493 241.41 53.8393C241.77 54.1493 240.98 53.2893 241.49 53.9393C241.73 54.2393 241.98 54.5193 242.2 54.8293C242.32 54.9993 242.43 55.1693 242.54 55.3393C243.1 56.1693 242.29 54.6793 242.71 55.6593C242.96 56.2493 243.22 56.8193 243.44 57.4093C243.94 58.7193 243.1 56.3593 243.24 56.8393C242.97 55.8893 242.95 55.3693 242.94 54.3593C242.94 55.0793 243.09 52.6093 243.02 53.1993C242.93 53.9493 243.34 51.6993 243.2 52.2593C243.05 52.8793 242.84 52.5793 243.42 51.6693C243.34 51.7893 243.3 51.9593 243.24 52.0893C243.2 52.1793 243.14 52.2693 243.1 52.3593C242.92 52.8593 243.69 51.4593 243.35 51.9093C243.03 52.3193 242.76 52.7593 242.42 53.1593C242.23 53.3793 242.03 53.5893 241.83 53.8093C241.71 53.9393 241.22 54.3993 241.83 53.8093C241.7 53.9293 241.57 54.0493 241.44 54.1693C240.72 54.8193 239.96 55.4193 239.19 55.9893C237.11 57.5193 234.88 58.8393 232.61 60.0693C229.91 61.5393 227.14 62.8793 224.41 64.3093C210.82 71.4393 197.39 78.8493 183.94 86.2393C174.14 91.6293 164.35 97.0393 154.57 102.479C154.42 102.569 154.26 102.649 154.11 102.739C151.22 104.349 152.33 114.839 155.37 113.149C163.93 108.389 172.5 103.649 181.07 98.9293C195.17 91.1593 209.27 83.3893 223.5 75.8593C230.09 72.3793 237.41 69.4493 242.93 64.3593C244.99 62.4693 246.59 60.3893 247.28 57.6393C248.29 53.6293 247.16 49.7193 245.06 46.2793C242.61 42.2593 237.85 40.1593 233.54 42.3993C229.23 44.6393 224.94 46.8793 220.64 49.1193C209.98 54.6693 199.33 60.2193 188.67 65.7693C188.45 65.8793 188.24 65.9993 188.02 66.1093C185.11 67.6193 186.15 78.1593 189.28 76.5193H189.32Z" fill="#1D1D1B"/>
<path d="M236.42 67.5994C240.06 73.5394 243.7 79.4894 247.35 85.4294C253.16 94.9194 258.97 104.399 264.78 113.889C266.12 116.079 267.46 118.269 268.81 120.459C270.16 122.649 271.77 119.749 272.06 118.519C272.64 116.089 272.54 113.299 271.21 111.129C267.57 105.189 263.93 99.2394 260.28 93.2994C254.47 83.8094 248.66 74.3294 242.85 64.8394C241.51 62.6494 240.17 60.4594 238.82 58.2694C237.47 56.0794 235.86 58.9794 235.57 60.2094C234.99 62.6394 235.09 65.4294 236.42 67.5994Z" fill="#1D1D1B"/>
<path d="M184.13 179.14C186.44 184.09 188.74 189.03 191.05 193.98C194.73 201.86 198.4 209.75 202.08 217.63C202.93 219.44 203.77 221.26 204.62 223.07C204.91 223.69 205.47 224.65 206.3 224.65C207.13 224.65 207.72 223.69 207.98 223.07C208.92 220.84 209.02 217.66 207.98 215.43C205.67 210.48 203.37 205.54 201.06 200.59C197.38 192.71 193.71 184.82 190.03 176.94C189.18 175.13 188.34 173.31 187.49 171.5C187.2 170.88 186.64 169.92 185.81 169.92C184.98 169.92 184.39 170.88 184.13 171.5C183.19 173.73 183.09 176.91 184.13 179.14Z" fill="#1D1D1B"/>
<path d="M154.95 133.7C163.25 129.15 171.54 124.6 179.84 120.06C181.02 119.41 182.2 118.77 183.38 118.12C186.27 116.53 185.18 106.03 182.12 107.71C173.82 112.26 165.53 116.81 157.23 121.35C156.05 122 154.87 122.64 153.69 123.29C150.8 124.88 151.89 135.38 154.95 133.7Z" fill="#1D1D1B"/>
<path d="M192.46 111.97C199.21 108.17 205.96 104.36 212.72 100.56C223.44 94.52 234.15 88.48 244.87 82.45C247.33 81.06 249.8 79.68 252.26 78.29C255.14 76.67 254.02 66.17 251 67.88C244.25 71.68 237.5 75.49 230.74 79.29C220.02 85.33 209.31 91.37 198.59 97.4C196.13 98.79 193.66 100.17 191.2 101.56C188.32 103.18 189.44 113.68 192.46 111.97Z" fill="#1D1D1B"/>
<path d="M162.2 144.07C161.1 145.15 162.05 144.33 162.48 144.07C163.18 143.65 163.9 143.23 164.61 142.82C167.07 141.39 169.54 139.99 172.01 138.58C179.95 134.06 187.91 129.56 195.88 125.07C205.42 119.69 214.97 114.32 224.52 108.95C232.74 104.33 240.97 99.7095 249.2 95.0895C251.92 93.5695 254.63 92.0395 257.35 90.5195C258.62 89.8095 259.97 89.1595 261.19 88.3695C261.24 88.3295 261.3 88.3095 261.36 88.2695C264.24 86.6495 263.12 76.1595 260.1 77.8595C256.81 79.6995 253.52 81.5495 250.23 83.3895C242.32 87.8295 234.42 92.2595 226.51 96.6995C216.93 102.08 207.35 107.47 197.78 112.87C189.47 117.56 181.15 122.25 172.86 126.96C170.12 128.52 167.37 130.08 164.64 131.66C163.3 132.43 161.87 133.15 160.6 134.04C160.28 134.26 160.18 134.38 159.82 134.73C159.13 135.41 158.84 137.09 158.73 137.96C158.57 139.26 158.6 140.85 158.97 142.12C159.46 143.79 160.53 145.72 162.22 144.06L162.2 144.07Z" fill="#1D1D1B"/>
</g>
<defs>
<clipPath id="clip0_3416_12129">
<rect width="305.25" height="229.77" fill="white"/>
</clipPath>
</defs>
</svg>
