<svg width="272" height="238" viewBox="0 0 272 238" fill="none" xmlns="http://www.w3.org/2000/svg">
<g clip-path="url(#clip0_3416_12065)">
<path d="M249.04 48.6C248.95 48.78 248.22 49.59 248.45 49.48C248.63 49.39 248.75 49.4 248.24 49.5C248.54 49.44 248.84 49.41 249.15 49.41C250.01 49.41 250.87 49.63 251.69 49.85C251.98 49.93 251.91 49.91 252.42 50.08C252.78 50.2 253.14 50.33 253.49 50.47C254.2 50.74 254.9 51.03 255.59 51.34C259.76 53.21 263.39 56.21 265.63 60.22C265.55 60.07 265.35 59.67 265.67 60.33C265.8 60.61 265.94 60.88 266.06 61.16C266.18 61.44 266.29 61.74 266.41 62.02C266.07 61.25 266.34 61.78 266.39 61.99L266.49 62.35C266.62 62.9 266.61 62.83 266.49 62.14C266.52 62.1 266.6 62.86 266.59 62.87L266.55 62.16C266.55 62.76 266.56 62.64 266.6 61.81L266.56 62.17C266.7 61.47 266.7 61.39 266.57 61.94L266.7 61.53C266.52 61.89 266.49 61.97 266.62 61.77C266.86 61.4 266.33 62.2 266.32 62.22C266.21 62.37 266.09 62.51 265.96 62.64C266.36 62.18 265.73 62.83 265.67 62.88C264.87 63.51 263.92 64.03 262.95 64.34C261.22 64.89 258.94 64.94 257.56 63.76C257.56 63.76 257.02 63.08 256.85 62.83C256.68 62.58 256.5 62.31 256.34 62.04C256.62 62.53 256.32 61.98 256.28 61.9C256.02 61.34 255.75 60.79 255.53 60.21C255.47 60.06 255.1 58.9 255.41 59.91C255.3 59.56 255.19 59.2 255.09 58.85C254.32 56.1 253.87 53.27 253.05 50.53C252.59 48.98 252.07 47.43 251.36 45.98C250.94 45.13 250.47 44.3 249.96 43.5C249.82 43.29 249.68 43.08 249.53 42.87C249.39 42.68 249.25 42.49 249.1 42.3C248.34 41.16 248.52 42.09 249.65 45.08L249.33 47.81L249.41 47.53C250.02 45.36 250.04 42 248.56 40.14C247.08 38.28 245.7 40.68 245.31 42.08C244.47 45.06 244.75 48.75 246.51 51.36C246.92 51.97 247.38 52.53 247.76 53.16C247.4 52.56 247.99 53.61 248 53.63C248.22 54.07 248.42 54.53 248.6 54.99C248.66 55.13 249.06 56.3 248.73 55.29C248.84 55.64 248.95 56 249.06 56.35C249.27 57.07 249.45 57.79 249.62 58.51C249.99 60.08 250.31 61.67 250.71 63.24C251.56 66.58 252.75 70.21 254.99 72.9C256.82 75.11 259.58 75.9 262.36 75.31C265.14 74.72 267.77 73.23 269.27 70.7C271.72 66.56 271.83 61.1 270.52 56.56C268.63 50.05 263.88 44.46 257.84 41.41C255.97 40.47 253.98 39.73 251.96 39.15C250.95 38.86 249.84 38.56 248.78 38.65C247.23 38.78 246.38 39.64 245.7 40.99C244.64 43.1 244.65 46.51 245.7 48.63C246.03 49.29 246.51 50.21 247.38 50.21C248.25 50.21 248.74 49.26 249.06 48.63L249.04 48.6Z" fill="black"/>
<path d="M224.13 30.5998C227.63 29.1998 231.61 30.5698 234.98 31.7098C238.61 32.9298 242.37 34.2998 246.24 33.4598C249.74 32.6998 252.93 30.7098 254.96 27.7198C257.92 23.3598 258.5 17.7898 257.43 12.7198C256.6 8.77982 254.34 5.04982 250.99 2.76982C248.17 0.849822 244.59 0.0198221 241.22 -0.000177861C233.78 -0.0401779 226.88 3.78982 221.8 9.00982C218.71 12.1898 216.34 16.2598 215.43 20.6198C214.93 22.9898 214.82 25.4298 215.39 27.7998C215.74 29.2298 216.53 30.9298 217.9 31.6398C219.89 32.6598 222.29 31.3898 224.13 30.5998C224.89 30.2698 225.37 28.7798 225.55 28.1198C225.89 26.8398 225.98 25.2698 225.79 23.9598C225.59 22.5798 224.92 19.3098 222.87 20.1898C221.49 20.7798 220.44 21.1798 218.94 21.1798C219 21.1798 219.19 21.1098 218.91 21.0998L218.79 21.0198L219.68 25.3698C219.58 26.1398 219.6 25.7198 219.73 25.2398C219.84 24.8298 220.05 24.3298 219.76 25.0398C219.91 24.6698 220.05 24.2898 220.21 23.9298C220.35 23.6098 220.5 23.2998 220.66 22.9898C220.7 22.9098 221.05 22.2698 220.84 22.6398C220.64 22.9798 220.94 22.4798 220.96 22.4598C221.38 21.8098 221.81 21.1698 222.29 20.5498C223.2 19.3698 224.21 18.2698 225.24 17.3698C229.65 13.4998 235.12 10.8298 241.06 10.8098C243.76 10.8098 246.41 11.2698 248.77 12.5998C249.38 12.9398 249.96 13.3298 250.5 13.7598C250.65 13.8798 251.09 14.2698 251.06 14.2398C251.08 14.2598 251.51 14.7298 251.67 14.9298C251.88 15.1898 252.09 15.4498 252.28 15.7298C252.4 15.8998 252.81 16.5898 252.52 16.0598C252.69 16.3798 252.85 16.7098 253 17.0398C253.1 17.2698 253.19 17.4998 253.27 17.7298C253.14 17.3698 253.13 17.2098 253.21 17.6698C253.38 18.6198 253.14 16.7998 253.21 17.7398C253.21 17.7798 253.12 16.5398 253.18 17.1398C253.19 17.2498 253.13 17.5498 253.18 17.6398C253.24 17.7398 253.11 16.3998 253.21 17.0198C253.21 17.0698 253.12 17.4898 253.14 17.4998C253.18 17.5198 253.28 16.4498 253.22 16.9998C253.21 17.1098 252.99 17.8298 253.18 17.2198C253.37 16.6098 253.02 17.5598 252.95 17.7098C252.89 17.8598 252.81 17.9998 252.74 18.1398C253.05 17.5098 252.84 17.9898 252.74 18.1298C252.34 18.7098 251.93 19.2598 251.45 19.7798C251.22 20.0298 251.39 19.8598 251.45 19.8098C251.33 19.9198 251.21 20.0298 251.08 20.1398C250.83 20.3498 250.57 20.5598 250.31 20.7498C249.68 21.2098 249.02 21.5998 248.32 21.9298C247.12 22.4998 245.87 22.8098 244.55 22.9098C240.94 23.1798 237.55 21.6798 234.18 20.6198C230.37 19.4198 226.72 18.6598 222.87 20.1998C222.11 20.4998 221.62 22.0498 221.45 22.6798C221.11 23.9598 221.02 25.5298 221.21 26.8398C221.42 28.2598 222.07 31.4398 224.13 30.6098V30.5998Z" fill="black"/>
<path d="M204.94 63.0901C196.07 70.5001 188.29 79.7201 184.14 90.6301C181.83 96.7101 180.65 103.16 179.04 109.44C177.68 114.75 175.84 119.59 172.8 124.39C169.57 129.49 165.67 134.12 161.56 138.53C157.21 143.2 152.8 147.81 148.33 152.38C139.46 161.45 130.41 170.34 121.29 179.16C117.35 182.97 113.4 186.76 109.66 190.77C106.12 194.56 102.68 198.44 99.16 202.25C92.26 209.73 85.05 217.29 76.33 222.67C74.18 224 71.89 225.34 69.42 225.95C66.65 226.64 63.77 226.64 60.99 226.01C55.64 224.79 51.27 221.18 47.49 217.39C42.04 211.92 36.03 207.03 30.28 201.89C23.85 196.14 17.72 190.38 12.34 183.41C11.07 181.77 9.87002 180.07 8.77002 178.31C8.51002 177.89 8.25002 177.46 8.00002 177.03C8.41002 177.73 7.90002 176.85 7.76002 176.59C7.28002 175.7 6.84002 174.8 6.43002 173.88C6.09002 173.11 5.88002 172.15 5.46002 171.43C5.96002 172.28 5.65002 172.02 5.53002 171.62C5.47002 171.4 5.40002 171.19 5.34002 170.97C5.22002 170.54 5.11002 170.11 5.01002 169.68C4.95002 169.43 4.92002 169.16 4.85002 168.91C4.86002 168.95 5.06002 170.22 4.95002 169.43C4.89002 169 4.83002 168.57 4.78002 168.14C4.65002 166.8 4.78002 169.32 4.78002 168.16C4.78002 167.69 4.80002 167.22 4.78002 166.75C4.84002 168.61 4.75002 167.2 4.82002 166.66C4.84002 166.49 4.87002 166.32 4.89002 166.15C5.00002 165.22 4.64002 167.13 4.82002 166.48C4.94002 166.06 5.01002 165.63 5.13002 165.21C5.17002 165.06 5.27002 164.22 5.21002 164.91C5.15002 165.6 5.35002 164.54 5.43002 164.34C5.77002 163.48 6.16002 162.65 6.59002 161.84C6.59002 161.84 7.09002 160.95 6.81002 161.43C6.53002 161.91 7.06002 161.02 7.06002 161.03C7.34002 160.57 7.64002 160.11 7.94002 159.66C10.46 155.93 13.77 152.42 16.91 149.47C23.69 143.11 31.05 137.46 37.69 130.95C46.89 121.94 56.02 112.85 65.2 103.82C73.67 95.4801 82 86.8701 91.16 79.2601C99.05 72.7001 107.67 66.9501 117.11 62.8601C121.77 60.8401 126.6 59.2301 131.56 58.0901C134.28 57.4601 137.03 57.0101 139.72 56.2101C142.41 55.4101 145.14 54.4201 147.72 53.2001C152.73 50.8301 157.29 47.6601 161.49 44.0501C165.69 40.4401 169.79 36.4301 173.12 31.9801C174.36 30.3301 175.5 28.6101 176.75 26.9701C177.33 26.2001 177.94 25.4401 178.59 24.7301C178.7 24.6101 179.53 23.7601 179.16 24.1101C179.57 23.7201 180.01 23.3501 180.47 23.0101C183.33 20.9001 186.56 20.9401 189.58 22.5701C191.06 23.3701 192.43 24.3901 193.72 25.4601C195.39 26.8501 196.19 27.6401 197.63 29.1201C200.7 32.2801 203.53 35.6601 206.32 39.0801C208.9 42.2401 211.41 45.4501 214.02 48.5801C215.07 49.8401 216.13 51.0901 217.26 52.2901C217.94 53.0101 218.83 53.9001 219.3 54.5301L219.27 54.4701C219.59 55.2401 219.54 54.9401 219.12 53.5801C219.05 52.8401 219.14 52.0801 219.21 51.3501C219.3 50.5101 218.99 51.6101 219.13 51.3801C219.23 51.1801 219.17 51.2701 218.94 51.6201C218.79 51.8301 218.63 52.0301 218.46 52.2301C216.81 54.1701 214.37 55.6501 212.34 57.2201C209.85 59.1501 207.37 61.0901 204.95 63.1001C203.18 64.5701 202.98 67.6201 203.29 69.7401C203.41 70.5901 204.46 74.9701 206.21 73.5101C208.76 71.4001 211.37 69.3601 213.98 67.3401C216.4 65.4701 219.19 63.6801 221.1 61.2501C223.82 57.7801 224.43 52.8401 223.28 48.6601C222.8 46.9001 221.91 45.2901 220.65 43.9901C220.03 43.3501 219.41 42.7201 218.81 42.0601C213.18 35.8101 208.3 28.9201 202.68 22.6601C199.86 19.5201 196.89 16.4001 193.49 13.8701C190.63 11.7401 186.93 9.91006 183.27 10.7501C179.09 11.7201 176.22 15.0701 173.79 18.3801C172.55 20.0701 171.39 21.8201 170.09 23.4701C168.3 25.7301 166.31 27.8601 164.28 29.8901C156.27 37.8901 146.42 44.2601 135.21 46.5101C124.59 48.6401 114.5 52.3601 105.18 57.9101C95.84 63.4701 87.51 70.5101 79.69 78.0201C70.12 87.2101 60.69 96.5501 51.25 105.89C46.47 110.62 41.69 115.35 36.89 120.06C35.78 121.15 34.67 122.24 33.55 123.33C33.31 123.57 33.07 123.8 32.83 124.03C33.22 123.65 32.87 123.99 32.8 124.06C32.38 124.45 31.95 124.85 31.52 125.24C29.94 126.67 28.33 128.04 26.71 129.42C19.33 135.67 11.41 141.89 5.84002 149.91C2.99002 154.01 0.970018 158.55 0.290018 163.52C-0.339982 168.1 0.140018 172.92 1.54002 177.31C4.24002 185.8 9.73002 193.02 15.73 199.47C21.73 205.92 28.82 212.14 35.66 218.13C38.47 220.59 41.26 223.06 43.99 225.61C44.59 226.18 43.54 225.17 44.12 225.74C44.23 225.85 44.35 225.96 44.46 226.07C44.73 226.34 45.01 226.61 45.28 226.88C46.45 228.06 47.6 229.25 48.85 230.33C50.96 232.16 53.27 233.8 55.8 235.01C61.51 237.72 67.69 238.01 73.48 235.38C78.09 233.28 82.27 230.1 86.12 226.84C94.53 219.72 101.78 211.36 109.2 203.25C117.14 194.57 125.76 186.58 134.15 178.34C143.49 169.17 152.71 159.88 161.68 150.34C166.09 145.65 170.37 140.89 174.02 135.57C177.67 130.25 180.36 124.57 182.21 118.48C184.06 112.39 185.14 105.91 187.02 99.7301C187.44 98.3501 186.87 100.13 187.15 99.3301C187.27 98.9801 187.4 98.6201 187.54 98.2701C187.81 97.5701 188.09 96.8701 188.39 96.1901C188.99 94.8101 189.65 93.4601 190.37 92.1401C191.52 90.0301 193.28 87.4201 194.91 85.2801C198.22 80.9201 202.05 77.0301 206.24 73.5201C208.01 72.0401 208.21 69.0101 207.9 66.8801C207.78 66.0301 206.73 61.6401 204.98 63.1101L204.94 63.0901Z" fill="black"/>
</g>
<defs>
<clipPath id="clip0_3416_12065">
<rect width="271.34" height="237.19" fill="white"/>
</clipPath>
</defs>
</svg>
