<svg width="219" height="283" viewBox="0 0 219 283" fill="none" xmlns="http://www.w3.org/2000/svg">
<g clip-path="url(#clip0_3416_10415)">
<path d="M120.94 112.32C123.72 108.36 126.54 104.43 129.36 100.51C136.06 91.1902 142.83 81.9302 149.69 72.7402C157.72 61.9802 165.88 51.3002 174.31 40.8502C181.13 32.4102 188.07 23.9802 195.83 16.3702C196.15 16.0602 195.24 16.9202 195.85 16.3502C196.01 16.2002 196.17 16.0502 196.32 15.9102C196.69 15.5702 197.06 15.2302 197.44 14.8902C198.06 14.3402 198.69 13.8002 199.33 13.2902C200.33 12.5002 201.37 11.7202 202.51 11.1502C202.71 11.0502 202.91 10.9602 203.11 10.8802C203.21 10.8402 203.32 10.8102 203.42 10.7602C203.76 10.5902 202.69 10.8602 203.2 10.8302C203.82 10.8002 204.22 10.7602 204.89 10.8602C206.97 11.1602 208.85 11.5502 210.7 12.4802C211.37 12.8202 211.96 13.2202 212.56 13.6702C212.71 13.7802 213.16 14.3102 212.65 13.7302C212.75 13.8402 212.85 13.9402 212.94 14.0502C213.05 14.1902 213.16 14.3202 213.27 14.4702C213.33 14.5502 213.39 14.6402 213.45 14.7302C213.66 15.0602 213.6 14.9602 213.28 14.4202C213.39 14.4502 213.84 15.7802 213.49 14.8302C213.21 14.0502 213.44 14.7202 213.48 14.8902C213.14 13.3602 213.31 13.8702 213.36 14.2302C213.54 15.5202 213.39 12.8202 213.35 14.1302C213.41 12.3402 213.44 13.1002 213.38 13.5202C213.31 13.9802 213 14.7602 213.45 13.3402C213.33 13.7202 213.26 14.1302 213.16 14.5102C212.96 15.3002 213.32 14.5602 213.23 14.3602C213.25 14.4102 213.06 14.8302 213.03 14.9202C212.71 15.7602 212.31 16.5502 211.94 17.3702C211.6 18.1302 212.43 16.5702 212.17 16.9802C212.04 17.1802 211.92 17.3902 211.79 17.5902C211.49 18.0602 211.18 18.5202 210.86 18.9802C208.8 21.9802 206.58 24.8702 204.36 27.7502C197.11 37.1802 189.63 46.4402 182.13 55.6802C173.51 66.3002 164.82 76.8602 156.07 87.3602C149.56 95.1802 143.04 103 136.35 110.67C135.44 111.71 134.53 112.75 133.6 113.77C133.29 114.11 132.98 114.45 132.66 114.78C132.54 114.9 132.42 115.02 132.31 115.14C131.86 115.62 133.02 114.63 132.59 114.87C131.94 115.24 133.36 114.93 132.74 114.85C133.59 114.96 133.15 115.03 132.88 114.82C132.71 114.69 132.52 114.59 132.35 114.47C131.89 114.14 131.45 113.77 131.02 113.4C130.48 112.93 129.95 112.44 129.43 111.95C129.95 112.44 129.21 111.74 129.05 111.58C128.72 111.26 128.4 110.94 128.08 110.61C126.91 109.43 125.75 108.22 124.61 107.01C123.36 105.68 122.13 104.34 120.91 102.99C119.36 101.26 118.03 103.37 117.66 104.93C117.16 106.99 116.94 110.56 118.51 112.32C122.11 116.35 125.79 120.44 129.9 123.95C130.94 124.84 132.4 126.21 133.8 125.33C134.52 124.87 135.22 123.94 135.8 123.3C141.58 116.98 147.03 110.33 152.53 103.77C161.24 93.3802 169.88 82.9302 178.46 72.4402C187.04 61.9502 194.85 52.3102 202.85 42.0902C205.66 38.5102 208.45 34.9102 211.15 31.2402C212.91 28.8402 214.7 26.4302 215.91 23.6902C218.12 18.6802 218.99 12.7502 216.98 7.52021C215.46 3.57021 211.91 1.66021 208.02 0.66021C205.88 0.11021 203.98 -0.39979 201.91 0.43021C200.82 0.86021 199.83 1.54021 198.9 2.23021C195.65 4.64021 192.77 7.59021 189.99 10.5102C186.21 14.4702 182.61 18.6102 179.09 22.8002C170.47 33.0302 162.26 43.6102 154.17 54.2602C146.51 64.3602 138.98 74.5602 131.54 84.8202C127.37 90.5802 123.22 96.3602 119.12 102.17C118.92 102.45 118.73 102.72 118.54 103C117.15 104.98 117.03 108.13 117.69 110.39C118.07 111.69 119.49 114.39 120.94 112.33V112.32Z" fill="black"/>
<path d="M118.47 115.21C117.74 114.45 117.14 114.92 116.43 115.36C115.53 115.9 114.66 116.47 113.78 117.04C110.45 119.2 107.17 121.44 103.92 123.7C93.07 131.24 82.45 139.14 72.11 147.36C59.36 157.5 46.99 168.16 35.48 179.69C25.09 190.1 15.1 201.32 7.90004 214.22C5.01004 219.4 2.60004 224.97 1.47004 230.82C0.200038 237.34 -0.339962 244.22 0.260038 250.84C0.990038 258.92 3.74004 267.16 9.97004 272.66C13.74 275.99 18.67 277.96 23.64 278.55C29.52 279.25 35.22 277.8 40.44 275.14C48.54 271.01 56.05 265.72 62.62 259.44C69.19 253.16 74.46 246.02 78.71 238.07C85.31 225.73 90.74 212.72 96.14 199.83C102.39 184.92 108.37 169.89 114.23 154.82C117.79 145.67 121.31 136.5 124.76 127.3C124.93 126.86 125.09 126.42 125.26 125.98C125.87 124.34 126.1 121.6 124.6 120.34C122.45 118.52 120.3 116.7 118.14 114.88C117.05 113.96 116.38 116.69 116.31 117.24C116.14 118.58 116.23 120.45 117.35 121.39C119.5 123.21 121.65 125.03 123.81 126.85L123.15 121.21C120.77 127.58 118.34 133.94 115.9 140.29C110.53 154.25 105.06 168.16 99.42 182.01C93.78 195.86 87.78 210.31 81.21 224.11C79.97 226.71 78.7 229.3 77.37 231.86C76.79 232.98 76.19 234.09 75.58 235.19C75.5 235.34 75.02 236.19 75.37 235.57C75.24 235.79 75.11 236.02 74.98 236.24C74.71 236.7 74.44 237.16 74.16 237.61C68.48 246.87 60.82 254.76 52.02 261.1C48.62 263.55 45.05 265.77 41.36 267.75C36.84 270.17 32.25 271.94 27.04 272C21.83 272.06 16.39 270.48 12.11 267.27C9.04004 264.97 6.81004 261.88 5.37004 258.52C5.18004 258.08 5.00004 257.63 4.83004 257.17C4.77004 257.01 4.71004 256.84 4.65004 256.68C4.84004 257.22 4.56004 256.41 4.55004 256.37C4.26004 255.47 4.02004 254.55 3.81004 253.63C3.72004 253.22 3.63004 252.8 3.55004 252.39C3.70004 253.16 3.47004 251.88 3.44004 251.72C3.30004 250.84 3.20004 249.95 3.12004 249.07C3.08004 248.68 3.06004 248.29 3.03004 247.9C3.11004 248.92 3.03004 247.69 3.01004 247.43C2.98004 246.64 2.97004 245.85 2.98004 245.06C2.98004 244.34 3.01004 243.62 3.04004 242.9C3.08004 242 2.98004 243.62 3.05004 242.73C3.08004 242.4 3.10004 242.07 3.13004 241.74C3.27004 240.22 3.49004 238.71 3.66004 237.2C3.75004 236.42 3.82004 235.63 3.94004 234.85C3.98004 234.56 4.04004 234.27 4.08004 233.97C4.18004 233.32 3.92004 234.72 4.06004 234.07C4.10004 233.89 4.13004 233.72 4.17004 233.54C4.45004 232.2 4.81004 230.89 5.22004 229.59C5.28004 229.39 5.62004 228.43 5.35004 229.18C5.46004 228.87 5.57004 228.57 5.68004 228.26C5.93004 227.58 6.20004 226.9 6.48004 226.22C8.95004 220.27 11.89 215.5 15.66 210.19C19.89 204.24 24.61 198.65 29.55 193.28C40.32 181.58 52.19 170.91 64.43 160.77C75.26 151.8 86.43 143.25 97.86 135.06C104.15 130.56 110.48 126 117.09 121.97C117.32 121.83 117.57 121.7 117.8 121.55C118.35 121.18 117.61 121.72 116.98 121.06C117.99 122.11 118.75 120.85 119.01 119.85C119.33 118.63 119.47 116.26 118.48 115.23L118.47 115.21Z" fill="black"/>
<path d="M112.5 117.87C112.95 118.69 113.76 119.35 114.42 120.01L115.85 121.44C116.85 122.44 117.82 123.47 118.79 124.5C120.7 126.54 122.66 128.54 124.53 130.62L123.73 129.73L125.02 131.4C125.63 132.19 126.22 133.17 127.04 133.72C127.98 134.35 129.12 134.85 130.25 134.28C131.24 133.78 131.88 132.94 132.35 131.96C133.54 129.46 133.46 125.97 131.82 123.67C130.67 122.06 128.83 121.14 127.4 119.8L123.65 116.28C122.43 115.14 121.19 114.02 120.01 112.85C119.43 112.27 118.85 111.69 118.27 111.11C117.46 110.3 116.72 109.42 115.65 108.95C113.89 108.18 112.28 109.99 111.79 111.48C111.51 112.34 111.39 113.25 111.38 114.16C111.38 115.54 111.85 116.7 112.49 117.87H112.5Z" fill="black"/>
<path d="M112.09 108.11C112.95 111.1 114.97 113.24 117.15 115.36C118.79 116.95 120.44 118.52 122.14 120.05C125.48 123.04 128.9 125.94 132.4 128.74C133.55 129.66 134.87 129.61 135.98 128.65C138.52 126.46 138.03 121.49 135.75 119.33C134.83 118.45 133.73 117.7 132.75 116.89C130.81 115.29 128.9 113.65 127.01 111.99C125.12 110.33 123.35 108.73 121.54 107.08C120.6 106.22 119.71 105.27 118.71 104.48C117.61 103.61 116.17 102.47 114.73 102.49C112.29 102.53 111.58 106.35 112.09 108.11Z" fill="black"/>
<path d="M115.31 106.19C115.74 107.08 116.21 107.96 116.71 108.83C117.08 109.48 117.47 110.09 117.94 110.66C118.57 111.43 119.24 112.18 119.92 112.91C120.16 113.16 120.39 113.44 120.67 113.65C120.73 113.7 120.8 113.74 120.87 113.79C121.14 113.97 121.41 114.14 121.7 114.3L122.57 114.46C122.74 114.42 122.9 114.39 123.07 114.35C123.24 114.35 123.4 114.3 123.55 114.22C123.61 114.19 123.67 114.16 123.72 114.13C124.54 113.7 125.15 112.89 125.43 112.02C125.79 110.91 125.89 109.7 125.64 108.55C125.53 108.04 125.41 107.53 125.22 107.05C124.94 106.34 124.53 105.73 123.98 105.2C123.92 105.14 123.86 105.09 123.8 105.03C123.56 104.8 123.27 104.63 123 104.43C122.48 104.06 121.97 103.66 121.48 103.25C120.54 102.45 119.53 101.73 118.63 100.89L118.02 100.52C117.68 100.37 117.35 100.35 117.02 100.48C116.78 100.49 116.57 100.59 116.39 100.76C116.05 100.95 115.79 101.22 115.6 101.57C115.29 102.09 115.11 102.68 115 103.27C114.91 103.78 114.91 104.29 115 104.8C115.02 105.29 115.14 105.76 115.33 106.21L115.31 106.19Z" fill="black"/>
<path d="M114.53 115.18C116.02 117 117.5 118.84 119.09 120.58C120.58 122.2 122.17 123.73 123.73 125.27C126.8 128.3 129.9 131.39 133.21 134.15C135.13 135.75 137.35 134.12 138.01 132.09C138.77 129.77 138.59 126.43 136.56 124.74C133.37 122.08 130.05 119.57 126.89 116.87C125.35 115.56 123.84 114.23 122.33 112.89C120.82 111.55 119.08 110.29 117.48 108.97C116.21 107.93 114.82 108.76 114.2 110.06C113.5 111.52 113.44 113.85 114.53 115.17V115.18Z" fill="black"/>
<path d="M116.69 115.89C121.13 121.32 126.62 126.02 132.28 130.14C133.1 130.74 134.03 131.04 135.02 130.62C136.01 130.2 136.76 129.05 137.08 128.09C137.51 126.77 137.66 125.28 137.34 123.92C137.07 122.79 136.61 121.45 135.63 120.73C132.93 118.77 130.32 116.67 127.83 114.44C125.34 112.21 123.06 109.81 120.69 107.48C120.05 106.85 118.82 106.6 118 107.01C117.18 107.42 116.64 108.13 116.24 108.95C115.77 109.93 115.51 111.08 115.57 112.17C115.64 113.42 115.86 114.89 116.68 115.88L116.69 115.89Z" fill="black"/>
<path d="M116.95 108.95C117.87 110.08 118.84 111.15 119.85 112.19L122.6 104.45C121.67 103.81 120.66 103.27 119.69 102.7C118.9 102.23 118.12 101.76 117.33 101.29C116.62 100.87 115.43 101.32 114.91 101.83C114.27 102.48 113.9 103.28 113.68 104.16C113.18 106.16 113.51 108.68 115.12 110.12C115.87 110.79 116.62 111.47 117.36 112.14L119.67 102.94C119.03 102.64 118.39 102.33 117.76 102.03C116.94 101.64 115.78 102 115.17 102.61C114.48 103.3 114.08 104.16 113.85 105.1C113.29 107.32 113.72 109.84 115.39 111.49C116.73 112.81 118.22 114.01 119.7 115.17C120.42 115.73 121.15 116.29 121.89 116.82C122.87 117.52 123.98 118.11 125.03 118.71C125.82 119.16 127.08 118.69 127.65 118.12C128.35 117.42 128.75 116.54 128.99 115.59C129.26 114.51 129.34 113.29 129.08 112.19C128.82 111.09 128.38 109.8 127.43 109.11C126.69 108.57 125.97 107.99 125.21 107.47C124.45 106.95 123.67 106.43 122.91 105.88C121.42 104.81 120.02 103.64 118.58 102.51L116.21 111.97C116.86 112.18 117.51 112.4 118.17 112.61C120.2 113.28 121.54 111.34 121.97 109.62C122.23 108.58 122.31 107.41 122.06 106.36C121.81 105.31 121.39 104.05 120.48 103.41C119.69 102.85 118.9 102.29 118.11 101.74L115.9 110.58C116.68 110.92 117.45 111.26 118.23 111.6C119.01 111.94 119.77 112.33 120.56 112.61C122.52 113.31 123.86 111.08 124.07 109.42C124.21 108.29 124.17 107.05 123.69 106.01L123.21 105.12C122.88 104.62 122.44 104.25 121.9 104.01C121 103.52 120.12 103.07 119.17 102.67C117.93 102.16 116.81 103.38 116.46 104.44C116.26 105.05 116.18 105.68 116.17 106.32C116.17 107.11 116.43 108.29 116.95 108.93V108.95Z" fill="black"/>
<path d="M112.56 113.27C114.18 114.91 115.79 116.55 117.41 118.19C118.19 118.98 118.96 119.8 119.78 120.55L121.06 121.73C121.41 122.05 121.79 122.4 122.23 122.57C122.65 122.73 123.16 122.73 123.61 122.79C124.15 122.76 124.61 122.55 125 122.18C125.44 121.74 125.76 121.23 125.96 120.64C126.44 119.32 126.43 117.66 125.86 116.36C125.68 115.95 125.5 115.55 125.28 115.15C124.96 114.56 124.53 114.08 124.03 113.64L122.74 112.5C121.92 111.77 121.04 111.11 120.18 110.43C118.46 109.07 116.75 107.71 115.03 106.35C114.45 105.89 113.71 105.7 113.01 106C112.31 106.3 111.73 107.16 111.5 107.86C110.89 109.72 111.17 111.85 112.57 113.27H112.56Z" fill="black"/>
<path d="M110.51 115.54C112.1 117.37 113.69 119.2 115.28 121.03C116.21 122.1 117.11 123.19 118.1 124.19L119.35 125.44C119.92 126.01 120.52 126.4 121.25 126.73C121.8 126.98 122.45 126.81 122.93 126.49C123.5 126.11 123.91 125.5 124.13 124.85C124.66 123.23 124.45 121.55 123.61 120.09C123.45 119.81 123.31 119.52 123.11 119.27C122.8 118.86 122.42 118.5 122.05 118.14L120.79 116.92C119.97 116.13 119.08 115.42 118.2 114.69C116.46 113.24 114.72 111.8 112.98 110.35C111.92 109.47 110.75 110.18 110.24 111.26C109.95 111.87 109.79 112.57 109.83 113.25C109.87 114 110 114.95 110.51 115.54Z" fill="black"/>
<path d="M113.96 123.11C115.6 125.34 117.32 127.53 119.18 129.58C120.01 130.5 120.87 131.4 121.74 132.28C122.18 132.72 122.6 133.21 123.12 133.56C123.44 133.77 123.76 133.98 124.08 134.18C124.85 134.65 125.59 134.56 126.37 134.23C127.1 133.93 127.69 133.03 127.93 132.31C128.27 131.28 128.31 130.22 128.12 129.15C127.96 128.26 127.73 127.36 127.2 126.61C127.02 126.35 126.78 126.11 126.57 125.87C126 125.2 125.39 124.65 124.74 124.08C123.84 123.29 122.96 122.48 122.08 121.66C120.35 120.05 118.61 118.47 116.97 116.78C116.5 116.3 115.55 116.13 114.95 116.43C114.35 116.73 113.92 117.27 113.63 117.89C112.89 119.44 112.91 121.68 113.96 123.1V123.11Z" fill="black"/>
<path d="M119.58 110.77C112.23 119.74 105.35 129.08 98.4201 138.66C91.0601 148.81 83.6001 158.88 76.1101 168.93C60.9501 189.25 45.5001 209.36 29.7101 229.19C27.5401 231.91 25.3701 234.62 23.1901 237.33C21.0101 240.04 19.6101 241.77 17.4001 244.48C15.1901 247.19 13.2001 249.62 11.0901 252.18C8.98009 254.74 6.44009 257.41 4.74009 260.43C3.73009 262.22 3.68009 264.53 4.65009 266.34C5.48009 267.88 6.99009 268.57 8.49009 267.41C10.6801 265.7 12.3101 263.39 14.0701 261.25C15.9201 259 17.7601 256.75 19.6001 254.5C23.5301 249.68 27.4301 244.85 31.3101 240C39.1601 230.18 46.9201 220.29 54.6101 210.35C70.1001 190.29 85.3001 170 100.11 149.44C107.94 138.57 115.62 127.6 122.39 116.02C123.15 114.72 123.2 112.9 122.45 111.59C121.92 110.66 120.52 109.63 119.57 110.79L119.58 110.77Z" fill="black"/>
<path d="M4.2901 270.05C11.1601 271.8 17.1601 267.51 22.3601 263.6C27.5601 259.69 32.0401 255.79 36.6701 251.67C45.9801 243.4 54.6401 234.32 62.7701 224.89C79.2101 205.82 93.4701 184.87 104.94 162.44C108.21 156.04 111.28 149.54 114.13 142.94C116.98 136.34 119.84 129.88 121.76 123.1C122.39 120.87 122.36 117.82 120.4 116.2C118.44 114.58 116.67 116.31 115.9 118.13C113.52 123.76 111.6 129.58 109.26 135.23C108.06 138.12 106.81 141 105.53 143.85C104.91 145.22 104.29 146.58 103.65 147.93C103.53 148.18 103.42 148.42 103.3 148.67C103.26 148.75 102.68 149.97 103.1 149.1C102.75 149.84 102.39 150.57 102.03 151.31C96.6501 162.34 90.6501 173.06 84.0501 183.4C80.7501 188.57 77.3001 193.64 73.7101 198.62C71.9201 201.11 70.0901 203.57 68.2201 206C66.5001 208.25 64.3601 210.96 62.8701 212.78C55.1201 222.29 46.8101 231.35 38.0101 239.89C33.1001 244.65 28.1401 249.34 22.9801 253.84C20.3401 256.15 17.7401 258.57 14.9001 260.63C12.0601 262.69 8.7501 264.37 5.3101 263.49C3.7701 263.1 2.8601 264.56 2.6401 265.91C2.4501 267.12 2.7601 269.63 4.2901 270.02V270.05Z" fill="black"/>
<path d="M0.719927 273.35C2.32993 278.96 7.28993 283.29 13.3799 282.65C20.0199 281.96 25.4199 277.08 30.2499 272.91C40.7599 263.83 51.2099 254.61 60.7399 244.49C70.2699 234.37 78.8499 223.03 86.1799 211.02C93.5099 199.01 100.02 185.79 106.01 172.7C109.39 165.31 112.79 157.89 115.6 150.25C117.11 146.13 118.4 141.95 119.45 137.69C120.5 133.43 121.46 129.07 121.38 124.67C121.35 123.04 120.65 120.7 118.93 120.05C117.35 119.46 115.78 120.9 115.39 122.37C114.41 126.1 113.93 129.92 113.05 133.67C112.98 133.98 112.9 134.29 112.83 134.6C113.07 133.59 112.7 135.1 112.68 135.18C112.48 135.94 112.26 136.7 112.04 137.46C111.51 139.28 110.93 141.08 110.31 142.87C108.03 149.43 105.23 155.8 102.39 162.14C101.02 165.21 99.6299 168.27 98.2099 171.32C97.4999 172.85 96.7899 174.37 96.0599 175.89C96.4299 175.1 95.7899 176.46 95.7799 176.47C95.6499 176.75 95.5199 177.02 95.3799 177.3C94.9799 178.13 94.5799 178.95 94.1799 179.77C91.1599 185.93 87.9999 192.02 84.6499 198C78.1999 209.52 70.7599 220.77 62.3399 230.62C53.9199 240.47 43.9499 250.02 34.0899 259.02C31.3299 261.54 28.5799 264.07 25.8099 266.57C23.1999 268.92 20.5299 271.27 17.4399 272.97C14.9099 274.36 12.2699 275.26 9.35993 274.79C8.56993 274.66 7.28993 274.18 6.63993 273.72C6.08993 273.34 5.94993 273.21 5.58993 272.71C5.61993 272.75 5.08993 271.88 5.28993 272.27C5.21993 272.14 4.84993 271.15 4.93993 271.46C4.59993 270.28 3.68993 268.51 2.15993 269.17C0.769927 269.77 0.339927 272.06 0.709927 273.36L0.719927 273.35Z" fill="black"/>
<path d="M7.10006 263.6C7.95006 257.98 9.17006 252.38 11.0801 247.03C12.9901 241.68 15.3501 236.49 17.8801 231.52C23.3001 220.88 30.1201 210.98 37.6201 201.72C45.1201 192.46 53.4501 183.6 61.7601 174.9C70.0701 166.2 78.4301 157.45 87.1501 149.11C97.0201 139.68 107.34 130.67 118.51 122.81C119.36 122.21 119.85 120.61 120 119.68C120.2 118.45 120.09 116.85 119.56 115.7C118.6 113.61 116.88 112.53 114.86 113.96C94.6201 128.19 77.4801 146.11 60.7301 164.19C43.9801 182.27 26.8501 200.98 15.3601 223.13C12.2301 229.18 9.59006 235.42 7.54006 241.92C5.49006 248.42 3.76006 255.16 2.92006 261.98C2.75006 263.32 3.04006 265.4 4.51006 265.95C5.98006 266.5 6.91006 264.78 7.08006 263.61L7.10006 263.6Z" fill="black"/>
<path d="M121.56 129.82C121.81 129.45 122.08 129.1 122.36 128.75L121.71 129.55C122.09 129.09 122.49 128.64 122.91 128.22C123.37 127.77 123.8 127.3 124.25 126.83C125.15 125.9 126.15 125.06 127.22 124.33L126.39 124.89C126.58 124.76 126.78 124.63 126.97 124.51L124 114.71C122.65 115.9 121.29 117.1 119.94 118.29C119.06 119.06 118.57 120.45 118.39 121.56C118.26 122.28 118.26 123 118.38 123.71C118.41 124.4 118.57 125.07 118.85 125.71C119.29 126.66 119.95 127.81 121.03 128.14L121.98 128.31C122.67 128.27 123.26 128.01 123.75 127.53C125.1 126.34 126.46 125.14 127.81 123.95C128.24 123.55 128.56 123.08 128.77 122.54C129.09 121.97 129.28 121.35 129.36 120.69C129.51 119.5 129.44 118.33 129.1 117.18C128.83 116.28 128.37 115.22 127.59 114.63C126.85 114.08 125.73 113.6 124.85 114.15C123.15 115.22 121.55 116.41 120.18 117.89C118.52 119.68 117.4 121.87 116.49 124.12C116.27 124.7 116.16 125.3 116.16 125.91C116.08 126.55 116.12 127.19 116.26 127.82C116.48 128.73 116.82 129.58 117.45 130.28C117.92 130.81 118.62 131.33 119.38 131.26C120.36 131.17 121.03 130.59 121.57 129.8L121.56 129.82Z" fill="black"/>
</g>
<defs>
<clipPath id="clip0_3416_10415">
<rect width="218.13" height="282.71" fill="white"/>
</clipPath>
</defs>
</svg>
