<svg xmlns="http://www.w3.org/2000/svg" viewBox="0 0 37.768 52.9832" fill="currentColor">
<g id="Group">
<path id="Vector" d="M24.6897 34.116C24.0345 36.0732 23.3344 38.0058 22.6219 39.9302C23.8544 39.3733 24.4604 38.3088 24.6201 36.8634C24.7142 36.1509 24.9067 35.4549 25.05 34.7465C25.3489 33.2971 25.6519 31.8517 25.9549 30.4063C25.5249 31.6388 25.1032 32.8753 24.6938 34.116H24.6897Z" fill="currentColor"/>
<path id="Vector_2" d="M17.0212 42.9515C17.144 43.1153 17.2587 43.2545 17.3733 43.3733C17.578 42.5093 17.7869 41.6454 17.9629 40.7732C18.5362 38.0381 19.3755 35.3644 19.7359 32.5637C19.8915 31.3026 20.4852 30.1029 20.8496 28.8787L21.7381 25.7709C20.8455 26.1763 18.442 27.6134 17.5453 28.0434C16.9843 28.3259 16.3743 28.5388 15.8174 28.1253C15.2892 27.7363 15.1746 27.1671 15.2401 26.4997C15.3916 24.8783 15.6454 23.2733 15.9607 21.6764C14.6832 18.6505 13.2993 15.682 11.7106 12.7995C11.2274 11.9396 10.6419 10.8505 9.81893 10.482C7.27624 9.3437 4.69259 7.83691 1.74454 9.54023C1.42107 9.74087 0.716814 9.30275 0.426104 9.90465C0.204999 10.3469 0.000274615 10.8669 0.000274615 11.3541C-0.0038199 12.8977 0.0698816 14.425 0.176339 15.9645C0.63902 22.1186 1.08123 28.2604 1.60533 34.4063C1.88375 37.686 2.26045 40.9534 2.68219 44.2085C2.85006 45.5106 2.9688 46.8372 4.06613 47.8772C4.45102 48.2375 4.38551 49.0237 4.53291 49.6174C4.72535 50.3954 4.91779 51.1774 5.08976 51.9267C5.91276 52.1969 6.58836 52.4426 7.26395 52.6228C7.90679 52.7906 8.59058 52.893 9.02869 52.9831C10.7484 52.0987 11.1169 50.7884 11.0104 49.2489C10.9572 48.5282 10.773 47.8117 10.8508 47.0993C11.2315 43.4019 10.8671 39.7128 10.6993 36.0236C10.6624 35.217 10.6788 34.4185 10.6665 33.1574C11.2971 33.833 11.7024 34.1401 11.9317 34.5373C12.6892 35.8721 13.3402 37.2765 14.1387 38.5868C15.0354 40.0772 15.973 41.5471 17.0171 42.9474L17.0212 42.9515Z" fill="currentColor"/>
<path id="Vector_3" d="M37.3952 26.2582C37.1495 21.1236 36.8588 15.9932 36.519 10.871C36.4125 9.23314 36.1423 7.60762 35.8802 5.99438C35.6141 4.38114 34.9344 3.09955 33.2065 2.55498C32.6415 2.38711 32.2116 1.84253 31.7284 1.46584C30.6802 0.667408 29.5992 0.118741 28.3996 0C28.2767 0.442208 28.158 0.884417 28.0351 1.32663C26.5529 6.75186 25.0748 12.1484 23.5926 17.5737C23.5189 17.8562 23.5271 18.1592 23.4861 18.6096C24.2518 18.6301 24.8783 18.5113 25.4965 18.2288C26.8027 17.6474 28.1088 17.0332 29.4314 16.4641C29.7057 16.3453 30.0087 16.1938 30.2871 16.2143C30.6352 16.2471 31.0856 16.3699 31.2616 16.6156C31.4377 16.8612 31.4663 17.3771 31.3189 17.6433C30.4837 19.2524 29.718 20.8902 29.0014 22.5485C29.4314 24.4975 29.8981 26.4342 30.0947 28.3955C30.4018 31.4459 30.3444 34.5373 30.4591 37.6164C30.5123 38.4353 30.5696 39.2705 30.7826 40.0608C30.8808 40.4661 31.3435 40.7978 31.7038 41.2236C32.1665 40.8879 32.5064 40.6709 32.8216 40.4211C33.1205 40.1754 33.399 39.8888 33.6528 39.6513C34.7379 40.3187 35.6346 40.6381 35.9376 40.5235C36.8711 40.1754 37.7842 38.9389 37.7678 37.9357C37.6614 34.0418 37.5877 30.1439 37.3993 26.2459L37.3952 26.2582Z" fill="currentColor"/>
</g>
</svg>