<svg overflow="visible" style="display: block;" viewBox="0 0 15.9979 19.8038" fill="none" xmlns="http://www.w3.org/2000/svg">
<path id="Vector" d="M11.6858 7.71677C11.6858 7.71677 11.5588 7.82323 11.7185 7.61441C11.9396 7.32779 12.1525 7.06984 12.3654 6.82007L11.7922 6.85283C11.8414 6.89787 11.8946 6.9429 11.9478 6.97976L12.2058 7.16401L12.4473 6.88968C12.7053 6.59896 12.9633 6.30825 13.2335 5.96841L13.2499 5.90699C13.6716 5.41974 14.1179 4.91203 14.5683 4.39202C14.9778 3.89658 15.3667 3.3602 15.682 2.77468C15.854 2.45531 15.9727 2.08681 15.9932 1.71011C16.0055 1.52176 15.9932 1.33341 15.9604 1.14916C15.9441 1.05498 15.9236 0.964903 15.8949 0.874824C15.8663 0.776555 15.8212 0.666007 15.7639 0.571833C15.7762 0.616873 15.7844 0.637345 15.6861 0.494037C15.5796 0.346634 15.4322 0.199231 15.2193 0.0968675C15.1129 0.0477333 14.99 0.0108843 14.859 0.00269529C14.7239 -0.00958827 14.5683 0.0231664 14.5069 0.0395445C14.1589 0.11734 13.7699 0.231986 13.3973 0.428523C13.2867 0.489941 13.1803 0.555455 13.082 0.629156C13.0042 0.690574 12.9919 0.715137 12.9837 0.727421C12.6766 0.960809 12.4596 1.23924 12.2917 1.50129C12.1566 1.73467 12.0706 1.93121 11.9683 2.13594L11.6571 2.74192C11.4442 3.14319 11.219 3.54036 10.9815 3.92934C10.744 4.31832 10.4902 4.7032 10.224 5.0799C9.96197 5.4484 9.65897 5.83329 9.40102 6.24274C8.8933 7.04117 8.37739 7.85189 7.85329 8.67489C7.59534 9.08434 7.31281 9.46923 7.00163 9.8623C6.69863 10.2554 6.39155 10.6484 6.08446 11.0456C5.56036 11.7335 5.04036 12.4173 4.55311 13.0601C3.79972 14.0223 2.8416 15.2466 2.10868 16.1801C2.29703 16.0942 0.55276 18.4117 0.982685 18.0104C0.859849 18.166 0.72473 18.3421 0.585516 18.5181C0.450397 18.6983 0.302993 18.8662 0.212913 19.034C0.118739 19.2019 0.0532288 19.3657 0.0163781 19.4885C-0.0204726 19.5868 0.0163781 19.6482 0.0163781 19.6564C0.0450397 19.6851 0.0737009 19.726 0.131024 19.7669C0.196536 19.8038 0.249766 19.7997 0.47087 19.8038C0.55276 19.8038 0.569139 19.7956 0.618273 19.7383C0.737014 19.6441 0.863942 19.5417 1.00316 19.4271C1.28158 19.206 1.62143 18.9521 1.96537 18.6041C2.10049 18.4731 2.2397 18.3175 2.36663 18.1496C2.42805 18.0636 2.48947 17.9776 2.5427 17.8876C2.60002 17.7852 2.65734 17.6828 2.71057 17.5846C2.85798 17.343 3.02176 17.1833 3.14459 17.0564C3.26743 16.9294 3.34932 16.8394 3.39026 16.782L3.41074 17.2406C3.41074 17.2406 3.40255 17.2324 3.39845 17.2283C3.29609 17.1383 3.32066 17.171 3.39436 17.257L3.36979 16.7657C3.27152 16.8598 3.12002 17.0031 3.00947 17.1096C2.89073 17.2283 2.81703 17.298 2.93168 17.1546C2.86207 17.2324 2.78837 17.3184 2.71876 17.4167C2.686 17.4658 2.64915 17.519 2.62049 17.5723L2.54679 17.7156C2.47309 17.863 2.37892 18.0022 2.28065 18.1332C2.08002 18.3994 1.82616 18.6369 1.54773 18.8621C1.2693 19.0873 0.96221 19.3002 0.651027 19.5213L0.520002 19.6195C0.520002 19.6195 0.520005 19.6195 0.51591 19.6236C0.51591 19.6236 0.524097 19.6236 0.507719 19.6236L0.446301 19.6154C0.249764 19.5868 0.339844 19.595 0.319372 19.595L0.343938 19.5295L0.388978 19.4189C0.450396 19.2715 0.532287 19.1323 0.614178 19.0217L1.30615 18.1291L2.686 16.348C3.61137 15.1647 4.51216 13.9609 5.46618 12.7817C5.93705 12.188 6.41202 11.5943 6.89108 10.9965C7.35785 10.3946 7.86557 9.82135 8.30778 9.15394C8.57802 8.72811 9.20039 7.75771 10.0357 6.49251C10.2404 6.18132 10.482 5.88242 10.744 5.5262C10.9979 5.17817 11.2517 4.80556 11.5015 4.41249C11.7513 4.01942 11.9929 3.60996 12.2303 3.18413C12.345 2.97122 12.4637 2.75421 12.5784 2.53311C12.693 2.32019 12.8077 2.07042 12.91 1.89845C13.127 1.52585 13.4464 1.23924 13.8395 1.04679C14.036 0.948525 14.253 0.874826 14.4741 0.813409L14.642 0.768369L14.7771 0.739704C14.8181 0.739704 14.8672 0.743803 14.9204 0.776559C15.031 0.842072 15.1252 0.960811 15.1661 1.13278C15.2193 1.32932 15.2357 1.52995 15.2152 1.72648C15.1948 1.92302 15.1415 2.11546 15.0555 2.29562C14.9737 2.46759 14.8426 2.68051 14.728 2.86067C14.2571 3.60178 13.6552 4.24462 13.1639 4.84651C12.6644 5.44431 12.218 5.9725 11.8577 6.40243L12.3286 6.32054C12.3286 6.32054 12.3245 6.30825 12.3204 6.30825L11.9028 6.17723L11.7717 6.34101C11.6039 6.54983 11.4565 6.72999 11.3336 6.88558L11.1289 7.14353C9.88417 8.68717 8.38558 10.5707 7.36195 11.9014C6.90336 12.5115 6.4284 13.1379 5.96162 13.7644C6.1991 13.4982 6.42021 13.2485 6.61675 13.0233C6.11721 13.6415 5.61768 14.2557 5.44162 14.5055C4.41389 15.8444 5.05264 15.1319 5.50713 14.6652C5.82241 14.3171 5.458 14.8371 5.94115 14.2844C5.60949 14.6938 5.44162 14.8986 5.10996 15.3121C5.09358 15.3776 6.12131 14.0346 5.92477 14.3499C5.59721 14.7389 5.25327 15.1934 4.92161 15.6028C5.06492 15.4841 6.08036 14.1861 6.0558 14.2721C5.88383 14.5014 5.08949 15.3981 5.05673 15.5046C5.05264 15.525 5.38429 15.1156 5.54808 14.9108C4.54492 16.1883 4.00035 16.9049 4.97894 15.7871C4.66775 16.1965 4.15594 16.7247 3.79971 17.1424C3.98397 16.9376 4.29925 16.5855 4.46712 16.4012L3.84885 17.0973C3.88979 17.0605 3.93074 17.0236 3.97168 16.9868C4.13137 16.8107 4.28696 16.6387 4.44665 16.4627L4.0331 16.9253C4.15184 16.8107 4.28287 16.6838 4.41389 16.5568C4.92571 16.0246 5.3761 15.4882 5.62996 15.1852C7.65266 12.708 9.67944 10.2103 11.6776 7.71677H11.6858Z" fill="var(--fill-0, #231F20)"/>
</svg>
