<svg overflow="visible" style="display: block;" viewBox="0 0 6.88684 4.79475" fill="none" xmlns="http://www.w3.org/2000/svg">
<path id="Vector" d="M3.37783 1.08095C3.37783 1.08095 3.43925 1.08095 3.37374 1.13009C3.16082 1.27749 2.952 1.33891 2.74318 1.49041V1.52316C2.57121 1.61734 2.38696 1.72789 2.2027 1.83025L1.71955 2.166C1.56805 2.28065 1.41656 2.39939 1.26096 2.51404C1.27325 2.51404 1.28553 2.52223 1.25687 2.54679C1.13404 2.64506 0.94978 2.76789 0.761432 2.90301L0.683638 2.96443C0.683638 2.96443 0.66726 2.99719 0.66726 3.00128C0.585369 3.05861 0.507575 3.11184 0.437968 3.16097C0.37655 3.2142 0.347885 3.23057 0.249617 3.31656C0.167727 3.39435 0.0940261 3.49672 0.0489864 3.61546C-0.0451876 3.85704 0.00804182 4.12318 0.110405 4.29925C0.212768 4.46712 0.339697 4.61452 0.544423 4.72098C0.749149 4.83153 1.03577 4.81106 1.21592 4.7046C1.31829 4.64728 1.35923 4.61043 1.41246 4.57767C1.46979 4.54082 1.52301 4.50397 1.58443 4.47122C1.70317 4.40161 1.8301 4.34428 1.96113 4.28286C2.23546 4.16412 2.51389 4.04538 2.79641 3.92664C3.03389 3.8079 3.27547 3.66869 3.48429 3.52128C3.78728 3.32065 4.2213 3.14459 4.55296 3.00128C4.46697 2.93987 5.24903 2.53041 5.0443 2.51404C5.26131 2.41577 5.5684 2.2356 5.5684 2.20285C5.5684 2.15371 5.59706 2.0882 5.67486 1.98584C5.74856 1.88348 5.87549 1.74427 6.00242 1.52316C6.11297 1.36348 6.24809 1.08095 6.25219 0.986775L6.52652 1.40442H6.51833C6.47329 1.40442 6.48557 1.4167 6.51833 1.42898L6.22352 0.97859C6.18667 1.0441 6.11707 1.18332 6.12526 1.10552C5.99833 1.45765 5.76903 1.7156 5.42509 1.92852C5.07296 2.15371 4.6758 2.32978 4.25406 2.51813C4.04524 2.6123 3.82823 2.71057 3.61531 2.82112C3.40649 2.92349 3.16082 3.07908 3.00523 3.16915C2.64901 3.36569 2.22318 3.49672 1.7605 3.67279C1.6827 3.70554 1.55168 3.76695 1.37152 3.85294C1.28144 3.89798 1.18317 3.95121 1.07671 4.01263C1.02758 4.04129 0.978443 4.07405 0.929309 4.1068C0.908836 4.11909 0.892458 4.12728 0.884269 4.12728C0.871985 4.12728 0.867892 4.13956 0.818758 4.1068C0.777813 4.07814 0.708206 3.97987 0.700017 3.94712C0.691828 3.90208 0.691827 3.90617 0.7123 3.87341C0.724583 3.86113 0.720488 3.86522 0.753244 3.84066L0.84742 3.77105L1.03986 3.62775C1.55986 3.25105 2.08806 2.8375 2.55074 2.5345C3.02161 2.21922 3.41878 1.97355 3.65217 1.83844L3.73815 1.78521C4.24587 1.48631 4.88462 1.14237 5.31454 0.921267C5.4947 0.822999 5.70352 0.741108 5.92053 0.671501C5.82226 0.67969 5.72399 0.68378 5.62982 0.691969C5.74037 0.663307 5.85502 0.638741 5.94919 0.622363C6.05155 0.60189 6.08841 0.597795 6.12526 0.589606C6.28904 0.589606 6.3177 0.630551 6.3177 0.589606C6.3177 0.552755 6.24809 0.47906 6.15801 0.442209C6.02289 0.409453 6.21943 0.360314 5.98195 0.34803C6.14982 0.331652 6.24809 0.33984 6.40368 0.42992C6.42416 0.425825 6.29723 0.34394 6.1703 0.339846C6.04746 0.327562 5.941 0.352128 5.99832 0.319372C6.1621 0.302994 6.38731 0.331651 6.51833 0.487243C6.51833 0.446297 6.37911 0.323468 6.21943 0.294806C6.06384 0.26205 5.92872 0.294805 5.941 0.274332C5.99014 0.262049 6.12526 0.253861 6.25219 0.294806C6.37912 0.327562 6.47329 0.413547 6.50605 0.409452C6.52242 0.405358 6.34636 0.27433 6.2399 0.266141C6.39549 0.294803 6.52652 0.380786 6.60022 0.47496C6.67801 0.569134 6.71077 0.651028 6.73124 0.696067C6.75172 0.741107 6.764 0.749296 6.764 0.70835C6.764 0.667405 6.764 0.565042 6.66573 0.413544C6.83361 0.61827 6.82132 0.949926 6.77219 1.14237C6.80085 1.0441 6.82951 0.855752 6.80494 0.745199C6.82542 0.876224 6.81313 1.00316 6.78857 1.1178L6.82132 1.06048C6.8418 0.9704 6.85408 0.872131 6.8377 0.765673C6.84999 0.855753 6.84589 0.94174 6.8377 1.02363C6.85817 0.962212 6.87865 0.88851 6.88684 0.79843C6.88684 0.634649 6.8377 0.442204 6.72715 0.302991C6.62069 0.159682 6.47329 0.0777961 6.37502 0.04504C6.27266 0.0163783 6.1662 0 6.07203 0C5.97376 0 5.87958 0.0163771 5.82635 0.0245661C5.69942 0.0450387 5.5684 0.0736991 5.43738 0.106455C5.17533 0.167873 4.90509 0.286611 4.68808 0.38488C4.22949 0.5937 3.78728 0.831185 3.35736 1.08505L3.37783 1.08095Z" fill="var(--fill-0, #231F20)"/>
</svg>
