<svg overflow="visible" style="display: block;" viewBox="0 0 6.26832 4.52538" fill="none" xmlns="http://www.w3.org/2000/svg">
<path id="Vector" d="M2.77199 1.52195C2.77199 1.52195 2.82932 1.52605 2.77199 1.57109C2.58364 1.70212 2.39939 1.74716 2.21104 1.8659V1.89865C2.03907 1.97645 1.86301 2.06243 1.68694 2.15251C1.37985 2.34495 1.08505 2.54559 0.794338 2.74212C0.806622 2.74212 0.81481 2.75031 0.790243 2.77078C0.732919 2.81173 0.659219 2.86086 0.577329 2.90999C0.536384 2.93456 0.495436 2.95913 0.450397 2.98779C0.401262 3.02055 0.335751 3.06149 0.278428 3.11063C0.245671 3.14338 0.212916 3.17614 0.18016 3.21708C0.155593 3.25393 0.155592 3.27032 0.159686 3.27851C0.057323 3.41772 0.00818904 3.56922 0 3.71252C0 3.83126 0.0327558 3.9582 0.0859846 4.06056C0.135119 4.15473 0.192441 4.24072 0.286615 4.3267C0.466774 4.48639 0.728824 4.57647 0.974495 4.49458C1.11371 4.42907 1.20379 4.38402 1.30615 4.33079L1.55182 4.18339C1.7156 4.08512 1.88348 3.98276 2.05136 3.8804C2.3912 3.67567 2.73923 3.46276 3.09546 3.24575C3.29609 3.11063 3.49263 2.9796 3.68916 2.86086C3.98397 2.68889 4.37704 2.52511 4.68413 2.39C4.60224 2.32858 5.31059 1.93141 5.11815 1.91912C5.21642 1.86589 5.33926 1.80448 5.44162 1.75125C5.51941 1.7144 5.57674 1.64479 5.56855 1.6366C5.55626 1.59156 5.56036 1.53424 5.56855 1.44006C5.59311 1.3418 5.56855 1.23125 5.69138 0.85455C5.73642 0.760376 5.76099 0.670298 5.76099 0.670298C5.77327 0.670298 5.78556 0.666204 5.78146 0.670298C5.76918 0.674393 5.76509 0.678485 5.76918 0.67439C5.76918 0.670296 5.7569 0.662103 5.74871 0.658009L6.24414 0.203517C6.27281 0.232179 6.27281 0.219898 6.26052 0.187142L5.72823 0.67439C5.72823 0.67439 5.70776 0.711241 5.76099 0.67439C5.78146 0.662107 5.78556 0.662109 5.76918 0.670298C5.78965 0.658015 5.76918 0.674393 5.69548 0.670298C5.65453 0.666204 5.6832 0.682576 5.66272 0.703049C5.65453 0.727616 5.63816 0.760374 5.61768 0.80132C5.59312 0.850454 5.55626 0.936442 5.53989 0.98967C5.458 1.23534 5.42115 1.3418 5.35973 1.39502C5.34745 1.4114 5.32697 1.42778 5.3065 1.44006C5.3065 1.44006 5.34335 1.41959 5.32697 1.42778H5.32288L5.3024 1.44006L5.22461 1.48101L4.93799 1.63251C4.75783 1.72668 4.57358 1.81267 4.38523 1.89865C3.59499 2.25078 2.86616 2.68889 2.10458 3.08606C2.0186 3.13929 1.83844 3.24165 1.60096 3.37677C1.47812 3.44228 1.343 3.52008 1.19969 3.60197C1.12599 3.64292 1.0482 3.68386 0.970402 3.7289C0.913079 3.75347 0.835281 3.79032 0.814809 3.8026C0.794336 3.8067 0.777958 3.81079 0.757486 3.77394C0.720635 3.71662 0.73292 3.71662 0.749298 3.68796C0.77796 3.64292 0.990874 3.52008 1.14237 3.41363C1.30206 3.30717 1.46174 3.2048 1.61324 3.10654C1.92033 2.91 2.20695 2.73393 2.45262 2.59881C2.70648 2.46369 2.93577 2.33267 3.07908 2.25078L3.16097 2.20164C3.64822 1.91093 4.20098 1.52196 4.56949 1.25581C4.73736 1.12888 4.89705 1.01014 5.08539 0.8914C4.99531 0.920061 4.90933 0.944627 4.82334 0.973289C5.01169 0.87502 5.21642 0.780846 5.28603 0.723523C5.69139 0.465568 5.42933 0.551553 5.23689 0.57612C5.10587 0.608876 5.24508 0.494232 5.04854 0.559744C5.17957 0.494232 5.24508 0.461474 5.3761 0.391868C5.3761 0.363206 4.97894 0.612972 5.05264 0.526988C5.18366 0.473759 5.31469 0.383678 5.44981 0.314071C5.38429 0.309976 4.99122 0.53927 4.99531 0.494231C5.06492 0.453285 5.3802 0.35092 5.38839 0.293597C5.38839 0.285408 5.25736 0.350921 5.19185 0.383677C5.3802 0.273125 5.55217 0.166671 5.65044 0.138009C5.7528 0.113442 5.65044 0.0683998 5.40886 0.154385C5.48256 0.121629 5.59311 0.0724955 5.74461 0.0724955C5.89611 0.068401 6.0517 0.146195 6.13769 0.223991C6.09674 0.183046 6.02713 0.129818 5.93705 0.0970617C5.85107 0.0643055 5.76099 0.0602142 5.70367 0.0684033C5.84288 0.0479307 6.01894 0.105251 6.12131 0.199425C6.10902 0.178952 6.09265 0.15848 6.07217 0.142102C5.9821 0.0765893 5.85107 0.0356419 5.73233 0.0438309C5.8306 0.0397364 5.94934 0.0602145 6.03942 0.113443C5.978 0.064309 5.88383 0.015173 5.77737 0.00288945C5.57674 -0.0134886 5.43752 0.0438339 5.33516 0.0724955C5.2328 0.109346 5.17138 0.129818 5.12225 0.154385C4.74555 0.330449 4.28287 0.551554 3.90617 0.80132C3.52538 1.0388 3.14869 1.27628 2.77608 1.50967L2.77199 1.52195Z" fill="var(--fill-0, #231F20)"/>
</svg>
