<svg overflow="visible" style="display: block;" viewBox="0 0 20.3866 81.5252" fill="none" xmlns="http://www.w3.org/2000/svg">
<path id="Vector" d="M5.03626 73.6555C5.0035 73.6228 4.74965 74.1796 5.06902 73.2829C6.08855 70.4659 7.06714 68.2589 8.09077 65.4378C8.09487 65.3641 8.09896 65.2863 8.10715 65.2126C8.8196 63.3946 9.55661 61.5153 10.3182 59.5745L11.4237 56.7533L8.82369 58.3707C8.80322 58.3829 8.77865 58.3993 8.75409 58.4116L10.2486 59.6195C10.3714 59.3042 10.5024 58.9644 10.6376 58.6245C11.4319 56.4954 12.2262 54.3662 12.9755 52.2166C13.1639 51.6802 13.3481 51.1397 13.5283 50.6034C13.7044 50.067 13.8845 49.5306 14.0606 48.9901C14.4127 47.9214 14.773 46.861 15.1374 45.8046C15.076 45.9069 15.0351 45.952 15.1784 45.5302C15.7844 43.7696 16.7015 41.362 17.7538 38.9176C17.9012 38.5532 18.0568 38.1929 18.2083 37.8366C18.3148 37.5541 18.3271 37.4722 18.3353 37.4231C18.8266 36.3258 19.2975 35.3676 19.7438 34.4873C19.8912 34.1925 20.0386 33.8977 20.2024 33.5702C20.2802 33.4146 20.3375 33.2467 20.362 33.0747C20.3743 32.9887 20.3866 32.9027 20.3866 32.8168C20.3866 32.7349 20.3866 32.6571 20.3866 32.5793C20.3743 32.4237 20.3539 32.2722 20.3006 32.1043C20.2761 32.0183 20.2433 31.9323 20.1983 31.8382C20.1737 31.789 20.1491 31.744 20.1164 31.6908C20.0836 31.6416 20.0468 31.5884 20.0017 31.5393C19.8339 31.3427 19.6701 31.2445 19.5227 31.1626C19.3753 31.0848 19.2361 31.0356 19.105 30.9947C18.974 30.9538 18.843 30.9251 18.7161 30.9046C18.6833 30.9005 18.6505 30.8923 18.6178 30.8923C18.585 30.8882 18.5359 30.8841 18.4949 30.8801C18.409 30.8719 18.323 30.8719 18.2329 30.8801C18.1469 30.8882 18.0609 30.9005 17.9749 30.9169C17.934 30.9251 17.8808 30.9374 17.848 30.9497C17.8153 30.9619 17.7784 30.9701 17.7457 30.9824C17.6146 31.0275 17.5 31.0725 17.4017 31.1175C17.2256 31.1994 17.0496 31.2772 16.8694 31.3591C16.5173 31.5229 16.1611 31.6867 15.8048 31.8505C15.0883 32.178 14.3636 32.5138 13.6225 32.8536C13.5283 32.8946 13.4382 32.9396 13.344 32.9805L13.213 33.0379C13.1721 33.0583 13.1352 33.0706 13.0984 33.087L12.9837 33.132L12.9059 33.1607C12.8814 33.1689 12.8568 33.1771 12.8322 33.1812C12.7831 33.1935 12.7299 33.2057 12.6807 33.2098C12.6562 33.2098 12.6275 33.2139 12.5988 33.218H12.5579H12.5374H12.5292V33.2098C12.5333 33.1361 12.5292 33.0624 12.5415 32.9846C12.5497 32.9478 12.5579 32.9068 12.5661 32.87L12.5743 32.8372L12.6029 32.7267L12.6603 32.5056C12.8118 31.9201 12.9673 31.3345 13.1229 30.7449C13.43 29.5657 13.7412 28.3783 14.0565 27.1827C14.6829 24.7874 15.3176 22.3594 15.9645 19.8945C16.6074 17.4296 17.2625 14.9237 17.9258 12.3851C18.2575 11.1158 18.5891 9.83422 18.9249 8.54444C19.0927 7.9016 19.2606 7.25467 19.4326 6.60364C19.4531 6.52175 19.4735 6.44396 19.494 6.35797C19.5145 6.26789 19.535 6.18191 19.5513 6.09183C19.5841 5.91576 19.6128 5.7397 19.6373 5.56363C19.6824 5.2115 19.7069 4.85938 19.711 4.50725C19.711 4.30662 19.711 4.11008 19.7028 3.90535C19.7028 3.81118 19.6905 3.68425 19.6742 3.5696C19.6619 3.51228 19.6578 3.45496 19.6414 3.39763L19.5964 3.22976C19.4653 2.78345 19.1992 2.38219 18.8675 2.0792C18.7038 1.9277 18.5236 1.80077 18.3353 1.69022L18.192 1.61242L18.0445 1.54281L17.7784 1.42407C17.4304 1.26848 17.0782 1.11698 16.7302 0.965487C16.3822 0.813989 16.0341 0.658398 15.6861 0.5069C15.5141 0.429105 15.3381 0.355403 15.1661 0.277607L14.9081 0.162961C14.8099 0.117921 14.6993 0.0769758 14.5888 0.0483142C14.3554 -0.00900909 14.0974 -0.0212927 13.8599 0.0442196C13.6225 0.105637 13.4096 0.244851 13.2499 0.42501L13.0533 0.64202C12.9878 0.715721 12.9264 0.789422 12.865 0.863124C12.7421 1.01872 12.6193 1.1825 12.5169 1.36675C12.4432 1.50187 12.3736 1.65337 12.3286 1.80896C12.2877 1.94408 12.2508 2.0792 12.2099 2.21432C12.128 2.48865 12.0502 2.76708 11.9724 3.0455C11.8168 3.61055 11.6694 4.18787 11.522 4.77749C11.2272 5.95671 10.9733 7.17278 10.7031 8.38476C10.1667 10.8087 9.63441 13.2163 9.17582 15.3045C9.22086 15.2308 9.22905 15.325 9.20857 15.5461C9.1881 15.7672 9.14306 16.1029 9.05708 16.5165C8.97519 16.93 8.85645 17.4255 8.73771 17.9577C8.68038 18.2239 8.62306 18.4982 8.57393 18.7807C8.52479 19.0633 8.49203 19.3458 8.45109 19.6242C8.2955 20.7461 8.0703 21.8107 7.9188 22.474C7.84101 22.8057 7.79187 23.035 7.78778 23.125C7.78778 23.2151 7.83282 23.1619 7.94337 22.9203C7.83282 23.2642 7.70179 23.6246 7.55848 23.9931C7.48478 24.1773 7.41108 24.3616 7.32919 24.5499C7.29234 24.6441 7.2473 24.7342 7.20635 24.8284L7.08352 25.0986C6.78462 25.8028 6.6495 26.5972 6.498 27.3096C6.3547 28.018 6.24824 28.6526 6.17044 29.1194C6.09265 29.5903 6.04351 29.8974 6.0517 29.9547C6.06808 30.1267 6.06808 30.3969 6.02713 30.8227C6.01485 30.9292 6.00257 31.0438 5.98619 31.1708C5.96981 31.2977 5.94934 31.4369 5.92477 31.5802C5.87564 31.8709 5.81831 32.2067 5.74461 32.5957C5.59721 33.3654 5.40886 34.3481 5.17138 35.601C4.93799 36.8499 4.65957 38.3607 4.42618 40.2033C4.40161 40.3834 4.38114 40.5677 4.35657 40.7601C4.3361 40.9526 4.31153 41.145 4.28696 41.3456C4.26649 41.5463 4.24602 41.7469 4.22554 41.9557L4.20917 42.1072C4.20917 42.1482 4.20098 42.1891 4.20098 42.2301C4.19688 42.312 4.20098 42.3816 4.20098 42.4512C4.20507 42.5167 4.21326 42.5781 4.22554 42.6313C4.23783 42.6805 4.25421 42.7255 4.27058 42.7624C4.30744 42.8361 4.34838 42.8893 4.43027 42.9548C4.45074 42.9712 4.46303 42.9794 4.47941 42.9916C4.49169 42.9916 4.50397 43.008 4.51625 43.0121C4.54082 43.0244 4.5613 43.0285 4.58586 43.0326C4.61043 43.0367 4.65138 43.0326 4.69641 43.0326C4.74145 43.0244 4.79878 43.0162 4.8602 42.9957C4.92161 42.9753 4.99122 42.9548 5.06492 42.922C5.13453 42.8934 5.21232 42.8565 5.29421 42.8156C5.47437 42.7296 5.64634 42.6477 5.81422 42.5699C6.14997 42.4102 6.46525 42.2628 6.74777 42.1277C7.31281 41.8575 7.74683 41.6486 7.98022 41.5258C8.34873 41.3416 8.31188 41.3416 8.0703 41.4316C7.82872 41.5217 7.38652 41.7223 6.94021 41.9148C6.0517 42.3038 5.1591 42.6927 5.89611 42.3038L5.42524 42.529L5.19185 42.6395C5.11815 42.6764 5.05673 42.705 4.99941 42.7296C4.88476 42.7787 4.7824 42.8115 4.71279 42.8279C4.63909 42.8442 4.61043 42.8361 4.60224 42.8361C4.59405 42.8361 4.59405 42.8361 4.56129 42.8115C4.50807 42.7746 4.4835 42.7419 4.46303 42.7132C4.44665 42.6846 4.42618 42.6477 4.41389 42.5863C4.40161 42.5208 4.38933 42.4307 4.39342 42.3242C4.39342 42.271 4.39342 42.2096 4.40161 42.1482L4.42618 41.9066L4.47941 41.4112C4.52035 41.0795 4.5572 40.7478 4.60633 40.4203C4.69641 39.7611 4.80287 39.0978 4.92161 38.4426C5.1591 37.1242 5.44571 35.814 5.7528 34.4996C5.90839 33.8445 6.06808 33.1894 6.23186 32.5342L6.48163 31.5475C6.56761 31.1953 6.64541 30.8555 6.71501 30.5115C6.85423 29.8278 6.97297 29.1522 7.0958 28.4929C7.15722 28.1654 7.21864 27.8378 7.28825 27.5185L7.39061 27.0271L7.49707 26.5481C7.56667 26.2369 7.64447 25.9503 7.73864 25.6882C7.76321 25.6227 7.78368 25.5572 7.81234 25.4958C7.82463 25.463 7.83691 25.4343 7.84919 25.4057L7.89423 25.3074C7.96794 25.1436 8.04164 24.9798 8.11125 24.812C8.39377 24.1528 8.63125 23.4772 8.84007 22.7975C9.0448 22.1178 9.21676 21.4299 9.36007 20.7461C9.43377 20.4022 9.49929 20.0582 9.5607 19.7143L9.64669 19.227C9.67535 19.0756 9.70811 18.9281 9.74086 18.7726C9.88008 18.1625 10.0766 17.5196 10.2527 16.8399C10.3428 16.5042 10.4246 16.1316 10.4902 15.8122L10.7031 14.8213C11.2722 12.1804 11.8454 9.53941 12.4146 6.89026C12.7012 5.57182 13.0165 4.27795 13.3809 3.00046L13.5201 2.5214L13.5938 2.27573L13.6184 2.18975C13.6184 2.18975 13.6307 2.16109 13.6348 2.14471C13.688 2.01778 13.8272 1.81715 14.0237 1.60014L14.2121 1.39541C14.2121 1.39541 14.2121 1.39541 14.2162 1.39541C14.2244 1.39541 14.2366 1.4036 14.2489 1.4036C14.2612 1.40769 14.2776 1.41179 14.2899 1.41998L14.3144 1.42817L14.3718 1.45273L14.6052 1.55919C15.2234 1.84171 15.8417 2.12424 16.46 2.41085L17.3894 2.83668C17.414 2.84487 17.4181 2.85306 17.4345 2.85716L17.4713 2.87763C17.4959 2.88991 17.5205 2.9022 17.545 2.91857C17.5942 2.94723 17.6392 2.9759 17.6842 3.00456C17.7702 3.06598 17.848 3.13149 17.9135 3.20109C18.0445 3.34031 18.1264 3.48362 18.1756 3.6474C18.1838 3.68834 18.196 3.72929 18.2001 3.77433C18.2042 3.7948 18.2083 3.81937 18.2083 3.83984V3.8726L18.2124 3.88897V3.91354L18.2165 4.13874V4.37213C18.2124 4.68331 18.192 4.98631 18.1551 5.2893C18.1387 5.4408 18.1142 5.58411 18.0855 5.73151C18.0732 5.80521 18.0568 5.87482 18.0405 5.94442L18.0159 6.04679L17.9831 6.16962C17.2666 8.81468 16.5419 11.4679 15.8171 14.1376C15.4896 15.415 14.8058 17.9741 13.8845 21.3971C13.4218 23.1087 12.9018 25.0331 12.3409 27.1254C12.0584 28.1695 11.7636 29.2545 11.4606 30.3764C11.3091 30.9374 11.1535 31.5065 10.9979 32.0797C10.9528 32.2517 10.9037 32.4237 10.8587 32.5998C10.8218 32.7349 10.7809 32.8741 10.7522 33.0133C10.7235 33.1525 10.7072 33.2835 10.699 33.4146C10.6867 33.5456 10.6785 33.6807 10.6703 33.8158C10.658 33.955 10.6458 34.0902 10.6376 34.2294C10.613 34.5078 10.5884 34.7903 10.5639 35.0728C10.6335 35.081 10.7235 35.0769 10.8054 35.081H11.0552C11.219 35.0851 11.3828 35.0851 11.5425 35.0892C11.8659 35.0933 12.1976 35.0892 12.5456 35.0401C12.6316 35.0278 12.7176 35.0155 12.8077 34.9991C12.8936 34.9828 12.9837 34.9664 13.0697 34.9418C13.1557 34.9213 13.2458 34.8968 13.3318 34.8722C13.3768 34.8599 13.4218 34.8476 13.4587 34.8313L13.5447 34.8026C13.6552 34.7617 13.7658 34.7207 13.8722 34.6716L14.1548 34.5446C14.859 34.2253 15.5756 33.9059 16.2962 33.5783C16.6565 33.4146 17.0209 33.2508 17.3853 33.087C17.5696 33.0051 17.7538 32.9232 17.9381 32.8372C18.0364 32.7922 18.1183 32.7594 18.1838 32.7308C18.2165 32.7185 18.2493 32.7062 18.2738 32.698C18.2984 32.6898 18.3271 32.6816 18.3189 32.6857C18.3312 32.6857 18.3434 32.6816 18.3557 32.6857C18.3557 32.6857 18.3926 32.6898 18.4212 32.6939C18.4499 32.698 18.4827 32.7062 18.5113 32.7103C18.5686 32.7226 18.6178 32.7431 18.6505 32.7553C18.6669 32.7635 18.6792 32.7676 18.6792 32.7717L18.6874 32.7635C18.7038 32.739 18.7201 32.7144 18.7365 32.6898C18.7775 32.6407 18.7979 32.6038 18.8389 32.5629C18.8594 32.5424 18.8675 32.5301 18.8839 32.5138C18.8962 32.4974 18.9208 32.481 18.929 32.4728C18.9413 32.4605 18.9535 32.4483 18.9699 32.4401L18.9822 32.4319L18.9412 32.4605C18.9412 32.4605 18.9167 32.4769 18.9085 32.4851C18.8184 32.5383 18.7038 32.5998 18.5932 32.6366C18.5891 32.6366 18.5768 32.6448 18.5768 32.6407C18.5768 32.6448 18.5768 32.6489 18.5768 32.6571C18.5768 32.6694 18.5809 32.6857 18.585 32.7021C18.585 32.7185 18.585 32.739 18.585 32.7512C18.585 32.7635 18.585 32.7676 18.585 32.7758C18.585 32.7881 18.5809 32.8004 18.5727 32.8127C18.4376 33.0747 18.3066 33.3409 18.1715 33.6029C18.0323 33.8731 17.9012 34.1516 17.7661 34.4218C17.631 34.6961 17.5 34.9705 17.369 35.2489C17.2379 35.5273 17.1069 35.8017 16.98 36.0801C16.4682 37.1938 15.985 38.3239 15.5182 39.4622C14.5888 41.7346 13.7494 44.0317 12.9633 46.3C12.5702 47.4301 12.1976 48.5643 11.8291 49.6657C11.4606 50.763 11.0798 51.844 10.699 52.9045C9.93331 55.0214 9.16354 57.0563 8.4429 58.9767L7.48888 61.5234L9.77772 60.0535C9.80228 60.0371 9.82275 60.0249 9.84732 60.0085L8.51251 58.9316C6.45296 64.3691 4.76193 68.8404 3.7342 71.5591C3.59499 71.9317 3.45577 72.3002 3.31656 72.6687C2.4649 74.933 1.55182 77.3611 0.630556 79.8055L1.83844 79.2896L1.82616 79.2814C1.83025 79.2732 1.81797 79.2978 1.80978 79.3141C1.80159 79.3305 1.7893 79.3469 1.78112 79.3633C1.76883 79.3797 1.76065 79.396 1.74836 79.4083C1.74017 79.4206 1.73608 79.4288 1.72789 79.4411C1.71151 79.4615 1.69513 79.482 1.67466 79.5025C1.66647 79.5148 1.65419 79.5271 1.6419 79.5393L1.61734 79.5598L1.60915 79.568H1.60505C1.60505 79.568 1.60915 79.568 1.61324 79.568C1.62143 79.5639 1.63781 79.5557 1.646 79.5557C1.65419 79.5557 1.68285 79.5434 1.70332 79.5393L1.78521 79.5271C1.82206 79.523 1.84663 79.523 1.89167 79.5189C1.91624 79.5189 1.9408 79.5189 1.96128 79.5189C1.96128 79.5189 1.96128 79.5148 1.96128 79.5107C1.96128 79.5107 1.96128 79.5025 1.96128 79.4943C1.96537 79.4411 1.99403 79.3305 2.03498 79.1749L2.16191 78.7163C2.32978 78.1022 2.49356 77.4921 2.65734 76.882C2.82112 76.2719 2.98491 75.67 3.14459 75.0681C3.18554 74.9166 3.22648 74.7692 3.26333 74.6218C3.30018 74.4703 3.33703 74.3147 3.37798 74.1632C3.45168 73.8602 3.51719 73.5572 3.5827 73.2583C3.70964 72.6687 3.83247 72.0873 3.95531 71.5182C4.08224 70.9531 4.20917 70.3963 4.332 69.8558C4.45484 69.3071 4.57767 68.7748 4.69641 68.2548C4.75374 67.9928 4.81106 67.7348 4.86429 67.481C4.91752 67.2271 4.96665 66.9774 5.01579 66.7358C5.1591 66.0397 5.27374 65.3109 5.32288 64.5698C5.34744 64.1808 5.35154 63.8696 5.3802 63.5339C5.39248 63.366 5.40477 63.1981 5.42524 63.0302C5.44162 62.8624 5.45799 62.6945 5.48256 62.5266C5.65044 61.1795 5.94524 59.8242 6.23596 58.4526C5.89611 59.7137 5.58902 60.8642 5.37201 61.8674C5.61768 60.4916 5.96981 59.1159 6.24005 57.9326C6.37517 57.3429 6.48981 56.7984 6.57989 56.3398C6.66997 55.8894 6.74367 55.5168 6.7969 55.2506C7.12037 53.7766 7.3251 52.8717 7.41108 52.3845C7.50116 51.8931 7.48478 51.8235 7.41108 52.0078C7.26368 52.3804 6.84604 53.7643 6.498 54.878C6.27281 55.6847 6.26871 55.5332 6.22776 55.4963C6.19501 55.4595 6.12131 55.5373 5.81422 56.8147C6.2032 54.9599 6.45706 54.0387 6.90336 52.1879C6.90336 52.1306 6.81738 52.4582 6.69045 52.9618C6.56761 53.4654 6.39974 54.141 6.24824 54.788C6.09674 55.4349 5.96162 56.0491 5.87973 56.4217C5.79375 56.7902 5.7528 56.9171 5.79375 56.5896C6.17863 54.8002 6.68635 52.8103 7.0958 50.9637C7.03848 51.1193 6.91974 51.5942 6.76005 52.2166C6.60446 52.839 6.40793 53.6087 6.22367 54.3458C6.03942 55.0869 5.87154 55.8075 5.7569 56.3193C5.64225 56.827 5.56036 57.13 5.55217 57.0563C5.6054 56.8066 5.69957 56.3644 5.8265 55.8157C5.95343 55.2711 6.11721 54.6447 6.2728 54.0387C6.59218 52.8267 6.8706 51.6966 6.85832 51.5041C6.85832 51.4673 6.74777 51.9095 6.60446 52.4746C6.46525 53.0437 6.29328 53.7316 6.17863 54.1943C6.51848 52.7694 6.82147 51.5123 7.01391 50.4969C7.21045 49.4856 7.31281 48.7158 7.34557 48.29C7.35376 48.1835 7.36195 48.1016 7.36195 48.0361C7.36195 47.9665 7.36195 47.9255 7.36195 47.9051C7.36195 47.8887 7.34966 47.8969 7.33738 47.9337C7.3251 47.9706 7.30872 48.0402 7.28825 48.1221C7.21455 48.4619 7.08352 49.2358 6.78053 50.5174C6.8747 50.0711 6.97706 49.5797 7.07124 49.0597C7.11628 48.8018 7.16132 48.5356 7.19817 48.2654C7.21864 48.1262 7.2432 47.9829 7.26368 47.8396C7.28824 47.6881 7.31691 47.5366 7.35376 47.3892C7.49297 46.7955 7.68951 46.2345 7.88195 45.7145C8.07439 45.1945 8.25455 44.7072 8.38558 44.2569C8.38558 44.2569 8.38148 44.265 8.38148 44.2691C8.24636 44.7154 8.01298 45.3214 7.77959 45.9479C7.66494 46.2632 7.55439 46.5825 7.46431 46.8896C7.37423 47.1967 7.30872 47.4833 7.26368 47.729C7.37013 47.1271 7.55029 46.5662 7.73455 46.0298C7.9229 45.4934 8.12353 44.9775 8.28731 44.4698C8.2177 44.6254 8.144 44.8014 8.06211 44.9898C7.77959 45.7513 7.43974 46.5457 7.24321 47.4792C7.41108 46.689 7.68541 45.9684 7.93927 45.2764C7.72226 45.78 7.45203 46.3778 7.23092 47.1066C7.20636 47.1926 7.18179 47.2786 7.16131 47.3687C7.13675 47.4547 7.12037 47.5447 7.0999 47.6348C7.06305 47.8109 7.03439 48.0115 7.00572 48.1507C6.95659 48.4578 6.89517 48.7649 6.83785 49.0638C6.71501 49.6616 6.5758 50.2389 6.44068 50.7835C6.16635 51.8686 5.89611 52.8144 5.72823 53.5064C5.58902 54.0591 5.4539 54.6119 5.32288 55.1728C5.25736 55.4513 5.19185 55.7338 5.13043 56.0204C5.06902 56.2988 5.01579 56.5691 4.95028 56.8393C4.7046 57.9285 4.42208 59.0299 4.17232 60.16C3.91846 61.2901 3.70554 62.4529 3.60318 63.6485L3.57042 64.0948C3.56223 64.2258 3.55404 64.3528 3.53766 64.4838C3.5131 64.7417 3.47625 65.0038 3.4353 65.2658C3.39436 65.5279 3.34113 65.7899 3.2879 66.052L3.10365 66.875C2.85798 67.9682 2.58364 69.0656 2.3134 70.1752C2.17829 70.7279 2.04726 71.2971 1.92443 71.8539C1.80159 72.4108 1.68285 72.9594 1.55182 73.4999L1.45356 73.9012C1.4208 74.0322 1.38395 74.1673 1.3471 74.3024L1.1219 75.1213L0.671501 76.7551L0.221104 78.3888L0.106458 78.8105C0.0614187 78.9784 0.0122836 79.1872 0 79.4656C0 79.613 2.00123e-06 79.7686 0.0532308 79.9529C0.0737034 80.0389 0.110552 80.1371 0.147403 80.2272C0.192443 80.3173 0.237484 80.4074 0.298901 80.4893C0.417642 80.6571 0.556856 80.78 0.691975 80.8823C0.757487 80.9274 0.822999 80.9683 0.892605 81.0052C0.954023 81.0379 1.01544 81.0666 1.08095 81.0953L2.05136 81.5252L2.43215 80.5179C3.29199 78.2332 4.15184 75.9607 5.01169 73.6883L5.03626 73.6555Z" fill="var(--fill-0, #010101)"/>
</svg>
