<svg overflow="visible" style="display: block;" viewBox="0 0 14.2613 11.8503" fill="none" xmlns="http://www.w3.org/2000/svg">
<path id="Vector" d="M1.78745 0.512077C1.79564 0.536644 1.93485 0.495697 1.73832 0.606249C1.42713 0.782313 1.1487 0.962475 0.89075 1.19177C0.63689 1.42106 0.407597 1.71177 0.264289 2.07209L0.276572 2.1376C0.0309007 2.68217 -0.0428002 3.30454 0.0227121 3.88596C0.0964135 4.42644 0.26429 4.93416 0.501772 5.40093C0.739254 5.86771 1.03406 6.30992 1.42713 6.67842C1.41894 6.64976 1.41894 6.62929 1.49674 6.6989C1.79973 7.01417 2.3484 7.39087 2.95848 7.58331C3.04856 7.61198 3.13864 7.64064 3.22872 7.65292C3.29833 7.66111 3.3188 7.65292 3.33518 7.64473C3.60951 7.71434 3.8429 7.73891 4.064 7.77576C4.78464 7.82489 5.45614 7.80032 6.12355 7.82489C6.78686 7.84536 7.44198 7.92316 8.08892 8.08285C9.38688 8.38994 10.6521 9.02459 11.7658 9.95814C12.0074 10.1506 12.2408 10.3512 12.466 10.5641C12.7444 10.8303 13.0351 11.1619 13.2849 11.3912C13.4732 11.5591 13.637 11.6983 13.8253 11.8048C13.8745 11.8293 13.9277 11.8539 13.9891 11.8498C14.0546 11.8498 14.1242 11.813 14.157 11.7556C14.2266 11.6451 14.243 11.5345 14.2553 11.4117C14.2962 10.9449 14.1242 10.3021 13.9277 9.7616C13.8745 9.82301 13.6575 9.3849 13.4118 8.97954C13.1702 8.57828 12.9245 8.22615 12.9573 8.44726C12.7034 7.92725 12.2571 7.17796 12.1957 7.16158C12.0115 7.11654 11.7003 6.78488 10.7176 5.63842C10.3532 5.19211 9.78814 4.52061 9.60798 4.36911L10.4637 4.10706C10.4637 4.10706 10.4637 4.11935 10.4637 4.12345C10.4555 4.22581 10.476 4.19714 10.5047 4.11116L9.58342 4.39368C9.69397 4.54927 9.98468 4.9014 9.80862 4.754C10.5415 5.55653 11.1926 6.42047 11.7617 7.33355C12.0442 7.78804 12.3104 8.25482 12.5519 8.72978C12.6748 8.96726 12.7853 9.20884 12.8918 9.45042L13.0433 9.81483L13.1129 9.99499V9.99089C13.1129 9.9827 13.1293 10.0155 13.1129 9.99908L13.0269 9.909L12.7157 9.59782C12.5028 9.39309 12.2817 9.19656 12.0483 9.00411C11.5856 8.62332 11.0902 8.27938 10.562 7.98048C10.1976 7.79214 9.29271 7.32536 8.00703 7.01827C7.36419 6.87496 6.63127 6.78488 5.87788 6.75213C5.12858 6.70709 4.34653 6.73165 3.67093 6.59653C3.3229 6.54331 3.02809 6.41228 2.74147 6.26488C2.47533 6.08881 2.22556 5.87999 2.01265 5.62204C1.59091 5.10613 1.31249 4.47148 1.20603 3.89006C1.09548 3.30454 1.17327 2.78044 1.36571 2.42012C1.55816 2.05981 1.84887 1.83461 2.08635 1.6913C2.14367 1.65445 2.20509 1.62169 2.26242 1.58894C2.53675 1.44972 2.86021 1.33508 3.20006 1.25728C3.544 1.18768 3.87156 1.16311 4.2196 1.17129C4.90747 1.19586 5.57079 1.40878 6.10307 1.63807C6.59442 1.8387 7.08576 2.09256 7.55663 2.39146C7.36009 2.22358 7.17584 2.06799 7.01206 1.93697C7.48702 2.24406 7.93742 2.59209 8.12167 2.71493C9.09207 3.46013 8.61711 2.9606 8.31412 2.57571C8.07254 2.32595 8.4779 2.56752 8.08073 2.19902C8.38782 2.44059 8.53931 2.56753 8.83002 2.82958C8.89554 2.82139 7.89238 2.07209 8.13805 2.19492C8.42467 2.4406 8.76861 2.69445 9.05522 2.9606C9.002 2.81729 8.03569 2.05571 8.1053 2.068C8.29364 2.17855 8.91601 2.82548 9.01428 2.82958C9.03475 2.82958 8.73995 2.56753 8.58845 2.4406C9.05932 2.82548 9.41554 3.13666 9.56294 3.24312C9.71035 3.34958 9.66121 3.24312 9.27633 2.83776C9.56294 3.09981 9.93145 3.50517 10.2181 3.78769C10.0789 3.64029 9.83318 3.38234 9.70625 3.25131L10.1935 3.74265C10.173 3.7099 10.1526 3.67305 10.128 3.6362C10.0133 3.50927 9.8946 3.38233 9.76767 3.2554L10.0911 3.58297C10.0256 3.4847 9.94783 3.37824 9.85775 3.26359C9.49743 2.84595 9.14121 2.44469 8.90782 2.24406C7.97837 1.44972 6.94655 0.70452 5.70181 0.295068C5.08354 0.0903416 4.41613 -0.0243077 3.73644 0.00435394C3.04037 0.0493937 2.41391 0.20499 1.78745 0.507984V0.512077Z" fill="var(--fill-0, #231F20)"/>
</svg>
