<svg xmlns="http://www.w3.org/2000/svg" viewBox="0 0 113.997 47.733" fill="currentColor">
<path id="Vector" d="M18.2079 17.153C20.0179 16.593 21.2079 17.193 22.2479 18.293C22.5079 18.573 22.7179 18.953 23.0479 19.113C24.0579 19.623 24.3479 20.483 24.3479 21.503C24.3479 22.523 24.3479 23.553 24.2479 24.573C23.9379 27.763 23.5979 30.953 23.2279 34.143C22.9479 36.563 22.5979 38.973 22.2679 41.383C22.1779 42.003 21.4879 42.673 20.8779 42.793C20.6779 42.833 20.1579 42.543 19.5579 42.023C19.3779 42.143 19.1779 42.293 18.9679 42.413C18.7479 42.533 18.5179 42.633 18.1979 42.793C18.0179 42.493 17.7679 42.243 17.7479 41.983C17.6979 41.473 17.7479 40.953 17.7979 40.443C18.0379 38.533 18.3879 36.633 18.5079 34.723C18.6079 33.133 18.4279 31.523 18.3779 29.913C17.9479 29.793 17.8579 30.133 17.7479 30.403C16.7479 32.973 15.7479 35.543 14.7579 38.123C14.5979 38.543 14.4079 38.953 14.2779 39.383C13.9879 40.413 13.3779 41.063 12.2679 41.153C11.9079 41.933 11.7079 42.773 10.7279 43.013C9.82789 43.233 9.39789 43.183 8.97789 42.363C8.47789 41.393 8.04789 40.393 7.64789 39.383C7.28789 38.493 7.02789 37.563 6.69789 36.663C6.59789 36.393 6.37789 36.163 6.05789 35.683C5.93789 36.463 5.84789 36.953 5.78789 37.453C5.51789 39.743 5.36789 42.053 4.75789 44.293C4.63789 44.723 4.67789 45.183 4.63789 45.633C4.54789 46.593 4.18789 47.363 3.03789 47.733C2.77789 47.633 2.36789 47.503 1.98789 47.333C1.58789 47.153 1.19789 46.933 0.717889 46.683C0.687889 46.203 0.647889 45.703 0.607889 45.203C0.577889 44.823 0.697889 44.343 0.497889 44.083C-0.0721107 43.333 -0.0121111 42.503 0.0178889 41.683C0.0878889 39.633 0.187889 37.583 0.347889 35.533C0.647889 31.693 0.997889 27.863 1.33789 24.023C1.42789 23.063 1.53789 22.113 1.69789 21.163C1.74789 20.863 1.92789 20.563 2.10789 20.313C2.34789 19.973 2.73789 20.313 2.95789 20.223C4.94789 19.473 6.38789 20.663 7.83789 21.623C8.30789 21.933 8.55789 22.663 8.76789 23.243C9.77789 26.093 10.4979 29.013 11.1279 31.973C11.2179 32.383 11.3579 32.783 11.5579 33.453C11.8479 33.053 12.0279 32.883 12.0979 32.683C12.5579 31.353 12.9579 29.993 13.4479 28.673C14.5279 25.793 15.6379 22.913 16.7879 20.063C17.1879 19.063 17.7479 18.113 18.2279 17.163L18.2079 17.153ZM2.09789 28.563C2.09789 28.563 2.02789 28.563 1.99789 28.563C2.00789 28.893 2.01789 29.223 2.02789 29.563C2.05789 29.563 2.09789 29.563 2.12789 29.563L2.09789 28.563ZM1.71789 32.193H1.80789C1.80789 31.903 1.78789 31.613 1.77789 31.323H1.68789C1.68789 31.613 1.70789 31.903 1.71789 32.193ZM1.10789 37.303C1.10789 37.303 1.16789 37.303 1.19789 37.303C1.20789 37.193 1.23789 37.083 1.23789 36.973C1.23789 36.893 1.17789 36.823 1.14789 36.743L1.10789 37.293V37.303ZM1.41789 34.663C1.47789 34.523 1.54789 34.433 1.53789 34.363C1.51789 34.253 1.44789 34.163 1.39789 34.053L1.41789 34.663ZM2.38789 25.803H2.28789C2.28789 26.043 2.30789 26.273 2.30789 26.503C2.33789 26.503 2.36789 26.503 2.40789 26.503L2.38789 25.803ZM0.857889 40.123V40.423C0.857889 40.423 0.927889 40.343 0.937889 40.303C0.947889 40.253 0.937889 40.193 0.937889 40.153C0.937889 40.133 0.877889 40.133 0.857889 40.123ZM47.7579 31.263C44.7379 30.003 45.1079 30.103 43.6079 28.253C43.7279 27.693 44.0879 27.383 44.6179 27.213C46.1479 26.743 47.6679 26.233 49.2179 25.813C50.6579 25.423 51.6979 25.923 52.4179 27.183C52.7979 27.853 53.2579 28.473 53.6179 29.153C53.9479 29.773 54.2279 30.423 54.4679 31.083C54.6279 31.523 54.5379 31.923 54.1579 32.303C53.8079 32.653 53.5079 33.103 53.3379 33.563C52.2079 36.493 49.9679 38.153 47.0979 39.073C44.3679 39.953 41.7479 39.483 39.2979 38.143C38.7279 37.833 38.2379 37.193 37.9379 36.593C36.9779 34.693 36.3279 32.663 36.3079 30.513C36.2679 26.213 37.1679 22.083 39.0579 18.223C39.7879 16.743 40.7779 15.363 41.8179 14.063C44.3279 10.933 49.1379 10.933 51.6679 13.193C52.1479 13.623 52.6979 13.963 53.1579 14.403C53.9879 15.183 54.4879 16.053 54.2579 17.303C53.9379 19.003 53.7579 20.723 53.5179 22.423C52.8579 22.873 52.2979 23.273 51.7079 23.653C51.5579 23.753 51.3179 23.863 51.1879 23.813C50.2479 23.433 49.4479 24.053 48.5479 24.093C47.9079 23.863 47.5279 23.453 47.5379 22.693C47.5779 20.833 47.5579 18.973 47.5779 17.113C47.5879 16.293 47.6379 15.463 47.6879 14.413C47.2279 14.663 46.8879 14.743 46.7379 14.953C46.2379 15.693 45.7979 16.473 45.3479 17.253C43.5579 20.333 42.7979 23.643 42.9279 27.213C43.0079 29.393 42.8679 31.573 42.8379 33.753C42.8379 34.263 42.8679 34.763 42.8879 35.413C43.3279 35.303 43.6479 35.283 43.8979 35.143C45.4279 34.273 46.6679 33.073 47.6979 31.663C47.7579 31.573 47.7379 31.423 47.7579 31.303V31.263ZM37.5379 27.663H37.4879C37.4879 27.813 37.4879 27.963 37.4979 28.113C37.5179 28.113 37.5279 28.113 37.5479 28.113V27.673L37.5379 27.663ZM68.7879 26.343C68.0479 26.123 67.4479 26.413 67.0779 26.763C66.1779 27.633 65.0279 27.773 63.9379 28.093C63.5679 28.203 63.1979 28.263 62.7279 28.373C62.6179 28.793 62.4679 29.203 62.3879 29.633C62.0979 31.213 61.8479 32.793 61.5379 34.373C61.3779 35.193 61.3379 35.183 60.5079 36.023C60.0179 35.603 59.5379 35.203 58.7379 35.363C58.3479 35.443 57.8379 34.973 57.2879 34.703C57.3079 33.983 57.3379 33.223 57.3579 32.463C57.4479 28.353 57.5379 24.253 57.6079 20.143C57.6179 19.253 57.4879 18.353 57.5079 17.453C57.5479 15.463 57.6179 13.483 57.7479 11.493C57.7879 10.933 58.0079 10.373 58.2279 9.85296C58.2979 9.69296 58.6179 9.59296 58.8379 9.57296C58.9179 9.57296 59.1079 9.85296 59.1179 10.003C59.1179 10.343 59.0479 10.693 59.1479 11.073C59.3479 10.503 59.5479 9.92296 59.7279 9.39296C60.7379 9.25296 61.5379 9.42296 62.2579 10.023C62.5979 10.303 63.0079 10.533 63.4279 10.663C64.3279 10.943 64.5879 11.583 64.5879 12.433C64.5879 14.303 64.4379 16.143 64.1079 17.983C63.8779 19.243 63.6879 20.513 63.5079 21.783C63.4579 22.143 63.5279 22.523 63.5379 23.033C65.5379 22.473 67.3579 21.753 69.2479 20.883C69.2779 20.043 69.3079 19.223 69.3279 18.393C69.3979 15.953 69.4379 13.513 69.5479 11.083C69.5879 10.323 69.7879 9.56296 70.0179 8.83296C70.3079 7.93296 71.6079 7.29296 72.5279 7.59296C72.8579 7.70296 73.1979 7.99296 73.3779 8.29296C73.7279 8.87296 74.0979 9.29296 74.8179 9.42296C75.3879 9.52296 75.6079 10.053 75.6579 10.593C75.7379 11.553 75.8579 12.513 75.8179 13.473C75.7579 14.813 75.5579 16.153 75.4079 17.483C75.3179 18.253 75.1779 19.013 75.1279 19.773C75.0979 20.273 75.1779 20.773 75.2179 21.293C75.8679 21.603 76.4579 21.843 76.9979 22.163C77.4979 22.463 77.4479 23.143 76.9079 23.403C76.3879 23.653 75.8579 23.903 75.3079 24.063C74.3779 24.333 73.9979 24.973 73.8679 25.883C73.6579 27.473 73.4079 29.063 73.1379 30.643C72.9279 31.843 72.6679 33.043 72.0179 34.103C71.7179 34.603 71.3979 35.083 70.6879 35.173C69.5879 34.653 69.9879 33.543 69.7779 32.573C68.9879 32.273 68.7279 31.683 68.8379 30.793C68.9779 29.653 68.9679 28.483 68.9679 27.333C68.9679 26.973 68.8179 26.623 68.7479 26.313L68.7879 26.343ZM70.8879 10.493C70.3479 10.803 70.3679 11.253 70.5179 11.683C70.6279 11.313 70.7579 10.903 70.8879 10.483C70.8879 10.303 70.9079 10.123 70.8879 9.95296C70.8679 9.77296 71.1079 9.52296 70.6779 9.38296C70.7579 9.80296 70.8179 10.143 70.8779 10.493H70.8879ZM85.3979 32.653C85.0879 32.413 84.8579 32.113 84.5679 32.053C83.2379 31.753 82.9079 30.773 82.8879 29.623C82.8679 28.343 82.9179 27.053 82.9879 25.773C83.2479 20.963 83.5279 16.153 83.7879 11.343C83.7879 11.163 83.7379 10.973 83.6879 10.653C82.6779 10.483 81.6979 11.073 80.6979 10.883C79.7579 10.703 78.8279 10.503 77.9379 10.323C77.5079 9.26296 77.1279 8.33296 76.7079 7.32296C77.0379 7.05296 77.3379 6.70296 77.7179 6.50296C78.3379 6.17296 78.9879 5.84296 79.6579 5.68296C83.8379 4.68296 88.0379 3.73296 92.2279 2.77296C93.3079 2.52296 94.2679 2.62296 94.8379 3.77296C94.9279 3.95296 95.2379 4.03296 95.4479 4.14296C95.8379 4.35296 96.2479 4.53296 96.6279 4.77296C96.8679 4.93296 96.8279 5.47296 96.5679 5.61296C96.1779 5.82296 95.7479 5.97296 95.3579 6.20296C95.1579 6.32296 94.8879 6.52296 94.8679 6.71296C94.7879 7.44296 94.2779 7.65296 93.7079 7.82296C92.4879 8.19296 91.2679 8.55296 90.0279 8.91296C89.9679 9.25296 89.8579 9.49296 89.8779 9.73296C90.1279 13.213 89.6379 16.663 89.3379 20.113C89.1079 22.733 88.7979 25.333 88.4979 27.943C88.3979 28.823 88.0979 29.663 88.1579 30.583C88.2079 31.453 87.5579 31.963 86.8279 32.293C86.4279 32.473 85.9579 32.513 85.3779 32.653H85.3979ZM84.4979 12.883H84.4179C84.3979 13.313 84.3879 13.733 84.3679 14.153C84.4179 14.153 84.4779 14.153 84.5279 14.153C84.5179 13.733 84.4979 13.303 84.4879 12.883H84.4979ZM84.2479 15.893C84.2479 15.893 84.1979 15.893 84.1679 15.893L84.1879 16.623C84.1879 16.623 84.2379 16.623 84.2679 16.623C84.2679 16.383 84.2479 16.133 84.2479 15.893ZM83.9779 19.763C83.9779 19.763 83.9379 19.763 83.9179 19.763C83.9179 19.883 83.8979 20.003 83.8979 20.123C83.8979 20.243 83.9179 20.363 83.9279 20.483C83.9479 20.383 83.9879 20.293 83.9879 20.193C83.9879 20.053 83.9879 19.903 83.9779 19.763ZM84.7479 10.883L84.8279 10.773L84.7179 10.743L84.7479 10.883ZM105.108 9.99296C105.478 9.22296 105.658 8.89296 105.788 8.54296C106.278 7.22296 106.718 5.87296 107.248 4.57296C107.708 3.44296 108.198 2.32296 108.788 1.26296C109.578 -0.137042 111.288 -0.397042 112.538 0.602958C112.978 0.962958 113.418 1.32296 113.898 1.72296C114.108 2.38296 113.948 3.05296 113.758 3.74296C113.218 5.68296 112.338 7.46296 111.308 9.17296C109.948 11.433 108.768 13.783 107.768 16.223C107.478 16.923 107.268 17.683 107.158 18.433C106.688 21.543 106.258 24.653 105.828 27.773C105.748 28.353 105.658 28.893 105.178 29.323C104.568 29.863 104.158 29.933 103.518 29.363C102.908 28.823 102.268 28.353 101.358 27.983C101.348 27.573 101.328 27.063 101.308 26.563C101.208 23.033 101.118 19.503 100.998 15.973C100.978 15.463 100.888 14.953 100.758 14.453C99.8879 11.103 98.9979 7.75296 98.1179 4.40296C97.9779 3.85296 97.8879 3.29296 97.7979 2.88296C98.0979 2.36296 98.6879 2.89296 98.7879 2.32296C98.8779 1.83296 99.1779 1.51296 99.6479 1.38296C99.9379 1.30296 100.258 1.27296 100.548 1.32296C100.788 1.36296 101.018 1.68296 101.218 1.65296C102.468 1.41296 102.788 2.28296 103.048 3.16296C103.568 4.88296 104.018 6.61296 104.518 8.34296C104.638 8.75296 104.808 9.15296 105.108 9.99296ZM102.088 18.473C102.088 18.473 102.048 18.473 102.018 18.473C102.018 18.713 102.038 18.953 102.048 19.343C102.068 18.943 102.078 18.703 102.088 18.463V18.473ZM29.0479 17.083C29.2079 16.983 29.4679 16.903 29.4979 16.783C29.7279 15.703 30.4679 15.343 31.4779 15.353C31.7279 15.353 31.9879 15.333 32.2079 15.333C34.4679 17.273 34.8179 19.023 33.4479 21.303C33.6079 21.653 33.9679 22.073 33.8679 22.313C33.4479 23.363 33.6179 24.463 33.4779 25.533C33.0879 28.513 32.7779 31.513 32.4779 34.503C32.3979 35.323 32.5479 36.183 32.4079 36.993C32.1879 38.253 31.8479 39.493 31.4979 40.723C31.3979 41.063 31.1179 41.383 30.8679 41.653C30.5479 41.983 30.0279 41.933 29.6879 41.583C29.4679 41.353 29.3279 41.023 29.0679 40.863C28.6979 40.633 28.2679 40.513 27.7679 40.313C27.6579 39.523 27.8879 38.523 26.9279 38.003C26.8379 37.433 26.6879 36.873 26.6679 36.303C26.6379 35.343 26.6579 34.373 26.7179 33.423C27.0479 28.373 27.2779 23.313 28.1379 18.303C28.2679 17.563 28.3379 16.813 28.8879 16.213C29.3079 16.513 29.1179 16.823 29.0479 17.113C29.0579 17.413 29.0679 17.713 29.0779 18.003C29.1079 18.003 29.1479 18.003 29.1779 18.003C29.1379 17.703 29.0979 17.403 29.0479 17.103V17.083ZM28.0479 31.633C27.8779 31.813 27.6079 31.963 27.5679 32.163C27.4079 32.903 27.4879 33.643 27.6479 34.393C27.7579 33.763 27.7479 33.143 27.7979 32.513C27.8179 32.213 27.9579 31.923 28.0379 31.623C28.0479 31.123 28.0779 30.613 28.0679 30.113C28.0579 29.743 27.9879 29.383 27.8979 28.683C27.5779 29.933 27.6579 30.793 28.0479 31.633ZM28.4179 24.033C28.4179 24.033 28.4979 24.033 28.5379 24.033C28.5279 23.603 28.5079 23.183 28.4979 22.753H28.3779C28.3879 23.183 28.4079 23.603 28.4179 24.033ZM28.1379 27.223C28.1379 27.223 28.2279 27.223 28.2779 27.223L28.2279 25.793C28.2279 25.793 28.1379 25.793 28.0879 25.793C28.1079 26.273 28.1179 26.743 28.1379 27.223ZM28.7279 20.323V20.643C28.7279 20.643 28.8079 20.553 28.8179 20.513C28.8279 20.463 28.8179 20.403 28.8179 20.343C28.8179 20.323 28.7579 20.323 28.7379 20.313L28.7279 20.323Z" fill="currentColor"/>
</svg>