<svg overflow="visible" style="display: block;" viewBox="0 0 37.7602 53.0241" fill="none" xmlns="http://www.w3.org/2000/svg">
<path id="Vector" d="M25.0463 0.745277C27.761 -0.610009 29.796 0.0287372 31.7245 1.49458C32.2077 1.87127 32.6376 2.41584 33.2026 2.58372C34.9305 3.12829 35.6143 4.40987 35.8763 6.02311C36.1425 7.63635 36.4086 9.26188 36.5151 10.8997C36.8549 16.0219 37.1497 21.1483 37.3913 26.2869C37.5797 30.1849 37.6534 34.0829 37.7598 37.9768C37.7803 38.9799 36.8631 40.2165 35.9296 40.5645C35.6225 40.6791 34.7258 40.3557 33.6448 39.6924C33.391 39.9298 33.1166 40.2165 32.8136 40.4621C32.4984 40.7078 32.1585 40.9248 31.6958 41.2647C31.3314 40.8388 30.8728 40.5072 30.7746 40.1018C30.5617 39.3075 30.5084 38.4763 30.4511 37.6574C30.3324 34.5783 30.3938 31.4828 30.0867 28.4365C29.8328 25.8979 29.1286 23.4003 28.6291 20.8698C27.9166 20.792 27.8634 21.353 27.761 21.8075C26.8479 26.1272 25.9389 30.4469 25.0463 34.783C24.903 35.4873 24.7106 36.1874 24.6164 36.8999C24.4281 38.6032 23.6296 39.7865 21.9018 40.2205C21.5373 41.5472 21.4391 42.927 19.9528 43.5617C18.5893 44.1431 17.8973 44.1759 17.017 42.9884C15.9729 41.584 15.0352 40.1182 14.1385 38.6278C13.3401 37.3134 12.685 35.9131 11.9316 34.5783C11.7023 34.177 11.2969 33.8699 10.6664 33.1984C10.6787 34.4636 10.6664 35.258 10.6991 36.0646C10.867 39.7538 11.2314 43.4429 10.8506 47.1403C10.7728 47.8527 10.9571 48.5693 11.0103 49.2899C11.1168 50.8294 10.7483 52.1397 9.02858 53.0241C8.59047 52.934 7.91077 52.8358 7.26384 52.6638C6.58415 52.4836 5.91265 52.238 5.08965 51.9677C4.91768 51.2184 4.72524 50.4364 4.5328 49.6584C4.38539 49.0647 4.45091 48.2745 4.06602 47.9182C2.96869 46.8823 2.84995 45.5557 2.68207 44.2496C2.26034 40.9944 1.88364 37.727 1.60521 34.4473C1.08112 28.3014 0.638908 22.1596 0.176227 16.0056C0.0697694 14.466 -0.00393206 12.9347 0.000162456 11.3951C0.000162456 10.9079 0.208982 10.3879 0.425991 9.94566C0.716702 9.34786 1.42096 9.78188 1.74443 9.58125C4.69248 7.87793 7.27612 9.38471 9.81882 10.523C10.6418 10.8915 11.2273 11.9806 11.7105 12.8405C14.0485 17.0824 15.9442 21.5086 17.709 26.0208C17.9587 26.6431 18.3887 24.8948 18.8759 25.902C19.228 25.1937 19.3672 27.2245 19.4246 26.8888C19.8054 24.6696 20.0838 22.4135 20.5137 20.2024C21.4718 15.3709 22.475 10.5312 23.5518 5.72831C23.9244 4.04546 24.5632 2.39946 25.0709 0.769845L25.0382 0.75756L25.0463 0.745277Z" fill="var(--fill-0, #010101)"/>
</svg>
