<svg overflow="visible" style="display: block;" viewBox="0 0 609.82 550.654" fill="none" xmlns="http://www.w3.org/2000/svg">
<g id="Cross Hatch_Yellow" clip-path="url(#clip0_0_190)">
<path id="Vector" d="M610.337 -2.46779H-1.53403V549.638H610.337V-2.46779Z" fill="var(--fill-0, #F1B71C)"/>
<path id="Vector_2" d="M609.82 91.6077V62.088H608.804V91.6077H581.184H609.82Z" fill="var(--fill-0, #F9DB9E)" fill-opacity="0.6"/>
<path id="Vector_3" d="M609.82 122.143V91.6074H581.064V92.6236H608.804V122.143H581.064H609.82ZM580.041 91.6074H550.528V92.6236H580.041V91.6074ZM549.518 91.6074H520.011V92.6236H549.518V91.6074ZM518.989 91.6074H489.475V92.6236H518.989V91.6074ZM488.459 91.6074H458.952V92.6236H488.459V91.6074ZM457.93 91.6074H428.416V92.6236H457.93V91.6074ZM427.4 91.6074H397.887V92.6236H427.4V91.6074ZM396.871 91.6074H367.357V92.6236H396.871V91.6074ZM366.341 91.6074H336.828V92.6236H366.341V91.6074ZM335.818 91.6074H306.305V92.6236H335.818V91.6074ZM305.288 91.6074H275.775V92.6236H305.288V91.6074ZM274.759 91.6074H245.246V92.6236H274.759V91.6074ZM244.229 91.6074H214.716V92.6236H244.229V91.6074ZM213.7 91.6074H184.187V92.6236H213.7V91.6074ZM183.17 91.6074H153.657V92.6236H183.17V91.6074ZM152.641 91.6074H123.128V92.6236H152.641V91.6074ZM122.111 91.6074H92.5981V92.6236H122.111V91.6074ZM91.5882 91.6074H62.0749V92.6236H91.5882V91.6074ZM61.0587 91.6074H31.5454V92.6236H61.0587V91.6074ZM30.5292 91.6074H1.01591V92.6236H30.5292V91.6074Z" fill="var(--fill-0, #F9DB9E)" fill-opacity="0.6"/>
<path id="Vector_4" d="M609.82 152.679V122.143H581.064V123.159H608.804V152.679H581.064H609.82ZM580.041 122.143H550.528V123.159H580.041V122.143ZM549.518 122.143H520.011V123.159H549.518V122.143ZM518.989 122.143H489.475V123.159H518.989V122.143ZM488.459 122.143H458.952V123.159H488.459V122.143ZM457.93 122.143H428.416V123.159H457.93V122.143ZM427.4 122.143H397.887V123.159H427.4V122.143ZM396.871 122.143H367.357V123.159H396.871V122.143ZM366.341 122.143H336.828V123.159H366.341V122.143ZM335.818 122.143H306.305V123.159H335.818V122.143ZM305.288 122.143H275.775V123.159H305.288V122.143ZM274.759 122.143H245.246V123.159H274.759V122.143ZM244.229 122.143H214.716V123.159H244.229V122.143ZM213.7 122.143H184.187V123.159H213.7V122.143ZM183.17 122.143H153.657V123.159H183.17V122.143ZM152.641 122.143H123.128V123.159H152.641V122.143ZM122.111 122.143H92.5981V123.159H122.111V122.143ZM91.5882 122.143H62.0749V123.159H91.5882V122.143ZM61.0587 122.143H31.5454V123.159H61.0587V122.143ZM30.5292 122.143H1.01591V123.159H30.5292V122.143Z" fill="var(--fill-0, #F9DB9E)" fill-opacity="0.6"/>
<path id="Vector_5" d="M609.82 183.209V152.673H581.064V153.689H608.804V183.209H581.064H609.82ZM580.041 152.679H550.528V153.695H580.041V152.679ZM549.518 152.679H520.011V153.695H549.518V152.679ZM518.989 152.679H489.475V153.695H518.989V152.679ZM488.459 152.679H458.952V153.695H488.459V152.679ZM457.93 152.679H428.416V153.695H457.93V152.679ZM427.4 152.679H397.887V153.695H427.4V152.679ZM396.871 152.679H367.357V153.695H396.871V152.679ZM366.341 152.679H336.828V153.695H366.341V152.679ZM335.818 152.679H306.305V153.695H335.818V152.679ZM305.288 152.679H275.775V153.695H305.288V152.679ZM274.759 152.679H245.246V153.695H274.759V152.679ZM244.229 152.679H214.716V153.695H244.229V152.679ZM213.7 152.679H184.187V153.695H213.7V152.679ZM183.17 152.679H153.657V153.695H183.17V152.679ZM152.641 152.679H123.128V153.695H152.641V152.679ZM122.111 152.679H92.5981V153.695H122.111V152.679ZM91.5882 152.679H62.0749V153.695H91.5882V152.679ZM61.0587 152.679H31.5454V153.695H61.0587V152.679ZM30.5292 152.679H1.01591V153.695H30.5292V152.679Z" fill="var(--fill-0, #F9DB9E)" fill-opacity="0.6"/>
<path id="Vector_6" d="M609.82 213.744V183.208H581.064V184.225H608.804V213.744H581.064H609.82ZM580.041 183.208H550.528V184.225H580.041V183.208ZM549.518 183.208H520.011V184.225H549.518V183.208ZM518.989 183.208H489.475V184.225H518.989V183.208ZM488.459 183.208H458.952V184.225H488.459V183.208ZM457.93 183.208H428.416V184.225H457.93V183.208ZM427.4 183.208H397.887V184.225H427.4V183.208ZM396.871 183.208H367.357V184.225H396.871V183.208ZM366.341 183.208H336.828V184.225H366.341V183.208ZM335.818 183.208H306.305V184.225H335.818V183.208ZM305.288 183.208H275.775V184.225H305.288V183.208ZM274.759 183.208H245.246V184.225H274.759V183.208ZM244.229 183.208H214.716V184.225H244.229V183.208ZM213.7 183.208H184.187V184.225H213.7V183.208ZM183.17 183.208H153.657V184.225H183.17V183.208ZM152.641 183.208H123.128V184.225H152.641V183.208ZM122.111 183.208H92.5981V184.225H122.111V183.208ZM91.5882 183.208H62.0749V184.225H91.5882V183.208ZM61.0587 183.208H31.5454V184.225H61.0587V183.208ZM30.5292 183.208H1.01591V184.225H30.5292V183.208Z" fill="var(--fill-0, #F9DB9E)" fill-opacity="0.6"/>
<path id="Vector_7" d="M609.82 244.281V213.745H581.064V214.761H608.804V244.281H581.064H609.82ZM580.041 213.745H550.528V214.761H580.041V213.745ZM549.518 213.745H520.011V214.761H549.518V213.745ZM518.989 213.745H489.475V214.761H518.989V213.745ZM488.459 213.745H458.952V214.761H488.459V213.745ZM457.93 213.745H428.416V214.761H457.93V213.745ZM427.4 213.745H397.887V214.761H427.4V213.745ZM396.871 213.745H367.357V214.761H396.871V213.745ZM366.341 213.745H336.828V214.761H366.341V213.745ZM335.818 213.745H306.305V214.761H335.818V213.745ZM305.288 213.745H275.775V214.761H305.288V213.745ZM274.759 213.745H245.246V214.761H274.759V213.745ZM244.229 213.745H214.716V214.761H244.229V213.745ZM213.7 213.745H184.187V214.761H213.7V213.745ZM183.17 213.745H153.657V214.761H183.17V213.745ZM152.641 213.745H123.128V214.761H152.641V213.745ZM122.111 213.745H92.5981V214.761H122.111V213.745ZM91.5882 213.745H62.0749V214.761H91.5882V213.745ZM61.0587 213.745H31.5454V214.761H61.0587V213.745ZM30.5292 213.745H1.01591V214.761H30.5292V213.745Z" fill="var(--fill-0, #F9DB9E)" fill-opacity="0.6"/>
<path id="Vector_8" d="M609.82 274.816V244.281H581.064V245.297H608.804V274.816H581.064H609.82ZM580.041 244.281H550.528V245.297H580.041V244.281ZM549.518 244.281H520.011V245.297H549.518V244.281ZM518.989 244.281H489.475V245.297H518.989V244.281ZM488.459 244.281H458.952V245.297H488.459V244.281ZM457.93 244.281H428.416V245.297H457.93V244.281ZM427.4 244.281H397.887V245.297H427.4V244.281ZM396.871 244.281H367.357V245.297H396.871V244.281ZM366.341 244.281H336.828V245.297H366.341V244.281ZM335.818 244.281H306.305V245.297H335.818V244.281ZM305.288 244.281H275.775V245.297H305.288V244.281ZM274.759 244.281H245.246V245.297H274.759V244.281ZM244.229 244.281H214.716V245.297H244.229V244.281ZM213.7 244.281H184.187V245.297H213.7V244.281ZM183.17 244.281H153.657V245.297H183.17V244.281ZM152.641 244.281H123.128V245.297H152.641V244.281ZM122.111 244.281H92.5981V245.297H122.111V244.281ZM91.5882 244.281H62.0749V245.297H91.5882V244.281ZM61.0587 244.281H31.5454V245.297H61.0587V244.281ZM30.5292 244.281H1.01591V245.297H30.5292V244.281Z" fill="var(--fill-0, #F9DB9E)" fill-opacity="0.6"/>
<path id="Vector_9" d="M609.82 305.352V274.816H581.064V275.832H608.804V305.352H581.064H609.82ZM580.041 274.816H550.528V275.832H580.041V274.816ZM549.518 274.816H520.011V275.832H549.518V274.816ZM518.989 274.816H489.475V275.832H518.989V274.816ZM488.459 274.816H458.952V275.832H488.459V274.816ZM457.93 274.816H428.416V275.832H457.93V274.816ZM427.4 274.816H397.887V275.832H427.4V274.816ZM396.871 274.816H367.357V275.832H396.871V274.816ZM366.341 274.816H336.828V275.832H366.341V274.816ZM335.818 274.816H306.305V275.832H335.818V274.816ZM305.288 274.816H275.775V275.832H305.288V274.816ZM274.759 274.816H245.246V275.832H274.759V274.816ZM244.229 274.816H214.716V275.832H244.229V274.816ZM213.7 274.816H184.187V275.832H213.7V274.816ZM183.17 274.816H153.657V275.832H183.17V274.816ZM152.641 274.816H123.128V275.832H152.641V274.816ZM122.111 274.816H92.5981V275.832H122.111V274.816ZM91.5882 274.816H62.0749V275.832H91.5882V274.816ZM61.0587 274.816H31.5454V275.832H61.0587V274.816ZM30.5292 274.816H1.01591V275.832H30.5292V274.816Z" fill="var(--fill-0, #F9DB9E)" fill-opacity="0.6"/>
<path id="Vector_10" d="M609.82 335.888V305.352H581.064V306.368H608.804V335.888H581.064H609.82ZM580.041 305.352H550.528V306.368H580.041V305.352ZM549.518 305.352H520.011V306.368H549.518V305.352ZM518.989 305.352H489.475V306.368H518.989V305.352ZM488.459 305.352H458.952V306.368H488.459V305.352ZM457.93 305.352H428.416V306.368H457.93V305.352ZM427.4 305.352H397.887V306.368H427.4V305.352ZM396.871 305.352H367.357V306.368H396.871V305.352ZM366.341 305.352H336.828V306.368H366.341V305.352ZM335.818 305.352H306.305V306.368H335.818V305.352ZM305.288 305.352H275.775V306.368H305.288V305.352ZM274.759 305.352H245.246V306.368H274.759V305.352ZM244.229 305.352H214.716V306.368H244.229V305.352ZM213.7 305.352H184.187V306.368H213.7V305.352ZM183.17 305.352H153.657V306.368H183.17V305.352ZM152.641 305.352H123.128V306.368H152.641V305.352ZM122.111 305.352H92.5981V306.368H122.111V305.352ZM91.5882 305.352H62.0749V306.368H91.5882V305.352ZM61.0587 305.352H31.5454V306.368H61.0587V305.352ZM30.5292 305.352H1.01591V306.368H30.5292V305.352Z" fill="var(--fill-0, #F9DB9E)" fill-opacity="0.6"/>
<path id="Vector_11" d="M609.82 366.424V335.888H581.064V336.904H608.804V366.424H581.064H609.82ZM580.041 335.888H550.528V336.904H580.041V335.888ZM549.518 335.888H520.011V336.904H549.518V335.888ZM518.989 335.888H489.475V336.904H518.989V335.888ZM488.459 335.888H458.952V336.904H488.459V335.888ZM457.93 335.888H428.416V336.904H457.93V335.888ZM427.4 335.888H397.887V336.904H427.4V335.888ZM396.871 335.888H367.357V336.904H396.871V335.888ZM366.341 335.888H336.828V336.904H366.341V335.888ZM335.818 335.888H306.305V336.904H335.818V335.888ZM305.288 335.888H275.775V336.904H305.288V335.888ZM274.759 335.888H245.246V336.904H274.759V335.888ZM244.229 335.888H214.716V336.904H244.229V335.888ZM213.7 335.888H184.187V336.904H213.7V335.888ZM183.17 335.888H153.657V336.904H183.17V335.888ZM152.641 335.888H123.128V336.904H152.641V335.888ZM122.111 335.888H92.5981V336.904H122.111V335.888ZM91.5882 335.888H62.0749V336.904H91.5882V335.888ZM61.0587 335.888H31.5454V336.904H61.0587V335.888ZM30.5292 335.888H1.01591V336.904H30.5292V335.888Z" fill="var(--fill-0, #F9DB9E)" fill-opacity="0.6"/>
<path id="Vector_12" d="M609.82 396.959V366.423H581.064V367.44H608.804V396.953H581.064H609.82V396.959ZM580.041 366.423H550.528V367.44H580.041V366.423ZM549.518 366.423H520.011V367.44H549.518V366.423ZM518.989 366.423H489.475V367.44H518.989V366.423ZM488.459 366.423H458.952V367.44H488.459V366.423ZM457.93 366.423H428.416V367.44H457.93V366.423ZM427.4 366.423H397.887V367.44H427.4V366.423ZM396.871 366.423H367.357V367.44H396.871V366.423ZM366.341 366.423H336.828V367.44H366.341V366.423ZM335.818 366.423H306.305V367.44H335.818V366.423ZM305.288 366.423H275.775V367.44H305.288V366.423ZM274.759 366.423H245.246V367.44H274.759V366.423ZM244.229 366.423H214.716V367.44H244.229V366.423ZM213.7 366.423H184.187V367.44H213.7V366.423ZM183.17 366.423H153.657V367.44H183.17V366.423ZM152.641 366.423H123.128V367.44H152.641V366.423ZM122.111 366.423H92.5981V367.44H122.111V366.423ZM91.5882 366.423H62.0749V367.44H91.5882V366.423ZM61.0587 366.423H31.5454V367.44H61.0587V366.423ZM30.5292 366.423H1.01591V367.44H30.5292V366.423Z" fill="var(--fill-0, #F9DB9E)" fill-opacity="0.6"/>
<path id="Vector_13" d="M609.82 427.495V396.959H581.064V397.975H608.804V427.495H581.064H609.82ZM580.041 396.959H550.528V397.975H580.041V396.959ZM549.518 396.959H520.011V397.975H549.518V396.959ZM518.989 396.959H489.475V397.975H518.989V396.959ZM488.459 396.959H458.952V397.975H488.459V396.959ZM457.93 396.959H428.416V397.975H457.93V396.959ZM427.4 396.959H397.887V397.975H427.4V396.959ZM396.871 396.959H367.357V397.975H396.871V396.959ZM366.341 396.959H336.828V397.975H366.341V396.959ZM335.818 396.959H306.305V397.975H335.818V396.959ZM305.288 396.959H275.775V397.975H305.288V396.959ZM274.759 396.959H245.246V397.975H274.759V396.959ZM244.229 396.959H214.716V397.975H244.229V396.959ZM213.7 396.959H184.187V397.975H213.7V396.959ZM183.17 396.959H153.657V397.975H183.17V396.959ZM152.641 396.959H123.128V397.975H152.641V396.959ZM122.111 396.959H92.5981V397.975H122.111V396.959ZM91.5882 396.959H62.0749V397.975H91.5882V396.959ZM61.0587 396.959H31.5454V397.975H61.0587V396.959ZM30.5292 396.959H1.01591V397.975H30.5292V396.959Z" fill="var(--fill-0, #F9DB9E)" fill-opacity="0.6"/>
<path id="Vector_14" d="M609.82 458.031V427.495H581.064V428.511H608.804V458.031H581.064H609.82ZM580.041 427.495H550.528V428.511H580.041V427.495ZM549.518 427.495H520.011V428.511H549.518V427.495ZM518.989 427.495H489.475V428.511H518.989V427.495ZM488.459 427.495H458.952V428.511H488.459V427.495ZM457.93 427.495H428.416V428.511H457.93V427.495ZM427.4 427.495H397.887V428.511H427.4V427.495ZM396.871 427.495H367.357V428.511H396.871V427.495ZM366.341 427.495H336.828V428.511H366.341V427.495ZM335.818 427.495H306.305V428.511H335.818V427.495ZM305.288 427.495H275.775V428.511H305.288V427.495ZM274.759 427.495H245.246V428.511H274.759V427.495ZM244.229 427.495H214.716V428.511H244.229V427.495ZM213.7 427.495H184.187V428.511H213.7V427.495ZM183.17 427.495H153.657V428.511H183.17V427.495ZM152.641 427.495H123.128V428.511H152.641V427.495ZM122.111 427.495H92.5981V428.511H122.111V427.495ZM91.5882 427.495H62.0749V428.511H91.5882V427.495ZM61.0587 427.495H31.5454V428.511H61.0587V427.495ZM30.5292 427.495H1.01591V428.511H30.5292V427.495Z" fill="var(--fill-0, #F9DB9E)" fill-opacity="0.6"/>
<path id="Vector_15" d="M609.82 488.56V458.025H581.064V459.041H608.804V488.56H581.064H609.82ZM580.041 458.031H550.528V459.047H580.041V458.031ZM549.518 458.031H520.011V459.047H549.518V458.031ZM518.989 458.031H489.475V459.047H518.989V458.031ZM488.459 458.031H458.952V459.047H488.459V458.031ZM457.93 458.031H428.416V459.047H457.93V458.031ZM427.4 458.031H397.887V459.047H427.4V458.031ZM396.871 458.031H367.357V459.047H396.871V458.031ZM366.341 458.031H336.828V459.047H366.341V458.031ZM335.818 458.031H306.305V459.047H335.818V458.031ZM305.288 458.031H275.775V459.047H305.288V458.031ZM274.759 458.031H245.246V459.047H274.759V458.031ZM244.229 458.031H214.716V459.047H244.229V458.031ZM213.7 458.031H184.187V459.047H213.7V458.031ZM183.17 458.031H153.657V459.047H183.17V458.031ZM153.272 458.031H123.128V459.047H153.272V458.031ZM122.743 458.031H92.5981V459.047H122.743V458.031ZM92.2194 458.031H62.0749V459.047H92.2194V458.031ZM61.6899 458.031H31.5454V459.047H61.6899V458.031ZM31.1604 458.031H1.01591V459.047H31.1604V458.031Z" fill="var(--fill-0, #F9DB9E)" fill-opacity="0.6"/>
<path id="Vector_16" d="M609.82 519.096V488.56H581.064V489.576H608.804V519.096H581.064H609.82ZM580.672 488.56H550.528V489.576H580.672V488.56ZM550.149 488.56H520.011V489.576H550.149V488.56ZM519.62 488.56H489.475V489.576H519.62V488.56ZM489.09 488.56H458.952V489.576H489.09V488.56ZM458.561 488.56H428.416V489.576H458.561V488.56ZM428.031 488.56H397.887V489.576H428.031V488.56ZM397.502 488.56H367.357V489.576H397.502V488.56ZM366.972 488.56H336.828V489.576H366.972V488.56ZM336.449 488.56H306.305V489.576H336.449V488.56ZM305.92 488.56H275.775V489.576H305.92V488.56ZM275.39 488.56H245.246V489.576H275.39V488.56ZM244.861 488.56H214.716V489.576H244.861V488.56ZM214.331 488.56H184.187V489.576H214.331V488.56ZM183.802 488.56H153.657V489.576H183.802V488.56ZM153.272 488.56H123.128V489.576H153.272V488.56ZM122.743 488.56H92.5981V489.576H122.743V488.56ZM92.2194 488.56H62.0749V489.576H92.2194V488.56ZM61.6899 488.56H30.9142V489.576H61.6899V488.56ZM31.1604 488.56H1.01591V489.576H31.1604V488.56Z" fill="var(--fill-0, #F9DB9E)" fill-opacity="0.6"/>
<path id="Vector_17" d="M609.82 549.632V519.097H581.064V520.113H608.804V549.632H581.064H609.82ZM581.304 519.097H550.528V520.113H581.304V519.097ZM550.149 519.097H520.011V520.113H550.149V519.097ZM519.62 519.097H489.475V520.113H519.62V519.097ZM489.09 519.097H458.952V520.113H489.09V519.097ZM458.561 519.097H428.416V520.113H458.561V519.097ZM428.031 519.097H397.887V520.113H428.031V519.097ZM397.502 519.097H367.357V520.113H397.502V519.097ZM366.972 519.097H336.828V520.113H366.972V519.097ZM336.449 519.097H306.305V520.113H336.449V519.097ZM305.92 519.097H275.775V520.113H305.92V519.097ZM275.39 519.097H245.246V520.113H275.39V519.097ZM244.861 519.097H214.716V520.113H244.861V519.097ZM214.331 519.097H184.187V520.113H214.331V519.097ZM183.802 519.097H153.657V520.113H183.802V519.097ZM153.272 519.097H123.128V520.113H153.272V519.097ZM122.743 519.097H92.5981V520.113H122.743V519.097ZM92.2194 519.097H62.0749V520.113H92.2194V519.097ZM61.6899 519.097H31.5454V520.113H61.6899V519.097ZM30.5292 519.097H1.01591V520.113H30.5292V519.097Z" fill="var(--fill-0, #F9DB9E)" fill-opacity="0.6"/>
<path id="Vector_18" d="M581.184 91.6078V306.375V62.0882V91.6078Z" fill="var(--fill-0, #F9DB9E)" fill-opacity="0.6"/>
<path id="Vector_19" d="M580.168 62.0882V549.632H550.648V550.649H581.184V62.0882H580.168ZM580.168 61.072H581.184V31.5524H580.168V61.072ZM550.654 1.01657H580.174V30.5362H581.19V1.01657H550.654Z" fill="var(--fill-0, #F9DB9E)" fill-opacity="0.6"/>
<path id="Vector_20" d="M549.632 62.0882V549.632H520.112V550.649H550.648V62.0882H549.632ZM549.632 61.072H550.648V31.5524H549.632V61.072ZM520.118 1.01657H549.638V30.5362H550.654V1.01657H520.118Z" fill="var(--fill-0, #F9DB9E)" fill-opacity="0.6"/>
<path id="Vector_21" d="M519.096 62.0882V549.632H489.576V550.649H520.112V62.0882H519.096ZM519.096 61.072H520.112V31.5524H519.096V61.072ZM489.583 1.01657H519.102V30.5362H520.119V1.01657H489.583Z" fill="var(--fill-0, #F9DB9E)" fill-opacity="0.6"/>
<path id="Vector_22" d="M488.566 62.0882V549.632H459.047V550.649H489.583V62.0882H488.566ZM488.566 61.072H489.583V31.5524H488.566V61.072ZM459.047 1.01657H488.566V30.5362H489.583V1.01657H459.047Z" fill="var(--fill-0, #F9DB9E)" fill-opacity="0.6"/>
<path id="Vector_23" d="M458.031 62.0882V549.632H428.511V550.649H459.047V62.0882H458.031ZM458.031 61.072H459.047V31.5524H458.031V61.072ZM428.511 1.01657H458.031V30.5362H459.047V1.01657H428.511Z" fill="var(--fill-0, #F9DB9E)" fill-opacity="0.6"/>
<path id="Vector_24" d="M427.495 62.0882V549.632H397.975V550.649H428.511V62.0882H427.495ZM427.495 61.072H428.511V31.5524H427.495V61.072ZM397.975 1.01657H427.495V30.5362H428.511V1.01657H397.975Z" fill="var(--fill-0, #F9DB9E)" fill-opacity="0.6"/>
<path id="Vector_25" d="M396.959 62.0882V549.632H367.44V550.649H397.975V62.0882H396.959ZM396.959 61.072H397.975V31.5524H396.959V61.072ZM367.44 1.01657H396.959V30.5362H397.975V1.01657H367.44Z" fill="var(--fill-0, #F9DB9E)" fill-opacity="0.6"/>
<path id="Vector_26" d="M366.423 62.0882V549.632H336.904V550.649H367.44V62.0882H366.423ZM366.423 61.072H367.44V31.5524H366.423V61.072ZM336.904 1.01657H366.423V30.5362H367.44V1.01657H336.904Z" fill="var(--fill-0, #F9DB9E)" fill-opacity="0.6"/>
<path id="Vector_27" d="M335.887 62.0882V549.632H306.368V550.649H336.904V62.0882H335.887ZM335.887 61.072H336.904V31.5524H335.887V61.072ZM306.368 1.01657H335.887V30.5362H336.904V1.01657H306.368Z" fill="var(--fill-0, #F9DB9E)" fill-opacity="0.6"/>
<path id="Vector_28" d="M305.352 62.0882V549.632H275.832V550.649H306.368V62.0882H305.352ZM305.352 61.072H306.368V31.5524H305.352V61.072ZM275.832 1.01657H305.352V30.5362H306.368V1.01657H275.832Z" fill="var(--fill-0, #F9DB9E)" fill-opacity="0.6"/>
<path id="Vector_29" d="M274.816 62.0882V549.632H245.296V550.649H275.832V62.0882H274.816ZM274.816 61.072H275.832V31.5524H274.816V61.072ZM245.303 1.01657H274.822V30.5362H275.838V1.01657H245.303Z" fill="var(--fill-0, #F9DB9E)" fill-opacity="0.6"/>
<path id="Vector_30" d="M244.28 62.0882V549.632H214.76V550.649H245.296V62.0882H244.28ZM244.28 61.072H245.296V31.5524H244.28V61.072ZM214.767 1.01657H244.286V30.5362H245.302V1.01657H214.767Z" fill="var(--fill-0, #F9DB9E)" fill-opacity="0.6"/>
<path id="Vector_31" d="M213.744 62.0882V549.632H184.224V550.649H214.76V62.0882H213.744ZM213.744 61.072H214.76V31.5524H213.744V61.072ZM184.231 1.01657H213.75V30.5362H214.767V1.01657H184.231Z" fill="var(--fill-0, #F9DB9E)" fill-opacity="0.6"/>
<path id="Vector_32" d="M183.208 62.0882V549.632H153.689V550.649H184.225V62.0882H183.208ZM183.208 61.072H184.225V31.5524H183.208V61.072ZM153.695 1.01657H183.215V30.5362H184.231V1.01657H153.695Z" fill="var(--fill-0, #F9DB9E)" fill-opacity="0.6"/>
<path id="Vector_33" d="M152.673 62.0882V549.632H123.153V550.649H153.689V62.0882H152.673ZM152.673 61.072H153.689V31.5524H152.673V61.072ZM123.159 1.01657H152.679V30.5362H153.695V1.01657H123.159Z" fill="var(--fill-0, #F9DB9E)" fill-opacity="0.6"/>
<path id="Vector_34" d="M122.143 62.0882V549.632H92.6234V550.649H123.159V62.0882H122.143ZM122.143 61.072H123.159V31.5524H122.143V61.072ZM92.6234 1.01657H122.143V30.5362H123.159V1.01657H92.6234Z" fill="var(--fill-0, #F9DB9E)" fill-opacity="0.6"/>
<path id="Vector_35" d="M91.6073 62.0882V549.632H62.0877V550.649H92.6235V62.0882H91.6073ZM91.6073 61.072H92.6235V31.5524H91.6073V61.072ZM62.0877 1.01657H91.6073V30.5362H92.6235V1.01657H62.0877Z" fill="var(--fill-0, #F9DB9E)" fill-opacity="0.6"/>
<path id="Vector_36" d="M61.0716 62.0882V549.632H31.552V550.649H62.0878V62.0882H61.0716ZM61.0716 61.072H62.0878V31.5524H61.0716V61.072ZM31.552 1.01657H61.0716V30.5362H62.0878V1.01657H31.552Z" fill="var(--fill-0, #F9DB9E)" fill-opacity="0.6"/>
<path id="Vector_37" d="M30.5356 61.0717H31.5518V31.552H30.5356V61.0717ZM1.90594 1.0162H30.5356V30.5358H31.5518V1.0162H1.89963H1.90594ZM-0.000183105 2.4635e-05V550.655H31.5518V62.0878H30.5356V549.632H1.01599V62.0878H0.883449V2.4635e-05H-0.000183105Z" fill="var(--fill-0, #F9DB9E)" fill-opacity="0.6"/>
<path id="Vector_38" d="M-0.000183105 2.4635e-05V31.552V30.5358H1.01599V1.0162H30.6619H61.1914H91.7146H122.244H152.774H183.303H213.833H244.362H274.892H305.415H335.944H366.474H397.003H427.533H458.062H488.592H519.115H549.644H580.174H608.797V30.5358H609.82V2.4635e-05H-0.000183105Z" fill="var(--fill-0, #F9DB9E)" fill-opacity="0.6"/>
<path id="Vector_39" d="M609.82 62.0879V30.5359H579.158V31.5521H608.797V61.0717H579.158V62.0879H609.82ZM579.158 62.0879V61.0717H518.099V62.0879H579.158ZM579.158 31.5521V30.5359H518.099V31.5521H579.158ZM518.099 62.0879V61.0717H457.04V62.0879H518.099ZM518.099 31.5521V30.5359H457.04V31.5521H518.099ZM457.04 62.0879V61.0717H426.51V62.0879H457.04ZM457.04 31.5521V30.5359H426.51V31.5521H457.04ZM426.517 62.0879V61.0717H395.987V62.0879H426.517ZM426.517 31.5521V30.5359H395.987V31.5521H426.517ZM395.987 62.0879V61.0717H365.458V62.0879H395.987ZM395.987 31.5521V30.5359H365.458V31.5521H395.987ZM365.458 62.0879V61.0717H334.928V62.0879H365.458ZM365.458 31.5521V30.5359H334.928V31.5521H365.458ZM334.928 62.0879V61.0717H304.399V62.0879H334.928ZM334.928 31.5521V30.5359H304.399V31.5521H334.928ZM304.399 62.0879V61.0717H273.869V62.0879H304.399ZM304.399 31.5521V30.5359H273.869V31.5521H304.399ZM273.869 62.0879V61.0717H243.34V62.0879H273.869ZM273.869 31.5521V30.5359H243.34V31.5521H273.869ZM243.34 62.0879V61.0717H212.81V62.0879H243.34ZM243.34 31.5521V30.5359H212.81V31.5521H243.34ZM212.816 62.0879V61.0717H182.287V62.0879H212.816ZM212.816 31.5521V30.5359H182.287V31.5521H212.816ZM182.287 62.0879V61.0717H1.01599V31.5521H182.287V30.5359H-0.000183105V62.0879H182.287Z" fill="var(--fill-0, #F9DB9E)" fill-opacity="0.6"/>
<path id="Vector_40" d="M609.82 549.632H580.306V550.649H609.82V549.632Z" fill="var(--fill-0, #F9DB9E)" fill-opacity="0.6"/>
</g>
<defs>
<clipPath id="clip0_0_190">
<rect width="609.82" height="550.654" fill="white"/>
</clipPath>
</defs>
</svg>
