<svg overflow="visible" style="display: block;" viewBox="0 0 47.3499 37.3323" fill="none" xmlns="http://www.w3.org/2000/svg">
<g id="Group">
<path id="Vector" d="M13.8009 29.5317C13.0009 28.7917 12.1409 28.1117 11.5409 27.1717C11.3909 26.9417 11.1709 26.7317 10.9409 26.5617C10.0509 25.9017 9.35093 25.0717 8.61093 24.2617C8.16093 23.7717 7.67093 23.3217 7.15093 22.9117C6.62093 22.4917 5.93093 22.5017 5.57093 22.8317C5.21093 23.1617 5.29093 23.8117 5.79093 24.3617C6.69093 25.3417 7.58093 26.3317 8.66093 27.1217C9.23093 27.5417 9.74093 28.0517 10.2609 28.5317C11.0709 29.2617 11.8309 30.0517 12.6809 30.7317C13.7209 31.5517 14.7709 32.3517 15.7109 33.3017C15.9009 33.4917 16.1409 33.6917 16.5409 33.5017C16.5209 33.3617 16.5409 33.1617 16.4709 33.0317C15.7309 31.7517 14.8909 30.5517 13.8009 29.5317Z" fill="var(--fill-0, black)"/>
<path id="Vector_2" d="M5.39123 33.4215C4.63123 32.8915 2.83123 31.6315 1.24123 32.2315C1.09123 32.2915 0.281229 32.6015 0.0612286 33.3115C-0.178771 34.0615 0.321228 35.0015 0.961228 35.4815C2.22123 36.4315 3.45123 35.2015 5.73123 35.8415C7.49123 36.3415 8.26123 37.5015 8.47123 37.3115C8.72123 37.0815 7.51123 34.8915 5.39123 33.4115V33.4215Z" fill="var(--fill-0, black)"/>
<path id="Vector_3" d="M0.941499 19.3715C1.4115 19.8315 1.9115 20.2715 2.4015 20.7115C2.8215 21.0915 3.2315 21.4915 3.6815 21.8315C4.0615 22.1215 4.6715 22.0515 4.9915 21.7315C5.3015 21.4215 5.2615 21.0515 5.0715 20.5015C4.5215 19.6115 3.8915 18.5515 3.2115 17.5215C2.9115 17.0715 2.3315 16.9615 1.8015 17.2015C1.4615 17.3615 1.1415 17.5715 0.831498 17.7815C0.501498 18.0115 0.381498 18.4315 0.551498 18.7815C0.651498 18.9915 0.781498 19.2015 0.951498 19.3615L0.941499 19.3715Z" fill="var(--fill-0, black)"/>
<path id="Vector_4" d="M34.2112 23.6415C34.1812 23.1815 34.1812 22.7215 34.1412 22.2615C33.8912 19.6915 33.6412 17.1115 33.3912 14.5415C33.1912 12.5215 32.9912 10.5015 32.7912 8.48149C32.8312 8.48149 32.8712 8.48149 32.9112 8.47149C32.8112 7.18149 32.7312 5.89149 32.6112 4.60149C32.5512 3.96149 32.4512 3.31149 32.2812 2.69149C32.1112 2.05149 31.7312 1.52149 31.1312 1.19149C30.7212 0.971486 30.2212 1.04149 30.0012 1.37149C29.4012 2.28149 29.0512 3.20149 29.4212 4.36149C29.9412 5.98149 30.3412 7.64149 30.5312 9.35149C30.6212 10.1315 30.8012 10.9015 30.9412 11.6715C31.1112 12.6215 31.3412 13.5715 31.4612 14.5315C31.6812 16.3615 31.8112 18.2115 32.0112 20.0415C32.2912 22.6115 32.5912 25.1815 32.8912 27.7515C32.9312 28.0615 33.0412 28.3815 33.1812 28.6615C33.2512 28.7915 33.4912 28.9215 33.6312 28.9015C33.8312 28.8615 34.0112 28.7015 34.1812 28.5615C34.2412 28.5115 34.2512 28.3915 34.2612 28.3015C34.4512 27.1615 34.7312 26.0415 34.3412 24.8815C34.2112 24.5015 34.2612 24.0615 34.2312 23.6415H34.2112Z" fill="var(--fill-0, black)"/>
<path id="Vector_5" d="M46.5312 4.34149C46.0112 3.71149 45.2712 3.75149 44.9212 4.46149C44.6912 4.93149 44.4812 5.44149 44.3712 5.95149C43.9012 8.12149 43.7712 10.3315 43.7012 12.5415C43.7012 13.6015 43.7012 14.6715 43.7012 15.7315C43.7012 16.2315 44.0412 16.5515 44.5312 16.5915C45.1512 16.6415 45.6212 16.3615 45.6512 15.7415C45.7412 14.2715 46.4712 12.9515 46.5812 11.4715C46.7012 9.93149 47.2512 8.46149 47.3412 6.90149C47.4012 5.88149 47.1512 5.08149 46.5412 4.33149L46.5312 4.34149Z" fill="var(--fill-0, black)"/>
<path id="Vector_6" d="M43.8909 19.2515C43.4609 19.3415 43.3909 19.7315 43.3409 20.0715C43.1909 21.1615 43.1009 21.3215 43.0209 22.4215C42.9309 23.7415 42.9009 25.0615 42.7209 26.3815C42.5509 27.6015 42.5209 28.8415 42.4409 30.0715C42.4309 30.2415 42.4409 30.4315 42.5009 30.5915C42.6209 30.9115 42.8909 31.0615 43.2209 31.0815C43.5509 31.1015 43.8809 30.9315 43.9809 30.6615C44.0409 30.5015 44.0709 30.3215 44.0909 30.1515C44.3309 28.4415 44.5609 26.7415 44.8209 25.0315C45.0209 23.6815 45.1809 23.2715 45.3909 21.9115C45.4209 21.6915 45.4509 21.4715 45.4709 21.3815C45.5109 20.6615 45.0409 20.3115 44.7909 19.8515C44.6009 19.4915 44.3709 19.1415 43.8809 19.2515H43.8909Z" fill="var(--fill-0, black)"/>
<path id="Vector_7" d="M23.9408 24.2515C23.2708 22.6515 22.6108 21.0515 21.8808 19.4715C20.6108 16.7415 19.4208 13.9815 18.6008 11.0815C18.5608 10.9315 18.3708 10.7515 18.2208 10.7215C18.0708 10.6915 17.8608 10.8015 17.7208 10.9115C17.6108 11.0015 17.5508 11.1615 17.4908 11.3015C17.2008 11.9715 16.9308 12.6515 16.6508 13.3215C16.5208 13.6415 16.3308 13.9015 16.0408 14.1615C15.9008 13.9815 15.7908 13.8715 15.7208 13.7415C14.3808 11.2215 13.0508 8.71149 11.7108 6.19149C10.8408 4.56149 9.99082 2.92149 9.10082 1.29149C8.90082 0.931486 8.62082 0.591486 8.33082 0.301486C8.01082 -0.00851423 7.58082 -0.0685143 7.14082 0.0714858C6.59082 0.251486 6.05082 0.441486 5.50082 0.621486C5.26082 0.701486 5.09082 0.871486 5.09082 1.12149C5.09082 1.38149 5.09082 1.67149 5.21082 1.90149C5.55082 2.59149 5.93082 3.27149 6.32082 3.93149C7.16082 5.36149 8.03082 6.77149 8.88082 8.19149C9.18082 8.69149 9.41082 9.22149 9.73082 9.70149C10.2908 10.5415 10.7708 11.4115 11.0908 12.3715C11.2108 12.7315 11.4208 13.0615 11.6208 13.3915C12.0008 14.0215 12.4208 14.6115 12.7808 15.2515C13.6808 16.8715 14.6008 18.4815 15.7408 19.9415C15.9508 20.2115 16.1908 20.3815 16.5208 20.3415C16.8708 20.3015 17.0208 20.0115 17.1308 19.7115C17.3108 19.2415 17.4808 18.7715 17.6708 18.3115C17.7408 18.1515 17.8308 17.9515 18.1608 18.0215C18.3108 18.2715 18.4908 18.5615 18.6408 18.8715C18.9308 19.4515 19.1308 20.1015 19.5108 20.6215C20.3508 21.7815 20.9708 23.0615 21.7108 24.2715C22.4208 25.4215 23.0108 26.6415 23.8808 27.6815C24.1508 28.0015 24.3908 28.3615 24.6008 28.7215C25.0008 29.3815 25.3708 30.0515 25.7608 30.7215C26.0508 31.2215 26.3608 31.7115 26.6408 32.2215C27.0308 32.9315 27.4008 33.6515 27.7808 34.3715C27.8908 34.5815 28.0208 34.7815 28.3108 34.6715C27.8908 33.6315 27.4508 32.6115 27.0208 31.5815C26.0008 29.1215 24.9808 26.6615 23.9508 24.2115L23.9408 24.2515Z" fill="var(--fill-0, black)"/>
</g>
</svg>
