<svg overflow="visible" style="display: block;" viewBox="0 0 600 137" fill="none" xmlns="http://www.w3.org/2000/svg">
<g id="Divider_v1" clip-path="url(#clip0_0_4)">
<path id="Wave" d="M-973.6 32.3891C-1079.73 2.53696 -1185.87 2.53696 -1292 32.3891V127H1892V32.3891C1785.87 62.2413 1679.73 62.2413 1573.6 32.3891C1467.47 2.53696 1361.33 2.53696 1255.2 32.3891C1149.07 62.2413 1042.93 62.2413 936.8 32.3891C830.667 2.53696 724.533 2.53696 618.4 32.3891C512.267 62.2413 406.133 62.2413 300 32.3891C193.867 2.53696 87.7333 2.53696 -18.4 32.3891C-124.533 62.2413 -230.667 62.2413 -336.8 32.3891C-442.933 2.53696 -549.067 2.53696 -655.2 32.3891C-761.333 62.2413 -867.467 62.2413 -973.6 32.3891Z" fill="var(--fill-0, #F0B504)"/>
</g>
<defs>
<clipPath id="clip0_0_4">
<rect width="600" height="137" fill="white"/>
</clipPath>
</defs>
</svg>
