<svg overflow="visible" style="display: block;" viewBox="0 0 487 33" fill="none" xmlns="http://www.w3.org/2000/svg">
<g id="Divider_v2">
<path id="Vector" d="M4.2518 15.8777C-0.628806 13.9674 -0.519788 11.911 4.20021 10.6604C7.33202 9.83042 11.8369 9.45488 16.2769 9.08634C88.7556 3.09204 168.617 1.26236 257.095 3.14172C319.585 4.46962 384.351 7.2633 449.688 10.4969C461.067 11.0613 475.761 15.3448 482.524 20.0715C489.287 24.7982 485.421 28.1662 474.207 27.6244C399.714 23.9525 324.913 18.7271 254.012 17.4752C181.19 16.1861 111.705 16.8946 46.4913 19.5917C37.5996 19.9594 27.9886 20.3191 16.6256 18.7065C10.9956 17.9078 6.88815 16.9138 4.25086 15.8825" fill="var(--fill-0, #F5F4EC)"/>
</g>
</svg>
